<?xml version="1.0" encoding="UTF-8" standalone="no"?>
<!DOCTYPE svg PUBLIC "-//W3C//DTD SVG 1.1//EN"
 "http://www.w3.org/Graphics/SVG/1.1/DTD/svg11.dtd">
<!-- Generated by graphviz version 2.40.1 (20161225.0304)
 -->
<!-- Title: src/lug/Graphics/Vulkan/API/CommandBuffer/Pipeline.cpp Pages: 1 -->
<svg width="2156pt" height="430pt"
 viewBox="0.00 0.00 2155.85 430.00" xmlns="http://www.w3.org/2000/svg" xmlns:xlink="http://www.w3.org/1999/xlink">
<g id="graph0" class="graph" transform="scale(1 1) rotate(0) translate(4 426)">
<title>src/lug/Graphics/Vulkan/API/CommandBuffer/Pipeline.cpp</title>
<!-- Node0 -->
<g id="node1" class="node">
<title>Node0</title>
<polygon fill="#bfbfbf" stroke="#000000" points="1272.5,-391.5 1272.5,-421.5 1460.5,-421.5 1460.5,-391.5 1272.5,-391.5"/>
<text text-anchor="start" x="1280.5" y="-409.5" font-family="Helvetica,sans-Serif" font-size="10.00" fill="#000000">src/lug/Graphics/Vulkan</text>
<text text-anchor="middle" x="1366.5" y="-398.5" font-family="Helvetica,sans-Serif" font-size="10.00" fill="#000000">/API/CommandBuffer/Pipeline.cpp</text>
</g>
<!-- Node1 -->
<g id="node2" class="node">
<title>Node1</title>
<g id="a_node2"><a xlink:href="CommandBuffer_8hpp.html" target="_top" xlink:title="lug/Graphics/Vulkan\l/API/CommandBuffer.hpp">
<polygon fill="none" stroke="#000000" points="649,-190.5 649,-220.5 794,-220.5 794,-190.5 649,-190.5"/>
<text text-anchor="start" x="657" y="-208.5" font-family="Helvetica,sans-Serif" font-size="10.00" fill="#000000">lug/Graphics/Vulkan</text>
<text text-anchor="middle" x="721.5" y="-197.5" font-family="Helvetica,sans-Serif" font-size="10.00" fill="#000000">/API/CommandBuffer.hpp</text>
</a>
</g>
</g>
<!-- Node0&#45;&gt;Node1 -->
<g id="edge1" class="edge">
<title>Node0&#45;&gt;Node1</title>
<path fill="none" stroke="#191970" d="M1318.2839,-391.4745C1201.8201,-355.1811 905.5135,-262.8437 779.5662,-223.595"/>
<polygon fill="#191970" stroke="#191970" points="780.304,-220.159 769.7155,-220.5253 778.2214,-226.842 780.304,-220.159"/>
</g>
<!-- Node15 -->
<g id="node16" class="node">
<title>Node15</title>
<polygon fill="none" stroke="#bfbfbf" points="1273,-330 1273,-349 1338,-349 1338,-330 1273,-330"/>
<text text-anchor="middle" x="1305.5" y="-337" font-family="Helvetica,sans-Serif" font-size="10.00" fill="#000000">algorithm</text>
</g>
<!-- Node0&#45;&gt;Node15 -->
<g id="edge16" class="edge">
<title>Node0&#45;&gt;Node15</title>
<path fill="none" stroke="#191970" d="M1352.6582,-391.2967C1343.2463,-380.9591 1330.7817,-367.2684 1321.0311,-356.5588"/>
<polygon fill="#191970" stroke="#191970" points="1323.5196,-354.0931 1314.1993,-349.055 1318.3435,-358.8057 1323.5196,-354.0931"/>
</g>
<!-- Node16 -->
<g id="node17" class="node">
<title>Node16</title>
<g id="a_node17"><a xlink:href="Buffer_8hpp.html" target="_top" xlink:title="lug/Graphics/Vulkan\l/API/Buffer.hpp">
<polygon fill="none" stroke="#000000" points="1419.5,-190.5 1419.5,-220.5 1537.5,-220.5 1537.5,-190.5 1419.5,-190.5"/>
<text text-anchor="start" x="1427.5" y="-208.5" font-family="Helvetica,sans-Serif" font-size="10.00" fill="#000000">lug/Graphics/Vulkan</text>
<text text-anchor="middle" x="1478.5" y="-197.5" font-family="Helvetica,sans-Serif" font-size="10.00" fill="#000000">/API/Buffer.hpp</text>
</a>
</g>
</g>
<!-- Node0&#45;&gt;Node16 -->
<g id="edge17" class="edge">
<title>Node0&#45;&gt;Node16</title>
<path fill="none" stroke="#191970" d="M1374.9182,-391.3923C1394.2216,-356.7497 1441.8037,-271.3568 1465.1478,-229.4625"/>
<polygon fill="#191970" stroke="#191970" points="1468.3267,-230.9479 1470.1369,-220.5088 1462.2119,-227.5406 1468.3267,-230.9479"/>
</g>
<!-- Node19 -->
<g id="node20" class="node">
<title>Node19</title>
<g id="a_node20"><a xlink:href="Image_8hpp.html" target="_top" xlink:title="lug/Graphics/Vulkan\l/API/Image.hpp">
<polygon fill="none" stroke="#000000" points="1283.5,-190.5 1283.5,-220.5 1401.5,-220.5 1401.5,-190.5 1283.5,-190.5"/>
<text text-anchor="start" x="1291.5" y="-208.5" font-family="Helvetica,sans-Serif" font-size="10.00" fill="#000000">lug/Graphics/Vulkan</text>
<text text-anchor="middle" x="1342.5" y="-197.5" font-family="Helvetica,sans-Serif" font-size="10.00" fill="#000000">/API/Image.hpp</text>
</a>
</g>
</g>
<!-- Node0&#45;&gt;Node19 -->
<g id="edge22" class="edge">
<title>Node0&#45;&gt;Node19</title>
<path fill="none" stroke="#191970" d="M1364.6961,-391.3923C1360.5945,-357.0414 1350.5348,-272.7914 1345.4887,-230.5301"/>
<polygon fill="#191970" stroke="#191970" points="1348.9531,-230.0233 1344.2921,-220.5088 1342.0025,-230.8533 1348.9531,-230.0233"/>
</g>
<!-- Node22 -->
<g id="node23" class="node">
<title>Node22</title>
<g id="a_node23"><a xlink:href="GraphicsPipeline_8hpp.html" target="_top" xlink:title="lug/Graphics/Vulkan\l/API/GraphicsPipeline.hpp">
<polygon fill="none" stroke="#000000" points="1543.5,-324.5 1543.5,-354.5 1689.5,-354.5 1689.5,-324.5 1543.5,-324.5"/>
<text text-anchor="start" x="1551.5" y="-342.5" font-family="Helvetica,sans-Serif" font-size="10.00" fill="#000000">lug/Graphics/Vulkan</text>
<text text-anchor="middle" x="1616.5" y="-331.5" font-family="Helvetica,sans-Serif" font-size="10.00" fill="#000000">/API/GraphicsPipeline.hpp</text>
</a>
</g>
</g>
<!-- Node0&#45;&gt;Node22 -->
<g id="edge28" class="edge">
<title>Node0&#45;&gt;Node22</title>
<path fill="none" stroke="#191970" d="M1422.6049,-391.4639C1460.4285,-381.3272 1510.4912,-367.9104 1550.2719,-357.2491"/>
<polygon fill="#191970" stroke="#191970" points="1551.3973,-360.5711 1560.1504,-354.6017 1549.5852,-353.8097 1551.3973,-360.5711"/>
</g>
<!-- Node2 -->
<g id="node3" class="node">
<title>Node2</title>
<g id="a_node3"><a xlink:href="Graphics_2Export_8hpp.html" target="_top" xlink:title="lug/Graphics/Export.hpp">
<polygon fill="none" stroke="#000000" points="1497.5,-56.5 1497.5,-75.5 1635.5,-75.5 1635.5,-56.5 1497.5,-56.5"/>
<text text-anchor="middle" x="1566.5" y="-63.5" font-family="Helvetica,sans-Serif" font-size="10.00" fill="#000000">lug/Graphics/Export.hpp</text>
</a>
</g>
</g>
<!-- Node1&#45;&gt;Node2 -->
<g id="edge2" class="edge">
<title>Node1&#45;&gt;Node2</title>
<path fill="none" stroke="#191970" d="M648.7816,-203.2732C517.1883,-198.4889 250.5016,-185.0403 222.5,-154 209.9965,-140.1397 209.5284,-125.4232 222.5,-112 244.5858,-89.1454 1201.9902,-71.8821 1487.1616,-67.2399"/>
<polygon fill="#191970" stroke="#191970" points="1487.481,-70.7353 1497.4229,-67.0736 1487.3675,-63.7362 1487.481,-70.7353"/>
</g>
<!-- Node4 -->
<g id="node5" class="node">
<title>Node4</title>
<g id="a_node5"><a xlink:href="Vulkan_8hpp.html" target="_top" xlink:title="lug/Graphics/Vulkan\l/Vulkan.hpp">
<polygon fill="none" stroke="#000000" points="1642.5,-118 1642.5,-148 1760.5,-148 1760.5,-118 1642.5,-118"/>
<text text-anchor="start" x="1650.5" y="-136" font-family="Helvetica,sans-Serif" font-size="10.00" fill="#000000">lug/Graphics/Vulkan</text>
<text text-anchor="middle" x="1701.5" y="-125" font-family="Helvetica,sans-Serif" font-size="10.00" fill="#000000">/Vulkan.hpp</text>
</a>
</g>
</g>
<!-- Node1&#45;&gt;Node4 -->
<g id="edge4" class="edge">
<title>Node1&#45;&gt;Node4</title>
<path fill="none" stroke="#191970" d="M794.0049,-202.854C938.3108,-197.1773 1271.6127,-182.0144 1550.5,-154 1577.3525,-151.3026 1606.7694,-147.4225 1632.4479,-143.7297"/>
<polygon fill="#191970" stroke="#191970" points="1633.0699,-147.1761 1642.4615,-142.2722 1632.0616,-140.2491 1633.0699,-147.1761"/>
</g>
<!-- Node9 -->
<g id="node10" class="node">
<title>Node9</title>
<g id="a_node10"><a xlink:href="CommandBuffer_2Buffer_8inl.html" target="_top" xlink:title="lug/Graphics/Vulkan\l/API/CommandBuffer/Buffer.inl">
<polygon fill="none" stroke="#000000" points="809.5,-118 809.5,-148 983.5,-148 983.5,-118 809.5,-118"/>
<text text-anchor="start" x="817.5" y="-136" font-family="Helvetica,sans-Serif" font-size="10.00" fill="#000000">lug/Graphics/Vulkan</text>
<text text-anchor="middle" x="896.5" y="-125" font-family="Helvetica,sans-Serif" font-size="10.00" fill="#000000">/API/CommandBuffer/Buffer.inl</text>
</a>
</g>
</g>
<!-- Node1&#45;&gt;Node9 -->
<g id="edge10" class="edge">
<title>Node1&#45;&gt;Node9</title>
<path fill="none" stroke="#191970" d="M757.7601,-190.478C784.7441,-179.2989 821.7663,-163.9611 850.78,-151.9411"/>
<polygon fill="#191970" stroke="#191970" points="852.3874,-155.0638 860.2863,-148.0028 849.7082,-148.5968 852.3874,-155.0638"/>
</g>
<!-- Node10 -->
<g id="node11" class="node">
<title>Node10</title>
<g id="a_node11"><a xlink:href="API_2CommandBuffer_2DescriptorSet_8inl.html" target="_top" xlink:title="lug/Graphics/Vulkan\l/API/CommandBuffer/Descriptor\lSet.inl">
<polygon fill="none" stroke="#000000" points="1002,-112.5 1002,-153.5 1181,-153.5 1181,-112.5 1002,-112.5"/>
<text text-anchor="start" x="1010" y="-141.5" font-family="Helvetica,sans-Serif" font-size="10.00" fill="#000000">lug/Graphics/Vulkan</text>
<text text-anchor="start" x="1010" y="-130.5" font-family="Helvetica,sans-Serif" font-size="10.00" fill="#000000">/API/CommandBuffer/Descriptor</text>
<text text-anchor="middle" x="1091.5" y="-119.5" font-family="Helvetica,sans-Serif" font-size="10.00" fill="#000000">Set.inl</text>
</a>
</g>
</g>
<!-- Node1&#45;&gt;Node10 -->
<g id="edge11" class="edge">
<title>Node1&#45;&gt;Node10</title>
<path fill="none" stroke="#191970" d="M794.0461,-192.146C846.3216,-182.4229 918.81,-168.7359 992.0687,-154.0681"/>
<polygon fill="#191970" stroke="#191970" points="992.8235,-157.4865 1001.9391,-152.0867 991.4458,-150.6234 992.8235,-157.4865"/>
</g>
<!-- Node11 -->
<g id="node12" class="node">
<title>Node11</title>
<g id="a_node12"><a xlink:href="CommandBuffer_2Image_8inl.html" target="_top" xlink:title="lug/Graphics/Vulkan\l/API/CommandBuffer/Image.inl">
<polygon fill="none" stroke="#000000" points="0,-118 0,-148 175,-148 175,-118 0,-118"/>
<text text-anchor="start" x="8" y="-136" font-family="Helvetica,sans-Serif" font-size="10.00" fill="#000000">lug/Graphics/Vulkan</text>
<text text-anchor="middle" x="87.5" y="-125" font-family="Helvetica,sans-Serif" font-size="10.00" fill="#000000">/API/CommandBuffer/Image.inl</text>
</a>
</g>
</g>
<!-- Node1&#45;&gt;Node11 -->
<g id="edge12" class="edge">
<title>Node1&#45;&gt;Node11</title>
<path fill="none" stroke="#191970" d="M648.9177,-200.9345C546.2249,-193.9169 352.8222,-178.6461 189.5,-154 181.62,-152.8109 173.4297,-151.4087 165.2695,-149.902"/>
<polygon fill="#191970" stroke="#191970" points="165.831,-146.4462 155.3537,-148.0197 164.5255,-153.3234 165.831,-146.4462"/>
</g>
<!-- Node12 -->
<g id="node13" class="node">
<title>Node12</title>
<g id="a_node13"><a xlink:href="RenderPass_8inl.html" target="_top" xlink:title="lug/Graphics/Vulkan\l/API/CommandBuffer/RenderPass.inl">
<polygon fill="none" stroke="#000000" points="232,-118 232,-148 433,-148 433,-118 232,-118"/>
<text text-anchor="start" x="240" y="-136" font-family="Helvetica,sans-Serif" font-size="10.00" fill="#000000">lug/Graphics/Vulkan</text>
<text text-anchor="middle" x="332.5" y="-125" font-family="Helvetica,sans-Serif" font-size="10.00" fill="#000000">/API/CommandBuffer/RenderPass.inl</text>
</a>
</g>
</g>
<!-- Node1&#45;&gt;Node12 -->
<g id="edge13" class="edge">
<title>Node1&#45;&gt;Node12</title>
<path fill="none" stroke="#191970" d="M648.9264,-192.2292C592.603,-181.8996 512.5734,-167.1561 442.5,-154 435.4717,-152.6805 428.1923,-151.3066 420.8791,-149.9213"/>
<polygon fill="#191970" stroke="#191970" points="421.383,-146.4545 410.9058,-148.0291 420.0781,-153.3318 421.383,-146.4545"/>
</g>
<!-- Node13 -->
<g id="node14" class="node">
<title>Node13</title>
<g id="a_node14"><a xlink:href="API_2CommandBuffer_2Pipeline_8inl.html" target="_top" xlink:title="lug/Graphics/Vulkan\l/API/CommandBuffer/Pipeline.inl">
<polygon fill="none" stroke="#000000" points="451.5,-118 451.5,-148 633.5,-148 633.5,-118 451.5,-118"/>
<text text-anchor="start" x="459.5" y="-136" font-family="Helvetica,sans-Serif" font-size="10.00" fill="#000000">lug/Graphics/Vulkan</text>
<text text-anchor="middle" x="542.5" y="-125" font-family="Helvetica,sans-Serif" font-size="10.00" fill="#000000">/API/CommandBuffer/Pipeline.inl</text>
</a>
</g>
</g>
<!-- Node1&#45;&gt;Node13 -->
<g id="edge14" class="edge">
<title>Node1&#45;&gt;Node13</title>
<path fill="none" stroke="#191970" d="M684.4111,-190.478C656.6903,-179.2503 618.6124,-163.8276 588.8784,-151.7845"/>
<polygon fill="#191970" stroke="#191970" points="590.124,-148.5129 579.5414,-148.0028 587.4961,-155.0009 590.124,-148.5129"/>
</g>
<!-- Node14 -->
<g id="node15" class="node">
<title>Node14</title>
<g id="a_node15"><a xlink:href="CommandBuffer_8inl.html" target="_top" xlink:title="lug/Graphics/Vulkan\l/API/CommandBuffer.inl">
<polygon fill="none" stroke="#000000" points="652,-118 652,-148 791,-148 791,-118 652,-118"/>
<text text-anchor="start" x="660" y="-136" font-family="Helvetica,sans-Serif" font-size="10.00" fill="#000000">lug/Graphics/Vulkan</text>
<text text-anchor="middle" x="721.5" y="-125" font-family="Helvetica,sans-Serif" font-size="10.00" fill="#000000">/API/CommandBuffer.inl</text>
</a>
</g>
</g>
<!-- Node1&#45;&gt;Node14 -->
<g id="edge15" class="edge">
<title>Node1&#45;&gt;Node14</title>
<path fill="none" stroke="#191970" d="M721.5,-190.478C721.5,-181.1459 721.5,-168.9157 721.5,-158.1368"/>
<polygon fill="#191970" stroke="#191970" points="725.0001,-158.0028 721.5,-148.0028 718.0001,-158.0028 725.0001,-158.0028"/>
</g>
<!-- Node3 -->
<g id="node4" class="node">
<title>Node3</title>
<g id="a_node4"><a xlink:href="Config_8hpp.html" target="_top" xlink:title="lug/Config.hpp">
<polygon fill="none" stroke="#000000" points="1522,-.5 1522,-19.5 1611,-19.5 1611,-.5 1522,-.5"/>
<text text-anchor="middle" x="1566.5" y="-7.5" font-family="Helvetica,sans-Serif" font-size="10.00" fill="#000000">lug/Config.hpp</text>
</a>
</g>
</g>
<!-- Node2&#45;&gt;Node3 -->
<g id="edge3" class="edge">
<title>Node2&#45;&gt;Node3</title>
<path fill="none" stroke="#191970" d="M1566.5,-56.2455C1566.5,-48.9382 1566.5,-38.6944 1566.5,-29.7046"/>
<polygon fill="#191970" stroke="#191970" points="1570.0001,-29.6426 1566.5,-19.6427 1563.0001,-29.6427 1570.0001,-29.6426"/>
</g>
<!-- Node4&#45;&gt;Node2 -->
<g id="edge8" class="edge">
<title>Node4&#45;&gt;Node2</title>
<path fill="none" stroke="#191970" d="M1671.2034,-117.9639C1648.348,-106.6209 1617.2171,-91.1707 1594.8506,-80.0703"/>
<polygon fill="#191970" stroke="#191970" points="1596.3647,-76.9144 1585.8512,-75.6039 1593.2527,-83.1847 1596.3647,-76.9144"/>
</g>
<!-- Node5 -->
<g id="node6" class="node">
<title>Node5</title>
<polygon fill="none" stroke="#bfbfbf" points="1769,-56.5 1769,-75.5 1864,-75.5 1864,-56.5 1769,-56.5"/>
<text text-anchor="middle" x="1816.5" y="-63.5" font-family="Helvetica,sans-Serif" font-size="10.00" fill="#000000">unordered_map</text>
</g>
<!-- Node4&#45;&gt;Node5 -->
<g id="edge5" class="edge">
<title>Node4&#45;&gt;Node5</title>
<path fill="none" stroke="#191970" d="M1727.3082,-117.9639C1746.4299,-106.8234 1772.3517,-91.7212 1791.3218,-80.6691"/>
<polygon fill="#191970" stroke="#191970" points="1793.1371,-83.6622 1800.0157,-75.6039 1789.6132,-77.6138 1793.1371,-83.6622"/>
</g>
<!-- Node6 -->
<g id="node7" class="node">
<title>Node6</title>
<polygon fill="none" stroke="#bfbfbf" points="2036.5,-56.5 2036.5,-75.5 2084.5,-75.5 2084.5,-56.5 2036.5,-56.5"/>
<text text-anchor="middle" x="2060.5" y="-63.5" font-family="Helvetica,sans-Serif" font-size="10.00" fill="#000000">vector</text>
</g>
<!-- Node4&#45;&gt;Node6 -->
<g id="edge6" class="edge">
<title>Node4&#45;&gt;Node6</title>
<path fill="none" stroke="#191970" d="M1747.6577,-117.9929C1755.2428,-115.8041 1763.0567,-113.7144 1770.5,-112 1861.7798,-90.9761 1971.4308,-76.4339 2026.053,-69.9"/>
<polygon fill="#191970" stroke="#191970" points="2026.7009,-73.348 2036.222,-68.7005 2025.8808,-66.3962 2026.7009,-73.348"/>
</g>
<!-- Node7 -->
<g id="node8" class="node">
<title>Node7</title>
<polygon fill="none" stroke="#bfbfbf" points="1882.5,-56.5 1882.5,-75.5 1940.5,-75.5 1940.5,-56.5 1882.5,-56.5"/>
<text text-anchor="middle" x="1911.5" y="-63.5" font-family="Helvetica,sans-Serif" font-size="10.00" fill="#000000">ostream</text>
</g>
<!-- Node4&#45;&gt;Node7 -->
<g id="edge7" class="edge">
<title>Node4&#45;&gt;Node7</title>
<path fill="none" stroke="#191970" d="M1748.6281,-117.9639C1785.9395,-106.0598 1837.4291,-89.6321 1872.459,-78.456"/>
<polygon fill="#191970" stroke="#191970" points="1873.8589,-81.6832 1882.322,-75.3092 1871.7312,-75.0144 1873.8589,-81.6832"/>
</g>
<!-- Node8 -->
<g id="node9" class="node">
<title>Node8</title>
<polygon fill="none" stroke="#bfbfbf" points="1654,-56.5 1654,-75.5 1751,-75.5 1751,-56.5 1654,-56.5"/>
<text text-anchor="middle" x="1702.5" y="-63.5" font-family="Helvetica,sans-Serif" font-size="10.00" fill="#000000">vulkan/vulkan.h</text>
</g>
<!-- Node4&#45;&gt;Node8 -->
<g id="edge9" class="edge">
<title>Node4&#45;&gt;Node8</title>
<path fill="none" stroke="#191970" d="M1701.7269,-117.7967C1701.8691,-108.2699 1702.0538,-95.8954 1702.207,-85.6306"/>
<polygon fill="#191970" stroke="#191970" points="1705.7077,-85.6061 1702.3574,-75.555 1698.7084,-85.5016 1705.7077,-85.6061"/>
</g>
<!-- Node16&#45;&gt;Node2 -->
<g id="edge19" class="edge">
<title>Node16&#45;&gt;Node2</title>
<path fill="none" stroke="#191970" d="M1509.8793,-190.3108C1524.4639,-181.6618 1540.71,-169.4475 1550.5,-154 1563.6407,-133.2654 1566.6534,-104.5815 1567.0356,-85.6729"/>
<polygon fill="#191970" stroke="#191970" points="1570.5354,-85.5523 1567.0072,-75.5622 1563.5354,-85.5721 1570.5354,-85.5523"/>
</g>
<!-- Node16&#45;&gt;Node4 -->
<g id="edge20" class="edge">
<title>Node16&#45;&gt;Node4</title>
<path fill="none" stroke="#191970" d="M1524.7057,-190.478C1559.8385,-179.0559 1608.3252,-163.2923 1645.6362,-151.162"/>
<polygon fill="#191970" stroke="#191970" points="1646.9256,-154.4232 1655.3534,-148.0028 1644.7613,-147.7662 1646.9256,-154.4232"/>
</g>
<!-- Node17 -->
<g id="node18" class="node">
<title>Node17</title>
<polygon fill="none" stroke="#bfbfbf" points="1779,-123.5 1779,-142.5 1838,-142.5 1838,-123.5 1779,-123.5"/>
<text text-anchor="middle" x="1808.5" y="-130.5" font-family="Helvetica,sans-Serif" font-size="10.00" fill="#000000">memory</text>
</g>
<!-- Node16&#45;&gt;Node17 -->
<g id="edge18" class="edge">
<title>Node16&#45;&gt;Node17</title>
<path fill="none" stroke="#191970" d="M1537.7908,-191.75C1540.7321,-191.1417 1543.6474,-190.5548 1546.5,-190 1645.0479,-170.8343 1674.4255,-186.2468 1769.5,-154 1774.5591,-152.2841 1779.7443,-149.9531 1784.6147,-147.4671"/>
<polygon fill="#191970" stroke="#191970" points="1786.3851,-150.4882 1793.4766,-142.6167 1783.0242,-144.3478 1786.3851,-150.4882"/>
</g>
<!-- Node18 -->
<g id="node19" class="node">
<title>Node18</title>
<g id="a_node19"><a xlink:href="Buffer_8inl.html" target="_top" xlink:title="lug/Graphics/Vulkan\l/API/Buffer.inl">
<polygon fill="none" stroke="#000000" points="1423.5,-118 1423.5,-148 1541.5,-148 1541.5,-118 1423.5,-118"/>
<text text-anchor="start" x="1431.5" y="-136" font-family="Helvetica,sans-Serif" font-size="10.00" fill="#000000">lug/Graphics/Vulkan</text>
<text text-anchor="middle" x="1482.5" y="-125" font-family="Helvetica,sans-Serif" font-size="10.00" fill="#000000">/API/Buffer.inl</text>
</a>
</g>
</g>
<!-- Node16&#45;&gt;Node18 -->
<g id="edge21" class="edge">
<title>Node16&#45;&gt;Node18</title>
<path fill="none" stroke="#191970" d="M1479.3288,-190.478C1479.8437,-181.1459 1480.5184,-168.9157 1481.1131,-158.1368"/>
<polygon fill="#191970" stroke="#191970" points="1484.616,-158.1805 1481.6723,-148.0028 1477.6266,-157.7948 1484.616,-158.1805"/>
</g>
<!-- Node19&#45;&gt;Node2 -->
<g id="edge25" class="edge">
<title>Node19&#45;&gt;Node2</title>
<path fill="none" stroke="#191970" d="M1352.4438,-190.3979C1368.2485,-166.8008 1398.9043,-122.7667 1414.5,-112 1438.3449,-95.5384 1468.2285,-84.8402 1495.1741,-77.9476"/>
<polygon fill="#191970" stroke="#191970" points="1496.0582,-81.3348 1504.9519,-75.5768 1494.4087,-74.5319 1496.0582,-81.3348"/>
</g>
<!-- Node19&#45;&gt;Node4 -->
<g id="edge26" class="edge">
<title>Node19&#45;&gt;Node4</title>
<path fill="none" stroke="#191970" d="M1401.8145,-191.8671C1404.7496,-191.2279 1407.6571,-190.6023 1410.5,-190 1486.1981,-173.9629 1573.3205,-157.1084 1632.3576,-145.9247"/>
<polygon fill="#191970" stroke="#191970" points="1633.1385,-149.3392 1642.314,-144.042 1631.8378,-142.4611 1633.1385,-149.3392"/>
</g>
<!-- Node19&#45;&gt;Node17 -->
<g id="edge23" class="edge">
<title>Node19&#45;&gt;Node17</title>
<path fill="none" stroke="#191970" d="M1401.7529,-191.5382C1404.7042,-190.9859 1407.6321,-190.4688 1410.5,-190 1568.7555,-164.1314 1616.1621,-200.9198 1769.5,-154 1774.698,-152.4095 1779.9989,-150.0962 1784.9496,-147.5805"/>
<polygon fill="#191970" stroke="#191970" points="1786.8551,-150.5266 1793.9191,-142.6304 1783.4728,-144.398 1786.8551,-150.5266"/>
</g>
<!-- Node20 -->
<g id="node21" class="node">
<title>Node20</title>
<polygon fill="none" stroke="#bfbfbf" points="1335.5,-123.5 1335.5,-142.5 1367.5,-142.5 1367.5,-123.5 1335.5,-123.5"/>
<text text-anchor="middle" x="1351.5" y="-130.5" font-family="Helvetica,sans-Serif" font-size="10.00" fill="#000000">set</text>
</g>
<!-- Node19&#45;&gt;Node20 -->
<g id="edge24" class="edge">
<title>Node19&#45;&gt;Node20</title>
<path fill="none" stroke="#191970" d="M1344.3648,-190.478C1345.707,-179.6657 1347.5322,-164.9631 1349.0005,-153.1348"/>
<polygon fill="#191970" stroke="#191970" points="1352.5129,-153.2507 1350.2716,-142.8957 1345.5662,-152.3883 1352.5129,-153.2507"/>
</g>
<!-- Node21 -->
<g id="node22" class="node">
<title>Node21</title>
<g id="a_node22"><a xlink:href="Image_8inl.html" target="_top" xlink:title="lug/Graphics/Vulkan\l/API/Image.inl">
<polygon fill="none" stroke="#000000" points="1199.5,-118 1199.5,-148 1317.5,-148 1317.5,-118 1199.5,-118"/>
<text text-anchor="start" x="1207.5" y="-136" font-family="Helvetica,sans-Serif" font-size="10.00" fill="#000000">lug/Graphics/Vulkan</text>
<text text-anchor="middle" x="1258.5" y="-125" font-family="Helvetica,sans-Serif" font-size="10.00" fill="#000000">/API/Image.inl</text>
</a>
</g>
</g>
<!-- Node19&#45;&gt;Node21 -->
<g id="edge27" class="edge">
<title>Node19&#45;&gt;Node21</title>
<path fill="none" stroke="#191970" d="M1325.0951,-190.478C1313.1565,-180.1738 1297.1242,-166.3363 1283.7818,-154.8206"/>
<polygon fill="#191970" stroke="#191970" points="1285.7397,-151.8871 1275.8826,-148.0028 1281.166,-157.1863 1285.7397,-151.8871"/>
</g>
<!-- Node23 -->
<g id="node24" class="node">
<title>Node23</title>
<g id="a_node24"><a xlink:href="PipelineLayout_8hpp.html" target="_top" xlink:title="lug/Graphics/Vulkan\l/API/PipelineLayout.hpp">
<polygon fill="none" stroke="#000000" points="1823.5,-257.5 1823.5,-287.5 1959.5,-287.5 1959.5,-257.5 1823.5,-257.5"/>
<text text-anchor="start" x="1831.5" y="-275.5" font-family="Helvetica,sans-Serif" font-size="10.00" fill="#000000">lug/Graphics/Vulkan</text>
<text text-anchor="middle" x="1891.5" y="-264.5" font-family="Helvetica,sans-Serif" font-size="10.00" fill="#000000">/API/PipelineLayout.hpp</text>
</a>
</g>
</g>
<!-- Node22&#45;&gt;Node23 -->
<g id="edge29" class="edge">
<title>Node22&#45;&gt;Node23</title>
<path fill="none" stroke="#191970" d="M1678.2154,-324.4639C1720.174,-314.2412 1775.8246,-300.6827 1819.7592,-289.9787"/>
<polygon fill="#191970" stroke="#191970" points="1820.6282,-293.3694 1829.5155,-287.6017 1818.9711,-286.5684 1820.6282,-293.3694"/>
</g>
<!-- Node27 -->
<g id="node28" class="node">
<title>Node27</title>
<g id="a_node28"><a xlink:href="RenderPass_8hpp.html" target="_top" xlink:title="lug/Graphics/Vulkan\l/API/RenderPass.hpp">
<polygon fill="none" stroke="#000000" points="1555.5,-190.5 1555.5,-220.5 1677.5,-220.5 1677.5,-190.5 1555.5,-190.5"/>
<text text-anchor="start" x="1563.5" y="-208.5" font-family="Helvetica,sans-Serif" font-size="10.00" fill="#000000">lug/Graphics/Vulkan</text>
<text text-anchor="middle" x="1616.5" y="-197.5" font-family="Helvetica,sans-Serif" font-size="10.00" fill="#000000">/API/RenderPass.hpp</text>
</a>
</g>
</g>
<!-- Node22&#45;&gt;Node27 -->
<g id="edge40" class="edge">
<title>Node22&#45;&gt;Node27</title>
<path fill="none" stroke="#191970" d="M1616.5,-324.389C1616.5,-301.6691 1616.5,-258.438 1616.5,-230.8405"/>
<polygon fill="#191970" stroke="#191970" points="1620.0001,-230.7614 1616.5,-220.7614 1613.0001,-230.7614 1620.0001,-230.7614"/>
</g>
<!-- Node23&#45;&gt;Node2 -->
<g id="edge32" class="edge">
<title>Node23&#45;&gt;Node2</title>
<path fill="none" stroke="#191970" d="M1959.5283,-264.235C2011.8274,-256.3183 2077.8669,-242.3797 2094.5,-221 2107.8713,-203.8129 2120.6393,-142.3872 2091.5,-112 2058.6294,-77.7218 1727.3638,-80.7786 1645.9383,-75.848"/>
<polygon fill="#191970" stroke="#191970" points="1646.0448,-72.3458 1635.8028,-75.0572 1645.5002,-79.3246 1646.0448,-72.3458"/>
</g>
<!-- Node23&#45;&gt;Node4 -->
<g id="edge38" class="edge">
<title>Node23&#45;&gt;Node4</title>
<path fill="none" stroke="#191970" d="M1884.4424,-257.4875C1875.2349,-239.3255 1857.5437,-208.8469 1834.5,-190 1813.9907,-173.226 1787.8059,-160.5985 1764.1033,-151.548"/>
<polygon fill="#191970" stroke="#191970" points="1765.0625,-148.1718 1754.4689,-148.0094 1762.6491,-154.7426 1765.0625,-148.1718"/>
</g>
<!-- Node23&#45;&gt;Node6 -->
<g id="edge31" class="edge">
<title>Node23&#45;&gt;Node6</title>
<path fill="none" stroke="#191970" d="M1959.6398,-266.9809C2021.6935,-260.3728 2106.7205,-246.803 2127.5,-221 2157.8851,-183.2692 2150.0668,-154.8673 2127.5,-112 2120.1838,-98.1024 2106.5627,-87.5936 2093.5029,-80.1542"/>
<polygon fill="#191970" stroke="#191970" points="2095.1153,-77.0477 2084.6355,-75.4903 2091.8567,-83.243 2095.1153,-77.0477"/>
</g>
<!-- Node23&#45;&gt;Node17 -->
<g id="edge30" class="edge">
<title>Node23&#45;&gt;Node17</title>
<path fill="none" stroke="#191970" d="M1889.4808,-257.2531C1886.6611,-239.9387 1880.3688,-211.3294 1867.5,-190 1857.9352,-174.1467 1842.8701,-159.6956 1830.3575,-149.3108"/>
<polygon fill="#191970" stroke="#191970" points="1832.2014,-146.3045 1822.2016,-142.8036 1827.8357,-151.7763 1832.2014,-146.3045"/>
</g>
<!-- Node24 -->
<g id="node25" class="node">
<title>Node24</title>
<g id="a_node25"><a xlink:href="DescriptorSetLayout_8hpp.html" target="_top" xlink:title="lug/Graphics/Vulkan\l/API/DescriptorSetLayout.hpp">
<polygon fill="none" stroke="#000000" points="1920,-190.5 1920,-220.5 2085,-220.5 2085,-190.5 1920,-190.5"/>
<text text-anchor="start" x="1928" y="-208.5" font-family="Helvetica,sans-Serif" font-size="10.00" fill="#000000">lug/Graphics/Vulkan</text>
<text text-anchor="middle" x="2002.5" y="-197.5" font-family="Helvetica,sans-Serif" font-size="10.00" fill="#000000">/API/DescriptorSetLayout.hpp</text>
</a>
</g>
</g>
<!-- Node23&#45;&gt;Node24 -->
<g id="edge33" class="edge">
<title>Node23&#45;&gt;Node24</title>
<path fill="none" stroke="#191970" d="M1916.4106,-257.4639C1931.7271,-248.2188 1951.5639,-236.2452 1968.3349,-226.1222"/>
<polygon fill="#191970" stroke="#191970" points="1970.5359,-228.8819 1977.2885,-220.7177 1966.9185,-222.889 1970.5359,-228.8819"/>
</g>
<!-- Node26 -->
<g id="node27" class="node">
<title>Node26</title>
<g id="a_node27"><a xlink:href="PipelineLayout_8inl.html" target="_top" xlink:title="lug/Graphics/Vulkan\l/API/PipelineLayout.inl">
<polygon fill="none" stroke="#000000" points="1695.5,-190.5 1695.5,-220.5 1825.5,-220.5 1825.5,-190.5 1695.5,-190.5"/>
<text text-anchor="start" x="1703.5" y="-208.5" font-family="Helvetica,sans-Serif" font-size="10.00" fill="#000000">lug/Graphics/Vulkan</text>
<text text-anchor="middle" x="1760.5" y="-197.5" font-family="Helvetica,sans-Serif" font-size="10.00" fill="#000000">/API/PipelineLayout.inl</text>
</a>
</g>
</g>
<!-- Node23&#45;&gt;Node26 -->
<g id="edge39" class="edge">
<title>Node23&#45;&gt;Node26</title>
<path fill="none" stroke="#191970" d="M1862.101,-257.4639C1843.5226,-247.9619 1819.309,-235.5779 1799.1801,-225.283"/>
<polygon fill="#191970" stroke="#191970" points="1800.751,-222.1552 1790.2541,-220.7177 1797.5635,-228.3874 1800.751,-222.1552"/>
</g>
<!-- Node24&#45;&gt;Node2 -->
<g id="edge35" class="edge">
<title>Node24&#45;&gt;Node2</title>
<path fill="none" stroke="#191970" d="M1976.1923,-190.384C1958.6393,-180.2297 1935.0902,-166.4747 1914.5,-154 1884.4415,-135.7889 1880.3783,-124.4168 1847.5,-112 1828.6623,-104.8858 1719.9746,-88.1935 1643.4402,-76.9972"/>
<polygon fill="#191970" stroke="#191970" points="1643.7375,-73.5036 1633.337,-75.5237 1642.7272,-80.4303 1643.7375,-73.5036"/>
</g>
<!-- Node24&#45;&gt;Node4 -->
<g id="edge36" class="edge">
<title>Node24&#45;&gt;Node4</title>
<path fill="none" stroke="#191970" d="M1927.9666,-190.4791C1882.2994,-180.8986 1822.774,-167.7349 1770.5,-154 1766.7249,-153.0081 1762.8461,-151.9464 1758.9448,-150.8466"/>
<polygon fill="#191970" stroke="#191970" points="1759.8255,-147.458 1749.2473,-148.0524 1757.8873,-154.1843 1759.8255,-147.458"/>
</g>
<!-- Node24&#45;&gt;Node17 -->
<g id="edge34" class="edge">
<title>Node24&#45;&gt;Node17</title>
<path fill="none" stroke="#191970" d="M1962.3031,-190.478C1927.2516,-177.3788 1876.9212,-158.5698 1843.4982,-146.0792"/>
<polygon fill="#191970" stroke="#191970" points="1844.7181,-142.7988 1834.1256,-142.5766 1842.2676,-149.3558 1844.7181,-142.7988"/>
</g>
<!-- Node25 -->
<g id="node26" class="node">
<title>Node25</title>
<g id="a_node26"><a xlink:href="DescriptorSetLayout_8inl.html" target="_top" xlink:title="lug/Graphics/Vulkan\l/API/DescriptorSetLayout.inl">
<polygon fill="none" stroke="#000000" points="1923,-118 1923,-148 2082,-148 2082,-118 1923,-118"/>
<text text-anchor="start" x="1931" y="-136" font-family="Helvetica,sans-Serif" font-size="10.00" fill="#000000">lug/Graphics/Vulkan</text>
<text text-anchor="middle" x="2002.5" y="-125" font-family="Helvetica,sans-Serif" font-size="10.00" fill="#000000">/API/DescriptorSetLayout.inl</text>
</a>
</g>
</g>
<!-- Node24&#45;&gt;Node25 -->
<g id="edge37" class="edge">
<title>Node24&#45;&gt;Node25</title>
<path fill="none" stroke="#191970" d="M2002.5,-190.478C2002.5,-181.1459 2002.5,-168.9157 2002.5,-158.1368"/>
<polygon fill="#191970" stroke="#191970" points="2006.0001,-158.0028 2002.5,-148.0028 1999.0001,-158.0028 2006.0001,-158.0028"/>
</g>
<!-- Node27&#45;&gt;Node2 -->
<g id="edge42" class="edge">
<title>Node27&#45;&gt;Node2</title>
<path fill="none" stroke="#191970" d="M1611.1957,-190.2523C1604.7322,-171.7236 1593.4422,-139.5231 1583.5,-112 1580.3272,-103.2167 1576.7523,-93.5152 1573.7025,-85.2949"/>
<polygon fill="#191970" stroke="#191970" points="1576.9576,-84.0067 1570.1898,-75.8552 1570.3971,-86.448 1576.9576,-84.0067"/>
</g>
<!-- Node27&#45;&gt;Node4 -->
<g id="edge43" class="edge">
<title>Node27&#45;&gt;Node4</title>
<path fill="none" stroke="#191970" d="M1634.1121,-190.478C1646.3068,-180.0766 1662.7225,-166.0749 1676.2986,-154.4953"/>
<polygon fill="#191970" stroke="#191970" points="1678.5735,-157.1552 1683.9105,-148.0028 1674.0308,-151.8294 1678.5735,-157.1552"/>
</g>
<!-- Node27&#45;&gt;Node17 -->
<g id="edge41" class="edge">
<title>Node27&#45;&gt;Node17</title>
<path fill="none" stroke="#191970" d="M1668.3168,-190.458C1698.339,-181.1523 1736.589,-168.2773 1769.5,-154 1774.0239,-152.0375 1778.7284,-149.7405 1783.2393,-147.3997"/>
<polygon fill="#191970" stroke="#191970" points="1784.96,-150.4484 1792.1065,-142.6267 1781.6422,-144.2846 1784.96,-150.4484"/>
</g>
</g>
</svg>
