<?xml version="1.0" encoding="UTF-8" standalone="no"?>
<!DOCTYPE svg PUBLIC "-//W3C//DTD SVG 1.1//EN"
 "http://www.w3.org/Graphics/SVG/1.1/DTD/svg11.dtd">
<!-- Generated by graphviz version 2.40.1 (20161225.0304)
 -->
<!-- Title: include/lug/Graphics/Vulkan/API/Buffer.hpp Pages: 1 -->
<svg width="1521pt" height="396pt"
 viewBox="0.00 0.00 1521.00 396.00" xmlns="http://www.w3.org/2000/svg" xmlns:xlink="http://www.w3.org/1999/xlink">
<g id="graph0" class="graph" transform="scale(1 1) rotate(0) translate(4 392)">
<title>include/lug/Graphics/Vulkan/API/Buffer.hpp</title>
<!-- Node9 -->
<g id="node1" class="node">
<title>Node9</title>
<polygon fill="#bfbfbf" stroke="#000000" points="809,-357.5 809,-387.5 942,-387.5 942,-357.5 809,-357.5"/>
<text text-anchor="start" x="817" y="-375.5" font-family="Helvetica,sans-Serif" font-size="10.00" fill="#000000">include/lug/Graphics</text>
<text text-anchor="middle" x="875.5" y="-364.5" font-family="Helvetica,sans-Serif" font-size="10.00" fill="#000000">/Vulkan/API/Buffer.hpp</text>
</g>
<!-- Node10 -->
<g id="node2" class="node">
<title>Node10</title>
<g id="a_node2"><a xlink:href="DescriptorSet_8hpp.html" target="_top" xlink:title="include/lug/Graphics\l/Vulkan/API/DescriptorSet.hpp">
<polygon fill="none" stroke="#000000" points="243.5,-290.5 243.5,-320.5 413.5,-320.5 413.5,-290.5 243.5,-290.5"/>
<text text-anchor="start" x="251.5" y="-308.5" font-family="Helvetica,sans-Serif" font-size="10.00" fill="#000000">include/lug/Graphics</text>
<text text-anchor="middle" x="328.5" y="-297.5" font-family="Helvetica,sans-Serif" font-size="10.00" fill="#000000">/Vulkan/API/DescriptorSet.hpp</text>
</a>
</g>
</g>
<!-- Node9&#45;&gt;Node10 -->
<g id="edge1" class="edge">
<title>Node9&#45;&gt;Node10</title>
<path fill="none" stroke="#191970" d="M798.8068,-363.1061C697.4331,-350.6893 519.3723,-328.8792 413.8414,-315.9532"/>
<polygon fill="#191970" stroke="#191970" points="798.6226,-366.6096 808.9739,-364.3515 799.4737,-359.6616 798.6226,-366.6096"/>
</g>
<!-- Node12 -->
<g id="node4" class="node">
<title>Node12</title>
<g id="a_node4"><a xlink:href="BufferPool_8hpp.html" target="_top" xlink:title="include/lug/Graphics\l/Vulkan/Render/BufferPool.hpp">
<polygon fill="none" stroke="#000000" points="87,-151 87,-181 260,-181 260,-151 87,-151"/>
<text text-anchor="start" x="95" y="-169" font-family="Helvetica,sans-Serif" font-size="10.00" fill="#000000">include/lug/Graphics</text>
<text text-anchor="middle" x="173.5" y="-158" font-family="Helvetica,sans-Serif" font-size="10.00" fill="#000000">/Vulkan/Render/BufferPool.hpp</text>
</a>
</g>
</g>
<!-- Node9&#45;&gt;Node12 -->
<g id="edge29" class="edge">
<title>Node9&#45;&gt;Node12</title>
<path fill="none" stroke="#191970" d="M798.4406,-371.5148C651.3053,-368.7827 335.969,-358.5928 234.5,-321 187.0678,-303.4271 165.4388,-299.0825 142.5,-254 130.0859,-229.602 147.5723,-199.0661 160.8913,-181.1289"/>
<polygon fill="#191970" stroke="#191970" points="798.6774,-375.0195 808.7384,-371.6989 798.8026,-368.0206 798.6774,-375.0195"/>
</g>
<!-- Node13 -->
<g id="node5" class="node">
<title>Node13</title>
<g id="a_node5"><a xlink:href="Forward_8hpp.html" target="_top" xlink:title="include/lug/Graphics\l/Vulkan/Render/Technique\l/Forward.hpp">
<polygon fill="none" stroke="#000000" points="155,-67.5 155,-108.5 304,-108.5 304,-67.5 155,-67.5"/>
<text text-anchor="start" x="163" y="-96.5" font-family="Helvetica,sans-Serif" font-size="10.00" fill="#000000">include/lug/Graphics</text>
<text text-anchor="start" x="163" y="-85.5" font-family="Helvetica,sans-Serif" font-size="10.00" fill="#000000">/Vulkan/Render/Technique</text>
<text text-anchor="middle" x="229.5" y="-74.5" font-family="Helvetica,sans-Serif" font-size="10.00" fill="#000000">/Forward.hpp</text>
</a>
</g>
</g>
<!-- Node9&#45;&gt;Node13 -->
<g id="edge40" class="edge">
<title>Node9&#45;&gt;Node13</title>
<path fill="none" stroke="#191970" d="M798.8669,-370.7783C626.2989,-366.3569 218.0751,-352.6521 164.5,-321 89.3743,-276.6158 27.7987,-216.719 77.5,-145 87.172,-131.0433 121.416,-117.5965 154.9569,-107.2719"/>
<polygon fill="#191970" stroke="#191970" points="798.8094,-374.2778 808.8946,-371.0315 798.9861,-367.2801 798.8094,-374.2778"/>
</g>
<!-- Node22 -->
<g id="node14" class="node">
<title>Node22</title>
<g id="a_node14"><a xlink:href="Vulkan_2Renderer_8hpp.html" target="_top" xlink:title="include/lug/Graphics\l/Vulkan/Renderer.hpp">
<polygon fill="none" stroke="#000000" points="804,-73 804,-103 931,-103 931,-73 804,-73"/>
<text text-anchor="start" x="812" y="-91" font-family="Helvetica,sans-Serif" font-size="10.00" fill="#000000">include/lug/Graphics</text>
<text text-anchor="middle" x="867.5" y="-80" font-family="Helvetica,sans-Serif" font-size="10.00" fill="#000000">/Vulkan/Renderer.hpp</text>
</a>
</g>
</g>
<!-- Node9&#45;&gt;Node22 -->
<g id="edge41" class="edge">
<title>Node9&#45;&gt;Node22</title>
<path fill="none" stroke="#191970" d="M874.7855,-347.0914C873.1589,-289.2456 869.2203,-149.1786 867.9225,-103.0263"/>
<polygon fill="#191970" stroke="#191970" points="871.2901,-347.3064 875.0699,-357.204 878.2873,-347.1096 871.2901,-347.3064"/>
</g>
<!-- Node27 -->
<g id="node19" class="node">
<title>Node27</title>
<g id="a_node19"><a xlink:href="Vulkan_2Render_2Mesh_8hpp.html" target="_top" xlink:title="include/lug/Graphics\l/Vulkan/Render/Mesh.hpp">
<polygon fill="none" stroke="#000000" points="944.5,-151 944.5,-181 1090.5,-181 1090.5,-151 944.5,-151"/>
<text text-anchor="start" x="952.5" y="-169" font-family="Helvetica,sans-Serif" font-size="10.00" fill="#000000">include/lug/Graphics</text>
<text text-anchor="middle" x="1017.5" y="-158" font-family="Helvetica,sans-Serif" font-size="10.00" fill="#000000">/Vulkan/Render/Mesh.hpp</text>
</a>
</g>
</g>
<!-- Node9&#45;&gt;Node27 -->
<g id="edge30" class="edge">
<title>Node9&#45;&gt;Node27</title>
<path fill="none" stroke="#191970" d="M891.708,-348.9299C921.1215,-306.156 982.5115,-216.8812 1007.0431,-181.2067"/>
<polygon fill="#191970" stroke="#191970" points="888.7238,-347.0925 885.9416,-357.3156 894.4917,-351.0589 888.7238,-347.0925"/>
</g>
<!-- Node30 -->
<g id="node22" class="node">
<title>Node30</title>
<g id="a_node22"><a xlink:href="Vulkan_2Render_2Model_8hpp.html" target="_top" xlink:title="include/lug/Graphics\l/Vulkan/Render/Model.hpp">
<polygon fill="none" stroke="#000000" points="1335.5,-73 1335.5,-103 1485.5,-103 1485.5,-73 1335.5,-73"/>
<text text-anchor="start" x="1343.5" y="-91" font-family="Helvetica,sans-Serif" font-size="10.00" fill="#000000">include/lug/Graphics</text>
<text text-anchor="middle" x="1410.5" y="-80" font-family="Helvetica,sans-Serif" font-size="10.00" fill="#000000">/Vulkan/Render/Model.hpp</text>
</a>
</g>
</g>
<!-- Node9&#45;&gt;Node30 -->
<g id="edge36" class="edge">
<title>Node9&#45;&gt;Node30</title>
<path fill="none" stroke="#191970" d="M912.8427,-352.6421C1014.1197,-298.7854 1292.4091,-150.7978 1382.1822,-103.0587"/>
<polygon fill="#191970" stroke="#191970" points="911.0721,-349.6195 903.8862,-357.4049 914.3588,-355.7999 911.0721,-349.6195"/>
</g>
<!-- Node32 -->
<g id="node24" class="node">
<title>Node32</title>
<g id="a_node24"><a xlink:href="Buffer_8cpp.html" target="_top" xlink:title="src/lug/Graphics/Vulkan\l/API/Buffer.cpp">
<polygon fill="none" stroke="#000000" points="1147,-290.5 1147,-320.5 1284,-320.5 1284,-290.5 1147,-290.5"/>
<text text-anchor="start" x="1155" y="-308.5" font-family="Helvetica,sans-Serif" font-size="10.00" fill="#000000">src/lug/Graphics/Vulkan</text>
<text text-anchor="middle" x="1215.5" y="-297.5" font-family="Helvetica,sans-Serif" font-size="10.00" fill="#000000">/API/Buffer.cpp</text>
</a>
</g>
</g>
<!-- Node9&#45;&gt;Node32 -->
<g id="edge42" class="edge">
<title>Node9&#45;&gt;Node32</title>
<path fill="none" stroke="#191970" d="M952.192,-357.3872C1010.6608,-345.8654 1090.4647,-330.1393 1146.8458,-319.0289"/>
<polygon fill="#191970" stroke="#191970" points="951.402,-353.9754 942.2674,-359.3429 952.7554,-360.8434 951.402,-353.9754"/>
</g>
<!-- Node11 -->
<g id="node3" class="node">
<title>Node11</title>
<g id="a_node3"><a xlink:href="DescriptorPool_8hpp.html" target="_top" xlink:title="include/lug/Graphics\l/Vulkan/API/DescriptorPool.hpp">
<polygon fill="none" stroke="#000000" points="357,-223.5 357,-253.5 532,-253.5 532,-223.5 357,-223.5"/>
<text text-anchor="start" x="365" y="-241.5" font-family="Helvetica,sans-Serif" font-size="10.00" fill="#000000">include/lug/Graphics</text>
<text text-anchor="middle" x="444.5" y="-230.5" font-family="Helvetica,sans-Serif" font-size="10.00" fill="#000000">/Vulkan/API/DescriptorPool.hpp</text>
</a>
</g>
</g>
<!-- Node10&#45;&gt;Node11 -->
<g id="edge2" class="edge">
<title>Node10&#45;&gt;Node11</title>
<path fill="none" stroke="#191970" d="M363.376,-285.3561C380.9605,-275.1995 401.9362,-263.0843 418.1529,-253.7177"/>
<polygon fill="#191970" stroke="#191970" points="361.4415,-282.4315 354.5327,-290.4639 364.9426,-288.4931 361.4415,-282.4315"/>
</g>
<!-- Node10&#45;&gt;Node12 -->
<g id="edge26" class="edge">
<title>Node10&#45;&gt;Node12</title>
<path fill="none" stroke="#191970" d="M234.3958,-288.1463C199.1012,-279.5633 164.9685,-268.0158 154.5,-254 138.4127,-232.4614 152.5196,-200.1407 163.5093,-181.2492"/>
<polygon fill="#191970" stroke="#191970" points="233.8273,-291.6079 244.3628,-290.4881 235.4285,-284.7935 233.8273,-291.6079"/>
</g>
<!-- Node10&#45;&gt;Node13 -->
<g id="edge27" class="edge">
<title>Node10&#45;&gt;Node13</title>
<path fill="none" stroke="#191970" d="M324.3642,-280.2514C321.2429,-263.6759 316.3235,-241.687 309.5,-223 296.1371,-186.4041 289.6264,-178.358 269.5,-145 262.0055,-132.5785 252.7481,-119.2778 245.0272,-108.6514"/>
<polygon fill="#191970" stroke="#191970" points="320.9507,-281.046 326.1576,-290.273 327.8412,-279.8128 320.9507,-281.046"/>
</g>
<!-- Node26 -->
<g id="node18" class="node">
<title>Node26</title>
<g id="a_node18"><a xlink:href="DescriptorSet_8cpp.html" target="_top" xlink:title="src/lug/Graphics/Vulkan\l/API/DescriptorSet.cpp">
<polygon fill="none" stroke="#000000" points="163,-223.5 163,-253.5 300,-253.5 300,-223.5 163,-223.5"/>
<text text-anchor="start" x="171" y="-241.5" font-family="Helvetica,sans-Serif" font-size="10.00" fill="#000000">src/lug/Graphics/Vulkan</text>
<text text-anchor="middle" x="231.5" y="-230.5" font-family="Helvetica,sans-Serif" font-size="10.00" fill="#000000">/API/DescriptorSet.cpp</text>
</a>
</g>
</g>
<!-- Node10&#45;&gt;Node26 -->
<g id="edge28" class="edge">
<title>Node10&#45;&gt;Node26</title>
<path fill="none" stroke="#191970" d="M297.8754,-284.3469C283.4422,-274.3776 266.5533,-262.7121 253.4237,-253.6432"/>
<polygon fill="#191970" stroke="#191970" points="296.272,-287.4932 306.4892,-290.2967 300.2503,-281.7335 296.272,-287.4932"/>
</g>
<!-- Node11&#45;&gt;Node12 -->
<g id="edge3" class="edge">
<title>Node11&#45;&gt;Node12</title>
<path fill="none" stroke="#191970" d="M378.5527,-220.8573C332.9366,-208.6537 272.8918,-192.5901 229.5794,-181.0028"/>
<polygon fill="#191970" stroke="#191970" points="377.7838,-224.2746 388.3486,-223.478 379.5929,-217.5124 377.7838,-224.2746"/>
</g>
<!-- Node17 -->
<g id="node9" class="node">
<title>Node17</title>
<g id="a_node9"><a xlink:href="Technique_8hpp.html" target="_top" xlink:title="include/lug/Graphics\l/Vulkan/Render/Technique\l/Technique.hpp">
<polygon fill="none" stroke="#000000" points="520,-145.5 520,-186.5 669,-186.5 669,-145.5 520,-145.5"/>
<text text-anchor="start" x="528" y="-174.5" font-family="Helvetica,sans-Serif" font-size="10.00" fill="#000000">include/lug/Graphics</text>
<text text-anchor="start" x="528" y="-163.5" font-family="Helvetica,sans-Serif" font-size="10.00" fill="#000000">/Vulkan/Render/Technique</text>
<text text-anchor="middle" x="594.5" y="-152.5" font-family="Helvetica,sans-Serif" font-size="10.00" fill="#000000">/Technique.hpp</text>
</a>
</g>
</g>
<!-- Node11&#45;&gt;Node17 -->
<g id="edge8" class="edge">
<title>Node11&#45;&gt;Node17</title>
<path fill="none" stroke="#191970" d="M484.7867,-219.0281C505.5944,-208.971 530.9757,-196.7034 552.0831,-186.5015"/>
<polygon fill="#191970" stroke="#191970" points="483.0605,-215.975 475.5801,-223.478 486.1067,-222.2774 483.0605,-215.975"/>
</g>
<!-- Node18 -->
<g id="node10" class="node">
<title>Node18</title>
<g id="a_node10"><a xlink:href="Vulkan_2Render_2View_8hpp.html" target="_top" xlink:title="include/lug/Graphics\l/Vulkan/Render/View.hpp">
<polygon fill="none" stroke="#000000" points="322,-73 322,-103 467,-103 467,-73 322,-73"/>
<text text-anchor="start" x="330" y="-91" font-family="Helvetica,sans-Serif" font-size="10.00" fill="#000000">include/lug/Graphics</text>
<text text-anchor="middle" x="394.5" y="-80" font-family="Helvetica,sans-Serif" font-size="10.00" fill="#000000">/Vulkan/Render/View.hpp</text>
</a>
</g>
</g>
<!-- Node11&#45;&gt;Node18 -->
<g id="edge15" class="edge">
<title>Node11&#45;&gt;Node18</title>
<path fill="none" stroke="#191970" d="M390.8312,-218.6875C377.2423,-210.9608 364.3013,-200.6046 356.5,-187 340.4733,-159.0513 364.1155,-123.051 380.6811,-103.0675"/>
<polygon fill="#191970" stroke="#191970" points="389.3253,-221.8498 399.8071,-223.3931 392.5755,-215.6501 389.3253,-221.8498"/>
</g>
<!-- Node21 -->
<g id="node13" class="node">
<title>Node21</title>
<g id="a_node13"><a xlink:href="Graphics_2Vulkan_2Render_2Window_8hpp.html" target="_top" xlink:title="include/lug/Graphics\l/Vulkan/Render/Window.hpp">
<polygon fill="none" stroke="#000000" points="687.5,-151 687.5,-181 847.5,-181 847.5,-151 687.5,-151"/>
<text text-anchor="start" x="695.5" y="-169" font-family="Helvetica,sans-Serif" font-size="10.00" fill="#000000">include/lug/Graphics</text>
<text text-anchor="middle" x="767.5" y="-158" font-family="Helvetica,sans-Serif" font-size="10.00" fill="#000000">/Vulkan/Render/Window.hpp</text>
</a>
</g>
</g>
<!-- Node11&#45;&gt;Node21 -->
<g id="edge16" class="edge">
<title>Node11&#45;&gt;Node21</title>
<path fill="none" stroke="#191970" d="M524.2387,-221.2628C569.515,-211.3971 627.2215,-198.6918 678.5,-187 686.8584,-185.0942 695.6506,-183.0581 704.3217,-181.0313"/>
<polygon fill="#191970" stroke="#191970" points="523.214,-217.9038 514.1873,-223.4508 524.703,-224.7436 523.214,-217.9038"/>
</g>
<!-- Node25 -->
<g id="node17" class="node">
<title>Node25</title>
<g id="a_node17"><a xlink:href="DescriptorPool_8cpp.html" target="_top" xlink:title="src/lug/Graphics/Vulkan\l/API/DescriptorPool.cpp">
<polygon fill="none" stroke="#000000" points="365,-151 365,-181 502,-181 502,-151 365,-151"/>
<text text-anchor="start" x="373" y="-169" font-family="Helvetica,sans-Serif" font-size="10.00" fill="#000000">src/lug/Graphics/Vulkan</text>
<text text-anchor="middle" x="433.5" y="-158" font-family="Helvetica,sans-Serif" font-size="10.00" fill="#000000">/API/DescriptorPool.cpp</text>
</a>
</g>
</g>
<!-- Node11&#45;&gt;Node25 -->
<g id="edge25" class="edge">
<title>Node11&#45;&gt;Node25</title>
<path fill="none" stroke="#191970" d="M440.6828,-213.3409C439.047,-202.5601 437.1916,-190.3309 435.7763,-181.0028"/>
<polygon fill="#191970" stroke="#191970" points="437.2602,-214.1162 442.2208,-223.478 444.181,-213.066 437.2602,-214.1162"/>
</g>
<!-- Node12&#45;&gt;Node13 -->
<g id="edge4" class="edge">
<title>Node12&#45;&gt;Node13</title>
<path fill="none" stroke="#191970" d="M190.1863,-142.7583C197.978,-131.9057 207.1747,-119.0959 214.7134,-108.5956"/>
<polygon fill="#191970" stroke="#191970" points="187.2863,-140.7963 184.2974,-150.9608 192.9726,-144.8788 187.2863,-140.7963"/>
</g>
<!-- Node16 -->
<g id="node8" class="node">
<title>Node16</title>
<g id="a_node8"><a xlink:href="BufferPool_8cpp.html" target="_top" xlink:title="src/lug/Graphics/Vulkan\l/Render/BufferPool.cpp">
<polygon fill="none" stroke="#000000" points="0,-73 0,-103 137,-103 137,-73 0,-73"/>
<text text-anchor="start" x="8" y="-91" font-family="Helvetica,sans-Serif" font-size="10.00" fill="#000000">src/lug/Graphics/Vulkan</text>
<text text-anchor="middle" x="68.5" y="-80" font-family="Helvetica,sans-Serif" font-size="10.00" fill="#000000">/Render/BufferPool.cpp</text>
</a>
</g>
</g>
<!-- Node12&#45;&gt;Node16 -->
<g id="edge7" class="edge">
<title>Node12&#45;&gt;Node16</title>
<path fill="none" stroke="#191970" d="M144.9933,-144.8236C127.3086,-131.6864 104.9965,-115.1117 89.0412,-103.2592"/>
<polygon fill="#191970" stroke="#191970" points="143.1403,-147.8071 153.2549,-150.9608 147.3146,-142.1879 143.1403,-147.8071"/>
</g>
<!-- Node14 -->
<g id="node6" class="node">
<title>Node14</title>
<g id="a_node6"><a xlink:href="Forward_8cpp.html" target="_top" xlink:title="src/lug/Graphics/Vulkan\l/Render/Technique/Forward.cpp">
<polygon fill="none" stroke="#000000" points="908,-.5 908,-30.5 1085,-30.5 1085,-.5 908,-.5"/>
<text text-anchor="start" x="916" y="-18.5" font-family="Helvetica,sans-Serif" font-size="10.00" fill="#000000">src/lug/Graphics/Vulkan</text>
<text text-anchor="middle" x="996.5" y="-7.5" font-family="Helvetica,sans-Serif" font-size="10.00" fill="#000000">/Render/Technique/Forward.cpp</text>
</a>
</g>
</g>
<!-- Node13&#45;&gt;Node14 -->
<g id="edge5" class="edge">
<title>Node13&#45;&gt;Node14</title>
<path fill="none" stroke="#191970" d="M314.098,-67.0759C573.1572,-28.0029 643.4316,-59.2571 899.5,-31 902.2122,-30.7007 904.9642,-30.3783 907.7406,-30.0368"/>
<polygon fill="#191970" stroke="#191970" points="313.3662,-63.647 304.0102,-68.6183 314.4243,-70.5666 313.3662,-63.647"/>
</g>
<!-- Node15 -->
<g id="node7" class="node">
<title>Node15</title>
<g id="a_node7"><a xlink:href="Vulkan_2Render_2View_8cpp.html" target="_top" xlink:title="src/lug/Graphics/Vulkan\l/Render/View.cpp">
<polygon fill="none" stroke="#000000" points="326,-.5 326,-30.5 463,-30.5 463,-.5 326,-.5"/>
<text text-anchor="start" x="334" y="-18.5" font-family="Helvetica,sans-Serif" font-size="10.00" fill="#000000">src/lug/Graphics/Vulkan</text>
<text text-anchor="middle" x="394.5" y="-7.5" font-family="Helvetica,sans-Serif" font-size="10.00" fill="#000000">/Render/View.cpp</text>
</a>
</g>
</g>
<!-- Node13&#45;&gt;Node15 -->
<g id="edge6" class="edge">
<title>Node13&#45;&gt;Node15</title>
<path fill="none" stroke="#191970" d="M285.6229,-63.34C310.3481,-52.4758 338.6059,-40.0595 360.1365,-30.5991"/>
<polygon fill="#191970" stroke="#191970" points="284.0882,-60.1912 276.341,-67.4183 286.9042,-66.5999 284.0882,-60.1912"/>
</g>
<!-- Node17&#45;&gt;Node13 -->
<g id="edge9" class="edge">
<title>Node17&#45;&gt;Node13</title>
<path fill="none" stroke="#191970" d="M510.0587,-144.7539C422.3863,-126.1232 397.8586,-127.1936 313.5,-109 310.4142,-108.3345 307.2694,-107.6368 304.0961,-106.9168"/>
<polygon fill="#191970" stroke="#191970" points="509.3873,-148.1894 519.8998,-146.8708 510.8595,-141.346 509.3873,-148.1894"/>
</g>
<!-- Node17&#45;&gt;Node18 -->
<g id="edge10" class="edge">
<title>Node17&#45;&gt;Node18</title>
<path fill="none" stroke="#191970" d="M532.2744,-141.732C499.8078,-129.07 461.1136,-113.9793 433.0097,-103.0188"/>
<polygon fill="#191970" stroke="#191970" points="531.1025,-145.0317 541.6907,-145.4044 533.6459,-138.5101 531.1025,-145.0317"/>
</g>
<!-- Node20 -->
<g id="node12" class="node">
<title>Node20</title>
<g id="a_node12"><a xlink:href="Technique_8cpp.html" target="_top" xlink:title="src/lug/Graphics/Vulkan\l/Render/Technique/Technique.cpp">
<polygon fill="none" stroke="#000000" points="485,-73 485,-103 672,-103 672,-73 485,-73"/>
<text text-anchor="start" x="493" y="-91" font-family="Helvetica,sans-Serif" font-size="10.00" fill="#000000">src/lug/Graphics/Vulkan</text>
<text text-anchor="middle" x="578.5" y="-80" font-family="Helvetica,sans-Serif" font-size="10.00" fill="#000000">/Render/Technique/Technique.cpp</text>
</a>
</g>
</g>
<!-- Node17&#45;&gt;Node20 -->
<g id="edge14" class="edge">
<title>Node17&#45;&gt;Node20</title>
<path fill="none" stroke="#191970" d="M588.1449,-135.0187C585.9058,-124.1033 583.4871,-112.3119 581.6319,-103.2679"/>
<polygon fill="#191970" stroke="#191970" points="584.7742,-136.0047 590.2123,-145.0974 591.6314,-134.5981 584.7742,-136.0047"/>
</g>
<!-- Node18&#45;&gt;Node14 -->
<g id="edge11" class="edge">
<title>Node18&#45;&gt;Node14</title>
<path fill="none" stroke="#191970" d="M457.8454,-70.6713C464.1188,-69.2887 470.4146,-68.0309 476.5,-67 662.5294,-35.4869 712.2154,-53.9016 899.5,-31 902.2931,-30.6585 905.1291,-30.2965 907.9909,-29.9183"/>
<polygon fill="#191970" stroke="#191970" points="456.9974,-67.275 448.0392,-72.932 458.5699,-74.096 456.9974,-67.275"/>
</g>
<!-- Node18&#45;&gt;Node15 -->
<g id="edge12" class="edge">
<title>Node18&#45;&gt;Node15</title>
<path fill="none" stroke="#191970" d="M394.5,-62.8409C394.5,-52.0601 394.5,-39.8309 394.5,-30.5028"/>
<polygon fill="#191970" stroke="#191970" points="391.0001,-62.9779 394.5,-72.978 398.0001,-62.978 391.0001,-62.9779"/>
</g>
<!-- Node19 -->
<g id="node11" class="node">
<title>Node19</title>
<g id="a_node11"><a xlink:href="Graphics_2Vulkan_2Render_2Window_8cpp.html" target="_top" xlink:title="src/lug/Graphics/Vulkan\l/Render/Window.cpp">
<polygon fill="none" stroke="#000000" points="598,-.5 598,-30.5 735,-30.5 735,-.5 598,-.5"/>
<text text-anchor="start" x="606" y="-18.5" font-family="Helvetica,sans-Serif" font-size="10.00" fill="#000000">src/lug/Graphics/Vulkan</text>
<text text-anchor="middle" x="666.5" y="-7.5" font-family="Helvetica,sans-Serif" font-size="10.00" fill="#000000">/Render/Window.cpp</text>
</a>
</g>
</g>
<!-- Node18&#45;&gt;Node19 -->
<g id="edge13" class="edge">
<title>Node18&#45;&gt;Node19</title>
<path fill="none" stroke="#191970" d="M460.6906,-70.3573C506.475,-58.1537 566.7414,-42.0901 610.2136,-30.5028"/>
<polygon fill="#191970" stroke="#191970" points="459.6198,-67.0204 450.8586,-72.978 461.4227,-73.7843 459.6198,-67.0204"/>
</g>
<!-- Node21&#45;&gt;Node15 -->
<g id="edge22" class="edge">
<title>Node21&#45;&gt;Node15</title>
<path fill="none" stroke="#191970" d="M745.1579,-143.5401C735.2019,-133.2498 723.4927,-120.7505 713.5,-109 698.2972,-91.1229 701.5232,-79.2388 681.5,-67 645.704,-45.1204 535.949,-29.9841 463.012,-22.0311"/>
<polygon fill="#191970" stroke="#191970" points="742.882,-146.2191 752.3721,-150.9295 747.8908,-141.3291 742.882,-146.2191"/>
</g>
<!-- Node21&#45;&gt;Node19 -->
<g id="edge23" class="edge">
<title>Node21&#45;&gt;Node19</title>
<path fill="none" stroke="#191970" d="M756.3772,-141.8756C746.3845,-121.2169 730.6746,-91.0802 713.5,-67 704.2221,-53.9915 692.0162,-40.7058 682.3685,-30.8873"/>
<polygon fill="#191970" stroke="#191970" points="753.2214,-143.3892 760.6779,-150.916 759.5426,-140.3821 753.2214,-143.3892"/>
</g>
<!-- Node21&#45;&gt;Node22 -->
<g id="edge17" class="edge">
<title>Node21&#45;&gt;Node22</title>
<path fill="none" stroke="#191970" d="M795.1097,-144.4644C811.8776,-131.3854 832.8796,-115.0039 847.937,-103.2592"/>
<polygon fill="#191970" stroke="#191970" points="792.5134,-142.0507 786.781,-150.9608 796.8187,-147.5702 792.5134,-142.0507"/>
</g>
<!-- Node24 -->
<g id="node16" class="node">
<title>Node24</title>
<g id="a_node16"><a xlink:href="Vulkan_2Renderer_8cpp.html" target="_top" xlink:title="src/lug/Graphics/Vulkan\l/Renderer.cpp">
<polygon fill="none" stroke="#000000" points="753,-.5 753,-30.5 890,-30.5 890,-.5 753,-.5"/>
<text text-anchor="start" x="761" y="-18.5" font-family="Helvetica,sans-Serif" font-size="10.00" fill="#000000">src/lug/Graphics/Vulkan</text>
<text text-anchor="middle" x="821.5" y="-7.5" font-family="Helvetica,sans-Serif" font-size="10.00" fill="#000000">/Renderer.cpp</text>
</a>
</g>
</g>
<!-- Node21&#45;&gt;Node24 -->
<g id="edge24" class="edge">
<title>Node21&#45;&gt;Node24</title>
<path fill="none" stroke="#191970" d="M773.1714,-140.9495C778.097,-120.6707 785.9347,-91.5468 795.5,-67 800.373,-54.4947 807.2683,-40.9706 812.7336,-30.9205"/>
<polygon fill="#191970" stroke="#191970" points="769.7022,-140.4109 770.8047,-150.9483 776.514,-142.0234 769.7022,-140.4109"/>
</g>
<!-- Node22&#45;&gt;Node14 -->
<g id="edge19" class="edge">
<title>Node22&#45;&gt;Node14</title>
<path fill="none" stroke="#191970" d="M903.2084,-67.9313C924.2873,-56.0847 950.5279,-41.337 969.8054,-30.5028"/>
<polygon fill="#191970" stroke="#191970" points="901.2316,-65.0273 894.2289,-72.978 904.6613,-71.1297 901.2316,-65.0273"/>
</g>
<!-- Node22&#45;&gt;Node19 -->
<g id="edge20" class="edge">
<title>Node22&#45;&gt;Node19</title>
<path fill="none" stroke="#191970" d="M816.2296,-69.5069C782.7063,-57.4152 739.4778,-41.8228 708.094,-30.5028"/>
<polygon fill="#191970" stroke="#191970" points="815.2583,-72.8773 825.8527,-72.978 817.6335,-66.2925 815.2583,-72.8773"/>
</g>
<!-- Node23 -->
<g id="node15" class="node">
<title>Node23</title>
<g id="a_node15"><a xlink:href="Graphics_8cpp.html" target="_top" xlink:title="src/lug/Graphics/Graphics.cpp">
<polygon fill="none" stroke="#000000" points="1189.5,-6 1189.5,-25 1357.5,-25 1357.5,-6 1189.5,-6"/>
<text text-anchor="middle" x="1273.5" y="-13" font-family="Helvetica,sans-Serif" font-size="10.00" fill="#000000">src/lug/Graphics/Graphics.cpp</text>
</a>
</g>
</g>
<!-- Node22&#45;&gt;Node23 -->
<g id="edge18" class="edge">
<title>Node22&#45;&gt;Node23</title>
<path fill="none" stroke="#191970" d="M926.4524,-70.3532C931.187,-69.1464 935.9119,-68.0105 940.5,-67 1026.0532,-48.1583 1125.4616,-33.7377 1193.2411,-25.0131"/>
<polygon fill="#191970" stroke="#191970" points="925.5356,-66.9753 916.7607,-72.9127 927.323,-73.7433 925.5356,-66.9753"/>
</g>
<!-- Node22&#45;&gt;Node24 -->
<g id="edge21" class="edge">
<title>Node22&#45;&gt;Node24</title>
<path fill="none" stroke="#191970" d="M852.5979,-64.513C845.51,-53.3418 837.2458,-40.3167 831.019,-30.5028"/>
<polygon fill="#191970" stroke="#191970" points="849.6559,-66.4093 857.9688,-72.978 855.5666,-62.659 849.6559,-66.4093"/>
</g>
<!-- Node27&#45;&gt;Node14 -->
<g id="edge35" class="edge">
<title>Node27&#45;&gt;Node14</title>
<path fill="none" stroke="#191970" d="M1089.4095,-148.5453C1157.7409,-131.9389 1250.176,-109.4129 1250.5,-109 1262.0248,-94.3159 1262.3153,-81.4514 1250.5,-67 1229.6741,-41.5277 1149.7451,-28.3514 1085.0399,-21.7353"/>
<polygon fill="#191970" stroke="#191970" points="1088.4074,-145.1869 1079.5165,-150.9491 1090.0602,-151.989 1088.4074,-145.1869"/>
</g>
<!-- Node27&#45;&gt;Node22 -->
<g id="edge31" class="edge">
<title>Node27&#45;&gt;Node22</title>
<path fill="none" stroke="#191970" d="M979.4747,-146.2268C953.7231,-132.836 920.2155,-115.412 896.5882,-103.1259"/>
<polygon fill="#191970" stroke="#191970" points="978.0916,-149.4525 988.5785,-150.9608 981.3211,-143.242 978.0916,-149.4525"/>
</g>
<!-- Node27&#45;&gt;Node23 -->
<g id="edge32" class="edge">
<title>Node27&#45;&gt;Node23</title>
<path fill="none" stroke="#191970" d="M1089.2056,-148.5673C1094.3786,-147.3479 1099.5176,-146.148 1104.5,-145 1177.2189,-128.2442 1220.1939,-165.8798 1268.5,-109 1288.9142,-84.9625 1281.2595,-43.6617 1276.3544,-25.0665"/>
<polygon fill="#191970" stroke="#191970" points="1088.1709,-145.2156 1079.2479,-150.928 1089.7856,-152.0268 1088.1709,-145.2156"/>
</g>
<!-- Node28 -->
<g id="node20" class="node">
<title>Node28</title>
<g id="a_node20"><a xlink:href="Pipeline_8cpp.html" target="_top" xlink:title="src/lug/Graphics/Vulkan\l/API/Pipeline.cpp">
<polygon fill="none" stroke="#000000" points="949,-73 949,-103 1086,-103 1086,-73 949,-73"/>
<text text-anchor="start" x="957" y="-91" font-family="Helvetica,sans-Serif" font-size="10.00" fill="#000000">src/lug/Graphics/Vulkan</text>
<text text-anchor="middle" x="1017.5" y="-80" font-family="Helvetica,sans-Serif" font-size="10.00" fill="#000000">/API/Pipeline.cpp</text>
</a>
</g>
</g>
<!-- Node27&#45;&gt;Node28 -->
<g id="edge33" class="edge">
<title>Node27&#45;&gt;Node28</title>
<path fill="none" stroke="#191970" d="M1017.5,-140.7875C1017.5,-128.4187 1017.5,-113.9264 1017.5,-103.2592"/>
<polygon fill="#191970" stroke="#191970" points="1014.0001,-140.9608 1017.5,-150.9608 1021.0001,-140.9608 1014.0001,-140.9608"/>
</g>
<!-- Node29 -->
<g id="node21" class="node">
<title>Node29</title>
<g id="a_node21"><a xlink:href="Vulkan_2Render_2Mesh_8cpp.html" target="_top" xlink:title="src/lug/Graphics/Vulkan\l/Render/Mesh.cpp">
<polygon fill="none" stroke="#000000" points="1104,-73 1104,-103 1241,-103 1241,-73 1104,-73"/>
<text text-anchor="start" x="1112" y="-91" font-family="Helvetica,sans-Serif" font-size="10.00" fill="#000000">src/lug/Graphics/Vulkan</text>
<text text-anchor="middle" x="1172.5" y="-80" font-family="Helvetica,sans-Serif" font-size="10.00" fill="#000000">/Render/Mesh.cpp</text>
</a>
</g>
</g>
<!-- Node27&#45;&gt;Node29 -->
<g id="edge34" class="edge">
<title>Node27&#45;&gt;Node29</title>
<path fill="none" stroke="#191970" d="M1056.4432,-146.4028C1083.0989,-132.9889 1117.9203,-115.4659 1142.4422,-103.1259"/>
<polygon fill="#191970" stroke="#191970" points="1054.745,-143.3391 1047.3856,-150.9608 1057.8916,-149.592 1054.745,-143.3391"/>
</g>
<!-- Node30&#45;&gt;Node14 -->
<g id="edge39" class="edge">
<title>Node30&#45;&gt;Node14</title>
<path fill="none" stroke="#191970" d="M1324.8007,-72.9923C1253.8594,-60.569 1153.5486,-43.0025 1082.5192,-30.5637"/>
<polygon fill="#191970" stroke="#191970" points="1324.5935,-76.5092 1335.0474,-74.7867 1325.8011,-69.6141 1324.5935,-76.5092"/>
</g>
<!-- Node30&#45;&gt;Node23 -->
<g id="edge37" class="edge">
<title>Node30&#45;&gt;Node23</title>
<path fill="none" stroke="#191970" d="M1373.1362,-68.2272C1346.7322,-54.2543 1312.488,-36.1324 1291.7966,-25.1825"/>
<polygon fill="#191970" stroke="#191970" points="1371.6377,-71.394 1382.1135,-72.978 1374.9119,-65.207 1371.6377,-71.394"/>
</g>
<!-- Node31 -->
<g id="node23" class="node">
<title>Node31</title>
<g id="a_node23"><a xlink:href="Vulkan_2Render_2Model_8cpp.html" target="_top" xlink:title="src/lug/Graphics/Vulkan\l/Render/Model.cpp">
<polygon fill="none" stroke="#000000" points="1376,-.5 1376,-30.5 1513,-30.5 1513,-.5 1376,-.5"/>
<text text-anchor="start" x="1384" y="-18.5" font-family="Helvetica,sans-Serif" font-size="10.00" fill="#000000">src/lug/Graphics/Vulkan</text>
<text text-anchor="middle" x="1444.5" y="-7.5" font-family="Helvetica,sans-Serif" font-size="10.00" fill="#000000">/Render/Model.cpp</text>
</a>
</g>
</g>
<!-- Node30&#45;&gt;Node31 -->
<g id="edge38" class="edge">
<title>Node30&#45;&gt;Node31</title>
<path fill="none" stroke="#191970" d="M1421.8268,-63.8473C1426.9948,-52.8272 1432.9529,-40.1224 1437.4642,-30.5028"/>
<polygon fill="#191970" stroke="#191970" points="1418.622,-62.438 1417.5448,-72.978 1424.9597,-65.4102 1418.622,-62.438"/>
</g>
</g>
</svg>
