<?xml version="1.0" encoding="UTF-8" standalone="no"?>
<!DOCTYPE svg PUBLIC "-//W3C//DTD SVG 1.1//EN"
 "http://www.w3.org/Graphics/SVG/1.1/DTD/svg11.dtd">
<!-- Generated by graphviz version 2.40.1 (20161225.0304)
 -->
<!-- Title: src/lug/Graphics/Vulkan/Render/BufferPool.cpp Pages: 1 -->
<svg width="1746pt" height="553pt"
 viewBox="0.00 0.00 1745.55 553.00" xmlns="http://www.w3.org/2000/svg" xmlns:xlink="http://www.w3.org/1999/xlink">
<g id="graph0" class="graph" transform="scale(1 1) rotate(0) translate(4 549)">
<title>src/lug/Graphics/Vulkan/Render/BufferPool.cpp</title>
<!-- Node0 -->
<g id="node1" class="node">
<title>Node0</title>
<polygon fill="#bfbfbf" stroke="#000000" points="862.4148,-514.5 862.4148,-544.5 999.4148,-544.5 999.4148,-514.5 862.4148,-514.5"/>
<text text-anchor="start" x="870.4148" y="-532.5" font-family="Helvetica,sans-Serif" font-size="10.00" fill="#000000">src/lug/Graphics/Vulkan</text>
<text text-anchor="middle" x="930.9148" y="-521.5" font-family="Helvetica,sans-Serif" font-size="10.00" fill="#000000">/Render/BufferPool.cpp</text>
</g>
<!-- Node1 -->
<g id="node2" class="node">
<title>Node1</title>
<g id="a_node2"><a xlink:href="BufferPool_8hpp.html" target="_top" xlink:title="lug/Graphics/Vulkan\l/Render/BufferPool.hpp">
<polygon fill="none" stroke="#000000" points="679.9148,-447.5 679.9148,-477.5 813.9148,-477.5 813.9148,-447.5 679.9148,-447.5"/>
<text text-anchor="start" x="687.9148" y="-465.5" font-family="Helvetica,sans-Serif" font-size="10.00" fill="#000000">lug/Graphics/Vulkan</text>
<text text-anchor="middle" x="746.9148" y="-454.5" font-family="Helvetica,sans-Serif" font-size="10.00" fill="#000000">/Render/BufferPool.hpp</text>
</a>
</g>
</g>
<!-- Node0&#45;&gt;Node1 -->
<g id="edge1" class="edge">
<title>Node0&#45;&gt;Node1</title>
<path fill="none" stroke="#191970" d="M889.6216,-514.4639C862.4911,-504.5849 826.805,-491.5905 797.9062,-481.0675"/>
<polygon fill="#191970" stroke="#191970" points="798.9821,-477.7345 788.3881,-477.6017 796.587,-484.312 798.9821,-477.7345"/>
</g>
<!-- Node18 -->
<g id="node19" class="node">
<title>Node18</title>
<g id="a_node19"><a xlink:href="Logger_8hpp.html" target="_top" xlink:title="lug/System/Logger/Logger.hpp">
<polygon fill="none" stroke="#000000" points="1343.9148,-252 1343.9148,-271 1515.9148,-271 1515.9148,-252 1343.9148,-252"/>
<text text-anchor="middle" x="1429.9148" y="-259" font-family="Helvetica,sans-Serif" font-size="10.00" fill="#000000">lug/System/Logger/Logger.hpp</text>
</a>
</g>
</g>
<!-- Node0&#45;&gt;Node18 -->
<g id="edge40" class="edge">
<title>Node0&#45;&gt;Node18</title>
<path fill="none" stroke="#191970" d="M959.1729,-514.3233C1047.4059,-466.9356 1317.0235,-322.131 1403.1597,-275.8694"/>
<polygon fill="#191970" stroke="#191970" points="1404.9003,-278.9076 1412.054,-271.0926 1401.5882,-272.7407 1404.9003,-278.9076"/>
</g>
<!-- Node2 -->
<g id="node3" class="node">
<title>Node2</title>
<polygon fill="none" stroke="#bfbfbf" points="1017.9148,-386 1017.9148,-405 1067.9148,-405 1067.9148,-386 1017.9148,-386"/>
<text text-anchor="middle" x="1042.9148" y="-393" font-family="Helvetica,sans-Serif" font-size="10.00" fill="#000000">cstdint</text>
</g>
<!-- Node1&#45;&gt;Node2 -->
<g id="edge2" class="edge">
<title>Node1&#45;&gt;Node2</title>
<path fill="none" stroke="#191970" d="M814.0136,-452.4658C866.3478,-443.8244 940.5415,-429.7756 1003.9148,-411 1006.3598,-410.2756 1008.8653,-409.4596 1011.369,-408.5905"/>
<polygon fill="#191970" stroke="#191970" points="1012.7284,-411.8192 1020.8847,-405.0572 1010.2918,-405.257 1012.7284,-411.8192"/>
</g>
<!-- Node3 -->
<g id="node4" class="node">
<title>Node3</title>
<polygon fill="none" stroke="#bfbfbf" points="922.4148,-118 922.4148,-137 981.4148,-137 981.4148,-118 922.4148,-118"/>
<text text-anchor="middle" x="951.9148" y="-125" font-family="Helvetica,sans-Serif" font-size="10.00" fill="#000000">memory</text>
</g>
<!-- Node1&#45;&gt;Node3 -->
<g id="edge3" class="edge">
<title>Node1&#45;&gt;Node3</title>
<path fill="none" stroke="#191970" d="M813.9589,-454.4613C885.8854,-441.6597 989.9148,-409.196 989.9148,-328.5 989.9148,-328.5 989.9148,-328.5 989.9148,-261.5 989.9148,-219.2065 972.1772,-172.1555 960.9391,-146.5895"/>
<polygon fill="#191970" stroke="#191970" points="964.0489,-144.9726 956.7275,-137.3143 957.6752,-147.8667 964.0489,-144.9726"/>
</g>
<!-- Node4 -->
<g id="node5" class="node">
<title>Node4</title>
<g id="a_node5"><a xlink:href="Graphics_2Export_8hpp.html" target="_top" xlink:title="lug/Graphics/Export.hpp">
<polygon fill="none" stroke="#000000" points="272.9148,-56.5 272.9148,-75.5 410.9148,-75.5 410.9148,-56.5 272.9148,-56.5"/>
<text text-anchor="middle" x="341.9148" y="-63.5" font-family="Helvetica,sans-Serif" font-size="10.00" fill="#000000">lug/Graphics/Export.hpp</text>
</a>
</g>
</g>
<!-- Node1&#45;&gt;Node4 -->
<g id="edge4" class="edge">
<title>Node1&#45;&gt;Node4</title>
<path fill="none" stroke="#191970" d="M679.8314,-459.9509C510.1886,-453.1808 75.9949,-433.7072 54.9148,-411 -36.4279,-312.6068 -6.4249,-196.4863 97.9148,-112 122.8664,-91.7961 201.3915,-79.53 262.6971,-72.8046"/>
<polygon fill="#191970" stroke="#191970" points="263.1904,-76.272 272.7635,-71.7325 262.449,-69.3113 263.1904,-76.272"/>
</g>
<!-- Node6 -->
<g id="node7" class="node">
<title>Node6</title>
<g id="a_node7"><a xlink:href="Buffer_8hpp.html" target="_top" xlink:title="lug/Graphics/Vulkan\l/API/Buffer.hpp">
<polygon fill="none" stroke="#000000" points="621.9148,-179.5 621.9148,-209.5 739.9148,-209.5 739.9148,-179.5 621.9148,-179.5"/>
<text text-anchor="start" x="629.9148" y="-197.5" font-family="Helvetica,sans-Serif" font-size="10.00" fill="#000000">lug/Graphics/Vulkan</text>
<text text-anchor="middle" x="680.9148" y="-186.5" font-family="Helvetica,sans-Serif" font-size="10.00" fill="#000000">/API/Buffer.hpp</text>
</a>
</g>
</g>
<!-- Node1&#45;&gt;Node6 -->
<g id="edge6" class="edge">
<title>Node1&#45;&gt;Node6</title>
<path fill="none" stroke="#191970" d="M745.7833,-447.4051C742.7604,-411.5818 732.9541,-318.9709 707.9148,-246 704.7247,-236.7034 700.056,-227.0293 695.4946,-218.6094"/>
<polygon fill="#191970" stroke="#191970" points="698.4406,-216.7084 690.4748,-209.7229 692.3458,-220.1512 698.4406,-216.7084"/>
</g>
<!-- Node12 -->
<g id="node13" class="node">
<title>Node12</title>
<g id="a_node13"><a xlink:href="DescriptorPool_8hpp.html" target="_top" xlink:title="lug/Graphics/Vulkan\l/API/DescriptorPool.hpp">
<polygon fill="none" stroke="#000000" points="64.4148,-380.5 64.4148,-410.5 201.4148,-410.5 201.4148,-380.5 64.4148,-380.5"/>
<text text-anchor="start" x="72.4148" y="-398.5" font-family="Helvetica,sans-Serif" font-size="10.00" fill="#000000">lug/Graphics/Vulkan</text>
<text text-anchor="middle" x="132.9148" y="-387.5" font-family="Helvetica,sans-Serif" font-size="10.00" fill="#000000">/API/DescriptorPool.hpp</text>
</a>
</g>
</g>
<!-- Node1&#45;&gt;Node12 -->
<g id="edge15" class="edge">
<title>Node1&#45;&gt;Node12</title>
<path fill="none" stroke="#191970" d="M679.6315,-457.8806C578.616,-450.515 381.9016,-434.5016 215.9148,-411 214.6085,-410.815 213.2915,-410.6239 211.9661,-410.4273"/>
<polygon fill="#191970" stroke="#191970" points="212.1004,-406.9061 201.6805,-408.8236 211.0219,-413.8225 212.1004,-406.9061"/>
</g>
<!-- Node13 -->
<g id="node14" class="node">
<title>Node13</title>
<g id="a_node14"><a xlink:href="DescriptorSet_8hpp.html" target="_top" xlink:title="lug/Graphics/Vulkan\l/API/DescriptorSet.hpp">
<polygon fill="none" stroke="#000000" points="450.9148,-313.5 450.9148,-343.5 582.9148,-343.5 582.9148,-313.5 450.9148,-313.5"/>
<text text-anchor="start" x="458.9148" y="-331.5" font-family="Helvetica,sans-Serif" font-size="10.00" fill="#000000">lug/Graphics/Vulkan</text>
<text text-anchor="middle" x="516.9148" y="-320.5" font-family="Helvetica,sans-Serif" font-size="10.00" fill="#000000">/API/DescriptorSet.hpp</text>
</a>
</g>
</g>
<!-- Node1&#45;&gt;Node13 -->
<g id="edge34" class="edge">
<title>Node1&#45;&gt;Node13</title>
<path fill="none" stroke="#191970" d="M720.9779,-447.389C679.4554,-423.1976 598.0184,-375.7517 551.5599,-348.6846"/>
<polygon fill="#191970" stroke="#191970" points="553.1593,-345.5657 542.7568,-343.5558 549.6354,-351.6141 553.1593,-345.5657"/>
</g>
<!-- Node16 -->
<g id="node17" class="node">
<title>Node16</title>
<g id="a_node17"><a xlink:href="DescriptorSetLayout_8hpp.html" target="_top" xlink:title="lug/Graphics/Vulkan\l/API/DescriptorSetLayout.hpp">
<polygon fill="none" stroke="#000000" points="758.4148,-179.5 758.4148,-209.5 923.4148,-209.5 923.4148,-179.5 758.4148,-179.5"/>
<text text-anchor="start" x="766.4148" y="-197.5" font-family="Helvetica,sans-Serif" font-size="10.00" fill="#000000">lug/Graphics/Vulkan</text>
<text text-anchor="middle" x="840.9148" y="-186.5" font-family="Helvetica,sans-Serif" font-size="10.00" fill="#000000">/API/DescriptorSetLayout.hpp</text>
</a>
</g>
</g>
<!-- Node1&#45;&gt;Node16 -->
<g id="edge35" class="edge">
<title>Node1&#45;&gt;Node16</title>
<path fill="none" stroke="#191970" d="M752.238,-447.3233C767.7812,-403.0084 813.2057,-273.5005 832.3011,-219.0582"/>
<polygon fill="#191970" stroke="#191970" points="835.6429,-220.1051 835.65,-209.5103 829.0374,-217.7882 835.6429,-220.1051"/>
</g>
<!-- Node17 -->
<g id="node18" class="node">
<title>Node17</title>
<g id="a_node18"><a xlink:href="DeviceMemory_8hpp.html" target="_top" xlink:title="lug/Graphics/Vulkan\l/API/DeviceMemory.hpp">
<polygon fill="none" stroke="#000000" points="389.9148,-179.5 389.9148,-209.5 527.9148,-209.5 527.9148,-179.5 389.9148,-179.5"/>
<text text-anchor="start" x="397.9148" y="-197.5" font-family="Helvetica,sans-Serif" font-size="10.00" fill="#000000">lug/Graphics/Vulkan</text>
<text text-anchor="middle" x="458.9148" y="-186.5" font-family="Helvetica,sans-Serif" font-size="10.00" fill="#000000">/API/DeviceMemory.hpp</text>
</a>
</g>
</g>
<!-- Node1&#45;&gt;Node17 -->
<g id="edge36" class="edge">
<title>Node1&#45;&gt;Node17</title>
<path fill="none" stroke="#191970" d="M685.3972,-447.4268C604.6922,-426.2541 469.9957,-385.6157 441.9148,-344 416.4691,-306.2897 433.5113,-250.7004 447.0097,-219.0095"/>
<polygon fill="#191970" stroke="#191970" points="450.3243,-220.1707 451.2094,-209.6129 443.9335,-217.3144 450.3243,-220.1707"/>
</g>
<!-- Node5 -->
<g id="node6" class="node">
<title>Node5</title>
<g id="a_node6"><a xlink:href="Config_8hpp.html" target="_top" xlink:title="lug/Config.hpp">
<polygon fill="none" stroke="#000000" points="836.4148,-.5 836.4148,-19.5 925.4148,-19.5 925.4148,-.5 836.4148,-.5"/>
<text text-anchor="middle" x="880.9148" y="-7.5" font-family="Helvetica,sans-Serif" font-size="10.00" fill="#000000">lug/Config.hpp</text>
</a>
</g>
</g>
<!-- Node4&#45;&gt;Node5 -->
<g id="edge5" class="edge">
<title>Node4&#45;&gt;Node5</title>
<path fill="none" stroke="#191970" d="M410.9801,-58.5399C419.0486,-57.6784 427.163,-56.8165 434.9148,-56 575.9246,-41.1471 742.0689,-24.142 826.1891,-15.5671"/>
<polygon fill="#191970" stroke="#191970" points="826.6854,-19.0348 836.279,-14.539 825.9757,-12.0708 826.6854,-19.0348"/>
</g>
<!-- Node6&#45;&gt;Node3 -->
<g id="edge7" class="edge">
<title>Node6&#45;&gt;Node3</title>
<path fill="none" stroke="#191970" d="M740.052,-179.8794C792.321,-166.9568 867.099,-148.4692 912.4175,-137.265"/>
<polygon fill="#191970" stroke="#191970" points="913.3042,-140.6513 922.1718,-134.8534 911.6241,-133.8559 913.3042,-140.6513"/>
</g>
<!-- Node6&#45;&gt;Node4 -->
<g id="edge8" class="edge">
<title>Node6&#45;&gt;Node4</title>
<path fill="none" stroke="#191970" d="M668.6734,-179.2773C652.5202,-160.308 622.2115,-128.3961 588.9148,-112 559.9087,-97.7167 481.6666,-84.5502 420.9397,-75.9968"/>
<polygon fill="#191970" stroke="#191970" points="421.3586,-72.5215 410.972,-74.6118 420.3951,-79.4548 421.3586,-72.5215"/>
</g>
<!-- Node7 -->
<g id="node8" class="node">
<title>Node7</title>
<g id="a_node8"><a xlink:href="Vulkan_8hpp.html" target="_top" xlink:title="lug/Graphics/Vulkan\l/Vulkan.hpp">
<polygon fill="none" stroke="#000000" points="461.9148,-112.5 461.9148,-142.5 579.9148,-142.5 579.9148,-112.5 461.9148,-112.5"/>
<text text-anchor="start" x="469.9148" y="-130.5" font-family="Helvetica,sans-Serif" font-size="10.00" fill="#000000">lug/Graphics/Vulkan</text>
<text text-anchor="middle" x="520.9148" y="-119.5" font-family="Helvetica,sans-Serif" font-size="10.00" fill="#000000">/Vulkan.hpp</text>
</a>
</g>
</g>
<!-- Node6&#45;&gt;Node7 -->
<g id="edge9" class="edge">
<title>Node6&#45;&gt;Node7</title>
<path fill="none" stroke="#191970" d="M645.0077,-179.4639C621.7237,-169.7137 591.1928,-156.9289 566.2414,-146.4805"/>
<polygon fill="#191970" stroke="#191970" points="567.5544,-143.2359 556.9785,-142.6017 564.8506,-149.6926 567.5544,-143.2359"/>
</g>
<!-- Node7&#45;&gt;Node4 -->
<g id="edge13" class="edge">
<title>Node7&#45;&gt;Node4</title>
<path fill="none" stroke="#191970" d="M477.1265,-112.4554C447.1289,-102.149 407.7661,-88.6249 379.2532,-78.8286"/>
<polygon fill="#191970" stroke="#191970" points="380.2481,-75.4696 369.6534,-75.5303 377.9735,-82.0898 380.2481,-75.4696"/>
</g>
<!-- Node8 -->
<g id="node9" class="node">
<title>Node8</title>
<polygon fill="none" stroke="#bfbfbf" points="951.4148,-56.5 951.4148,-75.5 1046.4148,-75.5 1046.4148,-56.5 951.4148,-56.5"/>
<text text-anchor="middle" x="998.9148" y="-63.5" font-family="Helvetica,sans-Serif" font-size="10.00" fill="#000000">unordered_map</text>
</g>
<!-- Node7&#45;&gt;Node8 -->
<g id="edge10" class="edge">
<title>Node7&#45;&gt;Node8</title>
<path fill="none" stroke="#191970" d="M580.0064,-119.8972C672.2437,-108.0299 849.3361,-85.245 940.9049,-73.4636"/>
<polygon fill="#191970" stroke="#191970" points="941.6295,-76.8993 951.1011,-72.1518 940.7362,-69.9565 941.6295,-76.8993"/>
</g>
<!-- Node9 -->
<g id="node10" class="node">
<title>Node9</title>
<polygon fill="none" stroke="#bfbfbf" points="116.9148,-56.5 116.9148,-75.5 164.9148,-75.5 164.9148,-56.5 116.9148,-56.5"/>
<text text-anchor="middle" x="140.9148" y="-63.5" font-family="Helvetica,sans-Serif" font-size="10.00" fill="#000000">vector</text>
</g>
<!-- Node7&#45;&gt;Node9 -->
<g id="edge11" class="edge">
<title>Node7&#45;&gt;Node9</title>
<path fill="none" stroke="#191970" d="M461.5398,-117.8906C381.0627,-104.866 239.9861,-82.0339 175.2047,-71.5495"/>
<polygon fill="#191970" stroke="#191970" points="175.5492,-68.0598 165.1185,-69.9172 174.4308,-74.9699 175.5492,-68.0598"/>
</g>
<!-- Node10 -->
<g id="node11" class="node">
<title>Node10</title>
<polygon fill="none" stroke="#bfbfbf" points="443.9148,-56.5 443.9148,-75.5 501.9148,-75.5 501.9148,-56.5 443.9148,-56.5"/>
<text text-anchor="middle" x="472.9148" y="-63.5" font-family="Helvetica,sans-Serif" font-size="10.00" fill="#000000">ostream</text>
</g>
<!-- Node7&#45;&gt;Node10 -->
<g id="edge12" class="edge">
<title>Node7&#45;&gt;Node10</title>
<path fill="none" stroke="#191970" d="M509.0496,-112.2977C502.3173,-103.672 493.8562,-92.8312 486.8142,-83.8087"/>
<polygon fill="#191970" stroke="#191970" points="489.512,-81.5766 480.6002,-75.8469 483.9938,-85.8836 489.512,-81.5766"/>
</g>
<!-- Node11 -->
<g id="node12" class="node">
<title>Node11</title>
<polygon fill="none" stroke="#bfbfbf" points="520.4148,-56.5 520.4148,-75.5 617.4148,-75.5 617.4148,-56.5 520.4148,-56.5"/>
<text text-anchor="middle" x="568.9148" y="-63.5" font-family="Helvetica,sans-Serif" font-size="10.00" fill="#000000">vulkan/vulkan.h</text>
</g>
<!-- Node7&#45;&gt;Node11 -->
<g id="edge14" class="edge">
<title>Node7&#45;&gt;Node11</title>
<path fill="none" stroke="#191970" d="M532.78,-112.2977C539.5123,-103.672 547.9733,-92.8312 555.0153,-83.8087"/>
<polygon fill="#191970" stroke="#191970" points="557.8357,-85.8836 561.2294,-75.8469 552.3175,-81.5766 557.8357,-85.8836"/>
</g>
<!-- Node12&#45;&gt;Node4 -->
<g id="edge17" class="edge">
<title>Node12&#45;&gt;Node4</title>
<path fill="none" stroke="#191970" d="M123.4671,-380.4792C109.2283,-356.3621 83.9148,-307.0777 83.9148,-261.5 83.9148,-261.5 83.9148,-261.5 83.9148,-194.5 83.9148,-113.5664 186.8978,-83.607 262.7364,-72.5172"/>
<polygon fill="#191970" stroke="#191970" points="263.3465,-75.9663 272.7755,-71.1346 262.3915,-69.0317 263.3465,-75.9663"/>
</g>
<!-- Node12&#45;&gt;Node7 -->
<g id="edge33" class="edge">
<title>Node12&#45;&gt;Node7</title>
<path fill="none" stroke="#191970" d="M133.886,-380.2494C137.3102,-340.2207 152.4017,-231.6243 216.9148,-179 251.9478,-150.423 373.1028,-137.1361 451.4758,-131.4033"/>
<polygon fill="#191970" stroke="#191970" points="452.0336,-134.8727 461.7618,-130.6761 451.5399,-127.8901 452.0336,-134.8727"/>
</g>
<!-- Node12&#45;&gt;Node9 -->
<g id="edge16" class="edge">
<title>Node12&#45;&gt;Node9</title>
<path fill="none" stroke="#191970" d="M106.7577,-380.3376C93.6817,-371.41 78.7914,-358.9377 69.9148,-344 16.5385,-254.1774 -25.8451,-199.0685 31.9148,-112 48.381,-87.1785 81.1699,-75.7174 106.5045,-70.4451"/>
<polygon fill="#191970" stroke="#191970" points="107.2921,-73.8589 116.4894,-68.5995 106.0198,-66.9754 107.2921,-73.8589"/>
</g>
<!-- Node12&#45;&gt;Node13 -->
<g id="edge18" class="edge">
<title>Node12&#45;&gt;Node13</title>
<path fill="none" stroke="#191970" d="M201.5663,-383.5217C268.8022,-371.7905 371.0352,-353.9529 440.7427,-341.7904"/>
<polygon fill="#191970" stroke="#191970" points="441.5338,-345.2054 450.7833,-340.0386 440.3306,-338.3096 441.5338,-345.2054"/>
</g>
<!-- Node13&#45;&gt;Node4 -->
<g id="edge19" class="edge">
<title>Node13&#45;&gt;Node4</title>
<path fill="none" stroke="#191970" d="M452.9848,-313.4611C369.9457,-292.483 232.1179,-252.2344 202.9148,-210 186.4477,-186.1848 216.3805,-119.0705 222.9148,-112 237.7745,-95.9211 258.9002,-85.4009 279.2378,-78.5439"/>
<polygon fill="#191970" stroke="#191970" points="280.3108,-81.8756 288.8131,-75.5542 278.2244,-75.1938 280.3108,-81.8756"/>
</g>
<!-- Node13&#45;&gt;Node6 -->
<g id="edge20" class="edge">
<title>Node13&#45;&gt;Node6</title>
<path fill="none" stroke="#191970" d="M583.2092,-317.1924C626.2916,-308.3389 676.8018,-294.5853 689.9148,-277 702.1543,-260.5861 698.0318,-236.9728 691.9412,-219.2111"/>
<polygon fill="#191970" stroke="#191970" points="695.0789,-217.6172 688.2366,-209.5281 688.541,-220.1186 695.0789,-217.6172"/>
</g>
<!-- Node13&#45;&gt;Node7 -->
<g id="edge32" class="edge">
<title>Node13&#45;&gt;Node7</title>
<path fill="none" stroke="#191970" d="M520.3271,-313.2642C525.1651,-290.805 533.7788,-247.4238 536.9148,-210 538.0653,-196.2703 538.9821,-192.6218 536.9148,-179 535.5565,-170.0501 532.9419,-160.5144 530.2137,-152.1121"/>
<polygon fill="#191970" stroke="#191970" points="533.4805,-150.8493 526.9064,-142.5407 526.8643,-153.1355 533.4805,-150.8493"/>
</g>
<!-- Node14 -->
<g id="node15" class="node">
<title>Node14</title>
<g id="a_node15"><a xlink:href="CommandBuffer_8hpp.html" target="_top" xlink:title="lug/Graphics/Vulkan\l/API/CommandBuffer.hpp">
<polygon fill="none" stroke="#000000" points="226.4148,-179.5 226.4148,-209.5 371.4148,-209.5 371.4148,-179.5 226.4148,-179.5"/>
<text text-anchor="start" x="234.4148" y="-197.5" font-family="Helvetica,sans-Serif" font-size="10.00" fill="#000000">lug/Graphics/Vulkan</text>
<text text-anchor="middle" x="298.9148" y="-186.5" font-family="Helvetica,sans-Serif" font-size="10.00" fill="#000000">/API/CommandBuffer.hpp</text>
</a>
</g>
</g>
<!-- Node13&#45;&gt;Node14 -->
<g id="edge21" class="edge">
<title>Node13&#45;&gt;Node14</title>
<path fill="none" stroke="#191970" d="M492.3312,-313.389C453.057,-289.248 376.1083,-241.9492 332.028,-214.854"/>
<polygon fill="#191970" stroke="#191970" points="333.7607,-211.8107 323.4085,-209.5558 330.095,-217.7742 333.7607,-211.8107"/>
</g>
<!-- Node15 -->
<g id="node16" class="node">
<title>Node15</title>
<g id="a_node16"><a xlink:href="PipelineLayout_8hpp.html" target="_top" xlink:title="lug/Graphics/Vulkan\l/API/PipelineLayout.hpp">
<polygon fill="none" stroke="#000000" points="544.9148,-246.5 544.9148,-276.5 680.9148,-276.5 680.9148,-246.5 544.9148,-246.5"/>
<text text-anchor="start" x="552.9148" y="-264.5" font-family="Helvetica,sans-Serif" font-size="10.00" fill="#000000">lug/Graphics/Vulkan</text>
<text text-anchor="middle" x="612.9148" y="-253.5" font-family="Helvetica,sans-Serif" font-size="10.00" fill="#000000">/API/PipelineLayout.hpp</text>
</a>
</g>
</g>
<!-- Node13&#45;&gt;Node15 -->
<g id="edge24" class="edge">
<title>Node13&#45;&gt;Node15</title>
<path fill="none" stroke="#191970" d="M538.6987,-313.2967C551.7093,-304.2163 568.4269,-292.5488 582.7005,-282.587"/>
<polygon fill="#191970" stroke="#191970" points="585.0199,-285.2365 591.2171,-276.6432 581.0136,-279.4962 585.0199,-285.2365"/>
</g>
<!-- Node14&#45;&gt;Node4 -->
<g id="edge22" class="edge">
<title>Node14&#45;&gt;Node4</title>
<path fill="none" stroke="#191970" d="M304.0163,-179.2548C311.8415,-155.87 326.8022,-111.1619 335.4007,-85.4665"/>
<polygon fill="#191970" stroke="#191970" points="338.8026,-86.3296 338.6569,-75.7358 332.1644,-84.1082 338.8026,-86.3296"/>
</g>
<!-- Node14&#45;&gt;Node7 -->
<g id="edge23" class="edge">
<title>Node14&#45;&gt;Node7</title>
<path fill="none" stroke="#191970" d="M348.7359,-179.4639C382.0387,-169.4131 426.0262,-156.1375 461.2042,-145.5208"/>
<polygon fill="#191970" stroke="#191970" points="462.3141,-148.8418 470.8764,-142.6017 460.2916,-142.1403 462.3141,-148.8418"/>
</g>
<!-- Node15&#45;&gt;Node3 -->
<g id="edge25" class="edge">
<title>Node15&#45;&gt;Node3</title>
<path fill="none" stroke="#191970" d="M681.1657,-259.2368C764.1127,-255.0449 897.4186,-243.2013 932.9148,-210 949.9733,-194.0444 953.1747,-166.1062 953.1496,-147.2111"/>
<polygon fill="#191970" stroke="#191970" points="956.6425,-146.9302 952.8273,-137.0462 949.646,-147.1521 956.6425,-146.9302"/>
</g>
<!-- Node15&#45;&gt;Node4 -->
<g id="edge26" class="edge">
<title>Node15&#45;&gt;Node4</title>
<path fill="none" stroke="#191970" d="M544.6206,-257.4585C437.0595,-250.3888 238.1612,-234.1885 216.9148,-210 175.439,-162.781 264.2203,-106.4042 312.8764,-80.4195"/>
<polygon fill="#191970" stroke="#191970" points="314.7808,-83.3734 322.0221,-75.6395 311.5383,-77.1696 314.7808,-83.3734"/>
</g>
<!-- Node15&#45;&gt;Node7 -->
<g id="edge31" class="edge">
<title>Node15&#45;&gt;Node7</title>
<path fill="none" stroke="#191970" d="M606.6236,-246.4763C599.1184,-229.3668 585.5982,-200.9451 569.9148,-179 562.5888,-168.749 553.3128,-158.4835 544.8075,-149.8454"/>
<polygon fill="#191970" stroke="#191970" points="547.1702,-147.2595 537.5998,-142.7146 542.2471,-152.2358 547.1702,-147.2595"/>
</g>
<!-- Node15&#45;&gt;Node16 -->
<g id="edge27" class="edge">
<title>Node15&#45;&gt;Node16</title>
<path fill="none" stroke="#191970" d="M664.0824,-246.4639C698.2853,-236.4131 743.4617,-223.1375 779.5904,-212.5208"/>
<polygon fill="#191970" stroke="#191970" points="780.9164,-215.7792 789.524,-209.6017 778.9428,-209.0631 780.9164,-215.7792"/>
</g>
<!-- Node16&#45;&gt;Node3 -->
<g id="edge28" class="edge">
<title>Node16&#45;&gt;Node3</title>
<path fill="none" stroke="#191970" d="M865.8253,-179.4639C884.198,-168.3741 909.0748,-153.3584 927.3622,-142.32"/>
<polygon fill="#191970" stroke="#191970" points="929.2512,-145.268 936.0038,-137.1039 925.6338,-139.2751 929.2512,-145.268"/>
</g>
<!-- Node16&#45;&gt;Node4 -->
<g id="edge29" class="edge">
<title>Node16&#45;&gt;Node4</title>
<path fill="none" stroke="#191970" d="M808.1058,-179.4666C766.5393,-160.9952 692.3072,-129.9099 625.9148,-112 557.903,-93.6533 478.6339,-81.5603 421.1525,-74.3988"/>
<polygon fill="#191970" stroke="#191970" points="421.3925,-70.9022 411.0415,-73.1619 420.5425,-77.8504 421.3925,-70.9022"/>
</g>
<!-- Node16&#45;&gt;Node7 -->
<g id="edge30" class="edge">
<title>Node16&#45;&gt;Node7</title>
<path fill="none" stroke="#191970" d="M769.1005,-179.4639C715.6084,-168.264 642.9918,-153.0599 590.1325,-141.9925"/>
<polygon fill="#191970" stroke="#191970" points="590.6739,-138.53 580.1689,-139.9063 589.2393,-145.3814 590.6739,-138.53"/>
</g>
<!-- Node17&#45;&gt;Node3 -->
<g id="edge37" class="edge">
<title>Node17&#45;&gt;Node3</title>
<path fill="none" stroke="#191970" d="M527.9834,-185.1134C632.6858,-170.8841 828.2428,-144.3073 912.0829,-132.9133"/>
<polygon fill="#191970" stroke="#191970" points="912.7739,-136.3516 922.2115,-131.5368 911.8312,-129.4154 912.7739,-136.3516"/>
</g>
<!-- Node17&#45;&gt;Node4 -->
<g id="edge38" class="edge">
<title>Node17&#45;&gt;Node4</title>
<path fill="none" stroke="#191970" d="M445.0339,-179.2548C423.1717,-155.2437 380.8403,-108.7515 357.7971,-83.4434"/>
<polygon fill="#191970" stroke="#191970" points="360.0997,-80.7736 350.7793,-75.7358 354.9238,-85.4864 360.0997,-80.7736"/>
</g>
<!-- Node17&#45;&gt;Node7 -->
<g id="edge39" class="edge">
<title>Node17&#45;&gt;Node7</title>
<path fill="none" stroke="#191970" d="M472.9835,-179.2967C480.9899,-170.6446 491.1698,-159.6438 500.0868,-150.0076"/>
<polygon fill="#191970" stroke="#191970" points="502.6787,-152.36 506.9017,-142.6432 497.5409,-147.6057 502.6787,-152.36"/>
</g>
<!-- Node18&#45;&gt;Node3 -->
<g id="edge41" class="edge">
<title>Node18&#45;&gt;Node3</title>
<path fill="none" stroke="#191970" d="M1343.8938,-255.687C1247.6109,-248.1771 1098.3489,-233.2397 1046.9148,-210 1029.3749,-202.0749 990.9669,-165.9677 968.732,-144.2332"/>
<polygon fill="#191970" stroke="#191970" points="971.1842,-141.7358 961.6024,-137.2146 966.2733,-146.7242 971.1842,-141.7358"/>
</g>
<!-- Node19 -->
<g id="node20" class="node">
<title>Node19</title>
<polygon fill="none" stroke="#bfbfbf" points="1413.9148,-185 1413.9148,-204 1445.9148,-204 1445.9148,-185 1413.9148,-185"/>
<text text-anchor="middle" x="1429.9148" y="-192" font-family="Helvetica,sans-Serif" font-size="10.00" fill="#000000">set</text>
</g>
<!-- Node18&#45;&gt;Node19 -->
<g id="edge42" class="edge">
<title>Node18&#45;&gt;Node19</title>
<path fill="none" stroke="#191970" d="M1429.9148,-251.9005C1429.9148,-242.149 1429.9148,-226.7597 1429.9148,-214.3695"/>
<polygon fill="#191970" stroke="#191970" points="1433.4149,-214.0816 1429.9148,-204.0817 1426.4149,-214.0817 1433.4149,-214.0816"/>
</g>
<!-- Node20 -->
<g id="node21" class="node">
<title>Node20</title>
<polygon fill="none" stroke="#bfbfbf" points="1416.4148,-118 1416.4148,-137 1461.4148,-137 1461.4148,-118 1416.4148,-118"/>
<text text-anchor="middle" x="1438.9148" y="-125" font-family="Helvetica,sans-Serif" font-size="10.00" fill="#000000">string</text>
</g>
<!-- Node18&#45;&gt;Node20 -->
<g id="edge43" class="edge">
<title>Node18&#45;&gt;Node20</title>
<path fill="none" stroke="#191970" d="M1436.3219,-251.7432C1442.4771,-241.7405 1451.352,-225.4978 1454.9148,-210 1459.8486,-188.5384 1453.4024,-163.705 1447.2804,-146.9365"/>
<polygon fill="#191970" stroke="#191970" points="1450.361,-145.209 1443.427,-137.1983 1443.852,-147.7846 1450.361,-145.209"/>
</g>
<!-- Node21 -->
<g id="node22" class="node">
<title>Node21</title>
<g id="a_node22"><a xlink:href="System_2Export_8hpp.html" target="_top" xlink:title="lug/System/Export.hpp">
<polygon fill="none" stroke="#000000" points="1362.9148,-56.5 1362.9148,-75.5 1494.9148,-75.5 1494.9148,-56.5 1362.9148,-56.5"/>
<text text-anchor="middle" x="1428.9148" y="-63.5" font-family="Helvetica,sans-Serif" font-size="10.00" fill="#000000">lug/System/Export.hpp</text>
</a>
</g>
</g>
<!-- Node18&#45;&gt;Node21 -->
<g id="edge44" class="edge">
<title>Node18&#45;&gt;Node21</title>
<path fill="none" stroke="#191970" d="M1440.0942,-251.9841C1449.5473,-242.4124 1463.0221,-226.7119 1468.9148,-210 1483.4017,-168.9146 1486.6679,-152.6167 1470.9148,-112 1466.529,-100.692 1457.9246,-90.463 1449.6399,-82.5381"/>
<polygon fill="#191970" stroke="#191970" points="1451.7392,-79.721 1441.9428,-75.6859 1447.0847,-84.9494 1451.7392,-79.721"/>
</g>
<!-- Node22 -->
<g id="node23" class="node">
<title>Node22</title>
<g id="a_node23"><a xlink:href="Common_8hpp.html" target="_top" xlink:title="lug/System/Logger/Common.hpp">
<polygon fill="none" stroke="#000000" points="1539.9148,-118 1539.9148,-137 1721.9148,-137 1721.9148,-118 1539.9148,-118"/>
<text text-anchor="middle" x="1630.9148" y="-125" font-family="Helvetica,sans-Serif" font-size="10.00" fill="#000000">lug/System/Logger/Common.hpp</text>
</a>
</g>
</g>
<!-- Node18&#45;&gt;Node22 -->
<g id="edge46" class="edge">
<title>Node18&#45;&gt;Node22</title>
<path fill="none" stroke="#191970" d="M1516.2609,-252.4072C1600.2126,-242.6766 1717.0714,-226.4131 1730.9148,-210 1754.7584,-181.7304 1706.7949,-155.7623 1669.3814,-140.7879"/>
<polygon fill="#191970" stroke="#191970" points="1670.2526,-137.3728 1659.6629,-137.043 1667.7357,-143.9046 1670.2526,-137.3728"/>
</g>
<!-- Node25 -->
<g id="node26" class="node">
<title>Node25</title>
<g id="a_node26"><a xlink:href="LoggingFacility_8hpp.html" target="_top" xlink:title="lug/System/Logger/Logging\lFacility.hpp">
<polygon fill="none" stroke="#000000" points="1240.4148,-179.5 1240.4148,-209.5 1395.4148,-209.5 1395.4148,-179.5 1240.4148,-179.5"/>
<text text-anchor="start" x="1248.4148" y="-197.5" font-family="Helvetica,sans-Serif" font-size="10.00" fill="#000000">lug/System/Logger/Logging</text>
<text text-anchor="middle" x="1317.9148" y="-186.5" font-family="Helvetica,sans-Serif" font-size="10.00" fill="#000000">Facility.hpp</text>
</a>
</g>
</g>
<!-- Node18&#45;&gt;Node25 -->
<g id="edge50" class="edge">
<title>Node18&#45;&gt;Node25</title>
<path fill="none" stroke="#191970" d="M1413.8679,-251.9005C1397.745,-242.2556 1372.4026,-227.0954 1351.8103,-214.7768"/>
<polygon fill="#191970" stroke="#191970" points="1353.4043,-211.6519 1343.0258,-209.5218 1349.8107,-217.6591 1353.4043,-211.6519"/>
</g>
<!-- Node26 -->
<g id="node27" class="node">
<title>Node26</title>
<g id="a_node27"><a xlink:href="Message_8hpp.html" target="_top" xlink:title="lug/System/Logger/Message.hpp">
<polygon fill="none" stroke="#000000" points="1540.4148,-185 1540.4148,-204 1721.4148,-204 1721.4148,-185 1540.4148,-185"/>
<text text-anchor="middle" x="1630.9148" y="-192" font-family="Helvetica,sans-Serif" font-size="10.00" fill="#000000">lug/System/Logger/Message.hpp</text>
</a>
</g>
</g>
<!-- Node18&#45;&gt;Node26 -->
<g id="edge55" class="edge">
<title>Node18&#45;&gt;Node26</title>
<path fill="none" stroke="#191970" d="M1458.7132,-251.9005C1493.7888,-240.2086 1553.1782,-220.4122 1592.222,-207.3976"/>
<polygon fill="#191970" stroke="#191970" points="1593.7898,-210.5644 1602.1698,-204.0817 1591.5761,-203.9236 1593.7898,-210.5644"/>
</g>
<!-- Node27 -->
<g id="node28" class="node">
<title>Node27</title>
<g id="a_node28"><a xlink:href="Logger_8inl.html" target="_top" xlink:title="lug/System/Logger/Logger.inl">
<polygon fill="none" stroke="#000000" points="1055.9148,-185 1055.9148,-204 1221.9148,-204 1221.9148,-185 1055.9148,-185"/>
<text text-anchor="middle" x="1138.9148" y="-192" font-family="Helvetica,sans-Serif" font-size="10.00" fill="#000000">lug/System/Logger/Logger.inl</text>
</a>
</g>
</g>
<!-- Node18&#45;&gt;Node27 -->
<g id="edge57" class="edge">
<title>Node18&#45;&gt;Node27</title>
<path fill="none" stroke="#191970" d="M1388.5306,-251.9717C1336.4254,-239.975 1246.9111,-219.3651 1190.4287,-206.3606"/>
<polygon fill="#191970" stroke="#191970" points="1191.1577,-202.9369 1180.6273,-204.1039 1189.5871,-209.7585 1191.1577,-202.9369"/>
</g>
<!-- Node21&#45;&gt;Node5 -->
<g id="edge45" class="edge">
<title>Node21&#45;&gt;Node5</title>
<path fill="none" stroke="#191970" d="M1362.8132,-59.2451C1253.4138,-48.0656 1036.7484,-25.9246 935.4764,-15.5756"/>
<polygon fill="#191970" stroke="#191970" points="935.7636,-12.0869 925.4596,-14.552 935.0519,-19.0506 935.7636,-12.0869"/>
</g>
<!-- Node22&#45;&gt;Node21 -->
<g id="edge47" class="edge">
<title>Node22&#45;&gt;Node21</title>
<path fill="none" stroke="#191970" d="M1599.3523,-117.8906C1564.5163,-107.2846 1508.3198,-90.1753 1470.056,-78.5257"/>
<polygon fill="#191970" stroke="#191970" points="1470.8415,-75.1063 1460.2556,-75.5419 1468.8027,-81.8028 1470.8415,-75.1063"/>
</g>
<!-- Node23 -->
<g id="node24" class="node">
<title>Node23</title>
<polygon fill="none" stroke="#bfbfbf" points="1641.9148,-56.5 1641.9148,-75.5 1723.9148,-75.5 1723.9148,-56.5 1641.9148,-56.5"/>
<text text-anchor="middle" x="1682.9148" y="-63.5" font-family="Helvetica,sans-Serif" font-size="10.00" fill="#000000">fmt/format.h</text>
</g>
<!-- Node22&#45;&gt;Node23 -->
<g id="edge48" class="edge">
<title>Node22&#45;&gt;Node23</title>
<path fill="none" stroke="#191970" d="M1639.0398,-117.8906C1646.779,-108.7376 1658.6135,-94.7409 1668.042,-83.59"/>
<polygon fill="#191970" stroke="#191970" points="1670.8912,-85.6409 1674.6752,-75.7449 1665.5459,-81.1213 1670.8912,-85.6409"/>
</g>
<!-- Node24 -->
<g id="node25" class="node">
<title>Node24</title>
<polygon fill="none" stroke="#bfbfbf" points="1534.4148,-56.5 1534.4148,-75.5 1623.4148,-75.5 1623.4148,-56.5 1534.4148,-56.5"/>
<text text-anchor="middle" x="1578.9148" y="-63.5" font-family="Helvetica,sans-Serif" font-size="10.00" fill="#000000">fmt/ostream.h</text>
</g>
<!-- Node22&#45;&gt;Node24 -->
<g id="edge49" class="edge">
<title>Node22&#45;&gt;Node24</title>
<path fill="none" stroke="#191970" d="M1622.7898,-117.8906C1615.0506,-108.7376 1603.216,-94.7409 1593.7876,-83.59"/>
<polygon fill="#191970" stroke="#191970" points="1596.2837,-81.1213 1587.1543,-75.7449 1590.9383,-85.6409 1596.2837,-81.1213"/>
</g>
<!-- Node25&#45;&gt;Node3 -->
<g id="edge52" class="edge">
<title>Node25&#45;&gt;Node3</title>
<path fill="none" stroke="#191970" d="M1240.2956,-180.291C1164.0846,-166.3398 1050.8843,-145.6174 991.5213,-134.7504"/>
<polygon fill="#191970" stroke="#191970" points="991.8973,-131.2611 981.4305,-132.9032 990.6368,-138.1467 991.8973,-131.2611"/>
</g>
<!-- Node25&#45;&gt;Node8 -->
<g id="edge53" class="edge">
<title>Node25&#45;&gt;Node8</title>
<path fill="none" stroke="#191970" d="M1280.3834,-179.3816C1217.5105,-154.055 1091.9193,-103.4642 1032.088,-79.3629"/>
<polygon fill="#191970" stroke="#191970" points="1033.3126,-76.0829 1022.7291,-75.5929 1030.6971,-82.5759 1033.3126,-76.0829"/>
</g>
<!-- Node25&#45;&gt;Node20 -->
<g id="edge51" class="edge">
<title>Node25&#45;&gt;Node20</title>
<path fill="none" stroke="#191970" d="M1345.0695,-179.4639C1365.2803,-168.2728 1392.7112,-153.0838 1412.6946,-142.0186"/>
<polygon fill="#191970" stroke="#191970" points="1414.5175,-145.0101 1421.5704,-137.1039 1411.1265,-138.8862 1414.5175,-145.0101"/>
</g>
<!-- Node25&#45;&gt;Node21 -->
<g id="edge54" class="edge">
<title>Node25&#45;&gt;Node21</title>
<path fill="none" stroke="#191970" d="M1331.0838,-179.2548C1351.8249,-155.2437 1391.9854,-108.7515 1413.847,-83.4434"/>
<polygon fill="#191970" stroke="#191970" points="1416.6165,-85.5913 1420.5049,-75.7358 1411.3192,-81.0154 1416.6165,-85.5913"/>
</g>
<!-- Node26&#45;&gt;Node22 -->
<g id="edge56" class="edge">
<title>Node26&#45;&gt;Node22</title>
<path fill="none" stroke="#191970" d="M1630.9148,-184.9005C1630.9148,-175.149 1630.9148,-159.7597 1630.9148,-147.3695"/>
<polygon fill="#191970" stroke="#191970" points="1634.4149,-147.0816 1630.9148,-137.0817 1627.4149,-147.0817 1634.4149,-147.0816"/>
</g>
</g>
</svg>
