<?xml version="1.0" encoding="UTF-8" standalone="no"?>
<!DOCTYPE svg PUBLIC "-//W3C//DTD SVG 1.1//EN"
 "http://www.w3.org/Graphics/SVG/1.1/DTD/svg11.dtd">
<!-- Generated by graphviz version 2.40.1 (20161225.0304)
 -->
<!-- Title: src/lug/Graphics/Vulkan/API/Buffer.cpp Pages: 1 -->
<svg width="994pt" height="419pt"
 viewBox="0.00 0.00 994.00 419.00" xmlns="http://www.w3.org/2000/svg" xmlns:xlink="http://www.w3.org/1999/xlink">
<g id="graph0" class="graph" transform="scale(1 1) rotate(0) translate(4 415)">
<title>src/lug/Graphics/Vulkan/API/Buffer.cpp</title>
<!-- Node0 -->
<g id="node1" class="node">
<title>Node0</title>
<polygon fill="#bfbfbf" stroke="#000000" points="337.5,-380.5 337.5,-410.5 474.5,-410.5 474.5,-380.5 337.5,-380.5"/>
<text text-anchor="start" x="345.5" y="-398.5" font-family="Helvetica,sans-Serif" font-size="10.00" fill="#000000">src/lug/Graphics/Vulkan</text>
<text text-anchor="middle" x="406" y="-387.5" font-family="Helvetica,sans-Serif" font-size="10.00" fill="#000000">/API/Buffer.cpp</text>
</g>
<!-- Node1 -->
<g id="node2" class="node">
<title>Node1</title>
<g id="a_node2"><a xlink:href="Buffer_8hpp.html" target="_top" xlink:title="lug/Graphics/Vulkan\l/API/Buffer.hpp">
<polygon fill="none" stroke="#000000" points="148,-179.5 148,-209.5 266,-209.5 266,-179.5 148,-179.5"/>
<text text-anchor="start" x="156" y="-197.5" font-family="Helvetica,sans-Serif" font-size="10.00" fill="#000000">lug/Graphics/Vulkan</text>
<text text-anchor="middle" x="207" y="-186.5" font-family="Helvetica,sans-Serif" font-size="10.00" fill="#000000">/API/Buffer.hpp</text>
</a>
</g>
</g>
<!-- Node0&#45;&gt;Node1 -->
<g id="edge1" class="edge">
<title>Node0&#45;&gt;Node1</title>
<path fill="none" stroke="#191970" d="M391.0427,-380.3923C356.2393,-345.2392 269.6988,-257.829 228.9187,-216.639"/>
<polygon fill="#191970" stroke="#191970" points="231.3823,-214.1527 221.8595,-209.5088 226.4079,-219.0776 231.3823,-214.1527"/>
</g>
<!-- Node11 -->
<g id="node12" class="node">
<title>Node11</title>
<polygon fill="none" stroke="#bfbfbf" points="589,-319 589,-338 639,-338 639,-319 589,-319"/>
<text text-anchor="middle" x="614" y="-326" font-family="Helvetica,sans-Serif" font-size="10.00" fill="#000000">cstring</text>
</g>
<!-- Node0&#45;&gt;Node11 -->
<g id="edge12" class="edge">
<title>Node0&#45;&gt;Node11</title>
<path fill="none" stroke="#191970" d="M464.2725,-380.4496C498.3884,-371.0959 542.0807,-358.1755 580,-344 581.5875,-343.4065 583.2051,-342.7728 584.83,-342.1131"/>
<polygon fill="#191970" stroke="#191970" points="586.2506,-345.3123 594.0599,-338.1523 583.4901,-338.8795 586.2506,-345.3123"/>
</g>
<!-- Node12 -->
<g id="node13" class="node">
<title>Node12</title>
<g id="a_node13"><a xlink:href="Device_8hpp.html" target="_top" xlink:title="lug/Graphics/Vulkan\l/API/Device.hpp">
<polygon fill="none" stroke="#000000" points="453,-313.5 453,-343.5 571,-343.5 571,-313.5 453,-313.5"/>
<text text-anchor="start" x="461" y="-331.5" font-family="Helvetica,sans-Serif" font-size="10.00" fill="#000000">lug/Graphics/Vulkan</text>
<text text-anchor="middle" x="512" y="-320.5" font-family="Helvetica,sans-Serif" font-size="10.00" fill="#000000">/API/Device.hpp</text>
</a>
</g>
</g>
<!-- Node0&#45;&gt;Node12 -->
<g id="edge13" class="edge">
<title>Node0&#45;&gt;Node12</title>
<path fill="none" stroke="#191970" d="M429.7885,-380.4639C444.4151,-371.2188 463.3583,-359.2452 479.3739,-349.1222"/>
<polygon fill="#191970" stroke="#191970" points="481.3412,-352.0193 487.9242,-343.7177 477.6011,-346.1022 481.3412,-352.0193"/>
</g>
<!-- Node18 -->
<g id="node19" class="node">
<title>Node18</title>
<g id="a_node19"><a xlink:href="DeviceMemory_8hpp.html" target="_top" xlink:title="lug/Graphics/Vulkan\l/API/DeviceMemory.hpp">
<polygon fill="none" stroke="#000000" points="284,-179.5 284,-209.5 422,-209.5 422,-179.5 284,-179.5"/>
<text text-anchor="start" x="292" y="-197.5" font-family="Helvetica,sans-Serif" font-size="10.00" fill="#000000">lug/Graphics/Vulkan</text>
<text text-anchor="middle" x="353" y="-186.5" font-family="Helvetica,sans-Serif" font-size="10.00" fill="#000000">/API/DeviceMemory.hpp</text>
</a>
</g>
</g>
<!-- Node0&#45;&gt;Node18 -->
<g id="edge26" class="edge">
<title>Node0&#45;&gt;Node18</title>
<path fill="none" stroke="#191970" d="M402.0164,-380.3923C392.9395,-345.9685 370.6491,-261.4334 359.5291,-219.2615"/>
<polygon fill="#191970" stroke="#191970" points="362.8916,-218.2859 356.9575,-209.5088 356.123,-220.0707 362.8916,-218.2859"/>
</g>
<!-- Node2 -->
<g id="node3" class="node">
<title>Node2</title>
<polygon fill="none" stroke="#bfbfbf" points="136.5,-118 136.5,-137 195.5,-137 195.5,-118 136.5,-118"/>
<text text-anchor="middle" x="166" y="-125" font-family="Helvetica,sans-Serif" font-size="10.00" fill="#000000">memory</text>
</g>
<!-- Node1&#45;&gt;Node2 -->
<g id="edge2" class="edge">
<title>Node1&#45;&gt;Node2</title>
<path fill="none" stroke="#191970" d="M197.6965,-179.2967C191.6186,-169.3645 183.6466,-156.3371 177.2181,-145.8321"/>
<polygon fill="#191970" stroke="#191970" points="180.0522,-143.7578 171.8471,-137.055 174.0814,-147.4115 180.0522,-143.7578"/>
</g>
<!-- Node3 -->
<g id="node4" class="node">
<title>Node3</title>
<g id="a_node4"><a xlink:href="Graphics_2Export_8hpp.html" target="_top" xlink:title="lug/Graphics/Export.hpp">
<polygon fill="none" stroke="#000000" points="387,-56.5 387,-75.5 525,-75.5 525,-56.5 387,-56.5"/>
<text text-anchor="middle" x="456" y="-63.5" font-family="Helvetica,sans-Serif" font-size="10.00" fill="#000000">lug/Graphics/Export.hpp</text>
</a>
</g>
</g>
<!-- Node1&#45;&gt;Node3 -->
<g id="edge3" class="edge">
<title>Node1&#45;&gt;Node3</title>
<path fill="none" stroke="#191970" d="M214.8968,-179.1844C225.3771,-160.4218 245.6673,-129.0362 272,-112 303.0756,-91.8954 342.3354,-80.5774 376.6012,-74.206"/>
<polygon fill="#191970" stroke="#191970" points="377.3419,-77.6297 386.59,-72.4601 376.1367,-70.7343 377.3419,-77.6297"/>
</g>
<!-- Node5 -->
<g id="node6" class="node">
<title>Node5</title>
<g id="a_node6"><a xlink:href="Vulkan_8hpp.html" target="_top" xlink:title="lug/Graphics/Vulkan\l/Vulkan.hpp">
<polygon fill="none" stroke="#000000" points="554,-112.5 554,-142.5 672,-142.5 672,-112.5 554,-112.5"/>
<text text-anchor="start" x="562" y="-130.5" font-family="Helvetica,sans-Serif" font-size="10.00" fill="#000000">lug/Graphics/Vulkan</text>
<text text-anchor="middle" x="613" y="-119.5" font-family="Helvetica,sans-Serif" font-size="10.00" fill="#000000">/Vulkan.hpp</text>
</a>
</g>
</g>
<!-- Node1&#45;&gt;Node5 -->
<g id="edge5" class="edge">
<title>Node1&#45;&gt;Node5</title>
<path fill="none" stroke="#191970" d="M266.2848,-180.7189C269.2277,-180.1189 272.145,-179.5421 275,-179 367.4933,-161.4362 475.1197,-145.8675 543.6231,-136.5637"/>
<polygon fill="#191970" stroke="#191970" points="544.415,-139.9886 553.8563,-135.181 543.4777,-133.0516 544.415,-139.9886"/>
</g>
<!-- Node10 -->
<g id="node11" class="node">
<title>Node10</title>
<g id="a_node11"><a xlink:href="Buffer_8inl.html" target="_top" xlink:title="lug/Graphics/Vulkan\l/API/Buffer.inl">
<polygon fill="none" stroke="#000000" points="0,-112.5 0,-142.5 118,-142.5 118,-112.5 0,-112.5"/>
<text text-anchor="start" x="8" y="-130.5" font-family="Helvetica,sans-Serif" font-size="10.00" fill="#000000">lug/Graphics/Vulkan</text>
<text text-anchor="middle" x="59" y="-119.5" font-family="Helvetica,sans-Serif" font-size="10.00" fill="#000000">/API/Buffer.inl</text>
</a>
</g>
</g>
<!-- Node1&#45;&gt;Node10 -->
<g id="edge11" class="edge">
<title>Node1&#45;&gt;Node10</title>
<path fill="none" stroke="#191970" d="M173.7859,-179.4639C152.438,-169.7996 124.5043,-157.154 101.5384,-146.7572"/>
<polygon fill="#191970" stroke="#191970" points="102.9124,-143.5374 92.359,-142.6017 100.0255,-149.9144 102.9124,-143.5374"/>
</g>
<!-- Node4 -->
<g id="node5" class="node">
<title>Node4</title>
<g id="a_node5"><a xlink:href="Config_8hpp.html" target="_top" xlink:title="lug/Config.hpp">
<polygon fill="none" stroke="#000000" points="411.5,-.5 411.5,-19.5 500.5,-19.5 500.5,-.5 411.5,-.5"/>
<text text-anchor="middle" x="456" y="-7.5" font-family="Helvetica,sans-Serif" font-size="10.00" fill="#000000">lug/Config.hpp</text>
</a>
</g>
</g>
<!-- Node3&#45;&gt;Node4 -->
<g id="edge4" class="edge">
<title>Node3&#45;&gt;Node4</title>
<path fill="none" stroke="#191970" d="M456,-56.2455C456,-48.9382 456,-38.6944 456,-29.7046"/>
<polygon fill="#191970" stroke="#191970" points="459.5001,-29.6426 456,-19.6427 452.5001,-29.6427 459.5001,-29.6426"/>
</g>
<!-- Node5&#45;&gt;Node3 -->
<g id="edge9" class="edge">
<title>Node5&#45;&gt;Node3</title>
<path fill="none" stroke="#191970" d="M574.5935,-112.4554C548.6274,-102.284 514.661,-88.9787 489.737,-79.2155"/>
<polygon fill="#191970" stroke="#191970" points="490.9171,-75.9188 480.3294,-75.5303 488.364,-82.4366 490.9171,-75.9188"/>
</g>
<!-- Node6 -->
<g id="node7" class="node">
<title>Node6</title>
<polygon fill="none" stroke="#bfbfbf" points="738.5,-56.5 738.5,-75.5 833.5,-75.5 833.5,-56.5 738.5,-56.5"/>
<text text-anchor="middle" x="786" y="-63.5" font-family="Helvetica,sans-Serif" font-size="10.00" fill="#000000">unordered_map</text>
</g>
<!-- Node5&#45;&gt;Node6 -->
<g id="edge6" class="edge">
<title>Node5&#45;&gt;Node6</title>
<path fill="none" stroke="#191970" d="M655.3206,-112.4554C684.1861,-102.194 722.0239,-88.7429 749.5516,-78.9571"/>
<polygon fill="#191970" stroke="#191970" points="750.9412,-82.1778 759.1911,-75.5303 748.5964,-75.5821 750.9412,-82.1778"/>
</g>
<!-- Node7 -->
<g id="node8" class="node">
<title>Node7</title>
<polygon fill="none" stroke="#bfbfbf" points="853,-56.5 853,-75.5 901,-75.5 901,-56.5 853,-56.5"/>
<text text-anchor="middle" x="877" y="-63.5" font-family="Helvetica,sans-Serif" font-size="10.00" fill="#000000">vector</text>
</g>
<!-- Node5&#45;&gt;Node7 -->
<g id="edge7" class="edge">
<title>Node5&#45;&gt;Node7</title>
<path fill="none" stroke="#191970" d="M672.3338,-113.9554C675.2638,-113.2928 678.1649,-112.6381 681,-112 752.9562,-95.8041 771.5798,-94.4162 843,-76 843.1005,-75.9741 843.2012,-75.9481 843.3021,-75.9219"/>
<polygon fill="#191970" stroke="#191970" points="844.182,-79.3099 852.9096,-73.3033 842.3412,-72.5562 844.182,-79.3099"/>
</g>
<!-- Node8 -->
<g id="node9" class="node">
<title>Node8</title>
<polygon fill="none" stroke="#bfbfbf" points="546,-56.5 546,-75.5 604,-75.5 604,-56.5 546,-56.5"/>
<text text-anchor="middle" x="575" y="-63.5" font-family="Helvetica,sans-Serif" font-size="10.00" fill="#000000">ostream</text>
</g>
<!-- Node5&#45;&gt;Node8 -->
<g id="edge8" class="edge">
<title>Node5&#45;&gt;Node8</title>
<path fill="none" stroke="#191970" d="M603.6067,-112.2977C598.3869,-103.8498 591.8543,-93.2773 586.35,-84.369"/>
<polygon fill="#191970" stroke="#191970" points="589.3182,-82.5143 581.0843,-75.8469 583.3632,-86.1938 589.3182,-82.5143"/>
</g>
<!-- Node9 -->
<g id="node10" class="node">
<title>Node9</title>
<polygon fill="none" stroke="#bfbfbf" points="622.5,-56.5 622.5,-75.5 719.5,-75.5 719.5,-56.5 622.5,-56.5"/>
<text text-anchor="middle" x="671" y="-63.5" font-family="Helvetica,sans-Serif" font-size="10.00" fill="#000000">vulkan/vulkan.h</text>
</g>
<!-- Node5&#45;&gt;Node9 -->
<g id="edge10" class="edge">
<title>Node5&#45;&gt;Node9</title>
<path fill="none" stroke="#191970" d="M627.3371,-112.2977C635.6397,-103.4941 646.1182,-92.3833 654.7289,-83.2529"/>
<polygon fill="#191970" stroke="#191970" points="657.3987,-85.5234 661.7135,-75.8469 652.3061,-80.7206 657.3987,-85.5234"/>
</g>
<!-- Node12&#45;&gt;Node3 -->
<g id="edge14" class="edge">
<title>Node12&#45;&gt;Node3</title>
<path fill="none" stroke="#191970" d="M507.2321,-313.2813C497.5592,-281.8146 475.568,-207.1661 464,-143 460.5078,-123.629 458.393,-101.2211 457.2226,-85.5909"/>
<polygon fill="#191970" stroke="#191970" points="460.7098,-85.2837 456.531,-75.5477 453.7263,-85.7646 460.7098,-85.2837"/>
</g>
<!-- Node12&#45;&gt;Node5 -->
<g id="edge24" class="edge">
<title>Node12&#45;&gt;Node5</title>
<path fill="none" stroke="#191970" d="M571.2052,-314.4538C629.4245,-300.5148 710.5196,-280.7063 717,-277 753.284,-256.2482 767.1495,-248.6771 783,-210 788.2246,-197.2513 791.2095,-190.0649 783,-179 776.5725,-170.3369 726.3882,-155.7593 682.1982,-144.3203"/>
<polygon fill="#191970" stroke="#191970" points="682.8521,-140.8749 672.2962,-141.7827 681.1143,-147.6557 682.8521,-140.8749"/>
</g>
<!-- Node13 -->
<g id="node14" class="node">
<title>Node13</title>
<g id="a_node14"><a xlink:href="QueueFamily_8hpp.html" target="_top" xlink:title="lug/Graphics/Vulkan\l/API/QueueFamily.hpp">
<polygon fill="none" stroke="#000000" points="580,-246.5 580,-276.5 708,-276.5 708,-246.5 580,-246.5"/>
<text text-anchor="start" x="588" y="-264.5" font-family="Helvetica,sans-Serif" font-size="10.00" fill="#000000">lug/Graphics/Vulkan</text>
<text text-anchor="middle" x="644" y="-253.5" font-family="Helvetica,sans-Serif" font-size="10.00" fill="#000000">/API/QueueFamily.hpp</text>
</a>
</g>
</g>
<!-- Node12&#45;&gt;Node13 -->
<g id="edge15" class="edge">
<title>Node12&#45;&gt;Node13</title>
<path fill="none" stroke="#191970" d="M541.6234,-313.4639C560.3436,-303.9619 584.7421,-291.5779 605.0246,-281.283"/>
<polygon fill="#191970" stroke="#191970" points="606.6858,-284.3649 614.0188,-276.7177 603.5175,-278.1229 606.6858,-284.3649"/>
</g>
<!-- Node17 -->
<g id="node18" class="node">
<title>Node17</title>
<g id="a_node18"><a xlink:href="Device_8inl.html" target="_top" xlink:title="lug/Graphics/Vulkan\l/API/Device.inl">
<polygon fill="none" stroke="#000000" points="868,-246.5 868,-276.5 986,-276.5 986,-246.5 868,-246.5"/>
<text text-anchor="start" x="876" y="-264.5" font-family="Helvetica,sans-Serif" font-size="10.00" fill="#000000">lug/Graphics/Vulkan</text>
<text text-anchor="middle" x="927" y="-253.5" font-family="Helvetica,sans-Serif" font-size="10.00" fill="#000000">/API/Device.inl</text>
</a>
</g>
</g>
<!-- Node12&#45;&gt;Node17 -->
<g id="edge25" class="edge">
<title>Node12&#45;&gt;Node17</title>
<path fill="none" stroke="#191970" d="M571.2714,-314.6465C574.2178,-314.0656 577.1396,-313.5128 580,-313 700.8973,-291.328 732.9447,-297.7713 854,-277 855.257,-276.7843 856.5253,-276.5623 857.8021,-276.3348"/>
<polygon fill="#191970" stroke="#191970" points="858.5194,-279.7615 867.7128,-274.4955 857.242,-272.879 858.5194,-279.7615"/>
</g>
<!-- Node13&#45;&gt;Node3 -->
<g id="edge18" class="edge">
<title>Node13&#45;&gt;Node3</title>
<path fill="none" stroke="#191970" d="M579.8958,-249.7202C554.3658,-242.1551 526.4846,-229.8621 507,-210 489.2354,-191.8912 469.5423,-120.4383 460.7225,-85.4762"/>
<polygon fill="#191970" stroke="#191970" points="464.0584,-84.3863 458.2571,-75.5209 457.2636,-86.069 464.0584,-84.3863"/>
</g>
<!-- Node13&#45;&gt;Node6 -->
<g id="edge16" class="edge">
<title>Node13&#45;&gt;Node6</title>
<path fill="none" stroke="#191970" d="M704.0674,-246.479C737.0588,-236.8984 773.2277,-223.7347 783,-210 809.4799,-172.783 799.6987,-115.3627 791.9216,-85.5186"/>
<polygon fill="#191970" stroke="#191970" points="795.1905,-84.213 789.1189,-75.5305 788.4508,-86.1042 795.1905,-84.213"/>
</g>
<!-- Node13&#45;&gt;Node7 -->
<g id="edge17" class="edge">
<title>Node13&#45;&gt;Node7</title>
<path fill="none" stroke="#191970" d="M708.092,-252.5253C739.5742,-245.3867 776.3632,-232.6492 803,-210 842.4774,-176.4324 863.4732,-116.5309 872.1328,-85.6334"/>
<polygon fill="#191970" stroke="#191970" points="875.596,-86.2279 874.7763,-75.6649 868.8299,-84.4336 875.596,-86.2279"/>
</g>
<!-- Node14 -->
<g id="node15" class="node">
<title>Node14</title>
<g id="a_node15"><a xlink:href="Vulkan_2API_2Queue_8hpp.html" target="_top" xlink:title="lug/Graphics/Vulkan\l/API/Queue.hpp">
<polygon fill="none" stroke="#000000" points="516,-179.5 516,-209.5 634,-209.5 634,-179.5 516,-179.5"/>
<text text-anchor="start" x="524" y="-197.5" font-family="Helvetica,sans-Serif" font-size="10.00" fill="#000000">lug/Graphics/Vulkan</text>
<text text-anchor="middle" x="575" y="-186.5" font-family="Helvetica,sans-Serif" font-size="10.00" fill="#000000">/API/Queue.hpp</text>
</a>
</g>
</g>
<!-- Node13&#45;&gt;Node14 -->
<g id="edge19" class="edge">
<title>Node13&#45;&gt;Node14</title>
<path fill="none" stroke="#191970" d="M628.3428,-246.2967C619.3443,-237.559 607.8787,-226.4257 597.8852,-216.7218"/>
<polygon fill="#191970" stroke="#191970" points="600.2077,-214.0985 590.5952,-209.6432 595.3313,-219.1205 600.2077,-214.0985"/>
</g>
<!-- Node16 -->
<g id="node17" class="node">
<title>Node16</title>
<g id="a_node17"><a xlink:href="QueueFamily_8inl.html" target="_top" xlink:title="lug/Graphics/Vulkan\l/API/QueueFamily.inl">
<polygon fill="none" stroke="#000000" points="652,-179.5 652,-209.5 774,-209.5 774,-179.5 652,-179.5"/>
<text text-anchor="start" x="660" y="-197.5" font-family="Helvetica,sans-Serif" font-size="10.00" fill="#000000">lug/Graphics/Vulkan</text>
<text text-anchor="middle" x="713" y="-186.5" font-family="Helvetica,sans-Serif" font-size="10.00" fill="#000000">/API/QueueFamily.inl</text>
</a>
</g>
</g>
<!-- Node13&#45;&gt;Node16 -->
<g id="edge23" class="edge">
<title>Node13&#45;&gt;Node16</title>
<path fill="none" stroke="#191970" d="M659.6572,-246.2967C668.6557,-237.559 680.1213,-226.4257 690.1148,-216.7218"/>
<polygon fill="#191970" stroke="#191970" points="692.6687,-219.1205 697.4048,-209.6432 687.7923,-214.0985 692.6687,-219.1205"/>
</g>
<!-- Node14&#45;&gt;Node3 -->
<g id="edge20" class="edge">
<title>Node14&#45;&gt;Node3</title>
<path fill="none" stroke="#191970" d="M562.082,-179.3502C547.698,-162.6123 523.6226,-134.9839 502,-112 492.757,-102.1751 482.1258,-91.5049 473.4137,-82.9169"/>
<polygon fill="#191970" stroke="#191970" points="475.6395,-80.1978 466.0471,-75.6992 470.7405,-85.1978 475.6395,-80.1978"/>
</g>
<!-- Node14&#45;&gt;Node5 -->
<g id="edge21" class="edge">
<title>Node14&#45;&gt;Node5</title>
<path fill="none" stroke="#191970" d="M583.6228,-179.2967C588.287,-171.0729 594.1547,-160.7272 599.4174,-151.4483"/>
<polygon fill="#191970" stroke="#191970" points="602.5223,-153.0683 604.4113,-142.6432 596.4335,-149.6148 602.5223,-153.0683"/>
</g>
<!-- Node15 -->
<g id="node16" class="node">
<title>Node15</title>
<polygon fill="none" stroke="#bfbfbf" points="690,-118 690,-137 738,-137 738,-118 690,-118"/>
<text text-anchor="middle" x="714" y="-125" font-family="Helvetica,sans-Serif" font-size="10.00" fill="#000000">mutex</text>
</g>
<!-- Node14&#45;&gt;Node15 -->
<g id="edge22" class="edge">
<title>Node14&#45;&gt;Node15</title>
<path fill="none" stroke="#191970" d="M606.1943,-179.4639C629.7268,-168.1209 661.7802,-152.6707 684.8094,-141.5703"/>
<polygon fill="#191970" stroke="#191970" points="686.587,-144.5989 694.0754,-137.1039 683.5476,-138.2932 686.587,-144.5989"/>
</g>
<!-- Node18&#45;&gt;Node3 -->
<g id="edge27" class="edge">
<title>Node18&#45;&gt;Node3</title>
<path fill="none" stroke="#191970" d="M323.906,-179.4626C296.4415,-163.2753 262.0779,-136.5387 281,-112 293.1836,-96.1999 336.3633,-84.754 376.7789,-77.2314"/>
<polygon fill="#191970" stroke="#191970" points="377.4765,-80.6622 386.7008,-75.4504 376.2397,-73.7723 377.4765,-80.6622"/>
</g>
<!-- Node18&#45;&gt;Node5 -->
<g id="edge28" class="edge">
<title>Node18&#45;&gt;Node5</title>
<path fill="none" stroke="#191970" d="M411.3491,-179.4639C450.8523,-169.2842 503.1923,-155.7966 544.6481,-145.1138"/>
<polygon fill="#191970" stroke="#191970" points="545.5862,-148.4864 554.3964,-142.6017 543.8394,-141.7079 545.5862,-148.4864"/>
</g>
<!-- Node19 -->
<g id="node20" class="node">
<title>Node19</title>
<g id="a_node20"><a xlink:href="DeviceMemory_8inl.html" target="_top" xlink:title="lug/Graphics/Vulkan\l/API/DeviceMemory.inl">
<polygon fill="none" stroke="#000000" points="290,-112.5 290,-142.5 422,-142.5 422,-112.5 290,-112.5"/>
<text text-anchor="start" x="298" y="-130.5" font-family="Helvetica,sans-Serif" font-size="10.00" fill="#000000">lug/Graphics/Vulkan</text>
<text text-anchor="middle" x="356" y="-119.5" font-family="Helvetica,sans-Serif" font-size="10.00" fill="#000000">/API/DeviceMemory.inl</text>
</a>
</g>
</g>
<!-- Node18&#45;&gt;Node19 -->
<g id="edge29" class="edge">
<title>Node18&#45;&gt;Node19</title>
<path fill="none" stroke="#191970" d="M353.6807,-179.2967C354.0298,-171.5013 354.4642,-161.7991 354.8624,-152.9064"/>
<polygon fill="#191970" stroke="#191970" points="358.371,-152.7898 355.3219,-142.6432 351.378,-152.4766 358.371,-152.7898"/>
</g>
</g>
</svg>
