<?xml version="1.0" encoding="UTF-8" standalone="no"?>
<!DOCTYPE svg PUBLIC "-//W3C//DTD SVG 1.1//EN"
 "http://www.w3.org/Graphics/SVG/1.1/DTD/svg11.dtd">
<!-- Generated by graphviz version 2.40.1 (20161225.0304)
 -->
<!-- Title: src/lug/Graphics/Vulkan/API/Buffer.cpp Pages: 1 -->
<svg width="1275pt" height="341pt"
 viewBox="0.00 0.00 1275.00 341.00" xmlns="http://www.w3.org/2000/svg" xmlns:xlink="http://www.w3.org/1999/xlink">
<g id="graph0" class="graph" transform="scale(1 1) rotate(0) translate(4 337)">
<title>src/lug/Graphics/Vulkan/API/Buffer.cpp</title>
<!-- Node0 -->
<g id="node1" class="node">
<title>Node0</title>
<polygon fill="#bfbfbf" stroke="#000000" points="290.5,-302.5 290.5,-332.5 427.5,-332.5 427.5,-302.5 290.5,-302.5"/>
<text text-anchor="start" x="298.5" y="-320.5" font-family="Helvetica,sans-Serif" font-size="10.00" fill="#000000">src/lug/Graphics/Vulkan</text>
<text text-anchor="middle" x="359" y="-309.5" font-family="Helvetica,sans-Serif" font-size="10.00" fill="#000000">/API/Buffer.cpp</text>
</g>
<!-- Node1 -->
<g id="node2" class="node">
<title>Node1</title>
<g id="a_node2"><a xlink:href="Buffer_8hpp.html" target="_top" xlink:title="lug/Graphics/Vulkan\l/API/Buffer.hpp">
<polygon fill="none" stroke="#000000" points="300,-235.5 300,-265.5 418,-265.5 418,-235.5 300,-235.5"/>
<text text-anchor="start" x="308" y="-253.5" font-family="Helvetica,sans-Serif" font-size="10.00" fill="#000000">lug/Graphics/Vulkan</text>
<text text-anchor="middle" x="359" y="-242.5" font-family="Helvetica,sans-Serif" font-size="10.00" fill="#000000">/API/Buffer.hpp</text>
</a>
</g>
</g>
<!-- Node0&#45;&gt;Node1 -->
<g id="edge1" class="edge">
<title>Node0&#45;&gt;Node1</title>
<path fill="none" stroke="#191970" d="M359,-302.2967C359,-294.5013 359,-284.7991 359,-275.9064"/>
<polygon fill="#191970" stroke="#191970" points="362.5001,-275.6431 359,-265.6432 355.5001,-275.6432 362.5001,-275.6431"/>
</g>
<!-- Node10 -->
<g id="node11" class="node">
<title>Node10</title>
<g id="a_node11"><a xlink:href="CommandBuffer_8hpp.html" target="_top" xlink:title="lug/Graphics/Vulkan\l/API/CommandBuffer.hpp">
<polygon fill="none" stroke="#000000" points="136.5,-235.5 136.5,-265.5 281.5,-265.5 281.5,-235.5 136.5,-235.5"/>
<text text-anchor="start" x="144.5" y="-253.5" font-family="Helvetica,sans-Serif" font-size="10.00" fill="#000000">lug/Graphics/Vulkan</text>
<text text-anchor="middle" x="209" y="-242.5" font-family="Helvetica,sans-Serif" font-size="10.00" fill="#000000">/API/CommandBuffer.hpp</text>
</a>
</g>
</g>
<!-- Node0&#45;&gt;Node10 -->
<g id="edge11" class="edge">
<title>Node0&#45;&gt;Node10</title>
<path fill="none" stroke="#191970" d="M325.3371,-302.4639C303.7007,-292.7996 275.3895,-280.154 252.1132,-269.7572"/>
<polygon fill="#191970" stroke="#191970" points="253.3678,-266.4844 242.8097,-265.6017 250.5129,-272.8758 253.3678,-266.4844"/>
</g>
<!-- Node11 -->
<g id="node12" class="node">
<title>Node11</title>
<g id="a_node12"><a xlink:href="Device_8hpp.html" target="_top" xlink:title="lug/Graphics/Vulkan\l/API/Device.hpp">
<polygon fill="none" stroke="#000000" points="0,-235.5 0,-265.5 118,-265.5 118,-235.5 0,-235.5"/>
<text text-anchor="start" x="8" y="-253.5" font-family="Helvetica,sans-Serif" font-size="10.00" fill="#000000">lug/Graphics/Vulkan</text>
<text text-anchor="middle" x="59" y="-242.5" font-family="Helvetica,sans-Serif" font-size="10.00" fill="#000000">/API/Device.hpp</text>
</a>
</g>
</g>
<!-- Node0&#45;&gt;Node11 -->
<g id="edge14" class="edge">
<title>Node0&#45;&gt;Node11</title>
<path fill="none" stroke="#191970" d="M290.7084,-302.4471C246.9205,-292.7705 188.5851,-279.8334 128.4002,-266.3091"/>
<polygon fill="#191970" stroke="#191970" points="128.8579,-262.8247 118.3337,-264.0454 127.3221,-269.6542 128.8579,-262.8247"/>
</g>
<!-- Node13 -->
<g id="node14" class="node">
<title>Node13</title>
<g id="a_node14"><a xlink:href="DeviceMemory_8hpp.html" target="_top" xlink:title="lug/Graphics/Vulkan\l/API/DeviceMemory.hpp">
<polygon fill="none" stroke="#000000" points="436,-235.5 436,-265.5 574,-265.5 574,-235.5 436,-235.5"/>
<text text-anchor="start" x="444" y="-253.5" font-family="Helvetica,sans-Serif" font-size="10.00" fill="#000000">lug/Graphics/Vulkan</text>
<text text-anchor="middle" x="505" y="-242.5" font-family="Helvetica,sans-Serif" font-size="10.00" fill="#000000">/API/DeviceMemory.hpp</text>
</a>
</g>
</g>
<!-- Node0&#45;&gt;Node13 -->
<g id="edge18" class="edge">
<title>Node0&#45;&gt;Node13</title>
<path fill="none" stroke="#191970" d="M391.7652,-302.4639C412.7311,-292.8426 440.1361,-280.2663 462.7341,-269.896"/>
<polygon fill="#191970" stroke="#191970" points="464.463,-272.9536 472.0918,-265.6017 461.5433,-266.5915 464.463,-272.9536"/>
</g>
<!-- Node14 -->
<g id="node15" class="node">
<title>Node14</title>
<g id="a_node15"><a xlink:href="Logger_8hpp.html" target="_top" xlink:title="lug/System/Logger/Logger.hpp">
<polygon fill="none" stroke="#000000" points="711,-241 711,-260 883,-260 883,-241 711,-241"/>
<text text-anchor="middle" x="797" y="-248" font-family="Helvetica,sans-Serif" font-size="10.00" fill="#000000">lug/System/Logger/Logger.hpp</text>
</a>
</g>
</g>
<!-- Node0&#45;&gt;Node14 -->
<g id="edge22" class="edge">
<title>Node0&#45;&gt;Node14</title>
<path fill="none" stroke="#191970" d="M427.9193,-306.9575C508.8624,-294.5758 642.5089,-274.1322 724.8319,-261.5394"/>
<polygon fill="#191970" stroke="#191970" points="725.5016,-264.9778 734.8573,-260.0058 724.4431,-258.0583 725.5016,-264.9778"/>
</g>
<!-- Node2 -->
<g id="node3" class="node">
<title>Node2</title>
<polygon fill="none" stroke="#bfbfbf" points="645.5,-112.5 645.5,-131.5 704.5,-131.5 704.5,-112.5 645.5,-112.5"/>
<text text-anchor="middle" x="675" y="-119.5" font-family="Helvetica,sans-Serif" font-size="10.00" fill="#000000">memory</text>
</g>
<!-- Node1&#45;&gt;Node2 -->
<g id="edge2" class="edge">
<title>Node1&#45;&gt;Node2</title>
<path fill="none" stroke="#191970" d="M384.6167,-235.3618C415.6315,-217.4923 469.8328,-187.7183 519,-168 540.1104,-159.5338 596.4318,-143.5059 635.2864,-132.7864"/>
<polygon fill="#191970" stroke="#191970" points="636.5318,-136.074 645.2468,-130.0491 634.6768,-129.3243 636.5318,-136.074"/>
</g>
<!-- Node3 -->
<g id="node4" class="node">
<title>Node3</title>
<g id="a_node4"><a xlink:href="Graphics_2Export_8hpp.html" target="_top" xlink:title="lug/Graphics/Export.hpp">
<polygon fill="none" stroke="#000000" points="118,-112.5 118,-131.5 256,-131.5 256,-112.5 118,-112.5"/>
<text text-anchor="middle" x="187" y="-119.5" font-family="Helvetica,sans-Serif" font-size="10.00" fill="#000000">lug/Graphics/Export.hpp</text>
</a>
</g>
</g>
<!-- Node1&#45;&gt;Node3 -->
<g id="edge3" class="edge">
<title>Node1&#45;&gt;Node3</title>
<path fill="none" stroke="#191970" d="M326.3277,-235.4193C307.6036,-226.1008 284.1036,-213.2258 265,-199 241.0867,-181.1927 217.226,-156.3381 202.3118,-139.7339"/>
<polygon fill="#191970" stroke="#191970" points="204.6198,-137.06 195.3753,-131.884 199.3743,-141.6952 204.6198,-137.06"/>
</g>
<!-- Node5 -->
<g id="node6" class="node">
<title>Node5</title>
<g id="a_node6"><a xlink:href="Vulkan_8hpp.html" target="_top" xlink:title="lug/Graphics/Vulkan\l/Vulkan.hpp">
<polygon fill="none" stroke="#000000" points="307,-168.5 307,-198.5 425,-198.5 425,-168.5 307,-168.5"/>
<text text-anchor="start" x="315" y="-186.5" font-family="Helvetica,sans-Serif" font-size="10.00" fill="#000000">lug/Graphics/Vulkan</text>
<text text-anchor="middle" x="366" y="-175.5" font-family="Helvetica,sans-Serif" font-size="10.00" fill="#000000">/Vulkan.hpp</text>
</a>
</g>
</g>
<!-- Node1&#45;&gt;Node5 -->
<g id="edge5" class="edge">
<title>Node1&#45;&gt;Node5</title>
<path fill="none" stroke="#191970" d="M360.5884,-235.2967C361.4118,-227.4156 362.4388,-217.5857 363.3762,-208.6135"/>
<polygon fill="#191970" stroke="#191970" points="366.8597,-208.9528 364.4179,-198.6432 359.8976,-208.2253 366.8597,-208.9528"/>
</g>
<!-- Node4 -->
<g id="node5" class="node">
<title>Node4</title>
<g id="a_node5"><a xlink:href="Config_8hpp.html" target="_top" xlink:title="lug/Config.hpp">
<polygon fill="none" stroke="#000000" points="439.5,-.5 439.5,-19.5 528.5,-19.5 528.5,-.5 439.5,-.5"/>
<text text-anchor="middle" x="484" y="-7.5" font-family="Helvetica,sans-Serif" font-size="10.00" fill="#000000">lug/Config.hpp</text>
</a>
</g>
</g>
<!-- Node3&#45;&gt;Node4 -->
<g id="edge4" class="edge">
<title>Node3&#45;&gt;Node4</title>
<path fill="none" stroke="#191970" d="M212.3221,-112.4509C265.4747,-92.4069 388.7474,-45.9202 449.2449,-23.1063"/>
<polygon fill="#191970" stroke="#191970" points="450.6202,-26.3283 458.742,-19.5249 448.1502,-19.7786 450.6202,-26.3283"/>
</g>
<!-- Node5&#45;&gt;Node3 -->
<g id="edge9" class="edge">
<title>Node5&#45;&gt;Node3</title>
<path fill="none" stroke="#191970" d="M322.2117,-168.4554C292.2141,-158.149 252.8513,-144.6249 224.3384,-134.8286"/>
<polygon fill="#191970" stroke="#191970" points="225.3333,-131.4696 214.7386,-131.5303 223.0587,-138.0898 225.3333,-131.4696"/>
</g>
<!-- Node6 -->
<g id="node7" class="node">
<title>Node6</title>
<polygon fill="none" stroke="#bfbfbf" points="532.5,-112.5 532.5,-131.5 627.5,-131.5 627.5,-112.5 532.5,-112.5"/>
<text text-anchor="middle" x="580" y="-119.5" font-family="Helvetica,sans-Serif" font-size="10.00" fill="#000000">unordered_map</text>
</g>
<!-- Node5&#45;&gt;Node6 -->
<g id="edge6" class="edge">
<title>Node5&#45;&gt;Node6</title>
<path fill="none" stroke="#191970" d="M418.3503,-168.4554C454.8398,-157.9689 502.9201,-144.1515 537.1351,-134.3187"/>
<polygon fill="#191970" stroke="#191970" points="538.1933,-137.6563 546.8376,-131.5303 536.2599,-130.9286 538.1933,-137.6563"/>
</g>
<!-- Node7 -->
<g id="node8" class="node">
<title>Node7</title>
<polygon fill="none" stroke="#bfbfbf" points="466,-112.5 466,-131.5 514,-131.5 514,-112.5 466,-112.5"/>
<text text-anchor="middle" x="490" y="-119.5" font-family="Helvetica,sans-Serif" font-size="10.00" fill="#000000">vector</text>
</g>
<!-- Node5&#45;&gt;Node7 -->
<g id="edge7" class="edge">
<title>Node5&#45;&gt;Node7</title>
<path fill="none" stroke="#191970" d="M396.3338,-168.4554C416.2976,-158.554 442.249,-145.683 461.7715,-136.0004"/>
<polygon fill="#191970" stroke="#191970" points="463.3809,-139.1091 470.7844,-131.5303 460.2706,-132.838 463.3809,-139.1091"/>
</g>
<!-- Node8 -->
<g id="node9" class="node">
<title>Node8</title>
<polygon fill="none" stroke="#bfbfbf" points="274,-112.5 274,-131.5 332,-131.5 332,-112.5 274,-112.5"/>
<text text-anchor="middle" x="303" y="-119.5" font-family="Helvetica,sans-Serif" font-size="10.00" fill="#000000">ostream</text>
</g>
<!-- Node5&#45;&gt;Node8 -->
<g id="edge8" class="edge">
<title>Node5&#45;&gt;Node8</title>
<path fill="none" stroke="#191970" d="M350.427,-168.2977C341.3175,-159.4052 329.7966,-148.1586 320.3909,-138.9769"/>
<polygon fill="#191970" stroke="#191970" points="322.6878,-136.3278 313.0871,-131.8469 317.798,-141.3368 322.6878,-136.3278"/>
</g>
<!-- Node9 -->
<g id="node10" class="node">
<title>Node9</title>
<polygon fill="none" stroke="#bfbfbf" points="350.5,-112.5 350.5,-131.5 447.5,-131.5 447.5,-112.5 350.5,-112.5"/>
<text text-anchor="middle" x="399" y="-119.5" font-family="Helvetica,sans-Serif" font-size="10.00" fill="#000000">vulkan/vulkan.h</text>
</g>
<!-- Node5&#45;&gt;Node9 -->
<g id="edge10" class="edge">
<title>Node5&#45;&gt;Node9</title>
<path fill="none" stroke="#191970" d="M374.1573,-168.2977C378.5949,-160.0277 384.125,-149.7215 388.8404,-140.9339"/>
<polygon fill="#191970" stroke="#191970" points="392.0721,-142.3134 393.7163,-131.8469 385.904,-139.0037 392.0721,-142.3134"/>
</g>
<!-- Node10&#45;&gt;Node3 -->
<g id="edge12" class="edge">
<title>Node10&#45;&gt;Node3</title>
<path fill="none" stroke="#191970" d="M206.3899,-235.2548C202.4042,-211.9744 194.8003,-167.5607 190.3919,-141.8117"/>
<polygon fill="#191970" stroke="#191970" points="193.8042,-141.0017 188.6668,-131.7358 186.9046,-142.183 193.8042,-141.0017"/>
</g>
<!-- Node10&#45;&gt;Node5 -->
<g id="edge13" class="edge">
<title>Node10&#45;&gt;Node5</title>
<path fill="none" stroke="#191970" d="M244.2339,-235.4639C266.9806,-225.7567 296.7759,-213.0415 321.1993,-202.6188"/>
<polygon fill="#191970" stroke="#191970" points="322.7887,-205.7459 330.6125,-198.6017 320.0412,-199.3077 322.7887,-205.7459"/>
</g>
<!-- Node11&#45;&gt;Node3 -->
<g id="edge15" class="edge">
<title>Node11&#45;&gt;Node3</title>
<path fill="none" stroke="#191970" d="M51.0975,-235.2501C43.0744,-217.4085 33.7,-187.7951 48,-168 58.0253,-154.1222 95.9852,-142.113 129.7065,-133.8482"/>
<polygon fill="#191970" stroke="#191970" points="130.6179,-137.2292 139.5378,-131.512 128.9995,-130.4188 130.6179,-137.2292"/>
</g>
<!-- Node11&#45;&gt;Node5 -->
<g id="edge16" class="edge">
<title>Node11&#45;&gt;Node5</title>
<path fill="none" stroke="#191970" d="M118.3288,-236.9329C121.2601,-236.2763 124.1629,-235.629 127,-235 184.0639,-222.3488 248.8914,-208.4066 296.6189,-198.2229"/>
<polygon fill="#191970" stroke="#191970" points="297.4846,-201.6171 306.5349,-196.1087 296.0249,-194.7709 297.4846,-201.6171"/>
</g>
<!-- Node12 -->
<g id="node13" class="node">
<title>Node12</title>
<g id="a_node13"><a xlink:href="Device_8inl.html" target="_top" xlink:title="lug/Graphics/Vulkan\l/API/Device.inl">
<polygon fill="none" stroke="#000000" points="57,-168.5 57,-198.5 175,-198.5 175,-168.5 57,-168.5"/>
<text text-anchor="start" x="65" y="-186.5" font-family="Helvetica,sans-Serif" font-size="10.00" fill="#000000">lug/Graphics/Vulkan</text>
<text text-anchor="middle" x="116" y="-175.5" font-family="Helvetica,sans-Serif" font-size="10.00" fill="#000000">/API/Device.inl</text>
</a>
</g>
</g>
<!-- Node11&#45;&gt;Node12 -->
<g id="edge17" class="edge">
<title>Node11&#45;&gt;Node12</title>
<path fill="none" stroke="#191970" d="M71.9342,-235.2967C79.222,-226.7303 88.4687,-215.8614 96.6079,-206.2943"/>
<polygon fill="#191970" stroke="#191970" points="99.303,-208.5277 103.117,-198.6432 93.9714,-203.9918 99.303,-208.5277"/>
</g>
<!-- Node13&#45;&gt;Node2 -->
<g id="edge19" class="edge">
<title>Node13&#45;&gt;Node2</title>
<path fill="none" stroke="#191970" d="M508.3874,-235.2523C513.2346,-216.8533 523.8749,-186.1357 544,-168 557.753,-155.6065 602.1672,-141.5241 635.4951,-132.2418"/>
<polygon fill="#191970" stroke="#191970" points="636.7141,-135.537 645.4362,-129.5224 634.867,-128.7851 636.7141,-135.537"/>
</g>
<!-- Node13&#45;&gt;Node3 -->
<g id="edge20" class="edge">
<title>Node13&#45;&gt;Node3</title>
<path fill="none" stroke="#191970" d="M438.0903,-235.4833C382.531,-222.7445 310.6226,-205.5294 298,-199 279.2459,-189.2989 279.0545,-180.4487 262,-168 246.5153,-156.6971 228.1868,-145.4205 213.5249,-136.8612"/>
<polygon fill="#191970" stroke="#191970" points="214.8986,-133.6134 204.4861,-131.6559 211.4052,-139.6794 214.8986,-133.6134"/>
</g>
<!-- Node13&#45;&gt;Node5 -->
<g id="edge21" class="edge">
<title>Node13&#45;&gt;Node5</title>
<path fill="none" stroke="#191970" d="M473.8057,-235.4639C454.0039,-225.9191 428.1688,-213.4663 406.7539,-203.144"/>
<polygon fill="#191970" stroke="#191970" points="408.099,-199.907 397.5711,-198.7177 405.0595,-206.2127 408.099,-199.907"/>
</g>
<!-- Node14&#45;&gt;Node2 -->
<g id="edge23" class="edge">
<title>Node14&#45;&gt;Node2</title>
<path fill="none" stroke="#191970" d="M710.9829,-243.5865C649.2872,-236.6334 573.7171,-223.3337 554,-199 545.3262,-188.2952 546.1779,-179.342 554,-168 558.95,-160.8226 602.3605,-145.444 635.7848,-134.4443"/>
<polygon fill="#191970" stroke="#191970" points="636.9223,-137.7548 645.3445,-131.327 634.7521,-131.0997 636.9223,-137.7548"/>
</g>
<!-- Node15 -->
<g id="node16" class="node">
<title>Node15</title>
<polygon fill="none" stroke="#bfbfbf" points="563,-174 563,-193 595,-193 595,-174 563,-174"/>
<text text-anchor="middle" x="579" y="-181" font-family="Helvetica,sans-Serif" font-size="10.00" fill="#000000">set</text>
</g>
<!-- Node14&#45;&gt;Node15 -->
<g id="edge24" class="edge">
<title>Node14&#45;&gt;Node15</title>
<path fill="none" stroke="#191970" d="M744.8226,-240.9275C705.1777,-232.6275 649.8415,-218.8087 604,-199 603.2968,-198.6961 602.5902,-198.3747 601.883,-198.0387"/>
<polygon fill="#191970" stroke="#191970" points="603.3355,-194.8436 592.8839,-193.1071 599.9714,-200.9823 603.3355,-194.8436"/>
</g>
<!-- Node16 -->
<g id="node17" class="node">
<title>Node16</title>
<polygon fill="none" stroke="#bfbfbf" points="761.5,-112.5 761.5,-131.5 806.5,-131.5 806.5,-112.5 761.5,-112.5"/>
<text text-anchor="middle" x="784" y="-119.5" font-family="Helvetica,sans-Serif" font-size="10.00" fill="#000000">string</text>
</g>
<!-- Node14&#45;&gt;Node16 -->
<g id="edge25" class="edge">
<title>Node14&#45;&gt;Node16</title>
<path fill="none" stroke="#191970" d="M796.0229,-240.8416C793.9054,-219.9114 788.8564,-170.004 786.0209,-141.9762"/>
<polygon fill="#191970" stroke="#191970" points="789.4773,-141.3674 784.9885,-131.7705 782.5128,-142.072 789.4773,-141.3674"/>
</g>
<!-- Node17 -->
<g id="node18" class="node">
<title>Node17</title>
<g id="a_node18"><a xlink:href="System_2Export_8hpp.html" target="_top" xlink:title="lug/System/Export.hpp">
<polygon fill="none" stroke="#000000" points="691,-56.5 691,-75.5 823,-75.5 823,-56.5 691,-56.5"/>
<text text-anchor="middle" x="757" y="-63.5" font-family="Helvetica,sans-Serif" font-size="10.00" fill="#000000">lug/System/Export.hpp</text>
</a>
</g>
</g>
<!-- Node14&#45;&gt;Node17 -->
<g id="edge26" class="edge">
<title>Node14&#45;&gt;Node17</title>
<path fill="none" stroke="#191970" d="M801.7489,-240.8477C812.5492,-217.4396 836.416,-156.319 815,-112 808.7172,-98.9981 796.7765,-88.5481 785.3549,-80.9145"/>
<polygon fill="#191970" stroke="#191970" points="787.1684,-77.9209 776.8241,-75.6305 783.4823,-83.8718 787.1684,-77.9209"/>
</g>
<!-- Node18 -->
<g id="node19" class="node">
<title>Node18</title>
<g id="a_node19"><a xlink:href="Common_8hpp.html" target="_top" xlink:title="lug/System/Logger/Common.hpp">
<polygon fill="none" stroke="#000000" points="863,-112.5 863,-131.5 1045,-131.5 1045,-112.5 863,-112.5"/>
<text text-anchor="middle" x="954" y="-119.5" font-family="Helvetica,sans-Serif" font-size="10.00" fill="#000000">lug/System/Logger/Common.hpp</text>
</a>
</g>
</g>
<!-- Node14&#45;&gt;Node18 -->
<g id="edge28" class="edge">
<title>Node14&#45;&gt;Node18</title>
<path fill="none" stroke="#191970" d="M807.5984,-240.8222C824.9117,-225.1216 860.4934,-193.3069 892,-168 905.1174,-157.4638 920.2782,-146.1999 932.3244,-137.4554"/>
<polygon fill="#191970" stroke="#191970" points="934.4082,-140.2679 940.4717,-131.5797 930.3136,-134.5903 934.4082,-140.2679"/>
</g>
<!-- Node21 -->
<g id="node22" class="node">
<title>Node21</title>
<g id="a_node22"><a xlink:href="LoggingFacility_8hpp.html" target="_top" xlink:title="lug/System/Logger/Logging\lFacility.hpp">
<polygon fill="none" stroke="#000000" points="613.5,-168.5 613.5,-198.5 768.5,-198.5 768.5,-168.5 613.5,-168.5"/>
<text text-anchor="start" x="621.5" y="-186.5" font-family="Helvetica,sans-Serif" font-size="10.00" fill="#000000">lug/System/Logger/Logging</text>
<text text-anchor="middle" x="691" y="-175.5" font-family="Helvetica,sans-Serif" font-size="10.00" fill="#000000">Facility.hpp</text>
</a>
</g>
</g>
<!-- Node14&#45;&gt;Node21 -->
<g id="edge32" class="edge">
<title>Node14&#45;&gt;Node21</title>
<path fill="none" stroke="#191970" d="M781.8128,-240.9005C766.622,-231.2988 742.7838,-216.2313 723.3422,-203.9427"/>
<polygon fill="#191970" stroke="#191970" points="725.0888,-200.9062 714.7658,-198.5218 721.3487,-206.8233 725.0888,-200.9062"/>
</g>
<!-- Node22 -->
<g id="node23" class="node">
<title>Node22</title>
<g id="a_node23"><a xlink:href="Message_8hpp.html" target="_top" xlink:title="lug/System/Logger/Message.hpp">
<polygon fill="none" stroke="#000000" points="901.5,-174 901.5,-193 1082.5,-193 1082.5,-174 901.5,-174"/>
<text text-anchor="middle" x="992" y="-181" font-family="Helvetica,sans-Serif" font-size="10.00" fill="#000000">lug/System/Logger/Message.hpp</text>
</a>
</g>
</g>
<!-- Node14&#45;&gt;Node22 -->
<g id="edge37" class="edge">
<title>Node14&#45;&gt;Node22</title>
<path fill="none" stroke="#191970" d="M824.9387,-240.9005C858.9674,-229.2086 916.5839,-209.4122 954.4622,-196.3976"/>
<polygon fill="#191970" stroke="#191970" points="955.7931,-199.6412 964.1131,-193.0817 953.5184,-193.0211 955.7931,-199.6412"/>
</g>
<!-- Node23 -->
<g id="node24" class="node">
<title>Node23</title>
<g id="a_node24"><a xlink:href="Logger_8inl.html" target="_top" xlink:title="lug/System/Logger/Logger.inl">
<polygon fill="none" stroke="#000000" points="1101,-174 1101,-193 1267,-193 1267,-174 1101,-174"/>
<text text-anchor="middle" x="1184" y="-181" font-family="Helvetica,sans-Serif" font-size="10.00" fill="#000000">lug/System/Logger/Logger.inl</text>
</a>
</g>
</g>
<!-- Node14&#45;&gt;Node23 -->
<g id="edge39" class="edge">
<title>Node14&#45;&gt;Node23</title>
<path fill="none" stroke="#191970" d="M852.0367,-240.9717C922.2917,-228.8087 1043.6857,-207.7921 1118.5897,-194.8243"/>
<polygon fill="#191970" stroke="#191970" points="1119.5839,-198.2043 1128.8402,-193.0496 1118.3897,-191.3069 1119.5839,-198.2043"/>
</g>
<!-- Node17&#45;&gt;Node4 -->
<g id="edge27" class="edge">
<title>Node17&#45;&gt;Node4</title>
<path fill="none" stroke="#191970" d="M710.3798,-56.4369C662.7936,-46.6756 588.9727,-31.5329 538.6631,-21.213"/>
<polygon fill="#191970" stroke="#191970" points="539.1155,-17.7329 528.6162,-19.152 537.7089,-24.5902 539.1155,-17.7329"/>
</g>
<!-- Node18&#45;&gt;Node17 -->
<g id="edge29" class="edge">
<title>Node18&#45;&gt;Node17</title>
<path fill="none" stroke="#191970" d="M920.1345,-112.3733C886.951,-102.9404 836.245,-88.5265 800.1806,-78.2747"/>
<polygon fill="#191970" stroke="#191970" points="800.9995,-74.8689 790.4236,-75.5011 799.0855,-81.6021 800.9995,-74.8689"/>
</g>
<!-- Node19 -->
<g id="node20" class="node">
<title>Node19</title>
<polygon fill="none" stroke="#bfbfbf" points="889,-56.5 889,-75.5 971,-75.5 971,-56.5 889,-56.5"/>
<text text-anchor="middle" x="930" y="-63.5" font-family="Helvetica,sans-Serif" font-size="10.00" fill="#000000">fmt/format.h</text>
</g>
<!-- Node18&#45;&gt;Node19 -->
<g id="edge30" class="edge">
<title>Node18&#45;&gt;Node19</title>
<path fill="none" stroke="#191970" d="M949.8195,-112.2455C946.619,-104.7776 942.104,-94.2427 938.1916,-85.1137"/>
<polygon fill="#191970" stroke="#191970" points="941.2888,-83.4554 934.1326,-75.6427 934.8548,-86.2129 941.2888,-83.4554"/>
</g>
<!-- Node20 -->
<g id="node21" class="node">
<title>Node20</title>
<polygon fill="none" stroke="#bfbfbf" points="989.5,-56.5 989.5,-75.5 1078.5,-75.5 1078.5,-56.5 989.5,-56.5"/>
<text text-anchor="middle" x="1034" y="-63.5" font-family="Helvetica,sans-Serif" font-size="10.00" fill="#000000">fmt/ostream.h</text>
</g>
<!-- Node18&#45;&gt;Node20 -->
<g id="edge31" class="edge">
<title>Node18&#45;&gt;Node20</title>
<path fill="none" stroke="#191970" d="M967.9349,-112.2455C980.0947,-103.7337 997.9464,-91.2375 1012.0285,-81.3801"/>
<polygon fill="#191970" stroke="#191970" points="1014.0395,-84.2447 1020.2248,-75.6427 1010.0253,-78.51 1014.0395,-84.2447"/>
</g>
<!-- Node21&#45;&gt;Node2 -->
<g id="edge34" class="edge">
<title>Node21&#45;&gt;Node2</title>
<path fill="none" stroke="#191970" d="M687.0449,-168.2977C684.9628,-160.2945 682.3845,-150.3843 680.1483,-141.7889"/>
<polygon fill="#191970" stroke="#191970" points="683.4669,-140.6435 677.5618,-131.8469 676.6924,-142.406 683.4669,-140.6435"/>
</g>
<!-- Node21&#45;&gt;Node6 -->
<g id="edge35" class="edge">
<title>Node21&#45;&gt;Node6</title>
<path fill="none" stroke="#191970" d="M663.8463,-168.4554C646.3005,-158.734 623.5878,-146.15 606.2279,-136.5317"/>
<polygon fill="#191970" stroke="#191970" points="607.6445,-133.3153 597.2011,-131.5303 604.252,-139.4383 607.6445,-133.3153"/>
</g>
<!-- Node21&#45;&gt;Node16 -->
<g id="edge33" class="edge">
<title>Node21&#45;&gt;Node16</title>
<path fill="none" stroke="#191970" d="M713.9888,-168.2977C728.1966,-158.9022 746.3785,-146.8787 760.6525,-137.4395"/>
<polygon fill="#191970" stroke="#191970" points="762.9767,-140.0986 769.3872,-131.6633 759.1155,-134.2598 762.9767,-140.0986"/>
</g>
<!-- Node21&#45;&gt;Node17 -->
<g id="edge36" class="edge">
<title>Node21&#45;&gt;Node17</title>
<path fill="none" stroke="#191970" d="M699.6283,-168.1389C711.7356,-146.5843 733.7318,-107.4245 746.6869,-84.3604"/>
<polygon fill="#191970" stroke="#191970" points="749.7846,-85.9923 751.6304,-75.5595 743.6815,-82.5641 749.7846,-85.9923"/>
</g>
<!-- Node22&#45;&gt;Node18 -->
<g id="edge38" class="edge">
<title>Node22&#45;&gt;Node18</title>
<path fill="none" stroke="#191970" d="M986.0625,-173.8906C980.5733,-165.0068 972.2647,-151.5601 965.481,-140.5811"/>
<polygon fill="#191970" stroke="#191970" points="968.2551,-138.4122 960.0212,-131.7449 962.3002,-142.0917 968.2551,-138.4122"/>
</g>
</g>
</svg>
