<?xml version="1.0" encoding="UTF-8" standalone="no"?>
<!DOCTYPE svg PUBLIC "-//W3C//DTD SVG 1.1//EN"
 "http://www.w3.org/Graphics/SVG/1.1/DTD/svg11.dtd">
<!-- Generated by graphviz version 2.40.1 (20161225.0304)
 -->
<!-- Title: include/lug/Graphics/Vulkan/Render/BufferPool.hpp Pages: 1 -->
<!--zoomable 486 -->
<svg id="main" version="1.1" xmlns="http://www.w3.org/2000/svg" xmlns:xlink="http://www.w3.org/1999/xlink" xml:space="preserve" onload="init(evt)">
<style type="text/css"><![CDATA[
.edge:hover path { stroke: red; }
.edge:hover polygon { stroke: red; fill: red; }
]]></style>
<script type="text/javascript"><![CDATA[
var edges = document.getElementsByTagName('g');
if (edges && edges.length) {
  for (var i=0;i<edges.length;i++) {
    if (edges[i].id.substr(0,4)=='edge') {
      edges[i].setAttribute('class','edge');
    }
  }
}
]]></script>
        <defs>
                <circle id="rim" cx="0" cy="0" r="7"/>
                <circle id="rim2" cx="0" cy="0" r="3.5"/>
                <g id="zoomPlus">
                        <use xlink:href="#rim" fill="#404040">
                                <set attributeName="fill" to="#808080" begin="zoomplus.mouseover" end="zoomplus.mouseout"/>
                        </use>
                        <path d="M-4,0h8M0,-4v8" fill="none" stroke="white" stroke-width="1.5" pointer-events="none"/>
                </g>
                <g id="zoomMin">
                        <use xlink:href="#rim" fill="#404040">
                                <set attributeName="fill" to="#808080" begin="zoomminus.mouseover" end="zoomminus.mouseout"/>
                        </use>
                        <path d="M-4,0h8" fill="none" stroke="white" stroke-width="1.5" pointer-events="none"/>
                </g>
                <g id="dirArrow">
                        <path fill="none" stroke="white" stroke-width="1.5" d="M0,-3.0v7 M-2.5,-0.5L0,-3.0L2.5,-0.5"/>
                </g>
               <g id="resetDef">
                       <use xlink:href="#rim2" fill="#404040">
                               <set attributeName="fill" to="#808080" begin="reset.mouseover" end="reset.mouseout"/>
                       </use>
               </g>
        </defs>

<script type="text/javascript">
var viewWidth = 1068;
var viewHeight = 486;
var sectionId = 'dynsection-0';
</script>
<script xlink:href="svgpan.js"/>
<svg id="graph" class="graph">
<g id="viewport">
<title>include/lug/Graphics/Vulkan/Render/BufferPool.hpp</title>
<!-- Node0 -->
<g id="node1" class="node">
<title>Node0</title>
<polygon fill="#bfbfbf" stroke="#000000" points="237.5,-447.5 237.5,-477.5 410.5,-477.5 410.5,-447.5 237.5,-447.5"/>
<text text-anchor="start" x="245.5" y="-465.5" font-family="Helvetica,sans-Serif" font-size="10.00" fill="#000000">include/lug/Graphics</text>
<text text-anchor="middle" x="324" y="-454.5" font-family="Helvetica,sans-Serif" font-size="10.00" fill="#000000">/Vulkan/Render/BufferPool.hpp</text>
</g>
<!-- Node1 -->
<g id="node2" class="node">
<title>Node1</title>
<polygon fill="none" stroke="#bfbfbf" points="0,-386 0,-405 50,-405 50,-386 0,-386"/>
<text text-anchor="middle" x="25" y="-393" font-family="Helvetica,sans-Serif" font-size="10.00" fill="#000000">cstdint</text>
</g>
<!-- Node0&#45;&gt;Node1 -->
<g id="edge1" class="edge">
<title>Node0&#45;&gt;Node1</title>
<path fill="none" stroke="#191970" d="M237.2622,-449.4042C186.2545,-440.6945 120.8235,-427.7664 64,-411 61.5542,-410.2783 59.0481,-409.4643 56.544,-408.5965"/>
<polygon fill="#191970" stroke="#191970" points="57.6204,-405.2628 47.0274,-405.066 55.1856,-411.8258 57.6204,-405.2628"/>
</g>
<!-- Node2 -->
<g id="node3" class="node">
<title>Node2</title>
<polygon fill="none" stroke="#bfbfbf" points="326.5,-118 326.5,-137 385.5,-137 385.5,-118 326.5,-118"/>
<text text-anchor="middle" x="356" y="-125" font-family="Helvetica,sans-Serif" font-size="10.00" fill="#000000">memory</text>
</g>
<!-- Node0&#45;&gt;Node2 -->
<g id="edge2" class="edge">
<title>Node0&#45;&gt;Node2</title>
<path fill="none" stroke="#191970" d="M275.2848,-447.4193C225.0501,-428.4783 154,-390.6954 154,-328.5 154,-328.5 154,-328.5 154,-261.5 154,-223.8735 147.0398,-206.2364 173,-179 192.6238,-158.4115 268.773,-142.2021 316.4405,-133.8075"/>
<polygon fill="#191970" stroke="#191970" points="317.178,-137.2321 326.4397,-132.0872 315.9911,-130.3334 317.178,-137.2321"/>
</g>
<!-- Node3 -->
<g id="node4" class="node">
<title>Node3</title>
<g id="a_node4"><a xlink:href="Graphics_2Export_8hpp.html" target="_top" xlink:title="lug/Graphics/Export.hpp">
<polygon fill="none" stroke="#000000" points="442,-56.5 442,-75.5 580,-75.5 580,-56.5 442,-56.5"/>
<text text-anchor="middle" x="511" y="-63.5" font-family="Helvetica,sans-Serif" font-size="10.00" fill="#000000">lug/Graphics/Export.hpp</text>
</a>
</g>
</g>
<!-- Node0&#45;&gt;Node3 -->
<g id="edge3" class="edge">
<title>Node0&#45;&gt;Node3</title>
<path fill="none" stroke="#191970" d="M237.2696,-451.1597C166.4447,-436.4574 78,-403.1523 78,-328.5 78,-328.5 78,-328.5 78,-194.5 78,-128.3057 140.2239,-135.778 202,-112 242.7518,-96.3144 354.4867,-82.1621 431.7876,-73.8199"/>
<polygon fill="#191970" stroke="#191970" points="432.4097,-77.2735 441.9817,-72.7318 431.6667,-70.313 432.4097,-77.2735"/>
</g>
<!-- Node5 -->
<g id="node6" class="node">
<title>Node5</title>
<g id="a_node6"><a xlink:href="Buffer_8hpp.html" target="_top" xlink:title="lug/Graphics/Vulkan\l/API/Buffer.hpp">
<polygon fill="none" stroke="#000000" points="800,-179.5 800,-209.5 918,-209.5 918,-179.5 800,-179.5"/>
<text text-anchor="start" x="808" y="-197.5" font-family="Helvetica,sans-Serif" font-size="10.00" fill="#000000">lug/Graphics/Vulkan</text>
<text text-anchor="middle" x="859" y="-186.5" font-family="Helvetica,sans-Serif" font-size="10.00" fill="#000000">/API/Buffer.hpp</text>
</a>
</g>
</g>
<!-- Node0&#45;&gt;Node5 -->
<g id="edge5" class="edge">
<title>Node0&#45;&gt;Node5</title>
<path fill="none" stroke="#191970" d="M410.5324,-454.6705C501.0363,-442.9295 643.868,-414.0541 746,-344 793.618,-311.338 829.5229,-252.1081 847.0686,-218.8472"/>
<polygon fill="#191970" stroke="#191970" points="850.2571,-220.3002 851.7215,-209.8071 844.0331,-217.0968 850.2571,-220.3002"/>
</g>
<!-- Node11 -->
<g id="node12" class="node">
<title>Node11</title>
<g id="a_node12"><a xlink:href="DescriptorPool_8hpp.html" target="_top" xlink:title="lug/Graphics/Vulkan\l/API/DescriptorPool.hpp">
<polygon fill="none" stroke="#000000" points="901.5,-380.5 901.5,-410.5 1038.5,-410.5 1038.5,-380.5 901.5,-380.5"/>
<text text-anchor="start" x="909.5" y="-398.5" font-family="Helvetica,sans-Serif" font-size="10.00" fill="#000000">lug/Graphics/Vulkan</text>
<text text-anchor="middle" x="970" y="-387.5" font-family="Helvetica,sans-Serif" font-size="10.00" fill="#000000">/API/DescriptorPool.hpp</text>
</a>
</g>
</g>
<!-- Node0&#45;&gt;Node11 -->
<g id="edge14" class="edge">
<title>Node0&#45;&gt;Node11</title>
<path fill="none" stroke="#191970" d="M410.61,-457.0991C521.4011,-449.6125 719.054,-434.3112 887,-411 888.3068,-410.8186 889.6242,-410.6308 890.95,-410.4373"/>
<polygon fill="#191970" stroke="#191970" points="891.8877,-413.8343 901.2383,-408.8527 890.8221,-406.9158 891.8877,-413.8343"/>
</g>
<!-- Node12 -->
<g id="node13" class="node">
<title>Node12</title>
<g id="a_node13"><a xlink:href="DescriptorSet_8hpp.html" target="_top" xlink:title="lug/Graphics/Vulkan\l/API/DescriptorSet.hpp">
<polygon fill="none" stroke="#000000" points="605,-313.5 605,-343.5 737,-343.5 737,-313.5 605,-313.5"/>
<text text-anchor="start" x="613" y="-331.5" font-family="Helvetica,sans-Serif" font-size="10.00" fill="#000000">lug/Graphics/Vulkan</text>
<text text-anchor="middle" x="671" y="-320.5" font-family="Helvetica,sans-Serif" font-size="10.00" fill="#000000">/API/DescriptorSet.hpp</text>
</a>
</g>
</g>
<!-- Node0&#45;&gt;Node12 -->
<g id="edge33" class="edge">
<title>Node0&#45;&gt;Node12</title>
<path fill="none" stroke="#191970" d="M363.1308,-447.389C426.9503,-422.744 553.2679,-373.9643 622.6172,-347.1838"/>
<polygon fill="#191970" stroke="#191970" points="623.9445,-350.4233 632.0122,-343.5558 621.4227,-343.8933 623.9445,-350.4233"/>
</g>
<!-- Node15 -->
<g id="node16" class="node">
<title>Node15</title>
<g id="a_node16"><a xlink:href="DescriptorSetLayout_8hpp.html" target="_top" xlink:title="lug/Graphics/Vulkan\l/API/DescriptorSetLayout.hpp">
<polygon fill="none" stroke="#000000" points="182.5,-179.5 182.5,-209.5 347.5,-209.5 347.5,-179.5 182.5,-179.5"/>
<text text-anchor="start" x="190.5" y="-197.5" font-family="Helvetica,sans-Serif" font-size="10.00" fill="#000000">lug/Graphics/Vulkan</text>
<text text-anchor="middle" x="265" y="-186.5" font-family="Helvetica,sans-Serif" font-size="10.00" fill="#000000">/API/DescriptorSetLayout.hpp</text>
</a>
</g>
</g>
<!-- Node0&#45;&gt;Node15 -->
<g id="edge34" class="edge">
<title>Node0&#45;&gt;Node15</title>
<path fill="none" stroke="#191970" d="M315.2315,-447.2808C298.0102,-416.4088 260.2902,-343.6834 247,-277 244.307,-263.488 244.6946,-259.5835 247,-246 248.5098,-237.1043 251.3886,-227.6975 254.4084,-219.3919"/>
<polygon fill="#191970" stroke="#191970" points="257.7308,-220.5046 258.0793,-209.9154 251.2034,-217.976 257.7308,-220.5046"/>
</g>
<!-- Node16 -->
<g id="node17" class="node">
<title>Node16</title>
<g id="a_node17"><a xlink:href="DeviceMemory_8hpp.html" target="_top" xlink:title="lug/Graphics/Vulkan\l/API/DeviceMemory.hpp">
<polygon fill="none" stroke="#000000" points="442,-179.5 442,-209.5 580,-209.5 580,-179.5 442,-179.5"/>
<text text-anchor="start" x="450" y="-197.5" font-family="Helvetica,sans-Serif" font-size="10.00" fill="#000000">lug/Graphics/Vulkan</text>
<text text-anchor="middle" x="511" y="-186.5" font-family="Helvetica,sans-Serif" font-size="10.00" fill="#000000">/API/DeviceMemory.hpp</text>
</a>
</g>
</g>
<!-- Node0&#45;&gt;Node16 -->
<g id="edge35" class="edge">
<title>Node0&#45;&gt;Node16</title>
<path fill="none" stroke="#191970" d="M334.5897,-447.3233C365.7681,-402.6399 457.3836,-271.3406 494.801,-217.7157"/>
<polygon fill="#191970" stroke="#191970" points="497.6744,-219.714 500.5264,-209.5103 491.9337,-215.7084 497.6744,-219.714"/>
</g>
<!-- Node4 -->
<g id="node5" class="node">
<title>Node4</title>
<g id="a_node5"><a xlink:href="Config_8hpp.html" target="_top" xlink:title="lug/Config.hpp">
<polygon fill="none" stroke="#000000" points="466.5,-.5 466.5,-19.5 555.5,-19.5 555.5,-.5 466.5,-.5"/>
<text text-anchor="middle" x="511" y="-7.5" font-family="Helvetica,sans-Serif" font-size="10.00" fill="#000000">lug/Config.hpp</text>
</a>
</g>
</g>
<!-- Node3&#45;&gt;Node4 -->
<g id="edge4" class="edge">
<title>Node3&#45;&gt;Node4</title>
<path fill="none" stroke="#191970" d="M511,-56.2455C511,-48.9382 511,-38.6944 511,-29.7046"/>
<polygon fill="#191970" stroke="#191970" points="514.5001,-29.6426 511,-19.6427 507.5001,-29.6427 514.5001,-29.6426"/>
</g>
<!-- Node5&#45;&gt;Node2 -->
<g id="edge6" class="edge">
<title>Node5&#45;&gt;Node2</title>
<path fill="none" stroke="#191970" d="M799.8747,-185.7784C784.3089,-183.5252 767.5272,-181.1342 752,-179 621.9942,-161.131 467.747,-141.5315 396.1793,-132.5294"/>
<polygon fill="#191970" stroke="#191970" points="396.184,-129.0025 385.8257,-131.2285 395.3113,-135.9479 396.184,-129.0025"/>
</g>
<!-- Node5&#45;&gt;Node3 -->
<g id="edge7" class="edge">
<title>Node5&#45;&gt;Node3</title>
<path fill="none" stroke="#191970" d="M811.2628,-179.4413C780.486,-169.5355 739.6911,-156.0362 704,-143 646.9206,-122.1516 581.396,-95.4016 543.2532,-79.5431"/>
<polygon fill="#191970" stroke="#191970" points="544.2861,-76.1817 533.7092,-75.5645 541.5926,-82.6428 544.2861,-76.1817"/>
</g>
<!-- Node6 -->
<g id="node7" class="node">
<title>Node6</title>
<g id="a_node7"><a xlink:href="Vulkan_8hpp.html" target="_top" xlink:title="lug/Graphics/Vulkan\l/Vulkan.hpp">
<polygon fill="none" stroke="#000000" points="713,-112.5 713,-142.5 831,-142.5 831,-112.5 713,-112.5"/>
<text text-anchor="start" x="721" y="-130.5" font-family="Helvetica,sans-Serif" font-size="10.00" fill="#000000">lug/Graphics/Vulkan</text>
<text text-anchor="middle" x="772" y="-119.5" font-family="Helvetica,sans-Serif" font-size="10.00" fill="#000000">/Vulkan.hpp</text>
</a>
</g>
</g>
<!-- Node5&#45;&gt;Node6 -->
<g id="edge8" class="edge">
<title>Node5&#45;&gt;Node6</title>
<path fill="none" stroke="#191970" d="M839.2584,-179.2967C827.5787,-170.302 812.6027,-158.7687 799.7483,-148.8694"/>
<polygon fill="#191970" stroke="#191970" points="801.7219,-145.9717 791.6635,-142.6432 797.4509,-151.5177 801.7219,-145.9717"/>
</g>
<!-- Node6&#45;&gt;Node3 -->
<g id="edge12" class="edge">
<title>Node6&#45;&gt;Node3</title>
<path fill="none" stroke="#191970" d="M712.7751,-113.5447C667.0081,-102.7605 604.3699,-88.001 561.0808,-77.8006"/>
<polygon fill="#191970" stroke="#191970" points="561.8703,-74.3909 551.3341,-75.504 560.2648,-81.2043 561.8703,-74.3909"/>
</g>
<!-- Node7 -->
<g id="node8" class="node">
<title>Node7</title>
<polygon fill="none" stroke="#bfbfbf" points="724.5,-56.5 724.5,-75.5 819.5,-75.5 819.5,-56.5 724.5,-56.5"/>
<text text-anchor="middle" x="772" y="-63.5" font-family="Helvetica,sans-Serif" font-size="10.00" fill="#000000">unordered_map</text>
</g>
<!-- Node6&#45;&gt;Node7 -->
<g id="edge9" class="edge">
<title>Node6&#45;&gt;Node7</title>
<path fill="none" stroke="#191970" d="M772,-112.2977C772,-104.3834 772,-94.6043 772,-86.0759"/>
<polygon fill="#191970" stroke="#191970" points="775.5001,-85.8469 772,-75.8469 768.5001,-85.847 775.5001,-85.8469"/>
</g>
<!-- Node8 -->
<g id="node9" class="node">
<title>Node8</title>
<polygon fill="none" stroke="#bfbfbf" points="975,-56.5 975,-75.5 1023,-75.5 1023,-56.5 975,-56.5"/>
<text text-anchor="middle" x="999" y="-63.5" font-family="Helvetica,sans-Serif" font-size="10.00" fill="#000000">vector</text>
</g>
<!-- Node6&#45;&gt;Node8 -->
<g id="edge10" class="edge">
<title>Node6&#45;&gt;Node8</title>
<path fill="none" stroke="#191970" d="M827.5304,-112.4554C870.4178,-100.8361 928.4,-85.1273 964.744,-75.2808"/>
<polygon fill="#191970" stroke="#191970" points="966.1021,-78.5391 974.8389,-72.5458 964.2716,-71.7827 966.1021,-78.5391"/>
</g>
<!-- Node9 -->
<g id="node10" class="node">
<title>Node9</title>
<polygon fill="none" stroke="#bfbfbf" points="838,-56.5 838,-75.5 896,-75.5 896,-56.5 838,-56.5"/>
<text text-anchor="middle" x="867" y="-63.5" font-family="Helvetica,sans-Serif" font-size="10.00" fill="#000000">ostream</text>
</g>
<!-- Node6&#45;&gt;Node9 -->
<g id="edge11" class="edge">
<title>Node6&#45;&gt;Node9</title>
<path fill="none" stroke="#191970" d="M795.4832,-112.2977C810.1348,-102.8127 828.9236,-90.6495 843.5659,-81.1705"/>
<polygon fill="#191970" stroke="#191970" points="845.5805,-84.0357 852.073,-75.6633 841.7764,-78.1596 845.5805,-84.0357"/>
</g>
<!-- Node10 -->
<g id="node11" class="node">
<title>Node10</title>
<polygon fill="none" stroke="#bfbfbf" points="609.5,-56.5 609.5,-75.5 706.5,-75.5 706.5,-56.5 609.5,-56.5"/>
<text text-anchor="middle" x="658" y="-63.5" font-family="Helvetica,sans-Serif" font-size="10.00" fill="#000000">vulkan/vulkan.h</text>
</g>
<!-- Node6&#45;&gt;Node10 -->
<g id="edge13" class="edge">
<title>Node6&#45;&gt;Node10</title>
<path fill="none" stroke="#191970" d="M744.1125,-112.4554C726.0924,-102.734 702.7659,-90.15 684.9368,-80.5317"/>
<polygon fill="#191970" stroke="#191970" points="686.1287,-77.1979 675.666,-75.5303 682.8052,-83.3586 686.1287,-77.1979"/>
</g>
<!-- Node11&#45;&gt;Node3 -->
<g id="edge16" class="edge">
<title>Node11&#45;&gt;Node3</title>
<path fill="none" stroke="#191970" d="M972.2872,-380.4349C977.1491,-343.0779 984.9573,-244.4727 944,-179 914.8398,-132.3857 891.5436,-131.1434 840,-112 817.0941,-103.4927 680.3383,-86.0904 590.5049,-75.298"/>
<polygon fill="#191970" stroke="#191970" points="590.682,-71.7943 580.3368,-74.0805 589.8498,-78.7446 590.682,-71.7943"/>
</g>
<!-- Node11&#45;&gt;Node6 -->
<g id="edge32" class="edge">
<title>Node11&#45;&gt;Node6</title>
<path fill="none" stroke="#191970" d="M973.2126,-380.4974C980.5197,-341.99 994.0994,-238.5168 944,-179 930.3874,-162.8286 882.9215,-149.3371 841.2935,-140.225"/>
<polygon fill="#191970" stroke="#191970" points="841.9248,-136.781 831.4147,-138.1188 840.4651,-143.6271 841.9248,-136.781"/>
</g>
<!-- Node11&#45;&gt;Node8 -->
<g id="edge15" class="edge">
<title>Node11&#45;&gt;Node8</title>
<path fill="none" stroke="#191970" d="M989.0867,-380.4195C1015.5054,-357.6983 1060,-311.9433 1060,-261.5 1060,-261.5 1060,-261.5 1060,-194.5 1060,-156.3133 1053.642,-145.8671 1036,-112 1030.6022,-101.6378 1022.6746,-91.3825 1015.5407,-83.1938"/>
<polygon fill="#191970" stroke="#191970" points="1018.1088,-80.8155 1008.7944,-75.7664 1012.9272,-85.522 1018.1088,-80.8155"/>
</g>
<!-- Node11&#45;&gt;Node12 -->
<g id="edge17" class="edge">
<title>Node11&#45;&gt;Node12</title>
<path fill="none" stroke="#191970" d="M902.8986,-380.4639C856.6846,-370.1082 795.1937,-356.3294 747.1439,-345.5623"/>
<polygon fill="#191970" stroke="#191970" points="747.6283,-342.0842 737.105,-343.3128 746.0976,-348.9148 747.6283,-342.0842"/>
</g>
<!-- Node12&#45;&gt;Node3 -->
<g id="edge18" class="edge">
<title>Node12&#45;&gt;Node3</title>
<path fill="none" stroke="#191970" d="M604.7524,-315.6199C548.1831,-300.7431 470.2391,-270.141 433,-210 405.1077,-164.954 459.1519,-109.1868 490.6253,-82.1752"/>
<polygon fill="#191970" stroke="#191970" points="493.01,-84.7439 498.4476,-75.6508 488.5263,-79.3683 493.01,-84.7439"/>
</g>
<!-- Node12&#45;&gt;Node5 -->
<g id="edge19" class="edge">
<title>Node12&#45;&gt;Node5</title>
<path fill="none" stroke="#191970" d="M692.2005,-313.389C725.8579,-289.3991 791.5995,-242.5408 829.7261,-215.3655"/>
<polygon fill="#191970" stroke="#191970" points="831.7652,-218.2101 837.8769,-209.5558 827.7023,-212.5099 831.7652,-218.2101"/>
</g>
<!-- Node12&#45;&gt;Node6 -->
<g id="edge31" class="edge">
<title>Node12&#45;&gt;Node6</title>
<path fill="none" stroke="#191970" d="M737.0858,-318.2377C798.1371,-304.8713 885.4637,-274.9973 927,-210 951.8283,-171.148 893.2111,-149.4068 841.0852,-138.1196"/>
<polygon fill="#191970" stroke="#191970" points="841.6122,-134.6548 831.1118,-136.0658 840.2003,-141.5109 841.6122,-134.6548"/>
</g>
<!-- Node13 -->
<g id="node14" class="node">
<title>Node13</title>
<g id="a_node14"><a xlink:href="CommandBuffer_8hpp.html" target="_top" xlink:title="lug/Graphics/Vulkan\l/API/CommandBuffer.hpp">
<polygon fill="none" stroke="#000000" points="598.5,-179.5 598.5,-209.5 743.5,-209.5 743.5,-179.5 598.5,-179.5"/>
<text text-anchor="start" x="606.5" y="-197.5" font-family="Helvetica,sans-Serif" font-size="10.00" fill="#000000">lug/Graphics/Vulkan</text>
<text text-anchor="middle" x="671" y="-186.5" font-family="Helvetica,sans-Serif" font-size="10.00" fill="#000000">/API/CommandBuffer.hpp</text>
</a>
</g>
</g>
<!-- Node12&#45;&gt;Node13 -->
<g id="edge20" class="edge">
<title>Node12&#45;&gt;Node13</title>
<path fill="none" stroke="#191970" d="M671,-313.389C671,-290.6691 671,-247.438 671,-219.8405"/>
<polygon fill="#191970" stroke="#191970" points="674.5001,-219.7614 671,-209.7614 667.5001,-219.7614 674.5001,-219.7614"/>
</g>
<!-- Node14 -->
<g id="node15" class="node">
<title>Node14</title>
<g id="a_node15"><a xlink:href="PipelineLayout_8hpp.html" target="_top" xlink:title="lug/Graphics/Vulkan\l/API/PipelineLayout.hpp">
<polygon fill="none" stroke="#000000" points="256,-246.5 256,-276.5 392,-276.5 392,-246.5 256,-246.5"/>
<text text-anchor="start" x="264" y="-264.5" font-family="Helvetica,sans-Serif" font-size="10.00" fill="#000000">lug/Graphics/Vulkan</text>
<text text-anchor="middle" x="324" y="-253.5" font-family="Helvetica,sans-Serif" font-size="10.00" fill="#000000">/API/PipelineLayout.hpp</text>
</a>
</g>
</g>
<!-- Node12&#45;&gt;Node14 -->
<g id="edge23" class="edge">
<title>Node12&#45;&gt;Node14</title>
<path fill="none" stroke="#191970" d="M604.9152,-315.7401C547.1718,-304.5908 463.2583,-288.3885 402.1883,-276.5969"/>
<polygon fill="#191970" stroke="#191970" points="402.6921,-273.1296 392.2099,-274.6702 401.365,-280.0026 402.6921,-273.1296"/>
</g>
<!-- Node13&#45;&gt;Node3 -->
<g id="edge21" class="edge">
<title>Node13&#45;&gt;Node3</title>
<path fill="none" stroke="#191970" d="M652.0176,-179.2548C621.6006,-154.8261 562.2095,-107.1276 531.0995,-82.1424"/>
<polygon fill="#191970" stroke="#191970" points="533.1108,-79.2687 523.1224,-75.7358 528.7276,-84.7265 533.1108,-79.2687"/>
</g>
<!-- Node13&#45;&gt;Node6 -->
<g id="edge22" class="edge">
<title>Node13&#45;&gt;Node6</title>
<path fill="none" stroke="#191970" d="M693.6664,-179.4639C707.474,-170.3044 725.3189,-158.4667 740.4882,-148.4038"/>
<polygon fill="#191970" stroke="#191970" points="742.6614,-151.1623 749.0598,-142.7177 738.7918,-145.3291 742.6614,-151.1623"/>
</g>
<!-- Node14&#45;&gt;Node2 -->
<g id="edge24" class="edge">
<title>Node14&#45;&gt;Node2</title>
<path fill="none" stroke="#191970" d="M336.5664,-246.3612C343.7983,-236.6361 352.1869,-223.3614 356,-210 361.8761,-189.4093 360.8891,-164.7323 359.0509,-147.7638"/>
<polygon fill="#191970" stroke="#191970" points="362.4641,-146.8644 357.7162,-137.393 355.5214,-147.7579 362.4641,-146.8644"/>
</g>
<!-- Node14&#45;&gt;Node3 -->
<g id="edge25" class="edge">
<title>Node14&#45;&gt;Node3</title>
<path fill="none" stroke="#191970" d="M255.8275,-250.6712C206.0422,-239.3874 150.8199,-217.7628 173,-179 202.1874,-127.991 232.143,-133.0842 287,-112 333.4983,-94.1285 388.2285,-82.7251 431.9504,-75.7427"/>
<polygon fill="#191970" stroke="#191970" points="432.6126,-79.1819 441.958,-74.1906 431.5397,-72.2647 432.6126,-79.1819"/>
</g>
<!-- Node14&#45;&gt;Node6 -->
<g id="edge30" class="edge">
<title>Node14&#45;&gt;Node6</title>
<path fill="none" stroke="#191970" d="M392.0765,-257.5323C506.0428,-250.2747 725.6329,-233.4239 752,-210 767.9339,-195.8447 772.2478,-171.3546 772.9854,-152.7235"/>
<polygon fill="#191970" stroke="#191970" points="776.4865,-152.5811 773.0672,-142.5533 769.4867,-152.5247 776.4865,-152.5811"/>
</g>
<!-- Node14&#45;&gt;Node15 -->
<g id="edge26" class="edge">
<title>Node14&#45;&gt;Node15</title>
<path fill="none" stroke="#191970" d="M310.612,-246.2967C303.0685,-237.7303 293.4973,-226.8614 285.0726,-217.2943"/>
<polygon fill="#191970" stroke="#191970" points="287.5706,-214.835 278.335,-209.6432 282.3171,-219.4612 287.5706,-214.835"/>
</g>
<!-- Node15&#45;&gt;Node2 -->
<g id="edge27" class="edge">
<title>Node15&#45;&gt;Node2</title>
<path fill="none" stroke="#191970" d="M285.6493,-179.2967C300.3781,-168.4524 320.1186,-153.9182 334.9396,-143.006"/>
<polygon fill="#191970" stroke="#191970" points="337.0447,-145.8025 343.0224,-137.055 332.8944,-140.1655 337.0447,-145.8025"/>
</g>
<!-- Node15&#45;&gt;Node3 -->
<g id="edge28" class="edge">
<title>Node15&#45;&gt;Node3</title>
<path fill="none" stroke="#191970" d="M270.3396,-179.4781C277.8015,-160.7209 293.1718,-129.0329 317,-112 336.5449,-98.0289 391.9351,-85.684 438.5501,-77.3096"/>
<polygon fill="#191970" stroke="#191970" points="439.4102,-80.7121 448.6519,-75.5312 438.1965,-73.8181 439.4102,-80.7121"/>
</g>
<!-- Node15&#45;&gt;Node6 -->
<g id="edge29" class="edge">
<title>Node15&#45;&gt;Node6</title>
<path fill="none" stroke="#191970" d="M347.5867,-183.5862C446.4383,-170.5229 610.1919,-148.8829 702.732,-136.6538"/>
<polygon fill="#191970" stroke="#191970" points="703.3766,-140.0991 712.8319,-135.3191 702.4595,-133.1594 703.3766,-140.0991"/>
</g>
<!-- Node16&#45;&gt;Node2 -->
<g id="edge36" class="edge">
<title>Node16&#45;&gt;Node2</title>
<path fill="none" stroke="#191970" d="M476.215,-179.4639C449.6222,-167.969 413.2716,-152.2561 387.5243,-141.1266"/>
<polygon fill="#191970" stroke="#191970" points="388.7859,-137.859 378.218,-137.1039 386.0084,-144.2844 388.7859,-137.859"/>
</g>
<!-- Node16&#45;&gt;Node3 -->
<g id="edge37" class="edge">
<title>Node16&#45;&gt;Node3</title>
<path fill="none" stroke="#191970" d="M511,-179.2548C511,-155.9744 511,-111.5607 511,-85.8117"/>
<polygon fill="#191970" stroke="#191970" points="514.5001,-85.7358 511,-75.7358 507.5001,-85.7358 514.5001,-85.7358"/>
</g>
<!-- Node16&#45;&gt;Node6 -->
<g id="edge38" class="edge">
<title>Node16&#45;&gt;Node6</title>
<path fill="none" stroke="#191970" d="M569.5735,-179.4639C609.2287,-169.2842 661.7699,-155.7966 703.3852,-145.1138"/>
<polygon fill="#191970" stroke="#191970" points="704.3554,-148.4783 713.171,-142.6017 702.6148,-141.6981 704.3554,-148.4783"/>
</g>
</g>
</svg>
        <g id="navigator" transform="translate(0 0)" fill="#404254">
                <rect fill="#f2f5e9" fill-opacity="0.5" stroke="#606060" stroke-width=".5" x="0" y="0" width="60" height="60"/>
                <use id="zoomplus" xlink:href="#zoomPlus" x="17" y="9" onmousedown="handleZoom(evt,'in')"/>
                <use id="zoomminus" xlink:href="#zoomMin" x="42" y="9" onmousedown="handleZoom(evt,'out')"/>
                <use id="reset" xlink:href="#resetDef" x="30" y="36" onmousedown="handleReset()"/>
                <g id="arrowUp" xlink:href="#dirArrow" transform="translate(30 24)" onmousedown="handlePan(0,-1)">
                  <use xlink:href="#rim" fill="#404040">
                        <set attributeName="fill" to="#808080" begin="arrowUp.mouseover" end="arrowUp.mouseout"/>
                  </use>
                  <path fill="none" stroke="white" stroke-width="1.5" d="M0,-3.0v7 M-2.5,-0.5L0,-3.0L2.5,-0.5"/>
                </g>
                <g id="arrowRight" xlink:href="#dirArrow" transform="rotate(90) translate(36 -43)" onmousedown="handlePan(1,0)">
                  <use xlink:href="#rim" fill="#404040">
                        <set attributeName="fill" to="#808080" begin="arrowRight.mouseover" end="arrowRight.mouseout"/>
                  </use>
                  <path fill="none" stroke="white" stroke-width="1.5" d="M0,-3.0v7 M-2.5,-0.5L0,-3.0L2.5,-0.5"/>
                </g>
                <g id="arrowDown" xlink:href="#dirArrow" transform="rotate(180) translate(-30 -48)" onmousedown="handlePan(0,1)">
                  <use xlink:href="#rim" fill="#404040">
                        <set attributeName="fill" to="#808080" begin="arrowDown.mouseover" end="arrowDown.mouseout"/>
                  </use>
                  <path fill="none" stroke="white" stroke-width="1.5" d="M0,-3.0v7 M-2.5,-0.5L0,-3.0L2.5,-0.5"/>
                </g>
                <g id="arrowLeft" xlink:href="#dirArrow" transform="rotate(270) translate(-36 17)" onmousedown="handlePan(-1,0)">
                  <use xlink:href="#rim" fill="#404040">
                        <set attributeName="fill" to="#808080" begin="arrowLeft.mouseover" end="arrowLeft.mouseout"/>
                  </use>
                  <path fill="none" stroke="white" stroke-width="1.5" d="M0,-3.0v7 M-2.5,-0.5L0,-3.0L2.5,-0.5"/>
                </g>
        </g>
        <svg viewBox="0 0 15 15" width="100%" height="30px" preserveAspectRatio="xMaxYMin meet">
         <g id="arrow_out" transform="scale(0.3 0.3)">
          <a xlink:href="BufferPool_8hpp__incl_org.svg" target="_base">
           <rect id="button" ry="5" rx="5" y="6" x="6" height="38" width="38"
                fill="#f2f5e9" fill-opacity="0.5" stroke="#606060" stroke-width="1.0"/>
           <path id="arrow"
             d="M 11.500037,31.436501 C 11.940474,20.09759 22.043105,11.32322 32.158766,21.979434 L 37.068811,17.246167 C 37.068811,17.246167 37.088388,32 37.088388,32 L 22.160133,31.978069 C 22.160133,31.978069 26.997745,27.140456 26.997745,27.140456 C 18.528582,18.264221 13.291696,25.230495 11.500037,31.436501 z"
             style="fill:#404040;"/>
          </a>
         </g>
        </svg>
</svg>
