<?xml version="1.0" encoding="UTF-8" standalone="no"?>
<!DOCTYPE svg PUBLIC "-//W3C//DTD SVG 1.1//EN"
 "http://www.w3.org/Graphics/SVG/1.1/DTD/svg11.dtd">
<!-- Generated by graphviz version 2.40.1 (20161225.0304)
 -->
<!-- Title: src/lug/Graphics/Vulkan/API/Builder/Semaphore.cpp Pages: 1 -->
<!--zoomable 419 -->
<svg id="main" version="1.1" xmlns="http://www.w3.org/2000/svg" xmlns:xlink="http://www.w3.org/1999/xlink" xml:space="preserve" onload="init(evt)">
<style type="text/css"><![CDATA[
.edge:hover path { stroke: red; }
.edge:hover polygon { stroke: red; fill: red; }
]]></style>
<script type="text/javascript"><![CDATA[
var edges = document.getElementsByTagName('g');
if (edges && edges.length) {
  for (var i=0;i<edges.length;i++) {
    if (edges[i].id.substr(0,4)=='edge') {
      edges[i].setAttribute('class','edge');
    }
  }
}
]]></script>
        <defs>
                <circle id="rim" cx="0" cy="0" r="7"/>
                <circle id="rim2" cx="0" cy="0" r="3.5"/>
                <g id="zoomPlus">
                        <use xlink:href="#rim" fill="#404040">
                                <set attributeName="fill" to="#808080" begin="zoomplus.mouseover" end="zoomplus.mouseout"/>
                        </use>
                        <path d="M-4,0h8M0,-4v8" fill="none" stroke="white" stroke-width="1.5" pointer-events="none"/>
                </g>
                <g id="zoomMin">
                        <use xlink:href="#rim" fill="#404040">
                                <set attributeName="fill" to="#808080" begin="zoomminus.mouseover" end="zoomminus.mouseout"/>
                        </use>
                        <path d="M-4,0h8" fill="none" stroke="white" stroke-width="1.5" pointer-events="none"/>
                </g>
                <g id="dirArrow">
                        <path fill="none" stroke="white" stroke-width="1.5" d="M0,-3.0v7 M-2.5,-0.5L0,-3.0L2.5,-0.5"/>
                </g>
               <g id="resetDef">
                       <use xlink:href="#rim2" fill="#404040">
                               <set attributeName="fill" to="#808080" begin="reset.mouseover" end="reset.mouseout"/>
                       </use>
               </g>
        </defs>

<script type="text/javascript">
var viewWidth = 708;
var viewHeight = 419;
var sectionId = 'dynsection-0';
</script>
<script xlink:href="svgpan.js"/>
<svg id="graph" class="graph">
<g id="viewport">
<title>src/lug/Graphics/Vulkan/API/Builder/Semaphore.cpp</title>
<!-- Node0 -->
<g id="node1" class="node">
<title>Node0</title>
<polygon fill="#bfbfbf" stroke="#000000" points="159.5,-380.5 159.5,-410.5 319.5,-410.5 319.5,-380.5 159.5,-380.5"/>
<text text-anchor="start" x="167.5" y="-398.5" font-family="Helvetica,sans-Serif" font-size="10.00" fill="#000000">src/lug/Graphics/Vulkan</text>
<text text-anchor="middle" x="239.5" y="-387.5" font-family="Helvetica,sans-Serif" font-size="10.00" fill="#000000">/API/Builder/Semaphore.cpp</text>
</g>
<!-- Node1 -->
<g id="node2" class="node">
<title>Node1</title>
<g id="a_node2"><a xlink:href="Builder_2Semaphore_8hpp.html" target="_top" xlink:title="lug/Graphics/Vulkan\l/API/Builder/Semaphore.hpp">
<polygon fill="none" stroke="#000000" points="37,-246.5 37,-276.5 198,-276.5 198,-246.5 37,-246.5"/>
<text text-anchor="start" x="45" y="-264.5" font-family="Helvetica,sans-Serif" font-size="10.00" fill="#000000">lug/Graphics/Vulkan</text>
<text text-anchor="middle" x="117.5" y="-253.5" font-family="Helvetica,sans-Serif" font-size="10.00" fill="#000000">/API/Builder/Semaphore.hpp</text>
</a>
</g>
</g>
<!-- Node0&#45;&gt;Node1 -->
<g id="edge1" class="edge">
<title>Node0&#45;&gt;Node1</title>
<path fill="none" stroke="#191970" d="M225.7422,-380.389C204.4163,-356.9654 163.2411,-311.7403 138.2785,-284.3222"/>
<polygon fill="#191970" stroke="#191970" points="140.715,-281.7995 131.3947,-276.7614 135.5389,-286.5121 140.715,-281.7995"/>
</g>
<!-- Node11 -->
<g id="node12" class="node">
<title>Node11</title>
<g id="a_node12"><a xlink:href="Device_8hpp.html" target="_top" xlink:title="lug/Graphics/Vulkan\l/API/Device.hpp">
<polygon fill="none" stroke="#000000" points="273.5,-313.5 273.5,-343.5 391.5,-343.5 391.5,-313.5 273.5,-313.5"/>
<text text-anchor="start" x="281.5" y="-331.5" font-family="Helvetica,sans-Serif" font-size="10.00" fill="#000000">lug/Graphics/Vulkan</text>
<text text-anchor="middle" x="332.5" y="-320.5" font-family="Helvetica,sans-Serif" font-size="10.00" fill="#000000">/API/Device.hpp</text>
</a>
</g>
</g>
<!-- Node0&#45;&gt;Node11 -->
<g id="edge12" class="edge">
<title>Node0&#45;&gt;Node11</title>
<path fill="none" stroke="#191970" d="M260.6031,-380.2967C273.2072,-371.2163 289.4024,-359.5488 303.23,-349.587"/>
<polygon fill="#191970" stroke="#191970" points="305.4126,-352.3284 311.4804,-343.6432 301.3208,-346.6488 305.4126,-352.3284"/>
</g>
<!-- Node2 -->
<g id="node3" class="node">
<title>Node2</title>
<polygon fill="none" stroke="#bfbfbf" points="0,-185 0,-204 59,-204 59,-185 0,-185"/>
<text text-anchor="middle" x="29.5" y="-192" font-family="Helvetica,sans-Serif" font-size="10.00" fill="#000000">memory</text>
</g>
<!-- Node1&#45;&gt;Node2 -->
<g id="edge2" class="edge">
<title>Node1&#45;&gt;Node2</title>
<path fill="none" stroke="#191970" d="M97.5314,-246.2967C83.4213,-235.5537 64.5549,-221.1895 50.2692,-210.3129"/>
<polygon fill="#191970" stroke="#191970" points="52.1264,-207.328 42.0498,-204.055 47.886,-212.8975 52.1264,-207.328"/>
</g>
<!-- Node3 -->
<g id="node4" class="node">
<title>Node3</title>
<g id="a_node4"><a xlink:href="Semaphore_8hpp.html" target="_top" xlink:title="lug/Graphics/Vulkan\l/API/Semaphore.hpp">
<polygon fill="none" stroke="#000000" points="77,-179.5 77,-209.5 198,-209.5 198,-179.5 77,-179.5"/>
<text text-anchor="start" x="85" y="-197.5" font-family="Helvetica,sans-Serif" font-size="10.00" fill="#000000">lug/Graphics/Vulkan</text>
<text text-anchor="middle" x="137.5" y="-186.5" font-family="Helvetica,sans-Serif" font-size="10.00" fill="#000000">/API/Semaphore.hpp</text>
</a>
</g>
</g>
<!-- Node1&#45;&gt;Node3 -->
<g id="edge3" class="edge">
<title>Node1&#45;&gt;Node3</title>
<path fill="none" stroke="#191970" d="M122.0383,-246.2967C124.4164,-238.3299 127.389,-228.3718 130.0907,-219.3213"/>
<polygon fill="#191970" stroke="#191970" points="133.473,-220.2265 132.9797,-209.6432 126.7655,-218.2242 133.473,-220.2265"/>
</g>
<!-- Node4 -->
<g id="node5" class="node">
<title>Node4</title>
<g id="a_node5"><a xlink:href="Graphics_2Export_8hpp.html" target="_top" xlink:title="lug/Graphics/Export.hpp">
<polygon fill="none" stroke="#000000" points="157.5,-56.5 157.5,-75.5 295.5,-75.5 295.5,-56.5 157.5,-56.5"/>
<text text-anchor="middle" x="226.5" y="-63.5" font-family="Helvetica,sans-Serif" font-size="10.00" fill="#000000">lug/Graphics/Export.hpp</text>
</a>
</g>
</g>
<!-- Node3&#45;&gt;Node4 -->
<g id="edge4" class="edge">
<title>Node3&#45;&gt;Node4</title>
<path fill="none" stroke="#191970" d="M148.059,-179.2548C164.5446,-155.4524 196.3312,-109.5584 213.958,-84.1084"/>
<polygon fill="#191970" stroke="#191970" points="216.9404,-85.9494 219.7569,-75.7358 211.1858,-81.9637 216.9404,-85.9494"/>
</g>
<!-- Node6 -->
<g id="node7" class="node">
<title>Node6</title>
<g id="a_node7"><a xlink:href="Vulkan_8hpp.html" target="_top" xlink:title="lug/Graphics/Vulkan\l/Vulkan.hpp">
<polygon fill="none" stroke="#000000" points="330.5,-112.5 330.5,-142.5 448.5,-142.5 448.5,-112.5 330.5,-112.5"/>
<text text-anchor="start" x="338.5" y="-130.5" font-family="Helvetica,sans-Serif" font-size="10.00" fill="#000000">lug/Graphics/Vulkan</text>
<text text-anchor="middle" x="389.5" y="-119.5" font-family="Helvetica,sans-Serif" font-size="10.00" fill="#000000">/Vulkan.hpp</text>
</a>
</g>
</g>
<!-- Node3&#45;&gt;Node6 -->
<g id="edge6" class="edge">
<title>Node3&#45;&gt;Node6</title>
<path fill="none" stroke="#191970" d="M194.0537,-179.4639C232.2607,-169.3057 282.857,-155.8535 322.9968,-145.1814"/>
<polygon fill="#191970" stroke="#191970" points="323.9347,-148.5537 332.6996,-142.6017 322.136,-141.7887 323.9347,-148.5537"/>
</g>
<!-- Node5 -->
<g id="node6" class="node">
<title>Node5</title>
<g id="a_node6"><a xlink:href="Config_8hpp.html" target="_top" xlink:title="lug/Config.hpp">
<polygon fill="none" stroke="#000000" points="182,-.5 182,-19.5 271,-19.5 271,-.5 182,-.5"/>
<text text-anchor="middle" x="226.5" y="-7.5" font-family="Helvetica,sans-Serif" font-size="10.00" fill="#000000">lug/Config.hpp</text>
</a>
</g>
</g>
<!-- Node4&#45;&gt;Node5 -->
<g id="edge5" class="edge">
<title>Node4&#45;&gt;Node5</title>
<path fill="none" stroke="#191970" d="M226.5,-56.2455C226.5,-48.9382 226.5,-38.6944 226.5,-29.7046"/>
<polygon fill="#191970" stroke="#191970" points="230.0001,-29.6426 226.5,-19.6427 223.0001,-29.6427 230.0001,-29.6426"/>
</g>
<!-- Node6&#45;&gt;Node4 -->
<g id="edge10" class="edge">
<title>Node6&#45;&gt;Node4</title>
<path fill="none" stroke="#191970" d="M349.6257,-112.4554C322.548,-102.239 287.0906,-88.8609 261.1834,-79.0861"/>
<polygon fill="#191970" stroke="#191970" points="262.351,-75.7858 251.7592,-75.5303 259.8799,-82.3352 262.351,-75.7858"/>
</g>
<!-- Node7 -->
<g id="node8" class="node">
<title>Node7</title>
<polygon fill="none" stroke="#bfbfbf" points="506,-56.5 506,-75.5 601,-75.5 601,-56.5 506,-56.5"/>
<text text-anchor="middle" x="553.5" y="-63.5" font-family="Helvetica,sans-Serif" font-size="10.00" fill="#000000">unordered_map</text>
</g>
<!-- Node6&#45;&gt;Node7 -->
<g id="edge7" class="edge">
<title>Node6&#45;&gt;Node7</title>
<path fill="none" stroke="#191970" d="M429.6189,-112.4554C456.8627,-102.239 492.5377,-88.8609 518.6038,-79.0861"/>
<polygon fill="#191970" stroke="#191970" points="519.9515,-82.3188 528.0858,-75.5303 517.4936,-75.7645 519.9515,-82.3188"/>
</g>
<!-- Node8 -->
<g id="node9" class="node">
<title>Node8</title>
<polygon fill="none" stroke="#bfbfbf" points="649.5,-56.5 649.5,-75.5 697.5,-75.5 697.5,-56.5 649.5,-56.5"/>
<text text-anchor="middle" x="673.5" y="-63.5" font-family="Helvetica,sans-Serif" font-size="10.00" fill="#000000">vector</text>
</g>
<!-- Node6&#45;&gt;Node8 -->
<g id="edge8" class="edge">
<title>Node6&#45;&gt;Node8</title>
<path fill="none" stroke="#191970" d="M448.8269,-113.9245C451.7587,-113.2701 454.6621,-112.6256 457.5,-112 521.6644,-97.8556 596.7167,-82.0348 639.3267,-73.1203"/>
<polygon fill="#191970" stroke="#191970" points="640.1082,-76.5327 649.1807,-71.061 638.6761,-69.6808 640.1082,-76.5327"/>
</g>
<!-- Node9 -->
<g id="node10" class="node">
<title>Node9</title>
<polygon fill="none" stroke="#bfbfbf" points="429.5,-56.5 429.5,-75.5 487.5,-75.5 487.5,-56.5 429.5,-56.5"/>
<text text-anchor="middle" x="458.5" y="-63.5" font-family="Helvetica,sans-Serif" font-size="10.00" fill="#000000">ostream</text>
</g>
<!-- Node6&#45;&gt;Node9 -->
<g id="edge9" class="edge">
<title>Node6&#45;&gt;Node9</title>
<path fill="none" stroke="#191970" d="M406.5562,-112.2977C416.6329,-103.3163 429.404,-91.9334 439.7611,-82.702"/>
<polygon fill="#191970" stroke="#191970" points="442.3159,-85.1135 447.4522,-75.8469 437.6583,-79.8879 442.3159,-85.1135"/>
</g>
<!-- Node10 -->
<g id="node11" class="node">
<title>Node10</title>
<polygon fill="none" stroke="#bfbfbf" points="314,-56.5 314,-75.5 411,-75.5 411,-56.5 314,-56.5"/>
<text text-anchor="middle" x="362.5" y="-63.5" font-family="Helvetica,sans-Serif" font-size="10.00" fill="#000000">vulkan/vulkan.h</text>
</g>
<!-- Node6&#45;&gt;Node10 -->
<g id="edge11" class="edge">
<title>Node6&#45;&gt;Node10</title>
<path fill="none" stroke="#191970" d="M382.8258,-112.2977C379.2341,-104.1166 374.7676,-93.943 370.9371,-85.2179"/>
<polygon fill="#191970" stroke="#191970" points="374.0478,-83.5964 366.823,-75.8469 367.6382,-86.4104 374.0478,-83.5964"/>
</g>
<!-- Node11&#45;&gt;Node4 -->
<g id="edge13" class="edge">
<title>Node11&#45;&gt;Node4</title>
<path fill="none" stroke="#191970" d="M325.096,-313.3543C309.9383,-282.0224 274.759,-207.6095 250.5,-143 243.2216,-123.6154 236.3438,-100.9332 231.8324,-85.2309"/>
<polygon fill="#191970" stroke="#191970" points="235.1988,-84.2729 229.1112,-75.6016 228.4626,-86.1765 235.1988,-84.2729"/>
</g>
<!-- Node11&#45;&gt;Node6 -->
<g id="edge23" class="edge">
<title>Node11&#45;&gt;Node6</title>
<path fill="none" stroke="#191970" d="M332.5247,-313.0743C333.0512,-285.2991 336.405,-225.4449 354.5,-179 358.3447,-169.1317 364.3725,-159.2742 370.3495,-150.8644"/>
<polygon fill="#191970" stroke="#191970" points="373.2805,-152.7893 376.4662,-142.6847 367.6745,-148.5972 373.2805,-152.7893"/>
</g>
<!-- Node12 -->
<g id="node13" class="node">
<title>Node12</title>
<g id="a_node13"><a xlink:href="QueueFamily_8hpp.html" target="_top" xlink:title="lug/Graphics/Vulkan\l/API/QueueFamily.hpp">
<polygon fill="none" stroke="#000000" points="360.5,-246.5 360.5,-276.5 488.5,-276.5 488.5,-246.5 360.5,-246.5"/>
<text text-anchor="start" x="368.5" y="-264.5" font-family="Helvetica,sans-Serif" font-size="10.00" fill="#000000">lug/Graphics/Vulkan</text>
<text text-anchor="middle" x="424.5" y="-253.5" font-family="Helvetica,sans-Serif" font-size="10.00" fill="#000000">/API/QueueFamily.hpp</text>
</a>
</g>
</g>
<!-- Node11&#45;&gt;Node12 -->
<g id="edge14" class="edge">
<title>Node11&#45;&gt;Node12</title>
<path fill="none" stroke="#191970" d="M353.3762,-313.2967C365.8448,-304.2163 381.8658,-292.5488 395.5447,-282.587"/>
<polygon fill="#191970" stroke="#191970" points="397.6833,-285.3594 403.7064,-276.6432 393.5624,-279.7009 397.6833,-285.3594"/>
</g>
<!-- Node16 -->
<g id="node17" class="node">
<title>Node16</title>
<g id="a_node17"><a xlink:href="Device_8inl.html" target="_top" xlink:title="lug/Graphics/Vulkan\l/API/Device.inl">
<polygon fill="none" stroke="#000000" points="506.5,-246.5 506.5,-276.5 624.5,-276.5 624.5,-246.5 506.5,-246.5"/>
<text text-anchor="start" x="514.5" y="-264.5" font-family="Helvetica,sans-Serif" font-size="10.00" fill="#000000">lug/Graphics/Vulkan</text>
<text text-anchor="middle" x="565.5" y="-253.5" font-family="Helvetica,sans-Serif" font-size="10.00" fill="#000000">/API/Device.inl</text>
</a>
</g>
</g>
<!-- Node11&#45;&gt;Node16 -->
<g id="edge24" class="edge">
<title>Node11&#45;&gt;Node16</title>
<path fill="none" stroke="#191970" d="M384.7897,-313.4639C419.892,-303.3701 466.3046,-290.024 503.3036,-279.3848"/>
<polygon fill="#191970" stroke="#191970" points="504.3389,-282.729 512.9822,-276.6017 502.4044,-276.0016 504.3389,-282.729"/>
</g>
<!-- Node12&#45;&gt;Node4 -->
<g id="edge17" class="edge">
<title>Node12&#45;&gt;Node4</title>
<path fill="none" stroke="#191970" d="M401.4902,-246.4818C370.9052,-225.7544 316.3259,-186.031 278.5,-143 262.2721,-124.5391 246.9398,-100.775 237.1862,-84.5611"/>
<polygon fill="#191970" stroke="#191970" points="239.9704,-82.3922 231.8759,-75.5563 233.9408,-85.948 239.9704,-82.3922"/>
</g>
<!-- Node12&#45;&gt;Node7 -->
<g id="edge15" class="edge">
<title>Node12&#45;&gt;Node7</title>
<path fill="none" stroke="#191970" d="M449.0135,-246.3556C462.5176,-237.105 478.8518,-224.3185 490.5,-210 521.8027,-171.5212 540.4157,-115.0832 548.5774,-85.5914"/>
<polygon fill="#191970" stroke="#191970" points="552.0198,-86.2643 551.1984,-75.7014 545.2534,-84.4711 552.0198,-86.2643"/>
</g>
<!-- Node12&#45;&gt;Node8 -->
<g id="edge16" class="edge">
<title>Node12&#45;&gt;Node8</title>
<path fill="none" stroke="#191970" d="M488.5805,-247.8256C491.5947,-247.2039 494.5796,-246.5926 497.5,-246 538.7595,-237.6276 656.7078,-242.475 683.5,-210 712.8879,-174.3787 694.7866,-115.4272 682.3362,-85.1893"/>
<polygon fill="#191970" stroke="#191970" points="685.4442,-83.559 678.2551,-75.7765 679.0219,-86.3436 685.4442,-83.559"/>
</g>
<!-- Node13 -->
<g id="node14" class="node">
<title>Node13</title>
<g id="a_node14"><a xlink:href="Vulkan_2API_2Queue_8hpp.html" target="_top" xlink:title="lug/Graphics/Vulkan\l/API/Queue.hpp">
<polygon fill="none" stroke="#000000" points="363.5,-179.5 363.5,-209.5 481.5,-209.5 481.5,-179.5 363.5,-179.5"/>
<text text-anchor="start" x="371.5" y="-197.5" font-family="Helvetica,sans-Serif" font-size="10.00" fill="#000000">lug/Graphics/Vulkan</text>
<text text-anchor="middle" x="422.5" y="-186.5" font-family="Helvetica,sans-Serif" font-size="10.00" fill="#000000">/API/Queue.hpp</text>
</a>
</g>
</g>
<!-- Node12&#45;&gt;Node13 -->
<g id="edge18" class="edge">
<title>Node12&#45;&gt;Node13</title>
<path fill="none" stroke="#191970" d="M424.0462,-246.2967C423.8135,-238.5013 423.5239,-228.7991 423.2584,-219.9064"/>
<polygon fill="#191970" stroke="#191970" points="426.7489,-219.5343 422.952,-209.6432 419.7521,-219.7432 426.7489,-219.5343"/>
</g>
<!-- Node15 -->
<g id="node16" class="node">
<title>Node15</title>
<g id="a_node16"><a xlink:href="QueueFamily_8inl.html" target="_top" xlink:title="lug/Graphics/Vulkan\l/API/QueueFamily.inl">
<polygon fill="none" stroke="#000000" points="552.5,-179.5 552.5,-209.5 674.5,-209.5 674.5,-179.5 552.5,-179.5"/>
<text text-anchor="start" x="560.5" y="-197.5" font-family="Helvetica,sans-Serif" font-size="10.00" fill="#000000">lug/Graphics/Vulkan</text>
<text text-anchor="middle" x="613.5" y="-186.5" font-family="Helvetica,sans-Serif" font-size="10.00" fill="#000000">/API/QueueFamily.inl</text>
</a>
</g>
</g>
<!-- Node12&#45;&gt;Node15 -->
<g id="edge22" class="edge">
<title>Node12&#45;&gt;Node15</title>
<path fill="none" stroke="#191970" d="M466.9153,-246.4639C494.783,-236.5849 531.4389,-223.5905 561.123,-213.0675"/>
<polygon fill="#191970" stroke="#191970" points="562.6439,-216.2418 570.8997,-209.6017 560.305,-209.6441 562.6439,-216.2418"/>
</g>
<!-- Node13&#45;&gt;Node4 -->
<g id="edge19" class="edge">
<title>Node13&#45;&gt;Node4</title>
<path fill="none" stroke="#191970" d="M388.7753,-179.4872C368.6643,-170.0066 342.9543,-156.9439 321.5,-143 292.942,-124.4391 262.8684,-98.9017 244.3943,-82.4213"/>
<polygon fill="#191970" stroke="#191970" points="246.5394,-79.6427 236.7695,-75.5441 241.8511,-84.8408 246.5394,-79.6427"/>
</g>
<!-- Node13&#45;&gt;Node6 -->
<g id="edge20" class="edge">
<title>Node13&#45;&gt;Node6</title>
<path fill="none" stroke="#191970" d="M415.0118,-179.2967C411.0035,-171.1586 405.9717,-160.9425 401.4384,-151.7386"/>
<polygon fill="#191970" stroke="#191970" points="404.5169,-150.0676 396.9586,-142.6432 398.2373,-153.1606 404.5169,-150.0676"/>
</g>
<!-- Node14 -->
<g id="node15" class="node">
<title>Node14</title>
<polygon fill="none" stroke="#bfbfbf" points="466.5,-118 466.5,-137 514.5,-137 514.5,-118 466.5,-118"/>
<text text-anchor="middle" x="490.5" y="-125" font-family="Helvetica,sans-Serif" font-size="10.00" fill="#000000">mutex</text>
</g>
<!-- Node13&#45;&gt;Node14 -->
<g id="edge21" class="edge">
<title>Node13&#45;&gt;Node14</title>
<path fill="none" stroke="#191970" d="M437.9303,-179.2967C448.525,-168.8578 462.5899,-154.9997 473.5054,-144.2446"/>
<polygon fill="#191970" stroke="#191970" points="476.1356,-146.5666 480.8024,-137.055 471.2227,-141.5804 476.1356,-146.5666"/>
</g>
</g>
</svg>
        <g id="navigator" transform="translate(0 0)" fill="#404254">
                <rect fill="#f2f5e9" fill-opacity="0.5" stroke="#606060" stroke-width=".5" x="0" y="0" width="60" height="60"/>
                <use id="zoomplus" xlink:href="#zoomPlus" x="17" y="9" onmousedown="handleZoom(evt,'in')"/>
                <use id="zoomminus" xlink:href="#zoomMin" x="42" y="9" onmousedown="handleZoom(evt,'out')"/>
                <use id="reset" xlink:href="#resetDef" x="30" y="36" onmousedown="handleReset()"/>
                <g id="arrowUp" xlink:href="#dirArrow" transform="translate(30 24)" onmousedown="handlePan(0,-1)">
                  <use xlink:href="#rim" fill="#404040">
                        <set attributeName="fill" to="#808080" begin="arrowUp.mouseover" end="arrowUp.mouseout"/>
                  </use>
                  <path fill="none" stroke="white" stroke-width="1.5" d="M0,-3.0v7 M-2.5,-0.5L0,-3.0L2.5,-0.5"/>
                </g>
                <g id="arrowRight" xlink:href="#dirArrow" transform="rotate(90) translate(36 -43)" onmousedown="handlePan(1,0)">
                  <use xlink:href="#rim" fill="#404040">
                        <set attributeName="fill" to="#808080" begin="arrowRight.mouseover" end="arrowRight.mouseout"/>
                  </use>
                  <path fill="none" stroke="white" stroke-width="1.5" d="M0,-3.0v7 M-2.5,-0.5L0,-3.0L2.5,-0.5"/>
                </g>
                <g id="arrowDown" xlink:href="#dirArrow" transform="rotate(180) translate(-30 -48)" onmousedown="handlePan(0,1)">
                  <use xlink:href="#rim" fill="#404040">
                        <set attributeName="fill" to="#808080" begin="arrowDown.mouseover" end="arrowDown.mouseout"/>
                  </use>
                  <path fill="none" stroke="white" stroke-width="1.5" d="M0,-3.0v7 M-2.5,-0.5L0,-3.0L2.5,-0.5"/>
                </g>
                <g id="arrowLeft" xlink:href="#dirArrow" transform="rotate(270) translate(-36 17)" onmousedown="handlePan(-1,0)">
                  <use xlink:href="#rim" fill="#404040">
                        <set attributeName="fill" to="#808080" begin="arrowLeft.mouseover" end="arrowLeft.mouseout"/>
                  </use>
                  <path fill="none" stroke="white" stroke-width="1.5" d="M0,-3.0v7 M-2.5,-0.5L0,-3.0L2.5,-0.5"/>
                </g>
        </g>
        <svg viewBox="0 0 15 15" width="100%" height="30px" preserveAspectRatio="xMaxYMin meet">
         <g id="arrow_out" transform="scale(0.3 0.3)">
          <a xlink:href="Builder_2Semaphore_8cpp__incl_org.svg" target="_base">
           <rect id="button" ry="5" rx="5" y="6" x="6" height="38" width="38"
                fill="#f2f5e9" fill-opacity="0.5" stroke="#606060" stroke-width="1.0"/>
           <path id="arrow"
             d="M 11.500037,31.436501 C 11.940474,20.09759 22.043105,11.32322 32.158766,21.979434 L 37.068811,17.246167 C 37.068811,17.246167 37.088388,32 37.088388,32 L 22.160133,31.978069 C 22.160133,31.978069 26.997745,27.140456 26.997745,27.140456 C 18.528582,18.264221 13.291696,25.230495 11.500037,31.436501 z"
             style="fill:#404040;"/>
          </a>
         </g>
        </svg>
</svg>
