<?xml version="1.0" encoding="UTF-8" standalone="no"?>
<!DOCTYPE svg PUBLIC "-//W3C//DTD SVG 1.1//EN"
 "http://www.w3.org/Graphics/SVG/1.1/DTD/svg11.dtd">
<!-- Generated by graphviz version 2.40.1 (20161225.0304)
 -->
<!-- Title: include/lug/Graphics/Vulkan/API/Builder/PipelineLayout.hpp Pages: 1 -->
<!--zoomable 363 -->
<svg id="main" version="1.1" xmlns="http://www.w3.org/2000/svg" xmlns:xlink="http://www.w3.org/1999/xlink" xml:space="preserve" onload="init(evt)">
<style type="text/css"><![CDATA[
.edge:hover path { stroke: red; }
.edge:hover polygon { stroke: red; fill: red; }
]]></style>
<script type="text/javascript"><![CDATA[
var edges = document.getElementsByTagName('g');
if (edges && edges.length) {
  for (var i=0;i<edges.length;i++) {
    if (edges[i].id.substr(0,4)=='edge') {
      edges[i].setAttribute('class','edge');
    }
  }
}
]]></script>
        <defs>
                <circle id="rim" cx="0" cy="0" r="7"/>
                <circle id="rim2" cx="0" cy="0" r="3.5"/>
                <g id="zoomPlus">
                        <use xlink:href="#rim" fill="#404040">
                                <set attributeName="fill" to="#808080" begin="zoomplus.mouseover" end="zoomplus.mouseout"/>
                        </use>
                        <path d="M-4,0h8M0,-4v8" fill="none" stroke="white" stroke-width="1.5" pointer-events="none"/>
                </g>
                <g id="zoomMin">
                        <use xlink:href="#rim" fill="#404040">
                                <set attributeName="fill" to="#808080" begin="zoomminus.mouseover" end="zoomminus.mouseout"/>
                        </use>
                        <path d="M-4,0h8" fill="none" stroke="white" stroke-width="1.5" pointer-events="none"/>
                </g>
                <g id="dirArrow">
                        <path fill="none" stroke="white" stroke-width="1.5" d="M0,-3.0v7 M-2.5,-0.5L0,-3.0L2.5,-0.5"/>
                </g>
               <g id="resetDef">
                       <use xlink:href="#rim2" fill="#404040">
                               <set attributeName="fill" to="#808080" begin="reset.mouseover" end="reset.mouseout"/>
                       </use>
               </g>
        </defs>

<script type="text/javascript">
var viewWidth = 800;
var viewHeight = 363;
var sectionId = 'dynsection-0';
</script>
<script xlink:href="svgpan.js"/>
<svg id="graph" class="graph">
<g id="viewport">
<title>include/lug/Graphics/Vulkan/API/Builder/PipelineLayout.hpp</title>
<!-- Node0 -->
<g id="node1" class="node">
<title>Node0</title>
<polygon fill="#bfbfbf" stroke="#000000" points="396.1443,-313.5 396.1443,-354.5 555.1443,-354.5 555.1443,-313.5 396.1443,-313.5"/>
<text text-anchor="start" x="404.1443" y="-342.5" font-family="Helvetica,sans-Serif" font-size="10.00" fill="#000000">include/lug/Graphics</text>
<text text-anchor="start" x="404.1443" y="-331.5" font-family="Helvetica,sans-Serif" font-size="10.00" fill="#000000">/Vulkan/API/Builder/Pipeline</text>
<text text-anchor="middle" x="475.6443" y="-320.5" font-family="Helvetica,sans-Serif" font-size="10.00" fill="#000000">Layout.hpp</text>
</g>
<!-- Node1 -->
<g id="node2" class="node">
<title>Node1</title>
<polygon fill="none" stroke="#bfbfbf" points="50.1443,-118 50.1443,-137 109.1443,-137 109.1443,-118 50.1443,-118"/>
<text text-anchor="middle" x="79.6443" y="-125" font-family="Helvetica,sans-Serif" font-size="10.00" fill="#000000">memory</text>
</g>
<!-- Node0&#45;&gt;Node1 -->
<g id="edge1" class="edge">
<title>Node0&#45;&gt;Node1</title>
<path fill="none" stroke="#191970" d="M395.7729,-324.6211C274.496,-308.5533 52.9614,-271.4199 5.6443,-210 -13.6396,-184.9687 22.2717,-158.1014 50.4977,-142.055"/>
<polygon fill="#191970" stroke="#191970" points="52.2131,-145.1061 59.3122,-137.2414 48.8581,-138.9625 52.2131,-145.1061"/>
</g>
<!-- Node2 -->
<g id="node3" class="node">
<title>Node2</title>
<polygon fill="none" stroke="#bfbfbf" points="648.6443,-56.5 648.6443,-75.5 696.6443,-75.5 696.6443,-56.5 648.6443,-56.5"/>
<text text-anchor="middle" x="672.6443" y="-63.5" font-family="Helvetica,sans-Serif" font-size="10.00" fill="#000000">vector</text>
</g>
<!-- Node0&#45;&gt;Node2 -->
<g id="edge2" class="edge">
<title>Node0&#45;&gt;Node2</title>
<path fill="none" stroke="#191970" d="M490.7754,-313.4155C528.1874,-262.52 624.5388,-131.443 659.6211,-83.7169"/>
<polygon fill="#191970" stroke="#191970" points="662.5057,-85.7019 665.6085,-75.5716 656.8656,-81.556 662.5057,-85.7019"/>
</g>
<!-- Node3 -->
<g id="node4" class="node">
<title>Node3</title>
<g id="a_node4"><a xlink:href="PipelineLayout_8hpp.html" target="_top" xlink:title="lug/Graphics/Vulkan\l/API/PipelineLayout.hpp">
<polygon fill="none" stroke="#000000" points="326.6443,-246.5 326.6443,-276.5 462.6443,-276.5 462.6443,-246.5 326.6443,-246.5"/>
<text text-anchor="start" x="334.6443" y="-264.5" font-family="Helvetica,sans-Serif" font-size="10.00" fill="#000000">lug/Graphics/Vulkan</text>
<text text-anchor="middle" x="394.6443" y="-253.5" font-family="Helvetica,sans-Serif" font-size="10.00" fill="#000000">/API/PipelineLayout.hpp</text>
</a>
</g>
</g>
<!-- Node0&#45;&gt;Node3 -->
<g id="edge3" class="edge">
<title>Node0&#45;&gt;Node3</title>
<path fill="none" stroke="#191970" d="M452.6496,-313.4183C442.2136,-304.0775 429.8575,-293.018 419.2366,-283.5117"/>
<polygon fill="#191970" stroke="#191970" points="421.2991,-280.6605 411.5136,-276.5991 416.6306,-285.8764 421.2991,-280.6605"/>
</g>
<!-- Node13 -->
<g id="node14" class="node">
<title>Node13</title>
<g id="a_node14"><a xlink:href="Builder_2PipelineLayout_8inl.html" target="_top" xlink:title="lug/Graphics/Vulkan\l/API/Builder/PipelineLayout.inl">
<polygon fill="none" stroke="#000000" points="621.6443,-246.5 621.6443,-276.5 791.6443,-276.5 791.6443,-246.5 621.6443,-246.5"/>
<text text-anchor="start" x="629.6443" y="-264.5" font-family="Helvetica,sans-Serif" font-size="10.00" fill="#000000">lug/Graphics/Vulkan</text>
<text text-anchor="middle" x="706.6443" y="-253.5" font-family="Helvetica,sans-Serif" font-size="10.00" fill="#000000">/API/Builder/PipelineLayout.inl</text>
</a>
</g>
</g>
<!-- Node0&#45;&gt;Node13 -->
<g id="edge20" class="edge">
<title>Node0&#45;&gt;Node13</title>
<path fill="none" stroke="#191970" d="M541.2217,-313.4183C575.0684,-302.7954 615.9978,-289.9496 648.6758,-279.6936"/>
<polygon fill="#191970" stroke="#191970" points="650.0424,-282.9331 658.5354,-276.5991 647.9462,-276.2543 650.0424,-282.9331"/>
</g>
<!-- Node3&#45;&gt;Node1 -->
<g id="edge4" class="edge">
<title>Node3&#45;&gt;Node1</title>
<path fill="none" stroke="#191970" d="M326.2058,-251.7996C285.5523,-244.2022 233.8637,-231.2538 191.6443,-210 172.1761,-200.1995 171.0463,-192.1236 153.6443,-179 136.8789,-166.3565 117.3629,-152.8214 102.5834,-142.8013"/>
<polygon fill="#191970" stroke="#191970" points="104.3085,-139.7433 94.0601,-137.0561 100.3959,-145.5478 104.3085,-139.7433"/>
</g>
<!-- Node3&#45;&gt;Node2 -->
<g id="edge5" class="edge">
<title>Node3&#45;&gt;Node2</title>
<path fill="none" stroke="#191970" d="M412.3365,-246.3648C451.5143,-212.9891 544.8674,-134.2664 579.6443,-112 599.0215,-99.5934 622.2153,-88.1154 640.5928,-79.728"/>
<polygon fill="#191970" stroke="#191970" points="642.0264,-82.921 649.7183,-75.6351 639.1617,-76.534 642.0264,-82.921"/>
</g>
<!-- Node4 -->
<g id="node5" class="node">
<title>Node4</title>
<g id="a_node5"><a xlink:href="Graphics_2Export_8hpp.html" target="_top" xlink:title="lug/Graphics/Export.hpp">
<polygon fill="none" stroke="#000000" points="187.6443,-56.5 187.6443,-75.5 325.6443,-75.5 325.6443,-56.5 187.6443,-56.5"/>
<text text-anchor="middle" x="256.6443" y="-63.5" font-family="Helvetica,sans-Serif" font-size="10.00" fill="#000000">lug/Graphics/Export.hpp</text>
</a>
</g>
</g>
<!-- Node3&#45;&gt;Node4 -->
<g id="edge6" class="edge">
<title>Node3&#45;&gt;Node4</title>
<path fill="none" stroke="#191970" d="M393.6351,-246.3206C391.9437,-229.0682 387.4576,-200.5157 375.6443,-179 352.3834,-136.6347 307.6957,-100.7967 280.1927,-81.4386"/>
<polygon fill="#191970" stroke="#191970" points="282.1386,-78.529 271.916,-75.7451 278.1713,-84.2963 282.1386,-78.529"/>
</g>
<!-- Node6 -->
<g id="node7" class="node">
<title>Node6</title>
<g id="a_node7"><a xlink:href="DescriptorSetLayout_8hpp.html" target="_top" xlink:title="lug/Graphics/Vulkan\l/API/DescriptorSetLayout.hpp">
<polygon fill="none" stroke="#000000" points="201.1443,-179.5 201.1443,-209.5 366.1443,-209.5 366.1443,-179.5 201.1443,-179.5"/>
<text text-anchor="start" x="209.1443" y="-197.5" font-family="Helvetica,sans-Serif" font-size="10.00" fill="#000000">lug/Graphics/Vulkan</text>
<text text-anchor="middle" x="283.6443" y="-186.5" font-family="Helvetica,sans-Serif" font-size="10.00" fill="#000000">/API/DescriptorSetLayout.hpp</text>
</a>
</g>
</g>
<!-- Node3&#45;&gt;Node6 -->
<g id="edge8" class="edge">
<title>Node3&#45;&gt;Node6</title>
<path fill="none" stroke="#191970" d="M369.7337,-246.4639C354.4171,-237.2188 334.5803,-225.2452 317.8094,-215.1222"/>
<polygon fill="#191970" stroke="#191970" points="319.2257,-211.889 308.8557,-209.7177 315.6084,-217.8819 319.2257,-211.889"/>
</g>
<!-- Node7 -->
<g id="node8" class="node">
<title>Node7</title>
<g id="a_node8"><a xlink:href="Vulkan_8hpp.html" target="_top" xlink:title="lug/Graphics/Vulkan\l/Vulkan.hpp">
<polygon fill="none" stroke="#000000" points="409.6443,-112.5 409.6443,-142.5 527.6443,-142.5 527.6443,-112.5 409.6443,-112.5"/>
<text text-anchor="start" x="417.6443" y="-130.5" font-family="Helvetica,sans-Serif" font-size="10.00" fill="#000000">lug/Graphics/Vulkan</text>
<text text-anchor="middle" x="468.6443" y="-119.5" font-family="Helvetica,sans-Serif" font-size="10.00" fill="#000000">/Vulkan.hpp</text>
</a>
</g>
</g>
<!-- Node3&#45;&gt;Node7 -->
<g id="edge18" class="edge">
<title>Node3&#45;&gt;Node7</title>
<path fill="none" stroke="#191970" d="M402.9892,-246.389C415.7025,-223.3676 440.0457,-179.2866 455.2525,-151.7499"/>
<polygon fill="#191970" stroke="#191970" points="458.4459,-153.2073 460.2163,-142.7614 452.3182,-149.8233 458.4459,-153.2073"/>
</g>
<!-- Node12 -->
<g id="node13" class="node">
<title>Node12</title>
<g id="a_node13"><a xlink:href="PipelineLayout_8inl.html" target="_top" xlink:title="lug/Graphics/Vulkan\l/API/PipelineLayout.inl">
<polygon fill="none" stroke="#000000" points="14.6443,-179.5 14.6443,-209.5 144.6443,-209.5 144.6443,-179.5 14.6443,-179.5"/>
<text text-anchor="start" x="22.6443" y="-197.5" font-family="Helvetica,sans-Serif" font-size="10.00" fill="#000000">lug/Graphics/Vulkan</text>
<text text-anchor="middle" x="79.6443" y="-186.5" font-family="Helvetica,sans-Serif" font-size="10.00" fill="#000000">/API/PipelineLayout.inl</text>
</a>
</g>
</g>
<!-- Node3&#45;&gt;Node12 -->
<g id="edge19" class="edge">
<title>Node3&#45;&gt;Node12</title>
<path fill="none" stroke="#191970" d="M326.294,-246.962C275.722,-236.2054 206.8657,-221.5598 154.7562,-210.4762"/>
<polygon fill="#191970" stroke="#191970" points="155.4084,-207.0367 144.899,-208.3796 153.952,-213.8835 155.4084,-207.0367"/>
</g>
<!-- Node5 -->
<g id="node6" class="node">
<title>Node5</title>
<g id="a_node6"><a xlink:href="Config_8hpp.html" target="_top" xlink:title="lug/Config.hpp">
<polygon fill="none" stroke="#000000" points="212.1443,-.5 212.1443,-19.5 301.1443,-19.5 301.1443,-.5 212.1443,-.5"/>
<text text-anchor="middle" x="256.6443" y="-7.5" font-family="Helvetica,sans-Serif" font-size="10.00" fill="#000000">lug/Config.hpp</text>
</a>
</g>
</g>
<!-- Node4&#45;&gt;Node5 -->
<g id="edge7" class="edge">
<title>Node4&#45;&gt;Node5</title>
<path fill="none" stroke="#191970" d="M256.6443,-56.2455C256.6443,-48.9382 256.6443,-38.6944 256.6443,-29.7046"/>
<polygon fill="#191970" stroke="#191970" points="260.1444,-29.6426 256.6443,-19.6427 253.1444,-29.6427 260.1444,-29.6426"/>
</g>
<!-- Node6&#45;&gt;Node1 -->
<g id="edge9" class="edge">
<title>Node6&#45;&gt;Node1</title>
<path fill="none" stroke="#191970" d="M232.0305,-179.4867C199.3316,-169.7057 156.2656,-156.3257 118.6443,-143 116.7384,-142.3249 114.7875,-141.6141 112.8237,-140.8832"/>
<polygon fill="#191970" stroke="#191970" points="113.6361,-137.4463 103.0459,-137.1338 111.1298,-143.9822 113.6361,-137.4463"/>
</g>
<!-- Node6&#45;&gt;Node4 -->
<g id="edge10" class="edge">
<title>Node6&#45;&gt;Node4</title>
<path fill="none" stroke="#191970" d="M289.7768,-179.4486C295.7265,-162.5593 302.7614,-134.5713 294.6443,-112 290.7007,-101.0341 282.8846,-90.8227 275.3612,-82.8204"/>
<polygon fill="#191970" stroke="#191970" points="277.6544,-80.1653 268.0896,-75.6084 272.725,-85.1354 277.6544,-80.1653"/>
</g>
<!-- Node6&#45;&gt;Node7 -->
<g id="edge11" class="edge">
<title>Node6&#45;&gt;Node7</title>
<path fill="none" stroke="#191970" d="M325.1619,-179.4639C352.4398,-169.5849 388.3199,-156.5905 417.3757,-146.0675"/>
<polygon fill="#191970" stroke="#191970" points="418.735,-149.2978 426.9456,-142.6017 416.3514,-142.7161 418.735,-149.2978"/>
</g>
<!-- Node11 -->
<g id="node12" class="node">
<title>Node11</title>
<g id="a_node12"><a xlink:href="DescriptorSetLayout_8inl.html" target="_top" xlink:title="lug/Graphics/Vulkan\l/API/DescriptorSetLayout.inl">
<polygon fill="none" stroke="#000000" points="127.1443,-112.5 127.1443,-142.5 286.1443,-142.5 286.1443,-112.5 127.1443,-112.5"/>
<text text-anchor="start" x="135.1443" y="-130.5" font-family="Helvetica,sans-Serif" font-size="10.00" fill="#000000">lug/Graphics/Vulkan</text>
<text text-anchor="middle" x="206.6443" y="-119.5" font-family="Helvetica,sans-Serif" font-size="10.00" fill="#000000">/API/DescriptorSetLayout.inl</text>
</a>
</g>
</g>
<!-- Node6&#45;&gt;Node11 -->
<g id="edge17" class="edge">
<title>Node6&#45;&gt;Node11</title>
<path fill="none" stroke="#191970" d="M266.1718,-179.2967C256.0315,-170.4733 243.0839,-159.2072 231.8553,-149.4368"/>
<polygon fill="#191970" stroke="#191970" points="233.8891,-146.567 224.0476,-142.6432 229.2941,-151.8478 233.8891,-146.567"/>
</g>
<!-- Node7&#45;&gt;Node2 -->
<g id="edge13" class="edge">
<title>Node7&#45;&gt;Node2</title>
<path fill="none" stroke="#191970" d="M518.7832,-112.4242C550.6053,-102.8503 592.9114,-90.112 638.6789,-76.2886"/>
<polygon fill="#191970" stroke="#191970" points="639.9346,-79.5655 648.4952,-73.3231 637.9102,-72.8646 639.9346,-79.5655"/>
</g>
<!-- Node7&#45;&gt;Node4 -->
<g id="edge15" class="edge">
<title>Node7&#45;&gt;Node4</title>
<path fill="none" stroke="#191970" d="M416.7832,-112.4554C380.6348,-101.9689 333.0037,-88.1515 299.1086,-78.3187"/>
<polygon fill="#191970" stroke="#191970" points="300.0759,-74.9551 289.4967,-75.5303 298.1256,-81.6779 300.0759,-74.9551"/>
</g>
<!-- Node8 -->
<g id="node9" class="node">
<title>Node8</title>
<polygon fill="none" stroke="#bfbfbf" points="535.1443,-56.5 535.1443,-75.5 630.1443,-75.5 630.1443,-56.5 535.1443,-56.5"/>
<text text-anchor="middle" x="582.6443" y="-63.5" font-family="Helvetica,sans-Serif" font-size="10.00" fill="#000000">unordered_map</text>
</g>
<!-- Node7&#45;&gt;Node8 -->
<g id="edge12" class="edge">
<title>Node7&#45;&gt;Node8</title>
<path fill="none" stroke="#191970" d="M496.5318,-112.4554C514.5519,-102.734 537.8784,-90.15 555.7075,-80.5317"/>
<polygon fill="#191970" stroke="#191970" points="557.8391,-83.3586 564.9783,-75.5303 554.5155,-77.1979 557.8391,-83.3586"/>
</g>
<!-- Node9 -->
<g id="node10" class="node">
<title>Node9</title>
<polygon fill="none" stroke="#bfbfbf" points="343.6443,-56.5 343.6443,-75.5 401.6443,-75.5 401.6443,-56.5 343.6443,-56.5"/>
<text text-anchor="middle" x="372.6443" y="-63.5" font-family="Helvetica,sans-Serif" font-size="10.00" fill="#000000">ostream</text>
</g>
<!-- Node7&#45;&gt;Node9 -->
<g id="edge14" class="edge">
<title>Node7&#45;&gt;Node9</title>
<path fill="none" stroke="#191970" d="M444.9139,-112.2977C430.1081,-102.8127 411.1215,-90.6495 396.325,-81.1705"/>
<polygon fill="#191970" stroke="#191970" points="398.0367,-78.1105 387.7284,-75.6633 394.2607,-84.0047 398.0367,-78.1105"/>
</g>
<!-- Node10 -->
<g id="node11" class="node">
<title>Node10</title>
<polygon fill="none" stroke="#bfbfbf" points="420.1443,-56.5 420.1443,-75.5 517.1443,-75.5 517.1443,-56.5 420.1443,-56.5"/>
<text text-anchor="middle" x="468.6443" y="-63.5" font-family="Helvetica,sans-Serif" font-size="10.00" fill="#000000">vulkan/vulkan.h</text>
</g>
<!-- Node7&#45;&gt;Node10 -->
<g id="edge16" class="edge">
<title>Node7&#45;&gt;Node10</title>
<path fill="none" stroke="#191970" d="M468.6443,-112.2977C468.6443,-104.3834 468.6443,-94.6043 468.6443,-86.0759"/>
<polygon fill="#191970" stroke="#191970" points="472.1444,-85.8469 468.6443,-75.8469 465.1444,-85.847 472.1444,-85.8469"/>
</g>
</g>
</svg>
        <g id="navigator" transform="translate(0 0)" fill="#404254">
                <rect fill="#f2f5e9" fill-opacity="0.5" stroke="#606060" stroke-width=".5" x="0" y="0" width="60" height="60"/>
                <use id="zoomplus" xlink:href="#zoomPlus" x="17" y="9" onmousedown="handleZoom(evt,'in')"/>
                <use id="zoomminus" xlink:href="#zoomMin" x="42" y="9" onmousedown="handleZoom(evt,'out')"/>
                <use id="reset" xlink:href="#resetDef" x="30" y="36" onmousedown="handleReset()"/>
                <g id="arrowUp" xlink:href="#dirArrow" transform="translate(30 24)" onmousedown="handlePan(0,-1)">
                  <use xlink:href="#rim" fill="#404040">
                        <set attributeName="fill" to="#808080" begin="arrowUp.mouseover" end="arrowUp.mouseout"/>
                  </use>
                  <path fill="none" stroke="white" stroke-width="1.5" d="M0,-3.0v7 M-2.5,-0.5L0,-3.0L2.5,-0.5"/>
                </g>
                <g id="arrowRight" xlink:href="#dirArrow" transform="rotate(90) translate(36 -43)" onmousedown="handlePan(1,0)">
                  <use xlink:href="#rim" fill="#404040">
                        <set attributeName="fill" to="#808080" begin="arrowRight.mouseover" end="arrowRight.mouseout"/>
                  </use>
                  <path fill="none" stroke="white" stroke-width="1.5" d="M0,-3.0v7 M-2.5,-0.5L0,-3.0L2.5,-0.5"/>
                </g>
                <g id="arrowDown" xlink:href="#dirArrow" transform="rotate(180) translate(-30 -48)" onmousedown="handlePan(0,1)">
                  <use xlink:href="#rim" fill="#404040">
                        <set attributeName="fill" to="#808080" begin="arrowDown.mouseover" end="arrowDown.mouseout"/>
                  </use>
                  <path fill="none" stroke="white" stroke-width="1.5" d="M0,-3.0v7 M-2.5,-0.5L0,-3.0L2.5,-0.5"/>
                </g>
                <g id="arrowLeft" xlink:href="#dirArrow" transform="rotate(270) translate(-36 17)" onmousedown="handlePan(-1,0)">
                  <use xlink:href="#rim" fill="#404040">
                        <set attributeName="fill" to="#808080" begin="arrowLeft.mouseover" end="arrowLeft.mouseout"/>
                  </use>
                  <path fill="none" stroke="white" stroke-width="1.5" d="M0,-3.0v7 M-2.5,-0.5L0,-3.0L2.5,-0.5"/>
                </g>
        </g>
        <svg viewBox="0 0 15 15" width="100%" height="30px" preserveAspectRatio="xMaxYMin meet">
         <g id="arrow_out" transform="scale(0.3 0.3)">
          <a xlink:href="Builder_2PipelineLayout_8hpp__incl_org.svg" target="_base">
           <rect id="button" ry="5" rx="5" y="6" x="6" height="38" width="38"
                fill="#f2f5e9" fill-opacity="0.5" stroke="#606060" stroke-width="1.0"/>
           <path id="arrow"
             d="M 11.500037,31.436501 C 11.940474,20.09759 22.043105,11.32322 32.158766,21.979434 L 37.068811,17.246167 C 37.068811,17.246167 37.088388,32 37.088388,32 L 22.160133,31.978069 C 22.160133,31.978069 26.997745,27.140456 26.997745,27.140456 C 18.528582,18.264221 13.291696,25.230495 11.500037,31.436501 z"
             style="fill:#404040;"/>
          </a>
         </g>
        </svg>
</svg>
