<?xml version="1.0" encoding="UTF-8" standalone="no"?>
<!DOCTYPE svg PUBLIC "-//W3C//DTD SVG 1.1//EN"
 "http://www.w3.org/Graphics/SVG/1.1/DTD/svg11.dtd">
<!-- Generated by graphviz version 2.40.1 (20161225.0304)
 -->
<!-- Title: src/lug/Graphics/Vulkan/API/Builder/DescriptorPool.cpp Pages: 1 -->
<!--zoomable 419 -->
<svg id="main" version="1.1" xmlns="http://www.w3.org/2000/svg" xmlns:xlink="http://www.w3.org/1999/xlink" xml:space="preserve" onload="init(evt)">
<style type="text/css"><![CDATA[
.edge:hover path { stroke: red; }
.edge:hover polygon { stroke: red; fill: red; }
]]></style>
<script type="text/javascript"><![CDATA[
var edges = document.getElementsByTagName('g');
if (edges && edges.length) {
  for (var i=0;i<edges.length;i++) {
    if (edges[i].id.substr(0,4)=='edge') {
      edges[i].setAttribute('class','edge');
    }
  }
}
]]></script>
        <defs>
                <circle id="rim" cx="0" cy="0" r="7"/>
                <circle id="rim2" cx="0" cy="0" r="3.5"/>
                <g id="zoomPlus">
                        <use xlink:href="#rim" fill="#404040">
                                <set attributeName="fill" to="#808080" begin="zoomplus.mouseover" end="zoomplus.mouseout"/>
                        </use>
                        <path d="M-4,0h8M0,-4v8" fill="none" stroke="white" stroke-width="1.5" pointer-events="none"/>
                </g>
                <g id="zoomMin">
                        <use xlink:href="#rim" fill="#404040">
                                <set attributeName="fill" to="#808080" begin="zoomminus.mouseover" end="zoomminus.mouseout"/>
                        </use>
                        <path d="M-4,0h8" fill="none" stroke="white" stroke-width="1.5" pointer-events="none"/>
                </g>
                <g id="dirArrow">
                        <path fill="none" stroke="white" stroke-width="1.5" d="M0,-3.0v7 M-2.5,-0.5L0,-3.0L2.5,-0.5"/>
                </g>
               <g id="resetDef">
                       <use xlink:href="#rim2" fill="#404040">
                               <set attributeName="fill" to="#808080" begin="reset.mouseover" end="reset.mouseout"/>
                       </use>
               </g>
        </defs>

<script type="text/javascript">
var viewWidth = 909;
var viewHeight = 419;
var sectionId = 'dynsection-0';
</script>
<script xlink:href="svgpan.js"/>
<svg id="graph" class="graph">
<g id="viewport">
<title>src/lug/Graphics/Vulkan/API/Builder/DescriptorPool.cpp</title>
<!-- Node0 -->
<g id="node1" class="node">
<title>Node0</title>
<polygon fill="#bfbfbf" stroke="#000000" points="350,-380.5 350,-410.5 526,-410.5 526,-380.5 350,-380.5"/>
<text text-anchor="start" x="358" y="-398.5" font-family="Helvetica,sans-Serif" font-size="10.00" fill="#000000">src/lug/Graphics/Vulkan</text>
<text text-anchor="middle" x="438" y="-387.5" font-family="Helvetica,sans-Serif" font-size="10.00" fill="#000000">/API/Builder/DescriptorPool.cpp</text>
</g>
<!-- Node1 -->
<g id="node2" class="node">
<title>Node1</title>
<g id="a_node2"><a xlink:href="Builder_2DescriptorPool_8hpp.html" target="_top" xlink:title="lug/Graphics/Vulkan\l/API/Builder/DescriptorPool.hpp">
<polygon fill="none" stroke="#000000" points="188,-246.5 188,-276.5 364,-276.5 364,-246.5 188,-246.5"/>
<text text-anchor="start" x="196" y="-264.5" font-family="Helvetica,sans-Serif" font-size="10.00" fill="#000000">lug/Graphics/Vulkan</text>
<text text-anchor="middle" x="276" y="-253.5" font-family="Helvetica,sans-Serif" font-size="10.00" fill="#000000">/API/Builder/DescriptorPool.hpp</text>
</a>
</g>
</g>
<!-- Node0&#45;&gt;Node1 -->
<g id="edge1" class="edge">
<title>Node0&#45;&gt;Node1</title>
<path fill="none" stroke="#191970" d="M419.7314,-380.389C391.0488,-356.6638 335.3259,-310.5721 302.3215,-283.2721"/>
<polygon fill="#191970" stroke="#191970" points="304.3867,-280.4382 294.4503,-276.7614 299.9251,-285.8321 304.3867,-280.4382"/>
</g>
<!-- Node12 -->
<g id="node13" class="node">
<title>Node12</title>
<g id="a_node13"><a xlink:href="Device_8hpp.html" target="_top" xlink:title="lug/Graphics/Vulkan\l/API/Device.hpp">
<polygon fill="none" stroke="#000000" points="541,-313.5 541,-343.5 659,-343.5 659,-313.5 541,-313.5"/>
<text text-anchor="start" x="549" y="-331.5" font-family="Helvetica,sans-Serif" font-size="10.00" fill="#000000">lug/Graphics/Vulkan</text>
<text text-anchor="middle" x="600" y="-320.5" font-family="Helvetica,sans-Serif" font-size="10.00" fill="#000000">/API/Device.hpp</text>
</a>
</g>
</g>
<!-- Node0&#45;&gt;Node12 -->
<g id="edge14" class="edge">
<title>Node0&#45;&gt;Node12</title>
<path fill="none" stroke="#191970" d="M474.356,-380.4639C497.931,-370.7137 528.8435,-357.9289 554.1068,-347.4805"/>
<polygon fill="#191970" stroke="#191970" points="555.5823,-350.6579 563.4855,-343.6017 552.9069,-344.1893 555.5823,-350.6579"/>
</g>
<!-- Node2 -->
<g id="node3" class="node">
<title>Node2</title>
<polygon fill="none" stroke="#bfbfbf" points="188.5,-185 188.5,-204 247.5,-204 247.5,-185 188.5,-185"/>
<text text-anchor="middle" x="218" y="-192" font-family="Helvetica,sans-Serif" font-size="10.00" fill="#000000">memory</text>
</g>
<!-- Node1&#45;&gt;Node2 -->
<g id="edge2" class="edge">
<title>Node1&#45;&gt;Node2</title>
<path fill="none" stroke="#191970" d="M262.8389,-246.2967C253.9777,-236.0605 242.2705,-222.5366 233.0407,-211.8746"/>
<polygon fill="#191970" stroke="#191970" points="235.4627,-209.3248 226.2715,-204.055 230.1703,-213.9064 235.4627,-209.3248"/>
</g>
<!-- Node3 -->
<g id="node4" class="node">
<title>Node3</title>
<polygon fill="none" stroke="#bfbfbf" points="250,-56.5 250,-75.5 298,-75.5 298,-56.5 250,-56.5"/>
<text text-anchor="middle" x="274" y="-63.5" font-family="Helvetica,sans-Serif" font-size="10.00" fill="#000000">vector</text>
</g>
<!-- Node1&#45;&gt;Node3 -->
<g id="edge3" class="edge">
<title>Node1&#45;&gt;Node3</title>
<path fill="none" stroke="#191970" d="M275.8464,-246.4841C275.4901,-211.654 274.6071,-125.3473 274.2052,-86.0563"/>
<polygon fill="#191970" stroke="#191970" points="277.7034,-85.8535 274.1012,-75.8898 270.7038,-85.9251 277.7034,-85.8535"/>
</g>
<!-- Node4 -->
<g id="node5" class="node">
<title>Node4</title>
<g id="a_node5"><a xlink:href="DescriptorPool_8hpp.html" target="_top" xlink:title="lug/Graphics/Vulkan\l/API/DescriptorPool.hpp">
<polygon fill="none" stroke="#000000" points="342.5,-179.5 342.5,-209.5 479.5,-209.5 479.5,-179.5 342.5,-179.5"/>
<text text-anchor="start" x="350.5" y="-197.5" font-family="Helvetica,sans-Serif" font-size="10.00" fill="#000000">lug/Graphics/Vulkan</text>
<text text-anchor="middle" x="411" y="-186.5" font-family="Helvetica,sans-Serif" font-size="10.00" fill="#000000">/API/DescriptorPool.hpp</text>
</a>
</g>
</g>
<!-- Node1&#45;&gt;Node4 -->
<g id="edge4" class="edge">
<title>Node1&#45;&gt;Node4</title>
<path fill="none" stroke="#191970" d="M306.2966,-246.4639C325.4424,-236.9619 350.3953,-224.5779 371.1388,-214.283"/>
<polygon fill="#191970" stroke="#191970" points="372.9359,-217.2985 380.3374,-209.7177 369.8239,-211.0282 372.9359,-217.2985"/>
</g>
<!-- Node11 -->
<g id="node12" class="node">
<title>Node11</title>
<g id="a_node12"><a xlink:href="DescriptorPool_8inl.html" target="_top" xlink:title="lug/Graphics/Vulkan\l/API/Builder/DescriptorPool.inl">
<polygon fill="none" stroke="#000000" points="0,-179.5 0,-209.5 170,-209.5 170,-179.5 0,-179.5"/>
<text text-anchor="start" x="8" y="-197.5" font-family="Helvetica,sans-Serif" font-size="10.00" fill="#000000">lug/Graphics/Vulkan</text>
<text text-anchor="middle" x="85" y="-186.5" font-family="Helvetica,sans-Serif" font-size="10.00" fill="#000000">/API/Builder/DescriptorPool.inl</text>
</a>
</g>
</g>
<!-- Node1&#45;&gt;Node11 -->
<g id="edge13" class="edge">
<title>Node1&#45;&gt;Node11</title>
<path fill="none" stroke="#191970" d="M233.1359,-246.4639C204.8508,-236.5419 167.6072,-223.4774 137.5404,-212.9304"/>
<polygon fill="#191970" stroke="#191970" points="138.6459,-209.6092 128.0511,-209.6017 136.3288,-216.2146 138.6459,-209.6092"/>
</g>
<!-- Node5 -->
<g id="node6" class="node">
<title>Node5</title>
<g id="a_node6"><a xlink:href="Graphics_2Export_8hpp.html" target="_top" xlink:title="lug/Graphics/Export.hpp">
<polygon fill="none" stroke="#000000" points="621,-56.5 621,-75.5 759,-75.5 759,-56.5 621,-56.5"/>
<text text-anchor="middle" x="690" y="-63.5" font-family="Helvetica,sans-Serif" font-size="10.00" fill="#000000">lug/Graphics/Export.hpp</text>
</a>
</g>
</g>
<!-- Node4&#45;&gt;Node5 -->
<g id="edge5" class="edge">
<title>Node4&#45;&gt;Node5</title>
<path fill="none" stroke="#191970" d="M443.8253,-179.3816C498.4743,-154.2117 607.3007,-104.0891 660.0088,-79.8131"/>
<polygon fill="#191970" stroke="#191970" points="661.5531,-82.9554 669.1718,-75.5929 658.6247,-76.5973 661.5531,-82.9554"/>
</g>
<!-- Node7 -->
<g id="node8" class="node">
<title>Node7</title>
<g id="a_node8"><a xlink:href="Vulkan_8hpp.html" target="_top" xlink:title="lug/Graphics/Vulkan\l/Vulkan.hpp">
<polygon fill="none" stroke="#000000" points="391,-112.5 391,-142.5 509,-142.5 509,-112.5 391,-112.5"/>
<text text-anchor="start" x="399" y="-130.5" font-family="Helvetica,sans-Serif" font-size="10.00" fill="#000000">lug/Graphics/Vulkan</text>
<text text-anchor="middle" x="450" y="-119.5" font-family="Helvetica,sans-Serif" font-size="10.00" fill="#000000">/Vulkan.hpp</text>
</a>
</g>
</g>
<!-- Node4&#45;&gt;Node7 -->
<g id="edge7" class="edge">
<title>Node4&#45;&gt;Node7</title>
<path fill="none" stroke="#191970" d="M419.8497,-179.2967C424.6366,-171.0729 430.6588,-160.7272 436.0599,-151.4483"/>
<polygon fill="#191970" stroke="#191970" points="439.1794,-153.0464 441.1853,-142.6432 433.1297,-149.5249 439.1794,-153.0464"/>
</g>
<!-- Node6 -->
<g id="node7" class="node">
<title>Node6</title>
<g id="a_node7"><a xlink:href="Config_8hpp.html" target="_top" xlink:title="lug/Config.hpp">
<polygon fill="none" stroke="#000000" points="645.5,-.5 645.5,-19.5 734.5,-19.5 734.5,-.5 645.5,-.5"/>
<text text-anchor="middle" x="690" y="-7.5" font-family="Helvetica,sans-Serif" font-size="10.00" fill="#000000">lug/Config.hpp</text>
</a>
</g>
</g>
<!-- Node5&#45;&gt;Node6 -->
<g id="edge6" class="edge">
<title>Node5&#45;&gt;Node6</title>
<path fill="none" stroke="#191970" d="M690,-56.2455C690,-48.9382 690,-38.6944 690,-29.7046"/>
<polygon fill="#191970" stroke="#191970" points="693.5001,-29.6426 690,-19.6427 686.5001,-29.6427 693.5001,-29.6426"/>
</g>
<!-- Node7&#45;&gt;Node3 -->
<g id="edge9" class="edge">
<title>Node7&#45;&gt;Node3</title>
<path fill="none" stroke="#191970" d="M406.9456,-112.4554C376.4919,-101.8139 336.2216,-87.7422 308.013,-77.8852"/>
<polygon fill="#191970" stroke="#191970" points="308.8014,-74.4533 298.2066,-74.4586 306.4923,-81.0614 308.8014,-74.4533"/>
</g>
<!-- Node7&#45;&gt;Node5 -->
<g id="edge11" class="edge">
<title>Node7&#45;&gt;Node5</title>
<path fill="none" stroke="#191970" d="M508.7106,-112.4554C549.9847,-101.8789 604.482,-87.914 642.9119,-78.0663"/>
<polygon fill="#191970" stroke="#191970" points="643.9903,-81.4031 652.8085,-75.5303 642.2527,-74.6222 643.9903,-81.4031"/>
</g>
<!-- Node8 -->
<g id="node9" class="node">
<title>Node8</title>
<polygon fill="none" stroke="#bfbfbf" points="507.5,-56.5 507.5,-75.5 602.5,-75.5 602.5,-56.5 507.5,-56.5"/>
<text text-anchor="middle" x="555" y="-63.5" font-family="Helvetica,sans-Serif" font-size="10.00" fill="#000000">unordered_map</text>
</g>
<!-- Node7&#45;&gt;Node8 -->
<g id="edge8" class="edge">
<title>Node7&#45;&gt;Node8</title>
<path fill="none" stroke="#191970" d="M475.6859,-112.4554C492.1297,-102.8241 513.3708,-90.3828 529.7323,-80.7996"/>
<polygon fill="#191970" stroke="#191970" points="531.8688,-83.6045 538.7287,-75.5303 528.331,-77.5643 531.8688,-83.6045"/>
</g>
<!-- Node9 -->
<g id="node10" class="node">
<title>Node9</title>
<polygon fill="none" stroke="#bfbfbf" points="316,-56.5 316,-75.5 374,-75.5 374,-56.5 316,-56.5"/>
<text text-anchor="middle" x="345" y="-63.5" font-family="Helvetica,sans-Serif" font-size="10.00" fill="#000000">ostream</text>
</g>
<!-- Node7&#45;&gt;Node9 -->
<g id="edge10" class="edge">
<title>Node7&#45;&gt;Node9</title>
<path fill="none" stroke="#191970" d="M424.3141,-112.4554C407.8703,-102.8241 386.6292,-90.3828 370.2677,-80.7996"/>
<polygon fill="#191970" stroke="#191970" points="371.669,-77.5643 361.2713,-75.5303 368.1312,-83.6045 371.669,-77.5643"/>
</g>
<!-- Node10 -->
<g id="node11" class="node">
<title>Node10</title>
<polygon fill="none" stroke="#bfbfbf" points="392.5,-56.5 392.5,-75.5 489.5,-75.5 489.5,-56.5 392.5,-56.5"/>
<text text-anchor="middle" x="441" y="-63.5" font-family="Helvetica,sans-Serif" font-size="10.00" fill="#000000">vulkan/vulkan.h</text>
</g>
<!-- Node7&#45;&gt;Node10 -->
<g id="edge12" class="edge">
<title>Node7&#45;&gt;Node10</title>
<path fill="none" stroke="#191970" d="M447.7753,-112.2977C446.6041,-104.2945 445.1538,-94.3843 443.8959,-85.7889"/>
<polygon fill="#191970" stroke="#191970" points="447.3522,-85.2347 442.441,-75.8469 440.426,-86.2484 447.3522,-85.2347"/>
</g>
<!-- Node12&#45;&gt;Node5 -->
<g id="edge15" class="edge">
<title>Node12&#45;&gt;Node5</title>
<path fill="none" stroke="#191970" d="M659.0212,-320.7382C702.1743,-313.4758 761.2572,-300.164 809,-277 852.5926,-255.8496 873.7298,-253.5343 895,-210 929.2826,-139.8329 814.6265,-97.2546 743.0936,-78.0824"/>
<polygon fill="#191970" stroke="#191970" points="743.8656,-74.6668 733.3062,-75.5321 742.1005,-81.4406 743.8656,-74.6668"/>
</g>
<!-- Node12&#45;&gt;Node7 -->
<g id="edge25" class="edge">
<title>Node12&#45;&gt;Node7</title>
<path fill="none" stroke="#191970" d="M570.9258,-313.3734C556.1239,-304.456 538.8105,-291.9819 527,-277 497.9787,-240.1856 510.7708,-219.9759 488,-179 482.5757,-169.2389 475.5538,-159.2048 469.0247,-150.6163"/>
<polygon fill="#191970" stroke="#191970" points="471.6536,-148.2962 462.7373,-142.5734 466.1387,-152.6074 471.6536,-148.2962"/>
</g>
<!-- Node13 -->
<g id="node14" class="node">
<title>Node13</title>
<g id="a_node14"><a xlink:href="QueueFamily_8hpp.html" target="_top" xlink:title="lug/Graphics/Vulkan\l/API/QueueFamily.hpp">
<polygon fill="none" stroke="#000000" points="536,-246.5 536,-276.5 664,-276.5 664,-246.5 536,-246.5"/>
<text text-anchor="start" x="544" y="-264.5" font-family="Helvetica,sans-Serif" font-size="10.00" fill="#000000">lug/Graphics/Vulkan</text>
<text text-anchor="middle" x="600" y="-253.5" font-family="Helvetica,sans-Serif" font-size="10.00" fill="#000000">/API/QueueFamily.hpp</text>
</a>
</g>
</g>
<!-- Node12&#45;&gt;Node13 -->
<g id="edge16" class="edge">
<title>Node12&#45;&gt;Node13</title>
<path fill="none" stroke="#191970" d="M600,-313.2967C600,-305.5013 600,-295.7991 600,-286.9064"/>
<polygon fill="#191970" stroke="#191970" points="603.5001,-286.6431 600,-276.6432 596.5001,-286.6432 603.5001,-286.6431"/>
</g>
<!-- Node17 -->
<g id="node18" class="node">
<title>Node17</title>
<g id="a_node18"><a xlink:href="Device_8inl.html" target="_top" xlink:title="lug/Graphics/Vulkan\l/API/Device.inl">
<polygon fill="none" stroke="#000000" points="682,-246.5 682,-276.5 800,-276.5 800,-246.5 682,-246.5"/>
<text text-anchor="start" x="690" y="-264.5" font-family="Helvetica,sans-Serif" font-size="10.00" fill="#000000">lug/Graphics/Vulkan</text>
<text text-anchor="middle" x="741" y="-253.5" font-family="Helvetica,sans-Serif" font-size="10.00" fill="#000000">/API/Device.inl</text>
</a>
</g>
</g>
<!-- Node12&#45;&gt;Node17 -->
<g id="edge26" class="edge">
<title>Node12&#45;&gt;Node17</title>
<path fill="none" stroke="#191970" d="M631.6432,-313.4639C651.7299,-303.9191 677.9367,-291.4663 699.6597,-281.144"/>
<polygon fill="#191970" stroke="#191970" points="701.4446,-284.1709 708.9746,-276.7177 698.4403,-277.8484 701.4446,-284.1709"/>
</g>
<!-- Node13&#45;&gt;Node3 -->
<g id="edge18" class="edge">
<title>Node13&#45;&gt;Node3</title>
<path fill="none" stroke="#191970" d="M535.7535,-256.1172C466.8911,-249.1543 363.359,-234.8651 333,-210 322.8225,-201.6642 293.9785,-122.6557 280.7637,-85.3402"/>
<polygon fill="#191970" stroke="#191970" points="283.9626,-83.8866 277.3402,-75.6166 277.3599,-86.2114 283.9626,-83.8866"/>
</g>
<!-- Node13&#45;&gt;Node5 -->
<g id="edge19" class="edge">
<title>Node13&#45;&gt;Node5</title>
<path fill="none" stroke="#191970" d="M601.9237,-246.4341C604.4307,-229.5318 609.6413,-201.5321 619,-179 634.0083,-142.8661 660.1121,-105.2316 676.1417,-83.8005"/>
<polygon fill="#191970" stroke="#191970" points="679.0655,-85.7378 682.333,-75.6594 673.4937,-81.5004 679.0655,-85.7378"/>
</g>
<!-- Node13&#45;&gt;Node8 -->
<g id="edge17" class="edge">
<title>Node13&#45;&gt;Node8</title>
<path fill="none" stroke="#191970" d="M595.6196,-246.2317C592.7448,-236.0131 588.9798,-222.2436 586,-210 575.2637,-165.8861 564.5092,-113.7012 558.9254,-85.8569"/>
<polygon fill="#191970" stroke="#191970" points="562.3121,-84.9422 556.9255,-75.8188 555.447,-86.31 562.3121,-84.9422"/>
</g>
<!-- Node14 -->
<g id="node15" class="node">
<title>Node14</title>
<g id="a_node15"><a xlink:href="Vulkan_2API_2Queue_8hpp.html" target="_top" xlink:title="lug/Graphics/Vulkan\l/API/Queue.hpp">
<polygon fill="none" stroke="#000000" points="628,-179.5 628,-209.5 746,-209.5 746,-179.5 628,-179.5"/>
<text text-anchor="start" x="636" y="-197.5" font-family="Helvetica,sans-Serif" font-size="10.00" fill="#000000">lug/Graphics/Vulkan</text>
<text text-anchor="middle" x="687" y="-186.5" font-family="Helvetica,sans-Serif" font-size="10.00" fill="#000000">/API/Queue.hpp</text>
</a>
</g>
</g>
<!-- Node13&#45;&gt;Node14 -->
<g id="edge20" class="edge">
<title>Node13&#45;&gt;Node14</title>
<path fill="none" stroke="#191970" d="M619.7416,-246.2967C631.4213,-237.302 646.3973,-225.7687 659.2517,-215.8694"/>
<polygon fill="#191970" stroke="#191970" points="661.5491,-218.5177 667.3365,-209.6432 657.2781,-212.9717 661.5491,-218.5177"/>
</g>
<!-- Node16 -->
<g id="node17" class="node">
<title>Node16</title>
<g id="a_node17"><a xlink:href="QueueFamily_8inl.html" target="_top" xlink:title="lug/Graphics/Vulkan\l/API/QueueFamily.inl">
<polygon fill="none" stroke="#000000" points="764,-179.5 764,-209.5 886,-209.5 886,-179.5 764,-179.5"/>
<text text-anchor="start" x="772" y="-197.5" font-family="Helvetica,sans-Serif" font-size="10.00" fill="#000000">lug/Graphics/Vulkan</text>
<text text-anchor="middle" x="825" y="-186.5" font-family="Helvetica,sans-Serif" font-size="10.00" fill="#000000">/API/QueueFamily.inl</text>
</a>
</g>
</g>
<!-- Node13&#45;&gt;Node16 -->
<g id="edge24" class="edge">
<title>Node13&#45;&gt;Node16</title>
<path fill="none" stroke="#191970" d="M650.4944,-246.4639C684.2472,-236.4131 728.8292,-223.1375 764.4825,-212.5208"/>
<polygon fill="#191970" stroke="#191970" points="765.7002,-215.8101 774.2854,-209.6017 763.7024,-209.1013 765.7002,-215.8101"/>
</g>
<!-- Node14&#45;&gt;Node5 -->
<g id="edge21" class="edge">
<title>Node14&#45;&gt;Node5</title>
<path fill="none" stroke="#191970" d="M687.3559,-179.2548C687.8994,-155.9744 688.9363,-111.5607 689.5375,-85.8117"/>
<polygon fill="#191970" stroke="#191970" points="693.0383,-85.8148 689.7727,-75.7358 686.0402,-85.6513 693.0383,-85.8148"/>
</g>
<!-- Node14&#45;&gt;Node7 -->
<g id="edge22" class="edge">
<title>Node14&#45;&gt;Node7</title>
<path fill="none" stroke="#191970" d="M633.8126,-179.4639C598.1077,-169.3701 550.8984,-156.024 513.2641,-145.3848"/>
<polygon fill="#191970" stroke="#191970" points="513.9944,-141.9541 503.4194,-142.6017 512.0901,-148.6901 513.9944,-141.9541"/>
</g>
<!-- Node15 -->
<g id="node16" class="node">
<title>Node15</title>
<polygon fill="none" stroke="#bfbfbf" points="715,-118 715,-137 763,-137 763,-118 715,-118"/>
<text text-anchor="middle" x="739" y="-125" font-family="Helvetica,sans-Serif" font-size="10.00" fill="#000000">mutex</text>
</g>
<!-- Node14&#45;&gt;Node15 -->
<g id="edge23" class="edge">
<title>Node14&#45;&gt;Node15</title>
<path fill="none" stroke="#191970" d="M698.7996,-179.2967C706.6655,-169.1618 717.0327,-155.804 725.2688,-145.1921"/>
<polygon fill="#191970" stroke="#191970" points="728.2179,-147.1008 731.5842,-137.055 722.688,-142.8089 728.2179,-147.1008"/>
</g>
</g>
</svg>
        <g id="navigator" transform="translate(0 0)" fill="#404254">
                <rect fill="#f2f5e9" fill-opacity="0.5" stroke="#606060" stroke-width=".5" x="0" y="0" width="60" height="60"/>
                <use id="zoomplus" xlink:href="#zoomPlus" x="17" y="9" onmousedown="handleZoom(evt,'in')"/>
                <use id="zoomminus" xlink:href="#zoomMin" x="42" y="9" onmousedown="handleZoom(evt,'out')"/>
                <use id="reset" xlink:href="#resetDef" x="30" y="36" onmousedown="handleReset()"/>
                <g id="arrowUp" xlink:href="#dirArrow" transform="translate(30 24)" onmousedown="handlePan(0,-1)">
                  <use xlink:href="#rim" fill="#404040">
                        <set attributeName="fill" to="#808080" begin="arrowUp.mouseover" end="arrowUp.mouseout"/>
                  </use>
                  <path fill="none" stroke="white" stroke-width="1.5" d="M0,-3.0v7 M-2.5,-0.5L0,-3.0L2.5,-0.5"/>
                </g>
                <g id="arrowRight" xlink:href="#dirArrow" transform="rotate(90) translate(36 -43)" onmousedown="handlePan(1,0)">
                  <use xlink:href="#rim" fill="#404040">
                        <set attributeName="fill" to="#808080" begin="arrowRight.mouseover" end="arrowRight.mouseout"/>
                  </use>
                  <path fill="none" stroke="white" stroke-width="1.5" d="M0,-3.0v7 M-2.5,-0.5L0,-3.0L2.5,-0.5"/>
                </g>
                <g id="arrowDown" xlink:href="#dirArrow" transform="rotate(180) translate(-30 -48)" onmousedown="handlePan(0,1)">
                  <use xlink:href="#rim" fill="#404040">
                        <set attributeName="fill" to="#808080" begin="arrowDown.mouseover" end="arrowDown.mouseout"/>
                  </use>
                  <path fill="none" stroke="white" stroke-width="1.5" d="M0,-3.0v7 M-2.5,-0.5L0,-3.0L2.5,-0.5"/>
                </g>
                <g id="arrowLeft" xlink:href="#dirArrow" transform="rotate(270) translate(-36 17)" onmousedown="handlePan(-1,0)">
                  <use xlink:href="#rim" fill="#404040">
                        <set attributeName="fill" to="#808080" begin="arrowLeft.mouseover" end="arrowLeft.mouseout"/>
                  </use>
                  <path fill="none" stroke="white" stroke-width="1.5" d="M0,-3.0v7 M-2.5,-0.5L0,-3.0L2.5,-0.5"/>
                </g>
        </g>
        <svg viewBox="0 0 15 15" width="100%" height="30px" preserveAspectRatio="xMaxYMin meet">
         <g id="arrow_out" transform="scale(0.3 0.3)">
          <a xlink:href="Builder_2DescriptorPool_8cpp__incl_org.svg" target="_base">
           <rect id="button" ry="5" rx="5" y="6" x="6" height="38" width="38"
                fill="#f2f5e9" fill-opacity="0.5" stroke="#606060" stroke-width="1.0"/>
           <path id="arrow"
             d="M 11.500037,31.436501 C 11.940474,20.09759 22.043105,11.32322 32.158766,21.979434 L 37.068811,17.246167 C 37.068811,17.246167 37.088388,32 37.088388,32 L 22.160133,31.978069 C 22.160133,31.978069 26.997745,27.140456 26.997745,27.140456 C 18.528582,18.264221 13.291696,25.230495 11.500037,31.436501 z"
             style="fill:#404040;"/>
          </a>
         </g>
        </svg>
</svg>
