<?xml version="1.0" encoding="UTF-8" standalone="no"?>
<!DOCTYPE svg PUBLIC "-//W3C//DTD SVG 1.1//EN"
 "http://www.w3.org/Graphics/SVG/1.1/DTD/svg11.dtd">
<!-- Generated by graphviz version 2.40.1 (20161225.0304)
 -->
<!-- Title: src/lug/Graphics/Vulkan/API/Builder/RenderPass.cpp Pages: 1 -->
<svg width="886pt" height="419pt"
 viewBox="0.00 0.00 885.50 419.00" xmlns="http://www.w3.org/2000/svg" xmlns:xlink="http://www.w3.org/1999/xlink">
<g id="graph0" class="graph" transform="scale(1 1) rotate(0) translate(4 415)">
<title>src/lug/Graphics/Vulkan/API/Builder/RenderPass.cpp</title>
<!-- Node0 -->
<g id="node1" class="node">
<title>Node0</title>
<polygon fill="#bfbfbf" stroke="#000000" points="616.5,-380.5 616.5,-410.5 777.5,-410.5 777.5,-380.5 616.5,-380.5"/>
<text text-anchor="start" x="624.5" y="-398.5" font-family="Helvetica,sans-Serif" font-size="10.00" fill="#000000">src/lug/Graphics/Vulkan</text>
<text text-anchor="middle" x="697" y="-387.5" font-family="Helvetica,sans-Serif" font-size="10.00" fill="#000000">/API/Builder/RenderPass.cpp</text>
</g>
<!-- Node1 -->
<g id="node2" class="node">
<title>Node1</title>
<g id="a_node2"><a xlink:href="Builder_2RenderPass_8hpp.html" target="_top" xlink:title="lug/Graphics/Vulkan\l/API/Builder/RenderPass.hpp">
<polygon fill="none" stroke="#000000" points="10.5,-246.5 10.5,-276.5 171.5,-276.5 171.5,-246.5 10.5,-246.5"/>
<text text-anchor="start" x="18.5" y="-264.5" font-family="Helvetica,sans-Serif" font-size="10.00" fill="#000000">lug/Graphics/Vulkan</text>
<text text-anchor="middle" x="91" y="-253.5" font-family="Helvetica,sans-Serif" font-size="10.00" fill="#000000">/API/Builder/RenderPass.hpp</text>
</a>
</g>
</g>
<!-- Node0&#45;&gt;Node1 -->
<g id="edge1" class="edge">
<title>Node0&#45;&gt;Node1</title>
<path fill="none" stroke="#191970" d="M628.9553,-380.4538C515.5751,-355.3829 288.6638,-305.2078 168.9985,-278.7472"/>
<polygon fill="#191970" stroke="#191970" points="169.6853,-275.3146 159.1655,-276.5729 168.1739,-282.1495 169.6853,-275.3146"/>
</g>
<!-- Node9 -->
<g id="node10" class="node">
<title>Node9</title>
<polygon fill="none" stroke="#bfbfbf" points="605,-56.5 605,-75.5 653,-75.5 653,-56.5 605,-56.5"/>
<text text-anchor="middle" x="629" y="-63.5" font-family="Helvetica,sans-Serif" font-size="10.00" fill="#000000">vector</text>
</g>
<!-- Node0&#45;&gt;Node9 -->
<g id="edge14" class="edge">
<title>Node0&#45;&gt;Node9</title>
<path fill="none" stroke="#191970" d="M715.4505,-380.2829C740.9885,-357.3915 784,-311.4267 784,-261.5 784,-261.5 784,-261.5 784,-194.5 784,-131.9749 708.3252,-94.0894 662.7282,-76.9368"/>
<polygon fill="#191970" stroke="#191970" points="663.813,-73.6073 653.2188,-73.4945 661.4303,-80.1893 663.813,-73.6073"/>
</g>
<!-- Node12 -->
<g id="node13" class="node">
<title>Node12</title>
<polygon fill="none" stroke="#bfbfbf" points="812.5,-319 812.5,-338 877.5,-338 877.5,-319 812.5,-319"/>
<text text-anchor="middle" x="845" y="-326" font-family="Helvetica,sans-Serif" font-size="10.00" fill="#000000">algorithm</text>
</g>
<!-- Node0&#45;&gt;Node12 -->
<g id="edge13" class="edge">
<title>Node0&#45;&gt;Node12</title>
<path fill="none" stroke="#191970" d="M730.2141,-380.4639C755.494,-369.0196 790.0092,-353.3945 814.5739,-342.274"/>
<polygon fill="#191970" stroke="#191970" points="816.1188,-345.4166 823.7854,-338.1039 813.2319,-339.0396 816.1188,-345.4166"/>
</g>
<!-- Node13 -->
<g id="node14" class="node">
<title>Node13</title>
<g id="a_node14"><a xlink:href="Device_8hpp.html" target="_top" xlink:title="lug/Graphics/Vulkan\l/API/Device.hpp">
<polygon fill="none" stroke="#000000" points="551,-313.5 551,-343.5 669,-343.5 669,-313.5 551,-313.5"/>
<text text-anchor="start" x="559" y="-331.5" font-family="Helvetica,sans-Serif" font-size="10.00" fill="#000000">lug/Graphics/Vulkan</text>
<text text-anchor="middle" x="610" y="-320.5" font-family="Helvetica,sans-Serif" font-size="10.00" fill="#000000">/API/Device.hpp</text>
</a>
</g>
</g>
<!-- Node0&#45;&gt;Node13 -->
<g id="edge15" class="edge">
<title>Node0&#45;&gt;Node13</title>
<path fill="none" stroke="#191970" d="M677.2584,-380.2967C665.5787,-371.302 650.6027,-359.7687 637.7483,-349.8694"/>
<polygon fill="#191970" stroke="#191970" points="639.7219,-346.9717 629.6635,-343.6432 635.4509,-352.5177 639.7219,-346.9717"/>
</g>
<!-- Node2 -->
<g id="node3" class="node">
<title>Node2</title>
<polygon fill="none" stroke="#bfbfbf" points="0,-185 0,-204 32,-204 32,-185 0,-185"/>
<text text-anchor="middle" x="16" y="-192" font-family="Helvetica,sans-Serif" font-size="10.00" fill="#000000">list</text>
</g>
<!-- Node1&#45;&gt;Node2 -->
<g id="edge2" class="edge">
<title>Node1&#45;&gt;Node2</title>
<path fill="none" stroke="#191970" d="M73.9813,-246.2967C62.1825,-235.7564 46.4816,-221.7303 34.3943,-210.9323"/>
<polygon fill="#191970" stroke="#191970" points="36.4853,-208.107 26.6959,-204.055 31.8217,-213.3273 36.4853,-208.107"/>
</g>
<!-- Node3 -->
<g id="node4" class="node">
<title>Node3</title>
<g id="a_node4"><a xlink:href="RenderPass_8hpp.html" target="_top" xlink:title="lug/Graphics/Vulkan\l/API/RenderPass.hpp">
<polygon fill="none" stroke="#000000" points="50,-179.5 50,-209.5 172,-209.5 172,-179.5 50,-179.5"/>
<text text-anchor="start" x="58" y="-197.5" font-family="Helvetica,sans-Serif" font-size="10.00" fill="#000000">lug/Graphics/Vulkan</text>
<text text-anchor="middle" x="111" y="-186.5" font-family="Helvetica,sans-Serif" font-size="10.00" fill="#000000">/API/RenderPass.hpp</text>
</a>
</g>
</g>
<!-- Node1&#45;&gt;Node3 -->
<g id="edge3" class="edge">
<title>Node1&#45;&gt;Node3</title>
<path fill="none" stroke="#191970" d="M95.5383,-246.2967C97.9164,-238.3299 100.889,-228.3718 103.5907,-219.3213"/>
<polygon fill="#191970" stroke="#191970" points="106.973,-220.2265 106.4797,-209.6432 100.2655,-218.2242 106.973,-220.2265"/>
</g>
<!-- Node4 -->
<g id="node5" class="node">
<title>Node4</title>
<polygon fill="none" stroke="#bfbfbf" points="74.5,-118 74.5,-137 133.5,-137 133.5,-118 74.5,-118"/>
<text text-anchor="middle" x="104" y="-125" font-family="Helvetica,sans-Serif" font-size="10.00" fill="#000000">memory</text>
</g>
<!-- Node3&#45;&gt;Node4 -->
<g id="edge4" class="edge">
<title>Node3&#45;&gt;Node4</title>
<path fill="none" stroke="#191970" d="M109.4116,-179.2967C108.4163,-169.7699 107.1234,-157.3954 106.051,-147.1306"/>
<polygon fill="#191970" stroke="#191970" points="109.5185,-146.6371 104.9983,-137.055 102.5564,-147.3646 109.5185,-146.6371"/>
</g>
<!-- Node5 -->
<g id="node6" class="node">
<title>Node5</title>
<g id="a_node6"><a xlink:href="Graphics_2Export_8hpp.html" target="_top" xlink:title="lug/Graphics/Export.hpp">
<polygon fill="none" stroke="#000000" points="144,-56.5 144,-75.5 282,-75.5 282,-56.5 144,-56.5"/>
<text text-anchor="middle" x="213" y="-63.5" font-family="Helvetica,sans-Serif" font-size="10.00" fill="#000000">lug/Graphics/Export.hpp</text>
</a>
</g>
</g>
<!-- Node3&#45;&gt;Node5 -->
<g id="edge5" class="edge">
<title>Node3&#45;&gt;Node5</title>
<path fill="none" stroke="#191970" d="M123.1013,-179.2548C142.0778,-155.3481 178.7444,-109.1554 198.8909,-83.7747"/>
<polygon fill="#191970" stroke="#191970" points="201.7961,-85.7443 205.272,-75.7358 196.3134,-81.3922 201.7961,-85.7443"/>
</g>
<!-- Node7 -->
<g id="node8" class="node">
<title>Node7</title>
<g id="a_node8"><a xlink:href="Vulkan_8hpp.html" target="_top" xlink:title="lug/Graphics/Vulkan\l/Vulkan.hpp">
<polygon fill="none" stroke="#000000" points="340,-112.5 340,-142.5 458,-142.5 458,-112.5 340,-112.5"/>
<text text-anchor="start" x="348" y="-130.5" font-family="Helvetica,sans-Serif" font-size="10.00" fill="#000000">lug/Graphics/Vulkan</text>
<text text-anchor="middle" x="399" y="-119.5" font-family="Helvetica,sans-Serif" font-size="10.00" fill="#000000">/Vulkan.hpp</text>
</a>
</g>
</g>
<!-- Node3&#45;&gt;Node7 -->
<g id="edge7" class="edge">
<title>Node3&#45;&gt;Node7</title>
<path fill="none" stroke="#191970" d="M172.0774,-180.291C218.323,-169.5325 281.8775,-154.7473 329.9655,-143.5601"/>
<polygon fill="#191970" stroke="#191970" points="331.0336,-146.9052 339.9804,-141.2303 329.4474,-140.0872 331.0336,-146.9052"/>
</g>
<!-- Node6 -->
<g id="node7" class="node">
<title>Node6</title>
<g id="a_node7"><a xlink:href="Config_8hpp.html" target="_top" xlink:title="lug/Config.hpp">
<polygon fill="none" stroke="#000000" points="168.5,-.5 168.5,-19.5 257.5,-19.5 257.5,-.5 168.5,-.5"/>
<text text-anchor="middle" x="213" y="-7.5" font-family="Helvetica,sans-Serif" font-size="10.00" fill="#000000">lug/Config.hpp</text>
</a>
</g>
</g>
<!-- Node5&#45;&gt;Node6 -->
<g id="edge6" class="edge">
<title>Node5&#45;&gt;Node6</title>
<path fill="none" stroke="#191970" d="M213,-56.2455C213,-48.9382 213,-38.6944 213,-29.7046"/>
<polygon fill="#191970" stroke="#191970" points="216.5001,-29.6426 213,-19.6427 209.5001,-29.6427 216.5001,-29.6426"/>
</g>
<!-- Node7&#45;&gt;Node5 -->
<g id="edge11" class="edge">
<title>Node7&#45;&gt;Node5</title>
<path fill="none" stroke="#191970" d="M353.4993,-112.4554C322.1925,-102.104 281.0691,-88.5067 251.4111,-78.7004"/>
<polygon fill="#191970" stroke="#191970" points="252.4166,-75.3466 241.8234,-75.5303 250.2191,-81.9927 252.4166,-75.3466"/>
</g>
<!-- Node8 -->
<g id="node9" class="node">
<title>Node8</title>
<polygon fill="none" stroke="#bfbfbf" points="491.5,-56.5 491.5,-75.5 586.5,-75.5 586.5,-56.5 491.5,-56.5"/>
<text text-anchor="middle" x="539" y="-63.5" font-family="Helvetica,sans-Serif" font-size="10.00" fill="#000000">unordered_map</text>
</g>
<!-- Node7&#45;&gt;Node8 -->
<g id="edge8" class="edge">
<title>Node7&#45;&gt;Node8</title>
<path fill="none" stroke="#191970" d="M433.2479,-112.4554C456.0949,-102.419 485.8879,-89.3314 508.0267,-79.6061"/>
<polygon fill="#191970" stroke="#191970" points="509.5571,-82.7567 517.305,-75.5303 506.7417,-76.3478 509.5571,-82.7567"/>
</g>
<!-- Node7&#45;&gt;Node9 -->
<g id="edge9" class="edge">
<title>Node7&#45;&gt;Node9</title>
<path fill="none" stroke="#191970" d="M458.2102,-112.6552C495.1129,-103.2566 543.7937,-90.5945 595.244,-76.1444"/>
<polygon fill="#191970" stroke="#191970" points="596.2068,-79.5095 604.8809,-73.4259 594.3062,-72.7724 596.2068,-79.5095"/>
</g>
<!-- Node10 -->
<g id="node11" class="node">
<title>Node10</title>
<polygon fill="none" stroke="#bfbfbf" points="300,-56.5 300,-75.5 358,-75.5 358,-56.5 300,-56.5"/>
<text text-anchor="middle" x="329" y="-63.5" font-family="Helvetica,sans-Serif" font-size="10.00" fill="#000000">ostream</text>
</g>
<!-- Node7&#45;&gt;Node10 -->
<g id="edge10" class="edge">
<title>Node7&#45;&gt;Node10</title>
<path fill="none" stroke="#191970" d="M381.6966,-112.2977C371.4738,-103.3163 358.5177,-91.9334 348.0104,-82.702"/>
<polygon fill="#191970" stroke="#191970" points="350.0305,-79.8178 340.2079,-75.8469 345.4103,-85.0766 350.0305,-79.8178"/>
</g>
<!-- Node11 -->
<g id="node12" class="node">
<title>Node11</title>
<polygon fill="none" stroke="#bfbfbf" points="376.5,-56.5 376.5,-75.5 473.5,-75.5 473.5,-56.5 376.5,-56.5"/>
<text text-anchor="middle" x="425" y="-63.5" font-family="Helvetica,sans-Serif" font-size="10.00" fill="#000000">vulkan/vulkan.h</text>
</g>
<!-- Node7&#45;&gt;Node11 -->
<g id="edge12" class="edge">
<title>Node7&#45;&gt;Node11</title>
<path fill="none" stroke="#191970" d="M405.427,-112.2977C408.8857,-104.1166 413.1867,-93.943 416.8754,-85.2179"/>
<polygon fill="#191970" stroke="#191970" points="420.1668,-86.4205 420.8371,-75.8469 413.7193,-83.6947 420.1668,-86.4205"/>
</g>
<!-- Node13&#45;&gt;Node5 -->
<g id="edge16" class="edge">
<title>Node13&#45;&gt;Node5</title>
<path fill="none" stroke="#191970" d="M550.8511,-317.6275C455.4406,-298.8897 273.8976,-257.8805 231,-210 200.0054,-175.4052 204.3174,-115.956 209.1581,-85.3921"/>
<polygon fill="#191970" stroke="#191970" points="212.6057,-85.9949 210.901,-75.5381 205.7127,-84.7756 212.6057,-85.9949"/>
</g>
<!-- Node13&#45;&gt;Node7 -->
<g id="edge26" class="edge">
<title>Node13&#45;&gt;Node7</title>
<path fill="none" stroke="#191970" d="M606.0581,-313.0949C597.6437,-283.1715 575.1659,-216.815 533,-179 514.6544,-162.5474 490.4907,-151.1213 467.7399,-143.2932"/>
<polygon fill="#191970" stroke="#191970" points="468.6894,-139.9216 458.0971,-140.1545 466.5227,-146.5779 468.6894,-139.9216"/>
</g>
<!-- Node14 -->
<g id="node15" class="node">
<title>Node14</title>
<g id="a_node15"><a xlink:href="QueueFamily_8hpp.html" target="_top" xlink:title="lug/Graphics/Vulkan\l/API/QueueFamily.hpp">
<polygon fill="none" stroke="#000000" points="419,-246.5 419,-276.5 547,-276.5 547,-246.5 419,-246.5"/>
<text text-anchor="start" x="427" y="-264.5" font-family="Helvetica,sans-Serif" font-size="10.00" fill="#000000">lug/Graphics/Vulkan</text>
<text text-anchor="middle" x="483" y="-253.5" font-family="Helvetica,sans-Serif" font-size="10.00" fill="#000000">/API/QueueFamily.hpp</text>
</a>
</g>
</g>
<!-- Node13&#45;&gt;Node14 -->
<g id="edge17" class="edge">
<title>Node13&#45;&gt;Node14</title>
<path fill="none" stroke="#191970" d="M581.4987,-313.4639C563.5687,-304.0047 540.2247,-291.6894 520.763,-281.4222"/>
<polygon fill="#191970" stroke="#191970" points="522.3234,-278.2882 511.8456,-276.7177 519.0571,-284.4795 522.3234,-278.2882"/>
</g>
<!-- Node18 -->
<g id="node19" class="node">
<title>Node18</title>
<g id="a_node19"><a xlink:href="Device_8inl.html" target="_top" xlink:title="lug/Graphics/Vulkan\l/API/Device.inl">
<polygon fill="none" stroke="#000000" points="638,-246.5 638,-276.5 756,-276.5 756,-246.5 638,-246.5"/>
<text text-anchor="start" x="646" y="-264.5" font-family="Helvetica,sans-Serif" font-size="10.00" fill="#000000">lug/Graphics/Vulkan</text>
<text text-anchor="middle" x="697" y="-253.5" font-family="Helvetica,sans-Serif" font-size="10.00" fill="#000000">/API/Device.inl</text>
</a>
</g>
</g>
<!-- Node13&#45;&gt;Node18 -->
<g id="edge27" class="edge">
<title>Node13&#45;&gt;Node18</title>
<path fill="none" stroke="#191970" d="M629.7416,-313.2967C641.4213,-304.302 656.3973,-292.7687 669.2517,-282.8694"/>
<polygon fill="#191970" stroke="#191970" points="671.5491,-285.5177 677.3365,-276.6432 667.2781,-279.9717 671.5491,-285.5177"/>
</g>
<!-- Node14&#45;&gt;Node5 -->
<g id="edge20" class="edge">
<title>Node14&#45;&gt;Node5</title>
<path fill="none" stroke="#191970" d="M418.9567,-254.1174C360.6564,-246.1474 280.2428,-231.616 257,-210 221.7095,-177.1795 214.4288,-116.9491 213.1176,-85.8089"/>
<polygon fill="#191970" stroke="#191970" points="216.6152,-85.6655 212.8638,-75.7571 209.6175,-85.8422 216.6152,-85.6655"/>
</g>
<!-- Node14&#45;&gt;Node8 -->
<g id="edge18" class="edge">
<title>Node14&#45;&gt;Node8</title>
<path fill="none" stroke="#191970" d="M503.7871,-246.3056C514.5876,-237.1256 526.7969,-224.4245 533,-210 550.8023,-168.6031 546.5265,-114.1853 542.4257,-85.5541"/>
<polygon fill="#191970" stroke="#191970" points="545.8718,-84.9375 540.854,-75.6063 538.9576,-86.03 545.8718,-84.9375"/>
</g>
<!-- Node14&#45;&gt;Node9 -->
<g id="edge19" class="edge">
<title>Node14&#45;&gt;Node9</title>
<path fill="none" stroke="#191970" d="M508.0649,-246.3178C521.9163,-237.0551 538.7475,-224.269 551,-210 584.8179,-170.6166 610.0728,-114.164 621.7775,-85.0219"/>
<polygon fill="#191970" stroke="#191970" points="625.0785,-86.1908 625.4674,-75.6031 618.5608,-83.6374 625.0785,-86.1908"/>
</g>
<!-- Node15 -->
<g id="node16" class="node">
<title>Node15</title>
<g id="a_node16"><a xlink:href="Vulkan_2API_2Queue_8hpp.html" target="_top" xlink:title="lug/Graphics/Vulkan\l/API/Queue.hpp">
<polygon fill="none" stroke="#000000" points="406,-179.5 406,-209.5 524,-209.5 524,-179.5 406,-179.5"/>
<text text-anchor="start" x="414" y="-197.5" font-family="Helvetica,sans-Serif" font-size="10.00" fill="#000000">lug/Graphics/Vulkan</text>
<text text-anchor="middle" x="465" y="-186.5" font-family="Helvetica,sans-Serif" font-size="10.00" fill="#000000">/API/Queue.hpp</text>
</a>
</g>
</g>
<!-- Node14&#45;&gt;Node15 -->
<g id="edge21" class="edge">
<title>Node14&#45;&gt;Node15</title>
<path fill="none" stroke="#191970" d="M478.9155,-246.2967C476.7752,-238.3299 474.0999,-228.3718 471.6684,-219.3213"/>
<polygon fill="#191970" stroke="#191970" points="475.0431,-218.3926 469.0683,-209.6432 468.2828,-220.2088 475.0431,-218.3926"/>
</g>
<!-- Node17 -->
<g id="node18" class="node">
<title>Node17</title>
<g id="a_node18"><a xlink:href="QueueFamily_8inl.html" target="_top" xlink:title="lug/Graphics/Vulkan\l/API/QueueFamily.inl">
<polygon fill="none" stroke="#000000" points="266,-179.5 266,-209.5 388,-209.5 388,-179.5 266,-179.5"/>
<text text-anchor="start" x="274" y="-197.5" font-family="Helvetica,sans-Serif" font-size="10.00" fill="#000000">lug/Graphics/Vulkan</text>
<text text-anchor="middle" x="327" y="-186.5" font-family="Helvetica,sans-Serif" font-size="10.00" fill="#000000">/API/QueueFamily.inl</text>
</a>
</g>
</g>
<!-- Node14&#45;&gt;Node17 -->
<g id="edge25" class="edge">
<title>Node14&#45;&gt;Node17</title>
<path fill="none" stroke="#191970" d="M447.9906,-246.4639C425.3887,-236.7567 395.7832,-224.0415 371.5153,-213.6188"/>
<polygon fill="#191970" stroke="#191970" points="372.7318,-210.3321 362.1621,-209.6017 369.9693,-216.764 372.7318,-210.3321"/>
</g>
<!-- Node15&#45;&gt;Node5 -->
<g id="edge22" class="edge">
<title>Node15&#45;&gt;Node5</title>
<path fill="none" stroke="#191970" d="M418.684,-179.4226C392.3822,-170.1936 359.1834,-157.4065 331,-143 295.4268,-124.8161 257.2162,-98.4943 234.2119,-81.8191"/>
<polygon fill="#191970" stroke="#191970" points="236.0324,-78.8142 225.8964,-75.73 231.8968,-84.4619 236.0324,-78.8142"/>
</g>
<!-- Node15&#45;&gt;Node7 -->
<g id="edge23" class="edge">
<title>Node15&#45;&gt;Node7</title>
<path fill="none" stroke="#191970" d="M450.0236,-179.2967C441.5007,-170.6446 430.664,-159.6438 421.1717,-150.0076"/>
<polygon fill="#191970" stroke="#191970" points="423.4283,-147.311 413.9172,-142.6432 418.4415,-152.2234 423.4283,-147.311"/>
</g>
<!-- Node16 -->
<g id="node17" class="node">
<title>Node16</title>
<polygon fill="none" stroke="#bfbfbf" points="476,-118 476,-137 524,-137 524,-118 476,-118"/>
<text text-anchor="middle" x="500" y="-125" font-family="Helvetica,sans-Serif" font-size="10.00" fill="#000000">mutex</text>
</g>
<!-- Node15&#45;&gt;Node16 -->
<g id="edge24" class="edge">
<title>Node15&#45;&gt;Node16</title>
<path fill="none" stroke="#191970" d="M472.942,-179.2967C478.0775,-169.4658 484.7971,-156.6026 490.2551,-146.1545"/>
<polygon fill="#191970" stroke="#191970" points="493.4806,-147.5391 495.0086,-137.055 487.2761,-144.2979 493.4806,-147.5391"/>
</g>
</g>
</svg>
