<?xml version="1.0" encoding="UTF-8" standalone="no"?>
<!DOCTYPE svg PUBLIC "-//W3C//DTD SVG 1.1//EN"
 "http://www.w3.org/Graphics/SVG/1.1/DTD/svg11.dtd">
<!-- Generated by graphviz version 2.40.1 (20161225.0304)
 -->
<!-- Title: include/lug/Graphics/Vulkan/API/Builder/Swapchain.inl Pages: 1 -->
<svg width="320pt" height="173pt"
 viewBox="0.00 0.00 319.50 173.00" xmlns="http://www.w3.org/2000/svg" xmlns:xlink="http://www.w3.org/1999/xlink">
<g id="graph0" class="graph" transform="scale(1 1) rotate(0) translate(4 169)">
<title>include/lug/Graphics/Vulkan/API/Builder/Swapchain.inl</title>
<!-- Node1 -->
<g id="node1" class="node">
<title>Node1</title>
<polygon fill="#bfbfbf" stroke="#000000" points="65.5,-134.5 65.5,-164.5 254.5,-164.5 254.5,-134.5 65.5,-134.5"/>
<text text-anchor="start" x="73.5" y="-152.5" font-family="Helvetica,sans-Serif" font-size="10.00" fill="#000000">include/lug/Graphics</text>
<text text-anchor="middle" x="160" y="-141.5" font-family="Helvetica,sans-Serif" font-size="10.00" fill="#000000">/Vulkan/API/Builder/Swapchain.inl</text>
</g>
<!-- Node2 -->
<g id="node2" class="node">
<title>Node2</title>
<g id="a_node2"><a xlink:href="Builder_2Swapchain_8hpp.html" target="_top" xlink:title="include/lug/Graphics\l/Vulkan/API/Builder/Swapchain.hpp">
<polygon fill="none" stroke="#000000" points="62.5,-67.5 62.5,-97.5 257.5,-97.5 257.5,-67.5 62.5,-67.5"/>
<text text-anchor="start" x="70.5" y="-85.5" font-family="Helvetica,sans-Serif" font-size="10.00" fill="#000000">include/lug/Graphics</text>
<text text-anchor="middle" x="160" y="-74.5" font-family="Helvetica,sans-Serif" font-size="10.00" fill="#000000">/Vulkan/API/Builder/Swapchain.hpp</text>
</a>
</g>
</g>
<!-- Node1&#45;&gt;Node2 -->
<g id="edge1" class="edge">
<title>Node1&#45;&gt;Node2</title>
<path fill="none" stroke="#191970" d="M160,-124.0249C160,-115.128 160,-105.4287 160,-97.6432"/>
<polygon fill="#191970" stroke="#191970" points="156.5001,-124.2966 160,-134.2967 163.5001,-124.2967 156.5001,-124.2966"/>
</g>
<!-- Node3 -->
<g id="node3" class="node">
<title>Node3</title>
<g id="a_node3"><a xlink:href="Builder_2Swapchain_8cpp.html" target="_top" xlink:title="src/lug/Graphics/Vulkan\l/API/Builder/Swapchain.cpp">
<polygon fill="none" stroke="#000000" points="0,-.5 0,-30.5 156,-30.5 156,-.5 0,-.5"/>
<text text-anchor="start" x="8" y="-18.5" font-family="Helvetica,sans-Serif" font-size="10.00" fill="#000000">src/lug/Graphics/Vulkan</text>
<text text-anchor="middle" x="78" y="-7.5" font-family="Helvetica,sans-Serif" font-size="10.00" fill="#000000">/API/Builder/Swapchain.cpp</text>
</a>
</g>
</g>
<!-- Node2&#45;&gt;Node3 -->
<g id="edge2" class="edge">
<title>Node2&#45;&gt;Node3</title>
<path fill="none" stroke="#191970" d="M133.4183,-60.7808C121.3722,-50.9383 107.4233,-39.541 96.5334,-30.6432"/>
<polygon fill="#191970" stroke="#191970" points="131.4346,-63.6797 141.3929,-67.2967 135.8637,-58.2591 131.4346,-63.6797"/>
</g>
<!-- Node4 -->
<g id="node4" class="node">
<title>Node4</title>
<g id="a_node4"><a xlink:href="Graphics_2Vulkan_2Render_2Window_8cpp.html" target="_top" xlink:title="src/lug/Graphics/Vulkan\l/Render/Window.cpp">
<polygon fill="none" stroke="#000000" points="174.5,-.5 174.5,-30.5 311.5,-30.5 311.5,-.5 174.5,-.5"/>
<text text-anchor="start" x="182.5" y="-18.5" font-family="Helvetica,sans-Serif" font-size="10.00" fill="#000000">src/lug/Graphics/Vulkan</text>
<text text-anchor="middle" x="243" y="-7.5" font-family="Helvetica,sans-Serif" font-size="10.00" fill="#000000">/Render/Window.cpp</text>
</a>
</g>
</g>
<!-- Node2&#45;&gt;Node4 -->
<g id="edge3" class="edge">
<title>Node2&#45;&gt;Node4</title>
<path fill="none" stroke="#191970" d="M186.9058,-60.7808C199.0988,-50.9383 213.2179,-39.541 224.2405,-30.6432"/>
<polygon fill="#191970" stroke="#191970" points="184.4168,-58.292 178.834,-67.2967 188.8136,-63.7389 184.4168,-58.292"/>
</g>
</g>
</svg>
