<?xml version="1.0" encoding="UTF-8" standalone="no"?>
<!DOCTYPE svg PUBLIC "-//W3C//DTD SVG 1.1//EN"
 "http://www.w3.org/Graphics/SVG/1.1/DTD/svg11.dtd">
<!-- Generated by graphviz version 2.40.1 (20161225.0304)
 -->
<!-- Title: src/lug/Graphics/Vulkan/API/Builder/DescriptorSetLayout.cpp Pages: 1 -->
<!--zoomable 441 -->
<svg id="main" version="1.1" xmlns="http://www.w3.org/2000/svg" xmlns:xlink="http://www.w3.org/1999/xlink" xml:space="preserve" onload="init(evt)">
<style type="text/css"><![CDATA[
.edge:hover path { stroke: red; }
.edge:hover polygon { stroke: red; fill: red; }
]]></style>
<script type="text/javascript"><![CDATA[
var edges = document.getElementsByTagName('g');
if (edges && edges.length) {
  for (var i=0;i<edges.length;i++) {
    if (edges[i].id.substr(0,4)=='edge') {
      edges[i].setAttribute('class','edge');
    }
  }
}
]]></script>
        <defs>
                <circle id="rim" cx="0" cy="0" r="7"/>
                <circle id="rim2" cx="0" cy="0" r="3.5"/>
                <g id="zoomPlus">
                        <use xlink:href="#rim" fill="#404040">
                                <set attributeName="fill" to="#808080" begin="zoomplus.mouseover" end="zoomplus.mouseout"/>
                        </use>
                        <path d="M-4,0h8M0,-4v8" fill="none" stroke="white" stroke-width="1.5" pointer-events="none"/>
                </g>
                <g id="zoomMin">
                        <use xlink:href="#rim" fill="#404040">
                                <set attributeName="fill" to="#808080" begin="zoomminus.mouseover" end="zoomminus.mouseout"/>
                        </use>
                        <path d="M-4,0h8" fill="none" stroke="white" stroke-width="1.5" pointer-events="none"/>
                </g>
                <g id="dirArrow">
                        <path fill="none" stroke="white" stroke-width="1.5" d="M0,-3.0v7 M-2.5,-0.5L0,-3.0L2.5,-0.5"/>
                </g>
               <g id="resetDef">
                       <use xlink:href="#rim2" fill="#404040">
                               <set attributeName="fill" to="#808080" begin="reset.mouseover" end="reset.mouseout"/>
                       </use>
               </g>
        </defs>

<script type="text/javascript">
var viewWidth = 895;
var viewHeight = 441;
var sectionId = 'dynsection-0';
</script>
<script xlink:href="svgpan.js"/>
<svg id="graph" class="graph">
<g id="viewport">
<title>src/lug/Graphics/Vulkan/API/Builder/DescriptorSetLayout.cpp</title>
<!-- Node0 -->
<g id="node1" class="node">
<title>Node0</title>
<polygon fill="#bfbfbf" stroke="#000000" points="261,-402.5 261,-432.5 465,-432.5 465,-402.5 261,-402.5"/>
<text text-anchor="start" x="269" y="-420.5" font-family="Helvetica,sans-Serif" font-size="10.00" fill="#000000">src/lug/Graphics/Vulkan</text>
<text text-anchor="middle" x="363" y="-409.5" font-family="Helvetica,sans-Serif" font-size="10.00" fill="#000000">/API/Builder/DescriptorSetLayout.cpp</text>
</g>
<!-- Node1 -->
<g id="node2" class="node">
<title>Node1</title>
<g id="a_node2"><a xlink:href="Builder_2DescriptorSetLayout_8hpp.html" target="_top" xlink:title="lug/Graphics/Vulkan\l/API/Builder/DescriptorSet\lLayout.hpp">
<polygon fill="none" stroke="#000000" points="214,-257.5 214,-298.5 364,-298.5 364,-257.5 214,-257.5"/>
<text text-anchor="start" x="222" y="-286.5" font-family="Helvetica,sans-Serif" font-size="10.00" fill="#000000">lug/Graphics/Vulkan</text>
<text text-anchor="start" x="222" y="-275.5" font-family="Helvetica,sans-Serif" font-size="10.00" fill="#000000">/API/Builder/DescriptorSet</text>
<text text-anchor="middle" x="289" y="-264.5" font-family="Helvetica,sans-Serif" font-size="10.00" fill="#000000">Layout.hpp</text>
</a>
</g>
</g>
<!-- Node0&#45;&gt;Node1 -->
<g id="edge1" class="edge">
<title>Node0&#45;&gt;Node1</title>
<path fill="none" stroke="#191970" d="M354.9398,-402.3055C342.9066,-379.6212 320.0161,-336.4695 304.6291,-307.4629"/>
<polygon fill="#191970" stroke="#191970" points="307.6983,-305.7799 299.9202,-298.586 301.5145,-309.0603 307.6983,-305.7799"/>
</g>
<!-- Node13 -->
<g id="node14" class="node">
<title>Node13</title>
<g id="a_node14"><a xlink:href="Device_8hpp.html" target="_top" xlink:title="lug/Graphics/Vulkan\l/API/Device.hpp">
<polygon fill="none" stroke="#000000" points="379,-335.5 379,-365.5 497,-365.5 497,-335.5 379,-335.5"/>
<text text-anchor="start" x="387" y="-353.5" font-family="Helvetica,sans-Serif" font-size="10.00" fill="#000000">lug/Graphics/Vulkan</text>
<text text-anchor="middle" x="438" y="-342.5" font-family="Helvetica,sans-Serif" font-size="10.00" fill="#000000">/API/Device.hpp</text>
</a>
</g>
</g>
<!-- Node0&#45;&gt;Node13 -->
<g id="edge16" class="edge">
<title>Node0&#45;&gt;Node13</title>
<path fill="none" stroke="#191970" d="M380.0187,-402.2967C389.8956,-393.4733 402.5069,-382.2072 413.4438,-372.4368"/>
<polygon fill="#191970" stroke="#191970" points="415.9228,-374.9155 421.0487,-365.6432 411.2593,-369.6952 415.9228,-374.9155"/>
</g>
<!-- Node2 -->
<g id="node3" class="node">
<title>Node2</title>
<polygon fill="none" stroke="#bfbfbf" points="98.5,-118 98.5,-137 157.5,-137 157.5,-118 98.5,-118"/>
<text text-anchor="middle" x="128" y="-125" font-family="Helvetica,sans-Serif" font-size="10.00" fill="#000000">memory</text>
</g>
<!-- Node1&#45;&gt;Node2 -->
<g id="edge2" class="edge">
<title>Node1&#45;&gt;Node2</title>
<path fill="none" stroke="#191970" d="M248.6471,-257.4625C231.6658,-247.7316 212.3331,-235.1378 197,-221 172.5277,-198.4354 150.9377,-166.1162 138.6808,-145.9904"/>
<polygon fill="#191970" stroke="#191970" points="141.5633,-143.99 133.4418,-137.1862 135.5478,-147.5696 141.5633,-143.99"/>
</g>
<!-- Node3 -->
<g id="node4" class="node">
<title>Node3</title>
<polygon fill="none" stroke="#bfbfbf" points="698,-56.5 698,-75.5 746,-75.5 746,-56.5 698,-56.5"/>
<text text-anchor="middle" x="722" y="-63.5" font-family="Helvetica,sans-Serif" font-size="10.00" fill="#000000">vector</text>
</g>
<!-- Node1&#45;&gt;Node3 -->
<g id="edge3" class="edge">
<title>Node1&#45;&gt;Node3</title>
<path fill="none" stroke="#191970" d="M338.3436,-257.4153C387.4947,-237.0444 465.1989,-205.1996 533,-179 576.2823,-162.2749 590.8979,-166.3433 631,-143 634.9945,-140.6748 677.7371,-104.0905 703.1971,-82.1989"/>
<polygon fill="#191970" stroke="#191970" points="705.4879,-84.8452 710.785,-75.6696 700.9221,-79.5391 705.4879,-84.8452"/>
</g>
<!-- Node4 -->
<g id="node5" class="node">
<title>Node4</title>
<g id="a_node5"><a xlink:href="DescriptorSetLayout_8hpp.html" target="_top" xlink:title="lug/Graphics/Vulkan\l/API/DescriptorSetLayout.hpp">
<polygon fill="none" stroke="#000000" points="206.5,-185 206.5,-215 371.5,-215 371.5,-185 206.5,-185"/>
<text text-anchor="start" x="214.5" y="-203" font-family="Helvetica,sans-Serif" font-size="10.00" fill="#000000">lug/Graphics/Vulkan</text>
<text text-anchor="middle" x="289" y="-192" font-family="Helvetica,sans-Serif" font-size="10.00" fill="#000000">/API/DescriptorSetLayout.hpp</text>
</a>
</g>
</g>
<!-- Node1&#45;&gt;Node4 -->
<g id="edge4" class="edge">
<title>Node1&#45;&gt;Node4</title>
<path fill="none" stroke="#191970" d="M289,-257.0974C289,-247.3178 289,-235.5873 289,-225.3097"/>
<polygon fill="#191970" stroke="#191970" points="292.5001,-225.2678 289,-215.2679 285.5001,-225.2679 292.5001,-225.2678"/>
</g>
<!-- Node12 -->
<g id="node13" class="node">
<title>Node12</title>
<g id="a_node13"><a xlink:href="Builder_2DescriptorSetLayout_8inl.html" target="_top" xlink:title="lug/Graphics/Vulkan\l/API/Builder/DescriptorSet\lLayout.inl">
<polygon fill="none" stroke="#000000" points="0,-179.5 0,-220.5 150,-220.5 150,-179.5 0,-179.5"/>
<text text-anchor="start" x="8" y="-208.5" font-family="Helvetica,sans-Serif" font-size="10.00" fill="#000000">lug/Graphics/Vulkan</text>
<text text-anchor="start" x="8" y="-197.5" font-family="Helvetica,sans-Serif" font-size="10.00" fill="#000000">/API/Builder/DescriptorSet</text>
<text text-anchor="middle" x="75" y="-186.5" font-family="Helvetica,sans-Serif" font-size="10.00" fill="#000000">Layout.inl</text>
</a>
</g>
</g>
<!-- Node1&#45;&gt;Node12 -->
<g id="edge15" class="edge">
<title>Node1&#45;&gt;Node12</title>
<path fill="none" stroke="#191970" d="M232.4941,-257.4044C204.4578,-247.1855 170.4203,-234.7794 141.1713,-224.1185"/>
<polygon fill="#191970" stroke="#191970" points="142.0452,-220.7118 131.4512,-220.5757 139.648,-227.2886 142.0452,-220.7118"/>
</g>
<!-- Node4&#45;&gt;Node2 -->
<g id="edge5" class="edge">
<title>Node4&#45;&gt;Node2</title>
<path fill="none" stroke="#191970" d="M255.6407,-184.978C227.1334,-172.1408 186.4482,-153.8198 158.7258,-141.3361"/>
<polygon fill="#191970" stroke="#191970" points="160.0571,-138.0972 149.5018,-137.1825 157.1829,-144.4799 160.0571,-138.0972"/>
</g>
<!-- Node5 -->
<g id="node6" class="node">
<title>Node5</title>
<g id="a_node6"><a xlink:href="Graphics_2Export_8hpp.html" target="_top" xlink:title="lug/Graphics/Export.hpp">
<polygon fill="none" stroke="#000000" points="350,-56.5 350,-75.5 488,-75.5 488,-56.5 350,-56.5"/>
<text text-anchor="middle" x="419" y="-63.5" font-family="Helvetica,sans-Serif" font-size="10.00" fill="#000000">lug/Graphics/Export.hpp</text>
</a>
</g>
</g>
<!-- Node4&#45;&gt;Node5 -->
<g id="edge6" class="edge">
<title>Node4&#45;&gt;Node5</title>
<path fill="none" stroke="#191970" d="M303.6599,-184.889C328.0921,-159.7051 376.9736,-109.3195 402.5471,-82.9592"/>
<polygon fill="#191970" stroke="#191970" points="405.2315,-85.2187 409.6825,-75.6042 400.2073,-80.3445 405.2315,-85.2187"/>
</g>
<!-- Node7 -->
<g id="node8" class="node">
<title>Node7</title>
<g id="a_node8"><a xlink:href="Vulkan_8hpp.html" target="_top" xlink:title="lug/Graphics/Vulkan\l/Vulkan.hpp">
<polygon fill="none" stroke="#000000" points="504,-112.5 504,-142.5 622,-142.5 622,-112.5 504,-112.5"/>
<text text-anchor="start" x="512" y="-130.5" font-family="Helvetica,sans-Serif" font-size="10.00" fill="#000000">lug/Graphics/Vulkan</text>
<text text-anchor="middle" x="563" y="-119.5" font-family="Helvetica,sans-Serif" font-size="10.00" fill="#000000">/Vulkan.hpp</text>
</a>
</g>
</g>
<!-- Node4&#45;&gt;Node7 -->
<g id="edge8" class="edge">
<title>Node4&#45;&gt;Node7</title>
<path fill="none" stroke="#191970" d="M345.773,-184.978C389.5835,-173.3857 450.2943,-157.3218 496.3992,-145.1225"/>
<polygon fill="#191970" stroke="#191970" points="497.5278,-148.4444 506.2998,-142.5028 495.7371,-141.6773 497.5278,-148.4444"/>
</g>
<!-- Node11 -->
<g id="node12" class="node">
<title>Node11</title>
<g id="a_node12"><a xlink:href="DescriptorSetLayout_8inl.html" target="_top" xlink:title="lug/Graphics/Vulkan\l/API/DescriptorSetLayout.inl">
<polygon fill="none" stroke="#000000" points="175.5,-112.5 175.5,-142.5 334.5,-142.5 334.5,-112.5 175.5,-112.5"/>
<text text-anchor="start" x="183.5" y="-130.5" font-family="Helvetica,sans-Serif" font-size="10.00" fill="#000000">lug/Graphics/Vulkan</text>
<text text-anchor="middle" x="255" y="-119.5" font-family="Helvetica,sans-Serif" font-size="10.00" fill="#000000">/API/DescriptorSetLayout.inl</text>
</a>
</g>
</g>
<!-- Node4&#45;&gt;Node11 -->
<g id="edge14" class="edge">
<title>Node4&#45;&gt;Node11</title>
<path fill="none" stroke="#191970" d="M281.9552,-184.978C277.442,-175.3542 271.4834,-162.6485 266.3165,-151.6307"/>
<polygon fill="#191970" stroke="#191970" points="269.4506,-150.0706 262.0358,-142.5028 263.1129,-153.0427 269.4506,-150.0706"/>
</g>
<!-- Node6 -->
<g id="node7" class="node">
<title>Node6</title>
<g id="a_node7"><a xlink:href="Config_8hpp.html" target="_top" xlink:title="lug/Config.hpp">
<polygon fill="none" stroke="#000000" points="374.5,-.5 374.5,-19.5 463.5,-19.5 463.5,-.5 374.5,-.5"/>
<text text-anchor="middle" x="419" y="-7.5" font-family="Helvetica,sans-Serif" font-size="10.00" fill="#000000">lug/Config.hpp</text>
</a>
</g>
</g>
<!-- Node5&#45;&gt;Node6 -->
<g id="edge7" class="edge">
<title>Node5&#45;&gt;Node6</title>
<path fill="none" stroke="#191970" d="M419,-56.2455C419,-48.9382 419,-38.6944 419,-29.7046"/>
<polygon fill="#191970" stroke="#191970" points="422.5001,-29.6426 419,-19.6427 415.5001,-29.6427 422.5001,-29.6426"/>
</g>
<!-- Node7&#45;&gt;Node3 -->
<g id="edge10" class="edge">
<title>Node7&#45;&gt;Node3</title>
<path fill="none" stroke="#191970" d="M601.8958,-112.4554C628.3549,-102.2212 663.0167,-88.8143 688.2996,-79.0351"/>
<polygon fill="#191970" stroke="#191970" points="689.7671,-82.2202 697.8311,-75.3484 687.2418,-75.6916 689.7671,-82.2202"/>
</g>
<!-- Node7&#45;&gt;Node5 -->
<g id="edge12" class="edge">
<title>Node7&#45;&gt;Node5</title>
<path fill="none" stroke="#191970" d="M527.7736,-112.4554C504.1684,-102.374 473.3546,-89.2139 450.5524,-79.4755"/>
<polygon fill="#191970" stroke="#191970" points="451.886,-76.2393 441.3149,-75.5303 449.1366,-82.6767 451.886,-76.2393"/>
</g>
<!-- Node8 -->
<g id="node9" class="node">
<title>Node8</title>
<polygon fill="none" stroke="#bfbfbf" points="791.5,-56.5 791.5,-75.5 886.5,-75.5 886.5,-56.5 791.5,-56.5"/>
<text text-anchor="middle" x="839" y="-63.5" font-family="Helvetica,sans-Serif" font-size="10.00" fill="#000000">unordered_map</text>
</g>
<!-- Node7&#45;&gt;Node8 -->
<g id="edge9" class="edge">
<title>Node7&#45;&gt;Node8</title>
<path fill="none" stroke="#191970" d="M622.2089,-114.3067C670.9059,-103.4558 739.2881,-88.2184 786.1562,-77.775"/>
<polygon fill="#191970" stroke="#191970" points="787.1099,-81.1484 796.1093,-75.5572 785.5874,-74.3159 787.1099,-81.1484"/>
</g>
<!-- Node9 -->
<g id="node10" class="node">
<title>Node9</title>
<polygon fill="none" stroke="#bfbfbf" points="506,-56.5 506,-75.5 564,-75.5 564,-56.5 506,-56.5"/>
<text text-anchor="middle" x="535" y="-63.5" font-family="Helvetica,sans-Serif" font-size="10.00" fill="#000000">ostream</text>
</g>
<!-- Node7&#45;&gt;Node9 -->
<g id="edge11" class="edge">
<title>Node7&#45;&gt;Node9</title>
<path fill="none" stroke="#191970" d="M556.0786,-112.2977C552.3539,-104.1166 547.722,-93.943 543.7496,-85.2179"/>
<polygon fill="#191970" stroke="#191970" points="546.8122,-83.4978 539.4832,-75.8469 540.4414,-86.3983 546.8122,-83.4978"/>
</g>
<!-- Node10 -->
<g id="node11" class="node">
<title>Node10</title>
<polygon fill="none" stroke="#bfbfbf" points="582.5,-56.5 582.5,-75.5 679.5,-75.5 679.5,-56.5 582.5,-56.5"/>
<text text-anchor="middle" x="631" y="-63.5" font-family="Helvetica,sans-Serif" font-size="10.00" fill="#000000">vulkan/vulkan.h</text>
</g>
<!-- Node7&#45;&gt;Node10 -->
<g id="edge13" class="edge">
<title>Node7&#45;&gt;Node10</title>
<path fill="none" stroke="#191970" d="M579.809,-112.2977C589.7397,-103.3163 602.3257,-91.9334 612.5327,-82.702"/>
<polygon fill="#191970" stroke="#191970" points="615.0434,-85.1505 620.1123,-75.8469 610.348,-79.9588 615.0434,-85.1505"/>
</g>
<!-- Node13&#45;&gt;Node5 -->
<g id="edge17" class="edge">
<title>Node13&#45;&gt;Node5</title>
<path fill="none" stroke="#191970" d="M436.9785,-335.204C433.7757,-287.2469 423.9306,-139.8288 420.3336,-85.9691"/>
<polygon fill="#191970" stroke="#191970" points="423.8065,-85.4451 419.6478,-75.7006 416.8221,-85.9116 423.8065,-85.4451"/>
</g>
<!-- Node13&#45;&gt;Node7 -->
<g id="edge27" class="edge">
<title>Node13&#45;&gt;Node7</title>
<path fill="none" stroke="#191970" d="M438.8481,-335.2193C440.405,-316.098 444.782,-282.738 457,-257 477.1246,-214.6064 514.051,-174.1567 538.5663,-150.074"/>
<polygon fill="#191970" stroke="#191970" points="541.288,-152.3114 546.0527,-142.8484 536.4267,-147.2747 541.288,-152.3114"/>
</g>
<!-- Node14 -->
<g id="node15" class="node">
<title>Node14</title>
<g id="a_node15"><a xlink:href="QueueFamily_8hpp.html" target="_top" xlink:title="lug/Graphics/Vulkan\l/API/QueueFamily.hpp">
<polygon fill="none" stroke="#000000" points="638,-263 638,-293 766,-293 766,-263 638,-263"/>
<text text-anchor="start" x="646" y="-281" font-family="Helvetica,sans-Serif" font-size="10.00" fill="#000000">lug/Graphics/Vulkan</text>
<text text-anchor="middle" x="702" y="-270" font-family="Helvetica,sans-Serif" font-size="10.00" fill="#000000">/API/QueueFamily.hpp</text>
</a>
</g>
</g>
<!-- Node13&#45;&gt;Node14 -->
<g id="edge18" class="edge">
<title>Node13&#45;&gt;Node14</title>
<path fill="none" stroke="#191970" d="M492.701,-335.478C534.8241,-323.91 593.1625,-307.8891 637.5504,-295.6992"/>
<polygon fill="#191970" stroke="#191970" points="638.653,-299.0261 647.3691,-293.0028 636.7992,-292.276 638.653,-299.0261"/>
</g>
<!-- Node18 -->
<g id="node19" class="node">
<title>Node18</title>
<g id="a_node19"><a xlink:href="Device_8inl.html" target="_top" xlink:title="lug/Graphics/Vulkan\l/API/Device.inl">
<polygon fill="none" stroke="#000000" points="466,-263 466,-293 584,-293 584,-263 466,-263"/>
<text text-anchor="start" x="474" y="-281" font-family="Helvetica,sans-Serif" font-size="10.00" fill="#000000">lug/Graphics/Vulkan</text>
<text text-anchor="middle" x="525" y="-270" font-family="Helvetica,sans-Serif" font-size="10.00" fill="#000000">/API/Device.inl</text>
</a>
</g>
</g>
<!-- Node13&#45;&gt;Node18 -->
<g id="edge28" class="edge">
<title>Node13&#45;&gt;Node18</title>
<path fill="none" stroke="#191970" d="M456.0265,-335.478C468.5081,-325.0766 485.3101,-311.0749 499.2056,-299.4953"/>
<polygon fill="#191970" stroke="#191970" points="501.5551,-302.0935 506.9966,-293.0028 497.0737,-296.7159 501.5551,-302.0935"/>
</g>
<!-- Node14&#45;&gt;Node3 -->
<g id="edge20" class="edge">
<title>Node14&#45;&gt;Node3</title>
<path fill="none" stroke="#191970" d="M755.0828,-262.8972C775.6519,-254.1657 797.0833,-240.8503 809,-221 839.0167,-170.9997 777.3032,-110.3516 742.9355,-82.0252"/>
<polygon fill="#191970" stroke="#191970" points="744.8499,-79.0739 734.8596,-75.5461 740.4695,-84.534 744.8499,-79.0739"/>
</g>
<!-- Node14&#45;&gt;Node5 -->
<g id="edge21" class="edge">
<title>Node14&#45;&gt;Node5</title>
<path fill="none" stroke="#191970" d="M637.8403,-264.0396C604.8496,-255.0139 564.9692,-241.1251 533,-221 492.0389,-195.2143 484.9425,-182.5213 457,-143 444.0102,-124.6275 433.1281,-101.1525 426.3839,-84.9787"/>
<polygon fill="#191970" stroke="#191970" points="429.5588,-83.4935 422.569,-75.5315 423.0681,-86.1146 429.5588,-83.4935"/>
</g>
<!-- Node14&#45;&gt;Node8 -->
<g id="edge19" class="edge">
<title>Node14&#45;&gt;Node8</title>
<path fill="none" stroke="#191970" d="M766.2654,-262.9121C788.7292,-254.3609 811.8476,-241.1715 826,-221 854.5935,-180.2454 848.7456,-117.8036 843.2334,-86.0471"/>
<polygon fill="#191970" stroke="#191970" points="846.5964,-84.9983 841.2821,-75.8327 839.7207,-86.3118 846.5964,-84.9983"/>
</g>
<!-- Node15 -->
<g id="node16" class="node">
<title>Node15</title>
<g id="a_node16"><a xlink:href="Vulkan_2API_2Queue_8hpp.html" target="_top" xlink:title="lug/Graphics/Vulkan\l/API/Queue.hpp">
<polygon fill="none" stroke="#000000" points="542,-185 542,-215 660,-215 660,-185 542,-185"/>
<text text-anchor="start" x="550" y="-203" font-family="Helvetica,sans-Serif" font-size="10.00" fill="#000000">lug/Graphics/Vulkan</text>
<text text-anchor="middle" x="601" y="-192" font-family="Helvetica,sans-Serif" font-size="10.00" fill="#000000">/API/Queue.hpp</text>
</a>
</g>
</g>
<!-- Node14&#45;&gt;Node15 -->
<g id="edge22" class="edge">
<title>Node14&#45;&gt;Node15</title>
<path fill="none" stroke="#191970" d="M682.5262,-262.9608C667.255,-251.1672 645.8035,-234.6007 628.7378,-221.4212"/>
<polygon fill="#191970" stroke="#191970" points="630.8125,-218.6013 620.7586,-215.2592 626.5339,-224.1415 630.8125,-218.6013"/>
</g>
<!-- Node17 -->
<g id="node18" class="node">
<title>Node17</title>
<g id="a_node18"><a xlink:href="QueueFamily_8inl.html" target="_top" xlink:title="lug/Graphics/Vulkan\l/API/QueueFamily.inl">
<polygon fill="none" stroke="#000000" points="678,-185 678,-215 800,-215 800,-185 678,-185"/>
<text text-anchor="start" x="686" y="-203" font-family="Helvetica,sans-Serif" font-size="10.00" fill="#000000">lug/Graphics/Vulkan</text>
<text text-anchor="middle" x="739" y="-192" font-family="Helvetica,sans-Serif" font-size="10.00" fill="#000000">/API/QueueFamily.inl</text>
</a>
</g>
</g>
<!-- Node14&#45;&gt;Node17 -->
<g id="edge26" class="edge">
<title>Node14&#45;&gt;Node17</title>
<path fill="none" stroke="#191970" d="M709.134,-262.9608C714.3215,-252.0249 721.4558,-236.9851 727.4506,-224.3474"/>
<polygon fill="#191970" stroke="#191970" points="730.638,-225.7942 731.7617,-215.2592 724.3135,-222.7941 730.638,-225.7942"/>
</g>
<!-- Node15&#45;&gt;Node5 -->
<g id="edge23" class="edge">
<title>Node15&#45;&gt;Node5</title>
<path fill="none" stroke="#191970" d="M566.9948,-184.9355C545.4053,-174.6111 517.4133,-159.7804 495,-143 471.4407,-125.3616 448.2499,-100.4691 433.8022,-83.8101"/>
<polygon fill="#191970" stroke="#191970" points="436.2382,-81.2725 427.0883,-75.9311 430.9102,-85.8126 436.2382,-81.2725"/>
</g>
<!-- Node15&#45;&gt;Node7 -->
<g id="edge24" class="edge">
<title>Node15&#45;&gt;Node7</title>
<path fill="none" stroke="#191970" d="M593.1264,-184.978C588.0822,-175.3542 581.4227,-162.6485 575.6478,-151.6307"/>
<polygon fill="#191970" stroke="#191970" points="578.6059,-149.7351 570.8635,-142.5028 572.4059,-152.9848 578.6059,-149.7351"/>
</g>
<!-- Node16 -->
<g id="node17" class="node">
<title>Node16</title>
<polygon fill="none" stroke="#bfbfbf" points="678,-118 678,-137 726,-137 726,-118 678,-118"/>
<text text-anchor="middle" x="702" y="-125" font-family="Helvetica,sans-Serif" font-size="10.00" fill="#000000">mutex</text>
</g>
<!-- Node15&#45;&gt;Node16 -->
<g id="edge25" class="edge">
<title>Node15&#45;&gt;Node16</title>
<path fill="none" stroke="#191970" d="M621.9273,-184.978C638.9517,-172.7574 662.8994,-155.5673 680.1641,-143.1743"/>
<polygon fill="#191970" stroke="#191970" points="682.4285,-145.8572 688.5113,-137.1825 678.3465,-140.1706 682.4285,-145.8572"/>
</g>
</g>
</svg>
        <g id="navigator" transform="translate(0 0)" fill="#404254">
                <rect fill="#f2f5e9" fill-opacity="0.5" stroke="#606060" stroke-width=".5" x="0" y="0" width="60" height="60"/>
                <use id="zoomplus" xlink:href="#zoomPlus" x="17" y="9" onmousedown="handleZoom(evt,'in')"/>
                <use id="zoomminus" xlink:href="#zoomMin" x="42" y="9" onmousedown="handleZoom(evt,'out')"/>
                <use id="reset" xlink:href="#resetDef" x="30" y="36" onmousedown="handleReset()"/>
                <g id="arrowUp" xlink:href="#dirArrow" transform="translate(30 24)" onmousedown="handlePan(0,-1)">
                  <use xlink:href="#rim" fill="#404040">
                        <set attributeName="fill" to="#808080" begin="arrowUp.mouseover" end="arrowUp.mouseout"/>
                  </use>
                  <path fill="none" stroke="white" stroke-width="1.5" d="M0,-3.0v7 M-2.5,-0.5L0,-3.0L2.5,-0.5"/>
                </g>
                <g id="arrowRight" xlink:href="#dirArrow" transform="rotate(90) translate(36 -43)" onmousedown="handlePan(1,0)">
                  <use xlink:href="#rim" fill="#404040">
                        <set attributeName="fill" to="#808080" begin="arrowRight.mouseover" end="arrowRight.mouseout"/>
                  </use>
                  <path fill="none" stroke="white" stroke-width="1.5" d="M0,-3.0v7 M-2.5,-0.5L0,-3.0L2.5,-0.5"/>
                </g>
                <g id="arrowDown" xlink:href="#dirArrow" transform="rotate(180) translate(-30 -48)" onmousedown="handlePan(0,1)">
                  <use xlink:href="#rim" fill="#404040">
                        <set attributeName="fill" to="#808080" begin="arrowDown.mouseover" end="arrowDown.mouseout"/>
                  </use>
                  <path fill="none" stroke="white" stroke-width="1.5" d="M0,-3.0v7 M-2.5,-0.5L0,-3.0L2.5,-0.5"/>
                </g>
                <g id="arrowLeft" xlink:href="#dirArrow" transform="rotate(270) translate(-36 17)" onmousedown="handlePan(-1,0)">
                  <use xlink:href="#rim" fill="#404040">
                        <set attributeName="fill" to="#808080" begin="arrowLeft.mouseover" end="arrowLeft.mouseout"/>
                  </use>
                  <path fill="none" stroke="white" stroke-width="1.5" d="M0,-3.0v7 M-2.5,-0.5L0,-3.0L2.5,-0.5"/>
                </g>
        </g>
        <svg viewBox="0 0 15 15" width="100%" height="30px" preserveAspectRatio="xMaxYMin meet">
         <g id="arrow_out" transform="scale(0.3 0.3)">
          <a xlink:href="Builder_2DescriptorSetLayout_8cpp__incl_org.svg" target="_base">
           <rect id="button" ry="5" rx="5" y="6" x="6" height="38" width="38"
                fill="#f2f5e9" fill-opacity="0.5" stroke="#606060" stroke-width="1.0"/>
           <path id="arrow"
             d="M 11.500037,31.436501 C 11.940474,20.09759 22.043105,11.32322 32.158766,21.979434 L 37.068811,17.246167 C 37.068811,17.246167 37.088388,32 37.088388,32 L 22.160133,31.978069 C 22.160133,31.978069 26.997745,27.140456 26.997745,27.140456 C 18.528582,18.264221 13.291696,25.230495 11.500037,31.436501 z"
             style="fill:#404040;"/>
          </a>
         </g>
        </svg>
</svg>
