<?xml version="1.0" encoding="UTF-8" standalone="no"?>
<!DOCTYPE svg PUBLIC "-//W3C//DTD SVG 1.1//EN"
 "http://www.w3.org/Graphics/SVG/1.1/DTD/svg11.dtd">
<!-- Generated by graphviz version 2.40.1 (20161225.0304)
 -->
<!-- Title: include/lug/Graphics/Vulkan/API/Builder/Sampler.hpp Pages: 1 -->
<svg width="518pt" height="285pt"
 viewBox="0.00 0.00 517.50 285.00" xmlns="http://www.w3.org/2000/svg" xmlns:xlink="http://www.w3.org/1999/xlink">
<g id="graph0" class="graph" transform="scale(1 1) rotate(0) translate(4 281)">
<title>include/lug/Graphics/Vulkan/API/Builder/Sampler.hpp</title>
<!-- Node0 -->
<g id="node1" class="node">
<title>Node0</title>
<polygon fill="#bfbfbf" stroke="#000000" points="101,-246.5 101,-276.5 285,-276.5 285,-246.5 101,-246.5"/>
<text text-anchor="start" x="109" y="-264.5" font-family="Helvetica,sans-Serif" font-size="10.00" fill="#000000">include/lug/Graphics</text>
<text text-anchor="middle" x="193" y="-253.5" font-family="Helvetica,sans-Serif" font-size="10.00" fill="#000000">/Vulkan/API/Builder/Sampler.hpp</text>
</g>
<!-- Node1 -->
<g id="node2" class="node">
<title>Node1</title>
<polygon fill="none" stroke="#bfbfbf" points="56.5,-185 56.5,-204 115.5,-204 115.5,-185 56.5,-185"/>
<text text-anchor="middle" x="86" y="-192" font-family="Helvetica,sans-Serif" font-size="10.00" fill="#000000">memory</text>
</g>
<!-- Node0&#45;&gt;Node1 -->
<g id="edge1" class="edge">
<title>Node0&#45;&gt;Node1</title>
<path fill="none" stroke="#191970" d="M168.9871,-246.4639C151.3574,-235.4247 127.5151,-220.4954 109.9097,-209.4715"/>
<polygon fill="#191970" stroke="#191970" points="111.6707,-206.4446 101.3376,-204.1039 107.9556,-212.3775 111.6707,-206.4446"/>
</g>
<!-- Node2 -->
<g id="node3" class="node">
<title>Node2</title>
<g id="a_node3"><a xlink:href="Sampler_8hpp.html" target="_top" xlink:title="lug/Graphics/Vulkan\l/API/Sampler.hpp">
<polygon fill="none" stroke="#000000" points="134,-179.5 134,-209.5 252,-209.5 252,-179.5 134,-179.5"/>
<text text-anchor="start" x="142" y="-197.5" font-family="Helvetica,sans-Serif" font-size="10.00" fill="#000000">lug/Graphics/Vulkan</text>
<text text-anchor="middle" x="193" y="-186.5" font-family="Helvetica,sans-Serif" font-size="10.00" fill="#000000">/API/Sampler.hpp</text>
</a>
</g>
</g>
<!-- Node0&#45;&gt;Node2 -->
<g id="edge2" class="edge">
<title>Node0&#45;&gt;Node2</title>
<path fill="none" stroke="#191970" d="M193,-246.2967C193,-238.5013 193,-228.7991 193,-219.9064"/>
<polygon fill="#191970" stroke="#191970" points="196.5001,-219.6431 193,-209.6432 189.5001,-219.6432 196.5001,-219.6431"/>
</g>
<!-- Node10 -->
<g id="node11" class="node">
<title>Node10</title>
<g id="a_node11"><a xlink:href="Sampler_8inl.html" target="_top" xlink:title="lug/Graphics/Vulkan\l/API/Builder/Sampler.inl">
<polygon fill="none" stroke="#000000" points="270,-179.5 270,-209.5 410,-209.5 410,-179.5 270,-179.5"/>
<text text-anchor="start" x="278" y="-197.5" font-family="Helvetica,sans-Serif" font-size="10.00" fill="#000000">lug/Graphics/Vulkan</text>
<text text-anchor="middle" x="340" y="-186.5" font-family="Helvetica,sans-Serif" font-size="10.00" fill="#000000">/API/Builder/Sampler.inl</text>
</a>
</g>
</g>
<!-- Node0&#45;&gt;Node10 -->
<g id="edge11" class="edge">
<title>Node0&#45;&gt;Node10</title>
<path fill="none" stroke="#191970" d="M225.9897,-246.4639C247.1934,-236.7996 274.9383,-224.154 297.749,-213.7572"/>
<polygon fill="#191970" stroke="#191970" points="299.2186,-216.9339 306.8664,-209.6017 296.3154,-210.5643 299.2186,-216.9339"/>
</g>
<!-- Node3 -->
<g id="node4" class="node">
<title>Node3</title>
<g id="a_node4"><a xlink:href="Graphics_2Export_8hpp.html" target="_top" xlink:title="lug/Graphics/Export.hpp">
<polygon fill="none" stroke="#000000" points="0,-56.5 0,-75.5 138,-75.5 138,-56.5 0,-56.5"/>
<text text-anchor="middle" x="69" y="-63.5" font-family="Helvetica,sans-Serif" font-size="10.00" fill="#000000">lug/Graphics/Export.hpp</text>
</a>
</g>
</g>
<!-- Node2&#45;&gt;Node3 -->
<g id="edge3" class="edge">
<title>Node2&#45;&gt;Node3</title>
<path fill="none" stroke="#191970" d="M178.2886,-179.2548C155.0177,-155.1393 109.8639,-108.3468 85.5151,-83.1145"/>
<polygon fill="#191970" stroke="#191970" points="87.8574,-80.5014 78.3948,-75.7358 82.8202,-85.3622 87.8574,-80.5014"/>
</g>
<!-- Node5 -->
<g id="node6" class="node">
<title>Node5</title>
<g id="a_node6"><a xlink:href="Vulkan_8hpp.html" target="_top" xlink:title="lug/Graphics/Vulkan\l/Vulkan.hpp">
<polygon fill="none" stroke="#000000" points="190,-112.5 190,-142.5 308,-142.5 308,-112.5 190,-112.5"/>
<text text-anchor="start" x="198" y="-130.5" font-family="Helvetica,sans-Serif" font-size="10.00" fill="#000000">lug/Graphics/Vulkan</text>
<text text-anchor="middle" x="249" y="-119.5" font-family="Helvetica,sans-Serif" font-size="10.00" fill="#000000">/Vulkan.hpp</text>
</a>
</g>
</g>
<!-- Node2&#45;&gt;Node5 -->
<g id="edge5" class="edge">
<title>Node2&#45;&gt;Node5</title>
<path fill="none" stroke="#191970" d="M205.7073,-179.2967C212.7956,-170.816 221.7702,-160.0785 229.7079,-150.5817"/>
<polygon fill="#191970" stroke="#191970" points="232.6154,-152.5606 236.343,-142.6432 227.2444,-148.0714 232.6154,-152.5606"/>
</g>
<!-- Node4 -->
<g id="node5" class="node">
<title>Node4</title>
<g id="a_node5"><a xlink:href="Config_8hpp.html" target="_top" xlink:title="lug/Config.hpp">
<polygon fill="none" stroke="#000000" points="24.5,-.5 24.5,-19.5 113.5,-19.5 113.5,-.5 24.5,-.5"/>
<text text-anchor="middle" x="69" y="-7.5" font-family="Helvetica,sans-Serif" font-size="10.00" fill="#000000">lug/Config.hpp</text>
</a>
</g>
</g>
<!-- Node3&#45;&gt;Node4 -->
<g id="edge4" class="edge">
<title>Node3&#45;&gt;Node4</title>
<path fill="none" stroke="#191970" d="M69,-56.2455C69,-48.9382 69,-38.6944 69,-29.7046"/>
<polygon fill="#191970" stroke="#191970" points="72.5001,-29.6426 69,-19.6427 65.5001,-29.6427 72.5001,-29.6426"/>
</g>
<!-- Node5&#45;&gt;Node3 -->
<g id="edge9" class="edge">
<title>Node5&#45;&gt;Node3</title>
<path fill="none" stroke="#191970" d="M204.967,-112.4554C174.8019,-102.149 135.2192,-88.6249 106.547,-78.8286"/>
<polygon fill="#191970" stroke="#191970" points="107.4882,-75.4515 96.8936,-75.5303 105.2249,-82.0756 107.4882,-75.4515"/>
</g>
<!-- Node6 -->
<g id="node7" class="node">
<title>Node6</title>
<polygon fill="none" stroke="#bfbfbf" points="156.5,-56.5 156.5,-75.5 251.5,-75.5 251.5,-56.5 156.5,-56.5"/>
<text text-anchor="middle" x="204" y="-63.5" font-family="Helvetica,sans-Serif" font-size="10.00" fill="#000000">unordered_map</text>
</g>
<!-- Node5&#45;&gt;Node6 -->
<g id="edge6" class="edge">
<title>Node5&#45;&gt;Node6</title>
<path fill="none" stroke="#191970" d="M237.8764,-112.2977C231.6299,-103.7609 223.796,-93.0545 217.2353,-84.0883"/>
<polygon fill="#191970" stroke="#191970" points="219.9348,-81.8505 211.2051,-75.8469 214.2856,-85.984 219.9348,-81.8505"/>
</g>
<!-- Node7 -->
<g id="node8" class="node">
<title>Node7</title>
<polygon fill="none" stroke="#bfbfbf" points="270,-56.5 270,-75.5 318,-75.5 318,-56.5 270,-56.5"/>
<text text-anchor="middle" x="294" y="-63.5" font-family="Helvetica,sans-Serif" font-size="10.00" fill="#000000">vector</text>
</g>
<!-- Node5&#45;&gt;Node7 -->
<g id="edge7" class="edge">
<title>Node5&#45;&gt;Node7</title>
<path fill="none" stroke="#191970" d="M260.1236,-112.2977C266.3701,-103.7609 274.204,-93.0545 280.7647,-84.0883"/>
<polygon fill="#191970" stroke="#191970" points="283.7144,-85.984 286.7949,-75.8469 278.0652,-81.8505 283.7144,-85.984"/>
</g>
<!-- Node8 -->
<g id="node9" class="node">
<title>Node8</title>
<polygon fill="none" stroke="#bfbfbf" points="336,-56.5 336,-75.5 394,-75.5 394,-56.5 336,-56.5"/>
<text text-anchor="middle" x="365" y="-63.5" font-family="Helvetica,sans-Serif" font-size="10.00" fill="#000000">ostream</text>
</g>
<!-- Node5&#45;&gt;Node8 -->
<g id="edge8" class="edge">
<title>Node5&#45;&gt;Node8</title>
<path fill="none" stroke="#191970" d="M277.3768,-112.4554C295.8828,-102.644 319.8888,-89.9167 338.0931,-80.2653"/>
<polygon fill="#191970" stroke="#191970" points="339.8285,-83.3068 347.0241,-75.5303 336.5495,-77.1222 339.8285,-83.3068"/>
</g>
<!-- Node9 -->
<g id="node10" class="node">
<title>Node9</title>
<polygon fill="none" stroke="#bfbfbf" points="412.5,-56.5 412.5,-75.5 509.5,-75.5 509.5,-56.5 412.5,-56.5"/>
<text text-anchor="middle" x="461" y="-63.5" font-family="Helvetica,sans-Serif" font-size="10.00" fill="#000000">vulkan/vulkan.h</text>
</g>
<!-- Node5&#45;&gt;Node9 -->
<g id="edge10" class="edge">
<title>Node5&#45;&gt;Node9</title>
<path fill="none" stroke="#191970" d="M300.861,-112.4554C337.0095,-101.9689 384.6405,-88.1515 418.5357,-78.3187"/>
<polygon fill="#191970" stroke="#191970" points="419.5186,-81.6779 428.1475,-75.5303 417.5683,-74.9551 419.5186,-81.6779"/>
</g>
</g>
</svg>
