<?xml version="1.0" encoding="UTF-8" standalone="no"?>
<!DOCTYPE svg PUBLIC "-//W3C//DTD SVG 1.1//EN"
 "http://www.w3.org/Graphics/SVG/1.1/DTD/svg11.dtd">
<!-- Generated by graphviz version 2.40.1 (20161225.0304)
 -->
<!-- Title: src/lug/Graphics/Vulkan/API/Builder/Image.cpp Pages: 1 -->
<svg width="1520pt" height="419pt"
 viewBox="0.00 0.00 1520.46 419.00" xmlns="http://www.w3.org/2000/svg" xmlns:xlink="http://www.w3.org/1999/xlink">
<g id="graph0" class="graph" transform="scale(1 1) rotate(0) translate(4 415)">
<title>src/lug/Graphics/Vulkan/API/Builder/Image.cpp</title>
<!-- Node0 -->
<g id="node1" class="node">
<title>Node0</title>
<polygon fill="#bfbfbf" stroke="#000000" points="593.1509,-380.5 593.1509,-410.5 730.1509,-410.5 730.1509,-380.5 593.1509,-380.5"/>
<text text-anchor="start" x="601.1509" y="-398.5" font-family="Helvetica,sans-Serif" font-size="10.00" fill="#000000">src/lug/Graphics/Vulkan</text>
<text text-anchor="middle" x="661.6509" y="-387.5" font-family="Helvetica,sans-Serif" font-size="10.00" fill="#000000">/API/Builder/Image.cpp</text>
</g>
<!-- Node1 -->
<g id="node2" class="node">
<title>Node1</title>
<g id="a_node2"><a xlink:href="Builder_2Image_8hpp.html" target="_top" xlink:title="lug/Graphics/Vulkan\l/API/Builder/Image.hpp">
<polygon fill="none" stroke="#000000" points="81.1509,-246.5 81.1509,-276.5 216.1509,-276.5 216.1509,-246.5 81.1509,-246.5"/>
<text text-anchor="start" x="89.1509" y="-264.5" font-family="Helvetica,sans-Serif" font-size="10.00" fill="#000000">lug/Graphics/Vulkan</text>
<text text-anchor="middle" x="148.6509" y="-253.5" font-family="Helvetica,sans-Serif" font-size="10.00" fill="#000000">/API/Builder/Image.hpp</text>
</a>
</g>
</g>
<!-- Node0&#45;&gt;Node1 -->
<g id="edge1" class="edge">
<title>Node0&#45;&gt;Node1</title>
<path fill="none" stroke="#191970" d="M594.6902,-380.4238C551.4756,-370.5111 494.1118,-357.0106 443.6509,-344 362.3093,-323.0272 269.0364,-296.5269 209.5235,-279.3049"/>
<polygon fill="#191970" stroke="#191970" points="210.4851,-275.9396 199.906,-276.5174 208.5364,-282.6629 210.4851,-275.9396"/>
</g>
<!-- Node9 -->
<g id="node10" class="node">
<title>Node9</title>
<polygon fill="none" stroke="#bfbfbf" points="707.6509,-56.5 707.6509,-75.5 755.6509,-75.5 755.6509,-56.5 707.6509,-56.5"/>
<text text-anchor="middle" x="731.6509" y="-63.5" font-family="Helvetica,sans-Serif" font-size="10.00" fill="#000000">vector</text>
</g>
<!-- Node0&#45;&gt;Node9 -->
<g id="edge16" class="edge">
<title>Node0&#45;&gt;Node9</title>
<path fill="none" stroke="#191970" d="M688.0342,-380.4123C721.9862,-358.8029 776.6509,-315.6087 776.6509,-261.5 776.6509,-261.5 776.6509,-261.5 776.6509,-194.5 776.6509,-153.3653 755.8564,-108.7758 742.5388,-84.4369"/>
<polygon fill="#191970" stroke="#191970" points="745.5048,-82.5716 737.5339,-75.592 739.4126,-86.019 745.5048,-82.5716"/>
</g>
<!-- Node14 -->
<g id="node15" class="node">
<title>Node14</title>
<g id="a_node15"><a xlink:href="Device_8hpp.html" target="_top" xlink:title="lug/Graphics/Vulkan\l/API/Device.hpp">
<polygon fill="none" stroke="#000000" points="452.6509,-313.5 452.6509,-343.5 570.6509,-343.5 570.6509,-313.5 452.6509,-313.5"/>
<text text-anchor="start" x="460.6509" y="-331.5" font-family="Helvetica,sans-Serif" font-size="10.00" fill="#000000">lug/Graphics/Vulkan</text>
<text text-anchor="middle" x="511.6509" y="-320.5" font-family="Helvetica,sans-Serif" font-size="10.00" fill="#000000">/API/Device.hpp</text>
</a>
</g>
</g>
<!-- Node0&#45;&gt;Node14 -->
<g id="edge17" class="edge">
<title>Node0&#45;&gt;Node14</title>
<path fill="none" stroke="#191970" d="M627.988,-380.4639C606.3516,-370.7996 578.0404,-358.154 554.7642,-347.7572"/>
<polygon fill="#191970" stroke="#191970" points="556.0187,-344.4844 545.4607,-343.6017 553.1638,-350.8758 556.0187,-344.4844"/>
</g>
<!-- Node20 -->
<g id="node21" class="node">
<title>Node20</title>
<g id="a_node21"><a xlink:href="Logger_8hpp.html" target="_top" xlink:title="lug/System/Logger/Logger.hpp">
<polygon fill="none" stroke="#000000" points="1051.6509,-252 1051.6509,-271 1223.6509,-271 1223.6509,-252 1051.6509,-252"/>
<text text-anchor="middle" x="1137.6509" y="-259" font-family="Helvetica,sans-Serif" font-size="10.00" fill="#000000">lug/System/Logger/Logger.hpp</text>
</a>
</g>
</g>
<!-- Node0&#45;&gt;Node20 -->
<g id="edge30" class="edge">
<title>Node0&#45;&gt;Node20</title>
<path fill="none" stroke="#191970" d="M715.3289,-380.389C810.3998,-353.6253 1006.5768,-298.399 1093.979,-273.7942"/>
<polygon fill="#191970" stroke="#191970" points="1095.1588,-277.0982 1103.8362,-271.0193 1093.2619,-270.3601 1095.1588,-277.0982"/>
</g>
<!-- Node2 -->
<g id="node3" class="node">
<title>Node2</title>
<polygon fill="none" stroke="#bfbfbf" points="250.6509,-118 250.6509,-137 282.6509,-137 282.6509,-118 250.6509,-118"/>
<text text-anchor="middle" x="266.6509" y="-125" font-family="Helvetica,sans-Serif" font-size="10.00" fill="#000000">set</text>
</g>
<!-- Node1&#45;&gt;Node2 -->
<g id="edge2" class="edge">
<title>Node1&#45;&gt;Node2</title>
<path fill="none" stroke="#191970" d="M80.6822,-247.1932C32.4562,-233.9374 -19.3063,-211.3595 7.6509,-179 35.9954,-144.9753 160.353,-152.294 203.6509,-143 215.8769,-140.3757 229.3467,-137.1126 240.6824,-134.2582"/>
<polygon fill="#191970" stroke="#191970" points="241.5705,-137.6439 250.3959,-131.7819 239.8411,-130.8608 241.5705,-137.6439"/>
</g>
<!-- Node3 -->
<g id="node4" class="node">
<title>Node3</title>
<g id="a_node4"><a xlink:href="Image_8hpp.html" target="_top" xlink:title="lug/Graphics/Vulkan\l/API/Image.hpp">
<polygon fill="none" stroke="#000000" points="164.6509,-179.5 164.6509,-209.5 282.6509,-209.5 282.6509,-179.5 164.6509,-179.5"/>
<text text-anchor="start" x="172.6509" y="-197.5" font-family="Helvetica,sans-Serif" font-size="10.00" fill="#000000">lug/Graphics/Vulkan</text>
<text text-anchor="middle" x="223.6509" y="-186.5" font-family="Helvetica,sans-Serif" font-size="10.00" fill="#000000">/API/Image.hpp</text>
</a>
</g>
</g>
<!-- Node1&#45;&gt;Node3 -->
<g id="edge3" class="edge">
<title>Node1&#45;&gt;Node3</title>
<path fill="none" stroke="#191970" d="M165.6696,-246.2967C175.5465,-237.4733 188.1578,-226.2072 199.0948,-216.4368"/>
<polygon fill="#191970" stroke="#191970" points="201.5737,-218.9155 206.6996,-209.6432 196.9102,-213.6952 201.5737,-218.9155"/>
</g>
<!-- Node13 -->
<g id="node14" class="node">
<title>Node13</title>
<g id="a_node14"><a xlink:href="Builder_2Image_8inl.html" target="_top" xlink:title="lug/Graphics/Vulkan\l/API/Builder/Image.inl">
<polygon fill="none" stroke="#000000" points="17.1509,-179.5 17.1509,-209.5 146.1509,-209.5 146.1509,-179.5 17.1509,-179.5"/>
<text text-anchor="start" x="25.1509" y="-197.5" font-family="Helvetica,sans-Serif" font-size="10.00" fill="#000000">lug/Graphics/Vulkan</text>
<text text-anchor="middle" x="81.6509" y="-186.5" font-family="Helvetica,sans-Serif" font-size="10.00" fill="#000000">/API/Builder/Image.inl</text>
</a>
</g>
</g>
<!-- Node1&#45;&gt;Node13 -->
<g id="edge15" class="edge">
<title>Node1&#45;&gt;Node13</title>
<path fill="none" stroke="#191970" d="M133.4476,-246.2967C124.7099,-237.559 113.5766,-226.4257 103.8727,-216.7218"/>
<polygon fill="#191970" stroke="#191970" points="106.3401,-214.2394 96.7941,-209.6432 101.3903,-219.1892 106.3401,-214.2394"/>
</g>
<!-- Node3&#45;&gt;Node2 -->
<g id="edge5" class="edge">
<title>Node3&#45;&gt;Node2</title>
<path fill="none" stroke="#191970" d="M233.4083,-179.2967C239.8477,-169.2631 248.3144,-156.0709 255.0914,-145.5113"/>
<polygon fill="#191970" stroke="#191970" points="258.0629,-147.3613 260.5186,-137.055 252.1718,-143.5804 258.0629,-147.3613"/>
</g>
<!-- Node4 -->
<g id="node5" class="node">
<title>Node4</title>
<polygon fill="none" stroke="#bfbfbf" points="843.1509,-118 843.1509,-137 902.1509,-137 902.1509,-118 843.1509,-118"/>
<text text-anchor="middle" x="872.6509" y="-125" font-family="Helvetica,sans-Serif" font-size="10.00" fill="#000000">memory</text>
</g>
<!-- Node3&#45;&gt;Node4 -->
<g id="edge4" class="edge">
<title>Node3&#45;&gt;Node4</title>
<path fill="none" stroke="#191970" d="M282.6776,-188.4063C413.1444,-174.9375 723.1694,-142.9318 833.1327,-131.5797"/>
<polygon fill="#191970" stroke="#191970" points="833.5494,-135.0554 843.1371,-130.5469 832.8305,-128.0924 833.5494,-135.0554"/>
</g>
<!-- Node5 -->
<g id="node6" class="node">
<title>Node5</title>
<g id="a_node6"><a xlink:href="Graphics_2Export_8hpp.html" target="_top" xlink:title="lug/Graphics/Export.hpp">
<polygon fill="none" stroke="#000000" points="321.6509,-56.5 321.6509,-75.5 459.6509,-75.5 459.6509,-56.5 321.6509,-56.5"/>
<text text-anchor="middle" x="390.6509" y="-63.5" font-family="Helvetica,sans-Serif" font-size="10.00" fill="#000000">lug/Graphics/Export.hpp</text>
</a>
</g>
</g>
<!-- Node3&#45;&gt;Node5 -->
<g id="edge6" class="edge">
<title>Node3&#45;&gt;Node5</title>
<path fill="none" stroke="#191970" d="M222.677,-179.3595C222.3569,-161.0686 224.6906,-130.46 241.6509,-112 254.1658,-98.3785 295.776,-86.192 331.8534,-77.7898"/>
<polygon fill="#191970" stroke="#191970" points="332.8752,-81.1471 341.8536,-75.5223 331.3272,-74.3204 332.8752,-81.1471"/>
</g>
<!-- Node7 -->
<g id="node8" class="node">
<title>Node7</title>
<g id="a_node8"><a xlink:href="Vulkan_8hpp.html" target="_top" xlink:title="lug/Graphics/Vulkan\l/Vulkan.hpp">
<polygon fill="none" stroke="#000000" points="488.6509,-112.5 488.6509,-142.5 606.6509,-142.5 606.6509,-112.5 488.6509,-112.5"/>
<text text-anchor="start" x="496.6509" y="-130.5" font-family="Helvetica,sans-Serif" font-size="10.00" fill="#000000">lug/Graphics/Vulkan</text>
<text text-anchor="middle" x="547.6509" y="-119.5" font-family="Helvetica,sans-Serif" font-size="10.00" fill="#000000">/Vulkan.hpp</text>
</a>
</g>
</g>
<!-- Node3&#45;&gt;Node7 -->
<g id="edge8" class="edge">
<title>Node3&#45;&gt;Node7</title>
<path fill="none" stroke="#191970" d="M282.7008,-182.2891C337.9145,-170.8714 420.3713,-153.8202 478.6062,-141.7778"/>
<polygon fill="#191970" stroke="#191970" points="479.3759,-145.1927 488.4599,-139.7401 477.9583,-138.3378 479.3759,-145.1927"/>
</g>
<!-- Node12 -->
<g id="node13" class="node">
<title>Node12</title>
<g id="a_node13"><a xlink:href="Image_8inl.html" target="_top" xlink:title="lug/Graphics/Vulkan\l/API/Image.inl">
<polygon fill="none" stroke="#000000" points="76.6509,-112.5 76.6509,-142.5 194.6509,-142.5 194.6509,-112.5 76.6509,-112.5"/>
<text text-anchor="start" x="84.6509" y="-130.5" font-family="Helvetica,sans-Serif" font-size="10.00" fill="#000000">lug/Graphics/Vulkan</text>
<text text-anchor="middle" x="135.6509" y="-119.5" font-family="Helvetica,sans-Serif" font-size="10.00" fill="#000000">/API/Image.inl</text>
</a>
</g>
</g>
<!-- Node3&#45;&gt;Node12 -->
<g id="edge14" class="edge">
<title>Node3&#45;&gt;Node12</title>
<path fill="none" stroke="#191970" d="M203.6824,-179.2967C191.8684,-170.302 176.7203,-158.7687 163.7182,-148.8694"/>
<polygon fill="#191970" stroke="#191970" points="165.6171,-145.9162 155.5405,-142.6432 161.3767,-151.4857 165.6171,-145.9162"/>
</g>
<!-- Node6 -->
<g id="node7" class="node">
<title>Node6</title>
<g id="a_node7"><a xlink:href="Config_8hpp.html" target="_top" xlink:title="lug/Config.hpp">
<polygon fill="none" stroke="#000000" points="725.1509,-.5 725.1509,-19.5 814.1509,-19.5 814.1509,-.5 725.1509,-.5"/>
<text text-anchor="middle" x="769.6509" y="-7.5" font-family="Helvetica,sans-Serif" font-size="10.00" fill="#000000">lug/Config.hpp</text>
</a>
</g>
</g>
<!-- Node5&#45;&gt;Node6 -->
<g id="edge7" class="edge">
<title>Node5&#45;&gt;Node6</title>
<path fill="none" stroke="#191970" d="M455.3727,-56.4369C528.4713,-45.636 646.1618,-28.2464 714.8842,-18.0922"/>
<polygon fill="#191970" stroke="#191970" points="715.687,-21.5116 725.068,-16.5875 714.6638,-14.5868 715.687,-21.5116"/>
</g>
<!-- Node7&#45;&gt;Node5 -->
<g id="edge12" class="edge">
<title>Node7&#45;&gt;Node5</title>
<path fill="none" stroke="#191970" d="M509.2444,-112.4554C483.2783,-102.284 449.312,-88.9787 424.388,-79.2155"/>
<polygon fill="#191970" stroke="#191970" points="425.5681,-75.9188 414.9804,-75.5303 423.0149,-82.4366 425.5681,-75.9188"/>
</g>
<!-- Node8 -->
<g id="node9" class="node">
<title>Node8</title>
<polygon fill="none" stroke="#bfbfbf" points="774.1509,-56.5 774.1509,-75.5 869.1509,-75.5 869.1509,-56.5 774.1509,-56.5"/>
<text text-anchor="middle" x="821.6509" y="-63.5" font-family="Helvetica,sans-Serif" font-size="10.00" fill="#000000">unordered_map</text>
</g>
<!-- Node7&#45;&gt;Node8 -->
<g id="edge9" class="edge">
<title>Node7&#45;&gt;Node8</title>
<path fill="none" stroke="#191970" d="M606.7675,-114.2311C655.1346,-103.375 722.8952,-88.166 769.3193,-77.746"/>
<polygon fill="#191970" stroke="#191970" points="770.187,-81.1384 779.1778,-75.5332 768.654,-74.3083 770.187,-81.1384"/>
</g>
<!-- Node7&#45;&gt;Node9 -->
<g id="edge10" class="edge">
<title>Node7&#45;&gt;Node9</title>
<path fill="none" stroke="#191970" d="M592.6624,-112.4554C625.1158,-101.6082 668.2327,-87.1968 697.788,-77.3183"/>
<polygon fill="#191970" stroke="#191970" points="699.262,-80.5161 707.6367,-74.0265 697.0429,-73.8771 699.262,-80.5161"/>
</g>
<!-- Node10 -->
<g id="node11" class="node">
<title>Node10</title>
<polygon fill="none" stroke="#bfbfbf" points="600.6509,-56.5 600.6509,-75.5 658.6509,-75.5 658.6509,-56.5 600.6509,-56.5"/>
<text text-anchor="middle" x="629.6509" y="-63.5" font-family="Helvetica,sans-Serif" font-size="10.00" fill="#000000">ostream</text>
</g>
<!-- Node7&#45;&gt;Node10 -->
<g id="edge11" class="edge">
<title>Node7&#45;&gt;Node10</title>
<path fill="none" stroke="#191970" d="M567.9206,-112.2977C580.2516,-103.0495 595.9775,-91.2551 608.4706,-81.8853"/>
<polygon fill="#191970" stroke="#191970" points="610.6217,-84.647 616.5217,-75.8469 606.4217,-79.047 610.6217,-84.647"/>
</g>
<!-- Node11 -->
<g id="node12" class="node">
<title>Node11</title>
<polygon fill="none" stroke="#bfbfbf" points="485.1509,-56.5 485.1509,-75.5 582.1509,-75.5 582.1509,-56.5 485.1509,-56.5"/>
<text text-anchor="middle" x="533.6509" y="-63.5" font-family="Helvetica,sans-Serif" font-size="10.00" fill="#000000">vulkan/vulkan.h</text>
</g>
<!-- Node7&#45;&gt;Node11 -->
<g id="edge13" class="edge">
<title>Node7&#45;&gt;Node11</title>
<path fill="none" stroke="#191970" d="M544.1902,-112.2977C542.3684,-104.2945 540.1124,-94.3843 538.1557,-85.7889"/>
<polygon fill="#191970" stroke="#191970" points="541.5249,-84.8206 535.8925,-75.8469 534.6995,-86.3744 541.5249,-84.8206"/>
</g>
<!-- Node14&#45;&gt;Node5 -->
<g id="edge18" class="edge">
<title>Node14&#45;&gt;Node5</title>
<path fill="none" stroke="#191970" d="M461.2241,-313.4045C442.2606,-305.394 422.0658,-293.6632 408.6509,-277 362.0065,-219.0609 372.705,-185.9561 380.6509,-112 381.5873,-103.285 383.4942,-93.7985 385.3942,-85.7166"/>
<polygon fill="#191970" stroke="#191970" points="388.8507,-86.3218 387.8888,-75.7707 382.061,-84.6187 388.8507,-86.3218"/>
</g>
<!-- Node14&#45;&gt;Node7 -->
<g id="edge28" class="edge">
<title>Node14&#45;&gt;Node7</title>
<path fill="none" stroke="#191970" d="M483.7612,-313.4244C468.9444,-304.3643 451.2447,-291.7402 438.6509,-277 408.7971,-242.0579 379.2686,-216.632 405.6509,-179 414.7914,-165.9619 447.2132,-153.7048 478.7718,-144.4216"/>
<polygon fill="#191970" stroke="#191970" points="479.8579,-147.7514 488.5114,-141.6385 477.9346,-141.0208 479.8579,-147.7514"/>
</g>
<!-- Node15 -->
<g id="node16" class="node">
<title>Node15</title>
<g id="a_node16"><a xlink:href="QueueFamily_8hpp.html" target="_top" xlink:title="lug/Graphics/Vulkan\l/API/QueueFamily.hpp">
<polygon fill="none" stroke="#000000" points="447.6509,-246.5 447.6509,-276.5 575.6509,-276.5 575.6509,-246.5 447.6509,-246.5"/>
<text text-anchor="start" x="455.6509" y="-264.5" font-family="Helvetica,sans-Serif" font-size="10.00" fill="#000000">lug/Graphics/Vulkan</text>
<text text-anchor="middle" x="511.6509" y="-253.5" font-family="Helvetica,sans-Serif" font-size="10.00" fill="#000000">/API/QueueFamily.hpp</text>
</a>
</g>
</g>
<!-- Node14&#45;&gt;Node15 -->
<g id="edge19" class="edge">
<title>Node14&#45;&gt;Node15</title>
<path fill="none" stroke="#191970" d="M511.6509,-313.2967C511.6509,-305.5013 511.6509,-295.7991 511.6509,-286.9064"/>
<polygon fill="#191970" stroke="#191970" points="515.151,-286.6431 511.6509,-276.6432 508.151,-286.6432 515.151,-286.6431"/>
</g>
<!-- Node19 -->
<g id="node20" class="node">
<title>Node19</title>
<g id="a_node20"><a xlink:href="Device_8inl.html" target="_top" xlink:title="lug/Graphics/Vulkan\l/API/Device.inl">
<polygon fill="none" stroke="#000000" points="593.6509,-246.5 593.6509,-276.5 711.6509,-276.5 711.6509,-246.5 593.6509,-246.5"/>
<text text-anchor="start" x="601.6509" y="-264.5" font-family="Helvetica,sans-Serif" font-size="10.00" fill="#000000">lug/Graphics/Vulkan</text>
<text text-anchor="middle" x="652.6509" y="-253.5" font-family="Helvetica,sans-Serif" font-size="10.00" fill="#000000">/API/Device.inl</text>
</a>
</g>
</g>
<!-- Node14&#45;&gt;Node19 -->
<g id="edge29" class="edge">
<title>Node14&#45;&gt;Node19</title>
<path fill="none" stroke="#191970" d="M543.2941,-313.4639C563.3808,-303.9191 589.5876,-291.4663 611.3106,-281.144"/>
<polygon fill="#191970" stroke="#191970" points="613.0956,-284.1709 620.6255,-276.7177 610.0912,-277.8484 613.0956,-284.1709"/>
</g>
<!-- Node15&#45;&gt;Node5 -->
<g id="edge22" class="edge">
<title>Node15&#45;&gt;Node5</title>
<path fill="none" stroke="#191970" d="M455.448,-246.4517C436.6975,-238.6244 417.5673,-227.0075 405.6509,-210 379.4329,-172.5806 382.8851,-115.6975 387.0908,-85.8586"/>
<polygon fill="#191970" stroke="#191970" points="390.5695,-86.2685 388.6793,-75.8437 383.6559,-85.1719 390.5695,-86.2685"/>
</g>
<!-- Node15&#45;&gt;Node8 -->
<g id="edge20" class="edge">
<title>Node15&#45;&gt;Node8</title>
<path fill="none" stroke="#191970" d="M575.6837,-247.8225C642.5518,-233.4417 738.2508,-212.5421 741.6509,-210 784.2687,-178.1372 807.1966,-116.5229 816.5433,-85.2357"/>
<polygon fill="#191970" stroke="#191970" points="819.9339,-86.1077 819.2929,-75.5323 813.1991,-84.1992 819.9339,-86.1077"/>
</g>
<!-- Node15&#45;&gt;Node9 -->
<g id="edge21" class="edge">
<title>Node15&#45;&gt;Node9</title>
<path fill="none" stroke="#191970" d="M575.7062,-247.5324C635.0321,-234.3065 714.8334,-215.6548 719.6509,-210 749.4989,-174.9642 742.7277,-116.1853 736.4949,-85.6906"/>
<polygon fill="#191970" stroke="#191970" points="739.8885,-84.8277 734.2918,-75.8318 733.057,-86.3544 739.8885,-84.8277"/>
</g>
<!-- Node16 -->
<g id="node17" class="node">
<title>Node16</title>
<g id="a_node17"><a xlink:href="Vulkan_2API_2Queue_8hpp.html" target="_top" xlink:title="lug/Graphics/Vulkan\l/API/Queue.hpp">
<polygon fill="none" stroke="#000000" points="592.6509,-179.5 592.6509,-209.5 710.6509,-209.5 710.6509,-179.5 592.6509,-179.5"/>
<text text-anchor="start" x="600.6509" y="-197.5" font-family="Helvetica,sans-Serif" font-size="10.00" fill="#000000">lug/Graphics/Vulkan</text>
<text text-anchor="middle" x="651.6509" y="-186.5" font-family="Helvetica,sans-Serif" font-size="10.00" fill="#000000">/API/Queue.hpp</text>
</a>
</g>
</g>
<!-- Node15&#45;&gt;Node16 -->
<g id="edge23" class="edge">
<title>Node15&#45;&gt;Node16</title>
<path fill="none" stroke="#191970" d="M543.0697,-246.4639C563.0139,-236.9191 589.0348,-224.4663 610.6038,-214.144"/>
<polygon fill="#191970" stroke="#191970" points="612.3433,-217.1917 619.8527,-209.7177 609.3215,-210.8775 612.3433,-217.1917"/>
</g>
<!-- Node18 -->
<g id="node19" class="node">
<title>Node18</title>
<g id="a_node19"><a xlink:href="QueueFamily_8inl.html" target="_top" xlink:title="lug/Graphics/Vulkan\l/API/QueueFamily.inl">
<polygon fill="none" stroke="#000000" points="414.6509,-179.5 414.6509,-209.5 536.6509,-209.5 536.6509,-179.5 414.6509,-179.5"/>
<text text-anchor="start" x="422.6509" y="-197.5" font-family="Helvetica,sans-Serif" font-size="10.00" fill="#000000">lug/Graphics/Vulkan</text>
<text text-anchor="middle" x="475.6509" y="-186.5" font-family="Helvetica,sans-Serif" font-size="10.00" fill="#000000">/API/QueueFamily.inl</text>
</a>
</g>
</g>
<!-- Node15&#45;&gt;Node18 -->
<g id="edge27" class="edge">
<title>Node15&#45;&gt;Node18</title>
<path fill="none" stroke="#191970" d="M503.482,-246.2967C499.1093,-238.1586 493.62,-227.9425 488.6747,-218.7386"/>
<polygon fill="#191970" stroke="#191970" points="491.6039,-216.7955 483.7876,-209.6432 485.4376,-220.1087 491.6039,-216.7955"/>
</g>
<!-- Node16&#45;&gt;Node5 -->
<g id="edge24" class="edge">
<title>Node16&#45;&gt;Node5</title>
<path fill="none" stroke="#191970" d="M592.5539,-179.6401C550.9264,-168.6418 499.2558,-153.7632 479.6509,-143 450.869,-127.1986 423.1507,-100.8927 406.5027,-83.4974"/>
<polygon fill="#191970" stroke="#191970" points="408.6507,-80.6703 399.2631,-75.7587 403.5389,-85.4525 408.6507,-80.6703"/>
</g>
<!-- Node16&#45;&gt;Node7 -->
<g id="edge25" class="edge">
<title>Node16&#45;&gt;Node7</title>
<path fill="none" stroke="#191970" d="M628.3113,-179.4639C614.0935,-170.3044 595.7186,-158.4667 580.0987,-148.4038"/>
<polygon fill="#191970" stroke="#191970" points="581.5746,-145.1912 571.2725,-142.7177 577.7835,-151.0758 581.5746,-145.1912"/>
</g>
<!-- Node17 -->
<g id="node18" class="node">
<title>Node17</title>
<polygon fill="none" stroke="#bfbfbf" points="627.6509,-118 627.6509,-137 675.6509,-137 675.6509,-118 627.6509,-118"/>
<text text-anchor="middle" x="651.6509" y="-125" font-family="Helvetica,sans-Serif" font-size="10.00" fill="#000000">mutex</text>
</g>
<!-- Node16&#45;&gt;Node17 -->
<g id="edge26" class="edge">
<title>Node16&#45;&gt;Node17</title>
<path fill="none" stroke="#191970" d="M651.6509,-179.2967C651.6509,-169.7699 651.6509,-157.3954 651.6509,-147.1306"/>
<polygon fill="#191970" stroke="#191970" points="655.151,-147.0549 651.6509,-137.055 648.151,-147.055 655.151,-147.0549"/>
</g>
<!-- Node20&#45;&gt;Node2 -->
<g id="edge32" class="edge">
<title>Node20&#45;&gt;Node2</title>
<path fill="none" stroke="#191970" d="M1051.4431,-259.5912C917.4722,-255.6046 666.1197,-243.7541 583.6509,-210 563.4792,-201.7438 565.4315,-188.1537 545.6509,-179 500.6229,-158.1629 353.6801,-138.2276 293.1135,-130.6792"/>
<polygon fill="#191970" stroke="#191970" points="293.2063,-127.1643 282.8536,-129.4164 292.3512,-134.1118 293.2063,-127.1643"/>
</g>
<!-- Node20&#45;&gt;Node4 -->
<g id="edge31" class="edge">
<title>Node20&#45;&gt;Node4</title>
<path fill="none" stroke="#191970" d="M1051.4985,-256.3652C983.0206,-250.272 895.1219,-237.2584 872.6509,-210 858.2567,-192.5391 861.6295,-165.2076 866.3217,-146.8395"/>
<polygon fill="#191970" stroke="#191970" points="869.6926,-147.7817 869.1125,-137.2028 862.9689,-145.8344 869.6926,-147.7817"/>
</g>
<!-- Node21 -->
<g id="node22" class="node">
<title>Node21</title>
<polygon fill="none" stroke="#bfbfbf" points="1134.1509,-118 1134.1509,-137 1179.1509,-137 1179.1509,-118 1134.1509,-118"/>
<text text-anchor="middle" x="1156.6509" y="-125" font-family="Helvetica,sans-Serif" font-size="10.00" fill="#000000">string</text>
</g>
<!-- Node20&#45;&gt;Node21 -->
<g id="edge33" class="edge">
<title>Node20&#45;&gt;Node21</title>
<path fill="none" stroke="#191970" d="M1171.9671,-251.9763C1192.6209,-244.2784 1217.2462,-231.16 1229.6509,-210 1236.6189,-198.1141 1235.9912,-191.2322 1229.6509,-179 1220.9622,-162.2369 1204.0298,-149.771 1188.6587,-141.3059"/>
<polygon fill="#191970" stroke="#191970" points="1189.8731,-137.9955 1179.3774,-136.5496 1186.6806,-144.2251 1189.8731,-137.9955"/>
</g>
<!-- Node22 -->
<g id="node23" class="node">
<title>Node22</title>
<g id="a_node23"><a xlink:href="System_2Export_8hpp.html" target="_top" xlink:title="lug/System/Export.hpp">
<polygon fill="none" stroke="#000000" points="1056.6509,-56.5 1056.6509,-75.5 1188.6509,-75.5 1188.6509,-56.5 1056.6509,-56.5"/>
<text text-anchor="middle" x="1122.6509" y="-63.5" font-family="Helvetica,sans-Serif" font-size="10.00" fill="#000000">lug/System/Export.hpp</text>
</a>
</g>
</g>
<!-- Node20&#45;&gt;Node22 -->
<g id="edge34" class="edge">
<title>Node20&#45;&gt;Node22</title>
<path fill="none" stroke="#191970" d="M1183.2174,-251.9182C1206.1365,-244.5473 1231.9049,-231.7836 1245.6509,-210 1253.0035,-198.3481 1250.4072,-191.9308 1245.6509,-179 1228.868,-133.3722 1181.3124,-99.0422 1150.489,-80.782"/>
<polygon fill="#191970" stroke="#191970" points="1151.9291,-77.5733 1141.5128,-75.6362 1148.4477,-83.6462 1151.9291,-77.5733"/>
</g>
<!-- Node23 -->
<g id="node24" class="node">
<title>Node23</title>
<g id="a_node24"><a xlink:href="Common_8hpp.html" target="_top" xlink:title="lug/System/Logger/Common.hpp">
<polygon fill="none" stroke="#000000" points="1314.6509,-118 1314.6509,-137 1496.6509,-137 1496.6509,-118 1314.6509,-118"/>
<text text-anchor="middle" x="1405.6509" y="-125" font-family="Helvetica,sans-Serif" font-size="10.00" fill="#000000">lug/System/Logger/Common.hpp</text>
</a>
</g>
</g>
<!-- Node20&#45;&gt;Node23 -->
<g id="edge36" class="edge">
<title>Node20&#45;&gt;Node23</title>
<path fill="none" stroke="#191970" d="M1223.7363,-255.3368C1326.6521,-247.0767 1487.3929,-230.9911 1505.6509,-210 1529.9894,-182.0182 1481.5678,-155.8787 1443.9674,-140.8024"/>
<polygon fill="#191970" stroke="#191970" points="1444.7957,-137.3703 1434.2062,-137.0323 1442.2736,-143.9002 1444.7957,-137.3703"/>
</g>
<!-- Node26 -->
<g id="node27" class="node">
<title>Node26</title>
<g id="a_node27"><a xlink:href="LoggingFacility_8hpp.html" target="_top" xlink:title="lug/System/Logger/Logging\lFacility.hpp">
<polygon fill="none" stroke="#000000" points="881.1509,-179.5 881.1509,-209.5 1036.1509,-209.5 1036.1509,-179.5 881.1509,-179.5"/>
<text text-anchor="start" x="889.1509" y="-197.5" font-family="Helvetica,sans-Serif" font-size="10.00" fill="#000000">lug/System/Logger/Logging</text>
<text text-anchor="middle" x="958.6509" y="-186.5" font-family="Helvetica,sans-Serif" font-size="10.00" fill="#000000">Facility.hpp</text>
</a>
</g>
</g>
<!-- Node20&#45;&gt;Node26 -->
<g id="edge40" class="edge">
<title>Node20&#45;&gt;Node26</title>
<path fill="none" stroke="#191970" d="M1112.0046,-251.9005C1085.0812,-241.8231 1042.072,-225.7247 1008.4436,-213.1375"/>
<polygon fill="#191970" stroke="#191970" points="1009.3761,-209.7494 998.7837,-209.5218 1006.9222,-216.3052 1009.3761,-209.7494"/>
</g>
<!-- Node27 -->
<g id="node28" class="node">
<title>Node27</title>
<g id="a_node28"><a xlink:href="Message_8hpp.html" target="_top" xlink:title="lug/System/Logger/Message.hpp">
<polygon fill="none" stroke="#000000" points="1315.1509,-185 1315.1509,-204 1496.1509,-204 1496.1509,-185 1315.1509,-185"/>
<text text-anchor="middle" x="1405.6509" y="-192" font-family="Helvetica,sans-Serif" font-size="10.00" fill="#000000">lug/System/Logger/Message.hpp</text>
</a>
</g>
</g>
<!-- Node20&#45;&gt;Node27 -->
<g id="edge45" class="edge">
<title>Node20&#45;&gt;Node27</title>
<path fill="none" stroke="#191970" d="M1175.7642,-251.9717C1223.4531,-240.0495 1305.1677,-219.6208 1357.2358,-206.6038"/>
<polygon fill="#191970" stroke="#191970" points="1358.3827,-209.9248 1367.2352,-204.1039 1356.6849,-203.1339 1358.3827,-209.9248"/>
</g>
<!-- Node28 -->
<g id="node29" class="node">
<title>Node28</title>
<g id="a_node29"><a xlink:href="Logger_8inl.html" target="_top" xlink:title="lug/System/Logger/Logger.inl">
<polygon fill="none" stroke="#000000" points="1054.6509,-185 1054.6509,-204 1220.6509,-204 1220.6509,-185 1054.6509,-185"/>
<text text-anchor="middle" x="1137.6509" y="-192" font-family="Helvetica,sans-Serif" font-size="10.00" fill="#000000">lug/System/Logger/Logger.inl</text>
</a>
</g>
</g>
<!-- Node20&#45;&gt;Node28 -->
<g id="edge47" class="edge">
<title>Node20&#45;&gt;Node28</title>
<path fill="none" stroke="#191970" d="M1137.6509,-251.9005C1137.6509,-242.149 1137.6509,-226.7597 1137.6509,-214.3695"/>
<polygon fill="#191970" stroke="#191970" points="1141.151,-214.0816 1137.6509,-204.0817 1134.151,-214.0817 1141.151,-214.0816"/>
</g>
<!-- Node22&#45;&gt;Node6 -->
<g id="edge35" class="edge">
<title>Node22&#45;&gt;Node6</title>
<path fill="none" stroke="#191970" d="M1062.3692,-56.4369C995.5465,-45.8361 888.7157,-28.8885 824.2643,-18.6639"/>
<polygon fill="#191970" stroke="#191970" points="824.7217,-15.1927 814.2968,-17.0826 823.6248,-22.1063 824.7217,-15.1927"/>
</g>
<!-- Node23&#45;&gt;Node22 -->
<g id="edge37" class="edge">
<title>Node23&#45;&gt;Node22</title>
<path fill="none" stroke="#191970" d="M1361.7427,-117.9581C1311.861,-107.1181 1230.4319,-89.4224 1176.6918,-77.7439"/>
<polygon fill="#191970" stroke="#191970" points="1177.1774,-74.2678 1166.6622,-75.5643 1175.6908,-81.1081 1177.1774,-74.2678"/>
</g>
<!-- Node24 -->
<g id="node25" class="node">
<title>Node24</title>
<polygon fill="none" stroke="#bfbfbf" points="1416.6509,-56.5 1416.6509,-75.5 1498.6509,-75.5 1498.6509,-56.5 1416.6509,-56.5"/>
<text text-anchor="middle" x="1457.6509" y="-63.5" font-family="Helvetica,sans-Serif" font-size="10.00" fill="#000000">fmt/format.h</text>
</g>
<!-- Node23&#45;&gt;Node24 -->
<g id="edge38" class="edge">
<title>Node23&#45;&gt;Node24</title>
<path fill="none" stroke="#191970" d="M1413.7759,-117.8906C1421.5151,-108.7376 1433.3497,-94.7409 1442.7781,-83.59"/>
<polygon fill="#191970" stroke="#191970" points="1445.6274,-85.6409 1449.4114,-75.7449 1440.282,-81.1213 1445.6274,-85.6409"/>
</g>
<!-- Node25 -->
<g id="node26" class="node">
<title>Node25</title>
<polygon fill="none" stroke="#bfbfbf" points="1309.1509,-56.5 1309.1509,-75.5 1398.1509,-75.5 1398.1509,-56.5 1309.1509,-56.5"/>
<text text-anchor="middle" x="1353.6509" y="-63.5" font-family="Helvetica,sans-Serif" font-size="10.00" fill="#000000">fmt/ostream.h</text>
</g>
<!-- Node23&#45;&gt;Node25 -->
<g id="edge39" class="edge">
<title>Node23&#45;&gt;Node25</title>
<path fill="none" stroke="#191970" d="M1397.5259,-117.8906C1389.7867,-108.7376 1377.9522,-94.7409 1368.5238,-83.59"/>
<polygon fill="#191970" stroke="#191970" points="1371.0198,-81.1213 1361.8905,-75.7449 1365.6745,-85.6409 1371.0198,-81.1213"/>
</g>
<!-- Node26&#45;&gt;Node4 -->
<g id="edge42" class="edge">
<title>Node26&#45;&gt;Node4</title>
<path fill="none" stroke="#191970" d="M939.1362,-179.2967C925.3467,-168.5537 906.9091,-154.1895 892.9481,-143.3129"/>
<polygon fill="#191970" stroke="#191970" points="894.9551,-140.4398 884.9155,-137.055 890.6531,-145.9618 894.9551,-140.4398"/>
</g>
<!-- Node26&#45;&gt;Node8 -->
<g id="edge43" class="edge">
<title>Node26&#45;&gt;Node8</title>
<path fill="none" stroke="#191970" d="M953.1613,-179.379C945.9887,-161.3889 931.9103,-131.361 911.6509,-112 896.8795,-97.8836 876.9265,-87.0923 859.5613,-79.5216"/>
<polygon fill="#191970" stroke="#191970" points="860.8072,-76.2492 850.2295,-75.6463 858.1225,-82.7139 860.8072,-76.2492"/>
</g>
<!-- Node26&#45;&gt;Node21 -->
<g id="edge41" class="edge">
<title>Node26&#45;&gt;Node21</title>
<path fill="none" stroke="#191970" d="M1003.086,-179.4639C1039.9742,-166.9815 1091.5609,-149.5254 1124.5409,-138.3655"/>
<polygon fill="#191970" stroke="#191970" points="1125.7913,-141.6374 1134.1419,-135.1167 1123.5476,-135.0067 1125.7913,-141.6374"/>
</g>
<!-- Node26&#45;&gt;Node22 -->
<g id="edge44" class="edge">
<title>Node26&#45;&gt;Node22</title>
<path fill="none" stroke="#191970" d="M978.1079,-179.2548C1009.2854,-154.8261 1070.1612,-107.1276 1102.049,-82.1424"/>
<polygon fill="#191970" stroke="#191970" points="1104.5126,-84.6585 1110.2255,-75.7358 1100.1953,-79.1484 1104.5126,-84.6585"/>
</g>
<!-- Node27&#45;&gt;Node23 -->
<g id="edge46" class="edge">
<title>Node27&#45;&gt;Node23</title>
<path fill="none" stroke="#191970" d="M1405.6509,-184.9005C1405.6509,-175.149 1405.6509,-159.7597 1405.6509,-147.3695"/>
<polygon fill="#191970" stroke="#191970" points="1409.151,-147.0816 1405.6509,-137.0817 1402.151,-147.0817 1409.151,-147.0816"/>
</g>
</g>
</svg>
