<?xml version="1.0" encoding="UTF-8" standalone="no"?>
<!DOCTYPE svg PUBLIC "-//W3C//DTD SVG 1.1//EN"
 "http://www.w3.org/Graphics/SVG/1.1/DTD/svg11.dtd">
<!-- Generated by graphviz version 2.40.1 (20161225.0304)
 -->
<!-- Title: src/lug/Graphics/Vulkan/API/Builder/Instance.cpp Pages: 1 -->
<!--zoomable 352 -->
<svg id="main" version="1.1" xmlns="http://www.w3.org/2000/svg" xmlns:xlink="http://www.w3.org/1999/xlink" xml:space="preserve" onload="init(evt)">
<style type="text/css"><![CDATA[
.edge:hover path { stroke: red; }
.edge:hover polygon { stroke: red; fill: red; }
]]></style>
<script type="text/javascript"><![CDATA[
var edges = document.getElementsByTagName('g');
if (edges && edges.length) {
  for (var i=0;i<edges.length;i++) {
    if (edges[i].id.substr(0,4)=='edge') {
      edges[i].setAttribute('class','edge');
    }
  }
}
]]></script>
        <defs>
                <circle id="rim" cx="0" cy="0" r="7"/>
                <circle id="rim2" cx="0" cy="0" r="3.5"/>
                <g id="zoomPlus">
                        <use xlink:href="#rim" fill="#404040">
                                <set attributeName="fill" to="#808080" begin="zoomplus.mouseover" end="zoomplus.mouseout"/>
                        </use>
                        <path d="M-4,0h8M0,-4v8" fill="none" stroke="white" stroke-width="1.5" pointer-events="none"/>
                </g>
                <g id="zoomMin">
                        <use xlink:href="#rim" fill="#404040">
                                <set attributeName="fill" to="#808080" begin="zoomminus.mouseover" end="zoomminus.mouseout"/>
                        </use>
                        <path d="M-4,0h8" fill="none" stroke="white" stroke-width="1.5" pointer-events="none"/>
                </g>
                <g id="dirArrow">
                        <path fill="none" stroke="white" stroke-width="1.5" d="M0,-3.0v7 M-2.5,-0.5L0,-3.0L2.5,-0.5"/>
                </g>
               <g id="resetDef">
                       <use xlink:href="#rim2" fill="#404040">
                               <set attributeName="fill" to="#808080" begin="reset.mouseover" end="reset.mouseout"/>
                       </use>
               </g>
        </defs>

<script type="text/javascript">
var viewWidth = 614;
var viewHeight = 352;
var sectionId = 'dynsection-0';
</script>
<script xlink:href="svgpan.js"/>
<svg id="graph" class="graph">
<g id="viewport">
<title>src/lug/Graphics/Vulkan/API/Builder/Instance.cpp</title>
<!-- Node0 -->
<g id="node1" class="node">
<title>Node0</title>
<polygon fill="#bfbfbf" stroke="#000000" points="121,-313.5 121,-343.5 266,-343.5 266,-313.5 121,-313.5"/>
<text text-anchor="start" x="129" y="-331.5" font-family="Helvetica,sans-Serif" font-size="10.00" fill="#000000">src/lug/Graphics/Vulkan</text>
<text text-anchor="middle" x="193.5" y="-320.5" font-family="Helvetica,sans-Serif" font-size="10.00" fill="#000000">/API/Builder/Instance.cpp</text>
</g>
<!-- Node1 -->
<g id="node2" class="node">
<title>Node1</title>
<g id="a_node2"><a xlink:href="Builder_2Instance_8hpp.html" target="_top" xlink:title="lug/Graphics/Vulkan\l/API/Builder/Instance.hpp">
<polygon fill="none" stroke="#000000" points="120.5,-246.5 120.5,-276.5 266.5,-276.5 266.5,-246.5 120.5,-246.5"/>
<text text-anchor="start" x="128.5" y="-264.5" font-family="Helvetica,sans-Serif" font-size="10.00" fill="#000000">lug/Graphics/Vulkan</text>
<text text-anchor="middle" x="193.5" y="-253.5" font-family="Helvetica,sans-Serif" font-size="10.00" fill="#000000">/API/Builder/Instance.hpp</text>
</a>
</g>
</g>
<!-- Node0&#45;&gt;Node1 -->
<g id="edge1" class="edge">
<title>Node0&#45;&gt;Node1</title>
<path fill="none" stroke="#191970" d="M193.5,-313.2967C193.5,-305.5013 193.5,-295.7991 193.5,-286.9064"/>
<polygon fill="#191970" stroke="#191970" points="197.0001,-286.6431 193.5,-276.6432 190.0001,-286.6432 197.0001,-286.6431"/>
</g>
<!-- Node2 -->
<g id="node3" class="node">
<title>Node2</title>
<polygon fill="none" stroke="#bfbfbf" points="0,-185 0,-204 59,-204 59,-185 0,-185"/>
<text text-anchor="middle" x="29.5" y="-192" font-family="Helvetica,sans-Serif" font-size="10.00" fill="#000000">memory</text>
</g>
<!-- Node1&#45;&gt;Node2 -->
<g id="edge2" class="edge">
<title>Node1&#45;&gt;Node2</title>
<path fill="none" stroke="#191970" d="M156.6952,-246.4639C128.4344,-234.9183 89.758,-219.1176 62.4954,-207.9798"/>
<polygon fill="#191970" stroke="#191970" points="63.5891,-204.6459 53.0081,-204.1039 60.9417,-211.126 63.5891,-204.6459"/>
</g>
<!-- Node3 -->
<g id="node4" class="node">
<title>Node3</title>
<polygon fill="none" stroke="#bfbfbf" points="77,-185 77,-204 122,-204 122,-185 77,-185"/>
<text text-anchor="middle" x="99.5" y="-192" font-family="Helvetica,sans-Serif" font-size="10.00" fill="#000000">string</text>
</g>
<!-- Node1&#45;&gt;Node3 -->
<g id="edge3" class="edge">
<title>Node1&#45;&gt;Node3</title>
<path fill="none" stroke="#191970" d="M172.1699,-246.2967C156.9555,-235.4524 136.5643,-220.9182 121.2547,-210.006"/>
<polygon fill="#191970" stroke="#191970" points="123.0802,-207.0091 112.9055,-204.055 119.0172,-212.7093 123.0802,-207.0091"/>
</g>
<!-- Node4 -->
<g id="node5" class="node">
<title>Node4</title>
<polygon fill="none" stroke="#bfbfbf" points="28.5,-56.5 28.5,-75.5 76.5,-75.5 76.5,-56.5 28.5,-56.5"/>
<text text-anchor="middle" x="52.5" y="-63.5" font-family="Helvetica,sans-Serif" font-size="10.00" fill="#000000">vector</text>
</g>
<!-- Node1&#45;&gt;Node4 -->
<g id="edge4" class="edge">
<title>Node1&#45;&gt;Node4</title>
<path fill="none" stroke="#191970" d="M182.6701,-246.4841C157.1185,-211.0561 93.1547,-122.3688 65.536,-84.0747"/>
<polygon fill="#191970" stroke="#191970" points="68.3212,-81.9531 59.6328,-75.8898 62.6437,-86.0478 68.3212,-81.9531"/>
</g>
<!-- Node5 -->
<g id="node6" class="node">
<title>Node5</title>
<g id="a_node6"><a xlink:href="Version_8hpp.html" target="_top" xlink:title="lug/Core/Version.hpp">
<polygon fill="none" stroke="#000000" points="315,-185 315,-204 438,-204 438,-185 315,-185"/>
<text text-anchor="middle" x="376.5" y="-192" font-family="Helvetica,sans-Serif" font-size="10.00" fill="#000000">lug/Core/Version.hpp</text>
</a>
</g>
</g>
<!-- Node1&#45;&gt;Node5 -->
<g id="edge5" class="edge">
<title>Node1&#45;&gt;Node5</title>
<path fill="none" stroke="#191970" d="M234.5688,-246.4639C266.475,-234.7824 310.2788,-218.7449 340.7512,-207.5884"/>
<polygon fill="#191970" stroke="#191970" points="342.3507,-210.73 350.5378,-204.0053 339.944,-204.1567 342.3507,-210.73"/>
</g>
<!-- Node7 -->
<g id="node8" class="node">
<title>Node7</title>
<g id="a_node8"><a xlink:href="Instance_8hpp.html" target="_top" xlink:title="lug/Graphics/Vulkan\l/API/Instance.hpp">
<polygon fill="none" stroke="#000000" points="178.5,-179.5 178.5,-209.5 296.5,-209.5 296.5,-179.5 178.5,-179.5"/>
<text text-anchor="start" x="186.5" y="-197.5" font-family="Helvetica,sans-Serif" font-size="10.00" fill="#000000">lug/Graphics/Vulkan</text>
<text text-anchor="middle" x="237.5" y="-186.5" font-family="Helvetica,sans-Serif" font-size="10.00" fill="#000000">/API/Instance.hpp</text>
</a>
</g>
</g>
<!-- Node1&#45;&gt;Node7 -->
<g id="edge7" class="edge">
<title>Node1&#45;&gt;Node7</title>
<path fill="none" stroke="#191970" d="M203.4843,-246.2967C208.9412,-237.9873 215.8208,-227.5115 221.9629,-218.1587"/>
<polygon fill="#191970" stroke="#191970" points="224.9914,-219.9231 227.5552,-209.6432 219.1404,-216.0806 224.9914,-219.9231"/>
</g>
<!-- Node15 -->
<g id="node16" class="node">
<title>Node15</title>
<g id="a_node16"><a xlink:href="Builder_2Instance_8inl.html" target="_top" xlink:title="lug/Graphics/Vulkan\l/API/Builder/Instance.inl">
<polygon fill="none" stroke="#000000" points="456.5,-179.5 456.5,-209.5 596.5,-209.5 596.5,-179.5 456.5,-179.5"/>
<text text-anchor="start" x="464.5" y="-197.5" font-family="Helvetica,sans-Serif" font-size="10.00" fill="#000000">lug/Graphics/Vulkan</text>
<text text-anchor="middle" x="526.5" y="-186.5" font-family="Helvetica,sans-Serif" font-size="10.00" fill="#000000">/API/Builder/Instance.inl</text>
</a>
</g>
</g>
<!-- Node1&#45;&gt;Node15 -->
<g id="edge17" class="edge">
<title>Node1&#45;&gt;Node15</title>
<path fill="none" stroke="#191970" d="M266.5783,-246.7966C319.7476,-236.0988 391.7093,-221.62 446.434,-210.6094"/>
<polygon fill="#191970" stroke="#191970" points="447.3302,-213.9993 456.4433,-208.5955 445.9494,-207.1368 447.3302,-213.9993"/>
</g>
<!-- Node6 -->
<g id="node7" class="node">
<title>Node6</title>
<g id="a_node7"><a xlink:href="Version_8inl.html" target="_top" xlink:title="lug/Core/Version.inl">
<polygon fill="none" stroke="#000000" points="489,-118 489,-137 606,-137 606,-118 489,-118"/>
<text text-anchor="middle" x="547.5" y="-125" font-family="Helvetica,sans-Serif" font-size="10.00" fill="#000000">lug/Core/Version.inl</text>
</a>
</g>
</g>
<!-- Node5&#45;&gt;Node6 -->
<g id="edge6" class="edge">
<title>Node5&#45;&gt;Node6</title>
<path fill="none" stroke="#191970" d="M401.0001,-184.9005C430.5867,-173.3082 480.5074,-153.7486 513.7305,-140.7313"/>
<polygon fill="#191970" stroke="#191970" points="515.0113,-143.9886 523.0453,-137.0817 512.4576,-137.471 515.0113,-143.9886"/>
</g>
<!-- Node8 -->
<g id="node9" class="node">
<title>Node8</title>
<g id="a_node9"><a xlink:href="Graphics_2Export_8hpp.html" target="_top" xlink:title="lug/Graphics/Export.hpp">
<polygon fill="none" stroke="#000000" points="400.5,-56.5 400.5,-75.5 538.5,-75.5 538.5,-56.5 400.5,-56.5"/>
<text text-anchor="middle" x="469.5" y="-63.5" font-family="Helvetica,sans-Serif" font-size="10.00" fill="#000000">lug/Graphics/Export.hpp</text>
</a>
</g>
</g>
<!-- Node7&#45;&gt;Node8 -->
<g id="edge8" class="edge">
<title>Node7&#45;&gt;Node8</title>
<path fill="none" stroke="#191970" d="M296.5201,-181.0235C354.7835,-167.5035 435.9772,-147.989 441.5,-143 457.7785,-128.2951 464.6055,-103.3634 467.4609,-85.863"/>
<polygon fill="#191970" stroke="#191970" points="470.9744,-85.9921 468.8232,-75.618 464.0355,-85.0693 470.9744,-85.9921"/>
</g>
<!-- Node10 -->
<g id="node11" class="node">
<title>Node10</title>
<g id="a_node11"><a xlink:href="Vulkan_8hpp.html" target="_top" xlink:title="lug/Graphics/Vulkan\l/Vulkan.hpp">
<polygon fill="none" stroke="#000000" points="178.5,-112.5 178.5,-142.5 296.5,-142.5 296.5,-112.5 178.5,-112.5"/>
<text text-anchor="start" x="186.5" y="-130.5" font-family="Helvetica,sans-Serif" font-size="10.00" fill="#000000">lug/Graphics/Vulkan</text>
<text text-anchor="middle" x="237.5" y="-119.5" font-family="Helvetica,sans-Serif" font-size="10.00" fill="#000000">/Vulkan.hpp</text>
</a>
</g>
</g>
<!-- Node7&#45;&gt;Node10 -->
<g id="edge10" class="edge">
<title>Node7&#45;&gt;Node10</title>
<path fill="none" stroke="#191970" d="M237.5,-179.2967C237.5,-171.5013 237.5,-161.7991 237.5,-152.9064"/>
<polygon fill="#191970" stroke="#191970" points="241.0001,-152.6431 237.5,-142.6432 234.0001,-152.6432 241.0001,-152.6431"/>
</g>
<!-- Node14 -->
<g id="node15" class="node">
<title>Node14</title>
<g id="a_node15"><a xlink:href="Instance_8inl.html" target="_top" xlink:title="lug/Graphics/Vulkan\l/API/Instance.inl">
<polygon fill="none" stroke="#000000" points="314.5,-112.5 314.5,-142.5 432.5,-142.5 432.5,-112.5 314.5,-112.5"/>
<text text-anchor="start" x="322.5" y="-130.5" font-family="Helvetica,sans-Serif" font-size="10.00" fill="#000000">lug/Graphics/Vulkan</text>
<text text-anchor="middle" x="373.5" y="-119.5" font-family="Helvetica,sans-Serif" font-size="10.00" fill="#000000">/API/Instance.inl</text>
</a>
</g>
</g>
<!-- Node7&#45;&gt;Node14 -->
<g id="edge16" class="edge">
<title>Node7&#45;&gt;Node14</title>
<path fill="none" stroke="#191970" d="M268.0211,-179.4639C287.3955,-169.9191 312.673,-157.4663 333.6257,-147.144"/>
<polygon fill="#191970" stroke="#191970" points="335.1865,-150.2768 342.6103,-142.7177 332.093,-143.9974 335.1865,-150.2768"/>
</g>
<!-- Node9 -->
<g id="node10" class="node">
<title>Node9</title>
<g id="a_node10"><a xlink:href="Config_8hpp.html" target="_top" xlink:title="lug/Config.hpp">
<polygon fill="none" stroke="#000000" points="425,-.5 425,-19.5 514,-19.5 514,-.5 425,-.5"/>
<text text-anchor="middle" x="469.5" y="-7.5" font-family="Helvetica,sans-Serif" font-size="10.00" fill="#000000">lug/Config.hpp</text>
</a>
</g>
</g>
<!-- Node8&#45;&gt;Node9 -->
<g id="edge9" class="edge">
<title>Node8&#45;&gt;Node9</title>
<path fill="none" stroke="#191970" d="M469.5,-56.2455C469.5,-48.9382 469.5,-38.6944 469.5,-29.7046"/>
<polygon fill="#191970" stroke="#191970" points="473.0001,-29.6426 469.5,-19.6427 466.0001,-29.6427 473.0001,-29.6426"/>
</g>
<!-- Node10&#45;&gt;Node4 -->
<g id="edge12" class="edge">
<title>Node10&#45;&gt;Node4</title>
<path fill="none" stroke="#191970" d="M192.2439,-112.4554C159.4716,-101.5608 115.884,-87.0709 86.1585,-77.1892"/>
<polygon fill="#191970" stroke="#191970" points="87.2383,-73.8599 76.6447,-74.0265 85.03,-80.5024 87.2383,-73.8599"/>
</g>
<!-- Node10&#45;&gt;Node8 -->
<g id="edge14" class="edge">
<title>Node10&#45;&gt;Node8</title>
<path fill="none" stroke="#191970" d="M294.2536,-112.4554C333.9821,-101.9239 386.3844,-88.0328 423.5064,-78.1923"/>
<polygon fill="#191970" stroke="#191970" points="424.7789,-81.4759 433.5482,-75.5303 422.9852,-74.7096 424.7789,-81.4759"/>
</g>
<!-- Node11 -->
<g id="node12" class="node">
<title>Node11</title>
<polygon fill="none" stroke="#bfbfbf" points="95,-56.5 95,-75.5 190,-75.5 190,-56.5 95,-56.5"/>
<text text-anchor="middle" x="142.5" y="-63.5" font-family="Helvetica,sans-Serif" font-size="10.00" fill="#000000">unordered_map</text>
</g>
<!-- Node10&#45;&gt;Node11 -->
<g id="edge11" class="edge">
<title>Node10&#45;&gt;Node11</title>
<path fill="none" stroke="#191970" d="M214.0168,-112.2977C199.3652,-102.8127 180.5764,-90.6495 165.9341,-81.1705"/>
<polygon fill="#191970" stroke="#191970" points="167.7236,-78.1596 157.427,-75.6633 163.9195,-84.0357 167.7236,-78.1596"/>
</g>
<!-- Node12 -->
<g id="node13" class="node">
<title>Node12</title>
<polygon fill="none" stroke="#bfbfbf" points="208.5,-56.5 208.5,-75.5 266.5,-75.5 266.5,-56.5 208.5,-56.5"/>
<text text-anchor="middle" x="237.5" y="-63.5" font-family="Helvetica,sans-Serif" font-size="10.00" fill="#000000">ostream</text>
</g>
<!-- Node10&#45;&gt;Node12 -->
<g id="edge13" class="edge">
<title>Node10&#45;&gt;Node12</title>
<path fill="none" stroke="#191970" d="M237.5,-112.2977C237.5,-104.3834 237.5,-94.6043 237.5,-86.0759"/>
<polygon fill="#191970" stroke="#191970" points="241.0001,-85.8469 237.5,-75.8469 234.0001,-85.847 241.0001,-85.8469"/>
</g>
<!-- Node13 -->
<g id="node14" class="node">
<title>Node13</title>
<polygon fill="none" stroke="#bfbfbf" points="285,-56.5 285,-75.5 382,-75.5 382,-56.5 285,-56.5"/>
<text text-anchor="middle" x="333.5" y="-63.5" font-family="Helvetica,sans-Serif" font-size="10.00" fill="#000000">vulkan/vulkan.h</text>
</g>
<!-- Node10&#45;&gt;Node13 -->
<g id="edge15" class="edge">
<title>Node10&#45;&gt;Node13</title>
<path fill="none" stroke="#191970" d="M261.2303,-112.2977C276.0362,-102.8127 295.0228,-90.6495 309.8193,-81.1705"/>
<polygon fill="#191970" stroke="#191970" points="311.8835,-84.0047 318.4159,-75.6633 308.1075,-78.1105 311.8835,-84.0047"/>
</g>
</g>
</svg>
        <g id="navigator" transform="translate(0 0)" fill="#404254">
                <rect fill="#f2f5e9" fill-opacity="0.5" stroke="#606060" stroke-width=".5" x="0" y="0" width="60" height="60"/>
                <use id="zoomplus" xlink:href="#zoomPlus" x="17" y="9" onmousedown="handleZoom(evt,'in')"/>
                <use id="zoomminus" xlink:href="#zoomMin" x="42" y="9" onmousedown="handleZoom(evt,'out')"/>
                <use id="reset" xlink:href="#resetDef" x="30" y="36" onmousedown="handleReset()"/>
                <g id="arrowUp" xlink:href="#dirArrow" transform="translate(30 24)" onmousedown="handlePan(0,-1)">
                  <use xlink:href="#rim" fill="#404040">
                        <set attributeName="fill" to="#808080" begin="arrowUp.mouseover" end="arrowUp.mouseout"/>
                  </use>
                  <path fill="none" stroke="white" stroke-width="1.5" d="M0,-3.0v7 M-2.5,-0.5L0,-3.0L2.5,-0.5"/>
                </g>
                <g id="arrowRight" xlink:href="#dirArrow" transform="rotate(90) translate(36 -43)" onmousedown="handlePan(1,0)">
                  <use xlink:href="#rim" fill="#404040">
                        <set attributeName="fill" to="#808080" begin="arrowRight.mouseover" end="arrowRight.mouseout"/>
                  </use>
                  <path fill="none" stroke="white" stroke-width="1.5" d="M0,-3.0v7 M-2.5,-0.5L0,-3.0L2.5,-0.5"/>
                </g>
                <g id="arrowDown" xlink:href="#dirArrow" transform="rotate(180) translate(-30 -48)" onmousedown="handlePan(0,1)">
                  <use xlink:href="#rim" fill="#404040">
                        <set attributeName="fill" to="#808080" begin="arrowDown.mouseover" end="arrowDown.mouseout"/>
                  </use>
                  <path fill="none" stroke="white" stroke-width="1.5" d="M0,-3.0v7 M-2.5,-0.5L0,-3.0L2.5,-0.5"/>
                </g>
                <g id="arrowLeft" xlink:href="#dirArrow" transform="rotate(270) translate(-36 17)" onmousedown="handlePan(-1,0)">
                  <use xlink:href="#rim" fill="#404040">
                        <set attributeName="fill" to="#808080" begin="arrowLeft.mouseover" end="arrowLeft.mouseout"/>
                  </use>
                  <path fill="none" stroke="white" stroke-width="1.5" d="M0,-3.0v7 M-2.5,-0.5L0,-3.0L2.5,-0.5"/>
                </g>
        </g>
        <svg viewBox="0 0 15 15" width="100%" height="30px" preserveAspectRatio="xMaxYMin meet">
         <g id="arrow_out" transform="scale(0.3 0.3)">
          <a xlink:href="Builder_2Instance_8cpp__incl_org.svg" target="_base">
           <rect id="button" ry="5" rx="5" y="6" x="6" height="38" width="38"
                fill="#f2f5e9" fill-opacity="0.5" stroke="#606060" stroke-width="1.0"/>
           <path id="arrow"
             d="M 11.500037,31.436501 C 11.940474,20.09759 22.043105,11.32322 32.158766,21.979434 L 37.068811,17.246167 C 37.068811,17.246167 37.088388,32 37.088388,32 L 22.160133,31.978069 C 22.160133,31.978069 26.997745,27.140456 26.997745,27.140456 C 18.528582,18.264221 13.291696,25.230495 11.500037,31.436501 z"
             style="fill:#404040;"/>
          </a>
         </g>
        </svg>
</svg>
