<?xml version="1.0" encoding="UTF-8" standalone="no"?>
<!DOCTYPE svg PUBLIC "-//W3C//DTD SVG 1.1//EN"
 "http://www.w3.org/Graphics/SVG/1.1/DTD/svg11.dtd">
<!-- Generated by graphviz version 2.40.1 (20161225.0304)
 -->
<!-- Title: include/lug/Graphics/Vulkan/API/Builder/PipelineLayout.hpp Pages: 1 -->
<svg width="843pt" height="117pt"
 viewBox="0.00 0.00 843.00 117.00" xmlns="http://www.w3.org/2000/svg" xmlns:xlink="http://www.w3.org/1999/xlink">
<g id="graph0" class="graph" transform="scale(1 1) rotate(0) translate(4 113)">
<title>include/lug/Graphics/Vulkan/API/Builder/PipelineLayout.hpp</title>
<!-- Node14 -->
<g id="node1" class="node">
<title>Node14</title>
<polygon fill="#bfbfbf" stroke="#000000" points="337,-67.5 337,-108.5 496,-108.5 496,-67.5 337,-67.5"/>
<text text-anchor="start" x="345" y="-96.5" font-family="Helvetica,sans-Serif" font-size="10.00" fill="#000000">include/lug/Graphics</text>
<text text-anchor="start" x="345" y="-85.5" font-family="Helvetica,sans-Serif" font-size="10.00" fill="#000000">/Vulkan/API/Builder/Pipeline</text>
<text text-anchor="middle" x="416.5" y="-74.5" font-family="Helvetica,sans-Serif" font-size="10.00" fill="#000000">Layout.hpp</text>
</g>
<!-- Node15 -->
<g id="node2" class="node">
<title>Node15</title>
<g id="a_node2"><a xlink:href="Builder_2PipelineLayout_8cpp.html" target="_top" xlink:title="src/lug/Graphics/Vulkan\l/API/Builder/PipelineLayout.cpp">
<polygon fill="none" stroke="#000000" points="0,-.5 0,-30.5 175,-30.5 175,-.5 0,-.5"/>
<text text-anchor="start" x="8" y="-18.5" font-family="Helvetica,sans-Serif" font-size="10.00" fill="#000000">src/lug/Graphics/Vulkan</text>
<text text-anchor="middle" x="87.5" y="-7.5" font-family="Helvetica,sans-Serif" font-size="10.00" fill="#000000">/API/Builder/PipelineLayout.cpp</text>
</a>
</g>
</g>
<!-- Node14&#45;&gt;Node15 -->
<g id="edge1" class="edge">
<title>Node14&#45;&gt;Node15</title>
<path fill="none" stroke="#191970" d="M326.9564,-68.2677C273.0348,-56.3853 205.4456,-41.4911 155.8375,-30.5592"/>
<polygon fill="#191970" stroke="#191970" points="326.3393,-71.7157 336.8583,-70.4498 327.8458,-64.8797 326.3393,-71.7157"/>
</g>
<!-- Node16 -->
<g id="node3" class="node">
<title>Node16</title>
<g id="a_node3"><a xlink:href="Vulkan_2Builder_2SkyBox_8cpp.html" target="_top" xlink:title="src/lug/Graphics/Vulkan\l/Builder/SkyBox.cpp">
<polygon fill="none" stroke="#000000" points="193,-.5 193,-30.5 330,-30.5 330,-.5 193,-.5"/>
<text text-anchor="start" x="201" y="-18.5" font-family="Helvetica,sans-Serif" font-size="10.00" fill="#000000">src/lug/Graphics/Vulkan</text>
<text text-anchor="middle" x="261.5" y="-7.5" font-family="Helvetica,sans-Serif" font-size="10.00" fill="#000000">/Builder/SkyBox.cpp</text>
</a>
</g>
</g>
<!-- Node14&#45;&gt;Node16 -->
<g id="edge2" class="edge">
<title>Node14&#45;&gt;Node16</title>
<path fill="none" stroke="#191970" d="M363.1638,-63.0524C340.0845,-52.2573 313.8283,-39.9762 293.7808,-30.5991"/>
<polygon fill="#191970" stroke="#191970" points="361.9568,-66.3518 372.4978,-67.4183 364.9226,-60.0111 361.9568,-66.3518"/>
</g>
<!-- Node17 -->
<g id="node4" class="node">
<title>Node17</title>
<g id="a_node4"><a xlink:href="Gui_8cpp.html" target="_top" xlink:title="src/lug/Graphics/Vulkan\l/Gui.cpp">
<polygon fill="none" stroke="#000000" points="348,-.5 348,-30.5 485,-30.5 485,-.5 348,-.5"/>
<text text-anchor="start" x="356" y="-18.5" font-family="Helvetica,sans-Serif" font-size="10.00" fill="#000000">src/lug/Graphics/Vulkan</text>
<text text-anchor="middle" x="416.5" y="-7.5" font-family="Helvetica,sans-Serif" font-size="10.00" fill="#000000">/Gui.cpp</text>
</a>
</g>
</g>
<!-- Node14&#45;&gt;Node17 -->
<g id="edge3" class="edge">
<title>Node14&#45;&gt;Node17</title>
<path fill="none" stroke="#191970" d="M416.5,-57.3279C416.5,-48.0871 416.5,-38.3508 416.5,-30.5991"/>
<polygon fill="#191970" stroke="#191970" points="413.0001,-57.4183 416.5,-67.4183 420.0001,-57.4184 413.0001,-57.4183"/>
</g>
<!-- Node18 -->
<g id="node5" class="node">
<title>Node18</title>
<g id="a_node5"><a xlink:href="Render_2Pipeline_8cpp.html" target="_top" xlink:title="src/lug/Graphics/Vulkan\l/Render/Pipeline.cpp">
<polygon fill="none" stroke="#000000" points="503,-.5 503,-30.5 640,-30.5 640,-.5 503,-.5"/>
<text text-anchor="start" x="511" y="-18.5" font-family="Helvetica,sans-Serif" font-size="10.00" fill="#000000">src/lug/Graphics/Vulkan</text>
<text text-anchor="middle" x="571.5" y="-7.5" font-family="Helvetica,sans-Serif" font-size="10.00" fill="#000000">/Render/Pipeline.cpp</text>
</a>
</g>
</g>
<!-- Node14&#45;&gt;Node18 -->
<g id="edge4" class="edge">
<title>Node14&#45;&gt;Node18</title>
<path fill="none" stroke="#191970" d="M469.8362,-63.0524C492.9155,-52.2573 519.1717,-39.9762 539.2192,-30.5991"/>
<polygon fill="#191970" stroke="#191970" points="468.0774,-60.0111 460.5022,-67.4183 471.0432,-66.3518 468.0774,-60.0111"/>
</g>
<!-- Node19 -->
<g id="node6" class="node">
<title>Node19</title>
<g id="a_node6"><a xlink:href="Forward_8cpp.html" target="_top" xlink:title="src/lug/Graphics/Vulkan\l/Render/Technique/Forward.cpp">
<polygon fill="none" stroke="#000000" points="658,-.5 658,-30.5 835,-30.5 835,-.5 658,-.5"/>
<text text-anchor="start" x="666" y="-18.5" font-family="Helvetica,sans-Serif" font-size="10.00" fill="#000000">src/lug/Graphics/Vulkan</text>
<text text-anchor="middle" x="746.5" y="-7.5" font-family="Helvetica,sans-Serif" font-size="10.00" fill="#000000">/Render/Technique/Forward.cpp</text>
</a>
</g>
</g>
<!-- Node14&#45;&gt;Node19 -->
<g id="edge5" class="edge">
<title>Node14&#45;&gt;Node19</title>
<path fill="none" stroke="#191970" d="M506.3158,-68.2677C560.4013,-56.3853 628.1959,-41.4911 677.9547,-30.5592"/>
<polygon fill="#191970" stroke="#191970" points="505.3998,-64.8854 496.3838,-70.4498 506.9019,-71.7224 505.3998,-64.8854"/>
</g>
</g>
</svg>
