<?xml version="1.0" encoding="UTF-8" standalone="no"?>
<!DOCTYPE svg PUBLIC "-//W3C//DTD SVG 1.1//EN"
 "http://www.w3.org/Graphics/SVG/1.1/DTD/svg11.dtd">
<!-- Generated by graphviz version 2.40.1 (20161225.0304)
 -->
<!-- Title: include/lug/Graphics/Vulkan/API/Builder/Fence.inl Pages: 1 -->
<!--zoomable 173 -->
<svg id="main" version="1.1" xmlns="http://www.w3.org/2000/svg" xmlns:xlink="http://www.w3.org/1999/xlink" xml:space="preserve" onload="init(evt)">
<style type="text/css"><![CDATA[
.edge:hover path { stroke: red; }
.edge:hover polygon { stroke: red; fill: red; }
]]></style>
<script type="text/javascript"><![CDATA[
var edges = document.getElementsByTagName('g');
if (edges && edges.length) {
  for (var i=0;i<edges.length;i++) {
    if (edges[i].id.substr(0,4)=='edge') {
      edges[i].setAttribute('class','edge');
    }
  }
}
]]></script>
        <defs>
                <circle id="rim" cx="0" cy="0" r="7"/>
                <circle id="rim2" cx="0" cy="0" r="3.5"/>
                <g id="zoomPlus">
                        <use xlink:href="#rim" fill="#404040">
                                <set attributeName="fill" to="#808080" begin="zoomplus.mouseover" end="zoomplus.mouseout"/>
                        </use>
                        <path d="M-4,0h8M0,-4v8" fill="none" stroke="white" stroke-width="1.5" pointer-events="none"/>
                </g>
                <g id="zoomMin">
                        <use xlink:href="#rim" fill="#404040">
                                <set attributeName="fill" to="#808080" begin="zoomminus.mouseover" end="zoomminus.mouseout"/>
                        </use>
                        <path d="M-4,0h8" fill="none" stroke="white" stroke-width="1.5" pointer-events="none"/>
                </g>
                <g id="dirArrow">
                        <path fill="none" stroke="white" stroke-width="1.5" d="M0,-3.0v7 M-2.5,-0.5L0,-3.0L2.5,-0.5"/>
                </g>
               <g id="resetDef">
                       <use xlink:href="#rim2" fill="#404040">
                               <set attributeName="fill" to="#808080" begin="reset.mouseover" end="reset.mouseout"/>
                       </use>
               </g>
        </defs>

<script type="text/javascript">
var viewWidth = 960;
var viewHeight = 173;
var sectionId = 'dynsection-0';
</script>
<script xlink:href="svgpan.js"/>
<svg id="graph" class="graph">
<g id="viewport">
<title>include/lug/Graphics/Vulkan/API/Builder/Fence.inl</title>
<!-- Node1 -->
<g id="node1" class="node">
<title>Node1</title>
<polygon fill="#bfbfbf" stroke="#000000" points="373.5,-134.5 373.5,-164.5 537.5,-164.5 537.5,-134.5 373.5,-134.5"/>
<text text-anchor="start" x="381.5" y="-152.5" font-family="Helvetica,sans-Serif" font-size="10.00" fill="#000000">include/lug/Graphics</text>
<text text-anchor="middle" x="455.5" y="-141.5" font-family="Helvetica,sans-Serif" font-size="10.00" fill="#000000">/Vulkan/API/Builder/Fence.inl</text>
</g>
<!-- Node2 -->
<g id="node2" class="node">
<title>Node2</title>
<g id="a_node2"><a xlink:href="Builder_2Fence_8hpp.html" target="_top" xlink:title="include/lug/Graphics\l/Vulkan/API/Builder/Fence.hpp">
<polygon fill="none" stroke="#000000" points="370.5,-67.5 370.5,-97.5 540.5,-97.5 540.5,-67.5 370.5,-67.5"/>
<text text-anchor="start" x="378.5" y="-85.5" font-family="Helvetica,sans-Serif" font-size="10.00" fill="#000000">include/lug/Graphics</text>
<text text-anchor="middle" x="455.5" y="-74.5" font-family="Helvetica,sans-Serif" font-size="10.00" fill="#000000">/Vulkan/API/Builder/Fence.hpp</text>
</a>
</g>
</g>
<!-- Node1&#45;&gt;Node2 -->
<g id="edge1" class="edge">
<title>Node1&#45;&gt;Node2</title>
<path fill="none" stroke="#191970" d="M455.5,-124.0249C455.5,-115.128 455.5,-105.4287 455.5,-97.6432"/>
<polygon fill="#191970" stroke="#191970" points="452.0001,-124.2966 455.5,-134.2967 459.0001,-124.2967 452.0001,-124.2966"/>
</g>
<!-- Node3 -->
<g id="node3" class="node">
<title>Node3</title>
<g id="a_node3"><a xlink:href="Builder_2Fence_8cpp.html" target="_top" xlink:title="src/lug/Graphics/Vulkan\l/API/Builder/Fence.cpp">
<polygon fill="none" stroke="#000000" points="0,-.5 0,-30.5 137,-30.5 137,-.5 0,-.5"/>
<text text-anchor="start" x="8" y="-18.5" font-family="Helvetica,sans-Serif" font-size="10.00" fill="#000000">src/lug/Graphics/Vulkan</text>
<text text-anchor="middle" x="68.5" y="-7.5" font-family="Helvetica,sans-Serif" font-size="10.00" fill="#000000">/API/Builder/Fence.cpp</text>
</a>
</g>
</g>
<!-- Node2&#45;&gt;Node3 -->
<g id="edge2" class="edge">
<title>Node2&#45;&gt;Node3</title>
<path fill="none" stroke="#191970" d="M360.4335,-67.5652C299.0156,-57.7048 217.4243,-44.2095 145.5,-31 142.8176,-30.5074 140.0844,-29.9971 137.3246,-29.4749"/>
<polygon fill="#191970" stroke="#191970" points="360.0704,-71.0516 370.4982,-69.1775 361.1777,-64.1397 360.0704,-71.0516"/>
</g>
<!-- Node4 -->
<g id="node4" class="node">
<title>Node4</title>
<g id="a_node4"><a xlink:href="Vulkan_2Builder_2SkyBox_8cpp.html" target="_top" xlink:title="src/lug/Graphics/Vulkan\l/Builder/SkyBox.cpp">
<polygon fill="none" stroke="#000000" points="155,-.5 155,-30.5 292,-30.5 292,-.5 155,-.5"/>
<text text-anchor="start" x="163" y="-18.5" font-family="Helvetica,sans-Serif" font-size="10.00" fill="#000000">src/lug/Graphics/Vulkan</text>
<text text-anchor="middle" x="223.5" y="-7.5" font-family="Helvetica,sans-Serif" font-size="10.00" fill="#000000">/Builder/SkyBox.cpp</text>
</a>
</g>
</g>
<!-- Node2&#45;&gt;Node4 -->
<g id="edge3" class="edge">
<title>Node2&#45;&gt;Node4</title>
<path fill="none" stroke="#191970" d="M393.8096,-64.6842C357.01,-54.0568 310.7927,-40.7095 275.7924,-30.6017"/>
<polygon fill="#191970" stroke="#191970" points="392.8562,-68.0519 403.4347,-67.4639 394.7984,-61.3267 392.8562,-68.0519"/>
</g>
<!-- Node5 -->
<g id="node5" class="node">
<title>Node5</title>
<g id="a_node5"><a xlink:href="Vulkan_2Builder_2Texture_8cpp.html" target="_top" xlink:title="src/lug/Graphics/Vulkan\l/Builder/Texture.cpp">
<polygon fill="none" stroke="#000000" points="310,-.5 310,-30.5 447,-30.5 447,-.5 310,-.5"/>
<text text-anchor="start" x="318" y="-18.5" font-family="Helvetica,sans-Serif" font-size="10.00" fill="#000000">src/lug/Graphics/Vulkan</text>
<text text-anchor="middle" x="378.5" y="-7.5" font-family="Helvetica,sans-Serif" font-size="10.00" fill="#000000">/Builder/Texture.cpp</text>
</a>
</g>
</g>
<!-- Node2&#45;&gt;Node5 -->
<g id="edge4" class="edge">
<title>Node2&#45;&gt;Node5</title>
<path fill="none" stroke="#191970" d="M430.2124,-60.4965C418.976,-50.7193 406.0308,-39.4554 395.9033,-30.6432"/>
<polygon fill="#191970" stroke="#191970" points="428.1861,-63.3728 438.0275,-67.2967 432.781,-58.092 428.1861,-63.3728"/>
</g>
<!-- Node6 -->
<g id="node6" class="node">
<title>Node6</title>
<g id="a_node6"><a xlink:href="Gui_8cpp.html" target="_top" xlink:title="src/lug/Graphics/Vulkan\l/Gui.cpp">
<polygon fill="none" stroke="#000000" points="465,-.5 465,-30.5 602,-30.5 602,-.5 465,-.5"/>
<text text-anchor="start" x="473" y="-18.5" font-family="Helvetica,sans-Serif" font-size="10.00" fill="#000000">src/lug/Graphics/Vulkan</text>
<text text-anchor="middle" x="533.5" y="-7.5" font-family="Helvetica,sans-Serif" font-size="10.00" fill="#000000">/Gui.cpp</text>
</a>
</g>
</g>
<!-- Node2&#45;&gt;Node6 -->
<g id="edge5" class="edge">
<title>Node2&#45;&gt;Node6</title>
<path fill="none" stroke="#191970" d="M481.116,-60.4965C492.4984,-50.7193 505.6116,-39.4554 515.8706,-30.6432"/>
<polygon fill="#191970" stroke="#191970" points="478.5045,-58.1257 473.1994,-67.2967 483.0657,-63.4357 478.5045,-58.1257"/>
</g>
<!-- Node7 -->
<g id="node7" class="node">
<title>Node7</title>
<g id="a_node7"><a xlink:href="Vulkan_2Render_2SkyBox_8cpp.html" target="_top" xlink:title="src/lug/Graphics/Vulkan\l/Render/SkyBox.cpp">
<polygon fill="none" stroke="#000000" points="620,-.5 620,-30.5 757,-30.5 757,-.5 620,-.5"/>
<text text-anchor="start" x="628" y="-18.5" font-family="Helvetica,sans-Serif" font-size="10.00" fill="#000000">src/lug/Graphics/Vulkan</text>
<text text-anchor="middle" x="688.5" y="-7.5" font-family="Helvetica,sans-Serif" font-size="10.00" fill="#000000">/Render/SkyBox.cpp</text>
</a>
</g>
</g>
<!-- Node2&#45;&gt;Node7 -->
<g id="edge6" class="edge">
<title>Node2&#45;&gt;Node7</title>
<path fill="none" stroke="#191970" d="M517.4563,-64.6842C554.4145,-54.0568 600.8311,-40.7095 635.9822,-30.6017"/>
<polygon fill="#191970" stroke="#191970" points="516.433,-61.3366 507.7897,-67.4639 518.3676,-68.064 516.433,-61.3366"/>
</g>
<!-- Node8 -->
<g id="node8" class="node">
<title>Node8</title>
<g id="a_node8"><a xlink:href="Forward_8cpp.html" target="_top" xlink:title="src/lug/Graphics/Vulkan\l/Render/Technique/Forward.cpp">
<polygon fill="none" stroke="#000000" points="775,-.5 775,-30.5 952,-30.5 952,-.5 775,-.5"/>
<text text-anchor="start" x="783" y="-18.5" font-family="Helvetica,sans-Serif" font-size="10.00" fill="#000000">src/lug/Graphics/Vulkan</text>
<text text-anchor="middle" x="863.5" y="-7.5" font-family="Helvetica,sans-Serif" font-size="10.00" fill="#000000">/Render/Technique/Forward.cpp</text>
</a>
</g>
</g>
<!-- Node2&#45;&gt;Node8 -->
<g id="edge7" class="edge">
<title>Node2&#45;&gt;Node8</title>
<path fill="none" stroke="#191970" d="M550.7649,-66.856C618.3982,-55.7496 708.5611,-40.9434 774.6955,-30.0831"/>
<polygon fill="#191970" stroke="#191970" points="549.8342,-63.4619 540.5335,-68.5362 550.9686,-70.3694 549.8342,-63.4619"/>
</g>
</g>
</svg>
        <g id="navigator" transform="translate(0 0)" fill="#404254">
                <rect fill="#f2f5e9" fill-opacity="0.5" stroke="#606060" stroke-width=".5" x="0" y="0" width="60" height="60"/>
                <use id="zoomplus" xlink:href="#zoomPlus" x="17" y="9" onmousedown="handleZoom(evt,'in')"/>
                <use id="zoomminus" xlink:href="#zoomMin" x="42" y="9" onmousedown="handleZoom(evt,'out')"/>
                <use id="reset" xlink:href="#resetDef" x="30" y="36" onmousedown="handleReset()"/>
                <g id="arrowUp" xlink:href="#dirArrow" transform="translate(30 24)" onmousedown="handlePan(0,-1)">
                  <use xlink:href="#rim" fill="#404040">
                        <set attributeName="fill" to="#808080" begin="arrowUp.mouseover" end="arrowUp.mouseout"/>
                  </use>
                  <path fill="none" stroke="white" stroke-width="1.5" d="M0,-3.0v7 M-2.5,-0.5L0,-3.0L2.5,-0.5"/>
                </g>
                <g id="arrowRight" xlink:href="#dirArrow" transform="rotate(90) translate(36 -43)" onmousedown="handlePan(1,0)">
                  <use xlink:href="#rim" fill="#404040">
                        <set attributeName="fill" to="#808080" begin="arrowRight.mouseover" end="arrowRight.mouseout"/>
                  </use>
                  <path fill="none" stroke="white" stroke-width="1.5" d="M0,-3.0v7 M-2.5,-0.5L0,-3.0L2.5,-0.5"/>
                </g>
                <g id="arrowDown" xlink:href="#dirArrow" transform="rotate(180) translate(-30 -48)" onmousedown="handlePan(0,1)">
                  <use xlink:href="#rim" fill="#404040">
                        <set attributeName="fill" to="#808080" begin="arrowDown.mouseover" end="arrowDown.mouseout"/>
                  </use>
                  <path fill="none" stroke="white" stroke-width="1.5" d="M0,-3.0v7 M-2.5,-0.5L0,-3.0L2.5,-0.5"/>
                </g>
                <g id="arrowLeft" xlink:href="#dirArrow" transform="rotate(270) translate(-36 17)" onmousedown="handlePan(-1,0)">
                  <use xlink:href="#rim" fill="#404040">
                        <set attributeName="fill" to="#808080" begin="arrowLeft.mouseover" end="arrowLeft.mouseout"/>
                  </use>
                  <path fill="none" stroke="white" stroke-width="1.5" d="M0,-3.0v7 M-2.5,-0.5L0,-3.0L2.5,-0.5"/>
                </g>
        </g>
        <svg viewBox="0 0 15 15" width="100%" height="30px" preserveAspectRatio="xMaxYMin meet">
         <g id="arrow_out" transform="scale(0.3 0.3)">
          <a xlink:href="Builder_2Fence_8inl__dep__incl_org.svg" target="_base">
           <rect id="button" ry="5" rx="5" y="6" x="6" height="38" width="38"
                fill="#f2f5e9" fill-opacity="0.5" stroke="#606060" stroke-width="1.0"/>
           <path id="arrow"
             d="M 11.500037,31.436501 C 11.940474,20.09759 22.043105,11.32322 32.158766,21.979434 L 37.068811,17.246167 C 37.068811,17.246167 37.088388,32 37.088388,32 L 22.160133,31.978069 C 22.160133,31.978069 26.997745,27.140456 26.997745,27.140456 C 18.528582,18.264221 13.291696,25.230495 11.500037,31.436501 z"
             style="fill:#404040;"/>
          </a>
         </g>
        </svg>
</svg>
