<?xml version="1.0" encoding="UTF-8" standalone="no"?>
<!DOCTYPE svg PUBLIC "-//W3C//DTD SVG 1.1//EN"
 "http://www.w3.org/Graphics/SVG/1.1/DTD/svg11.dtd">
<!-- Generated by graphviz version 2.40.1 (20161225.0304)
 -->
<!-- Title: src/lug/Graphics/Vulkan/API/Builder/DescriptorSet.cpp Pages: 1 -->
<!--zoomable 419 -->
<svg id="main" version="1.1" xmlns="http://www.w3.org/2000/svg" xmlns:xlink="http://www.w3.org/1999/xlink" xml:space="preserve" onload="init(evt)">
<style type="text/css"><![CDATA[
.edge:hover path { stroke: red; }
.edge:hover polygon { stroke: red; fill: red; }
]]></style>
<script type="text/javascript"><![CDATA[
var edges = document.getElementsByTagName('g');
if (edges && edges.length) {
  for (var i=0;i<edges.length;i++) {
    if (edges[i].id.substr(0,4)=='edge') {
      edges[i].setAttribute('class','edge');
    }
  }
}
]]></script>
        <defs>
                <circle id="rim" cx="0" cy="0" r="7"/>
                <circle id="rim2" cx="0" cy="0" r="3.5"/>
                <g id="zoomPlus">
                        <use xlink:href="#rim" fill="#404040">
                                <set attributeName="fill" to="#808080" begin="zoomplus.mouseover" end="zoomplus.mouseout"/>
                        </use>
                        <path d="M-4,0h8M0,-4v8" fill="none" stroke="white" stroke-width="1.5" pointer-events="none"/>
                </g>
                <g id="zoomMin">
                        <use xlink:href="#rim" fill="#404040">
                                <set attributeName="fill" to="#808080" begin="zoomminus.mouseover" end="zoomminus.mouseout"/>
                        </use>
                        <path d="M-4,0h8" fill="none" stroke="white" stroke-width="1.5" pointer-events="none"/>
                </g>
                <g id="dirArrow">
                        <path fill="none" stroke="white" stroke-width="1.5" d="M0,-3.0v7 M-2.5,-0.5L0,-3.0L2.5,-0.5"/>
                </g>
               <g id="resetDef">
                       <use xlink:href="#rim2" fill="#404040">
                               <set attributeName="fill" to="#808080" begin="reset.mouseover" end="reset.mouseout"/>
                       </use>
               </g>
        </defs>

<script type="text/javascript">
var viewWidth = 1016;
var viewHeight = 419;
var sectionId = 'dynsection-0';
</script>
<script xlink:href="svgpan.js"/>
<svg id="graph" class="graph">
<g id="viewport">
<title>src/lug/Graphics/Vulkan/API/Builder/DescriptorSet.cpp</title>
<!-- Node0 -->
<g id="node1" class="node">
<title>Node0</title>
<polygon fill="#bfbfbf" stroke="#000000" points="467,-380.5 467,-410.5 638,-410.5 638,-380.5 467,-380.5"/>
<text text-anchor="start" x="475" y="-398.5" font-family="Helvetica,sans-Serif" font-size="10.00" fill="#000000">src/lug/Graphics/Vulkan</text>
<text text-anchor="middle" x="552.5" y="-387.5" font-family="Helvetica,sans-Serif" font-size="10.00" fill="#000000">/API/Builder/DescriptorSet.cpp</text>
</g>
<!-- Node1 -->
<g id="node2" class="node">
<title>Node1</title>
<g id="a_node2"><a xlink:href="API_2Builder_2DescriptorSet_8hpp.html" target="_top" xlink:title="lug/Graphics/Vulkan\l/API/Builder/DescriptorSet.hpp">
<polygon fill="none" stroke="#000000" points="112.5,-246.5 112.5,-276.5 284.5,-276.5 284.5,-246.5 112.5,-246.5"/>
<text text-anchor="start" x="120.5" y="-264.5" font-family="Helvetica,sans-Serif" font-size="10.00" fill="#000000">lug/Graphics/Vulkan</text>
<text text-anchor="middle" x="198.5" y="-253.5" font-family="Helvetica,sans-Serif" font-size="10.00" fill="#000000">/API/Builder/DescriptorSet.hpp</text>
</a>
</g>
</g>
<!-- Node0&#45;&gt;Node1 -->
<g id="edge1" class="edge">
<title>Node0&#45;&gt;Node1</title>
<path fill="none" stroke="#191970" d="M512.5798,-380.389C447.4729,-355.744 318.6071,-306.9643 247.8588,-280.1838"/>
<polygon fill="#191970" stroke="#191970" points="248.8658,-276.8227 238.2743,-276.5558 246.3876,-283.3694 248.8658,-276.8227"/>
</g>
<!-- Node12 -->
<g id="node13" class="node">
<title>Node12</title>
<g id="a_node13"><a xlink:href="Device_8hpp.html" target="_top" xlink:title="lug/Graphics/Vulkan\l/API/Device.hpp">
<polygon fill="none" stroke="#000000" points="580.5,-313.5 580.5,-343.5 698.5,-343.5 698.5,-313.5 580.5,-313.5"/>
<text text-anchor="start" x="588.5" y="-331.5" font-family="Helvetica,sans-Serif" font-size="10.00" fill="#000000">lug/Graphics/Vulkan</text>
<text text-anchor="middle" x="639.5" y="-320.5" font-family="Helvetica,sans-Serif" font-size="10.00" fill="#000000">/API/Device.hpp</text>
</a>
</g>
</g>
<!-- Node0&#45;&gt;Node12 -->
<g id="edge14" class="edge">
<title>Node0&#45;&gt;Node12</title>
<path fill="none" stroke="#191970" d="M572.2416,-380.2967C583.9213,-371.302 598.8973,-359.7687 611.7517,-349.8694"/>
<polygon fill="#191970" stroke="#191970" points="614.0491,-352.5177 619.8365,-343.6432 609.7781,-346.9717 614.0491,-352.5177"/>
</g>
<!-- Node18 -->
<g id="node19" class="node">
<title>Node18</title>
<g id="a_node19"><a xlink:href="DescriptorPool_8hpp.html" target="_top" xlink:title="lug/Graphics/Vulkan\l/API/DescriptorPool.hpp">
<polygon fill="none" stroke="#000000" points="526,-179.5 526,-209.5 663,-209.5 663,-179.5 526,-179.5"/>
<text text-anchor="start" x="534" y="-197.5" font-family="Helvetica,sans-Serif" font-size="10.00" fill="#000000">lug/Graphics/Vulkan</text>
<text text-anchor="middle" x="594.5" y="-186.5" font-family="Helvetica,sans-Serif" font-size="10.00" fill="#000000">/API/DescriptorPool.hpp</text>
</a>
</g>
</g>
<!-- Node0&#45;&gt;Node18 -->
<g id="edge27" class="edge">
<title>Node0&#45;&gt;Node18</title>
<path fill="none" stroke="#191970" d="M552.9628,-380.3579C554.1176,-353.0323 558.0864,-293.867 571.5,-246 574.0448,-236.9188 577.9302,-227.3812 581.7874,-219.0161"/>
<polygon fill="#191970" stroke="#191970" points="585.0253,-220.3595 586.2203,-209.8323 578.7213,-217.3166 585.0253,-220.3595"/>
</g>
<!-- Node2 -->
<g id="node3" class="node">
<title>Node2</title>
<polygon fill="none" stroke="#bfbfbf" points="0,-185 0,-204 59,-204 59,-185 0,-185"/>
<text text-anchor="middle" x="29.5" y="-192" font-family="Helvetica,sans-Serif" font-size="10.00" fill="#000000">memory</text>
</g>
<!-- Node1&#45;&gt;Node2 -->
<g id="edge2" class="edge">
<title>Node1&#45;&gt;Node2</title>
<path fill="none" stroke="#191970" d="M160.5731,-246.4639C131.323,-234.8677 91.2453,-218.9789 63.1324,-207.8335"/>
<polygon fill="#191970" stroke="#191970" points="64.3108,-204.5358 53.7248,-204.1039 61.731,-211.0431 64.3108,-204.5358"/>
</g>
<!-- Node3 -->
<g id="node4" class="node">
<title>Node3</title>
<polygon fill="none" stroke="#bfbfbf" points="285.5,-56.5 285.5,-75.5 333.5,-75.5 333.5,-56.5 285.5,-56.5"/>
<text text-anchor="middle" x="309.5" y="-63.5" font-family="Helvetica,sans-Serif" font-size="10.00" fill="#000000">vector</text>
</g>
<!-- Node1&#45;&gt;Node3 -->
<g id="edge3" class="edge">
<title>Node1&#45;&gt;Node3</title>
<path fill="none" stroke="#191970" d="M150.8642,-246.4168C133.7724,-238.445 116.3127,-226.7385 106.5,-210 99.5321,-198.1141 99.5179,-190.8776 106.5,-179 143.1584,-116.6389 228.0811,-86.1949 275.6541,-73.5539"/>
<polygon fill="#191970" stroke="#191970" points="276.6599,-76.9096 285.4891,-71.0533 274.935,-70.1255 276.6599,-76.9096"/>
</g>
<!-- Node4 -->
<g id="node5" class="node">
<title>Node4</title>
<g id="a_node5"><a xlink:href="API_2DescriptorSet_8hpp.html" target="_top" xlink:title="lug/Graphics/Vulkan\l/API/DescriptorSet.hpp">
<polygon fill="none" stroke="#000000" points="337.5,-179.5 337.5,-209.5 469.5,-209.5 469.5,-179.5 337.5,-179.5"/>
<text text-anchor="start" x="345.5" y="-197.5" font-family="Helvetica,sans-Serif" font-size="10.00" fill="#000000">lug/Graphics/Vulkan</text>
<text text-anchor="middle" x="403.5" y="-186.5" font-family="Helvetica,sans-Serif" font-size="10.00" fill="#000000">/API/DescriptorSet.hpp</text>
</a>
</g>
</g>
<!-- Node1&#45;&gt;Node4 -->
<g id="edge4" class="edge">
<title>Node1&#45;&gt;Node4</title>
<path fill="none" stroke="#191970" d="M244.506,-246.4639C274.9957,-236.499 315.1841,-223.3642 347.5271,-212.7936"/>
<polygon fill="#191970" stroke="#191970" points="348.8754,-216.0352 357.2933,-209.6017 346.7008,-209.3815 348.8754,-216.0352"/>
</g>
<!-- Node11 -->
<g id="node12" class="node">
<title>Node11</title>
<g id="a_node12"><a xlink:href="API_2Builder_2DescriptorSet_8inl.html" target="_top" xlink:title="lug/Graphics/Vulkan\l/API/Builder/DescriptorSet.inl">
<polygon fill="none" stroke="#000000" points="115.5,-179.5 115.5,-209.5 281.5,-209.5 281.5,-179.5 115.5,-179.5"/>
<text text-anchor="start" x="123.5" y="-197.5" font-family="Helvetica,sans-Serif" font-size="10.00" fill="#000000">lug/Graphics/Vulkan</text>
<text text-anchor="middle" x="198.5" y="-186.5" font-family="Helvetica,sans-Serif" font-size="10.00" fill="#000000">/API/Builder/DescriptorSet.inl</text>
</a>
</g>
</g>
<!-- Node1&#45;&gt;Node11 -->
<g id="edge13" class="edge">
<title>Node1&#45;&gt;Node11</title>
<path fill="none" stroke="#191970" d="M198.5,-246.2967C198.5,-238.5013 198.5,-228.7991 198.5,-219.9064"/>
<polygon fill="#191970" stroke="#191970" points="202.0001,-219.6431 198.5,-209.6432 195.0001,-219.6432 202.0001,-219.6431"/>
</g>
<!-- Node5 -->
<g id="node6" class="node">
<title>Node5</title>
<g id="a_node6"><a xlink:href="Graphics_2Export_8hpp.html" target="_top" xlink:title="lug/Graphics/Export.hpp">
<polygon fill="none" stroke="#000000" points="658.5,-56.5 658.5,-75.5 796.5,-75.5 796.5,-56.5 658.5,-56.5"/>
<text text-anchor="middle" x="727.5" y="-63.5" font-family="Helvetica,sans-Serif" font-size="10.00" fill="#000000">lug/Graphics/Export.hpp</text>
</a>
</g>
</g>
<!-- Node4&#45;&gt;Node5 -->
<g id="edge5" class="edge">
<title>Node4&#45;&gt;Node5</title>
<path fill="none" stroke="#191970" d="M457.0338,-179.4762C488.9102,-170.039 529.9483,-157.0248 565.5,-143 614.0663,-123.841 668.5021,-96.7512 700.2892,-80.3358"/>
<polygon fill="#191970" stroke="#191970" points="702.1353,-83.3209 709.3955,-75.6046 698.908,-77.1092 702.1353,-83.3209"/>
</g>
<!-- Node7 -->
<g id="node8" class="node">
<title>Node7</title>
<g id="a_node8"><a xlink:href="Vulkan_8hpp.html" target="_top" xlink:title="lug/Graphics/Vulkan\l/Vulkan.hpp">
<polygon fill="none" stroke="#000000" points="438.5,-112.5 438.5,-142.5 556.5,-142.5 556.5,-112.5 438.5,-112.5"/>
<text text-anchor="start" x="446.5" y="-130.5" font-family="Helvetica,sans-Serif" font-size="10.00" fill="#000000">lug/Graphics/Vulkan</text>
<text text-anchor="middle" x="497.5" y="-119.5" font-family="Helvetica,sans-Serif" font-size="10.00" fill="#000000">/Vulkan.hpp</text>
</a>
</g>
</g>
<!-- Node4&#45;&gt;Node7 -->
<g id="edge7" class="edge">
<title>Node4&#45;&gt;Node7</title>
<path fill="none" stroke="#191970" d="M424.8301,-179.2967C437.5697,-170.2163 453.9389,-158.5488 467.9152,-148.587"/>
<polygon fill="#191970" stroke="#191970" points="470.1426,-151.2975 476.2544,-142.6432 466.0797,-145.5973 470.1426,-151.2975"/>
</g>
<!-- Node6 -->
<g id="node7" class="node">
<title>Node6</title>
<g id="a_node7"><a xlink:href="Config_8hpp.html" target="_top" xlink:title="lug/Config.hpp">
<polygon fill="none" stroke="#000000" points="683,-.5 683,-19.5 772,-19.5 772,-.5 683,-.5"/>
<text text-anchor="middle" x="727.5" y="-7.5" font-family="Helvetica,sans-Serif" font-size="10.00" fill="#000000">lug/Config.hpp</text>
</a>
</g>
</g>
<!-- Node5&#45;&gt;Node6 -->
<g id="edge6" class="edge">
<title>Node5&#45;&gt;Node6</title>
<path fill="none" stroke="#191970" d="M727.5,-56.2455C727.5,-48.9382 727.5,-38.6944 727.5,-29.7046"/>
<polygon fill="#191970" stroke="#191970" points="731.0001,-29.6426 727.5,-19.6427 724.0001,-29.6427 731.0001,-29.6426"/>
</g>
<!-- Node7&#45;&gt;Node3 -->
<g id="edge9" class="edge">
<title>Node7&#45;&gt;Node3</title>
<path fill="none" stroke="#191970" d="M451.51,-112.4554C418.0109,-101.4969 373.3919,-86.9008 343.1743,-77.0158"/>
<polygon fill="#191970" stroke="#191970" points="344.1081,-73.6388 333.5155,-73.8561 341.9316,-80.2919 344.1081,-73.6388"/>
</g>
<!-- Node7&#45;&gt;Node5 -->
<g id="edge11" class="edge">
<title>Node7&#45;&gt;Node5</title>
<path fill="none" stroke="#191970" d="M553.7643,-112.4554C593.1503,-101.9239 645.101,-88.0328 681.9029,-78.1923"/>
<polygon fill="#191970" stroke="#191970" points="683.1017,-81.4948 691.8582,-75.5303 681.2934,-74.7323 683.1017,-81.4948"/>
</g>
<!-- Node8 -->
<g id="node9" class="node">
<title>Node8</title>
<polygon fill="none" stroke="#bfbfbf" points="545,-56.5 545,-75.5 640,-75.5 640,-56.5 545,-56.5"/>
<text text-anchor="middle" x="592.5" y="-63.5" font-family="Helvetica,sans-Serif" font-size="10.00" fill="#000000">unordered_map</text>
</g>
<!-- Node7&#45;&gt;Node8 -->
<g id="edge8" class="edge">
<title>Node7&#45;&gt;Node8</title>
<path fill="none" stroke="#191970" d="M520.9832,-112.2977C535.6348,-102.8127 554.4236,-90.6495 569.0659,-81.1705"/>
<polygon fill="#191970" stroke="#191970" points="571.0805,-84.0357 577.573,-75.6633 567.2764,-78.1596 571.0805,-84.0357"/>
</g>
<!-- Node9 -->
<g id="node10" class="node">
<title>Node9</title>
<polygon fill="none" stroke="#bfbfbf" points="468.5,-56.5 468.5,-75.5 526.5,-75.5 526.5,-56.5 468.5,-56.5"/>
<text text-anchor="middle" x="497.5" y="-63.5" font-family="Helvetica,sans-Serif" font-size="10.00" fill="#000000">ostream</text>
</g>
<!-- Node7&#45;&gt;Node9 -->
<g id="edge10" class="edge">
<title>Node7&#45;&gt;Node9</title>
<path fill="none" stroke="#191970" d="M497.5,-112.2977C497.5,-104.3834 497.5,-94.6043 497.5,-86.0759"/>
<polygon fill="#191970" stroke="#191970" points="501.0001,-85.8469 497.5,-75.8469 494.0001,-85.847 501.0001,-85.8469"/>
</g>
<!-- Node10 -->
<g id="node11" class="node">
<title>Node10</title>
<polygon fill="none" stroke="#bfbfbf" points="353,-56.5 353,-75.5 450,-75.5 450,-56.5 353,-56.5"/>
<text text-anchor="middle" x="401.5" y="-63.5" font-family="Helvetica,sans-Serif" font-size="10.00" fill="#000000">vulkan/vulkan.h</text>
</g>
<!-- Node7&#45;&gt;Node10 -->
<g id="edge12" class="edge">
<title>Node7&#45;&gt;Node10</title>
<path fill="none" stroke="#191970" d="M473.7697,-112.2977C458.9638,-102.8127 439.9772,-90.6495 425.1807,-81.1705"/>
<polygon fill="#191970" stroke="#191970" points="426.8925,-78.1105 416.5841,-75.6633 423.1165,-84.0047 426.8925,-78.1105"/>
</g>
<!-- Node12&#45;&gt;Node5 -->
<g id="edge15" class="edge">
<title>Node12&#45;&gt;Node5</title>
<path fill="none" stroke="#191970" d="M698.7196,-318.3967C792.9548,-300.9139 969.8687,-261.8557 1003.5,-210 1021.7974,-181.7875 980.268,-114.2906 977.5,-112 951.8832,-90.8017 869.8034,-78.621 806.6077,-72.1867"/>
<polygon fill="#191970" stroke="#191970" points="806.9343,-68.7021 796.6389,-71.2029 806.2468,-75.6682 806.9343,-68.7021"/>
</g>
<!-- Node12&#45;&gt;Node7 -->
<g id="edge25" class="edge">
<title>Node12&#45;&gt;Node7</title>
<path fill="none" stroke="#191970" d="M615.7288,-313.3814C586.7886,-293.5301 538.9982,-255.7711 516.5,-210 507.6711,-192.0382 502.8589,-169.8424 500.2883,-152.999"/>
<polygon fill="#191970" stroke="#191970" points="503.7174,-152.2395 498.9031,-142.8016 496.7811,-153.1818 503.7174,-152.2395"/>
</g>
<!-- Node13 -->
<g id="node14" class="node">
<title>Node13</title>
<g id="a_node14"><a xlink:href="QueueFamily_8hpp.html" target="_top" xlink:title="lug/Graphics/Vulkan\l/API/QueueFamily.hpp">
<polygon fill="none" stroke="#000000" points="716.5,-246.5 716.5,-276.5 844.5,-276.5 844.5,-246.5 716.5,-246.5"/>
<text text-anchor="start" x="724.5" y="-264.5" font-family="Helvetica,sans-Serif" font-size="10.00" fill="#000000">lug/Graphics/Vulkan</text>
<text text-anchor="middle" x="780.5" y="-253.5" font-family="Helvetica,sans-Serif" font-size="10.00" fill="#000000">/API/QueueFamily.hpp</text>
</a>
</g>
</g>
<!-- Node12&#45;&gt;Node13 -->
<g id="edge16" class="edge">
<title>Node12&#45;&gt;Node13</title>
<path fill="none" stroke="#191970" d="M671.1432,-313.4639C691.2299,-303.9191 717.4367,-291.4663 739.1597,-281.144"/>
<polygon fill="#191970" stroke="#191970" points="740.9446,-284.1709 748.4746,-276.7177 737.9403,-277.8484 740.9446,-284.1709"/>
</g>
<!-- Node17 -->
<g id="node18" class="node">
<title>Node17</title>
<g id="a_node18"><a xlink:href="Device_8inl.html" target="_top" xlink:title="lug/Graphics/Vulkan\l/API/Device.inl">
<polygon fill="none" stroke="#000000" points="580.5,-246.5 580.5,-276.5 698.5,-276.5 698.5,-246.5 580.5,-246.5"/>
<text text-anchor="start" x="588.5" y="-264.5" font-family="Helvetica,sans-Serif" font-size="10.00" fill="#000000">lug/Graphics/Vulkan</text>
<text text-anchor="middle" x="639.5" y="-253.5" font-family="Helvetica,sans-Serif" font-size="10.00" fill="#000000">/API/Device.inl</text>
</a>
</g>
</g>
<!-- Node12&#45;&gt;Node17 -->
<g id="edge26" class="edge">
<title>Node12&#45;&gt;Node17</title>
<path fill="none" stroke="#191970" d="M639.5,-313.2967C639.5,-305.5013 639.5,-295.7991 639.5,-286.9064"/>
<polygon fill="#191970" stroke="#191970" points="643.0001,-286.6431 639.5,-276.6432 636.0001,-286.6432 643.0001,-286.6431"/>
</g>
<!-- Node13&#45;&gt;Node3 -->
<g id="edge18" class="edge">
<title>Node13&#45;&gt;Node3</title>
<path fill="none" stroke="#191970" d="M716.4821,-247.4739C713.4511,-246.9462 710.4456,-246.4511 707.5,-246 623.8736,-233.1932 389.4034,-268.721 328.5,-210 295.0329,-177.7322 299.9149,-117.2585 305.2683,-85.9388"/>
<polygon fill="#191970" stroke="#191970" points="308.7617,-86.3031 307.1917,-75.8253 301.8849,-84.9952 308.7617,-86.3031"/>
</g>
<!-- Node13&#45;&gt;Node5 -->
<g id="edge19" class="edge">
<title>Node13&#45;&gt;Node5</title>
<path fill="none" stroke="#191970" d="M748.0457,-246.3708C733.773,-237.8631 718.4669,-225.7522 710.5,-210 689.8576,-169.1859 707.0786,-113.7722 718.8159,-85.04"/>
<polygon fill="#191970" stroke="#191970" points="722.0806,-86.3077 722.8118,-75.7382 715.6489,-83.5448 722.0806,-86.3077"/>
</g>
<!-- Node13&#45;&gt;Node8 -->
<g id="edge17" class="edge">
<title>Node13&#45;&gt;Node8</title>
<path fill="none" stroke="#191970" d="M844.7537,-254.0685C898.4932,-246.3742 969.0878,-232.3011 986.5,-210 1011.0059,-178.6134 958.2097,-116.6301 951.5,-112 898.2628,-75.2633 731.5633,-84.8857 650.4447,-75.8765"/>
<polygon fill="#191970" stroke="#191970" points="650.418,-72.3445 640.0541,-74.5444 649.5279,-79.2876 650.418,-72.3445"/>
</g>
<!-- Node14 -->
<g id="node15" class="node">
<title>Node14</title>
<g id="a_node15"><a xlink:href="Vulkan_2API_2Queue_8hpp.html" target="_top" xlink:title="lug/Graphics/Vulkan\l/API/Queue.hpp">
<polygon fill="none" stroke="#000000" points="859.5,-179.5 859.5,-209.5 977.5,-209.5 977.5,-179.5 859.5,-179.5"/>
<text text-anchor="start" x="867.5" y="-197.5" font-family="Helvetica,sans-Serif" font-size="10.00" fill="#000000">lug/Graphics/Vulkan</text>
<text text-anchor="middle" x="918.5" y="-186.5" font-family="Helvetica,sans-Serif" font-size="10.00" fill="#000000">/API/Queue.hpp</text>
</a>
</g>
</g>
<!-- Node13&#45;&gt;Node14 -->
<g id="edge20" class="edge">
<title>Node13&#45;&gt;Node14</title>
<path fill="none" stroke="#191970" d="M811.4699,-246.4639C831.1292,-236.9191 856.7784,-224.4663 878.0393,-214.144"/>
<polygon fill="#191970" stroke="#191970" points="879.6888,-217.2339 887.156,-209.7177 876.6315,-210.9368 879.6888,-217.2339"/>
</g>
<!-- Node16 -->
<g id="node17" class="node">
<title>Node16</title>
<g id="a_node17"><a xlink:href="QueueFamily_8inl.html" target="_top" xlink:title="lug/Graphics/Vulkan\l/API/QueueFamily.inl">
<polygon fill="none" stroke="#000000" points="719.5,-179.5 719.5,-209.5 841.5,-209.5 841.5,-179.5 719.5,-179.5"/>
<text text-anchor="start" x="727.5" y="-197.5" font-family="Helvetica,sans-Serif" font-size="10.00" fill="#000000">lug/Graphics/Vulkan</text>
<text text-anchor="middle" x="780.5" y="-186.5" font-family="Helvetica,sans-Serif" font-size="10.00" fill="#000000">/API/QueueFamily.inl</text>
</a>
</g>
</g>
<!-- Node13&#45;&gt;Node16 -->
<g id="edge24" class="edge">
<title>Node13&#45;&gt;Node16</title>
<path fill="none" stroke="#191970" d="M780.5,-246.2967C780.5,-238.5013 780.5,-228.7991 780.5,-219.9064"/>
<polygon fill="#191970" stroke="#191970" points="784.0001,-219.6431 780.5,-209.6432 777.0001,-219.6432 784.0001,-219.6431"/>
</g>
<!-- Node14&#45;&gt;Node5 -->
<g id="edge21" class="edge">
<title>Node14&#45;&gt;Node5</title>
<path fill="none" stroke="#191970" d="M895.8397,-179.2548C859.2191,-154.6173 787.4169,-106.3106 750.5489,-81.5068"/>
<polygon fill="#191970" stroke="#191970" points="752.2219,-78.4139 741.9711,-75.7358 748.3144,-84.2218 752.2219,-78.4139"/>
</g>
<!-- Node14&#45;&gt;Node7 -->
<g id="edge22" class="edge">
<title>Node14&#45;&gt;Node7</title>
<path fill="none" stroke="#191970" d="M859.2194,-180.6966C856.2754,-180.1025 853.3567,-179.5331 850.5,-179 752.5767,-160.7262 638.358,-145.0856 566.974,-135.9828"/>
<polygon fill="#191970" stroke="#191970" points="567.1207,-132.4734 556.7598,-134.6877 566.2401,-139.4178 567.1207,-132.4734"/>
</g>
<!-- Node15 -->
<g id="node16" class="node">
<title>Node15</title>
<polygon fill="none" stroke="#bfbfbf" points="894.5,-118 894.5,-137 942.5,-137 942.5,-118 894.5,-118"/>
<text text-anchor="middle" x="918.5" y="-125" font-family="Helvetica,sans-Serif" font-size="10.00" fill="#000000">mutex</text>
</g>
<!-- Node14&#45;&gt;Node15 -->
<g id="edge23" class="edge">
<title>Node14&#45;&gt;Node15</title>
<path fill="none" stroke="#191970" d="M918.5,-179.2967C918.5,-169.7699 918.5,-157.3954 918.5,-147.1306"/>
<polygon fill="#191970" stroke="#191970" points="922.0001,-147.0549 918.5,-137.055 915.0001,-147.055 922.0001,-147.0549"/>
</g>
<!-- Node18&#45;&gt;Node5 -->
<g id="edge28" class="edge">
<title>Node18&#45;&gt;Node5</title>
<path fill="none" stroke="#191970" d="M609.3229,-179.4205C625.7955,-162.7441 653.2721,-135.1693 677.5,-112 687.7856,-102.1638 699.4826,-91.3812 708.9757,-82.7293"/>
<polygon fill="#191970" stroke="#191970" points="711.6093,-85.0655 716.6599,-75.7519 706.9037,-79.8831 711.6093,-85.0655"/>
</g>
<!-- Node18&#45;&gt;Node7 -->
<g id="edge29" class="edge">
<title>Node18&#45;&gt;Node7</title>
<path fill="none" stroke="#191970" d="M572.4892,-179.2967C559.343,-170.2163 542.4513,-158.5488 528.029,-148.587"/>
<polygon fill="#191970" stroke="#191970" points="529.6409,-145.4467 519.4237,-142.6432 525.6626,-151.2063 529.6409,-145.4467"/>
</g>
</g>
</svg>
        <g id="navigator" transform="translate(0 0)" fill="#404254">
                <rect fill="#f2f5e9" fill-opacity="0.5" stroke="#606060" stroke-width=".5" x="0" y="0" width="60" height="60"/>
                <use id="zoomplus" xlink:href="#zoomPlus" x="17" y="9" onmousedown="handleZoom(evt,'in')"/>
                <use id="zoomminus" xlink:href="#zoomMin" x="42" y="9" onmousedown="handleZoom(evt,'out')"/>
                <use id="reset" xlink:href="#resetDef" x="30" y="36" onmousedown="handleReset()"/>
                <g id="arrowUp" xlink:href="#dirArrow" transform="translate(30 24)" onmousedown="handlePan(0,-1)">
                  <use xlink:href="#rim" fill="#404040">
                        <set attributeName="fill" to="#808080" begin="arrowUp.mouseover" end="arrowUp.mouseout"/>
                  </use>
                  <path fill="none" stroke="white" stroke-width="1.5" d="M0,-3.0v7 M-2.5,-0.5L0,-3.0L2.5,-0.5"/>
                </g>
                <g id="arrowRight" xlink:href="#dirArrow" transform="rotate(90) translate(36 -43)" onmousedown="handlePan(1,0)">
                  <use xlink:href="#rim" fill="#404040">
                        <set attributeName="fill" to="#808080" begin="arrowRight.mouseover" end="arrowRight.mouseout"/>
                  </use>
                  <path fill="none" stroke="white" stroke-width="1.5" d="M0,-3.0v7 M-2.5,-0.5L0,-3.0L2.5,-0.5"/>
                </g>
                <g id="arrowDown" xlink:href="#dirArrow" transform="rotate(180) translate(-30 -48)" onmousedown="handlePan(0,1)">
                  <use xlink:href="#rim" fill="#404040">
                        <set attributeName="fill" to="#808080" begin="arrowDown.mouseover" end="arrowDown.mouseout"/>
                  </use>
                  <path fill="none" stroke="white" stroke-width="1.5" d="M0,-3.0v7 M-2.5,-0.5L0,-3.0L2.5,-0.5"/>
                </g>
                <g id="arrowLeft" xlink:href="#dirArrow" transform="rotate(270) translate(-36 17)" onmousedown="handlePan(-1,0)">
                  <use xlink:href="#rim" fill="#404040">
                        <set attributeName="fill" to="#808080" begin="arrowLeft.mouseover" end="arrowLeft.mouseout"/>
                  </use>
                  <path fill="none" stroke="white" stroke-width="1.5" d="M0,-3.0v7 M-2.5,-0.5L0,-3.0L2.5,-0.5"/>
                </g>
        </g>
        <svg viewBox="0 0 15 15" width="100%" height="30px" preserveAspectRatio="xMaxYMin meet">
         <g id="arrow_out" transform="scale(0.3 0.3)">
          <a xlink:href="Builder_2DescriptorSet_8cpp__incl_org.svg" target="_base">
           <rect id="button" ry="5" rx="5" y="6" x="6" height="38" width="38"
                fill="#f2f5e9" fill-opacity="0.5" stroke="#606060" stroke-width="1.0"/>
           <path id="arrow"
             d="M 11.500037,31.436501 C 11.940474,20.09759 22.043105,11.32322 32.158766,21.979434 L 37.068811,17.246167 C 37.068811,17.246167 37.088388,32 37.088388,32 L 22.160133,31.978069 C 22.160133,31.978069 26.997745,27.140456 26.997745,27.140456 C 18.528582,18.264221 13.291696,25.230495 11.500037,31.436501 z"
             style="fill:#404040;"/>
          </a>
         </g>
        </svg>
</svg>
