<?xml version="1.0" encoding="UTF-8" standalone="no"?>
<!DOCTYPE svg PUBLIC "-//W3C//DTD SVG 1.1//EN"
 "http://www.w3.org/Graphics/SVG/1.1/DTD/svg11.dtd">
<!-- Generated by graphviz version 2.40.1 (20161225.0304)
 -->
<!-- Title: include/lug/Graphics/Builder/Texture.hpp Pages: 1 -->
<!--zoomable 173 -->
<svg id="main" version="1.1" xmlns="http://www.w3.org/2000/svg" xmlns:xlink="http://www.w3.org/1999/xlink" xml:space="preserve" onload="init(evt)">
<style type="text/css"><![CDATA[
.edge:hover path { stroke: red; }
.edge:hover polygon { stroke: red; fill: red; }
]]></style>
<script type="text/javascript"><![CDATA[
var edges = document.getElementsByTagName('g');
if (edges && edges.length) {
  for (var i=0;i<edges.length;i++) {
    if (edges[i].id.substr(0,4)=='edge') {
      edges[i].setAttribute('class','edge');
    }
  }
}
]]></script>
        <defs>
                <circle id="rim" cx="0" cy="0" r="7"/>
                <circle id="rim2" cx="0" cy="0" r="3.5"/>
                <g id="zoomPlus">
                        <use xlink:href="#rim" fill="#404040">
                                <set attributeName="fill" to="#808080" begin="zoomplus.mouseover" end="zoomplus.mouseout"/>
                        </use>
                        <path d="M-4,0h8M0,-4v8" fill="none" stroke="white" stroke-width="1.5" pointer-events="none"/>
                </g>
                <g id="zoomMin">
                        <use xlink:href="#rim" fill="#404040">
                                <set attributeName="fill" to="#808080" begin="zoomminus.mouseover" end="zoomminus.mouseout"/>
                        </use>
                        <path d="M-4,0h8" fill="none" stroke="white" stroke-width="1.5" pointer-events="none"/>
                </g>
                <g id="dirArrow">
                        <path fill="none" stroke="white" stroke-width="1.5" d="M0,-3.0v7 M-2.5,-0.5L0,-3.0L2.5,-0.5"/>
                </g>
               <g id="resetDef">
                       <use xlink:href="#rim2" fill="#404040">
                               <set attributeName="fill" to="#808080" begin="reset.mouseover" end="reset.mouseout"/>
                       </use>
               </g>
        </defs>

<script type="text/javascript">
var viewWidth = 1061;
var viewHeight = 173;
var sectionId = 'dynsection-1';
</script>
<script xlink:href="svgpan.js"/>
<svg id="graph" class="graph">
<g id="viewport">
<title>include/lug/Graphics/Builder/Texture.hpp</title>
<!-- Node13 -->
<g id="node1" class="node">
<title>Node13</title>
<polygon fill="#bfbfbf" stroke="#000000" points="439,-134.5 439,-164.5 560,-164.5 560,-134.5 439,-134.5"/>
<text text-anchor="start" x="447" y="-152.5" font-family="Helvetica,sans-Serif" font-size="10.00" fill="#000000">include/lug/Graphics</text>
<text text-anchor="middle" x="499.5" y="-141.5" font-family="Helvetica,sans-Serif" font-size="10.00" fill="#000000">/Builder/Texture.hpp</text>
</g>
<!-- Node14 -->
<g id="node2" class="node">
<title>Node14</title>
<g id="a_node2"><a xlink:href="Builder_2SkyBox_8hpp.html" target="_top" xlink:title="include/lug/Graphics\l/Builder/SkyBox.hpp">
<polygon fill="none" stroke="#000000" points="77.5,-67.5 77.5,-97.5 197.5,-97.5 197.5,-67.5 77.5,-67.5"/>
<text text-anchor="start" x="85.5" y="-85.5" font-family="Helvetica,sans-Serif" font-size="10.00" fill="#000000">include/lug/Graphics</text>
<text text-anchor="middle" x="137.5" y="-74.5" font-family="Helvetica,sans-Serif" font-size="10.00" fill="#000000">/Builder/SkyBox.hpp</text>
</a>
</g>
</g>
<!-- Node13&#45;&gt;Node14 -->
<g id="edge1" class="edge">
<title>Node13&#45;&gt;Node14</title>
<path fill="none" stroke="#191970" d="M428.8671,-137.4685C370.4979,-127.3821 285.5031,-112.3637 211.5,-98 206.9901,-97.1246 202.3301,-96.1989 197.6454,-95.2529"/>
<polygon fill="#191970" stroke="#191970" points="428.2733,-140.9176 438.7227,-139.1684 429.4632,-134.0195 428.2733,-140.9176"/>
</g>
<!-- Node16 -->
<g id="node4" class="node">
<title>Node16</title>
<g id="a_node4"><a xlink:href="Vulkan_2Builder_2SkyBox_8cpp.html" target="_top" xlink:title="src/lug/Graphics/Vulkan\l/Builder/SkyBox.cpp">
<polygon fill="none" stroke="#000000" points="157,-.5 157,-30.5 294,-30.5 294,-.5 157,-.5"/>
<text text-anchor="start" x="165" y="-18.5" font-family="Helvetica,sans-Serif" font-size="10.00" fill="#000000">src/lug/Graphics/Vulkan</text>
<text text-anchor="middle" x="225.5" y="-7.5" font-family="Helvetica,sans-Serif" font-size="10.00" fill="#000000">/Builder/SkyBox.cpp</text>
</a>
</g>
</g>
<!-- Node13&#45;&gt;Node16 -->
<g id="edge6" class="edge">
<title>Node13&#45;&gt;Node16</title>
<path fill="none" stroke="#191970" d="M428.5306,-143.5761C362.7285,-136.6264 271.2277,-122.7733 245.5,-98 227.2401,-80.4174 224.4886,-49.2196 224.6489,-30.6391"/>
<polygon fill="#191970" stroke="#191970" points="428.5524,-147.0966 438.8568,-144.6329 429.2651,-140.1329 428.5524,-147.0966"/>
</g>
<!-- Node17 -->
<g id="node5" class="node">
<title>Node17</title>
<g id="a_node5"><a xlink:href="Builder_2Texture_8cpp.html" target="_top" xlink:title="src/lug/Graphics/Builder\l/Texture.cpp">
<polygon fill="none" stroke="#000000" points="254,-67.5 254,-97.5 393,-97.5 393,-67.5 254,-67.5"/>
<text text-anchor="start" x="262" y="-85.5" font-family="Helvetica,sans-Serif" font-size="10.00" fill="#000000">src/lug/Graphics/Builder</text>
<text text-anchor="middle" x="323.5" y="-74.5" font-family="Helvetica,sans-Serif" font-size="10.00" fill="#000000">/Texture.cpp</text>
</a>
</g>
</g>
<!-- Node13&#45;&gt;Node17 -->
<g id="edge4" class="edge">
<title>Node13&#45;&gt;Node17</title>
<path fill="none" stroke="#191970" d="M450.5484,-130.865C422.9986,-120.3773 389.0441,-107.4515 363.1701,-97.6017"/>
<polygon fill="#191970" stroke="#191970" points="449.4112,-134.1771 460.0022,-134.4639 451.9017,-127.6351 449.4112,-134.1771"/>
</g>
<!-- Node18 -->
<g id="node6" class="node">
<title>Node18</title>
<g id="a_node6"><a xlink:href="GltfLoader_8cpp.html" target="_top" xlink:title="src/lug/Graphics/GltfLoader.cpp">
<polygon fill="none" stroke="#000000" points="411.5,-73 411.5,-92 587.5,-92 587.5,-73 411.5,-73"/>
<text text-anchor="middle" x="499.5" y="-80" font-family="Helvetica,sans-Serif" font-size="10.00" fill="#000000">src/lug/Graphics/GltfLoader.cpp</text>
</a>
</g>
</g>
<!-- Node13&#45;&gt;Node18 -->
<g id="edge5" class="edge">
<title>Node13&#45;&gt;Node18</title>
<path fill="none" stroke="#191970" d="M499.5,-124.1199C499.5,-112.9072 499.5,-100.4031 499.5,-92.055"/>
<polygon fill="#191970" stroke="#191970" points="496.0001,-124.2966 499.5,-134.2967 503.0001,-124.2967 496.0001,-124.2966"/>
</g>
<!-- Node19 -->
<g id="node7" class="node">
<title>Node19</title>
<g id="a_node7"><a xlink:href="Vulkan_2Builder_2Texture_8cpp.html" target="_top" xlink:title="src/lug/Graphics/Vulkan\l/Builder/Texture.cpp">
<polygon fill="none" stroke="#000000" points="606,-67.5 606,-97.5 743,-97.5 743,-67.5 606,-67.5"/>
<text text-anchor="start" x="614" y="-85.5" font-family="Helvetica,sans-Serif" font-size="10.00" fill="#000000">src/lug/Graphics/Vulkan</text>
<text text-anchor="middle" x="674.5" y="-74.5" font-family="Helvetica,sans-Serif" font-size="10.00" fill="#000000">/Builder/Texture.cpp</text>
</a>
</g>
</g>
<!-- Node13&#45;&gt;Node19 -->
<g id="edge7" class="edge">
<title>Node13&#45;&gt;Node19</title>
<path fill="none" stroke="#191970" d="M548.1735,-130.865C575.5667,-120.3773 609.3283,-107.4515 635.0553,-97.6017"/>
<polygon fill="#191970" stroke="#191970" points="546.8609,-127.6197 538.7734,-134.4639 549.3638,-134.157 546.8609,-127.6197"/>
</g>
<!-- Node20 -->
<g id="node8" class="node">
<title>Node20</title>
<g id="a_node8"><a xlink:href="Gui_8cpp.html" target="_top" xlink:title="src/lug/Graphics/Vulkan\l/Gui.cpp">
<polygon fill="none" stroke="#000000" points="761,-67.5 761,-97.5 898,-97.5 898,-67.5 761,-67.5"/>
<text text-anchor="start" x="769" y="-85.5" font-family="Helvetica,sans-Serif" font-size="10.00" fill="#000000">src/lug/Graphics/Vulkan</text>
<text text-anchor="middle" x="829.5" y="-74.5" font-family="Helvetica,sans-Serif" font-size="10.00" fill="#000000">/Gui.cpp</text>
</a>
</g>
</g>
<!-- Node13&#45;&gt;Node20 -->
<g id="edge8" class="edge">
<title>Node13&#45;&gt;Node20</title>
<path fill="none" stroke="#191970" d="M569.9303,-135.2005C626.2989,-123.756 704.8985,-107.7979 760.8044,-96.4473"/>
<polygon fill="#191970" stroke="#191970" points="569.1307,-131.7914 560.0271,-137.2112 570.5236,-138.6514 569.1307,-131.7914"/>
</g>
<!-- Node21 -->
<g id="node9" class="node">
<title>Node21</title>
<g id="a_node9"><a xlink:href="Vulkan_2Render_2SkyBox_8cpp.html" target="_top" xlink:title="src/lug/Graphics/Vulkan\l/Render/SkyBox.cpp">
<polygon fill="none" stroke="#000000" points="916,-67.5 916,-97.5 1053,-97.5 1053,-67.5 916,-67.5"/>
<text text-anchor="start" x="924" y="-85.5" font-family="Helvetica,sans-Serif" font-size="10.00" fill="#000000">src/lug/Graphics/Vulkan</text>
<text text-anchor="middle" x="984.5" y="-74.5" font-family="Helvetica,sans-Serif" font-size="10.00" fill="#000000">/Render/SkyBox.cpp</text>
</a>
</g>
</g>
<!-- Node13&#45;&gt;Node21 -->
<g id="edge9" class="edge">
<title>Node13&#45;&gt;Node21</title>
<path fill="none" stroke="#191970" d="M570.3343,-142.1481C651.8892,-133.3157 789.7602,-117.2549 907.5,-98 910.1915,-97.5598 912.9324,-97.0939 915.6986,-96.6088"/>
<polygon fill="#191970" stroke="#191970" points="569.7527,-138.6905 560.1851,-143.2414 570.5025,-145.6502 569.7527,-138.6905"/>
</g>
<!-- Node15 -->
<g id="node3" class="node">
<title>Node15</title>
<g id="a_node3"><a xlink:href="Builder_2SkyBox_8cpp.html" target="_top" xlink:title="src/lug/Graphics/Builder\l/SkyBox.cpp">
<polygon fill="none" stroke="#000000" points="0,-.5 0,-30.5 139,-30.5 139,-.5 0,-.5"/>
<text text-anchor="start" x="8" y="-18.5" font-family="Helvetica,sans-Serif" font-size="10.00" fill="#000000">src/lug/Graphics/Builder</text>
<text text-anchor="middle" x="69.5" y="-7.5" font-family="Helvetica,sans-Serif" font-size="10.00" fill="#000000">/SkyBox.cpp</text>
</a>
</g>
</g>
<!-- Node14&#45;&gt;Node15 -->
<g id="edge2" class="edge">
<title>Node14&#45;&gt;Node15</title>
<path fill="none" stroke="#191970" d="M114.8786,-60.2113C105.0233,-50.5009 93.7261,-39.3698 84.8692,-30.6432"/>
<polygon fill="#191970" stroke="#191970" points="112.49,-62.7713 122.0697,-67.2967 117.403,-57.785 112.49,-62.7713"/>
</g>
<!-- Node14&#45;&gt;Node16 -->
<g id="edge3" class="edge">
<title>Node14&#45;&gt;Node16</title>
<path fill="none" stroke="#191970" d="M165.6543,-61.0643C178.666,-51.1577 193.8114,-39.6265 205.6105,-30.6432"/>
<polygon fill="#191970" stroke="#191970" points="163.3048,-58.4542 157.4686,-67.2967 167.5452,-64.0237 163.3048,-58.4542"/>
</g>
</g>
</svg>
        <g id="navigator" transform="translate(0 0)" fill="#404254">
                <rect fill="#f2f5e9" fill-opacity="0.5" stroke="#606060" stroke-width=".5" x="0" y="0" width="60" height="60"/>
                <use id="zoomplus" xlink:href="#zoomPlus" x="17" y="9" onmousedown="handleZoom(evt,'in')"/>
                <use id="zoomminus" xlink:href="#zoomMin" x="42" y="9" onmousedown="handleZoom(evt,'out')"/>
                <use id="reset" xlink:href="#resetDef" x="30" y="36" onmousedown="handleReset()"/>
                <g id="arrowUp" xlink:href="#dirArrow" transform="translate(30 24)" onmousedown="handlePan(0,-1)">
                  <use xlink:href="#rim" fill="#404040">
                        <set attributeName="fill" to="#808080" begin="arrowUp.mouseover" end="arrowUp.mouseout"/>
                  </use>
                  <path fill="none" stroke="white" stroke-width="1.5" d="M0,-3.0v7 M-2.5,-0.5L0,-3.0L2.5,-0.5"/>
                </g>
                <g id="arrowRight" xlink:href="#dirArrow" transform="rotate(90) translate(36 -43)" onmousedown="handlePan(1,0)">
                  <use xlink:href="#rim" fill="#404040">
                        <set attributeName="fill" to="#808080" begin="arrowRight.mouseover" end="arrowRight.mouseout"/>
                  </use>
                  <path fill="none" stroke="white" stroke-width="1.5" d="M0,-3.0v7 M-2.5,-0.5L0,-3.0L2.5,-0.5"/>
                </g>
                <g id="arrowDown" xlink:href="#dirArrow" transform="rotate(180) translate(-30 -48)" onmousedown="handlePan(0,1)">
                  <use xlink:href="#rim" fill="#404040">
                        <set attributeName="fill" to="#808080" begin="arrowDown.mouseover" end="arrowDown.mouseout"/>
                  </use>
                  <path fill="none" stroke="white" stroke-width="1.5" d="M0,-3.0v7 M-2.5,-0.5L0,-3.0L2.5,-0.5"/>
                </g>
                <g id="arrowLeft" xlink:href="#dirArrow" transform="rotate(270) translate(-36 17)" onmousedown="handlePan(-1,0)">
                  <use xlink:href="#rim" fill="#404040">
                        <set attributeName="fill" to="#808080" begin="arrowLeft.mouseover" end="arrowLeft.mouseout"/>
                  </use>
                  <path fill="none" stroke="white" stroke-width="1.5" d="M0,-3.0v7 M-2.5,-0.5L0,-3.0L2.5,-0.5"/>
                </g>
        </g>
        <svg viewBox="0 0 15 15" width="100%" height="30px" preserveAspectRatio="xMaxYMin meet">
         <g id="arrow_out" transform="scale(0.3 0.3)">
          <a xlink:href="Builder_2Texture_8hpp__dep__incl_org.svg" target="_base">
           <rect id="button" ry="5" rx="5" y="6" x="6" height="38" width="38"
                fill="#f2f5e9" fill-opacity="0.5" stroke="#606060" stroke-width="1.0"/>
           <path id="arrow"
             d="M 11.500037,31.436501 C 11.940474,20.09759 22.043105,11.32322 32.158766,21.979434 L 37.068811,17.246167 C 37.068811,17.246167 37.088388,32 37.088388,32 L 22.160133,31.978069 C 22.160133,31.978069 26.997745,27.140456 26.997745,27.140456 C 18.528582,18.264221 13.291696,25.230495 11.500037,31.436501 z"
             style="fill:#404040;"/>
          </a>
         </g>
        </svg>
</svg>
