<?xml version="1.0" encoding="UTF-8" standalone="no"?>
<!DOCTYPE svg PUBLIC "-//W3C//DTD SVG 1.1//EN"
 "http://www.w3.org/Graphics/SVG/1.1/DTD/svg11.dtd">
<!-- Generated by graphviz version 2.40.1 (20161225.0304)
 -->
<!-- Title: include/lug/Graphics/Vulkan/API/Builder/RenderPass.hpp Pages: 1 -->
<svg width="573pt" height="285pt"
 viewBox="0.00 0.00 572.50 285.00" xmlns="http://www.w3.org/2000/svg" xmlns:xlink="http://www.w3.org/1999/xlink">
<g id="graph0" class="graph" transform="scale(1 1) rotate(0) translate(4 281)">
<title>include/lug/Graphics/Vulkan/API/Builder/RenderPass.hpp</title>
<!-- Node0 -->
<g id="node1" class="node">
<title>Node0</title>
<polygon fill="#bfbfbf" stroke="#000000" points="0,-246.5 0,-276.5 200,-276.5 200,-246.5 0,-246.5"/>
<text text-anchor="start" x="8" y="-264.5" font-family="Helvetica,sans-Serif" font-size="10.00" fill="#000000">include/lug/Graphics</text>
<text text-anchor="middle" x="100" y="-253.5" font-family="Helvetica,sans-Serif" font-size="10.00" fill="#000000">/Vulkan/API/Builder/RenderPass.hpp</text>
</g>
<!-- Node1 -->
<g id="node2" class="node">
<title>Node1</title>
<polygon fill="none" stroke="#bfbfbf" points="37,-185 37,-204 69,-204 69,-185 37,-185"/>
<text text-anchor="middle" x="53" y="-192" font-family="Helvetica,sans-Serif" font-size="10.00" fill="#000000">list</text>
</g>
<!-- Node0&#45;&gt;Node1 -->
<g id="edge1" class="edge">
<title>Node0&#45;&gt;Node1</title>
<path fill="none" stroke="#191970" d="M89.335,-246.2967C82.2965,-236.2631 73.0423,-223.0709 65.6348,-212.5113"/>
<polygon fill="#191970" stroke="#191970" points="68.3109,-210.2316 59.7027,-204.055 62.5803,-214.2516 68.3109,-210.2316"/>
</g>
<!-- Node2 -->
<g id="node3" class="node">
<title>Node2</title>
<g id="a_node3"><a xlink:href="RenderPass_8hpp.html" target="_top" xlink:title="lug/Graphics/Vulkan\l/API/RenderPass.hpp">
<polygon fill="none" stroke="#000000" points="87,-179.5 87,-209.5 209,-209.5 209,-179.5 87,-179.5"/>
<text text-anchor="start" x="95" y="-197.5" font-family="Helvetica,sans-Serif" font-size="10.00" fill="#000000">lug/Graphics/Vulkan</text>
<text text-anchor="middle" x="148" y="-186.5" font-family="Helvetica,sans-Serif" font-size="10.00" fill="#000000">/API/RenderPass.hpp</text>
</a>
</g>
</g>
<!-- Node0&#45;&gt;Node2 -->
<g id="edge2" class="edge">
<title>Node0&#45;&gt;Node2</title>
<path fill="none" stroke="#191970" d="M110.8919,-246.2967C116.9063,-237.9016 124.5049,-227.2952 131.2574,-217.8698"/>
<polygon fill="#191970" stroke="#191970" points="134.1725,-219.8107 137.1512,-209.6432 128.4821,-215.734 134.1725,-219.8107"/>
</g>
<!-- Node3 -->
<g id="node4" class="node">
<title>Node3</title>
<polygon fill="none" stroke="#bfbfbf" points="60.5,-118 60.5,-137 119.5,-137 119.5,-118 60.5,-118"/>
<text text-anchor="middle" x="90" y="-125" font-family="Helvetica,sans-Serif" font-size="10.00" fill="#000000">memory</text>
</g>
<!-- Node2&#45;&gt;Node3 -->
<g id="edge3" class="edge">
<title>Node2&#45;&gt;Node3</title>
<path fill="none" stroke="#191970" d="M134.8389,-179.2967C125.9777,-169.0605 114.2705,-155.5366 105.0407,-144.8746"/>
<polygon fill="#191970" stroke="#191970" points="107.4627,-142.3248 98.2715,-137.055 102.1703,-146.9064 107.4627,-142.3248"/>
</g>
<!-- Node4 -->
<g id="node5" class="node">
<title>Node4</title>
<g id="a_node5"><a xlink:href="Graphics_2Export_8hpp.html" target="_top" xlink:title="lug/Graphics/Export.hpp">
<polygon fill="none" stroke="#000000" points="55,-56.5 55,-75.5 193,-75.5 193,-56.5 55,-56.5"/>
<text text-anchor="middle" x="124" y="-63.5" font-family="Helvetica,sans-Serif" font-size="10.00" fill="#000000">lug/Graphics/Export.hpp</text>
</a>
</g>
</g>
<!-- Node2&#45;&gt;Node4 -->
<g id="edge4" class="edge">
<title>Node2&#45;&gt;Node4</title>
<path fill="none" stroke="#191970" d="M145.1526,-179.2548C140.8046,-155.9744 132.5094,-111.5607 127.7002,-85.8117"/>
<polygon fill="#191970" stroke="#191970" points="131.0949,-84.9232 125.8184,-75.7358 124.2139,-86.2084 131.0949,-84.9232"/>
</g>
<!-- Node6 -->
<g id="node7" class="node">
<title>Node6</title>
<g id="a_node7"><a xlink:href="Vulkan_8hpp.html" target="_top" xlink:title="lug/Graphics/Vulkan\l/Vulkan.hpp">
<polygon fill="none" stroke="#000000" points="245,-112.5 245,-142.5 363,-142.5 363,-112.5 245,-112.5"/>
<text text-anchor="start" x="253" y="-130.5" font-family="Helvetica,sans-Serif" font-size="10.00" fill="#000000">lug/Graphics/Vulkan</text>
<text text-anchor="middle" x="304" y="-119.5" font-family="Helvetica,sans-Serif" font-size="10.00" fill="#000000">/Vulkan.hpp</text>
</a>
</g>
</g>
<!-- Node2&#45;&gt;Node6 -->
<g id="edge6" class="edge">
<title>Node2&#45;&gt;Node6</title>
<path fill="none" stroke="#191970" d="M183.0094,-179.4639C205.6113,-169.7567 235.2168,-157.0415 259.4847,-146.6188"/>
<polygon fill="#191970" stroke="#191970" points="261.0307,-149.764 268.8379,-142.6017 258.2682,-143.3321 261.0307,-149.764"/>
</g>
<!-- Node5 -->
<g id="node6" class="node">
<title>Node5</title>
<g id="a_node6"><a xlink:href="Config_8hpp.html" target="_top" xlink:title="lug/Config.hpp">
<polygon fill="none" stroke="#000000" points="79.5,-.5 79.5,-19.5 168.5,-19.5 168.5,-.5 79.5,-.5"/>
<text text-anchor="middle" x="124" y="-7.5" font-family="Helvetica,sans-Serif" font-size="10.00" fill="#000000">lug/Config.hpp</text>
</a>
</g>
</g>
<!-- Node4&#45;&gt;Node5 -->
<g id="edge5" class="edge">
<title>Node4&#45;&gt;Node5</title>
<path fill="none" stroke="#191970" d="M124,-56.2455C124,-48.9382 124,-38.6944 124,-29.7046"/>
<polygon fill="#191970" stroke="#191970" points="127.5001,-29.6426 124,-19.6427 120.5001,-29.6427 127.5001,-29.6426"/>
</g>
<!-- Node6&#45;&gt;Node4 -->
<g id="edge10" class="edge">
<title>Node6&#45;&gt;Node4</title>
<path fill="none" stroke="#191970" d="M259.967,-112.4554C229.8019,-102.149 190.2192,-88.6249 161.547,-78.8286"/>
<polygon fill="#191970" stroke="#191970" points="162.4882,-75.4515 151.8936,-75.5303 160.2249,-82.0756 162.4882,-75.4515"/>
</g>
<!-- Node7 -->
<g id="node8" class="node">
<title>Node7</title>
<polygon fill="none" stroke="#bfbfbf" points="211.5,-56.5 211.5,-75.5 306.5,-75.5 306.5,-56.5 211.5,-56.5"/>
<text text-anchor="middle" x="259" y="-63.5" font-family="Helvetica,sans-Serif" font-size="10.00" fill="#000000">unordered_map</text>
</g>
<!-- Node6&#45;&gt;Node7 -->
<g id="edge7" class="edge">
<title>Node6&#45;&gt;Node7</title>
<path fill="none" stroke="#191970" d="M292.8764,-112.2977C286.6299,-103.7609 278.796,-93.0545 272.2353,-84.0883"/>
<polygon fill="#191970" stroke="#191970" points="274.9348,-81.8505 266.2051,-75.8469 269.2856,-85.984 274.9348,-81.8505"/>
</g>
<!-- Node8 -->
<g id="node9" class="node">
<title>Node8</title>
<polygon fill="none" stroke="#bfbfbf" points="325,-56.5 325,-75.5 373,-75.5 373,-56.5 325,-56.5"/>
<text text-anchor="middle" x="349" y="-63.5" font-family="Helvetica,sans-Serif" font-size="10.00" fill="#000000">vector</text>
</g>
<!-- Node6&#45;&gt;Node8 -->
<g id="edge8" class="edge">
<title>Node6&#45;&gt;Node8</title>
<path fill="none" stroke="#191970" d="M315.1236,-112.2977C321.3701,-103.7609 329.204,-93.0545 335.7647,-84.0883"/>
<polygon fill="#191970" stroke="#191970" points="338.7144,-85.984 341.7949,-75.8469 333.0652,-81.8505 338.7144,-85.984"/>
</g>
<!-- Node9 -->
<g id="node10" class="node">
<title>Node9</title>
<polygon fill="none" stroke="#bfbfbf" points="391,-56.5 391,-75.5 449,-75.5 449,-56.5 391,-56.5"/>
<text text-anchor="middle" x="420" y="-63.5" font-family="Helvetica,sans-Serif" font-size="10.00" fill="#000000">ostream</text>
</g>
<!-- Node6&#45;&gt;Node9 -->
<g id="edge9" class="edge">
<title>Node6&#45;&gt;Node9</title>
<path fill="none" stroke="#191970" d="M332.3768,-112.4554C350.8828,-102.644 374.8888,-89.9167 393.0931,-80.2653"/>
<polygon fill="#191970" stroke="#191970" points="394.8285,-83.3068 402.0241,-75.5303 391.5495,-77.1222 394.8285,-83.3068"/>
</g>
<!-- Node10 -->
<g id="node11" class="node">
<title>Node10</title>
<polygon fill="none" stroke="#bfbfbf" points="467.5,-56.5 467.5,-75.5 564.5,-75.5 564.5,-56.5 467.5,-56.5"/>
<text text-anchor="middle" x="516" y="-63.5" font-family="Helvetica,sans-Serif" font-size="10.00" fill="#000000">vulkan/vulkan.h</text>
</g>
<!-- Node6&#45;&gt;Node10 -->
<g id="edge11" class="edge">
<title>Node6&#45;&gt;Node10</title>
<path fill="none" stroke="#191970" d="M355.861,-112.4554C392.0095,-101.9689 439.6405,-88.1515 473.5357,-78.3187"/>
<polygon fill="#191970" stroke="#191970" points="474.5186,-81.6779 483.1475,-75.5303 472.5683,-74.9551 474.5186,-81.6779"/>
</g>
</g>
</svg>
