<?xml version="1.0" encoding="UTF-8" standalone="no"?>
<!DOCTYPE svg PUBLIC "-//W3C//DTD SVG 1.1//EN"
 "http://www.w3.org/Graphics/SVG/1.1/DTD/svg11.dtd">
<!-- Generated by graphviz version 2.40.1 (20161225.0304)
 -->
<!-- Title: src/lug/Graphics/Vulkan/API/Builder/CommandBuffer.cpp Pages: 1 -->
<svg width="1945pt" height="430pt"
 viewBox="0.00 0.00 1944.50 430.00" xmlns="http://www.w3.org/2000/svg" xmlns:xlink="http://www.w3.org/1999/xlink">
<g id="graph0" class="graph" transform="scale(1 1) rotate(0) translate(4 426)">
<title>src/lug/Graphics/Vulkan/API/Builder/CommandBuffer.cpp</title>
<!-- Node0 -->
<g id="node1" class="node">
<title>Node0</title>
<polygon fill="#bfbfbf" stroke="#000000" points="1250.5,-391.5 1250.5,-421.5 1434.5,-421.5 1434.5,-391.5 1250.5,-391.5"/>
<text text-anchor="start" x="1258.5" y="-409.5" font-family="Helvetica,sans-Serif" font-size="10.00" fill="#000000">src/lug/Graphics/Vulkan</text>
<text text-anchor="middle" x="1342.5" y="-398.5" font-family="Helvetica,sans-Serif" font-size="10.00" fill="#000000">/API/Builder/CommandBuffer.cpp</text>
</g>
<!-- Node1 -->
<g id="node2" class="node">
<title>Node1</title>
<g id="a_node2"><a xlink:href="Builder_2CommandBuffer_8hpp.html" target="_top" xlink:title="lug/Graphics/Vulkan\l/API/Builder/CommandBuffer.hpp">
<polygon fill="none" stroke="#000000" points="1020,-257.5 1020,-287.5 1205,-287.5 1205,-257.5 1020,-257.5"/>
<text text-anchor="start" x="1028" y="-275.5" font-family="Helvetica,sans-Serif" font-size="10.00" fill="#000000">lug/Graphics/Vulkan</text>
<text text-anchor="middle" x="1112.5" y="-264.5" font-family="Helvetica,sans-Serif" font-size="10.00" fill="#000000">/API/Builder/CommandBuffer.hpp</text>
</a>
</g>
</g>
<!-- Node0&#45;&gt;Node1 -->
<g id="edge1" class="edge">
<title>Node0&#45;&gt;Node1</title>
<path fill="none" stroke="#191970" d="M1316.5632,-391.389C1275.0406,-367.1976 1193.6036,-319.7517 1147.1452,-292.6846"/>
<polygon fill="#191970" stroke="#191970" points="1148.7445,-289.5657 1138.342,-287.5558 1145.2206,-295.6141 1148.7445,-289.5657"/>
</g>
<!-- Node18 -->
<g id="node19" class="node">
<title>Node18</title>
<g id="a_node19"><a xlink:href="Device_8hpp.html" target="_top" xlink:title="lug/Graphics/Vulkan\l/API/Device.hpp">
<polygon fill="none" stroke="#000000" points="1606.5,-324.5 1606.5,-354.5 1724.5,-354.5 1724.5,-324.5 1606.5,-324.5"/>
<text text-anchor="start" x="1614.5" y="-342.5" font-family="Helvetica,sans-Serif" font-size="10.00" fill="#000000">lug/Graphics/Vulkan</text>
<text text-anchor="middle" x="1665.5" y="-331.5" font-family="Helvetica,sans-Serif" font-size="10.00" fill="#000000">/API/Device.hpp</text>
</a>
</g>
</g>
<!-- Node0&#45;&gt;Node18 -->
<g id="edge20" class="edge">
<title>Node0&#45;&gt;Node18</title>
<path fill="none" stroke="#191970" d="M1414.9875,-391.4639C1469.2433,-380.2096 1542.9906,-364.9122 1596.409,-353.8316"/>
<polygon fill="#191970" stroke="#191970" points="1597.3927,-357.2021 1606.4733,-351.7439 1595.9709,-350.348 1597.3927,-357.2021"/>
</g>
<!-- Node24 -->
<g id="node25" class="node">
<title>Node24</title>
<g id="a_node25"><a xlink:href="CommandPool_8hpp.html" target="_top" xlink:title="lug/Graphics/Vulkan\l/API/CommandPool.hpp">
<polygon fill="none" stroke="#000000" points="1275,-190.5 1275,-220.5 1410,-220.5 1410,-190.5 1275,-190.5"/>
<text text-anchor="start" x="1283" y="-208.5" font-family="Helvetica,sans-Serif" font-size="10.00" fill="#000000">lug/Graphics/Vulkan</text>
<text text-anchor="middle" x="1342.5" y="-197.5" font-family="Helvetica,sans-Serif" font-size="10.00" fill="#000000">/API/CommandPool.hpp</text>
</a>
</g>
</g>
<!-- Node0&#45;&gt;Node24 -->
<g id="edge33" class="edge">
<title>Node0&#45;&gt;Node24</title>
<path fill="none" stroke="#191970" d="M1342.5,-391.3923C1342.5,-357.0414 1342.5,-272.7914 1342.5,-230.5301"/>
<polygon fill="#191970" stroke="#191970" points="1346.0001,-230.5088 1342.5,-220.5088 1339.0001,-230.5088 1346.0001,-230.5088"/>
</g>
<!-- Node2 -->
<g id="node3" class="node">
<title>Node2</title>
<polygon fill="none" stroke="#bfbfbf" points="1083,-196 1083,-215 1142,-215 1142,-196 1083,-196"/>
<text text-anchor="middle" x="1112.5" y="-203" font-family="Helvetica,sans-Serif" font-size="10.00" fill="#000000">memory</text>
</g>
<!-- Node1&#45;&gt;Node2 -->
<g id="edge2" class="edge">
<title>Node1&#45;&gt;Node2</title>
<path fill="none" stroke="#191970" d="M1112.5,-257.2967C1112.5,-247.7699 1112.5,-235.3954 1112.5,-225.1306"/>
<polygon fill="#191970" stroke="#191970" points="1116.0001,-225.0549 1112.5,-215.055 1109.0001,-225.055 1116.0001,-225.0549"/>
</g>
<!-- Node3 -->
<g id="node4" class="node">
<title>Node3</title>
<polygon fill="none" stroke="#bfbfbf" points="1222.5,-56.5 1222.5,-75.5 1270.5,-75.5 1270.5,-56.5 1222.5,-56.5"/>
<text text-anchor="middle" x="1246.5" y="-63.5" font-family="Helvetica,sans-Serif" font-size="10.00" fill="#000000">vector</text>
</g>
<!-- Node1&#45;&gt;Node3 -->
<g id="edge3" class="edge">
<title>Node1&#45;&gt;Node3</title>
<path fill="none" stroke="#191970" d="M1124.1368,-257.4097C1131.8333,-247.2663 1142.0285,-233.5137 1150.5,-221 1183.182,-172.7239 1218.5284,-113.6827 1235.7888,-84.3547"/>
<polygon fill="#191970" stroke="#191970" points="1238.8797,-86.0029 1240.919,-75.6062 1232.8413,-82.4619 1238.8797,-86.0029"/>
</g>
<!-- Node4 -->
<g id="node5" class="node">
<title>Node4</title>
<g id="a_node5"><a xlink:href="CommandBuffer_8hpp.html" target="_top" xlink:title="lug/Graphics/Vulkan\l/API/CommandBuffer.hpp">
<polygon fill="none" stroke="#000000" points="723,-190.5 723,-220.5 868,-220.5 868,-190.5 723,-190.5"/>
<text text-anchor="start" x="731" y="-208.5" font-family="Helvetica,sans-Serif" font-size="10.00" fill="#000000">lug/Graphics/Vulkan</text>
<text text-anchor="middle" x="795.5" y="-197.5" font-family="Helvetica,sans-Serif" font-size="10.00" fill="#000000">/API/CommandBuffer.hpp</text>
</a>
</g>
</g>
<!-- Node1&#45;&gt;Node4 -->
<g id="edge4" class="edge">
<title>Node1&#45;&gt;Node4</title>
<path fill="none" stroke="#191970" d="M1041.359,-257.4639C992.5002,-247.1373 927.5354,-233.4065 876.6563,-222.6529"/>
<polygon fill="#191970" stroke="#191970" points="877.1849,-219.1874 866.6772,-220.5438 875.7373,-226.0361 877.1849,-219.1874"/>
</g>
<!-- Node17 -->
<g id="node18" class="node">
<title>Node17</title>
<g id="a_node18"><a xlink:href="Builder_2CommandBuffer_8inl.html" target="_top" xlink:title="lug/Graphics/Vulkan\l/API/Builder/CommandBuffer.inl">
<polygon fill="none" stroke="#000000" points="886,-190.5 886,-220.5 1065,-220.5 1065,-190.5 886,-190.5"/>
<text text-anchor="start" x="894" y="-208.5" font-family="Helvetica,sans-Serif" font-size="10.00" fill="#000000">lug/Graphics/Vulkan</text>
<text text-anchor="middle" x="975.5" y="-197.5" font-family="Helvetica,sans-Serif" font-size="10.00" fill="#000000">/API/Builder/CommandBuffer.inl</text>
</a>
</g>
</g>
<!-- Node1&#45;&gt;Node17 -->
<g id="edge19" class="edge">
<title>Node1&#45;&gt;Node17</title>
<path fill="none" stroke="#191970" d="M1081.7545,-257.4639C1062.2376,-247.9191 1036.7743,-235.4663 1015.6675,-225.144"/>
<polygon fill="#191970" stroke="#191970" points="1017.1378,-221.9669 1006.6169,-220.7177 1014.0625,-228.2552 1017.1378,-221.9669"/>
</g>
<!-- Node5 -->
<g id="node6" class="node">
<title>Node5</title>
<g id="a_node6"><a xlink:href="Graphics_2Export_8hpp.html" target="_top" xlink:title="lug/Graphics/Export.hpp">
<polygon fill="none" stroke="#000000" points="1548.5,-56.5 1548.5,-75.5 1686.5,-75.5 1686.5,-56.5 1548.5,-56.5"/>
<text text-anchor="middle" x="1617.5" y="-63.5" font-family="Helvetica,sans-Serif" font-size="10.00" fill="#000000">lug/Graphics/Export.hpp</text>
</a>
</g>
</g>
<!-- Node4&#45;&gt;Node5 -->
<g id="edge5" class="edge">
<title>Node4&#45;&gt;Node5</title>
<path fill="none" stroke="#191970" d="M868.3223,-191.3568C871.0811,-190.8871 873.8143,-190.433 876.5,-190 997.7584,-170.4494 1031.2078,-183.2437 1150.5,-154 1203.3483,-141.0446 1212.6472,-124.9371 1265.5,-112 1268.8086,-111.1901 1435.5517,-89.5439 1538.3288,-76.238"/>
<polygon fill="#191970" stroke="#191970" points="1538.9071,-79.6924 1548.375,-74.9376 1538.0084,-72.7504 1538.9071,-79.6924"/>
</g>
<!-- Node7 -->
<g id="node8" class="node">
<title>Node7</title>
<g id="a_node8"><a xlink:href="Vulkan_8hpp.html" target="_top" xlink:title="lug/Graphics/Vulkan\l/Vulkan.hpp">
<polygon fill="none" stroke="#000000" points="1422.5,-118 1422.5,-148 1540.5,-148 1540.5,-118 1422.5,-118"/>
<text text-anchor="start" x="1430.5" y="-136" font-family="Helvetica,sans-Serif" font-size="10.00" fill="#000000">lug/Graphics/Vulkan</text>
<text text-anchor="middle" x="1481.5" y="-125" font-family="Helvetica,sans-Serif" font-size="10.00" fill="#000000">/Vulkan.hpp</text>
</a>
</g>
</g>
<!-- Node4&#45;&gt;Node7 -->
<g id="edge7" class="edge">
<title>Node4&#45;&gt;Node7</title>
<path fill="none" stroke="#191970" d="M868.2904,-191.1368C871.0582,-190.7287 873.8019,-190.3474 876.5,-190 1113.3036,-159.5062 1177.6522,-197.039 1412.5,-154 1417.4536,-153.0922 1422.5537,-151.9513 1427.6321,-150.673"/>
<polygon fill="#191970" stroke="#191970" points="1428.5766,-154.0435 1437.3272,-148.0704 1426.7617,-147.2828 1428.5766,-154.0435"/>
</g>
<!-- Node11 -->
<g id="node12" class="node">
<title>Node11</title>
<g id="a_node12"><a xlink:href="CommandBuffer_2Buffer_8inl.html" target="_top" xlink:title="lug/Graphics/Vulkan\l/API/CommandBuffer/Buffer.inl">
<polygon fill="none" stroke="#000000" points="577.5,-118 577.5,-148 751.5,-148 751.5,-118 577.5,-118"/>
<text text-anchor="start" x="585.5" y="-136" font-family="Helvetica,sans-Serif" font-size="10.00" fill="#000000">lug/Graphics/Vulkan</text>
<text text-anchor="middle" x="664.5" y="-125" font-family="Helvetica,sans-Serif" font-size="10.00" fill="#000000">/API/CommandBuffer/Buffer.inl</text>
</a>
</g>
</g>
<!-- Node4&#45;&gt;Node11 -->
<g id="edge13" class="edge">
<title>Node4&#45;&gt;Node11</title>
<path fill="none" stroke="#191970" d="M768.3567,-190.478C748.6842,-179.5905 721.8843,-164.7585 700.4364,-152.8885"/>
<polygon fill="#191970" stroke="#191970" points="702.0528,-149.7828 691.6085,-148.0028 698.6632,-155.9074 702.0528,-149.7828"/>
</g>
<!-- Node12 -->
<g id="node13" class="node">
<title>Node12</title>
<g id="a_node13"><a xlink:href="API_2CommandBuffer_2DescriptorSet_8inl.html" target="_top" xlink:title="lug/Graphics/Vulkan\l/API/CommandBuffer/Descriptor\lSet.inl">
<polygon fill="none" stroke="#000000" points="770,-112.5 770,-153.5 949,-153.5 949,-112.5 770,-112.5"/>
<text text-anchor="start" x="778" y="-141.5" font-family="Helvetica,sans-Serif" font-size="10.00" fill="#000000">lug/Graphics/Vulkan</text>
<text text-anchor="start" x="778" y="-130.5" font-family="Helvetica,sans-Serif" font-size="10.00" fill="#000000">/API/CommandBuffer/Descriptor</text>
<text text-anchor="middle" x="859.5" y="-119.5" font-family="Helvetica,sans-Serif" font-size="10.00" fill="#000000">Set.inl</text>
</a>
</g>
</g>
<!-- Node4&#45;&gt;Node12 -->
<g id="edge14" class="edge">
<title>Node4&#45;&gt;Node12</title>
<path fill="none" stroke="#191970" d="M808.7608,-190.478C816.2145,-182.0344 825.7625,-171.2183 834.561,-161.2513"/>
<polygon fill="#191970" stroke="#191970" points="837.4081,-163.3147 841.4021,-153.5015 832.1602,-158.6821 837.4081,-163.3147"/>
</g>
<!-- Node13 -->
<g id="node14" class="node">
<title>Node13</title>
<g id="a_node14"><a xlink:href="CommandBuffer_2Image_8inl.html" target="_top" xlink:title="lug/Graphics/Vulkan\l/API/CommandBuffer/Image.inl">
<polygon fill="none" stroke="#000000" points="967,-118 967,-148 1142,-148 1142,-118 967,-118"/>
<text text-anchor="start" x="975" y="-136" font-family="Helvetica,sans-Serif" font-size="10.00" fill="#000000">lug/Graphics/Vulkan</text>
<text text-anchor="middle" x="1054.5" y="-125" font-family="Helvetica,sans-Serif" font-size="10.00" fill="#000000">/API/CommandBuffer/Image.inl</text>
</a>
</g>
</g>
<!-- Node4&#45;&gt;Node13 -->
<g id="edge15" class="edge">
<title>Node4&#45;&gt;Node13</title>
<path fill="none" stroke="#191970" d="M849.165,-190.478C890.4903,-178.91 947.7238,-162.8891 991.271,-150.6992"/>
<polygon fill="#191970" stroke="#191970" points="992.2174,-154.0689 1000.9038,-148.0028 990.3305,-147.328 992.2174,-154.0689"/>
</g>
<!-- Node14 -->
<g id="node15" class="node">
<title>Node14</title>
<g id="a_node15"><a xlink:href="RenderPass_8inl.html" target="_top" xlink:title="lug/Graphics/Vulkan\l/API/CommandBuffer/RenderPass.inl">
<polygon fill="none" stroke="#000000" points="0,-118 0,-148 201,-148 201,-118 0,-118"/>
<text text-anchor="start" x="8" y="-136" font-family="Helvetica,sans-Serif" font-size="10.00" fill="#000000">lug/Graphics/Vulkan</text>
<text text-anchor="middle" x="100.5" y="-125" font-family="Helvetica,sans-Serif" font-size="10.00" fill="#000000">/API/CommandBuffer/RenderPass.inl</text>
</a>
</g>
</g>
<!-- Node4&#45;&gt;Node14 -->
<g id="edge16" class="edge">
<title>Node4&#45;&gt;Node14</title>
<path fill="none" stroke="#191970" d="M722.7301,-201.4596C611.8315,-194.7688 394.0364,-179.5319 210.5,-154 201.8255,-152.7933 192.7978,-151.361 183.8098,-149.8199"/>
<polygon fill="#191970" stroke="#191970" points="184.1553,-146.327 173.6999,-148.04 182.9415,-153.221 184.1553,-146.327"/>
</g>
<!-- Node15 -->
<g id="node16" class="node">
<title>Node15</title>
<g id="a_node16"><a xlink:href="API_2CommandBuffer_2Pipeline_8inl.html" target="_top" xlink:title="lug/Graphics/Vulkan\l/API/CommandBuffer/Pipeline.inl">
<polygon fill="none" stroke="#000000" points="219.5,-118 219.5,-148 401.5,-148 401.5,-118 219.5,-118"/>
<text text-anchor="start" x="227.5" y="-136" font-family="Helvetica,sans-Serif" font-size="10.00" fill="#000000">lug/Graphics/Vulkan</text>
<text text-anchor="middle" x="310.5" y="-125" font-family="Helvetica,sans-Serif" font-size="10.00" fill="#000000">/API/CommandBuffer/Pipeline.inl</text>
</a>
</g>
</g>
<!-- Node4&#45;&gt;Node15 -->
<g id="edge17" class="edge">
<title>Node4&#45;&gt;Node15</title>
<path fill="none" stroke="#191970" d="M722.8796,-197.4104C645.2959,-188.389 518.8358,-172.5949 410.5,-154 403.408,-152.7827 396.0529,-151.424 388.696,-149.9992"/>
<polygon fill="#191970" stroke="#191970" points="389.1762,-146.5264 378.6875,-148.0223 387.8197,-153.3938 389.1762,-146.5264"/>
</g>
<!-- Node16 -->
<g id="node17" class="node">
<title>Node16</title>
<g id="a_node17"><a xlink:href="CommandBuffer_8inl.html" target="_top" xlink:title="lug/Graphics/Vulkan\l/API/CommandBuffer.inl">
<polygon fill="none" stroke="#000000" points="420,-118 420,-148 559,-148 559,-118 420,-118"/>
<text text-anchor="start" x="428" y="-136" font-family="Helvetica,sans-Serif" font-size="10.00" fill="#000000">lug/Graphics/Vulkan</text>
<text text-anchor="middle" x="489.5" y="-125" font-family="Helvetica,sans-Serif" font-size="10.00" fill="#000000">/API/CommandBuffer.inl</text>
</a>
</g>
</g>
<!-- Node4&#45;&gt;Node16 -->
<g id="edge18" class="edge">
<title>Node4&#45;&gt;Node16</title>
<path fill="none" stroke="#191970" d="M726.3024,-190.4924C681.2563,-180.5525 621.2764,-166.9967 568.5,-154 564.1184,-152.921 559.6065,-151.7861 555.0643,-150.6257"/>
<polygon fill="#191970" stroke="#191970" points="555.6682,-147.167 545.1109,-148.0568 553.9189,-153.9449 555.6682,-147.167"/>
</g>
<!-- Node6 -->
<g id="node7" class="node">
<title>Node6</title>
<g id="a_node7"><a xlink:href="Config_8hpp.html" target="_top" xlink:title="lug/Config.hpp">
<polygon fill="none" stroke="#000000" points="1573,-.5 1573,-19.5 1662,-19.5 1662,-.5 1573,-.5"/>
<text text-anchor="middle" x="1617.5" y="-7.5" font-family="Helvetica,sans-Serif" font-size="10.00" fill="#000000">lug/Config.hpp</text>
</a>
</g>
</g>
<!-- Node5&#45;&gt;Node6 -->
<g id="edge6" class="edge">
<title>Node5&#45;&gt;Node6</title>
<path fill="none" stroke="#191970" d="M1617.5,-56.2455C1617.5,-48.9382 1617.5,-38.6944 1617.5,-29.7046"/>
<polygon fill="#191970" stroke="#191970" points="1621.0001,-29.6426 1617.5,-19.6427 1614.0001,-29.6427 1621.0001,-29.6426"/>
</g>
<!-- Node7&#45;&gt;Node3 -->
<g id="edge9" class="edge">
<title>Node7&#45;&gt;Node3</title>
<path fill="none" stroke="#191970" d="M1432.5431,-117.9343C1425.8168,-115.9129 1418.993,-113.8874 1412.5,-112 1366.9568,-98.7616 1314.1333,-84.2715 1280.5289,-75.1613"/>
<polygon fill="#191970" stroke="#191970" points="1281.3134,-71.7477 1270.7463,-72.514 1279.4848,-78.5047 1281.3134,-71.7477"/>
</g>
<!-- Node7&#45;&gt;Node5 -->
<g id="edge11" class="edge">
<title>Node7&#45;&gt;Node5</title>
<path fill="none" stroke="#191970" d="M1512.0211,-117.9639C1535.0457,-106.6209 1566.4072,-91.1707 1588.9394,-80.0703"/>
<polygon fill="#191970" stroke="#191970" points="1590.5817,-83.1629 1598.0055,-75.6039 1587.4882,-76.8836 1590.5817,-83.1629"/>
</g>
<!-- Node8 -->
<g id="node9" class="node">
<title>Node8</title>
<polygon fill="none" stroke="#bfbfbf" points="1743,-56.5 1743,-75.5 1838,-75.5 1838,-56.5 1743,-56.5"/>
<text text-anchor="middle" x="1790.5" y="-63.5" font-family="Helvetica,sans-Serif" font-size="10.00" fill="#000000">unordered_map</text>
</g>
<!-- Node7&#45;&gt;Node8 -->
<g id="edge8" class="edge">
<title>Node7&#45;&gt;Node8</title>
<path fill="none" stroke="#191970" d="M1540.7127,-120.161C1597.2984,-107.8916 1681.8616,-89.5559 1736.6066,-77.6856"/>
<polygon fill="#191970" stroke="#191970" points="1737.4371,-81.087 1746.4683,-75.5473 1735.9537,-74.2459 1737.4371,-81.087"/>
</g>
<!-- Node9 -->
<g id="node10" class="node">
<title>Node9</title>
<polygon fill="none" stroke="#bfbfbf" points="1356.5,-56.5 1356.5,-75.5 1414.5,-75.5 1414.5,-56.5 1356.5,-56.5"/>
<text text-anchor="middle" x="1385.5" y="-63.5" font-family="Helvetica,sans-Serif" font-size="10.00" fill="#000000">ostream</text>
</g>
<!-- Node7&#45;&gt;Node9 -->
<g id="edge10" class="edge">
<title>Node7&#45;&gt;Node9</title>
<path fill="none" stroke="#191970" d="M1459.7161,-117.7967C1444.178,-106.9524 1423.3529,-92.4182 1407.7176,-81.506"/>
<polygon fill="#191970" stroke="#191970" points="1409.3942,-78.408 1399.1907,-75.555 1405.3879,-84.1483 1409.3942,-78.408"/>
</g>
<!-- Node10 -->
<g id="node11" class="node">
<title>Node10</title>
<polygon fill="none" stroke="#bfbfbf" points="1433,-56.5 1433,-75.5 1530,-75.5 1530,-56.5 1433,-56.5"/>
<text text-anchor="middle" x="1481.5" y="-63.5" font-family="Helvetica,sans-Serif" font-size="10.00" fill="#000000">vulkan/vulkan.h</text>
</g>
<!-- Node7&#45;&gt;Node10 -->
<g id="edge12" class="edge">
<title>Node7&#45;&gt;Node10</title>
<path fill="none" stroke="#191970" d="M1481.5,-117.7967C1481.5,-108.2699 1481.5,-95.8954 1481.5,-85.6306"/>
<polygon fill="#191970" stroke="#191970" points="1485.0001,-85.5549 1481.5,-75.555 1478.0001,-85.555 1485.0001,-85.5549"/>
</g>
<!-- Node18&#45;&gt;Node5 -->
<g id="edge21" class="edge">
<title>Node18&#45;&gt;Node5</title>
<path fill="none" stroke="#191970" d="M1697.8982,-324.3215C1712.6383,-315.74 1728.8983,-303.5809 1738.5,-288 1761.4692,-250.7273 1754.2406,-233.4037 1748.5,-190 1743.7927,-154.4088 1751.1417,-139.0177 1727.5,-112 1713.6815,-96.2083 1693.5582,-85.7101 1674.2902,-78.7894"/>
<polygon fill="#191970" stroke="#191970" points="1675.2255,-75.412 1664.632,-75.5797 1673.0178,-82.0548 1675.2255,-75.412"/>
</g>
<!-- Node18&#45;&gt;Node7 -->
<g id="edge31" class="edge">
<title>Node18&#45;&gt;Node7</title>
<path fill="none" stroke="#191970" d="M1608.0684,-324.4086C1558.3985,-307.9783 1489.6606,-276.3359 1457.5,-221 1445.9278,-201.0887 1455.2488,-175.4006 1465.4595,-156.925"/>
<polygon fill="#191970" stroke="#191970" points="1468.5196,-158.6265 1470.6144,-148.2408 1462.5002,-155.0533 1468.5196,-158.6265"/>
</g>
<!-- Node19 -->
<g id="node20" class="node">
<title>Node19</title>
<g id="a_node20"><a xlink:href="QueueFamily_8hpp.html" target="_top" xlink:title="lug/Graphics/Vulkan\l/API/QueueFamily.hpp">
<polygon fill="none" stroke="#000000" points="1601.5,-257.5 1601.5,-287.5 1729.5,-287.5 1729.5,-257.5 1601.5,-257.5"/>
<text text-anchor="start" x="1609.5" y="-275.5" font-family="Helvetica,sans-Serif" font-size="10.00" fill="#000000">lug/Graphics/Vulkan</text>
<text text-anchor="middle" x="1665.5" y="-264.5" font-family="Helvetica,sans-Serif" font-size="10.00" fill="#000000">/API/QueueFamily.hpp</text>
</a>
</g>
</g>
<!-- Node18&#45;&gt;Node19 -->
<g id="edge22" class="edge">
<title>Node18&#45;&gt;Node19</title>
<path fill="none" stroke="#191970" d="M1665.5,-324.2967C1665.5,-316.5013 1665.5,-306.7991 1665.5,-297.9064"/>
<polygon fill="#191970" stroke="#191970" points="1669.0001,-297.6431 1665.5,-287.6432 1662.0001,-297.6432 1669.0001,-297.6431"/>
</g>
<!-- Node23 -->
<g id="node24" class="node">
<title>Node23</title>
<g id="a_node24"><a xlink:href="Device_8inl.html" target="_top" xlink:title="lug/Graphics/Vulkan\l/API/Device.inl">
<polygon fill="none" stroke="#000000" points="1818.5,-257.5 1818.5,-287.5 1936.5,-287.5 1936.5,-257.5 1818.5,-257.5"/>
<text text-anchor="start" x="1826.5" y="-275.5" font-family="Helvetica,sans-Serif" font-size="10.00" fill="#000000">lug/Graphics/Vulkan</text>
<text text-anchor="middle" x="1877.5" y="-264.5" font-family="Helvetica,sans-Serif" font-size="10.00" fill="#000000">/API/Device.inl</text>
</a>
</g>
</g>
<!-- Node18&#45;&gt;Node23 -->
<g id="edge32" class="edge">
<title>Node18&#45;&gt;Node23</title>
<path fill="none" stroke="#191970" d="M1713.0769,-324.4639C1744.7437,-314.456 1786.5269,-301.2509 1820.0479,-290.657"/>
<polygon fill="#191970" stroke="#191970" points="1821.2351,-293.9525 1829.7156,-287.6017 1819.1257,-287.2779 1821.2351,-293.9525"/>
</g>
<!-- Node19&#45;&gt;Node3 -->
<g id="edge24" class="edge">
<title>Node19&#45;&gt;Node3</title>
<path fill="none" stroke="#191970" d="M1601.1629,-268.4989C1494.0922,-261.2186 1288.7298,-244.3713 1265.5,-221 1229.7685,-185.0508 1236.093,-118.9414 1242.1035,-85.8971"/>
<polygon fill="#191970" stroke="#191970" points="1245.6155,-86.184 1244.1469,-75.6914 1238.7517,-84.8096 1245.6155,-86.184"/>
</g>
<!-- Node19&#45;&gt;Node5 -->
<g id="edge25" class="edge">
<title>Node19&#45;&gt;Node5</title>
<path fill="none" stroke="#191970" d="M1696.6954,-257.3802C1710.6665,-248.8126 1725.7217,-236.6483 1733.5,-221 1739.6327,-208.6624 1736.0905,-203.5321 1733.5,-190 1726.486,-153.3611 1727.2803,-139.8845 1702.5,-112 1689.8283,-97.7409 1671.6479,-87.0745 1655.3506,-79.622"/>
<polygon fill="#191970" stroke="#191970" points="1656.5971,-76.348 1646.0285,-75.6025 1653.8255,-82.7759 1656.5971,-76.348"/>
</g>
<!-- Node19&#45;&gt;Node8 -->
<g id="edge23" class="edge">
<title>Node19&#45;&gt;Node8</title>
<path fill="none" stroke="#191970" d="M1702.2781,-257.2959C1718.6086,-248.8314 1736.7517,-236.7781 1748.5,-221 1779.197,-179.7736 1787.463,-117.5396 1789.6854,-85.9362"/>
<polygon fill="#191970" stroke="#191970" points="1793.1898,-85.9564 1790.2611,-75.7744 1786.201,-85.5604 1793.1898,-85.9564"/>
</g>
<!-- Node20 -->
<g id="node21" class="node">
<title>Node20</title>
<g id="a_node21"><a xlink:href="Vulkan_2API_2Queue_8hpp.html" target="_top" xlink:title="lug/Graphics/Vulkan\l/API/Queue.hpp">
<polygon fill="none" stroke="#000000" points="1606.5,-190.5 1606.5,-220.5 1724.5,-220.5 1724.5,-190.5 1606.5,-190.5"/>
<text text-anchor="start" x="1614.5" y="-208.5" font-family="Helvetica,sans-Serif" font-size="10.00" fill="#000000">lug/Graphics/Vulkan</text>
<text text-anchor="middle" x="1665.5" y="-197.5" font-family="Helvetica,sans-Serif" font-size="10.00" fill="#000000">/API/Queue.hpp</text>
</a>
</g>
</g>
<!-- Node19&#45;&gt;Node20 -->
<g id="edge26" class="edge">
<title>Node19&#45;&gt;Node20</title>
<path fill="none" stroke="#191970" d="M1665.5,-257.2967C1665.5,-249.5013 1665.5,-239.7991 1665.5,-230.9064"/>
<polygon fill="#191970" stroke="#191970" points="1669.0001,-230.6431 1665.5,-220.6432 1662.0001,-230.6432 1669.0001,-230.6431"/>
</g>
<!-- Node22 -->
<g id="node23" class="node">
<title>Node22</title>
<g id="a_node23"><a xlink:href="QueueFamily_8inl.html" target="_top" xlink:title="lug/Graphics/Vulkan\l/API/QueueFamily.inl">
<polygon fill="none" stroke="#000000" points="1466.5,-190.5 1466.5,-220.5 1588.5,-220.5 1588.5,-190.5 1466.5,-190.5"/>
<text text-anchor="start" x="1474.5" y="-208.5" font-family="Helvetica,sans-Serif" font-size="10.00" fill="#000000">lug/Graphics/Vulkan</text>
<text text-anchor="middle" x="1527.5" y="-197.5" font-family="Helvetica,sans-Serif" font-size="10.00" fill="#000000">/API/QueueFamily.inl</text>
</a>
</g>
</g>
<!-- Node19&#45;&gt;Node22 -->
<g id="edge30" class="edge">
<title>Node19&#45;&gt;Node22</title>
<path fill="none" stroke="#191970" d="M1634.5301,-257.4639C1614.8708,-247.9191 1589.2216,-235.4663 1567.9607,-225.144"/>
<polygon fill="#191970" stroke="#191970" points="1569.3685,-221.9368 1558.844,-220.7177 1566.3112,-228.2339 1569.3685,-221.9368"/>
</g>
<!-- Node20&#45;&gt;Node5 -->
<g id="edge27" class="edge">
<title>Node20&#45;&gt;Node5</title>
<path fill="none" stroke="#191970" d="M1655.3431,-190.3178C1649.096,-180.3628 1641.379,-166.8551 1636.5,-154 1627.8653,-131.2498 1622.7059,-103.6239 1619.9883,-85.4669"/>
<polygon fill="#191970" stroke="#191970" points="1623.4481,-84.9353 1618.6025,-75.5135 1616.515,-85.9006 1623.4481,-84.9353"/>
</g>
<!-- Node20&#45;&gt;Node7 -->
<g id="edge28" class="edge">
<title>Node20&#45;&gt;Node7</title>
<path fill="none" stroke="#191970" d="M1627.3751,-190.478C1598.88,-179.2503 1559.7384,-163.8276 1529.1739,-151.7845"/>
<polygon fill="#191970" stroke="#191970" points="1530.163,-148.4124 1519.5761,-148.0028 1527.5968,-154.9251 1530.163,-148.4124"/>
</g>
<!-- Node21 -->
<g id="node22" class="node">
<title>Node21</title>
<polygon fill="none" stroke="#bfbfbf" points="1645.5,-123.5 1645.5,-142.5 1693.5,-142.5 1693.5,-123.5 1645.5,-123.5"/>
<text text-anchor="middle" x="1669.5" y="-130.5" font-family="Helvetica,sans-Serif" font-size="10.00" fill="#000000">mutex</text>
</g>
<!-- Node20&#45;&gt;Node21 -->
<g id="edge29" class="edge">
<title>Node20&#45;&gt;Node21</title>
<path fill="none" stroke="#191970" d="M1666.3288,-190.478C1666.9253,-179.6657 1667.7365,-164.9631 1668.3891,-153.1348"/>
<polygon fill="#191970" stroke="#191970" points="1671.8977,-153.0733 1668.954,-142.8957 1664.9084,-152.6876 1671.8977,-153.0733"/>
</g>
<!-- Node24&#45;&gt;Node5 -->
<g id="edge34" class="edge">
<title>Node24&#45;&gt;Node5</title>
<path fill="none" stroke="#191970" d="M1410.2074,-193.6346C1461.3958,-183.7525 1526.6304,-168.9304 1549.5,-154 1576.3149,-136.494 1596.9273,-104.733 1608.1184,-84.5367"/>
<polygon fill="#191970" stroke="#191970" points="1611.232,-86.1361 1612.8414,-75.6642 1605.0529,-82.8469 1611.232,-86.1361"/>
</g>
<!-- Node24&#45;&gt;Node7 -->
<g id="edge35" class="edge">
<title>Node24&#45;&gt;Node7</title>
<path fill="none" stroke="#191970" d="M1371.3009,-190.478C1392.2679,-179.5419 1420.8653,-164.626 1443.6734,-152.7297"/>
<polygon fill="#191970" stroke="#191970" points="1445.4882,-155.7307 1452.736,-148.0028 1442.251,-149.5242 1445.4882,-155.7307"/>
</g>
<!-- Node25 -->
<g id="node26" class="node">
<title>Node25</title>
<g id="a_node26"><a xlink:href="CommandPool_8inl.html" target="_top" xlink:title="lug/Graphics/Vulkan\l/API/CommandPool.inl">
<polygon fill="none" stroke="#000000" points="1275,-118 1275,-148 1404,-148 1404,-118 1275,-118"/>
<text text-anchor="start" x="1283" y="-136" font-family="Helvetica,sans-Serif" font-size="10.00" fill="#000000">lug/Graphics/Vulkan</text>
<text text-anchor="middle" x="1339.5" y="-125" font-family="Helvetica,sans-Serif" font-size="10.00" fill="#000000">/API/CommandPool.inl</text>
</a>
</g>
</g>
<!-- Node24&#45;&gt;Node25 -->
<g id="edge36" class="edge">
<title>Node24&#45;&gt;Node25</title>
<path fill="none" stroke="#191970" d="M1341.8784,-190.478C1341.4922,-181.1459 1340.9862,-168.9157 1340.5401,-158.1368"/>
<polygon fill="#191970" stroke="#191970" points="1344.0313,-157.8495 1340.1208,-148.0028 1337.0373,-158.139 1344.0313,-157.8495"/>
</g>
</g>
</svg>
