<?xml version="1.0" encoding="UTF-8" standalone="no"?>
<!DOCTYPE svg PUBLIC "-//W3C//DTD SVG 1.1//EN"
 "http://www.w3.org/Graphics/SVG/1.1/DTD/svg11.dtd">
<!-- Generated by graphviz version 2.40.1 (20161225.0304)
 -->
<!-- Title: src/lug/Graphics/Vulkan/API/Builder/PipelineLayout.cpp Pages: 1 -->
<svg width="1136pt" height="419pt"
 viewBox="0.00 0.00 1135.54 419.00" xmlns="http://www.w3.org/2000/svg" xmlns:xlink="http://www.w3.org/1999/xlink">
<g id="graph0" class="graph" transform="scale(1 1) rotate(0) translate(4 415)">
<title>src/lug/Graphics/Vulkan/API/Builder/PipelineLayout.cpp</title>
<!-- Node0 -->
<g id="node1" class="node">
<title>Node0</title>
<polygon fill="#bfbfbf" stroke="#000000" points="678.0387,-380.5 678.0387,-410.5 853.0387,-410.5 853.0387,-380.5 678.0387,-380.5"/>
<text text-anchor="start" x="686.0387" y="-398.5" font-family="Helvetica,sans-Serif" font-size="10.00" fill="#000000">src/lug/Graphics/Vulkan</text>
<text text-anchor="middle" x="765.5387" y="-387.5" font-family="Helvetica,sans-Serif" font-size="10.00" fill="#000000">/API/Builder/PipelineLayout.cpp</text>
</g>
<!-- Node1 -->
<g id="node2" class="node">
<title>Node1</title>
<g id="a_node2"><a xlink:href="Builder_2PipelineLayout_8hpp.html" target="_top" xlink:title="lug/Graphics/Vulkan\l/API/Builder/PipelineLayout.hpp">
<polygon fill="none" stroke="#000000" points="56.5387,-313.5 56.5387,-343.5 232.5387,-343.5 232.5387,-313.5 56.5387,-313.5"/>
<text text-anchor="start" x="64.5387" y="-331.5" font-family="Helvetica,sans-Serif" font-size="10.00" fill="#000000">lug/Graphics/Vulkan</text>
<text text-anchor="middle" x="144.5387" y="-320.5" font-family="Helvetica,sans-Serif" font-size="10.00" fill="#000000">/API/Builder/PipelineLayout.hpp</text>
</a>
</g>
</g>
<!-- Node0&#45;&gt;Node1 -->
<g id="edge1" class="edge">
<title>Node0&#45;&gt;Node1</title>
<path fill="none" stroke="#191970" d="M677.8817,-386.0426C563.2041,-373.67 362.8119,-352.0496 243.018,-339.125"/>
<polygon fill="#191970" stroke="#191970" points="243.0708,-335.6105 232.753,-338.0175 242.3199,-342.5701 243.0708,-335.6105"/>
</g>
<!-- Node15 -->
<g id="node16" class="node">
<title>Node15</title>
<polygon fill="none" stroke="#bfbfbf" points="843.0387,-319 843.0387,-338 908.0387,-338 908.0387,-319 843.0387,-319"/>
<text text-anchor="middle" x="875.5387" y="-326" font-family="Helvetica,sans-Serif" font-size="10.00" fill="#000000">algorithm</text>
</g>
<!-- Node0&#45;&gt;Node15 -->
<g id="edge22" class="edge">
<title>Node0&#45;&gt;Node15</title>
<path fill="none" stroke="#191970" d="M790.2248,-380.4639C808.3489,-369.4247 832.8596,-354.4954 850.9587,-343.4715"/>
<polygon fill="#191970" stroke="#191970" points="853.0513,-346.2951 859.7711,-338.1039 849.4099,-340.3167 853.0513,-346.2951"/>
</g>
<!-- Node16 -->
<g id="node17" class="node">
<title>Node16</title>
<g id="a_node17"><a xlink:href="Device_8hpp.html" target="_top" xlink:title="lug/Graphics/Vulkan\l/API/Device.hpp">
<polygon fill="none" stroke="#000000" points="706.5387,-313.5 706.5387,-343.5 824.5387,-343.5 824.5387,-313.5 706.5387,-313.5"/>
<text text-anchor="start" x="714.5387" y="-331.5" font-family="Helvetica,sans-Serif" font-size="10.00" fill="#000000">lug/Graphics/Vulkan</text>
<text text-anchor="middle" x="765.5387" y="-320.5" font-family="Helvetica,sans-Serif" font-size="10.00" fill="#000000">/API/Device.hpp</text>
</a>
</g>
</g>
<!-- Node0&#45;&gt;Node16 -->
<g id="edge23" class="edge">
<title>Node0&#45;&gt;Node16</title>
<path fill="none" stroke="#191970" d="M765.5387,-380.2967C765.5387,-372.5013 765.5387,-362.7991 765.5387,-353.9064"/>
<polygon fill="#191970" stroke="#191970" points="769.0388,-353.6431 765.5387,-343.6432 762.0388,-353.6432 769.0388,-353.6431"/>
</g>
<!-- Node2 -->
<g id="node3" class="node">
<title>Node2</title>
<polygon fill="none" stroke="#bfbfbf" points="40.0387,-118 40.0387,-137 99.0387,-137 99.0387,-118 40.0387,-118"/>
<text text-anchor="middle" x="69.5387" y="-125" font-family="Helvetica,sans-Serif" font-size="10.00" fill="#000000">memory</text>
</g>
<!-- Node1&#45;&gt;Node2 -->
<g id="edge2" class="edge">
<title>Node1&#45;&gt;Node2</title>
<path fill="none" stroke="#191970" d="M95.4008,-313.4302C78.0996,-305.4949 60.4968,-293.8105 50.5387,-277 25.9665,-235.5191 46.6139,-176.294 60.113,-146.3627"/>
<polygon fill="#191970" stroke="#191970" points="63.3942,-147.611 64.5038,-137.0744 57.0657,-144.6193 63.3942,-147.611"/>
</g>
<!-- Node3 -->
<g id="node4" class="node">
<title>Node3</title>
<polygon fill="none" stroke="#bfbfbf" points="276.5387,-56.5 276.5387,-75.5 324.5387,-75.5 324.5387,-56.5 276.5387,-56.5"/>
<text text-anchor="middle" x="300.5387" y="-63.5" font-family="Helvetica,sans-Serif" font-size="10.00" fill="#000000">vector</text>
</g>
<!-- Node1&#45;&gt;Node3 -->
<g id="edge3" class="edge">
<title>Node1&#45;&gt;Node3</title>
<path fill="none" stroke="#191970" d="M85.3202,-313.4907C66.6252,-305.7275 47.8996,-294.1419 36.5387,-277 -4.0006,-215.8325 -16.7926,-168.0771 30.5387,-112 45.6354,-94.1137 197.2238,-76.53 266.4191,-69.3638"/>
<polygon fill="#191970" stroke="#191970" points="266.8023,-72.8429 276.3944,-68.3439 266.0902,-65.8792 266.8023,-72.8429"/>
</g>
<!-- Node4 -->
<g id="node5" class="node">
<title>Node4</title>
<g id="a_node5"><a xlink:href="PipelineLayout_8hpp.html" target="_top" xlink:title="lug/Graphics/Vulkan\l/API/PipelineLayout.hpp">
<polygon fill="none" stroke="#000000" points="247.5387,-246.5 247.5387,-276.5 383.5387,-276.5 383.5387,-246.5 247.5387,-246.5"/>
<text text-anchor="start" x="255.5387" y="-264.5" font-family="Helvetica,sans-Serif" font-size="10.00" fill="#000000">lug/Graphics/Vulkan</text>
<text text-anchor="middle" x="315.5387" y="-253.5" font-family="Helvetica,sans-Serif" font-size="10.00" fill="#000000">/API/PipelineLayout.hpp</text>
</a>
</g>
</g>
<!-- Node1&#45;&gt;Node4 -->
<g id="edge4" class="edge">
<title>Node1&#45;&gt;Node4</title>
<path fill="none" stroke="#191970" d="M182.9144,-313.4639C207.9088,-303.6708 240.7167,-290.8162 267.4479,-280.3426"/>
<polygon fill="#191970" stroke="#191970" points="268.9616,-283.5086 276.9956,-276.6017 266.4079,-276.9911 268.9616,-283.5086"/>
</g>
<!-- Node14 -->
<g id="node15" class="node">
<title>Node14</title>
<g id="a_node15"><a xlink:href="Builder_2PipelineLayout_8inl.html" target="_top" xlink:title="lug/Graphics/Vulkan\l/API/Builder/PipelineLayout.inl">
<polygon fill="none" stroke="#000000" points="59.5387,-246.5 59.5387,-276.5 229.5387,-276.5 229.5387,-246.5 59.5387,-246.5"/>
<text text-anchor="start" x="67.5387" y="-264.5" font-family="Helvetica,sans-Serif" font-size="10.00" fill="#000000">lug/Graphics/Vulkan</text>
<text text-anchor="middle" x="144.5387" y="-253.5" font-family="Helvetica,sans-Serif" font-size="10.00" fill="#000000">/API/Builder/PipelineLayout.inl</text>
</a>
</g>
</g>
<!-- Node1&#45;&gt;Node14 -->
<g id="edge21" class="edge">
<title>Node1&#45;&gt;Node14</title>
<path fill="none" stroke="#191970" d="M144.5387,-313.2967C144.5387,-305.5013 144.5387,-295.7991 144.5387,-286.9064"/>
<polygon fill="#191970" stroke="#191970" points="148.0388,-286.6431 144.5387,-276.6432 141.0388,-286.6432 148.0388,-286.6431"/>
</g>
<!-- Node4&#45;&gt;Node2 -->
<g id="edge5" class="edge">
<title>Node4&#45;&gt;Node2</title>
<path fill="none" stroke="#191970" d="M247.3699,-246.9368C181.5694,-232.7445 91.4366,-212.8885 88.5387,-210 72.0821,-193.597 68.7048,-165.9923 68.5287,-147.2756"/>
<polygon fill="#191970" stroke="#191970" points="72.0297,-147.2607 68.7322,-137.1921 65.0311,-147.1194 72.0297,-147.2607"/>
</g>
<!-- Node4&#45;&gt;Node3 -->
<g id="edge6" class="edge">
<title>Node4&#45;&gt;Node3</title>
<path fill="none" stroke="#191970" d="M300.0178,-246.4327C279.7583,-225.4989 245.4775,-185.3826 233.5387,-143 229.803,-129.7383 227.1206,-124.1916 233.5387,-112 240.8549,-98.1024 254.476,-87.5936 267.5358,-80.1542"/>
<polygon fill="#191970" stroke="#191970" points="269.182,-83.243 276.4032,-75.4903 265.9234,-77.0477 269.182,-83.243"/>
</g>
<!-- Node5 -->
<g id="node6" class="node">
<title>Node5</title>
<g id="a_node6"><a xlink:href="Graphics_2Export_8hpp.html" target="_top" xlink:title="lug/Graphics/Export.hpp">
<polygon fill="none" stroke="#000000" points="614.5387,-56.5 614.5387,-75.5 752.5387,-75.5 752.5387,-56.5 614.5387,-56.5"/>
<text text-anchor="middle" x="683.5387" y="-63.5" font-family="Helvetica,sans-Serif" font-size="10.00" fill="#000000">lug/Graphics/Export.hpp</text>
</a>
</g>
</g>
<!-- Node4&#45;&gt;Node5 -->
<g id="edge7" class="edge">
<title>Node4&#45;&gt;Node5</title>
<path fill="none" stroke="#191970" d="M383.5402,-248.1407C450.0619,-232.2924 551.3358,-200.4661 621.5387,-143 642.3813,-125.9388 660.9698,-100.8582 672.235,-84.0024"/>
<polygon fill="#191970" stroke="#191970" points="675.1898,-85.8787 677.7078,-75.5874 669.3216,-82.0622 675.1898,-85.8787"/>
</g>
<!-- Node7 -->
<g id="node8" class="node">
<title>Node7</title>
<g id="a_node8"><a xlink:href="DescriptorSetLayout_8hpp.html" target="_top" xlink:title="lug/Graphics/Vulkan\l/API/DescriptorSetLayout.hpp">
<polygon fill="none" stroke="#000000" points="284.0387,-179.5 284.0387,-209.5 449.0387,-209.5 449.0387,-179.5 284.0387,-179.5"/>
<text text-anchor="start" x="292.0387" y="-197.5" font-family="Helvetica,sans-Serif" font-size="10.00" fill="#000000">lug/Graphics/Vulkan</text>
<text text-anchor="middle" x="366.5387" y="-186.5" font-family="Helvetica,sans-Serif" font-size="10.00" fill="#000000">/API/DescriptorSetLayout.hpp</text>
</a>
</g>
</g>
<!-- Node4&#45;&gt;Node7 -->
<g id="edge9" class="edge">
<title>Node4&#45;&gt;Node7</title>
<path fill="none" stroke="#191970" d="M327.1114,-246.2967C333.5016,-237.9016 341.5752,-227.2952 348.7497,-217.8698"/>
<polygon fill="#191970" stroke="#191970" points="351.7399,-219.7201 355.0118,-209.6432 346.1699,-215.4803 351.7399,-219.7201"/>
</g>
<!-- Node8 -->
<g id="node9" class="node">
<title>Node8</title>
<g id="a_node9"><a xlink:href="Vulkan_8hpp.html" target="_top" xlink:title="lug/Graphics/Vulkan\l/Vulkan.hpp">
<polygon fill="none" stroke="#000000" points="494.5387,-112.5 494.5387,-142.5 612.5387,-142.5 612.5387,-112.5 494.5387,-112.5"/>
<text text-anchor="start" x="502.5387" y="-130.5" font-family="Helvetica,sans-Serif" font-size="10.00" fill="#000000">lug/Graphics/Vulkan</text>
<text text-anchor="middle" x="553.5387" y="-119.5" font-family="Helvetica,sans-Serif" font-size="10.00" fill="#000000">/Vulkan.hpp</text>
</a>
</g>
</g>
<!-- Node4&#45;&gt;Node8 -->
<g id="edge19" class="edge">
<title>Node4&#45;&gt;Node8</title>
<path fill="none" stroke="#191970" d="M371.9857,-246.4699C399.1989,-237.9236 431.6795,-225.7512 458.5387,-210 486.5677,-193.5628 514.0983,-168.3734 532.2464,-150.1524"/>
<polygon fill="#191970" stroke="#191970" points="534.9325,-152.4117 539.4238,-142.8159 529.9287,-147.5165 534.9325,-152.4117"/>
</g>
<!-- Node13 -->
<g id="node14" class="node">
<title>Node13</title>
<g id="a_node14"><a xlink:href="PipelineLayout_8inl.html" target="_top" xlink:title="lug/Graphics/Vulkan\l/API/PipelineLayout.inl">
<polygon fill="none" stroke="#000000" points="97.5387,-179.5 97.5387,-209.5 227.5387,-209.5 227.5387,-179.5 97.5387,-179.5"/>
<text text-anchor="start" x="105.5387" y="-197.5" font-family="Helvetica,sans-Serif" font-size="10.00" fill="#000000">lug/Graphics/Vulkan</text>
<text text-anchor="middle" x="162.5387" y="-186.5" font-family="Helvetica,sans-Serif" font-size="10.00" fill="#000000">/API/PipelineLayout.inl</text>
</a>
</g>
</g>
<!-- Node4&#45;&gt;Node13 -->
<g id="edge20" class="edge">
<title>Node4&#45;&gt;Node13</title>
<path fill="none" stroke="#191970" d="M281.2025,-246.4639C259.0353,-236.7567 229.9991,-224.0415 206.1979,-213.6188"/>
<polygon fill="#191970" stroke="#191970" points="207.5888,-210.407 197.0246,-209.6017 204.7809,-216.8191 207.5888,-210.407"/>
</g>
<!-- Node6 -->
<g id="node7" class="node">
<title>Node6</title>
<g id="a_node7"><a xlink:href="Config_8hpp.html" target="_top" xlink:title="lug/Config.hpp">
<polygon fill="none" stroke="#000000" points="639.0387,-.5 639.0387,-19.5 728.0387,-19.5 728.0387,-.5 639.0387,-.5"/>
<text text-anchor="middle" x="683.5387" y="-7.5" font-family="Helvetica,sans-Serif" font-size="10.00" fill="#000000">lug/Config.hpp</text>
</a>
</g>
</g>
<!-- Node5&#45;&gt;Node6 -->
<g id="edge8" class="edge">
<title>Node5&#45;&gt;Node6</title>
<path fill="none" stroke="#191970" d="M683.5387,-56.2455C683.5387,-48.9382 683.5387,-38.6944 683.5387,-29.7046"/>
<polygon fill="#191970" stroke="#191970" points="687.0388,-29.6426 683.5387,-19.6427 680.0388,-29.6427 687.0388,-29.6426"/>
</g>
<!-- Node7&#45;&gt;Node2 -->
<g id="edge10" class="edge">
<title>Node7&#45;&gt;Node2</title>
<path fill="none" stroke="#191970" d="M299.8861,-179.4639C241.2875,-166.2447 157.9617,-147.4473 109.2453,-136.4574"/>
<polygon fill="#191970" stroke="#191970" points="109.9215,-133.022 99.3964,-134.2356 108.381,-139.8505 109.9215,-133.022"/>
</g>
<!-- Node7&#45;&gt;Node5 -->
<g id="edge11" class="edge">
<title>Node7&#45;&gt;Node5</title>
<path fill="none" stroke="#191970" d="M383.7994,-179.3413C405.8788,-160.7407 446.009,-129.522 485.5387,-112 522.844,-95.4639 566.8437,-84.4813 603.8796,-77.4088"/>
<polygon fill="#191970" stroke="#191970" points="604.9314,-80.7739 614.1297,-75.5164 603.6604,-73.8902 604.9314,-80.7739"/>
</g>
<!-- Node7&#45;&gt;Node8 -->
<g id="edge12" class="edge">
<title>Node7&#45;&gt;Node8</title>
<path fill="none" stroke="#191970" d="M408.5051,-179.4639C436.0779,-169.5849 472.3459,-156.5905 501.7159,-146.0675"/>
<polygon fill="#191970" stroke="#191970" points="503.1557,-149.2696 511.3892,-142.6017 500.7947,-142.6798 503.1557,-149.2696"/>
</g>
<!-- Node12 -->
<g id="node13" class="node">
<title>Node12</title>
<g id="a_node13"><a xlink:href="DescriptorSetLayout_8inl.html" target="_top" xlink:title="lug/Graphics/Vulkan\l/API/DescriptorSetLayout.inl">
<polygon fill="none" stroke="#000000" points="242.0387,-112.5 242.0387,-142.5 401.0387,-142.5 401.0387,-112.5 242.0387,-112.5"/>
<text text-anchor="start" x="250.0387" y="-130.5" font-family="Helvetica,sans-Serif" font-size="10.00" fill="#000000">lug/Graphics/Vulkan</text>
<text text-anchor="middle" x="321.5387" y="-119.5" font-family="Helvetica,sans-Serif" font-size="10.00" fill="#000000">/API/DescriptorSetLayout.inl</text>
</a>
</g>
</g>
<!-- Node7&#45;&gt;Node12 -->
<g id="edge18" class="edge">
<title>Node7&#45;&gt;Node12</title>
<path fill="none" stroke="#191970" d="M356.3275,-179.2967C350.7466,-170.9873 343.7106,-160.5115 337.4289,-151.1587"/>
<polygon fill="#191970" stroke="#191970" points="340.1906,-148.9931 331.7095,-142.6432 334.3796,-152.896 340.1906,-148.9931"/>
</g>
<!-- Node8&#45;&gt;Node3 -->
<g id="edge14" class="edge">
<title>Node8&#45;&gt;Node3</title>
<path fill="none" stroke="#191970" d="M494.2214,-113.081C444.5383,-101.0039 375.3775,-84.192 334.5523,-74.2681"/>
<polygon fill="#191970" stroke="#191970" points="335.3564,-70.8617 324.8126,-71.9006 333.7029,-77.6637 335.3564,-70.8617"/>
</g>
<!-- Node8&#45;&gt;Node5 -->
<g id="edge16" class="edge">
<title>Node8&#45;&gt;Node5</title>
<path fill="none" stroke="#191970" d="M585.3403,-112.4554C606.3652,-102.509 633.7246,-89.5659 654.223,-79.8686"/>
<polygon fill="#191970" stroke="#191970" points="655.8505,-82.9706 663.3933,-75.5303 652.857,-76.6429 655.8505,-82.9706"/>
</g>
<!-- Node9 -->
<g id="node10" class="node">
<title>Node9</title>
<polygon fill="none" stroke="#bfbfbf" points="836.0387,-56.5 836.0387,-75.5 931.0387,-75.5 931.0387,-56.5 836.0387,-56.5"/>
<text text-anchor="middle" x="883.5387" y="-63.5" font-family="Helvetica,sans-Serif" font-size="10.00" fill="#000000">unordered_map</text>
</g>
<!-- Node8&#45;&gt;Node9 -->
<g id="edge13" class="edge">
<title>Node8&#45;&gt;Node9</title>
<path fill="none" stroke="#191970" d="M612.9172,-116.434C673.2605,-105.1882 766.1186,-87.8828 825.847,-76.7516"/>
<polygon fill="#191970" stroke="#191970" points="826.6783,-80.1571 835.8678,-74.8841 825.3958,-73.2755 826.6783,-80.1571"/>
</g>
<!-- Node10 -->
<g id="node11" class="node">
<title>Node10</title>
<polygon fill="none" stroke="#bfbfbf" points="422.5387,-56.5 422.5387,-75.5 480.5387,-75.5 480.5387,-56.5 422.5387,-56.5"/>
<text text-anchor="middle" x="451.5387" y="-63.5" font-family="Helvetica,sans-Serif" font-size="10.00" fill="#000000">ostream</text>
</g>
<!-- Node8&#45;&gt;Node10 -->
<g id="edge15" class="edge">
<title>Node8&#45;&gt;Node10</title>
<path fill="none" stroke="#191970" d="M528.5867,-112.4554C512.6127,-102.8241 491.9785,-90.3828 476.0844,-80.7996"/>
<polygon fill="#191970" stroke="#191970" points="477.7161,-77.6965 467.3451,-75.5303 474.1017,-83.6912 477.7161,-77.6965"/>
</g>
<!-- Node11 -->
<g id="node12" class="node">
<title>Node11</title>
<polygon fill="none" stroke="#bfbfbf" points="499.0387,-56.5 499.0387,-75.5 596.0387,-75.5 596.0387,-56.5 499.0387,-56.5"/>
<text text-anchor="middle" x="547.5387" y="-63.5" font-family="Helvetica,sans-Serif" font-size="10.00" fill="#000000">vulkan/vulkan.h</text>
</g>
<!-- Node8&#45;&gt;Node11 -->
<g id="edge17" class="edge">
<title>Node8&#45;&gt;Node11</title>
<path fill="none" stroke="#191970" d="M552.0555,-112.2977C551.2834,-104.3834 550.3294,-94.6043 549.4973,-86.0759"/>
<polygon fill="#191970" stroke="#191970" points="552.9539,-85.4598 548.4994,-75.8469 545.987,-86.1396 552.9539,-85.4598"/>
</g>
<!-- Node16&#45;&gt;Node5 -->
<g id="edge24" class="edge">
<title>Node16&#45;&gt;Node5</title>
<path fill="none" stroke="#191970" d="M805.5296,-313.4496C863.929,-289.0742 961.7632,-237.7237 924.5387,-179 887.312,-120.2728 810.5903,-91.5435 753.6609,-77.8369"/>
<polygon fill="#191970" stroke="#191970" points="754.1638,-74.3612 743.6334,-75.5272 752.5926,-81.1825 754.1638,-74.3612"/>
</g>
<!-- Node16&#45;&gt;Node8 -->
<g id="edge34" class="edge">
<title>Node16&#45;&gt;Node8</title>
<path fill="none" stroke="#191970" d="M740.5993,-313.3256C708.0772,-292.7202 650.6196,-253.4432 610.5387,-210 593.9048,-191.9708 578.3135,-168.7947 567.6564,-151.5997"/>
<polygon fill="#191970" stroke="#191970" points="570.4524,-149.4611 562.2681,-142.7329 564.4703,-153.0964 570.4524,-149.4611"/>
</g>
<!-- Node17 -->
<g id="node18" class="node">
<title>Node17</title>
<g id="a_node18"><a xlink:href="QueueFamily_8hpp.html" target="_top" xlink:title="lug/Graphics/Vulkan\l/API/QueueFamily.hpp">
<polygon fill="none" stroke="#000000" points="701.5387,-246.5 701.5387,-276.5 829.5387,-276.5 829.5387,-246.5 701.5387,-246.5"/>
<text text-anchor="start" x="709.5387" y="-264.5" font-family="Helvetica,sans-Serif" font-size="10.00" fill="#000000">lug/Graphics/Vulkan</text>
<text text-anchor="middle" x="765.5387" y="-253.5" font-family="Helvetica,sans-Serif" font-size="10.00" fill="#000000">/API/QueueFamily.hpp</text>
</a>
</g>
</g>
<!-- Node16&#45;&gt;Node17 -->
<g id="edge25" class="edge">
<title>Node16&#45;&gt;Node17</title>
<path fill="none" stroke="#191970" d="M765.5387,-313.2967C765.5387,-305.5013 765.5387,-295.7991 765.5387,-286.9064"/>
<polygon fill="#191970" stroke="#191970" points="769.0388,-286.6431 765.5387,-276.6432 762.0388,-286.6432 769.0388,-286.6431"/>
</g>
<!-- Node21 -->
<g id="node22" class="node">
<title>Node21</title>
<g id="a_node22"><a xlink:href="Device_8inl.html" target="_top" xlink:title="lug/Graphics/Vulkan\l/API/Device.inl">
<polygon fill="none" stroke="#000000" points="1009.5387,-246.5 1009.5387,-276.5 1127.5387,-276.5 1127.5387,-246.5 1009.5387,-246.5"/>
<text text-anchor="start" x="1017.5387" y="-264.5" font-family="Helvetica,sans-Serif" font-size="10.00" fill="#000000">lug/Graphics/Vulkan</text>
<text text-anchor="middle" x="1068.5387" y="-253.5" font-family="Helvetica,sans-Serif" font-size="10.00" fill="#000000">/API/Device.inl</text>
</a>
</g>
</g>
<!-- Node16&#45;&gt;Node21 -->
<g id="edge35" class="edge">
<title>Node16&#45;&gt;Node21</title>
<path fill="none" stroke="#191970" d="M824.6299,-315.2082C827.9819,-314.4597 831.3027,-313.7195 834.5387,-313 889.9593,-300.6767 952.7986,-286.855 999.3931,-276.6355"/>
<polygon fill="#191970" stroke="#191970" points="1000.3597,-280.0068 1009.378,-274.4461 998.8604,-273.1692 1000.3597,-280.0068"/>
</g>
<!-- Node17&#45;&gt;Node3 -->
<g id="edge27" class="edge">
<title>Node17&#45;&gt;Node3</title>
<path fill="none" stroke="#191970" d="M714.6616,-246.4697C684.1096,-236.9829 644.6726,-223.9199 610.5387,-210 518.511,-172.4708 500.0216,-153.1142 409.5387,-112 384.2413,-100.5052 355.242,-88.3136 333.5175,-79.3714"/>
<polygon fill="#191970" stroke="#191970" points="334.6677,-76.0603 324.0874,-75.5057 332.0126,-82.5372 334.6677,-76.0603"/>
</g>
<!-- Node17&#45;&gt;Node5 -->
<g id="edge28" class="edge">
<title>Node17&#45;&gt;Node5</title>
<path fill="none" stroke="#191970" d="M769.9596,-246.1977C777.2862,-217.5792 788.7836,-154.9709 763.5387,-112 754.8691,-97.243 739.5042,-86.7919 724.5415,-79.6226"/>
<polygon fill="#191970" stroke="#191970" points="725.9032,-76.398 715.3405,-75.5737 723.0837,-82.8051 725.9032,-76.398"/>
</g>
<!-- Node17&#45;&gt;Node9 -->
<g id="edge26" class="edge">
<title>Node17&#45;&gt;Node9</title>
<path fill="none" stroke="#191970" d="M829.9456,-248.6796C868.7851,-239.4946 912.9338,-225.9573 924.5387,-210 952.9416,-170.9447 918.5273,-112.737 897.5113,-83.7435"/>
<polygon fill="#191970" stroke="#191970" points="900.305,-81.635 891.5036,-75.737 894.7059,-85.8363 900.305,-81.635"/>
</g>
<!-- Node18 -->
<g id="node19" class="node">
<title>Node18</title>
<g id="a_node19"><a xlink:href="Vulkan_2API_2Queue_8hpp.html" target="_top" xlink:title="lug/Graphics/Vulkan\l/API/Queue.hpp">
<polygon fill="none" stroke="#000000" points="619.5387,-179.5 619.5387,-209.5 737.5387,-209.5 737.5387,-179.5 619.5387,-179.5"/>
<text text-anchor="start" x="627.5387" y="-197.5" font-family="Helvetica,sans-Serif" font-size="10.00" fill="#000000">lug/Graphics/Vulkan</text>
<text text-anchor="middle" x="678.5387" y="-186.5" font-family="Helvetica,sans-Serif" font-size="10.00" fill="#000000">/API/Queue.hpp</text>
</a>
</g>
</g>
<!-- Node17&#45;&gt;Node18 -->
<g id="edge29" class="edge">
<title>Node17&#45;&gt;Node18</title>
<path fill="none" stroke="#191970" d="M745.797,-246.2967C734.1174,-237.302 719.1414,-225.7687 706.287,-215.8694"/>
<polygon fill="#191970" stroke="#191970" points="708.2606,-212.9717 698.2022,-209.6432 703.9895,-218.5177 708.2606,-212.9717"/>
</g>
<!-- Node20 -->
<g id="node21" class="node">
<title>Node20</title>
<g id="a_node21"><a xlink:href="QueueFamily_8inl.html" target="_top" xlink:title="lug/Graphics/Vulkan\l/API/QueueFamily.inl">
<polygon fill="none" stroke="#000000" points="793.5387,-179.5 793.5387,-209.5 915.5387,-209.5 915.5387,-179.5 793.5387,-179.5"/>
<text text-anchor="start" x="801.5387" y="-197.5" font-family="Helvetica,sans-Serif" font-size="10.00" fill="#000000">lug/Graphics/Vulkan</text>
<text text-anchor="middle" x="854.5387" y="-186.5" font-family="Helvetica,sans-Serif" font-size="10.00" fill="#000000">/API/QueueFamily.inl</text>
</a>
</g>
</g>
<!-- Node17&#45;&gt;Node20 -->
<g id="edge33" class="edge">
<title>Node17&#45;&gt;Node20</title>
<path fill="none" stroke="#191970" d="M785.7342,-246.2967C797.6823,-237.302 813.0026,-225.7687 826.1525,-215.8694"/>
<polygon fill="#191970" stroke="#191970" points="828.5389,-218.4538 834.4231,-209.6432 824.3289,-212.8613 828.5389,-218.4538"/>
</g>
<!-- Node18&#45;&gt;Node5 -->
<g id="edge30" class="edge">
<title>Node18&#45;&gt;Node5</title>
<path fill="none" stroke="#191970" d="M679.1319,-179.2548C680.0377,-155.9744 681.7659,-111.5607 682.7678,-85.8117"/>
<polygon fill="#191970" stroke="#191970" points="686.2683,-85.8643 683.1599,-75.7358 679.2736,-85.5921 686.2683,-85.8643"/>
</g>
<!-- Node18&#45;&gt;Node8 -->
<g id="edge31" class="edge">
<title>Node18&#45;&gt;Node8</title>
<path fill="none" stroke="#191970" d="M650.4863,-179.4639C632.9184,-170.0475 610.07,-157.8008 590.9673,-147.5617"/>
<polygon fill="#191970" stroke="#191970" points="592.3972,-144.3571 581.93,-142.7177 589.0903,-150.5268 592.3972,-144.3571"/>
</g>
<!-- Node19 -->
<g id="node20" class="node">
<title>Node19</title>
<polygon fill="none" stroke="#bfbfbf" points="706.5387,-118 706.5387,-137 754.5387,-137 754.5387,-118 706.5387,-118"/>
<text text-anchor="middle" x="730.5387" y="-125" font-family="Helvetica,sans-Serif" font-size="10.00" fill="#000000">mutex</text>
</g>
<!-- Node18&#45;&gt;Node19 -->
<g id="edge32" class="edge">
<title>Node18&#45;&gt;Node19</title>
<path fill="none" stroke="#191970" d="M690.3383,-179.2967C698.2042,-169.1618 708.5714,-155.804 716.8075,-145.1921"/>
<polygon fill="#191970" stroke="#191970" points="719.7566,-147.1008 723.1229,-137.055 714.2267,-142.8089 719.7566,-147.1008"/>
</g>
</g>
</svg>
