<?xml version="1.0" encoding="UTF-8" standalone="no"?>
<!DOCTYPE svg PUBLIC "-//W3C//DTD SVG 1.1//EN"
 "http://www.w3.org/Graphics/SVG/1.1/DTD/svg11.dtd">
<!-- Generated by graphviz version 2.40.1 (20161225.0304)
 -->
<!-- Title: lug::Window::priv::WindowImpl Pages: 1 -->
<!--zoomable 679 -->
<svg id="main" version="1.1" xmlns="http://www.w3.org/2000/svg" xmlns:xlink="http://www.w3.org/1999/xlink" xml:space="preserve" onload="init(evt)">
<style type="text/css"><![CDATA[
.edge:hover path { stroke: red; }
.edge:hover polygon { stroke: red; fill: red; }
]]></style>
<script type="text/javascript"><![CDATA[
var edges = document.getElementsByTagName('g');
if (edges && edges.length) {
  for (var i=0;i<edges.length;i++) {
    if (edges[i].id.substr(0,4)=='edge') {
      edges[i].setAttribute('class','edge');
    }
  }
}
]]></script>
        <defs>
                <circle id="rim" cx="0" cy="0" r="7"/>
                <circle id="rim2" cx="0" cy="0" r="3.5"/>
                <g id="zoomPlus">
                        <use xlink:href="#rim" fill="#404040">
                                <set attributeName="fill" to="#808080" begin="zoomplus.mouseover" end="zoomplus.mouseout"/>
                        </use>
                        <path d="M-4,0h8M0,-4v8" fill="none" stroke="white" stroke-width="1.5" pointer-events="none"/>
                </g>
                <g id="zoomMin">
                        <use xlink:href="#rim" fill="#404040">
                                <set attributeName="fill" to="#808080" begin="zoomminus.mouseover" end="zoomminus.mouseout"/>
                        </use>
                        <path d="M-4,0h8" fill="none" stroke="white" stroke-width="1.5" pointer-events="none"/>
                </g>
                <g id="dirArrow">
                        <path fill="none" stroke="white" stroke-width="1.5" d="M0,-3.0v7 M-2.5,-0.5L0,-3.0L2.5,-0.5"/>
                </g>
               <g id="resetDef">
                       <use xlink:href="#rim2" fill="#404040">
                               <set attributeName="fill" to="#808080" begin="reset.mouseover" end="reset.mouseout"/>
                       </use>
               </g>
        </defs>

<script type="text/javascript">
var viewWidth = 667;
var viewHeight = 679;
var sectionId = 'dynsection-0';
</script>
<script xlink:href="svgpan.js"/>
<svg id="graph" class="graph">
<g id="viewport">
<title>lug::Window::priv::WindowImpl</title>
<!-- Node1 -->
<g id="node1" class="node">
<title>Node1</title>
<polygon fill="#bfbfbf" stroke="#000000" points="286,-315.8858 286,-345.8858 403,-345.8858 403,-315.8858 286,-315.8858"/>
<text text-anchor="start" x="294" y="-333.8858" font-family="Helvetica,sans-Serif" font-size="10.00" fill="#000000">lug::Window::priv::</text>
<text text-anchor="middle" x="344.5" y="-322.8858" font-family="Helvetica,sans-Serif" font-size="10.00" fill="#000000">WindowImpl</text>
</g>
<!-- Node1&#45;&gt;Node1 -->
<g id="edge17" class="edge">
<title>Node1&#45;&gt;Node1</title>
<path fill="none" stroke="#9a32cd" stroke-dasharray="5,2" d="M321.0452,-356.3437C323.9563,-361.0648 331.7745,-364.3858 344.5,-364.3858 365.3828,-364.3858 373.0507,-355.4424 367.5037,-346.0448"/>
<polygon fill="#9a32cd" stroke="#9a32cd" points="324.5553,-356.1884 321.4963,-346.0448 317.562,-355.882 324.5553,-356.1884"/>
<text text-anchor="middle" x="344.5" y="-367.3858" font-family="Helvetica,sans-Serif" font-size="10.00" fill="#000000"> fullscreenWindow</text>
</g>
<!-- Node9 -->
<g id="node9" class="node">
<title>Node9</title>
<g id="a_node9"><a xlink:href="classlug_1_1Window_1_1Window.html" target="_top" xlink:title="Class for window. ">
<polygon fill="none" stroke="#000000" points="531,-520.3858 531,-539.3858 659,-539.3858 659,-520.3858 531,-520.3858"/>
<text text-anchor="middle" x="595" y="-527.3858" font-family="Helvetica,sans-Serif" font-size="10.00" fill="#000000">lug::Window::Window</text>
</a>
</g>
</g>
<!-- Node1&#45;&gt;Node9 -->
<g id="edge11" class="edge">
<title>Node1&#45;&gt;Node9</title>
<path fill="none" stroke="#9a32cd" stroke-dasharray="5,2" d="M361.805,-354.4899C379.6528,-377.7824 409.1595,-413.4936 440,-438.8858 463.548,-458.2738 541.5253,-501.1204 577.0666,-520.2893"/>
<polygon fill="#9a32cd" stroke="#9a32cd" points="364.3771,-352.0882 355.557,-346.2183 358.7915,-356.3073 364.3771,-352.0882"/>
<text text-anchor="middle" x="476.5" y="-486.8858" font-family="Helvetica,sans-Serif" font-size="10.00" fill="#000000"> _impl</text>
</g>
<!-- Node2 -->
<g id="node2" class="node">
<title>Node2</title>
<polygon fill="none" stroke="#bfbfbf" points="34.5,-495.3858 34.5,-514.3858 100.5,-514.3858 100.5,-495.3858 34.5,-495.3858"/>
<text text-anchor="middle" x="67.5" y="-502.3858" font-family="Helvetica,sans-Serif" font-size="10.00" fill="#000000">HCURSOR</text>
</g>
<!-- Node2&#45;&gt;Node1 -->
<g id="edge1" class="edge">
<title>Node2&#45;&gt;Node1</title>
<path fill="none" stroke="#9a32cd" stroke-dasharray="5,2" d="M110.82,-502.7887C157.0873,-499.839 226.7635,-493.1393 249,-478.8858 299.4592,-446.5418 328.6331,-376.9697 339.5366,-346.1344"/>
<polygon fill="#9a32cd" stroke="#9a32cd" points="110.5261,-499.3 100.7548,-503.3953 110.9472,-506.2873 110.5261,-499.3"/>
<text text-anchor="middle" x="201" y="-501.8858" font-family="Helvetica,sans-Serif" font-size="10.00" fill="#000000"> _cursor</text>
</g>
<!-- Node3 -->
<g id="node3" class="node">
<title>Node3</title>
<polygon fill="none" stroke="#bfbfbf" points="36,-457.3858 36,-476.3858 99,-476.3858 99,-457.3858 36,-457.3858"/>
<text text-anchor="middle" x="67.5" y="-464.3858" font-family="Helvetica,sans-Serif" font-size="10.00" fill="#000000">Display *</text>
</g>
<!-- Node3&#45;&gt;Node1 -->
<g id="edge2" class="edge">
<title>Node3&#45;&gt;Node1</title>
<path fill="none" stroke="#9a32cd" stroke-dasharray="5,2" d="M109.4181,-468.315C147.9514,-467.8686 205.5193,-462.6341 249,-438.8858 289.6375,-416.6905 321.4143,-370.1733 335.9146,-346.078"/>
<polygon fill="#9a32cd" stroke="#9a32cd" points="109.0785,-464.8152 99.082,-468.3253 109.0856,-471.8152 109.0785,-464.8152"/>
<text text-anchor="middle" x="201" y="-467.8858" font-family="Helvetica,sans-Serif" font-size="10.00" fill="#000000"> _display</text>
</g>
<!-- Node4 -->
<g id="node4" class="node">
<title>Node4</title>
<polygon fill="none" stroke="#bfbfbf" points="7,-419.3858 7,-438.3858 128,-438.3858 128,-419.3858 7,-419.3858"/>
<text text-anchor="middle" x="67.5" y="-426.3858" font-family="Helvetica,sans-Serif" font-size="10.00" fill="#000000">static AInputQueue *</text>
</g>
<!-- Node4&#45;&gt;Node1 -->
<g id="edge3" class="edge">
<title>Node4&#45;&gt;Node1</title>
<path fill="none" stroke="#9a32cd" stroke-dasharray="5,2" d="M138.3166,-426.3978C172.7828,-423.1986 214.1871,-416.338 249,-401.8858 280.6745,-388.7365 311.4261,-362.7867 329.1335,-346.166"/>
<polygon fill="#9a32cd" stroke="#9a32cd" points="137.9955,-422.9124 128.3257,-427.242 138.5849,-429.8875 137.9955,-422.9124"/>
<text text-anchor="middle" x="201" y="-426.8858" font-family="Helvetica,sans-Serif" font-size="10.00" fill="#000000"> inputQueue</text>
</g>
<!-- Node5 -->
<g id="node5" class="node">
<title>Node5</title>
<polygon fill="none" stroke="#bfbfbf" points="6.5,-368.8858 6.5,-398.8858 128.5,-398.8858 128.5,-368.8858 6.5,-368.8858"/>
<text text-anchor="start" x="14.5" y="-386.8858" font-family="Helvetica,sans-Serif" font-size="10.00" fill="#000000">queue&lt; lug::Window</text>
<text text-anchor="middle" x="67.5" y="-375.8858" font-family="Helvetica,sans-Serif" font-size="10.00" fill="#000000">::Event &gt;</text>
</g>
<!-- Node5&#45;&gt;Node1 -->
<g id="edge4" class="edge">
<title>Node5&#45;&gt;Node1</title>
<path fill="none" stroke="#9a32cd" stroke-dasharray="5,2" d="M139.1247,-387.8147C172.9078,-387.9775 213.5017,-385.7127 249,-376.8858 274.7172,-370.491 301.7193,-356.7357 320.4238,-345.9238"/>
<polygon fill="#9a32cd" stroke="#9a32cd" points="138.9137,-384.312 128.8721,-387.6908 138.8291,-391.3115 138.9137,-384.312"/>
<text text-anchor="middle" x="201" y="-389.8858" font-family="Helvetica,sans-Serif" font-size="10.00" fill="#000000"> _events</text>
</g>
<!-- Node5&#45;&gt;Node1 -->
<g id="edge23" class="edge">
<title>Node5&#45;&gt;Node1</title>
<path fill="none" stroke="#9a32cd" stroke-dasharray="5,2" d="M138.592,-366.92C143.4611,-365.8616 148.2986,-364.8399 153,-363.8858 197.3039,-354.8949 247.6956,-346.2748 285.6633,-340.1007"/>
<polygon fill="#9a32cd" stroke="#9a32cd" points="137.5942,-363.556 128.5865,-369.1338 139.1065,-370.3907 137.5942,-363.556"/>
<text text-anchor="middle" x="201" y="-366.8858" font-family="Helvetica,sans-Serif" font-size="10.00" fill="#000000"> events</text>
</g>
<!-- Node6 -->
<g id="node6" class="node">
<title>Node6</title>
<polygon fill="none" stroke="#bfbfbf" points="39.5,-329.3858 39.5,-348.3858 95.5,-348.3858 95.5,-329.3858 39.5,-329.3858"/>
<text text-anchor="middle" x="67.5" y="-336.3858" font-family="Helvetica,sans-Serif" font-size="10.00" fill="#000000">wchar_t</text>
</g>
<!-- Node6&#45;&gt;Node1 -->
<g id="edge5" class="edge">
<title>Node6&#45;&gt;Node1</title>
<path fill="none" stroke="#9a32cd" stroke-dasharray="5,2" d="M105.8495,-335.1174C120.577,-333.8353 137.5545,-332.5574 153,-331.8858 197.5089,-329.9504 247.891,-329.7672 285.803,-330.032"/>
<polygon fill="#9a32cd" stroke="#9a32cd" points="105.2228,-331.6596 95.5773,-336.043 105.8511,-338.6313 105.2228,-331.6596"/>
<text text-anchor="middle" x="201" y="-334.8858" font-family="Helvetica,sans-Serif" font-size="10.00" fill="#000000"> className</text>
</g>
<!-- Node7 -->
<g id="node7" class="node">
<title>Node7</title>
<polygon fill="none" stroke="#bfbfbf" points="33,-291.3858 33,-310.3858 102,-310.3858 102,-291.3858 33,-291.3858"/>
<text text-anchor="middle" x="67.5" y="-298.3858" font-family="Helvetica,sans-Serif" font-size="10.00" fill="#000000">LONG_PTR</text>
</g>
<!-- Node7&#45;&gt;Node1 -->
<g id="edge6" class="edge">
<title>Node7&#45;&gt;Node1</title>
<path fill="none" stroke="#9a32cd" stroke-dasharray="5,2" d="M112.4377,-303.2363C149.2348,-305.4288 202.6021,-309.221 249,-314.8858 260.9312,-316.3425 273.6474,-318.2336 285.7793,-320.2028"/>
<polygon fill="#9a32cd" stroke="#9a32cd" points="112.2337,-299.7187 102.0477,-302.6335 111.8282,-306.7069 112.2337,-299.7187"/>
<text text-anchor="middle" x="201" y="-317.8858" font-family="Helvetica,sans-Serif" font-size="10.00" fill="#000000"> _callback</text>
</g>
<!-- Node8 -->
<g id="node8" class="node">
<title>Node8</title>
<polygon fill="none" stroke="#bfbfbf" points="43,-253.3858 43,-272.3858 92,-272.3858 92,-253.3858 43,-253.3858"/>
<text text-anchor="middle" x="67.5" y="-260.3858" font-family="Helvetica,sans-Serif" font-size="10.00" fill="#000000">HWND</text>
</g>
<!-- Node8&#45;&gt;Node1 -->
<g id="edge7" class="edge">
<title>Node8&#45;&gt;Node1</title>
<path fill="none" stroke="#9a32cd" stroke-dasharray="5,2" d="M102.5183,-265.7378C139.4708,-269.3356 199.146,-276.8273 249,-290.8858 271.318,-297.1793 295.3931,-307.287 313.7875,-315.7668"/>
<polygon fill="#9a32cd" stroke="#9a32cd" points="102.5523,-262.226 92.2708,-264.7837 101.9032,-269.1958 102.5523,-262.226"/>
<text text-anchor="middle" x="201" y="-293.8858" font-family="Helvetica,sans-Serif" font-size="10.00" fill="#000000"> _handle</text>
</g>
<!-- Node9&#45;&gt;Node1 -->
<g id="edge8" class="edge">
<title>Node9&#45;&gt;Node1</title>
<path fill="none" stroke="#9a32cd" stroke-dasharray="5,2" d="M585.2268,-511.3458C571.6896,-487.089 545.2199,-444.4393 513,-416.8858 475.1843,-384.547 423.1143,-360.3649 386.9053,-346.0112"/>
<polygon fill="#9a32cd" stroke="#9a32cd" points="582.2116,-513.1273 590.0669,-520.2368 588.3596,-509.7805 582.2116,-513.1273"/>
<text text-anchor="middle" x="476.5" y="-430.8858" font-family="Helvetica,sans-Serif" font-size="10.00" fill="#000000"> _window</text>
<text text-anchor="middle" x="476.5" y="-419.8858" font-family="Helvetica,sans-Serif" font-size="10.00" fill="#000000">_parent</text>
</g>
<!-- Node10 -->
<g id="node10" class="node">
<title>Node10</title>
<polygon fill="none" stroke="#bfbfbf" points="267,-640.8858 267,-670.8858 422,-670.8858 422,-640.8858 267,-640.8858"/>
<text text-anchor="start" x="275" y="-658.8858" font-family="Helvetica,sans-Serif" font-size="10.00" fill="#000000">unordered_map&lt; Keyboard</text>
<text text-anchor="middle" x="344.5" y="-647.8858" font-family="Helvetica,sans-Serif" font-size="10.00" fill="#000000">::Key, bool &gt;</text>
</g>
<!-- Node10&#45;&gt;Node9 -->
<g id="edge9" class="edge">
<title>Node10&#45;&gt;Node9</title>
<path fill="none" stroke="#9a32cd" stroke-dasharray="5,2" d="M432.1568,-645.6759C459.3268,-639.924 488.5328,-630.9342 513,-616.8858 547.7395,-596.9393 576.7051,-557.6198 588.8577,-539.4752"/>
<polygon fill="#9a32cd" stroke="#9a32cd" points="431.3734,-642.2632 422.2514,-647.652 432.7429,-649.1279 431.3734,-642.2632"/>
<text text-anchor="middle" x="476.5" y="-645.8858" font-family="Helvetica,sans-Serif" font-size="10.00" fill="#000000"> _keyState</text>
</g>
<!-- Node11 -->
<g id="node11" class="node">
<title>Node11</title>
<polygon fill="none" stroke="#bfbfbf" points="271.5,-602.3858 271.5,-621.3858 417.5,-621.3858 417.5,-602.3858 271.5,-602.3858"/>
<text text-anchor="middle" x="344.5" y="-609.3858" font-family="Helvetica,sans-Serif" font-size="10.00" fill="#000000">anonymous:_mouseCoord</text>
</g>
<!-- Node11&#45;&gt;Node9 -->
<g id="edge10" class="edge">
<title>Node11&#45;&gt;Node9</title>
<path fill="none" stroke="#9a32cd" stroke-dasharray="5,2" d="M427.6501,-604.3469C455.4405,-600.0644 486.156,-593.3631 513,-582.8858 540.4759,-572.1619 568.4837,-551.5311 583.6072,-539.4148"/>
<polygon fill="#9a32cd" stroke="#9a32cd" points="426.9472,-600.9122 417.5564,-605.8177 427.9566,-607.8391 426.9472,-600.9122"/>
<text text-anchor="middle" x="476.5" y="-604.8858" font-family="Helvetica,sans-Serif" font-size="10.00" fill="#000000"> _mouseCoord</text>
</g>
<!-- Node12 -->
<g id="node12" class="node">
<title>Node12</title>
<polygon fill="none" stroke="#bfbfbf" points="316,-564.3858 316,-583.3858 373,-583.3858 373,-564.3858 316,-564.3858"/>
<text text-anchor="middle" x="344.5" y="-571.3858" font-family="Helvetica,sans-Serif" font-size="10.00" fill="#000000">uint32_t</text>
</g>
<!-- Node12&#45;&gt;Node9 -->
<g id="edge12" class="edge">
<title>Node12&#45;&gt;Node9</title>
<path fill="none" stroke="#9a32cd" stroke-dasharray="5,2" d="M383.1686,-567.3492C417.3342,-561.5455 468.5024,-552.7847 513,-544.8858 522.8322,-543.1405 533.3213,-541.2463 543.3989,-539.4103"/>
<polygon fill="#9a32cd" stroke="#9a32cd" points="382.4111,-563.9276 373.1375,-569.0512 383.5821,-570.829 382.4111,-563.9276"/>
<text text-anchor="middle" x="476.5" y="-570.8858" font-family="Helvetica,sans-Serif" font-size="10.00" fill="#000000"> x</text>
<text text-anchor="middle" x="476.5" y="-559.8858" font-family="Helvetica,sans-Serif" font-size="10.00" fill="#000000">y</text>
</g>
<!-- Node13 -->
<g id="node13" class="node">
<title>Node13</title>
<polygon fill="none" stroke="#bfbfbf" points="275,-514.8858 275,-544.8858 414,-544.8858 414,-514.8858 275,-514.8858"/>
<text text-anchor="start" x="283" y="-532.8858" font-family="Helvetica,sans-Serif" font-size="10.00" fill="#000000">unordered_map&lt; Mouse</text>
<text text-anchor="middle" x="344.5" y="-521.8858" font-family="Helvetica,sans-Serif" font-size="10.00" fill="#000000">::Button, bool &gt;</text>
</g>
<!-- Node13&#45;&gt;Node9 -->
<g id="edge13" class="edge">
<title>Node13&#45;&gt;Node9</title>
<path fill="none" stroke="#9a32cd" stroke-dasharray="5,2" d="M424.2896,-529.8858C458.6583,-529.8858 498.3108,-529.8858 530.7442,-529.8858"/>
<polygon fill="#9a32cd" stroke="#9a32cd" points="424.2783,-526.3859 414.2782,-529.8858 424.2782,-533.3859 424.2783,-526.3859"/>
<text text-anchor="middle" x="476.5" y="-532.8858" font-family="Helvetica,sans-Serif" font-size="10.00" fill="#000000"> _mouseState</text>
</g>
<!-- Node14 -->
<g id="node14" class="node">
<title>Node14</title>
<g id="a_node14"><a xlink:href="structlug_1_1Window_1_1VideoMode.html" target="_top" xlink:title="The video mode we set for the window we wish to create. ">
<polygon fill="none" stroke="#000000" points="273,-476.3858 273,-495.3858 416,-495.3858 416,-476.3858 273,-476.3858"/>
<text text-anchor="middle" x="344.5" y="-483.3858" font-family="Helvetica,sans-Serif" font-size="10.00" fill="#000000">lug::Window::VideoMode</text>
</a>
</g>
</g>
<!-- Node14&#45;&gt;Node9 -->
<g id="edge14" class="edge">
<title>Node14&#45;&gt;Node9</title>
<path fill="none" stroke="#9a32cd" stroke-dasharray="5,2" d="M410.9524,-497.1574C441.9729,-502.4614 479.3893,-508.9195 513,-514.8858 522.8322,-516.6311 533.3213,-518.5253 543.3989,-520.3614"/>
<polygon fill="#9a32cd" stroke="#9a32cd" points="411.1389,-493.6386 400.6924,-495.4053 409.9605,-500.5388 411.1389,-493.6386"/>
<text text-anchor="middle" x="476.5" y="-517.8858" font-family="Helvetica,sans-Serif" font-size="10.00" fill="#000000"> _mode</text>
</g>
<!-- Node15 -->
<g id="node15" class="node">
<title>Node15</title>
<polygon fill="none" stroke="#bfbfbf" points="39,-615.3858 39,-634.3858 96,-634.3858 96,-615.3858 39,-615.3858"/>
<text text-anchor="middle" x="67.5" y="-622.3858" font-family="Helvetica,sans-Serif" font-size="10.00" fill="#000000">uint16_t</text>
</g>
<!-- Node15&#45;&gt;Node14 -->
<g id="edge15" class="edge">
<title>Node15&#45;&gt;Node14</title>
<path fill="none" stroke="#9a32cd" stroke-dasharray="5,2" d="M106.4621,-632.2351C147.4354,-637.5294 211.1116,-638.4645 249,-602.8858 280.9635,-572.8708 237.0845,-537.9425 267,-505.8858 270.9818,-501.619 275.7432,-498.2138 280.921,-495.5026"/>
<polygon fill="#9a32cd" stroke="#9a32cd" points="106.7067,-628.7343 96.3101,-630.7746 105.7098,-635.663 106.7067,-628.7343"/>
<text text-anchor="middle" x="201" y="-658.8858" font-family="Helvetica,sans-Serif" font-size="10.00" fill="#000000"> width</text>
<text text-anchor="middle" x="201" y="-647.8858" font-family="Helvetica,sans-Serif" font-size="10.00" fill="#000000">height</text>
<text text-anchor="middle" x="201" y="-636.8858" font-family="Helvetica,sans-Serif" font-size="10.00" fill="#000000">refreshRate</text>
</g>
<!-- Node16 -->
<g id="node16" class="node">
<title>Node16</title>
<polygon fill="none" stroke="#bfbfbf" points="42,-546.3858 42,-565.3858 93,-565.3858 93,-546.3858 42,-546.3858"/>
<text text-anchor="middle" x="67.5" y="-553.3858" font-family="Helvetica,sans-Serif" font-size="10.00" fill="#000000">uint8_t</text>
</g>
<!-- Node16&#45;&gt;Node1 -->
<g id="edge19" class="edge">
<title>Node16&#45;&gt;Node1</title>
<path fill="none" stroke="#9a32cd" stroke-dasharray="5,2" d="M103.334,-546.355C118.6082,-542.3731 136.6445,-537.7775 153,-533.8858 195.4893,-523.7756 215.781,-541.2417 249,-512.8858 265.6978,-498.6325 257.5404,-486.6972 267,-466.8858 288.6627,-421.5173 319.489,-370.6969 334.9217,-345.9972"/>
<polygon fill="#9a32cd" stroke="#9a32cd" points="102.0408,-543.0757 93.2554,-548.9974 103.8162,-549.8468 102.0408,-543.0757"/>
<text text-anchor="middle" x="201" y="-536.8858" font-family="Helvetica,sans-Serif" font-size="10.00" fill="#000000"> windowCount</text>
</g>
<!-- Node16&#45;&gt;Node14 -->
<g id="edge16" class="edge">
<title>Node16&#45;&gt;Node14</title>
<path fill="none" stroke="#9a32cd" stroke-dasharray="5,2" d="M103.2529,-564.3887C142.5964,-571.5818 205.9542,-576.5457 249,-546.8858 265.3875,-535.5943 251.841,-518.7798 267,-505.8858 272.0806,-501.5643 277.9806,-498.1603 284.2141,-495.4816"/>
<polygon fill="#9a32cd" stroke="#9a32cd" points="103.8004,-560.9294 93.3124,-562.4301 102.4471,-567.7973 103.8004,-560.9294"/>
<text text-anchor="middle" x="201" y="-593.8858" font-family="Helvetica,sans-Serif" font-size="10.00" fill="#000000"> greenBits</text>
<text text-anchor="middle" x="201" y="-582.8858" font-family="Helvetica,sans-Serif" font-size="10.00" fill="#000000">redBits</text>
<text text-anchor="middle" x="201" y="-571.8858" font-family="Helvetica,sans-Serif" font-size="10.00" fill="#000000">blueBits</text>
</g>
<!-- Node17 -->
<g id="node17" class="node">
<title>Node17</title>
<polygon fill="none" stroke="#bfbfbf" points="0,-215.3858 0,-234.3858 135,-234.3858 135,-215.3858 0,-215.3858"/>
<text text-anchor="middle" x="67.5" y="-222.3858" font-family="Helvetica,sans-Serif" font-size="10.00" fill="#000000">static ANativeWindow *</text>
</g>
<!-- Node17&#45;&gt;Node1 -->
<g id="edge18" class="edge">
<title>Node17&#45;&gt;Node1</title>
<path fill="none" stroke="#9a32cd" stroke-dasharray="5,2" d="M145.3597,-230.2659C178.3928,-234.6419 216.6536,-242.562 249,-256.8858 281.2199,-271.1536 312.2796,-298.5641 329.8259,-315.7228"/>
<polygon fill="#9a32cd" stroke="#9a32cd" points="145.6427,-226.7742 135.2883,-229.0184 144.7822,-233.7212 145.6427,-226.7742"/>
<text text-anchor="middle" x="201" y="-259.8858" font-family="Helvetica,sans-Serif" font-size="10.00" fill="#000000"> nativeWindow</text>
</g>
<!-- Node18 -->
<g id="node18" class="node">
<title>Node18</title>
<polygon fill="none" stroke="#bfbfbf" points="48.5,-177.3858 48.5,-196.3858 86.5,-196.3858 86.5,-177.3858 48.5,-177.3858"/>
<text text-anchor="middle" x="67.5" y="-184.3858" font-family="Helvetica,sans-Serif" font-size="10.00" fill="#000000">bool</text>
</g>
<!-- Node18&#45;&gt;Node1 -->
<g id="edge20" class="edge">
<title>Node18&#45;&gt;Node1</title>
<path fill="none" stroke="#9a32cd" stroke-dasharray="5,2" d="M97.0394,-183.1461C134.8233,-179.82 201.0939,-179.0042 249,-205.8858 294.49,-231.4117 325.261,-288.4301 337.9543,-315.7392"/>
<polygon fill="#9a32cd" stroke="#9a32cd" points="96.3287,-179.6998 86.728,-184.1803 97.0273,-186.6648 96.3287,-179.6998"/>
<text text-anchor="middle" x="201" y="-219.8858" font-family="Helvetica,sans-Serif" font-size="10.00" fill="#000000"> _keyRepeat</text>
<text text-anchor="middle" x="201" y="-208.8858" font-family="Helvetica,sans-Serif" font-size="10.00" fill="#000000">_fullscreen</text>
</g>
<!-- Node19 -->
<g id="node19" class="node">
<title>Node19</title>
<polygon fill="none" stroke="#bfbfbf" points=".5,-139.3858 .5,-158.3858 134.5,-158.3858 134.5,-139.3858 .5,-139.3858"/>
<text text-anchor="middle" x="67.5" y="-146.3858" font-family="Helvetica,sans-Serif" font-size="10.00" fill="#000000">static ANativeActivity *</text>
</g>
<!-- Node19&#45;&gt;Node1 -->
<g id="edge21" class="edge">
<title>Node19&#45;&gt;Node1</title>
<path fill="none" stroke="#9a32cd" stroke-dasharray="5,2" d="M144.8458,-141.3415C179.1632,-141.6444 218.5719,-147.3323 249,-166.8858 304.2975,-202.4208 331.4062,-282.169 340.6786,-315.6394"/>
<polygon fill="#9a32cd" stroke="#9a32cd" points="144.8245,-137.8415 134.8455,-141.4011 144.8662,-144.8414 144.8245,-137.8415"/>
<text text-anchor="middle" x="201" y="-169.8858" font-family="Helvetica,sans-Serif" font-size="10.00" fill="#000000"> activity</text>
</g>
<!-- Node20 -->
<g id="node20" class="node">
<title>Node20</title>
<polygon fill="none" stroke="#bfbfbf" points="30,-101.3858 30,-120.3858 105,-120.3858 105,-101.3858 30,-101.3858"/>
<text text-anchor="middle" x="67.5" y="-108.3858" font-family="Helvetica,sans-Serif" font-size="10.00" fill="#000000">HINSTANCE</text>
</g>
<!-- Node20&#45;&gt;Node1 -->
<g id="edge22" class="edge">
<title>Node20&#45;&gt;Node1</title>
<path fill="none" stroke="#9a32cd" stroke-dasharray="5,2" d="M115.3635,-102.4926C154.7397,-98.2826 210.1863,-98.8363 249,-125.8858 315.3567,-172.1303 336.7589,-276.6921 342.5879,-315.7724"/>
<polygon fill="#9a32cd" stroke="#9a32cd" points="114.7231,-99.0444 105.2156,-103.7198 115.5635,-105.9938 114.7231,-99.0444"/>
<text text-anchor="middle" x="201" y="-128.8858" font-family="Helvetica,sans-Serif" font-size="10.00" fill="#000000"> _hinstance</text>
</g>
<!-- Node21 -->
<g id="node21" class="node">
<title>Node21</title>
<polygon fill="none" stroke="#bfbfbf" points="42.5,-63.3858 42.5,-82.3858 92.5,-82.3858 92.5,-63.3858 42.5,-63.3858"/>
<text text-anchor="middle" x="67.5" y="-70.3858" font-family="Helvetica,sans-Serif" font-size="10.00" fill="#000000">HICON</text>
</g>
<!-- Node21&#45;&gt;Node1 -->
<g id="edge24" class="edge">
<title>Node21&#45;&gt;Node1</title>
<path fill="none" stroke="#9a32cd" stroke-dasharray="5,2" d="M102.5934,-64.9211C142.1491,-58.0832 206.4703,-53.6642 249,-84.8858 326.739,-141.9551 341.2033,-271.4979 343.8892,-315.7435"/>
<polygon fill="#9a32cd" stroke="#9a32cd" points="101.801,-61.5085 92.6156,-66.7884 103.0888,-68.389 101.801,-61.5085"/>
<text text-anchor="middle" x="201" y="-87.8858" font-family="Helvetica,sans-Serif" font-size="10.00" fill="#000000"> _icon</text>
</g>
<!-- Node22 -->
<g id="node22" class="node">
<title>Node22</title>
<polygon fill="none" stroke="#bfbfbf" points="46,-9.3858 46,-28.3858 89,-28.3858 89,-9.3858 46,-9.3858"/>
<text text-anchor="middle" x="67.5" y="-16.3858" font-family="Helvetica,sans-Serif" font-size="10.00" fill="#000000">Atom</text>
</g>
<!-- Node22&#45;&gt;Node1 -->
<g id="edge25" class="edge">
<title>Node22&#45;&gt;Node1</title>
<path fill="none" stroke="#9a32cd" stroke-dasharray="5,2" d="M98.9235,-9.4507C138.2114,.2751 205.5698,9.8624 249,-22.8858 297.9466,-59.7936 333.0381,-258.9571 342.1593,-315.7568"/>
<polygon fill="#9a32cd" stroke="#9a32cd" points="97.883,-6.1052 89.1005,-12.0313 99.6617,-12.8755 97.883,-6.1052"/>
<text text-anchor="middle" x="201" y="-47.8858" font-family="Helvetica,sans-Serif" font-size="10.00" fill="#000000"> _wmHints</text>
<text text-anchor="middle" x="201" y="-36.8858" font-family="Helvetica,sans-Serif" font-size="10.00" fill="#000000">_wmDeleteWindow</text>
<text text-anchor="middle" x="201" y="-25.8858" font-family="Helvetica,sans-Serif" font-size="10.00" fill="#000000">_wmProtocols</text>
</g>
</g>
</svg>
        <g id="navigator" transform="translate(0 0)" fill="#404254">
                <rect fill="#f2f5e9" fill-opacity="0.5" stroke="#606060" stroke-width=".5" x="0" y="0" width="60" height="60"/>
                <use id="zoomplus" xlink:href="#zoomPlus" x="17" y="9" onmousedown="handleZoom(evt,'in')"/>
                <use id="zoomminus" xlink:href="#zoomMin" x="42" y="9" onmousedown="handleZoom(evt,'out')"/>
                <use id="reset" xlink:href="#resetDef" x="30" y="36" onmousedown="handleReset()"/>
                <g id="arrowUp" xlink:href="#dirArrow" transform="translate(30 24)" onmousedown="handlePan(0,-1)">
                  <use xlink:href="#rim" fill="#404040">
                        <set attributeName="fill" to="#808080" begin="arrowUp.mouseover" end="arrowUp.mouseout"/>
                  </use>
                  <path fill="none" stroke="white" stroke-width="1.5" d="M0,-3.0v7 M-2.5,-0.5L0,-3.0L2.5,-0.5"/>
                </g>
                <g id="arrowRight" xlink:href="#dirArrow" transform="rotate(90) translate(36 -43)" onmousedown="handlePan(1,0)">
                  <use xlink:href="#rim" fill="#404040">
                        <set attributeName="fill" to="#808080" begin="arrowRight.mouseover" end="arrowRight.mouseout"/>
                  </use>
                  <path fill="none" stroke="white" stroke-width="1.5" d="M0,-3.0v7 M-2.5,-0.5L0,-3.0L2.5,-0.5"/>
                </g>
                <g id="arrowDown" xlink:href="#dirArrow" transform="rotate(180) translate(-30 -48)" onmousedown="handlePan(0,1)">
                  <use xlink:href="#rim" fill="#404040">
                        <set attributeName="fill" to="#808080" begin="arrowDown.mouseover" end="arrowDown.mouseout"/>
                  </use>
                  <path fill="none" stroke="white" stroke-width="1.5" d="M0,-3.0v7 M-2.5,-0.5L0,-3.0L2.5,-0.5"/>
                </g>
                <g id="arrowLeft" xlink:href="#dirArrow" transform="rotate(270) translate(-36 17)" onmousedown="handlePan(-1,0)">
                  <use xlink:href="#rim" fill="#404040">
                        <set attributeName="fill" to="#808080" begin="arrowLeft.mouseover" end="arrowLeft.mouseout"/>
                  </use>
                  <path fill="none" stroke="white" stroke-width="1.5" d="M0,-3.0v7 M-2.5,-0.5L0,-3.0L2.5,-0.5"/>
                </g>
        </g>
        <svg viewBox="0 0 15 15" width="100%" height="30px" preserveAspectRatio="xMaxYMin meet">
         <g id="arrow_out" transform="scale(0.3 0.3)">
          <a xlink:href="classlug_1_1Window_1_1priv_1_1WindowImpl__coll__graph_org.svg" target="_base">
           <rect id="button" ry="5" rx="5" y="6" x="6" height="38" width="38"
                fill="#f2f5e9" fill-opacity="0.5" stroke="#606060" stroke-width="1.0"/>
           <path id="arrow"
             d="M 11.500037,31.436501 C 11.940474,20.09759 22.043105,11.32322 32.158766,21.979434 L 37.068811,17.246167 C 37.068811,17.246167 37.088388,32 37.088388,32 L 22.160133,31.978069 C 22.160133,31.978069 26.997745,27.140456 26.997745,27.140456 C 18.528582,18.264221 13.291696,25.230495 11.500037,31.436501 z"
             style="fill:#404040;"/>
          </a>
         </g>
        </svg>
</svg>
