<?xml version="1.0" encoding="UTF-8" standalone="no"?>
<!DOCTYPE svg PUBLIC "-//W3C//DTD SVG 1.1//EN"
 "http://www.w3.org/Graphics/SVG/1.1/DTD/svg11.dtd">
<!-- Generated by graphviz version 2.40.1 (20161225.0304)
 -->
<!-- Title: lug::Graphics::Light::Directional Pages: 1 -->
<!--zoomable 578 -->
<svg id="main" version="1.1" xmlns="http://www.w3.org/2000/svg" xmlns:xlink="http://www.w3.org/1999/xlink" xml:space="preserve" onload="init(evt)">
<style type="text/css"><![CDATA[
.edge:hover path { stroke: red; }
.edge:hover polygon { stroke: red; fill: red; }
]]></style>
<script type="text/javascript"><![CDATA[
var edges = document.getElementsByTagName('g');
if (edges && edges.length) {
  for (var i=0;i<edges.length;i++) {
    if (edges[i].id.substr(0,4)=='edge') {
      edges[i].setAttribute('class','edge');
    }
  }
}
]]></script>
        <defs>
                <circle id="rim" cx="0" cy="0" r="7"/>
                <circle id="rim2" cx="0" cy="0" r="3.5"/>
                <g id="zoomPlus">
                        <use xlink:href="#rim" fill="#404040">
                                <set attributeName="fill" to="#808080" begin="zoomplus.mouseover" end="zoomplus.mouseout"/>
                        </use>
                        <path d="M-4,0h8M0,-4v8" fill="none" stroke="white" stroke-width="1.5" pointer-events="none"/>
                </g>
                <g id="zoomMin">
                        <use xlink:href="#rim" fill="#404040">
                                <set attributeName="fill" to="#808080" begin="zoomminus.mouseover" end="zoomminus.mouseout"/>
                        </use>
                        <path d="M-4,0h8" fill="none" stroke="white" stroke-width="1.5" pointer-events="none"/>
                </g>
                <g id="dirArrow">
                        <path fill="none" stroke="white" stroke-width="1.5" d="M0,-3.0v7 M-2.5,-0.5L0,-3.0L2.5,-0.5"/>
                </g>
               <g id="resetDef">
                       <use xlink:href="#rim2" fill="#404040">
                               <set attributeName="fill" to="#808080" begin="reset.mouseover" end="reset.mouseout"/>
                       </use>
               </g>
        </defs>

<script type="text/javascript">
var viewWidth = 1218;
var viewHeight = 578;
var sectionId = 'dynsection-1';
</script>
<script xlink:href="svgpan.js"/>
<svg id="graph" class="graph">
<g id="viewport">
<title>lug::Graphics::Light::Directional</title>
<!-- Node3 -->
<g id="node1" class="node">
<title>Node3</title>
<polygon fill="#bfbfbf" stroke="#000000" points="1093,-171 1093,-201 1210,-201 1210,-171 1093,-171"/>
<text text-anchor="start" x="1101" y="-189" font-family="Helvetica,sans-Serif" font-size="10.00" fill="#000000">lug::Graphics::Light</text>
<text text-anchor="middle" x="1151.5" y="-178" font-family="Helvetica,sans-Serif" font-size="10.00" fill="#000000">::Directional</text>
</g>
<!-- Node4 -->
<g id="node2" class="node">
<title>Node4</title>
<g id="a_node2"><a xlink:href="classlug_1_1Graphics_1_1Light_1_1Light.html" target="_top" xlink:title="Class for Light. ">
<polygon fill="none" stroke="#000000" points="939,-338 939,-368 1056,-368 1056,-338 939,-338"/>
<text text-anchor="start" x="947" y="-356" font-family="Helvetica,sans-Serif" font-size="10.00" fill="#000000">lug::Graphics::Light</text>
<text text-anchor="middle" x="997.5" y="-345" font-family="Helvetica,sans-Serif" font-size="10.00" fill="#000000">::Light</text>
</a>
</g>
</g>
<!-- Node4&#45;&gt;Node3 -->
<g id="edge1" class="edge">
<title>Node4&#45;&gt;Node3</title>
<path fill="none" stroke="#191970" d="M1018.5311,-330.1936C1050.3791,-295.657 1110.0106,-230.9918 1137.2591,-201.4431"/>
<polygon fill="#191970" stroke="#191970" points="1015.6443,-328.1612 1011.4381,-337.8853 1020.7903,-332.9066 1015.6443,-328.1612"/>
</g>
<!-- Node5 -->
<g id="node3" class="node">
<title>Node5</title>
<g id="a_node3"><a xlink:href="classlug_1_1Graphics_1_1Scene_1_1MovableObject.html" target="_top" xlink:title="lug::Graphics::Scene\l::MovableObject">
<polygon fill="none" stroke="#000000" points="779,-426 779,-456 902,-456 902,-426 779,-426"/>
<text text-anchor="start" x="787" y="-444" font-family="Helvetica,sans-Serif" font-size="10.00" fill="#000000">lug::Graphics::Scene</text>
<text text-anchor="middle" x="840.5" y="-433" font-family="Helvetica,sans-Serif" font-size="10.00" fill="#000000">::MovableObject</text>
</a>
</g>
</g>
<!-- Node5&#45;&gt;Node4 -->
<g id="edge2" class="edge">
<title>Node5&#45;&gt;Node4</title>
<path fill="none" stroke="#191970" d="M876.3841,-420.8866C905.0533,-404.8173 944.6043,-382.6485 970.6007,-368.0773"/>
<polygon fill="#191970" stroke="#191970" points="874.5011,-417.9297 867.4893,-425.8723 877.9238,-424.0359 874.5011,-417.9297"/>
</g>
<!-- Node6 -->
<g id="node4" class="node">
<title>Node6</title>
<polygon fill="none" stroke="#bfbfbf" points="607,-550.5 607,-569.5 648,-569.5 648,-550.5 607,-550.5"/>
<text text-anchor="middle" x="627.5" y="-557.5" font-family="Helvetica,sans-Serif" font-size="10.00" fill="#000000">Type</text>
</g>
<!-- Node6&#45;&gt;Node4 -->
<g id="edge18" class="edge">
<title>Node6&#45;&gt;Node4</title>
<path fill="none" stroke="#9a32cd" stroke-dasharray="5,2" d="M658.6264,-563.6657C686.1806,-565.8409 727.1581,-566.4325 761,-556 868.5547,-522.8438 957.46,-409.5547 987.0182,-368.2369"/>
<polygon fill="#9a32cd" stroke="#9a32cd" points="658.6868,-560.1569 648.4112,-562.7379 658.0536,-567.1282 658.6868,-560.1569"/>
<text text-anchor="middle" x="840.5" y="-551" font-family="Helvetica,sans-Serif" font-size="10.00" fill="#000000"> _type</text>
</g>
<!-- Node6&#45;&gt;Node5 -->
<g id="edge3" class="edge">
<title>Node6&#45;&gt;Node5</title>
<path fill="none" stroke="#9a32cd" stroke-dasharray="5,2" d="M658.3515,-555.847C686.6253,-551.0054 728.8508,-541.0979 761,-522 789.9682,-504.7917 815.7082,-474.4318 829.6076,-456.1681"/>
<polygon fill="#9a32cd" stroke="#9a32cd" points="657.57,-552.4274 648.2485,-557.4632 658.6758,-559.3395 657.57,-552.4274"/>
<text text-anchor="middle" x="734" y="-547" font-family="Helvetica,sans-Serif" font-size="10.00" fill="#000000"> _type</text>
</g>
<!-- Node7 -->
<g id="node5" class="node">
<title>Node7</title>
<polygon fill="none" stroke="#bfbfbf" points="55.5,-470.5 55.5,-489.5 93.5,-489.5 93.5,-470.5 55.5,-470.5"/>
<text text-anchor="middle" x="74.5" y="-477.5" font-family="Helvetica,sans-Serif" font-size="10.00" fill="#000000">bool</text>
</g>
<!-- Node7&#45;&gt;Node5 -->
<g id="edge4" class="edge">
<title>Node7&#45;&gt;Node5</title>
<path fill="none" stroke="#9a32cd" stroke-dasharray="5,2" d="M103.5665,-481.2776C140.2595,-482.704 205.3189,-484.6134 261,-483 483.5023,-476.5529 539.7499,-478.4387 761,-454 766.8384,-453.3551 772.9009,-452.5719 778.9568,-451.7131"/>
<polygon fill="#9a32cd" stroke="#9a32cd" points="103.6991,-477.7802 93.5658,-480.8732 103.4162,-484.7745 103.6991,-477.7802"/>
<text text-anchor="middle" x="503" y="-491" font-family="Helvetica,sans-Serif" font-size="10.00" fill="#000000"> _dirty</text>
<text text-anchor="middle" x="503" y="-480" font-family="Helvetica,sans-Serif" font-size="10.00" fill="#000000">_needUpdate</text>
</g>
<!-- Node10 -->
<g id="node8" class="node">
<title>Node10</title>
<g id="a_node8"><a xlink:href="classlug_1_1Graphics_1_1Node.html" target="_top" xlink:title="lug::Graphics::Node">
<polygon fill="none" stroke="#000000" points="300,-363.5 300,-382.5 419,-382.5 419,-363.5 300,-363.5"/>
<text text-anchor="middle" x="359.5" y="-370.5" font-family="Helvetica,sans-Serif" font-size="10.00" fill="#000000">lug::Graphics::Node</text>
</a>
</g>
</g>
<!-- Node7&#45;&gt;Node10 -->
<g id="edge11" class="edge">
<title>Node7&#45;&gt;Node10</title>
<path fill="none" stroke="#9a32cd" stroke-dasharray="5,2" d="M103.951,-473.7905C141.2947,-465.4316 207.2855,-449.0282 261,-427 292.0349,-414.2727 325.8311,-394.2712 344.6685,-382.5156"/>
<polygon fill="#9a32cd" stroke="#9a32cd" points="102.7844,-470.4633 93.7689,-476.0284 104.2871,-477.3001 102.7844,-470.4633"/>
<text text-anchor="middle" x="214" y="-471" font-family="Helvetica,sans-Serif" font-size="10.00" fill="#000000"> _dirty</text>
<text text-anchor="middle" x="214" y="-460" font-family="Helvetica,sans-Serif" font-size="10.00" fill="#000000">_needUpdate</text>
</g>
<!-- Node8 -->
<g id="node6" class="node">
<title>Node8</title>
<polygon fill="none" stroke="#bfbfbf" points="52,-424.5 52,-443.5 97,-443.5 97,-424.5 52,-424.5"/>
<text text-anchor="middle" x="74.5" y="-431.5" font-family="Helvetica,sans-Serif" font-size="10.00" fill="#000000">string</text>
</g>
<!-- Node8&#45;&gt;Node5 -->
<g id="edge5" class="edge">
<title>Node8&#45;&gt;Node5</title>
<path fill="none" stroke="#9a32cd" stroke-dasharray="5,2" d="M107.1273,-434.2982C224.1549,-435.3676 624.0542,-439.022 778.726,-440.4355"/>
<polygon fill="#9a32cd" stroke="#9a32cd" points="107.0417,-430.7973 97.0101,-434.2057 106.9776,-437.797 107.0417,-430.7973"/>
<text text-anchor="middle" x="503" y="-441" font-family="Helvetica,sans-Serif" font-size="10.00" fill="#000000"> _name</text>
</g>
<!-- Node8&#45;&gt;Node10 -->
<g id="edge12" class="edge">
<title>Node8&#45;&gt;Node10</title>
<path fill="none" stroke="#9a32cd" stroke-dasharray="5,2" d="M107.1987,-427.0013C158.332,-416.057 257.3179,-394.8706 314.9333,-382.5388"/>
<polygon fill="#9a32cd" stroke="#9a32cd" points="106.387,-423.5957 97.341,-429.1112 107.8521,-430.4407 106.387,-423.5957"/>
<text text-anchor="middle" x="214" y="-415" font-family="Helvetica,sans-Serif" font-size="10.00" fill="#000000"> _name</text>
</g>
<!-- Node9 -->
<g id="node7" class="node">
<title>Node9</title>
<g id="a_node7"><a xlink:href="classlug_1_1Graphics_1_1Scene_1_1Node.html" target="_top" xlink:title="lug::Graphics::Scene\l::Node">
<polygon fill="none" stroke="#000000" points="566,-333 566,-363 689,-363 689,-333 566,-333"/>
<text text-anchor="start" x="574" y="-351" font-family="Helvetica,sans-Serif" font-size="10.00" fill="#000000">lug::Graphics::Scene</text>
<text text-anchor="middle" x="627.5" y="-340" font-family="Helvetica,sans-Serif" font-size="10.00" fill="#000000">::Node</text>
</a>
</g>
</g>
<!-- Node9&#45;&gt;Node5 -->
<g id="edge6" class="edge">
<title>Node9&#45;&gt;Node5</title>
<path fill="none" stroke="#9a32cd" stroke-dasharray="5,2" d="M671.4049,-367.1697C711.2293,-384.5578 769.1554,-409.8496 805.8187,-425.8574"/>
<polygon fill="#9a32cd" stroke="#9a32cd" points="672.7612,-363.9429 662.1962,-363.149 669.9602,-370.3581 672.7612,-363.9429"/>
<text text-anchor="middle" x="734" y="-408" font-family="Helvetica,sans-Serif" font-size="10.00" fill="#000000"> _parent</text>
</g>
<!-- Node10&#45;&gt;Node9 -->
<g id="edge7" class="edge">
<title>Node10&#45;&gt;Node9</title>
<path fill="none" stroke="#191970" d="M429.5041,-366.4698C471.6775,-362.5357 524.9037,-357.5706 565.546,-353.7793"/>
<polygon fill="#191970" stroke="#191970" points="428.9425,-363.0069 419.3109,-367.4206 429.5927,-369.9766 428.9425,-363.0069"/>
</g>
<!-- Node10&#45;&gt;Node10 -->
<g id="edge13" class="edge">
<title>Node10&#45;&gt;Node10</title>
<path fill="none" stroke="#9a32cd" stroke-dasharray="5,2" d="M332.9941,-391.6539C334.1021,-396.9368 342.9374,-401 359.5,-401 384.7383,-401 392.0337,-391.5653 381.3863,-382.7571"/>
<polygon fill="#9a32cd" stroke="#9a32cd" points="336.1117,-393.2449 337.6137,-382.7571 329.8992,-390.0192 336.1117,-393.2449"/>
<text text-anchor="middle" x="359.5" y="-404" font-family="Helvetica,sans-Serif" font-size="10.00" fill="#000000"> _parent</text>
</g>
<!-- Node11 -->
<g id="node9" class="node">
<title>Node11</title>
<polygon fill="none" stroke="#bfbfbf" points="46.5,-375.5 46.5,-394.5 102.5,-394.5 102.5,-375.5 46.5,-375.5"/>
<text text-anchor="middle" x="74.5" y="-382.5" font-family="Helvetica,sans-Serif" font-size="10.00" fill="#000000">Mat4x4f</text>
</g>
<!-- Node11&#45;&gt;Node10 -->
<g id="edge8" class="edge">
<title>Node11&#45;&gt;Node10</title>
<path fill="none" stroke="#9a32cd" stroke-dasharray="5,2" d="M112.8835,-383.3839C160.9217,-381.3612 243.7115,-377.8753 299.9912,-375.5056"/>
<polygon fill="#9a32cd" stroke="#9a32cd" points="112.4508,-379.8989 102.6069,-383.8166 112.7453,-386.8927 112.4508,-379.8989"/>
<text text-anchor="middle" x="214" y="-383" font-family="Helvetica,sans-Serif" font-size="10.00" fill="#000000"> _transform</text>
</g>
<!-- Node12 -->
<g id="node10" class="node">
<title>Node12</title>
<polygon fill="none" stroke="#bfbfbf" points="15.5,-337.5 15.5,-356.5 133.5,-356.5 133.5,-337.5 15.5,-337.5"/>
<text text-anchor="middle" x="74.5" y="-344.5" font-family="Helvetica,sans-Serif" font-size="10.00" fill="#000000">Quaternion&lt; float &gt;</text>
</g>
<!-- Node12&#45;&gt;Node10 -->
<g id="edge9" class="edge">
<title>Node12&#45;&gt;Node10</title>
<path fill="none" stroke="#9a32cd" stroke-dasharray="5,2" d="M143.6914,-345.229C178.9271,-345.1508 222.3739,-346.3192 261,-351 272.4806,-352.3912 298.3099,-358.1969 320.6385,-363.4947"/>
<polygon fill="#9a32cd" stroke="#9a32cd" points="143.4894,-341.73 133.5094,-345.2865 143.529,-348.7299 143.4894,-341.73"/>
<text text-anchor="middle" x="214" y="-365" font-family="Helvetica,sans-Serif" font-size="10.00" fill="#000000"> _absoluteRotation</text>
<text text-anchor="middle" x="214" y="-354" font-family="Helvetica,sans-Serif" font-size="10.00" fill="#000000">_rotation</text>
</g>
<!-- Node13 -->
<g id="node11" class="node">
<title>Node13</title>
<polygon fill="none" stroke="#bfbfbf" points="16,-277.5 16,-318.5 133,-318.5 133,-277.5 16,-277.5"/>
<text text-anchor="start" x="24" y="-306.5" font-family="Helvetica,sans-Serif" font-size="10.00" fill="#000000">vector&lt; std::unique</text>
<text text-anchor="start" x="24" y="-295.5" font-family="Helvetica,sans-Serif" font-size="10.00" fill="#000000">_ptr&lt; lug::Graphics</text>
<text text-anchor="middle" x="74.5" y="-284.5" font-family="Helvetica,sans-Serif" font-size="10.00" fill="#000000">::Node &gt; &gt;</text>
</g>
<!-- Node13&#45;&gt;Node10 -->
<g id="edge10" class="edge">
<title>Node13&#45;&gt;Node10</title>
<path fill="none" stroke="#9a32cd" stroke-dasharray="5,2" d="M143.3007,-297.7245C180.5112,-300.424 225.8982,-308.5459 261,-330 272.3767,-336.9534 267.8438,-346.6982 279,-354 285.3679,-358.1679 292.5495,-361.4244 299.9349,-363.9682"/>
<polygon fill="#9a32cd" stroke="#9a32cd" points="143.2316,-294.214 133.0376,-297.1004 142.8066,-301.2011 143.2316,-294.214"/>
<text text-anchor="middle" x="214" y="-333" font-family="Helvetica,sans-Serif" font-size="10.00" fill="#000000"> _children</text>
</g>
<!-- Node14 -->
<g id="node12" class="node">
<title>Node14</title>
<polygon fill="none" stroke="#bfbfbf" points="52.5,-136.5 52.5,-155.5 96.5,-155.5 96.5,-136.5 52.5,-136.5"/>
<text text-anchor="middle" x="74.5" y="-143.5" font-family="Helvetica,sans-Serif" font-size="10.00" fill="#000000">Vec3f</text>
</g>
<!-- Node14&#45;&gt;Node3 -->
<g id="edge23" class="edge">
<title>Node14&#45;&gt;Node3</title>
<path fill="none" stroke="#9a32cd" stroke-dasharray="5,2" d="M106.8594,-149.3564C202.5665,-158.983 492.6662,-186 734,-186 734,-186 734,-186 997.5,-186 1029.0486,-186 1064.2327,-186 1092.9979,-186"/>
<polygon fill="#9a32cd" stroke="#9a32cd" points="106.9761,-145.8504 96.674,-148.3235 106.2698,-152.8147 106.9761,-145.8504"/>
<text text-anchor="middle" x="734" y="-189" font-family="Helvetica,sans-Serif" font-size="10.00" fill="#000000"> _direction</text>
</g>
<!-- Node14&#45;&gt;Node4 -->
<g id="edge19" class="edge">
<title>Node14&#45;&gt;Node4</title>
<path fill="none" stroke="#9a32cd" stroke-dasharray="5,2" d="M106.7224,-142.0735C159.4739,-135.9951 267.5972,-125 359.5,-125 359.5,-125 359.5,-125 840.5,-125 944.0697,-125 984.5238,-286.5658 994.7315,-337.6862"/>
<polygon fill="#9a32cd" stroke="#9a32cd" points="106.1568,-138.6158 96.6315,-143.2546 106.9706,-145.5683 106.1568,-138.6158"/>
<text text-anchor="middle" x="627.5" y="-150" font-family="Helvetica,sans-Serif" font-size="10.00" fill="#000000"> _specular</text>
<text text-anchor="middle" x="627.5" y="-139" font-family="Helvetica,sans-Serif" font-size="10.00" fill="#000000">_diffuse</text>
<text text-anchor="middle" x="627.5" y="-128" font-family="Helvetica,sans-Serif" font-size="10.00" fill="#000000">_ambient</text>
</g>
<!-- Node14&#45;&gt;Node10 -->
<g id="edge14" class="edge">
<title>Node14&#45;&gt;Node10</title>
<path fill="none" stroke="#9a32cd" stroke-dasharray="5,2" d="M106.5522,-158.2612C124.245,-164.8197 146.6886,-172.7985 167,-179 208.2387,-191.591 232.5774,-170.576 261,-203 305.5517,-253.8237 233.9878,-303.5837 279,-354 284.6425,-360.3199 291.9599,-364.7359 299.8806,-367.7899"/>
<polygon fill="#9a32cd" stroke="#9a32cd" points="107.3284,-154.8146 96.736,-154.5878 104.875,-161.3706 107.3284,-154.8146"/>
<text text-anchor="middle" x="214" y="-239" font-family="Helvetica,sans-Serif" font-size="10.00" fill="#000000"> _position</text>
<text text-anchor="middle" x="214" y="-228" font-family="Helvetica,sans-Serif" font-size="10.00" fill="#000000">_absolutePosition</text>
<text text-anchor="middle" x="214" y="-217" font-family="Helvetica,sans-Serif" font-size="10.00" fill="#000000">_scale</text>
<text text-anchor="middle" x="214" y="-206" font-family="Helvetica,sans-Serif" font-size="10.00" fill="#000000">_absoluteScale</text>
</g>
<!-- Node18 -->
<g id="node16" class="node">
<title>Node18</title>
<g id="a_node16"><a xlink:href="structlug_1_1Graphics_1_1Light_1_1Directional_1_1LightData.html" target="_top" xlink:title="lug::Graphics::Light\l::Directional::LightData">
<polygon fill="none" stroke="#000000" points="291.5,-51 291.5,-81 427.5,-81 427.5,-51 291.5,-51"/>
<text text-anchor="start" x="299.5" y="-69" font-family="Helvetica,sans-Serif" font-size="10.00" fill="#000000">lug::Graphics::Light</text>
<text text-anchor="middle" x="359.5" y="-58" font-family="Helvetica,sans-Serif" font-size="10.00" fill="#000000">::Directional::LightData</text>
</a>
</g>
</g>
<!-- Node14&#45;&gt;Node18 -->
<g id="edge22" class="edge">
<title>Node14&#45;&gt;Node18</title>
<path fill="none" stroke="#9a32cd" stroke-dasharray="5,2" d="M88.2068,-128.5379C104.564,-109.2553 133.8938,-79.311 167,-67 206.3127,-52.381 253.344,-51.8552 291.078,-55.1179"/>
<polygon fill="#9a32cd" stroke="#9a32cd" points="85.4689,-126.3569 81.8271,-136.3062 90.8785,-130.7995 85.4689,-126.3569"/>
<text text-anchor="middle" x="214" y="-103" font-family="Helvetica,sans-Serif" font-size="10.00" fill="#000000"> direction</text>
<text text-anchor="middle" x="214" y="-92" font-family="Helvetica,sans-Serif" font-size="10.00" fill="#000000">ambient</text>
<text text-anchor="middle" x="214" y="-81" font-family="Helvetica,sans-Serif" font-size="10.00" fill="#000000">diffuse</text>
<text text-anchor="middle" x="214" y="-70" font-family="Helvetica,sans-Serif" font-size="10.00" fill="#000000">specular</text>
</g>
<!-- Node15 -->
<g id="node13" class="node">
<title>Node15</title>
<polygon fill="none" stroke="#bfbfbf" points="279,-303.5 279,-344.5 440,-344.5 440,-303.5 279,-303.5"/>
<text text-anchor="start" x="287" y="-332.5" font-family="Helvetica,sans-Serif" font-size="10.00" fill="#000000">vector&lt; std::unique</text>
<text text-anchor="start" x="287" y="-321.5" font-family="Helvetica,sans-Serif" font-size="10.00" fill="#000000">_ptr&lt; lug::Graphics</text>
<text text-anchor="middle" x="359.5" y="-310.5" font-family="Helvetica,sans-Serif" font-size="10.00" fill="#000000">::Scene::MovableObject &gt; &gt;</text>
</g>
<!-- Node15&#45;&gt;Node9 -->
<g id="edge15" class="edge">
<title>Node15&#45;&gt;Node9</title>
<path fill="none" stroke="#9a32cd" stroke-dasharray="5,2" d="M450.6621,-329.0207C481.5993,-331.0611 516.3397,-333.7218 548,-337 553.821,-337.6027 559.8718,-338.3037 565.9204,-339.0546"/>
<polygon fill="#9a32cd" stroke="#9a32cd" points="450.5311,-325.505 440.3261,-328.3525 450.0795,-332.4904 450.5311,-325.505"/>
<text text-anchor="middle" x="503" y="-340" font-family="Helvetica,sans-Serif" font-size="10.00" fill="#000000"> _movableObjects</text>
</g>
<!-- Node16 -->
<g id="node14" class="node">
<title>Node16</title>
<g id="a_node14"><a xlink:href="classlug_1_1Graphics_1_1Scene_1_1Scene.html" target="_top" xlink:title="lug::Graphics::Scene\l::Scene">
<polygon fill="none" stroke="#000000" points="298,-253 298,-283 421,-283 421,-253 298,-253"/>
<text text-anchor="start" x="306" y="-271" font-family="Helvetica,sans-Serif" font-size="10.00" fill="#000000">lug::Graphics::Scene</text>
<text text-anchor="middle" x="359.5" y="-260" font-family="Helvetica,sans-Serif" font-size="10.00" fill="#000000">::Scene</text>
</a>
</g>
</g>
<!-- Node16&#45;&gt;Node9 -->
<g id="edge16" class="edge">
<title>Node16&#45;&gt;Node9</title>
<path fill="none" stroke="#9a32cd" stroke-dasharray="5,2" d="M431.1543,-282.5653C466.691,-290.5242 510.0256,-301.3422 548,-314 563.95,-319.3165 581.1605,-326.4889 595.4757,-332.8756"/>
<polygon fill="#9a32cd" stroke="#9a32cd" points="431.8686,-279.1387 421.3488,-280.3971 430.3572,-285.9736 431.8686,-279.1387"/>
<text text-anchor="middle" x="503" y="-317" font-family="Helvetica,sans-Serif" font-size="10.00" fill="#000000"> _scene</text>
</g>
<!-- Node17 -->
<g id="node15" class="node">
<title>Node17</title>
<polygon fill="none" stroke="#bfbfbf" points="0,-228 0,-258 149,-258 149,-228 0,-228"/>
<text text-anchor="start" x="8" y="-246" font-family="Helvetica,sans-Serif" font-size="10.00" fill="#000000">unique_ptr&lt; lug::Graphics</text>
<text text-anchor="middle" x="74.5" y="-235" font-family="Helvetica,sans-Serif" font-size="10.00" fill="#000000">::Scene::Node &gt;</text>
</g>
<!-- Node17&#45;&gt;Node16 -->
<g id="edge17" class="edge">
<title>Node17&#45;&gt;Node16</title>
<path fill="none" stroke="#9a32cd" stroke-dasharray="5,2" d="M159.2414,-250.4335C203.783,-254.3406 257.3872,-259.0427 297.9231,-262.5985"/>
<polygon fill="#9a32cd" stroke="#9a32cd" points="159.2758,-246.9231 149.0081,-249.5358 158.664,-253.8963 159.2758,-246.9231"/>
<text text-anchor="middle" x="214" y="-262" font-family="Helvetica,sans-Serif" font-size="10.00" fill="#000000"> _root</text>
</g>
<!-- Node18&#45;&gt;Node3 -->
<g id="edge20" class="edge">
<title>Node18&#45;&gt;Node3</title>
<path fill="none" stroke="#9a32cd" stroke-dasharray="5,2" d="M437.5941,-69.1153C491.0487,-70.9837 563.5513,-73 627.5,-73 627.5,-73 627.5,-73 997.5,-73 1062.8282,-73 1118.8077,-139.9162 1141.1408,-170.7603"/>
<polygon fill="#9a32cd" stroke="#9a32cd" points="437.6217,-65.6142 427.5036,-68.7565 437.3728,-72.6098 437.6217,-65.6142"/>
<text text-anchor="middle" x="840.5" y="-76" font-family="Helvetica,sans-Serif" font-size="10.00" fill="#000000"> _data</text>
</g>
<!-- Node19 -->
<g id="node17" class="node">
<title>Node19</title>
<polygon fill="none" stroke="#bfbfbf" points="55,-.5 55,-19.5 94,-19.5 94,-.5 55,-.5"/>
<text text-anchor="middle" x="74.5" y="-7.5" font-family="Helvetica,sans-Serif" font-size="10.00" fill="#000000">float</text>
</g>
<!-- Node19&#45;&gt;Node18 -->
<g id="edge21" class="edge">
<title>Node19&#45;&gt;Node18</title>
<path fill="none" stroke="#9a32cd" stroke-dasharray="5,2" d="M104.4496,-5.6411C141.7989,-1.2258 207.278,3.1364 261,-11 290.5482,-18.7753 320.6613,-37.498 339.6785,-50.9388"/>
<polygon fill="#9a32cd" stroke="#9a32cd" points="103.7309,-2.2041 94.2497,-6.9325 104.6102,-9.1486 103.7309,-2.2041"/>
<text text-anchor="middle" x="214" y="-36" font-family="Helvetica,sans-Serif" font-size="10.00" fill="#000000"> padding2</text>
<text text-anchor="middle" x="214" y="-25" font-family="Helvetica,sans-Serif" font-size="10.00" fill="#000000">padding3</text>
<text text-anchor="middle" x="214" y="-14" font-family="Helvetica,sans-Serif" font-size="10.00" fill="#000000">padding</text>
</g>
</g>
</svg>
        <g id="navigator" transform="translate(0 0)" fill="#404254">
                <rect fill="#f2f5e9" fill-opacity="0.5" stroke="#606060" stroke-width=".5" x="0" y="0" width="60" height="60"/>
                <use id="zoomplus" xlink:href="#zoomPlus" x="17" y="9" onmousedown="handleZoom(evt,'in')"/>
                <use id="zoomminus" xlink:href="#zoomMin" x="42" y="9" onmousedown="handleZoom(evt,'out')"/>
                <use id="reset" xlink:href="#resetDef" x="30" y="36" onmousedown="handleReset()"/>
                <g id="arrowUp" xlink:href="#dirArrow" transform="translate(30 24)" onmousedown="handlePan(0,-1)">
                  <use xlink:href="#rim" fill="#404040">
                        <set attributeName="fill" to="#808080" begin="arrowUp.mouseover" end="arrowUp.mouseout"/>
                  </use>
                  <path fill="none" stroke="white" stroke-width="1.5" d="M0,-3.0v7 M-2.5,-0.5L0,-3.0L2.5,-0.5"/>
                </g>
                <g id="arrowRight" xlink:href="#dirArrow" transform="rotate(90) translate(36 -43)" onmousedown="handlePan(1,0)">
                  <use xlink:href="#rim" fill="#404040">
                        <set attributeName="fill" to="#808080" begin="arrowRight.mouseover" end="arrowRight.mouseout"/>
                  </use>
                  <path fill="none" stroke="white" stroke-width="1.5" d="M0,-3.0v7 M-2.5,-0.5L0,-3.0L2.5,-0.5"/>
                </g>
                <g id="arrowDown" xlink:href="#dirArrow" transform="rotate(180) translate(-30 -48)" onmousedown="handlePan(0,1)">
                  <use xlink:href="#rim" fill="#404040">
                        <set attributeName="fill" to="#808080" begin="arrowDown.mouseover" end="arrowDown.mouseout"/>
                  </use>
                  <path fill="none" stroke="white" stroke-width="1.5" d="M0,-3.0v7 M-2.5,-0.5L0,-3.0L2.5,-0.5"/>
                </g>
                <g id="arrowLeft" xlink:href="#dirArrow" transform="rotate(270) translate(-36 17)" onmousedown="handlePan(-1,0)">
                  <use xlink:href="#rim" fill="#404040">
                        <set attributeName="fill" to="#808080" begin="arrowLeft.mouseover" end="arrowLeft.mouseout"/>
                  </use>
                  <path fill="none" stroke="white" stroke-width="1.5" d="M0,-3.0v7 M-2.5,-0.5L0,-3.0L2.5,-0.5"/>
                </g>
        </g>
        <svg viewBox="0 0 15 15" width="100%" height="30px" preserveAspectRatio="xMaxYMin meet">
         <g id="arrow_out" transform="scale(0.3 0.3)">
          <a xlink:href="classlug_1_1Graphics_1_1Light_1_1Directional__coll__graph_org.svg" target="_base">
           <rect id="button" ry="5" rx="5" y="6" x="6" height="38" width="38"
                fill="#f2f5e9" fill-opacity="0.5" stroke="#606060" stroke-width="1.0"/>
           <path id="arrow"
             d="M 11.500037,31.436501 C 11.940474,20.09759 22.043105,11.32322 32.158766,21.979434 L 37.068811,17.246167 C 37.068811,17.246167 37.088388,32 37.088388,32 L 22.160133,31.978069 C 22.160133,31.978069 26.997745,27.140456 26.997745,27.140456 C 18.528582,18.264221 13.291696,25.230495 11.500037,31.436501 z"
             style="fill:#404040;"/>
          </a>
         </g>
        </svg>
</svg>
