<?xml version="1.0" encoding="UTF-8" standalone="no"?>
<!DOCTYPE svg PUBLIC "-//W3C//DTD SVG 1.1//EN"
 "http://www.w3.org/Graphics/SVG/1.1/DTD/svg11.dtd">
<!-- Generated by graphviz version 2.40.1 (20161225.0304)
 -->
<!-- Title: lug::Graphics::Vulkan::API::Queue Pages: 1 -->
<!--zoomable 204 -->
<svg id="main" version="1.1" xmlns="http://www.w3.org/2000/svg" xmlns:xlink="http://www.w3.org/1999/xlink" xml:space="preserve" onload="init(evt)">
<style type="text/css"><![CDATA[
.edge:hover path { stroke: red; }
.edge:hover polygon { stroke: red; fill: red; }
]]></style>
<script type="text/javascript"><![CDATA[
var edges = document.getElementsByTagName('g');
if (edges && edges.length) {
  for (var i=0;i<edges.length;i++) {
    if (edges[i].id.substr(0,4)=='edge') {
      edges[i].setAttribute('class','edge');
    }
  }
}
]]></script>
        <defs>
                <circle id="rim" cx="0" cy="0" r="7"/>
                <circle id="rim2" cx="0" cy="0" r="3.5"/>
                <g id="zoomPlus">
                        <use xlink:href="#rim" fill="#404040">
                                <set attributeName="fill" to="#808080" begin="zoomplus.mouseover" end="zoomplus.mouseout"/>
                        </use>
                        <path d="M-4,0h8M0,-4v8" fill="none" stroke="white" stroke-width="1.5" pointer-events="none"/>
                </g>
                <g id="zoomMin">
                        <use xlink:href="#rim" fill="#404040">
                                <set attributeName="fill" to="#808080" begin="zoomminus.mouseover" end="zoomminus.mouseout"/>
                        </use>
                        <path d="M-4,0h8" fill="none" stroke="white" stroke-width="1.5" pointer-events="none"/>
                </g>
                <g id="dirArrow">
                        <path fill="none" stroke="white" stroke-width="1.5" d="M0,-3.0v7 M-2.5,-0.5L0,-3.0L2.5,-0.5"/>
                </g>
               <g id="resetDef">
                       <use xlink:href="#rim2" fill="#404040">
                               <set attributeName="fill" to="#808080" begin="reset.mouseover" end="reset.mouseout"/>
                       </use>
               </g>
        </defs>

<script type="text/javascript">
var viewWidth = 625;
var viewHeight = 204;
var sectionId = 'dynsection-0';
</script>
<script xlink:href="svgpan.js"/>
<svg id="graph" class="graph">
<g id="viewport">
<title>lug::Graphics::Vulkan::API::Queue</title>
<!-- Node1 -->
<g id="node1" class="node">
<title>Node1</title>
<polygon fill="#bfbfbf" stroke="#000000" points="490,-82.5 490,-112.5 617,-112.5 617,-82.5 490,-82.5"/>
<text text-anchor="start" x="498" y="-100.5" font-family="Helvetica,sans-Serif" font-size="10.00" fill="#000000">lug::Graphics::Vulkan</text>
<text text-anchor="middle" x="553.5" y="-89.5" font-family="Helvetica,sans-Serif" font-size="10.00" fill="#000000">::API::Queue</text>
</g>
<!-- Node2 -->
<g id="node2" class="node">
<title>Node2</title>
<polygon fill="none" stroke="#bfbfbf" points="293.5,-132 293.5,-151 341.5,-151 341.5,-132 293.5,-132"/>
<text text-anchor="middle" x="317.5" y="-139" font-family="Helvetica,sans-Serif" font-size="10.00" fill="#000000">mutex</text>
</g>
<!-- Node2&#45;&gt;Node1 -->
<g id="edge1" class="edge">
<title>Node2&#45;&gt;Node1</title>
<path fill="none" stroke="#9a32cd" stroke-dasharray="5,2" d="M351.8931,-135.0877C387.9784,-128.36 445.5145,-117.6329 489.9022,-109.3572"/>
<polygon fill="#9a32cd" stroke="#9a32cd" points="351.0563,-131.6833 341.8673,-136.957 352.3394,-138.5648 351.0563,-131.6833"/>
<text text-anchor="middle" x="435.5" y="-128.5" font-family="Helvetica,sans-Serif" font-size="10.00" fill="#000000"> _mutex</text>
</g>
<!-- Node3 -->
<g id="node3" class="node">
<title>Node3</title>
<g id="a_node3"><a xlink:href="classlug_1_1Graphics_1_1Vulkan_1_1API_1_1QueueFamily.html" target="_top" xlink:title="lug::Graphics::Vulkan\l::API::QueueFamily">
<polygon fill="none" stroke="#000000" points="254,-82.5 254,-112.5 381,-112.5 381,-82.5 254,-82.5"/>
<text text-anchor="start" x="262" y="-100.5" font-family="Helvetica,sans-Serif" font-size="10.00" fill="#000000">lug::Graphics::Vulkan</text>
<text text-anchor="middle" x="317.5" y="-89.5" font-family="Helvetica,sans-Serif" font-size="10.00" fill="#000000">::API::QueueFamily</text>
</a>
</g>
</g>
<!-- Node3&#45;&gt;Node1 -->
<g id="edge2" class="edge">
<title>Node3&#45;&gt;Node1</title>
<path fill="none" stroke="#9a32cd" stroke-dasharray="5,2" d="M391.1366,-97.5C422.7731,-97.5 459.389,-97.5 489.8324,-97.5"/>
<polygon fill="#9a32cd" stroke="#9a32cd" points="391.0542,-94.0001 381.0541,-97.5 391.0541,-101.0001 391.0542,-94.0001"/>
<text text-anchor="middle" x="435.5" y="-100.5" font-family="Helvetica,sans-Serif" font-size="10.00" fill="#000000"> _queueFamily</text>
</g>
<!-- Node4 -->
<g id="node4" class="node">
<title>Node4</title>
<polygon fill="none" stroke="#bfbfbf" points="40,-176 40,-195 97,-195 97,-176 40,-176"/>
<text text-anchor="middle" x="68.5" y="-183" font-family="Helvetica,sans-Serif" font-size="10.00" fill="#000000">uint32_t</text>
</g>
<!-- Node4&#45;&gt;Node3 -->
<g id="edge3" class="edge">
<title>Node4&#45;&gt;Node3</title>
<path fill="none" stroke="#9a32cd" stroke-dasharray="5,2" d="M107.1487,-180.9362C142.5846,-175.4479 195.5411,-163.8767 236,-140.5 245.7961,-134.8399 244.5379,-128.7024 254,-122.5 259.648,-118.7977 265.929,-115.5047 272.281,-112.6223"/>
<polygon fill="#9a32cd" stroke="#9a32cd" points="106.5854,-177.4812 97.1959,-182.3892 107.5966,-184.4078 106.5854,-177.4812"/>
<text text-anchor="middle" x="195.5" y="-173.5" font-family="Helvetica,sans-Serif" font-size="10.00" fill="#000000"> _idx</text>
</g>
<!-- Node5 -->
<g id="node5" class="node">
<title>Node5</title>
<polygon fill="none" stroke="#bfbfbf" points="7.5,-126.5 7.5,-156.5 129.5,-156.5 129.5,-126.5 7.5,-126.5"/>
<text text-anchor="start" x="15.5" y="-144.5" font-family="Helvetica,sans-Serif" font-size="10.00" fill="#000000">unordered_map&lt; std</text>
<text text-anchor="middle" x="68.5" y="-133.5" font-family="Helvetica,sans-Serif" font-size="10.00" fill="#000000">::string, uint32_t &gt;</text>
</g>
<!-- Node5&#45;&gt;Node3 -->
<g id="edge4" class="edge">
<title>Node5&#45;&gt;Node3</title>
<path fill="none" stroke="#9a32cd" stroke-dasharray="5,2" d="M139.673,-129.3485C169.4517,-124.2199 204.4164,-118.1404 236,-112.5 241.8068,-111.463 247.8441,-110.3734 253.889,-109.2747"/>
<polygon fill="#9a32cd" stroke="#9a32cd" points="139.0472,-125.9047 129.7853,-131.0493 140.2339,-132.8034 139.0472,-125.9047"/>
<text text-anchor="middle" x="195.5" y="-128.5" font-family="Helvetica,sans-Serif" font-size="10.00" fill="#000000"> _queuesIndices</text>
</g>
<!-- Node6 -->
<g id="node6" class="node">
<title>Node6</title>
<polygon fill="none" stroke="#bfbfbf" points="25.5,-88 25.5,-107 111.5,-107 111.5,-88 25.5,-88"/>
<text text-anchor="middle" x="68.5" y="-95" font-family="Helvetica,sans-Serif" font-size="10.00" fill="#000000">VkQueueFlags</text>
</g>
<!-- Node6&#45;&gt;Node3 -->
<g id="edge5" class="edge">
<title>Node6&#45;&gt;Node3</title>
<path fill="none" stroke="#9a32cd" stroke-dasharray="5,2" d="M121.6179,-97.5C160.3417,-97.5 212.9797,-97.5 253.9381,-97.5"/>
<polygon fill="#9a32cd" stroke="#9a32cd" points="121.5883,-94.0001 111.5882,-97.5 121.5882,-101.0001 121.5883,-94.0001"/>
<text text-anchor="middle" x="195.5" y="-100.5" font-family="Helvetica,sans-Serif" font-size="10.00" fill="#000000"> _flags</text>
</g>
<!-- Node7 -->
<g id="node7" class="node">
<title>Node7</title>
<polygon fill="none" stroke="#bfbfbf" points="49.5,-50 49.5,-69 87.5,-69 87.5,-50 49.5,-50"/>
<text text-anchor="middle" x="68.5" y="-57" font-family="Helvetica,sans-Serif" font-size="10.00" fill="#000000">bool</text>
</g>
<!-- Node7&#45;&gt;Node3 -->
<g id="edge6" class="edge">
<title>Node7&#45;&gt;Node3</title>
<path fill="none" stroke="#9a32cd" stroke-dasharray="5,2" d="M97.6488,-63.0935C131.1126,-67.3138 187.6203,-74.7304 236,-82.5 241.824,-83.4353 247.873,-84.4558 253.9255,-85.5101"/>
<polygon fill="#9a32cd" stroke="#9a32cd" points="97.9907,-59.609 87.6332,-61.8392 97.1208,-66.5548 97.9907,-59.609"/>
<text text-anchor="middle" x="195.5" y="-85.5" font-family="Helvetica,sans-Serif" font-size="10.00" fill="#000000"> _presentation</text>
</g>
<!-- Node8 -->
<g id="node8" class="node">
<title>Node8</title>
<polygon fill="none" stroke="#bfbfbf" points="0,-.5 0,-30.5 137,-30.5 137,-.5 0,-.5"/>
<text text-anchor="start" x="8" y="-18.5" font-family="Helvetica,sans-Serif" font-size="10.00" fill="#000000">vector&lt; lug::Graphics</text>
<text text-anchor="middle" x="68.5" y="-7.5" font-family="Helvetica,sans-Serif" font-size="10.00" fill="#000000">::Vulkan::API::Queue &gt;</text>
</g>
<!-- Node8&#45;&gt;Node3 -->
<g id="edge7" class="edge">
<title>Node8&#45;&gt;Node3</title>
<path fill="none" stroke="#9a32cd" stroke-dasharray="5,2" d="M147.1767,-25.5364C176.3048,-31.4614 208.8272,-40.8094 236,-55.5 245.6798,-60.7333 244.7118,-66.5995 254,-72.5 259.8003,-76.1848 266.2319,-79.4832 272.7109,-82.3811"/>
<polygon fill="#9a32cd" stroke="#9a32cd" points="147.5115,-22.0366 137.0297,-23.5803 146.1864,-28.91 147.5115,-22.0366"/>
<text text-anchor="middle" x="195.5" y="-58.5" font-family="Helvetica,sans-Serif" font-size="10.00" fill="#000000"> _queues</text>
</g>
<!-- Node9 -->
<g id="node9" class="node">
<title>Node9</title>
<polygon fill="none" stroke="#bfbfbf" points="287,-44 287,-63 348,-63 348,-44 287,-44"/>
<text text-anchor="middle" x="317.5" y="-51" font-family="Helvetica,sans-Serif" font-size="10.00" fill="#000000">VkQueue</text>
</g>
<!-- Node9&#45;&gt;Node1 -->
<g id="edge8" class="edge">
<title>Node9&#45;&gt;Node1</title>
<path fill="none" stroke="#9a32cd" stroke-dasharray="5,2" d="M358.54,-61.1515C394.7233,-67.8976 448.0298,-77.8361 489.7613,-85.6165"/>
<polygon fill="#9a32cd" stroke="#9a32cd" points="358.825,-57.6444 348.3529,-59.2522 357.542,-64.5258 358.825,-57.6444"/>
<text text-anchor="middle" x="435.5" y="-84.5" font-family="Helvetica,sans-Serif" font-size="10.00" fill="#000000"> _queue</text>
</g>
</g>
</svg>
        <g id="navigator" transform="translate(0 0)" fill="#404254">
                <rect fill="#f2f5e9" fill-opacity="0.5" stroke="#606060" stroke-width=".5" x="0" y="0" width="60" height="60"/>
                <use id="zoomplus" xlink:href="#zoomPlus" x="17" y="9" onmousedown="handleZoom(evt,'in')"/>
                <use id="zoomminus" xlink:href="#zoomMin" x="42" y="9" onmousedown="handleZoom(evt,'out')"/>
                <use id="reset" xlink:href="#resetDef" x="30" y="36" onmousedown="handleReset()"/>
                <g id="arrowUp" xlink:href="#dirArrow" transform="translate(30 24)" onmousedown="handlePan(0,-1)">
                  <use xlink:href="#rim" fill="#404040">
                        <set attributeName="fill" to="#808080" begin="arrowUp.mouseover" end="arrowUp.mouseout"/>
                  </use>
                  <path fill="none" stroke="white" stroke-width="1.5" d="M0,-3.0v7 M-2.5,-0.5L0,-3.0L2.5,-0.5"/>
                </g>
                <g id="arrowRight" xlink:href="#dirArrow" transform="rotate(90) translate(36 -43)" onmousedown="handlePan(1,0)">
                  <use xlink:href="#rim" fill="#404040">
                        <set attributeName="fill" to="#808080" begin="arrowRight.mouseover" end="arrowRight.mouseout"/>
                  </use>
                  <path fill="none" stroke="white" stroke-width="1.5" d="M0,-3.0v7 M-2.5,-0.5L0,-3.0L2.5,-0.5"/>
                </g>
                <g id="arrowDown" xlink:href="#dirArrow" transform="rotate(180) translate(-30 -48)" onmousedown="handlePan(0,1)">
                  <use xlink:href="#rim" fill="#404040">
                        <set attributeName="fill" to="#808080" begin="arrowDown.mouseover" end="arrowDown.mouseout"/>
                  </use>
                  <path fill="none" stroke="white" stroke-width="1.5" d="M0,-3.0v7 M-2.5,-0.5L0,-3.0L2.5,-0.5"/>
                </g>
                <g id="arrowLeft" xlink:href="#dirArrow" transform="rotate(270) translate(-36 17)" onmousedown="handlePan(-1,0)">
                  <use xlink:href="#rim" fill="#404040">
                        <set attributeName="fill" to="#808080" begin="arrowLeft.mouseover" end="arrowLeft.mouseout"/>
                  </use>
                  <path fill="none" stroke="white" stroke-width="1.5" d="M0,-3.0v7 M-2.5,-0.5L0,-3.0L2.5,-0.5"/>
                </g>
        </g>
        <svg viewBox="0 0 15 15" width="100%" height="30px" preserveAspectRatio="xMaxYMin meet">
         <g id="arrow_out" transform="scale(0.3 0.3)">
          <a xlink:href="classlug_1_1Graphics_1_1Vulkan_1_1API_1_1Queue__coll__graph_org.svg" target="_base">
           <rect id="button" ry="5" rx="5" y="6" x="6" height="38" width="38"
                fill="#f2f5e9" fill-opacity="0.5" stroke="#606060" stroke-width="1.0"/>
           <path id="arrow"
             d="M 11.500037,31.436501 C 11.940474,20.09759 22.043105,11.32322 32.158766,21.979434 L 37.068811,17.246167 C 37.068811,17.246167 37.088388,32 37.088388,32 L 22.160133,31.978069 C 22.160133,31.978069 26.997745,27.140456 26.997745,27.140456 C 18.528582,18.264221 13.291696,25.230495 11.500037,31.436501 z"
             style="fill:#404040;"/>
          </a>
         </g>
        </svg>
</svg>
