<?xml version="1.0" encoding="UTF-8" standalone="no"?>
<!DOCTYPE svg PUBLIC "-//W3C//DTD SVG 1.1//EN"
 "http://www.w3.org/Graphics/SVG/1.1/DTD/svg11.dtd">
<!-- Generated by graphviz version 2.40.1 (20161225.0304)
 -->
<!-- Title: lug::Graphics::Builder::SkyBox Pages: 1 -->
<!--zoomable 405 -->
<svg id="main" version="1.1" xmlns="http://www.w3.org/2000/svg" xmlns:xlink="http://www.w3.org/1999/xlink" xml:space="preserve" onload="init(evt)">
<style type="text/css"><![CDATA[
.edge:hover path { stroke: red; }
.edge:hover polygon { stroke: red; fill: red; }
]]></style>
<script type="text/javascript"><![CDATA[
var edges = document.getElementsByTagName('g');
if (edges && edges.length) {
  for (var i=0;i<edges.length;i++) {
    if (edges[i].id.substr(0,4)=='edge') {
      edges[i].setAttribute('class','edge');
    }
  }
}
]]></script>
        <defs>
                <circle id="rim" cx="0" cy="0" r="7"/>
                <circle id="rim2" cx="0" cy="0" r="3.5"/>
                <g id="zoomPlus">
                        <use xlink:href="#rim" fill="#404040">
                                <set attributeName="fill" to="#808080" begin="zoomplus.mouseover" end="zoomplus.mouseout"/>
                        </use>
                        <path d="M-4,0h8M0,-4v8" fill="none" stroke="white" stroke-width="1.5" pointer-events="none"/>
                </g>
                <g id="zoomMin">
                        <use xlink:href="#rim" fill="#404040">
                                <set attributeName="fill" to="#808080" begin="zoomminus.mouseover" end="zoomminus.mouseout"/>
                        </use>
                        <path d="M-4,0h8" fill="none" stroke="white" stroke-width="1.5" pointer-events="none"/>
                </g>
                <g id="dirArrow">
                        <path fill="none" stroke="white" stroke-width="1.5" d="M0,-3.0v7 M-2.5,-0.5L0,-3.0L2.5,-0.5"/>
                </g>
               <g id="resetDef">
                       <use xlink:href="#rim2" fill="#404040">
                               <set attributeName="fill" to="#808080" begin="reset.mouseover" end="reset.mouseout"/>
                       </use>
               </g>
        </defs>

<script type="text/javascript">
var viewWidth = 1454;
var viewHeight = 405;
var sectionId = 'dynsection-0';
</script>
<script xlink:href="svgpan.js"/>
<svg id="graph" class="graph">
<g id="viewport">
<title>lug::Graphics::Builder::SkyBox</title>
<!-- Node1 -->
<g id="node1" class="node">
<title>Node1</title>
<polygon fill="#bfbfbf" stroke="#000000" points="1318,-116 1318,-146 1446,-146 1446,-116 1318,-116"/>
<text text-anchor="start" x="1326" y="-134" font-family="Helvetica,sans-Serif" font-size="10.00" fill="#000000">lug::Graphics::Builder</text>
<text text-anchor="middle" x="1382" y="-123" font-family="Helvetica,sans-Serif" font-size="10.00" fill="#000000">::SkyBox</text>
</g>
<!-- Node2 -->
<g id="node2" class="node">
<title>Node2</title>
<polygon fill="none" stroke="#bfbfbf" points="17.5,-38.5 17.5,-57.5 62.5,-57.5 62.5,-38.5 17.5,-38.5"/>
<text text-anchor="middle" x="40" y="-45.5" font-family="Helvetica,sans-Serif" font-size="10.00" fill="#000000">string</text>
</g>
<!-- Node2&#45;&gt;Node1 -->
<g id="edge1" class="edge">
<title>Node2&#45;&gt;Node1</title>
<path fill="none" stroke="#9a32cd" stroke-dasharray="5,2" d="M72.2589,-37.044C116.918,-22.877 200.3574,0 273.5,0 273.5,0 273.5,0 1141.5,0 1237.5424,0 1331.7579,-81.5632 1367.2317,-115.9726"/>
<polygon fill="#9a32cd" stroke="#9a32cd" points="70.991,-33.7755 62.5519,-40.1811 73.1437,-40.4363 70.991,-33.7755"/>
<text text-anchor="middle" x="708.5" y="-25" font-family="Helvetica,sans-Serif" font-size="10.00" fill="#000000"> _backgroundFilename</text>
<text text-anchor="middle" x="708.5" y="-14" font-family="Helvetica,sans-Serif" font-size="10.00" fill="#000000">_environnementFilename</text>
<text text-anchor="middle" x="708.5" y="-3" font-family="Helvetica,sans-Serif" font-size="10.00" fill="#000000">_name</text>
</g>
<!-- Node7 -->
<g id="node7" class="node">
<title>Node7</title>
<g id="a_node7"><a xlink:href="structlug_1_1Graphics_1_1Renderer_1_1InitInfo.html" target="_top" xlink:title="lug::Graphics::Renderer\l::InitInfo">
<polygon fill="none" stroke="#000000" points="204,-264 204,-294 343,-294 343,-264 204,-264"/>
<text text-anchor="start" x="212" y="-282" font-family="Helvetica,sans-Serif" font-size="10.00" fill="#000000">lug::Graphics::Renderer</text>
<text text-anchor="middle" x="273.5" y="-271" font-family="Helvetica,sans-Serif" font-size="10.00" fill="#000000">::InitInfo</text>
</a>
</g>
</g>
<!-- Node2&#45;&gt;Node7 -->
<g id="edge8" class="edge">
<title>Node2&#45;&gt;Node7</title>
<path fill="none" stroke="#9a32cd" stroke-dasharray="5,2" d="M50.1918,-66.3619C72.8816,-105.6863 131.3344,-198.7836 204,-252 210.3705,-256.6654 217.6511,-260.6405 225.0464,-263.9893"/>
<polygon fill="#9a32cd" stroke="#9a32cd" points="53.1872,-64.5486 45.2069,-57.5797 47.0995,-68.0041 53.1872,-64.5486"/>
<text text-anchor="middle" x="142" y="-237" font-family="Helvetica,sans-Serif" font-size="10.00" fill="#000000"> shadersRoot</text>
</g>
<!-- Node9 -->
<g id="node9" class="node">
<title>Node9</title>
<g id="a_node9"><a xlink:href="classlug_1_1Graphics_1_1Graphics.html" target="_top" xlink:title="Class for graphics. ">
<polygon fill="none" stroke="#000000" points="796,-153.5 796,-172.5 933,-172.5 933,-153.5 796,-153.5"/>
<text text-anchor="middle" x="864.5" y="-160.5" font-family="Helvetica,sans-Serif" font-size="10.00" fill="#000000">lug::Graphics::Graphics</text>
</a>
</g>
</g>
<!-- Node2&#45;&gt;Node9 -->
<g id="edge17" class="edge">
<title>Node2&#45;&gt;Node9</title>
<path fill="none" stroke="#9a32cd" stroke-dasharray="5,2" d="M72.6497,-44.7067C177.6159,-35.298 514.5675,-14.3069 772,-102 805.1406,-113.2892 837.9119,-139.3579 854.0886,-153.4856"/>
<polygon fill="#9a32cd" stroke="#9a32cd" points="72.3034,-41.2237 62.6684,-45.6303 72.9484,-48.194 72.3034,-41.2237"/>
<text text-anchor="middle" x="410.5" y="-46" font-family="Helvetica,sans-Serif" font-size="10.00" fill="#000000"> _appName</text>
</g>
<!-- Node3 -->
<g id="node3" class="node">
<title>Node3</title>
<polygon fill="none" stroke="#bfbfbf" points="1120.5,-149.5 1120.5,-168.5 1162.5,-168.5 1162.5,-149.5 1120.5,-149.5"/>
<text text-anchor="middle" x="1141.5" y="-156.5" font-family="Helvetica,sans-Serif" font-size="10.00" fill="#000000">Filter</text>
</g>
<!-- Node3&#45;&gt;Node1 -->
<g id="edge2" class="edge">
<title>Node3&#45;&gt;Node1</title>
<path fill="none" stroke="#9a32cd" stroke-dasharray="5,2" d="M1172.9254,-155.3413C1209.5542,-151.0769 1271.0373,-143.9187 1317.875,-138.4657"/>
<polygon fill="#9a32cd" stroke="#9a32cd" points="1172.3709,-151.8822 1162.8428,-156.5152 1173.1805,-158.8352 1172.3709,-151.8822"/>
<text text-anchor="middle" x="1264.5" y="-173" font-family="Helvetica,sans-Serif" font-size="10.00" fill="#000000"> _magFilter</text>
<text text-anchor="middle" x="1264.5" y="-162" font-family="Helvetica,sans-Serif" font-size="10.00" fill="#000000">_mipMapFilter</text>
<text text-anchor="middle" x="1264.5" y="-151" font-family="Helvetica,sans-Serif" font-size="10.00" fill="#000000">_minFilter</text>
</g>
<!-- Node4 -->
<g id="node4" class="node">
<title>Node4</title>
<polygon fill="none" stroke="#bfbfbf" points="1096.5,-93.5 1096.5,-112.5 1186.5,-112.5 1186.5,-93.5 1096.5,-93.5"/>
<text text-anchor="middle" x="1141.5" y="-100.5" font-family="Helvetica,sans-Serif" font-size="10.00" fill="#000000">WrappingMode</text>
</g>
<!-- Node4&#45;&gt;Node1 -->
<g id="edge3" class="edge">
<title>Node4&#45;&gt;Node1</title>
<path fill="none" stroke="#9a32cd" stroke-dasharray="5,2" d="M1196.6358,-98.5851C1227.2781,-97.2337 1265.9776,-97.3514 1300,-103 1315.582,-105.587 1332.1766,-110.7623 1346.3319,-115.9674"/>
<polygon fill="#9a32cd" stroke="#9a32cd" points="1196.3819,-95.0934 1186.5714,-99.0939 1196.7354,-102.0845 1196.3819,-95.0934"/>
<text text-anchor="middle" x="1264.5" y="-128" font-family="Helvetica,sans-Serif" font-size="10.00" fill="#000000"> _wrapS</text>
<text text-anchor="middle" x="1264.5" y="-117" font-family="Helvetica,sans-Serif" font-size="10.00" fill="#000000">_wrapT</text>
<text text-anchor="middle" x="1264.5" y="-106" font-family="Helvetica,sans-Serif" font-size="10.00" fill="#000000">_wrapW</text>
</g>
<!-- Node5 -->
<g id="node5" class="node">
<title>Node5</title>
<g id="a_node5"><a xlink:href="classlug_1_1Graphics_1_1Renderer.html" target="_top" xlink:title="lug::Graphics::Renderer">
<polygon fill="none" stroke="#000000" points="1072,-249.5 1072,-268.5 1211,-268.5 1211,-249.5 1072,-249.5"/>
<text text-anchor="middle" x="1141.5" y="-256.5" font-family="Helvetica,sans-Serif" font-size="10.00" fill="#000000">lug::Graphics::Renderer</text>
</a>
</g>
</g>
<!-- Node5&#45;&gt;Node1 -->
<g id="edge4" class="edge">
<title>Node5&#45;&gt;Node1</title>
<path fill="none" stroke="#9a32cd" stroke-dasharray="5,2" d="M1174.0613,-245.4548C1206.5941,-231.5395 1257.716,-208.6284 1300,-185 1321.4274,-173.0263 1344.6942,-157.4371 1360.9514,-146.0884"/>
<polygon fill="#9a32cd" stroke="#9a32cd" points="1172.4288,-242.3455 1164.5921,-249.4754 1175.1646,-248.7887 1172.4288,-242.3455"/>
<text text-anchor="middle" x="1264.5" y="-222" font-family="Helvetica,sans-Serif" font-size="10.00" fill="#000000"> _renderer</text>
</g>
<!-- Node6 -->
<g id="node6" class="node">
<title>Node6</title>
<polygon fill="none" stroke="#bfbfbf" points="0,-363.5 0,-382.5 80,-382.5 80,-363.5 0,-363.5"/>
<text text-anchor="middle" x="40" y="-370.5" font-family="Helvetica,sans-Serif" font-size="10.00" fill="#000000">DisplayMode</text>
</g>
<!-- Node6&#45;&gt;Node5 -->
<g id="edge5" class="edge">
<title>Node6&#45;&gt;Node5</title>
<path fill="none" stroke="#9a32cd" stroke-dasharray="5,2" d="M90.0136,-377.3976C137.2636,-381.1695 210.1423,-386 273.5,-386 273.5,-386 273.5,-386 864.5,-386 977.1852,-386 1094.1156,-298.0809 1130.2177,-268.5456"/>
<polygon fill="#9a32cd" stroke="#9a32cd" points="90.2912,-373.9087 80.0405,-376.5867 89.7239,-380.8857 90.2912,-373.9087"/>
<text text-anchor="middle" x="552.5" y="-389" font-family="Helvetica,sans-Serif" font-size="10.00" fill="#000000"> _displayMode</text>
</g>
<!-- Node6&#45;&gt;Node7 -->
<g id="edge7" class="edge">
<title>Node6&#45;&gt;Node7</title>
<path fill="none" stroke="#9a32cd" stroke-dasharray="5,2" d="M73.1096,-359.6711C116.0913,-342.3679 190.9143,-312.2465 235.9619,-294.1117"/>
<polygon fill="#9a32cd" stroke="#9a32cd" points="71.6437,-356.4882 63.6742,-363.4695 74.2578,-362.9818 71.6437,-356.4882"/>
<text text-anchor="middle" x="142" y="-350" font-family="Helvetica,sans-Serif" font-size="10.00" fill="#000000"> displayMode</text>
</g>
<!-- Node7&#45;&gt;Node5 -->
<g id="edge6" class="edge">
<title>Node7&#45;&gt;Node5</title>
<path fill="none" stroke="#9a32cd" stroke-dasharray="5,2" d="M353.5581,-279.3333C494.9936,-279.5499 798.2992,-278.3452 1054,-266 1059.7843,-265.7207 1065.7793,-265.3701 1071.795,-264.9756"/>
<polygon fill="#9a32cd" stroke="#9a32cd" points="353.2537,-275.8328 343.2473,-279.3145 353.2408,-282.8328 353.2537,-275.8328"/>
<text text-anchor="middle" x="708.5" y="-280" font-family="Helvetica,sans-Serif" font-size="10.00" fill="#000000"> _initInfo</text>
</g>
<!-- Node12 -->
<g id="node12" class="node">
<title>Node12</title>
<g id="a_node12"><a xlink:href="structlug_1_1Graphics_1_1Graphics_1_1InitInfo.html" target="_top" xlink:title="Utility structure used to initialize the Graphics component. ">
<polygon fill="none" stroke="#000000" points="484,-184 484,-214 621,-214 621,-184 484,-184"/>
<text text-anchor="start" x="492" y="-202" font-family="Helvetica,sans-Serif" font-size="10.00" fill="#000000">lug::Graphics::Graphics</text>
<text text-anchor="middle" x="552.5" y="-191" font-family="Helvetica,sans-Serif" font-size="10.00" fill="#000000">::InitInfo</text>
</a>
</g>
</g>
<!-- Node7&#45;&gt;Node12 -->
<g id="edge14" class="edge">
<title>Node7&#45;&gt;Node12</title>
<path fill="none" stroke="#9a32cd" stroke-dasharray="5,2" d="M334.0842,-258.8563C337.2522,-256.7801 340.2548,-254.5008 343,-252 356.224,-239.9532 346.2142,-226.0688 361,-216 396.4506,-191.8589 444.5619,-187.67 483.6917,-189.4856"/>
<polygon fill="#9a32cd" stroke="#9a32cd" points="332.2819,-255.8554 325.3756,-263.8899 335.7849,-261.9158 332.2819,-255.8554"/>
<text text-anchor="middle" x="410.5" y="-219" font-family="Helvetica,sans-Serif" font-size="10.00" fill="#000000"> rendererInitInfo</text>
</g>
<!-- Node8 -->
<g id="node8" class="node">
<title>Node8</title>
<polygon fill="none" stroke="#bfbfbf" points="19.5,-269.5 19.5,-288.5 60.5,-288.5 60.5,-269.5 19.5,-269.5"/>
<text text-anchor="middle" x="40" y="-276.5" font-family="Helvetica,sans-Serif" font-size="10.00" fill="#000000">Type</text>
</g>
<!-- Node8&#45;&gt;Node5 -->
<g id="edge20" class="edge">
<title>Node8&#45;&gt;Node5</title>
<path fill="none" stroke="#9a32cd" stroke-dasharray="5,2" d="M70.1781,-289.2933C114.2874,-303.3968 199.2055,-327 273.5,-327 273.5,-327 273.5,-327 864.5,-327 961.308,-327 1071.8018,-287.3428 1118.6206,-268.5985"/>
<polygon fill="#9a32cd" stroke="#9a32cd" points="71.2299,-285.955 60.6376,-286.1861 69.0621,-292.6109 71.2299,-285.955"/>
<text text-anchor="middle" x="552.5" y="-330" font-family="Helvetica,sans-Serif" font-size="10.00" fill="#000000"> _type</text>
</g>
<!-- Node8&#45;&gt;Node7 -->
<g id="edge9" class="edge">
<title>Node8&#45;&gt;Node7</title>
<path fill="none" stroke="#9a32cd" stroke-dasharray="5,2" d="M70.8731,-279C104.5775,-279 159.6435,-279 203.8697,-279"/>
<polygon fill="#9a32cd" stroke="#9a32cd" points="70.7216,-275.5001 60.7216,-279 70.7215,-282.5001 70.7216,-275.5001"/>
<text text-anchor="middle" x="142" y="-282" font-family="Helvetica,sans-Serif" font-size="10.00" fill="#000000"> renderTechnique</text>
</g>
<!-- Node8&#45;&gt;Node12 -->
<g id="edge16" class="edge">
<title>Node8&#45;&gt;Node12</title>
<path fill="none" stroke="#9a32cd" stroke-dasharray="5,2" d="M44.9622,-259.7557C52.2043,-236.1283 68.1751,-197.0932 98,-180 161.809,-143.4298 373.3437,-170.1291 483.8767,-187.3928"/>
<polygon fill="#9a32cd" stroke="#9a32cd" points="41.5903,-258.8177 42.2306,-269.3932 48.325,-260.7266 41.5903,-258.8177"/>
<text text-anchor="middle" x="273.5" y="-171" font-family="Helvetica,sans-Serif" font-size="10.00" fill="#000000"> rendererType</text>
</g>
<!-- Node9&#45;&gt;Node5 -->
<g id="edge10" class="edge">
<title>Node9&#45;&gt;Node5</title>
<path fill="none" stroke="#9a32cd" stroke-dasharray="5,2" d="M901.6759,-175.8841C958.0914,-195.436 1064.0341,-232.1526 1114.039,-249.4828"/>
<polygon fill="#9a32cd" stroke="#9a32cd" points="902.6673,-172.5235 892.0725,-172.5558 900.375,-179.1375 902.6673,-172.5235"/>
<text text-anchor="middle" x="1005.5" y="-230" font-family="Helvetica,sans-Serif" font-size="10.00" fill="#000000"> _graphics</text>
</g>
<!-- Node10 -->
<g id="node10" class="node">
<title>Node10</title>
<g id="a_node10"><a xlink:href="structlug_1_1Core_1_1Version.html" target="_top" xlink:title="Stores the version of the Application. ">
<polygon fill="none" stroke="#000000" points="497.5,-233.5 497.5,-252.5 607.5,-252.5 607.5,-233.5 497.5,-233.5"/>
<text text-anchor="middle" x="552.5" y="-240.5" font-family="Helvetica,sans-Serif" font-size="10.00" fill="#000000">lug::Core::Version</text>
</a>
</g>
</g>
<!-- Node10&#45;&gt;Node9 -->
<g id="edge11" class="edge">
<title>Node10&#45;&gt;Node9</title>
<path fill="none" stroke="#9a32cd" stroke-dasharray="5,2" d="M617.8752,-234.5408C661.9863,-227.9232 721.1943,-217.2625 772,-202 798.0382,-194.1779 826.6911,-181.4068 845.1031,-172.6229"/>
<polygon fill="#9a32cd" stroke="#9a32cd" points="617.2377,-231.0968 607.853,-236.0138 618.2557,-238.0223 617.2377,-231.0968"/>
<text text-anchor="middle" x="708.5" y="-232" font-family="Helvetica,sans-Serif" font-size="10.00" fill="#000000"> _appVersion</text>
</g>
<!-- Node11 -->
<g id="node11" class="node">
<title>Node11</title>
<polygon fill="none" stroke="#bfbfbf" points="245,-223.5 245,-242.5 302,-242.5 302,-223.5 245,-223.5"/>
<text text-anchor="middle" x="273.5" y="-230.5" font-family="Helvetica,sans-Serif" font-size="10.00" fill="#000000">uint32_t</text>
</g>
<!-- Node11&#45;&gt;Node10 -->
<g id="edge12" class="edge">
<title>Node11&#45;&gt;Node10</title>
<path fill="none" stroke="#9a32cd" stroke-dasharray="5,2" d="M312.3379,-232.1735C350.0836,-231.6145 409.0131,-231.3884 460,-234 472.0853,-234.619 485.0287,-235.6478 497.2901,-236.7932"/>
<polygon fill="#9a32cd" stroke="#9a32cd" points="312.219,-228.6748 302.2776,-232.3379 312.3335,-235.6739 312.219,-228.6748"/>
<text text-anchor="middle" x="410.5" y="-259" font-family="Helvetica,sans-Serif" font-size="10.00" fill="#000000"> patch</text>
<text text-anchor="middle" x="410.5" y="-248" font-family="Helvetica,sans-Serif" font-size="10.00" fill="#000000">major</text>
<text text-anchor="middle" x="410.5" y="-237" font-family="Helvetica,sans-Serif" font-size="10.00" fill="#000000">minor</text>
</g>
<!-- Node12&#45;&gt;Node9 -->
<g id="edge13" class="edge">
<title>Node12&#45;&gt;Node9</title>
<path fill="none" stroke="#9a32cd" stroke-dasharray="5,2" d="M631.2926,-189.9085C681.992,-184.0586 747.2391,-176.5301 795.8199,-170.9246"/>
<polygon fill="#9a32cd" stroke="#9a32cd" points="630.8888,-186.4318 621.356,-191.0551 631.6913,-193.3857 630.8888,-186.4318"/>
<text text-anchor="middle" x="708.5" y="-190" font-family="Helvetica,sans-Serif" font-size="10.00" fill="#000000"> _initInfo</text>
</g>
<!-- Node13 -->
<g id="node13" class="node">
<title>Node13</title>
<polygon fill="none" stroke="#bfbfbf" points="211.5,-97.5 211.5,-116.5 335.5,-116.5 335.5,-97.5 211.5,-97.5"/>
<text text-anchor="middle" x="273.5" y="-104.5" font-family="Helvetica,sans-Serif" font-size="10.00" fill="#000000">set&lt; Module::Type &gt;</text>
</g>
<!-- Node13&#45;&gt;Node9 -->
<g id="edge19" class="edge">
<title>Node13&#45;&gt;Node9</title>
<path fill="none" stroke="#9a32cd" stroke-dasharray="5,2" d="M345.9306,-105.6789C385.041,-105.0307 434.1615,-104.3215 478,-104 544.2204,-103.5143 561.2679,-95.9576 627,-104 703.752,-113.3907 791.4124,-139.2495 835.6779,-153.4144"/>
<polygon fill="#9a32cd" stroke="#9a32cd" points="345.6362,-102.1832 335.6964,-105.8509 345.7538,-109.1823 345.6362,-102.1832"/>
<text text-anchor="middle" x="552.5" y="-118" font-family="Helvetica,sans-Serif" font-size="10.00" fill="#000000"> _loadedOptionalModules</text>
<text text-anchor="middle" x="552.5" y="-107" font-family="Helvetica,sans-Serif" font-size="10.00" fill="#000000">_loadedMandatoryModules</text>
</g>
<!-- Node13&#45;&gt;Node12 -->
<g id="edge15" class="edge">
<title>Node13&#45;&gt;Node12</title>
<path fill="none" stroke="#9a32cd" stroke-dasharray="5,2" d="M346.066,-108.4788C390.6043,-110.7838 442.3784,-116.4225 460,-130 477.0631,-143.1473 462.2532,-160.3018 478,-175 481.6754,-178.4307 485.8447,-181.3711 490.2883,-183.8911"/>
<polygon fill="#9a32cd" stroke="#9a32cd" points="345.9622,-104.9702 335.8095,-107.9986 345.6348,-111.9625 345.9622,-104.9702"/>
<text text-anchor="middle" x="410.5" y="-144" font-family="Helvetica,sans-Serif" font-size="10.00" fill="#000000"> mandatoryModules</text>
<text text-anchor="middle" x="410.5" y="-133" font-family="Helvetica,sans-Serif" font-size="10.00" fill="#000000">optionalModules</text>
</g>
<!-- Node14 -->
<g id="node14" class="node">
<title>Node14</title>
<polygon fill="none" stroke="#bfbfbf" points="478,-135 478,-165 627,-165 627,-135 478,-135"/>
<text text-anchor="start" x="486" y="-153" font-family="Helvetica,sans-Serif" font-size="10.00" fill="#000000">unique_ptr&lt; lug::Graphics</text>
<text text-anchor="middle" x="552.5" y="-142" font-family="Helvetica,sans-Serif" font-size="10.00" fill="#000000">::Renderer &gt;</text>
</g>
<!-- Node14&#45;&gt;Node9 -->
<g id="edge18" class="edge">
<title>Node14&#45;&gt;Node9</title>
<path fill="none" stroke="#9a32cd" stroke-dasharray="5,2" d="M637.3315,-153.434C678.0611,-155.0941 727.562,-157.1282 772,-159 779.7087,-159.3247 787.7786,-159.6683 795.8032,-160.0122"/>
<polygon fill="#9a32cd" stroke="#9a32cd" points="637.308,-149.9302 627.1739,-153.0203 637.0231,-156.9244 637.308,-149.9302"/>
<text text-anchor="middle" x="708.5" y="-162" font-family="Helvetica,sans-Serif" font-size="10.00" fill="#000000"> _renderer</text>
</g>
<!-- Node15 -->
<g id="node15" class="node">
<title>Node15</title>
<polygon fill="none" stroke="#bfbfbf" points="790,-222 790,-252 939,-252 939,-222 790,-222"/>
<text text-anchor="start" x="798" y="-240" font-family="Helvetica,sans-Serif" font-size="10.00" fill="#000000">unique_ptr&lt; lug::Graphics</text>
<text text-anchor="middle" x="864.5" y="-229" font-family="Helvetica,sans-Serif" font-size="10.00" fill="#000000">::ResourceManager &gt;</text>
</g>
<!-- Node15&#45;&gt;Node5 -->
<g id="edge21" class="edge">
<title>Node15&#45;&gt;Node5</title>
<path fill="none" stroke="#9a32cd" stroke-dasharray="5,2" d="M949.4137,-243.7441C988.5474,-246.8521 1034.4295,-250.4962 1071.5362,-253.4433"/>
<polygon fill="#9a32cd" stroke="#9a32cd" points="949.341,-240.2273 939.0953,-242.9245 948.7868,-247.2054 949.341,-240.2273"/>
<text text-anchor="middle" x="1005.5" y="-254" font-family="Helvetica,sans-Serif" font-size="10.00" fill="#000000"> _resourceManager</text>
</g>
</g>
</svg>
        <g id="navigator" transform="translate(0 0)" fill="#404254">
                <rect fill="#f2f5e9" fill-opacity="0.5" stroke="#606060" stroke-width=".5" x="0" y="0" width="60" height="60"/>
                <use id="zoomplus" xlink:href="#zoomPlus" x="17" y="9" onmousedown="handleZoom(evt,'in')"/>
                <use id="zoomminus" xlink:href="#zoomMin" x="42" y="9" onmousedown="handleZoom(evt,'out')"/>
                <use id="reset" xlink:href="#resetDef" x="30" y="36" onmousedown="handleReset()"/>
                <g id="arrowUp" xlink:href="#dirArrow" transform="translate(30 24)" onmousedown="handlePan(0,-1)">
                  <use xlink:href="#rim" fill="#404040">
                        <set attributeName="fill" to="#808080" begin="arrowUp.mouseover" end="arrowUp.mouseout"/>
                  </use>
                  <path fill="none" stroke="white" stroke-width="1.5" d="M0,-3.0v7 M-2.5,-0.5L0,-3.0L2.5,-0.5"/>
                </g>
                <g id="arrowRight" xlink:href="#dirArrow" transform="rotate(90) translate(36 -43)" onmousedown="handlePan(1,0)">
                  <use xlink:href="#rim" fill="#404040">
                        <set attributeName="fill" to="#808080" begin="arrowRight.mouseover" end="arrowRight.mouseout"/>
                  </use>
                  <path fill="none" stroke="white" stroke-width="1.5" d="M0,-3.0v7 M-2.5,-0.5L0,-3.0L2.5,-0.5"/>
                </g>
                <g id="arrowDown" xlink:href="#dirArrow" transform="rotate(180) translate(-30 -48)" onmousedown="handlePan(0,1)">
                  <use xlink:href="#rim" fill="#404040">
                        <set attributeName="fill" to="#808080" begin="arrowDown.mouseover" end="arrowDown.mouseout"/>
                  </use>
                  <path fill="none" stroke="white" stroke-width="1.5" d="M0,-3.0v7 M-2.5,-0.5L0,-3.0L2.5,-0.5"/>
                </g>
                <g id="arrowLeft" xlink:href="#dirArrow" transform="rotate(270) translate(-36 17)" onmousedown="handlePan(-1,0)">
                  <use xlink:href="#rim" fill="#404040">
                        <set attributeName="fill" to="#808080" begin="arrowLeft.mouseover" end="arrowLeft.mouseout"/>
                  </use>
                  <path fill="none" stroke="white" stroke-width="1.5" d="M0,-3.0v7 M-2.5,-0.5L0,-3.0L2.5,-0.5"/>
                </g>
        </g>
        <svg viewBox="0 0 15 15" width="100%" height="30px" preserveAspectRatio="xMaxYMin meet">
         <g id="arrow_out" transform="scale(0.3 0.3)">
          <a xlink:href="classlug_1_1Graphics_1_1Builder_1_1SkyBox__coll__graph_org.svg" target="_base">
           <rect id="button" ry="5" rx="5" y="6" x="6" height="38" width="38"
                fill="#f2f5e9" fill-opacity="0.5" stroke="#606060" stroke-width="1.0"/>
           <path id="arrow"
             d="M 11.500037,31.436501 C 11.940474,20.09759 22.043105,11.32322 32.158766,21.979434 L 37.068811,17.246167 C 37.068811,17.246167 37.088388,32 37.088388,32 L 22.160133,31.978069 C 22.160133,31.978069 26.997745,27.140456 26.997745,27.140456 C 18.528582,18.264221 13.291696,25.230495 11.500037,31.436501 z"
             style="fill:#404040;"/>
          </a>
         </g>
        </svg>
</svg>
