<?xml version="1.0" encoding="UTF-8" standalone="no"?>
<!DOCTYPE svg PUBLIC "-//W3C//DTD SVG 1.1//EN"
 "http://www.w3.org/Graphics/SVG/1.1/DTD/svg11.dtd">
<!-- Generated by graphviz version 2.40.1 (20161225.0304)
 -->
<!-- Title: lug::Graphics::Vulkan::API::Semaphore Pages: 1 -->
<!--zoomable 358 -->
<svg id="main" version="1.1" xmlns="http://www.w3.org/2000/svg" xmlns:xlink="http://www.w3.org/1999/xlink" xml:space="preserve" onload="init(evt)">
<style type="text/css"><![CDATA[
.edge:hover path { stroke: red; }
.edge:hover polygon { stroke: red; fill: red; }
]]></style>
<script type="text/javascript"><![CDATA[
var edges = document.getElementsByTagName('g');
if (edges && edges.length) {
  for (var i=0;i<edges.length;i++) {
    if (edges[i].id.substr(0,4)=='edge') {
      edges[i].setAttribute('class','edge');
    }
  }
}
]]></script>
        <defs>
                <circle id="rim" cx="0" cy="0" r="7"/>
                <circle id="rim2" cx="0" cy="0" r="3.5"/>
                <g id="zoomPlus">
                        <use xlink:href="#rim" fill="#404040">
                                <set attributeName="fill" to="#808080" begin="zoomplus.mouseover" end="zoomplus.mouseout"/>
                        </use>
                        <path d="M-4,0h8M0,-4v8" fill="none" stroke="white" stroke-width="1.5" pointer-events="none"/>
                </g>
                <g id="zoomMin">
                        <use xlink:href="#rim" fill="#404040">
                                <set attributeName="fill" to="#808080" begin="zoomminus.mouseover" end="zoomminus.mouseout"/>
                        </use>
                        <path d="M-4,0h8" fill="none" stroke="white" stroke-width="1.5" pointer-events="none"/>
                </g>
                <g id="dirArrow">
                        <path fill="none" stroke="white" stroke-width="1.5" d="M0,-3.0v7 M-2.5,-0.5L0,-3.0L2.5,-0.5"/>
                </g>
               <g id="resetDef">
                       <use xlink:href="#rim2" fill="#404040">
                               <set attributeName="fill" to="#808080" begin="reset.mouseover" end="reset.mouseout"/>
                       </use>
               </g>
        </defs>

<script type="text/javascript">
var viewWidth = 1295;
var viewHeight = 358;
var sectionId = 'dynsection-0';
</script>
<script xlink:href="svgpan.js"/>
<svg id="graph" class="graph">
<g id="viewport">
<title>lug::Graphics::Vulkan::API::Semaphore</title>
<!-- Node1 -->
<g id="node1" class="node">
<title>Node1</title>
<polygon fill="#bfbfbf" stroke="#000000" points="1160,-104.1838 1160,-134.1838 1287,-134.1838 1287,-104.1838 1160,-104.1838"/>
<text text-anchor="start" x="1168" y="-122.1838" font-family="Helvetica,sans-Serif" font-size="10.00" fill="#000000">lug::Graphics::Vulkan</text>
<text text-anchor="middle" x="1223.5" y="-111.1838" font-family="Helvetica,sans-Serif" font-size="10.00" fill="#000000">::API::Semaphore</text>
</g>
<!-- Node2 -->
<g id="node2" class="node">
<title>Node2</title>
<polygon fill="none" stroke="#bfbfbf" points="951.5,-131.6838 951.5,-150.6838 1037.5,-150.6838 1037.5,-131.6838 951.5,-131.6838"/>
<text text-anchor="middle" x="994.5" y="-138.6838" font-family="Helvetica,sans-Serif" font-size="10.00" fill="#000000">VkSemaphore</text>
</g>
<!-- Node2&#45;&gt;Node1 -->
<g id="edge1" class="edge">
<title>Node2&#45;&gt;Node1</title>
<path fill="none" stroke="#9a32cd" stroke-dasharray="5,2" d="M1047.625,-136.0801C1081.107,-132.8635 1124.5282,-128.692 1159.8486,-125.2988"/>
<polygon fill="#9a32cd" stroke="#9a32cd" points="1047.1926,-132.6054 1037.5731,-137.0458 1047.8621,-139.5734 1047.1926,-132.6054"/>
<text text-anchor="middle" x="1109" y="-135.1838" font-family="Helvetica,sans-Serif" font-size="10.00" fill="#000000"> _semaphore</text>
</g>
<!-- Node3 -->
<g id="node3" class="node">
<title>Node3</title>
<g id="a_node3"><a xlink:href="classlug_1_1Graphics_1_1Vulkan_1_1API_1_1Device.html" target="_top" xlink:title="lug::Graphics::Vulkan\l::API::Device">
<polygon fill="none" stroke="#000000" points="931,-82.1838 931,-112.1838 1058,-112.1838 1058,-82.1838 931,-82.1838"/>
<text text-anchor="start" x="939" y="-100.1838" font-family="Helvetica,sans-Serif" font-size="10.00" fill="#000000">lug::Graphics::Vulkan</text>
<text text-anchor="middle" x="994.5" y="-89.1838" font-family="Helvetica,sans-Serif" font-size="10.00" fill="#000000">::API::Device</text>
</a>
</g>
</g>
<!-- Node3&#45;&gt;Node1 -->
<g id="edge2" class="edge">
<title>Node3&#45;&gt;Node1</title>
<path fill="none" stroke="#9a32cd" stroke-dasharray="5,2" d="M1068.4979,-104.2928C1097.8838,-107.1159 1131.3555,-110.3315 1159.656,-113.0503"/>
<polygon fill="#9a32cd" stroke="#9a32cd" points="1068.5782,-100.7845 1058.2893,-103.312 1067.9087,-107.7524 1068.5782,-100.7845"/>
<text text-anchor="middle" x="1109" y="-113.1838" font-family="Helvetica,sans-Serif" font-size="10.00" fill="#000000"> _device</text>
</g>
<!-- Node4 -->
<g id="node4" class="node">
<title>Node4</title>
<g id="a_node4"><a xlink:href="structlug_1_1Graphics_1_1Vulkan_1_1PhysicalDeviceInfo.html" target="_top" xlink:title="lug::Graphics::Vulkan\l::PhysicalDeviceInfo">
<polygon fill="none" stroke="#000000" points="642.5,-131.1838 642.5,-161.1838 769.5,-161.1838 769.5,-131.1838 642.5,-131.1838"/>
<text text-anchor="start" x="650.5" y="-149.1838" font-family="Helvetica,sans-Serif" font-size="10.00" fill="#000000">lug::Graphics::Vulkan</text>
<text text-anchor="middle" x="706" y="-138.1838" font-family="Helvetica,sans-Serif" font-size="10.00" fill="#000000">::PhysicalDeviceInfo</text>
</a>
</g>
</g>
<!-- Node4&#45;&gt;Node3 -->
<g id="edge3" class="edge">
<title>Node4&#45;&gt;Node3</title>
<path fill="none" stroke="#9a32cd" stroke-dasharray="5,2" d="M780.0102,-134.3812C819.5121,-127.9924 868.937,-119.8567 913,-112.1838 918.8112,-111.1719 924.8515,-110.0993 930.8984,-109.0116"/>
<polygon fill="#9a32cd" stroke="#9a32cd" points="779.2445,-130.9594 769.9301,-136.0084 780.3601,-137.8699 779.2445,-130.9594"/>
<text text-anchor="middle" x="861" y="-132.1838" font-family="Helvetica,sans-Serif" font-size="10.00" fill="#000000"> _physicalDeviceInfo</text>
</g>
<!-- Node5 -->
<g id="node5" class="node">
<title>Node5</title>
<g id="a_node5"><a xlink:href="structlug_1_1Graphics_1_1Vulkan_1_1PhysicalDeviceInfo_1_1Swapchain.html" target="_top" xlink:title="lug::Graphics::Vulkan\l::PhysicalDeviceInfo\l::Swapchain">
<polygon fill="none" stroke="#000000" points="324.5,-281.6838 324.5,-322.6838 451.5,-322.6838 451.5,-281.6838 324.5,-281.6838"/>
<text text-anchor="start" x="332.5" y="-310.6838" font-family="Helvetica,sans-Serif" font-size="10.00" fill="#000000">lug::Graphics::Vulkan</text>
<text text-anchor="start" x="332.5" y="-299.6838" font-family="Helvetica,sans-Serif" font-size="10.00" fill="#000000">::PhysicalDeviceInfo</text>
<text text-anchor="middle" x="388" y="-288.6838" font-family="Helvetica,sans-Serif" font-size="10.00" fill="#000000">::Swapchain</text>
</a>
</g>
</g>
<!-- Node5&#45;&gt;Node4 -->
<g id="edge4" class="edge">
<title>Node5&#45;&gt;Node4</title>
<path fill="none" stroke="#9a32cd" stroke-dasharray="5,2" d="M461.6295,-290.6788C504.7948,-281.782 559.2582,-266.7196 603,-242.1838 641.1623,-220.7777 676.3144,-182.3716 694.0081,-161.2046"/>
<polygon fill="#9a32cd" stroke="#9a32cd" points="460.881,-287.259 451.7585,-292.6471 462.2499,-294.1239 460.881,-287.259"/>
<text text-anchor="middle" x="554.5" y="-282.1838" font-family="Helvetica,sans-Serif" font-size="10.00" fill="#000000"> swapchain</text>
</g>
<!-- Node6 -->
<g id="node6" class="node">
<title>Node6</title>
<polygon fill="none" stroke="#bfbfbf" points="16.5,-330.6838 16.5,-349.6838 162.5,-349.6838 162.5,-330.6838 16.5,-330.6838"/>
<text text-anchor="middle" x="89.5" y="-337.6838" font-family="Helvetica,sans-Serif" font-size="10.00" fill="#000000">VkSurfaceCapabilitiesKHR</text>
</g>
<!-- Node6&#45;&gt;Node5 -->
<g id="edge5" class="edge">
<title>Node6&#45;&gt;Node5</title>
<path fill="none" stroke="#9a32cd" stroke-dasharray="5,2" d="M172.5828,-329.6071C220.5932,-323.4952 280.0566,-315.9254 324.3375,-310.2882"/>
<polygon fill="#9a32cd" stroke="#9a32cd" points="171.9992,-326.1531 162.5213,-330.888 172.8833,-333.097 171.9992,-326.1531"/>
<text text-anchor="middle" x="233.5" y="-328.1838" font-family="Helvetica,sans-Serif" font-size="10.00" fill="#000000"> capabilities</text>
</g>
<!-- Node7 -->
<g id="node7" class="node">
<title>Node7</title>
<polygon fill="none" stroke="#bfbfbf" points="0,-292.6838 0,-311.6838 179,-311.6838 179,-292.6838 0,-292.6838"/>
<text text-anchor="middle" x="89.5" y="-299.6838" font-family="Helvetica,sans-Serif" font-size="10.00" fill="#000000">vector&lt; VkSurfaceFormatKHR &gt;</text>
</g>
<!-- Node7&#45;&gt;Node5 -->
<g id="edge6" class="edge">
<title>Node7&#45;&gt;Node5</title>
<path fill="none" stroke="#9a32cd" stroke-dasharray="5,2" d="M189.3241,-302.1838C233.799,-302.1838 284.8747,-302.1838 324.1016,-302.1838"/>
<polygon fill="#9a32cd" stroke="#9a32cd" points="189.0599,-298.6839 179.0598,-302.1838 189.0598,-305.6839 189.0599,-298.6839"/>
<text text-anchor="middle" x="233.5" y="-305.1838" font-family="Helvetica,sans-Serif" font-size="10.00" fill="#000000"> formats</text>
</g>
<!-- Node8 -->
<g id="node8" class="node">
<title>Node8</title>
<polygon fill="none" stroke="#bfbfbf" points="4.5,-254.6838 4.5,-273.6838 174.5,-273.6838 174.5,-254.6838 4.5,-254.6838"/>
<text text-anchor="middle" x="89.5" y="-261.6838" font-family="Helvetica,sans-Serif" font-size="10.00" fill="#000000">vector&lt; VkPresentModeKHR &gt;</text>
</g>
<!-- Node8&#45;&gt;Node5 -->
<g id="edge7" class="edge">
<title>Node8&#45;&gt;Node5</title>
<path fill="none" stroke="#9a32cd" stroke-dasharray="5,2" d="M174.4265,-274.9952C222.0428,-281.0569 280.4605,-288.4937 324.1567,-294.0564"/>
<polygon fill="#9a32cd" stroke="#9a32cd" points="174.8008,-271.5147 164.4389,-273.7238 173.9168,-278.4587 174.8008,-271.5147"/>
<text text-anchor="middle" x="233.5" y="-289.1838" font-family="Helvetica,sans-Serif" font-size="10.00" fill="#000000"> presentModes</text>
</g>
<!-- Node9 -->
<g id="node9" class="node">
<title>Node9</title>
<polygon fill="none" stroke="#bfbfbf" points="308.5,-232.1838 308.5,-262.1838 467.5,-262.1838 467.5,-232.1838 308.5,-232.1838"/>
<text text-anchor="start" x="316.5" y="-250.1838" font-family="Helvetica,sans-Serif" font-size="10.00" fill="#000000">unordered_map&lt; VkFormat,</text>
<text text-anchor="middle" x="388" y="-239.1838" font-family="Helvetica,sans-Serif" font-size="10.00" fill="#000000"> VkFormatProperties &gt;</text>
</g>
<!-- Node9&#45;&gt;Node4 -->
<g id="edge8" class="edge">
<title>Node9&#45;&gt;Node4</title>
<path fill="none" stroke="#9a32cd" stroke-dasharray="5,2" d="M477.7382,-234.4273C516.9352,-227.3278 562.9918,-216.8857 603,-202.1838 631.8484,-191.5828 662.5,-174.0044 682.7908,-161.368"/>
<polygon fill="#9a32cd" stroke="#9a32cd" points="476.9054,-231.0201 467.6664,-236.2059 478.1227,-237.9135 476.9054,-231.0201"/>
<text text-anchor="middle" x="554.5" y="-230.1838" font-family="Helvetica,sans-Serif" font-size="10.00" fill="#000000"> formatProperties</text>
</g>
<!-- Node10 -->
<g id="node10" class="node">
<title>Node10</title>
<polygon fill="none" stroke="#bfbfbf" points="315,-193.6838 315,-212.6838 461,-212.6838 461,-193.6838 315,-193.6838"/>
<text text-anchor="middle" x="388" y="-200.6838" font-family="Helvetica,sans-Serif" font-size="10.00" fill="#000000">VkPhysicalDeviceFeatures</text>
</g>
<!-- Node10&#45;&gt;Node4 -->
<g id="edge9" class="edge">
<title>Node10&#45;&gt;Node4</title>
<path fill="none" stroke="#9a32cd" stroke-dasharray="5,2" d="M471.4332,-193.2091C511.4044,-187.907 559.8563,-180.7154 603,-172.1838 618.65,-169.089 635.4836,-165.1172 650.9141,-161.2144"/>
<polygon fill="#9a32cd" stroke="#9a32cd" points="470.9225,-189.746 461.4622,-194.516 471.8322,-196.6866 470.9225,-189.746"/>
<text text-anchor="middle" x="554.5" y="-190.1838" font-family="Helvetica,sans-Serif" font-size="10.00" fill="#000000"> features</text>
</g>
<!-- Node11 -->
<g id="node11" class="node">
<title>Node11</title>
<polygon fill="none" stroke="#bfbfbf" points="288,-155.6838 288,-174.6838 488,-174.6838 488,-155.6838 288,-155.6838"/>
<text text-anchor="middle" x="388" y="-162.6838" font-family="Helvetica,sans-Serif" font-size="10.00" fill="#000000">vector&lt; VkQueueFamilyProperties &gt;</text>
</g>
<!-- Node11&#45;&gt;Node4 -->
<g id="edge10" class="edge">
<title>Node11&#45;&gt;Node4</title>
<path fill="none" stroke="#9a32cd" stroke-dasharray="5,2" d="M498.3415,-158.5911C546.4596,-155.7161 601.1572,-152.448 642.3325,-149.9878"/>
<polygon fill="#9a32cd" stroke="#9a32cd" points="497.9541,-155.1079 488.1807,-159.1982 498.3717,-162.0954 497.9541,-155.1079"/>
<text text-anchor="middle" x="554.5" y="-160.1838" font-family="Helvetica,sans-Serif" font-size="10.00" fill="#000000"> queueFamilies</text>
</g>
<!-- Node12 -->
<g id="node12" class="node">
<title>Node12</title>
<polygon fill="none" stroke="#bfbfbf" points="290.5,-117.6838 290.5,-136.6838 485.5,-136.6838 485.5,-117.6838 290.5,-117.6838"/>
<text text-anchor="middle" x="388" y="-124.6838" font-family="Helvetica,sans-Serif" font-size="10.00" fill="#000000">VkPhysicalDeviceMemoryProperties</text>
</g>
<!-- Node12&#45;&gt;Node4 -->
<g id="edge11" class="edge">
<title>Node12&#45;&gt;Node4</title>
<path fill="none" stroke="#9a32cd" stroke-dasharray="5,2" d="M495.751,-131.3357C530.0489,-132.8876 568.1331,-134.8506 603,-137.1838 615.7161,-138.0347 629.3015,-139.1059 642.2958,-140.2098"/>
<polygon fill="#9a32cd" stroke="#9a32cd" points="495.8574,-127.837 485.7115,-130.8881 495.5457,-134.8301 495.8574,-127.837"/>
<text text-anchor="middle" x="554.5" y="-140.1838" font-family="Helvetica,sans-Serif" font-size="10.00" fill="#000000"> memoryProperties</text>
</g>
<!-- Node13 -->
<g id="node13" class="node">
<title>Node13</title>
<polygon fill="none" stroke="#bfbfbf" points="336,-79.6838 336,-98.6838 440,-98.6838 440,-79.6838 336,-79.6838"/>
<text text-anchor="middle" x="388" y="-86.6838" font-family="Helvetica,sans-Serif" font-size="10.00" fill="#000000">VkPhysicalDevice</text>
</g>
<!-- Node13&#45;&gt;Node4 -->
<g id="edge12" class="edge">
<title>Node13&#45;&gt;Node4</title>
<path fill="none" stroke="#9a32cd" stroke-dasharray="5,2" d="M450.2805,-93.7412C493.51,-97.6971 552.2261,-104.6516 603,-116.1838 611.2233,-118.0516 612.9401,-119.7041 621,-122.1838 630.6729,-125.1598 641.008,-128.1965 651.0208,-131.0648"/>
<polygon fill="#9a32cd" stroke="#9a32cd" points="450.4643,-90.2439 440.1942,-92.8468 449.8459,-97.2165 450.4643,-90.2439"/>
<text text-anchor="middle" x="554.5" y="-119.1838" font-family="Helvetica,sans-Serif" font-size="10.00" fill="#000000"> handle</text>
</g>
<!-- Node14 -->
<g id="node14" class="node">
<title>Node14</title>
<polygon fill="none" stroke="#bfbfbf" points="310.5,-41.6838 310.5,-60.6838 465.5,-60.6838 465.5,-41.6838 310.5,-41.6838"/>
<text text-anchor="middle" x="388" y="-48.6838" font-family="Helvetica,sans-Serif" font-size="10.00" fill="#000000">VkPhysicalDeviceProperties</text>
</g>
<!-- Node14&#45;&gt;Node4 -->
<g id="edge13" class="edge">
<title>Node14&#45;&gt;Node4</title>
<path fill="none" stroke="#9a32cd" stroke-dasharray="5,2" d="M475.8296,-46.9826C517.9094,-49.2009 566.8779,-58.4334 603,-85.1838 617.6961,-96.0671 606.9733,-110.4505 621,-122.1838 627.2336,-127.3982 634.5294,-131.4822 642.1803,-134.6804"/>
<polygon fill="#9a32cd" stroke="#9a32cd" points="475.7048,-43.4749 465.5725,-46.5711 475.4241,-50.4693 475.7048,-43.4749"/>
<text text-anchor="middle" x="554.5" y="-88.1838" font-family="Helvetica,sans-Serif" font-size="10.00" fill="#000000"> properties</text>
</g>
<!-- Node15 -->
<g id="node15" class="node">
<title>Node15</title>
<polygon fill="none" stroke="#bfbfbf" points="296,-3.6838 296,-22.6838 480,-22.6838 480,-3.6838 296,-3.6838"/>
<text text-anchor="middle" x="388" y="-10.6838" font-family="Helvetica,sans-Serif" font-size="10.00" fill="#000000">vector&lt; VkExtensionProperties &gt;</text>
</g>
<!-- Node15&#45;&gt;Node4 -->
<g id="edge14" class="edge">
<title>Node15&#45;&gt;Node4</title>
<path fill="none" stroke="#9a32cd" stroke-dasharray="5,2" d="M445.8399,-2.3983C493.9201,3.0143 561.0321,1.7934 603,-36.1838 631.9552,-62.3857 594.3541,-93.6367 621,-122.1838 626.8593,-128.4612 634.2225,-133.1406 642.1513,-136.6209"/>
<polygon fill="#9a32cd" stroke="#9a32cd" points="445.3733,1.0707 435.8849,-3.6431 446.2419,-5.8752 445.3733,1.0707"/>
<text text-anchor="middle" x="554.5" y="-39.1838" font-family="Helvetica,sans-Serif" font-size="10.00" fill="#000000"> extensions</text>
</g>
<!-- Node16 -->
<g id="node16" class="node">
<title>Node16</title>
<polygon fill="none" stroke="#bfbfbf" points="621,-82.1838 621,-112.1838 791,-112.1838 791,-82.1838 621,-82.1838"/>
<text text-anchor="start" x="629" y="-100.1838" font-family="Helvetica,sans-Serif" font-size="10.00" fill="#000000">vector&lt; lug::Graphics</text>
<text text-anchor="middle" x="706" y="-89.1838" font-family="Helvetica,sans-Serif" font-size="10.00" fill="#000000">::Vulkan::API::QueueFamily &gt;</text>
</g>
<!-- Node16&#45;&gt;Node3 -->
<g id="edge15" class="edge">
<title>Node16&#45;&gt;Node3</title>
<path fill="none" stroke="#9a32cd" stroke-dasharray="5,2" d="M801.4818,-97.1838C843.9993,-97.1838 892.9233,-97.1838 930.8771,-97.1838"/>
<polygon fill="#9a32cd" stroke="#9a32cd" points="801.3886,-93.6839 791.3885,-97.1838 801.3885,-100.6839 801.3886,-93.6839"/>
<text text-anchor="middle" x="861" y="-100.1838" font-family="Helvetica,sans-Serif" font-size="10.00" fill="#000000"> _queueFamilies</text>
</g>
<!-- Node17 -->
<g id="node17" class="node">
<title>Node17</title>
<polygon fill="none" stroke="#bfbfbf" points="674.5,-43.6838 674.5,-62.6838 737.5,-62.6838 737.5,-43.6838 674.5,-43.6838"/>
<text text-anchor="middle" x="706" y="-50.6838" font-family="Helvetica,sans-Serif" font-size="10.00" fill="#000000">VkDevice</text>
</g>
<!-- Node17&#45;&gt;Node3 -->
<g id="edge16" class="edge">
<title>Node17&#45;&gt;Node3</title>
<path fill="none" stroke="#9a32cd" stroke-dasharray="5,2" d="M747.7219,-58.4954C789.5836,-63.9502 855.8703,-72.929 913,-82.1838 918.8227,-83.1271 924.8709,-84.153 930.9228,-85.2108"/>
<polygon fill="#9a32cd" stroke="#9a32cd" points="747.9928,-55.0013 737.6257,-57.1865 747.0927,-61.9432 747.9928,-55.0013"/>
<text text-anchor="middle" x="861" y="-85.1838" font-family="Helvetica,sans-Serif" font-size="10.00" fill="#000000"> _device</text>
</g>
</g>
</svg>
        <g id="navigator" transform="translate(0 0)" fill="#404254">
                <rect fill="#f2f5e9" fill-opacity="0.5" stroke="#606060" stroke-width=".5" x="0" y="0" width="60" height="60"/>
                <use id="zoomplus" xlink:href="#zoomPlus" x="17" y="9" onmousedown="handleZoom(evt,'in')"/>
                <use id="zoomminus" xlink:href="#zoomMin" x="42" y="9" onmousedown="handleZoom(evt,'out')"/>
                <use id="reset" xlink:href="#resetDef" x="30" y="36" onmousedown="handleReset()"/>
                <g id="arrowUp" xlink:href="#dirArrow" transform="translate(30 24)" onmousedown="handlePan(0,-1)">
                  <use xlink:href="#rim" fill="#404040">
                        <set attributeName="fill" to="#808080" begin="arrowUp.mouseover" end="arrowUp.mouseout"/>
                  </use>
                  <path fill="none" stroke="white" stroke-width="1.5" d="M0,-3.0v7 M-2.5,-0.5L0,-3.0L2.5,-0.5"/>
                </g>
                <g id="arrowRight" xlink:href="#dirArrow" transform="rotate(90) translate(36 -43)" onmousedown="handlePan(1,0)">
                  <use xlink:href="#rim" fill="#404040">
                        <set attributeName="fill" to="#808080" begin="arrowRight.mouseover" end="arrowRight.mouseout"/>
                  </use>
                  <path fill="none" stroke="white" stroke-width="1.5" d="M0,-3.0v7 M-2.5,-0.5L0,-3.0L2.5,-0.5"/>
                </g>
                <g id="arrowDown" xlink:href="#dirArrow" transform="rotate(180) translate(-30 -48)" onmousedown="handlePan(0,1)">
                  <use xlink:href="#rim" fill="#404040">
                        <set attributeName="fill" to="#808080" begin="arrowDown.mouseover" end="arrowDown.mouseout"/>
                  </use>
                  <path fill="none" stroke="white" stroke-width="1.5" d="M0,-3.0v7 M-2.5,-0.5L0,-3.0L2.5,-0.5"/>
                </g>
                <g id="arrowLeft" xlink:href="#dirArrow" transform="rotate(270) translate(-36 17)" onmousedown="handlePan(-1,0)">
                  <use xlink:href="#rim" fill="#404040">
                        <set attributeName="fill" to="#808080" begin="arrowLeft.mouseover" end="arrowLeft.mouseout"/>
                  </use>
                  <path fill="none" stroke="white" stroke-width="1.5" d="M0,-3.0v7 M-2.5,-0.5L0,-3.0L2.5,-0.5"/>
                </g>
        </g>
        <svg viewBox="0 0 15 15" width="100%" height="30px" preserveAspectRatio="xMaxYMin meet">
         <g id="arrow_out" transform="scale(0.3 0.3)">
          <a xlink:href="classlug_1_1Graphics_1_1Vulkan_1_1API_1_1Semaphore__coll__graph_org.svg" target="_base">
           <rect id="button" ry="5" rx="5" y="6" x="6" height="38" width="38"
                fill="#f2f5e9" fill-opacity="0.5" stroke="#606060" stroke-width="1.0"/>
           <path id="arrow"
             d="M 11.500037,31.436501 C 11.940474,20.09759 22.043105,11.32322 32.158766,21.979434 L 37.068811,17.246167 C 37.068811,17.246167 37.088388,32 37.088388,32 L 22.160133,31.978069 C 22.160133,31.978069 26.997745,27.140456 26.997745,27.140456 C 18.528582,18.264221 13.291696,25.230495 11.500037,31.436501 z"
             style="fill:#404040;"/>
          </a>
         </g>
        </svg>
</svg>
