<?xml version="1.0" encoding="UTF-8" standalone="no"?>
<!DOCTYPE svg PUBLIC "-//W3C//DTD SVG 1.1//EN"
 "http://www.w3.org/Graphics/SVG/1.1/DTD/svg11.dtd">
<!-- Generated by graphviz version 2.40.1 (20161225.0304)
 -->
<!-- Title: lug::Graphics::Vulkan::API::Builder::GraphicsPipeline Pages: 1 -->
<!--zoomable 1089 -->
<svg id="main" version="1.1" xmlns="http://www.w3.org/2000/svg" xmlns:xlink="http://www.w3.org/1999/xlink" xml:space="preserve" onload="init(evt)">
<style type="text/css"><![CDATA[
.edge:hover path { stroke: red; }
.edge:hover polygon { stroke: red; fill: red; }
]]></style>
<script type="text/javascript"><![CDATA[
var edges = document.getElementsByTagName('g');
if (edges && edges.length) {
  for (var i=0;i<edges.length;i++) {
    if (edges[i].id.substr(0,4)=='edge') {
      edges[i].setAttribute('class','edge');
    }
  }
}
]]></script>
        <defs>
                <circle id="rim" cx="0" cy="0" r="7"/>
                <circle id="rim2" cx="0" cy="0" r="3.5"/>
                <g id="zoomPlus">
                        <use xlink:href="#rim" fill="#404040">
                                <set attributeName="fill" to="#808080" begin="zoomplus.mouseover" end="zoomplus.mouseout"/>
                        </use>
                        <path d="M-4,0h8M0,-4v8" fill="none" stroke="white" stroke-width="1.5" pointer-events="none"/>
                </g>
                <g id="zoomMin">
                        <use xlink:href="#rim" fill="#404040">
                                <set attributeName="fill" to="#808080" begin="zoomminus.mouseover" end="zoomminus.mouseout"/>
                        </use>
                        <path d="M-4,0h8" fill="none" stroke="white" stroke-width="1.5" pointer-events="none"/>
                </g>
                <g id="dirArrow">
                        <path fill="none" stroke="white" stroke-width="1.5" d="M0,-3.0v7 M-2.5,-0.5L0,-3.0L2.5,-0.5"/>
                </g>
               <g id="resetDef">
                       <use xlink:href="#rim2" fill="#404040">
                               <set attributeName="fill" to="#808080" begin="reset.mouseover" end="reset.mouseout"/>
                       </use>
               </g>
        </defs>

<script type="text/javascript">
var viewWidth = 1782;
var viewHeight = 1089;
var sectionId = 'dynsection-0';
</script>
<script xlink:href="svgpan.js"/>
<svg id="graph" class="graph">
<g id="viewport">
<title>lug::Graphics::Vulkan::API::Builder::GraphicsPipeline</title>
<!-- Node1 -->
<g id="node1" class="node">
<title>Node1</title>
<polygon fill="#bfbfbf" stroke="#000000" points="1596,-424.3032 1596,-454.3032 1774,-454.3032 1774,-424.3032 1596,-424.3032"/>
<text text-anchor="start" x="1604" y="-442.3032" font-family="Helvetica,sans-Serif" font-size="10.00" fill="#000000">lug::Graphics::Vulkan</text>
<text text-anchor="middle" x="1685" y="-431.3032" font-family="Helvetica,sans-Serif" font-size="10.00" fill="#000000">::API::Builder::GraphicsPipeline</text>
</g>
<!-- Node2 -->
<g id="node2" class="node">
<title>Node2</title>
<g id="a_node2"><a xlink:href="classlug_1_1Graphics_1_1Vulkan_1_1API_1_1RenderPass.html" target="_top" xlink:title="lug::Graphics::Vulkan\l::API::RenderPass">
<polygon fill="none" stroke="#000000" points="1276,-858.3032 1276,-888.3032 1403,-888.3032 1403,-858.3032 1276,-858.3032"/>
<text text-anchor="start" x="1284" y="-876.3032" font-family="Helvetica,sans-Serif" font-size="10.00" fill="#000000">lug::Graphics::Vulkan</text>
<text text-anchor="middle" x="1339.5" y="-865.3032" font-family="Helvetica,sans-Serif" font-size="10.00" fill="#000000">::API::RenderPass</text>
</a>
</g>
</g>
<!-- Node2&#45;&gt;Node1 -->
<g id="edge1" class="edge">
<title>Node2&#45;&gt;Node1</title>
<path fill="none" stroke="#9a32cd" stroke-dasharray="5,2" d="M1413.234,-883.6297C1465.3497,-886.6388 1533.572,-881.2904 1578,-842.3032 1638.8033,-788.9461 1674.9949,-521.5845 1683.2042,-454.5597"/>
<polygon fill="#9a32cd" stroke="#9a32cd" points="1413.2552,-880.1229 1403.0374,-882.9239 1412.7718,-887.1062 1413.2552,-880.1229"/>
<text text-anchor="middle" x="1515.5" y="-886.3032" font-family="Helvetica,sans-Serif" font-size="10.00" fill="#000000"> _renderPass</text>
</g>
<!-- Node3 -->
<g id="node3" class="node">
<title>Node3</title>
<polygon fill="none" stroke="#bfbfbf" points="968.5,-885.8032 968.5,-904.8032 1055.5,-904.8032 1055.5,-885.8032 968.5,-885.8032"/>
<text text-anchor="middle" x="1012" y="-892.8032" font-family="Helvetica,sans-Serif" font-size="10.00" fill="#000000">VkRenderPass</text>
</g>
<!-- Node3&#45;&gt;Node2 -->
<g id="edge2" class="edge">
<title>Node3&#45;&gt;Node2</title>
<path fill="none" stroke="#9a32cd" stroke-dasharray="5,2" d="M1065.8318,-891.687C1123.4727,-887.8149 1214.8713,-881.6752 1275.9895,-877.5695"/>
<polygon fill="#9a32cd" stroke="#9a32cd" points="1065.5712,-888.1965 1055.8283,-892.359 1066.0404,-895.1808 1065.5712,-888.1965"/>
<text text-anchor="middle" x="1168.5" y="-890.3032" font-family="Helvetica,sans-Serif" font-size="10.00" fill="#000000"> _renderPass</text>
</g>
<!-- Node4 -->
<g id="node4" class="node">
<title>Node4</title>
<g id="a_node4"><a xlink:href="classlug_1_1Graphics_1_1Vulkan_1_1API_1_1Device.html" target="_top" xlink:title="lug::Graphics::Vulkan\l::API::Device">
<polygon fill="none" stroke="#000000" points="948.5,-813.3032 948.5,-843.3032 1075.5,-843.3032 1075.5,-813.3032 948.5,-813.3032"/>
<text text-anchor="start" x="956.5" y="-831.3032" font-family="Helvetica,sans-Serif" font-size="10.00" fill="#000000">lug::Graphics::Vulkan</text>
<text text-anchor="middle" x="1012" y="-820.3032" font-family="Helvetica,sans-Serif" font-size="10.00" fill="#000000">::API::Device</text>
</a>
</g>
</g>
<!-- Node4&#45;&gt;Node1 -->
<g id="edge30" class="edge">
<title>Node4&#45;&gt;Node1</title>
<path fill="none" stroke="#9a32cd" stroke-dasharray="5,2" d="M1085.6894,-830.295C1230.2085,-833.524 1540.1187,-836.8527 1578,-807.3032 1636.2321,-761.8788 1673.9334,-518.4961 1682.9207,-454.6488"/>
<polygon fill="#9a32cd" stroke="#9a32cd" points="1085.6535,-826.7933 1075.5758,-830.0631 1085.493,-833.7915 1085.6535,-826.7933"/>
<text text-anchor="middle" x="1339.5" y="-835.3032" font-family="Helvetica,sans-Serif" font-size="10.00" fill="#000000"> _device</text>
</g>
<!-- Node4&#45;&gt;Node2 -->
<g id="edge3" class="edge">
<title>Node4&#45;&gt;Node2</title>
<path fill="none" stroke="#9a32cd" stroke-dasharray="5,2" d="M1085.5981,-838.4159C1142.8086,-846.2769 1221.3485,-857.0686 1275.8642,-864.5593"/>
<polygon fill="#9a32cd" stroke="#9a32cd" points="1085.917,-834.9269 1075.5336,-837.033 1084.9641,-841.8618 1085.917,-834.9269"/>
<text text-anchor="middle" x="1168.5" y="-860.3032" font-family="Helvetica,sans-Serif" font-size="10.00" fill="#000000"> _device</text>
</g>
<!-- Node34 -->
<g id="node34" class="node">
<title>Node34</title>
<g id="a_node34"><a xlink:href="classlug_1_1Graphics_1_1Vulkan_1_1API_1_1PipelineLayout.html" target="_top" xlink:title="lug::Graphics::Vulkan\l::API::PipelineLayout">
<polygon fill="none" stroke="#000000" points="1276,-100.3032 1276,-130.3032 1403,-130.3032 1403,-100.3032 1276,-100.3032"/>
<text text-anchor="start" x="1284" y="-118.3032" font-family="Helvetica,sans-Serif" font-size="10.00" fill="#000000">lug::Graphics::Vulkan</text>
<text text-anchor="middle" x="1339.5" y="-107.3032" font-family="Helvetica,sans-Serif" font-size="10.00" fill="#000000">::API::PipelineLayout</text>
</a>
</g>
</g>
<!-- Node4&#45;&gt;Node34 -->
<g id="edge37" class="edge">
<title>Node4&#45;&gt;Node34</title>
<path fill="none" stroke="#9a32cd" stroke-dasharray="5,2" d="M1017.1939,-802.9507C1040.7505,-690.311 1140.871,-236.5316 1244,-140.3032 1252.8968,-132.0016 1264.2045,-126.3819 1275.9015,-122.5949"/>
<polygon fill="#9a32cd" stroke="#9a32cd" points="1013.7046,-802.5399 1015.0981,-813.0427 1020.5584,-803.9633 1013.7046,-802.5399"/>
<text text-anchor="middle" x="1168.5" y="-432.3032" font-family="Helvetica,sans-Serif" font-size="10.00" fill="#000000"> _device</text>
</g>
<!-- Node5 -->
<g id="node5" class="node">
<title>Node5</title>
<g id="a_node5"><a xlink:href="structlug_1_1Graphics_1_1Vulkan_1_1PhysicalDeviceInfo.html" target="_top" xlink:title="lug::Graphics::Vulkan\l::PhysicalDeviceInfo">
<polygon fill="none" stroke="#000000" points="642.5,-862.3032 642.5,-892.3032 769.5,-892.3032 769.5,-862.3032 642.5,-862.3032"/>
<text text-anchor="start" x="650.5" y="-880.3032" font-family="Helvetica,sans-Serif" font-size="10.00" fill="#000000">lug::Graphics::Vulkan</text>
<text text-anchor="middle" x="706" y="-869.3032" font-family="Helvetica,sans-Serif" font-size="10.00" fill="#000000">::PhysicalDeviceInfo</text>
</a>
</g>
</g>
<!-- Node5&#45;&gt;Node4 -->
<g id="edge4" class="edge">
<title>Node5&#45;&gt;Node4</title>
<path fill="none" stroke="#9a32cd" stroke-dasharray="5,2" d="M779.8356,-865.4798C831.2893,-857.2405 899.2296,-846.3612 948.307,-838.5024"/>
<polygon fill="#9a32cd" stroke="#9a32cd" points="779.0959,-862.0536 769.7752,-867.0908 780.2028,-868.9655 779.0959,-862.0536"/>
<text text-anchor="middle" x="861" y="-862.3032" font-family="Helvetica,sans-Serif" font-size="10.00" fill="#000000"> _physicalDeviceInfo</text>
</g>
<!-- Node6 -->
<g id="node6" class="node">
<title>Node6</title>
<g id="a_node6"><a xlink:href="structlug_1_1Graphics_1_1Vulkan_1_1PhysicalDeviceInfo_1_1Swapchain.html" target="_top" xlink:title="lug::Graphics::Vulkan\l::PhysicalDeviceInfo\l::Swapchain">
<polygon fill="none" stroke="#000000" points="324.5,-1012.8032 324.5,-1053.8032 451.5,-1053.8032 451.5,-1012.8032 324.5,-1012.8032"/>
<text text-anchor="start" x="332.5" y="-1041.8032" font-family="Helvetica,sans-Serif" font-size="10.00" fill="#000000">lug::Graphics::Vulkan</text>
<text text-anchor="start" x="332.5" y="-1030.8032" font-family="Helvetica,sans-Serif" font-size="10.00" fill="#000000">::PhysicalDeviceInfo</text>
<text text-anchor="middle" x="388" y="-1019.8032" font-family="Helvetica,sans-Serif" font-size="10.00" fill="#000000">::Swapchain</text>
</a>
</g>
</g>
<!-- Node6&#45;&gt;Node5 -->
<g id="edge5" class="edge">
<title>Node6&#45;&gt;Node5</title>
<path fill="none" stroke="#9a32cd" stroke-dasharray="5,2" d="M461.6295,-1021.7981C504.7948,-1012.9014 559.2582,-997.839 603,-973.3032 641.1623,-951.897 676.3144,-913.491 694.0081,-892.324"/>
<polygon fill="#9a32cd" stroke="#9a32cd" points="460.881,-1018.3784 451.7585,-1023.7665 462.2499,-1025.2433 460.881,-1018.3784"/>
<text text-anchor="middle" x="554.5" y="-1013.3032" font-family="Helvetica,sans-Serif" font-size="10.00" fill="#000000"> swapchain</text>
</g>
<!-- Node7 -->
<g id="node7" class="node">
<title>Node7</title>
<polygon fill="none" stroke="#bfbfbf" points="16.5,-1061.8032 16.5,-1080.8032 162.5,-1080.8032 162.5,-1061.8032 16.5,-1061.8032"/>
<text text-anchor="middle" x="89.5" y="-1068.8032" font-family="Helvetica,sans-Serif" font-size="10.00" fill="#000000">VkSurfaceCapabilitiesKHR</text>
</g>
<!-- Node7&#45;&gt;Node6 -->
<g id="edge6" class="edge">
<title>Node7&#45;&gt;Node6</title>
<path fill="none" stroke="#9a32cd" stroke-dasharray="5,2" d="M172.5828,-1060.7265C220.5932,-1054.6146 280.0566,-1047.0447 324.3375,-1041.4076"/>
<polygon fill="#9a32cd" stroke="#9a32cd" points="171.9992,-1057.2724 162.5213,-1062.0073 172.8833,-1064.2164 171.9992,-1057.2724"/>
<text text-anchor="middle" x="233.5" y="-1059.3032" font-family="Helvetica,sans-Serif" font-size="10.00" fill="#000000"> capabilities</text>
</g>
<!-- Node8 -->
<g id="node8" class="node">
<title>Node8</title>
<polygon fill="none" stroke="#bfbfbf" points="0,-1023.8032 0,-1042.8032 179,-1042.8032 179,-1023.8032 0,-1023.8032"/>
<text text-anchor="middle" x="89.5" y="-1030.8032" font-family="Helvetica,sans-Serif" font-size="10.00" fill="#000000">vector&lt; VkSurfaceFormatKHR &gt;</text>
</g>
<!-- Node8&#45;&gt;Node6 -->
<g id="edge7" class="edge">
<title>Node8&#45;&gt;Node6</title>
<path fill="none" stroke="#9a32cd" stroke-dasharray="5,2" d="M189.3241,-1033.3032C233.799,-1033.3032 284.8747,-1033.3032 324.1016,-1033.3032"/>
<polygon fill="#9a32cd" stroke="#9a32cd" points="189.0599,-1029.8033 179.0598,-1033.3032 189.0598,-1036.8033 189.0599,-1029.8033"/>
<text text-anchor="middle" x="233.5" y="-1036.3032" font-family="Helvetica,sans-Serif" font-size="10.00" fill="#000000"> formats</text>
</g>
<!-- Node9 -->
<g id="node9" class="node">
<title>Node9</title>
<polygon fill="none" stroke="#bfbfbf" points="4.5,-985.8032 4.5,-1004.8032 174.5,-1004.8032 174.5,-985.8032 4.5,-985.8032"/>
<text text-anchor="middle" x="89.5" y="-992.8032" font-family="Helvetica,sans-Serif" font-size="10.00" fill="#000000">vector&lt; VkPresentModeKHR &gt;</text>
</g>
<!-- Node9&#45;&gt;Node6 -->
<g id="edge8" class="edge">
<title>Node9&#45;&gt;Node6</title>
<path fill="none" stroke="#9a32cd" stroke-dasharray="5,2" d="M174.4265,-1006.1146C222.0428,-1012.1763 280.4605,-1019.6131 324.1567,-1025.1757"/>
<polygon fill="#9a32cd" stroke="#9a32cd" points="174.8008,-1002.6341 164.4389,-1004.8431 173.9168,-1009.578 174.8008,-1002.6341"/>
<text text-anchor="middle" x="233.5" y="-1020.3032" font-family="Helvetica,sans-Serif" font-size="10.00" fill="#000000"> presentModes</text>
</g>
<!-- Node10 -->
<g id="node10" class="node">
<title>Node10</title>
<polygon fill="none" stroke="#bfbfbf" points="308.5,-963.3032 308.5,-993.3032 467.5,-993.3032 467.5,-963.3032 308.5,-963.3032"/>
<text text-anchor="start" x="316.5" y="-981.3032" font-family="Helvetica,sans-Serif" font-size="10.00" fill="#000000">unordered_map&lt; VkFormat,</text>
<text text-anchor="middle" x="388" y="-970.3032" font-family="Helvetica,sans-Serif" font-size="10.00" fill="#000000"> VkFormatProperties &gt;</text>
</g>
<!-- Node10&#45;&gt;Node5 -->
<g id="edge9" class="edge">
<title>Node10&#45;&gt;Node5</title>
<path fill="none" stroke="#9a32cd" stroke-dasharray="5,2" d="M477.7382,-965.5467C516.9352,-958.4472 562.9918,-948.0051 603,-933.3032 631.8484,-922.7022 662.5,-905.1238 682.7908,-892.4874"/>
<polygon fill="#9a32cd" stroke="#9a32cd" points="476.9054,-962.1395 467.6664,-967.3253 478.1227,-969.0328 476.9054,-962.1395"/>
<text text-anchor="middle" x="554.5" y="-961.3032" font-family="Helvetica,sans-Serif" font-size="10.00" fill="#000000"> formatProperties</text>
</g>
<!-- Node11 -->
<g id="node11" class="node">
<title>Node11</title>
<polygon fill="none" stroke="#bfbfbf" points="315,-924.8032 315,-943.8032 461,-943.8032 461,-924.8032 315,-924.8032"/>
<text text-anchor="middle" x="388" y="-931.8032" font-family="Helvetica,sans-Serif" font-size="10.00" fill="#000000">VkPhysicalDeviceFeatures</text>
</g>
<!-- Node11&#45;&gt;Node5 -->
<g id="edge10" class="edge">
<title>Node11&#45;&gt;Node5</title>
<path fill="none" stroke="#9a32cd" stroke-dasharray="5,2" d="M471.4332,-924.3284C511.4044,-919.0264 559.8563,-911.8348 603,-903.3032 618.65,-900.2084 635.4836,-896.2366 650.9141,-892.3338"/>
<polygon fill="#9a32cd" stroke="#9a32cd" points="470.9225,-920.8653 461.4622,-925.6353 471.8322,-927.806 470.9225,-920.8653"/>
<text text-anchor="middle" x="554.5" y="-921.3032" font-family="Helvetica,sans-Serif" font-size="10.00" fill="#000000"> features</text>
</g>
<!-- Node12 -->
<g id="node12" class="node">
<title>Node12</title>
<polygon fill="none" stroke="#bfbfbf" points="288,-886.8032 288,-905.8032 488,-905.8032 488,-886.8032 288,-886.8032"/>
<text text-anchor="middle" x="388" y="-893.8032" font-family="Helvetica,sans-Serif" font-size="10.00" fill="#000000">vector&lt; VkQueueFamilyProperties &gt;</text>
</g>
<!-- Node12&#45;&gt;Node5 -->
<g id="edge11" class="edge">
<title>Node12&#45;&gt;Node5</title>
<path fill="none" stroke="#9a32cd" stroke-dasharray="5,2" d="M498.3415,-889.7105C546.4596,-886.8355 601.1572,-883.5674 642.3325,-881.1072"/>
<polygon fill="#9a32cd" stroke="#9a32cd" points="497.9541,-886.2273 488.1807,-890.3175 498.3717,-893.2148 497.9541,-886.2273"/>
<text text-anchor="middle" x="554.5" y="-891.3032" font-family="Helvetica,sans-Serif" font-size="10.00" fill="#000000"> queueFamilies</text>
</g>
<!-- Node13 -->
<g id="node13" class="node">
<title>Node13</title>
<polygon fill="none" stroke="#bfbfbf" points="290.5,-848.8032 290.5,-867.8032 485.5,-867.8032 485.5,-848.8032 290.5,-848.8032"/>
<text text-anchor="middle" x="388" y="-855.8032" font-family="Helvetica,sans-Serif" font-size="10.00" fill="#000000">VkPhysicalDeviceMemoryProperties</text>
</g>
<!-- Node13&#45;&gt;Node5 -->
<g id="edge12" class="edge">
<title>Node13&#45;&gt;Node5</title>
<path fill="none" stroke="#9a32cd" stroke-dasharray="5,2" d="M495.751,-862.455C530.0489,-864.007 568.1331,-865.97 603,-868.3032 615.7161,-869.1541 629.3015,-870.2253 642.2958,-871.3292"/>
<polygon fill="#9a32cd" stroke="#9a32cd" points="495.8574,-858.9564 485.7115,-862.0075 495.5457,-865.9494 495.8574,-858.9564"/>
<text text-anchor="middle" x="554.5" y="-871.3032" font-family="Helvetica,sans-Serif" font-size="10.00" fill="#000000"> memoryProperties</text>
</g>
<!-- Node14 -->
<g id="node14" class="node">
<title>Node14</title>
<polygon fill="none" stroke="#bfbfbf" points="336,-810.8032 336,-829.8032 440,-829.8032 440,-810.8032 336,-810.8032"/>
<text text-anchor="middle" x="388" y="-817.8032" font-family="Helvetica,sans-Serif" font-size="10.00" fill="#000000">VkPhysicalDevice</text>
</g>
<!-- Node14&#45;&gt;Node5 -->
<g id="edge13" class="edge">
<title>Node14&#45;&gt;Node5</title>
<path fill="none" stroke="#9a32cd" stroke-dasharray="5,2" d="M450.2805,-824.8606C493.51,-828.8165 552.2261,-835.771 603,-847.3032 611.2233,-849.1709 612.9401,-850.8235 621,-853.3032 630.6729,-856.2792 641.008,-859.3159 651.0208,-862.1842"/>
<polygon fill="#9a32cd" stroke="#9a32cd" points="450.4643,-821.3632 440.1942,-823.9662 449.8459,-828.3359 450.4643,-821.3632"/>
<text text-anchor="middle" x="554.5" y="-850.3032" font-family="Helvetica,sans-Serif" font-size="10.00" fill="#000000"> handle</text>
</g>
<!-- Node15 -->
<g id="node15" class="node">
<title>Node15</title>
<polygon fill="none" stroke="#bfbfbf" points="310.5,-772.8032 310.5,-791.8032 465.5,-791.8032 465.5,-772.8032 310.5,-772.8032"/>
<text text-anchor="middle" x="388" y="-779.8032" font-family="Helvetica,sans-Serif" font-size="10.00" fill="#000000">VkPhysicalDeviceProperties</text>
</g>
<!-- Node15&#45;&gt;Node5 -->
<g id="edge14" class="edge">
<title>Node15&#45;&gt;Node5</title>
<path fill="none" stroke="#9a32cd" stroke-dasharray="5,2" d="M475.8296,-778.102C517.9094,-780.3202 566.8779,-789.5527 603,-816.3032 617.6961,-827.1864 606.9733,-841.5698 621,-853.3032 627.2336,-858.5176 634.5294,-862.6016 642.1803,-865.7997"/>
<polygon fill="#9a32cd" stroke="#9a32cd" points="475.7048,-774.5943 465.5725,-777.6905 475.4241,-781.5886 475.7048,-774.5943"/>
<text text-anchor="middle" x="554.5" y="-819.3032" font-family="Helvetica,sans-Serif" font-size="10.00" fill="#000000"> properties</text>
</g>
<!-- Node16 -->
<g id="node16" class="node">
<title>Node16</title>
<polygon fill="none" stroke="#bfbfbf" points="296,-734.8032 296,-753.8032 480,-753.8032 480,-734.8032 296,-734.8032"/>
<text text-anchor="middle" x="388" y="-741.8032" font-family="Helvetica,sans-Serif" font-size="10.00" fill="#000000">vector&lt; VkExtensionProperties &gt;</text>
</g>
<!-- Node16&#45;&gt;Node5 -->
<g id="edge15" class="edge">
<title>Node16&#45;&gt;Node5</title>
<path fill="none" stroke="#9a32cd" stroke-dasharray="5,2" d="M444.0509,-733.3972C492.2349,-727.4903 560.4888,-727.9229 603,-766.3032 632.3082,-792.7634 594.0905,-824.407 621,-853.3032 626.852,-859.5873 634.2112,-864.2705 642.1381,-867.7526"/>
<polygon fill="#9a32cd" stroke="#9a32cd" points="443.5316,-729.9355 434.0901,-734.7425 444.4686,-736.8725 443.5316,-729.9355"/>
<text text-anchor="middle" x="554.5" y="-769.3032" font-family="Helvetica,sans-Serif" font-size="10.00" fill="#000000"> extensions</text>
</g>
<!-- Node17 -->
<g id="node17" class="node">
<title>Node17</title>
<polygon fill="none" stroke="#bfbfbf" points="621,-813.3032 621,-843.3032 791,-843.3032 791,-813.3032 621,-813.3032"/>
<text text-anchor="start" x="629" y="-831.3032" font-family="Helvetica,sans-Serif" font-size="10.00" fill="#000000">vector&lt; lug::Graphics</text>
<text text-anchor="middle" x="706" y="-820.3032" font-family="Helvetica,sans-Serif" font-size="10.00" fill="#000000">::Vulkan::API::QueueFamily &gt;</text>
</g>
<!-- Node17&#45;&gt;Node4 -->
<g id="edge16" class="edge">
<title>Node17&#45;&gt;Node4</title>
<path fill="none" stroke="#9a32cd" stroke-dasharray="5,2" d="M801.2876,-828.3032C849.0464,-828.3032 905.596,-828.3032 948.0823,-828.3032"/>
<polygon fill="#9a32cd" stroke="#9a32cd" points="801.2381,-824.8033 791.2381,-828.3032 801.238,-831.8033 801.2381,-824.8033"/>
<text text-anchor="middle" x="861" y="-831.3032" font-family="Helvetica,sans-Serif" font-size="10.00" fill="#000000"> _queueFamilies</text>
</g>
<!-- Node18 -->
<g id="node18" class="node">
<title>Node18</title>
<polygon fill="none" stroke="#bfbfbf" points="674.5,-774.8032 674.5,-793.8032 737.5,-793.8032 737.5,-774.8032 674.5,-774.8032"/>
<text text-anchor="middle" x="706" y="-781.8032" font-family="Helvetica,sans-Serif" font-size="10.00" fill="#000000">VkDevice</text>
</g>
<!-- Node18&#45;&gt;Node4 -->
<g id="edge17" class="edge">
<title>Node18&#45;&gt;Node4</title>
<path fill="none" stroke="#9a32cd" stroke-dasharray="5,2" d="M747.6625,-790.0006C789.4786,-795.7519 855.7311,-804.9533 913,-813.3032 924.4392,-814.971 936.6157,-816.7845 948.3746,-818.5555"/>
<polygon fill="#9a32cd" stroke="#9a32cd" points="747.9614,-786.5089 737.5781,-788.6154 747.0087,-793.4438 747.9614,-786.5089"/>
<text text-anchor="middle" x="861" y="-816.3032" font-family="Helvetica,sans-Serif" font-size="10.00" fill="#000000"> _device</text>
</g>
<!-- Node19 -->
<g id="node19" class="node">
<title>Node19</title>
<polygon fill="none" stroke="#bfbfbf" points="1290.5,-772.8032 1290.5,-791.8032 1388.5,-791.8032 1388.5,-772.8032 1290.5,-772.8032"/>
<text text-anchor="middle" x="1339.5" y="-779.8032" font-family="Helvetica,sans-Serif" font-size="10.00" fill="#000000">VkPipelineCache</text>
</g>
<!-- Node19&#45;&gt;Node1 -->
<g id="edge18" class="edge">
<title>Node19&#45;&gt;Node1</title>
<path fill="none" stroke="#9a32cd" stroke-dasharray="5,2" d="M1398.9355,-791.4171C1451.7281,-796.0574 1528.0497,-793.8355 1578,-753.3032 1626.9694,-713.5668 1670.4607,-512.0233 1682.0094,-454.5947"/>
<polygon fill="#9a32cd" stroke="#9a32cd" points="1399.0011,-787.9067 1388.7055,-790.4069 1398.3131,-794.8728 1399.0011,-787.9067"/>
<text text-anchor="middle" x="1515.5" y="-795.3032" font-family="Helvetica,sans-Serif" font-size="10.00" fill="#000000"> _pipelineCache</text>
</g>
<!-- Node20 -->
<g id="node20" class="node">
<title>Node20</title>
<polygon fill="none" stroke="#bfbfbf" points="1255.5,-723.3032 1255.5,-753.3032 1423.5,-753.3032 1423.5,-723.3032 1255.5,-723.3032"/>
<text text-anchor="start" x="1263.5" y="-741.3032" font-family="Helvetica,sans-Serif" font-size="10.00" fill="#000000">vector&lt; VkVertexInputBinding</text>
<text text-anchor="middle" x="1339.5" y="-730.3032" font-family="Helvetica,sans-Serif" font-size="10.00" fill="#000000">Description &gt;</text>
</g>
<!-- Node20&#45;&gt;Node1 -->
<g id="edge19" class="edge">
<title>Node20&#45;&gt;Node1</title>
<path fill="none" stroke="#9a32cd" stroke-dasharray="5,2" d="M1433.7977,-739.5486C1490.3745,-738.4272 1555.5835,-733.2412 1578,-716.3032 1665.6109,-650.1041 1681.5053,-502.304 1684.373,-454.5201"/>
<polygon fill="#9a32cd" stroke="#9a32cd" points="1433.6547,-736.0504 1423.7114,-739.7083 1433.7655,-743.0495 1433.6547,-736.0504"/>
<text text-anchor="middle" x="1515.5" y="-741.3032" font-family="Helvetica,sans-Serif" font-size="10.00" fill="#000000"> _inputBindings</text>
</g>
<!-- Node21 -->
<g id="node21" class="node">
<title>Node21</title>
<polygon fill="none" stroke="#bfbfbf" points="1270.5,-684.8032 1270.5,-703.8032 1408.5,-703.8032 1408.5,-684.8032 1270.5,-684.8032"/>
<text text-anchor="middle" x="1339.5" y="-691.8032" font-family="Helvetica,sans-Serif" font-size="10.00" fill="#000000">set&lt; VkDynamicState &gt;</text>
</g>
<!-- Node21&#45;&gt;Node1 -->
<g id="edge20" class="edge">
<title>Node21&#45;&gt;Node1</title>
<path fill="none" stroke="#9a32cd" stroke-dasharray="5,2" d="M1418.6923,-702.6635C1468.7824,-703.8233 1532.4397,-697.2444 1578,-664.3032 1650.9087,-611.5884 1675.9775,-496 1682.8151,-454.5076"/>
<polygon fill="#9a32cd" stroke="#9a32cd" points="1418.6559,-699.1603 1408.5431,-702.3196 1418.4189,-706.1563 1418.6559,-699.1603"/>
<text text-anchor="middle" x="1515.5" y="-704.3032" font-family="Helvetica,sans-Serif" font-size="10.00" fill="#000000"> _dynamicStates</text>
</g>
<!-- Node22 -->
<g id="node22" class="node">
<title>Node22</title>
<polygon fill="none" stroke="#bfbfbf" points="1260.5,-635.3032 1260.5,-665.3032 1418.5,-665.3032 1418.5,-635.3032 1260.5,-635.3032"/>
<text text-anchor="start" x="1268.5" y="-653.3032" font-family="Helvetica,sans-Serif" font-size="10.00" fill="#000000">VkPipelineDepthStencilState</text>
<text text-anchor="middle" x="1339.5" y="-642.3032" font-family="Helvetica,sans-Serif" font-size="10.00" fill="#000000">CreateInfo</text>
</g>
<!-- Node22&#45;&gt;Node1 -->
<g id="edge21" class="edge">
<title>Node22&#45;&gt;Node1</title>
<path fill="none" stroke="#9a32cd" stroke-dasharray="5,2" d="M1428.8109,-652.4914C1476.5966,-649.6527 1534.4062,-639.4235 1578,-610.3032 1636.3874,-571.3008 1668.951,-488.4994 1680.3261,-454.4303"/>
<polygon fill="#9a32cd" stroke="#9a32cd" points="1428.5891,-648.998 1418.7748,-652.9891 1428.9359,-655.9894 1428.5891,-648.998"/>
<text text-anchor="middle" x="1515.5" y="-652.3032" font-family="Helvetica,sans-Serif" font-size="10.00" fill="#000000"> _depthStencilState</text>
</g>
<!-- Node23 -->
<g id="node23" class="node">
<title>Node23</title>
<polygon fill="none" stroke="#bfbfbf" points="1251.5,-586.3032 1251.5,-616.3032 1427.5,-616.3032 1427.5,-586.3032 1251.5,-586.3032"/>
<text text-anchor="start" x="1259.5" y="-604.3032" font-family="Helvetica,sans-Serif" font-size="10.00" fill="#000000">vector&lt; lug::Graphics</text>
<text text-anchor="middle" x="1339.5" y="-593.3032" font-family="Helvetica,sans-Serif" font-size="10.00" fill="#000000">::Vulkan::API::ShaderModule &gt;</text>
</g>
<!-- Node23&#45;&gt;Node1 -->
<g id="edge22" class="edge">
<title>Node23&#45;&gt;Node1</title>
<path fill="none" stroke="#9a32cd" stroke-dasharray="5,2" d="M1437.7584,-597.4819C1482.8088,-592.2441 1535.513,-580.9762 1578,-557.3032 1623.4162,-531.998 1659.8331,-480.2216 1675.9753,-454.5009"/>
<polygon fill="#9a32cd" stroke="#9a32cd" points="1437.2429,-594.0172 1427.676,-598.5696 1437.9938,-600.9768 1437.2429,-594.0172"/>
<text text-anchor="middle" x="1515.5" y="-598.3032" font-family="Helvetica,sans-Serif" font-size="10.00" fill="#000000"> _shaderModules</text>
</g>
<!-- Node24 -->
<g id="node24" class="node">
<title>Node24</title>
<polygon fill="none" stroke="#bfbfbf" points="1311,-547.8032 1311,-566.8032 1368,-566.8032 1368,-547.8032 1311,-547.8032"/>
<text text-anchor="middle" x="1339.5" y="-554.8032" font-family="Helvetica,sans-Serif" font-size="10.00" fill="#000000">uint32_t</text>
</g>
<!-- Node24&#45;&gt;Node1 -->
<g id="edge23" class="edge">
<title>Node24&#45;&gt;Node1</title>
<path fill="none" stroke="#9a32cd" stroke-dasharray="5,2" d="M1378.0728,-554.0955C1426.3478,-549.0675 1510.8441,-536.8848 1578,-509.3032 1611.6759,-495.4722 1646.1174,-470.6341 1666.5229,-454.568"/>
<polygon fill="#9a32cd" stroke="#9a32cd" points="1377.6578,-550.6194 1368.0524,-555.09 1378.3492,-557.5852 1377.6578,-550.6194"/>
<text text-anchor="middle" x="1515.5" y="-545.3032" font-family="Helvetica,sans-Serif" font-size="10.00" fill="#000000"> _subpass</text>
</g>
<!-- Node25 -->
<g id="node25" class="node">
<title>Node25</title>
<polygon fill="none" stroke="#bfbfbf" points="1259.5,-498.3032 1259.5,-528.3032 1419.5,-528.3032 1419.5,-498.3032 1259.5,-498.3032"/>
<text text-anchor="start" x="1267.5" y="-516.3032" font-family="Helvetica,sans-Serif" font-size="10.00" fill="#000000">VkPipelineRasterizationState</text>
<text text-anchor="middle" x="1339.5" y="-505.3032" font-family="Helvetica,sans-Serif" font-size="10.00" fill="#000000">CreateInfo</text>
</g>
<!-- Node25&#45;&gt;Node1 -->
<g id="edge24" class="edge">
<title>Node25&#45;&gt;Node1</title>
<path fill="none" stroke="#9a32cd" stroke-dasharray="5,2" d="M1429.6869,-499.31C1474.5049,-491.7819 1529.348,-481.7044 1578,-470.3032 1597.4892,-465.736 1618.7094,-459.7947 1637.0752,-454.3369"/>
<polygon fill="#9a32cd" stroke="#9a32cd" points="1428.9863,-495.8784 1419.6972,-500.9738 1430.1363,-502.7833 1428.9863,-495.8784"/>
<text text-anchor="middle" x="1515.5" y="-497.3032" font-family="Helvetica,sans-Serif" font-size="10.00" fill="#000000"> _rasterizationState</text>
</g>
<!-- Node26 -->
<g id="node26" class="node">
<title>Node26</title>
<polygon fill="none" stroke="#bfbfbf" points="1252,-449.3032 1252,-479.3032 1427,-479.3032 1427,-449.3032 1252,-449.3032"/>
<text text-anchor="start" x="1260" y="-467.3032" font-family="Helvetica,sans-Serif" font-size="10.00" fill="#000000">vector&lt; VkVertexInputAttribute</text>
<text text-anchor="middle" x="1339.5" y="-456.3032" font-family="Helvetica,sans-Serif" font-size="10.00" fill="#000000">Description &gt;</text>
</g>
<!-- Node26&#45;&gt;Node1 -->
<g id="edge25" class="edge">
<title>Node26&#45;&gt;Node1</title>
<path fill="none" stroke="#9a32cd" stroke-dasharray="5,2" d="M1437.2851,-457.2276C1487.1627,-453.6185 1547.3841,-449.2609 1595.9598,-445.746"/>
<polygon fill="#9a32cd" stroke="#9a32cd" points="1436.8522,-453.7496 1427.1309,-457.9623 1437.3574,-460.7314 1436.8522,-453.7496"/>
<text text-anchor="middle" x="1515.5" y="-458.3032" font-family="Helvetica,sans-Serif" font-size="10.00" fill="#000000"> _inputAttributes</text>
</g>
<!-- Node27 -->
<g id="node27" class="node">
<title>Node27</title>
<polygon fill="none" stroke="#bfbfbf" points="1266,-400.3032 1266,-430.3032 1413,-430.3032 1413,-400.3032 1266,-400.3032"/>
<text text-anchor="start" x="1274" y="-418.3032" font-family="Helvetica,sans-Serif" font-size="10.00" fill="#000000">vector&lt; VkPipelineShader</text>
<text text-anchor="middle" x="1339.5" y="-407.3032" font-family="Helvetica,sans-Serif" font-size="10.00" fill="#000000">StageCreateInfo &gt;</text>
</g>
<!-- Node27&#45;&gt;Node1 -->
<g id="edge26" class="edge">
<title>Node27&#45;&gt;Node1</title>
<path fill="none" stroke="#9a32cd" stroke-dasharray="5,2" d="M1423.2714,-420.766C1469.0039,-423.7878 1526.6229,-427.6593 1578,-431.3032 1583.8532,-431.7183 1589.886,-432.1524 1595.9656,-432.5945"/>
<polygon fill="#9a32cd" stroke="#9a32cd" points="1423.3157,-417.2614 1413.107,-420.0954 1422.8548,-424.2462 1423.3157,-417.2614"/>
<text text-anchor="middle" x="1515.5" y="-434.3032" font-family="Helvetica,sans-Serif" font-size="10.00" fill="#000000"> _shaderStages</text>
</g>
<!-- Node28 -->
<g id="node28" class="node">
<title>Node28</title>
<polygon fill="none" stroke="#bfbfbf" points="1262,-351.3032 1262,-381.3032 1417,-381.3032 1417,-351.3032 1262,-351.3032"/>
<text text-anchor="start" x="1270" y="-369.3032" font-family="Helvetica,sans-Serif" font-size="10.00" fill="#000000">VkPipelineMultisampleState</text>
<text text-anchor="middle" x="1339.5" y="-358.3032" font-family="Helvetica,sans-Serif" font-size="10.00" fill="#000000">CreateInfo</text>
</g>
<!-- Node28&#45;&gt;Node1 -->
<g id="edge27" class="edge">
<title>Node28&#45;&gt;Node1</title>
<path fill="none" stroke="#9a32cd" stroke-dasharray="5,2" d="M1427.1288,-378.7807C1472.4337,-385.8834 1528.4696,-395.6839 1578,-407.3032 1598.2926,-412.0636 1620.4104,-418.4687 1639.2422,-424.2978"/>
<polygon fill="#9a32cd" stroke="#9a32cd" points="1427.4595,-375.2902 1417.0411,-377.2158 1426.3864,-382.2075 1427.4595,-375.2902"/>
<text text-anchor="middle" x="1515.5" y="-410.3032" font-family="Helvetica,sans-Serif" font-size="10.00" fill="#000000"> _multisampleState</text>
</g>
<!-- Node29 -->
<g id="node29" class="node">
<title>Node29</title>
<polygon fill="none" stroke="#bfbfbf" points="1275,-312.8032 1275,-331.8032 1404,-331.8032 1404,-312.8032 1275,-312.8032"/>
<text text-anchor="middle" x="1339.5" y="-319.8032" font-family="Helvetica,sans-Serif" font-size="10.00" fill="#000000">vector&lt; VkViewport &gt;</text>
</g>
<!-- Node29&#45;&gt;Node1 -->
<g id="edge28" class="edge">
<title>Node29&#45;&gt;Node1</title>
<path fill="none" stroke="#9a32cd" stroke-dasharray="5,2" d="M1414.0597,-328.5292C1462.2362,-334.4303 1525.502,-345.7607 1578,-367.3032 1612.3857,-381.4133 1647.1679,-407.4983 1667.3741,-424.0953"/>
<polygon fill="#9a32cd" stroke="#9a32cd" points="1414.3575,-325.0402 1404.0177,-327.3507 1413.5415,-331.9925 1414.3575,-325.0402"/>
<text text-anchor="middle" x="1515.5" y="-370.3032" font-family="Helvetica,sans-Serif" font-size="10.00" fill="#000000"> _viewports</text>
</g>
<!-- Node30 -->
<g id="node30" class="node">
<title>Node30</title>
<polygon fill="none" stroke="#bfbfbf" points="1320.5,-274.8032 1320.5,-293.8032 1358.5,-293.8032 1358.5,-274.8032 1320.5,-274.8032"/>
<text text-anchor="middle" x="1339.5" y="-281.8032" font-family="Helvetica,sans-Serif" font-size="10.00" fill="#000000">bool</text>
</g>
<!-- Node30&#45;&gt;Node1 -->
<g id="edge29" class="edge">
<title>Node30&#45;&gt;Node1</title>
<path fill="none" stroke="#9a32cd" stroke-dasharray="5,2" d="M1368.9225,-282.402C1416.028,-280.6647 1509.9804,-282.6583 1578,-319.3032 1624.4436,-344.3242 1660.6317,-397.8072 1676.3926,-424.0884"/>
<polygon fill="#9a32cd" stroke="#9a32cd" points="1368.6328,-278.9115 1358.8018,-282.8613 1368.9502,-285.9043 1368.6328,-278.9115"/>
<text text-anchor="middle" x="1515.5" y="-322.3032" font-family="Helvetica,sans-Serif" font-size="10.00" fill="#000000"> _primitiveRestartEnable</text>
</g>
<!-- Node31 -->
<g id="node31" class="node">
<title>Node31</title>
<polygon fill="none" stroke="#bfbfbf" points="1279.5,-236.8032 1279.5,-255.8032 1399.5,-255.8032 1399.5,-236.8032 1279.5,-236.8032"/>
<text text-anchor="middle" x="1339.5" y="-243.8032" font-family="Helvetica,sans-Serif" font-size="10.00" fill="#000000">vector&lt; VkRect2D &gt;</text>
</g>
<!-- Node31&#45;&gt;Node1 -->
<g id="edge31" class="edge">
<title>Node31&#45;&gt;Node1</title>
<path fill="none" stroke="#9a32cd" stroke-dasharray="5,2" d="M1409.8849,-237.4489C1460.316,-234.639 1527.8982,-238.407 1578,-269.3032 1637.6632,-306.0955 1669.5989,-389.9123 1680.5673,-424.2291"/>
<polygon fill="#9a32cd" stroke="#9a32cd" points="1409.4664,-233.9687 1399.7173,-238.1166 1409.9252,-240.9537 1409.4664,-233.9687"/>
<text text-anchor="middle" x="1515.5" y="-272.3032" font-family="Helvetica,sans-Serif" font-size="10.00" fill="#000000"> _scissors</text>
</g>
<!-- Node32 -->
<g id="node32" class="node">
<title>Node32</title>
<polygon fill="none" stroke="#bfbfbf" points="1244,-198.8032 1244,-217.8032 1435,-217.8032 1435,-198.8032 1244,-198.8032"/>
<text text-anchor="middle" x="1339.5" y="-205.8032" font-family="Helvetica,sans-Serif" font-size="10.00" fill="#000000">VkPipelineViewportStateCreateInfo</text>
</g>
<!-- Node32&#45;&gt;Node1 -->
<g id="edge32" class="edge">
<title>Node32&#45;&gt;Node1</title>
<path fill="none" stroke="#9a32cd" stroke-dasharray="5,2" d="M1390.8631,-197.0925C1442.5599,-188.8091 1522.3955,-184.5154 1578,-221.3032 1651.1361,-269.6898 1676.0628,-383.3622 1682.8391,-424.2883"/>
<polygon fill="#9a32cd" stroke="#9a32cd" points="1390.1826,-193.658 1380.9145,-198.7914 1391.361,-200.5581 1390.1826,-193.658"/>
<text text-anchor="middle" x="1515.5" y="-224.3032" font-family="Helvetica,sans-Serif" font-size="10.00" fill="#000000"> _viewportState</text>
</g>
<!-- Node33 -->
<g id="node33" class="node">
<title>Node33</title>
<polygon fill="none" stroke="#bfbfbf" points="1265,-149.3032 1265,-179.3032 1414,-179.3032 1414,-149.3032 1265,-149.3032"/>
<text text-anchor="start" x="1273" y="-167.3032" font-family="Helvetica,sans-Serif" font-size="10.00" fill="#000000">VkPipelineColorBlendState</text>
<text text-anchor="middle" x="1339.5" y="-156.3032" font-family="Helvetica,sans-Serif" font-size="10.00" fill="#000000">CreateInfo</text>
</g>
<!-- Node33&#45;&gt;Node1 -->
<g id="edge33" class="edge">
<title>Node33&#45;&gt;Node1</title>
<path fill="none" stroke="#9a32cd" stroke-dasharray="5,2" d="M1418.9647,-148.0319C1469.0194,-142.3516 1532.5357,-144.0281 1578,-176.3032 1663.2142,-236.7966 1680.672,-377.4608 1684.1558,-424.0271"/>
<polygon fill="#9a32cd" stroke="#9a32cd" points="1418.3085,-144.5867 1408.8213,-149.3031 1419.1789,-151.5324 1418.3085,-144.5867"/>
<text text-anchor="middle" x="1515.5" y="-179.3032" font-family="Helvetica,sans-Serif" font-size="10.00" fill="#000000"> _colorBlendState</text>
</g>
<!-- Node34&#45;&gt;Node1 -->
<g id="edge34" class="edge">
<title>Node34&#45;&gt;Node1</title>
<path fill="none" stroke="#9a32cd" stroke-dasharray="5,2" d="M1413.1222,-100.1476C1464.397,-93.9497 1531.6362,-95.0481 1578,-130.3032 1627.4833,-167.9304 1670.6092,-367.3143 1682.0417,-424.1627"/>
<polygon fill="#9a32cd" stroke="#9a32cd" points="1412.5447,-96.6934 1403.091,-101.4765 1413.464,-103.6328 1412.5447,-96.6934"/>
<text text-anchor="middle" x="1515.5" y="-133.3032" font-family="Helvetica,sans-Serif" font-size="10.00" fill="#000000"> _pipelineLayout</text>
</g>
<!-- Node35 -->
<g id="node35" class="node">
<title>Node35</title>
<polygon fill="none" stroke="#bfbfbf" points="931,-119.8032 931,-160.8032 1093,-160.8032 1093,-119.8032 931,-119.8032"/>
<text text-anchor="start" x="939" y="-148.8032" font-family="Helvetica,sans-Serif" font-size="10.00" fill="#000000">vector&lt; lug::Graphics</text>
<text text-anchor="start" x="939" y="-137.8032" font-family="Helvetica,sans-Serif" font-size="10.00" fill="#000000">::Vulkan::API::DescriptorSet</text>
<text text-anchor="middle" x="1012" y="-126.8032" font-family="Helvetica,sans-Serif" font-size="10.00" fill="#000000">Layout &gt;</text>
</g>
<!-- Node35&#45;&gt;Node34 -->
<g id="edge35" class="edge">
<title>Node35&#45;&gt;Node34</title>
<path fill="none" stroke="#9a32cd" stroke-dasharray="5,2" d="M1103.456,-133.3218C1158.3265,-129.1332 1226.7471,-123.9103 1275.7753,-120.1677"/>
<polygon fill="#9a32cd" stroke="#9a32cd" points="1103.0804,-129.8402 1093.3758,-134.0913 1103.6133,-136.8199 1103.0804,-129.8402"/>
<text text-anchor="middle" x="1168.5" y="-134.3032" font-family="Helvetica,sans-Serif" font-size="10.00" fill="#000000"> _descriptorSetLayouts</text>
</g>
<!-- Node36 -->
<g id="node36" class="node">
<title>Node36</title>
<polygon fill="none" stroke="#bfbfbf" points="961.5,-81.8032 961.5,-100.8032 1062.5,-100.8032 1062.5,-81.8032 961.5,-81.8032"/>
<text text-anchor="middle" x="1012" y="-88.8032" font-family="Helvetica,sans-Serif" font-size="10.00" fill="#000000">VkPipelineLayout</text>
</g>
<!-- Node36&#45;&gt;Node34 -->
<g id="edge36" class="edge">
<title>Node36&#45;&gt;Node34</title>
<path fill="none" stroke="#9a32cd" stroke-dasharray="5,2" d="M1072.9018,-95.7662C1130.7075,-100.0024 1217.2434,-106.3439 1275.9174,-110.6437"/>
<polygon fill="#9a32cd" stroke="#9a32cd" points="1073.0416,-92.2672 1062.8125,-95.0268 1072.53,-99.2484 1073.0416,-92.2672"/>
<text text-anchor="middle" x="1168.5" y="-109.3032" font-family="Helvetica,sans-Serif" font-size="10.00" fill="#000000"> _pipelineLayout</text>
</g>
<!-- Node37 -->
<g id="node37" class="node">
<title>Node37</title>
<polygon fill="none" stroke="#bfbfbf" points="1256.5,-51.3032 1256.5,-81.3032 1422.5,-81.3032 1422.5,-51.3032 1256.5,-51.3032"/>
<text text-anchor="start" x="1264.5" y="-69.3032" font-family="Helvetica,sans-Serif" font-size="10.00" fill="#000000">vector&lt; VkPipelineColorBlend</text>
<text text-anchor="middle" x="1339.5" y="-58.3032" font-family="Helvetica,sans-Serif" font-size="10.00" fill="#000000">AttachmentState &gt;</text>
</g>
<!-- Node37&#45;&gt;Node1 -->
<g id="edge38" class="edge">
<title>Node37&#45;&gt;Node1</title>
<path fill="none" stroke="#9a32cd" stroke-dasharray="5,2" d="M1418.0136,-50.0103C1468.8933,-44.1436 1533.6976,-46.0898 1578,-81.3032 1634.2412,-126.006 1673.2622,-361.3617 1682.7582,-423.9856"/>
<polygon fill="#9a32cd" stroke="#9a32cd" points="1417.5117,-46.5459 1408.0335,-51.2803 1418.3954,-53.4899 1417.5117,-46.5459"/>
<text text-anchor="middle" x="1515.5" y="-84.3032" font-family="Helvetica,sans-Serif" font-size="10.00" fill="#000000"> _colorBlendAttachments</text>
</g>
<!-- Node38 -->
<g id="node38" class="node">
<title>Node38</title>
<polygon fill="none" stroke="#bfbfbf" points="1280,-12.8032 1280,-31.8032 1399,-31.8032 1399,-12.8032 1280,-12.8032"/>
<text text-anchor="middle" x="1339.5" y="-19.8032" font-family="Helvetica,sans-Serif" font-size="10.00" fill="#000000">VkPrimitiveTopology</text>
</g>
<!-- Node38&#45;&gt;Node1 -->
<g id="edge39" class="edge">
<title>Node38&#45;&gt;Node1</title>
<path fill="none" stroke="#9a32cd" stroke-dasharray="5,2" d="M1382.5996,-10.4219C1434.8779,1.1756 1522.8376,11.268 1578,-33.3032 1641.5017,-84.6124 1675.7973,-356.9742 1683.379,-424.263"/>
<polygon fill="#9a32cd" stroke="#9a32cd" points="1381.5831,-7.065 1372.64,-12.7457 1383.1737,-13.8819 1381.5831,-7.065"/>
<text text-anchor="middle" x="1515.5" y="-36.3032" font-family="Helvetica,sans-Serif" font-size="10.00" fill="#000000"> _topology</text>
</g>
</g>
</svg>
        <g id="navigator" transform="translate(0 0)" fill="#404254">
                <rect fill="#f2f5e9" fill-opacity="0.5" stroke="#606060" stroke-width=".5" x="0" y="0" width="60" height="60"/>
                <use id="zoomplus" xlink:href="#zoomPlus" x="17" y="9" onmousedown="handleZoom(evt,'in')"/>
                <use id="zoomminus" xlink:href="#zoomMin" x="42" y="9" onmousedown="handleZoom(evt,'out')"/>
                <use id="reset" xlink:href="#resetDef" x="30" y="36" onmousedown="handleReset()"/>
                <g id="arrowUp" xlink:href="#dirArrow" transform="translate(30 24)" onmousedown="handlePan(0,-1)">
                  <use xlink:href="#rim" fill="#404040">
                        <set attributeName="fill" to="#808080" begin="arrowUp.mouseover" end="arrowUp.mouseout"/>
                  </use>
                  <path fill="none" stroke="white" stroke-width="1.5" d="M0,-3.0v7 M-2.5,-0.5L0,-3.0L2.5,-0.5"/>
                </g>
                <g id="arrowRight" xlink:href="#dirArrow" transform="rotate(90) translate(36 -43)" onmousedown="handlePan(1,0)">
                  <use xlink:href="#rim" fill="#404040">
                        <set attributeName="fill" to="#808080" begin="arrowRight.mouseover" end="arrowRight.mouseout"/>
                  </use>
                  <path fill="none" stroke="white" stroke-width="1.5" d="M0,-3.0v7 M-2.5,-0.5L0,-3.0L2.5,-0.5"/>
                </g>
                <g id="arrowDown" xlink:href="#dirArrow" transform="rotate(180) translate(-30 -48)" onmousedown="handlePan(0,1)">
                  <use xlink:href="#rim" fill="#404040">
                        <set attributeName="fill" to="#808080" begin="arrowDown.mouseover" end="arrowDown.mouseout"/>
                  </use>
                  <path fill="none" stroke="white" stroke-width="1.5" d="M0,-3.0v7 M-2.5,-0.5L0,-3.0L2.5,-0.5"/>
                </g>
                <g id="arrowLeft" xlink:href="#dirArrow" transform="rotate(270) translate(-36 17)" onmousedown="handlePan(-1,0)">
                  <use xlink:href="#rim" fill="#404040">
                        <set attributeName="fill" to="#808080" begin="arrowLeft.mouseover" end="arrowLeft.mouseout"/>
                  </use>
                  <path fill="none" stroke="white" stroke-width="1.5" d="M0,-3.0v7 M-2.5,-0.5L0,-3.0L2.5,-0.5"/>
                </g>
        </g>
        <svg viewBox="0 0 15 15" width="100%" height="30px" preserveAspectRatio="xMaxYMin meet">
         <g id="arrow_out" transform="scale(0.3 0.3)">
          <a xlink:href="classlug_1_1Graphics_1_1Vulkan_1_1API_1_1Builder_1_1GraphicsPipeline__coll__graph_org.svg" target="_base">
           <rect id="button" ry="5" rx="5" y="6" x="6" height="38" width="38"
                fill="#f2f5e9" fill-opacity="0.5" stroke="#606060" stroke-width="1.0"/>
           <path id="arrow"
             d="M 11.500037,31.436501 C 11.940474,20.09759 22.043105,11.32322 32.158766,21.979434 L 37.068811,17.246167 C 37.068811,17.246167 37.088388,32 37.088388,32 L 22.160133,31.978069 C 22.160133,31.978069 26.997745,27.140456 26.997745,27.140456 C 18.528582,18.264221 13.291696,25.230495 11.500037,31.436501 z"
             style="fill:#404040;"/>
          </a>
         </g>
        </svg>
</svg>
