<?xml version="1.0" encoding="UTF-8" standalone="no"?>
<!DOCTYPE svg PUBLIC "-//W3C//DTD SVG 1.1//EN"
 "http://www.w3.org/Graphics/SVG/1.1/DTD/svg11.dtd">
<!-- Generated by graphviz version 2.40.1 (20161225.0304)
 -->
<!-- Title: lug::System::NotImplementedException Pages: 1 -->
<svg width="264pt" height="207pt"
 viewBox="0.00 0.00 263.50 207.00" xmlns="http://www.w3.org/2000/svg" xmlns:xlink="http://www.w3.org/1999/xlink">
<g id="graph0" class="graph" transform="scale(1 1) rotate(0) translate(4 203)">
<title>lug::System::NotImplementedException</title>
<!-- Node3 -->
<g id="node1" class="node">
<title>Node3</title>
<polygon fill="#bfbfbf" stroke="#000000" points="50.5,-.5 50.5,-30.5 220.5,-30.5 220.5,-.5 50.5,-.5"/>
<text text-anchor="start" x="58.5" y="-18.5" font-family="Helvetica,sans-Serif" font-size="10.00" fill="#000000">lug::System::NotImplemented</text>
<text text-anchor="middle" x="135.5" y="-7.5" font-family="Helvetica,sans-Serif" font-size="10.00" fill="#000000">Exception</text>
</g>
<!-- Node4 -->
<g id="node2" class="node">
<title>Node4</title>
<g id="a_node2"><a xlink:href="classlug_1_1System_1_1Exception.html" target="_top" xlink:title="lug::System::Exception">
<polygon fill="none" stroke="#000000" points="68,-68.5 68,-87.5 203,-87.5 203,-68.5 68,-68.5"/>
<text text-anchor="middle" x="135.5" y="-75.5" font-family="Helvetica,sans-Serif" font-size="10.00" fill="#000000">lug::System::Exception</text>
</a>
</g>
</g>
<!-- Node4&#45;&gt;Node3 -->
<g id="edge1" class="edge">
<title>Node4&#45;&gt;Node3</title>
<path fill="none" stroke="#191970" d="M135.5,-58.0501C135.5,-49.2205 135.5,-39.0001 135.5,-30.7892"/>
<polygon fill="#191970" stroke="#191970" points="132.0001,-58.2343 135.5,-68.2344 139.0001,-58.2344 132.0001,-58.2343"/>
</g>
<!-- Node5 -->
<g id="node3" class="node">
<title>Node5</title>
<polygon fill="none" stroke="#bfbfbf" points="0,-179.5 0,-198.5 89,-198.5 89,-179.5 0,-179.5"/>
<text text-anchor="middle" x="44.5" y="-186.5" font-family="Helvetica,sans-Serif" font-size="10.00" fill="#000000">std::exception</text>
</g>
<!-- Node5&#45;&gt;Node4 -->
<g id="edge2" class="edge">
<title>Node5&#45;&gt;Node4</title>
<path fill="none" stroke="#191970" d="M59.0277,-171.2793C78.4694,-147.5648 112.2722,-106.3329 127.5724,-87.6699"/>
<polygon fill="#191970" stroke="#191970" points="56.209,-169.1971 52.5756,-179.1495 61.6223,-173.6351 56.209,-169.1971"/>
</g>
<!-- Node6 -->
<g id="node4" class="node">
<title>Node6</title>
<polygon fill="none" stroke="#bfbfbf" points="107,-179.5 107,-198.5 164,-198.5 164,-179.5 107,-179.5"/>
<text text-anchor="middle" x="135.5" y="-186.5" font-family="Helvetica,sans-Serif" font-size="10.00" fill="#000000">uint32_t</text>
</g>
<!-- Node6&#45;&gt;Node4 -->
<g id="edge3" class="edge">
<title>Node6&#45;&gt;Node4</title>
<path fill="none" stroke="#9a32cd" stroke-dasharray="5,2" d="M135.5,-169.0467C135.5,-145.0543 135.5,-105.7599 135.5,-87.6699"/>
<polygon fill="#9a32cd" stroke="#9a32cd" points="132.0001,-169.1495 135.5,-179.1495 139.0001,-169.1495 132.0001,-169.1495"/>
<text text-anchor="middle" x="149.5" y="-131" font-family="Helvetica,sans-Serif" font-size="10.00" fill="#000000"> _line</text>
</g>
<!-- Node7 -->
<g id="node5" class="node">
<title>Node7</title>
<polygon fill="none" stroke="#bfbfbf" points="182,-179.5 182,-198.5 227,-198.5 227,-179.5 182,-179.5"/>
<text text-anchor="middle" x="204.5" y="-186.5" font-family="Helvetica,sans-Serif" font-size="10.00" fill="#000000">string</text>
</g>
<!-- Node7&#45;&gt;Node4 -->
<g id="edge4" class="edge">
<title>Node7&#45;&gt;Node4</title>
<path fill="none" stroke="#9a32cd" stroke-dasharray="5,2" d="M198.5298,-169.5767C192.5007,-151.9063 182.0052,-125.6597 167.5,-106 162.3284,-98.9906 155.1255,-92.494 148.8627,-87.5267"/>
<polygon fill="#9a32cd" stroke="#9a32cd" points="195.282,-170.9074 201.7025,-179.3352 201.939,-168.743 195.282,-170.9074"/>
<text text-anchor="middle" x="225" y="-153" font-family="Helvetica,sans-Serif" font-size="10.00" fill="#000000"> _fullDesc</text>
<text text-anchor="middle" x="225" y="-142" font-family="Helvetica,sans-Serif" font-size="10.00" fill="#000000">_function</text>
<text text-anchor="middle" x="225" y="-131" font-family="Helvetica,sans-Serif" font-size="10.00" fill="#000000">_file</text>
<text text-anchor="middle" x="225" y="-120" font-family="Helvetica,sans-Serif" font-size="10.00" fill="#000000">_description</text>
<text text-anchor="middle" x="225" y="-109" font-family="Helvetica,sans-Serif" font-size="10.00" fill="#000000">_typeName</text>
</g>
</g>
</svg>
