<?xml version="1.0" encoding="UTF-8" standalone="no"?>
<!DOCTYPE svg PUBLIC "-//W3C//DTD SVG 1.1//EN"
 "http://www.w3.org/Graphics/SVG/1.1/DTD/svg11.dtd">
<!-- Generated by graphviz version 2.40.1 (20161225.0304)
 -->
<!-- Title: lug::Graphics::Vulkan::API::ImageView Pages: 1 -->
<!--zoomable 464 -->
<svg id="main" version="1.1" xmlns="http://www.w3.org/2000/svg" xmlns:xlink="http://www.w3.org/1999/xlink" xml:space="preserve" onload="init(evt)">
<style type="text/css"><![CDATA[
.edge:hover path { stroke: red; }
.edge:hover polygon { stroke: red; fill: red; }
]]></style>
<script type="text/javascript"><![CDATA[
var edges = document.getElementsByTagName('g');
if (edges && edges.length) {
  for (var i=0;i<edges.length;i++) {
    if (edges[i].id.substr(0,4)=='edge') {
      edges[i].setAttribute('class','edge');
    }
  }
}
]]></script>
        <defs>
                <circle id="rim" cx="0" cy="0" r="7"/>
                <circle id="rim2" cx="0" cy="0" r="3.5"/>
                <g id="zoomPlus">
                        <use xlink:href="#rim" fill="#404040">
                                <set attributeName="fill" to="#808080" begin="zoomplus.mouseover" end="zoomplus.mouseout"/>
                        </use>
                        <path d="M-4,0h8M0,-4v8" fill="none" stroke="white" stroke-width="1.5" pointer-events="none"/>
                </g>
                <g id="zoomMin">
                        <use xlink:href="#rim" fill="#404040">
                                <set attributeName="fill" to="#808080" begin="zoomminus.mouseover" end="zoomminus.mouseout"/>
                        </use>
                        <path d="M-4,0h8" fill="none" stroke="white" stroke-width="1.5" pointer-events="none"/>
                </g>
                <g id="dirArrow">
                        <path fill="none" stroke="white" stroke-width="1.5" d="M0,-3.0v7 M-2.5,-0.5L0,-3.0L2.5,-0.5"/>
                </g>
               <g id="resetDef">
                       <use xlink:href="#rim2" fill="#404040">
                               <set attributeName="fill" to="#808080" begin="reset.mouseover" end="reset.mouseout"/>
                       </use>
               </g>
        </defs>

<script type="text/javascript">
var viewWidth = 1809;
var viewHeight = 464;
var sectionId = 'dynsection-0';
</script>
<script xlink:href="svgpan.js"/>
<svg id="graph" class="graph">
<g id="viewport">
<title>lug::Graphics::Vulkan::API::ImageView</title>
<!-- Node1 -->
<g id="node1" class="node">
<title>Node1</title>
<polygon fill="#bfbfbf" stroke="#000000" points="1674,-236.1838 1674,-266.1838 1801,-266.1838 1801,-236.1838 1674,-236.1838"/>
<text text-anchor="start" x="1682" y="-254.1838" font-family="Helvetica,sans-Serif" font-size="10.00" fill="#000000">lug::Graphics::Vulkan</text>
<text text-anchor="middle" x="1737.5" y="-243.1838" font-family="Helvetica,sans-Serif" font-size="10.00" fill="#000000">::API::ImageView</text>
</g>
<!-- Node2 -->
<g id="node2" class="node">
<title>Node2</title>
<polygon fill="none" stroke="#bfbfbf" points="1467,-285.6838 1467,-304.6838 1552,-304.6838 1552,-285.6838 1467,-285.6838"/>
<text text-anchor="middle" x="1509.5" y="-292.6838" font-family="Helvetica,sans-Serif" font-size="10.00" fill="#000000">VkImageView</text>
</g>
<!-- Node2&#45;&gt;Node1 -->
<g id="edge1" class="edge">
<title>Node2&#45;&gt;Node1</title>
<path fill="none" stroke="#9a32cd" stroke-dasharray="5,2" d="M1562.1202,-285.029C1595.4468,-278.5976 1638.7451,-270.2418 1673.981,-263.4419"/>
<polygon fill="#9a32cd" stroke="#9a32cd" points="1561.2732,-281.6278 1552.1176,-286.9594 1562.5997,-288.501 1561.2732,-281.6278"/>
<text text-anchor="middle" x="1623.5" y="-281.1838" font-family="Helvetica,sans-Serif" font-size="10.00" fill="#000000"> _imageView</text>
</g>
<!-- Node3 -->
<g id="node3" class="node">
<title>Node3</title>
<g id="a_node3"><a xlink:href="classlug_1_1Graphics_1_1Vulkan_1_1API_1_1Device.html" target="_top" xlink:title="lug::Graphics::Vulkan\l::API::Device">
<polygon fill="none" stroke="#000000" points="931,-82.1838 931,-112.1838 1058,-112.1838 1058,-82.1838 931,-82.1838"/>
<text text-anchor="start" x="939" y="-100.1838" font-family="Helvetica,sans-Serif" font-size="10.00" fill="#000000">lug::Graphics::Vulkan</text>
<text text-anchor="middle" x="994.5" y="-89.1838" font-family="Helvetica,sans-Serif" font-size="10.00" fill="#000000">::API::Device</text>
</a>
</g>
</g>
<!-- Node3&#45;&gt;Node1 -->
<g id="edge2" class="edge">
<title>Node3&#45;&gt;Node1</title>
<path fill="none" stroke="#9a32cd" stroke-dasharray="5,2" d="M1044.6179,-79.2615C1054.8722,-76.3201 1065.6847,-73.7303 1076,-72.1838 1230.7459,-48.9833 1277.829,-35.2155 1428,-79.1838 1547.1717,-114.0759 1670.9763,-200.9945 1717.9039,-236.1108"/>
<polygon fill="#9a32cd" stroke="#9a32cd" points="1043.5542,-75.9265 1034.9921,-82.1667 1045.5769,-82.6279 1043.5542,-75.9265"/>
<text text-anchor="middle" x="1381" y="-82.1838" font-family="Helvetica,sans-Serif" font-size="10.00" fill="#000000"> _device</text>
</g>
<!-- Node18 -->
<g id="node18" class="node">
<title>Node18</title>
<g id="a_node18"><a xlink:href="classlug_1_1Graphics_1_1Vulkan_1_1API_1_1Image.html" target="_top" xlink:title="lug::Graphics::Vulkan\l::API::Image">
<polygon fill="none" stroke="#000000" points="1446,-236.1838 1446,-266.1838 1573,-266.1838 1573,-236.1838 1446,-236.1838"/>
<text text-anchor="start" x="1454" y="-254.1838" font-family="Helvetica,sans-Serif" font-size="10.00" fill="#000000">lug::Graphics::Vulkan</text>
<text text-anchor="middle" x="1509.5" y="-243.1838" font-family="Helvetica,sans-Serif" font-size="10.00" fill="#000000">::API::Image</text>
</a>
</g>
</g>
<!-- Node3&#45;&gt;Node18 -->
<g id="edge24" class="edge">
<title>Node3&#45;&gt;Node18</title>
<path fill="none" stroke="#9a32cd" stroke-dasharray="5,2" d="M1068.2685,-83.5696C1161.0438,-70.7108 1321.1052,-63.1338 1428,-138.1838 1464.6232,-163.8966 1490.8763,-211.4586 1502.6216,-235.8628"/>
<polygon fill="#9a32cd" stroke="#9a32cd" points="1067.5221,-80.141 1058.1248,-85.034 1068.5223,-87.0692 1067.5221,-80.141"/>
<text text-anchor="middle" x="1246.5" y="-92.1838" font-family="Helvetica,sans-Serif" font-size="10.00" fill="#000000"> _device</text>
</g>
<!-- Node27 -->
<g id="node27" class="node">
<title>Node27</title>
<g id="a_node27"><a xlink:href="classlug_1_1Graphics_1_1Vulkan_1_1API_1_1DeviceMemory.html" target="_top" xlink:title="lug::Graphics::Vulkan\l::API::DeviceMemory">
<polygon fill="none" stroke="#000000" points="1183,-165.1838 1183,-195.1838 1310,-195.1838 1310,-165.1838 1183,-165.1838"/>
<text text-anchor="start" x="1191" y="-183.1838" font-family="Helvetica,sans-Serif" font-size="10.00" fill="#000000">lug::Graphics::Vulkan</text>
<text text-anchor="middle" x="1246.5" y="-172.1838" font-family="Helvetica,sans-Serif" font-size="10.00" fill="#000000">::API::DeviceMemory</text>
</a>
</g>
</g>
<!-- Node3&#45;&gt;Node27 -->
<g id="edge28" class="edge">
<title>Node3&#45;&gt;Node27</title>
<path fill="none" stroke="#9a32cd" stroke-dasharray="5,2" d="M1049.7938,-115.3957C1095.0617,-130.3053 1158.3344,-151.1452 1200.7791,-165.125"/>
<polygon fill="#9a32cd" stroke="#9a32cd" points="1050.7283,-112.0186 1040.1353,-112.2145 1048.5384,-118.6672 1050.7283,-112.0186"/>
<text text-anchor="middle" x="1117.5" y="-153.1838" font-family="Helvetica,sans-Serif" font-size="10.00" fill="#000000"> _device</text>
</g>
<!-- Node4 -->
<g id="node4" class="node">
<title>Node4</title>
<g id="a_node4"><a xlink:href="structlug_1_1Graphics_1_1Vulkan_1_1PhysicalDeviceInfo.html" target="_top" xlink:title="lug::Graphics::Vulkan\l::PhysicalDeviceInfo">
<polygon fill="none" stroke="#000000" points="642.5,-131.1838 642.5,-161.1838 769.5,-161.1838 769.5,-131.1838 642.5,-131.1838"/>
<text text-anchor="start" x="650.5" y="-149.1838" font-family="Helvetica,sans-Serif" font-size="10.00" fill="#000000">lug::Graphics::Vulkan</text>
<text text-anchor="middle" x="706" y="-138.1838" font-family="Helvetica,sans-Serif" font-size="10.00" fill="#000000">::PhysicalDeviceInfo</text>
</a>
</g>
</g>
<!-- Node4&#45;&gt;Node3 -->
<g id="edge3" class="edge">
<title>Node4&#45;&gt;Node3</title>
<path fill="none" stroke="#9a32cd" stroke-dasharray="5,2" d="M780.0102,-134.3812C819.5121,-127.9924 868.937,-119.8567 913,-112.1838 918.8112,-111.1719 924.8515,-110.0993 930.8984,-109.0116"/>
<polygon fill="#9a32cd" stroke="#9a32cd" points="779.2445,-130.9594 769.9301,-136.0084 780.3601,-137.8699 779.2445,-130.9594"/>
<text text-anchor="middle" x="861" y="-132.1838" font-family="Helvetica,sans-Serif" font-size="10.00" fill="#000000"> _physicalDeviceInfo</text>
</g>
<!-- Node5 -->
<g id="node5" class="node">
<title>Node5</title>
<g id="a_node5"><a xlink:href="structlug_1_1Graphics_1_1Vulkan_1_1PhysicalDeviceInfo_1_1Swapchain.html" target="_top" xlink:title="lug::Graphics::Vulkan\l::PhysicalDeviceInfo\l::Swapchain">
<polygon fill="none" stroke="#000000" points="324.5,-281.6838 324.5,-322.6838 451.5,-322.6838 451.5,-281.6838 324.5,-281.6838"/>
<text text-anchor="start" x="332.5" y="-310.6838" font-family="Helvetica,sans-Serif" font-size="10.00" fill="#000000">lug::Graphics::Vulkan</text>
<text text-anchor="start" x="332.5" y="-299.6838" font-family="Helvetica,sans-Serif" font-size="10.00" fill="#000000">::PhysicalDeviceInfo</text>
<text text-anchor="middle" x="388" y="-288.6838" font-family="Helvetica,sans-Serif" font-size="10.00" fill="#000000">::Swapchain</text>
</a>
</g>
</g>
<!-- Node5&#45;&gt;Node4 -->
<g id="edge4" class="edge">
<title>Node5&#45;&gt;Node4</title>
<path fill="none" stroke="#9a32cd" stroke-dasharray="5,2" d="M461.6295,-290.6788C504.7948,-281.782 559.2582,-266.7196 603,-242.1838 641.1623,-220.7777 676.3144,-182.3716 694.0081,-161.2046"/>
<polygon fill="#9a32cd" stroke="#9a32cd" points="460.881,-287.259 451.7585,-292.6471 462.2499,-294.1239 460.881,-287.259"/>
<text text-anchor="middle" x="554.5" y="-282.1838" font-family="Helvetica,sans-Serif" font-size="10.00" fill="#000000"> swapchain</text>
</g>
<!-- Node6 -->
<g id="node6" class="node">
<title>Node6</title>
<polygon fill="none" stroke="#bfbfbf" points="16.5,-330.6838 16.5,-349.6838 162.5,-349.6838 162.5,-330.6838 16.5,-330.6838"/>
<text text-anchor="middle" x="89.5" y="-337.6838" font-family="Helvetica,sans-Serif" font-size="10.00" fill="#000000">VkSurfaceCapabilitiesKHR</text>
</g>
<!-- Node6&#45;&gt;Node5 -->
<g id="edge5" class="edge">
<title>Node6&#45;&gt;Node5</title>
<path fill="none" stroke="#9a32cd" stroke-dasharray="5,2" d="M172.5828,-329.6071C220.5932,-323.4952 280.0566,-315.9254 324.3375,-310.2882"/>
<polygon fill="#9a32cd" stroke="#9a32cd" points="171.9992,-326.1531 162.5213,-330.888 172.8833,-333.097 171.9992,-326.1531"/>
<text text-anchor="middle" x="233.5" y="-328.1838" font-family="Helvetica,sans-Serif" font-size="10.00" fill="#000000"> capabilities</text>
</g>
<!-- Node7 -->
<g id="node7" class="node">
<title>Node7</title>
<polygon fill="none" stroke="#bfbfbf" points="0,-292.6838 0,-311.6838 179,-311.6838 179,-292.6838 0,-292.6838"/>
<text text-anchor="middle" x="89.5" y="-299.6838" font-family="Helvetica,sans-Serif" font-size="10.00" fill="#000000">vector&lt; VkSurfaceFormatKHR &gt;</text>
</g>
<!-- Node7&#45;&gt;Node5 -->
<g id="edge6" class="edge">
<title>Node7&#45;&gt;Node5</title>
<path fill="none" stroke="#9a32cd" stroke-dasharray="5,2" d="M189.3241,-302.1838C233.799,-302.1838 284.8747,-302.1838 324.1016,-302.1838"/>
<polygon fill="#9a32cd" stroke="#9a32cd" points="189.0599,-298.6839 179.0598,-302.1838 189.0598,-305.6839 189.0599,-298.6839"/>
<text text-anchor="middle" x="233.5" y="-305.1838" font-family="Helvetica,sans-Serif" font-size="10.00" fill="#000000"> formats</text>
</g>
<!-- Node8 -->
<g id="node8" class="node">
<title>Node8</title>
<polygon fill="none" stroke="#bfbfbf" points="4.5,-254.6838 4.5,-273.6838 174.5,-273.6838 174.5,-254.6838 4.5,-254.6838"/>
<text text-anchor="middle" x="89.5" y="-261.6838" font-family="Helvetica,sans-Serif" font-size="10.00" fill="#000000">vector&lt; VkPresentModeKHR &gt;</text>
</g>
<!-- Node8&#45;&gt;Node5 -->
<g id="edge7" class="edge">
<title>Node8&#45;&gt;Node5</title>
<path fill="none" stroke="#9a32cd" stroke-dasharray="5,2" d="M174.4265,-274.9952C222.0428,-281.0569 280.4605,-288.4937 324.1567,-294.0564"/>
<polygon fill="#9a32cd" stroke="#9a32cd" points="174.8008,-271.5147 164.4389,-273.7238 173.9168,-278.4587 174.8008,-271.5147"/>
<text text-anchor="middle" x="233.5" y="-289.1838" font-family="Helvetica,sans-Serif" font-size="10.00" fill="#000000"> presentModes</text>
</g>
<!-- Node9 -->
<g id="node9" class="node">
<title>Node9</title>
<polygon fill="none" stroke="#bfbfbf" points="308.5,-232.1838 308.5,-262.1838 467.5,-262.1838 467.5,-232.1838 308.5,-232.1838"/>
<text text-anchor="start" x="316.5" y="-250.1838" font-family="Helvetica,sans-Serif" font-size="10.00" fill="#000000">unordered_map&lt; VkFormat,</text>
<text text-anchor="middle" x="388" y="-239.1838" font-family="Helvetica,sans-Serif" font-size="10.00" fill="#000000"> VkFormatProperties &gt;</text>
</g>
<!-- Node9&#45;&gt;Node4 -->
<g id="edge8" class="edge">
<title>Node9&#45;&gt;Node4</title>
<path fill="none" stroke="#9a32cd" stroke-dasharray="5,2" d="M477.7382,-234.4273C516.9352,-227.3278 562.9918,-216.8857 603,-202.1838 631.8484,-191.5828 662.5,-174.0044 682.7908,-161.368"/>
<polygon fill="#9a32cd" stroke="#9a32cd" points="476.9054,-231.0201 467.6664,-236.2059 478.1227,-237.9135 476.9054,-231.0201"/>
<text text-anchor="middle" x="554.5" y="-230.1838" font-family="Helvetica,sans-Serif" font-size="10.00" fill="#000000"> formatProperties</text>
</g>
<!-- Node10 -->
<g id="node10" class="node">
<title>Node10</title>
<polygon fill="none" stroke="#bfbfbf" points="315,-193.6838 315,-212.6838 461,-212.6838 461,-193.6838 315,-193.6838"/>
<text text-anchor="middle" x="388" y="-200.6838" font-family="Helvetica,sans-Serif" font-size="10.00" fill="#000000">VkPhysicalDeviceFeatures</text>
</g>
<!-- Node10&#45;&gt;Node4 -->
<g id="edge9" class="edge">
<title>Node10&#45;&gt;Node4</title>
<path fill="none" stroke="#9a32cd" stroke-dasharray="5,2" d="M471.4332,-193.2091C511.4044,-187.907 559.8563,-180.7154 603,-172.1838 618.65,-169.089 635.4836,-165.1172 650.9141,-161.2144"/>
<polygon fill="#9a32cd" stroke="#9a32cd" points="470.9225,-189.746 461.4622,-194.516 471.8322,-196.6866 470.9225,-189.746"/>
<text text-anchor="middle" x="554.5" y="-190.1838" font-family="Helvetica,sans-Serif" font-size="10.00" fill="#000000"> features</text>
</g>
<!-- Node11 -->
<g id="node11" class="node">
<title>Node11</title>
<polygon fill="none" stroke="#bfbfbf" points="288,-155.6838 288,-174.6838 488,-174.6838 488,-155.6838 288,-155.6838"/>
<text text-anchor="middle" x="388" y="-162.6838" font-family="Helvetica,sans-Serif" font-size="10.00" fill="#000000">vector&lt; VkQueueFamilyProperties &gt;</text>
</g>
<!-- Node11&#45;&gt;Node4 -->
<g id="edge10" class="edge">
<title>Node11&#45;&gt;Node4</title>
<path fill="none" stroke="#9a32cd" stroke-dasharray="5,2" d="M498.3415,-158.5911C546.4596,-155.7161 601.1572,-152.448 642.3325,-149.9878"/>
<polygon fill="#9a32cd" stroke="#9a32cd" points="497.9541,-155.1079 488.1807,-159.1982 498.3717,-162.0954 497.9541,-155.1079"/>
<text text-anchor="middle" x="554.5" y="-160.1838" font-family="Helvetica,sans-Serif" font-size="10.00" fill="#000000"> queueFamilies</text>
</g>
<!-- Node12 -->
<g id="node12" class="node">
<title>Node12</title>
<polygon fill="none" stroke="#bfbfbf" points="290.5,-117.6838 290.5,-136.6838 485.5,-136.6838 485.5,-117.6838 290.5,-117.6838"/>
<text text-anchor="middle" x="388" y="-124.6838" font-family="Helvetica,sans-Serif" font-size="10.00" fill="#000000">VkPhysicalDeviceMemoryProperties</text>
</g>
<!-- Node12&#45;&gt;Node4 -->
<g id="edge11" class="edge">
<title>Node12&#45;&gt;Node4</title>
<path fill="none" stroke="#9a32cd" stroke-dasharray="5,2" d="M495.751,-131.3357C530.0489,-132.8876 568.1331,-134.8506 603,-137.1838 615.7161,-138.0347 629.3015,-139.1059 642.2958,-140.2098"/>
<polygon fill="#9a32cd" stroke="#9a32cd" points="495.8574,-127.837 485.7115,-130.8881 495.5457,-134.8301 495.8574,-127.837"/>
<text text-anchor="middle" x="554.5" y="-140.1838" font-family="Helvetica,sans-Serif" font-size="10.00" fill="#000000"> memoryProperties</text>
</g>
<!-- Node13 -->
<g id="node13" class="node">
<title>Node13</title>
<polygon fill="none" stroke="#bfbfbf" points="336,-79.6838 336,-98.6838 440,-98.6838 440,-79.6838 336,-79.6838"/>
<text text-anchor="middle" x="388" y="-86.6838" font-family="Helvetica,sans-Serif" font-size="10.00" fill="#000000">VkPhysicalDevice</text>
</g>
<!-- Node13&#45;&gt;Node4 -->
<g id="edge12" class="edge">
<title>Node13&#45;&gt;Node4</title>
<path fill="none" stroke="#9a32cd" stroke-dasharray="5,2" d="M450.2805,-93.7412C493.51,-97.6971 552.2261,-104.6516 603,-116.1838 611.2233,-118.0516 612.9401,-119.7041 621,-122.1838 630.6729,-125.1598 641.008,-128.1965 651.0208,-131.0648"/>
<polygon fill="#9a32cd" stroke="#9a32cd" points="450.4643,-90.2439 440.1942,-92.8468 449.8459,-97.2165 450.4643,-90.2439"/>
<text text-anchor="middle" x="554.5" y="-119.1838" font-family="Helvetica,sans-Serif" font-size="10.00" fill="#000000"> handle</text>
</g>
<!-- Node14 -->
<g id="node14" class="node">
<title>Node14</title>
<polygon fill="none" stroke="#bfbfbf" points="310.5,-41.6838 310.5,-60.6838 465.5,-60.6838 465.5,-41.6838 310.5,-41.6838"/>
<text text-anchor="middle" x="388" y="-48.6838" font-family="Helvetica,sans-Serif" font-size="10.00" fill="#000000">VkPhysicalDeviceProperties</text>
</g>
<!-- Node14&#45;&gt;Node4 -->
<g id="edge13" class="edge">
<title>Node14&#45;&gt;Node4</title>
<path fill="none" stroke="#9a32cd" stroke-dasharray="5,2" d="M475.8296,-46.9826C517.9094,-49.2009 566.8779,-58.4334 603,-85.1838 617.6961,-96.0671 606.9733,-110.4505 621,-122.1838 627.2336,-127.3982 634.5294,-131.4822 642.1803,-134.6804"/>
<polygon fill="#9a32cd" stroke="#9a32cd" points="475.7048,-43.4749 465.5725,-46.5711 475.4241,-50.4693 475.7048,-43.4749"/>
<text text-anchor="middle" x="554.5" y="-88.1838" font-family="Helvetica,sans-Serif" font-size="10.00" fill="#000000"> properties</text>
</g>
<!-- Node15 -->
<g id="node15" class="node">
<title>Node15</title>
<polygon fill="none" stroke="#bfbfbf" points="296,-3.6838 296,-22.6838 480,-22.6838 480,-3.6838 296,-3.6838"/>
<text text-anchor="middle" x="388" y="-10.6838" font-family="Helvetica,sans-Serif" font-size="10.00" fill="#000000">vector&lt; VkExtensionProperties &gt;</text>
</g>
<!-- Node15&#45;&gt;Node4 -->
<g id="edge14" class="edge">
<title>Node15&#45;&gt;Node4</title>
<path fill="none" stroke="#9a32cd" stroke-dasharray="5,2" d="M445.8399,-2.3983C493.9201,3.0143 561.0321,1.7934 603,-36.1838 631.9552,-62.3857 594.3541,-93.6367 621,-122.1838 626.8593,-128.4612 634.2225,-133.1406 642.1513,-136.6209"/>
<polygon fill="#9a32cd" stroke="#9a32cd" points="445.3733,1.0707 435.8849,-3.6431 446.2419,-5.8752 445.3733,1.0707"/>
<text text-anchor="middle" x="554.5" y="-39.1838" font-family="Helvetica,sans-Serif" font-size="10.00" fill="#000000"> extensions</text>
</g>
<!-- Node16 -->
<g id="node16" class="node">
<title>Node16</title>
<polygon fill="none" stroke="#bfbfbf" points="621,-82.1838 621,-112.1838 791,-112.1838 791,-82.1838 621,-82.1838"/>
<text text-anchor="start" x="629" y="-100.1838" font-family="Helvetica,sans-Serif" font-size="10.00" fill="#000000">vector&lt; lug::Graphics</text>
<text text-anchor="middle" x="706" y="-89.1838" font-family="Helvetica,sans-Serif" font-size="10.00" fill="#000000">::Vulkan::API::QueueFamily &gt;</text>
</g>
<!-- Node16&#45;&gt;Node3 -->
<g id="edge15" class="edge">
<title>Node16&#45;&gt;Node3</title>
<path fill="none" stroke="#9a32cd" stroke-dasharray="5,2" d="M801.4818,-97.1838C843.9993,-97.1838 892.9233,-97.1838 930.8771,-97.1838"/>
<polygon fill="#9a32cd" stroke="#9a32cd" points="801.3886,-93.6839 791.3885,-97.1838 801.3885,-100.6839 801.3886,-93.6839"/>
<text text-anchor="middle" x="861" y="-100.1838" font-family="Helvetica,sans-Serif" font-size="10.00" fill="#000000"> _queueFamilies</text>
</g>
<!-- Node17 -->
<g id="node17" class="node">
<title>Node17</title>
<polygon fill="none" stroke="#bfbfbf" points="674.5,-43.6838 674.5,-62.6838 737.5,-62.6838 737.5,-43.6838 674.5,-43.6838"/>
<text text-anchor="middle" x="706" y="-50.6838" font-family="Helvetica,sans-Serif" font-size="10.00" fill="#000000">VkDevice</text>
</g>
<!-- Node17&#45;&gt;Node3 -->
<g id="edge16" class="edge">
<title>Node17&#45;&gt;Node3</title>
<path fill="none" stroke="#9a32cd" stroke-dasharray="5,2" d="M747.7219,-58.4954C789.5836,-63.9502 855.8703,-72.929 913,-82.1838 918.8227,-83.1271 924.8709,-84.153 930.9228,-85.2108"/>
<polygon fill="#9a32cd" stroke="#9a32cd" points="747.9928,-55.0013 737.6257,-57.1865 747.0927,-61.9432 747.9928,-55.0013"/>
<text text-anchor="middle" x="861" y="-85.1838" font-family="Helvetica,sans-Serif" font-size="10.00" fill="#000000"> _device</text>
</g>
<!-- Node18&#45;&gt;Node1 -->
<g id="edge17" class="edge">
<title>Node18&#45;&gt;Node1</title>
<path fill="none" stroke="#9a32cd" stroke-dasharray="5,2" d="M1583.1747,-251.1838C1612.4324,-251.1838 1645.7579,-251.1838 1673.9348,-251.1838"/>
<polygon fill="#9a32cd" stroke="#9a32cd" points="1583.0107,-247.6839 1573.0107,-251.1838 1583.0107,-254.6839 1583.0107,-247.6839"/>
<text text-anchor="middle" x="1623.5" y="-254.1838" font-family="Helvetica,sans-Serif" font-size="10.00" fill="#000000"> _image</text>
</g>
<!-- Node19 -->
<g id="node19" class="node">
<title>Node19</title>
<polygon fill="none" stroke="#bfbfbf" points="1177,-425.6838 1177,-444.6838 1316,-444.6838 1316,-425.6838 1177,-425.6838"/>
<text text-anchor="middle" x="1246.5" y="-432.6838" font-family="Helvetica,sans-Serif" font-size="10.00" fill="#000000">VkMemoryRequirements</text>
</g>
<!-- Node19&#45;&gt;Node18 -->
<g id="edge18" class="edge">
<title>Node19&#45;&gt;Node18</title>
<path fill="none" stroke="#9a32cd" stroke-dasharray="5,2" d="M1311.8749,-445.4382C1350.7662,-447.6035 1398.1832,-442.7035 1428,-413.1838 1471.6419,-369.9768 1408.1928,-324.5788 1446,-276.1838 1448.9905,-272.3558 1452.6519,-269.1127 1456.6926,-266.3654"/>
<polygon fill="#9a32cd" stroke="#9a32cd" points="1311.8979,-441.9309 1301.6717,-444.7011 1311.3934,-448.9127 1311.8979,-441.9309"/>
<text text-anchor="middle" x="1381" y="-448.1838" font-family="Helvetica,sans-Serif" font-size="10.00" fill="#000000"> _requirements</text>
</g>
<!-- Node20 -->
<g id="node20" class="node">
<title>Node20</title>
<polygon fill="none" stroke="#bfbfbf" points="1214,-387.6838 1214,-406.6838 1279,-406.6838 1279,-387.6838 1214,-387.6838"/>
<text text-anchor="middle" x="1246.5" y="-394.6838" font-family="Helvetica,sans-Serif" font-size="10.00" fill="#000000">VkFormat</text>
</g>
<!-- Node20&#45;&gt;Node18 -->
<g id="edge19" class="edge">
<title>Node20&#45;&gt;Node18</title>
<path fill="none" stroke="#9a32cd" stroke-dasharray="5,2" d="M1289.2462,-401.3328C1330.4097,-402.8113 1391.6304,-397.9823 1428,-362.1838 1455.8305,-334.7903 1420.8123,-306.0254 1446,-276.1838 1449.286,-272.2906 1453.2597,-269 1457.5974,-266.2193"/>
<polygon fill="#9a32cd" stroke="#9a32cd" points="1289.4016,-397.8363 1279.2403,-400.836 1289.0545,-404.8277 1289.4016,-397.8363"/>
<text text-anchor="middle" x="1381" y="-402.1838" font-family="Helvetica,sans-Serif" font-size="10.00" fill="#000000"> _format</text>
</g>
<!-- Node21 -->
<g id="node21" class="node">
<title>Node21</title>
<g id="a_node21"><a xlink:href="structlug_1_1Graphics_1_1Vulkan_1_1API_1_1Image_1_1Extent.html" target="_top" xlink:title="lug::Graphics::Vulkan\l::API::Image::Extent">
<polygon fill="none" stroke="#000000" points="1183,-338.1838 1183,-368.1838 1310,-368.1838 1310,-338.1838 1183,-338.1838"/>
<text text-anchor="start" x="1191" y="-356.1838" font-family="Helvetica,sans-Serif" font-size="10.00" fill="#000000">lug::Graphics::Vulkan</text>
<text text-anchor="middle" x="1246.5" y="-345.1838" font-family="Helvetica,sans-Serif" font-size="10.00" fill="#000000">::API::Image::Extent</text>
</a>
</g>
</g>
<!-- Node21&#45;&gt;Node18 -->
<g id="edge20" class="edge">
<title>Node21&#45;&gt;Node18</title>
<path fill="none" stroke="#9a32cd" stroke-dasharray="5,2" d="M1320.5077,-350.3163C1356.1183,-345.6096 1397.5734,-334.8758 1428,-311.1838 1441.8016,-300.4371 1433.0288,-287.9193 1446,-276.1838 1450.2172,-272.3684 1455.0853,-269.1048 1460.2121,-266.3204"/>
<polygon fill="#9a32cd" stroke="#9a32cd" points="1319.6691,-346.8909 1310.1491,-351.5406 1320.4908,-353.8425 1319.6691,-346.8909"/>
<text text-anchor="middle" x="1381" y="-350.1838" font-family="Helvetica,sans-Serif" font-size="10.00" fill="#000000"> _extent</text>
</g>
<!-- Node22 -->
<g id="node22" class="node">
<title>Node22</title>
<polygon fill="none" stroke="#bfbfbf" points="966,-343.6838 966,-362.6838 1023,-362.6838 1023,-343.6838 966,-343.6838"/>
<text text-anchor="middle" x="994.5" y="-350.6838" font-family="Helvetica,sans-Serif" font-size="10.00" fill="#000000">uint32_t</text>
</g>
<!-- Node22&#45;&gt;Node21 -->
<g id="edge21" class="edge">
<title>Node22&#45;&gt;Node21</title>
<path fill="none" stroke="#9a32cd" stroke-dasharray="5,2" d="M1033.5177,-353.1838C1073.3563,-353.1838 1135.8538,-353.1838 1182.864,-353.1838"/>
<polygon fill="#9a32cd" stroke="#9a32cd" points="1033.4076,-349.6839 1023.4076,-353.1838 1033.4076,-356.6839 1033.4076,-349.6839"/>
<text text-anchor="middle" x="1117.5" y="-367.1838" font-family="Helvetica,sans-Serif" font-size="10.00" fill="#000000"> width</text>
<text text-anchor="middle" x="1117.5" y="-356.1838" font-family="Helvetica,sans-Serif" font-size="10.00" fill="#000000">height</text>
</g>
<!-- Node23 -->
<g id="node23" class="node">
<title>Node23</title>
<polygon fill="none" stroke="#bfbfbf" points="1187,-299.6838 1187,-318.6838 1306,-318.6838 1306,-299.6838 1187,-299.6838"/>
<text text-anchor="middle" x="1246.5" y="-306.6838" font-family="Helvetica,sans-Serif" font-size="10.00" fill="#000000">VkImageAspectFlags</text>
</g>
<!-- Node23&#45;&gt;Node18 -->
<g id="edge22" class="edge">
<title>Node23&#45;&gt;Node18</title>
<path fill="none" stroke="#9a32cd" stroke-dasharray="5,2" d="M1316.5126,-299.7473C1350.4297,-294.5368 1391.6002,-287.2667 1428,-278.1838 1441.1605,-274.8999 1455.2629,-270.5389 1467.9746,-266.2816"/>
<polygon fill="#9a32cd" stroke="#9a32cd" points="1315.5988,-296.3455 1306.2328,-301.298 1316.643,-303.2672 1315.5988,-296.3455"/>
<text text-anchor="middle" x="1381" y="-299.1838" font-family="Helvetica,sans-Serif" font-size="10.00" fill="#000000"> _aspect</text>
</g>
<!-- Node24 -->
<g id="node24" class="node">
<title>Node24</title>
<polygon fill="none" stroke="#bfbfbf" points="1227.5,-261.6838 1227.5,-280.6838 1265.5,-280.6838 1265.5,-261.6838 1227.5,-261.6838"/>
<text text-anchor="middle" x="1246.5" y="-268.6838" font-family="Helvetica,sans-Serif" font-size="10.00" fill="#000000">bool</text>
</g>
<!-- Node24&#45;&gt;Node18 -->
<g id="edge23" class="edge">
<title>Node24&#45;&gt;Node18</title>
<path fill="none" stroke="#9a32cd" stroke-dasharray="5,2" d="M1275.9467,-268.9445C1316.8496,-265.834 1391.9145,-260.1257 1445.9169,-256.019"/>
<polygon fill="#9a32cd" stroke="#9a32cd" points="1275.5448,-265.4649 1265.839,-269.7132 1276.0757,-272.4447 1275.5448,-265.4649"/>
<text text-anchor="middle" x="1381" y="-266.1838" font-family="Helvetica,sans-Serif" font-size="10.00" fill="#000000"> _swapchainImage</text>
</g>
<!-- Node25 -->
<g id="node25" class="node">
<title>Node25</title>
<polygon fill="none" stroke="#bfbfbf" points="952.5,-211.6838 952.5,-230.6838 1036.5,-230.6838 1036.5,-211.6838 952.5,-211.6838"/>
<text text-anchor="middle" x="994.5" y="-218.6838" font-family="Helvetica,sans-Serif" font-size="10.00" fill="#000000">VkDeviceSize</text>
</g>
<!-- Node25&#45;&gt;Node18 -->
<g id="edge25" class="edge">
<title>Node25&#45;&gt;Node18</title>
<path fill="none" stroke="#9a32cd" stroke-dasharray="5,2" d="M1046.89,-224.2357C1142.0496,-229.7789 1342.9361,-241.4811 1445.8283,-247.4748"/>
<polygon fill="#9a32cd" stroke="#9a32cd" points="1046.8313,-220.7264 1036.6446,-223.6388 1046.4241,-227.7145 1046.8313,-220.7264"/>
<text text-anchor="middle" x="1246.5" y="-242.1838" font-family="Helvetica,sans-Serif" font-size="10.00" fill="#000000"> _deviceMemoryOffset</text>
</g>
<!-- Node25&#45;&gt;Node27 -->
<g id="edge29" class="edge">
<title>Node25&#45;&gt;Node27</title>
<path fill="none" stroke="#9a32cd" stroke-dasharray="5,2" d="M1046.7447,-212.1051C1056.4655,-210.4455 1066.5383,-208.7456 1076,-207.1838 1111.3355,-201.3513 1150.8338,-195.0807 1182.909,-190.0519"/>
<polygon fill="#9a32cd" stroke="#9a32cd" points="1046.0474,-208.6735 1036.7824,-213.8126 1047.2299,-215.5729 1046.0474,-208.6735"/>
<text text-anchor="middle" x="1117.5" y="-210.1838" font-family="Helvetica,sans-Serif" font-size="10.00" fill="#000000"> _size</text>
</g>
<!-- Node26 -->
<g id="node26" class="node">
<title>Node26</title>
<polygon fill="none" stroke="#bfbfbf" points="1216,-126.6838 1216,-145.6838 1277,-145.6838 1277,-126.6838 1216,-126.6838"/>
<text text-anchor="middle" x="1246.5" y="-133.6838" font-family="Helvetica,sans-Serif" font-size="10.00" fill="#000000">VkImage</text>
</g>
<!-- Node26&#45;&gt;Node18 -->
<g id="edge26" class="edge">
<title>Node26&#45;&gt;Node18</title>
<path fill="none" stroke="#9a32cd" stroke-dasharray="5,2" d="M1287.4316,-137.3684C1325.7455,-139.981 1383.5854,-147.8742 1428,-171.1838 1458.1963,-187.0314 1484.6067,-217.6971 1498.6874,-236.1152"/>
<polygon fill="#9a32cd" stroke="#9a32cd" points="1287.3591,-133.8581 1277.1703,-136.7631 1286.9468,-140.846 1287.3591,-133.8581"/>
<text text-anchor="middle" x="1381" y="-174.1838" font-family="Helvetica,sans-Serif" font-size="10.00" fill="#000000"> _image</text>
</g>
<!-- Node27&#45;&gt;Node18 -->
<g id="edge27" class="edge">
<title>Node27&#45;&gt;Node18</title>
<path fill="none" stroke="#9a32cd" stroke-dasharray="5,2" d="M1320.5077,-185.3284C1353.9664,-189.1349 1393.6223,-195.7396 1428,-207.1838 1448.9014,-214.1418 1470.7727,-226.2539 1486.5899,-236.0108"/>
<polygon fill="#9a32cd" stroke="#9a32cd" points="1320.6525,-181.8238 1310.3356,-184.2346 1319.9041,-188.7837 1320.6525,-181.8238"/>
<text text-anchor="middle" x="1381" y="-210.1838" font-family="Helvetica,sans-Serif" font-size="10.00" fill="#000000"> _deviceMemory</text>
</g>
<!-- Node28 -->
<g id="node28" class="node">
<title>Node28</title>
<polygon fill="none" stroke="#bfbfbf" points="942.5,-162.6838 942.5,-181.6838 1046.5,-181.6838 1046.5,-162.6838 942.5,-162.6838"/>
<text text-anchor="middle" x="994.5" y="-169.6838" font-family="Helvetica,sans-Serif" font-size="10.00" fill="#000000">VkDeviceMemory</text>
</g>
<!-- Node28&#45;&gt;Node27 -->
<g id="edge30" class="edge">
<title>Node28&#45;&gt;Node27</title>
<path fill="none" stroke="#9a32cd" stroke-dasharray="5,2" d="M1056.9045,-171.481C1087.6581,-171.4104 1125.2896,-171.7349 1159,-173.1838 1166.765,-173.5176 1174.9088,-173.9961 1182.9724,-174.5486"/>
<polygon fill="#9a32cd" stroke="#9a32cd" points="1056.7411,-167.9815 1046.7543,-171.519 1056.7674,-174.9814 1056.7411,-167.9815"/>
<text text-anchor="middle" x="1117.5" y="-176.1838" font-family="Helvetica,sans-Serif" font-size="10.00" fill="#000000"> _deviceMemory</text>
</g>
</g>
</svg>
        <g id="navigator" transform="translate(0 0)" fill="#404254">
                <rect fill="#f2f5e9" fill-opacity="0.5" stroke="#606060" stroke-width=".5" x="0" y="0" width="60" height="60"/>
                <use id="zoomplus" xlink:href="#zoomPlus" x="17" y="9" onmousedown="handleZoom(evt,'in')"/>
                <use id="zoomminus" xlink:href="#zoomMin" x="42" y="9" onmousedown="handleZoom(evt,'out')"/>
                <use id="reset" xlink:href="#resetDef" x="30" y="36" onmousedown="handleReset()"/>
                <g id="arrowUp" xlink:href="#dirArrow" transform="translate(30 24)" onmousedown="handlePan(0,-1)">
                  <use xlink:href="#rim" fill="#404040">
                        <set attributeName="fill" to="#808080" begin="arrowUp.mouseover" end="arrowUp.mouseout"/>
                  </use>
                  <path fill="none" stroke="white" stroke-width="1.5" d="M0,-3.0v7 M-2.5,-0.5L0,-3.0L2.5,-0.5"/>
                </g>
                <g id="arrowRight" xlink:href="#dirArrow" transform="rotate(90) translate(36 -43)" onmousedown="handlePan(1,0)">
                  <use xlink:href="#rim" fill="#404040">
                        <set attributeName="fill" to="#808080" begin="arrowRight.mouseover" end="arrowRight.mouseout"/>
                  </use>
                  <path fill="none" stroke="white" stroke-width="1.5" d="M0,-3.0v7 M-2.5,-0.5L0,-3.0L2.5,-0.5"/>
                </g>
                <g id="arrowDown" xlink:href="#dirArrow" transform="rotate(180) translate(-30 -48)" onmousedown="handlePan(0,1)">
                  <use xlink:href="#rim" fill="#404040">
                        <set attributeName="fill" to="#808080" begin="arrowDown.mouseover" end="arrowDown.mouseout"/>
                  </use>
                  <path fill="none" stroke="white" stroke-width="1.5" d="M0,-3.0v7 M-2.5,-0.5L0,-3.0L2.5,-0.5"/>
                </g>
                <g id="arrowLeft" xlink:href="#dirArrow" transform="rotate(270) translate(-36 17)" onmousedown="handlePan(-1,0)">
                  <use xlink:href="#rim" fill="#404040">
                        <set attributeName="fill" to="#808080" begin="arrowLeft.mouseover" end="arrowLeft.mouseout"/>
                  </use>
                  <path fill="none" stroke="white" stroke-width="1.5" d="M0,-3.0v7 M-2.5,-0.5L0,-3.0L2.5,-0.5"/>
                </g>
        </g>
        <svg viewBox="0 0 15 15" width="100%" height="30px" preserveAspectRatio="xMaxYMin meet">
         <g id="arrow_out" transform="scale(0.3 0.3)">
          <a xlink:href="classlug_1_1Graphics_1_1Vulkan_1_1API_1_1ImageView__coll__graph_org.svg" target="_base">
           <rect id="button" ry="5" rx="5" y="6" x="6" height="38" width="38"
                fill="#f2f5e9" fill-opacity="0.5" stroke="#606060" stroke-width="1.0"/>
           <path id="arrow"
             d="M 11.500037,31.436501 C 11.940474,20.09759 22.043105,11.32322 32.158766,21.979434 L 37.068811,17.246167 C 37.068811,17.246167 37.088388,32 37.088388,32 L 22.160133,31.978069 C 22.160133,31.978069 26.997745,27.140456 26.997745,27.140456 C 18.528582,18.264221 13.291696,25.230495 11.500037,31.436501 z"
             style="fill:#404040;"/>
          </a>
         </g>
        </svg>
</svg>
