<?xml version="1.0" encoding="UTF-8" standalone="no"?>
<!DOCTYPE svg PUBLIC "-//W3C//DTD SVG 1.1//EN"
 "http://www.w3.org/Graphics/SVG/1.1/DTD/svg11.dtd">
<!-- Generated by graphviz version 2.40.1 (20161225.0304)
 -->
<!-- Title: lug::Graphics::Vulkan::API::Builder::Buffer Pages: 1 -->
<svg width="1338pt" height="429pt"
 viewBox="0.00 0.00 1338.00 429.00" xmlns="http://www.w3.org/2000/svg" xmlns:xlink="http://www.w3.org/1999/xlink">
<g id="graph0" class="graph" transform="scale(1 1) rotate(0) translate(4 425)">
<title>lug::Graphics::Vulkan::API::Builder::Buffer</title>
<!-- Node1 -->
<g id="node1" class="node">
<title>Node1</title>
<polygon fill="#bfbfbf" stroke="#000000" points="1203,-90 1203,-120 1330,-120 1330,-90 1203,-90"/>
<text text-anchor="start" x="1211" y="-108" font-family="Helvetica,sans-Serif" font-size="10.00" fill="#000000">lug::Graphics::Vulkan</text>
<text text-anchor="middle" x="1266.5" y="-97" font-family="Helvetica,sans-Serif" font-size="10.00" fill="#000000">::API::Builder::Buffer</text>
</g>
<!-- Node2 -->
<g id="node2" class="node">
<title>Node2</title>
<polygon fill="none" stroke="#bfbfbf" points="975.5,-202.5 975.5,-221.5 1013.5,-221.5 1013.5,-202.5 975.5,-202.5"/>
<text text-anchor="middle" x="994.5" y="-209.5" font-family="Helvetica,sans-Serif" font-size="10.00" fill="#000000">bool</text>
</g>
<!-- Node2&#45;&gt;Node1 -->
<g id="edge1" class="edge">
<title>Node2&#45;&gt;Node1</title>
<path fill="none" stroke="#9a32cd" stroke-dasharray="5,2" d="M1023.5239,-209.4651C1062.0362,-205.2227 1131.4022,-194.4853 1185,-169 1210.9958,-156.6392 1236.3328,-134.7294 1251.6799,-120.0353"/>
<polygon fill="#9a32cd" stroke="#9a32cd" points="1023.1069,-205.9894 1013.5184,-210.4963 1023.8246,-212.9525 1023.1069,-205.9894"/>
<text text-anchor="middle" x="1130.5" y="-204" font-family="Helvetica,sans-Serif" font-size="10.00" fill="#000000"> _exclusive</text>
</g>
<!-- Node3 -->
<g id="node3" class="node">
<title>Node3</title>
<g id="a_node3"><a xlink:href="classlug_1_1Graphics_1_1Vulkan_1_1API_1_1Device.html" target="_top" xlink:title="lug::Graphics::Vulkan\l::API::Device">
<polygon fill="none" stroke="#000000" points="931,-153 931,-183 1058,-183 1058,-153 931,-153"/>
<text text-anchor="start" x="939" y="-171" font-family="Helvetica,sans-Serif" font-size="10.00" fill="#000000">lug::Graphics::Vulkan</text>
<text text-anchor="middle" x="994.5" y="-160" font-family="Helvetica,sans-Serif" font-size="10.00" fill="#000000">::API::Device</text>
</a>
</g>
</g>
<!-- Node3&#45;&gt;Node1 -->
<g id="edge2" class="edge">
<title>Node3&#45;&gt;Node1</title>
<path fill="none" stroke="#9a32cd" stroke-dasharray="5,2" d="M1068.3211,-156.408C1103.8425,-150.2316 1146.8914,-141.8665 1185,-132 1197.9868,-128.6377 1211.9153,-124.3024 1224.5183,-120.0938"/>
<polygon fill="#9a32cd" stroke="#9a32cd" points="1067.2984,-153.0322 1058.034,-158.1724 1068.4818,-159.9315 1067.2984,-153.0322"/>
<text text-anchor="middle" x="1130.5" y="-157" font-family="Helvetica,sans-Serif" font-size="10.00" fill="#000000"> _device</text>
</g>
<!-- Node4 -->
<g id="node4" class="node">
<title>Node4</title>
<g id="a_node4"><a xlink:href="structlug_1_1Graphics_1_1Vulkan_1_1PhysicalDeviceInfo.html" target="_top" xlink:title="lug::Graphics::Vulkan\l::PhysicalDeviceInfo">
<polygon fill="none" stroke="#000000" points="642.5,-202 642.5,-232 769.5,-232 769.5,-202 642.5,-202"/>
<text text-anchor="start" x="650.5" y="-220" font-family="Helvetica,sans-Serif" font-size="10.00" fill="#000000">lug::Graphics::Vulkan</text>
<text text-anchor="middle" x="706" y="-209" font-family="Helvetica,sans-Serif" font-size="10.00" fill="#000000">::PhysicalDeviceInfo</text>
</a>
</g>
</g>
<!-- Node4&#45;&gt;Node3 -->
<g id="edge3" class="edge">
<title>Node4&#45;&gt;Node3</title>
<path fill="none" stroke="#9a32cd" stroke-dasharray="5,2" d="M780.0102,-205.1973C819.5121,-198.8086 868.937,-190.6728 913,-183 918.8112,-181.9881 924.8515,-180.9155 930.8984,-179.8277"/>
<polygon fill="#9a32cd" stroke="#9a32cd" points="779.2445,-201.7756 769.9301,-206.8246 780.3601,-208.6861 779.2445,-201.7756"/>
<text text-anchor="middle" x="861" y="-203" font-family="Helvetica,sans-Serif" font-size="10.00" fill="#000000"> _physicalDeviceInfo</text>
</g>
<!-- Node5 -->
<g id="node5" class="node">
<title>Node5</title>
<g id="a_node5"><a xlink:href="structlug_1_1Graphics_1_1Vulkan_1_1PhysicalDeviceInfo_1_1Swapchain.html" target="_top" xlink:title="lug::Graphics::Vulkan\l::PhysicalDeviceInfo\l::Swapchain">
<polygon fill="none" stroke="#000000" points="324.5,-352.5 324.5,-393.5 451.5,-393.5 451.5,-352.5 324.5,-352.5"/>
<text text-anchor="start" x="332.5" y="-381.5" font-family="Helvetica,sans-Serif" font-size="10.00" fill="#000000">lug::Graphics::Vulkan</text>
<text text-anchor="start" x="332.5" y="-370.5" font-family="Helvetica,sans-Serif" font-size="10.00" fill="#000000">::PhysicalDeviceInfo</text>
<text text-anchor="middle" x="388" y="-359.5" font-family="Helvetica,sans-Serif" font-size="10.00" fill="#000000">::Swapchain</text>
</a>
</g>
</g>
<!-- Node5&#45;&gt;Node4 -->
<g id="edge4" class="edge">
<title>Node5&#45;&gt;Node4</title>
<path fill="none" stroke="#9a32cd" stroke-dasharray="5,2" d="M461.6295,-361.495C504.7948,-352.5982 559.2582,-337.5358 603,-313 641.1623,-291.5939 676.3144,-253.1878 694.0081,-232.0208"/>
<polygon fill="#9a32cd" stroke="#9a32cd" points="460.881,-358.0752 451.7585,-363.4633 462.2499,-364.9401 460.881,-358.0752"/>
<text text-anchor="middle" x="554.5" y="-353" font-family="Helvetica,sans-Serif" font-size="10.00" fill="#000000"> swapchain</text>
</g>
<!-- Node6 -->
<g id="node6" class="node">
<title>Node6</title>
<polygon fill="none" stroke="#bfbfbf" points="16.5,-401.5 16.5,-420.5 162.5,-420.5 162.5,-401.5 16.5,-401.5"/>
<text text-anchor="middle" x="89.5" y="-408.5" font-family="Helvetica,sans-Serif" font-size="10.00" fill="#000000">VkSurfaceCapabilitiesKHR</text>
</g>
<!-- Node6&#45;&gt;Node5 -->
<g id="edge5" class="edge">
<title>Node6&#45;&gt;Node5</title>
<path fill="none" stroke="#9a32cd" stroke-dasharray="5,2" d="M172.5828,-400.4233C220.5932,-394.3114 280.0566,-386.7415 324.3375,-381.1044"/>
<polygon fill="#9a32cd" stroke="#9a32cd" points="171.9992,-396.9692 162.5213,-401.7042 172.8833,-403.9132 171.9992,-396.9692"/>
<text text-anchor="middle" x="233.5" y="-399" font-family="Helvetica,sans-Serif" font-size="10.00" fill="#000000"> capabilities</text>
</g>
<!-- Node7 -->
<g id="node7" class="node">
<title>Node7</title>
<polygon fill="none" stroke="#bfbfbf" points="0,-363.5 0,-382.5 179,-382.5 179,-363.5 0,-363.5"/>
<text text-anchor="middle" x="89.5" y="-370.5" font-family="Helvetica,sans-Serif" font-size="10.00" fill="#000000">vector&lt; VkSurfaceFormatKHR &gt;</text>
</g>
<!-- Node7&#45;&gt;Node5 -->
<g id="edge6" class="edge">
<title>Node7&#45;&gt;Node5</title>
<path fill="none" stroke="#9a32cd" stroke-dasharray="5,2" d="M189.3241,-373C233.799,-373 284.8747,-373 324.1016,-373"/>
<polygon fill="#9a32cd" stroke="#9a32cd" points="189.0599,-369.5001 179.0598,-373 189.0598,-376.5001 189.0599,-369.5001"/>
<text text-anchor="middle" x="233.5" y="-376" font-family="Helvetica,sans-Serif" font-size="10.00" fill="#000000"> formats</text>
</g>
<!-- Node8 -->
<g id="node8" class="node">
<title>Node8</title>
<polygon fill="none" stroke="#bfbfbf" points="4.5,-325.5 4.5,-344.5 174.5,-344.5 174.5,-325.5 4.5,-325.5"/>
<text text-anchor="middle" x="89.5" y="-332.5" font-family="Helvetica,sans-Serif" font-size="10.00" fill="#000000">vector&lt; VkPresentModeKHR &gt;</text>
</g>
<!-- Node8&#45;&gt;Node5 -->
<g id="edge7" class="edge">
<title>Node8&#45;&gt;Node5</title>
<path fill="none" stroke="#9a32cd" stroke-dasharray="5,2" d="M174.4265,-345.8114C222.0428,-351.8731 280.4605,-359.3099 324.1567,-364.8725"/>
<polygon fill="#9a32cd" stroke="#9a32cd" points="174.8008,-342.3309 164.4389,-344.54 173.9168,-349.2749 174.8008,-342.3309"/>
<text text-anchor="middle" x="233.5" y="-360" font-family="Helvetica,sans-Serif" font-size="10.00" fill="#000000"> presentModes</text>
</g>
<!-- Node9 -->
<g id="node9" class="node">
<title>Node9</title>
<polygon fill="none" stroke="#bfbfbf" points="308.5,-303 308.5,-333 467.5,-333 467.5,-303 308.5,-303"/>
<text text-anchor="start" x="316.5" y="-321" font-family="Helvetica,sans-Serif" font-size="10.00" fill="#000000">unordered_map&lt; VkFormat,</text>
<text text-anchor="middle" x="388" y="-310" font-family="Helvetica,sans-Serif" font-size="10.00" fill="#000000"> VkFormatProperties &gt;</text>
</g>
<!-- Node9&#45;&gt;Node4 -->
<g id="edge8" class="edge">
<title>Node9&#45;&gt;Node4</title>
<path fill="none" stroke="#9a32cd" stroke-dasharray="5,2" d="M477.7382,-305.2435C516.9352,-298.144 562.9918,-287.7019 603,-273 631.8484,-262.399 662.5,-244.8206 682.7908,-232.1842"/>
<polygon fill="#9a32cd" stroke="#9a32cd" points="476.9054,-301.8363 467.6664,-307.0221 478.1227,-308.7297 476.9054,-301.8363"/>
<text text-anchor="middle" x="554.5" y="-301" font-family="Helvetica,sans-Serif" font-size="10.00" fill="#000000"> formatProperties</text>
</g>
<!-- Node10 -->
<g id="node10" class="node">
<title>Node10</title>
<polygon fill="none" stroke="#bfbfbf" points="315,-264.5 315,-283.5 461,-283.5 461,-264.5 315,-264.5"/>
<text text-anchor="middle" x="388" y="-271.5" font-family="Helvetica,sans-Serif" font-size="10.00" fill="#000000">VkPhysicalDeviceFeatures</text>
</g>
<!-- Node10&#45;&gt;Node4 -->
<g id="edge9" class="edge">
<title>Node10&#45;&gt;Node4</title>
<path fill="none" stroke="#9a32cd" stroke-dasharray="5,2" d="M471.4332,-264.0252C511.4044,-258.7232 559.8563,-251.5316 603,-243 618.65,-239.9052 635.4836,-235.9334 650.9141,-232.0306"/>
<polygon fill="#9a32cd" stroke="#9a32cd" points="470.9225,-260.5622 461.4622,-265.3322 471.8322,-267.5028 470.9225,-260.5622"/>
<text text-anchor="middle" x="554.5" y="-261" font-family="Helvetica,sans-Serif" font-size="10.00" fill="#000000"> features</text>
</g>
<!-- Node11 -->
<g id="node11" class="node">
<title>Node11</title>
<polygon fill="none" stroke="#bfbfbf" points="288,-226.5 288,-245.5 488,-245.5 488,-226.5 288,-226.5"/>
<text text-anchor="middle" x="388" y="-233.5" font-family="Helvetica,sans-Serif" font-size="10.00" fill="#000000">vector&lt; VkQueueFamilyProperties &gt;</text>
</g>
<!-- Node11&#45;&gt;Node4 -->
<g id="edge10" class="edge">
<title>Node11&#45;&gt;Node4</title>
<path fill="none" stroke="#9a32cd" stroke-dasharray="5,2" d="M498.3415,-229.4073C546.4596,-226.5323 601.1572,-223.2642 642.3325,-220.804"/>
<polygon fill="#9a32cd" stroke="#9a32cd" points="497.9541,-225.9241 488.1807,-230.0144 498.3717,-232.9116 497.9541,-225.9241"/>
<text text-anchor="middle" x="554.5" y="-231" font-family="Helvetica,sans-Serif" font-size="10.00" fill="#000000"> queueFamilies</text>
</g>
<!-- Node12 -->
<g id="node12" class="node">
<title>Node12</title>
<polygon fill="none" stroke="#bfbfbf" points="290.5,-188.5 290.5,-207.5 485.5,-207.5 485.5,-188.5 290.5,-188.5"/>
<text text-anchor="middle" x="388" y="-195.5" font-family="Helvetica,sans-Serif" font-size="10.00" fill="#000000">VkPhysicalDeviceMemoryProperties</text>
</g>
<!-- Node12&#45;&gt;Node4 -->
<g id="edge11" class="edge">
<title>Node12&#45;&gt;Node4</title>
<path fill="none" stroke="#9a32cd" stroke-dasharray="5,2" d="M495.751,-202.1518C530.0489,-203.7038 568.1331,-205.6668 603,-208 615.7161,-208.8509 629.3015,-209.9221 642.2958,-211.026"/>
<polygon fill="#9a32cd" stroke="#9a32cd" points="495.8574,-198.6532 485.7115,-201.7043 495.5457,-205.6463 495.8574,-198.6532"/>
<text text-anchor="middle" x="554.5" y="-211" font-family="Helvetica,sans-Serif" font-size="10.00" fill="#000000"> memoryProperties</text>
</g>
<!-- Node13 -->
<g id="node13" class="node">
<title>Node13</title>
<polygon fill="none" stroke="#bfbfbf" points="336,-150.5 336,-169.5 440,-169.5 440,-150.5 336,-150.5"/>
<text text-anchor="middle" x="388" y="-157.5" font-family="Helvetica,sans-Serif" font-size="10.00" fill="#000000">VkPhysicalDevice</text>
</g>
<!-- Node13&#45;&gt;Node4 -->
<g id="edge12" class="edge">
<title>Node13&#45;&gt;Node4</title>
<path fill="none" stroke="#9a32cd" stroke-dasharray="5,2" d="M450.2805,-164.5574C493.51,-168.5133 552.2261,-175.4678 603,-187 611.2233,-188.8677 612.9401,-190.5203 621,-193 630.6729,-195.976 641.008,-199.0127 651.0208,-201.881"/>
<polygon fill="#9a32cd" stroke="#9a32cd" points="450.4643,-161.0601 440.1942,-163.663 449.8459,-168.0327 450.4643,-161.0601"/>
<text text-anchor="middle" x="554.5" y="-190" font-family="Helvetica,sans-Serif" font-size="10.00" fill="#000000"> handle</text>
</g>
<!-- Node14 -->
<g id="node14" class="node">
<title>Node14</title>
<polygon fill="none" stroke="#bfbfbf" points="310.5,-112.5 310.5,-131.5 465.5,-131.5 465.5,-112.5 310.5,-112.5"/>
<text text-anchor="middle" x="388" y="-119.5" font-family="Helvetica,sans-Serif" font-size="10.00" fill="#000000">VkPhysicalDeviceProperties</text>
</g>
<!-- Node14&#45;&gt;Node4 -->
<g id="edge13" class="edge">
<title>Node14&#45;&gt;Node4</title>
<path fill="none" stroke="#9a32cd" stroke-dasharray="5,2" d="M475.8296,-117.7988C517.9094,-120.0171 566.8779,-129.2496 603,-156 617.6961,-166.8833 606.9733,-181.2667 621,-193 627.2336,-198.2144 634.5294,-202.2984 642.1803,-205.4965"/>
<polygon fill="#9a32cd" stroke="#9a32cd" points="475.7048,-114.2911 465.5725,-117.3873 475.4241,-121.2854 475.7048,-114.2911"/>
<text text-anchor="middle" x="554.5" y="-159" font-family="Helvetica,sans-Serif" font-size="10.00" fill="#000000"> properties</text>
</g>
<!-- Node15 -->
<g id="node15" class="node">
<title>Node15</title>
<polygon fill="none" stroke="#bfbfbf" points="296,-74.5 296,-93.5 480,-93.5 480,-74.5 296,-74.5"/>
<text text-anchor="middle" x="388" y="-81.5" font-family="Helvetica,sans-Serif" font-size="10.00" fill="#000000">vector&lt; VkExtensionProperties &gt;</text>
</g>
<!-- Node15&#45;&gt;Node4 -->
<g id="edge14" class="edge">
<title>Node15&#45;&gt;Node4</title>
<path fill="none" stroke="#9a32cd" stroke-dasharray="5,2" d="M444.0509,-73.094C492.2349,-67.1871 560.4888,-67.6197 603,-106 632.3082,-132.4602 594.0905,-164.1038 621,-193 626.852,-199.2841 634.2112,-203.9673 642.1381,-207.4494"/>
<polygon fill="#9a32cd" stroke="#9a32cd" points="443.5316,-69.6323 434.0901,-74.4393 444.4686,-76.5693 443.5316,-69.6323"/>
<text text-anchor="middle" x="554.5" y="-109" font-family="Helvetica,sans-Serif" font-size="10.00" fill="#000000"> extensions</text>
</g>
<!-- Node16 -->
<g id="node16" class="node">
<title>Node16</title>
<polygon fill="none" stroke="#bfbfbf" points="621,-153 621,-183 791,-183 791,-153 621,-153"/>
<text text-anchor="start" x="629" y="-171" font-family="Helvetica,sans-Serif" font-size="10.00" fill="#000000">vector&lt; lug::Graphics</text>
<text text-anchor="middle" x="706" y="-160" font-family="Helvetica,sans-Serif" font-size="10.00" fill="#000000">::Vulkan::API::QueueFamily &gt;</text>
</g>
<!-- Node16&#45;&gt;Node3 -->
<g id="edge15" class="edge">
<title>Node16&#45;&gt;Node3</title>
<path fill="none" stroke="#9a32cd" stroke-dasharray="5,2" d="M801.4818,-168C843.9993,-168 892.9233,-168 930.8771,-168"/>
<polygon fill="#9a32cd" stroke="#9a32cd" points="801.3886,-164.5001 791.3885,-168 801.3885,-171.5001 801.3886,-164.5001"/>
<text text-anchor="middle" x="861" y="-171" font-family="Helvetica,sans-Serif" font-size="10.00" fill="#000000"> _queueFamilies</text>
</g>
<!-- Node17 -->
<g id="node17" class="node">
<title>Node17</title>
<polygon fill="none" stroke="#bfbfbf" points="674.5,-114.5 674.5,-133.5 737.5,-133.5 737.5,-114.5 674.5,-114.5"/>
<text text-anchor="middle" x="706" y="-121.5" font-family="Helvetica,sans-Serif" font-size="10.00" fill="#000000">VkDevice</text>
</g>
<!-- Node17&#45;&gt;Node3 -->
<g id="edge16" class="edge">
<title>Node17&#45;&gt;Node3</title>
<path fill="none" stroke="#9a32cd" stroke-dasharray="5,2" d="M747.7219,-129.3116C789.5836,-134.7664 855.8703,-143.7452 913,-153 918.8227,-153.9433 924.8709,-154.9691 930.9228,-156.027"/>
<polygon fill="#9a32cd" stroke="#9a32cd" points="747.9928,-125.8175 737.6257,-128.0027 747.0927,-132.7594 747.9928,-125.8175"/>
<text text-anchor="middle" x="861" y="-156" font-family="Helvetica,sans-Serif" font-size="10.00" fill="#000000"> _device</text>
</g>
<!-- Node18 -->
<g id="node18" class="node">
<title>Node18</title>
<polygon fill="none" stroke="#bfbfbf" points="952.5,-114.5 952.5,-133.5 1036.5,-133.5 1036.5,-114.5 952.5,-114.5"/>
<text text-anchor="middle" x="994.5" y="-121.5" font-family="Helvetica,sans-Serif" font-size="10.00" fill="#000000">VkDeviceSize</text>
</g>
<!-- Node18&#45;&gt;Node1 -->
<g id="edge17" class="edge">
<title>Node18&#45;&gt;Node1</title>
<path fill="none" stroke="#9a32cd" stroke-dasharray="5,2" d="M1046.7334,-120.3513C1091.2644,-117.2407 1155.4204,-112.7592 1202.928,-109.4407"/>
<polygon fill="#9a32cd" stroke="#9a32cd" points="1046.4333,-116.8637 1036.7016,-121.0521 1046.9212,-123.8467 1046.4333,-116.8637"/>
<text text-anchor="middle" x="1130.5" y="-120" font-family="Helvetica,sans-Serif" font-size="10.00" fill="#000000"> _size</text>
</g>
<!-- Node19 -->
<g id="node19" class="node">
<title>Node19</title>
<polygon fill="none" stroke="#bfbfbf" points="936.5,-76.5 936.5,-95.5 1052.5,-95.5 1052.5,-76.5 936.5,-76.5"/>
<text text-anchor="middle" x="994.5" y="-83.5" font-family="Helvetica,sans-Serif" font-size="10.00" fill="#000000">VkBufferUsageFlags</text>
</g>
<!-- Node19&#45;&gt;Node1 -->
<g id="edge18" class="edge">
<title>Node19&#45;&gt;Node1</title>
<path fill="none" stroke="#9a32cd" stroke-dasharray="5,2" d="M1063.3757,-88.6586C1099.6051,-90.299 1144.7416,-92.7232 1185,-96 1190.8172,-96.4735 1196.8616,-97.0262 1202.9112,-97.6205"/>
<polygon fill="#9a32cd" stroke="#9a32cd" points="1063.0656,-85.1416 1052.9205,-88.1957 1062.7559,-92.1347 1063.0656,-85.1416"/>
<text text-anchor="middle" x="1130.5" y="-99" font-family="Helvetica,sans-Serif" font-size="10.00" fill="#000000"> _usage</text>
</g>
<!-- Node20 -->
<g id="node20" class="node">
<title>Node20</title>
<polygon fill="none" stroke="#bfbfbf" points="935,-38.5 935,-57.5 1054,-57.5 1054,-38.5 935,-38.5"/>
<text text-anchor="middle" x="994.5" y="-45.5" font-family="Helvetica,sans-Serif" font-size="10.00" fill="#000000">VkBufferCreateFlags</text>
</g>
<!-- Node20&#45;&gt;Node1 -->
<g id="edge19" class="edge">
<title>Node20&#45;&gt;Node1</title>
<path fill="none" stroke="#9a32cd" stroke-dasharray="5,2" d="M1064.3917,-53.688C1100.7417,-57.6111 1145.6775,-63.9779 1185,-74 1200.8429,-78.0379 1217.8236,-84.1861 1232.1624,-89.9455"/>
<polygon fill="#9a32cd" stroke="#9a32cd" points="1064.6874,-50.1999 1054.3786,-52.6453 1063.9623,-57.1623 1064.6874,-50.1999"/>
<text text-anchor="middle" x="1130.5" y="-77" font-family="Helvetica,sans-Serif" font-size="10.00" fill="#000000"> _flags</text>
</g>
<!-- Node21 -->
<g id="node21" class="node">
<title>Node21</title>
<polygon fill="none" stroke="#bfbfbf" points="946.5,-.5 946.5,-19.5 1042.5,-19.5 1042.5,-.5 946.5,-.5"/>
<text text-anchor="middle" x="994.5" y="-7.5" font-family="Helvetica,sans-Serif" font-size="10.00" fill="#000000">set&lt; uint32_t &gt;</text>
</g>
<!-- Node21&#45;&gt;Node1 -->
<g id="edge20" class="edge">
<title>Node21&#45;&gt;Node1</title>
<path fill="none" stroke="#9a32cd" stroke-dasharray="5,2" d="M1052.6974,-11.4535C1091.5817,-14.2496 1143.0882,-21.5481 1185,-40 1211.8338,-51.8137 1237.3429,-74.705 1252.4582,-89.9231"/>
<polygon fill="#9a32cd" stroke="#9a32cd" points="1052.7944,-7.9527 1042.5913,-10.807 1052.3474,-14.9384 1052.7944,-7.9527"/>
<text text-anchor="middle" x="1130.5" y="-43" font-family="Helvetica,sans-Serif" font-size="10.00" fill="#000000"> _queueFamilyIndices</text>
</g>
</g>
</svg>
