<?xml version="1.0" encoding="UTF-8" standalone="no"?>
<!DOCTYPE svg PUBLIC "-//W3C//DTD SVG 1.1//EN"
 "http://www.w3.org/Graphics/SVG/1.1/DTD/svg11.dtd">
<!-- Generated by graphviz version 2.40.1 (20161225.0304)
 -->
<!-- Title: lug::Graphics::Resource::SharedPtr&lt; T &gt; Pages: 1 -->
<svg width="480pt" height="410pt"
 viewBox="0.00 0.00 480.00 410.00" xmlns="http://www.w3.org/2000/svg" xmlns:xlink="http://www.w3.org/1999/xlink">
<g id="graph0" class="graph" transform="scale(1 1) rotate(0) translate(4 406)">
<title>lug::Graphics::Resource::SharedPtr&lt; T &gt;</title>
<!-- Node0 -->
<g id="node1" class="node">
<title>Node0</title>
<polygon fill="#bfbfbf" stroke="#000000" points="0,-186 0,-216 139,-216 139,-186 0,-186"/>
<text text-anchor="start" x="8" y="-204" font-family="Helvetica,sans-Serif" font-size="10.00" fill="#000000">lug::Graphics::Resource</text>
<text text-anchor="middle" x="69.5" y="-193" font-family="Helvetica,sans-Serif" font-size="10.00" fill="#000000">::SharedPtr&lt; T &gt;</text>
</g>
<!-- Node1 -->
<g id="node2" class="node">
<title>Node1</title>
<g id="a_node2"><a xlink:href="classlug_1_1Graphics_1_1Resource_1_1SharedPtr.html" target="_top" xlink:title="lug::Graphics::Resource\l::SharedPtr\&lt; lug::Graphics\l::Render::Material \&gt;">
<polygon fill="none" stroke="#000000" points="310,-360.5 310,-401.5 465,-401.5 465,-360.5 310,-360.5"/>
<text text-anchor="start" x="318" y="-389.5" font-family="Helvetica,sans-Serif" font-size="10.00" fill="#000000">lug::Graphics::Resource</text>
<text text-anchor="start" x="318" y="-378.5" font-family="Helvetica,sans-Serif" font-size="10.00" fill="#000000">::SharedPtr&lt; lug::Graphics</text>
<text text-anchor="middle" x="387.5" y="-367.5" font-family="Helvetica,sans-Serif" font-size="10.00" fill="#000000">::Render::Material &gt;</text>
</a>
</g>
</g>
<!-- Node0&#45;&gt;Node1 -->
<g id="edge1" class="edge">
<title>Node0&#45;&gt;Node1</title>
<path fill="none" stroke="#ffa500" stroke-dasharray="5,2" d="M78.3484,-225.8318C90.8186,-257.0258 116.652,-309.759 157,-337 201.8229,-367.2622 262.1407,-377.9708 309.8308,-381.2674"/>
<polygon fill="#ffa500" stroke="#ffa500" points="81.4817,-224.2278 74.63,-216.1467 74.9468,-226.7368 81.4817,-224.2278"/>
<text text-anchor="start" x="157" y="-392" font-family="Helvetica,sans-Serif" font-size="10.00" fill="#000000"> &lt; lug::Graphics::Render</text>
<text text-anchor="middle" x="221" y="-381" font-family="Helvetica,sans-Serif" font-size="10.00" fill="#000000">::Material &gt;</text>
</g>
<!-- Node2 -->
<g id="node3" class="node">
<title>Node2</title>
<g id="a_node3"><a xlink:href="classlug_1_1Graphics_1_1Resource_1_1SharedPtr.html" target="_top" xlink:title="lug::Graphics::Resource\l::SharedPtr\&lt; lug::Graphics\l::Render::SkyBox \&gt;">
<polygon fill="none" stroke="#000000" points="310,-300.5 310,-341.5 465,-341.5 465,-300.5 310,-300.5"/>
<text text-anchor="start" x="318" y="-329.5" font-family="Helvetica,sans-Serif" font-size="10.00" fill="#000000">lug::Graphics::Resource</text>
<text text-anchor="start" x="318" y="-318.5" font-family="Helvetica,sans-Serif" font-size="10.00" fill="#000000">::SharedPtr&lt; lug::Graphics</text>
<text text-anchor="middle" x="387.5" y="-307.5" font-family="Helvetica,sans-Serif" font-size="10.00" fill="#000000">::Render::SkyBox &gt;</text>
</a>
</g>
</g>
<!-- Node0&#45;&gt;Node2 -->
<g id="edge2" class="edge">
<title>Node0&#45;&gt;Node2</title>
<path fill="none" stroke="#ffa500" stroke-dasharray="5,2" d="M90.0658,-223.3213C106.5708,-239.8539 131.1796,-261.5839 157,-274 204.9404,-297.0529 263.7664,-308.8144 309.9909,-314.8068"/>
<polygon fill="#ffa500" stroke="#ffa500" points="92.561,-220.8668 83.0774,-216.143 87.5453,-225.7498 92.561,-220.8668"/>
<text text-anchor="start" x="157" y="-325" font-family="Helvetica,sans-Serif" font-size="10.00" fill="#000000"> &lt; lug::Graphics::Render</text>
<text text-anchor="middle" x="221" y="-314" font-family="Helvetica,sans-Serif" font-size="10.00" fill="#000000">::SkyBox &gt;</text>
</g>
<!-- Node3 -->
<g id="node4" class="node">
<title>Node3</title>
<g id="a_node4"><a xlink:href="classlug_1_1Graphics_1_1Resource_1_1SharedPtr.html" target="_top" xlink:title="lug::Graphics::Resource\l::SharedPtr\&lt; lug::Graphics\l::Render::Light \&gt;">
<polygon fill="none" stroke="#000000" points="310,-240.5 310,-281.5 465,-281.5 465,-240.5 310,-240.5"/>
<text text-anchor="start" x="318" y="-269.5" font-family="Helvetica,sans-Serif" font-size="10.00" fill="#000000">lug::Graphics::Resource</text>
<text text-anchor="start" x="318" y="-258.5" font-family="Helvetica,sans-Serif" font-size="10.00" fill="#000000">::SharedPtr&lt; lug::Graphics</text>
<text text-anchor="middle" x="387.5" y="-247.5" font-family="Helvetica,sans-Serif" font-size="10.00" fill="#000000">::Render::Light &gt;</text>
</a>
</g>
</g>
<!-- Node0&#45;&gt;Node3 -->
<g id="edge3" class="edge">
<title>Node0&#45;&gt;Node3</title>
<path fill="none" stroke="#ffa500" stroke-dasharray="5,2" d="M125.3513,-218.8824C135.8006,-221.8606 146.6811,-224.718 157,-227 207.4563,-238.1581 264.955,-246.6467 309.9025,-252.3515"/>
<polygon fill="#ffa500" stroke="#ffa500" points="126.0777,-215.4484 115.4975,-216.0049 124.1155,-222.1678 126.0777,-215.4484"/>
<text text-anchor="start" x="157" y="-262" font-family="Helvetica,sans-Serif" font-size="10.00" fill="#000000"> &lt; lug::Graphics::Render</text>
<text text-anchor="middle" x="221" y="-251" font-family="Helvetica,sans-Serif" font-size="10.00" fill="#000000">::Light &gt;</text>
</g>
<!-- Node4 -->
<g id="node5" class="node">
<title>Node4</title>
<g id="a_node5"><a xlink:href="classlug_1_1Graphics_1_1Resource_1_1SharedPtr.html" target="_top" xlink:title="lug::Graphics::Resource\l::SharedPtr\&lt; lug::Graphics\l::Render::Texture \&gt;">
<polygon fill="none" stroke="#000000" points="310,-180.5 310,-221.5 465,-221.5 465,-180.5 310,-180.5"/>
<text text-anchor="start" x="318" y="-209.5" font-family="Helvetica,sans-Serif" font-size="10.00" fill="#000000">lug::Graphics::Resource</text>
<text text-anchor="start" x="318" y="-198.5" font-family="Helvetica,sans-Serif" font-size="10.00" fill="#000000">::SharedPtr&lt; lug::Graphics</text>
<text text-anchor="middle" x="387.5" y="-187.5" font-family="Helvetica,sans-Serif" font-size="10.00" fill="#000000">::Render::Texture &gt;</text>
</a>
</g>
</g>
<!-- Node0&#45;&gt;Node4 -->
<g id="edge4" class="edge">
<title>Node0&#45;&gt;Node4</title>
<path fill="none" stroke="#ffa500" stroke-dasharray="5,2" d="M149.5448,-201C198.6209,-201 261.1459,-201 309.7871,-201"/>
<polygon fill="#ffa500" stroke="#ffa500" points="149.2865,-197.5001 139.2864,-201 149.2864,-204.5001 149.2865,-197.5001"/>
<text text-anchor="start" x="157" y="-215" font-family="Helvetica,sans-Serif" font-size="10.00" fill="#000000"> &lt; lug::Graphics::Render</text>
<text text-anchor="middle" x="221" y="-204" font-family="Helvetica,sans-Serif" font-size="10.00" fill="#000000">::Texture &gt;</text>
</g>
<!-- Node5 -->
<g id="node6" class="node">
<title>Node5</title>
<g id="a_node6"><a xlink:href="classlug_1_1Graphics_1_1Resource_1_1SharedPtr.html" target="_top" xlink:title="lug::Graphics::Resource\l::SharedPtr\&lt; lug::Graphics\l::Render::Camera::Camera \&gt;">
<polygon fill="none" stroke="#000000" points="303,-120.5 303,-161.5 472,-161.5 472,-120.5 303,-120.5"/>
<text text-anchor="start" x="311" y="-149.5" font-family="Helvetica,sans-Serif" font-size="10.00" fill="#000000">lug::Graphics::Resource</text>
<text text-anchor="start" x="311" y="-138.5" font-family="Helvetica,sans-Serif" font-size="10.00" fill="#000000">::SharedPtr&lt; lug::Graphics</text>
<text text-anchor="middle" x="387.5" y="-127.5" font-family="Helvetica,sans-Serif" font-size="10.00" fill="#000000">::Render::Camera::Camera &gt;</text>
</a>
</g>
</g>
<!-- Node0&#45;&gt;Node5 -->
<g id="edge5" class="edge">
<title>Node0&#45;&gt;Node5</title>
<path fill="none" stroke="#ffa500" stroke-dasharray="5,2" d="M125.3513,-183.1176C135.8006,-180.1394 146.6811,-177.282 157,-175 204.889,-164.4096 259.1221,-156.224 302.9468,-150.5409"/>
<polygon fill="#ffa500" stroke="#ffa500" points="124.1155,-179.8322 115.4975,-185.9951 126.0777,-186.5516 124.1155,-179.8322"/>
<text text-anchor="start" x="157" y="-189" font-family="Helvetica,sans-Serif" font-size="10.00" fill="#000000"> &lt; lug::Graphics::Render</text>
<text text-anchor="middle" x="221" y="-178" font-family="Helvetica,sans-Serif" font-size="10.00" fill="#000000">::Camera::Camera &gt;</text>
</g>
<!-- Node6 -->
<g id="node7" class="node">
<title>Node6</title>
<g id="a_node7"><a xlink:href="classlug_1_1Graphics_1_1Resource_1_1SharedPtr.html" target="_top" xlink:title="lug::Graphics::Resource\l::SharedPtr\&lt; lug::Graphics\l::Render::Mesh \&gt;">
<polygon fill="none" stroke="#000000" points="310,-60.5 310,-101.5 465,-101.5 465,-60.5 310,-60.5"/>
<text text-anchor="start" x="318" y="-89.5" font-family="Helvetica,sans-Serif" font-size="10.00" fill="#000000">lug::Graphics::Resource</text>
<text text-anchor="start" x="318" y="-78.5" font-family="Helvetica,sans-Serif" font-size="10.00" fill="#000000">::SharedPtr&lt; lug::Graphics</text>
<text text-anchor="middle" x="387.5" y="-67.5" font-family="Helvetica,sans-Serif" font-size="10.00" fill="#000000">::Render::Mesh &gt;</text>
</a>
</g>
</g>
<!-- Node0&#45;&gt;Node6 -->
<g id="edge6" class="edge">
<title>Node0&#45;&gt;Node6</title>
<path fill="none" stroke="#ffa500" stroke-dasharray="5,2" d="M89.6974,-178.6358C106.1635,-161.8198 130.8943,-139.594 157,-127 204.8709,-103.9058 263.6981,-92.4039 309.9406,-86.6766"/>
<polygon fill="#ffa500" stroke="#ffa500" points="87.1106,-176.2769 82.7382,-185.9274 92.1744,-181.1099 87.1106,-176.2769"/>
<text text-anchor="start" x="157" y="-141" font-family="Helvetica,sans-Serif" font-size="10.00" fill="#000000"> &lt; lug::Graphics::Render</text>
<text text-anchor="middle" x="221" y="-130" font-family="Helvetica,sans-Serif" font-size="10.00" fill="#000000">::Mesh &gt;</text>
</g>
<!-- Node7 -->
<g id="node8" class="node">
<title>Node7</title>
<g id="a_node8"><a xlink:href="classlug_1_1Graphics_1_1Resource_1_1SharedPtr.html" target="_top" xlink:title="lug::Graphics::Resource\l::SharedPtr\&lt; lug::Graphics\l::Vulkan::Render::SkyBox \&gt;">
<polygon fill="none" stroke="#000000" points="306.5,-.5 306.5,-41.5 468.5,-41.5 468.5,-.5 306.5,-.5"/>
<text text-anchor="start" x="314.5" y="-29.5" font-family="Helvetica,sans-Serif" font-size="10.00" fill="#000000">lug::Graphics::Resource</text>
<text text-anchor="start" x="314.5" y="-18.5" font-family="Helvetica,sans-Serif" font-size="10.00" fill="#000000">::SharedPtr&lt; lug::Graphics</text>
<text text-anchor="middle" x="387.5" y="-7.5" font-family="Helvetica,sans-Serif" font-size="10.00" fill="#000000">::Vulkan::Render::SkyBox &gt;</text>
</a>
</g>
</g>
<!-- Node0&#45;&gt;Node7 -->
<g id="edge7" class="edge">
<title>Node0&#45;&gt;Node7</title>
<path fill="none" stroke="#ffa500" stroke-dasharray="5,2" d="M78.1182,-176.3709C90.4518,-144.9759 116.2538,-91.4843 157,-64 200.7036,-34.5208 259.175,-23.8628 306.2898,-20.5278"/>
<polygon fill="#ffa500" stroke="#ffa500" points="74.8437,-175.1349 74.5851,-185.7266 81.3923,-177.6079 74.8437,-175.1349"/>
<text text-anchor="start" x="157.5" y="-78" font-family="Helvetica,sans-Serif" font-size="10.00" fill="#000000"> &lt; lug::Graphics::Vulkan</text>
<text text-anchor="middle" x="221" y="-67" font-family="Helvetica,sans-Serif" font-size="10.00" fill="#000000">::Render::SkyBox &gt;</text>
</g>
</g>
</svg>
