<?xml version="1.0" encoding="UTF-8" standalone="no"?>
<!DOCTYPE svg PUBLIC "-//W3C//DTD SVG 1.1//EN"
 "http://www.w3.org/Graphics/SVG/1.1/DTD/svg11.dtd">
<!-- Generated by graphviz version 2.40.1 (20161225.0304)
 -->
<!-- Title: lug::System::Exception Pages: 1 -->
<svg width="264pt" height="139pt"
 viewBox="0.00 0.00 263.50 139.00" xmlns="http://www.w3.org/2000/svg" xmlns:xlink="http://www.w3.org/1999/xlink">
<g id="graph0" class="graph" transform="scale(1 1) rotate(0) translate(4 135)">
<title>lug::System::Exception</title>
<!-- Node9 -->
<g id="node1" class="node">
<title>Node9</title>
<polygon fill="#bfbfbf" stroke="#000000" points="68,-.5 68,-19.5 203,-19.5 203,-.5 68,-.5"/>
<text text-anchor="middle" x="135.5" y="-7.5" font-family="Helvetica,sans-Serif" font-size="10.00" fill="#000000">lug::System::Exception</text>
</g>
<!-- Node10 -->
<g id="node2" class="node">
<title>Node10</title>
<polygon fill="none" stroke="#bfbfbf" points="0,-111.5 0,-130.5 89,-130.5 89,-111.5 0,-111.5"/>
<text text-anchor="middle" x="44.5" y="-118.5" font-family="Helvetica,sans-Serif" font-size="10.00" fill="#000000">std::exception</text>
</g>
<!-- Node10&#45;&gt;Node9 -->
<g id="edge1" class="edge">
<title>Node10&#45;&gt;Node9</title>
<path fill="none" stroke="#191970" d="M59.0277,-103.2793C78.4694,-79.5648 112.2722,-38.3329 127.5724,-19.6699"/>
<polygon fill="#191970" stroke="#191970" points="56.209,-101.1971 52.5756,-111.1495 61.6223,-105.6351 56.209,-101.1971"/>
</g>
<!-- Node11 -->
<g id="node3" class="node">
<title>Node11</title>
<polygon fill="none" stroke="#bfbfbf" points="107,-111.5 107,-130.5 164,-130.5 164,-111.5 107,-111.5"/>
<text text-anchor="middle" x="135.5" y="-118.5" font-family="Helvetica,sans-Serif" font-size="10.00" fill="#000000">uint32_t</text>
</g>
<!-- Node11&#45;&gt;Node9 -->
<g id="edge2" class="edge">
<title>Node11&#45;&gt;Node9</title>
<path fill="none" stroke="#9a32cd" stroke-dasharray="5,2" d="M135.5,-101.0467C135.5,-77.0543 135.5,-37.7599 135.5,-19.6699"/>
<polygon fill="#9a32cd" stroke="#9a32cd" points="132.0001,-101.1495 135.5,-111.1495 139.0001,-101.1495 132.0001,-101.1495"/>
<text text-anchor="middle" x="149.5" y="-63" font-family="Helvetica,sans-Serif" font-size="10.00" fill="#000000"> _line</text>
</g>
<!-- Node12 -->
<g id="node4" class="node">
<title>Node12</title>
<polygon fill="none" stroke="#bfbfbf" points="182,-111.5 182,-130.5 227,-130.5 227,-111.5 182,-111.5"/>
<text text-anchor="middle" x="204.5" y="-118.5" font-family="Helvetica,sans-Serif" font-size="10.00" fill="#000000">string</text>
</g>
<!-- Node12&#45;&gt;Node9 -->
<g id="edge3" class="edge">
<title>Node12&#45;&gt;Node9</title>
<path fill="none" stroke="#9a32cd" stroke-dasharray="5,2" d="M198.5298,-101.5767C192.5007,-83.9063 182.0052,-57.6597 167.5,-38 162.3284,-30.9906 155.1255,-24.494 148.8627,-19.5267"/>
<polygon fill="#9a32cd" stroke="#9a32cd" points="195.282,-102.9074 201.7025,-111.3352 201.939,-100.743 195.282,-102.9074"/>
<text text-anchor="middle" x="225" y="-85" font-family="Helvetica,sans-Serif" font-size="10.00" fill="#000000"> _fullDesc</text>
<text text-anchor="middle" x="225" y="-74" font-family="Helvetica,sans-Serif" font-size="10.00" fill="#000000">_function</text>
<text text-anchor="middle" x="225" y="-63" font-family="Helvetica,sans-Serif" font-size="10.00" fill="#000000">_file</text>
<text text-anchor="middle" x="225" y="-52" font-family="Helvetica,sans-Serif" font-size="10.00" fill="#000000">_description</text>
<text text-anchor="middle" x="225" y="-41" font-family="Helvetica,sans-Serif" font-size="10.00" fill="#000000">_typeName</text>
</g>
</g>
</svg>
