<?xml version="1.0" encoding="UTF-8" standalone="no"?>
<!DOCTYPE svg PUBLIC "-//W3C//DTD SVG 1.1//EN"
 "http://www.w3.org/Graphics/SVG/1.1/DTD/svg11.dtd">
<!-- Generated by graphviz version 2.40.1 (20161225.0304)
 -->
<!-- Title: lug::Graphics::Builder::Camera Pages: 1 -->
<!--zoomable 501 -->
<svg id="main" version="1.1" xmlns="http://www.w3.org/2000/svg" xmlns:xlink="http://www.w3.org/1999/xlink" xml:space="preserve" onload="init(evt)">
<style type="text/css"><![CDATA[
.edge:hover path { stroke: red; }
.edge:hover polygon { stroke: red; fill: red; }
]]></style>
<script type="text/javascript"><![CDATA[
var edges = document.getElementsByTagName('g');
if (edges && edges.length) {
  for (var i=0;i<edges.length;i++) {
    if (edges[i].id.substr(0,4)=='edge') {
      edges[i].setAttribute('class','edge');
    }
  }
}
]]></script>
        <defs>
                <circle id="rim" cx="0" cy="0" r="7"/>
                <circle id="rim2" cx="0" cy="0" r="3.5"/>
                <g id="zoomPlus">
                        <use xlink:href="#rim" fill="#404040">
                                <set attributeName="fill" to="#808080" begin="zoomplus.mouseover" end="zoomplus.mouseout"/>
                        </use>
                        <path d="M-4,0h8M0,-4v8" fill="none" stroke="white" stroke-width="1.5" pointer-events="none"/>
                </g>
                <g id="zoomMin">
                        <use xlink:href="#rim" fill="#404040">
                                <set attributeName="fill" to="#808080" begin="zoomminus.mouseover" end="zoomminus.mouseout"/>
                        </use>
                        <path d="M-4,0h8" fill="none" stroke="white" stroke-width="1.5" pointer-events="none"/>
                </g>
                <g id="dirArrow">
                        <path fill="none" stroke="white" stroke-width="1.5" d="M0,-3.0v7 M-2.5,-0.5L0,-3.0L2.5,-0.5"/>
                </g>
               <g id="resetDef">
                       <use xlink:href="#rim2" fill="#404040">
                               <set attributeName="fill" to="#808080" begin="reset.mouseover" end="reset.mouseout"/>
                       </use>
               </g>
        </defs>

<script type="text/javascript">
var viewWidth = 1386;
var viewHeight = 501;
var sectionId = 'dynsection-0';
</script>
<script xlink:href="svgpan.js"/>
<svg id="graph" class="graph">
<g id="viewport">
<title>lug::Graphics::Builder::Camera</title>
<!-- Node1 -->
<g id="node1" class="node">
<title>Node1</title>
<polygon fill="#bfbfbf" stroke="#000000" points="1250,-383 1250,-413 1378,-413 1378,-383 1250,-383"/>
<text text-anchor="start" x="1258" y="-401" font-family="Helvetica,sans-Serif" font-size="10.00" fill="#000000">lug::Graphics::Builder</text>
<text text-anchor="middle" x="1314" y="-390" font-family="Helvetica,sans-Serif" font-size="10.00" fill="#000000">::Camera</text>
</g>
<!-- Node2 -->
<g id="node2" class="node">
<title>Node2</title>
<polygon fill="none" stroke="#bfbfbf" points="1061,-431.5 1061,-450.5 1100,-450.5 1100,-431.5 1061,-431.5"/>
<text text-anchor="middle" x="1080.5" y="-438.5" font-family="Helvetica,sans-Serif" font-size="10.00" fill="#000000">float</text>
</g>
<!-- Node2&#45;&gt;Node1 -->
<g id="edge1" class="edge">
<title>Node2&#45;&gt;Node1</title>
<path fill="none" stroke="#9a32cd" stroke-dasharray="5,2" d="M1110.2102,-436.926C1140.835,-432.5786 1189.9126,-425.199 1232,-417 1238.1678,-415.7985 1244.577,-414.4645 1250.9727,-413.0765"/>
<polygon fill="#9a32cd" stroke="#9a32cd" points="1109.605,-433.4766 1100.1891,-438.3337 1110.5788,-440.4085 1109.605,-433.4766"/>
<text text-anchor="middle" x="1200" y="-485" font-family="Helvetica,sans-Serif" font-size="10.00" fill="#000000"> _znear</text>
<text text-anchor="middle" x="1200" y="-474" font-family="Helvetica,sans-Serif" font-size="10.00" fill="#000000">_ymag</text>
<text text-anchor="middle" x="1200" y="-463" font-family="Helvetica,sans-Serif" font-size="10.00" fill="#000000">_aspectRatio</text>
<text text-anchor="middle" x="1200" y="-452" font-family="Helvetica,sans-Serif" font-size="10.00" fill="#000000">_xmag</text>
<text text-anchor="middle" x="1200" y="-441" font-family="Helvetica,sans-Serif" font-size="10.00" fill="#000000">_fovy</text>
<text text-anchor="middle" x="1200" y="-430" font-family="Helvetica,sans-Serif" font-size="10.00" fill="#000000">_zfar</text>
</g>
<!-- Node3 -->
<g id="node3" class="node">
<title>Node3</title>
<polygon fill="none" stroke="#bfbfbf" points="19.5,-305.5 19.5,-324.5 60.5,-324.5 60.5,-305.5 19.5,-305.5"/>
<text text-anchor="middle" x="40" y="-312.5" font-family="Helvetica,sans-Serif" font-size="10.00" fill="#000000">Type</text>
</g>
<!-- Node3&#45;&gt;Node1 -->
<g id="edge2" class="edge">
<title>Node3&#45;&gt;Node1</title>
<path fill="none" stroke="#9a32cd" stroke-dasharray="5,2" d="M62.9179,-330.0102C103.5632,-355.1393 191.7116,-403 273.5,-403 273.5,-403 273.5,-403 1080.5,-403 1137.672,-403 1202.7,-401.4832 1249.5865,-400.1205"/>
<polygon fill="#9a32cd" stroke="#9a32cd" points="64.6361,-326.9559 54.3099,-324.5851 60.9038,-332.878 64.6361,-326.9559"/>
<text text-anchor="middle" x="678" y="-406" font-family="Helvetica,sans-Serif" font-size="10.00" fill="#000000"> _type</text>
</g>
<!-- Node5 -->
<g id="node5" class="node">
<title>Node5</title>
<g id="a_node5"><a xlink:href="classlug_1_1Graphics_1_1Renderer.html" target="_top" xlink:title="lug::Graphics::Renderer">
<polygon fill="none" stroke="#000000" points="1011,-255.5 1011,-274.5 1150,-274.5 1150,-255.5 1011,-255.5"/>
<text text-anchor="middle" x="1080.5" y="-262.5" font-family="Helvetica,sans-Serif" font-size="10.00" fill="#000000">lug::Graphics::Renderer</text>
</a>
</g>
</g>
<!-- Node3&#45;&gt;Node5 -->
<g id="edge20" class="edge">
<title>Node3&#45;&gt;Node5</title>
<path fill="none" stroke="#9a32cd" stroke-dasharray="5,2" d="M71.0356,-319.0296C103.9948,-323.2516 157.6295,-329.9583 204,-335 273.6848,-342.5767 290.984,-346.6629 361,-350 621.0732,-362.3957 930.9855,-299.1702 1040.0957,-274.5126"/>
<polygon fill="#9a32cd" stroke="#9a32cd" points="71.056,-315.5035 60.6911,-317.699 70.1629,-322.4463 71.056,-315.5035"/>
<text text-anchor="middle" x="552.5" y="-353" font-family="Helvetica,sans-Serif" font-size="10.00" fill="#000000"> _type</text>
</g>
<!-- Node7 -->
<g id="node7" class="node">
<title>Node7</title>
<g id="a_node7"><a xlink:href="structlug_1_1Graphics_1_1Renderer_1_1InitInfo.html" target="_top" xlink:title="lug::Graphics::Renderer\l::InitInfo">
<polygon fill="none" stroke="#000000" points="204,-124 204,-154 343,-154 343,-124 204,-124"/>
<text text-anchor="start" x="212" y="-142" font-family="Helvetica,sans-Serif" font-size="10.00" fill="#000000">lug::Graphics::Renderer</text>
<text text-anchor="middle" x="273.5" y="-131" font-family="Helvetica,sans-Serif" font-size="10.00" fill="#000000">::InitInfo</text>
</a>
</g>
</g>
<!-- Node3&#45;&gt;Node7 -->
<g id="edge9" class="edge">
<title>Node3&#45;&gt;Node7</title>
<path fill="none" stroke="#9a32cd" stroke-dasharray="5,2" d="M51.7117,-296.6764C62.4273,-280.8847 79.4056,-258.147 98,-242 142.1469,-203.6639 202.562,-171.8471 239.7603,-154.1427"/>
<polygon fill="#9a32cd" stroke="#9a32cd" points="48.758,-294.7976 46.1613,-305.0693 54.5968,-298.6589 48.758,-294.7976"/>
<text text-anchor="middle" x="142" y="-245" font-family="Helvetica,sans-Serif" font-size="10.00" fill="#000000"> renderTechnique</text>
</g>
<!-- Node11 -->
<g id="node11" class="node">
<title>Node11</title>
<g id="a_node11"><a xlink:href="structlug_1_1Graphics_1_1Graphics_1_1InitInfo.html" target="_top" xlink:title="Utility structure used to initialize the Graphics component. ">
<polygon fill="none" stroke="#000000" points="484,-210 484,-240 621,-240 621,-210 484,-210"/>
<text text-anchor="start" x="492" y="-228" font-family="Helvetica,sans-Serif" font-size="10.00" fill="#000000">lug::Graphics::Graphics</text>
<text text-anchor="middle" x="552.5" y="-217" font-family="Helvetica,sans-Serif" font-size="10.00" fill="#000000">::InitInfo</text>
</a>
</g>
</g>
<!-- Node3&#45;&gt;Node11 -->
<g id="edge16" class="edge">
<title>Node3&#45;&gt;Node11</title>
<path fill="none" stroke="#9a32cd" stroke-dasharray="5,2" d="M70.603,-309.3997C103.5211,-303.42 157.418,-293.757 204,-286 317.5941,-267.084 346.895,-267.6491 460,-246 469.381,-244.2044 479.2592,-242.1445 488.928,-240.0322"/>
<polygon fill="#9a32cd" stroke="#9a32cd" points="69.8997,-305.9702 60.6883,-311.2047 71.1535,-312.857 69.8997,-305.9702"/>
<text text-anchor="middle" x="273.5" y="-289" font-family="Helvetica,sans-Serif" font-size="10.00" fill="#000000"> rendererType</text>
</g>
<!-- Node4 -->
<g id="node4" class="node">
<title>Node4</title>
<polygon fill="none" stroke="#bfbfbf" points="17.5,-37.5 17.5,-56.5 62.5,-56.5 62.5,-37.5 17.5,-37.5"/>
<text text-anchor="middle" x="40" y="-44.5" font-family="Helvetica,sans-Serif" font-size="10.00" fill="#000000">string</text>
</g>
<!-- Node4&#45;&gt;Node1 -->
<g id="edge3" class="edge">
<title>Node4&#45;&gt;Node1</title>
<path fill="none" stroke="#9a32cd" stroke-dasharray="5,2" d="M72.2765,-36.2723C116.9559,-22.4004 200.4185,0 273.5,0 273.5,0 273.5,0 1080.5,0 1261.5508,0 1304.9139,-310.1844 1312.5907,-382.8839"/>
<polygon fill="#9a32cd" stroke="#9a32cd" points="71.0438,-32.9912 62.5649,-39.344 73.1548,-39.6653 71.0438,-32.9912"/>
<text text-anchor="middle" x="678" y="-3" font-family="Helvetica,sans-Serif" font-size="10.00" fill="#000000"> _name</text>
</g>
<!-- Node4&#45;&gt;Node7 -->
<g id="edge8" class="edge">
<title>Node4&#45;&gt;Node7</title>
<path fill="none" stroke="#9a32cd" stroke-dasharray="5,2" d="M72.1457,-59.6655C114.73,-76.4439 189.7477,-106.0012 235.2129,-123.9147"/>
<polygon fill="#9a32cd" stroke="#9a32cd" points="73.401,-56.3983 62.8141,-55.9889 70.835,-62.911 73.401,-56.3983"/>
<text text-anchor="middle" x="142" y="-107" font-family="Helvetica,sans-Serif" font-size="10.00" fill="#000000"> shadersRoot</text>
</g>
<!-- Node8 -->
<g id="node8" class="node">
<title>Node8</title>
<g id="a_node8"><a xlink:href="classlug_1_1Graphics_1_1Graphics.html" target="_top" xlink:title="Class for graphics. ">
<polygon fill="none" stroke="#000000" points="735,-241.5 735,-260.5 872,-260.5 872,-241.5 735,-241.5"/>
<text text-anchor="middle" x="803.5" y="-248.5" font-family="Helvetica,sans-Serif" font-size="10.00" fill="#000000">lug::Graphics::Graphics</text>
</a>
</g>
</g>
<!-- Node4&#45;&gt;Node8 -->
<g id="edge17" class="edge">
<title>Node4&#45;&gt;Node8</title>
<path fill="none" stroke="#9a32cd" stroke-dasharray="5,2" d="M72.9738,-45.2678C174.5695,-41.3496 489.3244,-39.9154 711,-156 750.9701,-176.9311 783.9578,-221.4987 797.2251,-241.24"/>
<polygon fill="#9a32cd" stroke="#9a32cd" points="72.5754,-41.7814 62.7321,-45.7004 72.8709,-48.7752 72.5754,-41.7814"/>
<text text-anchor="middle" x="410.5" y="-75" font-family="Helvetica,sans-Serif" font-size="10.00" fill="#000000"> _appName</text>
</g>
<!-- Node5&#45;&gt;Node1 -->
<g id="edge4" class="edge">
<title>Node5&#45;&gt;Node1</title>
<path fill="none" stroke="#9a32cd" stroke-dasharray="5,2" d="M1106.0496,-279.5529C1150.5763,-304.915 1241.9621,-356.9677 1287.2893,-382.7857"/>
<polygon fill="#9a32cd" stroke="#9a32cd" points="1107.7143,-276.4732 1097.2927,-274.565 1104.2498,-282.5557 1107.7143,-276.4732"/>
<text text-anchor="middle" x="1200" y="-354" font-family="Helvetica,sans-Serif" font-size="10.00" fill="#000000"> _renderer</text>
</g>
<!-- Node6 -->
<g id="node6" class="node">
<title>Node6</title>
<polygon fill="none" stroke="#bfbfbf" points="0,-113.5 0,-132.5 80,-132.5 80,-113.5 0,-113.5"/>
<text text-anchor="middle" x="40" y="-120.5" font-family="Helvetica,sans-Serif" font-size="10.00" fill="#000000">DisplayMode</text>
</g>
<!-- Node6&#45;&gt;Node5 -->
<g id="edge5" class="edge">
<title>Node6&#45;&gt;Node5</title>
<path fill="none" stroke="#9a32cd" stroke-dasharray="5,2" d="M90.1781,-112.4465C166.7171,-96.5495 309.2018,-67.7994 361,-63 594.4687,-41.3678 653.4006,-100.6893 878,-168 929.5634,-183.4531 944.6758,-182.2861 993,-206 1021.9485,-220.2057 1052.4503,-242.7653 1068.6868,-255.4778"/>
<polygon fill="#9a32cd" stroke="#9a32cd" points="89.3585,-109.042 80.2817,-114.5066 90.7852,-115.8951 89.3585,-109.042"/>
<text text-anchor="middle" x="552.5" y="-86" font-family="Helvetica,sans-Serif" font-size="10.00" fill="#000000"> _displayMode</text>
</g>
<!-- Node6&#45;&gt;Node7 -->
<g id="edge7" class="edge">
<title>Node6&#45;&gt;Node7</title>
<path fill="none" stroke="#9a32cd" stroke-dasharray="5,2" d="M90.4911,-126.4598C123.5918,-128.7279 167.3152,-131.724 203.724,-134.2188"/>
<polygon fill="#9a32cd" stroke="#9a32cd" points="90.356,-122.9424 80.1401,-125.7505 89.8774,-129.926 90.356,-122.9424"/>
<text text-anchor="middle" x="142" y="-136" font-family="Helvetica,sans-Serif" font-size="10.00" fill="#000000"> displayMode</text>
</g>
<!-- Node7&#45;&gt;Node5 -->
<g id="edge6" class="edge">
<title>Node7&#45;&gt;Node5</title>
<path fill="none" stroke="#9a32cd" stroke-dasharray="5,2" d="M353.4868,-139.7434C441.6021,-141.6188 587.2375,-147.8423 711,-168 840.2841,-189.0571 990.0089,-235.357 1051.6867,-255.4179"/>
<polygon fill="#9a32cd" stroke="#9a32cd" points="353.3635,-136.2403 343.2958,-139.5405 353.2241,-143.2389 353.3635,-136.2403"/>
<text text-anchor="middle" x="678" y="-171" font-family="Helvetica,sans-Serif" font-size="10.00" fill="#000000"> _initInfo</text>
</g>
<!-- Node7&#45;&gt;Node11 -->
<g id="edge14" class="edge">
<title>Node7&#45;&gt;Node11</title>
<path fill="none" stroke="#9a32cd" stroke-dasharray="5,2" d="M332.289,-157.1213C383.1724,-172.8058 455.8949,-195.2221 503.6388,-209.9388"/>
<polygon fill="#9a32cd" stroke="#9a32cd" points="333.0047,-153.6795 322.4174,-154.0785 330.9427,-160.3689 333.0047,-153.6795"/>
<text text-anchor="middle" x="410.5" y="-198" font-family="Helvetica,sans-Serif" font-size="10.00" fill="#000000"> rendererInitInfo</text>
</g>
<!-- Node8&#45;&gt;Node5 -->
<g id="edge10" class="edge">
<title>Node8&#45;&gt;Node5</title>
<path fill="none" stroke="#9a32cd" stroke-dasharray="5,2" d="M882.4065,-254.9881C922.8006,-257.0296 971.5515,-259.4936 1010.5823,-261.4663"/>
<polygon fill="#9a32cd" stroke="#9a32cd" points="882.4918,-251.488 872.3278,-254.4787 882.1384,-258.4791 882.4918,-251.488"/>
<text text-anchor="middle" x="944.5" y="-263" font-family="Helvetica,sans-Serif" font-size="10.00" fill="#000000"> _graphics</text>
</g>
<!-- Node9 -->
<g id="node9" class="node">
<title>Node9</title>
<g id="a_node9"><a xlink:href="structlug_1_1Core_1_1Version.html" target="_top" xlink:title="Stores the version of the Application. ">
<polygon fill="none" stroke="#000000" points="497.5,-308.5 497.5,-327.5 607.5,-327.5 607.5,-308.5 497.5,-308.5"/>
<text text-anchor="middle" x="552.5" y="-315.5" font-family="Helvetica,sans-Serif" font-size="10.00" fill="#000000">lug::Core::Version</text>
</a>
</g>
</g>
<!-- Node9&#45;&gt;Node8 -->
<g id="edge11" class="edge">
<title>Node9&#45;&gt;Node8</title>
<path fill="none" stroke="#9a32cd" stroke-dasharray="5,2" d="M605.8715,-306.1641C636.7238,-299.083 676.2027,-289.6139 711,-280 732.5753,-274.0391 756.6994,-266.4445 774.9006,-260.5226"/>
<polygon fill="#9a32cd" stroke="#9a32cd" points="604.7298,-302.8345 595.7585,-308.4707 606.2864,-309.6592 604.7298,-302.8345"/>
<text text-anchor="middle" x="678" y="-299" font-family="Helvetica,sans-Serif" font-size="10.00" fill="#000000"> _appVersion</text>
</g>
<!-- Node10 -->
<g id="node10" class="node">
<title>Node10</title>
<polygon fill="none" stroke="#bfbfbf" points="245,-306.5 245,-325.5 302,-325.5 302,-306.5 245,-306.5"/>
<text text-anchor="middle" x="273.5" y="-313.5" font-family="Helvetica,sans-Serif" font-size="10.00" fill="#000000">uint32_t</text>
</g>
<!-- Node10&#45;&gt;Node9 -->
<g id="edge12" class="edge">
<title>Node10&#45;&gt;Node9</title>
<path fill="none" stroke="#9a32cd" stroke-dasharray="5,2" d="M312.309,-316.1465C350.0335,-316.3035 408.9479,-316.5872 460,-317 472.0446,-317.0974 484.9711,-317.2236 497.2291,-317.3533"/>
<polygon fill="#9a32cd" stroke="#9a32cd" points="312.269,-312.6464 302.2548,-316.1056 312.2405,-319.6464 312.269,-312.6464"/>
<text text-anchor="middle" x="410.5" y="-342" font-family="Helvetica,sans-Serif" font-size="10.00" fill="#000000"> patch</text>
<text text-anchor="middle" x="410.5" y="-331" font-family="Helvetica,sans-Serif" font-size="10.00" fill="#000000">major</text>
<text text-anchor="middle" x="410.5" y="-320" font-family="Helvetica,sans-Serif" font-size="10.00" fill="#000000">minor</text>
</g>
<!-- Node11&#45;&gt;Node8 -->
<g id="edge13" class="edge">
<title>Node11&#45;&gt;Node8</title>
<path fill="none" stroke="#9a32cd" stroke-dasharray="5,2" d="M631.2374,-233.1561C664.5148,-236.6031 702.9108,-240.5804 734.9961,-243.904"/>
<polygon fill="#9a32cd" stroke="#9a32cd" points="631.3943,-229.6537 621.0869,-232.1046 630.673,-236.6164 631.3943,-229.6537"/>
<text text-anchor="middle" x="678" y="-245" font-family="Helvetica,sans-Serif" font-size="10.00" fill="#000000"> _initInfo</text>
</g>
<!-- Node12 -->
<g id="node12" class="node">
<title>Node12</title>
<polygon fill="none" stroke="#bfbfbf" points="211.5,-199.5 211.5,-218.5 335.5,-218.5 335.5,-199.5 211.5,-199.5"/>
<text text-anchor="middle" x="273.5" y="-206.5" font-family="Helvetica,sans-Serif" font-size="10.00" fill="#000000">set&lt; Module::Type &gt;</text>
</g>
<!-- Node12&#45;&gt;Node8 -->
<g id="edge19" class="edge">
<title>Node12&#45;&gt;Node8</title>
<path fill="none" stroke="#9a32cd" stroke-dasharray="5,2" d="M318.3611,-197.0359C385.9148,-180.8206 517.5083,-156.2507 627,-178 688.7963,-190.2752 756.0874,-224.5409 786.6769,-241.3932"/>
<polygon fill="#9a32cd" stroke="#9a32cd" points="317.3543,-193.679 308.4755,-199.4597 319.0213,-200.4776 317.3543,-193.679"/>
<text text-anchor="middle" x="552.5" y="-192" font-family="Helvetica,sans-Serif" font-size="10.00" fill="#000000"> _loadedOptionalModules</text>
<text text-anchor="middle" x="552.5" y="-181" font-family="Helvetica,sans-Serif" font-size="10.00" fill="#000000">_loadedMandatoryModules</text>
</g>
<!-- Node12&#45;&gt;Node11 -->
<g id="edge15" class="edge">
<title>Node12&#45;&gt;Node11</title>
<path fill="none" stroke="#9a32cd" stroke-dasharray="5,2" d="M345.762,-213.1441C388.2501,-215.5806 441.6758,-218.6445 483.5722,-221.0471"/>
<polygon fill="#9a32cd" stroke="#9a32cd" points="345.9498,-209.6492 335.7658,-212.5708 345.549,-216.6377 345.9498,-209.6492"/>
<text text-anchor="middle" x="410.5" y="-234" font-family="Helvetica,sans-Serif" font-size="10.00" fill="#000000"> mandatoryModules</text>
<text text-anchor="middle" x="410.5" y="-223" font-family="Helvetica,sans-Serif" font-size="10.00" fill="#000000">optionalModules</text>
</g>
<!-- Node13 -->
<g id="node13" class="node">
<title>Node13</title>
<polygon fill="none" stroke="#bfbfbf" points="478,-259 478,-289 627,-289 627,-259 478,-259"/>
<text text-anchor="start" x="486" y="-277" font-family="Helvetica,sans-Serif" font-size="10.00" fill="#000000">unique_ptr&lt; lug::Graphics</text>
<text text-anchor="middle" x="552.5" y="-266" font-family="Helvetica,sans-Serif" font-size="10.00" fill="#000000">::Renderer &gt;</text>
</g>
<!-- Node13&#45;&gt;Node8 -->
<g id="edge18" class="edge">
<title>Node13&#45;&gt;Node8</title>
<path fill="none" stroke="#9a32cd" stroke-dasharray="5,2" d="M637.2807,-266.2312C669.0071,-263.324 704.6274,-260.06 734.7316,-257.3015"/>
<polygon fill="#9a32cd" stroke="#9a32cd" points="636.7676,-262.7635 627.1287,-267.1615 637.4064,-269.7343 636.7676,-262.7635"/>
<text text-anchor="middle" x="678" y="-268" font-family="Helvetica,sans-Serif" font-size="10.00" fill="#000000"> _renderer</text>
</g>
<!-- Node14 -->
<g id="node14" class="node">
<title>Node14</title>
<polygon fill="none" stroke="#bfbfbf" points="729,-344 729,-374 878,-374 878,-344 729,-344"/>
<text text-anchor="start" x="737" y="-362" font-family="Helvetica,sans-Serif" font-size="10.00" fill="#000000">unique_ptr&lt; lug::Graphics</text>
<text text-anchor="middle" x="803.5" y="-351" font-family="Helvetica,sans-Serif" font-size="10.00" fill="#000000">::ResourceManager &gt;</text>
</g>
<!-- Node14&#45;&gt;Node5 -->
<g id="edge21" class="edge">
<title>Node14&#45;&gt;Node5</title>
<path fill="none" stroke="#9a32cd" stroke-dasharray="5,2" d="M888.4032,-354.1958C921.9607,-350.1051 960.2522,-342.6245 993,-329 1024.626,-315.8423 1055.5091,-289.0455 1070.7208,-274.6531"/>
<polygon fill="#9a32cd" stroke="#9a32cd" points="887.6935,-350.7538 878.1522,-355.3596 888.4832,-357.7092 887.6935,-350.7538"/>
<text text-anchor="middle" x="944.5" y="-356" font-family="Helvetica,sans-Serif" font-size="10.00" fill="#000000"> _resourceManager</text>
</g>
</g>
</svg>
        <g id="navigator" transform="translate(0 0)" fill="#404254">
                <rect fill="#f2f5e9" fill-opacity="0.5" stroke="#606060" stroke-width=".5" x="0" y="0" width="60" height="60"/>
                <use id="zoomplus" xlink:href="#zoomPlus" x="17" y="9" onmousedown="handleZoom(evt,'in')"/>
                <use id="zoomminus" xlink:href="#zoomMin" x="42" y="9" onmousedown="handleZoom(evt,'out')"/>
                <use id="reset" xlink:href="#resetDef" x="30" y="36" onmousedown="handleReset()"/>
                <g id="arrowUp" xlink:href="#dirArrow" transform="translate(30 24)" onmousedown="handlePan(0,-1)">
                  <use xlink:href="#rim" fill="#404040">
                        <set attributeName="fill" to="#808080" begin="arrowUp.mouseover" end="arrowUp.mouseout"/>
                  </use>
                  <path fill="none" stroke="white" stroke-width="1.5" d="M0,-3.0v7 M-2.5,-0.5L0,-3.0L2.5,-0.5"/>
                </g>
                <g id="arrowRight" xlink:href="#dirArrow" transform="rotate(90) translate(36 -43)" onmousedown="handlePan(1,0)">
                  <use xlink:href="#rim" fill="#404040">
                        <set attributeName="fill" to="#808080" begin="arrowRight.mouseover" end="arrowRight.mouseout"/>
                  </use>
                  <path fill="none" stroke="white" stroke-width="1.5" d="M0,-3.0v7 M-2.5,-0.5L0,-3.0L2.5,-0.5"/>
                </g>
                <g id="arrowDown" xlink:href="#dirArrow" transform="rotate(180) translate(-30 -48)" onmousedown="handlePan(0,1)">
                  <use xlink:href="#rim" fill="#404040">
                        <set attributeName="fill" to="#808080" begin="arrowDown.mouseover" end="arrowDown.mouseout"/>
                  </use>
                  <path fill="none" stroke="white" stroke-width="1.5" d="M0,-3.0v7 M-2.5,-0.5L0,-3.0L2.5,-0.5"/>
                </g>
                <g id="arrowLeft" xlink:href="#dirArrow" transform="rotate(270) translate(-36 17)" onmousedown="handlePan(-1,0)">
                  <use xlink:href="#rim" fill="#404040">
                        <set attributeName="fill" to="#808080" begin="arrowLeft.mouseover" end="arrowLeft.mouseout"/>
                  </use>
                  <path fill="none" stroke="white" stroke-width="1.5" d="M0,-3.0v7 M-2.5,-0.5L0,-3.0L2.5,-0.5"/>
                </g>
        </g>
        <svg viewBox="0 0 15 15" width="100%" height="30px" preserveAspectRatio="xMaxYMin meet">
         <g id="arrow_out" transform="scale(0.3 0.3)">
          <a xlink:href="classlug_1_1Graphics_1_1Builder_1_1Camera__coll__graph_org.svg" target="_base">
           <rect id="button" ry="5" rx="5" y="6" x="6" height="38" width="38"
                fill="#f2f5e9" fill-opacity="0.5" stroke="#606060" stroke-width="1.0"/>
           <path id="arrow"
             d="M 11.500037,31.436501 C 11.940474,20.09759 22.043105,11.32322 32.158766,21.979434 L 37.068811,17.246167 C 37.068811,17.246167 37.088388,32 37.088388,32 L 22.160133,31.978069 C 22.160133,31.978069 26.997745,27.140456 26.997745,27.140456 C 18.528582,18.264221 13.291696,25.230495 11.500037,31.436501 z"
             style="fill:#404040;"/>
          </a>
         </g>
        </svg>
</svg>
