<?xml version="1.0" encoding="UTF-8" standalone="no"?>
<!DOCTYPE svg PUBLIC "-//W3C//DTD SVG 1.1//EN"
 "http://www.w3.org/Graphics/SVG/1.1/DTD/svg11.dtd">
<!-- Generated by graphviz version 2.40.1 (20161225.0304)
 -->
<!-- Title: lug::Graphics::Resource Pages: 1 -->
<svg width="216pt" height="195pt"
 viewBox="0.00 0.00 216.00 195.00" xmlns="http://www.w3.org/2000/svg" xmlns:xlink="http://www.w3.org/1999/xlink">
<g id="graph0" class="graph" transform="scale(1 1) rotate(0) translate(4 191)">
<title>lug::Graphics::Resource</title>
<!-- Node15 -->
<g id="node1" class="node">
<title>Node15</title>
<polygon fill="#bfbfbf" stroke="#000000" points="61,-.5 61,-19.5 200,-19.5 200,-.5 61,-.5"/>
<text text-anchor="middle" x="130.5" y="-7.5" font-family="Helvetica,sans-Serif" font-size="10.00" fill="#000000">lug::Graphics::Resource</text>
</g>
<!-- Node16 -->
<g id="node2" class="node">
<title>Node16</title>
<g id="a_node2"><a xlink:href="structlug_1_1Graphics_1_1Resource_1_1Handle.html" target="_top" xlink:title="Handle of the resource. It contains informations such as the type and the index in the ResourceManage...">
<polygon fill="none" stroke="#000000" points="6,-67.5 6,-97.5 145,-97.5 145,-67.5 6,-67.5"/>
<text text-anchor="start" x="14" y="-85.5" font-family="Helvetica,sans-Serif" font-size="10.00" fill="#000000">lug::Graphics::Resource</text>
<text text-anchor="middle" x="75.5" y="-74.5" font-family="Helvetica,sans-Serif" font-size="10.00" fill="#000000">::Handle</text>
</a>
</g>
</g>
<!-- Node16&#45;&gt;Node15 -->
<g id="edge1" class="edge">
<title>Node16&#45;&gt;Node15</title>
<path fill="none" stroke="#9a32cd" stroke-dasharray="5,2" d="M93.1601,-59.2208C103.2417,-45.9314 115.3556,-29.963 122.9929,-19.8957"/>
<polygon fill="#9a32cd" stroke="#9a32cd" points="90.1515,-57.3957 86.896,-67.478 95.7284,-61.6264 90.1515,-57.3957"/>
<text text-anchor="middle" x="130" y="-41" font-family="Helvetica,sans-Serif" font-size="10.00" fill="#000000"> _handle</text>
</g>
<!-- Node17 -->
<g id="node3" class="node">
<title>Node17</title>
<polygon fill="none" stroke="#bfbfbf" points="0,-167.5 0,-186.5 57,-186.5 57,-167.5 0,-167.5"/>
<text text-anchor="middle" x="28.5" y="-174.5" font-family="Helvetica,sans-Serif" font-size="10.00" fill="#000000">uint32_t</text>
</g>
<!-- Node17&#45;&gt;Node16 -->
<g id="edge2" class="edge">
<title>Node17&#45;&gt;Node16</title>
<path fill="none" stroke="#9a32cd" stroke-dasharray="5,2" d="M37.8855,-158.1291C46.7267,-140.3527 59.8019,-114.0632 67.9771,-97.6257"/>
<polygon fill="#9a32cd" stroke="#9a32cd" points="34.6722,-156.7304 33.3528,-167.2428 40.9398,-159.8477 34.6722,-156.7304"/>
<text text-anchor="middle" x="74" y="-141" font-family="Helvetica,sans-Serif" font-size="10.00" fill="#000000"> value</text>
<text text-anchor="middle" x="74" y="-130" font-family="Helvetica,sans-Serif" font-size="10.00" fill="#000000">type</text>
<text text-anchor="middle" x="74" y="-119" font-family="Helvetica,sans-Serif" font-size="10.00" fill="#000000">index</text>
</g>
<!-- Node18 -->
<g id="node4" class="node">
<title>Node18</title>
<polygon fill="none" stroke="#bfbfbf" points="75.5,-167.5 75.5,-186.5 169.5,-186.5 169.5,-167.5 75.5,-167.5"/>
<text text-anchor="middle" x="122.5" y="-174.5" font-family="Helvetica,sans-Serif" font-size="10.00" fill="#000000">anonymous:@5</text>
</g>
<!-- Node18&#45;&gt;Node16 -->
<g id="edge3" class="edge">
<title>Node18&#45;&gt;Node16</title>
<path fill="none" stroke="#9a32cd" stroke-dasharray="5,2" d="M113.8995,-158.2973C108.2497,-146.1664 100.6139,-130.0597 93.5,-116 90.4596,-109.991 86.9845,-103.4522 83.9037,-97.7598"/>
<polygon fill="#9a32cd" stroke="#9a32cd" points="110.7456,-159.8159 118.1232,-167.4199 117.0979,-156.8748 110.7456,-159.8159"/>
<text text-anchor="middle" x="119.5" y="-130" font-family="Helvetica,sans-Serif" font-size="10.00" fill="#000000"> @5</text>
</g>
<!-- Node19 -->
<g id="node5" class="node">
<title>Node19</title>
<polygon fill="none" stroke="#bfbfbf" points="163,-73 163,-92 208,-92 208,-73 163,-73"/>
<text text-anchor="middle" x="185.5" y="-80" font-family="Helvetica,sans-Serif" font-size="10.00" fill="#000000">string</text>
</g>
<!-- Node19&#45;&gt;Node15 -->
<g id="edge4" class="edge">
<title>Node19&#45;&gt;Node15</title>
<path fill="none" stroke="#9a32cd" stroke-dasharray="5,2" d="M173.9748,-64.2111C168.6065,-56.014 161.9834,-46.3363 155.5,-38 150.5391,-31.6212 144.5186,-24.8526 139.6289,-19.5683"/>
<polygon fill="#9a32cd" stroke="#9a32cd" points="171.0737,-66.1708 179.4281,-72.6865 176.9604,-62.3831 171.0737,-66.1708"/>
<text text-anchor="middle" x="181.5" y="-41" font-family="Helvetica,sans-Serif" font-size="10.00" fill="#000000"> _name</text>
</g>
</g>
</svg>
