<?xml version="1.0" encoding="UTF-8" standalone="no"?>
<!DOCTYPE svg PUBLIC "-//W3C//DTD SVG 1.1//EN"
 "http://www.w3.org/Graphics/SVG/1.1/DTD/svg11.dtd">
<!-- Generated by graphviz version 2.40.1 (20161225.0304)
 -->
<!-- Title: lug::Graphics::Vulkan::API::Swapchain Pages: 1 -->
<svg width="1339pt" height="391pt"
 viewBox="0.00 0.00 1339.00 391.00" xmlns="http://www.w3.org/2000/svg" xmlns:xlink="http://www.w3.org/1999/xlink">
<g id="graph0" class="graph" transform="scale(1 1) rotate(0) translate(4 387)">
<title>lug::Graphics::Vulkan::API::Swapchain</title>
<!-- Node1 -->
<g id="node1" class="node">
<title>Node1</title>
<polygon fill="#bfbfbf" stroke="#000000" points="1204,-115 1204,-145 1331,-145 1331,-115 1204,-115"/>
<text text-anchor="start" x="1212" y="-133" font-family="Helvetica,sans-Serif" font-size="10.00" fill="#000000">lug::Graphics::Vulkan</text>
<text text-anchor="middle" x="1267.5" y="-122" font-family="Helvetica,sans-Serif" font-size="10.00" fill="#000000">::API::Swapchain</text>
</g>
<!-- Node2 -->
<g id="node2" class="node">
<title>Node2</title>
<polygon fill="none" stroke="#bfbfbf" points="943,-252 943,-282 1080,-282 1080,-252 943,-252"/>
<text text-anchor="start" x="951" y="-270" font-family="Helvetica,sans-Serif" font-size="10.00" fill="#000000">vector&lt; lug::Graphics</text>
<text text-anchor="middle" x="1011.5" y="-259" font-family="Helvetica,sans-Serif" font-size="10.00" fill="#000000">::Vulkan::API::Image &gt;</text>
</g>
<!-- Node2&#45;&gt;Node1 -->
<g id="edge1" class="edge">
<title>Node2&#45;&gt;Node1</title>
<path fill="none" stroke="#9a32cd" stroke-dasharray="5,2" d="M1090.2772,-249.9609C1121.567,-241.0297 1156.9483,-228.0874 1186,-210 1214.4449,-192.2904 1240.8519,-163.0985 1255.5151,-145.3025"/>
<polygon fill="#9a32cd" stroke="#9a32cd" points="1088.9837,-246.687 1080.2751,-252.7212 1090.8459,-253.4347 1088.9837,-246.687"/>
<text text-anchor="middle" x="1148" y="-245" font-family="Helvetica,sans-Serif" font-size="10.00" fill="#000000"> _images</text>
</g>
<!-- Node3 -->
<g id="node3" class="node">
<title>Node3</title>
<polygon fill="none" stroke="#bfbfbf" points="931,-203 931,-233 1092,-233 1092,-203 931,-203"/>
<text text-anchor="start" x="939" y="-221" font-family="Helvetica,sans-Serif" font-size="10.00" fill="#000000">vector&lt; lug::Graphics</text>
<text text-anchor="middle" x="1011.5" y="-210" font-family="Helvetica,sans-Serif" font-size="10.00" fill="#000000">::Vulkan::API::ImageView &gt;</text>
</g>
<!-- Node3&#45;&gt;Node1 -->
<g id="edge2" class="edge">
<title>Node3&#45;&gt;Node1</title>
<path fill="none" stroke="#9a32cd" stroke-dasharray="5,2" d="M1092.6069,-200.5244C1122.4254,-193.0858 1156.177,-183.4574 1186,-172 1205.3165,-164.579 1226.0313,-153.8643 1241.7432,-145.1147"/>
<polygon fill="#9a32cd" stroke="#9a32cd" points="1091.5363,-197.1831 1082.6567,-202.9626 1093.2023,-203.982 1091.5363,-197.1831"/>
<text text-anchor="middle" x="1148" y="-198" font-family="Helvetica,sans-Serif" font-size="10.00" fill="#000000"> _imagesViews</text>
</g>
<!-- Node4 -->
<g id="node4" class="node">
<title>Node4</title>
<polygon fill="none" stroke="#bfbfbf" points="992.5,-164.5 992.5,-183.5 1030.5,-183.5 1030.5,-164.5 992.5,-164.5"/>
<text text-anchor="middle" x="1011.5" y="-171.5" font-family="Helvetica,sans-Serif" font-size="10.00" fill="#000000">bool</text>
</g>
<!-- Node4&#45;&gt;Node1 -->
<g id="edge3" class="edge">
<title>Node4&#45;&gt;Node1</title>
<path fill="none" stroke="#9a32cd" stroke-dasharray="5,2" d="M1040.54,-169.3318C1075.193,-163.7247 1134.8721,-153.9528 1186,-145 1191.8102,-143.9826 1197.8499,-142.9063 1203.8964,-141.8161"/>
<polygon fill="#9a32cd" stroke="#9a32cd" points="1039.9403,-165.8832 1030.6262,-170.9327 1041.0563,-172.7937 1039.9403,-165.8832"/>
<text text-anchor="middle" x="1148" y="-160" font-family="Helvetica,sans-Serif" font-size="10.00" fill="#000000"> _outOfDate</text>
</g>
<!-- Node5 -->
<g id="node5" class="node">
<title>Node5</title>
<g id="a_node5"><a xlink:href="classlug_1_1Graphics_1_1Vulkan_1_1API_1_1Device.html" target="_top" xlink:title="lug::Graphics::Vulkan\l::API::Device">
<polygon fill="none" stroke="#000000" points="948,-115 948,-145 1075,-145 1075,-115 948,-115"/>
<text text-anchor="start" x="956" y="-133" font-family="Helvetica,sans-Serif" font-size="10.00" fill="#000000">lug::Graphics::Vulkan</text>
<text text-anchor="middle" x="1011.5" y="-122" font-family="Helvetica,sans-Serif" font-size="10.00" fill="#000000">::API::Device</text>
</a>
</g>
</g>
<!-- Node5&#45;&gt;Node1 -->
<g id="edge4" class="edge">
<title>Node5&#45;&gt;Node1</title>
<path fill="none" stroke="#9a32cd" stroke-dasharray="5,2" d="M1085.4548,-130C1122.892,-130 1167.8848,-130 1203.7738,-130"/>
<polygon fill="#9a32cd" stroke="#9a32cd" points="1085.1099,-126.5001 1075.1098,-130 1085.1098,-133.5001 1085.1099,-126.5001"/>
<text text-anchor="middle" x="1148" y="-133" font-family="Helvetica,sans-Serif" font-size="10.00" fill="#000000"> _device</text>
</g>
<!-- Node6 -->
<g id="node6" class="node">
<title>Node6</title>
<g id="a_node6"><a xlink:href="structlug_1_1Graphics_1_1Vulkan_1_1PhysicalDeviceInfo.html" target="_top" xlink:title="lug::Graphics::Vulkan\l::PhysicalDeviceInfo">
<polygon fill="none" stroke="#000000" points="642.5,-164 642.5,-194 769.5,-194 769.5,-164 642.5,-164"/>
<text text-anchor="start" x="650.5" y="-182" font-family="Helvetica,sans-Serif" font-size="10.00" fill="#000000">lug::Graphics::Vulkan</text>
<text text-anchor="middle" x="706" y="-171" font-family="Helvetica,sans-Serif" font-size="10.00" fill="#000000">::PhysicalDeviceInfo</text>
</a>
</g>
</g>
<!-- Node6&#45;&gt;Node5 -->
<g id="edge5" class="edge">
<title>Node6&#45;&gt;Node5</title>
<path fill="none" stroke="#9a32cd" stroke-dasharray="5,2" d="M779.715,-167.1767C831.0846,-158.9373 898.9139,-148.058 947.911,-140.1992"/>
<polygon fill="#9a32cd" stroke="#9a32cd" points="778.9904,-163.748 769.6709,-168.7876 780.0991,-170.6597 778.9904,-163.748"/>
<text text-anchor="middle" x="861" y="-164" font-family="Helvetica,sans-Serif" font-size="10.00" fill="#000000"> _physicalDeviceInfo</text>
</g>
<!-- Node7 -->
<g id="node7" class="node">
<title>Node7</title>
<g id="a_node7"><a xlink:href="structlug_1_1Graphics_1_1Vulkan_1_1PhysicalDeviceInfo_1_1Swapchain.html" target="_top" xlink:title="lug::Graphics::Vulkan\l::PhysicalDeviceInfo\l::Swapchain">
<polygon fill="none" stroke="#000000" points="324.5,-314.5 324.5,-355.5 451.5,-355.5 451.5,-314.5 324.5,-314.5"/>
<text text-anchor="start" x="332.5" y="-343.5" font-family="Helvetica,sans-Serif" font-size="10.00" fill="#000000">lug::Graphics::Vulkan</text>
<text text-anchor="start" x="332.5" y="-332.5" font-family="Helvetica,sans-Serif" font-size="10.00" fill="#000000">::PhysicalDeviceInfo</text>
<text text-anchor="middle" x="388" y="-321.5" font-family="Helvetica,sans-Serif" font-size="10.00" fill="#000000">::Swapchain</text>
</a>
</g>
</g>
<!-- Node7&#45;&gt;Node6 -->
<g id="edge6" class="edge">
<title>Node7&#45;&gt;Node6</title>
<path fill="none" stroke="#9a32cd" stroke-dasharray="5,2" d="M461.6295,-323.495C504.7948,-314.5982 559.2582,-299.5358 603,-275 641.1623,-253.5939 676.3144,-215.1878 694.0081,-194.0208"/>
<polygon fill="#9a32cd" stroke="#9a32cd" points="460.881,-320.0752 451.7585,-325.4633 462.2499,-326.9401 460.881,-320.0752"/>
<text text-anchor="middle" x="554.5" y="-315" font-family="Helvetica,sans-Serif" font-size="10.00" fill="#000000"> swapchain</text>
</g>
<!-- Node8 -->
<g id="node8" class="node">
<title>Node8</title>
<polygon fill="none" stroke="#bfbfbf" points="16.5,-363.5 16.5,-382.5 162.5,-382.5 162.5,-363.5 16.5,-363.5"/>
<text text-anchor="middle" x="89.5" y="-370.5" font-family="Helvetica,sans-Serif" font-size="10.00" fill="#000000">VkSurfaceCapabilitiesKHR</text>
</g>
<!-- Node8&#45;&gt;Node7 -->
<g id="edge7" class="edge">
<title>Node8&#45;&gt;Node7</title>
<path fill="none" stroke="#9a32cd" stroke-dasharray="5,2" d="M172.5828,-362.4233C220.5932,-356.3114 280.0566,-348.7415 324.3375,-343.1044"/>
<polygon fill="#9a32cd" stroke="#9a32cd" points="171.9992,-358.9692 162.5213,-363.7042 172.8833,-365.9132 171.9992,-358.9692"/>
<text text-anchor="middle" x="233.5" y="-361" font-family="Helvetica,sans-Serif" font-size="10.00" fill="#000000"> capabilities</text>
</g>
<!-- Node9 -->
<g id="node9" class="node">
<title>Node9</title>
<polygon fill="none" stroke="#bfbfbf" points="0,-325.5 0,-344.5 179,-344.5 179,-325.5 0,-325.5"/>
<text text-anchor="middle" x="89.5" y="-332.5" font-family="Helvetica,sans-Serif" font-size="10.00" fill="#000000">vector&lt; VkSurfaceFormatKHR &gt;</text>
</g>
<!-- Node9&#45;&gt;Node7 -->
<g id="edge8" class="edge">
<title>Node9&#45;&gt;Node7</title>
<path fill="none" stroke="#9a32cd" stroke-dasharray="5,2" d="M189.3241,-335C233.799,-335 284.8747,-335 324.1016,-335"/>
<polygon fill="#9a32cd" stroke="#9a32cd" points="189.0599,-331.5001 179.0598,-335 189.0598,-338.5001 189.0599,-331.5001"/>
<text text-anchor="middle" x="233.5" y="-338" font-family="Helvetica,sans-Serif" font-size="10.00" fill="#000000"> formats</text>
</g>
<!-- Node10 -->
<g id="node10" class="node">
<title>Node10</title>
<polygon fill="none" stroke="#bfbfbf" points="4.5,-287.5 4.5,-306.5 174.5,-306.5 174.5,-287.5 4.5,-287.5"/>
<text text-anchor="middle" x="89.5" y="-294.5" font-family="Helvetica,sans-Serif" font-size="10.00" fill="#000000">vector&lt; VkPresentModeKHR &gt;</text>
</g>
<!-- Node10&#45;&gt;Node7 -->
<g id="edge9" class="edge">
<title>Node10&#45;&gt;Node7</title>
<path fill="none" stroke="#9a32cd" stroke-dasharray="5,2" d="M174.4265,-307.8114C222.0428,-313.8731 280.4605,-321.3099 324.1567,-326.8725"/>
<polygon fill="#9a32cd" stroke="#9a32cd" points="174.8008,-304.3309 164.4389,-306.54 173.9168,-311.2749 174.8008,-304.3309"/>
<text text-anchor="middle" x="233.5" y="-322" font-family="Helvetica,sans-Serif" font-size="10.00" fill="#000000"> presentModes</text>
</g>
<!-- Node11 -->
<g id="node11" class="node">
<title>Node11</title>
<polygon fill="none" stroke="#bfbfbf" points="308.5,-265 308.5,-295 467.5,-295 467.5,-265 308.5,-265"/>
<text text-anchor="start" x="316.5" y="-283" font-family="Helvetica,sans-Serif" font-size="10.00" fill="#000000">unordered_map&lt; VkFormat,</text>
<text text-anchor="middle" x="388" y="-272" font-family="Helvetica,sans-Serif" font-size="10.00" fill="#000000"> VkFormatProperties &gt;</text>
</g>
<!-- Node11&#45;&gt;Node6 -->
<g id="edge10" class="edge">
<title>Node11&#45;&gt;Node6</title>
<path fill="none" stroke="#9a32cd" stroke-dasharray="5,2" d="M477.7382,-267.2435C516.9352,-260.144 562.9918,-249.7019 603,-235 631.8484,-224.399 662.5,-206.8206 682.7908,-194.1842"/>
<polygon fill="#9a32cd" stroke="#9a32cd" points="476.9054,-263.8363 467.6664,-269.0221 478.1227,-270.7297 476.9054,-263.8363"/>
<text text-anchor="middle" x="554.5" y="-263" font-family="Helvetica,sans-Serif" font-size="10.00" fill="#000000"> formatProperties</text>
</g>
<!-- Node12 -->
<g id="node12" class="node">
<title>Node12</title>
<polygon fill="none" stroke="#bfbfbf" points="315,-226.5 315,-245.5 461,-245.5 461,-226.5 315,-226.5"/>
<text text-anchor="middle" x="388" y="-233.5" font-family="Helvetica,sans-Serif" font-size="10.00" fill="#000000">VkPhysicalDeviceFeatures</text>
</g>
<!-- Node12&#45;&gt;Node6 -->
<g id="edge11" class="edge">
<title>Node12&#45;&gt;Node6</title>
<path fill="none" stroke="#9a32cd" stroke-dasharray="5,2" d="M471.4332,-226.0252C511.4044,-220.7232 559.8563,-213.5316 603,-205 618.65,-201.9052 635.4836,-197.9334 650.9141,-194.0306"/>
<polygon fill="#9a32cd" stroke="#9a32cd" points="470.9225,-222.5622 461.4622,-227.3322 471.8322,-229.5028 470.9225,-222.5622"/>
<text text-anchor="middle" x="554.5" y="-223" font-family="Helvetica,sans-Serif" font-size="10.00" fill="#000000"> features</text>
</g>
<!-- Node13 -->
<g id="node13" class="node">
<title>Node13</title>
<polygon fill="none" stroke="#bfbfbf" points="288,-188.5 288,-207.5 488,-207.5 488,-188.5 288,-188.5"/>
<text text-anchor="middle" x="388" y="-195.5" font-family="Helvetica,sans-Serif" font-size="10.00" fill="#000000">vector&lt; VkQueueFamilyProperties &gt;</text>
</g>
<!-- Node13&#45;&gt;Node6 -->
<g id="edge12" class="edge">
<title>Node13&#45;&gt;Node6</title>
<path fill="none" stroke="#9a32cd" stroke-dasharray="5,2" d="M498.3415,-191.4073C546.4596,-188.5323 601.1572,-185.2642 642.3325,-182.804"/>
<polygon fill="#9a32cd" stroke="#9a32cd" points="497.9541,-187.9241 488.1807,-192.0144 498.3717,-194.9116 497.9541,-187.9241"/>
<text text-anchor="middle" x="554.5" y="-193" font-family="Helvetica,sans-Serif" font-size="10.00" fill="#000000"> queueFamilies</text>
</g>
<!-- Node14 -->
<g id="node14" class="node">
<title>Node14</title>
<polygon fill="none" stroke="#bfbfbf" points="290.5,-150.5 290.5,-169.5 485.5,-169.5 485.5,-150.5 290.5,-150.5"/>
<text text-anchor="middle" x="388" y="-157.5" font-family="Helvetica,sans-Serif" font-size="10.00" fill="#000000">VkPhysicalDeviceMemoryProperties</text>
</g>
<!-- Node14&#45;&gt;Node6 -->
<g id="edge13" class="edge">
<title>Node14&#45;&gt;Node6</title>
<path fill="none" stroke="#9a32cd" stroke-dasharray="5,2" d="M495.751,-164.1518C530.0489,-165.7038 568.1331,-167.6668 603,-170 615.7161,-170.8509 629.3015,-171.9221 642.2958,-173.026"/>
<polygon fill="#9a32cd" stroke="#9a32cd" points="495.8574,-160.6532 485.7115,-163.7043 495.5457,-167.6463 495.8574,-160.6532"/>
<text text-anchor="middle" x="554.5" y="-173" font-family="Helvetica,sans-Serif" font-size="10.00" fill="#000000"> memoryProperties</text>
</g>
<!-- Node15 -->
<g id="node15" class="node">
<title>Node15</title>
<polygon fill="none" stroke="#bfbfbf" points="336,-112.5 336,-131.5 440,-131.5 440,-112.5 336,-112.5"/>
<text text-anchor="middle" x="388" y="-119.5" font-family="Helvetica,sans-Serif" font-size="10.00" fill="#000000">VkPhysicalDevice</text>
</g>
<!-- Node15&#45;&gt;Node6 -->
<g id="edge14" class="edge">
<title>Node15&#45;&gt;Node6</title>
<path fill="none" stroke="#9a32cd" stroke-dasharray="5,2" d="M450.2805,-126.5574C493.51,-130.5133 552.2261,-137.4678 603,-149 611.2233,-150.8677 612.9401,-152.5203 621,-155 630.6729,-157.976 641.008,-161.0127 651.0208,-163.881"/>
<polygon fill="#9a32cd" stroke="#9a32cd" points="450.4643,-123.0601 440.1942,-125.663 449.8459,-130.0327 450.4643,-123.0601"/>
<text text-anchor="middle" x="554.5" y="-152" font-family="Helvetica,sans-Serif" font-size="10.00" fill="#000000"> handle</text>
</g>
<!-- Node16 -->
<g id="node16" class="node">
<title>Node16</title>
<polygon fill="none" stroke="#bfbfbf" points="310.5,-74.5 310.5,-93.5 465.5,-93.5 465.5,-74.5 310.5,-74.5"/>
<text text-anchor="middle" x="388" y="-81.5" font-family="Helvetica,sans-Serif" font-size="10.00" fill="#000000">VkPhysicalDeviceProperties</text>
</g>
<!-- Node16&#45;&gt;Node6 -->
<g id="edge15" class="edge">
<title>Node16&#45;&gt;Node6</title>
<path fill="none" stroke="#9a32cd" stroke-dasharray="5,2" d="M475.8296,-79.7988C517.9094,-82.0171 566.8779,-91.2496 603,-118 617.6961,-128.8833 606.9733,-143.2667 621,-155 627.2336,-160.2144 634.5294,-164.2984 642.1803,-167.4965"/>
<polygon fill="#9a32cd" stroke="#9a32cd" points="475.7048,-76.2911 465.5725,-79.3873 475.4241,-83.2854 475.7048,-76.2911"/>
<text text-anchor="middle" x="554.5" y="-121" font-family="Helvetica,sans-Serif" font-size="10.00" fill="#000000"> properties</text>
</g>
<!-- Node17 -->
<g id="node17" class="node">
<title>Node17</title>
<polygon fill="none" stroke="#bfbfbf" points="296,-36.5 296,-55.5 480,-55.5 480,-36.5 296,-36.5"/>
<text text-anchor="middle" x="388" y="-43.5" font-family="Helvetica,sans-Serif" font-size="10.00" fill="#000000">vector&lt; VkExtensionProperties &gt;</text>
</g>
<!-- Node17&#45;&gt;Node6 -->
<g id="edge16" class="edge">
<title>Node17&#45;&gt;Node6</title>
<path fill="none" stroke="#9a32cd" stroke-dasharray="5,2" d="M445.8399,-35.2145C493.9201,-29.8019 561.0321,-31.0228 603,-69 631.9552,-95.2019 594.3541,-126.4529 621,-155 626.8593,-161.2773 634.2225,-165.9568 642.1513,-169.437"/>
<polygon fill="#9a32cd" stroke="#9a32cd" points="445.3733,-31.7454 435.8849,-36.4593 446.2419,-38.6914 445.3733,-31.7454"/>
<text text-anchor="middle" x="554.5" y="-72" font-family="Helvetica,sans-Serif" font-size="10.00" fill="#000000"> extensions</text>
</g>
<!-- Node18 -->
<g id="node18" class="node">
<title>Node18</title>
<polygon fill="none" stroke="#bfbfbf" points="621,-115 621,-145 791,-145 791,-115 621,-115"/>
<text text-anchor="start" x="629" y="-133" font-family="Helvetica,sans-Serif" font-size="10.00" fill="#000000">vector&lt; lug::Graphics</text>
<text text-anchor="middle" x="706" y="-122" font-family="Helvetica,sans-Serif" font-size="10.00" fill="#000000">::Vulkan::API::QueueFamily &gt;</text>
</g>
<!-- Node18&#45;&gt;Node5 -->
<g id="edge17" class="edge">
<title>Node18&#45;&gt;Node5</title>
<path fill="none" stroke="#9a32cd" stroke-dasharray="5,2" d="M801.1319,-130C848.8127,-130 905.2699,-130 947.6868,-130"/>
<polygon fill="#9a32cd" stroke="#9a32cd" points="801.0988,-126.5001 791.0988,-130 801.0987,-133.5001 801.0988,-126.5001"/>
<text text-anchor="middle" x="861" y="-133" font-family="Helvetica,sans-Serif" font-size="10.00" fill="#000000"> _queueFamilies</text>
</g>
<!-- Node19 -->
<g id="node19" class="node">
<title>Node19</title>
<polygon fill="none" stroke="#bfbfbf" points="674.5,-76.5 674.5,-95.5 737.5,-95.5 737.5,-76.5 674.5,-76.5"/>
<text text-anchor="middle" x="706" y="-83.5" font-family="Helvetica,sans-Serif" font-size="10.00" fill="#000000">VkDevice</text>
</g>
<!-- Node19&#45;&gt;Node5 -->
<g id="edge18" class="edge">
<title>Node19&#45;&gt;Node5</title>
<path fill="none" stroke="#9a32cd" stroke-dasharray="5,2" d="M747.6638,-91.6883C789.4809,-97.4325 855.7342,-106.6286 913,-115 924.2965,-116.6514 936.3153,-118.4483 947.9331,-120.2059"/>
<polygon fill="#9a32cd" stroke="#9a32cd" points="747.9621,-88.1965 737.5792,-90.3049 747.0107,-95.1316 747.9621,-88.1965"/>
<text text-anchor="middle" x="861" y="-118" font-family="Helvetica,sans-Serif" font-size="10.00" fill="#000000"> _device</text>
</g>
<!-- Node20 -->
<g id="node20" class="node">
<title>Node20</title>
<polygon fill="none" stroke="#bfbfbf" points="974.5,-76.5 974.5,-95.5 1048.5,-95.5 1048.5,-76.5 974.5,-76.5"/>
<text text-anchor="middle" x="1011.5" y="-83.5" font-family="Helvetica,sans-Serif" font-size="10.00" fill="#000000">VkExtent2D</text>
</g>
<!-- Node20&#45;&gt;Node1 -->
<g id="edge19" class="edge">
<title>Node20&#45;&gt;Node1</title>
<path fill="none" stroke="#9a32cd" stroke-dasharray="5,2" d="M1058.6123,-93.6028C1093.7496,-99.3281 1142.9115,-107.455 1186,-115 1191.8102,-116.0174 1197.8499,-117.0937 1203.8964,-118.1839"/>
<polygon fill="#9a32cd" stroke="#9a32cd" points="1059.0684,-90.131 1048.6362,-91.9803 1057.9447,-97.0402 1059.0684,-90.131"/>
<text text-anchor="middle" x="1148" y="-118" font-family="Helvetica,sans-Serif" font-size="10.00" fill="#000000"> _extent</text>
</g>
<!-- Node21 -->
<g id="node21" class="node">
<title>Node21</title>
<polygon fill="none" stroke="#bfbfbf" points="949.5,-38.5 949.5,-57.5 1073.5,-57.5 1073.5,-38.5 949.5,-38.5"/>
<text text-anchor="middle" x="1011.5" y="-45.5" font-family="Helvetica,sans-Serif" font-size="10.00" fill="#000000">VkSurfaceFormatKHR</text>
</g>
<!-- Node21&#45;&gt;Node1 -->
<g id="edge20" class="edge">
<title>Node21&#45;&gt;Node1</title>
<path fill="none" stroke="#9a32cd" stroke-dasharray="5,2" d="M1082.6114,-59.454C1114.7578,-65.7538 1152.8785,-74.8088 1186,-87 1205.9676,-94.3496 1227.1855,-105.6687 1242.965,-114.8491"/>
<polygon fill="#9a32cd" stroke="#9a32cd" points="1082.877,-55.9416 1072.3982,-57.5049 1081.5648,-62.8175 1082.877,-55.9416"/>
<text text-anchor="middle" x="1148" y="-90" font-family="Helvetica,sans-Serif" font-size="10.00" fill="#000000"> _format</text>
</g>
<!-- Node22 -->
<g id="node22" class="node">
<title>Node22</title>
<polygon fill="none" stroke="#bfbfbf" points="959.5,-.5 959.5,-19.5 1063.5,-19.5 1063.5,-.5 959.5,-.5"/>
<text text-anchor="middle" x="1011.5" y="-7.5" font-family="Helvetica,sans-Serif" font-size="10.00" fill="#000000">VkSwapchainKHR</text>
</g>
<!-- Node22&#45;&gt;Node1 -->
<g id="edge21" class="edge">
<title>Node22&#45;&gt;Node1</title>
<path fill="none" stroke="#9a32cd" stroke-dasharray="5,2" d="M1073.7566,-16.3621C1108.4366,-21.8818 1151.4547,-32.1145 1186,-51 1215.3939,-67.0693 1241.6888,-96.6339 1256.0385,-114.6841"/>
<polygon fill="#9a32cd" stroke="#9a32cd" points="1074.1549,-12.8828 1063.7465,-14.8614 1073.1171,-19.8054 1074.1549,-12.8828"/>
<text text-anchor="middle" x="1148" y="-54" font-family="Helvetica,sans-Serif" font-size="10.00" fill="#000000"> _swapchain</text>
</g>
</g>
</svg>
