<?xml version="1.0" encoding="UTF-8" standalone="no"?>
<!DOCTYPE svg PUBLIC "-//W3C//DTD SVG 1.1//EN"
 "http://www.w3.org/Graphics/SVG/1.1/DTD/svg11.dtd">
<!-- Generated by graphviz version 2.40.1 (20161225.0304)
 -->
<!-- Title: lug::Graphics::Render::Model::Mesh Pages: 1 -->
<!--zoomable 221 -->
<svg id="main" version="1.1" xmlns="http://www.w3.org/2000/svg" xmlns:xlink="http://www.w3.org/1999/xlink" xml:space="preserve" onload="init(evt)">
<style type="text/css"><![CDATA[
.edge:hover path { stroke: red; }
.edge:hover polygon { stroke: red; fill: red; }
]]></style>
<script type="text/javascript"><![CDATA[
var edges = document.getElementsByTagName('g');
if (edges && edges.length) {
  for (var i=0;i<edges.length;i++) {
    if (edges[i].id.substr(0,4)=='edge') {
      edges[i].setAttribute('class','edge');
    }
  }
}
]]></script>
        <defs>
                <circle id="rim" cx="0" cy="0" r="7"/>
                <circle id="rim2" cx="0" cy="0" r="3.5"/>
                <g id="zoomPlus">
                        <use xlink:href="#rim" fill="#404040">
                                <set attributeName="fill" to="#808080" begin="zoomplus.mouseover" end="zoomplus.mouseout"/>
                        </use>
                        <path d="M-4,0h8M0,-4v8" fill="none" stroke="white" stroke-width="1.5" pointer-events="none"/>
                </g>
                <g id="zoomMin">
                        <use xlink:href="#rim" fill="#404040">
                                <set attributeName="fill" to="#808080" begin="zoomminus.mouseover" end="zoomminus.mouseout"/>
                        </use>
                        <path d="M-4,0h8" fill="none" stroke="white" stroke-width="1.5" pointer-events="none"/>
                </g>
                <g id="dirArrow">
                        <path fill="none" stroke="white" stroke-width="1.5" d="M0,-3.0v7 M-2.5,-0.5L0,-3.0L2.5,-0.5"/>
                </g>
               <g id="resetDef">
                       <use xlink:href="#rim2" fill="#404040">
                               <set attributeName="fill" to="#808080" begin="reset.mouseover" end="reset.mouseout"/>
                       </use>
               </g>
        </defs>

<script type="text/javascript">
var viewWidth = 758;
var viewHeight = 221;
var sectionId = 'dynsection-1';
</script>
<script xlink:href="svgpan.js"/>
<svg id="graph" class="graph">
<g id="viewport">
<title>lug::Graphics::Render::Model::Mesh</title>
<!-- Node2 -->
<g id="node1" class="node">
<title>Node2</title>
<polygon fill="#bfbfbf" stroke="#000000" points="622,-56.5 622,-86.5 750,-86.5 750,-56.5 622,-56.5"/>
<text text-anchor="start" x="630" y="-74.5" font-family="Helvetica,sans-Serif" font-size="10.00" fill="#000000">lug::Graphics::Render</text>
<text text-anchor="middle" x="686" y="-63.5" font-family="Helvetica,sans-Serif" font-size="10.00" fill="#000000">::Model::Mesh</text>
</g>
<!-- Node3 -->
<g id="node2" class="node">
<title>Node3</title>
<g id="a_node2"><a xlink:href="classlug_1_1Graphics_1_1Render_1_1Mesh.html" target="_top" xlink:title="lug::Graphics::Render\l::Mesh">
<polygon fill="none" stroke="#000000" points="384,-82.5 384,-112.5 512,-112.5 512,-82.5 384,-82.5"/>
<text text-anchor="start" x="392" y="-100.5" font-family="Helvetica,sans-Serif" font-size="10.00" fill="#000000">lug::Graphics::Render</text>
<text text-anchor="middle" x="448" y="-89.5" font-family="Helvetica,sans-Serif" font-size="10.00" fill="#000000">::Mesh</text>
</a>
</g>
</g>
<!-- Node3&#45;&gt;Node2 -->
<g id="edge1" class="edge">
<title>Node3&#45;&gt;Node2</title>
<path fill="none" stroke="#191970" d="M522.2606,-89.3875C554.1652,-85.9021 591.0914,-81.8682 621.7928,-78.5142"/>
<polygon fill="#191970" stroke="#191970" points="521.6534,-85.9329 512.0927,-90.4983 522.4137,-92.8915 521.6534,-85.9329"/>
</g>
<!-- Node4 -->
<g id="node3" class="node">
<title>Node4</title>
<g id="a_node3"><a xlink:href="structlug_1_1Graphics_1_1Render_1_1Mesh_1_1Material.html" target="_top" xlink:title="lug::Graphics::Render\l::Mesh::Material">
<polygon fill="none" stroke="#000000" points="135.5,-164.5 135.5,-194.5 263.5,-194.5 263.5,-164.5 135.5,-164.5"/>
<text text-anchor="start" x="143.5" y="-182.5" font-family="Helvetica,sans-Serif" font-size="10.00" fill="#000000">lug::Graphics::Render</text>
<text text-anchor="middle" x="199.5" y="-171.5" font-family="Helvetica,sans-Serif" font-size="10.00" fill="#000000">::Mesh::Material</text>
</a>
</g>
</g>
<!-- Node4&#45;&gt;Node3 -->
<g id="edge2" class="edge">
<title>Node4&#45;&gt;Node3</title>
<path fill="none" stroke="#9a32cd" stroke-dasharray="5,2" d="M273.8014,-164.227C302.9559,-157.3391 336.4452,-148.3041 366,-137.5 384.7447,-130.6477 404.9019,-120.8507 420.5404,-112.6676"/>
<polygon fill="#9a32cd" stroke="#9a32cd" points="272.6343,-160.9047 263.6834,-166.5732 274.2156,-167.7238 272.6343,-160.9047"/>
<text text-anchor="middle" x="329" y="-161.5" font-family="Helvetica,sans-Serif" font-size="10.00" fill="#000000"> _baseMaterial</text>
</g>
<!-- Node5 -->
<g id="node4" class="node">
<title>Node5</title>
<polygon fill="none" stroke="#bfbfbf" points="0,-170 0,-189 44,-189 44,-170 0,-170"/>
<text text-anchor="middle" x="22" y="-177" font-family="Helvetica,sans-Serif" font-size="10.00" fill="#000000">Vec3f</text>
</g>
<!-- Node5&#45;&gt;Node4 -->
<g id="edge3" class="edge">
<title>Node5&#45;&gt;Node4</title>
<path fill="none" stroke="#9a32cd" stroke-dasharray="5,2" d="M54.1865,-179.5C76.7999,-179.5 107.813,-179.5 135.3822,-179.5"/>
<polygon fill="#9a32cd" stroke="#9a32cd" points="54.1216,-176.0001 44.1216,-179.5 54.1216,-183.0001 54.1216,-176.0001"/>
<text text-anchor="middle" x="84.5" y="-204.5" font-family="Helvetica,sans-Serif" font-size="10.00" fill="#000000"> ambient</text>
<text text-anchor="middle" x="84.5" y="-193.5" font-family="Helvetica,sans-Serif" font-size="10.00" fill="#000000">diffuse</text>
<text text-anchor="middle" x="84.5" y="-182.5" font-family="Helvetica,sans-Serif" font-size="10.00" fill="#000000">specular</text>
</g>
<!-- Node6 -->
<g id="node5" class="node">
<title>Node6</title>
<polygon fill="none" stroke="#bfbfbf" points="177,-126 177,-145 222,-145 222,-126 177,-126"/>
<text text-anchor="middle" x="199.5" y="-133" font-family="Helvetica,sans-Serif" font-size="10.00" fill="#000000">string</text>
</g>
<!-- Node6&#45;&gt;Node3 -->
<g id="edge4" class="edge">
<title>Node6&#45;&gt;Node3</title>
<path fill="none" stroke="#9a32cd" stroke-dasharray="5,2" d="M232.3448,-131.393C265.9733,-127.0871 319.7226,-119.9254 366,-112.5 371.7158,-111.5829 377.6474,-110.5861 383.5878,-109.5571"/>
<polygon fill="#9a32cd" stroke="#9a32cd" points="231.6469,-127.9535 222.1685,-132.6874 232.5302,-134.8975 231.6469,-127.9535"/>
<text text-anchor="middle" x="329" y="-125.5" font-family="Helvetica,sans-Serif" font-size="10.00" fill="#000000"> _name</text>
</g>
<!-- Node7 -->
<g id="node6" class="node">
<title>Node7</title>
<polygon fill="none" stroke="#bfbfbf" points="180.5,-88 180.5,-107 218.5,-107 218.5,-88 180.5,-88"/>
<text text-anchor="middle" x="199.5" y="-95" font-family="Helvetica,sans-Serif" font-size="10.00" fill="#000000">bool</text>
</g>
<!-- Node7&#45;&gt;Node3 -->
<g id="edge5" class="edge">
<title>Node7&#45;&gt;Node3</title>
<path fill="none" stroke="#9a32cd" stroke-dasharray="5,2" d="M228.9306,-97.5C266.8829,-97.5 333.9395,-97.5 383.8978,-97.5"/>
<polygon fill="#9a32cd" stroke="#9a32cd" points="228.5868,-94.0001 218.5868,-97.5 228.5867,-101.0001 228.5868,-94.0001"/>
<text text-anchor="middle" x="329" y="-100.5" font-family="Helvetica,sans-Serif" font-size="10.00" fill="#000000"> _loaded</text>
</g>
<!-- Node8 -->
<g id="node7" class="node">
<title>Node8</title>
<polygon fill="none" stroke="#bfbfbf" points="143,-50 143,-69 256,-69 256,-50 143,-50"/>
<text text-anchor="middle" x="199.5" y="-57" font-family="Helvetica,sans-Serif" font-size="10.00" fill="#000000">vector&lt; uint32_t &gt;</text>
</g>
<!-- Node8&#45;&gt;Node3 -->
<g id="edge6" class="edge">
<title>Node8&#45;&gt;Node3</title>
<path fill="none" stroke="#9a32cd" stroke-dasharray="5,2" d="M266.3151,-68.0519C296.7673,-72.1237 333.2543,-77.2458 366,-82.5 371.7158,-83.4171 377.6474,-84.4139 383.5878,-85.4429"/>
<polygon fill="#9a32cd" stroke="#9a32cd" points="266.6071,-64.56 256.2333,-66.7126 265.6853,-71.4991 266.6071,-64.56"/>
<text text-anchor="middle" x="329" y="-85.5" font-family="Helvetica,sans-Serif" font-size="10.00" fill="#000000"> indices</text>
</g>
<!-- Node9 -->
<g id="node8" class="node">
<title>Node9</title>
<polygon fill="none" stroke="#bfbfbf" points="125,-.5 125,-30.5 274,-30.5 274,-.5 125,-.5"/>
<text text-anchor="start" x="133" y="-18.5" font-family="Helvetica,sans-Serif" font-size="10.00" fill="#000000">vector&lt; lug::Graphics</text>
<text text-anchor="middle" x="199.5" y="-7.5" font-family="Helvetica,sans-Serif" font-size="10.00" fill="#000000">::Render::Mesh::Vertex &gt;</text>
</g>
<!-- Node9&#45;&gt;Node3 -->
<g id="edge7" class="edge">
<title>Node9&#45;&gt;Node3</title>
<path fill="none" stroke="#9a32cd" stroke-dasharray="5,2" d="M284.2749,-28.0779C311.4015,-34.2433 340.8894,-43.2979 366,-56.5 375.474,-61.4811 374.8722,-66.9097 384,-72.5 390.0018,-76.1758 396.6365,-79.4851 403.2937,-82.4017"/>
<polygon fill="#9a32cd" stroke="#9a32cd" points="284.915,-24.6355 274.4001,-25.9349 283.4303,-31.4762 284.915,-24.6355"/>
<text text-anchor="middle" x="329" y="-59.5" font-family="Helvetica,sans-Serif" font-size="10.00" fill="#000000"> vertices</text>
</g>
<!-- Node10 -->
<g id="node9" class="node">
<title>Node10</title>
<polygon fill="none" stroke="#bfbfbf" points="419.5,-44 419.5,-63 476.5,-63 476.5,-44 419.5,-44"/>
<text text-anchor="middle" x="448" y="-51" font-family="Helvetica,sans-Serif" font-size="10.00" fill="#000000">uint32_t</text>
</g>
<!-- Node10&#45;&gt;Node2 -->
<g id="edge8" class="edge">
<title>Node10&#45;&gt;Node2</title>
<path fill="none" stroke="#9a32cd" stroke-dasharray="5,2" d="M486.6928,-52.9535C518.3176,-52.8762 564.1492,-53.6075 604,-57.5 609.7495,-58.0616 615.7042,-58.7895 621.6597,-59.618"/>
<polygon fill="#9a32cd" stroke="#9a32cd" points="486.5229,-49.4542 476.5417,-53.0073 486.5601,-56.4541 486.5229,-49.4542"/>
<text text-anchor="middle" x="567" y="-71.5" font-family="Helvetica,sans-Serif" font-size="10.00" fill="#000000"> verticesOffset</text>
<text text-anchor="middle" x="567" y="-60.5" font-family="Helvetica,sans-Serif" font-size="10.00" fill="#000000">indicesOffset</text>
</g>
</g>
</svg>
        <g id="navigator" transform="translate(0 0)" fill="#404254">
                <rect fill="#f2f5e9" fill-opacity="0.5" stroke="#606060" stroke-width=".5" x="0" y="0" width="60" height="60"/>
                <use id="zoomplus" xlink:href="#zoomPlus" x="17" y="9" onmousedown="handleZoom(evt,'in')"/>
                <use id="zoomminus" xlink:href="#zoomMin" x="42" y="9" onmousedown="handleZoom(evt,'out')"/>
                <use id="reset" xlink:href="#resetDef" x="30" y="36" onmousedown="handleReset()"/>
                <g id="arrowUp" xlink:href="#dirArrow" transform="translate(30 24)" onmousedown="handlePan(0,-1)">
                  <use xlink:href="#rim" fill="#404040">
                        <set attributeName="fill" to="#808080" begin="arrowUp.mouseover" end="arrowUp.mouseout"/>
                  </use>
                  <path fill="none" stroke="white" stroke-width="1.5" d="M0,-3.0v7 M-2.5,-0.5L0,-3.0L2.5,-0.5"/>
                </g>
                <g id="arrowRight" xlink:href="#dirArrow" transform="rotate(90) translate(36 -43)" onmousedown="handlePan(1,0)">
                  <use xlink:href="#rim" fill="#404040">
                        <set attributeName="fill" to="#808080" begin="arrowRight.mouseover" end="arrowRight.mouseout"/>
                  </use>
                  <path fill="none" stroke="white" stroke-width="1.5" d="M0,-3.0v7 M-2.5,-0.5L0,-3.0L2.5,-0.5"/>
                </g>
                <g id="arrowDown" xlink:href="#dirArrow" transform="rotate(180) translate(-30 -48)" onmousedown="handlePan(0,1)">
                  <use xlink:href="#rim" fill="#404040">
                        <set attributeName="fill" to="#808080" begin="arrowDown.mouseover" end="arrowDown.mouseout"/>
                  </use>
                  <path fill="none" stroke="white" stroke-width="1.5" d="M0,-3.0v7 M-2.5,-0.5L0,-3.0L2.5,-0.5"/>
                </g>
                <g id="arrowLeft" xlink:href="#dirArrow" transform="rotate(270) translate(-36 17)" onmousedown="handlePan(-1,0)">
                  <use xlink:href="#rim" fill="#404040">
                        <set attributeName="fill" to="#808080" begin="arrowLeft.mouseover" end="arrowLeft.mouseout"/>
                  </use>
                  <path fill="none" stroke="white" stroke-width="1.5" d="M0,-3.0v7 M-2.5,-0.5L0,-3.0L2.5,-0.5"/>
                </g>
        </g>
        <svg viewBox="0 0 15 15" width="100%" height="30px" preserveAspectRatio="xMaxYMin meet">
         <g id="arrow_out" transform="scale(0.3 0.3)">
          <a xlink:href="classlug_1_1Graphics_1_1Render_1_1Model_1_1Mesh__coll__graph_org.svg" target="_base">
           <rect id="button" ry="5" rx="5" y="6" x="6" height="38" width="38"
                fill="#f2f5e9" fill-opacity="0.5" stroke="#606060" stroke-width="1.0"/>
           <path id="arrow"
             d="M 11.500037,31.436501 C 11.940474,20.09759 22.043105,11.32322 32.158766,21.979434 L 37.068811,17.246167 C 37.068811,17.246167 37.088388,32 37.088388,32 L 22.160133,31.978069 C 22.160133,31.978069 26.997745,27.140456 26.997745,27.140456 C 18.528582,18.264221 13.291696,25.230495 11.500037,31.436501 z"
             style="fill:#404040;"/>
          </a>
         </g>
        </svg>
</svg>
