<?xml version="1.0" encoding="UTF-8" standalone="no"?>
<!DOCTYPE svg PUBLIC "-//W3C//DTD SVG 1.1//EN"
 "http://www.w3.org/Graphics/SVG/1.1/DTD/svg11.dtd">
<!-- Generated by graphviz version 2.40.1 (20161225.0304)
 -->
<!-- Title: lug::Graphics::Render::Window Pages: 1 -->
<svg width="819pt" height="796pt"
 viewBox="0.00 0.00 819.00 795.99" xmlns="http://www.w3.org/2000/svg" xmlns:xlink="http://www.w3.org/1999/xlink">
<g id="graph0" class="graph" transform="scale(1 1) rotate(0) translate(4 791.9887)">
<title>lug::Graphics::Render::Window</title>
<!-- Node4 -->
<g id="node1" class="node">
<title>Node4</title>
<polygon fill="#bfbfbf" stroke="#000000" points="683,-671.9887 683,-701.9887 811,-701.9887 811,-671.9887 683,-671.9887"/>
<text text-anchor="start" x="691" y="-689.9887" font-family="Helvetica,sans-Serif" font-size="10.00" fill="#000000">lug::Graphics::Render</text>
<text text-anchor="middle" x="747" y="-678.9887" font-family="Helvetica,sans-Serif" font-size="10.00" fill="#000000">::Window</text>
</g>
<!-- Node5 -->
<g id="node2" class="node">
<title>Node5</title>
<g id="a_node2"><a xlink:href="classlug_1_1Window_1_1Window.html" target="_top" xlink:title="Class for window. ">
<polygon fill="none" stroke="#000000" points="419.5,-584.4887 419.5,-603.4887 547.5,-603.4887 547.5,-584.4887 419.5,-584.4887"/>
<text text-anchor="middle" x="483.5" y="-591.4887" font-family="Helvetica,sans-Serif" font-size="10.00" fill="#000000">lug::Window::Window</text>
</a>
</g>
</g>
<!-- Node5&#45;&gt;Node4 -->
<g id="edge1" class="edge">
<title>Node5&#45;&gt;Node4</title>
<path fill="none" stroke="#191970" d="M558.1664,-596.8352C591.924,-600.2784 631.6349,-607.4212 665,-621.9887 691.9707,-633.7644 717.6436,-656.6658 732.8608,-671.8964"/>
<polygon fill="#191970" stroke="#191970" points="558.1755,-593.3211 547.8947,-595.8812 557.5281,-600.2911 558.1755,-593.3211"/>
</g>
<!-- Node8 -->
<g id="node5" class="node">
<title>Node8</title>
<g id="a_node5"><a xlink:href="classlug_1_1Window_1_1priv_1_1WindowImpl.html" target="_top" xlink:title="lug::Window::priv::\lWindowImpl">
<polygon fill="none" stroke="#000000" points="688.5,-314.9887 688.5,-344.9887 805.5,-344.9887 805.5,-314.9887 688.5,-314.9887"/>
<text text-anchor="start" x="696.5" y="-332.9887" font-family="Helvetica,sans-Serif" font-size="10.00" fill="#000000">lug::Window::priv::</text>
<text text-anchor="middle" x="747" y="-321.9887" font-family="Helvetica,sans-Serif" font-size="10.00" fill="#000000">WindowImpl</text>
</a>
</g>
</g>
<!-- Node5&#45;&gt;Node8 -->
<g id="edge12" class="edge">
<title>Node5&#45;&gt;Node8</title>
<path fill="none" stroke="#9a32cd" stroke-dasharray="5,2" d="M501.6777,-577.8041C518.1186,-564.0457 543.5798,-544.8457 569,-533.9887 608.9989,-516.9053 631.0297,-542.1506 665,-514.9887 720.5638,-470.5612 739.5318,-380.6638 745.0331,-345.0299"/>
<polygon fill="#9a32cd" stroke="#9a32cd" points="499.2635,-575.2636 493.9503,-584.4299 503.82,-580.5777 499.2635,-575.2636"/>
<text text-anchor="middle" x="617" y="-547.9887" font-family="Helvetica,sans-Serif" font-size="10.00" fill="#000000"> _window</text>
<text text-anchor="middle" x="617" y="-536.9887" font-family="Helvetica,sans-Serif" font-size="10.00" fill="#000000">_parent</text>
</g>
<!-- Node6 -->
<g id="node3" class="node">
<title>Node6</title>
<polygon fill="none" stroke="#bfbfbf" points="152,-658.9887 152,-688.9887 307,-688.9887 307,-658.9887 152,-658.9887"/>
<text text-anchor="start" x="160" y="-676.9887" font-family="Helvetica,sans-Serif" font-size="10.00" fill="#000000">unordered_map&lt; Keyboard</text>
<text text-anchor="middle" x="229.5" y="-665.9887" font-family="Helvetica,sans-Serif" font-size="10.00" fill="#000000">::Key, bool &gt;</text>
</g>
<!-- Node6&#45;&gt;Node5 -->
<g id="edge2" class="edge">
<title>Node6&#45;&gt;Node5</title>
<path fill="none" stroke="#9a32cd" stroke-dasharray="5,2" d="M317.4542,-661.7371C344.1411,-656.0374 372.9962,-647.8036 398,-635.9887 407.1634,-631.6588 407.2409,-627.0871 416,-621.9887 428.4999,-614.713 443.2525,-608.3647 455.7728,-603.5607"/>
<polygon fill="#9a32cd" stroke="#9a32cd" points="316.4433,-658.3711 307.3448,-663.7996 317.8427,-665.2298 316.4433,-658.3711"/>
<text text-anchor="middle" x="361.5" y="-662.9887" font-family="Helvetica,sans-Serif" font-size="10.00" fill="#000000"> _keyState</text>
</g>
<!-- Node7 -->
<g id="node4" class="node">
<title>Node7</title>
<polygon fill="none" stroke="#bfbfbf" points="156.5,-620.4887 156.5,-639.4887 302.5,-639.4887 302.5,-620.4887 156.5,-620.4887"/>
<text text-anchor="middle" x="229.5" y="-627.4887" font-family="Helvetica,sans-Serif" font-size="10.00" fill="#000000">anonymous:_mouseCoord</text>
</g>
<!-- Node7&#45;&gt;Node5 -->
<g id="edge3" class="edge">
<title>Node7&#45;&gt;Node5</title>
<path fill="none" stroke="#9a32cd" stroke-dasharray="5,2" d="M312.9228,-621.9843C340.1138,-619.0013 370.4005,-615.2808 398,-610.9887 411.4591,-608.8956 426.0223,-606.1731 439.2497,-603.5224"/>
<polygon fill="#9a32cd" stroke="#9a32cd" points="312.232,-618.5384 302.6652,-623.0911 312.983,-625.498 312.232,-618.5384"/>
<text text-anchor="middle" x="361.5" y="-623.9887" font-family="Helvetica,sans-Serif" font-size="10.00" fill="#000000"> _mouseCoord</text>
</g>
<!-- Node8&#45;&gt;Node5 -->
<g id="edge4" class="edge">
<title>Node8&#45;&gt;Node5</title>
<path fill="none" stroke="#9a32cd" stroke-dasharray="5,2" d="M741.4267,-354.8676C728.9038,-408.5385 697.1124,-532.568 665,-559.9887 655.949,-567.7173 596.3256,-577.9202 547.8471,-585.1262"/>
<polygon fill="#9a32cd" stroke="#9a32cd" points="744.8378,-355.6511 743.6688,-345.121 738.016,-354.0818 744.8378,-355.6511"/>
<text text-anchor="middle" x="617" y="-584.9887" font-family="Helvetica,sans-Serif" font-size="10.00" fill="#000000"> _impl</text>
</g>
<!-- Node8&#45;&gt;Node8 -->
<g id="edge13" class="edge">
<title>Node8&#45;&gt;Node8</title>
<path fill="none" stroke="#9a32cd" stroke-dasharray="5,2" d="M723.9006,-355.4466C726.7675,-360.1677 734.4673,-363.4887 747,-363.4887 767.5664,-363.4887 775.1181,-354.5453 769.6552,-345.1477"/>
<polygon fill="#9a32cd" stroke="#9a32cd" points="727.4105,-355.2893 724.3448,-345.1477 720.417,-354.9876 727.4105,-355.2893"/>
<text text-anchor="middle" x="747" y="-366.4887" font-family="Helvetica,sans-Serif" font-size="10.00" fill="#000000"> fullscreenWindow</text>
</g>
<!-- Node9 -->
<g id="node6" class="node">
<title>Node9</title>
<polygon fill="none" stroke="#bfbfbf" points="450.5,-456.4887 450.5,-475.4887 516.5,-475.4887 516.5,-456.4887 450.5,-456.4887"/>
<text text-anchor="middle" x="483.5" y="-463.4887" font-family="Helvetica,sans-Serif" font-size="10.00" fill="#000000">HCURSOR</text>
</g>
<!-- Node9&#45;&gt;Node8 -->
<g id="edge5" class="edge">
<title>Node9&#45;&gt;Node8</title>
<path fill="none" stroke="#9a32cd" stroke-dasharray="5,2" d="M527.1967,-467.4962C565.9882,-466.899 622.8858,-461.124 665,-435.9887 701.7608,-414.0486 728.0393,-368.8876 739.9131,-345.2201"/>
<polygon fill="#9a32cd" stroke="#9a32cd" points="526.7484,-463.9979 516.7629,-467.5391 526.7773,-470.9978 526.7484,-463.9979"/>
<text text-anchor="middle" x="617" y="-467.9887" font-family="Helvetica,sans-Serif" font-size="10.00" fill="#000000"> _cursor</text>
</g>
<!-- Node10 -->
<g id="node7" class="node">
<title>Node10</title>
<polygon fill="none" stroke="#bfbfbf" points="452,-418.4887 452,-437.4887 515,-437.4887 515,-418.4887 452,-418.4887"/>
<text text-anchor="middle" x="483.5" y="-425.4887" font-family="Helvetica,sans-Serif" font-size="10.00" fill="#000000">Display *</text>
</g>
<!-- Node10&#45;&gt;Node8 -->
<g id="edge6" class="edge">
<title>Node10&#45;&gt;Node8</title>
<path fill="none" stroke="#9a32cd" stroke-dasharray="5,2" d="M525.2287,-426.1612C563.1634,-423.1865 619.9283,-415.3906 665,-394.9887 691.645,-382.9278 717.2085,-360.3282 732.5121,-345.2161"/>
<polygon fill="#9a32cd" stroke="#9a32cd" points="524.7829,-422.6838 515.0539,-426.8788 525.2754,-429.6665 524.7829,-422.6838"/>
<text text-anchor="middle" x="617" y="-423.9887" font-family="Helvetica,sans-Serif" font-size="10.00" fill="#000000"> _display</text>
</g>
<!-- Node11 -->
<g id="node8" class="node">
<title>Node11</title>
<polygon fill="none" stroke="#bfbfbf" points="423,-380.4887 423,-399.4887 544,-399.4887 544,-380.4887 423,-380.4887"/>
<text text-anchor="middle" x="483.5" y="-387.4887" font-family="Helvetica,sans-Serif" font-size="10.00" fill="#000000">static AInputQueue *</text>
</g>
<!-- Node11&#45;&gt;Node8 -->
<g id="edge7" class="edge">
<title>Node11&#45;&gt;Node8</title>
<path fill="none" stroke="#9a32cd" stroke-dasharray="5,2" d="M554.484,-382.046C588.2908,-377.4023 629.0881,-370.5398 665,-360.9887 680.7377,-356.8031 697.6449,-350.7008 711.9947,-345.0152"/>
<polygon fill="#9a32cd" stroke="#9a32cd" points="553.678,-378.6225 544.2298,-383.4164 554.6053,-385.5608 553.678,-378.6225"/>
<text text-anchor="middle" x="617" y="-382.9887" font-family="Helvetica,sans-Serif" font-size="10.00" fill="#000000"> inputQueue</text>
</g>
<!-- Node12 -->
<g id="node9" class="node">
<title>Node12</title>
<polygon fill="none" stroke="#bfbfbf" points="422.5,-329.9887 422.5,-359.9887 544.5,-359.9887 544.5,-329.9887 422.5,-329.9887"/>
<text text-anchor="start" x="430.5" y="-347.9887" font-family="Helvetica,sans-Serif" font-size="10.00" fill="#000000">queue&lt; lug::Window</text>
<text text-anchor="middle" x="483.5" y="-336.9887" font-family="Helvetica,sans-Serif" font-size="10.00" fill="#000000">::Event &gt;</text>
</g>
<!-- Node12&#45;&gt;Node8 -->
<g id="edge8" class="edge">
<title>Node12&#45;&gt;Node8</title>
<path fill="none" stroke="#9a32cd" stroke-dasharray="5,2" d="M554.6761,-345.9285C588.1983,-345.8296 628.7049,-344.9321 665,-341.9887 672.6006,-341.3724 680.5687,-340.4969 688.4264,-339.4959"/>
<polygon fill="#9a32cd" stroke="#9a32cd" points="554.507,-342.4285 544.5093,-345.9349 554.5115,-349.4285 554.507,-342.4285"/>
<text text-anchor="middle" x="617" y="-348.9887" font-family="Helvetica,sans-Serif" font-size="10.00" fill="#000000"> _events</text>
</g>
<!-- Node12&#45;&gt;Node8 -->
<g id="edge19" class="edge">
<title>Node12&#45;&gt;Node8</title>
<path fill="none" stroke="#9a32cd" stroke-dasharray="5,2" d="M555.1764,-330.5787C559.8417,-329.9495 564.4795,-329.4081 569,-328.9887 608.6948,-325.3066 653.5827,-325.5892 688.3507,-326.7759"/>
<polygon fill="#9a32cd" stroke="#9a32cd" points="554.3382,-327.1643 544.9543,-332.0828 555.3573,-334.0897 554.3382,-327.1643"/>
<text text-anchor="middle" x="617" y="-331.9887" font-family="Helvetica,sans-Serif" font-size="10.00" fill="#000000"> events</text>
</g>
<!-- Node13 -->
<g id="node10" class="node">
<title>Node13</title>
<polygon fill="none" stroke="#bfbfbf" points="455.5,-290.4887 455.5,-309.4887 511.5,-309.4887 511.5,-290.4887 455.5,-290.4887"/>
<text text-anchor="middle" x="483.5" y="-297.4887" font-family="Helvetica,sans-Serif" font-size="10.00" fill="#000000">wchar_t</text>
</g>
<!-- Node13&#45;&gt;Node8 -->
<g id="edge9" class="edge">
<title>Node13&#45;&gt;Node8</title>
<path fill="none" stroke="#9a32cd" stroke-dasharray="5,2" d="M521.9297,-300.4581C558.7981,-301.3463 615.951,-303.8709 665,-310.9887 672.5201,-312.08 680.3685,-313.5119 688.1015,-315.101"/>
<polygon fill="#9a32cd" stroke="#9a32cd" points="521.7038,-296.9527 511.6319,-300.2401 521.5556,-303.9511 521.7038,-296.9527"/>
<text text-anchor="middle" x="617" y="-313.9887" font-family="Helvetica,sans-Serif" font-size="10.00" fill="#000000"> className</text>
</g>
<!-- Node14 -->
<g id="node11" class="node">
<title>Node14</title>
<polygon fill="none" stroke="#bfbfbf" points="449,-252.4887 449,-271.4887 518,-271.4887 518,-252.4887 449,-252.4887"/>
<text text-anchor="middle" x="483.5" y="-259.4887" font-family="Helvetica,sans-Serif" font-size="10.00" fill="#000000">LONG_PTR</text>
</g>
<!-- Node14&#45;&gt;Node8 -->
<g id="edge10" class="edge">
<title>Node14&#45;&gt;Node8</title>
<path fill="none" stroke="#9a32cd" stroke-dasharray="5,2" d="M528.0912,-264.2608C565.4041,-267.1294 619.6633,-273.5751 665,-287.9887 685.4257,-294.4826 706.9351,-305.6856 722.7974,-314.8887"/>
<polygon fill="#9a32cd" stroke="#9a32cd" points="528.2618,-260.7642 518.0379,-263.543 527.7632,-267.7464 528.2618,-260.7642"/>
<text text-anchor="middle" x="617" y="-290.9887" font-family="Helvetica,sans-Serif" font-size="10.00" fill="#000000"> _callback</text>
</g>
<!-- Node15 -->
<g id="node12" class="node">
<title>Node15</title>
<polygon fill="none" stroke="#bfbfbf" points="459,-214.4887 459,-233.4887 508,-233.4887 508,-214.4887 459,-214.4887"/>
<text text-anchor="middle" x="483.5" y="-221.4887" font-family="Helvetica,sans-Serif" font-size="10.00" fill="#000000">HWND</text>
</g>
<!-- Node15&#45;&gt;Node8 -->
<g id="edge11" class="edge">
<title>Node15&#45;&gt;Node8</title>
<path fill="none" stroke="#9a32cd" stroke-dasharray="5,2" d="M518.0669,-223.8762C555.9671,-225.0416 617.6816,-230.8022 665,-253.9887 694.6313,-268.5084 721.0688,-297.2585 735.4875,-314.9364"/>
<polygon fill="#9a32cd" stroke="#9a32cd" points="518.114,-220.3765 508.0404,-223.6587 517.9621,-227.3748 518.114,-220.3765"/>
<text text-anchor="middle" x="617" y="-256.9887" font-family="Helvetica,sans-Serif" font-size="10.00" fill="#000000"> _handle</text>
</g>
<!-- Node16 -->
<g id="node13" class="node">
<title>Node16</title>
<polygon fill="none" stroke="#bfbfbf" points="416,-176.4887 416,-195.4887 551,-195.4887 551,-176.4887 416,-176.4887"/>
<text text-anchor="middle" x="483.5" y="-183.4887" font-family="Helvetica,sans-Serif" font-size="10.00" fill="#000000">static ANativeWindow *</text>
</g>
<!-- Node16&#45;&gt;Node8 -->
<g id="edge14" class="edge">
<title>Node16&#45;&gt;Node8</title>
<path fill="none" stroke="#9a32cd" stroke-dasharray="5,2" d="M561.6195,-184.1459C595.5446,-186.607 634.4246,-194.0915 665,-212.9887 704.6677,-237.5054 730.2966,-289.1121 741.1131,-314.7983"/>
<polygon fill="#9a32cd" stroke="#9a32cd" points="561.4532,-180.6301 551.2647,-183.5363 561.0417,-187.618 561.4532,-180.6301"/>
<text text-anchor="middle" x="617" y="-215.9887" font-family="Helvetica,sans-Serif" font-size="10.00" fill="#000000"> nativeWindow</text>
</g>
<!-- Node17 -->
<g id="node14" class="node">
<title>Node17</title>
<polygon fill="none" stroke="#bfbfbf" points="3,-534.4887 3,-553.4887 54,-553.4887 54,-534.4887 3,-534.4887"/>
<text text-anchor="middle" x="28.5" y="-541.4887" font-family="Helvetica,sans-Serif" font-size="10.00" fill="#000000">uint8_t</text>
</g>
<!-- Node17&#45;&gt;Node8 -->
<g id="edge15" class="edge">
<title>Node17&#45;&gt;Node8</title>
<path fill="none" stroke="#9a32cd" stroke-dasharray="5,2" d="M64.3849,-537.0593C88.9672,-532.5163 122.3596,-526.7441 152,-522.9887 265.4925,-508.6094 569.1256,-542.4019 665,-479.9887 713.9994,-448.0906 736.1443,-376.4589 743.7491,-345.1355"/>
<polygon fill="#9a32cd" stroke="#9a32cd" points="63.612,-533.6431 54.4257,-538.9216 64.8987,-540.5238 63.612,-533.6431"/>
<text text-anchor="middle" x="361.5" y="-522.9887" font-family="Helvetica,sans-Serif" font-size="10.00" fill="#000000"> windowCount</text>
</g>
<!-- Node25 -->
<g id="node22" class="node">
<title>Node25</title>
<g id="a_node22"><a xlink:href="structlug_1_1Window_1_1VideoMode.html" target="_top" xlink:title="The video mode we set for the window we wish to create. ">
<polygon fill="none" stroke="#000000" points="158,-708.4887 158,-727.4887 301,-727.4887 301,-708.4887 158,-708.4887"/>
<text text-anchor="middle" x="229.5" y="-715.4887" font-family="Helvetica,sans-Serif" font-size="10.00" fill="#000000">lug::Window::VideoMode</text>
</a>
</g>
</g>
<!-- Node17&#45;&gt;Node25 -->
<g id="edge26" class="edge">
<title>Node17&#45;&gt;Node25</title>
<path fill="none" stroke="#9a32cd" stroke-dasharray="5,2" d="M41.9928,-562.0916C70.9677,-600.7733 137.6767,-688.7328 152,-697.9887 158.7691,-702.363 166.4491,-705.7818 174.2797,-708.4536"/>
<polygon fill="#9a32cd" stroke="#9a32cd" points="44.5887,-559.7185 35.7981,-553.8044 38.982,-563.9096 44.5887,-559.7185"/>
<text text-anchor="middle" x="104.5" y="-702.9887" font-family="Helvetica,sans-Serif" font-size="10.00" fill="#000000"> greenBits</text>
<text text-anchor="middle" x="104.5" y="-691.9887" font-family="Helvetica,sans-Serif" font-size="10.00" fill="#000000">redBits</text>
<text text-anchor="middle" x="104.5" y="-680.9887" font-family="Helvetica,sans-Serif" font-size="10.00" fill="#000000">blueBits</text>
</g>
<!-- Node18 -->
<g id="node15" class="node">
<title>Node18</title>
<polygon fill="none" stroke="#bfbfbf" points="464.5,-85.4887 464.5,-104.4887 502.5,-104.4887 502.5,-85.4887 464.5,-85.4887"/>
<text text-anchor="middle" x="483.5" y="-92.4887" font-family="Helvetica,sans-Serif" font-size="10.00" fill="#000000">bool</text>
</g>
<!-- Node18&#45;&gt;Node8 -->
<g id="edge16" class="edge">
<title>Node18&#45;&gt;Node8</title>
<path fill="none" stroke="#9a32cd" stroke-dasharray="5,2" d="M512.7553,-86.3145C551.5059,-76.7304 620.1702,-66.5858 665,-98.9887 701.7316,-125.5383 734.1062,-267.8235 743.9457,-314.8734"/>
<polygon fill="#9a32cd" stroke="#9a32cd" points="511.4453,-83.0398 502.6635,-88.967 513.2248,-89.8099 511.4453,-83.0398"/>
<text text-anchor="middle" x="617" y="-112.9887" font-family="Helvetica,sans-Serif" font-size="10.00" fill="#000000"> _keyRepeat</text>
<text text-anchor="middle" x="617" y="-101.9887" font-family="Helvetica,sans-Serif" font-size="10.00" fill="#000000">_fullscreen</text>
</g>
<!-- Node19 -->
<g id="node16" class="node">
<title>Node19</title>
<polygon fill="none" stroke="#bfbfbf" points="416.5,-47.4887 416.5,-66.4887 550.5,-66.4887 550.5,-47.4887 416.5,-47.4887"/>
<text text-anchor="middle" x="483.5" y="-54.4887" font-family="Helvetica,sans-Serif" font-size="10.00" fill="#000000">static ANativeActivity *</text>
</g>
<!-- Node19&#45;&gt;Node8 -->
<g id="edge17" class="edge">
<title>Node19&#45;&gt;Node8</title>
<path fill="none" stroke="#9a32cd" stroke-dasharray="5,2" d="M526.036,-45.2522C566.0477,-36.9409 625.546,-31.9516 665,-61.9887 706.8114,-93.8205 736.443,-262.7291 744.6821,-314.7359"/>
<polygon fill="#9a32cd" stroke="#9a32cd" points="525.0548,-41.885 516.0561,-47.4773 526.5781,-48.7172 525.0548,-41.885"/>
<text text-anchor="middle" x="617" y="-64.9887" font-family="Helvetica,sans-Serif" font-size="10.00" fill="#000000"> activity</text>
</g>
<!-- Node20 -->
<g id="node17" class="node">
<title>Node20</title>
<polygon fill="none" stroke="#bfbfbf" points="446,-9.4887 446,-28.4887 521,-28.4887 521,-9.4887 446,-9.4887"/>
<text text-anchor="middle" x="483.5" y="-16.4887" font-family="Helvetica,sans-Serif" font-size="10.00" fill="#000000">HINSTANCE</text>
</g>
<!-- Node20&#45;&gt;Node8 -->
<g id="edge18" class="edge">
<title>Node20&#45;&gt;Node8</title>
<path fill="none" stroke="#9a32cd" stroke-dasharray="5,2" d="M524.965,-7.2261C565.155,1.4728 625.6544,7.0715 665,-23.9887 712.1623,-61.2197 738.5532,-257.8138 745.2729,-314.6109"/>
<polygon fill="#9a32cd" stroke="#9a32cd" points="524.1631,-3.8191 515.21,-9.4841 525.7417,-10.6388 524.1631,-3.8191"/>
<text text-anchor="middle" x="617" y="-26.9887" font-family="Helvetica,sans-Serif" font-size="10.00" fill="#000000"> _hinstance</text>
</g>
<!-- Node21 -->
<g id="node18" class="node">
<title>Node21</title>
<polygon fill="none" stroke="#bfbfbf" points="458.5,-631.4887 458.5,-650.4887 508.5,-650.4887 508.5,-631.4887 458.5,-631.4887"/>
<text text-anchor="middle" x="483.5" y="-638.4887" font-family="Helvetica,sans-Serif" font-size="10.00" fill="#000000">HICON</text>
</g>
<!-- Node21&#45;&gt;Node8 -->
<g id="edge20" class="edge">
<title>Node21&#45;&gt;Node8</title>
<path fill="none" stroke="#9a32cd" stroke-dasharray="5,2" d="M518.7143,-642.2073C559.2197,-641.6487 625.2372,-634.4295 665,-596.9887 703.0397,-561.1705 735.143,-396.4535 744.3486,-345.2325"/>
<polygon fill="#9a32cd" stroke="#9a32cd" points="518.5011,-638.7074 508.5035,-642.2144 518.506,-645.7074 518.5011,-638.7074"/>
<text text-anchor="middle" x="617" y="-640.9887" font-family="Helvetica,sans-Serif" font-size="10.00" fill="#000000"> _icon</text>
</g>
<!-- Node22 -->
<g id="node19" class="node">
<title>Node22</title>
<polygon fill="none" stroke="#bfbfbf" points="462,-128.4887 462,-147.4887 505,-147.4887 505,-128.4887 462,-128.4887"/>
<text text-anchor="middle" x="483.5" y="-135.4887" font-family="Helvetica,sans-Serif" font-size="10.00" fill="#000000">Atom</text>
</g>
<!-- Node22&#45;&gt;Node8 -->
<g id="edge21" class="edge">
<title>Node22&#45;&gt;Node8</title>
<path fill="none" stroke="#9a32cd" stroke-dasharray="5,2" d="M515.2592,-130.5166C554.1681,-123.2815 620.399,-117.3928 665,-147.9887 723.0138,-187.7858 740.5829,-278.9087 745.371,-314.9335"/>
<polygon fill="#9a32cd" stroke="#9a32cd" points="514.1667,-127.1659 505.05,-132.5638 515.543,-134.0293 514.1667,-127.1659"/>
<text text-anchor="middle" x="617" y="-172.9887" font-family="Helvetica,sans-Serif" font-size="10.00" fill="#000000"> _wmHints</text>
<text text-anchor="middle" x="617" y="-161.9887" font-family="Helvetica,sans-Serif" font-size="10.00" fill="#000000">_wmDeleteWindow</text>
<text text-anchor="middle" x="617" y="-150.9887" font-family="Helvetica,sans-Serif" font-size="10.00" fill="#000000">_wmProtocols</text>
</g>
<!-- Node23 -->
<g id="node20" class="node">
<title>Node23</title>
<polygon fill="none" stroke="#bfbfbf" points="201,-582.4887 201,-601.4887 258,-601.4887 258,-582.4887 201,-582.4887"/>
<text text-anchor="middle" x="229.5" y="-589.4887" font-family="Helvetica,sans-Serif" font-size="10.00" fill="#000000">uint32_t</text>
</g>
<!-- Node23&#45;&gt;Node5 -->
<g id="edge22" class="edge">
<title>Node23&#45;&gt;Node5</title>
<path fill="none" stroke="#9a32cd" stroke-dasharray="5,2" d="M268.1543,-590.2689C302.3108,-588.9954 353.4735,-587.6879 398,-588.9887 404.8369,-589.1885 411.9773,-589.4779 419.0915,-589.8182"/>
<polygon fill="#9a32cd" stroke="#9a32cd" points="267.9822,-586.7729 258.1262,-590.6601 268.2551,-593.7676 267.9822,-586.7729"/>
<text text-anchor="middle" x="361.5" y="-602.9887" font-family="Helvetica,sans-Serif" font-size="10.00" fill="#000000"> x</text>
<text text-anchor="middle" x="361.5" y="-591.9887" font-family="Helvetica,sans-Serif" font-size="10.00" fill="#000000">y</text>
</g>
<!-- Node24 -->
<g id="node21" class="node">
<title>Node24</title>
<polygon fill="none" stroke="#bfbfbf" points="160,-532.9887 160,-562.9887 299,-562.9887 299,-532.9887 160,-532.9887"/>
<text text-anchor="start" x="168" y="-550.9887" font-family="Helvetica,sans-Serif" font-size="10.00" fill="#000000">unordered_map&lt; Mouse</text>
<text text-anchor="middle" x="229.5" y="-539.9887" font-family="Helvetica,sans-Serif" font-size="10.00" fill="#000000">::Button, bool &gt;</text>
</g>
<!-- Node24&#45;&gt;Node5 -->
<g id="edge23" class="edge">
<title>Node24&#45;&gt;Node5</title>
<path fill="none" stroke="#9a32cd" stroke-dasharray="5,2" d="M309.5511,-559.0578C337.6045,-563.2761 369.2725,-568.4209 398,-573.9887 413.5646,-577.0054 430.5938,-580.8718 445.3288,-584.3996"/>
<polygon fill="#9a32cd" stroke="#9a32cd" points="309.7975,-555.556 299.3913,-557.5465 308.7675,-562.4798 309.7975,-555.556"/>
<text text-anchor="middle" x="361.5" y="-576.9887" font-family="Helvetica,sans-Serif" font-size="10.00" fill="#000000"> _mouseState</text>
</g>
<!-- Node25&#45;&gt;Node5 -->
<g id="edge24" class="edge">
<title>Node25&#45;&gt;Node5</title>
<path fill="none" stroke="#9a32cd" stroke-dasharray="5,2" d="M311.4383,-713.3183C341.8538,-707.7407 374.6068,-696.6348 398,-674.9887 416.2593,-658.0931 398.9976,-640.1486 416,-621.9887 423.8039,-613.6535 434.4635,-607.7183 445.0062,-603.5258"/>
<polygon fill="#9a32cd" stroke="#9a32cd" points="310.5255,-709.9216 301.23,-715.0051 311.6668,-716.8279 310.5255,-709.9216"/>
<text text-anchor="middle" x="361.5" y="-712.9887" font-family="Helvetica,sans-Serif" font-size="10.00" fill="#000000"> _mode</text>
</g>
<!-- Node26 -->
<g id="node23" class="node">
<title>Node26</title>
<polygon fill="none" stroke="#bfbfbf" points="0,-708.4887 0,-727.4887 57,-727.4887 57,-708.4887 0,-708.4887"/>
<text text-anchor="middle" x="28.5" y="-715.4887" font-family="Helvetica,sans-Serif" font-size="10.00" fill="#000000">uint16_t</text>
</g>
<!-- Node26&#45;&gt;Node25 -->
<g id="edge25" class="edge">
<title>Node26&#45;&gt;Node25</title>
<path fill="none" stroke="#9a32cd" stroke-dasharray="5,2" d="M67.3642,-717.9887C92.9974,-717.9887 127.3452,-717.9887 157.8277,-717.9887"/>
<polygon fill="#9a32cd" stroke="#9a32cd" points="67.2984,-714.4888 57.2984,-717.9887 67.2984,-721.4888 67.2984,-714.4888"/>
<text text-anchor="middle" x="104.5" y="-742.9887" font-family="Helvetica,sans-Serif" font-size="10.00" fill="#000000"> width</text>
<text text-anchor="middle" x="104.5" y="-731.9887" font-family="Helvetica,sans-Serif" font-size="10.00" fill="#000000">height</text>
<text text-anchor="middle" x="104.5" y="-720.9887" font-family="Helvetica,sans-Serif" font-size="10.00" fill="#000000">refreshRate</text>
</g>
<!-- Node27 -->
<g id="node24" class="node">
<title>Node27</title>
<g id="a_node24"><a xlink:href="classlug_1_1Graphics_1_1Render_1_1Target.html" target="_top" xlink:title="lug::Graphics::Render\l::Target">
<polygon fill="none" stroke="#000000" points="419.5,-711.9887 419.5,-741.9887 547.5,-741.9887 547.5,-711.9887 419.5,-711.9887"/>
<text text-anchor="start" x="427.5" y="-729.9887" font-family="Helvetica,sans-Serif" font-size="10.00" fill="#000000">lug::Graphics::Render</text>
<text text-anchor="middle" x="483.5" y="-718.9887" font-family="Helvetica,sans-Serif" font-size="10.00" fill="#000000">::Target</text>
</a>
</g>
</g>
<!-- Node27&#45;&gt;Node4 -->
<g id="edge27" class="edge">
<title>Node27&#45;&gt;Node4</title>
<path fill="none" stroke="#191970" d="M557.685,-715.7272C597.0057,-709.7583 644.8414,-702.4967 682.59,-696.7663"/>
<polygon fill="#191970" stroke="#191970" points="556.9838,-712.2935 547.6224,-717.2548 558.0345,-719.2142 556.9838,-712.2935"/>
</g>
<!-- Node28 -->
<g id="node25" class="node">
<title>Node28</title>
<polygon fill="none" stroke="#bfbfbf" points="170.5,-746.4887 170.5,-787.4887 288.5,-787.4887 288.5,-746.4887 170.5,-746.4887"/>
<text text-anchor="start" x="178.5" y="-775.4887" font-family="Helvetica,sans-Serif" font-size="10.00" fill="#000000">vector&lt; std::unique</text>
<text text-anchor="start" x="178.5" y="-764.4887" font-family="Helvetica,sans-Serif" font-size="10.00" fill="#000000">_ptr&lt; lug::Graphics</text>
<text text-anchor="middle" x="229.5" y="-753.4887" font-family="Helvetica,sans-Serif" font-size="10.00" fill="#000000">::Render::View &gt; &gt;</text>
</g>
<!-- Node28&#45;&gt;Node27 -->
<g id="edge28" class="edge">
<title>Node28&#45;&gt;Node27</title>
<path fill="none" stroke="#9a32cd" stroke-dasharray="5,2" d="M299.0762,-756.0318C336.6033,-750.1221 382.6037,-742.8779 419.2749,-737.1029"/>
<polygon fill="#9a32cd" stroke="#9a32cd" points="298.0649,-752.6479 288.7312,-757.661 299.1539,-759.5627 298.0649,-752.6479"/>
<text text-anchor="middle" x="361.5" y="-754.9887" font-family="Helvetica,sans-Serif" font-size="10.00" fill="#000000"> _renderViews</text>
</g>
</g>
</svg>
