<?xml version="1.0" encoding="UTF-8" standalone="no"?>
<!DOCTYPE svg PUBLIC "-//W3C//DTD SVG 1.1//EN"
 "http://www.w3.org/Graphics/SVG/1.1/DTD/svg11.dtd">
<!-- Generated by graphviz version 2.40.1 (20161225.0304)
 -->
<!-- Title: lug::Graphics::Vulkan::Render::Camera Pages: 1 -->
<svg width="1318pt" height="835pt"
 viewBox="0.00 0.00 1318.00 834.50" xmlns="http://www.w3.org/2000/svg" xmlns:xlink="http://www.w3.org/1999/xlink">
<g id="graph0" class="graph" transform="scale(1 1) rotate(0) translate(4 830.5)">
<title>lug::Graphics::Vulkan::Render::Camera</title>
<!-- Node3 -->
<g id="node1" class="node">
<title>Node3</title>
<polygon fill="#bfbfbf" stroke="#000000" points="1183,-479.5 1183,-509.5 1310,-509.5 1310,-479.5 1183,-479.5"/>
<text text-anchor="start" x="1191" y="-497.5" font-family="Helvetica,sans-Serif" font-size="10.00" fill="#000000">lug::Graphics::Vulkan</text>
<text text-anchor="middle" x="1246.5" y="-486.5" font-family="Helvetica,sans-Serif" font-size="10.00" fill="#000000">::Render::Camera</text>
</g>
<!-- Node4 -->
<g id="node2" class="node">
<title>Node4</title>
<g id="a_node2"><a xlink:href="classlug_1_1Graphics_1_1Render_1_1Camera.html" target="_top" xlink:title="Class for camera. ">
<polygon fill="none" stroke="#000000" points="1018,-479.5 1018,-509.5 1146,-509.5 1146,-479.5 1018,-479.5"/>
<text text-anchor="start" x="1026" y="-497.5" font-family="Helvetica,sans-Serif" font-size="10.00" fill="#000000">lug::Graphics::Render</text>
<text text-anchor="middle" x="1082" y="-486.5" font-family="Helvetica,sans-Serif" font-size="10.00" fill="#000000">::Camera</text>
</a>
</g>
</g>
<!-- Node4&#45;&gt;Node3 -->
<g id="edge1" class="edge">
<title>Node4&#45;&gt;Node3</title>
<path fill="none" stroke="#191970" d="M1156.0882,-494.5C1165.0297,-494.5 1174.1012,-494.5 1182.8743,-494.5"/>
<polygon fill="#191970" stroke="#191970" points="1156.0711,-491.0001 1146.071,-494.5 1156.071,-498.0001 1156.0711,-491.0001"/>
</g>
<!-- Node5 -->
<g id="node3" class="node">
<title>Node5</title>
<g id="a_node3"><a xlink:href="classlug_1_1Graphics_1_1Node.html" target="_top" xlink:title="lug::Graphics::Node">
<polygon fill="none" stroke="#000000" points="783.5,-676 783.5,-695 902.5,-695 902.5,-676 783.5,-676"/>
<text text-anchor="middle" x="843" y="-683" font-family="Helvetica,sans-Serif" font-size="10.00" fill="#000000">lug::Graphics::Node</text>
</a>
</g>
</g>
<!-- Node5&#45;&gt;Node4 -->
<g id="edge2" class="edge">
<title>Node5&#45;&gt;Node4</title>
<path fill="none" stroke="#191970" d="M863.1424,-669.403C908.6786,-633.0121 1019.0172,-544.8335 1063.2243,-509.5049"/>
<polygon fill="#191970" stroke="#191970" points="860.8075,-666.7885 855.1806,-675.7657 865.1776,-672.2569 860.8075,-666.7885"/>
</g>
<!-- Node5&#45;&gt;Node5 -->
<g id="edge8" class="edge">
<title>Node5&#45;&gt;Node5</title>
<path fill="none" stroke="#9a32cd" stroke-dasharray="5,2" d="M821.0507,-704.5292C822.248,-709.628 829.5644,-713.5 843,-713.5 863.9727,-713.5 870.0351,-704.0653 861.1872,-695.2571"/>
<polygon fill="#9a32cd" stroke="#9a32cd" points="824.2962,-705.8393 824.8128,-695.2571 817.8098,-703.2074 824.2962,-705.8393"/>
<text text-anchor="middle" x="843" y="-716.5" font-family="Helvetica,sans-Serif" font-size="10.00" fill="#000000"> _parent</text>
</g>
<!-- Node6 -->
<g id="node4" class="node">
<title>Node6</title>
<polygon fill="none" stroke="#bfbfbf" points="544,-806 544,-825 600,-825 600,-806 544,-806"/>
<text text-anchor="middle" x="572" y="-813" font-family="Helvetica,sans-Serif" font-size="10.00" fill="#000000">Mat4x4f</text>
</g>
<!-- Node6&#45;&gt;Node4 -->
<g id="edge10" class="edge">
<title>Node6&#45;&gt;Node4</title>
<path fill="none" stroke="#9a32cd" stroke-dasharray="5,2" d="M610.3944,-819.5279C649.0955,-822.4232 710.2041,-823.7893 761,-810.5 831.9716,-791.9323 851.4645,-781.4326 907,-733.5 987.5882,-663.9445 1052.2694,-550.6094 1074.0776,-509.7715"/>
<polygon fill="#9a32cd" stroke="#9a32cd" points="610.3532,-816.0128 600.1001,-818.6816 609.7796,-822.9893 610.3532,-816.0128"/>
<text text-anchor="middle" x="843" y="-818.5" font-family="Helvetica,sans-Serif" font-size="10.00" fill="#000000"> _projMatrix</text>
<text text-anchor="middle" x="843" y="-807.5" font-family="Helvetica,sans-Serif" font-size="10.00" fill="#000000">_viewMatrix</text>
</g>
<!-- Node6&#45;&gt;Node5 -->
<g id="edge3" class="edge">
<title>Node6&#45;&gt;Node5</title>
<path fill="none" stroke="#9a32cd" stroke-dasharray="5,2" d="M610.1422,-808.5042C661.5096,-798.8877 748.0174,-781.9328 761,-774.5 796.3722,-754.2488 825.2243,-713.5799 837.1249,-695.0688"/>
<polygon fill="#9a32cd" stroke="#9a32cd" points="609.2515,-805.1098 600.0614,-810.3817 610.5332,-811.9914 609.2515,-805.1098"/>
<text text-anchor="middle" x="714" y="-799.5" font-family="Helvetica,sans-Serif" font-size="10.00" fill="#000000"> _transform</text>
</g>
<!-- Node7 -->
<g id="node5" class="node">
<title>Node7</title>
<polygon fill="none" stroke="#bfbfbf" points="513,-759 513,-778 631,-778 631,-759 513,-759"/>
<text text-anchor="middle" x="572" y="-766" font-family="Helvetica,sans-Serif" font-size="10.00" fill="#000000">Quaternion&lt; float &gt;</text>
</g>
<!-- Node7&#45;&gt;Node5 -->
<g id="edge4" class="edge">
<title>Node7&#45;&gt;Node5</title>
<path fill="none" stroke="#9a32cd" stroke-dasharray="5,2" d="M632.3323,-756.7986C669.8545,-748.7914 718.8211,-737.0089 761,-722.5 783.4487,-714.778 808.1478,-703.1819 824.5109,-695.0345"/>
<polygon fill="#9a32cd" stroke="#9a32cd" points="631.134,-753.4739 622.0678,-758.956 632.5739,-760.3242 631.134,-753.4739"/>
<text text-anchor="middle" x="714" y="-762.5" font-family="Helvetica,sans-Serif" font-size="10.00" fill="#000000"> _absoluteRotation</text>
<text text-anchor="middle" x="714" y="-751.5" font-family="Helvetica,sans-Serif" font-size="10.00" fill="#000000">_rotation</text>
</g>
<!-- Node8 -->
<g id="node6" class="node">
<title>Node8</title>
<polygon fill="none" stroke="#bfbfbf" points="513.5,-699 513.5,-740 630.5,-740 630.5,-699 513.5,-699"/>
<text text-anchor="start" x="521.5" y="-728" font-family="Helvetica,sans-Serif" font-size="10.00" fill="#000000">vector&lt; std::unique</text>
<text text-anchor="start" x="521.5" y="-717" font-family="Helvetica,sans-Serif" font-size="10.00" fill="#000000">_ptr&lt; lug::Graphics</text>
<text text-anchor="middle" x="572" y="-706" font-family="Helvetica,sans-Serif" font-size="10.00" fill="#000000">::Node &gt; &gt;</text>
</g>
<!-- Node8&#45;&gt;Node5 -->
<g id="edge5" class="edge">
<title>Node8&#45;&gt;Node5</title>
<path fill="none" stroke="#9a32cd" stroke-dasharray="5,2" d="M640.8428,-710.8629C684.8326,-705.3439 741.305,-698.2588 783.376,-692.9805"/>
<polygon fill="#9a32cd" stroke="#9a32cd" points="640.2895,-707.4048 630.803,-712.1225 641.1609,-714.3503 640.2895,-707.4048"/>
<text text-anchor="middle" x="714" y="-710.5" font-family="Helvetica,sans-Serif" font-size="10.00" fill="#000000"> _children</text>
</g>
<!-- Node9 -->
<g id="node7" class="node">
<title>Node9</title>
<polygon fill="none" stroke="#bfbfbf" points="553,-555 553,-574 591,-574 591,-555 553,-555"/>
<text text-anchor="middle" x="572" y="-562" font-family="Helvetica,sans-Serif" font-size="10.00" fill="#000000">bool</text>
</g>
<!-- Node9&#45;&gt;Node4 -->
<g id="edge12" class="edge">
<title>Node9&#45;&gt;Node4</title>
<path fill="none" stroke="#9a32cd" stroke-dasharray="5,2" d="M601.4164,-561.0522C670.8885,-552.8221 850.5299,-531.0293 1000,-508.5 1005.7123,-507.639 1011.6415,-506.7053 1017.5803,-505.7425"/>
<polygon fill="#9a32cd" stroke="#9a32cd" points="600.7545,-557.6059 591.234,-562.2547 601.5755,-564.5576 600.7545,-557.6059"/>
<text text-anchor="middle" x="843" y="-552.5" font-family="Helvetica,sans-Serif" font-size="10.00" fill="#000000"> _needUpdateProj</text>
<text text-anchor="middle" x="843" y="-541.5" font-family="Helvetica,sans-Serif" font-size="10.00" fill="#000000">_needUpdateView</text>
</g>
<!-- Node9&#45;&gt;Node5 -->
<g id="edge6" class="edge">
<title>Node9&#45;&gt;Node5</title>
<path fill="none" stroke="#9a32cd" stroke-dasharray="5,2" d="M601.1988,-561.4513C640.1333,-558.7616 710.052,-558.8346 761,-586.5 799.833,-607.5869 827.6491,-655.2773 838.2599,-675.8047"/>
<polygon fill="#9a32cd" stroke="#9a32cd" points="600.7686,-557.9744 591.0804,-562.2625 601.3281,-564.9521 600.7686,-557.9744"/>
<text text-anchor="middle" x="714" y="-600.5" font-family="Helvetica,sans-Serif" font-size="10.00" fill="#000000"> _dirty</text>
<text text-anchor="middle" x="714" y="-589.5" font-family="Helvetica,sans-Serif" font-size="10.00" fill="#000000">_needUpdate</text>
</g>
<!-- Node10 -->
<g id="node8" class="node">
<title>Node10</title>
<polygon fill="none" stroke="#bfbfbf" points="549.5,-661 549.5,-680 594.5,-680 594.5,-661 549.5,-661"/>
<text text-anchor="middle" x="572" y="-668" font-family="Helvetica,sans-Serif" font-size="10.00" fill="#000000">string</text>
</g>
<!-- Node10&#45;&gt;Node5 -->
<g id="edge7" class="edge">
<title>Node10&#45;&gt;Node5</title>
<path fill="none" stroke="#9a32cd" stroke-dasharray="5,2" d="M604.8134,-672.3162C648.982,-674.761 728.3454,-679.1538 783.2541,-682.193"/>
<polygon fill="#9a32cd" stroke="#9a32cd" points="604.8174,-668.8112 594.6392,-671.7531 604.4304,-675.8005 604.8174,-668.8112"/>
<text text-anchor="middle" x="714" y="-683.5" font-family="Helvetica,sans-Serif" font-size="10.00" fill="#000000"> _name</text>
</g>
<!-- Node11 -->
<g id="node9" class="node">
<title>Node11</title>
<polygon fill="none" stroke="#bfbfbf" points="550,-609 550,-628 594,-628 594,-609 550,-609"/>
<text text-anchor="middle" x="572" y="-616" font-family="Helvetica,sans-Serif" font-size="10.00" fill="#000000">Vec3f</text>
</g>
<!-- Node11&#45;&gt;Node5 -->
<g id="edge9" class="edge">
<title>Node11&#45;&gt;Node5</title>
<path fill="none" stroke="#9a32cd" stroke-dasharray="5,2" d="M604.3918,-614.6557C642.876,-611.2956 708.4769,-609.4155 761,-627.5 790.6773,-637.7183 819.1604,-662.2415 833.4567,-675.9015"/>
<polygon fill="#9a32cd" stroke="#9a32cd" points="603.9087,-611.1859 594.2898,-615.6273 604.579,-618.1538 603.9087,-611.1859"/>
<text text-anchor="middle" x="714" y="-663.5" font-family="Helvetica,sans-Serif" font-size="10.00" fill="#000000"> _position</text>
<text text-anchor="middle" x="714" y="-652.5" font-family="Helvetica,sans-Serif" font-size="10.00" fill="#000000">_absolutePosition</text>
<text text-anchor="middle" x="714" y="-641.5" font-family="Helvetica,sans-Serif" font-size="10.00" fill="#000000">_scale</text>
<text text-anchor="middle" x="714" y="-630.5" font-family="Helvetica,sans-Serif" font-size="10.00" fill="#000000">_absoluteScale</text>
</g>
<!-- Node12 -->
<g id="node10" class="node">
<title>Node12</title>
<polygon fill="none" stroke="#bfbfbf" points="35.5,-404 35.5,-423 74.5,-423 74.5,-404 35.5,-404"/>
<text text-anchor="middle" x="55" y="-411" font-family="Helvetica,sans-Serif" font-size="10.00" fill="#000000">float</text>
</g>
<!-- Node12&#45;&gt;Node4 -->
<g id="edge11" class="edge">
<title>Node12&#45;&gt;Node4</title>
<path fill="none" stroke="#9a32cd" stroke-dasharray="5,2" d="M68.6873,-431.4086C81.9546,-447.2956 103.6098,-469.6204 128,-480.5 186.9263,-506.7849 207.9771,-494.5 272.5,-494.5 272.5,-494.5 272.5,-494.5 843,-494.5 902.2313,-494.5 969.7198,-494.5 1017.8395,-494.5"/>
<polygon fill="#9a32cd" stroke="#9a32cd" points="71.2089,-428.9591 62.2154,-423.3584 65.7533,-433.3451 71.2089,-428.9591"/>
<text text-anchor="middle" x="572" y="-519.5" font-family="Helvetica,sans-Serif" font-size="10.00" fill="#000000"> _near</text>
<text text-anchor="middle" x="572" y="-508.5" font-family="Helvetica,sans-Serif" font-size="10.00" fill="#000000">_far</text>
<text text-anchor="middle" x="572" y="-497.5" font-family="Helvetica,sans-Serif" font-size="10.00" fill="#000000">_fov</text>
</g>
<!-- Node14 -->
<g id="node12" class="node">
<title>Node14</title>
<g id="a_node12"><a xlink:href="structlug_1_1Graphics_1_1Render_1_1View_1_1Scissor.html" target="_top" xlink:title="lug::Graphics::Render\l::View::Scissor">
<polygon fill="none" stroke="#000000" points="208.5,-240.5 208.5,-270.5 336.5,-270.5 336.5,-240.5 208.5,-240.5"/>
<text text-anchor="start" x="216.5" y="-258.5" font-family="Helvetica,sans-Serif" font-size="10.00" fill="#000000">lug::Graphics::Render</text>
<text text-anchor="middle" x="272.5" y="-247.5" font-family="Helvetica,sans-Serif" font-size="10.00" fill="#000000">::View::Scissor</text>
</a>
</g>
</g>
<!-- Node12&#45;&gt;Node14 -->
<g id="edge17" class="edge">
<title>Node12&#45;&gt;Node14</title>
<path fill="none" stroke="#9a32cd" stroke-dasharray="5,2" d="M78.2412,-398.1277C109.4358,-377.2965 162.9092,-340.8334 180,-324.5 189.3842,-315.5317 188.3268,-310.1558 198,-301.5 211.4801,-289.4376 228.5259,-278.6498 242.9095,-270.5581"/>
<polygon fill="#9a32cd" stroke="#9a32cd" points="76.0964,-395.3508 69.711,-403.8052 79.9749,-401.1781 76.0964,-395.3508"/>
<text text-anchor="middle" x="154" y="-399.5" font-family="Helvetica,sans-Serif" font-size="10.00" fill="#000000"> width</text>
<text text-anchor="middle" x="154" y="-388.5" font-family="Helvetica,sans-Serif" font-size="10.00" fill="#000000">x</text>
<text text-anchor="middle" x="154" y="-377.5" font-family="Helvetica,sans-Serif" font-size="10.00" fill="#000000">y</text>
<text text-anchor="middle" x="154" y="-366.5" font-family="Helvetica,sans-Serif" font-size="10.00" fill="#000000">height</text>
</g>
<!-- Node20 -->
<g id="node18" class="node">
<title>Node20</title>
<g id="a_node18"><a xlink:href="classlug_1_1Graphics_1_1Render_1_1View_1_1Viewport.html" target="_top" xlink:title="lug::Graphics::Render\l::View::Viewport">
<polygon fill="none" stroke="#000000" points="208.5,-398.5 208.5,-428.5 336.5,-428.5 336.5,-398.5 208.5,-398.5"/>
<text text-anchor="start" x="216.5" y="-416.5" font-family="Helvetica,sans-Serif" font-size="10.00" fill="#000000">lug::Graphics::Render</text>
<text text-anchor="middle" x="272.5" y="-405.5" font-family="Helvetica,sans-Serif" font-size="10.00" fill="#000000">::View::Viewport</text>
</a>
</g>
</g>
<!-- Node12&#45;&gt;Node20 -->
<g id="edge23" class="edge">
<title>Node12&#45;&gt;Node20</title>
<path fill="none" stroke="#9a32cd" stroke-dasharray="5,2" d="M85.0447,-413.5C116.732,-413.5 167.6171,-413.5 208.3802,-413.5"/>
<polygon fill="#9a32cd" stroke="#9a32cd" points="84.6853,-410.0001 74.6853,-413.5 84.6852,-417.0001 84.6853,-410.0001"/>
<text text-anchor="middle" x="154" y="-471.5" font-family="Helvetica,sans-Serif" font-size="10.00" fill="#000000"> width</text>
<text text-anchor="middle" x="154" y="-460.5" font-family="Helvetica,sans-Serif" font-size="10.00" fill="#000000">x</text>
<text text-anchor="middle" x="154" y="-449.5" font-family="Helvetica,sans-Serif" font-size="10.00" fill="#000000">y</text>
<text text-anchor="middle" x="154" y="-438.5" font-family="Helvetica,sans-Serif" font-size="10.00" fill="#000000">minDepth</text>
<text text-anchor="middle" x="154" y="-427.5" font-family="Helvetica,sans-Serif" font-size="10.00" fill="#000000">height</text>
<text text-anchor="middle" x="154" y="-416.5" font-family="Helvetica,sans-Serif" font-size="10.00" fill="#000000">maxDepth</text>
</g>
<!-- Node13 -->
<g id="node11" class="node">
<title>Node13</title>
<g id="a_node11"><a xlink:href="classlug_1_1Graphics_1_1Render_1_1View.html" target="_top" xlink:title="lug::Graphics::Render\l::View">
<polygon fill="none" stroke="#000000" points="779,-352.5 779,-382.5 907,-382.5 907,-352.5 779,-352.5"/>
<text text-anchor="start" x="787" y="-370.5" font-family="Helvetica,sans-Serif" font-size="10.00" fill="#000000">lug::Graphics::Render</text>
<text text-anchor="middle" x="843" y="-359.5" font-family="Helvetica,sans-Serif" font-size="10.00" fill="#000000">::View</text>
</a>
</g>
</g>
<!-- Node13&#45;&gt;Node4 -->
<g id="edge13" class="edge">
<title>Node13&#45;&gt;Node4</title>
<path fill="none" stroke="#9a32cd" stroke-dasharray="5,2" d="M880.4777,-387.4149C928.4737,-412.9191 1010.5814,-456.5495 1053.6819,-479.4523"/>
<polygon fill="#9a32cd" stroke="#9a32cd" points="881.828,-384.1691 871.355,-382.5673 878.5433,-390.3505 881.828,-384.1691"/>
<text text-anchor="middle" x="962.5" y="-452.5" font-family="Helvetica,sans-Serif" font-size="10.00" fill="#000000"> _renderView</text>
</g>
<!-- Node14&#45;&gt;Node13 -->
<g id="edge14" class="edge">
<title>Node14&#45;&gt;Node13</title>
<path fill="none" stroke="#9a32cd" stroke-dasharray="5,2" d="M346.7479,-256.9107C423.4397,-259.776 546.0963,-268.3087 649,-293.5 707.823,-307.9002 772.9897,-335.2693 810.841,-352.3839"/>
<polygon fill="#9a32cd" stroke="#9a32cd" points="346.8185,-253.4111 336.7019,-256.558 346.5729,-260.4068 346.8185,-253.4111"/>
<text text-anchor="middle" x="572" y="-296.5" font-family="Helvetica,sans-Serif" font-size="10.00" fill="#000000"> _scissor</text>
</g>
<!-- Node17 -->
<g id="node15" class="node">
<title>Node17</title>
<g id="a_node15"><a xlink:href="structlug_1_1Graphics_1_1Render_1_1View_1_1InitInfo.html" target="_top" xlink:title="lug::Graphics::Render\l::View::InitInfo">
<polygon fill="none" stroke="#000000" points="508,-313.5 508,-343.5 636,-343.5 636,-313.5 508,-313.5"/>
<text text-anchor="start" x="516" y="-331.5" font-family="Helvetica,sans-Serif" font-size="10.00" fill="#000000">lug::Graphics::Render</text>
<text text-anchor="middle" x="572" y="-320.5" font-family="Helvetica,sans-Serif" font-size="10.00" fill="#000000">::View::InitInfo</text>
</a>
</g>
</g>
<!-- Node14&#45;&gt;Node17 -->
<g id="edge19" class="edge">
<title>Node14&#45;&gt;Node17</title>
<path fill="none" stroke="#9a32cd" stroke-dasharray="5,2" d="M346.2987,-272.9518C385.2072,-282.2112 433.7184,-293.848 477,-304.5 488.6454,-307.3661 501.0816,-310.4737 512.9897,-313.4725"/>
<polygon fill="#9a32cd" stroke="#9a32cd" points="346.647,-269.4371 336.1086,-270.5289 345.0277,-276.2473 346.647,-269.4371"/>
<text text-anchor="middle" x="421" y="-307.5" font-family="Helvetica,sans-Serif" font-size="10.00" fill="#000000"> scissor</text>
</g>
<!-- Node15 -->
<g id="node13" class="node">
<title>Node15</title>
<polygon fill="none" stroke="#bfbfbf" points="1.5,-217 1.5,-236 108.5,-236 108.5,-217 1.5,-217"/>
<text text-anchor="middle" x="55" y="-224" font-family="Helvetica,sans-Serif" font-size="10.00" fill="#000000">anonymous:offset</text>
</g>
<!-- Node15&#45;&gt;Node14 -->
<g id="edge15" class="edge">
<title>Node15&#45;&gt;Node14</title>
<path fill="none" stroke="#9a32cd" stroke-dasharray="5,2" d="M87.8746,-213.6779C113.877,-205.593 150.5756,-198.8436 180,-211.5 190.6857,-216.0962 188.1949,-224.2416 198,-230.5 203.98,-234.3169 210.6044,-237.6147 217.3648,-240.4467"/>
<polygon fill="#9a32cd" stroke="#9a32cd" points="86.5078,-210.4441 78.1271,-216.926 88.7208,-217.0851 86.5078,-210.4441"/>
<text text-anchor="middle" x="154" y="-214.5" font-family="Helvetica,sans-Serif" font-size="10.00" fill="#000000"> offset</text>
</g>
<!-- Node15&#45;&gt;Node20 -->
<g id="edge24" class="edge">
<title>Node15&#45;&gt;Node20</title>
<path fill="none" stroke="#9a32cd" stroke-dasharray="5,2" d="M87.918,-240.0778C100.4574,-245.2368 114.8833,-251.1563 128,-256.5 151.0825,-265.9038 164.4604,-258.0127 180,-277.5 211.4329,-316.9183 165.1655,-351.2414 198,-389.5 201.0089,-393.006 204.5327,-396.004 208.3815,-398.5672"/>
<polygon fill="#9a32cd" stroke="#9a32cd" points="88.9067,-236.6998 78.3272,-236.1289 86.2415,-243.1726 88.9067,-236.6998"/>
<text text-anchor="middle" x="154" y="-280.5" font-family="Helvetica,sans-Serif" font-size="10.00" fill="#000000"> offset</text>
</g>
<!-- Node16 -->
<g id="node14" class="node">
<title>Node16</title>
<polygon fill="none" stroke="#bfbfbf" points="0,-287 0,-306 110,-306 110,-287 0,-287"/>
<text text-anchor="middle" x="55" y="-294" font-family="Helvetica,sans-Serif" font-size="10.00" fill="#000000">anonymous:extent</text>
</g>
<!-- Node16&#45;&gt;Node14 -->
<g id="edge16" class="edge">
<title>Node16&#45;&gt;Node14</title>
<path fill="none" stroke="#9a32cd" stroke-dasharray="5,2" d="M72.4709,-279.6176C86.2944,-267.5045 106.7504,-252.1876 128,-245.5 153.5461,-237.4602 182.8455,-237.8405 208.3541,-241.0265"/>
<polygon fill="#9a32cd" stroke="#9a32cd" points="69.8021,-277.3147 64.7731,-286.64 74.5198,-282.4862 69.8021,-277.3147"/>
<text text-anchor="middle" x="154" y="-248.5" font-family="Helvetica,sans-Serif" font-size="10.00" fill="#000000"> extent</text>
</g>
<!-- Node16&#45;&gt;Node20 -->
<g id="edge25" class="edge">
<title>Node16&#45;&gt;Node20</title>
<path fill="none" stroke="#9a32cd" stroke-dasharray="5,2" d="M120.0766,-291.3884C141.4827,-293.0574 163.8953,-298.892 180,-313.5 205.7109,-336.8214 174.4444,-364.0035 198,-389.5 201.1352,-392.8935 204.7517,-395.809 208.6664,-398.3135"/>
<polygon fill="#9a32cd" stroke="#9a32cd" points="120.1718,-287.8889 110.011,-290.8906 119.8259,-294.8804 120.1718,-287.8889"/>
<text text-anchor="middle" x="154" y="-316.5" font-family="Helvetica,sans-Serif" font-size="10.00" fill="#000000"> extent</text>
</g>
<!-- Node17&#45;&gt;Node13 -->
<g id="edge18" class="edge">
<title>Node17&#45;&gt;Node13</title>
<path fill="none" stroke="#9a32cd" stroke-dasharray="5,2" d="M646.3918,-339.0677C681.2053,-344.0284 723.2307,-350.0386 761,-355.5 766.8383,-356.3442 772.9097,-357.2258 778.99,-358.1112"/>
<polygon fill="#9a32cd" stroke="#9a32cd" points="646.6978,-335.576 636.3041,-337.6308 645.7106,-342.506 646.6978,-335.576"/>
<text text-anchor="middle" x="714" y="-358.5" font-family="Helvetica,sans-Serif" font-size="10.00" fill="#000000"> _info</text>
</g>
<!-- Node18 -->
<g id="node16" class="node">
<title>Node18</title>
<polygon fill="none" stroke="#bfbfbf" points="198,-349.5 198,-379.5 347,-379.5 347,-349.5 198,-349.5"/>
<text text-anchor="start" x="206" y="-367.5" font-family="Helvetica,sans-Serif" font-size="10.00" fill="#000000">unique_ptr&lt; lug::Graphics</text>
<text text-anchor="middle" x="272.5" y="-356.5" font-family="Helvetica,sans-Serif" font-size="10.00" fill="#000000">::Render::Camera &gt;</text>
</g>
<!-- Node18&#45;&gt;Node13 -->
<g id="edge28" class="edge">
<title>Node18&#45;&gt;Node13</title>
<path fill="none" stroke="#9a32cd" stroke-dasharray="5,2" d="M357.3087,-366.399C359.9017,-366.4361 362.4703,-366.47 365,-366.5 513.1201,-368.2561 687.0758,-368.0494 778.8257,-367.7634"/>
<polygon fill="#9a32cd" stroke="#9a32cd" points="357.2696,-362.898 347.2159,-366.2406 357.1597,-369.8972 357.2696,-362.898"/>
<text text-anchor="middle" x="572" y="-370.5" font-family="Helvetica,sans-Serif" font-size="10.00" fill="#000000"> _camera</text>
</g>
<!-- Node18&#45;&gt;Node17 -->
<g id="edge20" class="edge">
<title>Node18&#45;&gt;Node17</title>
<path fill="none" stroke="#9a32cd" stroke-dasharray="5,2" d="M357.3258,-354.3039C405.1123,-348.56 463.8371,-341.5012 507.7799,-336.2193"/>
<polygon fill="#9a32cd" stroke="#9a32cd" points="356.8147,-350.8401 347.3039,-355.5085 357.6502,-357.79 356.8147,-350.8401"/>
<text text-anchor="middle" x="421" y="-355.5" font-family="Helvetica,sans-Serif" font-size="10.00" fill="#000000"> camera</text>
</g>
<!-- Node19 -->
<g id="node17" class="node">
<title>Node19</title>
<polygon fill="none" stroke="#bfbfbf" points="252,-311 252,-330 293,-330 293,-311 252,-311"/>
<text text-anchor="middle" x="272.5" y="-318" font-family="Helvetica,sans-Serif" font-size="10.00" fill="#000000">Type</text>
</g>
<!-- Node19&#45;&gt;Node17 -->
<g id="edge21" class="edge">
<title>Node19&#45;&gt;Node17</title>
<path fill="none" stroke="#9a32cd" stroke-dasharray="5,2" d="M303.2901,-319.9928C343.3256,-319.4843 415.418,-319.0835 477,-321.5 486.9977,-321.8923 497.5757,-322.4902 507.9014,-323.1745"/>
<polygon fill="#9a32cd" stroke="#9a32cd" points="303.0701,-316.4954 293.1194,-320.1333 303.1668,-323.4948 303.0701,-316.4954"/>
<text text-anchor="middle" x="421" y="-324.5" font-family="Helvetica,sans-Serif" font-size="10.00" fill="#000000"> renderTechniqueType</text>
</g>
<!-- Node20&#45;&gt;Node13 -->
<g id="edge29" class="edge">
<title>Node20&#45;&gt;Node13</title>
<path fill="none" stroke="#9a32cd" stroke-dasharray="5,2" d="M346.7421,-414.477C385.5771,-414.5573 433.8862,-413.9823 477,-411.5 603.7146,-404.2044 635.2678,-398.856 761,-381.5 766.7226,-380.7101 772.6588,-379.8252 778.6022,-378.8943"/>
<polygon fill="#9a32cd" stroke="#9a32cd" points="346.5809,-410.9765 336.5684,-414.4407 346.5558,-417.9765 346.5809,-410.9765"/>
<text text-anchor="middle" x="572" y="-412.5" font-family="Helvetica,sans-Serif" font-size="10.00" fill="#000000"> _viewport</text>
</g>
<!-- Node20&#45;&gt;Node17 -->
<g id="edge22" class="edge">
<title>Node20&#45;&gt;Node17</title>
<path fill="none" stroke="#9a32cd" stroke-dasharray="5,2" d="M346.7815,-401.2885C386.1341,-393.702 434.9039,-382.5072 477,-367.5 485.4249,-364.4965 486.8243,-362.1274 495,-358.5 506.6715,-353.3216 519.5342,-348.1179 531.3493,-343.5323"/>
<polygon fill="#9a32cd" stroke="#9a32cd" points="345.9057,-397.892 336.7294,-403.1878 347.2054,-404.7703 345.9057,-397.892"/>
<text text-anchor="middle" x="421" y="-399.5" font-family="Helvetica,sans-Serif" font-size="10.00" fill="#000000"> viewport</text>
</g>
<!-- Node21 -->
<g id="node19" class="node">
<title>Node21</title>
<g id="a_node19"><a xlink:href="classlug_1_1Graphics_1_1Render_1_1Target.html" target="_top" xlink:title="lug::Graphics::Render\l::Target">
<polygon fill="none" stroke="#000000" points="508,-186.5 508,-216.5 636,-216.5 636,-186.5 508,-186.5"/>
<text text-anchor="start" x="516" y="-204.5" font-family="Helvetica,sans-Serif" font-size="10.00" fill="#000000">lug::Graphics::Render</text>
<text text-anchor="middle" x="572" y="-193.5" font-family="Helvetica,sans-Serif" font-size="10.00" fill="#000000">::Target</text>
</a>
</g>
</g>
<!-- Node21&#45;&gt;Node13 -->
<g id="edge26" class="edge">
<title>Node21&#45;&gt;Node13</title>
<path fill="none" stroke="#9a32cd" stroke-dasharray="5,2" d="M646.3342,-197.4907C683.5424,-198.9258 727.6397,-206.1704 761,-228.5 806.1703,-258.7346 829.9703,-322.9698 838.849,-352.3103"/>
<polygon fill="#9a32cd" stroke="#9a32cd" points="646.1216,-193.9843 636.0369,-197.2322 645.9459,-200.9821 646.1216,-193.9843"/>
<text text-anchor="middle" x="714" y="-231.5" font-family="Helvetica,sans-Serif" font-size="10.00" fill="#000000"> _renderTarget</text>
</g>
<!-- Node22 -->
<g id="node20" class="node">
<title>Node22</title>
<polygon fill="none" stroke="#bfbfbf" points="213.5,-180 213.5,-221 331.5,-221 331.5,-180 213.5,-180"/>
<text text-anchor="start" x="221.5" y="-209" font-family="Helvetica,sans-Serif" font-size="10.00" fill="#000000">vector&lt; std::unique</text>
<text text-anchor="start" x="221.5" y="-198" font-family="Helvetica,sans-Serif" font-size="10.00" fill="#000000">_ptr&lt; lug::Graphics</text>
<text text-anchor="middle" x="272.5" y="-187" font-family="Helvetica,sans-Serif" font-size="10.00" fill="#000000">::Render::View &gt; &gt;</text>
</g>
<!-- Node22&#45;&gt;Node21 -->
<g id="edge27" class="edge">
<title>Node22&#45;&gt;Node21</title>
<path fill="none" stroke="#9a32cd" stroke-dasharray="5,2" d="M341.7606,-200.7313C391.8069,-200.8984 458.9178,-201.1224 507.767,-201.2855"/>
<polygon fill="#9a32cd" stroke="#9a32cd" points="341.6832,-197.2311 331.6716,-200.6976 341.6598,-204.231 341.6832,-197.2311"/>
<text text-anchor="middle" x="421" y="-203.5" font-family="Helvetica,sans-Serif" font-size="10.00" fill="#000000"> _renderViews</text>
</g>
<!-- Node23 -->
<g id="node21" class="node">
<title>Node23</title>
<g id="a_node21"><a xlink:href="classlug_1_1Graphics_1_1Render_1_1Queue.html" target="_top" xlink:title="lug::Graphics::Render\l::Queue">
<polygon fill="none" stroke="#000000" points="779,-120.5 779,-150.5 907,-150.5 907,-120.5 779,-120.5"/>
<text text-anchor="start" x="787" y="-138.5" font-family="Helvetica,sans-Serif" font-size="10.00" fill="#000000">lug::Graphics::Render</text>
<text text-anchor="middle" x="843" y="-127.5" font-family="Helvetica,sans-Serif" font-size="10.00" fill="#000000">::Queue</text>
</a>
</g>
</g>
<!-- Node23&#45;&gt;Node4 -->
<g id="edge30" class="edge">
<title>Node23&#45;&gt;Node4</title>
<path fill="none" stroke="#9a32cd" stroke-dasharray="5,2" d="M858.8685,-159.336C904.3482,-227.6506 1034.2933,-422.8401 1071.7687,-479.1317"/>
<polygon fill="#9a32cd" stroke="#9a32cd" points="861.7247,-157.3103 853.2695,-150.9258 855.8978,-161.1895 861.7247,-157.3103"/>
<text text-anchor="middle" x="962.5" y="-370.5" font-family="Helvetica,sans-Serif" font-size="10.00" fill="#000000"> _renderQueue</text>
</g>
<!-- Node24 -->
<g id="node22" class="node">
<title>Node24</title>
<polygon fill="none" stroke="#bfbfbf" points="549,-148 549,-167 595,-167 595,-148 549,-148"/>
<text text-anchor="middle" x="572" y="-155" font-family="Helvetica,sans-Serif" font-size="10.00" fill="#000000">size_t</text>
</g>
<!-- Node24&#45;&gt;Node23 -->
<g id="edge31" class="edge">
<title>Node24&#45;&gt;Node23</title>
<path fill="none" stroke="#9a32cd" stroke-dasharray="5,2" d="M605.3143,-154.7955C648.384,-151.2991 724.3108,-145.1353 778.7687,-140.7143"/>
<polygon fill="#9a32cd" stroke="#9a32cd" points="604.7893,-151.3265 595.1053,-155.6243 605.3558,-158.3036 604.7893,-151.3265"/>
<text text-anchor="middle" x="714" y="-163.5" font-family="Helvetica,sans-Serif" font-size="10.00" fill="#000000"> _lightsNb</text>
<text text-anchor="middle" x="714" y="-152.5" font-family="Helvetica,sans-Serif" font-size="10.00" fill="#000000">_meshsNb</text>
</g>
<!-- Node25 -->
<g id="node23" class="node">
<title>Node25</title>
<polygon fill="none" stroke="#bfbfbf" points="508,-98.5 508,-128.5 636,-128.5 636,-98.5 508,-98.5"/>
<text text-anchor="start" x="516" y="-116.5" font-family="Helvetica,sans-Serif" font-size="10.00" fill="#000000">vector&lt; lug::Graphics</text>
<text text-anchor="middle" x="572" y="-105.5" font-family="Helvetica,sans-Serif" font-size="10.00" fill="#000000">::Light::Light * &gt;</text>
</g>
<!-- Node25&#45;&gt;Node23 -->
<g id="edge32" class="edge">
<title>Node25&#45;&gt;Node23</title>
<path fill="none" stroke="#9a32cd" stroke-dasharray="5,2" d="M646.4154,-118.61C681.2338,-121.1041 723.2566,-124.2614 761,-127.5 766.7005,-127.9891 772.6216,-128.5207 778.5551,-129.0696"/>
<polygon fill="#9a32cd" stroke="#9a32cd" points="646.5494,-115.1108 636.326,-117.8914 646.052,-122.0931 646.5494,-115.1108"/>
<text text-anchor="middle" x="714" y="-130.5" font-family="Helvetica,sans-Serif" font-size="10.00" fill="#000000"> _lights</text>
</g>
<!-- Node26 -->
<g id="node24" class="node">
<title>Node26</title>
<polygon fill="none" stroke="#bfbfbf" points="495,-49.5 495,-79.5 649,-79.5 649,-49.5 495,-49.5"/>
<text text-anchor="start" x="503" y="-67.5" font-family="Helvetica,sans-Serif" font-size="10.00" fill="#000000">vector&lt; lug::Graphics</text>
<text text-anchor="middle" x="572" y="-56.5" font-family="Helvetica,sans-Serif" font-size="10.00" fill="#000000">::Scene::MeshInstance * &gt;</text>
</g>
<!-- Node26&#45;&gt;Node23 -->
<g id="edge33" class="edge">
<title>Node26&#45;&gt;Node23</title>
<path fill="none" stroke="#9a32cd" stroke-dasharray="5,2" d="M659.3,-80.0768C691.5308,-86.5853 728.185,-94.8859 761,-104.5 776.1898,-108.9503 792.571,-114.9009 806.6688,-120.3984"/>
<polygon fill="#9a32cd" stroke="#9a32cd" points="659.9395,-76.6355 649.4485,-78.115 658.5723,-83.5007 659.9395,-76.6355"/>
<text text-anchor="middle" x="714" y="-107.5" font-family="Helvetica,sans-Serif" font-size="10.00" fill="#000000"> _meshs</text>
</g>
<!-- Node27 -->
<g id="node25" class="node">
<title>Node27</title>
<g id="a_node25"><a xlink:href="classlug_1_1Graphics_1_1Scene_1_1Scene.html" target="_top" xlink:title="lug::Graphics::Scene\l::Scene">
<polygon fill="none" stroke="#000000" points="781.5,-25.5 781.5,-55.5 904.5,-55.5 904.5,-25.5 781.5,-25.5"/>
<text text-anchor="start" x="789.5" y="-43.5" font-family="Helvetica,sans-Serif" font-size="10.00" fill="#000000">lug::Graphics::Scene</text>
<text text-anchor="middle" x="843" y="-32.5" font-family="Helvetica,sans-Serif" font-size="10.00" fill="#000000">::Scene</text>
</a>
</g>
</g>
<!-- Node27&#45;&gt;Node4 -->
<g id="edge34" class="edge">
<title>Node27&#45;&gt;Node4</title>
<path fill="none" stroke="#9a32cd" stroke-dasharray="5,2" d="M864.6605,-62.999C877.4427,-76.6437 893.6742,-94.6248 907,-111.5 952.1537,-168.6803 967.5708,-181.2559 1000,-246.5 1041.5794,-330.1534 1069.3387,-439.7626 1078.5961,-479.3875"/>
<polygon fill="#9a32cd" stroke="#9a32cd" points="866.9934,-60.3718 857.5812,-55.5075 861.9056,-65.1796 866.9934,-60.3718"/>
<text text-anchor="middle" x="962.5" y="-249.5" font-family="Helvetica,sans-Serif" font-size="10.00" fill="#000000"> _scene</text>
</g>
<!-- Node28 -->
<g id="node26" class="node">
<title>Node28</title>
<polygon fill="none" stroke="#bfbfbf" points="497.5,-.5 497.5,-30.5 646.5,-30.5 646.5,-.5 497.5,-.5"/>
<text text-anchor="start" x="505.5" y="-18.5" font-family="Helvetica,sans-Serif" font-size="10.00" fill="#000000">unique_ptr&lt; lug::Graphics</text>
<text text-anchor="middle" x="572" y="-7.5" font-family="Helvetica,sans-Serif" font-size="10.00" fill="#000000">::Scene::Node &gt;</text>
</g>
<!-- Node28&#45;&gt;Node27 -->
<g id="edge35" class="edge">
<title>Node28&#45;&gt;Node27</title>
<path fill="none" stroke="#9a32cd" stroke-dasharray="5,2" d="M656.9331,-22.2379C689.4965,-24.9398 726.9891,-28.1944 761,-31.5 767.557,-32.1373 774.4052,-32.8361 781.2282,-33.5538"/>
<polygon fill="#9a32cd" stroke="#9a32cd" points="656.7985,-18.7149 646.5445,-21.3807 656.2228,-25.6912 656.7985,-18.7149"/>
<text text-anchor="middle" x="714" y="-34.5" font-family="Helvetica,sans-Serif" font-size="10.00" fill="#000000"> _root</text>
</g>
</g>
</svg>
