<?xml version="1.0" encoding="UTF-8" standalone="no"?>
<!DOCTYPE svg PUBLIC "-//W3C//DTD SVG 1.1//EN"
 "http://www.w3.org/Graphics/SVG/1.1/DTD/svg11.dtd">
<!-- Generated by graphviz version 2.40.1 (20161225.0304)
 -->
<!-- Title: lug::Graphics::Vulkan::API::PipelineLayout Pages: 1 -->
<svg width="1379pt" height="358pt"
 viewBox="0.00 0.00 1379.00 358.18" xmlns="http://www.w3.org/2000/svg" xmlns:xlink="http://www.w3.org/1999/xlink">
<g id="graph0" class="graph" transform="scale(1 1) rotate(0) translate(4 354.1838)">
<title>lug::Graphics::Vulkan::API::PipelineLayout</title>
<!-- Node1 -->
<g id="node1" class="node">
<title>Node1</title>
<polygon fill="#bfbfbf" stroke="#000000" points="1244,-126.1838 1244,-156.1838 1371,-156.1838 1371,-126.1838 1244,-126.1838"/>
<text text-anchor="start" x="1252" y="-144.1838" font-family="Helvetica,sans-Serif" font-size="10.00" fill="#000000">lug::Graphics::Vulkan</text>
<text text-anchor="middle" x="1307.5" y="-133.1838" font-family="Helvetica,sans-Serif" font-size="10.00" fill="#000000">::API::PipelineLayout</text>
</g>
<!-- Node2 -->
<g id="node2" class="node">
<title>Node2</title>
<polygon fill="none" stroke="#bfbfbf" points="931,-169.6838 931,-210.6838 1093,-210.6838 1093,-169.6838 931,-169.6838"/>
<text text-anchor="start" x="939" y="-198.6838" font-family="Helvetica,sans-Serif" font-size="10.00" fill="#000000">vector&lt; lug::Graphics</text>
<text text-anchor="start" x="939" y="-187.6838" font-family="Helvetica,sans-Serif" font-size="10.00" fill="#000000">::Vulkan::API::DescriptorSet</text>
<text text-anchor="middle" x="1012" y="-176.6838" font-family="Helvetica,sans-Serif" font-size="10.00" fill="#000000">Layout &gt;</text>
</g>
<!-- Node2&#45;&gt;Node1 -->
<g id="edge1" class="edge">
<title>Node2&#45;&gt;Node1</title>
<path fill="none" stroke="#9a32cd" stroke-dasharray="5,2" d="M1103.1443,-176.206C1141.16,-170.2453 1185.7521,-163.0838 1226,-156.1838 1231.8138,-155.1871 1237.8559,-154.1249 1243.904,-153.0438"/>
<polygon fill="#9a32cd" stroke="#9a32cd" points="1102.4572,-172.7708 1093.1182,-177.7742 1103.5389,-179.6868 1102.4572,-172.7708"/>
<text text-anchor="middle" x="1168.5" y="-177.1838" font-family="Helvetica,sans-Serif" font-size="10.00" fill="#000000"> _descriptorSetLayouts</text>
</g>
<!-- Node3 -->
<g id="node3" class="node">
<title>Node3</title>
<polygon fill="none" stroke="#bfbfbf" points="961.5,-131.6838 961.5,-150.6838 1062.5,-150.6838 1062.5,-131.6838 961.5,-131.6838"/>
<text text-anchor="middle" x="1012" y="-138.6838" font-family="Helvetica,sans-Serif" font-size="10.00" fill="#000000">VkPipelineLayout</text>
</g>
<!-- Node3&#45;&gt;Node1 -->
<g id="edge2" class="edge">
<title>Node3&#45;&gt;Node1</title>
<path fill="none" stroke="#9a32cd" stroke-dasharray="5,2" d="M1072.8175,-141.1838C1122.7765,-141.1838 1193.3154,-141.1838 1243.9944,-141.1838"/>
<polygon fill="#9a32cd" stroke="#9a32cd" points="1072.7983,-137.6839 1062.7983,-141.1838 1072.7982,-144.6839 1072.7983,-137.6839"/>
<text text-anchor="middle" x="1168.5" y="-144.1838" font-family="Helvetica,sans-Serif" font-size="10.00" fill="#000000"> _pipelineLayout</text>
</g>
<!-- Node4 -->
<g id="node4" class="node">
<title>Node4</title>
<g id="a_node4"><a xlink:href="classlug_1_1Graphics_1_1Vulkan_1_1API_1_1Device.html" target="_top" xlink:title="lug::Graphics::Vulkan\l::API::Device">
<polygon fill="none" stroke="#000000" points="948.5,-82.1838 948.5,-112.1838 1075.5,-112.1838 1075.5,-82.1838 948.5,-82.1838"/>
<text text-anchor="start" x="956.5" y="-100.1838" font-family="Helvetica,sans-Serif" font-size="10.00" fill="#000000">lug::Graphics::Vulkan</text>
<text text-anchor="middle" x="1012" y="-89.1838" font-family="Helvetica,sans-Serif" font-size="10.00" fill="#000000">::API::Device</text>
</a>
</g>
</g>
<!-- Node4&#45;&gt;Node1 -->
<g id="edge3" class="edge">
<title>Node4&#45;&gt;Node1</title>
<path fill="none" stroke="#9a32cd" stroke-dasharray="5,2" d="M1085.7729,-106.3063C1127.0804,-111.6335 1179.4837,-118.7556 1226,-126.1838 1231.8249,-127.114 1237.8744,-128.131 1243.9273,-129.1831"/>
<polygon fill="#9a32cd" stroke="#9a32cd" points="1086.1551,-102.8267 1075.791,-105.026 1085.2645,-109.7698 1086.1551,-102.8267"/>
<text text-anchor="middle" x="1168.5" y="-129.1838" font-family="Helvetica,sans-Serif" font-size="10.00" fill="#000000"> _device</text>
</g>
<!-- Node5 -->
<g id="node5" class="node">
<title>Node5</title>
<g id="a_node5"><a xlink:href="structlug_1_1Graphics_1_1Vulkan_1_1PhysicalDeviceInfo.html" target="_top" xlink:title="lug::Graphics::Vulkan\l::PhysicalDeviceInfo">
<polygon fill="none" stroke="#000000" points="642.5,-131.1838 642.5,-161.1838 769.5,-161.1838 769.5,-131.1838 642.5,-131.1838"/>
<text text-anchor="start" x="650.5" y="-149.1838" font-family="Helvetica,sans-Serif" font-size="10.00" fill="#000000">lug::Graphics::Vulkan</text>
<text text-anchor="middle" x="706" y="-138.1838" font-family="Helvetica,sans-Serif" font-size="10.00" fill="#000000">::PhysicalDeviceInfo</text>
</a>
</g>
</g>
<!-- Node5&#45;&gt;Node4 -->
<g id="edge4" class="edge">
<title>Node5&#45;&gt;Node4</title>
<path fill="none" stroke="#9a32cd" stroke-dasharray="5,2" d="M779.8356,-134.3605C831.2893,-126.1211 899.2296,-115.2418 948.307,-107.383"/>
<polygon fill="#9a32cd" stroke="#9a32cd" points="779.0959,-130.9342 769.7752,-135.9715 780.2028,-137.8462 779.0959,-130.9342"/>
<text text-anchor="middle" x="861" y="-131.1838" font-family="Helvetica,sans-Serif" font-size="10.00" fill="#000000"> _physicalDeviceInfo</text>
</g>
<!-- Node6 -->
<g id="node6" class="node">
<title>Node6</title>
<g id="a_node6"><a xlink:href="structlug_1_1Graphics_1_1Vulkan_1_1PhysicalDeviceInfo_1_1Swapchain.html" target="_top" xlink:title="lug::Graphics::Vulkan\l::PhysicalDeviceInfo\l::Swapchain">
<polygon fill="none" stroke="#000000" points="324.5,-281.6838 324.5,-322.6838 451.5,-322.6838 451.5,-281.6838 324.5,-281.6838"/>
<text text-anchor="start" x="332.5" y="-310.6838" font-family="Helvetica,sans-Serif" font-size="10.00" fill="#000000">lug::Graphics::Vulkan</text>
<text text-anchor="start" x="332.5" y="-299.6838" font-family="Helvetica,sans-Serif" font-size="10.00" fill="#000000">::PhysicalDeviceInfo</text>
<text text-anchor="middle" x="388" y="-288.6838" font-family="Helvetica,sans-Serif" font-size="10.00" fill="#000000">::Swapchain</text>
</a>
</g>
</g>
<!-- Node6&#45;&gt;Node5 -->
<g id="edge5" class="edge">
<title>Node6&#45;&gt;Node5</title>
<path fill="none" stroke="#9a32cd" stroke-dasharray="5,2" d="M461.6295,-290.6788C504.7948,-281.782 559.2582,-266.7196 603,-242.1838 641.1623,-220.7777 676.3144,-182.3716 694.0081,-161.2046"/>
<polygon fill="#9a32cd" stroke="#9a32cd" points="460.881,-287.259 451.7585,-292.6471 462.2499,-294.1239 460.881,-287.259"/>
<text text-anchor="middle" x="554.5" y="-282.1838" font-family="Helvetica,sans-Serif" font-size="10.00" fill="#000000"> swapchain</text>
</g>
<!-- Node7 -->
<g id="node7" class="node">
<title>Node7</title>
<polygon fill="none" stroke="#bfbfbf" points="16.5,-330.6838 16.5,-349.6838 162.5,-349.6838 162.5,-330.6838 16.5,-330.6838"/>
<text text-anchor="middle" x="89.5" y="-337.6838" font-family="Helvetica,sans-Serif" font-size="10.00" fill="#000000">VkSurfaceCapabilitiesKHR</text>
</g>
<!-- Node7&#45;&gt;Node6 -->
<g id="edge6" class="edge">
<title>Node7&#45;&gt;Node6</title>
<path fill="none" stroke="#9a32cd" stroke-dasharray="5,2" d="M172.5828,-329.6071C220.5932,-323.4952 280.0566,-315.9254 324.3375,-310.2882"/>
<polygon fill="#9a32cd" stroke="#9a32cd" points="171.9992,-326.1531 162.5213,-330.888 172.8833,-333.097 171.9992,-326.1531"/>
<text text-anchor="middle" x="233.5" y="-328.1838" font-family="Helvetica,sans-Serif" font-size="10.00" fill="#000000"> capabilities</text>
</g>
<!-- Node8 -->
<g id="node8" class="node">
<title>Node8</title>
<polygon fill="none" stroke="#bfbfbf" points="0,-292.6838 0,-311.6838 179,-311.6838 179,-292.6838 0,-292.6838"/>
<text text-anchor="middle" x="89.5" y="-299.6838" font-family="Helvetica,sans-Serif" font-size="10.00" fill="#000000">vector&lt; VkSurfaceFormatKHR &gt;</text>
</g>
<!-- Node8&#45;&gt;Node6 -->
<g id="edge7" class="edge">
<title>Node8&#45;&gt;Node6</title>
<path fill="none" stroke="#9a32cd" stroke-dasharray="5,2" d="M189.3241,-302.1838C233.799,-302.1838 284.8747,-302.1838 324.1016,-302.1838"/>
<polygon fill="#9a32cd" stroke="#9a32cd" points="189.0599,-298.6839 179.0598,-302.1838 189.0598,-305.6839 189.0599,-298.6839"/>
<text text-anchor="middle" x="233.5" y="-305.1838" font-family="Helvetica,sans-Serif" font-size="10.00" fill="#000000"> formats</text>
</g>
<!-- Node9 -->
<g id="node9" class="node">
<title>Node9</title>
<polygon fill="none" stroke="#bfbfbf" points="4.5,-254.6838 4.5,-273.6838 174.5,-273.6838 174.5,-254.6838 4.5,-254.6838"/>
<text text-anchor="middle" x="89.5" y="-261.6838" font-family="Helvetica,sans-Serif" font-size="10.00" fill="#000000">vector&lt; VkPresentModeKHR &gt;</text>
</g>
<!-- Node9&#45;&gt;Node6 -->
<g id="edge8" class="edge">
<title>Node9&#45;&gt;Node6</title>
<path fill="none" stroke="#9a32cd" stroke-dasharray="5,2" d="M174.4265,-274.9952C222.0428,-281.0569 280.4605,-288.4937 324.1567,-294.0564"/>
<polygon fill="#9a32cd" stroke="#9a32cd" points="174.8008,-271.5147 164.4389,-273.7238 173.9168,-278.4587 174.8008,-271.5147"/>
<text text-anchor="middle" x="233.5" y="-289.1838" font-family="Helvetica,sans-Serif" font-size="10.00" fill="#000000"> presentModes</text>
</g>
<!-- Node10 -->
<g id="node10" class="node">
<title>Node10</title>
<polygon fill="none" stroke="#bfbfbf" points="308.5,-232.1838 308.5,-262.1838 467.5,-262.1838 467.5,-232.1838 308.5,-232.1838"/>
<text text-anchor="start" x="316.5" y="-250.1838" font-family="Helvetica,sans-Serif" font-size="10.00" fill="#000000">unordered_map&lt; VkFormat,</text>
<text text-anchor="middle" x="388" y="-239.1838" font-family="Helvetica,sans-Serif" font-size="10.00" fill="#000000"> VkFormatProperties &gt;</text>
</g>
<!-- Node10&#45;&gt;Node5 -->
<g id="edge9" class="edge">
<title>Node10&#45;&gt;Node5</title>
<path fill="none" stroke="#9a32cd" stroke-dasharray="5,2" d="M477.7382,-234.4273C516.9352,-227.3278 562.9918,-216.8857 603,-202.1838 631.8484,-191.5828 662.5,-174.0044 682.7908,-161.368"/>
<polygon fill="#9a32cd" stroke="#9a32cd" points="476.9054,-231.0201 467.6664,-236.2059 478.1227,-237.9135 476.9054,-231.0201"/>
<text text-anchor="middle" x="554.5" y="-230.1838" font-family="Helvetica,sans-Serif" font-size="10.00" fill="#000000"> formatProperties</text>
</g>
<!-- Node11 -->
<g id="node11" class="node">
<title>Node11</title>
<polygon fill="none" stroke="#bfbfbf" points="315,-193.6838 315,-212.6838 461,-212.6838 461,-193.6838 315,-193.6838"/>
<text text-anchor="middle" x="388" y="-200.6838" font-family="Helvetica,sans-Serif" font-size="10.00" fill="#000000">VkPhysicalDeviceFeatures</text>
</g>
<!-- Node11&#45;&gt;Node5 -->
<g id="edge10" class="edge">
<title>Node11&#45;&gt;Node5</title>
<path fill="none" stroke="#9a32cd" stroke-dasharray="5,2" d="M471.4332,-193.2091C511.4044,-187.907 559.8563,-180.7154 603,-172.1838 618.65,-169.089 635.4836,-165.1172 650.9141,-161.2144"/>
<polygon fill="#9a32cd" stroke="#9a32cd" points="470.9225,-189.746 461.4622,-194.516 471.8322,-196.6866 470.9225,-189.746"/>
<text text-anchor="middle" x="554.5" y="-190.1838" font-family="Helvetica,sans-Serif" font-size="10.00" fill="#000000"> features</text>
</g>
<!-- Node12 -->
<g id="node12" class="node">
<title>Node12</title>
<polygon fill="none" stroke="#bfbfbf" points="288,-155.6838 288,-174.6838 488,-174.6838 488,-155.6838 288,-155.6838"/>
<text text-anchor="middle" x="388" y="-162.6838" font-family="Helvetica,sans-Serif" font-size="10.00" fill="#000000">vector&lt; VkQueueFamilyProperties &gt;</text>
</g>
<!-- Node12&#45;&gt;Node5 -->
<g id="edge11" class="edge">
<title>Node12&#45;&gt;Node5</title>
<path fill="none" stroke="#9a32cd" stroke-dasharray="5,2" d="M498.3415,-158.5911C546.4596,-155.7161 601.1572,-152.448 642.3325,-149.9878"/>
<polygon fill="#9a32cd" stroke="#9a32cd" points="497.9541,-155.1079 488.1807,-159.1982 498.3717,-162.0954 497.9541,-155.1079"/>
<text text-anchor="middle" x="554.5" y="-160.1838" font-family="Helvetica,sans-Serif" font-size="10.00" fill="#000000"> queueFamilies</text>
</g>
<!-- Node13 -->
<g id="node13" class="node">
<title>Node13</title>
<polygon fill="none" stroke="#bfbfbf" points="290.5,-117.6838 290.5,-136.6838 485.5,-136.6838 485.5,-117.6838 290.5,-117.6838"/>
<text text-anchor="middle" x="388" y="-124.6838" font-family="Helvetica,sans-Serif" font-size="10.00" fill="#000000">VkPhysicalDeviceMemoryProperties</text>
</g>
<!-- Node13&#45;&gt;Node5 -->
<g id="edge12" class="edge">
<title>Node13&#45;&gt;Node5</title>
<path fill="none" stroke="#9a32cd" stroke-dasharray="5,2" d="M495.751,-131.3357C530.0489,-132.8876 568.1331,-134.8506 603,-137.1838 615.7161,-138.0347 629.3015,-139.1059 642.2958,-140.2098"/>
<polygon fill="#9a32cd" stroke="#9a32cd" points="495.8574,-127.837 485.7115,-130.8881 495.5457,-134.8301 495.8574,-127.837"/>
<text text-anchor="middle" x="554.5" y="-140.1838" font-family="Helvetica,sans-Serif" font-size="10.00" fill="#000000"> memoryProperties</text>
</g>
<!-- Node14 -->
<g id="node14" class="node">
<title>Node14</title>
<polygon fill="none" stroke="#bfbfbf" points="336,-79.6838 336,-98.6838 440,-98.6838 440,-79.6838 336,-79.6838"/>
<text text-anchor="middle" x="388" y="-86.6838" font-family="Helvetica,sans-Serif" font-size="10.00" fill="#000000">VkPhysicalDevice</text>
</g>
<!-- Node14&#45;&gt;Node5 -->
<g id="edge13" class="edge">
<title>Node14&#45;&gt;Node5</title>
<path fill="none" stroke="#9a32cd" stroke-dasharray="5,2" d="M450.2805,-93.7412C493.51,-97.6971 552.2261,-104.6516 603,-116.1838 611.2233,-118.0516 612.9401,-119.7041 621,-122.1838 630.6729,-125.1598 641.008,-128.1965 651.0208,-131.0648"/>
<polygon fill="#9a32cd" stroke="#9a32cd" points="450.4643,-90.2439 440.1942,-92.8468 449.8459,-97.2165 450.4643,-90.2439"/>
<text text-anchor="middle" x="554.5" y="-119.1838" font-family="Helvetica,sans-Serif" font-size="10.00" fill="#000000"> handle</text>
</g>
<!-- Node15 -->
<g id="node15" class="node">
<title>Node15</title>
<polygon fill="none" stroke="#bfbfbf" points="310.5,-41.6838 310.5,-60.6838 465.5,-60.6838 465.5,-41.6838 310.5,-41.6838"/>
<text text-anchor="middle" x="388" y="-48.6838" font-family="Helvetica,sans-Serif" font-size="10.00" fill="#000000">VkPhysicalDeviceProperties</text>
</g>
<!-- Node15&#45;&gt;Node5 -->
<g id="edge14" class="edge">
<title>Node15&#45;&gt;Node5</title>
<path fill="none" stroke="#9a32cd" stroke-dasharray="5,2" d="M475.8296,-46.9826C517.9094,-49.2009 566.8779,-58.4334 603,-85.1838 617.6961,-96.0671 606.9733,-110.4505 621,-122.1838 627.2336,-127.3982 634.5294,-131.4822 642.1803,-134.6804"/>
<polygon fill="#9a32cd" stroke="#9a32cd" points="475.7048,-43.4749 465.5725,-46.5711 475.4241,-50.4693 475.7048,-43.4749"/>
<text text-anchor="middle" x="554.5" y="-88.1838" font-family="Helvetica,sans-Serif" font-size="10.00" fill="#000000"> properties</text>
</g>
<!-- Node16 -->
<g id="node16" class="node">
<title>Node16</title>
<polygon fill="none" stroke="#bfbfbf" points="296,-3.6838 296,-22.6838 480,-22.6838 480,-3.6838 296,-3.6838"/>
<text text-anchor="middle" x="388" y="-10.6838" font-family="Helvetica,sans-Serif" font-size="10.00" fill="#000000">vector&lt; VkExtensionProperties &gt;</text>
</g>
<!-- Node16&#45;&gt;Node5 -->
<g id="edge15" class="edge">
<title>Node16&#45;&gt;Node5</title>
<path fill="none" stroke="#9a32cd" stroke-dasharray="5,2" d="M445.8399,-2.3983C493.9201,3.0143 561.0321,1.7934 603,-36.1838 631.9552,-62.3857 594.3541,-93.6367 621,-122.1838 626.8593,-128.4612 634.2225,-133.1406 642.1513,-136.6209"/>
<polygon fill="#9a32cd" stroke="#9a32cd" points="445.3733,1.0707 435.8849,-3.6431 446.2419,-5.8752 445.3733,1.0707"/>
<text text-anchor="middle" x="554.5" y="-39.1838" font-family="Helvetica,sans-Serif" font-size="10.00" fill="#000000"> extensions</text>
</g>
<!-- Node17 -->
<g id="node17" class="node">
<title>Node17</title>
<polygon fill="none" stroke="#bfbfbf" points="621,-82.1838 621,-112.1838 791,-112.1838 791,-82.1838 621,-82.1838"/>
<text text-anchor="start" x="629" y="-100.1838" font-family="Helvetica,sans-Serif" font-size="10.00" fill="#000000">vector&lt; lug::Graphics</text>
<text text-anchor="middle" x="706" y="-89.1838" font-family="Helvetica,sans-Serif" font-size="10.00" fill="#000000">::Vulkan::API::QueueFamily &gt;</text>
</g>
<!-- Node17&#45;&gt;Node4 -->
<g id="edge16" class="edge">
<title>Node17&#45;&gt;Node4</title>
<path fill="none" stroke="#9a32cd" stroke-dasharray="5,2" d="M801.2876,-97.1838C849.0464,-97.1838 905.596,-97.1838 948.0823,-97.1838"/>
<polygon fill="#9a32cd" stroke="#9a32cd" points="801.2381,-93.6839 791.2381,-97.1838 801.238,-100.6839 801.2381,-93.6839"/>
<text text-anchor="middle" x="861" y="-100.1838" font-family="Helvetica,sans-Serif" font-size="10.00" fill="#000000"> _queueFamilies</text>
</g>
<!-- Node18 -->
<g id="node18" class="node">
<title>Node18</title>
<polygon fill="none" stroke="#bfbfbf" points="674.5,-43.6838 674.5,-62.6838 737.5,-62.6838 737.5,-43.6838 674.5,-43.6838"/>
<text text-anchor="middle" x="706" y="-50.6838" font-family="Helvetica,sans-Serif" font-size="10.00" fill="#000000">VkDevice</text>
</g>
<!-- Node18&#45;&gt;Node4 -->
<g id="edge17" class="edge">
<title>Node18&#45;&gt;Node4</title>
<path fill="none" stroke="#9a32cd" stroke-dasharray="5,2" d="M747.6625,-58.8813C789.4786,-64.6325 855.7311,-73.8339 913,-82.1838 924.4392,-83.8517 936.6157,-85.6652 948.3746,-87.4362"/>
<polygon fill="#9a32cd" stroke="#9a32cd" points="747.9614,-55.3896 737.5781,-57.496 747.0087,-62.3244 747.9614,-55.3896"/>
<text text-anchor="middle" x="861" y="-85.1838" font-family="Helvetica,sans-Serif" font-size="10.00" fill="#000000"> _device</text>
</g>
</g>
</svg>
