<?xml version="1.0" encoding="UTF-8" standalone="no"?>
<!DOCTYPE svg PUBLIC "-//W3C//DTD SVG 1.1//EN"
 "http://www.w3.org/Graphics/SVG/1.1/DTD/svg11.dtd">
<!-- Generated by graphviz version 2.40.1 (20161225.0304)
 -->
<!-- Title: ndk_helper::PinchDetector Pages: 1 -->
<svg width="431pt" height="162pt"
 viewBox="0.00 0.00 430.50 162.00" xmlns="http://www.w3.org/2000/svg" xmlns:xlink="http://www.w3.org/1999/xlink">
<g id="graph0" class="graph" transform="scale(1 1) rotate(0) translate(4 158)">
<title>ndk_helper::PinchDetector</title>
<!-- Node2 -->
<g id="node1" class="node">
<title>Node2</title>
<polygon fill="#bfbfbf" stroke="#000000" points="159.5,-.5 159.5,-19.5 309.5,-19.5 309.5,-.5 159.5,-.5"/>
<text text-anchor="middle" x="234.5" y="-7.5" font-family="Helvetica,sans-Serif" font-size="10.00" fill="#000000">ndk_helper::PinchDetector</text>
</g>
<!-- Node3 -->
<g id="node2" class="node">
<title>Node3</title>
<g id="a_node2"><a xlink:href="classndk__helper_1_1GestureDetector.html" target="_top" xlink:title="ndk_helper::GestureDetector">
<polygon fill="none" stroke="#000000" points="0,-67.5 0,-86.5 163,-86.5 163,-67.5 0,-67.5"/>
<text text-anchor="middle" x="81.5" y="-74.5" font-family="Helvetica,sans-Serif" font-size="10.00" fill="#000000">ndk_helper::GestureDetector</text>
</a>
</g>
</g>
<!-- Node3&#45;&gt;Node2 -->
<g id="edge1" class="edge">
<title>Node3&#45;&gt;Node2</title>
<path fill="none" stroke="#191970" d="M112.9167,-63.2424C142.6489,-50.2224 186.5066,-31.0167 212.6195,-19.5817"/>
<polygon fill="#191970" stroke="#191970" points="111.1774,-60.1831 103.4212,-67.4005 113.9854,-66.5952 111.1774,-60.1831"/>
</g>
<!-- Node4 -->
<g id="node3" class="node">
<title>Node4</title>
<polygon fill="none" stroke="#bfbfbf" points="62,-134.5 62,-153.5 101,-153.5 101,-134.5 62,-134.5"/>
<text text-anchor="middle" x="81.5" y="-141.5" font-family="Helvetica,sans-Serif" font-size="10.00" fill="#000000">float</text>
</g>
<!-- Node4&#45;&gt;Node3 -->
<g id="edge2" class="edge">
<title>Node4&#45;&gt;Node3</title>
<path fill="none" stroke="#9a32cd" stroke-dasharray="5,2" d="M81.5,-124.1079C81.5,-111.714 81.5,-96.3263 81.5,-86.5817"/>
<polygon fill="#9a32cd" stroke="#9a32cd" points="78.0001,-124.4005 81.5,-134.4005 85.0001,-124.4006 78.0001,-124.4005"/>
<text text-anchor="middle" x="110.5" y="-108" font-family="Helvetica,sans-Serif" font-size="10.00" fill="#000000"> dp_factor_</text>
</g>
<!-- Node5 -->
<g id="node4" class="node">
<title>Node5</title>
<polygon fill="none" stroke="#bfbfbf" points="181,-67.5 181,-86.5 288,-86.5 288,-67.5 181,-67.5"/>
<text text-anchor="middle" x="234.5" y="-74.5" font-family="Helvetica,sans-Serif" font-size="10.00" fill="#000000">vector&lt; int32_t &gt;</text>
</g>
<!-- Node5&#45;&gt;Node2 -->
<g id="edge3" class="edge">
<title>Node5&#45;&gt;Node2</title>
<path fill="none" stroke="#9a32cd" stroke-dasharray="5,2" d="M234.5,-57.1079C234.5,-44.714 234.5,-29.3263 234.5,-19.5817"/>
<polygon fill="#9a32cd" stroke="#9a32cd" points="231.0001,-57.4005 234.5,-67.4005 238.0001,-57.4006 231.0001,-57.4005"/>
<text text-anchor="middle" x="271.5" y="-41" font-family="Helvetica,sans-Serif" font-size="10.00" fill="#000000"> vec_pointers_</text>
</g>
<!-- Node6 -->
<g id="node5" class="node">
<title>Node6</title>
<polygon fill="none" stroke="#bfbfbf" points="306.5,-67.5 306.5,-86.5 422.5,-86.5 422.5,-67.5 306.5,-67.5"/>
<text text-anchor="middle" x="364.5" y="-74.5" font-family="Helvetica,sans-Serif" font-size="10.00" fill="#000000">const AInputEvent *</text>
</g>
<!-- Node6&#45;&gt;Node2 -->
<g id="edge4" class="edge">
<title>Node6&#45;&gt;Node2</title>
<path fill="none" stroke="#9a32cd" stroke-dasharray="5,2" d="M345.6568,-60.7062C336.1685,-53.0801 324.2142,-44.3096 312.5,-38 298.5662,-30.4948 282.2055,-24.2697 268.0762,-19.6103"/>
<polygon fill="#9a32cd" stroke="#9a32cd" points="343.6656,-63.6016 353.5997,-67.2846 348.1306,-58.2105 343.6656,-63.6016"/>
<text text-anchor="middle" x="347.5" y="-41" font-family="Helvetica,sans-Serif" font-size="10.00" fill="#000000"> event_</text>
</g>
</g>
</svg>
