<?xml version="1.0" encoding="UTF-8" standalone="no"?>
<!DOCTYPE svg PUBLIC "-//W3C//DTD SVG 1.1//EN"
 "http://www.w3.org/Graphics/SVG/1.1/DTD/svg11.dtd">
<!-- Generated by graphviz version 2.40.1 (20161225.0304)
 -->
<!-- Title: lug::Graphics::Render::Texture Pages: 1 -->
<svg width="452pt" height="306pt"
 viewBox="0.00 0.00 451.50 306.00" xmlns="http://www.w3.org/2000/svg" xmlns:xlink="http://www.w3.org/1999/xlink">
<g id="graph0" class="graph" transform="scale(1 1) rotate(0) translate(4 302)">
<title>lug::Graphics::Render::Texture</title>
<!-- Node3 -->
<g id="node1" class="node">
<title>Node3</title>
<polygon fill="#bfbfbf" stroke="#000000" points="173.5,-.5 173.5,-30.5 301.5,-30.5 301.5,-.5 173.5,-.5"/>
<text text-anchor="start" x="181.5" y="-18.5" font-family="Helvetica,sans-Serif" font-size="10.00" fill="#000000">lug::Graphics::Render</text>
<text text-anchor="middle" x="237.5" y="-7.5" font-family="Helvetica,sans-Serif" font-size="10.00" fill="#000000">::Texture</text>
</g>
<!-- Node4 -->
<g id="node2" class="node">
<title>Node4</title>
<g id="a_node2"><a xlink:href="classlug_1_1Graphics_1_1Resource.html" target="_top" xlink:title="Class for resource. ">
<polygon fill="none" stroke="#000000" points="55,-100.5 55,-119.5 194,-119.5 194,-100.5 55,-100.5"/>
<text text-anchor="middle" x="124.5" y="-107.5" font-family="Helvetica,sans-Serif" font-size="10.00" fill="#000000">lug::Graphics::Resource</text>
</a>
</g>
</g>
<!-- Node4&#45;&gt;Node3 -->
<g id="edge1" class="edge">
<title>Node4&#45;&gt;Node3</title>
<path fill="none" stroke="#191970" d="M143.8854,-93.7883C165.0741,-76.0686 198.7521,-47.9042 219.4131,-30.6257"/>
<polygon fill="#191970" stroke="#191970" points="141.5931,-91.1427 136.1674,-100.2428 146.0838,-96.5124 141.5931,-91.1427"/>
</g>
<!-- Node5 -->
<g id="node3" class="node">
<title>Node5</title>
<g id="a_node3"><a xlink:href="structlug_1_1Graphics_1_1Resource_1_1Handle.html" target="_top" xlink:title="Handle of the resource. It contains informations such as the type and the index in the ResourceManage...">
<polygon fill="none" stroke="#000000" points="55,-178.5 55,-208.5 194,-208.5 194,-178.5 55,-178.5"/>
<text text-anchor="start" x="63" y="-196.5" font-family="Helvetica,sans-Serif" font-size="10.00" fill="#000000">lug::Graphics::Resource</text>
<text text-anchor="middle" x="124.5" y="-185.5" font-family="Helvetica,sans-Serif" font-size="10.00" fill="#000000">::Handle</text>
</a>
</g>
</g>
<!-- Node5&#45;&gt;Node4 -->
<g id="edge2" class="edge">
<title>Node5&#45;&gt;Node4</title>
<path fill="none" stroke="#9a32cd" stroke-dasharray="5,2" d="M124.5,-168.1022C124.5,-151.6775 124.5,-131.2426 124.5,-119.5023"/>
<polygon fill="#9a32cd" stroke="#9a32cd" points="121.0001,-168.1848 124.5,-178.1848 128.0001,-168.1848 121.0001,-168.1848"/>
<text text-anchor="middle" x="146" y="-146.5" font-family="Helvetica,sans-Serif" font-size="10.00" fill="#000000"> _handle</text>
</g>
<!-- Node6 -->
<g id="node4" class="node">
<title>Node6</title>
<polygon fill="none" stroke="#bfbfbf" points="0,-278.5 0,-297.5 57,-297.5 57,-278.5 0,-278.5"/>
<text text-anchor="middle" x="28.5" y="-285.5" font-family="Helvetica,sans-Serif" font-size="10.00" fill="#000000">uint32_t</text>
</g>
<!-- Node6&#45;&gt;Node3 -->
<g id="edge7" class="edge">
<title>Node6&#45;&gt;Node3</title>
<path fill="none" stroke="#9a32cd" stroke-dasharray="5,2" d="M24.3445,-268.3206C17.7498,-231.5175 9.0783,-151.3599 45.5,-100 74.9934,-58.41 129.6503,-37.0374 173.1274,-26.2079"/>
<polygon fill="#9a32cd" stroke="#9a32cd" points="20.934,-269.1188 26.2722,-278.2705 27.8062,-267.7873 20.934,-269.1188"/>
<text text-anchor="middle" x="46" y="-152" font-family="Helvetica,sans-Serif" font-size="10.00" fill="#000000"> _width</text>
<text text-anchor="middle" x="46" y="-141" font-family="Helvetica,sans-Serif" font-size="10.00" fill="#000000">_height</text>
</g>
<!-- Node6&#45;&gt;Node5 -->
<g id="edge3" class="edge">
<title>Node6&#45;&gt;Node5</title>
<path fill="none" stroke="#9a32cd" stroke-dasharray="5,2" d="M45.2068,-271.0954C57.4107,-258.7956 74.3951,-241.7778 89.5,-227 95.6326,-221.0002 102.4346,-214.4633 108.3991,-208.7698"/>
<polygon fill="#9a32cd" stroke="#9a32cd" points="42.4964,-268.8583 37.9453,-278.4259 47.4695,-273.7846 42.4964,-268.8583"/>
<text text-anchor="middle" x="105" y="-252" font-family="Helvetica,sans-Serif" font-size="10.00" fill="#000000"> value</text>
<text text-anchor="middle" x="105" y="-241" font-family="Helvetica,sans-Serif" font-size="10.00" fill="#000000">type</text>
<text text-anchor="middle" x="105" y="-230" font-family="Helvetica,sans-Serif" font-size="10.00" fill="#000000">index</text>
</g>
<!-- Node7 -->
<g id="node5" class="node">
<title>Node7</title>
<polygon fill="none" stroke="#bfbfbf" points="77.5,-278.5 77.5,-297.5 171.5,-297.5 171.5,-278.5 77.5,-278.5"/>
<text text-anchor="middle" x="124.5" y="-285.5" font-family="Helvetica,sans-Serif" font-size="10.00" fill="#000000">anonymous:@5</text>
</g>
<!-- Node7&#45;&gt;Node5 -->
<g id="edge4" class="edge">
<title>Node7&#45;&gt;Node5</title>
<path fill="none" stroke="#9a32cd" stroke-dasharray="5,2" d="M124.5,-268.1282C124.5,-250.3779 124.5,-224.7574 124.5,-208.6257"/>
<polygon fill="#9a32cd" stroke="#9a32cd" points="121.0001,-268.2427 124.5,-278.2428 128.0001,-268.2428 121.0001,-268.2427"/>
<text text-anchor="middle" x="134.5" y="-241" font-family="Helvetica,sans-Serif" font-size="10.00" fill="#000000"> @5</text>
</g>
<!-- Node8 -->
<g id="node6" class="node">
<title>Node8</title>
<polygon fill="none" stroke="#bfbfbf" points="212,-184 212,-203 257,-203 257,-184 212,-184"/>
<text text-anchor="middle" x="234.5" y="-191" font-family="Helvetica,sans-Serif" font-size="10.00" fill="#000000">string</text>
</g>
<!-- Node8&#45;&gt;Node4 -->
<g id="edge5" class="edge">
<title>Node8&#45;&gt;Node4</title>
<path fill="none" stroke="#9a32cd" stroke-dasharray="5,2" d="M217.4313,-176.9082C205.1528,-165.3693 187.9281,-149.9714 171.5,-138 162.2887,-131.2876 151.3858,-124.7157 142.4012,-119.6275"/>
<polygon fill="#9a32cd" stroke="#9a32cd" points="215.0731,-179.4956 224.7277,-183.8589 219.9013,-174.4272 215.0731,-179.4956"/>
<text text-anchor="middle" x="216.5" y="-146.5" font-family="Helvetica,sans-Serif" font-size="10.00" fill="#000000"> _name</text>
</g>
<!-- Node9 -->
<g id="node7" class="node">
<title>Node9</title>
<polygon fill="none" stroke="#bfbfbf" points="212.5,-100.5 212.5,-119.5 264.5,-119.5 264.5,-100.5 212.5,-100.5"/>
<text text-anchor="middle" x="238.5" y="-107.5" font-family="Helvetica,sans-Serif" font-size="10.00" fill="#000000">Format</text>
</g>
<!-- Node9&#45;&gt;Node3 -->
<g id="edge6" class="edge">
<title>Node9&#45;&gt;Node3</title>
<path fill="none" stroke="#9a32cd" stroke-dasharray="5,2" d="M238.2897,-90.1282C238.1019,-72.3779 237.8308,-46.7574 237.6601,-30.6257"/>
<polygon fill="#9a32cd" stroke="#9a32cd" points="234.791,-90.2804 238.3967,-100.2428 241.7906,-90.2063 234.791,-90.2804"/>
<text text-anchor="middle" x="259.5" y="-63" font-family="Helvetica,sans-Serif" font-size="10.00" fill="#000000"> _format</text>
</g>
<!-- Node10 -->
<g id="node8" class="node">
<title>Node10</title>
<polygon fill="none" stroke="#bfbfbf" points="283.5,-100.5 283.5,-119.5 325.5,-119.5 325.5,-100.5 283.5,-100.5"/>
<text text-anchor="middle" x="304.5" y="-107.5" font-family="Helvetica,sans-Serif" font-size="10.00" fill="#000000">Filter</text>
</g>
<!-- Node10&#45;&gt;Node3 -->
<g id="edge8" class="edge">
<title>Node10&#45;&gt;Node3</title>
<path fill="none" stroke="#9a32cd" stroke-dasharray="5,2" d="M300.4413,-90.0598C297.1455,-77.3984 291.5297,-61.166 282.5,-49 277.2757,-41.9612 270.163,-35.7311 263.1352,-30.6111"/>
<polygon fill="#9a32cd" stroke="#9a32cd" points="297.0958,-91.1266 302.7679,-100.0752 303.9143,-89.5426 297.0958,-91.1266"/>
<text text-anchor="middle" x="333" y="-74" font-family="Helvetica,sans-Serif" font-size="10.00" fill="#000000"> _magFilter</text>
<text text-anchor="middle" x="333" y="-63" font-family="Helvetica,sans-Serif" font-size="10.00" fill="#000000">_mipMapFilter</text>
<text text-anchor="middle" x="333" y="-52" font-family="Helvetica,sans-Serif" font-size="10.00" fill="#000000">_minFilter</text>
</g>
<!-- Node11 -->
<g id="node9" class="node">
<title>Node11</title>
<polygon fill="none" stroke="#bfbfbf" points="353.5,-100.5 353.5,-119.5 443.5,-119.5 443.5,-100.5 353.5,-100.5"/>
<text text-anchor="middle" x="398.5" y="-107.5" font-family="Helvetica,sans-Serif" font-size="10.00" fill="#000000">WrappingMode</text>
</g>
<!-- Node11&#45;&gt;Node3 -->
<g id="edge9" class="edge">
<title>Node11&#45;&gt;Node3</title>
<path fill="none" stroke="#9a32cd" stroke-dasharray="5,2" d="M394.9138,-90.3451C391.4375,-76.8267 384.8087,-59.485 372.5,-49 361.4243,-39.5653 330.8646,-31.5902 301.6171,-25.791"/>
<polygon fill="#9a32cd" stroke="#9a32cd" points="391.5069,-91.1487 397.0742,-100.1629 398.3433,-89.6443 391.5069,-91.1487"/>
<text text-anchor="middle" x="412.5" y="-68.5" font-family="Helvetica,sans-Serif" font-size="10.00" fill="#000000"> _wrapS</text>
<text text-anchor="middle" x="412.5" y="-57.5" font-family="Helvetica,sans-Serif" font-size="10.00" fill="#000000">_wrapT</text>
</g>
</g>
</svg>
