<?xml version="1.0" encoding="UTF-8" standalone="no"?>
<!DOCTYPE svg PUBLIC "-//W3C//DTD SVG 1.1//EN"
 "http://www.w3.org/Graphics/SVG/1.1/DTD/svg11.dtd">
<!-- Generated by graphviz version 2.40.1 (20161225.0304)
 -->
<!-- Title: lug::Graphics::Render::Model Pages: 1 -->
<svg width="294pt" height="128pt"
 viewBox="0.00 0.00 294.00 128.00" xmlns="http://www.w3.org/2000/svg" xmlns:xlink="http://www.w3.org/1999/xlink">
<g id="graph0" class="graph" transform="scale(1 1) rotate(0) translate(4 124)">
<title>lug::Graphics::Render::Model</title>
<!-- Node2 -->
<g id="node1" class="node">
<title>Node2</title>
<polygon fill="#bfbfbf" stroke="#000000" points="134,-.5 134,-30.5 262,-30.5 262,-.5 134,-.5"/>
<text text-anchor="start" x="142" y="-18.5" font-family="Helvetica,sans-Serif" font-size="10.00" fill="#000000">lug::Graphics::Render</text>
<text text-anchor="middle" x="198" y="-7.5" font-family="Helvetica,sans-Serif" font-size="10.00" fill="#000000">::Model</text>
</g>
<!-- Node3 -->
<g id="node2" class="node">
<title>Node3</title>
<polygon fill="none" stroke="#bfbfbf" points="0,-78.5 0,-119.5 158,-119.5 158,-78.5 0,-78.5"/>
<text text-anchor="start" x="8" y="-107.5" font-family="Helvetica,sans-Serif" font-size="10.00" fill="#000000">vector&lt; std::unique</text>
<text text-anchor="start" x="8" y="-96.5" font-family="Helvetica,sans-Serif" font-size="10.00" fill="#000000">_ptr&lt; lug::Graphics</text>
<text text-anchor="middle" x="79" y="-85.5" font-family="Helvetica,sans-Serif" font-size="10.00" fill="#000000">::Render::Model::Mesh &gt; &gt;</text>
</g>
<!-- Node3&#45;&gt;Node2 -->
<g id="edge1" class="edge">
<title>Node3&#45;&gt;Node2</title>
<path fill="none" stroke="#9a32cd" stroke-dasharray="5,2" d="M116.6029,-72.6148C136.3097,-58.7869 159.7408,-42.3457 176.3918,-30.6621"/>
<polygon fill="#9a32cd" stroke="#9a32cd" points="114.5912,-69.7506 108.4157,-78.3595 118.612,-75.4807 114.5912,-69.7506"/>
<text text-anchor="middle" x="170.5" y="-52" font-family="Helvetica,sans-Serif" font-size="10.00" fill="#000000"> _meshs</text>
</g>
<!-- Node4 -->
<g id="node3" class="node">
<title>Node4</title>
<polygon fill="none" stroke="#bfbfbf" points="175.5,-89.5 175.5,-108.5 220.5,-108.5 220.5,-89.5 175.5,-89.5"/>
<text text-anchor="middle" x="198" y="-96.5" font-family="Helvetica,sans-Serif" font-size="10.00" fill="#000000">string</text>
</g>
<!-- Node4&#45;&gt;Node2 -->
<g id="edge2" class="edge">
<title>Node4&#45;&gt;Node2</title>
<path fill="none" stroke="#9a32cd" stroke-dasharray="5,2" d="M198,-79.2427C198,-64.345 198,-44.2186 198,-30.597"/>
<polygon fill="#9a32cd" stroke="#9a32cd" points="194.5001,-79.4215 198,-89.4215 201.5001,-79.4215 194.5001,-79.4215"/>
<text text-anchor="middle" x="217" y="-52" font-family="Helvetica,sans-Serif" font-size="10.00" fill="#000000"> _name</text>
</g>
<!-- Node5 -->
<g id="node4" class="node">
<title>Node5</title>
<polygon fill="none" stroke="#bfbfbf" points="240,-89.5 240,-108.5 278,-108.5 278,-89.5 240,-89.5"/>
<text text-anchor="middle" x="259" y="-96.5" font-family="Helvetica,sans-Serif" font-size="10.00" fill="#000000">bool</text>
</g>
<!-- Node5&#45;&gt;Node2 -->
<g id="edge3" class="edge">
<title>Node5&#45;&gt;Node2</title>
<path fill="none" stroke="#9a32cd" stroke-dasharray="5,2" d="M252.8814,-79.8614C249.2005,-70.0686 243.884,-58.2883 237,-49 232.0041,-42.2593 225.4189,-35.9521 219.085,-30.6689"/>
<polygon fill="#9a32cd" stroke="#9a32cd" points="249.6408,-81.1991 256.2303,-89.4954 256.2528,-78.9006 249.6408,-81.1991"/>
<text text-anchor="middle" x="264.5" y="-52" font-family="Helvetica,sans-Serif" font-size="10.00" fill="#000000"> _loaded</text>
</g>
</g>
</svg>
