<?xml version="1.0" encoding="UTF-8" standalone="no"?>
<!DOCTYPE svg PUBLIC "-//W3C//DTD SVG 1.1//EN"
 "http://www.w3.org/Graphics/SVG/1.1/DTD/svg11.dtd">
<!-- Generated by graphviz version 2.40.1 (20161225.0304)
 -->
<!-- Title: lug::Graphics::Vulkan::API::Fence Pages: 1 -->
<!--zoomable 359 -->
<svg id="main" version="1.1" xmlns="http://www.w3.org/2000/svg" xmlns:xlink="http://www.w3.org/1999/xlink" xml:space="preserve" onload="init(evt)">
<style type="text/css"><![CDATA[
.edge:hover path { stroke: red; }
.edge:hover polygon { stroke: red; fill: red; }
]]></style>
<script type="text/javascript"><![CDATA[
var edges = document.getElementsByTagName('g');
if (edges && edges.length) {
  for (var i=0;i<edges.length;i++) {
    if (edges[i].id.substr(0,4)=='edge') {
      edges[i].setAttribute('class','edge');
    }
  }
}
]]></script>
        <defs>
                <circle id="rim" cx="0" cy="0" r="7"/>
                <circle id="rim2" cx="0" cy="0" r="3.5"/>
                <g id="zoomPlus">
                        <use xlink:href="#rim" fill="#404040">
                                <set attributeName="fill" to="#808080" begin="zoomplus.mouseover" end="zoomplus.mouseout"/>
                        </use>
                        <path d="M-4,0h8M0,-4v8" fill="none" stroke="white" stroke-width="1.5" pointer-events="none"/>
                </g>
                <g id="zoomMin">
                        <use xlink:href="#rim" fill="#404040">
                                <set attributeName="fill" to="#808080" begin="zoomminus.mouseover" end="zoomminus.mouseout"/>
                        </use>
                        <path d="M-4,0h8" fill="none" stroke="white" stroke-width="1.5" pointer-events="none"/>
                </g>
                <g id="dirArrow">
                        <path fill="none" stroke="white" stroke-width="1.5" d="M0,-3.0v7 M-2.5,-0.5L0,-3.0L2.5,-0.5"/>
                </g>
               <g id="resetDef">
                       <use xlink:href="#rim2" fill="#404040">
                               <set attributeName="fill" to="#808080" begin="reset.mouseover" end="reset.mouseout"/>
                       </use>
               </g>
        </defs>

<script type="text/javascript">
var viewWidth = 1229;
var viewHeight = 359;
var sectionId = 'dynsection-0';
</script>
<script xlink:href="svgpan.js"/>
<svg id="graph" class="graph">
<g id="viewport">
<title>lug::Graphics::Vulkan::API::Fence</title>
<!-- Node1 -->
<g id="node1" class="node">
<title>Node1</title>
<polygon fill="#bfbfbf" stroke="#000000" points="1094,-79.808 1094,-109.808 1221,-109.808 1221,-79.808 1094,-79.808"/>
<text text-anchor="start" x="1102" y="-97.808" font-family="Helvetica,sans-Serif" font-size="10.00" fill="#000000">lug::Graphics::Vulkan</text>
<text text-anchor="middle" x="1157.5" y="-86.808" font-family="Helvetica,sans-Serif" font-size="10.00" fill="#000000">::API::Fence</text>
</g>
<!-- Node2 -->
<g id="node2" class="node">
<title>Node2</title>
<g id="a_node2"><a xlink:href="classlug_1_1Graphics_1_1Vulkan_1_1API_1_1Device.html" target="_top" xlink:title="lug::Graphics::Vulkan\l::API::Device">
<polygon fill="none" stroke="#000000" points="888,-106.808 888,-136.808 1015,-136.808 1015,-106.808 888,-106.808"/>
<text text-anchor="start" x="896" y="-124.808" font-family="Helvetica,sans-Serif" font-size="10.00" fill="#000000">lug::Graphics::Vulkan</text>
<text text-anchor="middle" x="951.5" y="-113.808" font-family="Helvetica,sans-Serif" font-size="10.00" fill="#000000">::API::Device</text>
</a>
</g>
</g>
<!-- Node2&#45;&gt;Node1 -->
<g id="edge1" class="edge">
<title>Node2&#45;&gt;Node1</title>
<path fill="none" stroke="#9a32cd" stroke-dasharray="5,2" d="M1025.377,-112.1251C1047.7186,-109.1968 1072.052,-106.0075 1093.6778,-103.173"/>
<polygon fill="#9a32cd" stroke="#9a32cd" points="1024.7292,-108.68 1015.2689,-113.4499 1025.639,-115.6206 1024.7292,-108.68"/>
<text text-anchor="middle" x="1054.5" y="-113.808" font-family="Helvetica,sans-Serif" font-size="10.00" fill="#000000"> _device</text>
</g>
<!-- Node3 -->
<g id="node3" class="node">
<title>Node3</title>
<g id="a_node3"><a xlink:href="structlug_1_1Graphics_1_1Vulkan_1_1PhysicalDeviceInfo.html" target="_top" xlink:title="lug::Graphics::Vulkan\l::PhysicalDeviceInfo">
<polygon fill="none" stroke="#000000" points="621,-131.808 621,-161.808 748,-161.808 748,-131.808 621,-131.808"/>
<text text-anchor="start" x="629" y="-149.808" font-family="Helvetica,sans-Serif" font-size="10.00" fill="#000000">lug::Graphics::Vulkan</text>
<text text-anchor="middle" x="684.5" y="-138.808" font-family="Helvetica,sans-Serif" font-size="10.00" fill="#000000">::PhysicalDeviceInfo</text>
</a>
</g>
</g>
<!-- Node3&#45;&gt;Node2 -->
<g id="edge2" class="edge">
<title>Node3&#45;&gt;Node2</title>
<path fill="none" stroke="#9a32cd" stroke-dasharray="5,2" d="M758.2452,-139.903C798.9344,-136.0932 848.9548,-131.4096 887.9112,-127.762"/>
<polygon fill="#9a32cd" stroke="#9a32cd" points="757.7441,-136.4345 748.1139,-140.8516 758.3967,-143.404 757.7441,-136.4345"/>
<text text-anchor="middle" x="818" y="-140.808" font-family="Helvetica,sans-Serif" font-size="10.00" fill="#000000"> _physicalDeviceInfo</text>
</g>
<!-- Node4 -->
<g id="node4" class="node">
<title>Node4</title>
<g id="a_node4"><a xlink:href="structlug_1_1Graphics_1_1Vulkan_1_1PhysicalDeviceInfo_1_1Swapchain.html" target="_top" xlink:title="lug::Graphics::Vulkan\l::PhysicalDeviceInfo\l::Swapchain">
<polygon fill="none" stroke="#000000" points="324.5,-282.308 324.5,-323.308 451.5,-323.308 451.5,-282.308 324.5,-282.308"/>
<text text-anchor="start" x="332.5" y="-311.308" font-family="Helvetica,sans-Serif" font-size="10.00" fill="#000000">lug::Graphics::Vulkan</text>
<text text-anchor="start" x="332.5" y="-300.308" font-family="Helvetica,sans-Serif" font-size="10.00" fill="#000000">::PhysicalDeviceInfo</text>
<text text-anchor="middle" x="388" y="-289.308" font-family="Helvetica,sans-Serif" font-size="10.00" fill="#000000">::Swapchain</text>
</a>
</g>
</g>
<!-- Node4&#45;&gt;Node3 -->
<g id="edge3" class="edge">
<title>Node4&#45;&gt;Node3</title>
<path fill="none" stroke="#9a32cd" stroke-dasharray="5,2" d="M461.9687,-295.2142C505.7326,-287.9967 560.6959,-273.9767 603,-246.808 637.1095,-224.902 663.7273,-183.9832 676.3961,-161.8874"/>
<polygon fill="#9a32cd" stroke="#9a32cd" points="461.296,-291.7767 451.9569,-296.78 462.3776,-298.6927 461.296,-291.7767"/>
<text text-anchor="middle" x="554.5" y="-287.808" font-family="Helvetica,sans-Serif" font-size="10.00" fill="#000000"> swapchain</text>
</g>
<!-- Node5 -->
<g id="node5" class="node">
<title>Node5</title>
<polygon fill="none" stroke="#bfbfbf" points="16.5,-331.308 16.5,-350.308 162.5,-350.308 162.5,-331.308 16.5,-331.308"/>
<text text-anchor="middle" x="89.5" y="-338.308" font-family="Helvetica,sans-Serif" font-size="10.00" fill="#000000">VkSurfaceCapabilitiesKHR</text>
</g>
<!-- Node5&#45;&gt;Node4 -->
<g id="edge4" class="edge">
<title>Node5&#45;&gt;Node4</title>
<path fill="none" stroke="#9a32cd" stroke-dasharray="5,2" d="M172.5828,-330.2313C220.5932,-324.1194 280.0566,-316.5495 324.3375,-310.9124"/>
<polygon fill="#9a32cd" stroke="#9a32cd" points="171.9992,-326.7772 162.5213,-331.5121 172.8833,-333.7212 171.9992,-326.7772"/>
<text text-anchor="middle" x="233.5" y="-328.808" font-family="Helvetica,sans-Serif" font-size="10.00" fill="#000000"> capabilities</text>
</g>
<!-- Node6 -->
<g id="node6" class="node">
<title>Node6</title>
<polygon fill="none" stroke="#bfbfbf" points="0,-293.308 0,-312.308 179,-312.308 179,-293.308 0,-293.308"/>
<text text-anchor="middle" x="89.5" y="-300.308" font-family="Helvetica,sans-Serif" font-size="10.00" fill="#000000">vector&lt; VkSurfaceFormatKHR &gt;</text>
</g>
<!-- Node6&#45;&gt;Node4 -->
<g id="edge5" class="edge">
<title>Node6&#45;&gt;Node4</title>
<path fill="none" stroke="#9a32cd" stroke-dasharray="5,2" d="M189.3241,-302.808C233.799,-302.808 284.8747,-302.808 324.1016,-302.808"/>
<polygon fill="#9a32cd" stroke="#9a32cd" points="189.0599,-299.3081 179.0598,-302.808 189.0598,-306.3081 189.0599,-299.3081"/>
<text text-anchor="middle" x="233.5" y="-305.808" font-family="Helvetica,sans-Serif" font-size="10.00" fill="#000000"> formats</text>
</g>
<!-- Node7 -->
<g id="node7" class="node">
<title>Node7</title>
<polygon fill="none" stroke="#bfbfbf" points="4.5,-255.308 4.5,-274.308 174.5,-274.308 174.5,-255.308 4.5,-255.308"/>
<text text-anchor="middle" x="89.5" y="-262.308" font-family="Helvetica,sans-Serif" font-size="10.00" fill="#000000">vector&lt; VkPresentModeKHR &gt;</text>
</g>
<!-- Node7&#45;&gt;Node4 -->
<g id="edge6" class="edge">
<title>Node7&#45;&gt;Node4</title>
<path fill="none" stroke="#9a32cd" stroke-dasharray="5,2" d="M174.4265,-275.6194C222.0428,-281.6811 280.4605,-289.1179 324.1567,-294.6805"/>
<polygon fill="#9a32cd" stroke="#9a32cd" points="174.8008,-272.1389 164.4389,-274.3479 173.9168,-279.0828 174.8008,-272.1389"/>
<text text-anchor="middle" x="233.5" y="-289.808" font-family="Helvetica,sans-Serif" font-size="10.00" fill="#000000"> presentModes</text>
</g>
<!-- Node8 -->
<g id="node8" class="node">
<title>Node8</title>
<polygon fill="none" stroke="#bfbfbf" points="308.5,-232.808 308.5,-262.808 467.5,-262.808 467.5,-232.808 308.5,-232.808"/>
<text text-anchor="start" x="316.5" y="-250.808" font-family="Helvetica,sans-Serif" font-size="10.00" fill="#000000">unordered_map&lt; VkFormat,</text>
<text text-anchor="middle" x="388" y="-239.808" font-family="Helvetica,sans-Serif" font-size="10.00" fill="#000000"> VkFormatProperties &gt;</text>
</g>
<!-- Node8&#45;&gt;Node3 -->
<g id="edge7" class="edge">
<title>Node8&#45;&gt;Node3</title>
<path fill="none" stroke="#9a32cd" stroke-dasharray="5,2" d="M477.4236,-238.5085C517.0561,-232.2379 563.5404,-221.8623 603,-204.808 627.5497,-194.1977 652.0561,-175.364 667.6872,-162.0403"/>
<polygon fill="#9a32cd" stroke="#9a32cd" points="476.8643,-235.0532 467.5036,-240.0158 477.9159,-241.9738 476.8643,-235.0532"/>
<text text-anchor="middle" x="554.5" y="-234.808" font-family="Helvetica,sans-Serif" font-size="10.00" fill="#000000"> formatProperties</text>
</g>
<!-- Node9 -->
<g id="node9" class="node">
<title>Node9</title>
<polygon fill="none" stroke="#bfbfbf" points="315,-194.308 315,-213.308 461,-213.308 461,-194.308 315,-194.308"/>
<text text-anchor="middle" x="388" y="-201.308" font-family="Helvetica,sans-Serif" font-size="10.00" fill="#000000">VkPhysicalDeviceFeatures</text>
</g>
<!-- Node9&#45;&gt;Node3 -->
<g id="edge8" class="edge">
<title>Node9&#45;&gt;Node3</title>
<path fill="none" stroke="#9a32cd" stroke-dasharray="5,2" d="M471.2106,-195.0699C511.3296,-190.0302 559.9699,-182.7021 603,-172.808 615.7373,-169.8793 629.348,-165.8918 641.7267,-161.9195"/>
<polygon fill="#9a32cd" stroke="#9a32cd" points="470.7004,-191.6062 461.2031,-196.302 471.5558,-198.5537 470.7004,-191.6062"/>
<text text-anchor="middle" x="554.5" y="-192.808" font-family="Helvetica,sans-Serif" font-size="10.00" fill="#000000"> features</text>
</g>
<!-- Node10 -->
<g id="node10" class="node">
<title>Node10</title>
<polygon fill="none" stroke="#bfbfbf" points="288,-156.308 288,-175.308 488,-175.308 488,-156.308 288,-156.308"/>
<text text-anchor="middle" x="388" y="-163.308" font-family="Helvetica,sans-Serif" font-size="10.00" fill="#000000">vector&lt; VkQueueFamilyProperties &gt;</text>
</g>
<!-- Node10&#45;&gt;Node3 -->
<g id="edge9" class="edge">
<title>Node10&#45;&gt;Node3</title>
<path fill="none" stroke="#9a32cd" stroke-dasharray="5,2" d="M498.5025,-158.7269C539.7965,-156.0807 585.2765,-153.1663 620.9274,-150.8818"/>
<polygon fill="#9a32cd" stroke="#9a32cd" points="498.137,-155.243 488.3814,-159.3755 498.5848,-162.2287 498.137,-155.243"/>
<text text-anchor="middle" x="554.5" y="-160.808" font-family="Helvetica,sans-Serif" font-size="10.00" fill="#000000"> queueFamilies</text>
</g>
<!-- Node11 -->
<g id="node11" class="node">
<title>Node11</title>
<polygon fill="none" stroke="#bfbfbf" points="290.5,-118.308 290.5,-137.308 485.5,-137.308 485.5,-118.308 290.5,-118.308"/>
<text text-anchor="middle" x="388" y="-125.308" font-family="Helvetica,sans-Serif" font-size="10.00" fill="#000000">VkPhysicalDeviceMemoryProperties</text>
</g>
<!-- Node11&#45;&gt;Node3 -->
<g id="edge10" class="edge">
<title>Node11&#45;&gt;Node3</title>
<path fill="none" stroke="#9a32cd" stroke-dasharray="5,2" d="M495.8071,-130.6256C530.1079,-131.976 568.1796,-133.9476 603,-136.808 608.8251,-137.2865 614.8748,-137.8682 620.9278,-138.5079"/>
<polygon fill="#9a32cd" stroke="#9a32cd" points="495.8922,-127.1264 485.7664,-130.2436 495.626,-134.1213 495.8922,-127.1264"/>
<text text-anchor="middle" x="554.5" y="-139.808" font-family="Helvetica,sans-Serif" font-size="10.00" fill="#000000"> memoryProperties</text>
</g>
<!-- Node12 -->
<g id="node12" class="node">
<title>Node12</title>
<polygon fill="none" stroke="#bfbfbf" points="336,-80.308 336,-99.308 440,-99.308 440,-80.308 336,-80.308"/>
<text text-anchor="middle" x="388" y="-87.308" font-family="Helvetica,sans-Serif" font-size="10.00" fill="#000000">VkPhysicalDevice</text>
</g>
<!-- Node12&#45;&gt;Node3 -->
<g id="edge11" class="edge">
<title>Node12&#45;&gt;Node3</title>
<path fill="none" stroke="#9a32cd" stroke-dasharray="5,2" d="M450.4396,-93.3352C493.741,-96.7557 552.4775,-103.3421 603,-115.808 607.593,-116.9413 627.1317,-124.3588 645.9257,-131.6534"/>
<polygon fill="#9a32cd" stroke="#9a32cd" points="450.5703,-89.8352 440.3352,-92.5721 450.0432,-96.8153 450.5703,-89.8352"/>
<text text-anchor="middle" x="554.5" y="-118.808" font-family="Helvetica,sans-Serif" font-size="10.00" fill="#000000"> handle</text>
</g>
<!-- Node13 -->
<g id="node13" class="node">
<title>Node13</title>
<polygon fill="none" stroke="#bfbfbf" points="310.5,-42.308 310.5,-61.308 465.5,-61.308 465.5,-42.308 310.5,-42.308"/>
<text text-anchor="middle" x="388" y="-49.308" font-family="Helvetica,sans-Serif" font-size="10.00" fill="#000000">VkPhysicalDeviceProperties</text>
</g>
<!-- Node13&#45;&gt;Node3 -->
<g id="edge12" class="edge">
<title>Node13&#45;&gt;Node3</title>
<path fill="none" stroke="#9a32cd" stroke-dasharray="5,2" d="M475.7995,-47.1406C517.8718,-49.149 566.8428,-58.1585 603,-84.808 617.7207,-95.6579 607.5765,-109.3891 621,-121.808 625.1745,-125.6701 630.016,-128.9628 635.1276,-131.7638"/>
<polygon fill="#9a32cd" stroke="#9a32cd" points="475.661,-43.6337 465.5444,-46.7807 475.4154,-50.6294 475.661,-43.6337"/>
<text text-anchor="middle" x="554.5" y="-87.808" font-family="Helvetica,sans-Serif" font-size="10.00" fill="#000000"> properties</text>
</g>
<!-- Node14 -->
<g id="node14" class="node">
<title>Node14</title>
<polygon fill="none" stroke="#bfbfbf" points="296,-4.308 296,-23.308 480,-23.308 480,-4.308 296,-4.308"/>
<text text-anchor="middle" x="388" y="-11.308" font-family="Helvetica,sans-Serif" font-size="10.00" fill="#000000">vector&lt; VkExtensionProperties &gt;</text>
</g>
<!-- Node14&#45;&gt;Node3 -->
<g id="edge13" class="edge">
<title>Node14&#45;&gt;Node3</title>
<path fill="none" stroke="#9a32cd" stroke-dasharray="5,2" d="M444.0293,-2.926C492.1992,2.9653 560.4445,2.5232 603,-35.808 632.0154,-61.9432 595.8123,-91.9664 621,-121.808 624.286,-125.7012 628.2597,-128.9918 632.5974,-131.7725"/>
<polygon fill="#9a32cd" stroke="#9a32cd" points="443.5145,.5364 434.0715,-4.2679 444.4494,-6.4009 443.5145,.5364"/>
<text text-anchor="middle" x="554.5" y="-38.808" font-family="Helvetica,sans-Serif" font-size="10.00" fill="#000000"> extensions</text>
</g>
<!-- Node15 -->
<g id="node15" class="node">
<title>Node15</title>
<polygon fill="none" stroke="#bfbfbf" points="653,-93.308 653,-112.308 716,-112.308 716,-93.308 653,-93.308"/>
<text text-anchor="middle" x="684.5" y="-100.308" font-family="Helvetica,sans-Serif" font-size="10.00" fill="#000000">VkDevice</text>
</g>
<!-- Node15&#45;&gt;Node2 -->
<g id="edge14" class="edge">
<title>Node15&#45;&gt;Node2</title>
<path fill="none" stroke="#9a32cd" stroke-dasharray="5,2" d="M726.1749,-102.6606C763.8333,-102.8827 820.7439,-104.1018 870,-108.808 875.8479,-109.3667 881.9132,-110.0799 887.9761,-110.8838"/>
<polygon fill="#9a32cd" stroke="#9a32cd" points="726.0994,-99.1604 716.0861,-102.6224 726.0728,-106.1604 726.0994,-99.1604"/>
<text text-anchor="middle" x="818" y="-111.808" font-family="Helvetica,sans-Serif" font-size="10.00" fill="#000000"> _device</text>
</g>
<!-- Node16 -->
<g id="node16" class="node">
<title>Node16</title>
<polygon fill="none" stroke="#bfbfbf" points="922.5,-68.308 922.5,-87.308 980.5,-87.308 980.5,-68.308 922.5,-68.308"/>
<text text-anchor="middle" x="951.5" y="-75.308" font-family="Helvetica,sans-Serif" font-size="10.00" fill="#000000">VkFence</text>
</g>
<!-- Node16&#45;&gt;Node1 -->
<g id="edge15" class="edge">
<title>Node16&#45;&gt;Node1</title>
<path fill="none" stroke="#9a32cd" stroke-dasharray="5,2" d="M990.7415,-78.8348C1015.2814,-79.6909 1047.5273,-81.2053 1076,-83.808 1081.8295,-84.3409 1087.8822,-84.9852 1093.9371,-85.6916"/>
<polygon fill="#9a32cd" stroke="#9a32cd" points="990.8389,-75.3362 980.7297,-78.5069 990.6098,-82.3324 990.8389,-75.3362"/>
<text text-anchor="middle" x="1054.5" y="-86.808" font-family="Helvetica,sans-Serif" font-size="10.00" fill="#000000"> _fence</text>
</g>
</g>
</svg>
        <g id="navigator" transform="translate(0 0)" fill="#404254">
                <rect fill="#f2f5e9" fill-opacity="0.5" stroke="#606060" stroke-width=".5" x="0" y="0" width="60" height="60"/>
                <use id="zoomplus" xlink:href="#zoomPlus" x="17" y="9" onmousedown="handleZoom(evt,'in')"/>
                <use id="zoomminus" xlink:href="#zoomMin" x="42" y="9" onmousedown="handleZoom(evt,'out')"/>
                <use id="reset" xlink:href="#resetDef" x="30" y="36" onmousedown="handleReset()"/>
                <g id="arrowUp" xlink:href="#dirArrow" transform="translate(30 24)" onmousedown="handlePan(0,-1)">
                  <use xlink:href="#rim" fill="#404040">
                        <set attributeName="fill" to="#808080" begin="arrowUp.mouseover" end="arrowUp.mouseout"/>
                  </use>
                  <path fill="none" stroke="white" stroke-width="1.5" d="M0,-3.0v7 M-2.5,-0.5L0,-3.0L2.5,-0.5"/>
                </g>
                <g id="arrowRight" xlink:href="#dirArrow" transform="rotate(90) translate(36 -43)" onmousedown="handlePan(1,0)">
                  <use xlink:href="#rim" fill="#404040">
                        <set attributeName="fill" to="#808080" begin="arrowRight.mouseover" end="arrowRight.mouseout"/>
                  </use>
                  <path fill="none" stroke="white" stroke-width="1.5" d="M0,-3.0v7 M-2.5,-0.5L0,-3.0L2.5,-0.5"/>
                </g>
                <g id="arrowDown" xlink:href="#dirArrow" transform="rotate(180) translate(-30 -48)" onmousedown="handlePan(0,1)">
                  <use xlink:href="#rim" fill="#404040">
                        <set attributeName="fill" to="#808080" begin="arrowDown.mouseover" end="arrowDown.mouseout"/>
                  </use>
                  <path fill="none" stroke="white" stroke-width="1.5" d="M0,-3.0v7 M-2.5,-0.5L0,-3.0L2.5,-0.5"/>
                </g>
                <g id="arrowLeft" xlink:href="#dirArrow" transform="rotate(270) translate(-36 17)" onmousedown="handlePan(-1,0)">
                  <use xlink:href="#rim" fill="#404040">
                        <set attributeName="fill" to="#808080" begin="arrowLeft.mouseover" end="arrowLeft.mouseout"/>
                  </use>
                  <path fill="none" stroke="white" stroke-width="1.5" d="M0,-3.0v7 M-2.5,-0.5L0,-3.0L2.5,-0.5"/>
                </g>
        </g>
        <svg viewBox="0 0 15 15" width="100%" height="30px" preserveAspectRatio="xMaxYMin meet">
         <g id="arrow_out" transform="scale(0.3 0.3)">
          <a xlink:href="classlug_1_1Graphics_1_1Vulkan_1_1API_1_1Fence__coll__graph_org.svg" target="_base">
           <rect id="button" ry="5" rx="5" y="6" x="6" height="38" width="38"
                fill="#f2f5e9" fill-opacity="0.5" stroke="#606060" stroke-width="1.0"/>
           <path id="arrow"
             d="M 11.500037,31.436501 C 11.940474,20.09759 22.043105,11.32322 32.158766,21.979434 L 37.068811,17.246167 C 37.068811,17.246167 37.088388,32 37.088388,32 L 22.160133,31.978069 C 22.160133,31.978069 26.997745,27.140456 26.997745,27.140456 C 18.528582,18.264221 13.291696,25.230495 11.500037,31.436501 z"
             style="fill:#404040;"/>
          </a>
         </g>
        </svg>
</svg>
