<?xml version="1.0" encoding="UTF-8" standalone="no"?>
<!DOCTYPE svg PUBLIC "-//W3C//DTD SVG 1.1//EN"
 "http://www.w3.org/Graphics/SVG/1.1/DTD/svg11.dtd">
<!-- Generated by graphviz version 2.40.1 (20161225.0304)
 -->
<!-- Title: lug::Graphics::Vulkan::API::Builder::CommandPool Pages: 1 -->
<!--zoomable 529 -->
<svg id="main" version="1.1" xmlns="http://www.w3.org/2000/svg" xmlns:xlink="http://www.w3.org/1999/xlink" xml:space="preserve" onload="init(evt)">
<style type="text/css"><![CDATA[
.edge:hover path { stroke: red; }
.edge:hover polygon { stroke: red; fill: red; }
]]></style>
<script type="text/javascript"><![CDATA[
var edges = document.getElementsByTagName('g');
if (edges && edges.length) {
  for (var i=0;i<edges.length;i++) {
    if (edges[i].id.substr(0,4)=='edge') {
      edges[i].setAttribute('class','edge');
    }
  }
}
]]></script>
        <defs>
                <circle id="rim" cx="0" cy="0" r="7"/>
                <circle id="rim2" cx="0" cy="0" r="3.5"/>
                <g id="zoomPlus">
                        <use xlink:href="#rim" fill="#404040">
                                <set attributeName="fill" to="#808080" begin="zoomplus.mouseover" end="zoomplus.mouseout"/>
                        </use>
                        <path d="M-4,0h8M0,-4v8" fill="none" stroke="white" stroke-width="1.5" pointer-events="none"/>
                </g>
                <g id="zoomMin">
                        <use xlink:href="#rim" fill="#404040">
                                <set attributeName="fill" to="#808080" begin="zoomminus.mouseover" end="zoomminus.mouseout"/>
                        </use>
                        <path d="M-4,0h8" fill="none" stroke="white" stroke-width="1.5" pointer-events="none"/>
                </g>
                <g id="dirArrow">
                        <path fill="none" stroke="white" stroke-width="1.5" d="M0,-3.0v7 M-2.5,-0.5L0,-3.0L2.5,-0.5"/>
                </g>
               <g id="resetDef">
                       <use xlink:href="#rim2" fill="#404040">
                               <set attributeName="fill" to="#808080" begin="reset.mouseover" end="reset.mouseout"/>
                       </use>
               </g>
        </defs>

<script type="text/javascript">
var viewWidth = 1374;
var viewHeight = 529;
var sectionId = 'dynsection-0';
</script>
<script xlink:href="svgpan.js"/>
<svg id="graph" class="graph">
<g id="viewport">
<title>lug::Graphics::Vulkan::API::Builder::CommandPool</title>
<!-- Node1 -->
<g id="node1" class="node">
<title>Node1</title>
<polygon fill="#bfbfbf" stroke="#000000" points="1199,-230.5 1199,-260.5 1366,-260.5 1366,-230.5 1199,-230.5"/>
<text text-anchor="start" x="1207" y="-248.5" font-family="Helvetica,sans-Serif" font-size="10.00" fill="#000000">lug::Graphics::Vulkan</text>
<text text-anchor="middle" x="1282.5" y="-237.5" font-family="Helvetica,sans-Serif" font-size="10.00" fill="#000000">::API::Builder::CommandPool</text>
</g>
<!-- Node2 -->
<g id="node2" class="node">
<title>Node2</title>
<polygon fill="none" stroke="#bfbfbf" points="931,-280 931,-299 1090,-299 1090,-280 931,-280"/>
<text text-anchor="middle" x="1010.5" y="-287" font-family="Helvetica,sans-Serif" font-size="10.00" fill="#000000">VkCommandPoolCreateFlags</text>
</g>
<!-- Node2&#45;&gt;Node1 -->
<g id="edge1" class="edge">
<title>Node2&#45;&gt;Node1</title>
<path fill="none" stroke="#9a32cd" stroke-dasharray="5,2" d="M1079.518,-278.3353C1115.8069,-272.4651 1160.576,-265.223 1198.8281,-259.0352"/>
<polygon fill="#9a32cd" stroke="#9a32cd" points="1078.8327,-274.9006 1069.5199,-279.9527 1079.9506,-281.8108 1078.8327,-274.9006"/>
<text text-anchor="middle" x="1144.5" y="-275.5" font-family="Helvetica,sans-Serif" font-size="10.00" fill="#000000"> _flags</text>
</g>
<!-- Node3 -->
<g id="node3" class="node">
<title>Node3</title>
<g id="a_node3"><a xlink:href="classlug_1_1Graphics_1_1Vulkan_1_1API_1_1Device.html" target="_top" xlink:title="lug::Graphics::Vulkan\l::API::Device">
<polygon fill="none" stroke="#000000" points="947,-230.5 947,-260.5 1074,-260.5 1074,-230.5 947,-230.5"/>
<text text-anchor="start" x="955" y="-248.5" font-family="Helvetica,sans-Serif" font-size="10.00" fill="#000000">lug::Graphics::Vulkan</text>
<text text-anchor="middle" x="1010.5" y="-237.5" font-family="Helvetica,sans-Serif" font-size="10.00" fill="#000000">::API::Device</text>
</a>
</g>
</g>
<!-- Node3&#45;&gt;Node1 -->
<g id="edge2" class="edge">
<title>Node3&#45;&gt;Node1</title>
<path fill="none" stroke="#9a32cd" stroke-dasharray="5,2" d="M1084.5137,-245.5C1119.8413,-245.5 1162.2679,-245.5 1198.7694,-245.5"/>
<polygon fill="#9a32cd" stroke="#9a32cd" points="1084.2719,-242.0001 1074.2719,-245.5 1084.2719,-249.0001 1084.2719,-242.0001"/>
<text text-anchor="middle" x="1144.5" y="-248.5" font-family="Helvetica,sans-Serif" font-size="10.00" fill="#000000"> _device</text>
</g>
<!-- Node4 -->
<g id="node4" class="node">
<title>Node4</title>
<g id="a_node4"><a xlink:href="structlug_1_1Graphics_1_1Vulkan_1_1PhysicalDeviceInfo.html" target="_top" xlink:title="lug::Graphics::Vulkan\l::PhysicalDeviceInfo">
<polygon fill="none" stroke="#000000" points="642.5,-301.5 642.5,-331.5 769.5,-331.5 769.5,-301.5 642.5,-301.5"/>
<text text-anchor="start" x="650.5" y="-319.5" font-family="Helvetica,sans-Serif" font-size="10.00" fill="#000000">lug::Graphics::Vulkan</text>
<text text-anchor="middle" x="706" y="-308.5" font-family="Helvetica,sans-Serif" font-size="10.00" fill="#000000">::PhysicalDeviceInfo</text>
</a>
</g>
</g>
<!-- Node4&#45;&gt;Node3 -->
<g id="edge3" class="edge">
<title>Node4&#45;&gt;Node3</title>
<path fill="none" stroke="#9a32cd" stroke-dasharray="5,2" d="M779.6138,-303.2141C819.3161,-295.6344 869.0502,-285.4717 913,-274.5 929.4488,-270.3937 947.2719,-265.289 963.1255,-260.5121"/>
<polygon fill="#9a32cd" stroke="#9a32cd" points="778.919,-299.7834 769.7457,-305.0844 780.2226,-306.661 778.919,-299.7834"/>
<text text-anchor="middle" x="861" y="-299.5" font-family="Helvetica,sans-Serif" font-size="10.00" fill="#000000"> _physicalDeviceInfo</text>
</g>
<!-- Node5 -->
<g id="node5" class="node">
<title>Node5</title>
<g id="a_node5"><a xlink:href="structlug_1_1Graphics_1_1Vulkan_1_1PhysicalDeviceInfo_1_1Swapchain.html" target="_top" xlink:title="lug::Graphics::Vulkan\l::PhysicalDeviceInfo\l::Swapchain">
<polygon fill="none" stroke="#000000" points="324.5,-452 324.5,-493 451.5,-493 451.5,-452 324.5,-452"/>
<text text-anchor="start" x="332.5" y="-481" font-family="Helvetica,sans-Serif" font-size="10.00" fill="#000000">lug::Graphics::Vulkan</text>
<text text-anchor="start" x="332.5" y="-470" font-family="Helvetica,sans-Serif" font-size="10.00" fill="#000000">::PhysicalDeviceInfo</text>
<text text-anchor="middle" x="388" y="-459" font-family="Helvetica,sans-Serif" font-size="10.00" fill="#000000">::Swapchain</text>
</a>
</g>
</g>
<!-- Node5&#45;&gt;Node4 -->
<g id="edge4" class="edge">
<title>Node5&#45;&gt;Node4</title>
<path fill="none" stroke="#9a32cd" stroke-dasharray="5,2" d="M461.6295,-460.995C504.7948,-452.0982 559.2582,-437.0358 603,-412.5 641.1623,-391.0939 676.3144,-352.6878 694.0081,-331.5208"/>
<polygon fill="#9a32cd" stroke="#9a32cd" points="460.881,-457.5752 451.7585,-462.9633 462.2499,-464.4401 460.881,-457.5752"/>
<text text-anchor="middle" x="554.5" y="-452.5" font-family="Helvetica,sans-Serif" font-size="10.00" fill="#000000"> swapchain</text>
</g>
<!-- Node6 -->
<g id="node6" class="node">
<title>Node6</title>
<polygon fill="none" stroke="#bfbfbf" points="16.5,-501 16.5,-520 162.5,-520 162.5,-501 16.5,-501"/>
<text text-anchor="middle" x="89.5" y="-508" font-family="Helvetica,sans-Serif" font-size="10.00" fill="#000000">VkSurfaceCapabilitiesKHR</text>
</g>
<!-- Node6&#45;&gt;Node5 -->
<g id="edge5" class="edge">
<title>Node6&#45;&gt;Node5</title>
<path fill="none" stroke="#9a32cd" stroke-dasharray="5,2" d="M172.5828,-499.9233C220.5932,-493.8114 280.0566,-486.2415 324.3375,-480.6044"/>
<polygon fill="#9a32cd" stroke="#9a32cd" points="171.9992,-496.4692 162.5213,-501.2042 172.8833,-503.4132 171.9992,-496.4692"/>
<text text-anchor="middle" x="233.5" y="-498.5" font-family="Helvetica,sans-Serif" font-size="10.00" fill="#000000"> capabilities</text>
</g>
<!-- Node7 -->
<g id="node7" class="node">
<title>Node7</title>
<polygon fill="none" stroke="#bfbfbf" points="0,-463 0,-482 179,-482 179,-463 0,-463"/>
<text text-anchor="middle" x="89.5" y="-470" font-family="Helvetica,sans-Serif" font-size="10.00" fill="#000000">vector&lt; VkSurfaceFormatKHR &gt;</text>
</g>
<!-- Node7&#45;&gt;Node5 -->
<g id="edge6" class="edge">
<title>Node7&#45;&gt;Node5</title>
<path fill="none" stroke="#9a32cd" stroke-dasharray="5,2" d="M189.3241,-472.5C233.799,-472.5 284.8747,-472.5 324.1016,-472.5"/>
<polygon fill="#9a32cd" stroke="#9a32cd" points="189.0599,-469.0001 179.0598,-472.5 189.0598,-476.0001 189.0599,-469.0001"/>
<text text-anchor="middle" x="233.5" y="-475.5" font-family="Helvetica,sans-Serif" font-size="10.00" fill="#000000"> formats</text>
</g>
<!-- Node8 -->
<g id="node8" class="node">
<title>Node8</title>
<polygon fill="none" stroke="#bfbfbf" points="4.5,-425 4.5,-444 174.5,-444 174.5,-425 4.5,-425"/>
<text text-anchor="middle" x="89.5" y="-432" font-family="Helvetica,sans-Serif" font-size="10.00" fill="#000000">vector&lt; VkPresentModeKHR &gt;</text>
</g>
<!-- Node8&#45;&gt;Node5 -->
<g id="edge7" class="edge">
<title>Node8&#45;&gt;Node5</title>
<path fill="none" stroke="#9a32cd" stroke-dasharray="5,2" d="M174.4265,-445.3114C222.0428,-451.3731 280.4605,-458.8099 324.1567,-464.3725"/>
<polygon fill="#9a32cd" stroke="#9a32cd" points="174.8008,-441.8309 164.4389,-444.04 173.9168,-448.7749 174.8008,-441.8309"/>
<text text-anchor="middle" x="233.5" y="-459.5" font-family="Helvetica,sans-Serif" font-size="10.00" fill="#000000"> presentModes</text>
</g>
<!-- Node9 -->
<g id="node9" class="node">
<title>Node9</title>
<polygon fill="none" stroke="#bfbfbf" points="308.5,-402.5 308.5,-432.5 467.5,-432.5 467.5,-402.5 308.5,-402.5"/>
<text text-anchor="start" x="316.5" y="-420.5" font-family="Helvetica,sans-Serif" font-size="10.00" fill="#000000">unordered_map&lt; VkFormat,</text>
<text text-anchor="middle" x="388" y="-409.5" font-family="Helvetica,sans-Serif" font-size="10.00" fill="#000000"> VkFormatProperties &gt;</text>
</g>
<!-- Node9&#45;&gt;Node4 -->
<g id="edge8" class="edge">
<title>Node9&#45;&gt;Node4</title>
<path fill="none" stroke="#9a32cd" stroke-dasharray="5,2" d="M477.7382,-404.7435C516.9352,-397.644 562.9918,-387.2019 603,-372.5 631.8484,-361.899 662.5,-344.3206 682.7908,-331.6842"/>
<polygon fill="#9a32cd" stroke="#9a32cd" points="476.9054,-401.3363 467.6664,-406.5221 478.1227,-408.2297 476.9054,-401.3363"/>
<text text-anchor="middle" x="554.5" y="-400.5" font-family="Helvetica,sans-Serif" font-size="10.00" fill="#000000"> formatProperties</text>
</g>
<!-- Node10 -->
<g id="node10" class="node">
<title>Node10</title>
<polygon fill="none" stroke="#bfbfbf" points="315,-364 315,-383 461,-383 461,-364 315,-364"/>
<text text-anchor="middle" x="388" y="-371" font-family="Helvetica,sans-Serif" font-size="10.00" fill="#000000">VkPhysicalDeviceFeatures</text>
</g>
<!-- Node10&#45;&gt;Node4 -->
<g id="edge9" class="edge">
<title>Node10&#45;&gt;Node4</title>
<path fill="none" stroke="#9a32cd" stroke-dasharray="5,2" d="M471.4332,-363.5252C511.4044,-358.2232 559.8563,-351.0316 603,-342.5 618.65,-339.4052 635.4836,-335.4334 650.9141,-331.5306"/>
<polygon fill="#9a32cd" stroke="#9a32cd" points="470.9225,-360.0622 461.4622,-364.8322 471.8322,-367.0028 470.9225,-360.0622"/>
<text text-anchor="middle" x="554.5" y="-360.5" font-family="Helvetica,sans-Serif" font-size="10.00" fill="#000000"> features</text>
</g>
<!-- Node11 -->
<g id="node11" class="node">
<title>Node11</title>
<polygon fill="none" stroke="#bfbfbf" points="288,-326 288,-345 488,-345 488,-326 288,-326"/>
<text text-anchor="middle" x="388" y="-333" font-family="Helvetica,sans-Serif" font-size="10.00" fill="#000000">vector&lt; VkQueueFamilyProperties &gt;</text>
</g>
<!-- Node11&#45;&gt;Node4 -->
<g id="edge10" class="edge">
<title>Node11&#45;&gt;Node4</title>
<path fill="none" stroke="#9a32cd" stroke-dasharray="5,2" d="M498.3415,-328.9073C546.4596,-326.0323 601.1572,-322.7642 642.3325,-320.304"/>
<polygon fill="#9a32cd" stroke="#9a32cd" points="497.9541,-325.4241 488.1807,-329.5144 498.3717,-332.4116 497.9541,-325.4241"/>
<text text-anchor="middle" x="554.5" y="-330.5" font-family="Helvetica,sans-Serif" font-size="10.00" fill="#000000"> queueFamilies</text>
</g>
<!-- Node12 -->
<g id="node12" class="node">
<title>Node12</title>
<polygon fill="none" stroke="#bfbfbf" points="290.5,-288 290.5,-307 485.5,-307 485.5,-288 290.5,-288"/>
<text text-anchor="middle" x="388" y="-295" font-family="Helvetica,sans-Serif" font-size="10.00" fill="#000000">VkPhysicalDeviceMemoryProperties</text>
</g>
<!-- Node12&#45;&gt;Node4 -->
<g id="edge11" class="edge">
<title>Node12&#45;&gt;Node4</title>
<path fill="none" stroke="#9a32cd" stroke-dasharray="5,2" d="M495.751,-301.6518C530.0489,-303.2038 568.1331,-305.1668 603,-307.5 615.7161,-308.3509 629.3015,-309.4221 642.2958,-310.526"/>
<polygon fill="#9a32cd" stroke="#9a32cd" points="495.8574,-298.1532 485.7115,-301.2043 495.5457,-305.1463 495.8574,-298.1532"/>
<text text-anchor="middle" x="554.5" y="-310.5" font-family="Helvetica,sans-Serif" font-size="10.00" fill="#000000"> memoryProperties</text>
</g>
<!-- Node13 -->
<g id="node13" class="node">
<title>Node13</title>
<polygon fill="none" stroke="#bfbfbf" points="336,-250 336,-269 440,-269 440,-250 336,-250"/>
<text text-anchor="middle" x="388" y="-257" font-family="Helvetica,sans-Serif" font-size="10.00" fill="#000000">VkPhysicalDevice</text>
</g>
<!-- Node13&#45;&gt;Node4 -->
<g id="edge12" class="edge">
<title>Node13&#45;&gt;Node4</title>
<path fill="none" stroke="#9a32cd" stroke-dasharray="5,2" d="M450.2805,-264.0574C493.51,-268.0133 552.2261,-274.9678 603,-286.5 611.2233,-288.3677 612.9401,-290.0203 621,-292.5 630.6729,-295.476 641.008,-298.5127 651.0208,-301.381"/>
<polygon fill="#9a32cd" stroke="#9a32cd" points="450.4643,-260.5601 440.1942,-263.163 449.8459,-267.5327 450.4643,-260.5601"/>
<text text-anchor="middle" x="554.5" y="-289.5" font-family="Helvetica,sans-Serif" font-size="10.00" fill="#000000"> handle</text>
</g>
<!-- Node14 -->
<g id="node14" class="node">
<title>Node14</title>
<polygon fill="none" stroke="#bfbfbf" points="310.5,-212 310.5,-231 465.5,-231 465.5,-212 310.5,-212"/>
<text text-anchor="middle" x="388" y="-219" font-family="Helvetica,sans-Serif" font-size="10.00" fill="#000000">VkPhysicalDeviceProperties</text>
</g>
<!-- Node14&#45;&gt;Node4 -->
<g id="edge13" class="edge">
<title>Node14&#45;&gt;Node4</title>
<path fill="none" stroke="#9a32cd" stroke-dasharray="5,2" d="M475.8296,-217.2988C517.9094,-219.5171 566.8779,-228.7496 603,-255.5 617.6961,-266.3833 606.9733,-280.7667 621,-292.5 627.2336,-297.7144 634.5294,-301.7984 642.1803,-304.9965"/>
<polygon fill="#9a32cd" stroke="#9a32cd" points="475.7048,-213.7911 465.5725,-216.8873 475.4241,-220.7854 475.7048,-213.7911"/>
<text text-anchor="middle" x="554.5" y="-258.5" font-family="Helvetica,sans-Serif" font-size="10.00" fill="#000000"> properties</text>
</g>
<!-- Node15 -->
<g id="node15" class="node">
<title>Node15</title>
<polygon fill="none" stroke="#bfbfbf" points="296,-174 296,-193 480,-193 480,-174 296,-174"/>
<text text-anchor="middle" x="388" y="-181" font-family="Helvetica,sans-Serif" font-size="10.00" fill="#000000">vector&lt; VkExtensionProperties &gt;</text>
</g>
<!-- Node15&#45;&gt;Node4 -->
<g id="edge14" class="edge">
<title>Node15&#45;&gt;Node4</title>
<path fill="none" stroke="#9a32cd" stroke-dasharray="5,2" d="M444.0509,-172.594C492.2349,-166.6871 560.4888,-167.1197 603,-205.5 632.3082,-231.9602 594.0905,-263.6038 621,-292.5 626.852,-298.7841 634.2112,-303.4673 642.1381,-306.9494"/>
<polygon fill="#9a32cd" stroke="#9a32cd" points="443.5316,-169.1323 434.0901,-173.9393 444.4686,-176.0693 443.5316,-169.1323"/>
<text text-anchor="middle" x="554.5" y="-208.5" font-family="Helvetica,sans-Serif" font-size="10.00" fill="#000000"> extensions</text>
</g>
<!-- Node16 -->
<g id="node16" class="node">
<title>Node16</title>
<polygon fill="none" stroke="#bfbfbf" points="621,-252.5 621,-282.5 791,-282.5 791,-252.5 621,-252.5"/>
<text text-anchor="start" x="629" y="-270.5" font-family="Helvetica,sans-Serif" font-size="10.00" fill="#000000">vector&lt; lug::Graphics</text>
<text text-anchor="middle" x="706" y="-259.5" font-family="Helvetica,sans-Serif" font-size="10.00" fill="#000000">::Vulkan::API::QueueFamily &gt;</text>
</g>
<!-- Node16&#45;&gt;Node3 -->
<g id="edge15" class="edge">
<title>Node16&#45;&gt;Node3</title>
<path fill="none" stroke="#9a32cd" stroke-dasharray="5,2" d="M801.4832,-260.6014C848.7491,-257.1864 904.5343,-253.156 946.5798,-250.1182"/>
<polygon fill="#9a32cd" stroke="#9a32cd" points="800.9469,-257.1309 791.2251,-261.3425 801.4514,-264.1127 800.9469,-257.1309"/>
<text text-anchor="middle" x="861" y="-262.5" font-family="Helvetica,sans-Serif" font-size="10.00" fill="#000000"> _queueFamilies</text>
</g>
<!-- Node17 -->
<g id="node17" class="node">
<title>Node17</title>
<polygon fill="none" stroke="#bfbfbf" points="674.5,-214 674.5,-233 737.5,-233 737.5,-214 674.5,-214"/>
<text text-anchor="middle" x="706" y="-221" font-family="Helvetica,sans-Serif" font-size="10.00" fill="#000000">VkDevice</text>
</g>
<!-- Node17&#45;&gt;Node3 -->
<g id="edge16" class="edge">
<title>Node17&#45;&gt;Node3</title>
<path fill="none" stroke="#9a32cd" stroke-dasharray="5,2" d="M747.6554,-226.1413C789.4661,-228.8338 855.7146,-233.2129 913,-237.5 923.9241,-238.3175 935.5328,-239.231 946.7877,-240.14"/>
<polygon fill="#9a32cd" stroke="#9a32cd" points="747.7761,-222.6419 737.5724,-225.4941 747.3277,-229.6275 747.7761,-222.6419"/>
<text text-anchor="middle" x="861" y="-240.5" font-family="Helvetica,sans-Serif" font-size="10.00" fill="#000000"> _device</text>
</g>
<!-- Node18 -->
<g id="node18" class="node">
<title>Node18</title>
<g id="a_node18"><a xlink:href="classlug_1_1Graphics_1_1Vulkan_1_1API_1_1QueueFamily.html" target="_top" xlink:title="lug::Graphics::Vulkan\l::API::QueueFamily">
<polygon fill="none" stroke="#000000" points="947,-104.5 947,-134.5 1074,-134.5 1074,-104.5 947,-104.5"/>
<text text-anchor="start" x="955" y="-122.5" font-family="Helvetica,sans-Serif" font-size="10.00" fill="#000000">lug::Graphics::Vulkan</text>
<text text-anchor="middle" x="1010.5" y="-111.5" font-family="Helvetica,sans-Serif" font-size="10.00" fill="#000000">::API::QueueFamily</text>
</a>
</g>
</g>
<!-- Node18&#45;&gt;Node1 -->
<g id="edge17" class="edge">
<title>Node18&#45;&gt;Node1</title>
<path fill="none" stroke="#9a32cd" stroke-dasharray="5,2" d="M1052.3911,-138.9054C1106.7751,-164.098 1200.5489,-207.5374 1249.9232,-230.4093"/>
<polygon fill="#9a32cd" stroke="#9a32cd" points="1053.5843,-135.6009 1043.0394,-134.5734 1050.642,-141.9525 1053.5843,-135.6009"/>
<text text-anchor="middle" x="1144.5" y="-199.5" font-family="Helvetica,sans-Serif" font-size="10.00" fill="#000000"> _queueFamily</text>
</g>
<!-- Node19 -->
<g id="node19" class="node">
<title>Node19</title>
<polygon fill="none" stroke="#bfbfbf" points="677.5,-176 677.5,-195 734.5,-195 734.5,-176 677.5,-176"/>
<text text-anchor="middle" x="706" y="-183" font-family="Helvetica,sans-Serif" font-size="10.00" fill="#000000">uint32_t</text>
</g>
<!-- Node19&#45;&gt;Node18 -->
<g id="edge18" class="edge">
<title>Node19&#45;&gt;Node18</title>
<path fill="none" stroke="#9a32cd" stroke-dasharray="5,2" d="M744.6976,-179.9122C786.4841,-173.5699 854.8765,-162.2926 913,-148.5 929.6673,-144.5449 947.702,-139.4234 963.6749,-134.5874"/>
<polygon fill="#9a32cd" stroke="#9a32cd" points="744.0395,-176.4717 734.6696,-181.4169 745.0783,-183.3942 744.0395,-176.4717"/>
<text text-anchor="middle" x="861" y="-171.5" font-family="Helvetica,sans-Serif" font-size="10.00" fill="#000000"> _idx</text>
</g>
<!-- Node20 -->
<g id="node20" class="node">
<title>Node20</title>
<polygon fill="none" stroke="#bfbfbf" points="645,-126.5 645,-156.5 767,-156.5 767,-126.5 645,-126.5"/>
<text text-anchor="start" x="653" y="-144.5" font-family="Helvetica,sans-Serif" font-size="10.00" fill="#000000">unordered_map&lt; std</text>
<text text-anchor="middle" x="706" y="-133.5" font-family="Helvetica,sans-Serif" font-size="10.00" fill="#000000">::string, uint32_t &gt;</text>
</g>
<!-- Node20&#45;&gt;Node18 -->
<g id="edge19" class="edge">
<title>Node20&#45;&gt;Node18</title>
<path fill="none" stroke="#9a32cd" stroke-dasharray="5,2" d="M777.2922,-136.3492C828.696,-132.6353 897.4621,-127.6669 946.9858,-124.0889"/>
<polygon fill="#9a32cd" stroke="#9a32cd" points="776.9756,-132.8628 767.2538,-137.0744 777.4801,-139.8446 776.9756,-132.8628"/>
<text text-anchor="middle" x="861" y="-136.5" font-family="Helvetica,sans-Serif" font-size="10.00" fill="#000000"> _queuesIndices</text>
</g>
<!-- Node21 -->
<g id="node21" class="node">
<title>Node21</title>
<polygon fill="none" stroke="#bfbfbf" points="663,-88 663,-107 749,-107 749,-88 663,-88"/>
<text text-anchor="middle" x="706" y="-95" font-family="Helvetica,sans-Serif" font-size="10.00" fill="#000000">VkQueueFlags</text>
</g>
<!-- Node21&#45;&gt;Node18 -->
<g id="edge20" class="edge">
<title>Node21&#45;&gt;Node18</title>
<path fill="none" stroke="#9a32cd" stroke-dasharray="5,2" d="M759.458,-100.9043C801.2653,-103.6178 860.8471,-107.597 913,-111.5 923.9241,-112.3175 935.5328,-113.231 946.7877,-114.14"/>
<polygon fill="#9a32cd" stroke="#9a32cd" points="759.4325,-97.3954 749.2274,-100.2426 758.9806,-104.3808 759.4325,-97.3954"/>
<text text-anchor="middle" x="861" y="-114.5" font-family="Helvetica,sans-Serif" font-size="10.00" fill="#000000"> _flags</text>
</g>
<!-- Node22 -->
<g id="node22" class="node">
<title>Node22</title>
<polygon fill="none" stroke="#bfbfbf" points="687,-50 687,-69 725,-69 725,-50 687,-50"/>
<text text-anchor="middle" x="706" y="-57" font-family="Helvetica,sans-Serif" font-size="10.00" fill="#000000">bool</text>
</g>
<!-- Node22&#45;&gt;Node18 -->
<g id="edge21" class="edge">
<title>Node22&#45;&gt;Node18</title>
<path fill="none" stroke="#9a32cd" stroke-dasharray="5,2" d="M735.2209,-62.0267C775.566,-65.8695 850.4412,-74.2795 913,-88.5 931.3594,-92.6734 951.2311,-98.7055 968.215,-104.3417"/>
<polygon fill="#9a32cd" stroke="#9a32cd" points="735.3106,-58.5201 725.0307,-61.0839 734.6657,-65.4904 735.3106,-58.5201"/>
<text text-anchor="middle" x="861" y="-91.5" font-family="Helvetica,sans-Serif" font-size="10.00" fill="#000000"> _presentation</text>
</g>
<!-- Node23 -->
<g id="node23" class="node">
<title>Node23</title>
<polygon fill="none" stroke="#bfbfbf" points="637.5,-.5 637.5,-30.5 774.5,-30.5 774.5,-.5 637.5,-.5"/>
<text text-anchor="start" x="645.5" y="-18.5" font-family="Helvetica,sans-Serif" font-size="10.00" fill="#000000">vector&lt; lug::Graphics</text>
<text text-anchor="middle" x="706" y="-7.5" font-family="Helvetica,sans-Serif" font-size="10.00" fill="#000000">::Vulkan::API::Queue &gt;</text>
</g>
<!-- Node23&#45;&gt;Node18 -->
<g id="edge22" class="edge">
<title>Node23&#45;&gt;Node18</title>
<path fill="none" stroke="#9a32cd" stroke-dasharray="5,2" d="M784.6872,-23.3687C824.2403,-29.1383 872.29,-38.9619 913,-55.5 943.0147,-67.6932 973.597,-89.6449 992.3128,-104.394"/>
<polygon fill="#9a32cd" stroke="#9a32cd" points="784.9502,-19.8715 774.5617,-21.9524 783.9804,-26.804 784.9502,-19.8715"/>
<text text-anchor="middle" x="861" y="-58.5" font-family="Helvetica,sans-Serif" font-size="10.00" fill="#000000"> _queues</text>
</g>
</g>
</svg>
        <g id="navigator" transform="translate(0 0)" fill="#404254">
                <rect fill="#f2f5e9" fill-opacity="0.5" stroke="#606060" stroke-width=".5" x="0" y="0" width="60" height="60"/>
                <use id="zoomplus" xlink:href="#zoomPlus" x="17" y="9" onmousedown="handleZoom(evt,'in')"/>
                <use id="zoomminus" xlink:href="#zoomMin" x="42" y="9" onmousedown="handleZoom(evt,'out')"/>
                <use id="reset" xlink:href="#resetDef" x="30" y="36" onmousedown="handleReset()"/>
                <g id="arrowUp" xlink:href="#dirArrow" transform="translate(30 24)" onmousedown="handlePan(0,-1)">
                  <use xlink:href="#rim" fill="#404040">
                        <set attributeName="fill" to="#808080" begin="arrowUp.mouseover" end="arrowUp.mouseout"/>
                  </use>
                  <path fill="none" stroke="white" stroke-width="1.5" d="M0,-3.0v7 M-2.5,-0.5L0,-3.0L2.5,-0.5"/>
                </g>
                <g id="arrowRight" xlink:href="#dirArrow" transform="rotate(90) translate(36 -43)" onmousedown="handlePan(1,0)">
                  <use xlink:href="#rim" fill="#404040">
                        <set attributeName="fill" to="#808080" begin="arrowRight.mouseover" end="arrowRight.mouseout"/>
                  </use>
                  <path fill="none" stroke="white" stroke-width="1.5" d="M0,-3.0v7 M-2.5,-0.5L0,-3.0L2.5,-0.5"/>
                </g>
                <g id="arrowDown" xlink:href="#dirArrow" transform="rotate(180) translate(-30 -48)" onmousedown="handlePan(0,1)">
                  <use xlink:href="#rim" fill="#404040">
                        <set attributeName="fill" to="#808080" begin="arrowDown.mouseover" end="arrowDown.mouseout"/>
                  </use>
                  <path fill="none" stroke="white" stroke-width="1.5" d="M0,-3.0v7 M-2.5,-0.5L0,-3.0L2.5,-0.5"/>
                </g>
                <g id="arrowLeft" xlink:href="#dirArrow" transform="rotate(270) translate(-36 17)" onmousedown="handlePan(-1,0)">
                  <use xlink:href="#rim" fill="#404040">
                        <set attributeName="fill" to="#808080" begin="arrowLeft.mouseover" end="arrowLeft.mouseout"/>
                  </use>
                  <path fill="none" stroke="white" stroke-width="1.5" d="M0,-3.0v7 M-2.5,-0.5L0,-3.0L2.5,-0.5"/>
                </g>
        </g>
        <svg viewBox="0 0 15 15" width="100%" height="30px" preserveAspectRatio="xMaxYMin meet">
         <g id="arrow_out" transform="scale(0.3 0.3)">
          <a xlink:href="classlug_1_1Graphics_1_1Vulkan_1_1API_1_1Builder_1_1CommandPool__coll__graph_org.svg" target="_base">
           <rect id="button" ry="5" rx="5" y="6" x="6" height="38" width="38"
                fill="#f2f5e9" fill-opacity="0.5" stroke="#606060" stroke-width="1.0"/>
           <path id="arrow"
             d="M 11.500037,31.436501 C 11.940474,20.09759 22.043105,11.32322 32.158766,21.979434 L 37.068811,17.246167 C 37.068811,17.246167 37.088388,32 37.088388,32 L 22.160133,31.978069 C 22.160133,31.978069 26.997745,27.140456 26.997745,27.140456 C 18.528582,18.264221 13.291696,25.230495 11.500037,31.436501 z"
             style="fill:#404040;"/>
          </a>
         </g>
        </svg>
</svg>
