<?xml version="1.0" encoding="UTF-8" standalone="no"?>
<!DOCTYPE svg PUBLIC "-//W3C//DTD SVG 1.1//EN"
 "http://www.w3.org/Graphics/SVG/1.1/DTD/svg11.dtd">
<!-- Generated by graphviz version 2.40.1 (20161225.0304)
 -->
<!-- Title: lug::System::Logger::StderrHandler Pages: 1 -->
<svg width="129pt" height="173pt"
 viewBox="0.00 0.00 129.00 173.00" xmlns="http://www.w3.org/2000/svg" xmlns:xlink="http://www.w3.org/1999/xlink">
<g id="graph0" class="graph" transform="scale(1 1) rotate(0) translate(4 169)">
<title>lug::System::Logger::StderrHandler</title>
<!-- Node0 -->
<g id="node1" class="node">
<title>Node0</title>
<polygon fill="#bfbfbf" stroke="#000000" points="0,-.5 0,-30.5 121,-30.5 121,-.5 0,-.5"/>
<text text-anchor="start" x="8" y="-18.5" font-family="Helvetica,sans-Serif" font-size="10.00" fill="#000000">lug::System::Logger</text>
<text text-anchor="middle" x="60.5" y="-7.5" font-family="Helvetica,sans-Serif" font-size="10.00" fill="#000000">::StderrHandler</text>
</g>
<!-- Node1 -->
<g id="node2" class="node">
<title>Node1</title>
<g id="a_node2"><a xlink:href="classlug_1_1System_1_1Logger_1_1OstreamHandler.html" target="_top" xlink:title="lug::System::Logger\l::OstreamHandler">
<polygon fill="none" stroke="#000000" points="0,-67.5 0,-97.5 121,-97.5 121,-67.5 0,-67.5"/>
<text text-anchor="start" x="8" y="-85.5" font-family="Helvetica,sans-Serif" font-size="10.00" fill="#000000">lug::System::Logger</text>
<text text-anchor="middle" x="60.5" y="-74.5" font-family="Helvetica,sans-Serif" font-size="10.00" fill="#000000">::OstreamHandler</text>
</a>
</g>
</g>
<!-- Node1&#45;&gt;Node0 -->
<g id="edge1" class="edge">
<title>Node1&#45;&gt;Node0</title>
<path fill="none" stroke="#191970" d="M60.5,-57.0249C60.5,-48.128 60.5,-38.4287 60.5,-30.6432"/>
<polygon fill="#191970" stroke="#191970" points="57.0001,-57.2966 60.5,-67.2967 64.0001,-57.2967 57.0001,-57.2966"/>
</g>
<!-- Node2 -->
<g id="node3" class="node">
<title>Node2</title>
<g id="a_node3"><a xlink:href="classlug_1_1System_1_1Logger_1_1Handler.html" target="_top" xlink:title="lug::System::Logger\l::Handler">
<polygon fill="none" stroke="#000000" points="0,-134.5 0,-164.5 121,-164.5 121,-134.5 0,-134.5"/>
<text text-anchor="start" x="8" y="-152.5" font-family="Helvetica,sans-Serif" font-size="10.00" fill="#000000">lug::System::Logger</text>
<text text-anchor="middle" x="60.5" y="-141.5" font-family="Helvetica,sans-Serif" font-size="10.00" fill="#000000">::Handler</text>
</a>
</g>
</g>
<!-- Node2&#45;&gt;Node1 -->
<g id="edge2" class="edge">
<title>Node2&#45;&gt;Node1</title>
<path fill="none" stroke="#191970" d="M60.5,-124.0249C60.5,-115.128 60.5,-105.4287 60.5,-97.6432"/>
<polygon fill="#191970" stroke="#191970" points="57.0001,-124.2966 60.5,-134.2967 64.0001,-124.2967 57.0001,-124.2966"/>
</g>
</g>
</svg>
