<?xml version="1.0" encoding="UTF-8" standalone="no"?>
<!DOCTYPE svg PUBLIC "-//W3C//DTD SVG 1.1//EN"
 "http://www.w3.org/Graphics/SVG/1.1/DTD/svg11.dtd">
<!-- Generated by graphviz version 2.40.1 (20161225.0304)
 -->
<!-- Title: lug::Graphics::Vulkan::API::Builder::RenderPass Pages: 1 -->
<!--zoomable 358 -->
<svg id="main" version="1.1" xmlns="http://www.w3.org/2000/svg" xmlns:xlink="http://www.w3.org/1999/xlink" xml:space="preserve" onload="init(evt)">
<style type="text/css"><![CDATA[
.edge:hover path { stroke: red; }
.edge:hover polygon { stroke: red; fill: red; }
]]></style>
<script type="text/javascript"><![CDATA[
var edges = document.getElementsByTagName('g');
if (edges && edges.length) {
  for (var i=0;i<edges.length;i++) {
    if (edges[i].id.substr(0,4)=='edge') {
      edges[i].setAttribute('class','edge');
    }
  }
}
]]></script>
        <defs>
                <circle id="rim" cx="0" cy="0" r="7"/>
                <circle id="rim2" cx="0" cy="0" r="3.5"/>
                <g id="zoomPlus">
                        <use xlink:href="#rim" fill="#404040">
                                <set attributeName="fill" to="#808080" begin="zoomplus.mouseover" end="zoomplus.mouseout"/>
                        </use>
                        <path d="M-4,0h8M0,-4v8" fill="none" stroke="white" stroke-width="1.5" pointer-events="none"/>
                </g>
                <g id="zoomMin">
                        <use xlink:href="#rim" fill="#404040">
                                <set attributeName="fill" to="#808080" begin="zoomminus.mouseover" end="zoomminus.mouseout"/>
                        </use>
                        <path d="M-4,0h8" fill="none" stroke="white" stroke-width="1.5" pointer-events="none"/>
                </g>
                <g id="dirArrow">
                        <path fill="none" stroke="white" stroke-width="1.5" d="M0,-3.0v7 M-2.5,-0.5L0,-3.0L2.5,-0.5"/>
                </g>
               <g id="resetDef">
                       <use xlink:href="#rim2" fill="#404040">
                               <set attributeName="fill" to="#808080" begin="reset.mouseover" end="reset.mouseout"/>
                       </use>
               </g>
        </defs>

<script type="text/javascript">
var viewWidth = 1437;
var viewHeight = 358;
var sectionId = 'dynsection-0';
</script>
<script xlink:href="svgpan.js"/>
<svg id="graph" class="graph">
<g id="viewport">
<title>lug::Graphics::Vulkan::API::Builder::RenderPass</title>
<!-- Node1 -->
<g id="node1" class="node">
<title>Node1</title>
<polygon fill="#bfbfbf" stroke="#000000" points="1276,-164.1838 1276,-194.1838 1429,-194.1838 1429,-164.1838 1276,-164.1838"/>
<text text-anchor="start" x="1284" y="-182.1838" font-family="Helvetica,sans-Serif" font-size="10.00" fill="#000000">lug::Graphics::Vulkan</text>
<text text-anchor="middle" x="1352.5" y="-171.1838" font-family="Helvetica,sans-Serif" font-size="10.00" fill="#000000">::API::Builder::RenderPass</text>
</g>
<!-- Node2 -->
<g id="node2" class="node">
<title>Node2</title>
<polygon fill="none" stroke="#bfbfbf" points="938.5,-267.6838 938.5,-286.6838 1120.5,-286.6838 1120.5,-267.6838 938.5,-267.6838"/>
<text text-anchor="middle" x="1029.5" y="-274.6838" font-family="Helvetica,sans-Serif" font-size="10.00" fill="#000000">list&lt; VkAttachmentDescription &gt;</text>
</g>
<!-- Node2&#45;&gt;Node1 -->
<g id="edge1" class="edge">
<title>Node2&#45;&gt;Node1</title>
<path fill="none" stroke="#9a32cd" stroke-dasharray="5,2" d="M1100.2041,-265.8932C1146.0378,-257.4118 1206.5655,-244.0057 1258,-225.1838 1281.4756,-216.5932 1306.889,-204.0232 1325.443,-194.1933"/>
<polygon fill="#9a32cd" stroke="#9a32cd" points="1099.5752,-262.4501 1090.3617,-267.6809 1100.8262,-269.3374 1099.5752,-262.4501"/>
<text text-anchor="middle" x="1202" y="-259.1838" font-family="Helvetica,sans-Serif" font-size="10.00" fill="#000000"> _attachments</text>
</g>
<!-- Node3 -->
<g id="node3" class="node">
<title>Node3</title>
<polygon fill="none" stroke="#bfbfbf" points="931,-207.6838 931,-248.6838 1128,-248.6838 1128,-207.6838 931,-207.6838"/>
<text text-anchor="start" x="939" y="-236.6838" font-family="Helvetica,sans-Serif" font-size="10.00" fill="#000000">list&lt; lug::Graphics</text>
<text text-anchor="start" x="939" y="-225.6838" font-family="Helvetica,sans-Serif" font-size="10.00" fill="#000000">::Vulkan::API::Builder</text>
<text text-anchor="middle" x="1029.5" y="-214.6838" font-family="Helvetica,sans-Serif" font-size="10.00" fill="#000000">::RenderPass::SubpassResources &gt;</text>
</g>
<!-- Node3&#45;&gt;Node1 -->
<g id="edge2" class="edge">
<title>Node3&#45;&gt;Node1</title>
<path fill="none" stroke="#9a32cd" stroke-dasharray="5,2" d="M1138.2638,-212.2202C1176.168,-206.5985 1218.9726,-200.1847 1258,-194.1838 1263.8286,-193.2876 1269.858,-192.3515 1275.9202,-191.4038"/>
<polygon fill="#9a32cd" stroke="#9a32cd" points="1137.6048,-208.7796 1128.2258,-213.7075 1138.6308,-215.704 1137.6048,-208.7796"/>
<text text-anchor="middle" x="1202" y="-213.1838" font-family="Helvetica,sans-Serif" font-size="10.00" fill="#000000"> _subpassesResources</text>
</g>
<!-- Node4 -->
<g id="node4" class="node">
<title>Node4</title>
<polygon fill="none" stroke="#bfbfbf" points="944.5,-169.6838 944.5,-188.6838 1114.5,-188.6838 1114.5,-169.6838 944.5,-169.6838"/>
<text text-anchor="middle" x="1029.5" y="-176.6838" font-family="Helvetica,sans-Serif" font-size="10.00" fill="#000000">list&lt; VkSubpassDependency &gt;</text>
</g>
<!-- Node4&#45;&gt;Node1 -->
<g id="edge3" class="edge">
<title>Node4&#45;&gt;Node1</title>
<path fill="none" stroke="#9a32cd" stroke-dasharray="5,2" d="M1124.9067,-179.1838C1173.041,-179.1838 1230.6414,-179.1838 1275.8515,-179.1838"/>
<polygon fill="#9a32cd" stroke="#9a32cd" points="1124.787,-175.6839 1114.787,-179.1838 1124.7869,-182.6839 1124.787,-175.6839"/>
<text text-anchor="middle" x="1202" y="-182.1838" font-family="Helvetica,sans-Serif" font-size="10.00" fill="#000000"> _dependencies</text>
</g>
<!-- Node5 -->
<g id="node5" class="node">
<title>Node5</title>
<polygon fill="none" stroke="#bfbfbf" points="946.5,-131.6838 946.5,-150.6838 1112.5,-150.6838 1112.5,-131.6838 946.5,-131.6838"/>
<text text-anchor="middle" x="1029.5" y="-138.6838" font-family="Helvetica,sans-Serif" font-size="10.00" fill="#000000">list&lt; VkSubpassDescription &gt;</text>
</g>
<!-- Node5&#45;&gt;Node1 -->
<g id="edge4" class="edge">
<title>Node5&#45;&gt;Node1</title>
<path fill="none" stroke="#9a32cd" stroke-dasharray="5,2" d="M1122.7525,-149.3557C1164.2276,-153.303 1213.6183,-158.4326 1258,-164.1838 1263.8482,-164.9417 1269.8917,-165.7778 1275.9639,-166.6559"/>
<polygon fill="#9a32cd" stroke="#9a32cd" points="1122.9466,-145.8585 1112.662,-148.4037 1122.2891,-152.8276 1122.9466,-145.8585"/>
<text text-anchor="middle" x="1202" y="-167.1838" font-family="Helvetica,sans-Serif" font-size="10.00" fill="#000000"> _subpasses</text>
</g>
<!-- Node6 -->
<g id="node6" class="node">
<title>Node6</title>
<g id="a_node6"><a xlink:href="classlug_1_1Graphics_1_1Vulkan_1_1API_1_1Device.html" target="_top" xlink:title="lug::Graphics::Vulkan\l::API::Device">
<polygon fill="none" stroke="#000000" points="966,-82.1838 966,-112.1838 1093,-112.1838 1093,-82.1838 966,-82.1838"/>
<text text-anchor="start" x="974" y="-100.1838" font-family="Helvetica,sans-Serif" font-size="10.00" fill="#000000">lug::Graphics::Vulkan</text>
<text text-anchor="middle" x="1029.5" y="-89.1838" font-family="Helvetica,sans-Serif" font-size="10.00" fill="#000000">::API::Device</text>
</a>
</g>
</g>
<!-- Node6&#45;&gt;Node1 -->
<g id="edge5" class="edge">
<title>Node6&#45;&gt;Node1</title>
<path fill="none" stroke="#9a32cd" stroke-dasharray="5,2" d="M1103.0671,-105.404C1148.388,-111.6077 1207.3204,-121.7418 1258,-137.1838 1280.6698,-144.0913 1305.086,-155.0419 1323.4204,-164.0297"/>
<polygon fill="#9a32cd" stroke="#9a32cd" points="1103.4025,-101.9178 1093.0272,-104.0632 1102.4759,-108.8562 1103.4025,-101.9178"/>
<text text-anchor="middle" x="1202" y="-140.1838" font-family="Helvetica,sans-Serif" font-size="10.00" fill="#000000"> _device</text>
</g>
<!-- Node7 -->
<g id="node7" class="node">
<title>Node7</title>
<g id="a_node7"><a xlink:href="structlug_1_1Graphics_1_1Vulkan_1_1PhysicalDeviceInfo.html" target="_top" xlink:title="lug::Graphics::Vulkan\l::PhysicalDeviceInfo">
<polygon fill="none" stroke="#000000" points="642.5,-131.1838 642.5,-161.1838 769.5,-161.1838 769.5,-131.1838 642.5,-131.1838"/>
<text text-anchor="start" x="650.5" y="-149.1838" font-family="Helvetica,sans-Serif" font-size="10.00" fill="#000000">lug::Graphics::Vulkan</text>
<text text-anchor="middle" x="706" y="-138.1838" font-family="Helvetica,sans-Serif" font-size="10.00" fill="#000000">::PhysicalDeviceInfo</text>
</a>
</g>
</g>
<!-- Node7&#45;&gt;Node6 -->
<g id="edge6" class="edge">
<title>Node7&#45;&gt;Node6</title>
<path fill="none" stroke="#9a32cd" stroke-dasharray="5,2" d="M779.7628,-135.0111C835.9008,-126.508 912.3644,-114.9261 965.8421,-106.826"/>
<polygon fill="#9a32cd" stroke="#9a32cd" points="778.8902,-131.6032 769.5272,-136.5615 779.9386,-138.5243 778.8902,-131.6032"/>
<text text-anchor="middle" x="861" y="-133.1838" font-family="Helvetica,sans-Serif" font-size="10.00" fill="#000000"> _physicalDeviceInfo</text>
</g>
<!-- Node8 -->
<g id="node8" class="node">
<title>Node8</title>
<g id="a_node8"><a xlink:href="structlug_1_1Graphics_1_1Vulkan_1_1PhysicalDeviceInfo_1_1Swapchain.html" target="_top" xlink:title="lug::Graphics::Vulkan\l::PhysicalDeviceInfo\l::Swapchain">
<polygon fill="none" stroke="#000000" points="324.5,-281.6838 324.5,-322.6838 451.5,-322.6838 451.5,-281.6838 324.5,-281.6838"/>
<text text-anchor="start" x="332.5" y="-310.6838" font-family="Helvetica,sans-Serif" font-size="10.00" fill="#000000">lug::Graphics::Vulkan</text>
<text text-anchor="start" x="332.5" y="-299.6838" font-family="Helvetica,sans-Serif" font-size="10.00" fill="#000000">::PhysicalDeviceInfo</text>
<text text-anchor="middle" x="388" y="-288.6838" font-family="Helvetica,sans-Serif" font-size="10.00" fill="#000000">::Swapchain</text>
</a>
</g>
</g>
<!-- Node8&#45;&gt;Node7 -->
<g id="edge7" class="edge">
<title>Node8&#45;&gt;Node7</title>
<path fill="none" stroke="#9a32cd" stroke-dasharray="5,2" d="M461.6295,-290.6788C504.7948,-281.782 559.2582,-266.7196 603,-242.1838 641.1623,-220.7777 676.3144,-182.3716 694.0081,-161.2046"/>
<polygon fill="#9a32cd" stroke="#9a32cd" points="460.881,-287.259 451.7585,-292.6471 462.2499,-294.1239 460.881,-287.259"/>
<text text-anchor="middle" x="554.5" y="-282.1838" font-family="Helvetica,sans-Serif" font-size="10.00" fill="#000000"> swapchain</text>
</g>
<!-- Node9 -->
<g id="node9" class="node">
<title>Node9</title>
<polygon fill="none" stroke="#bfbfbf" points="16.5,-330.6838 16.5,-349.6838 162.5,-349.6838 162.5,-330.6838 16.5,-330.6838"/>
<text text-anchor="middle" x="89.5" y="-337.6838" font-family="Helvetica,sans-Serif" font-size="10.00" fill="#000000">VkSurfaceCapabilitiesKHR</text>
</g>
<!-- Node9&#45;&gt;Node8 -->
<g id="edge8" class="edge">
<title>Node9&#45;&gt;Node8</title>
<path fill="none" stroke="#9a32cd" stroke-dasharray="5,2" d="M172.5828,-329.6071C220.5932,-323.4952 280.0566,-315.9254 324.3375,-310.2882"/>
<polygon fill="#9a32cd" stroke="#9a32cd" points="171.9992,-326.1531 162.5213,-330.888 172.8833,-333.097 171.9992,-326.1531"/>
<text text-anchor="middle" x="233.5" y="-328.1838" font-family="Helvetica,sans-Serif" font-size="10.00" fill="#000000"> capabilities</text>
</g>
<!-- Node10 -->
<g id="node10" class="node">
<title>Node10</title>
<polygon fill="none" stroke="#bfbfbf" points="0,-292.6838 0,-311.6838 179,-311.6838 179,-292.6838 0,-292.6838"/>
<text text-anchor="middle" x="89.5" y="-299.6838" font-family="Helvetica,sans-Serif" font-size="10.00" fill="#000000">vector&lt; VkSurfaceFormatKHR &gt;</text>
</g>
<!-- Node10&#45;&gt;Node8 -->
<g id="edge9" class="edge">
<title>Node10&#45;&gt;Node8</title>
<path fill="none" stroke="#9a32cd" stroke-dasharray="5,2" d="M189.3241,-302.1838C233.799,-302.1838 284.8747,-302.1838 324.1016,-302.1838"/>
<polygon fill="#9a32cd" stroke="#9a32cd" points="189.0599,-298.6839 179.0598,-302.1838 189.0598,-305.6839 189.0599,-298.6839"/>
<text text-anchor="middle" x="233.5" y="-305.1838" font-family="Helvetica,sans-Serif" font-size="10.00" fill="#000000"> formats</text>
</g>
<!-- Node11 -->
<g id="node11" class="node">
<title>Node11</title>
<polygon fill="none" stroke="#bfbfbf" points="4.5,-254.6838 4.5,-273.6838 174.5,-273.6838 174.5,-254.6838 4.5,-254.6838"/>
<text text-anchor="middle" x="89.5" y="-261.6838" font-family="Helvetica,sans-Serif" font-size="10.00" fill="#000000">vector&lt; VkPresentModeKHR &gt;</text>
</g>
<!-- Node11&#45;&gt;Node8 -->
<g id="edge10" class="edge">
<title>Node11&#45;&gt;Node8</title>
<path fill="none" stroke="#9a32cd" stroke-dasharray="5,2" d="M174.4265,-274.9952C222.0428,-281.0569 280.4605,-288.4937 324.1567,-294.0564"/>
<polygon fill="#9a32cd" stroke="#9a32cd" points="174.8008,-271.5147 164.4389,-273.7238 173.9168,-278.4587 174.8008,-271.5147"/>
<text text-anchor="middle" x="233.5" y="-289.1838" font-family="Helvetica,sans-Serif" font-size="10.00" fill="#000000"> presentModes</text>
</g>
<!-- Node12 -->
<g id="node12" class="node">
<title>Node12</title>
<polygon fill="none" stroke="#bfbfbf" points="308.5,-232.1838 308.5,-262.1838 467.5,-262.1838 467.5,-232.1838 308.5,-232.1838"/>
<text text-anchor="start" x="316.5" y="-250.1838" font-family="Helvetica,sans-Serif" font-size="10.00" fill="#000000">unordered_map&lt; VkFormat,</text>
<text text-anchor="middle" x="388" y="-239.1838" font-family="Helvetica,sans-Serif" font-size="10.00" fill="#000000"> VkFormatProperties &gt;</text>
</g>
<!-- Node12&#45;&gt;Node7 -->
<g id="edge11" class="edge">
<title>Node12&#45;&gt;Node7</title>
<path fill="none" stroke="#9a32cd" stroke-dasharray="5,2" d="M477.7382,-234.4273C516.9352,-227.3278 562.9918,-216.8857 603,-202.1838 631.8484,-191.5828 662.5,-174.0044 682.7908,-161.368"/>
<polygon fill="#9a32cd" stroke="#9a32cd" points="476.9054,-231.0201 467.6664,-236.2059 478.1227,-237.9135 476.9054,-231.0201"/>
<text text-anchor="middle" x="554.5" y="-230.1838" font-family="Helvetica,sans-Serif" font-size="10.00" fill="#000000"> formatProperties</text>
</g>
<!-- Node13 -->
<g id="node13" class="node">
<title>Node13</title>
<polygon fill="none" stroke="#bfbfbf" points="315,-193.6838 315,-212.6838 461,-212.6838 461,-193.6838 315,-193.6838"/>
<text text-anchor="middle" x="388" y="-200.6838" font-family="Helvetica,sans-Serif" font-size="10.00" fill="#000000">VkPhysicalDeviceFeatures</text>
</g>
<!-- Node13&#45;&gt;Node7 -->
<g id="edge12" class="edge">
<title>Node13&#45;&gt;Node7</title>
<path fill="none" stroke="#9a32cd" stroke-dasharray="5,2" d="M471.4332,-193.2091C511.4044,-187.907 559.8563,-180.7154 603,-172.1838 618.65,-169.089 635.4836,-165.1172 650.9141,-161.2144"/>
<polygon fill="#9a32cd" stroke="#9a32cd" points="470.9225,-189.746 461.4622,-194.516 471.8322,-196.6866 470.9225,-189.746"/>
<text text-anchor="middle" x="554.5" y="-190.1838" font-family="Helvetica,sans-Serif" font-size="10.00" fill="#000000"> features</text>
</g>
<!-- Node14 -->
<g id="node14" class="node">
<title>Node14</title>
<polygon fill="none" stroke="#bfbfbf" points="288,-155.6838 288,-174.6838 488,-174.6838 488,-155.6838 288,-155.6838"/>
<text text-anchor="middle" x="388" y="-162.6838" font-family="Helvetica,sans-Serif" font-size="10.00" fill="#000000">vector&lt; VkQueueFamilyProperties &gt;</text>
</g>
<!-- Node14&#45;&gt;Node7 -->
<g id="edge13" class="edge">
<title>Node14&#45;&gt;Node7</title>
<path fill="none" stroke="#9a32cd" stroke-dasharray="5,2" d="M498.3415,-158.5911C546.4596,-155.7161 601.1572,-152.448 642.3325,-149.9878"/>
<polygon fill="#9a32cd" stroke="#9a32cd" points="497.9541,-155.1079 488.1807,-159.1982 498.3717,-162.0954 497.9541,-155.1079"/>
<text text-anchor="middle" x="554.5" y="-160.1838" font-family="Helvetica,sans-Serif" font-size="10.00" fill="#000000"> queueFamilies</text>
</g>
<!-- Node15 -->
<g id="node15" class="node">
<title>Node15</title>
<polygon fill="none" stroke="#bfbfbf" points="290.5,-117.6838 290.5,-136.6838 485.5,-136.6838 485.5,-117.6838 290.5,-117.6838"/>
<text text-anchor="middle" x="388" y="-124.6838" font-family="Helvetica,sans-Serif" font-size="10.00" fill="#000000">VkPhysicalDeviceMemoryProperties</text>
</g>
<!-- Node15&#45;&gt;Node7 -->
<g id="edge14" class="edge">
<title>Node15&#45;&gt;Node7</title>
<path fill="none" stroke="#9a32cd" stroke-dasharray="5,2" d="M495.751,-131.3357C530.0489,-132.8876 568.1331,-134.8506 603,-137.1838 615.7161,-138.0347 629.3015,-139.1059 642.2958,-140.2098"/>
<polygon fill="#9a32cd" stroke="#9a32cd" points="495.8574,-127.837 485.7115,-130.8881 495.5457,-134.8301 495.8574,-127.837"/>
<text text-anchor="middle" x="554.5" y="-140.1838" font-family="Helvetica,sans-Serif" font-size="10.00" fill="#000000"> memoryProperties</text>
</g>
<!-- Node16 -->
<g id="node16" class="node">
<title>Node16</title>
<polygon fill="none" stroke="#bfbfbf" points="336,-79.6838 336,-98.6838 440,-98.6838 440,-79.6838 336,-79.6838"/>
<text text-anchor="middle" x="388" y="-86.6838" font-family="Helvetica,sans-Serif" font-size="10.00" fill="#000000">VkPhysicalDevice</text>
</g>
<!-- Node16&#45;&gt;Node7 -->
<g id="edge15" class="edge">
<title>Node16&#45;&gt;Node7</title>
<path fill="none" stroke="#9a32cd" stroke-dasharray="5,2" d="M450.2805,-93.7412C493.51,-97.6971 552.2261,-104.6516 603,-116.1838 611.2233,-118.0516 612.9401,-119.7041 621,-122.1838 630.6729,-125.1598 641.008,-128.1965 651.0208,-131.0648"/>
<polygon fill="#9a32cd" stroke="#9a32cd" points="450.4643,-90.2439 440.1942,-92.8468 449.8459,-97.2165 450.4643,-90.2439"/>
<text text-anchor="middle" x="554.5" y="-119.1838" font-family="Helvetica,sans-Serif" font-size="10.00" fill="#000000"> handle</text>
</g>
<!-- Node17 -->
<g id="node17" class="node">
<title>Node17</title>
<polygon fill="none" stroke="#bfbfbf" points="310.5,-41.6838 310.5,-60.6838 465.5,-60.6838 465.5,-41.6838 310.5,-41.6838"/>
<text text-anchor="middle" x="388" y="-48.6838" font-family="Helvetica,sans-Serif" font-size="10.00" fill="#000000">VkPhysicalDeviceProperties</text>
</g>
<!-- Node17&#45;&gt;Node7 -->
<g id="edge16" class="edge">
<title>Node17&#45;&gt;Node7</title>
<path fill="none" stroke="#9a32cd" stroke-dasharray="5,2" d="M475.8296,-46.9826C517.9094,-49.2009 566.8779,-58.4334 603,-85.1838 617.6961,-96.0671 606.9733,-110.4505 621,-122.1838 627.2336,-127.3982 634.5294,-131.4822 642.1803,-134.6804"/>
<polygon fill="#9a32cd" stroke="#9a32cd" points="475.7048,-43.4749 465.5725,-46.5711 475.4241,-50.4693 475.7048,-43.4749"/>
<text text-anchor="middle" x="554.5" y="-88.1838" font-family="Helvetica,sans-Serif" font-size="10.00" fill="#000000"> properties</text>
</g>
<!-- Node18 -->
<g id="node18" class="node">
<title>Node18</title>
<polygon fill="none" stroke="#bfbfbf" points="296,-3.6838 296,-22.6838 480,-22.6838 480,-3.6838 296,-3.6838"/>
<text text-anchor="middle" x="388" y="-10.6838" font-family="Helvetica,sans-Serif" font-size="10.00" fill="#000000">vector&lt; VkExtensionProperties &gt;</text>
</g>
<!-- Node18&#45;&gt;Node7 -->
<g id="edge17" class="edge">
<title>Node18&#45;&gt;Node7</title>
<path fill="none" stroke="#9a32cd" stroke-dasharray="5,2" d="M445.8399,-2.3983C493.9201,3.0143 561.0321,1.7934 603,-36.1838 631.9552,-62.3857 594.3541,-93.6367 621,-122.1838 626.8593,-128.4612 634.2225,-133.1406 642.1513,-136.6209"/>
<polygon fill="#9a32cd" stroke="#9a32cd" points="445.3733,1.0707 435.8849,-3.6431 446.2419,-5.8752 445.3733,1.0707"/>
<text text-anchor="middle" x="554.5" y="-39.1838" font-family="Helvetica,sans-Serif" font-size="10.00" fill="#000000"> extensions</text>
</g>
<!-- Node19 -->
<g id="node19" class="node">
<title>Node19</title>
<polygon fill="none" stroke="#bfbfbf" points="621,-82.1838 621,-112.1838 791,-112.1838 791,-82.1838 621,-82.1838"/>
<text text-anchor="start" x="629" y="-100.1838" font-family="Helvetica,sans-Serif" font-size="10.00" fill="#000000">vector&lt; lug::Graphics</text>
<text text-anchor="middle" x="706" y="-89.1838" font-family="Helvetica,sans-Serif" font-size="10.00" fill="#000000">::Vulkan::API::QueueFamily &gt;</text>
</g>
<!-- Node19&#45;&gt;Node6 -->
<g id="edge18" class="edge">
<title>Node19&#45;&gt;Node6</title>
<path fill="none" stroke="#9a32cd" stroke-dasharray="5,2" d="M801.5233,-97.1838C854.5639,-97.1838 919.0887,-97.1838 965.9363,-97.1838"/>
<polygon fill="#9a32cd" stroke="#9a32cd" points="801.419,-93.6839 791.419,-97.1838 801.4189,-100.6839 801.419,-93.6839"/>
<text text-anchor="middle" x="861" y="-100.1838" font-family="Helvetica,sans-Serif" font-size="10.00" fill="#000000"> _queueFamilies</text>
</g>
<!-- Node20 -->
<g id="node20" class="node">
<title>Node20</title>
<polygon fill="none" stroke="#bfbfbf" points="674.5,-43.6838 674.5,-62.6838 737.5,-62.6838 737.5,-43.6838 674.5,-43.6838"/>
<text text-anchor="middle" x="706" y="-50.6838" font-family="Helvetica,sans-Serif" font-size="10.00" fill="#000000">VkDevice</text>
</g>
<!-- Node20&#45;&gt;Node6 -->
<g id="edge19" class="edge">
<title>Node20&#45;&gt;Node6</title>
<path fill="none" stroke="#9a32cd" stroke-dasharray="5,2" d="M747.7554,-58.8631C803.1072,-66.3916 901.2945,-79.7463 965.8967,-88.533"/>
<polygon fill="#9a32cd" stroke="#9a32cd" points="747.9881,-55.3626 737.6076,-57.4828 747.0446,-62.2987 747.9881,-55.3626"/>
<text text-anchor="middle" x="861" y="-84.1838" font-family="Helvetica,sans-Serif" font-size="10.00" fill="#000000"> _device</text>
</g>
</g>
</svg>
        <g id="navigator" transform="translate(0 0)" fill="#404254">
                <rect fill="#f2f5e9" fill-opacity="0.5" stroke="#606060" stroke-width=".5" x="0" y="0" width="60" height="60"/>
                <use id="zoomplus" xlink:href="#zoomPlus" x="17" y="9" onmousedown="handleZoom(evt,'in')"/>
                <use id="zoomminus" xlink:href="#zoomMin" x="42" y="9" onmousedown="handleZoom(evt,'out')"/>
                <use id="reset" xlink:href="#resetDef" x="30" y="36" onmousedown="handleReset()"/>
                <g id="arrowUp" xlink:href="#dirArrow" transform="translate(30 24)" onmousedown="handlePan(0,-1)">
                  <use xlink:href="#rim" fill="#404040">
                        <set attributeName="fill" to="#808080" begin="arrowUp.mouseover" end="arrowUp.mouseout"/>
                  </use>
                  <path fill="none" stroke="white" stroke-width="1.5" d="M0,-3.0v7 M-2.5,-0.5L0,-3.0L2.5,-0.5"/>
                </g>
                <g id="arrowRight" xlink:href="#dirArrow" transform="rotate(90) translate(36 -43)" onmousedown="handlePan(1,0)">
                  <use xlink:href="#rim" fill="#404040">
                        <set attributeName="fill" to="#808080" begin="arrowRight.mouseover" end="arrowRight.mouseout"/>
                  </use>
                  <path fill="none" stroke="white" stroke-width="1.5" d="M0,-3.0v7 M-2.5,-0.5L0,-3.0L2.5,-0.5"/>
                </g>
                <g id="arrowDown" xlink:href="#dirArrow" transform="rotate(180) translate(-30 -48)" onmousedown="handlePan(0,1)">
                  <use xlink:href="#rim" fill="#404040">
                        <set attributeName="fill" to="#808080" begin="arrowDown.mouseover" end="arrowDown.mouseout"/>
                  </use>
                  <path fill="none" stroke="white" stroke-width="1.5" d="M0,-3.0v7 M-2.5,-0.5L0,-3.0L2.5,-0.5"/>
                </g>
                <g id="arrowLeft" xlink:href="#dirArrow" transform="rotate(270) translate(-36 17)" onmousedown="handlePan(-1,0)">
                  <use xlink:href="#rim" fill="#404040">
                        <set attributeName="fill" to="#808080" begin="arrowLeft.mouseover" end="arrowLeft.mouseout"/>
                  </use>
                  <path fill="none" stroke="white" stroke-width="1.5" d="M0,-3.0v7 M-2.5,-0.5L0,-3.0L2.5,-0.5"/>
                </g>
        </g>
        <svg viewBox="0 0 15 15" width="100%" height="30px" preserveAspectRatio="xMaxYMin meet">
         <g id="arrow_out" transform="scale(0.3 0.3)">
          <a xlink:href="classlug_1_1Graphics_1_1Vulkan_1_1API_1_1Builder_1_1RenderPass__coll__graph_org.svg" target="_base">
           <rect id="button" ry="5" rx="5" y="6" x="6" height="38" width="38"
                fill="#f2f5e9" fill-opacity="0.5" stroke="#606060" stroke-width="1.0"/>
           <path id="arrow"
             d="M 11.500037,31.436501 C 11.940474,20.09759 22.043105,11.32322 32.158766,21.979434 L 37.068811,17.246167 C 37.068811,17.246167 37.088388,32 37.088388,32 L 22.160133,31.978069 C 22.160133,31.978069 26.997745,27.140456 26.997745,27.140456 C 18.528582,18.264221 13.291696,25.230495 11.500037,31.436501 z"
             style="fill:#404040;"/>
          </a>
         </g>
        </svg>
</svg>
