<?xml version="1.0" encoding="UTF-8" standalone="no"?>
<!DOCTYPE svg PUBLIC "-//W3C//DTD SVG 1.1//EN"
 "http://www.w3.org/Graphics/SVG/1.1/DTD/svg11.dtd">
<!-- Generated by graphviz version 2.40.1 (20161225.0304)
 -->
<!-- Title: lug::Graphics::Vulkan::API::Builder::DescriptorSet Pages: 1 -->
<svg width="1685pt" height="359pt"
 viewBox="0.00 0.00 1685.00 359.00" xmlns="http://www.w3.org/2000/svg" xmlns:xlink="http://www.w3.org/1999/xlink">
<g id="graph0" class="graph" transform="scale(1 1) rotate(0) translate(4 355)">
<title>lug::Graphics::Vulkan::API::Builder::DescriptorSet</title>
<!-- Node1 -->
<g id="node1" class="node">
<title>Node1</title>
<polygon fill="#bfbfbf" stroke="#000000" points="1513,-39 1513,-69 1677,-69 1677,-39 1513,-39"/>
<text text-anchor="start" x="1521" y="-57" font-family="Helvetica,sans-Serif" font-size="10.00" fill="#000000">lug::Graphics::Vulkan</text>
<text text-anchor="middle" x="1595" y="-46" font-family="Helvetica,sans-Serif" font-size="10.00" fill="#000000">::API::Builder::DescriptorSet</text>
</g>
<!-- Node2 -->
<g id="node2" class="node">
<title>Node2</title>
<g id="a_node2"><a xlink:href="classlug_1_1Graphics_1_1Vulkan_1_1API_1_1DescriptorPool.html" target="_top" xlink:title="lug::Graphics::Vulkan\l::API::DescriptorPool">
<polygon fill="none" stroke="#000000" points="1205.5,-39 1205.5,-69 1332.5,-69 1332.5,-39 1205.5,-39"/>
<text text-anchor="start" x="1213.5" y="-57" font-family="Helvetica,sans-Serif" font-size="10.00" fill="#000000">lug::Graphics::Vulkan</text>
<text text-anchor="middle" x="1269" y="-46" font-family="Helvetica,sans-Serif" font-size="10.00" fill="#000000">::API::DescriptorPool</text>
</a>
</g>
</g>
<!-- Node2&#45;&gt;Node1 -->
<g id="edge1" class="edge">
<title>Node2&#45;&gt;Node1</title>
<path fill="none" stroke="#9a32cd" stroke-dasharray="5,2" d="M1342.847,-54C1393.4721,-54 1460.669,-54 1512.9633,-54"/>
<polygon fill="#9a32cd" stroke="#9a32cd" points="1342.63,-50.5001 1332.63,-54 1342.6299,-57.5001 1342.63,-50.5001"/>
<text text-anchor="middle" x="1437.5" y="-57" font-family="Helvetica,sans-Serif" font-size="10.00" fill="#000000"> _descriptorPool</text>
</g>
<!-- Node3 -->
<g id="node3" class="node">
<title>Node3</title>
<g id="a_node3"><a xlink:href="classlug_1_1Graphics_1_1Vulkan_1_1API_1_1Device.html" target="_top" xlink:title="lug::Graphics::Vulkan\l::API::Device">
<polygon fill="none" stroke="#000000" points="931,-83 931,-113 1058,-113 1058,-83 931,-83"/>
<text text-anchor="start" x="939" y="-101" font-family="Helvetica,sans-Serif" font-size="10.00" fill="#000000">lug::Graphics::Vulkan</text>
<text text-anchor="middle" x="994.5" y="-90" font-family="Helvetica,sans-Serif" font-size="10.00" fill="#000000">::API::Device</text>
</a>
</g>
</g>
<!-- Node3&#45;&gt;Node1 -->
<g id="edge19" class="edge">
<title>Node3&#45;&gt;Node1</title>
<path fill="none" stroke="#9a32cd" stroke-dasharray="5,2" d="M1068.3695,-96.2174C1166.2038,-93.2858 1344.0073,-85.9774 1495,-69 1500.8442,-68.3429 1506.8713,-67.6009 1512.9333,-66.8075"/>
<polygon fill="#9a32cd" stroke="#9a32cd" points="1068.1811,-92.7213 1058.2878,-96.5124 1068.386,-99.7183 1068.1811,-92.7213"/>
<text text-anchor="middle" x="1269" y="-94" font-family="Helvetica,sans-Serif" font-size="10.00" fill="#000000"> _device</text>
</g>
<!-- Node3&#45;&gt;Node2 -->
<g id="edge2" class="edge">
<title>Node3&#45;&gt;Node2</title>
<path fill="none" stroke="#9a32cd" stroke-dasharray="5,2" d="M1067.9483,-82.4437C1070.6638,-81.9436 1073.3545,-81.4604 1076,-81 1118.9985,-73.5164 1167.6694,-66.719 1205.3778,-61.8165"/>
<polygon fill="#9a32cd" stroke="#9a32cd" points="1067.2187,-79.0195 1058.0442,-84.3186 1068.5208,-85.8974 1067.2187,-79.0195"/>
<text text-anchor="middle" x="1117" y="-84" font-family="Helvetica,sans-Serif" font-size="10.00" fill="#000000"> _device</text>
</g>
<!-- Node4 -->
<g id="node4" class="node">
<title>Node4</title>
<g id="a_node4"><a xlink:href="structlug_1_1Graphics_1_1Vulkan_1_1PhysicalDeviceInfo.html" target="_top" xlink:title="lug::Graphics::Vulkan\l::PhysicalDeviceInfo">
<polygon fill="none" stroke="#000000" points="642.5,-132 642.5,-162 769.5,-162 769.5,-132 642.5,-132"/>
<text text-anchor="start" x="650.5" y="-150" font-family="Helvetica,sans-Serif" font-size="10.00" fill="#000000">lug::Graphics::Vulkan</text>
<text text-anchor="middle" x="706" y="-139" font-family="Helvetica,sans-Serif" font-size="10.00" fill="#000000">::PhysicalDeviceInfo</text>
</a>
</g>
</g>
<!-- Node4&#45;&gt;Node3 -->
<g id="edge3" class="edge">
<title>Node4&#45;&gt;Node3</title>
<path fill="none" stroke="#9a32cd" stroke-dasharray="5,2" d="M780.0102,-135.1973C819.5121,-128.8086 868.937,-120.6728 913,-113 918.8112,-111.9881 924.8515,-110.9155 930.8984,-109.8277"/>
<polygon fill="#9a32cd" stroke="#9a32cd" points="779.2445,-131.7756 769.9301,-136.8246 780.3601,-138.6861 779.2445,-131.7756"/>
<text text-anchor="middle" x="861" y="-133" font-family="Helvetica,sans-Serif" font-size="10.00" fill="#000000"> _physicalDeviceInfo</text>
</g>
<!-- Node5 -->
<g id="node5" class="node">
<title>Node5</title>
<g id="a_node5"><a xlink:href="structlug_1_1Graphics_1_1Vulkan_1_1PhysicalDeviceInfo_1_1Swapchain.html" target="_top" xlink:title="lug::Graphics::Vulkan\l::PhysicalDeviceInfo\l::Swapchain">
<polygon fill="none" stroke="#000000" points="324.5,-282.5 324.5,-323.5 451.5,-323.5 451.5,-282.5 324.5,-282.5"/>
<text text-anchor="start" x="332.5" y="-311.5" font-family="Helvetica,sans-Serif" font-size="10.00" fill="#000000">lug::Graphics::Vulkan</text>
<text text-anchor="start" x="332.5" y="-300.5" font-family="Helvetica,sans-Serif" font-size="10.00" fill="#000000">::PhysicalDeviceInfo</text>
<text text-anchor="middle" x="388" y="-289.5" font-family="Helvetica,sans-Serif" font-size="10.00" fill="#000000">::Swapchain</text>
</a>
</g>
</g>
<!-- Node5&#45;&gt;Node4 -->
<g id="edge4" class="edge">
<title>Node5&#45;&gt;Node4</title>
<path fill="none" stroke="#9a32cd" stroke-dasharray="5,2" d="M461.6295,-291.495C504.7948,-282.5982 559.2582,-267.5358 603,-243 641.1623,-221.5939 676.3144,-183.1878 694.0081,-162.0208"/>
<polygon fill="#9a32cd" stroke="#9a32cd" points="460.881,-288.0752 451.7585,-293.4633 462.2499,-294.9401 460.881,-288.0752"/>
<text text-anchor="middle" x="554.5" y="-283" font-family="Helvetica,sans-Serif" font-size="10.00" fill="#000000"> swapchain</text>
</g>
<!-- Node6 -->
<g id="node6" class="node">
<title>Node6</title>
<polygon fill="none" stroke="#bfbfbf" points="16.5,-331.5 16.5,-350.5 162.5,-350.5 162.5,-331.5 16.5,-331.5"/>
<text text-anchor="middle" x="89.5" y="-338.5" font-family="Helvetica,sans-Serif" font-size="10.00" fill="#000000">VkSurfaceCapabilitiesKHR</text>
</g>
<!-- Node6&#45;&gt;Node5 -->
<g id="edge5" class="edge">
<title>Node6&#45;&gt;Node5</title>
<path fill="none" stroke="#9a32cd" stroke-dasharray="5,2" d="M172.5828,-330.4233C220.5932,-324.3114 280.0566,-316.7415 324.3375,-311.1044"/>
<polygon fill="#9a32cd" stroke="#9a32cd" points="171.9992,-326.9692 162.5213,-331.7042 172.8833,-333.9132 171.9992,-326.9692"/>
<text text-anchor="middle" x="233.5" y="-329" font-family="Helvetica,sans-Serif" font-size="10.00" fill="#000000"> capabilities</text>
</g>
<!-- Node7 -->
<g id="node7" class="node">
<title>Node7</title>
<polygon fill="none" stroke="#bfbfbf" points="0,-293.5 0,-312.5 179,-312.5 179,-293.5 0,-293.5"/>
<text text-anchor="middle" x="89.5" y="-300.5" font-family="Helvetica,sans-Serif" font-size="10.00" fill="#000000">vector&lt; VkSurfaceFormatKHR &gt;</text>
</g>
<!-- Node7&#45;&gt;Node5 -->
<g id="edge6" class="edge">
<title>Node7&#45;&gt;Node5</title>
<path fill="none" stroke="#9a32cd" stroke-dasharray="5,2" d="M189.3241,-303C233.799,-303 284.8747,-303 324.1016,-303"/>
<polygon fill="#9a32cd" stroke="#9a32cd" points="189.0599,-299.5001 179.0598,-303 189.0598,-306.5001 189.0599,-299.5001"/>
<text text-anchor="middle" x="233.5" y="-306" font-family="Helvetica,sans-Serif" font-size="10.00" fill="#000000"> formats</text>
</g>
<!-- Node8 -->
<g id="node8" class="node">
<title>Node8</title>
<polygon fill="none" stroke="#bfbfbf" points="4.5,-255.5 4.5,-274.5 174.5,-274.5 174.5,-255.5 4.5,-255.5"/>
<text text-anchor="middle" x="89.5" y="-262.5" font-family="Helvetica,sans-Serif" font-size="10.00" fill="#000000">vector&lt; VkPresentModeKHR &gt;</text>
</g>
<!-- Node8&#45;&gt;Node5 -->
<g id="edge7" class="edge">
<title>Node8&#45;&gt;Node5</title>
<path fill="none" stroke="#9a32cd" stroke-dasharray="5,2" d="M174.4265,-275.8114C222.0428,-281.8731 280.4605,-289.3099 324.1567,-294.8725"/>
<polygon fill="#9a32cd" stroke="#9a32cd" points="174.8008,-272.3309 164.4389,-274.54 173.9168,-279.2749 174.8008,-272.3309"/>
<text text-anchor="middle" x="233.5" y="-290" font-family="Helvetica,sans-Serif" font-size="10.00" fill="#000000"> presentModes</text>
</g>
<!-- Node9 -->
<g id="node9" class="node">
<title>Node9</title>
<polygon fill="none" stroke="#bfbfbf" points="308.5,-233 308.5,-263 467.5,-263 467.5,-233 308.5,-233"/>
<text text-anchor="start" x="316.5" y="-251" font-family="Helvetica,sans-Serif" font-size="10.00" fill="#000000">unordered_map&lt; VkFormat,</text>
<text text-anchor="middle" x="388" y="-240" font-family="Helvetica,sans-Serif" font-size="10.00" fill="#000000"> VkFormatProperties &gt;</text>
</g>
<!-- Node9&#45;&gt;Node4 -->
<g id="edge8" class="edge">
<title>Node9&#45;&gt;Node4</title>
<path fill="none" stroke="#9a32cd" stroke-dasharray="5,2" d="M477.7382,-235.2435C516.9352,-228.144 562.9918,-217.7019 603,-203 631.8484,-192.399 662.5,-174.8206 682.7908,-162.1842"/>
<polygon fill="#9a32cd" stroke="#9a32cd" points="476.9054,-231.8363 467.6664,-237.0221 478.1227,-238.7297 476.9054,-231.8363"/>
<text text-anchor="middle" x="554.5" y="-231" font-family="Helvetica,sans-Serif" font-size="10.00" fill="#000000"> formatProperties</text>
</g>
<!-- Node10 -->
<g id="node10" class="node">
<title>Node10</title>
<polygon fill="none" stroke="#bfbfbf" points="315,-194.5 315,-213.5 461,-213.5 461,-194.5 315,-194.5"/>
<text text-anchor="middle" x="388" y="-201.5" font-family="Helvetica,sans-Serif" font-size="10.00" fill="#000000">VkPhysicalDeviceFeatures</text>
</g>
<!-- Node10&#45;&gt;Node4 -->
<g id="edge9" class="edge">
<title>Node10&#45;&gt;Node4</title>
<path fill="none" stroke="#9a32cd" stroke-dasharray="5,2" d="M471.4332,-194.0252C511.4044,-188.7232 559.8563,-181.5316 603,-173 618.65,-169.9052 635.4836,-165.9334 650.9141,-162.0306"/>
<polygon fill="#9a32cd" stroke="#9a32cd" points="470.9225,-190.5622 461.4622,-195.3322 471.8322,-197.5028 470.9225,-190.5622"/>
<text text-anchor="middle" x="554.5" y="-191" font-family="Helvetica,sans-Serif" font-size="10.00" fill="#000000"> features</text>
</g>
<!-- Node11 -->
<g id="node11" class="node">
<title>Node11</title>
<polygon fill="none" stroke="#bfbfbf" points="288,-156.5 288,-175.5 488,-175.5 488,-156.5 288,-156.5"/>
<text text-anchor="middle" x="388" y="-163.5" font-family="Helvetica,sans-Serif" font-size="10.00" fill="#000000">vector&lt; VkQueueFamilyProperties &gt;</text>
</g>
<!-- Node11&#45;&gt;Node4 -->
<g id="edge10" class="edge">
<title>Node11&#45;&gt;Node4</title>
<path fill="none" stroke="#9a32cd" stroke-dasharray="5,2" d="M498.3415,-159.4073C546.4596,-156.5323 601.1572,-153.2642 642.3325,-150.804"/>
<polygon fill="#9a32cd" stroke="#9a32cd" points="497.9541,-155.9241 488.1807,-160.0144 498.3717,-162.9116 497.9541,-155.9241"/>
<text text-anchor="middle" x="554.5" y="-161" font-family="Helvetica,sans-Serif" font-size="10.00" fill="#000000"> queueFamilies</text>
</g>
<!-- Node12 -->
<g id="node12" class="node">
<title>Node12</title>
<polygon fill="none" stroke="#bfbfbf" points="290.5,-118.5 290.5,-137.5 485.5,-137.5 485.5,-118.5 290.5,-118.5"/>
<text text-anchor="middle" x="388" y="-125.5" font-family="Helvetica,sans-Serif" font-size="10.00" fill="#000000">VkPhysicalDeviceMemoryProperties</text>
</g>
<!-- Node12&#45;&gt;Node4 -->
<g id="edge11" class="edge">
<title>Node12&#45;&gt;Node4</title>
<path fill="none" stroke="#9a32cd" stroke-dasharray="5,2" d="M495.751,-132.1518C530.0489,-133.7038 568.1331,-135.6668 603,-138 615.7161,-138.8509 629.3015,-139.9221 642.2958,-141.026"/>
<polygon fill="#9a32cd" stroke="#9a32cd" points="495.8574,-128.6532 485.7115,-131.7043 495.5457,-135.6463 495.8574,-128.6532"/>
<text text-anchor="middle" x="554.5" y="-141" font-family="Helvetica,sans-Serif" font-size="10.00" fill="#000000"> memoryProperties</text>
</g>
<!-- Node13 -->
<g id="node13" class="node">
<title>Node13</title>
<polygon fill="none" stroke="#bfbfbf" points="336,-80.5 336,-99.5 440,-99.5 440,-80.5 336,-80.5"/>
<text text-anchor="middle" x="388" y="-87.5" font-family="Helvetica,sans-Serif" font-size="10.00" fill="#000000">VkPhysicalDevice</text>
</g>
<!-- Node13&#45;&gt;Node4 -->
<g id="edge12" class="edge">
<title>Node13&#45;&gt;Node4</title>
<path fill="none" stroke="#9a32cd" stroke-dasharray="5,2" d="M450.2805,-94.5574C493.51,-98.5133 552.2261,-105.4678 603,-117 611.2233,-118.8677 612.9401,-120.5203 621,-123 630.6729,-125.976 641.008,-129.0127 651.0208,-131.881"/>
<polygon fill="#9a32cd" stroke="#9a32cd" points="450.4643,-91.0601 440.1942,-93.663 449.8459,-98.0327 450.4643,-91.0601"/>
<text text-anchor="middle" x="554.5" y="-120" font-family="Helvetica,sans-Serif" font-size="10.00" fill="#000000"> handle</text>
</g>
<!-- Node14 -->
<g id="node14" class="node">
<title>Node14</title>
<polygon fill="none" stroke="#bfbfbf" points="310.5,-42.5 310.5,-61.5 465.5,-61.5 465.5,-42.5 310.5,-42.5"/>
<text text-anchor="middle" x="388" y="-49.5" font-family="Helvetica,sans-Serif" font-size="10.00" fill="#000000">VkPhysicalDeviceProperties</text>
</g>
<!-- Node14&#45;&gt;Node4 -->
<g id="edge13" class="edge">
<title>Node14&#45;&gt;Node4</title>
<path fill="none" stroke="#9a32cd" stroke-dasharray="5,2" d="M475.8296,-47.7988C517.9094,-50.0171 566.8779,-59.2496 603,-86 617.6961,-96.8833 606.9733,-111.2667 621,-123 627.2336,-128.2144 634.5294,-132.2984 642.1803,-135.4965"/>
<polygon fill="#9a32cd" stroke="#9a32cd" points="475.7048,-44.2911 465.5725,-47.3873 475.4241,-51.2854 475.7048,-44.2911"/>
<text text-anchor="middle" x="554.5" y="-89" font-family="Helvetica,sans-Serif" font-size="10.00" fill="#000000"> properties</text>
</g>
<!-- Node15 -->
<g id="node15" class="node">
<title>Node15</title>
<polygon fill="none" stroke="#bfbfbf" points="296,-4.5 296,-23.5 480,-23.5 480,-4.5 296,-4.5"/>
<text text-anchor="middle" x="388" y="-11.5" font-family="Helvetica,sans-Serif" font-size="10.00" fill="#000000">vector&lt; VkExtensionProperties &gt;</text>
</g>
<!-- Node15&#45;&gt;Node4 -->
<g id="edge14" class="edge">
<title>Node15&#45;&gt;Node4</title>
<path fill="none" stroke="#9a32cd" stroke-dasharray="5,2" d="M444.0509,-3.094C492.2349,2.8129 560.4888,2.3803 603,-36 632.3082,-62.4602 594.0905,-94.1038 621,-123 626.852,-129.2841 634.2112,-133.9673 642.1381,-137.4494"/>
<polygon fill="#9a32cd" stroke="#9a32cd" points="443.5316,.3677 434.0901,-4.4393 444.4686,-6.5693 443.5316,.3677"/>
<text text-anchor="middle" x="554.5" y="-39" font-family="Helvetica,sans-Serif" font-size="10.00" fill="#000000"> extensions</text>
</g>
<!-- Node16 -->
<g id="node16" class="node">
<title>Node16</title>
<polygon fill="none" stroke="#bfbfbf" points="621,-83 621,-113 791,-113 791,-83 621,-83"/>
<text text-anchor="start" x="629" y="-101" font-family="Helvetica,sans-Serif" font-size="10.00" fill="#000000">vector&lt; lug::Graphics</text>
<text text-anchor="middle" x="706" y="-90" font-family="Helvetica,sans-Serif" font-size="10.00" fill="#000000">::Vulkan::API::QueueFamily &gt;</text>
</g>
<!-- Node16&#45;&gt;Node3 -->
<g id="edge15" class="edge">
<title>Node16&#45;&gt;Node3</title>
<path fill="none" stroke="#9a32cd" stroke-dasharray="5,2" d="M801.4818,-98C843.9993,-98 892.9233,-98 930.8771,-98"/>
<polygon fill="#9a32cd" stroke="#9a32cd" points="801.3886,-94.5001 791.3885,-98 801.3885,-101.5001 801.3886,-94.5001"/>
<text text-anchor="middle" x="861" y="-101" font-family="Helvetica,sans-Serif" font-size="10.00" fill="#000000"> _queueFamilies</text>
</g>
<!-- Node17 -->
<g id="node17" class="node">
<title>Node17</title>
<polygon fill="none" stroke="#bfbfbf" points="674.5,-44.5 674.5,-63.5 737.5,-63.5 737.5,-44.5 674.5,-44.5"/>
<text text-anchor="middle" x="706" y="-51.5" font-family="Helvetica,sans-Serif" font-size="10.00" fill="#000000">VkDevice</text>
</g>
<!-- Node17&#45;&gt;Node3 -->
<g id="edge16" class="edge">
<title>Node17&#45;&gt;Node3</title>
<path fill="none" stroke="#9a32cd" stroke-dasharray="5,2" d="M747.7219,-59.3116C789.5836,-64.7664 855.8703,-73.7452 913,-83 918.8227,-83.9433 924.8709,-84.9691 930.9228,-86.027"/>
<polygon fill="#9a32cd" stroke="#9a32cd" points="747.9928,-55.8175 737.6257,-58.0027 747.0927,-62.7594 747.9928,-55.8175"/>
<text text-anchor="middle" x="861" y="-86" font-family="Helvetica,sans-Serif" font-size="10.00" fill="#000000"> _device</text>
</g>
<!-- Node18 -->
<g id="node18" class="node">
<title>Node18</title>
<polygon fill="none" stroke="#bfbfbf" points="943.5,-36.5 943.5,-55.5 1045.5,-55.5 1045.5,-36.5 943.5,-36.5"/>
<text text-anchor="middle" x="994.5" y="-43.5" font-family="Helvetica,sans-Serif" font-size="10.00" fill="#000000">VkDescriptorPool</text>
</g>
<!-- Node18&#45;&gt;Node2 -->
<g id="edge17" class="edge">
<title>Node18&#45;&gt;Node2</title>
<path fill="none" stroke="#9a32cd" stroke-dasharray="5,2" d="M1055.8196,-45.5502C1086.5109,-45.5349 1124.2287,-45.8328 1158,-47 1173.3416,-47.5302 1189.8594,-48.4062 1205.3433,-49.3621"/>
<polygon fill="#9a32cd" stroke="#9a32cd" points="1055.6907,-42.0503 1045.6964,-45.5666 1055.7021,-49.0503 1055.6907,-42.0503"/>
<text text-anchor="middle" x="1117" y="-50" font-family="Helvetica,sans-Serif" font-size="10.00" fill="#000000"> _descriptorPool</text>
</g>
<!-- Node19 -->
<g id="node19" class="node">
<title>Node19</title>
<polygon fill="none" stroke="#bfbfbf" points="1176,-.5 1176,-19.5 1362,-19.5 1362,-.5 1176,-.5"/>
<text text-anchor="middle" x="1269" y="-7.5" font-family="Helvetica,sans-Serif" font-size="10.00" fill="#000000">vector&lt; VkDescriptorSetLayout &gt;</text>
</g>
<!-- Node19&#45;&gt;Node1 -->
<g id="edge18" class="edge">
<title>Node19&#45;&gt;Node1</title>
<path fill="none" stroke="#9a32cd" stroke-dasharray="5,2" d="M1356.6314,-20.8043C1398.5356,-26.0834 1449.3932,-32.6541 1495,-39 1500.8249,-39.8105 1506.8378,-40.6657 1512.8896,-41.5401"/>
<polygon fill="#9a32cd" stroke="#9a32cd" points="1356.8151,-17.3 1346.4567,-19.5257 1355.9422,-24.2454 1356.8151,-17.3"/>
<text text-anchor="middle" x="1437.5" y="-42" font-family="Helvetica,sans-Serif" font-size="10.00" fill="#000000"> _descriptorSetLayouts</text>
</g>
</g>
</svg>
