<?xml version="1.0" encoding="UTF-8" standalone="no"?>
<!DOCTYPE svg PUBLIC "-//W3C//DTD SVG 1.1//EN"
 "http://www.w3.org/Graphics/SVG/1.1/DTD/svg11.dtd">
<!-- Generated by graphviz version 2.40.1 (20161225.0304)
 -->
<!-- Title: lug::Graphics::Render::Light Pages: 1 -->
<!--zoomable 290 -->
<svg id="main" version="1.1" xmlns="http://www.w3.org/2000/svg" xmlns:xlink="http://www.w3.org/1999/xlink" xml:space="preserve" onload="init(evt)">
<style type="text/css"><![CDATA[
.edge:hover path { stroke: red; }
.edge:hover polygon { stroke: red; fill: red; }
]]></style>
<script type="text/javascript"><![CDATA[
var edges = document.getElementsByTagName('g');
if (edges && edges.length) {
  for (var i=0;i<edges.length;i++) {
    if (edges[i].id.substr(0,4)=='edge') {
      edges[i].setAttribute('class','edge');
    }
  }
}
]]></script>
        <defs>
                <circle id="rim" cx="0" cy="0" r="7"/>
                <circle id="rim2" cx="0" cy="0" r="3.5"/>
                <g id="zoomPlus">
                        <use xlink:href="#rim" fill="#404040">
                                <set attributeName="fill" to="#808080" begin="zoomplus.mouseover" end="zoomplus.mouseout"/>
                        </use>
                        <path d="M-4,0h8M0,-4v8" fill="none" stroke="white" stroke-width="1.5" pointer-events="none"/>
                </g>
                <g id="zoomMin">
                        <use xlink:href="#rim" fill="#404040">
                                <set attributeName="fill" to="#808080" begin="zoomminus.mouseover" end="zoomminus.mouseout"/>
                        </use>
                        <path d="M-4,0h8" fill="none" stroke="white" stroke-width="1.5" pointer-events="none"/>
                </g>
                <g id="dirArrow">
                        <path fill="none" stroke="white" stroke-width="1.5" d="M0,-3.0v7 M-2.5,-0.5L0,-3.0L2.5,-0.5"/>
                </g>
               <g id="resetDef">
                       <use xlink:href="#rim2" fill="#404040">
                               <set attributeName="fill" to="#808080" begin="reset.mouseover" end="reset.mouseout"/>
                       </use>
               </g>
        </defs>

<script type="text/javascript">
var viewWidth = 908;
var viewHeight = 290;
var sectionId = 'dynsection-1';
</script>
<script xlink:href="svgpan.js"/>
<svg id="graph" class="graph">
<g id="viewport">
<title>lug::Graphics::Render::Light</title>
<!-- Node3 -->
<g id="node1" class="node">
<title>Node3</title>
<polygon fill="#bfbfbf" stroke="#000000" points="772,-105 772,-135 900,-135 900,-105 772,-105"/>
<text text-anchor="start" x="780" y="-123" font-family="Helvetica,sans-Serif" font-size="10.00" fill="#000000">lug::Graphics::Render</text>
<text text-anchor="middle" x="836" y="-112" font-family="Helvetica,sans-Serif" font-size="10.00" fill="#000000">::Light</text>
</g>
<!-- Node4 -->
<g id="node2" class="node">
<title>Node4</title>
<g id="a_node2"><a xlink:href="classlug_1_1Graphics_1_1Resource.html" target="_top" xlink:title="Class for resource. ">
<polygon fill="none" stroke="#000000" points="487,-168.5 487,-187.5 626,-187.5 626,-168.5 487,-168.5"/>
<text text-anchor="middle" x="556.5" y="-175.5" font-family="Helvetica,sans-Serif" font-size="10.00" fill="#000000">lug::Graphics::Resource</text>
</a>
</g>
</g>
<!-- Node4&#45;&gt;Node3 -->
<g id="edge1" class="edge">
<title>Node4&#45;&gt;Node3</title>
<path fill="none" stroke="#191970" d="M602.2702,-189.6851C643.259,-197.9357 704.3763,-204.6953 754,-187 782.7445,-176.75 808.6896,-151.6214 823.3796,-135.2197"/>
<polygon fill="#191970" stroke="#191970" points="602.8111,-186.222 592.3023,-187.5693 601.3576,-193.0694 602.8111,-186.222"/>
</g>
<!-- Node5 -->
<g id="node3" class="node">
<title>Node5</title>
<g id="a_node3"><a xlink:href="structlug_1_1Graphics_1_1Resource_1_1Handle.html" target="_top" xlink:title="Handle of the resource. It contains informations such as the type and the index in the ResourceManage...">
<polygon fill="none" stroke="#000000" points="184,-163 184,-193 323,-193 323,-163 184,-163"/>
<text text-anchor="start" x="192" y="-181" font-family="Helvetica,sans-Serif" font-size="10.00" fill="#000000">lug::Graphics::Resource</text>
<text text-anchor="middle" x="253.5" y="-170" font-family="Helvetica,sans-Serif" font-size="10.00" fill="#000000">::Handle</text>
</a>
</g>
</g>
<!-- Node5&#45;&gt;Node4 -->
<g id="edge2" class="edge">
<title>Node5&#45;&gt;Node4</title>
<path fill="none" stroke="#9a32cd" stroke-dasharray="5,2" d="M333.3028,-178C380.9934,-178 441.0037,-178 486.7851,-178"/>
<polygon fill="#9a32cd" stroke="#9a32cd" points="333.0144,-174.5001 323.0143,-178 333.0143,-181.5001 333.0144,-174.5001"/>
<text text-anchor="middle" x="405" y="-181" font-family="Helvetica,sans-Serif" font-size="10.00" fill="#000000"> _handle</text>
</g>
<!-- Node6 -->
<g id="node4" class="node">
<title>Node6</title>
<polygon fill="none" stroke="#bfbfbf" points="18.5,-216.5 18.5,-235.5 75.5,-235.5 75.5,-216.5 18.5,-216.5"/>
<text text-anchor="middle" x="47" y="-223.5" font-family="Helvetica,sans-Serif" font-size="10.00" fill="#000000">uint32_t</text>
</g>
<!-- Node6&#45;&gt;Node3 -->
<g id="edge9" class="edge">
<title>Node6&#45;&gt;Node3</title>
<path fill="none" stroke="#9a32cd" stroke-dasharray="5,2" d="M85.8663,-226.6189C224.9636,-228.5991 692.9776,-233.1589 754,-206 787.3599,-191.1527 813.7888,-155.7248 826.9235,-135.273"/>
<polygon fill="#9a32cd" stroke="#9a32cd" points="85.7278,-223.1166 75.6777,-226.47 85.6254,-230.1158 85.7278,-223.1166"/>
<text text-anchor="middle" x="405" y="-231" font-family="Helvetica,sans-Serif" font-size="10.00" fill="#000000"> strideShader</text>
</g>
<!-- Node6&#45;&gt;Node5 -->
<g id="edge3" class="edge">
<title>Node6&#45;&gt;Node5</title>
<path fill="none" stroke="#9a32cd" stroke-dasharray="5,2" d="M64.0255,-209.091C76.2442,-198.1965 93.7208,-184.9878 112,-179 134.6456,-171.5819 160.4452,-169.6418 183.7575,-170.0934"/>
<polygon fill="#9a32cd" stroke="#9a32cd" points="61.3867,-206.7661 56.4612,-216.1464 66.1613,-211.885 61.3867,-206.7661"/>
<text text-anchor="middle" x="139" y="-204" font-family="Helvetica,sans-Serif" font-size="10.00" fill="#000000"> value</text>
<text text-anchor="middle" x="139" y="-193" font-family="Helvetica,sans-Serif" font-size="10.00" fill="#000000">type</text>
<text text-anchor="middle" x="139" y="-182" font-family="Helvetica,sans-Serif" font-size="10.00" fill="#000000">index</text>
</g>
<!-- Node9 -->
<g id="node7" class="node">
<title>Node9</title>
<g id="a_node7"><a xlink:href="classlug_1_1Graphics_1_1Render_1_1DirtyObject.html" target="_top" xlink:title="lug::Graphics::Render\l::DirtyObject">
<polygon fill="none" stroke="#000000" points="341,-249 341,-279 469,-279 469,-249 341,-249"/>
<text text-anchor="start" x="349" y="-267" font-family="Helvetica,sans-Serif" font-size="10.00" fill="#000000">lug::Graphics::Render</text>
<text text-anchor="middle" x="405" y="-256" font-family="Helvetica,sans-Serif" font-size="10.00" fill="#000000">::DirtyObject</text>
</a>
</g>
</g>
<!-- Node6&#45;&gt;Node9 -->
<g id="edge7" class="edge">
<title>Node6&#45;&gt;Node9</title>
<path fill="none" stroke="#9a32cd" stroke-dasharray="5,2" d="M85.5266,-235.1644C94.1964,-236.9844 103.3821,-238.7245 112,-240 190.3833,-251.601 281.4546,-257.9578 340.9972,-261.1646"/>
<polygon fill="#9a32cd" stroke="#9a32cd" points="86.1666,-231.7218 75.6509,-233.0142 84.6774,-238.5616 86.1666,-231.7218"/>
<text text-anchor="middle" x="139" y="-249" font-family="Helvetica,sans-Serif" font-size="10.00" fill="#000000"> _dirtyFlag</text>
</g>
<!-- Node7 -->
<g id="node5" class="node">
<title>Node7</title>
<polygon fill="none" stroke="#bfbfbf" points="0,-134.5 0,-153.5 94,-153.5 94,-134.5 0,-134.5"/>
<text text-anchor="middle" x="47" y="-141.5" font-family="Helvetica,sans-Serif" font-size="10.00" fill="#000000">anonymous:@5</text>
</g>
<!-- Node7&#45;&gt;Node5 -->
<g id="edge4" class="edge">
<title>Node7&#45;&gt;Node5</title>
<path fill="none" stroke="#9a32cd" stroke-dasharray="5,2" d="M104.2072,-139.7767C123.9747,-139.5542 146.1399,-140.6981 166,-145 174.5561,-146.8533 175.8757,-149.7384 184,-153 192.3298,-156.3441 201.3006,-159.7286 209.9391,-162.8813"/>
<polygon fill="#9a32cd" stroke="#9a32cd" points="104.0306,-136.2797 94.1135,-140.0081 104.1911,-143.2779 104.0306,-136.2797"/>
<text text-anchor="middle" x="139" y="-148" font-family="Helvetica,sans-Serif" font-size="10.00" fill="#000000"> @5</text>
</g>
<!-- Node8 -->
<g id="node6" class="node">
<title>Node8</title>
<polygon fill="none" stroke="#bfbfbf" points="231,-124.5 231,-143.5 276,-143.5 276,-124.5 231,-124.5"/>
<text text-anchor="middle" x="253.5" y="-131.5" font-family="Helvetica,sans-Serif" font-size="10.00" fill="#000000">string</text>
</g>
<!-- Node8&#45;&gt;Node4 -->
<g id="edge5" class="edge">
<title>Node8&#45;&gt;Node4</title>
<path fill="none" stroke="#9a32cd" stroke-dasharray="5,2" d="M286.1823,-138.0261C328.4503,-143.3183 404.3259,-153.1082 469,-163 479.9695,-164.6778 491.69,-166.5983 502.8714,-168.4924"/>
<polygon fill="#9a32cd" stroke="#9a32cd" points="286.5437,-134.5441 276.1875,-136.7802 285.6778,-141.4904 286.5437,-134.5441"/>
<text text-anchor="middle" x="405" y="-166" font-family="Helvetica,sans-Serif" font-size="10.00" fill="#000000"> _name</text>
</g>
<!-- Node9&#45;&gt;Node3 -->
<g id="edge6" class="edge">
<title>Node9&#45;&gt;Node3</title>
<path fill="none" stroke="#191970" d="M479.55,-276.7405C554.1164,-285.5804 669.5582,-288.3484 754,-240 795.6052,-216.1783 820.6218,-161.6159 830.7555,-135.0655"/>
<polygon fill="#191970" stroke="#191970" points="479.6647,-273.2276 469.3072,-275.4575 478.7946,-280.1733 479.6647,-273.2276"/>
</g>
<!-- Node10 -->
<g id="node8" class="node">
<title>Node10</title>
<polygon fill="none" stroke="#bfbfbf" points="537,-114.5 537,-133.5 576,-133.5 576,-114.5 537,-114.5"/>
<text text-anchor="middle" x="556.5" y="-121.5" font-family="Helvetica,sans-Serif" font-size="10.00" fill="#000000">float</text>
</g>
<!-- Node10&#45;&gt;Node3 -->
<g id="edge8" class="edge">
<title>Node10&#45;&gt;Node3</title>
<path fill="none" stroke="#9a32cd" stroke-dasharray="5,2" d="M586.6601,-122.7497C603.5238,-122.105 624.9267,-121.3766 644,-121 686.6589,-120.1578 734.6589,-119.9078 771.9942,-119.8683"/>
<polygon fill="#9a32cd" stroke="#9a32cd" points="586.1586,-119.2666 576.3038,-123.1568 586.4336,-126.2612 586.1586,-119.2666"/>
<text text-anchor="middle" x="699" y="-179" font-family="Helvetica,sans-Serif" font-size="10.00" fill="#000000"> _falloffExponent</text>
<text text-anchor="middle" x="699" y="-168" font-family="Helvetica,sans-Serif" font-size="10.00" fill="#000000">_distance</text>
<text text-anchor="middle" x="699" y="-157" font-family="Helvetica,sans-Serif" font-size="10.00" fill="#000000">_constantAttenuation</text>
<text text-anchor="middle" x="699" y="-146" font-family="Helvetica,sans-Serif" font-size="10.00" fill="#000000">_falloffAngle</text>
<text text-anchor="middle" x="699" y="-135" font-family="Helvetica,sans-Serif" font-size="10.00" fill="#000000">_quadraticAttenuation</text>
<text text-anchor="middle" x="699" y="-124" font-family="Helvetica,sans-Serif" font-size="10.00" fill="#000000">_linearAttenuation</text>
</g>
<!-- Node11 -->
<g id="node9" class="node">
<title>Node11</title>
<polygon fill="none" stroke="#bfbfbf" points="536,-76.5 536,-95.5 577,-95.5 577,-76.5 536,-76.5"/>
<text text-anchor="middle" x="556.5" y="-83.5" font-family="Helvetica,sans-Serif" font-size="10.00" fill="#000000">Type</text>
</g>
<!-- Node11&#45;&gt;Node3 -->
<g id="edge10" class="edge">
<title>Node11&#45;&gt;Node3</title>
<path fill="none" stroke="#9a32cd" stroke-dasharray="5,2" d="M587.1974,-87.8257C626.1308,-90.364 695.2717,-95.6164 754,-104 759.7436,-104.8199 765.6943,-105.7742 771.6471,-106.8009"/>
<polygon fill="#9a32cd" stroke="#9a32cd" points="587.2527,-84.3222 577.051,-87.1814 586.809,-91.3082 587.2527,-84.3222"/>
<text text-anchor="middle" x="699" y="-107" font-family="Helvetica,sans-Serif" font-size="10.00" fill="#000000"> _type</text>
</g>
<!-- Node12 -->
<g id="node10" class="node">
<title>Node12</title>
<polygon fill="none" stroke="#bfbfbf" points="534.5,-38.5 534.5,-57.5 578.5,-57.5 578.5,-38.5 534.5,-38.5"/>
<text text-anchor="middle" x="556.5" y="-45.5" font-family="Helvetica,sans-Serif" font-size="10.00" fill="#000000">Vec3f</text>
</g>
<!-- Node12&#45;&gt;Node3 -->
<g id="edge11" class="edge">
<title>Node12&#45;&gt;Node3</title>
<path fill="none" stroke="#9a32cd" stroke-dasharray="5,2" d="M588.8357,-49.4145C628.5864,-51.9045 697.6968,-58.6921 754,-77 774.7902,-83.7602 796.6334,-95.4735 812.5432,-104.9692"/>
<polygon fill="#9a32cd" stroke="#9a32cd" points="588.8589,-45.9102 578.6751,-48.8325 588.4585,-52.8987 588.8589,-45.9102"/>
<text text-anchor="middle" x="699" y="-80" font-family="Helvetica,sans-Serif" font-size="10.00" fill="#000000"> _direction</text>
</g>
<!-- Node13 -->
<g id="node11" class="node">
<title>Node13</title>
<polygon fill="none" stroke="#bfbfbf" points="534.5,-.5 534.5,-19.5 578.5,-19.5 578.5,-.5 534.5,-.5"/>
<text text-anchor="middle" x="556.5" y="-7.5" font-family="Helvetica,sans-Serif" font-size="10.00" fill="#000000">Vec4f</text>
</g>
<!-- Node13&#45;&gt;Node3 -->
<g id="edge12" class="edge">
<title>Node13&#45;&gt;Node3</title>
<path fill="none" stroke="#9a32cd" stroke-dasharray="5,2" d="M588.6976,-8.7298C629.3615,-8.4278 700.4758,-12.3127 754,-39 784.9808,-54.4471 811.5369,-86.0076 825.5002,-104.8488"/>
<polygon fill="#9a32cd" stroke="#9a32cd" points="588.5006,-5.2324 578.56,-8.8977 588.6166,-12.2315 588.5006,-5.2324"/>
<text text-anchor="middle" x="699" y="-42" font-family="Helvetica,sans-Serif" font-size="10.00" fill="#000000"> _color</text>
</g>
</g>
</svg>
        <g id="navigator" transform="translate(0 0)" fill="#404254">
                <rect fill="#f2f5e9" fill-opacity="0.5" stroke="#606060" stroke-width=".5" x="0" y="0" width="60" height="60"/>
                <use id="zoomplus" xlink:href="#zoomPlus" x="17" y="9" onmousedown="handleZoom(evt,'in')"/>
                <use id="zoomminus" xlink:href="#zoomMin" x="42" y="9" onmousedown="handleZoom(evt,'out')"/>
                <use id="reset" xlink:href="#resetDef" x="30" y="36" onmousedown="handleReset()"/>
                <g id="arrowUp" xlink:href="#dirArrow" transform="translate(30 24)" onmousedown="handlePan(0,-1)">
                  <use xlink:href="#rim" fill="#404040">
                        <set attributeName="fill" to="#808080" begin="arrowUp.mouseover" end="arrowUp.mouseout"/>
                  </use>
                  <path fill="none" stroke="white" stroke-width="1.5" d="M0,-3.0v7 M-2.5,-0.5L0,-3.0L2.5,-0.5"/>
                </g>
                <g id="arrowRight" xlink:href="#dirArrow" transform="rotate(90) translate(36 -43)" onmousedown="handlePan(1,0)">
                  <use xlink:href="#rim" fill="#404040">
                        <set attributeName="fill" to="#808080" begin="arrowRight.mouseover" end="arrowRight.mouseout"/>
                  </use>
                  <path fill="none" stroke="white" stroke-width="1.5" d="M0,-3.0v7 M-2.5,-0.5L0,-3.0L2.5,-0.5"/>
                </g>
                <g id="arrowDown" xlink:href="#dirArrow" transform="rotate(180) translate(-30 -48)" onmousedown="handlePan(0,1)">
                  <use xlink:href="#rim" fill="#404040">
                        <set attributeName="fill" to="#808080" begin="arrowDown.mouseover" end="arrowDown.mouseout"/>
                  </use>
                  <path fill="none" stroke="white" stroke-width="1.5" d="M0,-3.0v7 M-2.5,-0.5L0,-3.0L2.5,-0.5"/>
                </g>
                <g id="arrowLeft" xlink:href="#dirArrow" transform="rotate(270) translate(-36 17)" onmousedown="handlePan(-1,0)">
                  <use xlink:href="#rim" fill="#404040">
                        <set attributeName="fill" to="#808080" begin="arrowLeft.mouseover" end="arrowLeft.mouseout"/>
                  </use>
                  <path fill="none" stroke="white" stroke-width="1.5" d="M0,-3.0v7 M-2.5,-0.5L0,-3.0L2.5,-0.5"/>
                </g>
        </g>
        <svg viewBox="0 0 15 15" width="100%" height="30px" preserveAspectRatio="xMaxYMin meet">
         <g id="arrow_out" transform="scale(0.3 0.3)">
          <a xlink:href="classlug_1_1Graphics_1_1Render_1_1Light__coll__graph_org.svg" target="_base">
           <rect id="button" ry="5" rx="5" y="6" x="6" height="38" width="38"
                fill="#f2f5e9" fill-opacity="0.5" stroke="#606060" stroke-width="1.0"/>
           <path id="arrow"
             d="M 11.500037,31.436501 C 11.940474,20.09759 22.043105,11.32322 32.158766,21.979434 L 37.068811,17.246167 C 37.068811,17.246167 37.088388,32 37.088388,32 L 22.160133,31.978069 C 22.160133,31.978069 26.997745,27.140456 26.997745,27.140456 C 18.528582,18.264221 13.291696,25.230495 11.500037,31.436501 z"
             style="fill:#404040;"/>
          </a>
         </g>
        </svg>
</svg>
