<?xml version="1.0" encoding="UTF-8" standalone="no"?>
<!DOCTYPE svg PUBLIC "-//W3C//DTD SVG 1.1//EN"
 "http://www.w3.org/Graphics/SVG/1.1/DTD/svg11.dtd">
<!-- Generated by graphviz version 2.40.1 (20161225.0304)
 -->
<!-- Title: lug::System::Logger::LogCatHandler Pages: 1 -->
<svg width="275pt" height="185pt"
 viewBox="0.00 0.00 275.00 185.00" xmlns="http://www.w3.org/2000/svg" xmlns:xlink="http://www.w3.org/1999/xlink">
<g id="graph0" class="graph" transform="scale(1 1) rotate(0) translate(4 181)">
<title>lug::System::Logger::LogCatHandler</title>
<!-- Node2 -->
<g id="node1" class="node">
<title>Node2</title>
<polygon fill="#bfbfbf" stroke="#000000" points="24,-.5 24,-30.5 145,-30.5 145,-.5 24,-.5"/>
<text text-anchor="start" x="32" y="-18.5" font-family="Helvetica,sans-Serif" font-size="10.00" fill="#000000">lug::System::Logger</text>
<text text-anchor="middle" x="84.5" y="-7.5" font-family="Helvetica,sans-Serif" font-size="10.00" fill="#000000">::LogCatHandler</text>
</g>
<!-- Node3 -->
<g id="node2" class="node">
<title>Node3</title>
<g id="a_node2"><a xlink:href="classlug_1_1System_1_1Logger_1_1Handler.html" target="_top" xlink:title="lug::System::Logger\l::Handler">
<polygon fill="none" stroke="#000000" points="24,-68.5 24,-98.5 145,-98.5 145,-68.5 24,-68.5"/>
<text text-anchor="start" x="32" y="-86.5" font-family="Helvetica,sans-Serif" font-size="10.00" fill="#000000">lug::System::Logger</text>
<text text-anchor="middle" x="84.5" y="-75.5" font-family="Helvetica,sans-Serif" font-size="10.00" fill="#000000">::Handler</text>
</a>
</g>
</g>
<!-- Node3&#45;&gt;Node2 -->
<g id="edge1" class="edge">
<title>Node3&#45;&gt;Node2</title>
<path fill="none" stroke="#191970" d="M84.5,-58.1174C84.5,-48.8378 84.5,-38.6413 84.5,-30.5492"/>
<polygon fill="#191970" stroke="#191970" points="81.0001,-58.4086 84.5,-68.4086 88.0001,-58.4086 81.0001,-58.4086"/>
</g>
<!-- Node4 -->
<g id="node3" class="node">
<title>Node4</title>
<polygon fill="none" stroke="#bfbfbf" points="0,-152 0,-171 45,-171 45,-152 0,-152"/>
<text text-anchor="middle" x="22.5" y="-159" font-family="Helvetica,sans-Serif" font-size="10.00" fill="#000000">string</text>
</g>
<!-- Node4&#45;&gt;Node3 -->
<g id="edge2" class="edge">
<title>Node4&#45;&gt;Node3</title>
<path fill="none" stroke="#9a32cd" stroke-dasharray="5,2" d="M28.8007,-142.3245C32.0883,-134.0334 36.6581,-124.528 42.5,-117 47.7607,-110.2209 54.6646,-103.9877 61.3512,-98.7836"/>
<polygon fill="#9a32cd" stroke="#9a32cd" points="25.434,-141.3425 25.323,-151.9367 32.0164,-143.7241 25.434,-141.3425"/>
<text text-anchor="middle" x="61.5" y="-120" font-family="Helvetica,sans-Serif" font-size="10.00" fill="#000000"> _name</text>
</g>
<!-- Node5 -->
<g id="node4" class="node">
<title>Node5</title>
<polygon fill="none" stroke="#bfbfbf" points="63,-152 63,-171 106,-171 106,-152 63,-152"/>
<text text-anchor="middle" x="84.5" y="-159" font-family="Helvetica,sans-Serif" font-size="10.00" fill="#000000">Level</text>
</g>
<!-- Node5&#45;&gt;Node3 -->
<g id="edge3" class="edge">
<title>Node5&#45;&gt;Node3</title>
<path fill="none" stroke="#9a32cd" stroke-dasharray="5,2" d="M84.5,-141.8751C84.5,-128.5215 84.5,-111.1052 84.5,-98.7824"/>
<polygon fill="#9a32cd" stroke="#9a32cd" points="81.0001,-141.9356 84.5,-151.9357 88.0001,-141.9357 81.0001,-141.9356"/>
<text text-anchor="middle" x="101.5" y="-120" font-family="Helvetica,sans-Serif" font-size="10.00" fill="#000000"> _level</text>
</g>
<!-- Node6 -->
<g id="node5" class="node">
<title>Node6</title>
<polygon fill="none" stroke="#bfbfbf" points="124,-146.5 124,-176.5 267,-176.5 267,-146.5 124,-146.5"/>
<text text-anchor="start" x="132" y="-164.5" font-family="Helvetica,sans-Serif" font-size="10.00" fill="#000000">unique_ptr&lt; lug::System</text>
<text text-anchor="middle" x="195.5" y="-153.5" font-family="Helvetica,sans-Serif" font-size="10.00" fill="#000000">::Logger::Formatter &gt;</text>
</g>
<!-- Node6&#45;&gt;Node3 -->
<g id="edge4" class="edge">
<title>Node6&#45;&gt;Node3</title>
<path fill="none" stroke="#9a32cd" stroke-dasharray="5,2" d="M165.873,-140.681C147.0985,-127.4882 123.2353,-110.7194 106.215,-98.7592"/>
<polygon fill="#9a32cd" stroke="#9a32cd" points="163.9038,-143.575 174.0981,-146.4608 167.9285,-137.8476 163.9038,-143.575"/>
<text text-anchor="middle" x="175.5" y="-120" font-family="Helvetica,sans-Serif" font-size="10.00" fill="#000000"> _formatter</text>
</g>
</g>
</svg>
