<?xml version="1.0" encoding="UTF-8" standalone="no"?>
<!DOCTYPE svg PUBLIC "-//W3C//DTD SVG 1.1//EN"
 "http://www.w3.org/Graphics/SVG/1.1/DTD/svg11.dtd">
<!-- Generated by graphviz version 2.40.1 (20161225.0304)
 -->
<!-- Title: ndk_helper::GestureDetector Pages: 1 -->
<svg width="381pt" height="142pt"
 viewBox="0.00 0.00 381.00 142.00" xmlns="http://www.w3.org/2000/svg" xmlns:xlink="http://www.w3.org/1999/xlink">
<g id="graph0" class="graph" transform="scale(1 1) rotate(0) translate(4 138)">
<title>ndk_helper::GestureDetector</title>
<!-- Node0 -->
<g id="node1" class="node">
<title>Node0</title>
<polygon fill="#bfbfbf" stroke="#000000" points="0,-57.5 0,-76.5 163,-76.5 163,-57.5 0,-57.5"/>
<text text-anchor="middle" x="81.5" y="-64.5" font-family="Helvetica,sans-Serif" font-size="10.00" fill="#000000">ndk_helper::GestureDetector</text>
</g>
<!-- Node1 -->
<g id="node2" class="node">
<title>Node1</title>
<g id="a_node2"><a xlink:href="classndk__helper_1_1DoubletapDetector.html" target="_top" xlink:title="ndk_helper::DoubletapDetector">
<polygon fill="none" stroke="#000000" points="199,-114.5 199,-133.5 373,-133.5 373,-114.5 199,-114.5"/>
<text text-anchor="middle" x="286" y="-121.5" font-family="Helvetica,sans-Serif" font-size="10.00" fill="#000000">ndk_helper::DoubletapDetector</text>
</a>
</g>
</g>
<!-- Node0&#45;&gt;Node1 -->
<g id="edge1" class="edge">
<title>Node0&#45;&gt;Node1</title>
<path fill="none" stroke="#191970" d="M118.0549,-79.8415C141.1066,-87.6848 171.5955,-97.5952 199,-105 211.6862,-108.4279 225.5392,-111.674 238.3857,-114.4813"/>
<polygon fill="#191970" stroke="#191970" points="118.9385,-76.4444 108.3438,-76.5101 116.667,-83.0657 118.9385,-76.4444"/>
</g>
<!-- Node2 -->
<g id="node3" class="node">
<title>Node2</title>
<g id="a_node3"><a xlink:href="classndk__helper_1_1DragDetector.html" target="_top" xlink:title="ndk_helper::DragDetector">
<polygon fill="none" stroke="#000000" points="212,-76.5 212,-95.5 360,-95.5 360,-76.5 212,-76.5"/>
<text text-anchor="middle" x="286" y="-83.5" font-family="Helvetica,sans-Serif" font-size="10.00" fill="#000000">ndk_helper::DragDetector</text>
</a>
</g>
</g>
<!-- Node0&#45;&gt;Node2 -->
<g id="edge2" class="edge">
<title>Node0&#45;&gt;Node2</title>
<path fill="none" stroke="#191970" d="M173.4214,-75.5404C186.2377,-76.7311 199.2727,-77.9422 211.7099,-79.0977"/>
<polygon fill="#191970" stroke="#191970" points="173.4864,-72.0314 163.2055,-74.5912 172.8388,-79.0014 173.4864,-72.0314"/>
</g>
<!-- Node3 -->
<g id="node4" class="node">
<title>Node3</title>
<g id="a_node4"><a xlink:href="classndk__helper_1_1PinchDetector.html" target="_top" xlink:title="ndk_helper::PinchDetector">
<polygon fill="none" stroke="#000000" points="211,-38.5 211,-57.5 361,-57.5 361,-38.5 211,-38.5"/>
<text text-anchor="middle" x="286" y="-45.5" font-family="Helvetica,sans-Serif" font-size="10.00" fill="#000000">ndk_helper::PinchDetector</text>
</a>
</g>
</g>
<!-- Node0&#45;&gt;Node3 -->
<g id="edge3" class="edge">
<title>Node0&#45;&gt;Node3</title>
<path fill="none" stroke="#191970" d="M173.2073,-58.4795C185.7542,-57.3138 198.5151,-56.1282 210.7235,-54.9939"/>
<polygon fill="#191970" stroke="#191970" points="172.8388,-54.9986 163.2055,-59.4088 173.4864,-61.9686 172.8388,-54.9986"/>
</g>
<!-- Node4 -->
<g id="node5" class="node">
<title>Node4</title>
<g id="a_node5"><a xlink:href="classndk__helper_1_1TapDetector.html" target="_top" xlink:title="ndk_helper::TapDetector">
<polygon fill="none" stroke="#000000" points="215,-.5 215,-19.5 357,-19.5 357,-.5 215,-.5"/>
<text text-anchor="middle" x="286" y="-7.5" font-family="Helvetica,sans-Serif" font-size="10.00" fill="#000000">ndk_helper::TapDetector</text>
</a>
</g>
</g>
<!-- Node0&#45;&gt;Node4 -->
<g id="edge4" class="edge">
<title>Node0&#45;&gt;Node4</title>
<path fill="none" stroke="#191970" d="M118.0549,-54.1585C141.1066,-46.3152 171.5955,-36.4048 199,-29 211.6862,-25.5721 225.5392,-22.326 238.3857,-19.5187"/>
<polygon fill="#191970" stroke="#191970" points="116.667,-50.9343 108.3438,-57.4899 118.9385,-57.5556 116.667,-50.9343"/>
</g>
</g>
</svg>
