<?xml version="1.0" encoding="UTF-8" standalone="no"?>
<!DOCTYPE svg PUBLIC "-//W3C//DTD SVG 1.1//EN"
 "http://www.w3.org/Graphics/SVG/1.1/DTD/svg11.dtd">
<!-- Generated by graphviz version 2.40.1 (20161225.0304)
 -->
<!-- Title: lug::Graphics::Vulkan::Render::Window Pages: 1 -->
<svg width="282pt" height="173pt"
 viewBox="0.00 0.00 282.00 173.00" xmlns="http://www.w3.org/2000/svg" xmlns:xlink="http://www.w3.org/1999/xlink">
<g id="graph0" class="graph" transform="scale(1 1) rotate(0) translate(4 169)">
<title>lug::Graphics::Vulkan::Render::Window</title>
<!-- Node0 -->
<g id="node1" class="node">
<title>Node0</title>
<polygon fill="#bfbfbf" stroke="#000000" points="73.5,-.5 73.5,-30.5 200.5,-30.5 200.5,-.5 73.5,-.5"/>
<text text-anchor="start" x="81.5" y="-18.5" font-family="Helvetica,sans-Serif" font-size="10.00" fill="#000000">lug::Graphics::Vulkan</text>
<text text-anchor="middle" x="137" y="-7.5" font-family="Helvetica,sans-Serif" font-size="10.00" fill="#000000">::Render::Window</text>
</g>
<!-- Node1 -->
<g id="node2" class="node">
<title>Node1</title>
<g id="a_node2"><a xlink:href="classlug_1_1Graphics_1_1Render_1_1Window.html" target="_top" xlink:title="lug::Graphics::Render\l::Window">
<polygon fill="none" stroke="#000000" points="73,-67.5 73,-97.5 201,-97.5 201,-67.5 73,-67.5"/>
<text text-anchor="start" x="81" y="-85.5" font-family="Helvetica,sans-Serif" font-size="10.00" fill="#000000">lug::Graphics::Render</text>
<text text-anchor="middle" x="137" y="-74.5" font-family="Helvetica,sans-Serif" font-size="10.00" fill="#000000">::Window</text>
</a>
</g>
</g>
<!-- Node1&#45;&gt;Node0 -->
<g id="edge1" class="edge">
<title>Node1&#45;&gt;Node0</title>
<path fill="none" stroke="#191970" d="M137,-57.0249C137,-48.128 137,-38.4287 137,-30.6432"/>
<polygon fill="#191970" stroke="#191970" points="133.5001,-57.2966 137,-67.2967 140.5001,-57.2967 133.5001,-57.2966"/>
</g>
<!-- Node2 -->
<g id="node3" class="node">
<title>Node2</title>
<g id="a_node3"><a xlink:href="classlug_1_1Window_1_1Window.html" target="_top" xlink:title="Class for window. ">
<polygon fill="none" stroke="#000000" points="0,-140 0,-159 128,-159 128,-140 0,-140"/>
<text text-anchor="middle" x="64" y="-147" font-family="Helvetica,sans-Serif" font-size="10.00" fill="#000000">lug::Window::Window</text>
</a>
</g>
</g>
<!-- Node2&#45;&gt;Node1 -->
<g id="edge2" class="edge">
<title>Node2&#45;&gt;Node1</title>
<path fill="none" stroke="#191970" d="M81.9894,-132.9892C93.8106,-122.1395 109.1547,-108.0566 120.633,-97.5218"/>
<polygon fill="#191970" stroke="#191970" points="79.4599,-130.5601 74.4591,-139.9005 84.1931,-135.7173 79.4599,-130.5601"/>
</g>
<!-- Node3 -->
<g id="node4" class="node">
<title>Node3</title>
<g id="a_node4"><a xlink:href="classlug_1_1Graphics_1_1Render_1_1Target.html" target="_top" xlink:title="lug::Graphics::Render\l::Target">
<polygon fill="none" stroke="#000000" points="146,-134.5 146,-164.5 274,-164.5 274,-134.5 146,-134.5"/>
<text text-anchor="start" x="154" y="-152.5" font-family="Helvetica,sans-Serif" font-size="10.00" fill="#000000">lug::Graphics::Render</text>
<text text-anchor="middle" x="210" y="-141.5" font-family="Helvetica,sans-Serif" font-size="10.00" fill="#000000">::Target</text>
</a>
</g>
</g>
<!-- Node3&#45;&gt;Node1 -->
<g id="edge3" class="edge">
<title>Node3&#45;&gt;Node1</title>
<path fill="none" stroke="#191970" d="M186.026,-127.4965C175.3733,-117.7193 163.1007,-106.4554 153.4993,-97.6432"/>
<polygon fill="#191970" stroke="#191970" points="183.7011,-130.1134 193.4352,-134.2967 188.4344,-124.9562 183.7011,-130.1134"/>
</g>
</g>
</svg>
