<?xml version="1.0" encoding="UTF-8" standalone="no"?>
<!DOCTYPE svg PUBLIC "-//W3C//DTD SVG 1.1//EN"
 "http://www.w3.org/Graphics/SVG/1.1/DTD/svg11.dtd">
<!-- Generated by graphviz version 2.40.1 (20161225.0304)
 -->
<!-- Title: ndk_helper::TapDetector Pages: 1 -->
<svg width="323pt" height="164pt"
 viewBox="0.00 0.00 322.50 164.00" xmlns="http://www.w3.org/2000/svg" xmlns:xlink="http://www.w3.org/1999/xlink">
<g id="graph0" class="graph" transform="scale(1 1) rotate(0) translate(4 160)">
<title>ndk_helper::TapDetector</title>
<!-- Node2 -->
<g id="node1" class="node">
<title>Node2</title>
<polygon fill="#bfbfbf" stroke="#000000" points="81.5,-.5 81.5,-19.5 223.5,-19.5 223.5,-.5 81.5,-.5"/>
<text text-anchor="middle" x="152.5" y="-7.5" font-family="Helvetica,sans-Serif" font-size="10.00" fill="#000000">ndk_helper::TapDetector</text>
</g>
<!-- Node3 -->
<g id="node2" class="node">
<title>Node3</title>
<g id="a_node2"><a xlink:href="classndk__helper_1_1GestureDetector.html" target="_top" xlink:title="ndk_helper::GestureDetector">
<polygon fill="none" stroke="#000000" points="71,-68.5 71,-87.5 234,-87.5 234,-68.5 71,-68.5"/>
<text text-anchor="middle" x="152.5" y="-75.5" font-family="Helvetica,sans-Serif" font-size="10.00" fill="#000000">ndk_helper::GestureDetector</text>
</a>
</g>
</g>
<!-- Node3&#45;&gt;Node2 -->
<g id="edge1" class="edge">
<title>Node3&#45;&gt;Node2</title>
<path fill="none" stroke="#191970" d="M152.5,-58.1951C152.5,-45.5514 152.5,-29.7157 152.5,-19.7247"/>
<polygon fill="#191970" stroke="#191970" points="149.0001,-58.2572 152.5,-68.2573 156.0001,-58.2573 149.0001,-58.2572"/>
</g>
<!-- Node4 -->
<g id="node3" class="node">
<title>Node4</title>
<polygon fill="none" stroke="#bfbfbf" points="0,-136.5 0,-155.5 39,-155.5 39,-136.5 0,-136.5"/>
<text text-anchor="middle" x="19.5" y="-143.5" font-family="Helvetica,sans-Serif" font-size="10.00" fill="#000000">float</text>
</g>
<!-- Node4&#45;&gt;Node2 -->
<g id="edge3" class="edge">
<title>Node4&#45;&gt;Node2</title>
<path fill="none" stroke="#9a32cd" stroke-dasharray="5,2" d="M11.4194,-126.7598C5.6051,-109.6195 .6638,-84.5986 12.5,-67 29.7087,-41.4133 60.6137,-27.3064 89.0169,-19.5314"/>
<polygon fill="#9a32cd" stroke="#9a32cd" points="8.2053,-128.1563 15.0102,-136.2769 14.7547,-125.6851 8.2053,-128.1563"/>
<text text-anchor="middle" x="37" y="-81" font-family="Helvetica,sans-Serif" font-size="10.00" fill="#000000"> down_x_</text>
<text text-anchor="middle" x="37" y="-70" font-family="Helvetica,sans-Serif" font-size="10.00" fill="#000000">down_y_</text>
</g>
<!-- Node4&#45;&gt;Node3 -->
<g id="edge2" class="edge">
<title>Node4&#45;&gt;Node3</title>
<path fill="none" stroke="#9a32cd" stroke-dasharray="5,2" d="M47.2414,-131.8164C73.2093,-118.5396 111.2902,-99.0697 133.8219,-87.5497"/>
<polygon fill="#9a32cd" stroke="#9a32cd" points="45.584,-128.7328 38.2736,-136.4015 48.7706,-134.9655 45.584,-128.7328"/>
<text text-anchor="middle" x="123.5" y="-110" font-family="Helvetica,sans-Serif" font-size="10.00" fill="#000000"> dp_factor_</text>
</g>
<!-- Node5 -->
<g id="node4" class="node">
<title>Node5</title>
<polygon fill="none" stroke="#bfbfbf" points="252,-68.5 252,-87.5 303,-87.5 303,-68.5 252,-68.5"/>
<text text-anchor="middle" x="277.5" y="-75.5" font-family="Helvetica,sans-Serif" font-size="10.00" fill="#000000">int32_t</text>
</g>
<!-- Node5&#45;&gt;Node2 -->
<g id="edge4" class="edge">
<title>Node5&#45;&gt;Node2</title>
<path fill="none" stroke="#9a32cd" stroke-dasharray="5,2" d="M250.7824,-63.4656C226.3946,-50.1986 191.0453,-30.9686 170.0546,-19.5497"/>
<polygon fill="#9a32cd" stroke="#9a32cd" points="249.3988,-66.6973 259.8557,-68.4015 252.7439,-60.5482 249.3988,-66.6973"/>
<text text-anchor="middle" x="268" y="-41" font-family="Helvetica,sans-Serif" font-size="10.00" fill="#000000"> down_pointer_id_</text>
</g>
</g>
</svg>
