<?xml version="1.0" encoding="UTF-8" standalone="no"?>
<!DOCTYPE svg PUBLIC "-//W3C//DTD SVG 1.1//EN"
 "http://www.w3.org/Graphics/SVG/1.1/DTD/svg11.dtd">
<!-- Generated by graphviz version 2.40.1 (20161225.0304)
 -->
<!-- Title: lug::Graphics::Vulkan::API::Builder::Instance Pages: 1 -->
<!--zoomable 122 -->
<svg id="main" version="1.1" xmlns="http://www.w3.org/2000/svg" xmlns:xlink="http://www.w3.org/1999/xlink" xml:space="preserve" onload="init(evt)">
<style type="text/css"><![CDATA[
.edge:hover path { stroke: red; }
.edge:hover polygon { stroke: red; fill: red; }
]]></style>
<script type="text/javascript"><![CDATA[
var edges = document.getElementsByTagName('g');
if (edges && edges.length) {
  for (var i=0;i<edges.length;i++) {
    if (edges[i].id.substr(0,4)=='edge') {
      edges[i].setAttribute('class','edge');
    }
  }
}
]]></script>
        <defs>
                <circle id="rim" cx="0" cy="0" r="7"/>
                <circle id="rim2" cx="0" cy="0" r="3.5"/>
                <g id="zoomPlus">
                        <use xlink:href="#rim" fill="#404040">
                                <set attributeName="fill" to="#808080" begin="zoomplus.mouseover" end="zoomplus.mouseout"/>
                        </use>
                        <path d="M-4,0h8M0,-4v8" fill="none" stroke="white" stroke-width="1.5" pointer-events="none"/>
                </g>
                <g id="zoomMin">
                        <use xlink:href="#rim" fill="#404040">
                                <set attributeName="fill" to="#808080" begin="zoomminus.mouseover" end="zoomminus.mouseout"/>
                        </use>
                        <path d="M-4,0h8" fill="none" stroke="white" stroke-width="1.5" pointer-events="none"/>
                </g>
                <g id="dirArrow">
                        <path fill="none" stroke="white" stroke-width="1.5" d="M0,-3.0v7 M-2.5,-0.5L0,-3.0L2.5,-0.5"/>
                </g>
               <g id="resetDef">
                       <use xlink:href="#rim2" fill="#404040">
                               <set attributeName="fill" to="#808080" begin="reset.mouseover" end="reset.mouseout"/>
                       </use>
               </g>
        </defs>

<script type="text/javascript">
var viewWidth = 719;
var viewHeight = 122;
var sectionId = 'dynsection-0';
</script>
<script xlink:href="svgpan.js"/>
<svg id="graph" class="graph">
<g id="viewport">
<title>lug::Graphics::Vulkan::API::Builder::Instance</title>
<!-- Node1 -->
<g id="node1" class="node">
<title>Node1</title>
<polygon fill="#bfbfbf" stroke="#000000" points="574,-17 574,-47 711,-47 711,-17 574,-17"/>
<text text-anchor="start" x="582" y="-35" font-family="Helvetica,sans-Serif" font-size="10.00" fill="#000000">lug::Graphics::Vulkan</text>
<text text-anchor="middle" x="642.5" y="-24" font-family="Helvetica,sans-Serif" font-size="10.00" fill="#000000">::API::Builder::Instance</text>
</g>
<!-- Node2 -->
<g id="node2" class="node">
<title>Node2</title>
<g id="a_node2"><a xlink:href="structlug_1_1Graphics_1_1Vulkan_1_1API_1_1Builder_1_1Instance_1_1ApplicationInfo.html" target="_top" xlink:title="lug::Graphics::Vulkan\l::API::Builder::Instance\l::ApplicationInfo">
<polygon fill="none" stroke="#000000" points="341,-38.5 341,-79.5 478,-79.5 478,-38.5 341,-38.5"/>
<text text-anchor="start" x="349" y="-67.5" font-family="Helvetica,sans-Serif" font-size="10.00" fill="#000000">lug::Graphics::Vulkan</text>
<text text-anchor="start" x="349" y="-56.5" font-family="Helvetica,sans-Serif" font-size="10.00" fill="#000000">::API::Builder::Instance</text>
<text text-anchor="middle" x="409.5" y="-45.5" font-family="Helvetica,sans-Serif" font-size="10.00" fill="#000000">::ApplicationInfo</text>
</a>
</g>
</g>
<!-- Node2&#45;&gt;Node1 -->
<g id="edge1" class="edge">
<title>Node2&#45;&gt;Node1</title>
<path fill="none" stroke="#9a32cd" stroke-dasharray="5,2" d="M488.2307,-49.8767C516.0316,-46.6551 547.0502,-43.0607 573.9409,-39.9446"/>
<polygon fill="#9a32cd" stroke="#9a32cd" points="487.6781,-46.4172 478.1475,-51.0451 488.4839,-53.3707 487.6781,-46.4172"/>
<text text-anchor="middle" x="526" y="-51" font-family="Helvetica,sans-Serif" font-size="10.00" fill="#000000"> _appInfo</text>
</g>
<!-- Node3 -->
<g id="node3" class="node">
<title>Node3</title>
<g id="a_node3"><a xlink:href="structlug_1_1Core_1_1Version.html" target="_top" xlink:title="Stores the version of the Application. ">
<polygon fill="none" stroke="#000000" points="124,-71.5 124,-90.5 234,-90.5 234,-71.5 124,-71.5"/>
<text text-anchor="middle" x="179" y="-78.5" font-family="Helvetica,sans-Serif" font-size="10.00" fill="#000000">lug::Core::Version</text>
</a>
</g>
</g>
<!-- Node3&#45;&gt;Node2 -->
<g id="edge2" class="edge">
<title>Node3&#45;&gt;Node2</title>
<path fill="none" stroke="#9a32cd" stroke-dasharray="5,2" d="M244.1985,-74.7771C274.3376,-71.9005 310.1444,-68.483 340.7131,-65.5653"/>
<polygon fill="#9a32cd" stroke="#9a32cd" points="243.8327,-71.2961 234.2105,-75.7305 244.4978,-78.2644 243.8327,-71.2961"/>
<text text-anchor="middle" x="287.5" y="-98" font-family="Helvetica,sans-Serif" font-size="10.00" fill="#000000"> appVersion</text>
<text text-anchor="middle" x="287.5" y="-87" font-family="Helvetica,sans-Serif" font-size="10.00" fill="#000000">engineVersion</text>
<text text-anchor="middle" x="287.5" y="-76" font-family="Helvetica,sans-Serif" font-size="10.00" fill="#000000">apiVersion</text>
</g>
<!-- Node4 -->
<g id="node4" class="node">
<title>Node4</title>
<polygon fill="none" stroke="#bfbfbf" points="0,-71.5 0,-90.5 57,-90.5 57,-71.5 0,-71.5"/>
<text text-anchor="middle" x="28.5" y="-78.5" font-family="Helvetica,sans-Serif" font-size="10.00" fill="#000000">uint32_t</text>
</g>
<!-- Node4&#45;&gt;Node3 -->
<g id="edge3" class="edge">
<title>Node4&#45;&gt;Node3</title>
<path fill="none" stroke="#9a32cd" stroke-dasharray="5,2" d="M67.4044,-81C84.6214,-81 105.1792,-81 123.9314,-81"/>
<polygon fill="#9a32cd" stroke="#9a32cd" points="67.1622,-77.5001 57.1621,-81 67.1621,-84.5001 67.1622,-77.5001"/>
<text text-anchor="middle" x="90.5" y="-106" font-family="Helvetica,sans-Serif" font-size="10.00" fill="#000000"> patch</text>
<text text-anchor="middle" x="90.5" y="-95" font-family="Helvetica,sans-Serif" font-size="10.00" fill="#000000">major</text>
<text text-anchor="middle" x="90.5" y="-84" font-family="Helvetica,sans-Serif" font-size="10.00" fill="#000000">minor</text>
</g>
<!-- Node5 -->
<g id="node5" class="node">
<title>Node5</title>
<polygon fill="none" stroke="#bfbfbf" points="156.5,-26.5 156.5,-45.5 201.5,-45.5 201.5,-26.5 156.5,-26.5"/>
<text text-anchor="middle" x="179" y="-33.5" font-family="Helvetica,sans-Serif" font-size="10.00" fill="#000000">string</text>
</g>
<!-- Node5&#45;&gt;Node2 -->
<g id="edge4" class="edge">
<title>Node5&#45;&gt;Node2</title>
<path fill="none" stroke="#9a32cd" stroke-dasharray="5,2" d="M211.6135,-35.5531C240.8797,-35.5269 284.9553,-36.4151 323,-41 328.787,-41.6974 334.7618,-42.5844 340.7413,-43.5893"/>
<polygon fill="#9a32cd" stroke="#9a32cd" points="211.5238,-32.0533 201.5398,-35.5989 211.5557,-39.0533 211.5238,-32.0533"/>
<text text-anchor="middle" x="287.5" y="-55" font-family="Helvetica,sans-Serif" font-size="10.00" fill="#000000"> engineName</text>
<text text-anchor="middle" x="287.5" y="-44" font-family="Helvetica,sans-Serif" font-size="10.00" fill="#000000">appName</text>
</g>
<!-- Node6 -->
<g id="node6" class="node">
<title>Node6</title>
<polygon fill="none" stroke="#bfbfbf" points="342.5,-.5 342.5,-19.5 476.5,-19.5 476.5,-.5 342.5,-.5"/>
<text text-anchor="middle" x="409.5" y="-7.5" font-family="Helvetica,sans-Serif" font-size="10.00" fill="#000000">vector&lt; const char * &gt;</text>
</g>
<!-- Node6&#45;&gt;Node1 -->
<g id="edge5" class="edge">
<title>Node6&#45;&gt;Node1</title>
<path fill="none" stroke="#9a32cd" stroke-dasharray="5,2" d="M486.9034,-8.7589C509.2622,-9.1642 533.6555,-10.3432 556,-13 564.0919,-13.9622 572.5409,-15.3403 580.8521,-16.9209"/>
<polygon fill="#9a32cd" stroke="#9a32cd" points="486.8339,-5.2578 476.7883,-8.6247 486.7409,-12.2572 486.8339,-5.2578"/>
<text text-anchor="middle" x="526" y="-27" font-family="Helvetica,sans-Serif" font-size="10.00" fill="#000000"> _layers</text>
<text text-anchor="middle" x="526" y="-16" font-family="Helvetica,sans-Serif" font-size="10.00" fill="#000000">_extensions</text>
</g>
</g>
</svg>
        <g id="navigator" transform="translate(0 0)" fill="#404254">
                <rect fill="#f2f5e9" fill-opacity="0.5" stroke="#606060" stroke-width=".5" x="0" y="0" width="60" height="60"/>
                <use id="zoomplus" xlink:href="#zoomPlus" x="17" y="9" onmousedown="handleZoom(evt,'in')"/>
                <use id="zoomminus" xlink:href="#zoomMin" x="42" y="9" onmousedown="handleZoom(evt,'out')"/>
                <use id="reset" xlink:href="#resetDef" x="30" y="36" onmousedown="handleReset()"/>
                <g id="arrowUp" xlink:href="#dirArrow" transform="translate(30 24)" onmousedown="handlePan(0,-1)">
                  <use xlink:href="#rim" fill="#404040">
                        <set attributeName="fill" to="#808080" begin="arrowUp.mouseover" end="arrowUp.mouseout"/>
                  </use>
                  <path fill="none" stroke="white" stroke-width="1.5" d="M0,-3.0v7 M-2.5,-0.5L0,-3.0L2.5,-0.5"/>
                </g>
                <g id="arrowRight" xlink:href="#dirArrow" transform="rotate(90) translate(36 -43)" onmousedown="handlePan(1,0)">
                  <use xlink:href="#rim" fill="#404040">
                        <set attributeName="fill" to="#808080" begin="arrowRight.mouseover" end="arrowRight.mouseout"/>
                  </use>
                  <path fill="none" stroke="white" stroke-width="1.5" d="M0,-3.0v7 M-2.5,-0.5L0,-3.0L2.5,-0.5"/>
                </g>
                <g id="arrowDown" xlink:href="#dirArrow" transform="rotate(180) translate(-30 -48)" onmousedown="handlePan(0,1)">
                  <use xlink:href="#rim" fill="#404040">
                        <set attributeName="fill" to="#808080" begin="arrowDown.mouseover" end="arrowDown.mouseout"/>
                  </use>
                  <path fill="none" stroke="white" stroke-width="1.5" d="M0,-3.0v7 M-2.5,-0.5L0,-3.0L2.5,-0.5"/>
                </g>
                <g id="arrowLeft" xlink:href="#dirArrow" transform="rotate(270) translate(-36 17)" onmousedown="handlePan(-1,0)">
                  <use xlink:href="#rim" fill="#404040">
                        <set attributeName="fill" to="#808080" begin="arrowLeft.mouseover" end="arrowLeft.mouseout"/>
                  </use>
                  <path fill="none" stroke="white" stroke-width="1.5" d="M0,-3.0v7 M-2.5,-0.5L0,-3.0L2.5,-0.5"/>
                </g>
        </g>
        <svg viewBox="0 0 15 15" width="100%" height="30px" preserveAspectRatio="xMaxYMin meet">
         <g id="arrow_out" transform="scale(0.3 0.3)">
          <a xlink:href="classlug_1_1Graphics_1_1Vulkan_1_1API_1_1Builder_1_1Instance__coll__graph_org.svg" target="_base">
           <rect id="button" ry="5" rx="5" y="6" x="6" height="38" width="38"
                fill="#f2f5e9" fill-opacity="0.5" stroke="#606060" stroke-width="1.0"/>
           <path id="arrow"
             d="M 11.500037,31.436501 C 11.940474,20.09759 22.043105,11.32322 32.158766,21.979434 L 37.068811,17.246167 C 37.068811,17.246167 37.088388,32 37.088388,32 L 22.160133,31.978069 C 22.160133,31.978069 26.997745,27.140456 26.997745,27.140456 C 18.528582,18.264221 13.291696,25.230495 11.500037,31.436501 z"
             style="fill:#404040;"/>
          </a>
         </g>
        </svg>
</svg>
