<?xml version="1.0" encoding="UTF-8" standalone="no"?>
<!DOCTYPE svg PUBLIC "-//W3C//DTD SVG 1.1//EN"
 "http://www.w3.org/Graphics/SVG/1.1/DTD/svg11.dtd">
<!-- Generated by graphviz version 2.40.1 (20161225.0304)
 -->
<!-- Title: lug::Graphics::Builder::Light Pages: 1 -->
<svg width="1432pt" height="656pt"
 viewBox="0.00 0.00 1432.00 656.33" xmlns="http://www.w3.org/2000/svg" xmlns:xlink="http://www.w3.org/1999/xlink">
<g id="graph0" class="graph" transform="scale(1 1) rotate(0) translate(4 652.326)">
<title>lug::Graphics::Builder::Light</title>
<!-- Node1 -->
<g id="node1" class="node">
<title>Node1</title>
<polygon fill="#bfbfbf" stroke="#000000" points="1296,-211.326 1296,-241.326 1424,-241.326 1424,-211.326 1296,-211.326"/>
<text text-anchor="start" x="1304" y="-229.326" font-family="Helvetica,sans-Serif" font-size="10.00" fill="#000000">lug::Graphics::Builder</text>
<text text-anchor="middle" x="1360" y="-218.326" font-family="Helvetica,sans-Serif" font-size="10.00" fill="#000000">::Light</text>
</g>
<!-- Node2 -->
<g id="node2" class="node">
<title>Node2</title>
<polygon fill="none" stroke="#bfbfbf" points="1061,-562.826 1061,-581.826 1100,-581.826 1100,-562.826 1061,-562.826"/>
<text text-anchor="middle" x="1080.5" y="-569.826" font-family="Helvetica,sans-Serif" font-size="10.00" fill="#000000">float</text>
</g>
<!-- Node2&#45;&gt;Node1 -->
<g id="edge1" class="edge">
<title>Node2&#45;&gt;Node1</title>
<path fill="none" stroke="#9a32cd" stroke-dasharray="5,2" d="M1110.2053,-578.1155C1152.8396,-584.5777 1231.3674,-589.3235 1278,-548.326 1325.5485,-506.5231 1351.8429,-299.6802 1358.3743,-241.5474"/>
<polygon fill="#9a32cd" stroke="#9a32cd" points="1110.6169,-574.6362 1100.1807,-576.4624 1109.4779,-581.543 1110.6169,-574.6362"/>
<text text-anchor="middle" x="1223" y="-640.326" font-family="Helvetica,sans-Serif" font-size="10.00" fill="#000000"> _falloffExponent</text>
<text text-anchor="middle" x="1223" y="-629.326" font-family="Helvetica,sans-Serif" font-size="10.00" fill="#000000">_distance</text>
<text text-anchor="middle" x="1223" y="-618.326" font-family="Helvetica,sans-Serif" font-size="10.00" fill="#000000">_constantAttenuation</text>
<text text-anchor="middle" x="1223" y="-607.326" font-family="Helvetica,sans-Serif" font-size="10.00" fill="#000000">_falloffAngle</text>
<text text-anchor="middle" x="1223" y="-596.326" font-family="Helvetica,sans-Serif" font-size="10.00" fill="#000000">_quadraticAttenuation</text>
<text text-anchor="middle" x="1223" y="-585.326" font-family="Helvetica,sans-Serif" font-size="10.00" fill="#000000">_linearAttenuation</text>
</g>
<!-- Node3 -->
<g id="node3" class="node">
<title>Node3</title>
<polygon fill="none" stroke="#bfbfbf" points="17.5,-119.826 17.5,-138.826 62.5,-138.826 62.5,-119.826 17.5,-119.826"/>
<text text-anchor="middle" x="40" y="-126.826" font-family="Helvetica,sans-Serif" font-size="10.00" fill="#000000">string</text>
</g>
<!-- Node3&#45;&gt;Node1 -->
<g id="edge2" class="edge">
<title>Node3&#45;&gt;Node1</title>
<path fill="none" stroke="#9a32cd" stroke-dasharray="5,2" d="M72.4187,-120.6525C117.262,-109.4369 200.9129,-91.326 273.5,-91.326 273.5,-91.326 273.5,-91.326 1080.5,-91.326 1189.6234,-91.326 1300.9949,-175.7963 1342.7788,-211.1022"/>
<polygon fill="#9a32cd" stroke="#9a32cd" points="71.496,-117.2757 62.6695,-123.1361 73.2241,-124.059 71.496,-117.2757"/>
<text text-anchor="middle" x="678" y="-94.326" font-family="Helvetica,sans-Serif" font-size="10.00" fill="#000000"> _name</text>
</g>
<!-- Node9 -->
<g id="node9" class="node">
<title>Node9</title>
<g id="a_node9"><a xlink:href="structlug_1_1Graphics_1_1Renderer_1_1InitInfo.html" target="_top" xlink:title="lug::Graphics::Renderer\l::InitInfo">
<polygon fill="none" stroke="#000000" points="204,-303.326 204,-333.326 343,-333.326 343,-303.326 204,-303.326"/>
<text text-anchor="start" x="212" y="-321.326" font-family="Helvetica,sans-Serif" font-size="10.00" fill="#000000">lug::Graphics::Renderer</text>
<text text-anchor="middle" x="273.5" y="-310.326" font-family="Helvetica,sans-Serif" font-size="10.00" fill="#000000">::InitInfo</text>
</a>
</g>
</g>
<!-- Node3&#45;&gt;Node9 -->
<g id="edge10" class="edge">
<title>Node3&#45;&gt;Node9</title>
<path fill="none" stroke="#9a32cd" stroke-dasharray="5,2" d="M59.9354,-145.4621C104.4641,-181.5046 211.4907,-268.1343 254.8186,-303.2049"/>
<polygon fill="#9a32cd" stroke="#9a32cd" points="61.8752,-142.5294 51.9003,-138.9584 57.4711,-147.9704 61.8752,-142.5294"/>
<text text-anchor="middle" x="142" y="-248.326" font-family="Helvetica,sans-Serif" font-size="10.00" fill="#000000"> shadersRoot</text>
</g>
<!-- Node10 -->
<g id="node10" class="node">
<title>Node10</title>
<g id="a_node10"><a xlink:href="classlug_1_1Graphics_1_1Graphics.html" target="_top" xlink:title="Class for graphics. ">
<polygon fill="none" stroke="#000000" points="735,-231.826 735,-250.826 872,-250.826 872,-231.826 735,-231.826"/>
<text text-anchor="middle" x="803.5" y="-238.826" font-family="Helvetica,sans-Serif" font-size="10.00" fill="#000000">lug::Graphics::Graphics</text>
</a>
</g>
</g>
<!-- Node3&#45;&gt;Node10 -->
<g id="edge19" class="edge">
<title>Node3&#45;&gt;Node10</title>
<path fill="none" stroke="#9a32cd" stroke-dasharray="5,2" d="M72.5799,-127.9674C161.7982,-124.7658 417.3944,-119.0727 627,-148.326 665.1129,-153.6452 676.4024,-152.4768 711,-169.326 744.8479,-185.8101 778.0814,-216.0702 793.9121,-231.5872"/>
<polygon fill="#9a32cd" stroke="#9a32cd" points="72.4008,-124.4715 62.5387,-128.343 72.6625,-131.4666 72.4008,-124.4715"/>
<text text-anchor="middle" x="410.5" y="-134.326" font-family="Helvetica,sans-Serif" font-size="10.00" fill="#000000"> _appName</text>
</g>
<!-- Node4 -->
<g id="node4" class="node">
<title>Node4</title>
<polygon fill="none" stroke="#bfbfbf" points="19.5,-429.826 19.5,-448.826 60.5,-448.826 60.5,-429.826 19.5,-429.826"/>
<text text-anchor="middle" x="40" y="-436.826" font-family="Helvetica,sans-Serif" font-size="10.00" fill="#000000">Type</text>
</g>
<!-- Node4&#45;&gt;Node1 -->
<g id="edge3" class="edge">
<title>Node4&#45;&gt;Node1</title>
<path fill="none" stroke="#9a32cd" stroke-dasharray="5,2" d="M61.5681,-454.7375C101.3984,-481.6376 190.0625,-534.326 273.5,-534.326 273.5,-534.326 273.5,-534.326 1080.5,-534.326 1240.4391,-534.326 1332.8508,-303.7478 1354.8539,-241.5998"/>
<polygon fill="#9a32cd" stroke="#9a32cd" points="63.3961,-451.7467 53.1749,-448.9579 59.426,-457.5121 63.3961,-451.7467"/>
<text text-anchor="middle" x="678" y="-537.326" font-family="Helvetica,sans-Serif" font-size="10.00" fill="#000000"> _type</text>
</g>
<!-- Node7 -->
<g id="node7" class="node">
<title>Node7</title>
<g id="a_node7"><a xlink:href="classlug_1_1Graphics_1_1Renderer.html" target="_top" xlink:title="lug::Graphics::Renderer">
<polygon fill="none" stroke="#000000" points="1011,-375.826 1011,-394.826 1150,-394.826 1150,-375.826 1011,-375.826"/>
<text text-anchor="middle" x="1080.5" y="-382.826" font-family="Helvetica,sans-Serif" font-size="10.00" fill="#000000">lug::Graphics::Renderer</text>
</a>
</g>
</g>
<!-- Node4&#45;&gt;Node7 -->
<g id="edge22" class="edge">
<title>Node4&#45;&gt;Node7</title>
<path fill="none" stroke="#9a32cd" stroke-dasharray="5,2" d="M70.7675,-440.1672C189.965,-443.0104 632.6001,-449.7097 993,-404.326 1009.8113,-402.209 1028.1695,-398.4503 1043.7097,-394.8316"/>
<polygon fill="#9a32cd" stroke="#9a32cd" points="70.6458,-436.6632 60.562,-439.9139 70.472,-443.6611 70.6458,-436.6632"/>
<text text-anchor="middle" x="552.5" y="-442.326" font-family="Helvetica,sans-Serif" font-size="10.00" fill="#000000"> _type</text>
</g>
<!-- Node4&#45;&gt;Node9 -->
<g id="edge11" class="edge">
<title>Node4&#45;&gt;Node9</title>
<path fill="none" stroke="#9a32cd" stroke-dasharray="5,2" d="M58.9923,-423.1044C69.9479,-414.2214 84.2422,-403.4096 98,-395.326 141.6042,-369.7057 195.299,-347.364 231.7297,-333.4397"/>
<polygon fill="#9a32cd" stroke="#9a32cd" points="56.4658,-420.6523 50.9959,-429.726 60.9303,-426.0438 56.4658,-420.6523"/>
<text text-anchor="middle" x="142" y="-398.326" font-family="Helvetica,sans-Serif" font-size="10.00" fill="#000000"> renderTechnique</text>
</g>
<!-- Node13 -->
<g id="node13" class="node">
<title>Node13</title>
<g id="a_node13"><a xlink:href="structlug_1_1Graphics_1_1Graphics_1_1InitInfo.html" target="_top" xlink:title="Utility structure used to initialize the Graphics component. ">
<polygon fill="none" stroke="#000000" points="484,-303.326 484,-333.326 621,-333.326 621,-303.326 484,-303.326"/>
<text text-anchor="start" x="492" y="-321.326" font-family="Helvetica,sans-Serif" font-size="10.00" fill="#000000">lug::Graphics::Graphics</text>
<text text-anchor="middle" x="552.5" y="-310.326" font-family="Helvetica,sans-Serif" font-size="10.00" fill="#000000">::InitInfo</text>
</a>
</g>
</g>
<!-- Node4&#45;&gt;Node13 -->
<g id="edge18" class="edge">
<title>Node4&#45;&gt;Node13</title>
<path fill="none" stroke="#9a32cd" stroke-dasharray="5,2" d="M70.6413,-432.0916C152.4909,-412.7672 377.549,-359.6315 488.6903,-333.3913"/>
<polygon fill="#9a32cd" stroke="#9a32cd" points="69.6535,-428.7285 60.7254,-434.4328 71.262,-435.5412 69.6535,-428.7285"/>
<text text-anchor="middle" x="273.5" y="-403.326" font-family="Helvetica,sans-Serif" font-size="10.00" fill="#000000"> rendererType</text>
</g>
<!-- Node5 -->
<g id="node5" class="node">
<title>Node5</title>
<polygon fill="none" stroke="#bfbfbf" points="1058.5,-43.826 1058.5,-62.826 1102.5,-62.826 1102.5,-43.826 1058.5,-43.826"/>
<text text-anchor="middle" x="1080.5" y="-50.826" font-family="Helvetica,sans-Serif" font-size="10.00" fill="#000000">Vec3f</text>
</g>
<!-- Node5&#45;&gt;Node1 -->
<g id="edge4" class="edge">
<title>Node5&#45;&gt;Node1</title>
<path fill="none" stroke="#9a32cd" stroke-dasharray="5,2" d="M1112.4303,-46.4498C1154.1653,-39.3292 1227.8358,-33.3549 1278,-66.326 1329.9066,-100.4422 1350.6643,-178.2005 1357.3346,-211.1359"/>
<polygon fill="#9a32cd" stroke="#9a32cd" points="1111.7469,-43.0166 1102.5415,-48.2618 1113.0086,-49.902 1111.7469,-43.0166"/>
<text text-anchor="middle" x="1223" y="-69.326" font-family="Helvetica,sans-Serif" font-size="10.00" fill="#000000"> _direction</text>
</g>
<!-- Node6 -->
<g id="node6" class="node">
<title>Node6</title>
<polygon fill="none" stroke="#bfbfbf" points="1058.5,-5.826 1058.5,-24.826 1102.5,-24.826 1102.5,-5.826 1058.5,-5.826"/>
<text text-anchor="middle" x="1080.5" y="-12.826" font-family="Helvetica,sans-Serif" font-size="10.00" fill="#000000">Vec4f</text>
</g>
<!-- Node6&#45;&gt;Node1 -->
<g id="edge5" class="edge">
<title>Node6&#45;&gt;Node1</title>
<path fill="none" stroke="#9a32cd" stroke-dasharray="5,2" d="M1112.4879,-7.4873C1154.594,.8564 1228.9979,8.5587 1278,-26.326 1340.8248,-71.051 1355.6257,-172.8479 1359.0204,-211.2695"/>
<polygon fill="#9a32cd" stroke="#9a32cd" points="1111.5732,-4.1032 1102.5139,-9.5968 1113.0218,-10.9517 1111.5732,-4.1032"/>
<text text-anchor="middle" x="1223" y="-29.326" font-family="Helvetica,sans-Serif" font-size="10.00" fill="#000000"> _color</text>
</g>
<!-- Node7&#45;&gt;Node1 -->
<g id="edge6" class="edge">
<title>Node7&#45;&gt;Node1</title>
<path fill="none" stroke="#9a32cd" stroke-dasharray="5,2" d="M1106.3459,-370.6229C1159.3144,-340.4906 1279.7064,-272.0029 1333.3497,-241.4866"/>
<polygon fill="#9a32cd" stroke="#9a32cd" points="1104.5246,-367.6323 1097.5632,-375.6192 1107.9859,-373.7167 1104.5246,-367.6323"/>
<text text-anchor="middle" x="1223" y="-336.326" font-family="Helvetica,sans-Serif" font-size="10.00" fill="#000000"> _renderer</text>
</g>
<!-- Node8 -->
<g id="node8" class="node">
<title>Node8</title>
<polygon fill="none" stroke="#bfbfbf" points="0,-334.826 0,-353.826 80,-353.826 80,-334.826 0,-334.826"/>
<text text-anchor="middle" x="40" y="-341.826" font-family="Helvetica,sans-Serif" font-size="10.00" fill="#000000">DisplayMode</text>
</g>
<!-- Node8&#45;&gt;Node7 -->
<g id="edge7" class="edge">
<title>Node8&#45;&gt;Node7</title>
<path fill="none" stroke="#9a32cd" stroke-dasharray="5,2" d="M79.5791,-356.5502C85.6972,-358.0594 91.982,-359.3957 98,-360.326 273.3755,-387.4366 718.5727,-386.9921 896,-390.326 939.1035,-391.1359 949.9064,-391.5562 993,-390.326 998.7796,-390.161 1004.7714,-389.9348 1010.7849,-389.6692"/>
<polygon fill="#9a32cd" stroke="#9a32cd" points="80.0793,-353.0622 69.5168,-353.8883 78.2891,-359.8294 80.0793,-353.0622"/>
<text text-anchor="middle" x="552.5" y="-389.326" font-family="Helvetica,sans-Serif" font-size="10.00" fill="#000000"> _displayMode</text>
</g>
<!-- Node8&#45;&gt;Node9 -->
<g id="edge9" class="edge">
<title>Node8&#45;&gt;Node9</title>
<path fill="none" stroke="#9a32cd" stroke-dasharray="5,2" d="M63.2467,-329.6023C73.4876,-323.9518 85.9201,-318.1777 98,-315.326 132.255,-307.2395 171.3243,-307.0604 203.8909,-309.2997"/>
<polygon fill="#9a32cd" stroke="#9a32cd" points="61.417,-326.6174 54.5309,-334.6693 64.9352,-332.6691 61.417,-326.6174"/>
<text text-anchor="middle" x="142" y="-318.326" font-family="Helvetica,sans-Serif" font-size="10.00" fill="#000000"> displayMode</text>
</g>
<!-- Node9&#45;&gt;Node7 -->
<g id="edge8" class="edge">
<title>Node9&#45;&gt;Node7</title>
<path fill="none" stroke="#9a32cd" stroke-dasharray="5,2" d="M353.2744,-332.2897C355.878,-332.6533 358.4585,-333.0001 361,-333.326 412.7658,-339.9632 425.9668,-339.289 478,-343.326 670.877,-358.2903 898.6862,-373.5003 1010.8933,-380.8292"/>
<polygon fill="#9a32cd" stroke="#9a32cd" points="353.5513,-328.7931 343.1507,-330.8122 352.5404,-335.7197 353.5513,-328.7931"/>
<text text-anchor="middle" x="678" y="-362.326" font-family="Helvetica,sans-Serif" font-size="10.00" fill="#000000"> _initInfo</text>
</g>
<!-- Node9&#45;&gt;Node13 -->
<g id="edge16" class="edge">
<title>Node9&#45;&gt;Node13</title>
<path fill="none" stroke="#9a32cd" stroke-dasharray="5,2" d="M353.191,-318.326C394.3983,-318.326 444.1945,-318.326 483.7043,-318.326"/>
<polygon fill="#9a32cd" stroke="#9a32cd" points="353.1838,-314.8261 343.1838,-318.326 353.1837,-321.8261 353.1838,-314.8261"/>
<text text-anchor="middle" x="410.5" y="-321.326" font-family="Helvetica,sans-Serif" font-size="10.00" fill="#000000"> rendererInitInfo</text>
</g>
<!-- Node10&#45;&gt;Node7 -->
<g id="edge12" class="edge">
<title>Node10&#45;&gt;Node7</title>
<path fill="none" stroke="#9a32cd" stroke-dasharray="5,2" d="M832.2255,-255.5113C869.482,-273.9932 936.4034,-307.4768 993,-337.326 1017.6744,-350.3393 1045.9213,-365.9694 1063.4879,-375.7778"/>
<polygon fill="#9a32cd" stroke="#9a32cd" points="833.4912,-252.2324 822.9768,-250.9292 830.3836,-258.5048 833.4912,-252.2324"/>
<text text-anchor="middle" x="944.5" y="-340.326" font-family="Helvetica,sans-Serif" font-size="10.00" fill="#000000"> _graphics</text>
</g>
<!-- Node11 -->
<g id="node11" class="node">
<title>Node11</title>
<g id="a_node11"><a xlink:href="structlug_1_1Core_1_1Version.html" target="_top" xlink:title="Stores the version of the Application. ">
<polygon fill="none" stroke="#000000" points="497.5,-157.826 497.5,-176.826 607.5,-176.826 607.5,-157.826 497.5,-157.826"/>
<text text-anchor="middle" x="552.5" y="-164.826" font-family="Helvetica,sans-Serif" font-size="10.00" fill="#000000">lug::Core::Version</text>
</a>
</g>
</g>
<!-- Node11&#45;&gt;Node10 -->
<g id="edge13" class="edge">
<title>Node11&#45;&gt;Node10</title>
<path fill="none" stroke="#9a32cd" stroke-dasharray="5,2" d="M617.6798,-170.248C646.8254,-172.9966 681.2443,-178.2661 711,-188.326 741.5081,-198.6402 773.277,-219.4182 790.4987,-231.6709"/>
<polygon fill="#9a32cd" stroke="#9a32cd" points="617.8711,-166.7516 607.6068,-169.3772 617.2682,-173.7256 617.8711,-166.7516"/>
<text text-anchor="middle" x="678" y="-191.326" font-family="Helvetica,sans-Serif" font-size="10.00" fill="#000000"> _appVersion</text>
</g>
<!-- Node12 -->
<g id="node12" class="node">
<title>Node12</title>
<polygon fill="none" stroke="#bfbfbf" points="245,-157.826 245,-176.826 302,-176.826 302,-157.826 245,-157.826"/>
<text text-anchor="middle" x="273.5" y="-164.826" font-family="Helvetica,sans-Serif" font-size="10.00" fill="#000000">uint32_t</text>
</g>
<!-- Node12&#45;&gt;Node11 -->
<g id="edge14" class="edge">
<title>Node12&#45;&gt;Node11</title>
<path fill="none" stroke="#9a32cd" stroke-dasharray="5,2" d="M312.0515,-167.326C360.1416,-167.326 442.69,-167.326 497.4319,-167.326"/>
<polygon fill="#9a32cd" stroke="#9a32cd" points="312.0468,-163.8261 302.0467,-167.326 312.0467,-170.8261 312.0468,-163.8261"/>
<text text-anchor="middle" x="410.5" y="-192.326" font-family="Helvetica,sans-Serif" font-size="10.00" fill="#000000"> patch</text>
<text text-anchor="middle" x="410.5" y="-181.326" font-family="Helvetica,sans-Serif" font-size="10.00" fill="#000000">major</text>
<text text-anchor="middle" x="410.5" y="-170.326" font-family="Helvetica,sans-Serif" font-size="10.00" fill="#000000">minor</text>
</g>
<!-- Node13&#45;&gt;Node10 -->
<g id="edge15" class="edge">
<title>Node13&#45;&gt;Node10</title>
<path fill="none" stroke="#9a32cd" stroke-dasharray="5,2" d="M618.3555,-300.5253C646.939,-292.5682 680.7338,-282.8493 711,-273.326 733.531,-266.2365 758.8651,-257.4117 777.3159,-250.8261"/>
<polygon fill="#9a32cd" stroke="#9a32cd" points="617.1788,-297.2194 608.4769,-303.2631 619.0484,-303.9651 617.1788,-297.2194"/>
<text text-anchor="middle" x="678" y="-295.326" font-family="Helvetica,sans-Serif" font-size="10.00" fill="#000000"> _initInfo</text>
</g>
<!-- Node14 -->
<g id="node14" class="node">
<title>Node14</title>
<polygon fill="none" stroke="#bfbfbf" points="211.5,-228.826 211.5,-247.826 335.5,-247.826 335.5,-228.826 211.5,-228.826"/>
<text text-anchor="middle" x="273.5" y="-235.826" font-family="Helvetica,sans-Serif" font-size="10.00" fill="#000000">set&lt; Module::Type &gt;</text>
</g>
<!-- Node14&#45;&gt;Node10 -->
<g id="edge21" class="edge">
<title>Node14&#45;&gt;Node10</title>
<path fill="none" stroke="#9a32cd" stroke-dasharray="5,2" d="M346.0162,-231.299C417.4857,-225.3053 529.7906,-218.382 627,-223.326 662.6834,-225.1408 702.2681,-229.0068 734.8919,-232.6924"/>
<polygon fill="#9a32cd" stroke="#9a32cd" points="345.4398,-227.8354 335.7745,-232.1751 346.0364,-234.81 345.4398,-227.8354"/>
<text text-anchor="middle" x="552.5" y="-237.326" font-family="Helvetica,sans-Serif" font-size="10.00" fill="#000000"> _loadedOptionalModules</text>
<text text-anchor="middle" x="552.5" y="-226.326" font-family="Helvetica,sans-Serif" font-size="10.00" fill="#000000">_loadedMandatoryModules</text>
</g>
<!-- Node14&#45;&gt;Node13 -->
<g id="edge17" class="edge">
<title>Node14&#45;&gt;Node13</title>
<path fill="none" stroke="#9a32cd" stroke-dasharray="5,2" d="M316.6225,-250.6908C366.0448,-264.8621 447.036,-288.0854 500.0638,-303.2905"/>
<polygon fill="#9a32cd" stroke="#9a32cd" points="317.4542,-247.2883 306.8768,-247.8964 315.5247,-254.0172 317.4542,-247.2883"/>
<text text-anchor="middle" x="410.5" y="-303.326" font-family="Helvetica,sans-Serif" font-size="10.00" fill="#000000"> mandatoryModules</text>
<text text-anchor="middle" x="410.5" y="-292.326" font-family="Helvetica,sans-Serif" font-size="10.00" fill="#000000">optionalModules</text>
</g>
<!-- Node15 -->
<g id="node15" class="node">
<title>Node15</title>
<polygon fill="none" stroke="#bfbfbf" points="478,-254.326 478,-284.326 627,-284.326 627,-254.326 478,-254.326"/>
<text text-anchor="start" x="486" y="-272.326" font-family="Helvetica,sans-Serif" font-size="10.00" fill="#000000">unique_ptr&lt; lug::Graphics</text>
<text text-anchor="middle" x="552.5" y="-261.326" font-family="Helvetica,sans-Serif" font-size="10.00" fill="#000000">::Renderer &gt;</text>
</g>
<!-- Node15&#45;&gt;Node10 -->
<g id="edge20" class="edge">
<title>Node15&#45;&gt;Node10</title>
<path fill="none" stroke="#9a32cd" stroke-dasharray="5,2" d="M637.2807,-259.8684C669.0071,-256.3292 704.6274,-252.3556 734.7316,-248.9974"/>
<polygon fill="#9a32cd" stroke="#9a32cd" points="636.679,-256.4137 627.1287,-261.0009 637.4551,-263.3705 636.679,-256.4137"/>
<text text-anchor="middle" x="678" y="-261.326" font-family="Helvetica,sans-Serif" font-size="10.00" fill="#000000"> _renderer</text>
</g>
<!-- Node16 -->
<g id="node16" class="node">
<title>Node16</title>
<polygon fill="none" stroke="#bfbfbf" points="729,-475.326 729,-505.326 878,-505.326 878,-475.326 729,-475.326"/>
<text text-anchor="start" x="737" y="-493.326" font-family="Helvetica,sans-Serif" font-size="10.00" fill="#000000">unique_ptr&lt; lug::Graphics</text>
<text text-anchor="middle" x="803.5" y="-482.326" font-family="Helvetica,sans-Serif" font-size="10.00" fill="#000000">::ResourceManager &gt;</text>
</g>
<!-- Node16&#45;&gt;Node7 -->
<g id="edge23" class="edge">
<title>Node16&#45;&gt;Node7</title>
<path fill="none" stroke="#9a32cd" stroke-dasharray="5,2" d="M888.5364,-486.853C922.2774,-482.9592 960.6648,-475.266 993,-460.326 1027.1459,-444.5494 1058.3294,-411.4966 1072.4863,-395.0505"/>
<polygon fill="#9a32cd" stroke="#9a32cd" points="887.8026,-483.411 878.2261,-487.9433 888.5387,-490.3722 887.8026,-483.411"/>
<text text-anchor="middle" x="944.5" y="-488.326" font-family="Helvetica,sans-Serif" font-size="10.00" fill="#000000"> _resourceManager</text>
</g>
</g>
</svg>
