<?xml version="1.0" encoding="UTF-8" standalone="no"?>
<!DOCTYPE svg PUBLIC "-//W3C//DTD SVG 1.1//EN"
 "http://www.w3.org/Graphics/SVG/1.1/DTD/svg11.dtd">
<!-- Generated by graphviz version 2.40.1 (20161225.0304)
 -->
<!-- Title: lug::Graphics::Vulkan::API::Builder::Instance Pages: 1 -->
<svg width="719pt" height="122pt"
 viewBox="0.00 0.00 719.00 122.00" xmlns="http://www.w3.org/2000/svg" xmlns:xlink="http://www.w3.org/1999/xlink">
<g id="graph0" class="graph" transform="scale(1 1) rotate(0) translate(4 118)">
<title>lug::Graphics::Vulkan::API::Builder::Instance</title>
<!-- Node1 -->
<g id="node1" class="node">
<title>Node1</title>
<polygon fill="#bfbfbf" stroke="#000000" points="574,-17 574,-47 711,-47 711,-17 574,-17"/>
<text text-anchor="start" x="582" y="-35" font-family="Helvetica,sans-Serif" font-size="10.00" fill="#000000">lug::Graphics::Vulkan</text>
<text text-anchor="middle" x="642.5" y="-24" font-family="Helvetica,sans-Serif" font-size="10.00" fill="#000000">::API::Builder::Instance</text>
</g>
<!-- Node2 -->
<g id="node2" class="node">
<title>Node2</title>
<g id="a_node2"><a xlink:href="structlug_1_1Graphics_1_1Vulkan_1_1API_1_1Builder_1_1Instance_1_1ApplicationInfo.html" target="_top" xlink:title="lug::Graphics::Vulkan\l::API::Builder::Instance\l::ApplicationInfo">
<polygon fill="none" stroke="#000000" points="341,-38.5 341,-79.5 478,-79.5 478,-38.5 341,-38.5"/>
<text text-anchor="start" x="349" y="-67.5" font-family="Helvetica,sans-Serif" font-size="10.00" fill="#000000">lug::Graphics::Vulkan</text>
<text text-anchor="start" x="349" y="-56.5" font-family="Helvetica,sans-Serif" font-size="10.00" fill="#000000">::API::Builder::Instance</text>
<text text-anchor="middle" x="409.5" y="-45.5" font-family="Helvetica,sans-Serif" font-size="10.00" fill="#000000">::ApplicationInfo</text>
</a>
</g>
</g>
<!-- Node2&#45;&gt;Node1 -->
<g id="edge1" class="edge">
<title>Node2&#45;&gt;Node1</title>
<path fill="none" stroke="#9a32cd" stroke-dasharray="5,2" d="M488.2307,-49.8767C516.0316,-46.6551 547.0502,-43.0607 573.9409,-39.9446"/>
<polygon fill="#9a32cd" stroke="#9a32cd" points="487.6781,-46.4172 478.1475,-51.0451 488.4839,-53.3707 487.6781,-46.4172"/>
<text text-anchor="middle" x="526" y="-51" font-family="Helvetica,sans-Serif" font-size="10.00" fill="#000000"> _appInfo</text>
</g>
<!-- Node3 -->
<g id="node3" class="node">
<title>Node3</title>
<g id="a_node3"><a xlink:href="structlug_1_1Core_1_1Version.html" target="_top" xlink:title="Stores the version of the Application. ">
<polygon fill="none" stroke="#000000" points="124,-71.5 124,-90.5 234,-90.5 234,-71.5 124,-71.5"/>
<text text-anchor="middle" x="179" y="-78.5" font-family="Helvetica,sans-Serif" font-size="10.00" fill="#000000">lug::Core::Version</text>
</a>
</g>
</g>
<!-- Node3&#45;&gt;Node2 -->
<g id="edge2" class="edge">
<title>Node3&#45;&gt;Node2</title>
<path fill="none" stroke="#9a32cd" stroke-dasharray="5,2" d="M244.1985,-74.7771C274.3376,-71.9005 310.1444,-68.483 340.7131,-65.5653"/>
<polygon fill="#9a32cd" stroke="#9a32cd" points="243.8327,-71.2961 234.2105,-75.7305 244.4978,-78.2644 243.8327,-71.2961"/>
<text text-anchor="middle" x="287.5" y="-98" font-family="Helvetica,sans-Serif" font-size="10.00" fill="#000000"> appVersion</text>
<text text-anchor="middle" x="287.5" y="-87" font-family="Helvetica,sans-Serif" font-size="10.00" fill="#000000">engineVersion</text>
<text text-anchor="middle" x="287.5" y="-76" font-family="Helvetica,sans-Serif" font-size="10.00" fill="#000000">apiVersion</text>
</g>
<!-- Node4 -->
<g id="node4" class="node">
<title>Node4</title>
<polygon fill="none" stroke="#bfbfbf" points="0,-71.5 0,-90.5 57,-90.5 57,-71.5 0,-71.5"/>
<text text-anchor="middle" x="28.5" y="-78.5" font-family="Helvetica,sans-Serif" font-size="10.00" fill="#000000">uint32_t</text>
</g>
<!-- Node4&#45;&gt;Node3 -->
<g id="edge3" class="edge">
<title>Node4&#45;&gt;Node3</title>
<path fill="none" stroke="#9a32cd" stroke-dasharray="5,2" d="M67.4044,-81C84.6214,-81 105.1792,-81 123.9314,-81"/>
<polygon fill="#9a32cd" stroke="#9a32cd" points="67.1622,-77.5001 57.1621,-81 67.1621,-84.5001 67.1622,-77.5001"/>
<text text-anchor="middle" x="90.5" y="-106" font-family="Helvetica,sans-Serif" font-size="10.00" fill="#000000"> patch</text>
<text text-anchor="middle" x="90.5" y="-95" font-family="Helvetica,sans-Serif" font-size="10.00" fill="#000000">major</text>
<text text-anchor="middle" x="90.5" y="-84" font-family="Helvetica,sans-Serif" font-size="10.00" fill="#000000">minor</text>
</g>
<!-- Node5 -->
<g id="node5" class="node">
<title>Node5</title>
<polygon fill="none" stroke="#bfbfbf" points="156.5,-26.5 156.5,-45.5 201.5,-45.5 201.5,-26.5 156.5,-26.5"/>
<text text-anchor="middle" x="179" y="-33.5" font-family="Helvetica,sans-Serif" font-size="10.00" fill="#000000">string</text>
</g>
<!-- Node5&#45;&gt;Node2 -->
<g id="edge4" class="edge">
<title>Node5&#45;&gt;Node2</title>
<path fill="none" stroke="#9a32cd" stroke-dasharray="5,2" d="M211.6135,-35.5531C240.8797,-35.5269 284.9553,-36.4151 323,-41 328.787,-41.6974 334.7618,-42.5844 340.7413,-43.5893"/>
<polygon fill="#9a32cd" stroke="#9a32cd" points="211.5238,-32.0533 201.5398,-35.5989 211.5557,-39.0533 211.5238,-32.0533"/>
<text text-anchor="middle" x="287.5" y="-55" font-family="Helvetica,sans-Serif" font-size="10.00" fill="#000000"> engineName</text>
<text text-anchor="middle" x="287.5" y="-44" font-family="Helvetica,sans-Serif" font-size="10.00" fill="#000000">appName</text>
</g>
<!-- Node6 -->
<g id="node6" class="node">
<title>Node6</title>
<polygon fill="none" stroke="#bfbfbf" points="342.5,-.5 342.5,-19.5 476.5,-19.5 476.5,-.5 342.5,-.5"/>
<text text-anchor="middle" x="409.5" y="-7.5" font-family="Helvetica,sans-Serif" font-size="10.00" fill="#000000">vector&lt; const char * &gt;</text>
</g>
<!-- Node6&#45;&gt;Node1 -->
<g id="edge5" class="edge">
<title>Node6&#45;&gt;Node1</title>
<path fill="none" stroke="#9a32cd" stroke-dasharray="5,2" d="M486.9034,-8.7589C509.2622,-9.1642 533.6555,-10.3432 556,-13 564.0919,-13.9622 572.5409,-15.3403 580.8521,-16.9209"/>
<polygon fill="#9a32cd" stroke="#9a32cd" points="486.8339,-5.2578 476.7883,-8.6247 486.7409,-12.2572 486.8339,-5.2578"/>
<text text-anchor="middle" x="526" y="-27" font-family="Helvetica,sans-Serif" font-size="10.00" fill="#000000"> _layers</text>
<text text-anchor="middle" x="526" y="-16" font-family="Helvetica,sans-Serif" font-size="10.00" fill="#000000">_extensions</text>
</g>
</g>
</svg>
