<?xml version="1.0" encoding="UTF-8" standalone="no"?>
<!DOCTYPE svg PUBLIC "-//W3C//DTD SVG 1.1//EN"
 "http://www.w3.org/Graphics/SVG/1.1/DTD/svg11.dtd">
<!-- Generated by graphviz version 2.40.1 (20161225.0304)
 -->
<!-- Title: lug::Graphics::Node Pages: 1 -->
<svg width="634pt" height="139pt"
 viewBox="0.00 0.00 634.00 139.00" xmlns="http://www.w3.org/2000/svg" xmlns:xlink="http://www.w3.org/1999/xlink">
<g id="graph0" class="graph" transform="scale(1 1) rotate(0) translate(4 135)">
<title>lug::Graphics::Node</title>
<!-- Node2 -->
<g id="node1" class="node">
<title>Node2</title>
<polygon fill="#bfbfbf" stroke="#000000" points="266.5,-.5 266.5,-19.5 385.5,-19.5 385.5,-.5 266.5,-.5"/>
<text text-anchor="middle" x="326" y="-7.5" font-family="Helvetica,sans-Serif" font-size="10.00" fill="#000000">lug::Graphics::Node</text>
</g>
<!-- Node2&#45;&gt;Node2 -->
<g id="edge6" class="edge">
<title>Node2&#45;&gt;Node2</title>
<path fill="none" stroke="#9a32cd" stroke-dasharray="5,2" d="M395.6291,-16.8446C400.5182,-15.2845 403.5,-13.0029 403.5,-10 403.5,-5.3125 396.2344,-2.3828 385.79,-1.2109"/>
<polygon fill="#9a32cd" stroke="#9a32cd" points="394.9217,-13.4166 385.79,-18.7891 396.2789,-20.2838 394.9217,-13.4166"/>
<text text-anchor="middle" x="425" y="-7.5" font-family="Helvetica,sans-Serif" font-size="10.00" fill="#000000"> _parent</text>
</g>
<!-- Node3 -->
<g id="node2" class="node">
<title>Node3</title>
<polygon fill="none" stroke="#bfbfbf" points="0,-100.5 0,-130.5 128,-130.5 128,-100.5 0,-100.5"/>
<text text-anchor="start" x="8" y="-118.5" font-family="Helvetica,sans-Serif" font-size="10.00" fill="#000000">vector&lt; lug::Graphics</text>
<text text-anchor="middle" x="64" y="-107.5" font-family="Helvetica,sans-Serif" font-size="10.00" fill="#000000">::Node * &gt;</text>
</g>
<!-- Node3&#45;&gt;Node2 -->
<g id="edge1" class="edge">
<title>Node3&#45;&gt;Node2</title>
<path fill="none" stroke="#9a32cd" stroke-dasharray="5,2" d="M75.5605,-91.1351C85.3424,-73.3592 101.1083,-50.3073 122,-38 145.7941,-23.9829 215.1711,-16.6864 266.4445,-13.104"/>
<polygon fill="#9a32cd" stroke="#9a32cd" points="72.2674,-89.8808 70.7473,-100.366 78.4743,-93.1173 72.2674,-89.8808"/>
<text text-anchor="middle" x="147" y="-57.5" font-family="Helvetica,sans-Serif" font-size="10.00" fill="#000000"> _children</text>
</g>
<!-- Node4 -->
<g id="node3" class="node">
<title>Node4</title>
<polygon fill="none" stroke="#bfbfbf" points="146,-106 146,-125 202,-125 202,-106 146,-106"/>
<text text-anchor="middle" x="174" y="-113" font-family="Helvetica,sans-Serif" font-size="10.00" fill="#000000">Mat4x4f</text>
</g>
<!-- Node4&#45;&gt;Node2 -->
<g id="edge2" class="edge">
<title>Node4&#45;&gt;Node2</title>
<path fill="none" stroke="#9a32cd" stroke-dasharray="5,2" d="M174.7526,-95.7091C176.5175,-78.0486 181.9256,-52.7637 198,-38 208.2616,-28.5752 238.0116,-21.7588 266.2493,-17.2126"/>
<polygon fill="#9a32cd" stroke="#9a32cd" points="171.2537,-95.5736 174.0524,-105.792 178.2368,-96.0586 171.2537,-95.5736"/>
<text text-anchor="middle" x="228" y="-57.5" font-family="Helvetica,sans-Serif" font-size="10.00" fill="#000000"> _transform</text>
</g>
<!-- Node5 -->
<g id="node4" class="node">
<title>Node5</title>
<polygon fill="none" stroke="#bfbfbf" points="220,-106 220,-125 338,-125 338,-106 220,-106"/>
<text text-anchor="middle" x="279" y="-113" font-family="Helvetica,sans-Serif" font-size="10.00" fill="#000000">Quaternion&lt; float &gt;</text>
</g>
<!-- Node5&#45;&gt;Node2 -->
<g id="edge3" class="edge">
<title>Node5&#45;&gt;Node2</title>
<path fill="none" stroke="#9a32cd" stroke-dasharray="5,2" d="M270.0384,-96.3098C263.6945,-79.6616 258.0703,-55.5461 269,-38 274.1881,-29.6712 282.6582,-23.7493 291.5011,-19.5674"/>
<polygon fill="#9a32cd" stroke="#9a32cd" points="266.8364,-97.7245 273.9399,-105.5852 273.2889,-95.0104 266.8364,-97.7245"/>
<text text-anchor="middle" x="316" y="-63" font-family="Helvetica,sans-Serif" font-size="10.00" fill="#000000"> _absoluteRotation</text>
<text text-anchor="middle" x="316" y="-52" font-family="Helvetica,sans-Serif" font-size="10.00" fill="#000000">_rotation</text>
</g>
<!-- Node6 -->
<g id="node5" class="node">
<title>Node6</title>
<polygon fill="none" stroke="#bfbfbf" points="366,-106 366,-125 404,-125 404,-106 366,-106"/>
<text text-anchor="middle" x="385" y="-113" font-family="Helvetica,sans-Serif" font-size="10.00" fill="#000000">bool</text>
</g>
<!-- Node6&#45;&gt;Node2 -->
<g id="edge4" class="edge">
<title>Node6&#45;&gt;Node2</title>
<path fill="none" stroke="#9a32cd" stroke-dasharray="5,2" d="M382.8736,-95.3829C380.3232,-78.7913 374.8029,-55.2601 363,-38 357.9072,-30.5525 350.1886,-24.2622 343.1165,-19.542"/>
<polygon fill="#9a32cd" stroke="#9a32cd" points="379.4419,-96.1348 384.2054,-105.5983 386.3831,-95.2297 379.4419,-96.1348"/>
<text text-anchor="middle" x="414" y="-57.5" font-family="Helvetica,sans-Serif" font-size="10.00" fill="#000000"> _needUpdate</text>
</g>
<!-- Node7 -->
<g id="node6" class="node">
<title>Node7</title>
<polygon fill="none" stroke="#bfbfbf" points="455.5,-106 455.5,-125 500.5,-125 500.5,-106 455.5,-106"/>
<text text-anchor="middle" x="478" y="-113" font-family="Helvetica,sans-Serif" font-size="10.00" fill="#000000">string</text>
</g>
<!-- Node7&#45;&gt;Node2 -->
<g id="edge5" class="edge">
<title>Node7&#45;&gt;Node2</title>
<path fill="none" stroke="#9a32cd" stroke-dasharray="5,2" d="M476.9658,-95.6966C474.9549,-78.0275 469.2087,-52.737 453,-38 442.8096,-28.7349 413.4888,-21.9414 385.5855,-17.3681"/>
<polygon fill="#9a32cd" stroke="#9a32cd" points="473.4881,-96.111 477.8079,-105.7852 480.4638,-95.5287 473.4881,-96.111"/>
<text text-anchor="middle" x="493" y="-57.5" font-family="Helvetica,sans-Serif" font-size="10.00" fill="#000000"> _name</text>
</g>
<!-- Node8 -->
<g id="node7" class="node">
<title>Node8</title>
<polygon fill="none" stroke="#bfbfbf" points="519,-106 519,-125 563,-125 563,-106 519,-106"/>
<text text-anchor="middle" x="541" y="-113" font-family="Helvetica,sans-Serif" font-size="10.00" fill="#000000">Vec3f</text>
</g>
<!-- Node8&#45;&gt;Node2 -->
<g id="edge7" class="edge">
<title>Node8&#45;&gt;Node2</title>
<path fill="none" stroke="#9a32cd" stroke-dasharray="5,2" d="M540.2336,-95.7089C538.4176,-77.8388 532.8082,-52.2304 516,-38 496.7874,-21.734 434.1357,-14.9152 385.9738,-12.058"/>
<polygon fill="#9a32cd" stroke="#9a32cd" points="536.7573,-96.1709 540.9496,-105.901 543.7401,-95.6803 536.7573,-96.1709"/>
<text text-anchor="middle" x="582" y="-74" font-family="Helvetica,sans-Serif" font-size="10.00" fill="#000000"> _position</text>
<text text-anchor="middle" x="582" y="-63" font-family="Helvetica,sans-Serif" font-size="10.00" fill="#000000">_absolutePosition</text>
<text text-anchor="middle" x="582" y="-52" font-family="Helvetica,sans-Serif" font-size="10.00" fill="#000000">_scale</text>
<text text-anchor="middle" x="582" y="-41" font-family="Helvetica,sans-Serif" font-size="10.00" fill="#000000">_absoluteScale</text>
</g>
</g>
</svg>
