<?xml version="1.0" encoding="UTF-8" standalone="no"?>
<!DOCTYPE svg PUBLIC "-//W3C//DTD SVG 1.1//EN"
 "http://www.w3.org/Graphics/SVG/1.1/DTD/svg11.dtd">
<!-- Generated by graphviz version 2.40.1 (20161225.0304)
 -->
<!-- Title: lug::Graphics::Vulkan::API::Builder::CommandBuffer Pages: 1 -->
<!--zoomable 569 -->
<svg id="main" version="1.1" xmlns="http://www.w3.org/2000/svg" xmlns:xlink="http://www.w3.org/1999/xlink" xml:space="preserve" onload="init(evt)">
<style type="text/css"><![CDATA[
.edge:hover path { stroke: red; }
.edge:hover polygon { stroke: red; fill: red; }
]]></style>
<script type="text/javascript"><![CDATA[
var edges = document.getElementsByTagName('g');
if (edges && edges.length) {
  for (var i=0;i<edges.length;i++) {
    if (edges[i].id.substr(0,4)=='edge') {
      edges[i].setAttribute('class','edge');
    }
  }
}
]]></script>
        <defs>
                <circle id="rim" cx="0" cy="0" r="7"/>
                <circle id="rim2" cx="0" cy="0" r="3.5"/>
                <g id="zoomPlus">
                        <use xlink:href="#rim" fill="#404040">
                                <set attributeName="fill" to="#808080" begin="zoomplus.mouseover" end="zoomplus.mouseout"/>
                        </use>
                        <path d="M-4,0h8M0,-4v8" fill="none" stroke="white" stroke-width="1.5" pointer-events="none"/>
                </g>
                <g id="zoomMin">
                        <use xlink:href="#rim" fill="#404040">
                                <set attributeName="fill" to="#808080" begin="zoomminus.mouseover" end="zoomminus.mouseout"/>
                        </use>
                        <path d="M-4,0h8" fill="none" stroke="white" stroke-width="1.5" pointer-events="none"/>
                </g>
                <g id="dirArrow">
                        <path fill="none" stroke="white" stroke-width="1.5" d="M0,-3.0v7 M-2.5,-0.5L0,-3.0L2.5,-0.5"/>
                </g>
               <g id="resetDef">
                       <use xlink:href="#rim2" fill="#404040">
                               <set attributeName="fill" to="#808080" begin="reset.mouseover" end="reset.mouseout"/>
                       </use>
               </g>
        </defs>

<script type="text/javascript">
var viewWidth = 1611;
var viewHeight = 569;
var sectionId = 'dynsection-0';
</script>
<script xlink:href="svgpan.js"/>
<svg id="graph" class="graph">
<g id="viewport">
<title>lug::Graphics::Vulkan::API::Builder::CommandBuffer</title>
<!-- Node1 -->
<g id="node1" class="node">
<title>Node1</title>
<polygon fill="#bfbfbf" stroke="#000000" points="1427,-197.5 1427,-227.5 1603,-227.5 1603,-197.5 1427,-197.5"/>
<text text-anchor="start" x="1435" y="-215.5" font-family="Helvetica,sans-Serif" font-size="10.00" fill="#000000">lug::Graphics::Vulkan</text>
<text text-anchor="middle" x="1515" y="-204.5" font-family="Helvetica,sans-Serif" font-size="10.00" fill="#000000">::API::Builder::CommandBuffer</text>
</g>
<!-- Node2 -->
<g id="node2" class="node">
<title>Node2</title>
<polygon fill="none" stroke="#bfbfbf" points="1174,-242 1174,-261 1311,-261 1311,-242 1174,-242"/>
<text text-anchor="middle" x="1242.5" y="-249" font-family="Helvetica,sans-Serif" font-size="10.00" fill="#000000">VkCommandBufferLevel</text>
</g>
<!-- Node2&#45;&gt;Node1 -->
<g id="edge1" class="edge">
<title>Node2&#45;&gt;Node1</title>
<path fill="none" stroke="#9a32cd" stroke-dasharray="5,2" d="M1319.3466,-240.5018C1352.8204,-235.711 1392.2424,-230.069 1426.896,-225.1094"/>
<polygon fill="#9a32cd" stroke="#9a32cd" points="1318.5642,-237.078 1309.161,-241.9595 1319.556,-244.0074 1318.5642,-237.078"/>
<text text-anchor="middle" x="1369" y="-241.5" font-family="Helvetica,sans-Serif" font-size="10.00" fill="#000000"> _level</text>
</g>
<!-- Node3 -->
<g id="node3" class="node">
<title>Node3</title>
<g id="a_node3"><a xlink:href="classlug_1_1Graphics_1_1Vulkan_1_1API_1_1CommandPool.html" target="_top" xlink:title="lug::Graphics::Vulkan\l::API::CommandPool">
<polygon fill="none" stroke="#000000" points="1179,-141.5 1179,-171.5 1306,-171.5 1306,-141.5 1179,-141.5"/>
<text text-anchor="start" x="1187" y="-159.5" font-family="Helvetica,sans-Serif" font-size="10.00" fill="#000000">lug::Graphics::Vulkan</text>
<text text-anchor="middle" x="1242.5" y="-148.5" font-family="Helvetica,sans-Serif" font-size="10.00" fill="#000000">::API::CommandPool</text>
</a>
</g>
</g>
<!-- Node3&#45;&gt;Node1 -->
<g id="edge2" class="edge">
<title>Node3&#45;&gt;Node1</title>
<path fill="none" stroke="#9a32cd" stroke-dasharray="5,2" d="M1316.328,-169.467C1345.2848,-174.7564 1378.7604,-181.1227 1409,-187.5 1423.4306,-190.5433 1438.908,-194.053 1453.4546,-197.4623"/>
<polygon fill="#9a32cd" stroke="#9a32cd" points="1316.7514,-165.9867 1306.2868,-167.6428 1315.5001,-172.874 1316.7514,-165.9867"/>
<text text-anchor="middle" x="1369" y="-190.5" font-family="Helvetica,sans-Serif" font-size="10.00" fill="#000000"> _commandPool</text>
</g>
<!-- Node4 -->
<g id="node4" class="node">
<title>Node4</title>
<g id="a_node4"><a xlink:href="classlug_1_1Graphics_1_1Vulkan_1_1API_1_1Device.html" target="_top" xlink:title="lug::Graphics::Vulkan\l::API::Device">
<polygon fill="none" stroke="#000000" points="931,-197.5 931,-227.5 1058,-227.5 1058,-197.5 931,-197.5"/>
<text text-anchor="start" x="939" y="-215.5" font-family="Helvetica,sans-Serif" font-size="10.00" fill="#000000">lug::Graphics::Vulkan</text>
<text text-anchor="middle" x="994.5" y="-204.5" font-family="Helvetica,sans-Serif" font-size="10.00" fill="#000000">::API::Device</text>
</a>
</g>
</g>
<!-- Node4&#45;&gt;Node1 -->
<g id="edge28" class="edge">
<title>Node4&#45;&gt;Node1</title>
<path fill="none" stroke="#9a32cd" stroke-dasharray="5,2" d="M1068.0899,-212.5C1162.3886,-212.5 1325.6951,-212.5 1426.624,-212.5"/>
<polygon fill="#9a32cd" stroke="#9a32cd" points="1068.0632,-209.0001 1058.0631,-212.5 1068.0631,-216.0001 1068.0632,-209.0001"/>
<text text-anchor="middle" x="1242.5" y="-215.5" font-family="Helvetica,sans-Serif" font-size="10.00" fill="#000000"> _device</text>
</g>
<!-- Node4&#45;&gt;Node3 -->
<g id="edge3" class="edge">
<title>Node4&#45;&gt;Node3</title>
<path fill="none" stroke="#9a32cd" stroke-dasharray="5,2" d="M1050.0091,-194.5528C1058.6647,-192.0213 1067.5414,-189.5777 1076,-187.5 1109.694,-179.2239 1147.7015,-171.9909 1178.8873,-166.5979"/>
<polygon fill="#9a32cd" stroke="#9a32cd" points="1048.9447,-191.2178 1040.3647,-197.4335 1050.9482,-197.925 1048.9447,-191.2178"/>
<text text-anchor="middle" x="1116" y="-190.5" font-family="Helvetica,sans-Serif" font-size="10.00" fill="#000000"> _device</text>
</g>
<!-- Node5 -->
<g id="node5" class="node">
<title>Node5</title>
<g id="a_node5"><a xlink:href="structlug_1_1Graphics_1_1Vulkan_1_1PhysicalDeviceInfo.html" target="_top" xlink:title="lug::Graphics::Vulkan\l::PhysicalDeviceInfo">
<polygon fill="none" stroke="#000000" points="642.5,-322.5 642.5,-352.5 769.5,-352.5 769.5,-322.5 642.5,-322.5"/>
<text text-anchor="start" x="650.5" y="-340.5" font-family="Helvetica,sans-Serif" font-size="10.00" fill="#000000">lug::Graphics::Vulkan</text>
<text text-anchor="middle" x="706" y="-329.5" font-family="Helvetica,sans-Serif" font-size="10.00" fill="#000000">::PhysicalDeviceInfo</text>
</a>
</g>
</g>
<!-- Node5&#45;&gt;Node4 -->
<g id="edge4" class="edge">
<title>Node5&#45;&gt;Node4</title>
<path fill="none" stroke="#9a32cd" stroke-dasharray="5,2" d="M755.191,-318.8275C797.4317,-302.4877 859.7516,-277.6504 913,-253.5 930.7423,-245.4531 950.2496,-235.6739 965.7301,-227.6847"/>
<polygon fill="#9a32cd" stroke="#9a32cd" points="753.7708,-315.6238 745.6993,-322.4868 756.2889,-322.1553 753.7708,-315.6238"/>
<text text-anchor="middle" x="861" y="-298.5" font-family="Helvetica,sans-Serif" font-size="10.00" fill="#000000"> _physicalDeviceInfo</text>
</g>
<!-- Node6 -->
<g id="node6" class="node">
<title>Node6</title>
<g id="a_node6"><a xlink:href="structlug_1_1Graphics_1_1Vulkan_1_1PhysicalDeviceInfo_1_1Swapchain.html" target="_top" xlink:title="lug::Graphics::Vulkan\l::PhysicalDeviceInfo\l::Swapchain">
<polygon fill="none" stroke="#000000" points="324.5,-492 324.5,-533 451.5,-533 451.5,-492 324.5,-492"/>
<text text-anchor="start" x="332.5" y="-521" font-family="Helvetica,sans-Serif" font-size="10.00" fill="#000000">lug::Graphics::Vulkan</text>
<text text-anchor="start" x="332.5" y="-510" font-family="Helvetica,sans-Serif" font-size="10.00" fill="#000000">::PhysicalDeviceInfo</text>
<text text-anchor="middle" x="388" y="-499" font-family="Helvetica,sans-Serif" font-size="10.00" fill="#000000">::Swapchain</text>
</a>
</g>
</g>
<!-- Node6&#45;&gt;Node5 -->
<g id="edge5" class="edge">
<title>Node6&#45;&gt;Node5</title>
<path fill="none" stroke="#9a32cd" stroke-dasharray="5,2" d="M461.6475,-503.9894C505.2963,-496.3632 560.2515,-482.0731 603,-455.5 646.1866,-428.6546 681.2395,-378.0656 696.9978,-352.7453"/>
<polygon fill="#9a32cd" stroke="#9a32cd" points="460.9531,-500.5568 451.6644,-505.6529 462.1037,-507.4616 460.9531,-500.5568"/>
<text text-anchor="middle" x="554.5" y="-496.5" font-family="Helvetica,sans-Serif" font-size="10.00" fill="#000000"> swapchain</text>
</g>
<!-- Node7 -->
<g id="node7" class="node">
<title>Node7</title>
<polygon fill="none" stroke="#bfbfbf" points="16.5,-541 16.5,-560 162.5,-560 162.5,-541 16.5,-541"/>
<text text-anchor="middle" x="89.5" y="-548" font-family="Helvetica,sans-Serif" font-size="10.00" fill="#000000">VkSurfaceCapabilitiesKHR</text>
</g>
<!-- Node7&#45;&gt;Node6 -->
<g id="edge6" class="edge">
<title>Node7&#45;&gt;Node6</title>
<path fill="none" stroke="#9a32cd" stroke-dasharray="5,2" d="M172.5828,-539.9233C220.5932,-533.8114 280.0566,-526.2415 324.3375,-520.6044"/>
<polygon fill="#9a32cd" stroke="#9a32cd" points="171.9992,-536.4692 162.5213,-541.2042 172.8833,-543.4132 171.9992,-536.4692"/>
<text text-anchor="middle" x="233.5" y="-538.5" font-family="Helvetica,sans-Serif" font-size="10.00" fill="#000000"> capabilities</text>
</g>
<!-- Node8 -->
<g id="node8" class="node">
<title>Node8</title>
<polygon fill="none" stroke="#bfbfbf" points="0,-503 0,-522 179,-522 179,-503 0,-503"/>
<text text-anchor="middle" x="89.5" y="-510" font-family="Helvetica,sans-Serif" font-size="10.00" fill="#000000">vector&lt; VkSurfaceFormatKHR &gt;</text>
</g>
<!-- Node8&#45;&gt;Node6 -->
<g id="edge7" class="edge">
<title>Node8&#45;&gt;Node6</title>
<path fill="none" stroke="#9a32cd" stroke-dasharray="5,2" d="M189.3241,-512.5C233.799,-512.5 284.8747,-512.5 324.1016,-512.5"/>
<polygon fill="#9a32cd" stroke="#9a32cd" points="189.0599,-509.0001 179.0598,-512.5 189.0598,-516.0001 189.0599,-509.0001"/>
<text text-anchor="middle" x="233.5" y="-515.5" font-family="Helvetica,sans-Serif" font-size="10.00" fill="#000000"> formats</text>
</g>
<!-- Node9 -->
<g id="node9" class="node">
<title>Node9</title>
<polygon fill="none" stroke="#bfbfbf" points="4.5,-465 4.5,-484 174.5,-484 174.5,-465 4.5,-465"/>
<text text-anchor="middle" x="89.5" y="-472" font-family="Helvetica,sans-Serif" font-size="10.00" fill="#000000">vector&lt; VkPresentModeKHR &gt;</text>
</g>
<!-- Node9&#45;&gt;Node6 -->
<g id="edge8" class="edge">
<title>Node9&#45;&gt;Node6</title>
<path fill="none" stroke="#9a32cd" stroke-dasharray="5,2" d="M174.4265,-485.3114C222.0428,-491.3731 280.4605,-498.8099 324.1567,-504.3725"/>
<polygon fill="#9a32cd" stroke="#9a32cd" points="174.8008,-481.8309 164.4389,-484.04 173.9168,-488.7749 174.8008,-481.8309"/>
<text text-anchor="middle" x="233.5" y="-499.5" font-family="Helvetica,sans-Serif" font-size="10.00" fill="#000000"> presentModes</text>
</g>
<!-- Node10 -->
<g id="node10" class="node">
<title>Node10</title>
<polygon fill="none" stroke="#bfbfbf" points="308.5,-442.5 308.5,-472.5 467.5,-472.5 467.5,-442.5 308.5,-442.5"/>
<text text-anchor="start" x="316.5" y="-460.5" font-family="Helvetica,sans-Serif" font-size="10.00" fill="#000000">unordered_map&lt; VkFormat,</text>
<text text-anchor="middle" x="388" y="-449.5" font-family="Helvetica,sans-Serif" font-size="10.00" fill="#000000"> VkFormatProperties &gt;</text>
</g>
<!-- Node10&#45;&gt;Node5 -->
<g id="edge9" class="edge">
<title>Node10&#45;&gt;Node5</title>
<path fill="none" stroke="#9a32cd" stroke-dasharray="5,2" d="M477.5162,-447.4197C517.1667,-440.7904 563.6392,-429.976 603,-412.5 636.9648,-397.4198 670.7092,-369.8326 689.895,-352.6483"/>
<polygon fill="#9a32cd" stroke="#9a32cd" points="476.9082,-443.9725 467.5911,-449.0165 478.0201,-450.8836 476.9082,-443.9725"/>
<text text-anchor="middle" x="554.5" y="-443.5" font-family="Helvetica,sans-Serif" font-size="10.00" fill="#000000"> formatProperties</text>
</g>
<!-- Node11 -->
<g id="node11" class="node">
<title>Node11</title>
<polygon fill="none" stroke="#bfbfbf" points="315,-404 315,-423 461,-423 461,-404 315,-404"/>
<text text-anchor="middle" x="388" y="-411" font-family="Helvetica,sans-Serif" font-size="10.00" fill="#000000">VkPhysicalDeviceFeatures</text>
</g>
<!-- Node11&#45;&gt;Node5 -->
<g id="edge10" class="edge">
<title>Node11&#45;&gt;Node5</title>
<path fill="none" stroke="#9a32cd" stroke-dasharray="5,2" d="M471.4795,-403.5737C511.6599,-397.7716 560.2742,-389.2402 603,-377.5 626.6767,-370.9941 652.4267,-360.9941 672.2575,-352.6206"/>
<polygon fill="#9a32cd" stroke="#9a32cd" points="470.8664,-400.1255 461.4545,-404.9903 471.8459,-407.0566 470.8664,-400.1255"/>
<text text-anchor="middle" x="554.5" y="-400.5" font-family="Helvetica,sans-Serif" font-size="10.00" fill="#000000"> features</text>
</g>
<!-- Node12 -->
<g id="node12" class="node">
<title>Node12</title>
<polygon fill="none" stroke="#bfbfbf" points="288,-366 288,-385 488,-385 488,-366 288,-366"/>
<text text-anchor="middle" x="388" y="-373" font-family="Helvetica,sans-Serif" font-size="10.00" fill="#000000">vector&lt; VkQueueFamilyProperties &gt;</text>
</g>
<!-- Node12&#45;&gt;Node5 -->
<g id="edge11" class="edge">
<title>Node12&#45;&gt;Node5</title>
<path fill="none" stroke="#9a32cd" stroke-dasharray="5,2" d="M494.5457,-364.9121C529.1692,-361.255 567.7465,-356.951 603,-352.5 615.7291,-350.8929 629.3202,-349.0234 642.3161,-347.1607"/>
<polygon fill="#9a32cd" stroke="#9a32cd" points="493.9948,-361.4506 484.4149,-365.9757 494.7257,-368.4123 493.9948,-361.4506"/>
<text text-anchor="middle" x="554.5" y="-365.5" font-family="Helvetica,sans-Serif" font-size="10.00" fill="#000000"> queueFamilies</text>
</g>
<!-- Node13 -->
<g id="node13" class="node">
<title>Node13</title>
<polygon fill="none" stroke="#bfbfbf" points="290.5,-328 290.5,-347 485.5,-347 485.5,-328 290.5,-328"/>
<text text-anchor="middle" x="388" y="-335" font-family="Helvetica,sans-Serif" font-size="10.00" fill="#000000">VkPhysicalDeviceMemoryProperties</text>
</g>
<!-- Node13&#45;&gt;Node5 -->
<g id="edge12" class="edge">
<title>Node13&#45;&gt;Node5</title>
<path fill="none" stroke="#9a32cd" stroke-dasharray="5,2" d="M495.8433,-337.5C544.5242,-337.5 600.366,-337.5 642.2461,-337.5"/>
<polygon fill="#9a32cd" stroke="#9a32cd" points="495.5716,-334.0001 485.5716,-337.5 495.5716,-341.0001 495.5716,-334.0001"/>
<text text-anchor="middle" x="554.5" y="-340.5" font-family="Helvetica,sans-Serif" font-size="10.00" fill="#000000"> memoryProperties</text>
</g>
<!-- Node14 -->
<g id="node14" class="node">
<title>Node14</title>
<polygon fill="none" stroke="#bfbfbf" points="336,-290 336,-309 440,-309 440,-290 336,-290"/>
<text text-anchor="middle" x="388" y="-297" font-family="Helvetica,sans-Serif" font-size="10.00" fill="#000000">VkPhysicalDevice</text>
</g>
<!-- Node14&#45;&gt;Node5 -->
<g id="edge13" class="edge">
<title>Node14&#45;&gt;Node5</title>
<path fill="none" stroke="#9a32cd" stroke-dasharray="5,2" d="M450.2232,-305.5245C493.1922,-309.8395 551.6255,-316.0136 603,-322.5 615.7291,-324.1071 629.3202,-325.9766 642.3161,-327.8393"/>
<polygon fill="#9a32cd" stroke="#9a32cd" points="450.4971,-302.0345 440.1987,-304.5233 449.8014,-308.9998 450.4971,-302.0345"/>
<text text-anchor="middle" x="554.5" y="-325.5" font-family="Helvetica,sans-Serif" font-size="10.00" fill="#000000"> handle</text>
</g>
<!-- Node15 -->
<g id="node15" class="node">
<title>Node15</title>
<polygon fill="none" stroke="#bfbfbf" points="310.5,-252 310.5,-271 465.5,-271 465.5,-252 310.5,-252"/>
<text text-anchor="middle" x="388" y="-259" font-family="Helvetica,sans-Serif" font-size="10.00" fill="#000000">VkPhysicalDeviceProperties</text>
</g>
<!-- Node15&#45;&gt;Node5 -->
<g id="edge14" class="edge">
<title>Node15&#45;&gt;Node5</title>
<path fill="none" stroke="#9a32cd" stroke-dasharray="5,2" d="M475.8409,-271.3999C515.1643,-276.9531 561.8443,-285.1053 603,-296.5 627.1134,-303.1763 653.2976,-313.6448 673.2312,-322.3324"/>
<polygon fill="#9a32cd" stroke="#9a32cd" points="476.1319,-267.907 465.7475,-270.0084 475.1758,-274.8414 476.1319,-267.907"/>
<text text-anchor="middle" x="554.5" y="-299.5" font-family="Helvetica,sans-Serif" font-size="10.00" fill="#000000"> properties</text>
</g>
<!-- Node16 -->
<g id="node16" class="node">
<title>Node16</title>
<polygon fill="none" stroke="#bfbfbf" points="296,-214 296,-233 480,-233 480,-214 296,-214"/>
<text text-anchor="middle" x="388" y="-221" font-family="Helvetica,sans-Serif" font-size="10.00" fill="#000000">vector&lt; VkExtensionProperties &gt;</text>
</g>
<!-- Node16&#45;&gt;Node5 -->
<g id="edge15" class="edge">
<title>Node16&#45;&gt;Node5</title>
<path fill="none" stroke="#9a32cd" stroke-dasharray="5,2" d="M490.3219,-230.6125C527.1166,-235.9707 568.1203,-245.2988 603,-261.5 612.4446,-265.8869 612.7644,-270.1267 621,-276.5 641.9725,-292.73 666.67,-310.2883 684.0223,-322.3809"/>
<polygon fill="#9a32cd" stroke="#9a32cd" points="490.4473,-227.0969 480.0641,-229.2041 489.495,-234.0319 490.4473,-227.0969"/>
<text text-anchor="middle" x="554.5" y="-264.5" font-family="Helvetica,sans-Serif" font-size="10.00" fill="#000000"> extensions</text>
</g>
<!-- Node17 -->
<g id="node17" class="node">
<title>Node17</title>
<polygon fill="none" stroke="#bfbfbf" points="621,-236.5 621,-266.5 791,-266.5 791,-236.5 621,-236.5"/>
<text text-anchor="start" x="629" y="-254.5" font-family="Helvetica,sans-Serif" font-size="10.00" fill="#000000">vector&lt; lug::Graphics</text>
<text text-anchor="middle" x="706" y="-243.5" font-family="Helvetica,sans-Serif" font-size="10.00" fill="#000000">::Vulkan::API::QueueFamily &gt;</text>
</g>
<!-- Node17&#45;&gt;Node4 -->
<g id="edge16" class="edge">
<title>Node17&#45;&gt;Node4</title>
<path fill="none" stroke="#9a32cd" stroke-dasharray="5,2" d="M801.4316,-240.1861C836.5431,-235.8462 876.6109,-230.686 913,-225.5 918.8158,-224.6712 924.8592,-223.7743 930.9081,-222.8526"/>
<polygon fill="#9a32cd" stroke="#9a32cd" points="800.6847,-236.7515 791.187,-241.4465 801.5396,-243.6991 800.6847,-236.7515"/>
<text text-anchor="middle" x="861" y="-241.5" font-family="Helvetica,sans-Serif" font-size="10.00" fill="#000000"> _queueFamilies</text>
</g>
<!-- Node18 -->
<g id="node18" class="node">
<title>Node18</title>
<polygon fill="none" stroke="#bfbfbf" points="674.5,-198 674.5,-217 737.5,-217 737.5,-198 674.5,-198"/>
<text text-anchor="middle" x="706" y="-205" font-family="Helvetica,sans-Serif" font-size="10.00" fill="#000000">VkDevice</text>
</g>
<!-- Node18&#45;&gt;Node4 -->
<g id="edge17" class="edge">
<title>Node18&#45;&gt;Node4</title>
<path fill="none" stroke="#9a32cd" stroke-dasharray="5,2" d="M747.7349,-208.2233C795.7194,-209.0549 875.023,-210.4293 930.7493,-211.3951"/>
<polygon fill="#9a32cd" stroke="#9a32cd" points="747.759,-204.7233 737.6998,-208.0494 747.6376,-211.7222 747.759,-204.7233"/>
<text text-anchor="middle" x="861" y="-213.5" font-family="Helvetica,sans-Serif" font-size="10.00" fill="#000000"> _device</text>
</g>
<!-- Node19 -->
<g id="node19" class="node">
<title>Node19</title>
<g id="a_node19"><a xlink:href="classlug_1_1Graphics_1_1Vulkan_1_1API_1_1Queue.html" target="_top" xlink:title="lug::Graphics::Vulkan\l::API::Queue">
<polygon fill="none" stroke="#000000" points="931,-137.5 931,-167.5 1058,-167.5 1058,-137.5 931,-137.5"/>
<text text-anchor="start" x="939" y="-155.5" font-family="Helvetica,sans-Serif" font-size="10.00" fill="#000000">lug::Graphics::Vulkan</text>
<text text-anchor="middle" x="994.5" y="-144.5" font-family="Helvetica,sans-Serif" font-size="10.00" fill="#000000">::API::Queue</text>
</a>
</g>
</g>
<!-- Node19&#45;&gt;Node3 -->
<g id="edge18" class="edge">
<title>Node19&#45;&gt;Node3</title>
<path fill="none" stroke="#9a32cd" stroke-dasharray="5,2" d="M1068.4952,-152.5161C1095.9767,-152.6385 1127.4141,-152.9159 1156,-153.5 1163.3614,-153.6504 1171.0738,-153.8532 1178.7331,-154.0827"/>
<polygon fill="#9a32cd" stroke="#9a32cd" points="1068.1839,-149.0149 1058.1705,-152.4764 1068.1569,-156.0149 1068.1839,-149.0149"/>
<text text-anchor="middle" x="1116" y="-156.5" font-family="Helvetica,sans-Serif" font-size="10.00" fill="#000000"> _queue</text>
</g>
<!-- Node20 -->
<g id="node20" class="node">
<title>Node20</title>
<polygon fill="none" stroke="#bfbfbf" points="682,-149 682,-168 730,-168 730,-149 682,-149"/>
<text text-anchor="middle" x="706" y="-156" font-family="Helvetica,sans-Serif" font-size="10.00" fill="#000000">mutex</text>
</g>
<!-- Node20&#45;&gt;Node19 -->
<g id="edge19" class="edge">
<title>Node20&#45;&gt;Node19</title>
<path fill="none" stroke="#9a32cd" stroke-dasharray="5,2" d="M740.3379,-157.7859C787.2382,-156.8105 872.1944,-155.0436 930.8959,-153.8228"/>
<polygon fill="#9a32cd" stroke="#9a32cd" points="740.0262,-154.2915 730.1011,-157.9988 740.1718,-161.29 740.0262,-154.2915"/>
<text text-anchor="middle" x="861" y="-158.5" font-family="Helvetica,sans-Serif" font-size="10.00" fill="#000000"> _mutex</text>
</g>
<!-- Node21 -->
<g id="node21" class="node">
<title>Node21</title>
<g id="a_node21"><a xlink:href="classlug_1_1Graphics_1_1Vulkan_1_1API_1_1QueueFamily.html" target="_top" xlink:title="lug::Graphics::Vulkan\l::API::QueueFamily">
<polygon fill="none" stroke="#000000" points="642.5,-99.5 642.5,-129.5 769.5,-129.5 769.5,-99.5 642.5,-99.5"/>
<text text-anchor="start" x="650.5" y="-117.5" font-family="Helvetica,sans-Serif" font-size="10.00" fill="#000000">lug::Graphics::Vulkan</text>
<text text-anchor="middle" x="706" y="-106.5" font-family="Helvetica,sans-Serif" font-size="10.00" fill="#000000">::API::QueueFamily</text>
</a>
</g>
</g>
<!-- Node21&#45;&gt;Node19 -->
<g id="edge20" class="edge">
<title>Node21&#45;&gt;Node19</title>
<path fill="none" stroke="#9a32cd" stroke-dasharray="5,2" d="M779.6354,-122.0475C819.23,-126.3552 868.857,-132.1544 913,-138.5 918.8263,-139.3375 924.8768,-140.2659 930.9303,-141.2345"/>
<polygon fill="#9a32cd" stroke="#9a32cd" points="779.8516,-118.5505 769.5337,-120.957 779.1003,-125.5101 779.8516,-118.5505"/>
<text text-anchor="middle" x="861" y="-141.5" font-family="Helvetica,sans-Serif" font-size="10.00" fill="#000000"> _queueFamily</text>
</g>
<!-- Node22 -->
<g id="node22" class="node">
<title>Node22</title>
<polygon fill="none" stroke="#bfbfbf" points="359.5,-176 359.5,-195 416.5,-195 416.5,-176 359.5,-176"/>
<text text-anchor="middle" x="388" y="-183" font-family="Helvetica,sans-Serif" font-size="10.00" fill="#000000">uint32_t</text>
</g>
<!-- Node22&#45;&gt;Node21 -->
<g id="edge21" class="edge">
<title>Node22&#45;&gt;Node21</title>
<path fill="none" stroke="#9a32cd" stroke-dasharray="5,2" d="M426.6998,-180.7545C470.1374,-174.9055 542.4592,-163.5925 603,-146.5 611.2607,-144.1678 612.8753,-142.2691 621,-139.5 631.0461,-136.0761 641.8518,-132.6817 652.2777,-129.5497"/>
<polygon fill="#9a32cd" stroke="#9a32cd" points="426.0239,-177.3132 416.5671,-182.0901 426.9387,-184.2532 426.0239,-177.3132"/>
<text text-anchor="middle" x="554.5" y="-170.5" font-family="Helvetica,sans-Serif" font-size="10.00" fill="#000000"> _idx</text>
</g>
<!-- Node23 -->
<g id="node23" class="node">
<title>Node23</title>
<polygon fill="none" stroke="#bfbfbf" points="327,-126.5 327,-156.5 449,-156.5 449,-126.5 327,-126.5"/>
<text text-anchor="start" x="335" y="-144.5" font-family="Helvetica,sans-Serif" font-size="10.00" fill="#000000">unordered_map&lt; std</text>
<text text-anchor="middle" x="388" y="-133.5" font-family="Helvetica,sans-Serif" font-size="10.00" fill="#000000">::string, uint32_t &gt;</text>
</g>
<!-- Node23&#45;&gt;Node21 -->
<g id="edge22" class="edge">
<title>Node23&#45;&gt;Node21</title>
<path fill="none" stroke="#9a32cd" stroke-dasharray="5,2" d="M459.3259,-135.444C514.2671,-130.7792 589.5273,-124.3892 642.4242,-119.8979"/>
<polygon fill="#9a32cd" stroke="#9a32cd" points="458.9816,-131.9606 449.3136,-136.2941 459.5739,-138.9355 458.9816,-131.9606"/>
<text text-anchor="middle" x="554.5" y="-134.5" font-family="Helvetica,sans-Serif" font-size="10.00" fill="#000000"> _queuesIndices</text>
</g>
<!-- Node24 -->
<g id="node24" class="node">
<title>Node24</title>
<polygon fill="none" stroke="#bfbfbf" points="345,-88 345,-107 431,-107 431,-88 345,-88"/>
<text text-anchor="middle" x="388" y="-95" font-family="Helvetica,sans-Serif" font-size="10.00" fill="#000000">VkQueueFlags</text>
</g>
<!-- Node24&#45;&gt;Node21 -->
<g id="edge23" class="edge">
<title>Node24&#45;&gt;Node21</title>
<path fill="none" stroke="#9a32cd" stroke-dasharray="5,2" d="M441.3174,-100.1229C484.8269,-102.2886 547.8934,-105.4853 603,-108.5 615.6987,-109.1947 629.2763,-109.9656 642.2685,-110.7169"/>
<polygon fill="#9a32cd" stroke="#9a32cd" points="441.4057,-96.6231 431.2443,-99.6226 441.0583,-103.6145 441.4057,-96.6231"/>
<text text-anchor="middle" x="554.5" y="-111.5" font-family="Helvetica,sans-Serif" font-size="10.00" fill="#000000"> _flags</text>
</g>
<!-- Node25 -->
<g id="node25" class="node">
<title>Node25</title>
<polygon fill="none" stroke="#bfbfbf" points="369,-50 369,-69 407,-69 407,-50 369,-50"/>
<text text-anchor="middle" x="388" y="-57" font-family="Helvetica,sans-Serif" font-size="10.00" fill="#000000">bool</text>
</g>
<!-- Node25&#45;&gt;Node21 -->
<g id="edge24" class="edge">
<title>Node25&#45;&gt;Node21</title>
<path fill="none" stroke="#9a32cd" stroke-dasharray="5,2" d="M417.038,-62.6227C458.4912,-67.2908 536.93,-76.9046 603,-89.5 617.822,-92.3256 633.7165,-95.9061 648.4756,-99.4679"/>
<polygon fill="#9a32cd" stroke="#9a32cd" points="417.4113,-59.1427 407.086,-61.5173 416.6385,-66.0999 417.4113,-59.1427"/>
<text text-anchor="middle" x="554.5" y="-92.5" font-family="Helvetica,sans-Serif" font-size="10.00" fill="#000000"> _presentation</text>
</g>
<!-- Node26 -->
<g id="node26" class="node">
<title>Node26</title>
<polygon fill="none" stroke="#bfbfbf" points="319.5,-.5 319.5,-30.5 456.5,-30.5 456.5,-.5 319.5,-.5"/>
<text text-anchor="start" x="327.5" y="-18.5" font-family="Helvetica,sans-Serif" font-size="10.00" fill="#000000">vector&lt; lug::Graphics</text>
<text text-anchor="middle" x="388" y="-7.5" font-family="Helvetica,sans-Serif" font-size="10.00" fill="#000000">::Vulkan::API::Queue &gt;</text>
</g>
<!-- Node26&#45;&gt;Node21 -->
<g id="edge25" class="edge">
<title>Node26&#45;&gt;Node21</title>
<path fill="none" stroke="#9a32cd" stroke-dasharray="5,2" d="M466.5751,-16.4482C510.2046,-20.4739 563.4791,-31.5165 603,-59.5 615.6901,-68.4855 608.6992,-79.9885 621,-89.5 627.3276,-94.3928 634.5917,-98.3294 642.1508,-101.4964"/>
<polygon fill="#9a32cd" stroke="#9a32cd" points="466.818,-12.9565 456.5662,-15.6305 466.248,-19.9332 466.818,-12.9565"/>
<text text-anchor="middle" x="554.5" y="-62.5" font-family="Helvetica,sans-Serif" font-size="10.00" fill="#000000"> _queues</text>
</g>
<!-- Node27 -->
<g id="node27" class="node">
<title>Node27</title>
<polygon fill="none" stroke="#bfbfbf" points="675.5,-61 675.5,-80 736.5,-80 736.5,-61 675.5,-61"/>
<text text-anchor="middle" x="706" y="-68" font-family="Helvetica,sans-Serif" font-size="10.00" fill="#000000">VkQueue</text>
</g>
<!-- Node27&#45;&gt;Node19 -->
<g id="edge26" class="edge">
<title>Node27&#45;&gt;Node19</title>
<path fill="none" stroke="#9a32cd" stroke-dasharray="5,2" d="M746.8888,-72.2787C790.1762,-75.5676 859.5019,-84.9218 913,-111.5 922.5858,-116.2623 921.8797,-121.8976 931,-127.5 936.9563,-131.1588 943.5399,-134.459 950.1454,-137.3716"/>
<polygon fill="#9a32cd" stroke="#9a32cd" points="746.9518,-68.7749 736.7358,-71.5826 746.473,-75.7585 746.9518,-68.7749"/>
<text text-anchor="middle" x="861" y="-114.5" font-family="Helvetica,sans-Serif" font-size="10.00" fill="#000000"> _queue</text>
</g>
<!-- Node28 -->
<g id="node28" class="node">
<title>Node28</title>
<polygon fill="none" stroke="#bfbfbf" points="944,-99 944,-118 1045,-118 1045,-99 944,-99"/>
<text text-anchor="middle" x="994.5" y="-106" font-family="Helvetica,sans-Serif" font-size="10.00" fill="#000000">VkCommandPool</text>
</g>
<!-- Node28&#45;&gt;Node3 -->
<g id="edge27" class="edge">
<title>Node28&#45;&gt;Node3</title>
<path fill="none" stroke="#9a32cd" stroke-dasharray="5,2" d="M1055.1574,-118.8219C1085.495,-124.1292 1122.7442,-130.8644 1156,-137.5 1163.3883,-138.9742 1171.1173,-140.5802 1178.7859,-142.2134"/>
<polygon fill="#9a32cd" stroke="#9a32cd" points="1055.602,-115.3467 1045.1498,-117.079 1054.4009,-122.2429 1055.602,-115.3467"/>
<text text-anchor="middle" x="1116" y="-140.5" font-family="Helvetica,sans-Serif" font-size="10.00" fill="#000000"> _commandPool</text>
</g>
</g>
</svg>
        <g id="navigator" transform="translate(0 0)" fill="#404254">
                <rect fill="#f2f5e9" fill-opacity="0.5" stroke="#606060" stroke-width=".5" x="0" y="0" width="60" height="60"/>
                <use id="zoomplus" xlink:href="#zoomPlus" x="17" y="9" onmousedown="handleZoom(evt,'in')"/>
                <use id="zoomminus" xlink:href="#zoomMin" x="42" y="9" onmousedown="handleZoom(evt,'out')"/>
                <use id="reset" xlink:href="#resetDef" x="30" y="36" onmousedown="handleReset()"/>
                <g id="arrowUp" xlink:href="#dirArrow" transform="translate(30 24)" onmousedown="handlePan(0,-1)">
                  <use xlink:href="#rim" fill="#404040">
                        <set attributeName="fill" to="#808080" begin="arrowUp.mouseover" end="arrowUp.mouseout"/>
                  </use>
                  <path fill="none" stroke="white" stroke-width="1.5" d="M0,-3.0v7 M-2.5,-0.5L0,-3.0L2.5,-0.5"/>
                </g>
                <g id="arrowRight" xlink:href="#dirArrow" transform="rotate(90) translate(36 -43)" onmousedown="handlePan(1,0)">
                  <use xlink:href="#rim" fill="#404040">
                        <set attributeName="fill" to="#808080" begin="arrowRight.mouseover" end="arrowRight.mouseout"/>
                  </use>
                  <path fill="none" stroke="white" stroke-width="1.5" d="M0,-3.0v7 M-2.5,-0.5L0,-3.0L2.5,-0.5"/>
                </g>
                <g id="arrowDown" xlink:href="#dirArrow" transform="rotate(180) translate(-30 -48)" onmousedown="handlePan(0,1)">
                  <use xlink:href="#rim" fill="#404040">
                        <set attributeName="fill" to="#808080" begin="arrowDown.mouseover" end="arrowDown.mouseout"/>
                  </use>
                  <path fill="none" stroke="white" stroke-width="1.5" d="M0,-3.0v7 M-2.5,-0.5L0,-3.0L2.5,-0.5"/>
                </g>
                <g id="arrowLeft" xlink:href="#dirArrow" transform="rotate(270) translate(-36 17)" onmousedown="handlePan(-1,0)">
                  <use xlink:href="#rim" fill="#404040">
                        <set attributeName="fill" to="#808080" begin="arrowLeft.mouseover" end="arrowLeft.mouseout"/>
                  </use>
                  <path fill="none" stroke="white" stroke-width="1.5" d="M0,-3.0v7 M-2.5,-0.5L0,-3.0L2.5,-0.5"/>
                </g>
        </g>
        <svg viewBox="0 0 15 15" width="100%" height="30px" preserveAspectRatio="xMaxYMin meet">
         <g id="arrow_out" transform="scale(0.3 0.3)">
          <a xlink:href="classlug_1_1Graphics_1_1Vulkan_1_1API_1_1Builder_1_1CommandBuffer__coll__graph_org.svg" target="_base">
           <rect id="button" ry="5" rx="5" y="6" x="6" height="38" width="38"
                fill="#f2f5e9" fill-opacity="0.5" stroke="#606060" stroke-width="1.0"/>
           <path id="arrow"
             d="M 11.500037,31.436501 C 11.940474,20.09759 22.043105,11.32322 32.158766,21.979434 L 37.068811,17.246167 C 37.068811,17.246167 37.088388,32 37.088388,32 L 22.160133,31.978069 C 22.160133,31.978069 26.997745,27.140456 26.997745,27.140456 C 18.528582,18.264221 13.291696,25.230495 11.500037,31.436501 z"
             style="fill:#404040;"/>
          </a>
         </g>
        </svg>
</svg>
