<?xml version="1.0" encoding="UTF-8" standalone="no"?>
<!DOCTYPE svg PUBLIC "-//W3C//DTD SVG 1.1//EN"
 "http://www.w3.org/Graphics/SVG/1.1/DTD/svg11.dtd">
<!-- Generated by graphviz version 2.40.1 (20161225.0304)
 -->
<!-- Title: lug::System::Memory::Allocator::Linear Pages: 1 -->
<svg width="399pt" height="206pt"
 viewBox="0.00 0.00 398.50 206.00" xmlns="http://www.w3.org/2000/svg" xmlns:xlink="http://www.w3.org/1999/xlink">
<g id="graph0" class="graph" transform="scale(1 1) rotate(0) translate(4 202)">
<title>lug::System::Memory::Allocator::Linear</title>
<!-- Node1 -->
<g id="node1" class="node">
<title>Node1</title>
<polygon fill="#bfbfbf" stroke="#000000" points="71.5,-.5 71.5,-30.5 199.5,-30.5 199.5,-.5 71.5,-.5"/>
<text text-anchor="start" x="79.5" y="-18.5" font-family="Helvetica,sans-Serif" font-size="10.00" fill="#000000">lug::System::Memory</text>
<text text-anchor="middle" x="135.5" y="-7.5" font-family="Helvetica,sans-Serif" font-size="10.00" fill="#000000">::Allocator::Linear</text>
</g>
<!-- Node2 -->
<g id="node2" class="node">
<title>Node2</title>
<g id="a_node2"><a xlink:href="structlug_1_1System_1_1Memory_1_1Area_1_1Page.html" target="_top" xlink:title="lug::System::Memory\l::Area::Page">
<polygon fill="none" stroke="#000000" points="71.5,-89.5 71.5,-119.5 199.5,-119.5 199.5,-89.5 71.5,-89.5"/>
<text text-anchor="start" x="79.5" y="-107.5" font-family="Helvetica,sans-Serif" font-size="10.00" fill="#000000">lug::System::Memory</text>
<text text-anchor="middle" x="135.5" y="-96.5" font-family="Helvetica,sans-Serif" font-size="10.00" fill="#000000">::Area::Page</text>
</a>
</g>
</g>
<!-- Node2&#45;&gt;Node1 -->
<g id="edge1" class="edge">
<title>Node2&#45;&gt;Node1</title>
<path fill="none" stroke="#9a32cd" stroke-dasharray="5,2" d="M135.5,-79.31C135.5,-63.6343 135.5,-43.9926 135.5,-30.6717"/>
<polygon fill="#9a32cd" stroke="#9a32cd" points="132.0001,-79.4023 135.5,-89.4024 139.0001,-79.4024 132.0001,-79.4023"/>
<text text-anchor="middle" x="170.5" y="-63" font-family="Helvetica,sans-Serif" font-size="10.00" fill="#000000"> _currentPage</text>
<text text-anchor="middle" x="170.5" y="-52" font-family="Helvetica,sans-Serif" font-size="10.00" fill="#000000">_firstPage</text>
</g>
<!-- Node2&#45;&gt;Node2 -->
<g id="edge2" class="edge">
<title>Node2&#45;&gt;Node2</title>
<path fill="none" stroke="#9a32cd" stroke-dasharray="5,2" d="M209.6511,-110.3927C214.5392,-109.0242 217.5,-107.06 217.5,-104.5 217.5,-100.5039 210.2855,-97.9595 199.7877,-96.8668"/>
<polygon fill="#9a32cd" stroke="#9a32cd" points="209.0273,-106.9485 199.7877,-112.1332 210.2438,-113.842 209.0273,-106.9485"/>
<text text-anchor="middle" x="231" y="-107.5" font-family="Helvetica,sans-Serif" font-size="10.00" fill="#000000"> prev</text>
<text text-anchor="middle" x="231" y="-96.5" font-family="Helvetica,sans-Serif" font-size="10.00" fill="#000000">next</text>
</g>
<!-- Node3 -->
<g id="node3" class="node">
<title>Node3</title>
<polygon fill="none" stroke="#bfbfbf" points="0,-178.5 0,-197.5 47,-197.5 47,-178.5 0,-178.5"/>
<text text-anchor="middle" x="23.5" y="-185.5" font-family="Helvetica,sans-Serif" font-size="10.00" fill="#000000">void *</text>
</g>
<!-- Node3&#45;&gt;Node1 -->
<g id="edge5" class="edge">
<title>Node3&#45;&gt;Node1</title>
<path fill="none" stroke="#9a32cd" stroke-dasharray="5,2" d="M16.1473,-168.5292C9.5089,-147.5122 2.7065,-113.732 16.5,-89 32.231,-60.7941 63.7361,-42.0573 90.3791,-30.5638"/>
<polygon fill="#9a32cd" stroke="#9a32cd" points="12.9269,-169.9267 19.4939,-178.2408 19.5449,-167.6461 12.9269,-169.9267"/>
<text text-anchor="middle" x="39.5" y="-102" font-family="Helvetica,sans-Serif" font-size="10.00" fill="#000000"> _current</text>
</g>
<!-- Node3&#45;&gt;Node2 -->
<g id="edge3" class="edge">
<title>Node3&#45;&gt;Node2</title>
<path fill="none" stroke="#9a32cd" stroke-dasharray="5,2" d="M44.6127,-172.2597C64.8791,-157.1504 95.2776,-134.4872 115.2501,-119.597"/>
<polygon fill="#9a32cd" stroke="#9a32cd" points="42.273,-169.6384 36.3478,-178.4215 46.457,-175.2504 42.273,-169.6384"/>
<text text-anchor="middle" x="102.5" y="-152" font-family="Helvetica,sans-Serif" font-size="10.00" fill="#000000"> end</text>
<text text-anchor="middle" x="102.5" y="-141" font-family="Helvetica,sans-Serif" font-size="10.00" fill="#000000">start</text>
</g>
<!-- Node4 -->
<g id="node4" class="node">
<title>Node4</title>
<g id="a_node4"><a xlink:href="classlug_1_1System_1_1Memory_1_1Area_1_1IArea.html" target="_top" xlink:title="lug::System::Memory\l::Area::IArea">
<polygon fill="none" stroke="#000000" points="262.5,-89.5 262.5,-119.5 390.5,-119.5 390.5,-89.5 262.5,-89.5"/>
<text text-anchor="start" x="270.5" y="-107.5" font-family="Helvetica,sans-Serif" font-size="10.00" fill="#000000">lug::System::Memory</text>
<text text-anchor="middle" x="326.5" y="-96.5" font-family="Helvetica,sans-Serif" font-size="10.00" fill="#000000">::Area::IArea</text>
</a>
</g>
</g>
<!-- Node4&#45;&gt;Node1 -->
<g id="edge4" class="edge">
<title>Node4&#45;&gt;Node1</title>
<path fill="none" stroke="#9a32cd" stroke-dasharray="5,2" d="M285.568,-84.8646C263.1477,-74.1646 234.844,-60.7466 209.5,-49 196.3213,-42.8918 181.7682,-36.2759 169.08,-30.5495"/>
<polygon fill="#9a32cd" stroke="#9a32cd" points="284.2588,-88.118 294.7907,-89.271 287.2766,-81.8019 284.2588,-88.118"/>
<text text-anchor="middle" x="271" y="-57.5" font-family="Helvetica,sans-Serif" font-size="10.00" fill="#000000"> _area</text>
</g>
</g>
</svg>
