<?xml version="1.0" encoding="UTF-8" standalone="no"?>
<!DOCTYPE svg PUBLIC "-//W3C//DTD SVG 1.1//EN"
 "http://www.w3.org/Graphics/SVG/1.1/DTD/svg11.dtd">
<!-- Generated by graphviz version 2.40.1 (20161225.0304)
 -->
<!-- Title: lug::Graphics::Vulkan::API::Builder::Device Pages: 1 -->
<!--zoomable 385 -->
<svg id="main" version="1.1" xmlns="http://www.w3.org/2000/svg" xmlns:xlink="http://www.w3.org/1999/xlink" xml:space="preserve" onload="init(evt)">
<style type="text/css"><![CDATA[
.edge:hover path { stroke: red; }
.edge:hover polygon { stroke: red; fill: red; }
]]></style>
<script type="text/javascript"><![CDATA[
var edges = document.getElementsByTagName('g');
if (edges && edges.length) {
  for (var i=0;i<edges.length;i++) {
    if (edges[i].id.substr(0,4)=='edge') {
      edges[i].setAttribute('class','edge');
    }
  }
}
]]></script>
        <defs>
                <circle id="rim" cx="0" cy="0" r="7"/>
                <circle id="rim2" cx="0" cy="0" r="3.5"/>
                <g id="zoomPlus">
                        <use xlink:href="#rim" fill="#404040">
                                <set attributeName="fill" to="#808080" begin="zoomplus.mouseover" end="zoomplus.mouseout"/>
                        </use>
                        <path d="M-4,0h8M0,-4v8" fill="none" stroke="white" stroke-width="1.5" pointer-events="none"/>
                </g>
                <g id="zoomMin">
                        <use xlink:href="#rim" fill="#404040">
                                <set attributeName="fill" to="#808080" begin="zoomminus.mouseover" end="zoomminus.mouseout"/>
                        </use>
                        <path d="M-4,0h8" fill="none" stroke="white" stroke-width="1.5" pointer-events="none"/>
                </g>
                <g id="dirArrow">
                        <path fill="none" stroke="white" stroke-width="1.5" d="M0,-3.0v7 M-2.5,-0.5L0,-3.0L2.5,-0.5"/>
                </g>
               <g id="resetDef">
                       <use xlink:href="#rim2" fill="#404040">
                               <set attributeName="fill" to="#808080" begin="reset.mouseover" end="reset.mouseout"/>
                       </use>
               </g>
        </defs>

<script type="text/javascript">
var viewWidth = 1045;
var viewHeight = 385;
var sectionId = 'dynsection-0';
</script>
<script xlink:href="svgpan.js"/>
<svg id="graph" class="graph">
<g id="viewport">
<title>lug::Graphics::Vulkan::API::Builder::Device</title>
<!-- Node1 -->
<g id="node1" class="node">
<title>Node1</title>
<polygon fill="#bfbfbf" stroke="#000000" points="908,-273.4648 908,-303.4648 1037,-303.4648 1037,-273.4648 908,-273.4648"/>
<text text-anchor="start" x="916" y="-291.4648" font-family="Helvetica,sans-Serif" font-size="10.00" fill="#000000">lug::Graphics::Vulkan</text>
<text text-anchor="middle" x="972.5" y="-280.4648" font-family="Helvetica,sans-Serif" font-size="10.00" fill="#000000">::API::Builder::Device</text>
</g>
<!-- Node2 -->
<g id="node2" class="node">
<title>Node2</title>
<polygon fill="none" stroke="#bfbfbf" points="621,-335.9648 621,-376.9648 766,-376.9648 766,-335.9648 621,-335.9648"/>
<text text-anchor="start" x="629" y="-364.9648" font-family="Helvetica,sans-Serif" font-size="10.00" fill="#000000">vector&lt; lug::Graphics</text>
<text text-anchor="start" x="629" y="-353.9648" font-family="Helvetica,sans-Serif" font-size="10.00" fill="#000000">::Vulkan::API::Builder</text>
<text text-anchor="middle" x="693.5" y="-342.9648" font-family="Helvetica,sans-Serif" font-size="10.00" fill="#000000">::Device::QueueFamily &gt;</text>
</g>
<!-- Node2&#45;&gt;Node1 -->
<g id="edge1" class="edge">
<title>Node2&#45;&gt;Node1</title>
<path fill="none" stroke="#9a32cd" stroke-dasharray="5,2" d="M776.3925,-344.8439C811.7495,-338.9724 853.2461,-330.8589 890,-320.4648 906.1133,-315.908 923.4615,-309.4303 938.0719,-303.4936"/>
<polygon fill="#9a32cd" stroke="#9a32cd" points="775.4198,-341.4561 766.1119,-346.5172 776.5444,-348.3652 775.4198,-341.4561"/>
<text text-anchor="middle" x="837" y="-345.4648" font-family="Helvetica,sans-Serif" font-size="10.00" fill="#000000"> _queueFamiliesInfos</text>
</g>
<!-- Node3 -->
<g id="node3" class="node">
<title>Node3</title>
<polygon fill="none" stroke="#bfbfbf" points="315,-311.9648 315,-330.9648 461,-330.9648 461,-311.9648 315,-311.9648"/>
<text text-anchor="middle" x="388" y="-318.9648" font-family="Helvetica,sans-Serif" font-size="10.00" fill="#000000">VkPhysicalDeviceFeatures</text>
</g>
<!-- Node3&#45;&gt;Node1 -->
<g id="edge2" class="edge">
<title>Node3&#45;&gt;Node1</title>
<path fill="none" stroke="#9a32cd" stroke-dasharray="5,2" d="M471.1773,-316.7688C588.7888,-310.1286 801.214,-298.1354 907.8072,-292.1173"/>
<polygon fill="#9a32cd" stroke="#9a32cd" points="470.927,-313.2772 461.1403,-317.3354 471.3217,-320.2661 470.927,-313.2772"/>
<text text-anchor="middle" x="693.5" y="-310.4648" font-family="Helvetica,sans-Serif" font-size="10.00" fill="#000000"> _features</text>
</g>
<!-- Node4 -->
<g id="node4" class="node">
<title>Node4</title>
<g id="a_node4"><a xlink:href="structlug_1_1Graphics_1_1Vulkan_1_1PhysicalDeviceInfo.html" target="_top" xlink:title="lug::Graphics::Vulkan\l::PhysicalDeviceInfo">
<polygon fill="none" stroke="#000000" points="630,-175.4648 630,-205.4648 757,-205.4648 757,-175.4648 630,-175.4648"/>
<text text-anchor="start" x="638" y="-193.4648" font-family="Helvetica,sans-Serif" font-size="10.00" fill="#000000">lug::Graphics::Vulkan</text>
<text text-anchor="middle" x="693.5" y="-182.4648" font-family="Helvetica,sans-Serif" font-size="10.00" fill="#000000">::PhysicalDeviceInfo</text>
</a>
</g>
</g>
<!-- Node3&#45;&gt;Node4 -->
<g id="edge9" class="edge">
<title>Node3&#45;&gt;Node4</title>
<path fill="none" stroke="#9a32cd" stroke-dasharray="5,2" d="M470.7139,-310.4457C476.7459,-308.2372 482.5809,-305.6034 488,-302.4648 498.6374,-296.3039 495.5041,-287.8638 506,-281.4648 543.8303,-258.4012 562.8873,-277.2805 603,-258.4648 632.0019,-244.8609 660.7614,-221.0128 677.8295,-205.481"/>
<polygon fill="#9a32cd" stroke="#9a32cd" points="469.5276,-307.1511 461.1045,-313.5777 471.6969,-313.8065 469.5276,-307.1511"/>
<text text-anchor="middle" x="554.5" y="-284.4648" font-family="Helvetica,sans-Serif" font-size="10.00" fill="#000000"> features</text>
</g>
<!-- Node4&#45;&gt;Node1 -->
<g id="edge3" class="edge">
<title>Node4&#45;&gt;Node1</title>
<path fill="none" stroke="#9a32cd" stroke-dasharray="5,2" d="M746.0515,-208.9238C799.1141,-227.5622 880.0908,-256.0057 929.4688,-273.3499"/>
<polygon fill="#9a32cd" stroke="#9a32cd" points="747.0771,-205.5745 736.4823,-205.5626 744.7573,-212.1789 747.0771,-205.5745"/>
<text text-anchor="middle" x="837" y="-259.4648" font-family="Helvetica,sans-Serif" font-size="10.00" fill="#000000"> _physicalDeviceInfo</text>
</g>
<!-- Node5 -->
<g id="node5" class="node">
<title>Node5</title>
<g id="a_node5"><a xlink:href="structlug_1_1Graphics_1_1Vulkan_1_1PhysicalDeviceInfo_1_1Swapchain.html" target="_top" xlink:title="lug::Graphics::Vulkan\l::PhysicalDeviceInfo\l::Swapchain">
<polygon fill="none" stroke="#000000" points="324.5,-251.9648 324.5,-292.9648 451.5,-292.9648 451.5,-251.9648 324.5,-251.9648"/>
<text text-anchor="start" x="332.5" y="-280.9648" font-family="Helvetica,sans-Serif" font-size="10.00" fill="#000000">lug::Graphics::Vulkan</text>
<text text-anchor="start" x="332.5" y="-269.9648" font-family="Helvetica,sans-Serif" font-size="10.00" fill="#000000">::PhysicalDeviceInfo</text>
<text text-anchor="middle" x="388" y="-258.9648" font-family="Helvetica,sans-Serif" font-size="10.00" fill="#000000">::Swapchain</text>
</a>
</g>
</g>
<!-- Node5&#45;&gt;Node4 -->
<g id="edge4" class="edge">
<title>Node5&#45;&gt;Node4</title>
<path fill="none" stroke="#9a32cd" stroke-dasharray="5,2" d="M461.6646,-256.2376C503.36,-246.6563 556.3435,-233.8154 603,-220.4648 618.5956,-216.0022 635.5132,-210.5599 650.4551,-205.542"/>
<polygon fill="#9a32cd" stroke="#9a32cd" points="460.8321,-252.8376 451.8634,-258.4777 462.3918,-259.6616 460.8321,-252.8376"/>
<text text-anchor="middle" x="554.5" y="-247.4648" font-family="Helvetica,sans-Serif" font-size="10.00" fill="#000000"> swapchain</text>
</g>
<!-- Node6 -->
<g id="node6" class="node">
<title>Node6</title>
<polygon fill="none" stroke="#bfbfbf" points="16.5,-300.9648 16.5,-319.9648 162.5,-319.9648 162.5,-300.9648 16.5,-300.9648"/>
<text text-anchor="middle" x="89.5" y="-307.9648" font-family="Helvetica,sans-Serif" font-size="10.00" fill="#000000">VkSurfaceCapabilitiesKHR</text>
</g>
<!-- Node6&#45;&gt;Node5 -->
<g id="edge5" class="edge">
<title>Node6&#45;&gt;Node5</title>
<path fill="none" stroke="#9a32cd" stroke-dasharray="5,2" d="M172.5828,-299.8881C220.5932,-293.7762 280.0566,-286.2064 324.3375,-280.5693"/>
<polygon fill="#9a32cd" stroke="#9a32cd" points="171.9992,-296.4341 162.5213,-301.169 172.8833,-303.378 171.9992,-296.4341"/>
<text text-anchor="middle" x="233.5" y="-298.4648" font-family="Helvetica,sans-Serif" font-size="10.00" fill="#000000"> capabilities</text>
</g>
<!-- Node7 -->
<g id="node7" class="node">
<title>Node7</title>
<polygon fill="none" stroke="#bfbfbf" points="0,-262.9648 0,-281.9648 179,-281.9648 179,-262.9648 0,-262.9648"/>
<text text-anchor="middle" x="89.5" y="-269.9648" font-family="Helvetica,sans-Serif" font-size="10.00" fill="#000000">vector&lt; VkSurfaceFormatKHR &gt;</text>
</g>
<!-- Node7&#45;&gt;Node5 -->
<g id="edge6" class="edge">
<title>Node7&#45;&gt;Node5</title>
<path fill="none" stroke="#9a32cd" stroke-dasharray="5,2" d="M189.3241,-272.4648C233.799,-272.4648 284.8747,-272.4648 324.1016,-272.4648"/>
<polygon fill="#9a32cd" stroke="#9a32cd" points="189.0599,-268.9649 179.0598,-272.4648 189.0598,-275.9649 189.0599,-268.9649"/>
<text text-anchor="middle" x="233.5" y="-275.4648" font-family="Helvetica,sans-Serif" font-size="10.00" fill="#000000"> formats</text>
</g>
<!-- Node8 -->
<g id="node8" class="node">
<title>Node8</title>
<polygon fill="none" stroke="#bfbfbf" points="4.5,-224.9648 4.5,-243.9648 174.5,-243.9648 174.5,-224.9648 4.5,-224.9648"/>
<text text-anchor="middle" x="89.5" y="-231.9648" font-family="Helvetica,sans-Serif" font-size="10.00" fill="#000000">vector&lt; VkPresentModeKHR &gt;</text>
</g>
<!-- Node8&#45;&gt;Node5 -->
<g id="edge7" class="edge">
<title>Node8&#45;&gt;Node5</title>
<path fill="none" stroke="#9a32cd" stroke-dasharray="5,2" d="M174.4265,-245.2762C222.0428,-251.3379 280.4605,-258.7747 324.1567,-264.3374"/>
<polygon fill="#9a32cd" stroke="#9a32cd" points="174.8008,-241.7957 164.4389,-244.0048 173.9168,-248.7397 174.8008,-241.7957"/>
<text text-anchor="middle" x="233.5" y="-259.4648" font-family="Helvetica,sans-Serif" font-size="10.00" fill="#000000"> presentModes</text>
</g>
<!-- Node9 -->
<g id="node9" class="node">
<title>Node9</title>
<polygon fill="none" stroke="#bfbfbf" points="308.5,-202.4648 308.5,-232.4648 467.5,-232.4648 467.5,-202.4648 308.5,-202.4648"/>
<text text-anchor="start" x="316.5" y="-220.4648" font-family="Helvetica,sans-Serif" font-size="10.00" fill="#000000">unordered_map&lt; VkFormat,</text>
<text text-anchor="middle" x="388" y="-209.4648" font-family="Helvetica,sans-Serif" font-size="10.00" fill="#000000"> VkFormatProperties &gt;</text>
</g>
<!-- Node9&#45;&gt;Node4 -->
<g id="edge8" class="edge">
<title>Node9&#45;&gt;Node4</title>
<path fill="none" stroke="#9a32cd" stroke-dasharray="5,2" d="M478.1153,-209.5005C526.9164,-205.1874 586.0336,-199.9627 629.9785,-196.0788"/>
<polygon fill="#9a32cd" stroke="#9a32cd" points="477.5205,-206.0393 467.8675,-210.4062 478.1368,-213.0121 477.5205,-206.0393"/>
<text text-anchor="middle" x="554.5" y="-208.4648" font-family="Helvetica,sans-Serif" font-size="10.00" fill="#000000"> formatProperties</text>
</g>
<!-- Node10 -->
<g id="node10" class="node">
<title>Node10</title>
<polygon fill="none" stroke="#bfbfbf" points="288,-163.9648 288,-182.9648 488,-182.9648 488,-163.9648 288,-163.9648"/>
<text text-anchor="middle" x="388" y="-170.9648" font-family="Helvetica,sans-Serif" font-size="10.00" fill="#000000">vector&lt; VkQueueFamilyProperties &gt;</text>
</g>
<!-- Node10&#45;&gt;Node4 -->
<g id="edge10" class="edge">
<title>Node10&#45;&gt;Node4</title>
<path fill="none" stroke="#9a32cd" stroke-dasharray="5,2" d="M498.4956,-174.5782C532.0882,-175.447 569.0847,-176.936 603,-179.4648 611.681,-180.1121 620.8092,-180.989 629.7917,-181.967"/>
<polygon fill="#9a32cd" stroke="#9a32cd" points="498.2688,-171.0718 488.1868,-174.328 498.0989,-178.0697 498.2688,-171.0718"/>
<text text-anchor="middle" x="554.5" y="-182.4648" font-family="Helvetica,sans-Serif" font-size="10.00" fill="#000000"> queueFamilies</text>
</g>
<!-- Node11 -->
<g id="node11" class="node">
<title>Node11</title>
<polygon fill="none" stroke="#bfbfbf" points="290.5,-125.9648 290.5,-144.9648 485.5,-144.9648 485.5,-125.9648 290.5,-125.9648"/>
<text text-anchor="middle" x="388" y="-132.9648" font-family="Helvetica,sans-Serif" font-size="10.00" fill="#000000">VkPhysicalDeviceMemoryProperties</text>
</g>
<!-- Node11&#45;&gt;Node4 -->
<g id="edge11" class="edge">
<title>Node11&#45;&gt;Node4</title>
<path fill="none" stroke="#9a32cd" stroke-dasharray="5,2" d="M495.7176,-142.8302C530.2492,-146.4295 568.477,-151.7234 603,-159.4648 604.3116,-159.7589 627.4546,-167.6882 650.0062,-175.4527"/>
<polygon fill="#9a32cd" stroke="#9a32cd" points="495.9068,-139.3316 485.6067,-141.8131 495.2062,-146.2965 495.9068,-139.3316"/>
<text text-anchor="middle" x="554.5" y="-162.4648" font-family="Helvetica,sans-Serif" font-size="10.00" fill="#000000"> memoryProperties</text>
</g>
<!-- Node12 -->
<g id="node12" class="node">
<title>Node12</title>
<polygon fill="none" stroke="#bfbfbf" points="336,-87.9648 336,-106.9648 440,-106.9648 440,-87.9648 336,-87.9648"/>
<text text-anchor="middle" x="388" y="-94.9648" font-family="Helvetica,sans-Serif" font-size="10.00" fill="#000000">VkPhysicalDevice</text>
</g>
<!-- Node12&#45;&gt;Node4 -->
<g id="edge12" class="edge">
<title>Node12&#45;&gt;Node4</title>
<path fill="none" stroke="#9a32cd" stroke-dasharray="5,2" d="M450.5387,-92.1555C496.7956,-91.4556 559.1196,-97.642 603,-129.4648 617.4813,-139.9669 607.5466,-153.6747 621,-165.4648 625.4058,-169.3259 630.4388,-172.5982 635.7533,-175.3702"/>
<polygon fill="#9a32cd" stroke="#9a32cd" points="450.2384,-88.6621 440.3341,-92.4244 450.4229,-95.6597 450.2384,-88.6621"/>
<text text-anchor="middle" x="554.5" y="-132.4648" font-family="Helvetica,sans-Serif" font-size="10.00" fill="#000000"> handle</text>
</g>
<!-- Node13 -->
<g id="node13" class="node">
<title>Node13</title>
<polygon fill="none" stroke="#bfbfbf" points="310.5,-49.9648 310.5,-68.9648 465.5,-68.9648 465.5,-49.9648 310.5,-49.9648"/>
<text text-anchor="middle" x="388" y="-56.9648" font-family="Helvetica,sans-Serif" font-size="10.00" fill="#000000">VkPhysicalDeviceProperties</text>
</g>
<!-- Node13&#45;&gt;Node4 -->
<g id="edge13" class="edge">
<title>Node13&#45;&gt;Node4</title>
<path fill="none" stroke="#9a32cd" stroke-dasharray="5,2" d="M444.4269,-48.5789C492.5426,-42.7768 560.4837,-43.3521 603,-81.4648 631.4301,-106.9503 595.6833,-136.8843 621,-165.4648 624.443,-169.3517 628.5196,-172.6345 632.9568,-175.4071"/>
<polygon fill="#9a32cd" stroke="#9a32cd" points="443.9278,-45.1144 434.4767,-49.9026 444.851,-52.0533 443.9278,-45.1144"/>
<text text-anchor="middle" x="554.5" y="-84.4648" font-family="Helvetica,sans-Serif" font-size="10.00" fill="#000000"> properties</text>
</g>
<!-- Node14 -->
<g id="node14" class="node">
<title>Node14</title>
<polygon fill="none" stroke="#bfbfbf" points="296,-11.9648 296,-30.9648 480,-30.9648 480,-11.9648 296,-11.9648"/>
<text text-anchor="middle" x="388" y="-18.9648" font-family="Helvetica,sans-Serif" font-size="10.00" fill="#000000">vector&lt; VkExtensionProperties &gt;</text>
</g>
<!-- Node14&#45;&gt;Node4 -->
<g id="edge14" class="edge">
<title>Node14&#45;&gt;Node4</title>
<path fill="none" stroke="#9a32cd" stroke-dasharray="5,2" d="M429.5259,-9.5923C477.7233,1.3965 556.5184,10.2932 603,-32.4648 646.9007,-72.8487 583.1859,-119.3323 621,-165.4648 624.1229,-169.2747 627.8576,-172.5055 631.9619,-175.2451"/>
<polygon fill="#9a32cd" stroke="#9a32cd" points="428.6312,-6.2076 419.7282,-11.9511 430.2696,-13.0131 428.6312,-6.2076"/>
<text text-anchor="middle" x="554.5" y="-35.4648" font-family="Helvetica,sans-Serif" font-size="10.00" fill="#000000"> extensions</text>
</g>
<!-- Node15 -->
<g id="node15" class="node">
<title>Node15</title>
<polygon fill="none" stroke="#bfbfbf" points="626.5,-136.9648 626.5,-155.9648 760.5,-155.9648 760.5,-136.9648 626.5,-136.9648"/>
<text text-anchor="middle" x="693.5" y="-143.9648" font-family="Helvetica,sans-Serif" font-size="10.00" fill="#000000">vector&lt; const char * &gt;</text>
</g>
<!-- Node15&#45;&gt;Node1 -->
<g id="edge15" class="edge">
<title>Node15&#45;&gt;Node1</title>
<path fill="none" stroke="#9a32cd" stroke-dasharray="5,2" d="M755.171,-158.2674C795.5905,-167.8635 848.439,-184.0542 890,-209.4648 918.593,-226.9467 945.3883,-255.7758 960.2984,-273.3514"/>
<polygon fill="#9a32cd" stroke="#9a32cd" points="755.7073,-154.7994 745.1771,-155.9682 754.1378,-161.6212 755.7073,-154.7994"/>
<text text-anchor="middle" x="837" y="-212.4648" font-family="Helvetica,sans-Serif" font-size="10.00" fill="#000000"> _extensions</text>
</g>
</g>
</svg>
        <g id="navigator" transform="translate(0 0)" fill="#404254">
                <rect fill="#f2f5e9" fill-opacity="0.5" stroke="#606060" stroke-width=".5" x="0" y="0" width="60" height="60"/>
                <use id="zoomplus" xlink:href="#zoomPlus" x="17" y="9" onmousedown="handleZoom(evt,'in')"/>
                <use id="zoomminus" xlink:href="#zoomMin" x="42" y="9" onmousedown="handleZoom(evt,'out')"/>
                <use id="reset" xlink:href="#resetDef" x="30" y="36" onmousedown="handleReset()"/>
                <g id="arrowUp" xlink:href="#dirArrow" transform="translate(30 24)" onmousedown="handlePan(0,-1)">
                  <use xlink:href="#rim" fill="#404040">
                        <set attributeName="fill" to="#808080" begin="arrowUp.mouseover" end="arrowUp.mouseout"/>
                  </use>
                  <path fill="none" stroke="white" stroke-width="1.5" d="M0,-3.0v7 M-2.5,-0.5L0,-3.0L2.5,-0.5"/>
                </g>
                <g id="arrowRight" xlink:href="#dirArrow" transform="rotate(90) translate(36 -43)" onmousedown="handlePan(1,0)">
                  <use xlink:href="#rim" fill="#404040">
                        <set attributeName="fill" to="#808080" begin="arrowRight.mouseover" end="arrowRight.mouseout"/>
                  </use>
                  <path fill="none" stroke="white" stroke-width="1.5" d="M0,-3.0v7 M-2.5,-0.5L0,-3.0L2.5,-0.5"/>
                </g>
                <g id="arrowDown" xlink:href="#dirArrow" transform="rotate(180) translate(-30 -48)" onmousedown="handlePan(0,1)">
                  <use xlink:href="#rim" fill="#404040">
                        <set attributeName="fill" to="#808080" begin="arrowDown.mouseover" end="arrowDown.mouseout"/>
                  </use>
                  <path fill="none" stroke="white" stroke-width="1.5" d="M0,-3.0v7 M-2.5,-0.5L0,-3.0L2.5,-0.5"/>
                </g>
                <g id="arrowLeft" xlink:href="#dirArrow" transform="rotate(270) translate(-36 17)" onmousedown="handlePan(-1,0)">
                  <use xlink:href="#rim" fill="#404040">
                        <set attributeName="fill" to="#808080" begin="arrowLeft.mouseover" end="arrowLeft.mouseout"/>
                  </use>
                  <path fill="none" stroke="white" stroke-width="1.5" d="M0,-3.0v7 M-2.5,-0.5L0,-3.0L2.5,-0.5"/>
                </g>
        </g>
        <svg viewBox="0 0 15 15" width="100%" height="30px" preserveAspectRatio="xMaxYMin meet">
         <g id="arrow_out" transform="scale(0.3 0.3)">
          <a xlink:href="classlug_1_1Graphics_1_1Vulkan_1_1API_1_1Builder_1_1Device__coll__graph_org.svg" target="_base">
           <rect id="button" ry="5" rx="5" y="6" x="6" height="38" width="38"
                fill="#f2f5e9" fill-opacity="0.5" stroke="#606060" stroke-width="1.0"/>
           <path id="arrow"
             d="M 11.500037,31.436501 C 11.940474,20.09759 22.043105,11.32322 32.158766,21.979434 L 37.068811,17.246167 C 37.068811,17.246167 37.088388,32 37.088388,32 L 22.160133,31.978069 C 22.160133,31.978069 26.997745,27.140456 26.997745,27.140456 C 18.528582,18.264221 13.291696,25.230495 11.500037,31.436501 z"
             style="fill:#404040;"/>
          </a>
         </g>
        </svg>
</svg>
