<?xml version="1.0" encoding="UTF-8" standalone="no"?>
<!DOCTYPE svg PUBLIC "-//W3C//DTD SVG 1.1//EN"
 "http://www.w3.org/Graphics/SVG/1.1/DTD/svg11.dtd">
<!-- Generated by graphviz version 2.40.1 (20161225.0304)
 -->
<!-- Title: lug::Graphics::Vulkan::API::CommandBuffer Pages: 1 -->
<svg width="1524pt" height="359pt"
 viewBox="0.00 0.00 1524.00 358.81" xmlns="http://www.w3.org/2000/svg" xmlns:xlink="http://www.w3.org/1999/xlink">
<g id="graph0" class="graph" transform="scale(1 1) rotate(0) translate(4 354.808)">
<title>lug::Graphics::Vulkan::API::CommandBuffer</title>
<!-- Node1 -->
<g id="node1" class="node">
<title>Node1</title>
<polygon fill="#bfbfbf" stroke="#000000" points="1384,-31.808 1384,-61.808 1516,-61.808 1516,-31.808 1384,-31.808"/>
<text text-anchor="start" x="1392" y="-49.808" font-family="Helvetica,sans-Serif" font-size="10.00" fill="#000000">lug::Graphics::Vulkan</text>
<text text-anchor="middle" x="1450" y="-38.808" font-family="Helvetica,sans-Serif" font-size="10.00" fill="#000000">::API::CommandBuffer</text>
</g>
<!-- Node2 -->
<g id="node2" class="node">
<title>Node2</title>
<g id="a_node2"><a xlink:href="classlug_1_1Graphics_1_1Vulkan_1_1API_1_1CommandPool.html" target="_top" xlink:title="lug::Graphics::Vulkan\l::API::CommandPool">
<polygon fill="none" stroke="#000000" points="1131,-82.808 1131,-112.808 1258,-112.808 1258,-82.808 1131,-82.808"/>
<text text-anchor="start" x="1139" y="-100.808" font-family="Helvetica,sans-Serif" font-size="10.00" fill="#000000">lug::Graphics::Vulkan</text>
<text text-anchor="middle" x="1194.5" y="-89.808" font-family="Helvetica,sans-Serif" font-size="10.00" fill="#000000">::API::CommandPool</text>
</a>
</g>
</g>
<!-- Node2&#45;&gt;Node1 -->
<g id="edge1" class="edge">
<title>Node2&#45;&gt;Node1</title>
<path fill="none" stroke="#9a32cd" stroke-dasharray="5,2" d="M1235.359,-78.6443C1248.1251,-73.3746 1262.4249,-68.1863 1276,-64.808 1311.0701,-56.0804 1351.1338,-51.5773 1383.9707,-49.2571"/>
<polygon fill="#9a32cd" stroke="#9a32cd" points="1233.7604,-75.5209 1225.9331,-82.6612 1236.5048,-81.9605 1233.7604,-75.5209"/>
<text text-anchor="middle" x="1321" y="-67.808" font-family="Helvetica,sans-Serif" font-size="10.00" fill="#000000"> _commandPool</text>
</g>
<!-- Node17 -->
<g id="node17" class="node">
<title>Node17</title>
<g id="a_node17"><a xlink:href="classlug_1_1Graphics_1_1Vulkan_1_1API_1_1Queue.html" target="_top" xlink:title="lug::Graphics::Vulkan\l::API::Queue">
<polygon fill="none" stroke="#000000" points="1386.5,-167.808 1386.5,-197.808 1513.5,-197.808 1513.5,-167.808 1386.5,-167.808"/>
<text text-anchor="start" x="1394.5" y="-185.808" font-family="Helvetica,sans-Serif" font-size="10.00" fill="#000000">lug::Graphics::Vulkan</text>
<text text-anchor="middle" x="1450" y="-174.808" font-family="Helvetica,sans-Serif" font-size="10.00" fill="#000000">::API::Queue</text>
</a>
</g>
</g>
<!-- Node2&#45;&gt;Node17 -->
<g id="edge18" class="edge">
<title>Node2&#45;&gt;Node17</title>
<path fill="none" stroke="#9a32cd" stroke-dasharray="5,2" d="M1256.0897,-115.7966C1288.889,-125.6389 1329.8199,-138.3404 1366,-150.808 1381.1969,-156.0448 1397.763,-162.2478 1412.1364,-167.7917"/>
<polygon fill="#9a32cd" stroke="#9a32cd" points="1256.7694,-112.3468 1246.1859,-112.8373 1254.7652,-119.0538 1256.7694,-112.3468"/>
<text text-anchor="middle" x="1321" y="-153.808" font-family="Helvetica,sans-Serif" font-size="10.00" fill="#000000"> _commandPool</text>
</g>
<!-- Node3 -->
<g id="node3" class="node">
<title>Node3</title>
<g id="a_node3"><a xlink:href="classlug_1_1Graphics_1_1Vulkan_1_1API_1_1Device.html" target="_top" xlink:title="lug::Graphics::Vulkan\l::API::Device">
<polygon fill="none" stroke="#000000" points="888,-107.808 888,-137.808 1015,-137.808 1015,-107.808 888,-107.808"/>
<text text-anchor="start" x="896" y="-125.808" font-family="Helvetica,sans-Serif" font-size="10.00" fill="#000000">lug::Graphics::Vulkan</text>
<text text-anchor="middle" x="951.5" y="-114.808" font-family="Helvetica,sans-Serif" font-size="10.00" fill="#000000">::API::Device</text>
</a>
</g>
</g>
<!-- Node3&#45;&gt;Node2 -->
<g id="edge2" class="edge">
<title>Node3&#45;&gt;Node2</title>
<path fill="none" stroke="#9a32cd" stroke-dasharray="5,2" d="M1025.2895,-115.2165C1059.0036,-111.7479 1098.5442,-107.68 1130.9212,-104.349"/>
<polygon fill="#9a32cd" stroke="#9a32cd" points="1024.6173,-111.7671 1015.028,-116.2722 1025.3337,-118.7303 1024.6173,-111.7671"/>
<text text-anchor="middle" x="1073" y="-117.808" font-family="Helvetica,sans-Serif" font-size="10.00" fill="#000000"> _device</text>
</g>
<!-- Node4 -->
<g id="node4" class="node">
<title>Node4</title>
<g id="a_node4"><a xlink:href="structlug_1_1Graphics_1_1Vulkan_1_1PhysicalDeviceInfo.html" target="_top" xlink:title="lug::Graphics::Vulkan\l::PhysicalDeviceInfo">
<polygon fill="none" stroke="#000000" points="621,-131.808 621,-161.808 748,-161.808 748,-131.808 621,-131.808"/>
<text text-anchor="start" x="629" y="-149.808" font-family="Helvetica,sans-Serif" font-size="10.00" fill="#000000">lug::Graphics::Vulkan</text>
<text text-anchor="middle" x="684.5" y="-138.808" font-family="Helvetica,sans-Serif" font-size="10.00" fill="#000000">::PhysicalDeviceInfo</text>
</a>
</g>
</g>
<!-- Node4&#45;&gt;Node3 -->
<g id="edge3" class="edge">
<title>Node4&#45;&gt;Node3</title>
<path fill="none" stroke="#9a32cd" stroke-dasharray="5,2" d="M758.2452,-140.1792C798.9344,-136.5218 848.9548,-132.0255 887.9112,-128.5238"/>
<polygon fill="#9a32cd" stroke="#9a32cd" points="757.7604,-136.7086 748.1139,-141.0899 758.3872,-143.6805 757.7604,-136.7086"/>
<text text-anchor="middle" x="818" y="-141.808" font-family="Helvetica,sans-Serif" font-size="10.00" fill="#000000"> _physicalDeviceInfo</text>
</g>
<!-- Node5 -->
<g id="node5" class="node">
<title>Node5</title>
<g id="a_node5"><a xlink:href="structlug_1_1Graphics_1_1Vulkan_1_1PhysicalDeviceInfo_1_1Swapchain.html" target="_top" xlink:title="lug::Graphics::Vulkan\l::PhysicalDeviceInfo\l::Swapchain">
<polygon fill="none" stroke="#000000" points="324.5,-282.308 324.5,-323.308 451.5,-323.308 451.5,-282.308 324.5,-282.308"/>
<text text-anchor="start" x="332.5" y="-311.308" font-family="Helvetica,sans-Serif" font-size="10.00" fill="#000000">lug::Graphics::Vulkan</text>
<text text-anchor="start" x="332.5" y="-300.308" font-family="Helvetica,sans-Serif" font-size="10.00" fill="#000000">::PhysicalDeviceInfo</text>
<text text-anchor="middle" x="388" y="-289.308" font-family="Helvetica,sans-Serif" font-size="10.00" fill="#000000">::Swapchain</text>
</a>
</g>
</g>
<!-- Node5&#45;&gt;Node4 -->
<g id="edge4" class="edge">
<title>Node5&#45;&gt;Node4</title>
<path fill="none" stroke="#9a32cd" stroke-dasharray="5,2" d="M461.9687,-295.2142C505.7326,-287.9967 560.6959,-273.9767 603,-246.808 637.1095,-224.902 663.7273,-183.9832 676.3961,-161.8874"/>
<polygon fill="#9a32cd" stroke="#9a32cd" points="461.296,-291.7767 451.9569,-296.78 462.3776,-298.6927 461.296,-291.7767"/>
<text text-anchor="middle" x="554.5" y="-287.808" font-family="Helvetica,sans-Serif" font-size="10.00" fill="#000000"> swapchain</text>
</g>
<!-- Node6 -->
<g id="node6" class="node">
<title>Node6</title>
<polygon fill="none" stroke="#bfbfbf" points="16.5,-331.308 16.5,-350.308 162.5,-350.308 162.5,-331.308 16.5,-331.308"/>
<text text-anchor="middle" x="89.5" y="-338.308" font-family="Helvetica,sans-Serif" font-size="10.00" fill="#000000">VkSurfaceCapabilitiesKHR</text>
</g>
<!-- Node6&#45;&gt;Node5 -->
<g id="edge5" class="edge">
<title>Node6&#45;&gt;Node5</title>
<path fill="none" stroke="#9a32cd" stroke-dasharray="5,2" d="M172.5828,-330.2313C220.5932,-324.1194 280.0566,-316.5495 324.3375,-310.9124"/>
<polygon fill="#9a32cd" stroke="#9a32cd" points="171.9992,-326.7772 162.5213,-331.5121 172.8833,-333.7212 171.9992,-326.7772"/>
<text text-anchor="middle" x="233.5" y="-328.808" font-family="Helvetica,sans-Serif" font-size="10.00" fill="#000000"> capabilities</text>
</g>
<!-- Node7 -->
<g id="node7" class="node">
<title>Node7</title>
<polygon fill="none" stroke="#bfbfbf" points="0,-293.308 0,-312.308 179,-312.308 179,-293.308 0,-293.308"/>
<text text-anchor="middle" x="89.5" y="-300.308" font-family="Helvetica,sans-Serif" font-size="10.00" fill="#000000">vector&lt; VkSurfaceFormatKHR &gt;</text>
</g>
<!-- Node7&#45;&gt;Node5 -->
<g id="edge6" class="edge">
<title>Node7&#45;&gt;Node5</title>
<path fill="none" stroke="#9a32cd" stroke-dasharray="5,2" d="M189.3241,-302.808C233.799,-302.808 284.8747,-302.808 324.1016,-302.808"/>
<polygon fill="#9a32cd" stroke="#9a32cd" points="189.0599,-299.3081 179.0598,-302.808 189.0598,-306.3081 189.0599,-299.3081"/>
<text text-anchor="middle" x="233.5" y="-305.808" font-family="Helvetica,sans-Serif" font-size="10.00" fill="#000000"> formats</text>
</g>
<!-- Node8 -->
<g id="node8" class="node">
<title>Node8</title>
<polygon fill="none" stroke="#bfbfbf" points="4.5,-255.308 4.5,-274.308 174.5,-274.308 174.5,-255.308 4.5,-255.308"/>
<text text-anchor="middle" x="89.5" y="-262.308" font-family="Helvetica,sans-Serif" font-size="10.00" fill="#000000">vector&lt; VkPresentModeKHR &gt;</text>
</g>
<!-- Node8&#45;&gt;Node5 -->
<g id="edge7" class="edge">
<title>Node8&#45;&gt;Node5</title>
<path fill="none" stroke="#9a32cd" stroke-dasharray="5,2" d="M174.4265,-275.6194C222.0428,-281.6811 280.4605,-289.1179 324.1567,-294.6805"/>
<polygon fill="#9a32cd" stroke="#9a32cd" points="174.8008,-272.1389 164.4389,-274.3479 173.9168,-279.0828 174.8008,-272.1389"/>
<text text-anchor="middle" x="233.5" y="-289.808" font-family="Helvetica,sans-Serif" font-size="10.00" fill="#000000"> presentModes</text>
</g>
<!-- Node9 -->
<g id="node9" class="node">
<title>Node9</title>
<polygon fill="none" stroke="#bfbfbf" points="308.5,-232.808 308.5,-262.808 467.5,-262.808 467.5,-232.808 308.5,-232.808"/>
<text text-anchor="start" x="316.5" y="-250.808" font-family="Helvetica,sans-Serif" font-size="10.00" fill="#000000">unordered_map&lt; VkFormat,</text>
<text text-anchor="middle" x="388" y="-239.808" font-family="Helvetica,sans-Serif" font-size="10.00" fill="#000000"> VkFormatProperties &gt;</text>
</g>
<!-- Node9&#45;&gt;Node4 -->
<g id="edge8" class="edge">
<title>Node9&#45;&gt;Node4</title>
<path fill="none" stroke="#9a32cd" stroke-dasharray="5,2" d="M477.4236,-238.5085C517.0561,-232.2379 563.5404,-221.8623 603,-204.808 627.5497,-194.1977 652.0561,-175.364 667.6872,-162.0403"/>
<polygon fill="#9a32cd" stroke="#9a32cd" points="476.8643,-235.0532 467.5036,-240.0158 477.9159,-241.9738 476.8643,-235.0532"/>
<text text-anchor="middle" x="554.5" y="-234.808" font-family="Helvetica,sans-Serif" font-size="10.00" fill="#000000"> formatProperties</text>
</g>
<!-- Node10 -->
<g id="node10" class="node">
<title>Node10</title>
<polygon fill="none" stroke="#bfbfbf" points="315,-194.308 315,-213.308 461,-213.308 461,-194.308 315,-194.308"/>
<text text-anchor="middle" x="388" y="-201.308" font-family="Helvetica,sans-Serif" font-size="10.00" fill="#000000">VkPhysicalDeviceFeatures</text>
</g>
<!-- Node10&#45;&gt;Node4 -->
<g id="edge9" class="edge">
<title>Node10&#45;&gt;Node4</title>
<path fill="none" stroke="#9a32cd" stroke-dasharray="5,2" d="M471.2106,-195.0699C511.3296,-190.0302 559.9699,-182.7021 603,-172.808 615.7373,-169.8793 629.348,-165.8918 641.7267,-161.9195"/>
<polygon fill="#9a32cd" stroke="#9a32cd" points="470.7004,-191.6062 461.2031,-196.302 471.5558,-198.5537 470.7004,-191.6062"/>
<text text-anchor="middle" x="554.5" y="-192.808" font-family="Helvetica,sans-Serif" font-size="10.00" fill="#000000"> features</text>
</g>
<!-- Node11 -->
<g id="node11" class="node">
<title>Node11</title>
<polygon fill="none" stroke="#bfbfbf" points="288,-156.308 288,-175.308 488,-175.308 488,-156.308 288,-156.308"/>
<text text-anchor="middle" x="388" y="-163.308" font-family="Helvetica,sans-Serif" font-size="10.00" fill="#000000">vector&lt; VkQueueFamilyProperties &gt;</text>
</g>
<!-- Node11&#45;&gt;Node4 -->
<g id="edge10" class="edge">
<title>Node11&#45;&gt;Node4</title>
<path fill="none" stroke="#9a32cd" stroke-dasharray="5,2" d="M498.5025,-158.7269C539.7965,-156.0807 585.2765,-153.1663 620.9274,-150.8818"/>
<polygon fill="#9a32cd" stroke="#9a32cd" points="498.137,-155.243 488.3814,-159.3755 498.5848,-162.2287 498.137,-155.243"/>
<text text-anchor="middle" x="554.5" y="-160.808" font-family="Helvetica,sans-Serif" font-size="10.00" fill="#000000"> queueFamilies</text>
</g>
<!-- Node12 -->
<g id="node12" class="node">
<title>Node12</title>
<polygon fill="none" stroke="#bfbfbf" points="290.5,-118.308 290.5,-137.308 485.5,-137.308 485.5,-118.308 290.5,-118.308"/>
<text text-anchor="middle" x="388" y="-125.308" font-family="Helvetica,sans-Serif" font-size="10.00" fill="#000000">VkPhysicalDeviceMemoryProperties</text>
</g>
<!-- Node12&#45;&gt;Node4 -->
<g id="edge11" class="edge">
<title>Node12&#45;&gt;Node4</title>
<path fill="none" stroke="#9a32cd" stroke-dasharray="5,2" d="M495.8071,-130.6256C530.1079,-131.976 568.1796,-133.9476 603,-136.808 608.8251,-137.2865 614.8748,-137.8682 620.9278,-138.5079"/>
<polygon fill="#9a32cd" stroke="#9a32cd" points="495.8922,-127.1264 485.7664,-130.2436 495.626,-134.1213 495.8922,-127.1264"/>
<text text-anchor="middle" x="554.5" y="-139.808" font-family="Helvetica,sans-Serif" font-size="10.00" fill="#000000"> memoryProperties</text>
</g>
<!-- Node13 -->
<g id="node13" class="node">
<title>Node13</title>
<polygon fill="none" stroke="#bfbfbf" points="336,-80.308 336,-99.308 440,-99.308 440,-80.308 336,-80.308"/>
<text text-anchor="middle" x="388" y="-87.308" font-family="Helvetica,sans-Serif" font-size="10.00" fill="#000000">VkPhysicalDevice</text>
</g>
<!-- Node13&#45;&gt;Node4 -->
<g id="edge12" class="edge">
<title>Node13&#45;&gt;Node4</title>
<path fill="none" stroke="#9a32cd" stroke-dasharray="5,2" d="M450.4396,-93.3352C493.741,-96.7557 552.4775,-103.3421 603,-115.808 607.593,-116.9413 627.1317,-124.3588 645.9257,-131.6534"/>
<polygon fill="#9a32cd" stroke="#9a32cd" points="450.5703,-89.8352 440.3352,-92.5721 450.0432,-96.8153 450.5703,-89.8352"/>
<text text-anchor="middle" x="554.5" y="-118.808" font-family="Helvetica,sans-Serif" font-size="10.00" fill="#000000"> handle</text>
</g>
<!-- Node14 -->
<g id="node14" class="node">
<title>Node14</title>
<polygon fill="none" stroke="#bfbfbf" points="310.5,-42.308 310.5,-61.308 465.5,-61.308 465.5,-42.308 310.5,-42.308"/>
<text text-anchor="middle" x="388" y="-49.308" font-family="Helvetica,sans-Serif" font-size="10.00" fill="#000000">VkPhysicalDeviceProperties</text>
</g>
<!-- Node14&#45;&gt;Node4 -->
<g id="edge13" class="edge">
<title>Node14&#45;&gt;Node4</title>
<path fill="none" stroke="#9a32cd" stroke-dasharray="5,2" d="M475.7995,-47.1406C517.8718,-49.149 566.8428,-58.1585 603,-84.808 617.7207,-95.6579 607.5765,-109.3891 621,-121.808 625.1745,-125.6701 630.016,-128.9628 635.1276,-131.7638"/>
<polygon fill="#9a32cd" stroke="#9a32cd" points="475.661,-43.6337 465.5444,-46.7807 475.4154,-50.6294 475.661,-43.6337"/>
<text text-anchor="middle" x="554.5" y="-87.808" font-family="Helvetica,sans-Serif" font-size="10.00" fill="#000000"> properties</text>
</g>
<!-- Node15 -->
<g id="node15" class="node">
<title>Node15</title>
<polygon fill="none" stroke="#bfbfbf" points="296,-4.308 296,-23.308 480,-23.308 480,-4.308 296,-4.308"/>
<text text-anchor="middle" x="388" y="-11.308" font-family="Helvetica,sans-Serif" font-size="10.00" fill="#000000">vector&lt; VkExtensionProperties &gt;</text>
</g>
<!-- Node15&#45;&gt;Node4 -->
<g id="edge14" class="edge">
<title>Node15&#45;&gt;Node4</title>
<path fill="none" stroke="#9a32cd" stroke-dasharray="5,2" d="M444.0293,-2.926C492.1992,2.9653 560.4445,2.5232 603,-35.808 632.0154,-61.9432 595.8123,-91.9664 621,-121.808 624.286,-125.7012 628.2597,-128.9918 632.5974,-131.7725"/>
<polygon fill="#9a32cd" stroke="#9a32cd" points="443.5145,.5364 434.0715,-4.2679 444.4494,-6.4009 443.5145,.5364"/>
<text text-anchor="middle" x="554.5" y="-38.808" font-family="Helvetica,sans-Serif" font-size="10.00" fill="#000000"> extensions</text>
</g>
<!-- Node16 -->
<g id="node16" class="node">
<title>Node16</title>
<polygon fill="none" stroke="#bfbfbf" points="653,-93.308 653,-112.308 716,-112.308 716,-93.308 653,-93.308"/>
<text text-anchor="middle" x="684.5" y="-100.308" font-family="Helvetica,sans-Serif" font-size="10.00" fill="#000000">VkDevice</text>
</g>
<!-- Node16&#45;&gt;Node3 -->
<g id="edge15" class="edge">
<title>Node16&#45;&gt;Node3</title>
<path fill="none" stroke="#9a32cd" stroke-dasharray="5,2" d="M726.1888,-102.5194C763.8565,-102.6474 820.7728,-103.8078 870,-108.808 875.8561,-109.4028 881.9268,-110.1662 887.9933,-111.0289"/>
<polygon fill="#9a32cd" stroke="#9a32cd" points="726.1013,-99.0194 716.0974,-102.5083 726.0935,-106.0194 726.1013,-99.0194"/>
<text text-anchor="middle" x="818" y="-111.808" font-family="Helvetica,sans-Serif" font-size="10.00" fill="#000000"> _device</text>
</g>
<!-- Node17&#45;&gt;Node2 -->
<g id="edge16" class="edge">
<title>Node17&#45;&gt;Node2</title>
<path fill="none" stroke="#9a32cd" stroke-dasharray="5,2" d="M1434.6319,-159.3308C1419.8105,-139.0259 1395.3426,-111.0624 1366,-98.808 1332.3431,-84.7518 1291.6273,-83.9188 1258.3149,-86.8726"/>
<polygon fill="#9a32cd" stroke="#9a32cd" points="1431.9478,-161.5986 1440.5625,-167.7661 1437.6742,-157.5726 1431.9478,-161.5986"/>
<text text-anchor="middle" x="1321" y="-101.808" font-family="Helvetica,sans-Serif" font-size="10.00" fill="#000000"> _queue</text>
</g>
<!-- Node18 -->
<g id="node18" class="node">
<title>Node18</title>
<polygon fill="none" stroke="#bfbfbf" points="1172,-266.308 1172,-285.308 1217,-285.308 1217,-266.308 1172,-266.308"/>
<text text-anchor="middle" x="1194.5" y="-273.308" font-family="Helvetica,sans-Serif" font-size="10.00" fill="#000000">int8_t</text>
</g>
<!-- Node18&#45;&gt;Node17 -->
<g id="edge17" class="edge">
<title>Node18&#45;&gt;Node17</title>
<path fill="none" stroke="#9a32cd" stroke-dasharray="5,2" d="M1227.2441,-273.0676C1262.6415,-269.217 1320.1437,-260.3479 1366,-240.808 1391.1074,-230.1094 1416.4052,-211.2937 1432.5785,-197.9983"/>
<polygon fill="#9a32cd" stroke="#9a32cd" points="1226.6008,-269.6149 1217.0058,-274.1078 1227.3084,-276.5791 1226.6008,-269.6149"/>
<text text-anchor="middle" x="1321" y="-267.808" font-family="Helvetica,sans-Serif" font-size="10.00" fill="#000000"> _idx</text>
</g>
<!-- Node19 -->
<g id="node19" class="node">
<title>Node19</title>
<polygon fill="none" stroke="#bfbfbf" points="1151.5,-228.308 1151.5,-247.308 1237.5,-247.308 1237.5,-228.308 1151.5,-228.308"/>
<text text-anchor="middle" x="1194.5" y="-235.308" font-family="Helvetica,sans-Serif" font-size="10.00" fill="#000000">VkQueueFlags</text>
</g>
<!-- Node19&#45;&gt;Node17 -->
<g id="edge19" class="edge">
<title>Node19&#45;&gt;Node17</title>
<path fill="none" stroke="#9a32cd" stroke-dasharray="5,2" d="M1248.0033,-230.6269C1282.0199,-225.6027 1326.8668,-218.1295 1366,-208.808 1378.9199,-205.7305 1392.7598,-201.7419 1405.4022,-197.8169"/>
<polygon fill="#9a32cd" stroke="#9a32cd" points="1247.2056,-227.206 1237.8124,-232.1069 1248.2116,-234.1333 1247.2056,-227.206"/>
<text text-anchor="middle" x="1321" y="-228.808" font-family="Helvetica,sans-Serif" font-size="10.00" fill="#000000"> _flags</text>
</g>
<!-- Node20 -->
<g id="node20" class="node">
<title>Node20</title>
<polygon fill="none" stroke="#bfbfbf" points="1175.5,-190.308 1175.5,-209.308 1213.5,-209.308 1213.5,-190.308 1175.5,-190.308"/>
<text text-anchor="middle" x="1194.5" y="-197.308" font-family="Helvetica,sans-Serif" font-size="10.00" fill="#000000">bool</text>
</g>
<!-- Node20&#45;&gt;Node17 -->
<g id="edge20" class="edge">
<title>Node20&#45;&gt;Node17</title>
<path fill="none" stroke="#9a32cd" stroke-dasharray="5,2" d="M1223.693,-197.8656C1263.0688,-195.2457 1334.254,-190.5093 1386.3026,-187.0462"/>
<polygon fill="#9a32cd" stroke="#9a32cd" points="1223.4496,-194.374 1213.704,-198.5302 1223.9144,-201.3585 1223.4496,-194.374"/>
<text text-anchor="middle" x="1321" y="-196.808" font-family="Helvetica,sans-Serif" font-size="10.00" fill="#000000"> _presentation</text>
</g>
<!-- Node21 -->
<g id="node21" class="node">
<title>Node21</title>
<polygon fill="none" stroke="#bfbfbf" points="1164,-152.308 1164,-171.308 1225,-171.308 1225,-152.308 1164,-152.308"/>
<text text-anchor="middle" x="1194.5" y="-159.308" font-family="Helvetica,sans-Serif" font-size="10.00" fill="#000000">VkQueue</text>
</g>
<!-- Node21&#45;&gt;Node17 -->
<g id="edge21" class="edge">
<title>Node21&#45;&gt;Node17</title>
<path fill="none" stroke="#9a32cd" stroke-dasharray="5,2" d="M1235.4484,-163.8065C1270.2238,-165.6542 1321.4377,-168.7294 1366,-172.808 1372.5813,-173.4103 1379.4444,-174.1099 1386.2869,-174.8539"/>
<polygon fill="#9a32cd" stroke="#9a32cd" points="1235.3781,-160.2982 1225.2094,-163.2728 1235.0136,-167.2887 1235.3781,-160.2982"/>
<text text-anchor="middle" x="1321" y="-175.808" font-family="Helvetica,sans-Serif" font-size="10.00" fill="#000000"> _queue</text>
</g>
<!-- Node22 -->
<g id="node22" class="node">
<title>Node22</title>
<polygon fill="none" stroke="#bfbfbf" points="901,-69.308 901,-88.308 1002,-88.308 1002,-69.308 901,-69.308"/>
<text text-anchor="middle" x="951.5" y="-76.308" font-family="Helvetica,sans-Serif" font-size="10.00" fill="#000000">VkCommandPool</text>
</g>
<!-- Node22&#45;&gt;Node2 -->
<g id="edge22" class="edge">
<title>Node22&#45;&gt;Node2</title>
<path fill="none" stroke="#9a32cd" stroke-dasharray="5,2" d="M1012.1698,-79.3262C1042.5104,-80.0261 1079.7586,-81.5514 1113,-84.808 1118.8466,-85.3808 1124.9109,-86.1035 1130.9732,-86.9135"/>
<polygon fill="#9a32cd" stroke="#9a32cd" points="1012.2312,-75.8268 1002.1609,-79.1191 1012.0864,-82.8253 1012.2312,-75.8268"/>
<text text-anchor="middle" x="1073" y="-87.808" font-family="Helvetica,sans-Serif" font-size="10.00" fill="#000000"> _commandPool</text>
</g>
<!-- Node23 -->
<g id="node23" class="node">
<title>Node23</title>
<polygon fill="none" stroke="#bfbfbf" points="1139.5,-20.308 1139.5,-39.308 1249.5,-39.308 1249.5,-20.308 1139.5,-20.308"/>
<text text-anchor="middle" x="1194.5" y="-27.308" font-family="Helvetica,sans-Serif" font-size="10.00" fill="#000000">VkCommandBuffer</text>
</g>
<!-- Node23&#45;&gt;Node1 -->
<g id="edge23" class="edge">
<title>Node23&#45;&gt;Node1</title>
<path fill="none" stroke="#9a32cd" stroke-dasharray="5,2" d="M1259.9927,-27.3964C1292.0236,-26.928 1331.1033,-27.4114 1366,-30.808 1371.7625,-31.3689 1377.7188,-32.1302 1383.6761,-33.0179"/>
<polygon fill="#9a32cd" stroke="#9a32cd" points="1259.7902,-23.8994 1249.855,-27.5794 1259.9166,-30.8982 1259.7902,-23.8994"/>
<text text-anchor="middle" x="1321" y="-33.808" font-family="Helvetica,sans-Serif" font-size="10.00" fill="#000000"> _commandBuffer</text>
</g>
</g>
</svg>
