<?xml version="1.0" encoding="UTF-8" standalone="no"?>
<!DOCTYPE svg PUBLIC "-//W3C//DTD SVG 1.1//EN"
 "http://www.w3.org/Graphics/SVG/1.1/DTD/svg11.dtd">
<!-- Generated by graphviz version 2.40.1 (20161225.0304)
 -->
<!-- Title: lug::Graphics::Vulkan::Render::Material Pages: 1 -->
<!--zoomable 475 -->
<svg id="main" version="1.1" xmlns="http://www.w3.org/2000/svg" xmlns:xlink="http://www.w3.org/1999/xlink" xml:space="preserve" onload="init(evt)">
<style type="text/css"><![CDATA[
.edge:hover path { stroke: red; }
.edge:hover polygon { stroke: red; fill: red; }
]]></style>
<script type="text/javascript"><![CDATA[
var edges = document.getElementsByTagName('g');
if (edges && edges.length) {
  for (var i=0;i<edges.length;i++) {
    if (edges[i].id.substr(0,4)=='edge') {
      edges[i].setAttribute('class','edge');
    }
  }
}
]]></script>
        <defs>
                <circle id="rim" cx="0" cy="0" r="7"/>
                <circle id="rim2" cx="0" cy="0" r="3.5"/>
                <g id="zoomPlus">
                        <use xlink:href="#rim" fill="#404040">
                                <set attributeName="fill" to="#808080" begin="zoomplus.mouseover" end="zoomplus.mouseout"/>
                        </use>
                        <path d="M-4,0h8M0,-4v8" fill="none" stroke="white" stroke-width="1.5" pointer-events="none"/>
                </g>
                <g id="zoomMin">
                        <use xlink:href="#rim" fill="#404040">
                                <set attributeName="fill" to="#808080" begin="zoomminus.mouseover" end="zoomminus.mouseout"/>
                        </use>
                        <path d="M-4,0h8" fill="none" stroke="white" stroke-width="1.5" pointer-events="none"/>
                </g>
                <g id="dirArrow">
                        <path fill="none" stroke="white" stroke-width="1.5" d="M0,-3.0v7 M-2.5,-0.5L0,-3.0L2.5,-0.5"/>
                </g>
               <g id="resetDef">
                       <use xlink:href="#rim2" fill="#404040">
                               <set attributeName="fill" to="#808080" begin="reset.mouseover" end="reset.mouseout"/>
                       </use>
               </g>
        </defs>

<script type="text/javascript">
var viewWidth = 2290;
var viewHeight = 475;
var sectionId = 'dynsection-1';
</script>
<script xlink:href="svgpan.js"/>
<svg id="graph" class="graph">
<g id="viewport">
<title>lug::Graphics::Vulkan::Render::Material</title>
<!-- Node4 -->
<g id="node1" class="node">
<title>Node4</title>
<polygon fill="#bfbfbf" stroke="#000000" points="2155,-62 2155,-92 2282,-92 2282,-62 2155,-62"/>
<text text-anchor="start" x="2163" y="-80" font-family="Helvetica,sans-Serif" font-size="10.00" fill="#000000">lug::Graphics::Vulkan</text>
<text text-anchor="middle" x="2218.5" y="-69" font-family="Helvetica,sans-Serif" font-size="10.00" fill="#000000">::Render::Material</text>
</g>
<!-- Node5 -->
<g id="node2" class="node">
<title>Node5</title>
<g id="a_node2"><a xlink:href="classlug_1_1Graphics_1_1Render_1_1Material.html" target="_top" xlink:title="Class for Material. Is a Resource. ">
<polygon fill="none" stroke="#000000" points="1990,-261 1990,-291 2118,-291 2118,-261 1990,-261"/>
<text text-anchor="start" x="1998" y="-279" font-family="Helvetica,sans-Serif" font-size="10.00" fill="#000000">lug::Graphics::Render</text>
<text text-anchor="middle" x="2054" y="-268" font-family="Helvetica,sans-Serif" font-size="10.00" fill="#000000">::Material</text>
</a>
</g>
</g>
<!-- Node5&#45;&gt;Node4 -->
<g id="edge1" class="edge">
<title>Node5&#45;&gt;Node4</title>
<path fill="none" stroke="#191970" d="M2073.1368,-252.8497C2107.2139,-211.6257 2177.507,-126.5904 2206.0472,-92.0644"/>
<polygon fill="#191970" stroke="#191970" points="2070.3086,-250.7777 2066.6349,-260.7152 2075.7039,-255.2376 2070.3086,-250.7777"/>
</g>
<!-- Node6 -->
<g id="node3" class="node">
<title>Node6</title>
<g id="a_node3"><a xlink:href="classlug_1_1Graphics_1_1Resource.html" target="_top" xlink:title="Class for resource. ">
<polygon fill="none" stroke="#000000" points="552,-438.5 552,-457.5 691,-457.5 691,-438.5 552,-438.5"/>
<text text-anchor="middle" x="621.5" y="-445.5" font-family="Helvetica,sans-Serif" font-size="10.00" fill="#000000">lug::Graphics::Resource</text>
</a>
</g>
</g>
<!-- Node6&#45;&gt;Node5 -->
<g id="edge2" class="edge">
<title>Node6&#45;&gt;Node5</title>
<path fill="none" stroke="#191970" d="M701.2646,-448C749.407,-448 811.9779,-448 867.5,-448 867.5,-448 867.5,-448 1793.5,-448 1873.5472,-448 1905.9003,-469.1484 1972,-424 2019.5426,-391.5268 2042.3525,-322.0233 2050.433,-291.2273"/>
<polygon fill="#191970" stroke="#191970" points="701.2184,-444.5001 691.2183,-448 701.2183,-451.5001 701.2184,-444.5001"/>
</g>
<!-- Node17 -->
<g id="node14" class="node">
<title>Node17</title>
<g id="a_node14"><a xlink:href="classlug_1_1Graphics_1_1Render_1_1SkyBox.html" target="_top" xlink:title="lug::Graphics::Render\l::SkyBox">
<polygon fill="none" stroke="#000000" points="1422.5,-222 1422.5,-252 1550.5,-252 1550.5,-222 1422.5,-222"/>
<text text-anchor="start" x="1430.5" y="-240" font-family="Helvetica,sans-Serif" font-size="10.00" fill="#000000">lug::Graphics::Render</text>
<text text-anchor="middle" x="1486.5" y="-229" font-family="Helvetica,sans-Serif" font-size="10.00" fill="#000000">::SkyBox</text>
</a>
</g>
</g>
<!-- Node6&#45;&gt;Node17 -->
<g id="edge15" class="edge">
<title>Node6&#45;&gt;Node17</title>
<path fill="none" stroke="#191970" d="M680.0798,-436.4628C810.7241,-410.2709 1135.4155,-342.6128 1402,-266 1416.3104,-261.8874 1431.7708,-256.7811 1445.5063,-252.0047"/>
<polygon fill="#191970" stroke="#191970" points="679.0173,-433.1059 669.8977,-438.4988 680.3899,-439.97 679.0173,-433.1059"/>
</g>
<!-- Node19 -->
<g id="node16" class="node">
<title>Node19</title>
<g id="a_node16"><a xlink:href="classlug_1_1Graphics_1_1Render_1_1Texture.html" target="_top" xlink:title="lug::Graphics::Render\l::Texture">
<polygon fill="none" stroke="#000000" points="803.5,-269 803.5,-299 931.5,-299 931.5,-269 803.5,-269"/>
<text text-anchor="start" x="811.5" y="-287" font-family="Helvetica,sans-Serif" font-size="10.00" fill="#000000">lug::Graphics::Render</text>
<text text-anchor="middle" x="867.5" y="-276" font-family="Helvetica,sans-Serif" font-size="10.00" fill="#000000">::Texture</text>
</a>
</g>
</g>
<!-- Node6&#45;&gt;Node19 -->
<g id="edge18" class="edge">
<title>Node6&#45;&gt;Node19</title>
<path fill="none" stroke="#191970" d="M635.7484,-430.519C651.8581,-411.7008 679.6836,-381.9266 709,-363 737.4978,-344.6019 749.481,-349.8056 780,-335 802.3058,-324.1788 826.5843,-309.8065 843.8959,-299.0775"/>
<polygon fill="#191970" stroke="#191970" points="632.9532,-428.4052 629.2078,-438.316 638.3161,-432.904 632.9532,-428.4052"/>
</g>
<!-- Node7 -->
<g id="node4" class="node">
<title>Node7</title>
<g id="a_node4"><a xlink:href="structlug_1_1Graphics_1_1Resource_1_1Handle.html" target="_top" xlink:title="Handle of the resource. It contains informations such as the type and the index in the ResourceManage...">
<polygon fill="none" stroke="#000000" points="249,-436 249,-466 388,-466 388,-436 249,-436"/>
<text text-anchor="start" x="257" y="-454" font-family="Helvetica,sans-Serif" font-size="10.00" fill="#000000">lug::Graphics::Resource</text>
<text text-anchor="middle" x="318.5" y="-443" font-family="Helvetica,sans-Serif" font-size="10.00" fill="#000000">::Handle</text>
</a>
</g>
</g>
<!-- Node7&#45;&gt;Node6 -->
<g id="edge3" class="edge">
<title>Node7&#45;&gt;Node6</title>
<path fill="none" stroke="#9a32cd" stroke-dasharray="5,2" d="M398.3028,-450.2099C445.9934,-449.7377 506.0037,-449.1435 551.7851,-448.6902"/>
<polygon fill="#9a32cd" stroke="#9a32cd" points="397.9791,-446.7128 388.0143,-450.3117 398.0485,-453.7125 397.9791,-446.7128"/>
<text text-anchor="middle" x="470" y="-453" font-family="Helvetica,sans-Serif" font-size="10.00" fill="#000000"> _handle</text>
</g>
<!-- Node8 -->
<g id="node5" class="node">
<title>Node8</title>
<polygon fill="none" stroke="#bfbfbf" points="21.5,-314.5 21.5,-333.5 78.5,-333.5 78.5,-314.5 21.5,-314.5"/>
<text text-anchor="middle" x="50" y="-321.5" font-family="Helvetica,sans-Serif" font-size="10.00" fill="#000000">uint32_t</text>
</g>
<!-- Node8&#45;&gt;Node7 -->
<g id="edge4" class="edge">
<title>Node8&#45;&gt;Node7</title>
<path fill="none" stroke="#9a32cd" stroke-dasharray="5,2" d="M68.6874,-340.0867C81.8163,-350.7821 100.1546,-364.5474 118,-374 165.0791,-398.9376 183.3596,-390.1522 231,-414 239.5978,-418.3038 240.4132,-421.6743 249,-426 256.2147,-429.6345 264.0874,-432.9941 271.8574,-435.9942"/>
<polygon fill="#9a32cd" stroke="#9a32cd" points="70.7941,-337.2865 60.8696,-333.5778 66.3152,-342.6661 70.7941,-337.2865"/>
<text text-anchor="middle" x="174.5" y="-439" font-family="Helvetica,sans-Serif" font-size="10.00" fill="#000000"> value</text>
<text text-anchor="middle" x="174.5" y="-428" font-family="Helvetica,sans-Serif" font-size="10.00" fill="#000000">type</text>
<text text-anchor="middle" x="174.5" y="-417" font-family="Helvetica,sans-Serif" font-size="10.00" fill="#000000">index</text>
</g>
<!-- Node11 -->
<g id="node8" class="node">
<title>Node11</title>
<g id="a_node8"><a xlink:href="classlug_1_1Graphics_1_1Render_1_1DirtyObject.html" target="_top" xlink:title="lug::Graphics::Render\l::DirtyObject">
<polygon fill="none" stroke="#000000" points="406,-353 406,-383 534,-383 534,-353 406,-353"/>
<text text-anchor="start" x="414" y="-371" font-family="Helvetica,sans-Serif" font-size="10.00" fill="#000000">lug::Graphics::Render</text>
<text text-anchor="middle" x="470" y="-360" font-family="Helvetica,sans-Serif" font-size="10.00" fill="#000000">::DirtyObject</text>
</a>
</g>
</g>
<!-- Node8&#45;&gt;Node11 -->
<g id="edge8" class="edge">
<title>Node8&#45;&gt;Node11</title>
<path fill="none" stroke="#9a32cd" stroke-dasharray="5,2" d="M88.6805,-332.787C98.2262,-334.7275 108.4517,-336.6151 118,-338 217.9992,-352.5037 335.0738,-360.7644 405.8299,-364.8107"/>
<polygon fill="#9a32cd" stroke="#9a32cd" points="89.1593,-329.3113 78.6535,-330.6818 87.7209,-336.1619 89.1593,-329.3113"/>
<text text-anchor="middle" x="174.5" y="-354" font-family="Helvetica,sans-Serif" font-size="10.00" fill="#000000"> _dirtyFlag</text>
</g>
<!-- Node8&#45;&gt;Node19 -->
<g id="edge20" class="edge">
<title>Node8&#45;&gt;Node19</title>
<path fill="none" stroke="#9a32cd" stroke-dasharray="5,2" d="M88.9915,-323.2039C189.0267,-321.0834 462.9433,-314.7843 691,-305 730.5815,-303.3018 740.6599,-304.6833 780,-300 787.5139,-299.1055 795.3571,-297.9672 803.1282,-296.7113"/>
<polygon fill="#9a32cd" stroke="#9a32cd" points="88.6839,-319.7095 78.7597,-323.4191 88.8311,-326.708 88.6839,-319.7095"/>
<text text-anchor="middle" x="470" y="-329" font-family="Helvetica,sans-Serif" font-size="10.00" fill="#000000"> _width</text>
<text text-anchor="middle" x="470" y="-318" font-family="Helvetica,sans-Serif" font-size="10.00" fill="#000000">_height</text>
</g>
<!-- Node25 -->
<g id="node22" class="node">
<title>Node25</title>
<g id="a_node22"><a xlink:href="structlug_1_1Graphics_1_1Render_1_1Material_1_1TextureInfo.html" target="_top" xlink:title="lug::Graphics::Render\l::Material::TextureInfo">
<polygon fill="none" stroke="#000000" points="1420,-130 1420,-160 1553,-160 1553,-130 1420,-130"/>
<text text-anchor="start" x="1428" y="-148" font-family="Helvetica,sans-Serif" font-size="10.00" fill="#000000">lug::Graphics::Render</text>
<text text-anchor="middle" x="1486.5" y="-137" font-family="Helvetica,sans-Serif" font-size="10.00" fill="#000000">::Material::TextureInfo</text>
</a>
</g>
</g>
<!-- Node8&#45;&gt;Node25 -->
<g id="edge28" class="edge">
<title>Node8&#45;&gt;Node25</title>
<path fill="none" stroke="#9a32cd" stroke-dasharray="5,2" d="M61.7781,-306.0304C95.4443,-257.0776 197.4906,-125 318.5,-125 318.5,-125 318.5,-125 1178.5,-125 1261.8244,-125 1357.5628,-132.3792 1419.8906,-138.1731"/>
<polygon fill="#9a32cd" stroke="#9a32cd" points="58.8222,-304.1536 56.1341,-314.4018 64.6263,-308.0668 58.8222,-304.1536"/>
<text text-anchor="middle" x="744.5" y="-128" font-family="Helvetica,sans-Serif" font-size="10.00" fill="#000000"> texCoord</text>
</g>
<!-- Node26 -->
<g id="node23" class="node">
<title>Node26</title>
<g id="a_node23"><a xlink:href="structlug_1_1Graphics_1_1Vulkan_1_1Render_1_1Pipeline_1_1Id_1_1MaterialPart.html" target="_top" xlink:title="Describes the material. How is the material composed, with textures, no textures, etc...">
<polygon fill="none" stroke="#000000" points="254.5,-23.5 254.5,-64.5 382.5,-64.5 382.5,-23.5 254.5,-23.5"/>
<text text-anchor="start" x="262.5" y="-52.5" font-family="Helvetica,sans-Serif" font-size="10.00" fill="#000000">lug::Graphics::Vulkan</text>
<text text-anchor="start" x="262.5" y="-41.5" font-family="Helvetica,sans-Serif" font-size="10.00" fill="#000000">::Render::Pipeline::Id</text>
<text text-anchor="middle" x="318.5" y="-30.5" font-family="Helvetica,sans-Serif" font-size="10.00" fill="#000000">::MaterialPart</text>
</a>
</g>
</g>
<!-- Node8&#45;&gt;Node26 -->
<g id="edge31" class="edge">
<title>Node8&#45;&gt;Node26</title>
<path fill="none" stroke="#9a32cd" stroke-dasharray="5,2" d="M51.7431,-304.1379C57.3039,-245.8942 76.7316,-77.5849 118,-45 138.4899,-28.8215 203.8044,-31.2588 254.38,-36.051"/>
<polygon fill="#9a32cd" stroke="#9a32cd" points="48.244,-303.9678 50.8134,-314.2463 55.2146,-304.6089 48.244,-303.9678"/>
<text text-anchor="middle" x="174.5" y="-103" font-family="Helvetica,sans-Serif" font-size="10.00" fill="#000000"> normalInfo</text>
<text text-anchor="middle" x="174.5" y="-92" font-family="Helvetica,sans-Serif" font-size="10.00" fill="#000000">emissiveInfo</text>
<text text-anchor="middle" x="174.5" y="-81" font-family="Helvetica,sans-Serif" font-size="10.00" fill="#000000">baseColorInfo</text>
<text text-anchor="middle" x="174.5" y="-70" font-family="Helvetica,sans-Serif" font-size="10.00" fill="#000000">value</text>
<text text-anchor="middle" x="174.5" y="-59" font-family="Helvetica,sans-Serif" font-size="10.00" fill="#000000">metallicRoughnessInfo</text>
<text text-anchor="middle" x="174.5" y="-48" font-family="Helvetica,sans-Serif" font-size="10.00" fill="#000000">occlusionInfo</text>
</g>
<!-- Node9 -->
<g id="node6" class="node">
<title>Node9</title>
<polygon fill="none" stroke="#bfbfbf" points="3,-442.5 3,-461.5 97,-461.5 97,-442.5 3,-442.5"/>
<text text-anchor="middle" x="50" y="-449.5" font-family="Helvetica,sans-Serif" font-size="10.00" fill="#000000">anonymous:@5</text>
</g>
<!-- Node9&#45;&gt;Node7 -->
<g id="edge5" class="edge">
<title>Node9&#45;&gt;Node7</title>
<path fill="none" stroke="#9a32cd" stroke-dasharray="5,2" d="M107.2802,-451.7867C148.7327,-451.6323 204.9705,-451.4228 248.9948,-451.2589"/>
<polygon fill="#9a32cd" stroke="#9a32cd" points="107.0632,-448.2874 97.0764,-451.8247 107.0894,-455.2873 107.0632,-448.2874"/>
<text text-anchor="middle" x="174.5" y="-454" font-family="Helvetica,sans-Serif" font-size="10.00" fill="#000000"> @5</text>
</g>
<!-- Node10 -->
<g id="node7" class="node">
<title>Node10</title>
<polygon fill="none" stroke="#bfbfbf" points="296,-397.5 296,-416.5 341,-416.5 341,-397.5 296,-397.5"/>
<text text-anchor="middle" x="318.5" y="-404.5" font-family="Helvetica,sans-Serif" font-size="10.00" fill="#000000">string</text>
</g>
<!-- Node10&#45;&gt;Node6 -->
<g id="edge6" class="edge">
<title>Node10&#45;&gt;Node6</title>
<path fill="none" stroke="#9a32cd" stroke-dasharray="5,2" d="M351.1969,-410.4332C393.4805,-414.9902 469.3727,-423.5678 534,-433 545.1332,-434.6249 557.032,-436.5428 568.3545,-438.4544"/>
<polygon fill="#9a32cd" stroke="#9a32cd" points="351.514,-406.9472 341.1983,-409.3632 350.769,-413.9075 351.514,-406.9472"/>
<text text-anchor="middle" x="470" y="-436" font-family="Helvetica,sans-Serif" font-size="10.00" fill="#000000"> _name</text>
</g>
<!-- Node11&#45;&gt;Node5 -->
<g id="edge7" class="edge">
<title>Node11&#45;&gt;Node5</title>
<path fill="none" stroke="#191970" d="M542.2861,-385.1886C597.3736,-396.7912 675.2863,-410 744.5,-410 744.5,-410 744.5,-410 1793.5,-410 1896.4882,-410 1999.5422,-326.1554 2038.1176,-291.111"/>
<polygon fill="#191970" stroke="#191970" points="542.7841,-381.7159 532.2729,-383.0443 541.3183,-388.5608 542.7841,-381.7159"/>
</g>
<!-- Node12 -->
<g id="node9" class="node">
<title>Node12</title>
<g id="a_node9"><a xlink:href="structlug_1_1Graphics_1_1Render_1_1Material_1_1Constants.html" target="_top" xlink:title="lug::Graphics::Render\l::Material::Constants">
<polygon fill="none" stroke="#000000" points="1729.5,-297 1729.5,-327 1857.5,-327 1857.5,-297 1729.5,-297"/>
<text text-anchor="start" x="1737.5" y="-315" font-family="Helvetica,sans-Serif" font-size="10.00" fill="#000000">lug::Graphics::Render</text>
<text text-anchor="middle" x="1793.5" y="-304" font-family="Helvetica,sans-Serif" font-size="10.00" fill="#000000">::Material::Constants</text>
</a>
</g>
</g>
<!-- Node12&#45;&gt;Node5 -->
<g id="edge9" class="edge">
<title>Node12&#45;&gt;Node5</title>
<path fill="none" stroke="#9a32cd" stroke-dasharray="5,2" d="M1867.6766,-301.7491C1906.186,-296.4273 1952.7777,-289.9885 1989.7367,-284.8809"/>
<polygon fill="#9a32cd" stroke="#9a32cd" points="1866.9858,-298.3112 1857.5591,-303.1473 1867.9441,-305.2453 1866.9858,-298.3112"/>
<text text-anchor="middle" x="1930.5" y="-301" font-family="Helvetica,sans-Serif" font-size="10.00" fill="#000000"> _constants</text>
</g>
<!-- Node13 -->
<g id="node10" class="node">
<title>Node13</title>
<polygon fill="none" stroke="#bfbfbf" points="1467,-347.5 1467,-366.5 1506,-366.5 1506,-347.5 1467,-347.5"/>
<text text-anchor="middle" x="1486.5" y="-354.5" font-family="Helvetica,sans-Serif" font-size="10.00" fill="#000000">float</text>
</g>
<!-- Node13&#45;&gt;Node12 -->
<g id="edge10" class="edge">
<title>Node13&#45;&gt;Node12</title>
<path fill="none" stroke="#9a32cd" stroke-dasharray="5,2" d="M1516.1865,-353.493C1557.1607,-348.5562 1633.3221,-339.0329 1698,-329 1708.1513,-327.4253 1718.8872,-325.6359 1729.3526,-323.8234"/>
<polygon fill="#9a32cd" stroke="#9a32cd" points="1515.5909,-350.0392 1506.0782,-354.7037 1516.4235,-356.9896 1515.5909,-350.0392"/>
<text text-anchor="middle" x="1634.5" y="-382" font-family="Helvetica,sans-Serif" font-size="10.00" fill="#000000"> metallic</text>
<text text-anchor="middle" x="1634.5" y="-371" font-family="Helvetica,sans-Serif" font-size="10.00" fill="#000000">roughness</text>
<text text-anchor="middle" x="1634.5" y="-360" font-family="Helvetica,sans-Serif" font-size="10.00" fill="#000000">occlusionTextureStrength</text>
<text text-anchor="middle" x="1634.5" y="-349" font-family="Helvetica,sans-Serif" font-size="10.00" fill="#000000">normalTextureScale</text>
</g>
<!-- Node14 -->
<g id="node11" class="node">
<title>Node14</title>
<polygon fill="none" stroke="#bfbfbf" points="1464.5,-309.5 1464.5,-328.5 1508.5,-328.5 1508.5,-309.5 1464.5,-309.5"/>
<text text-anchor="middle" x="1486.5" y="-316.5" font-family="Helvetica,sans-Serif" font-size="10.00" fill="#000000">Vec3f</text>
</g>
<!-- Node14&#45;&gt;Node12 -->
<g id="edge11" class="edge">
<title>Node14&#45;&gt;Node12</title>
<path fill="none" stroke="#9a32cd" stroke-dasharray="5,2" d="M1518.7414,-318.2649C1568.4745,-317.1309 1664.876,-314.9328 1729.2275,-313.4655"/>
<polygon fill="#9a32cd" stroke="#9a32cd" points="1518.4963,-314.7694 1508.5787,-318.4966 1518.6559,-321.7676 1518.4963,-314.7694"/>
<text text-anchor="middle" x="1634.5" y="-319" font-family="Helvetica,sans-Serif" font-size="10.00" fill="#000000"> emissive</text>
</g>
<!-- Node15 -->
<g id="node12" class="node">
<title>Node15</title>
<polygon fill="none" stroke="#bfbfbf" points="1464.5,-271.5 1464.5,-290.5 1508.5,-290.5 1508.5,-271.5 1464.5,-271.5"/>
<text text-anchor="middle" x="1486.5" y="-278.5" font-family="Helvetica,sans-Serif" font-size="10.00" fill="#000000">Vec4f</text>
</g>
<!-- Node15&#45;&gt;Node12 -->
<g id="edge12" class="edge">
<title>Node15&#45;&gt;Node12</title>
<path fill="none" stroke="#9a32cd" stroke-dasharray="5,2" d="M1518.8373,-283.2433C1560.3695,-286.2411 1634.653,-291.9973 1698,-299 1708.1452,-300.1215 1718.8779,-301.4466 1729.342,-302.8147"/>
<polygon fill="#9a32cd" stroke="#9a32cd" points="1518.9885,-279.7452 1508.7646,-282.5241 1518.4899,-286.7275 1518.9885,-279.7452"/>
<text text-anchor="middle" x="1634.5" y="-302" font-family="Helvetica,sans-Serif" font-size="10.00" fill="#000000"> baseColor</text>
</g>
<!-- Node16 -->
<g id="node13" class="node">
<title>Node16</title>
<g id="a_node13"><a xlink:href="classlug_1_1Graphics_1_1Resource_1_1SharedPtr.html" target="_top" xlink:title="lug::Graphics::Resource\l::SharedPtr\&lt; lug::Graphics\l::Render::SkyBox \&gt;">
<polygon fill="none" stroke="#000000" points="1716,-218.5 1716,-259.5 1871,-259.5 1871,-218.5 1716,-218.5"/>
<text text-anchor="start" x="1724" y="-247.5" font-family="Helvetica,sans-Serif" font-size="10.00" fill="#000000">lug::Graphics::Resource</text>
<text text-anchor="start" x="1724" y="-236.5" font-family="Helvetica,sans-Serif" font-size="10.00" fill="#000000">::SharedPtr&lt; lug::Graphics</text>
<text text-anchor="middle" x="1793.5" y="-225.5" font-family="Helvetica,sans-Serif" font-size="10.00" fill="#000000">::Render::SkyBox &gt;</text>
</a>
</g>
</g>
<!-- Node16&#45;&gt;Node5 -->
<g id="edge13" class="edge">
<title>Node16&#45;&gt;Node5</title>
<path fill="none" stroke="#9a32cd" stroke-dasharray="5,2" d="M1881.464,-248.8085C1910.3562,-252.3056 1942.5956,-256.5024 1972,-261 1977.7224,-261.8753 1983.6585,-262.8432 1989.6018,-263.8535"/>
<polygon fill="#9a32cd" stroke="#9a32cd" points="1881.7398,-245.3166 1871.3942,-247.6014 1880.9065,-252.2668 1881.7398,-245.3166"/>
<text text-anchor="middle" x="1930.5" y="-275" font-family="Helvetica,sans-Serif" font-size="10.00" fill="#000000"> _prefilteredMap</text>
<text text-anchor="middle" x="1930.5" y="-264" font-family="Helvetica,sans-Serif" font-size="10.00" fill="#000000">_irradianceMap</text>
</g>
<!-- Node17&#45;&gt;Node16 -->
<g id="edge14" class="edge">
<title>Node17&#45;&gt;Node16</title>
<path fill="none" stroke="#9a32cd" stroke-dasharray="5,2" d="M1560.959,-237.4851C1607.8921,-237.7908 1668.3825,-238.1849 1715.9031,-238.4945"/>
<polygon fill="#9a32cd" stroke="#9a32cd" points="1560.8799,-233.9846 1550.8573,-237.4193 1560.8342,-240.9844 1560.8799,-233.9846"/>
<text text-anchor="middle" x="1634.5" y="-242" font-family="Helvetica,sans-Serif" font-size="10.00" fill="#000000"> _resource</text>
</g>
<!-- Node18 -->
<g id="node15" class="node">
<title>Node18</title>
<g id="a_node15"><a xlink:href="classlug_1_1Graphics_1_1Resource_1_1SharedPtr.html" target="_top" xlink:title="lug::Graphics::Resource\l::SharedPtr\&lt; lug::Graphics\l::Render::Texture \&gt;">
<polygon fill="none" stroke="#000000" points="1101,-220.5 1101,-261.5 1256,-261.5 1256,-220.5 1101,-220.5"/>
<text text-anchor="start" x="1109" y="-249.5" font-family="Helvetica,sans-Serif" font-size="10.00" fill="#000000">lug::Graphics::Resource</text>
<text text-anchor="start" x="1109" y="-238.5" font-family="Helvetica,sans-Serif" font-size="10.00" fill="#000000">::SharedPtr&lt; lug::Graphics</text>
<text text-anchor="middle" x="1178.5" y="-227.5" font-family="Helvetica,sans-Serif" font-size="10.00" fill="#000000">::Render::Texture &gt;</text>
</a>
</g>
</g>
<!-- Node18&#45;&gt;Node17 -->
<g id="edge16" class="edge">
<title>Node18&#45;&gt;Node17</title>
<path fill="none" stroke="#9a32cd" stroke-dasharray="5,2" d="M1266.3249,-239.8594C1316.0353,-239.2138 1377.1055,-238.4207 1422.308,-237.8337"/>
<polygon fill="#9a32cd" stroke="#9a32cd" points="1266.1751,-236.361 1256.2214,-239.9906 1266.266,-243.3604 1266.1751,-236.361"/>
<text text-anchor="middle" x="1338" y="-254" font-family="Helvetica,sans-Serif" font-size="10.00" fill="#000000"> _backgroundTexture</text>
<text text-anchor="middle" x="1338" y="-243" font-family="Helvetica,sans-Serif" font-size="10.00" fill="#000000">_environnementTexture</text>
</g>
<!-- Node18&#45;&gt;Node25 -->
<g id="edge27" class="edge">
<title>Node18&#45;&gt;Node25</title>
<path fill="none" stroke="#9a32cd" stroke-dasharray="5,2" d="M1202.2041,-212.7695C1219.8636,-193.9195 1245.727,-170.5438 1274,-159 1320.2094,-140.1329 1376.7767,-137.2714 1419.9272,-138.7814"/>
<polygon fill="#9a32cd" stroke="#9a32cd" points="1199.5292,-210.5087 1195.3872,-220.2604 1204.7064,-215.2201 1199.5292,-210.5087"/>
<text text-anchor="middle" x="1338" y="-162" font-family="Helvetica,sans-Serif" font-size="10.00" fill="#000000"> texture</text>
</g>
<!-- Node19&#45;&gt;Node18 -->
<g id="edge17" class="edge">
<title>Node19&#45;&gt;Node18</title>
<path fill="none" stroke="#9a32cd" stroke-dasharray="5,2" d="M941.8007,-276.0761C983.401,-271.3787 1036.1714,-264.9873 1083,-258 1088.8296,-257.1302 1094.8503,-256.1804 1100.9008,-255.1888"/>
<polygon fill="#9a32cd" stroke="#9a32cd" points="941.2958,-272.6106 931.7479,-277.2028 942.0756,-279.5671 941.2958,-272.6106"/>
<text text-anchor="middle" x="1019" y="-278" font-family="Helvetica,sans-Serif" font-size="10.00" fill="#000000"> _resource</text>
</g>
<!-- Node20 -->
<g id="node17" class="node">
<title>Node20</title>
<polygon fill="none" stroke="#bfbfbf" points="595.5,-276.5 595.5,-295.5 647.5,-295.5 647.5,-276.5 595.5,-276.5"/>
<text text-anchor="middle" x="621.5" y="-283.5" font-family="Helvetica,sans-Serif" font-size="10.00" fill="#000000">Format</text>
</g>
<!-- Node20&#45;&gt;Node19 -->
<g id="edge19" class="edge">
<title>Node20&#45;&gt;Node19</title>
<path fill="none" stroke="#9a32cd" stroke-dasharray="5,2" d="M657.9777,-285.7034C696.2018,-285.3927 757.0128,-284.8983 803.2981,-284.522"/>
<polygon fill="#9a32cd" stroke="#9a32cd" points="657.7975,-282.2047 647.8263,-285.786 657.8545,-289.2045 657.7975,-282.2047"/>
<text text-anchor="middle" x="744.5" y="-288" font-family="Helvetica,sans-Serif" font-size="10.00" fill="#000000"> _format</text>
</g>
<!-- Node21 -->
<g id="node18" class="node">
<title>Node21</title>
<polygon fill="none" stroke="#bfbfbf" points="600.5,-232.5 600.5,-251.5 642.5,-251.5 642.5,-232.5 600.5,-232.5"/>
<text text-anchor="middle" x="621.5" y="-239.5" font-family="Helvetica,sans-Serif" font-size="10.00" fill="#000000">Filter</text>
</g>
<!-- Node21&#45;&gt;Node19 -->
<g id="edge21" class="edge">
<title>Node21&#45;&gt;Node19</title>
<path fill="none" stroke="#9a32cd" stroke-dasharray="5,2" d="M652.7323,-239.6419C685.0026,-237.9799 736.6306,-237.4931 780,-247 800.6218,-251.5205 822.4968,-260.7705 839.2163,-268.8903"/>
<polygon fill="#9a32cd" stroke="#9a32cd" points="652.3483,-236.1583 642.5704,-240.2379 652.7582,-243.1463 652.3483,-236.1583"/>
<text text-anchor="middle" x="744.5" y="-272" font-family="Helvetica,sans-Serif" font-size="10.00" fill="#000000"> _magFilter</text>
<text text-anchor="middle" x="744.5" y="-261" font-family="Helvetica,sans-Serif" font-size="10.00" fill="#000000">_mipMapFilter</text>
<text text-anchor="middle" x="744.5" y="-250" font-family="Helvetica,sans-Serif" font-size="10.00" fill="#000000">_minFilter</text>
</g>
<!-- Node22 -->
<g id="node19" class="node">
<title>Node22</title>
<polygon fill="none" stroke="#bfbfbf" points="576.5,-191.5 576.5,-210.5 666.5,-210.5 666.5,-191.5 576.5,-191.5"/>
<text text-anchor="middle" x="621.5" y="-198.5" font-family="Helvetica,sans-Serif" font-size="10.00" fill="#000000">WrappingMode</text>
</g>
<!-- Node22&#45;&gt;Node19 -->
<g id="edge22" class="edge">
<title>Node22&#45;&gt;Node19</title>
<path fill="none" stroke="#9a32cd" stroke-dasharray="5,2" d="M677.0933,-197.7114C708.3499,-197.7658 747.4969,-201.0823 780,-214 810.1911,-225.9988 838.2281,-252.1316 854.0735,-268.8518"/>
<polygon fill="#9a32cd" stroke="#9a32cd" points="676.7831,-194.2141 666.8168,-197.8089 676.8495,-201.2138 676.7831,-194.2141"/>
<text text-anchor="middle" x="744.5" y="-228" font-family="Helvetica,sans-Serif" font-size="10.00" fill="#000000"> _wrapS</text>
<text text-anchor="middle" x="744.5" y="-217" font-family="Helvetica,sans-Serif" font-size="10.00" fill="#000000">_wrapT</text>
</g>
<!-- Node23 -->
<g id="node20" class="node">
<title>Node23</title>
<g id="a_node20"><a xlink:href="classlug_1_1Graphics_1_1Resource_1_1SharedPtr.html" target="_top" xlink:title="Dummy class for a shared pointer. ">
<polygon fill="none" stroke="#000000" points="798,-177 798,-207 937,-207 937,-177 798,-177"/>
<text text-anchor="start" x="806" y="-195" font-family="Helvetica,sans-Serif" font-size="10.00" fill="#000000">lug::Graphics::Resource</text>
<text text-anchor="middle" x="867.5" y="-184" font-family="Helvetica,sans-Serif" font-size="10.00" fill="#000000">::SharedPtr&lt; T &gt;</text>
</a>
</g>
</g>
<!-- Node23&#45;&gt;Node16 -->
<g id="edge25" class="edge">
<title>Node23&#45;&gt;Node16</title>
<path fill="none" stroke="#ffa500" stroke-dasharray="5,2" d="M947.2711,-192.1917C1075.2167,-192.9796 1334.1628,-196.5502 1553,-212 1607.5897,-215.854 1668.8874,-222.7757 1715.9359,-228.6457"/>
<polygon fill="#ffa500" stroke="#ffa500" points="947.1879,-188.6913 937.1679,-192.1336 947.1476,-195.6911 947.1879,-188.6913"/>
<text text-anchor="start" x="1274" y="-218" font-family="Helvetica,sans-Serif" font-size="10.00" fill="#000000"> &lt; lug::Graphics::Render</text>
<text text-anchor="middle" x="1338" y="-207" font-family="Helvetica,sans-Serif" font-size="10.00" fill="#000000">::SkyBox &gt;</text>
</g>
<!-- Node23&#45;&gt;Node18 -->
<g id="edge23" class="edge">
<title>Node23&#45;&gt;Node18</title>
<path fill="none" stroke="#ffa500" stroke-dasharray="5,2" d="M947.3147,-204.7816C949.9068,-205.1931 952.4738,-205.6001 955,-206 1003.4899,-213.6759 1057.913,-222.2005 1100.9142,-228.9148"/>
<polygon fill="#ffa500" stroke="#ffa500" points="947.6527,-201.2915 937.2271,-203.1777 946.5534,-208.2046 947.6527,-201.2915"/>
<text text-anchor="start" x="955" y="-240" font-family="Helvetica,sans-Serif" font-size="10.00" fill="#000000"> &lt; lug::Graphics::Render</text>
<text text-anchor="middle" x="1019" y="-229" font-family="Helvetica,sans-Serif" font-size="10.00" fill="#000000">::Texture &gt;</text>
</g>
<!-- Node24 -->
<g id="node21" class="node">
<title>Node24</title>
<polygon fill="none" stroke="#bfbfbf" points="607,-153.5 607,-172.5 636,-172.5 636,-153.5 607,-153.5"/>
<text text-anchor="middle" x="621.5" y="-160.5" font-family="Helvetica,sans-Serif" font-size="10.00" fill="#000000">T</text>
</g>
<!-- Node24&#45;&gt;Node23 -->
<g id="edge24" class="edge">
<title>Node24&#45;&gt;Node23</title>
<path fill="none" stroke="#9a32cd" stroke-dasharray="5,2" d="M646.0472,-160.8714C677.3607,-158.6771 733.0836,-156.5246 780,-164 796.3812,-166.6101 813.8935,-171.7206 828.9145,-176.8691"/>
<polygon fill="#9a32cd" stroke="#9a32cd" points="645.7488,-157.3839 636.0437,-161.6336 646.2807,-164.3637 645.7488,-157.3839"/>
<text text-anchor="middle" x="744.5" y="-167" font-family="Helvetica,sans-Serif" font-size="10.00" fill="#000000"> _resource</text>
</g>
<!-- Node25&#45;&gt;Node5 -->
<g id="edge26" class="edge">
<title>Node25&#45;&gt;Node5</title>
<path fill="none" stroke="#9a32cd" stroke-dasharray="5,2" d="M1563.6667,-134.4348C1642.8016,-126.4285 1768.4687,-121.6416 1871,-154 1940.5496,-175.9496 2008.1862,-233.0583 2038.0491,-260.6437"/>
<polygon fill="#9a32cd" stroke="#9a32cd" points="1562.8728,-130.9991 1553.2955,-135.5296 1563.6077,-137.9604 1562.8728,-130.9991"/>
<text text-anchor="middle" x="1793.5" y="-201" font-family="Helvetica,sans-Serif" font-size="10.00" fill="#000000"> _baseColorTexture</text>
<text text-anchor="middle" x="1793.5" y="-190" font-family="Helvetica,sans-Serif" font-size="10.00" fill="#000000">_normalTexture</text>
<text text-anchor="middle" x="1793.5" y="-179" font-family="Helvetica,sans-Serif" font-size="10.00" fill="#000000">_occlusionTexture</text>
<text text-anchor="middle" x="1793.5" y="-168" font-family="Helvetica,sans-Serif" font-size="10.00" fill="#000000">_emissiveTexture</text>
<text text-anchor="middle" x="1793.5" y="-157" font-family="Helvetica,sans-Serif" font-size="10.00" fill="#000000">_metallicRoughnessTexture</text>
</g>
<!-- Node26&#45;&gt;Node4 -->
<g id="edge29" class="edge">
<title>Node26&#45;&gt;Node4</title>
<path fill="none" stroke="#9a32cd" stroke-dasharray="5,2" d="M392.5123,-52.001C453.7991,-57.9352 543.2039,-65 621.5,-65 621.5,-65 621.5,-65 2054,-65 2087.3597,-65 2124.4241,-67.4852 2154.9128,-70.1936"/>
<polygon fill="#9a32cd" stroke="#9a32cd" points="392.8392,-48.5164 382.5449,-51.0219 392.1548,-55.4829 392.8392,-48.5164"/>
<text text-anchor="middle" x="1338" y="-68" font-family="Helvetica,sans-Serif" font-size="10.00" fill="#000000"> _pipelineIdMaterialPart</text>
</g>
<!-- Node27 -->
<g id="node24" class="node">
<title>Node27</title>
<polygon fill="none" stroke="#bfbfbf" points="0,-.5 0,-19.5 100,-19.5 100,-.5 0,-.5"/>
<text text-anchor="middle" x="50" y="-7.5" font-family="Helvetica,sans-Serif" font-size="10.00" fill="#000000">anonymous:@15</text>
</g>
<!-- Node27&#45;&gt;Node26 -->
<g id="edge30" class="edge">
<title>Node27&#45;&gt;Node26</title>
<path fill="none" stroke="#9a32cd" stroke-dasharray="5,2" d="M110.5621,-5.02C145.9646,-3.4256 191.3468,-3.6578 231,-11 245.0484,-13.6012 259.7779,-18.3135 273.0602,-23.3781"/>
<polygon fill="#9a32cd" stroke="#9a32cd" points="110.1931,-1.5342 100.3849,-5.5404 110.5506,-8.525 110.1931,-1.5342"/>
<text text-anchor="middle" x="174.5" y="-14" font-family="Helvetica,sans-Serif" font-size="10.00" fill="#000000"> @15</text>
</g>
</g>
</svg>
        <g id="navigator" transform="translate(0 0)" fill="#404254">
                <rect fill="#f2f5e9" fill-opacity="0.5" stroke="#606060" stroke-width=".5" x="0" y="0" width="60" height="60"/>
                <use id="zoomplus" xlink:href="#zoomPlus" x="17" y="9" onmousedown="handleZoom(evt,'in')"/>
                <use id="zoomminus" xlink:href="#zoomMin" x="42" y="9" onmousedown="handleZoom(evt,'out')"/>
                <use id="reset" xlink:href="#resetDef" x="30" y="36" onmousedown="handleReset()"/>
                <g id="arrowUp" xlink:href="#dirArrow" transform="translate(30 24)" onmousedown="handlePan(0,-1)">
                  <use xlink:href="#rim" fill="#404040">
                        <set attributeName="fill" to="#808080" begin="arrowUp.mouseover" end="arrowUp.mouseout"/>
                  </use>
                  <path fill="none" stroke="white" stroke-width="1.5" d="M0,-3.0v7 M-2.5,-0.5L0,-3.0L2.5,-0.5"/>
                </g>
                <g id="arrowRight" xlink:href="#dirArrow" transform="rotate(90) translate(36 -43)" onmousedown="handlePan(1,0)">
                  <use xlink:href="#rim" fill="#404040">
                        <set attributeName="fill" to="#808080" begin="arrowRight.mouseover" end="arrowRight.mouseout"/>
                  </use>
                  <path fill="none" stroke="white" stroke-width="1.5" d="M0,-3.0v7 M-2.5,-0.5L0,-3.0L2.5,-0.5"/>
                </g>
                <g id="arrowDown" xlink:href="#dirArrow" transform="rotate(180) translate(-30 -48)" onmousedown="handlePan(0,1)">
                  <use xlink:href="#rim" fill="#404040">
                        <set attributeName="fill" to="#808080" begin="arrowDown.mouseover" end="arrowDown.mouseout"/>
                  </use>
                  <path fill="none" stroke="white" stroke-width="1.5" d="M0,-3.0v7 M-2.5,-0.5L0,-3.0L2.5,-0.5"/>
                </g>
                <g id="arrowLeft" xlink:href="#dirArrow" transform="rotate(270) translate(-36 17)" onmousedown="handlePan(-1,0)">
                  <use xlink:href="#rim" fill="#404040">
                        <set attributeName="fill" to="#808080" begin="arrowLeft.mouseover" end="arrowLeft.mouseout"/>
                  </use>
                  <path fill="none" stroke="white" stroke-width="1.5" d="M0,-3.0v7 M-2.5,-0.5L0,-3.0L2.5,-0.5"/>
                </g>
        </g>
        <svg viewBox="0 0 15 15" width="100%" height="30px" preserveAspectRatio="xMaxYMin meet">
         <g id="arrow_out" transform="scale(0.3 0.3)">
          <a xlink:href="classlug_1_1Graphics_1_1Vulkan_1_1Render_1_1Material__coll__graph_org.svg" target="_base">
           <rect id="button" ry="5" rx="5" y="6" x="6" height="38" width="38"
                fill="#f2f5e9" fill-opacity="0.5" stroke="#606060" stroke-width="1.0"/>
           <path id="arrow"
             d="M 11.500037,31.436501 C 11.940474,20.09759 22.043105,11.32322 32.158766,21.979434 L 37.068811,17.246167 C 37.068811,17.246167 37.088388,32 37.088388,32 L 22.160133,31.978069 C 22.160133,31.978069 26.997745,27.140456 26.997745,27.140456 C 18.528582,18.264221 13.291696,25.230495 11.500037,31.436501 z"
             style="fill:#404040;"/>
          </a>
         </g>
        </svg>
</svg>
