<?xml version="1.0" encoding="UTF-8" standalone="no"?>
<!DOCTYPE svg PUBLIC "-//W3C//DTD SVG 1.1//EN"
 "http://www.w3.org/Graphics/SVG/1.1/DTD/svg11.dtd">
<!-- Generated by graphviz version 2.40.1 (20161225.0304)
 -->
<!-- Title: lug::Graphics::ResourceManager Pages: 1 -->
<!--zoomable 399 -->
<svg id="main" version="1.1" xmlns="http://www.w3.org/2000/svg" xmlns:xlink="http://www.w3.org/1999/xlink" xml:space="preserve" onload="init(evt)">
<style type="text/css"><![CDATA[
.edge:hover path { stroke: red; }
.edge:hover polygon { stroke: red; fill: red; }
]]></style>
<script type="text/javascript"><![CDATA[
var edges = document.getElementsByTagName('g');
if (edges && edges.length) {
  for (var i=0;i<edges.length;i++) {
    if (edges[i].id.substr(0,4)=='edge') {
      edges[i].setAttribute('class','edge');
    }
  }
}
]]></script>
        <defs>
                <circle id="rim" cx="0" cy="0" r="7"/>
                <circle id="rim2" cx="0" cy="0" r="3.5"/>
                <g id="zoomPlus">
                        <use xlink:href="#rim" fill="#404040">
                                <set attributeName="fill" to="#808080" begin="zoomplus.mouseover" end="zoomplus.mouseout"/>
                        </use>
                        <path d="M-4,0h8M0,-4v8" fill="none" stroke="white" stroke-width="1.5" pointer-events="none"/>
                </g>
                <g id="zoomMin">
                        <use xlink:href="#rim" fill="#404040">
                                <set attributeName="fill" to="#808080" begin="zoomminus.mouseover" end="zoomminus.mouseout"/>
                        </use>
                        <path d="M-4,0h8" fill="none" stroke="white" stroke-width="1.5" pointer-events="none"/>
                </g>
                <g id="dirArrow">
                        <path fill="none" stroke="white" stroke-width="1.5" d="M0,-3.0v7 M-2.5,-0.5L0,-3.0L2.5,-0.5"/>
                </g>
               <g id="resetDef">
                       <use xlink:href="#rim2" fill="#404040">
                               <set attributeName="fill" to="#808080" begin="reset.mouseover" end="reset.mouseout"/>
                       </use>
               </g>
        </defs>

<script type="text/javascript">
var viewWidth = 1479;
var viewHeight = 399;
var sectionId = 'dynsection-0';
</script>
<script xlink:href="svgpan.js"/>
<svg id="graph" class="graph">
<g id="viewport">
<title>lug::Graphics::ResourceManager</title>
<!-- Node1 -->
<g id="node1" class="node">
<title>Node1</title>
<polygon fill="#bfbfbf" stroke="#000000" points="1289,-264 1289,-283 1471,-283 1471,-264 1289,-264"/>
<text text-anchor="middle" x="1380" y="-271" font-family="Helvetica,sans-Serif" font-size="10.00" fill="#000000">lug::Graphics::ResourceManager</text>
</g>
<!-- Node2 -->
<g id="node2" class="node">
<title>Node2</title>
<polygon fill="none" stroke="#bfbfbf" points="1044,-327 1044,-368 1161,-368 1161,-327 1044,-327"/>
<text text-anchor="start" x="1052" y="-356" font-family="Helvetica,sans-Serif" font-size="10.00" fill="#000000">vector&lt; std::unique</text>
<text text-anchor="start" x="1052" y="-345" font-family="Helvetica,sans-Serif" font-size="10.00" fill="#000000">_ptr&lt; lug::Graphics</text>
<text text-anchor="middle" x="1102.5" y="-334" font-family="Helvetica,sans-Serif" font-size="10.00" fill="#000000">::Resource &gt; &gt;</text>
</g>
<!-- Node2&#45;&gt;Node1 -->
<g id="edge1" class="edge">
<title>Node2&#45;&gt;Node1</title>
<path fill="none" stroke="#9a32cd" stroke-dasharray="5,2" d="M1170.9937,-329.235C1225.7538,-314.6323 1300.3473,-294.7407 1344.0217,-283.0942"/>
<polygon fill="#9a32cd" stroke="#9a32cd" points="1169.772,-325.9384 1161.0115,-331.8969 1171.5757,-332.7021 1169.772,-325.9384"/>
<text text-anchor="middle" x="1241.5" y="-319.5" font-family="Helvetica,sans-Serif" font-size="10.00" fill="#000000"> _resources</text>
</g>
<!-- Node3 -->
<g id="node3" class="node">
<title>Node3</title>
<polygon fill="none" stroke="#bfbfbf" points="1078.5,-289 1078.5,-308 1126.5,-308 1126.5,-289 1078.5,-289"/>
<text text-anchor="middle" x="1102.5" y="-296" font-family="Helvetica,sans-Serif" font-size="10.00" fill="#000000">mutex</text>
</g>
<!-- Node3&#45;&gt;Node1 -->
<g id="edge2" class="edge">
<title>Node3&#45;&gt;Node1</title>
<path fill="none" stroke="#9a32cd" stroke-dasharray="5,2" d="M1137.0837,-295.3843C1174.8548,-291.9815 1236.8966,-286.3922 1288.8239,-281.7141"/>
<polygon fill="#9a32cd" stroke="#9a32cd" points="1136.2865,-291.9419 1126.6409,-296.3251 1136.9146,-298.9137 1136.2865,-291.9419"/>
<text text-anchor="middle" x="1241.5" y="-290.5" font-family="Helvetica,sans-Serif" font-size="10.00" fill="#000000"> _mutex</text>
</g>
<!-- Node4 -->
<g id="node4" class="node">
<title>Node4</title>
<polygon fill="none" stroke="#bfbfbf" points="1011,-229 1011,-270 1194,-270 1194,-229 1011,-229"/>
<text text-anchor="start" x="1019" y="-258" font-family="Helvetica,sans-Serif" font-size="10.00" fill="#000000">unordered_map&lt; std</text>
<text text-anchor="start" x="1019" y="-247" font-family="Helvetica,sans-Serif" font-size="10.00" fill="#000000">::string, std::unique</text>
<text text-anchor="middle" x="1102.5" y="-236" font-family="Helvetica,sans-Serif" font-size="10.00" fill="#000000">_ptr&lt; lug::Graphics::Loader &gt; &gt;</text>
</g>
<!-- Node4&#45;&gt;Node1 -->
<g id="edge3" class="edge">
<title>Node4&#45;&gt;Node1</title>
<path fill="none" stroke="#9a32cd" stroke-dasharray="5,2" d="M1204.245,-258.2996C1231.9778,-260.6981 1261.8385,-263.2806 1288.9365,-265.6242"/>
<polygon fill="#9a32cd" stroke="#9a32cd" points="1204.3974,-254.7998 1194.1329,-257.425 1203.7941,-261.7737 1204.3974,-254.7998"/>
<text text-anchor="middle" x="1241.5" y="-266.5" font-family="Helvetica,sans-Serif" font-size="10.00" fill="#000000"> _loaders</text>
</g>
<!-- Node5 -->
<g id="node5" class="node">
<title>Node5</title>
<g id="a_node5"><a xlink:href="classlug_1_1Graphics_1_1Renderer.html" target="_top" xlink:title="lug::Graphics::Renderer">
<polygon fill="none" stroke="#000000" points="1033,-191 1033,-210 1172,-210 1172,-191 1033,-191"/>
<text text-anchor="middle" x="1102.5" y="-198" font-family="Helvetica,sans-Serif" font-size="10.00" fill="#000000">lug::Graphics::Renderer</text>
</a>
</g>
</g>
<!-- Node5&#45;&gt;Node1 -->
<g id="edge4" class="edge">
<title>Node5&#45;&gt;Node1</title>
<path fill="none" stroke="#9a32cd" stroke-dasharray="5,2" d="M1162.1237,-212.1807C1172.7718,-214.4657 1183.7386,-216.9492 1194,-219.5 1249.4742,-233.2901 1313.2938,-252.5781 1349.9122,-263.981"/>
<polygon fill="#9a32cd" stroke="#9a32cd" points="1162.553,-208.6943 1152.0459,-210.0549 1161.1082,-215.5435 1162.553,-208.6943"/>
<text text-anchor="middle" x="1241.5" y="-241.5" font-family="Helvetica,sans-Serif" font-size="10.00" fill="#000000"> _renderer</text>
</g>
<!-- Node6 -->
<g id="node6" class="node">
<title>Node6</title>
<polygon fill="none" stroke="#bfbfbf" points="0,-354 0,-373 80,-373 80,-354 0,-354"/>
<text text-anchor="middle" x="40" y="-361" font-family="Helvetica,sans-Serif" font-size="10.00" fill="#000000">DisplayMode</text>
</g>
<!-- Node6&#45;&gt;Node5 -->
<g id="edge5" class="edge">
<title>Node6&#45;&gt;Node5</title>
<path fill="none" stroke="#9a32cd" stroke-dasharray="5,2" d="M89.9905,-368.9124C137.2243,-373.5548 210.0919,-379.5 273.5,-379.5 273.5,-379.5 273.5,-379.5 803.5,-379.5 906.9088,-379.5 919.6955,-317.4372 993,-244.5 1002.7056,-234.843 999.5158,-226.9546 1011,-219.5 1017.6682,-215.1715 1025.136,-211.8039 1032.8529,-209.188"/>
<polygon fill="#9a32cd" stroke="#9a32cd" points="90.32,-365.428 80.0211,-367.9144 89.6227,-372.3932 90.32,-365.428"/>
<text text-anchor="middle" x="552.5" y="-382.5" font-family="Helvetica,sans-Serif" font-size="10.00" fill="#000000"> _displayMode</text>
</g>
<!-- Node7 -->
<g id="node7" class="node">
<title>Node7</title>
<g id="a_node7"><a xlink:href="structlug_1_1Graphics_1_1Renderer_1_1InitInfo.html" target="_top" xlink:title="lug::Graphics::Renderer\l::InitInfo">
<polygon fill="none" stroke="#000000" points="204,-260.5 204,-290.5 343,-290.5 343,-260.5 204,-260.5"/>
<text text-anchor="start" x="212" y="-278.5" font-family="Helvetica,sans-Serif" font-size="10.00" fill="#000000">lug::Graphics::Renderer</text>
<text text-anchor="middle" x="273.5" y="-267.5" font-family="Helvetica,sans-Serif" font-size="10.00" fill="#000000">::InitInfo</text>
</a>
</g>
</g>
<!-- Node6&#45;&gt;Node7 -->
<g id="edge7" class="edge">
<title>Node6&#45;&gt;Node7</title>
<path fill="none" stroke="#9a32cd" stroke-dasharray="5,2" d="M75.0469,-350.2917C117.4506,-334.3109 188.6885,-307.4632 233.2873,-290.6551"/>
<polygon fill="#9a32cd" stroke="#9a32cd" points="73.5563,-347.1131 65.4331,-353.9149 76.0249,-353.6634 73.5563,-347.1131"/>
<text text-anchor="middle" x="142" y="-342.5" font-family="Helvetica,sans-Serif" font-size="10.00" fill="#000000"> displayMode</text>
</g>
<!-- Node7&#45;&gt;Node5 -->
<g id="edge6" class="edge">
<title>Node7&#45;&gt;Node5</title>
<path fill="none" stroke="#9a32cd" stroke-dasharray="5,2" d="M353.3639,-278.7168C425.1031,-280.7876 533.2597,-281.884 627,-274.5 785.8715,-261.9856 971.9846,-227.0358 1056.5376,-210.0326"/>
<polygon fill="#9a32cd" stroke="#9a32cd" points="353.1509,-275.2089 343.0497,-278.4051 352.9394,-282.2057 353.1509,-275.2089"/>
<text text-anchor="middle" x="678" y="-275.5" font-family="Helvetica,sans-Serif" font-size="10.00" fill="#000000"> _initInfo</text>
</g>
<!-- Node13 -->
<g id="node13" class="node">
<title>Node13</title>
<g id="a_node13"><a xlink:href="structlug_1_1Graphics_1_1Graphics_1_1InitInfo.html" target="_top" xlink:title="Utility structure used to initialize the Graphics component. ">
<polygon fill="none" stroke="#000000" points="484,-185.5 484,-215.5 621,-215.5 621,-185.5 484,-185.5"/>
<text text-anchor="start" x="492" y="-203.5" font-family="Helvetica,sans-Serif" font-size="10.00" fill="#000000">lug::Graphics::Graphics</text>
<text text-anchor="middle" x="552.5" y="-192.5" font-family="Helvetica,sans-Serif" font-size="10.00" fill="#000000">::InitInfo</text>
</a>
</g>
</g>
<!-- Node7&#45;&gt;Node13 -->
<g id="edge14" class="edge">
<title>Node7&#45;&gt;Node13</title>
<path fill="none" stroke="#9a32cd" stroke-dasharray="5,2" d="M346.2953,-257.9979C380.8498,-249.4748 422.6596,-238.8504 460,-228.5 474.3904,-224.5111 489.9549,-219.9115 504.138,-215.608"/>
<polygon fill="#9a32cd" stroke="#9a32cd" points="345.1613,-254.6724 336.2858,-260.4582 346.8322,-261.47 345.1613,-254.6724"/>
<text text-anchor="middle" x="410.5" y="-256.5" font-family="Helvetica,sans-Serif" font-size="10.00" fill="#000000"> rendererInitInfo</text>
</g>
<!-- Node8 -->
<g id="node8" class="node">
<title>Node8</title>
<polygon fill="none" stroke="#bfbfbf" points="17.5,-282 17.5,-301 62.5,-301 62.5,-282 17.5,-282"/>
<text text-anchor="middle" x="40" y="-289" font-family="Helvetica,sans-Serif" font-size="10.00" fill="#000000">string</text>
</g>
<!-- Node8&#45;&gt;Node7 -->
<g id="edge8" class="edge">
<title>Node8&#45;&gt;Node7</title>
<path fill="none" stroke="#9a32cd" stroke-dasharray="5,2" d="M72.3123,-281.6374C80.6056,-279.5235 89.5677,-277.5972 98,-276.5 132.5957,-271.9986 171.3526,-271.3238 203.6277,-271.9531"/>
<polygon fill="#9a32cd" stroke="#9a32cd" points="71.3455,-278.273 62.6084,-284.2658 73.1757,-285.0296 71.3455,-278.273"/>
<text text-anchor="middle" x="142" y="-279.5" font-family="Helvetica,sans-Serif" font-size="10.00" fill="#000000"> shadersRoot</text>
</g>
<!-- Node10 -->
<g id="node10" class="node">
<title>Node10</title>
<g id="a_node10"><a xlink:href="classlug_1_1Graphics_1_1Graphics.html" target="_top" xlink:title="Class for graphics. ">
<polygon fill="none" stroke="#000000" points="735,-191 735,-210 872,-210 872,-191 735,-191"/>
<text text-anchor="middle" x="803.5" y="-198" font-family="Helvetica,sans-Serif" font-size="10.00" fill="#000000">lug::Graphics::Graphics</text>
</a>
</g>
</g>
<!-- Node8&#45;&gt;Node10 -->
<g id="edge17" class="edge">
<title>Node8&#45;&gt;Node10</title>
<path fill="none" stroke="#9a32cd" stroke-dasharray="5,2" d="M62.759,-306.4833C73.0685,-312.4047 85.6869,-318.5041 98,-321.5 136.0024,-330.7464 146.944,-323.5753 186,-321.5 382.8323,-311.0408 434.6108,-317.3807 627,-274.5 688.2942,-260.8384 755.2866,-227.0146 786.1545,-210.2458"/>
<polygon fill="#9a32cd" stroke="#9a32cd" points="64.3823,-303.3746 54.0152,-301.1894 60.7568,-309.3626 64.3823,-303.3746"/>
<text text-anchor="middle" x="410.5" y="-315.5" font-family="Helvetica,sans-Serif" font-size="10.00" fill="#000000"> _appName</text>
</g>
<!-- Node9 -->
<g id="node9" class="node">
<title>Node9</title>
<polygon fill="none" stroke="#bfbfbf" points="19.5,-199 19.5,-218 60.5,-218 60.5,-199 19.5,-199"/>
<text text-anchor="middle" x="40" y="-206" font-family="Helvetica,sans-Serif" font-size="10.00" fill="#000000">Type</text>
</g>
<!-- Node9&#45;&gt;Node5 -->
<g id="edge20" class="edge">
<title>Node9&#45;&gt;Node5</title>
<path fill="none" stroke="#9a32cd" stroke-dasharray="5,2" d="M54.4124,-190.712C88.1872,-151.1828 176.9323,-59.5 273.5,-59.5 273.5,-59.5 273.5,-59.5 803.5,-59.5 926.8929,-59.5 1053.9202,-158.9526 1091.4436,-190.8085"/>
<polygon fill="#9a32cd" stroke="#9a32cd" points="51.4428,-188.8071 47.7128,-198.7237 56.8128,-193.2976 51.4428,-188.8071"/>
<text text-anchor="middle" x="552.5" y="-62.5" font-family="Helvetica,sans-Serif" font-size="10.00" fill="#000000"> _type</text>
</g>
<!-- Node9&#45;&gt;Node7 -->
<g id="edge9" class="edge">
<title>Node9&#45;&gt;Node7</title>
<path fill="none" stroke="#9a32cd" stroke-dasharray="5,2" d="M70.709,-217.3116C108.8453,-228.2543 174.5111,-247.0963 220.7682,-260.3692"/>
<polygon fill="#9a32cd" stroke="#9a32cd" points="71.2991,-213.8397 60.7216,-214.4458 69.3683,-220.5682 71.2991,-213.8397"/>
<text text-anchor="middle" x="142" y="-252.5" font-family="Helvetica,sans-Serif" font-size="10.00" fill="#000000"> renderTechnique</text>
</g>
<!-- Node9&#45;&gt;Node13 -->
<g id="edge16" class="edge">
<title>Node9&#45;&gt;Node13</title>
<path fill="none" stroke="#9a32cd" stroke-dasharray="5,2" d="M70.7338,-208.0203C151.4333,-206.7606 370.8858,-203.335 483.6231,-201.5752"/>
<polygon fill="#9a32cd" stroke="#9a32cd" points="70.6695,-204.5207 60.7254,-208.1765 70.7788,-211.5199 70.6695,-204.5207"/>
<text text-anchor="middle" x="273.5" y="-208.5" font-family="Helvetica,sans-Serif" font-size="10.00" fill="#000000"> rendererType</text>
</g>
<!-- Node10&#45;&gt;Node5 -->
<g id="edge10" class="edge">
<title>Node10&#45;&gt;Node5</title>
<path fill="none" stroke="#9a32cd" stroke-dasharray="5,2" d="M882.194,-200.5C928.9944,-200.5 987.8325,-200.5 1032.9275,-200.5"/>
<polygon fill="#9a32cd" stroke="#9a32cd" points="882.0967,-197.0001 872.0966,-200.5 882.0966,-204.0001 882.0967,-197.0001"/>
<text text-anchor="middle" x="944.5" y="-203.5" font-family="Helvetica,sans-Serif" font-size="10.00" fill="#000000"> _graphics</text>
</g>
<!-- Node11 -->
<g id="node11" class="node">
<title>Node11</title>
<g id="a_node11"><a xlink:href="structlug_1_1Core_1_1Version.html" target="_top" xlink:title="Stores the version of the Application. ">
<polygon fill="none" stroke="#000000" points="497.5,-89 497.5,-108 607.5,-108 607.5,-89 497.5,-89"/>
<text text-anchor="middle" x="552.5" y="-96" font-family="Helvetica,sans-Serif" font-size="10.00" fill="#000000">lug::Core::Version</text>
</a>
</g>
</g>
<!-- Node11&#45;&gt;Node10 -->
<g id="edge11" class="edge">
<title>Node11&#45;&gt;Node10</title>
<path fill="none" stroke="#9a32cd" stroke-dasharray="5,2" d="M618.0548,-98.657C647.5617,-100.841 682.1639,-106.433 711,-119.5 748.1357,-136.328 781.3487,-173.1346 795.8205,-190.7406"/>
<polygon fill="#9a32cd" stroke="#9a32cd" points="618.0468,-95.1498 607.8481,-98.02 617.6107,-102.1362 618.0468,-95.1498"/>
<text text-anchor="middle" x="678" y="-122.5" font-family="Helvetica,sans-Serif" font-size="10.00" fill="#000000"> _appVersion</text>
</g>
<!-- Node12 -->
<g id="node12" class="node">
<title>Node12</title>
<polygon fill="none" stroke="#bfbfbf" points="245,-88 245,-107 302,-107 302,-88 245,-88"/>
<text text-anchor="middle" x="273.5" y="-95" font-family="Helvetica,sans-Serif" font-size="10.00" fill="#000000">uint32_t</text>
</g>
<!-- Node12&#45;&gt;Node11 -->
<g id="edge12" class="edge">
<title>Node12&#45;&gt;Node11</title>
<path fill="none" stroke="#9a32cd" stroke-dasharray="5,2" d="M312.3089,-97.3779C350.0334,-97.288 408.9477,-97.224 460,-97.5 472.0448,-97.5651 484.9714,-97.6779 497.2294,-97.8048"/>
<polygon fill="#9a32cd" stroke="#9a32cd" points="312.2457,-93.8779 302.2548,-97.4036 312.2637,-100.8779 312.2457,-93.8779"/>
<text text-anchor="middle" x="410.5" y="-122.5" font-family="Helvetica,sans-Serif" font-size="10.00" fill="#000000"> patch</text>
<text text-anchor="middle" x="410.5" y="-111.5" font-family="Helvetica,sans-Serif" font-size="10.00" fill="#000000">major</text>
<text text-anchor="middle" x="410.5" y="-100.5" font-family="Helvetica,sans-Serif" font-size="10.00" fill="#000000">minor</text>
</g>
<!-- Node13&#45;&gt;Node10 -->
<g id="edge13" class="edge">
<title>Node13&#45;&gt;Node10</title>
<path fill="none" stroke="#9a32cd" stroke-dasharray="5,2" d="M631.2374,-200.5C664.5148,-200.5 702.9108,-200.5 734.9961,-200.5"/>
<polygon fill="#9a32cd" stroke="#9a32cd" points="631.0869,-197.0001 621.0869,-200.5 631.0868,-204.0001 631.0869,-197.0001"/>
<text text-anchor="middle" x="678" y="-203.5" font-family="Helvetica,sans-Serif" font-size="10.00" fill="#000000"> _initInfo</text>
</g>
<!-- Node14 -->
<g id="node14" class="node">
<title>Node14</title>
<polygon fill="none" stroke="#bfbfbf" points="211.5,-144 211.5,-163 335.5,-163 335.5,-144 211.5,-144"/>
<text text-anchor="middle" x="273.5" y="-151" font-family="Helvetica,sans-Serif" font-size="10.00" fill="#000000">set&lt; Module::Type &gt;</text>
</g>
<!-- Node14&#45;&gt;Node10 -->
<g id="edge19" class="edge">
<title>Node14&#45;&gt;Node10</title>
<path fill="none" stroke="#9a32cd" stroke-dasharray="5,2" d="M346.0275,-148.3979C417.7327,-144.5993 530.4137,-141.9816 627,-154.5 680.6996,-161.4599 741.4111,-179.6462 775.8072,-190.9557"/>
<polygon fill="#9a32cd" stroke="#9a32cd" points="345.5439,-144.9191 335.7521,-148.9652 345.9299,-151.9085 345.5439,-144.9191"/>
<text text-anchor="middle" x="552.5" y="-168.5" font-family="Helvetica,sans-Serif" font-size="10.00" fill="#000000"> _loadedOptionalModules</text>
<text text-anchor="middle" x="552.5" y="-157.5" font-family="Helvetica,sans-Serif" font-size="10.00" fill="#000000">_loadedMandatoryModules</text>
</g>
<!-- Node14&#45;&gt;Node13 -->
<g id="edge15" class="edge">
<title>Node14&#45;&gt;Node13</title>
<path fill="none" stroke="#9a32cd" stroke-dasharray="5,2" d="M345.9484,-161.4978C380.5944,-165.7591 422.5798,-171.56 460,-178.5 470.7119,-180.4866 482.0488,-182.9112 492.9763,-185.4158"/>
<polygon fill="#9a32cd" stroke="#9a32cd" points="346.2631,-158.0104 335.9145,-160.2812 345.4205,-164.9595 346.2631,-158.0104"/>
<text text-anchor="middle" x="410.5" y="-192.5" font-family="Helvetica,sans-Serif" font-size="10.00" fill="#000000"> mandatoryModules</text>
<text text-anchor="middle" x="410.5" y="-181.5" font-family="Helvetica,sans-Serif" font-size="10.00" fill="#000000">optionalModules</text>
</g>
<!-- Node15 -->
<g id="node15" class="node">
<title>Node15</title>
<polygon fill="none" stroke="#bfbfbf" points="478,-234.5 478,-264.5 627,-264.5 627,-234.5 478,-234.5"/>
<text text-anchor="start" x="486" y="-252.5" font-family="Helvetica,sans-Serif" font-size="10.00" fill="#000000">unique_ptr&lt; lug::Graphics</text>
<text text-anchor="middle" x="552.5" y="-241.5" font-family="Helvetica,sans-Serif" font-size="10.00" fill="#000000">::Renderer &gt;</text>
</g>
<!-- Node15&#45;&gt;Node10 -->
<g id="edge18" class="edge">
<title>Node15&#45;&gt;Node10</title>
<path fill="none" stroke="#9a32cd" stroke-dasharray="5,2" d="M637.4292,-232.9202C676.4212,-225.3082 721.268,-216.5533 754.5216,-210.0615"/>
<polygon fill="#9a32cd" stroke="#9a32cd" points="636.2728,-229.5798 627.1287,-234.9311 637.6141,-236.4501 636.2728,-229.5798"/>
<text text-anchor="middle" x="678" y="-233.5" font-family="Helvetica,sans-Serif" font-size="10.00" fill="#000000"> _renderer</text>
</g>
<!-- Node16 -->
<g id="node16" class="node">
<title>Node16</title>
<polygon fill="none" stroke="#bfbfbf" points="729,-.5 729,-30.5 878,-30.5 878,-.5 729,-.5"/>
<text text-anchor="start" x="737" y="-18.5" font-family="Helvetica,sans-Serif" font-size="10.00" fill="#000000">unique_ptr&lt; lug::Graphics</text>
<text text-anchor="middle" x="803.5" y="-7.5" font-family="Helvetica,sans-Serif" font-size="10.00" fill="#000000">::ResourceManager &gt;</text>
</g>
<!-- Node16&#45;&gt;Node5 -->
<g id="edge21" class="edge">
<title>Node16&#45;&gt;Node5</title>
<path fill="none" stroke="#9a32cd" stroke-dasharray="5,2" d="M888.4763,-8.6487C923.0701,-9.6158 962.0969,-15.8157 993,-34.5 1055.6342,-72.3693 1089.6246,-161.3589 1099.4586,-190.8304"/>
<polygon fill="#9a32cd" stroke="#9a32cd" points="888.4211,-5.1477 878.3734,-8.5082 888.3238,-12.147 888.4211,-5.1477"/>
<text text-anchor="middle" x="944.5" y="-37.5" font-family="Helvetica,sans-Serif" font-size="10.00" fill="#000000"> _resourceManager</text>
</g>
</g>
</svg>
        <g id="navigator" transform="translate(0 0)" fill="#404254">
                <rect fill="#f2f5e9" fill-opacity="0.5" stroke="#606060" stroke-width=".5" x="0" y="0" width="60" height="60"/>
                <use id="zoomplus" xlink:href="#zoomPlus" x="17" y="9" onmousedown="handleZoom(evt,'in')"/>
                <use id="zoomminus" xlink:href="#zoomMin" x="42" y="9" onmousedown="handleZoom(evt,'out')"/>
                <use id="reset" xlink:href="#resetDef" x="30" y="36" onmousedown="handleReset()"/>
                <g id="arrowUp" xlink:href="#dirArrow" transform="translate(30 24)" onmousedown="handlePan(0,-1)">
                  <use xlink:href="#rim" fill="#404040">
                        <set attributeName="fill" to="#808080" begin="arrowUp.mouseover" end="arrowUp.mouseout"/>
                  </use>
                  <path fill="none" stroke="white" stroke-width="1.5" d="M0,-3.0v7 M-2.5,-0.5L0,-3.0L2.5,-0.5"/>
                </g>
                <g id="arrowRight" xlink:href="#dirArrow" transform="rotate(90) translate(36 -43)" onmousedown="handlePan(1,0)">
                  <use xlink:href="#rim" fill="#404040">
                        <set attributeName="fill" to="#808080" begin="arrowRight.mouseover" end="arrowRight.mouseout"/>
                  </use>
                  <path fill="none" stroke="white" stroke-width="1.5" d="M0,-3.0v7 M-2.5,-0.5L0,-3.0L2.5,-0.5"/>
                </g>
                <g id="arrowDown" xlink:href="#dirArrow" transform="rotate(180) translate(-30 -48)" onmousedown="handlePan(0,1)">
                  <use xlink:href="#rim" fill="#404040">
                        <set attributeName="fill" to="#808080" begin="arrowDown.mouseover" end="arrowDown.mouseout"/>
                  </use>
                  <path fill="none" stroke="white" stroke-width="1.5" d="M0,-3.0v7 M-2.5,-0.5L0,-3.0L2.5,-0.5"/>
                </g>
                <g id="arrowLeft" xlink:href="#dirArrow" transform="rotate(270) translate(-36 17)" onmousedown="handlePan(-1,0)">
                  <use xlink:href="#rim" fill="#404040">
                        <set attributeName="fill" to="#808080" begin="arrowLeft.mouseover" end="arrowLeft.mouseout"/>
                  </use>
                  <path fill="none" stroke="white" stroke-width="1.5" d="M0,-3.0v7 M-2.5,-0.5L0,-3.0L2.5,-0.5"/>
                </g>
        </g>
        <svg viewBox="0 0 15 15" width="100%" height="30px" preserveAspectRatio="xMaxYMin meet">
         <g id="arrow_out" transform="scale(0.3 0.3)">
          <a xlink:href="classlug_1_1Graphics_1_1ResourceManager__coll__graph_org.svg" target="_base">
           <rect id="button" ry="5" rx="5" y="6" x="6" height="38" width="38"
                fill="#f2f5e9" fill-opacity="0.5" stroke="#606060" stroke-width="1.0"/>
           <path id="arrow"
             d="M 11.500037,31.436501 C 11.940474,20.09759 22.043105,11.32322 32.158766,21.979434 L 37.068811,17.246167 C 37.068811,17.246167 37.088388,32 37.088388,32 L 22.160133,31.978069 C 22.160133,31.978069 26.997745,27.140456 26.997745,27.140456 C 18.528582,18.264221 13.291696,25.230495 11.500037,31.436501 z"
             style="fill:#404040;"/>
          </a>
         </g>
        </svg>
</svg>
