<?xml version="1.0" encoding="UTF-8" standalone="no"?>
<!DOCTYPE svg PUBLIC "-//W3C//DTD SVG 1.1//EN"
 "http://www.w3.org/Graphics/SVG/1.1/DTD/svg11.dtd">
<!-- Generated by graphviz version 2.40.1 (20161225.0304)
 -->
<!-- Title: lug::Graphics::Vulkan::API::Swapchain Pages: 1 -->
<!--zoomable 366 -->
<svg id="main" version="1.1" xmlns="http://www.w3.org/2000/svg" xmlns:xlink="http://www.w3.org/1999/xlink" xml:space="preserve" onload="init(evt)">
<style type="text/css"><![CDATA[
.edge:hover path { stroke: red; }
.edge:hover polygon { stroke: red; fill: red; }
]]></style>
<script type="text/javascript"><![CDATA[
var edges = document.getElementsByTagName('g');
if (edges && edges.length) {
  for (var i=0;i<edges.length;i++) {
    if (edges[i].id.substr(0,4)=='edge') {
      edges[i].setAttribute('class','edge');
    }
  }
}
]]></script>
        <defs>
                <circle id="rim" cx="0" cy="0" r="7"/>
                <circle id="rim2" cx="0" cy="0" r="3.5"/>
                <g id="zoomPlus">
                        <use xlink:href="#rim" fill="#404040">
                                <set attributeName="fill" to="#808080" begin="zoomplus.mouseover" end="zoomplus.mouseout"/>
                        </use>
                        <path d="M-4,0h8M0,-4v8" fill="none" stroke="white" stroke-width="1.5" pointer-events="none"/>
                </g>
                <g id="zoomMin">
                        <use xlink:href="#rim" fill="#404040">
                                <set attributeName="fill" to="#808080" begin="zoomminus.mouseover" end="zoomminus.mouseout"/>
                        </use>
                        <path d="M-4,0h8" fill="none" stroke="white" stroke-width="1.5" pointer-events="none"/>
                </g>
                <g id="dirArrow">
                        <path fill="none" stroke="white" stroke-width="1.5" d="M0,-3.0v7 M-2.5,-0.5L0,-3.0L2.5,-0.5"/>
                </g>
               <g id="resetDef">
                       <use xlink:href="#rim2" fill="#404040">
                               <set attributeName="fill" to="#808080" begin="reset.mouseover" end="reset.mouseout"/>
                       </use>
               </g>
        </defs>

<script type="text/javascript">
var viewWidth = 1308;
var viewHeight = 366;
var sectionId = 'dynsection-0';
</script>
<script xlink:href="svgpan.js"/>
<svg id="graph" class="graph">
<g id="viewport">
<title>lug::Graphics::Vulkan::API::Swapchain</title>
<!-- Node1 -->
<g id="node1" class="node">
<title>Node1</title>
<polygon fill="#bfbfbf" stroke="#000000" points="1173,-115 1173,-145 1300,-145 1300,-115 1173,-115"/>
<text text-anchor="start" x="1181" y="-133" font-family="Helvetica,sans-Serif" font-size="10.00" fill="#000000">lug::Graphics::Vulkan</text>
<text text-anchor="middle" x="1236.5" y="-122" font-family="Helvetica,sans-Serif" font-size="10.00" fill="#000000">::API::Swapchain</text>
</g>
<!-- Node2 -->
<g id="node2" class="node">
<title>Node2</title>
<polygon fill="none" stroke="#bfbfbf" points="906,-263 906,-293 1043,-293 1043,-263 906,-263"/>
<text text-anchor="start" x="914" y="-281" font-family="Helvetica,sans-Serif" font-size="10.00" fill="#000000">vector&lt; lug::Graphics</text>
<text text-anchor="middle" x="974.5" y="-270" font-family="Helvetica,sans-Serif" font-size="10.00" fill="#000000">::Vulkan::API::Image &gt;</text>
</g>
<!-- Node2&#45;&gt;Node1 -->
<g id="edge1" class="edge">
<title>Node2&#45;&gt;Node1</title>
<path fill="none" stroke="#9a32cd" stroke-dasharray="5,2" d="M1047.0258,-260.0095C1081.6435,-249.2669 1122.4983,-233.2957 1155,-211 1182.801,-191.9289 1209.4142,-162.7373 1224.292,-145.0987"/>
<polygon fill="#9a32cd" stroke="#9a32cd" points="1046.0022,-256.6625 1037.4394,-262.9018 1048.0242,-263.3641 1046.0022,-256.6625"/>
<text text-anchor="middle" x="1117" y="-251" font-family="Helvetica,sans-Serif" font-size="10.00" fill="#000000"> _images</text>
</g>
<!-- Node3 -->
<g id="node3" class="node">
<title>Node3</title>
<polygon fill="none" stroke="#bfbfbf" points="888,-202.5 888,-243.5 1061,-243.5 1061,-202.5 888,-202.5"/>
<text text-anchor="start" x="896" y="-231.5" font-family="Helvetica,sans-Serif" font-size="10.00" fill="#000000">vector&lt; std::unique</text>
<text text-anchor="start" x="896" y="-220.5" font-family="Helvetica,sans-Serif" font-size="10.00" fill="#000000">_ptr&lt; lug::Graphics</text>
<text text-anchor="middle" x="974.5" y="-209.5" font-family="Helvetica,sans-Serif" font-size="10.00" fill="#000000">::Vulkan::API::ImageView &gt; &gt;</text>
</g>
<!-- Node3&#45;&gt;Node1 -->
<g id="edge2" class="edge">
<title>Node3&#45;&gt;Node1</title>
<path fill="none" stroke="#9a32cd" stroke-dasharray="5,2" d="M1070.295,-199.7807C1098.004,-192.0362 1128.037,-182.6322 1155,-172 1174.1023,-164.4675 1194.6476,-153.8616 1210.3312,-145.1924"/>
<polygon fill="#9a32cd" stroke="#9a32cd" points="1069.3119,-196.4211 1060.5998,-202.4501 1071.1701,-203.1699 1069.3119,-196.4211"/>
<text text-anchor="middle" x="1117" y="-199" font-family="Helvetica,sans-Serif" font-size="10.00" fill="#000000"> _imagesViews</text>
</g>
<!-- Node4 -->
<g id="node4" class="node">
<title>Node4</title>
<polygon fill="none" stroke="#bfbfbf" points="955.5,-164.5 955.5,-183.5 993.5,-183.5 993.5,-164.5 955.5,-164.5"/>
<text text-anchor="middle" x="974.5" y="-171.5" font-family="Helvetica,sans-Serif" font-size="10.00" fill="#000000">bool</text>
</g>
<!-- Node4&#45;&gt;Node1 -->
<g id="edge3" class="edge">
<title>Node4&#45;&gt;Node1</title>
<path fill="none" stroke="#9a32cd" stroke-dasharray="5,2" d="M1003.9716,-169.4753C1039.7355,-163.936 1101.8525,-154.1591 1155,-145 1160.813,-143.9982 1166.8544,-142.9326 1172.9021,-141.8492"/>
<polygon fill="#9a32cd" stroke="#9a32cd" points="1003.1061,-166.0674 993.7576,-171.053 1004.1747,-172.9854 1003.1061,-166.0674"/>
<text text-anchor="middle" x="1117" y="-160" font-family="Helvetica,sans-Serif" font-size="10.00" fill="#000000"> _outOfDate</text>
</g>
<!-- Node5 -->
<g id="node5" class="node">
<title>Node5</title>
<g id="a_node5"><a xlink:href="classlug_1_1Graphics_1_1Vulkan_1_1API_1_1Device.html" target="_top" xlink:title="lug::Graphics::Vulkan\l::API::Device">
<polygon fill="none" stroke="#000000" points="911,-115 911,-145 1038,-145 1038,-115 911,-115"/>
<text text-anchor="start" x="919" y="-133" font-family="Helvetica,sans-Serif" font-size="10.00" fill="#000000">lug::Graphics::Vulkan</text>
<text text-anchor="middle" x="974.5" y="-122" font-family="Helvetica,sans-Serif" font-size="10.00" fill="#000000">::API::Device</text>
</a>
</g>
</g>
<!-- Node5&#45;&gt;Node1 -->
<g id="edge4" class="edge">
<title>Node5&#45;&gt;Node1</title>
<path fill="none" stroke="#9a32cd" stroke-dasharray="5,2" d="M1048.3007,-130C1087.5483,-130 1135.3196,-130 1172.9112,-130"/>
<polygon fill="#9a32cd" stroke="#9a32cd" points="1048.2574,-126.5001 1038.2574,-130 1048.2573,-133.5001 1048.2574,-126.5001"/>
<text text-anchor="middle" x="1117" y="-133" font-family="Helvetica,sans-Serif" font-size="10.00" fill="#000000"> _device</text>
</g>
<!-- Node6 -->
<g id="node6" class="node">
<title>Node6</title>
<g id="a_node6"><a xlink:href="structlug_1_1Graphics_1_1Vulkan_1_1PhysicalDeviceInfo.html" target="_top" xlink:title="lug::Graphics::Vulkan\l::PhysicalDeviceInfo">
<polygon fill="none" stroke="#000000" points="621,-139 621,-169 748,-169 748,-139 621,-139"/>
<text text-anchor="start" x="629" y="-157" font-family="Helvetica,sans-Serif" font-size="10.00" fill="#000000">lug::Graphics::Vulkan</text>
<text text-anchor="middle" x="684.5" y="-146" font-family="Helvetica,sans-Serif" font-size="10.00" fill="#000000">::PhysicalDeviceInfo</text>
</a>
</g>
</g>
<!-- Node6&#45;&gt;Node5 -->
<g id="edge5" class="edge">
<title>Node6&#45;&gt;Node5</title>
<path fill="none" stroke="#9a32cd" stroke-dasharray="5,2" d="M758.2785,-147.8942C805.358,-143.998 865.7644,-138.9988 910.7567,-135.2753"/>
<polygon fill="#9a32cd" stroke="#9a32cd" points="757.819,-144.4202 748.1417,-148.7331 758.3964,-151.3963 757.819,-144.4202"/>
<text text-anchor="middle" x="818" y="-149" font-family="Helvetica,sans-Serif" font-size="10.00" fill="#000000"> _physicalDeviceInfo</text>
</g>
<!-- Node7 -->
<g id="node7" class="node">
<title>Node7</title>
<g id="a_node7"><a xlink:href="structlug_1_1Graphics_1_1Vulkan_1_1PhysicalDeviceInfo_1_1Swapchain.html" target="_top" xlink:title="lug::Graphics::Vulkan\l::PhysicalDeviceInfo\l::Swapchain">
<polygon fill="none" stroke="#000000" points="324.5,-289.5 324.5,-330.5 451.5,-330.5 451.5,-289.5 324.5,-289.5"/>
<text text-anchor="start" x="332.5" y="-318.5" font-family="Helvetica,sans-Serif" font-size="10.00" fill="#000000">lug::Graphics::Vulkan</text>
<text text-anchor="start" x="332.5" y="-307.5" font-family="Helvetica,sans-Serif" font-size="10.00" fill="#000000">::PhysicalDeviceInfo</text>
<text text-anchor="middle" x="388" y="-296.5" font-family="Helvetica,sans-Serif" font-size="10.00" fill="#000000">::Swapchain</text>
</a>
</g>
</g>
<!-- Node7&#45;&gt;Node6 -->
<g id="edge6" class="edge">
<title>Node7&#45;&gt;Node6</title>
<path fill="none" stroke="#9a32cd" stroke-dasharray="5,2" d="M461.9687,-302.4062C505.7326,-295.1887 560.6959,-281.1687 603,-254 637.1095,-232.0941 663.7273,-191.1752 676.3961,-169.0795"/>
<polygon fill="#9a32cd" stroke="#9a32cd" points="461.296,-298.9688 451.9569,-303.972 462.3776,-305.8847 461.296,-298.9688"/>
<text text-anchor="middle" x="554.5" y="-295" font-family="Helvetica,sans-Serif" font-size="10.00" fill="#000000"> swapchain</text>
</g>
<!-- Node8 -->
<g id="node8" class="node">
<title>Node8</title>
<polygon fill="none" stroke="#bfbfbf" points="16.5,-338.5 16.5,-357.5 162.5,-357.5 162.5,-338.5 16.5,-338.5"/>
<text text-anchor="middle" x="89.5" y="-345.5" font-family="Helvetica,sans-Serif" font-size="10.00" fill="#000000">VkSurfaceCapabilitiesKHR</text>
</g>
<!-- Node8&#45;&gt;Node7 -->
<g id="edge7" class="edge">
<title>Node8&#45;&gt;Node7</title>
<path fill="none" stroke="#9a32cd" stroke-dasharray="5,2" d="M172.5828,-337.4233C220.5932,-331.3114 280.0566,-323.7415 324.3375,-318.1044"/>
<polygon fill="#9a32cd" stroke="#9a32cd" points="171.9992,-333.9692 162.5213,-338.7042 172.8833,-340.9132 171.9992,-333.9692"/>
<text text-anchor="middle" x="233.5" y="-336" font-family="Helvetica,sans-Serif" font-size="10.00" fill="#000000"> capabilities</text>
</g>
<!-- Node9 -->
<g id="node9" class="node">
<title>Node9</title>
<polygon fill="none" stroke="#bfbfbf" points="0,-300.5 0,-319.5 179,-319.5 179,-300.5 0,-300.5"/>
<text text-anchor="middle" x="89.5" y="-307.5" font-family="Helvetica,sans-Serif" font-size="10.00" fill="#000000">vector&lt; VkSurfaceFormatKHR &gt;</text>
</g>
<!-- Node9&#45;&gt;Node7 -->
<g id="edge8" class="edge">
<title>Node9&#45;&gt;Node7</title>
<path fill="none" stroke="#9a32cd" stroke-dasharray="5,2" d="M189.3241,-310C233.799,-310 284.8747,-310 324.1016,-310"/>
<polygon fill="#9a32cd" stroke="#9a32cd" points="189.0599,-306.5001 179.0598,-310 189.0598,-313.5001 189.0599,-306.5001"/>
<text text-anchor="middle" x="233.5" y="-313" font-family="Helvetica,sans-Serif" font-size="10.00" fill="#000000"> formats</text>
</g>
<!-- Node10 -->
<g id="node10" class="node">
<title>Node10</title>
<polygon fill="none" stroke="#bfbfbf" points="4.5,-262.5 4.5,-281.5 174.5,-281.5 174.5,-262.5 4.5,-262.5"/>
<text text-anchor="middle" x="89.5" y="-269.5" font-family="Helvetica,sans-Serif" font-size="10.00" fill="#000000">vector&lt; VkPresentModeKHR &gt;</text>
</g>
<!-- Node10&#45;&gt;Node7 -->
<g id="edge9" class="edge">
<title>Node10&#45;&gt;Node7</title>
<path fill="none" stroke="#9a32cd" stroke-dasharray="5,2" d="M174.4265,-282.8114C222.0428,-288.8731 280.4605,-296.3099 324.1567,-301.8725"/>
<polygon fill="#9a32cd" stroke="#9a32cd" points="174.8008,-279.3309 164.4389,-281.54 173.9168,-286.2749 174.8008,-279.3309"/>
<text text-anchor="middle" x="233.5" y="-297" font-family="Helvetica,sans-Serif" font-size="10.00" fill="#000000"> presentModes</text>
</g>
<!-- Node11 -->
<g id="node11" class="node">
<title>Node11</title>
<polygon fill="none" stroke="#bfbfbf" points="308.5,-240 308.5,-270 467.5,-270 467.5,-240 308.5,-240"/>
<text text-anchor="start" x="316.5" y="-258" font-family="Helvetica,sans-Serif" font-size="10.00" fill="#000000">unordered_map&lt; VkFormat,</text>
<text text-anchor="middle" x="388" y="-247" font-family="Helvetica,sans-Serif" font-size="10.00" fill="#000000"> VkFormatProperties &gt;</text>
</g>
<!-- Node11&#45;&gt;Node6 -->
<g id="edge10" class="edge">
<title>Node11&#45;&gt;Node6</title>
<path fill="none" stroke="#9a32cd" stroke-dasharray="5,2" d="M477.4236,-245.7005C517.0561,-239.4299 563.5404,-229.0543 603,-212 627.5497,-201.3897 652.0561,-182.556 667.6872,-169.2323"/>
<polygon fill="#9a32cd" stroke="#9a32cd" points="476.8643,-242.2452 467.5036,-247.2078 477.9159,-249.1658 476.8643,-242.2452"/>
<text text-anchor="middle" x="554.5" y="-242" font-family="Helvetica,sans-Serif" font-size="10.00" fill="#000000"> formatProperties</text>
</g>
<!-- Node12 -->
<g id="node12" class="node">
<title>Node12</title>
<polygon fill="none" stroke="#bfbfbf" points="315,-201.5 315,-220.5 461,-220.5 461,-201.5 315,-201.5"/>
<text text-anchor="middle" x="388" y="-208.5" font-family="Helvetica,sans-Serif" font-size="10.00" fill="#000000">VkPhysicalDeviceFeatures</text>
</g>
<!-- Node12&#45;&gt;Node6 -->
<g id="edge11" class="edge">
<title>Node12&#45;&gt;Node6</title>
<path fill="none" stroke="#9a32cd" stroke-dasharray="5,2" d="M471.2106,-202.2619C511.3296,-197.2222 559.9699,-189.8941 603,-180 615.7373,-177.0713 629.348,-173.0838 641.7267,-169.1115"/>
<polygon fill="#9a32cd" stroke="#9a32cd" points="470.7004,-198.7982 461.2031,-203.4941 471.5558,-205.7457 470.7004,-198.7982"/>
<text text-anchor="middle" x="554.5" y="-200" font-family="Helvetica,sans-Serif" font-size="10.00" fill="#000000"> features</text>
</g>
<!-- Node13 -->
<g id="node13" class="node">
<title>Node13</title>
<polygon fill="none" stroke="#bfbfbf" points="288,-163.5 288,-182.5 488,-182.5 488,-163.5 288,-163.5"/>
<text text-anchor="middle" x="388" y="-170.5" font-family="Helvetica,sans-Serif" font-size="10.00" fill="#000000">vector&lt; VkQueueFamilyProperties &gt;</text>
</g>
<!-- Node13&#45;&gt;Node6 -->
<g id="edge12" class="edge">
<title>Node13&#45;&gt;Node6</title>
<path fill="none" stroke="#9a32cd" stroke-dasharray="5,2" d="M498.5025,-165.9189C539.7965,-163.2727 585.2765,-160.3583 620.9274,-158.0738"/>
<polygon fill="#9a32cd" stroke="#9a32cd" points="498.137,-162.435 488.3814,-166.5675 498.5848,-169.4207 498.137,-162.435"/>
<text text-anchor="middle" x="554.5" y="-168" font-family="Helvetica,sans-Serif" font-size="10.00" fill="#000000"> queueFamilies</text>
</g>
<!-- Node14 -->
<g id="node14" class="node">
<title>Node14</title>
<polygon fill="none" stroke="#bfbfbf" points="290.5,-125.5 290.5,-144.5 485.5,-144.5 485.5,-125.5 290.5,-125.5"/>
<text text-anchor="middle" x="388" y="-132.5" font-family="Helvetica,sans-Serif" font-size="10.00" fill="#000000">VkPhysicalDeviceMemoryProperties</text>
</g>
<!-- Node14&#45;&gt;Node6 -->
<g id="edge13" class="edge">
<title>Node14&#45;&gt;Node6</title>
<path fill="none" stroke="#9a32cd" stroke-dasharray="5,2" d="M495.8071,-137.8176C530.1079,-139.168 568.1796,-141.1396 603,-144 608.8251,-144.4785 614.8748,-145.0603 620.9278,-145.6999"/>
<polygon fill="#9a32cd" stroke="#9a32cd" points="495.8922,-134.3184 485.7664,-137.4356 495.626,-141.3133 495.8922,-134.3184"/>
<text text-anchor="middle" x="554.5" y="-147" font-family="Helvetica,sans-Serif" font-size="10.00" fill="#000000"> memoryProperties</text>
</g>
<!-- Node15 -->
<g id="node15" class="node">
<title>Node15</title>
<polygon fill="none" stroke="#bfbfbf" points="336,-87.5 336,-106.5 440,-106.5 440,-87.5 336,-87.5"/>
<text text-anchor="middle" x="388" y="-94.5" font-family="Helvetica,sans-Serif" font-size="10.00" fill="#000000">VkPhysicalDevice</text>
</g>
<!-- Node15&#45;&gt;Node6 -->
<g id="edge14" class="edge">
<title>Node15&#45;&gt;Node6</title>
<path fill="none" stroke="#9a32cd" stroke-dasharray="5,2" d="M450.4396,-100.5272C493.741,-103.9478 552.4775,-110.5341 603,-123 607.593,-124.1333 627.1317,-131.5508 645.9257,-138.8454"/>
<polygon fill="#9a32cd" stroke="#9a32cd" points="450.5703,-97.0272 440.3352,-99.7642 450.0432,-104.0073 450.5703,-97.0272"/>
<text text-anchor="middle" x="554.5" y="-126" font-family="Helvetica,sans-Serif" font-size="10.00" fill="#000000"> handle</text>
</g>
<!-- Node16 -->
<g id="node16" class="node">
<title>Node16</title>
<polygon fill="none" stroke="#bfbfbf" points="310.5,-49.5 310.5,-68.5 465.5,-68.5 465.5,-49.5 310.5,-49.5"/>
<text text-anchor="middle" x="388" y="-56.5" font-family="Helvetica,sans-Serif" font-size="10.00" fill="#000000">VkPhysicalDeviceProperties</text>
</g>
<!-- Node16&#45;&gt;Node6 -->
<g id="edge15" class="edge">
<title>Node16&#45;&gt;Node6</title>
<path fill="none" stroke="#9a32cd" stroke-dasharray="5,2" d="M475.8881,-53.7045C517.9821,-55.4633 566.9458,-64.2631 603,-91 618.0107,-102.1316 607.3486,-116.2378 621,-129 625.1544,-132.8837 629.9832,-136.19 635.0877,-138.9987"/>
<polygon fill="#9a32cd" stroke="#9a32cd" points="475.7243,-50.1984 465.627,-53.4069 475.5213,-57.1954 475.7243,-50.1984"/>
<text text-anchor="middle" x="554.5" y="-94" font-family="Helvetica,sans-Serif" font-size="10.00" fill="#000000"> properties</text>
</g>
<!-- Node17 -->
<g id="node17" class="node">
<title>Node17</title>
<polygon fill="none" stroke="#bfbfbf" points="296,-11.5 296,-30.5 480,-30.5 480,-11.5 296,-11.5"/>
<text text-anchor="middle" x="388" y="-18.5" font-family="Helvetica,sans-Serif" font-size="10.00" fill="#000000">vector&lt; VkExtensionProperties &gt;</text>
</g>
<!-- Node17&#45;&gt;Node6 -->
<g id="edge16" class="edge">
<title>Node17&#45;&gt;Node6</title>
<path fill="none" stroke="#9a32cd" stroke-dasharray="5,2" d="M440.507,-9.9505C488.8042,-3.0805 559.3515,-1.8678 603,-41 632.7242,-67.6487 595.3205,-98.4346 621,-129 624.2772,-132.9007 628.2449,-136.1963 632.5789,-138.9801"/>
<polygon fill="#9a32cd" stroke="#9a32cd" points="439.9036,-6.5022 430.5563,-11.4899 440.9739,-13.4199 439.9036,-6.5022"/>
<text text-anchor="middle" x="554.5" y="-44" font-family="Helvetica,sans-Serif" font-size="10.00" fill="#000000"> extensions</text>
</g>
<!-- Node18 -->
<g id="node18" class="node">
<title>Node18</title>
<polygon fill="none" stroke="#bfbfbf" points="653,-100.5 653,-119.5 716,-119.5 716,-100.5 653,-100.5"/>
<text text-anchor="middle" x="684.5" y="-107.5" font-family="Helvetica,sans-Serif" font-size="10.00" fill="#000000">VkDevice</text>
</g>
<!-- Node18&#45;&gt;Node5 -->
<g id="edge17" class="edge">
<title>Node18&#45;&gt;Node5</title>
<path fill="none" stroke="#9a32cd" stroke-dasharray="5,2" d="M726.1485,-110.1486C763.7893,-110.5677 820.6889,-111.9099 870,-116 883.2253,-117.097 897.341,-118.6955 910.7821,-120.4235"/>
<polygon fill="#9a32cd" stroke="#9a32cd" points="726.0975,-106.648 716.0648,-110.0533 726.0313,-113.6477 726.0975,-106.648"/>
<text text-anchor="middle" x="818" y="-119" font-family="Helvetica,sans-Serif" font-size="10.00" fill="#000000"> _device</text>
</g>
<!-- Node19 -->
<g id="node19" class="node">
<title>Node19</title>
<polygon fill="none" stroke="#bfbfbf" points="937.5,-76.5 937.5,-95.5 1011.5,-95.5 1011.5,-76.5 937.5,-76.5"/>
<text text-anchor="middle" x="974.5" y="-83.5" font-family="Helvetica,sans-Serif" font-size="10.00" fill="#000000">VkExtent2D</text>
</g>
<!-- Node19&#45;&gt;Node1 -->
<g id="edge18" class="edge">
<title>Node19&#45;&gt;Node1</title>
<path fill="none" stroke="#9a32cd" stroke-dasharray="5,2" d="M1021.8566,-93.3076C1058.2931,-99.003 1109.879,-107.2241 1155,-115 1160.813,-116.0018 1166.8544,-117.0674 1172.9021,-118.1508"/>
<polygon fill="#9a32cd" stroke="#9a32cd" points="1021.9498,-89.7799 1011.53,-91.6977 1020.8715,-96.6964 1021.9498,-89.7799"/>
<text text-anchor="middle" x="1117" y="-118" font-family="Helvetica,sans-Serif" font-size="10.00" fill="#000000"> _extent</text>
</g>
<!-- Node20 -->
<g id="node20" class="node">
<title>Node20</title>
<polygon fill="none" stroke="#bfbfbf" points="912.5,-38.5 912.5,-57.5 1036.5,-57.5 1036.5,-38.5 912.5,-38.5"/>
<text text-anchor="middle" x="974.5" y="-45.5" font-family="Helvetica,sans-Serif" font-size="10.00" fill="#000000">VkSurfaceFormatKHR</text>
</g>
<!-- Node20&#45;&gt;Node1 -->
<g id="edge19" class="edge">
<title>Node20&#45;&gt;Node1</title>
<path fill="none" stroke="#9a32cd" stroke-dasharray="5,2" d="M1046.8406,-58.9668C1080.3473,-65.2215 1120.3273,-74.3772 1155,-87 1174.9935,-94.2788 1196.2104,-105.6007 1211.983,-114.8"/>
<polygon fill="#9a32cd" stroke="#9a32cd" points="1047.1273,-55.4617 1036.6628,-57.1182 1045.8763,-62.349 1047.1273,-55.4617"/>
<text text-anchor="middle" x="1117" y="-90" font-family="Helvetica,sans-Serif" font-size="10.00" fill="#000000"> _format</text>
</g>
<!-- Node21 -->
<g id="node21" class="node">
<title>Node21</title>
<polygon fill="none" stroke="#bfbfbf" points="922.5,-.5 922.5,-19.5 1026.5,-19.5 1026.5,-.5 922.5,-.5"/>
<text text-anchor="middle" x="974.5" y="-7.5" font-family="Helvetica,sans-Serif" font-size="10.00" fill="#000000">VkSwapchainKHR</text>
</g>
<!-- Node21&#45;&gt;Node1 -->
<g id="edge20" class="edge">
<title>Node21&#45;&gt;Node1</title>
<path fill="none" stroke="#9a32cd" stroke-dasharray="5,2" d="M1036.5442,-15.5481C1072.8291,-20.8212 1118.5219,-31.0784 1155,-51 1184.5738,-67.151 1211.0027,-96.9737 1225.2928,-114.9972"/>
<polygon fill="#9a32cd" stroke="#9a32cd" points="1036.9561,-12.0719 1026.575,-14.1891 1036.0105,-19.0078 1036.9561,-12.0719"/>
<text text-anchor="middle" x="1117" y="-54" font-family="Helvetica,sans-Serif" font-size="10.00" fill="#000000"> _swapchain</text>
</g>
</g>
</svg>
        <g id="navigator" transform="translate(0 0)" fill="#404254">
                <rect fill="#f2f5e9" fill-opacity="0.5" stroke="#606060" stroke-width=".5" x="0" y="0" width="60" height="60"/>
                <use id="zoomplus" xlink:href="#zoomPlus" x="17" y="9" onmousedown="handleZoom(evt,'in')"/>
                <use id="zoomminus" xlink:href="#zoomMin" x="42" y="9" onmousedown="handleZoom(evt,'out')"/>
                <use id="reset" xlink:href="#resetDef" x="30" y="36" onmousedown="handleReset()"/>
                <g id="arrowUp" xlink:href="#dirArrow" transform="translate(30 24)" onmousedown="handlePan(0,-1)">
                  <use xlink:href="#rim" fill="#404040">
                        <set attributeName="fill" to="#808080" begin="arrowUp.mouseover" end="arrowUp.mouseout"/>
                  </use>
                  <path fill="none" stroke="white" stroke-width="1.5" d="M0,-3.0v7 M-2.5,-0.5L0,-3.0L2.5,-0.5"/>
                </g>
                <g id="arrowRight" xlink:href="#dirArrow" transform="rotate(90) translate(36 -43)" onmousedown="handlePan(1,0)">
                  <use xlink:href="#rim" fill="#404040">
                        <set attributeName="fill" to="#808080" begin="arrowRight.mouseover" end="arrowRight.mouseout"/>
                  </use>
                  <path fill="none" stroke="white" stroke-width="1.5" d="M0,-3.0v7 M-2.5,-0.5L0,-3.0L2.5,-0.5"/>
                </g>
                <g id="arrowDown" xlink:href="#dirArrow" transform="rotate(180) translate(-30 -48)" onmousedown="handlePan(0,1)">
                  <use xlink:href="#rim" fill="#404040">
                        <set attributeName="fill" to="#808080" begin="arrowDown.mouseover" end="arrowDown.mouseout"/>
                  </use>
                  <path fill="none" stroke="white" stroke-width="1.5" d="M0,-3.0v7 M-2.5,-0.5L0,-3.0L2.5,-0.5"/>
                </g>
                <g id="arrowLeft" xlink:href="#dirArrow" transform="rotate(270) translate(-36 17)" onmousedown="handlePan(-1,0)">
                  <use xlink:href="#rim" fill="#404040">
                        <set attributeName="fill" to="#808080" begin="arrowLeft.mouseover" end="arrowLeft.mouseout"/>
                  </use>
                  <path fill="none" stroke="white" stroke-width="1.5" d="M0,-3.0v7 M-2.5,-0.5L0,-3.0L2.5,-0.5"/>
                </g>
        </g>
        <svg viewBox="0 0 15 15" width="100%" height="30px" preserveAspectRatio="xMaxYMin meet">
         <g id="arrow_out" transform="scale(0.3 0.3)">
          <a xlink:href="classlug_1_1Graphics_1_1Vulkan_1_1API_1_1Swapchain__coll__graph_org.svg" target="_base">
           <rect id="button" ry="5" rx="5" y="6" x="6" height="38" width="38"
                fill="#f2f5e9" fill-opacity="0.5" stroke="#606060" stroke-width="1.0"/>
           <path id="arrow"
             d="M 11.500037,31.436501 C 11.940474,20.09759 22.043105,11.32322 32.158766,21.979434 L 37.068811,17.246167 C 37.068811,17.246167 37.088388,32 37.088388,32 L 22.160133,31.978069 C 22.160133,31.978069 26.997745,27.140456 26.997745,27.140456 C 18.528582,18.264221 13.291696,25.230495 11.500037,31.436501 z"
             style="fill:#404040;"/>
          </a>
         </g>
        </svg>
</svg>
