<?xml version="1.0" encoding="UTF-8" standalone="no"?>
<!DOCTYPE svg PUBLIC "-//W3C//DTD SVG 1.1//EN"
 "http://www.w3.org/Graphics/SVG/1.1/DTD/svg11.dtd">
<!-- Generated by graphviz version 2.40.1 (20161225.0304)
 -->
<!-- Title: lug::System::Exception Pages: 1 -->
<svg width="485pt" height="302pt"
 viewBox="0.00 0.00 485.00 301.50" xmlns="http://www.w3.org/2000/svg" xmlns:xlink="http://www.w3.org/1999/xlink">
<g id="graph0" class="graph" transform="scale(1 1) rotate(0) translate(4 297.5)">
<title>lug::System::Exception</title>
<!-- Node0 -->
<g id="node1" class="node">
<title>Node0</title>
<polygon fill="#bfbfbf" stroke="#000000" points="125,-126.5 125,-145.5 260,-145.5 260,-126.5 125,-126.5"/>
<text text-anchor="middle" x="192.5" y="-133.5" font-family="Helvetica,sans-Serif" font-size="10.00" fill="#000000">lug::System::Exception</text>
</g>
<!-- Node2 -->
<g id="node3" class="node">
<title>Node2</title>
<g id="a_node3"><a xlink:href="classlug_1_1System_1_1FileNotFoundException.html" target="_top" xlink:title="lug::System::FileNotFound\lException">
<polygon fill="none" stroke="#000000" points="311,-263 311,-293 462,-293 462,-263 311,-263"/>
<text text-anchor="start" x="319" y="-281" font-family="Helvetica,sans-Serif" font-size="10.00" fill="#000000">lug::System::FileNotFound</text>
<text text-anchor="middle" x="386.5" y="-270" font-family="Helvetica,sans-Serif" font-size="10.00" fill="#000000">Exception</text>
</a>
</g>
</g>
<!-- Node0&#45;&gt;Node2 -->
<g id="edge2" class="edge">
<title>Node0&#45;&gt;Node2</title>
<path fill="none" stroke="#191970" d="M203.4534,-154.2317C220.1149,-180.3662 254.3342,-228.1671 296,-254 301.526,-257.4261 307.5346,-260.3676 313.7401,-262.8921"/>
<polygon fill="#191970" stroke="#191970" points="206.3797,-152.3097 198.128,-145.6644 200.4346,-156.0051 206.3797,-152.3097"/>
</g>
<!-- Node3 -->
<g id="node4" class="node">
<title>Node3</title>
<g id="a_node4"><a xlink:href="classlug_1_1System_1_1InternalErrorException.html" target="_top" xlink:title="lug::System::InternalError\lException">
<polygon fill="none" stroke="#000000" points="310.5,-214 310.5,-244 462.5,-244 462.5,-214 310.5,-214"/>
<text text-anchor="start" x="318.5" y="-232" font-family="Helvetica,sans-Serif" font-size="10.00" fill="#000000">lug::System::InternalError</text>
<text text-anchor="middle" x="386.5" y="-221" font-family="Helvetica,sans-Serif" font-size="10.00" fill="#000000">Exception</text>
</a>
</g>
</g>
<!-- Node0&#45;&gt;Node3 -->
<g id="edge3" class="edge">
<title>Node0&#45;&gt;Node3</title>
<path fill="none" stroke="#191970" d="M212.181,-152.0123C232.1861,-167.5668 264.6171,-190.849 296,-205 303.4091,-208.3409 311.3763,-211.2922 319.4009,-213.8788"/>
<polygon fill="#191970" stroke="#191970" points="214.1746,-149.1268 204.1598,-145.6693 209.8326,-154.6175 214.1746,-149.1268"/>
</g>
<!-- Node4 -->
<g id="node5" class="node">
<title>Node4</title>
<g id="a_node5"><a xlink:href="classlug_1_1System_1_1InvalidParametersException.html" target="_top" xlink:title="lug::System::InvalidParameters\lException">
<polygon fill="none" stroke="#000000" points="297,-165 297,-195 476,-195 476,-165 297,-165"/>
<text text-anchor="start" x="305" y="-183" font-family="Helvetica,sans-Serif" font-size="10.00" fill="#000000">lug::System::InvalidParameters</text>
<text text-anchor="middle" x="386.5" y="-172" font-family="Helvetica,sans-Serif" font-size="10.00" fill="#000000">Exception</text>
</a>
</g>
</g>
<!-- Node0&#45;&gt;Node4 -->
<g id="edge4" class="edge">
<title>Node0&#45;&gt;Node4</title>
<path fill="none" stroke="#191970" d="M244.5853,-147.8132C267.7937,-153.0769 295.4043,-159.3391 320.0754,-164.9346"/>
<polygon fill="#191970" stroke="#191970" points="245.1216,-144.346 234.5951,-145.5473 243.5732,-151.1726 245.1216,-144.346"/>
</g>
<!-- Node5 -->
<g id="node6" class="node">
<title>Node5</title>
<g id="a_node6"><a xlink:href="classlug_1_1System_1_1IOException.html" target="_top" xlink:title="lug::System::IOException">
<polygon fill="none" stroke="#000000" points="313.5,-126.5 313.5,-145.5 459.5,-145.5 459.5,-126.5 313.5,-126.5"/>
<text text-anchor="middle" x="386.5" y="-133.5" font-family="Helvetica,sans-Serif" font-size="10.00" fill="#000000">lug::System::IOException</text>
</a>
</g>
</g>
<!-- Node0&#45;&gt;Node5 -->
<g id="edge5" class="edge">
<title>Node0&#45;&gt;Node5</title>
<path fill="none" stroke="#191970" d="M270.2762,-136C284.443,-136 299.1799,-136 313.2115,-136"/>
<polygon fill="#191970" stroke="#191970" points="270.0795,-132.5001 260.0794,-136 270.0794,-139.5001 270.0795,-132.5001"/>
</g>
<!-- Node6 -->
<g id="node7" class="node">
<title>Node6</title>
<g id="a_node7"><a xlink:href="classlug_1_1System_1_1NotImplementedException.html" target="_top" xlink:title="lug::System::NotImplemented\lException">
<polygon fill="none" stroke="#000000" points="301.5,-77 301.5,-107 471.5,-107 471.5,-77 301.5,-77"/>
<text text-anchor="start" x="309.5" y="-95" font-family="Helvetica,sans-Serif" font-size="10.00" fill="#000000">lug::System::NotImplemented</text>
<text text-anchor="middle" x="386.5" y="-84" font-family="Helvetica,sans-Serif" font-size="10.00" fill="#000000">Exception</text>
</a>
</g>
</g>
<!-- Node0&#45;&gt;Node6 -->
<g id="edge6" class="edge">
<title>Node0&#45;&gt;Node6</title>
<path fill="none" stroke="#191970" d="M244.5853,-124.1868C267.7937,-118.9231 295.4043,-112.6609 320.0754,-107.0654"/>
<polygon fill="#191970" stroke="#191970" points="243.5732,-120.8274 234.5951,-126.4527 245.1216,-127.654 243.5732,-120.8274"/>
</g>
<!-- Node7 -->
<g id="node8" class="node">
<title>Node7</title>
<g id="a_node8"><a xlink:href="classlug_1_1System_1_1RendererException.html" target="_top" xlink:title="lug::System::RendererException">
<polygon fill="none" stroke="#000000" points="296,-38.5 296,-57.5 477,-57.5 477,-38.5 296,-38.5"/>
<text text-anchor="middle" x="386.5" y="-45.5" font-family="Helvetica,sans-Serif" font-size="10.00" fill="#000000">lug::System::RendererException</text>
</a>
</g>
</g>
<!-- Node0&#45;&gt;Node7 -->
<g id="edge7" class="edge">
<title>Node0&#45;&gt;Node7</title>
<path fill="none" stroke="#191970" d="M211.7026,-119.894C231.5615,-104.0675 264.0845,-80.3986 296,-67 305.1777,-63.1471 315.2183,-60.0459 325.1653,-57.5585"/>
<polygon fill="#191970" stroke="#191970" points="209.3155,-117.3239 203.7614,-126.3462 213.7296,-122.7567 209.3155,-117.3239"/>
</g>
<!-- Node8 -->
<g id="node9" class="node">
<title>Node8</title>
<g id="a_node9"><a xlink:href="classlug_1_1System_1_1WindowException.html" target="_top" xlink:title="lug::System::WindowException">
<polygon fill="none" stroke="#000000" points="299.5,-.5 299.5,-19.5 473.5,-19.5 473.5,-.5 299.5,-.5"/>
<text text-anchor="middle" x="386.5" y="-7.5" font-family="Helvetica,sans-Serif" font-size="10.00" fill="#000000">lug::System::WindowException</text>
</a>
</g>
</g>
<!-- Node0&#45;&gt;Node8 -->
<g id="edge8" class="edge">
<title>Node0&#45;&gt;Node8</title>
<path fill="none" stroke="#191970" d="M204.4444,-118.178C221.6736,-93.9632 255.8755,-51.1542 296,-29 303.0272,-25.12 310.7617,-22.0309 318.6591,-19.5717"/>
<polygon fill="#191970" stroke="#191970" points="201.5189,-116.2547 198.6952,-126.4663 207.2707,-120.2444 201.5189,-116.2547"/>
</g>
<!-- Node1 -->
<g id="node2" class="node">
<title>Node1</title>
<polygon fill="none" stroke="#bfbfbf" points="0,-126.5 0,-145.5 89,-145.5 89,-126.5 0,-126.5"/>
<text text-anchor="middle" x="44.5" y="-133.5" font-family="Helvetica,sans-Serif" font-size="10.00" fill="#000000">std::exception</text>
</g>
<!-- Node1&#45;&gt;Node0 -->
<g id="edge1" class="edge">
<title>Node1&#45;&gt;Node0</title>
<path fill="none" stroke="#191970" d="M99.5571,-136C107.8191,-136 116.4188,-136 124.9053,-136"/>
<polygon fill="#191970" stroke="#191970" points="99.3065,-132.5001 89.3065,-136 99.3065,-139.5001 99.3065,-132.5001"/>
</g>
</g>
</svg>
