<?xml version="1.0" encoding="UTF-8" standalone="no"?>
<!DOCTYPE svg PUBLIC "-//W3C//DTD SVG 1.1//EN"
 "http://www.w3.org/Graphics/SVG/1.1/DTD/svg11.dtd">
<!-- Generated by graphviz version 2.40.1 (20161225.0304)
 -->
<!-- Title: lug::Graphics::Vulkan::Render::SkyBox Pages: 1 -->
<svg width="2003pt" height="689pt"
 viewBox="0.00 0.00 2003.00 689.00" xmlns="http://www.w3.org/2000/svg" xmlns:xlink="http://www.w3.org/1999/xlink">
<g id="graph0" class="graph" transform="scale(1 1) rotate(0) translate(4 685)">
<title>lug::Graphics::Vulkan::Render::SkyBox</title>
<!-- Node3 -->
<g id="node1" class="node">
<title>Node3</title>
<polygon fill="#bfbfbf" stroke="#000000" points="1868,-461 1868,-491 1995,-491 1995,-461 1868,-461"/>
<text text-anchor="start" x="1876" y="-479" font-family="Helvetica,sans-Serif" font-size="10.00" fill="#000000">lug::Graphics::Vulkan</text>
<text text-anchor="middle" x="1931.5" y="-468" font-family="Helvetica,sans-Serif" font-size="10.00" fill="#000000">::Render::SkyBox</text>
</g>
<!-- Node4 -->
<g id="node2" class="node">
<title>Node4</title>
<g id="a_node2"><a xlink:href="classlug_1_1Graphics_1_1Render_1_1SkyBox.html" target="_top" xlink:title="lug::Graphics::Render\l::SkyBox">
<polygon fill="none" stroke="#000000" points="1579,-461 1579,-491 1707,-491 1707,-461 1579,-461"/>
<text text-anchor="start" x="1587" y="-479" font-family="Helvetica,sans-Serif" font-size="10.00" fill="#000000">lug::Graphics::Render</text>
<text text-anchor="middle" x="1643" y="-468" font-family="Helvetica,sans-Serif" font-size="10.00" fill="#000000">::SkyBox</text>
</a>
</g>
</g>
<!-- Node4&#45;&gt;Node3 -->
<g id="edge1" class="edge">
<title>Node4&#45;&gt;Node3</title>
<path fill="none" stroke="#191970" d="M1717.0628,-476C1763.6494,-476 1823.1505,-476 1867.6515,-476"/>
<polygon fill="#191970" stroke="#191970" points="1717.0275,-472.5001 1707.0275,-476 1717.0275,-479.5001 1717.0275,-472.5001"/>
</g>
<!-- Node5 -->
<g id="node3" class="node">
<title>Node5</title>
<g id="a_node3"><a xlink:href="classlug_1_1Graphics_1_1Resource.html" target="_top" xlink:title="Class for resource. ">
<polygon fill="none" stroke="#000000" points="640.5,-489.5 640.5,-508.5 779.5,-508.5 779.5,-489.5 640.5,-489.5"/>
<text text-anchor="middle" x="710" y="-496.5" font-family="Helvetica,sans-Serif" font-size="10.00" fill="#000000">lug::Graphics::Resource</text>
</a>
</g>
</g>
<!-- Node5&#45;&gt;Node4 -->
<g id="edge2" class="edge">
<title>Node5&#45;&gt;Node4</title>
<path fill="none" stroke="#191970" d="M789.7686,-497.0336C971.4795,-492.5541 1413.2385,-481.664 1578.8665,-477.581"/>
<polygon fill="#191970" stroke="#191970" points="789.6558,-493.5352 779.7451,-497.2807 789.8283,-500.5331 789.6558,-493.5352"/>
</g>
<!-- Node11 -->
<g id="node9" class="node">
<title>Node11</title>
<g id="a_node9"><a xlink:href="classlug_1_1Graphics_1_1Render_1_1Texture.html" target="_top" xlink:title="lug::Graphics::Render\l::Texture">
<polygon fill="none" stroke="#000000" points="956,-405 956,-435 1084,-435 1084,-405 956,-405"/>
<text text-anchor="start" x="964" y="-423" font-family="Helvetica,sans-Serif" font-size="10.00" fill="#000000">lug::Graphics::Render</text>
<text text-anchor="middle" x="1020" y="-412" font-family="Helvetica,sans-Serif" font-size="10.00" fill="#000000">::Texture</text>
</a>
</g>
</g>
<!-- Node5&#45;&gt;Node11 -->
<g id="edge9" class="edge">
<title>Node5&#45;&gt;Node11</title>
<path fill="none" stroke="#191970" d="M764.9958,-487.2724C807.7208,-477.9099 868.3618,-464.071 921,-450 937.9164,-445.478 956.3075,-440.0489 972.5964,-435.0595"/>
<polygon fill="#191970" stroke="#191970" points="764.1032,-483.8847 755.079,-489.4356 765.5952,-490.7238 764.1032,-483.8847"/>
</g>
<!-- Node18 -->
<g id="node16" class="node">
<title>Node18</title>
<g id="a_node16"><a xlink:href="classlug_1_1Graphics_1_1Render_1_1Mesh.html" target="_top" xlink:title="A Mesh, which itsef is a Resource. A mesh is composed of a vector of PrimitiveSet. ">
<polygon fill="none" stroke="#000000" points="956,-571 956,-601 1084,-601 1084,-571 956,-571"/>
<text text-anchor="start" x="964" y="-589" font-family="Helvetica,sans-Serif" font-size="10.00" fill="#000000">lug::Graphics::Render</text>
<text text-anchor="middle" x="1020" y="-578" font-family="Helvetica,sans-Serif" font-size="10.00" fill="#000000">::Mesh</text>
</a>
</g>
</g>
<!-- Node5&#45;&gt;Node18 -->
<g id="edge20" class="edge">
<title>Node5&#45;&gt;Node18</title>
<path fill="none" stroke="#191970" d="M790.1447,-498.587C831.9884,-501.781 882.3694,-511.2706 921,-536 932.8369,-543.5774 927.6159,-553.7579 939,-562 944.1084,-565.6985 949.786,-568.8317 955.6975,-571.485"/>
<polygon fill="#191970" stroke="#191970" points="790.1875,-495.0823 779.9798,-497.9203 789.7293,-502.0673 790.1875,-495.0823"/>
</g>
<!-- Node6 -->
<g id="node4" class="node">
<title>Node6</title>
<g id="a_node4"><a xlink:href="structlug_1_1Graphics_1_1Resource_1_1Handle.html" target="_top" xlink:title="Handle of the resource. It contains informations such as the type and the index in the ResourceManage...">
<polygon fill="none" stroke="#000000" points="318.5,-561 318.5,-591 457.5,-591 457.5,-561 318.5,-561"/>
<text text-anchor="start" x="326.5" y="-579" font-family="Helvetica,sans-Serif" font-size="10.00" fill="#000000">lug::Graphics::Resource</text>
<text text-anchor="middle" x="388" y="-568" font-family="Helvetica,sans-Serif" font-size="10.00" fill="#000000">::Handle</text>
</a>
</g>
</g>
<!-- Node6&#45;&gt;Node5 -->
<g id="edge3" class="edge">
<title>Node6&#45;&gt;Node5</title>
<path fill="none" stroke="#9a32cd" stroke-dasharray="5,2" d="M460.6043,-558.6381C525.4291,-543.1365 617.9622,-521.009 670.1695,-508.5247"/>
<polygon fill="#9a32cd" stroke="#9a32cd" points="459.761,-555.241 450.8492,-560.9708 461.3891,-562.0491 459.761,-555.241"/>
<text text-anchor="middle" x="554.5" y="-549" font-family="Helvetica,sans-Serif" font-size="10.00" fill="#000000"> _handle</text>
</g>
<!-- Node7 -->
<g id="node5" class="node">
<title>Node7</title>
<polygon fill="none" stroke="#bfbfbf" points="61,-566.5 61,-585.5 118,-585.5 118,-566.5 61,-566.5"/>
<text text-anchor="middle" x="89.5" y="-573.5" font-family="Helvetica,sans-Serif" font-size="10.00" fill="#000000">uint32_t</text>
</g>
<!-- Node7&#45;&gt;Node3 -->
<g id="edge17" class="edge">
<title>Node7&#45;&gt;Node3</title>
<path fill="none" stroke="#9a32cd" stroke-dasharray="5,2" d="M122.43,-589.2672C143.4507,-597.2503 171.4555,-606.9969 197,-613 280.3425,-632.586 302.387,-638 388,-638 388,-638 388,-638 1643,-638 1762.1943,-638 1877.704,-531.5682 1917.1932,-491.2406"/>
<polygon fill="#9a32cd" stroke="#9a32cd" points="123.5953,-585.9654 113.0058,-585.629 121.0742,-592.4957 123.5953,-585.9654"/>
<text text-anchor="middle" x="1020" y="-641" font-family="Helvetica,sans-Serif" font-size="10.00" fill="#000000"> _skyBoxCount</text>
</g>
<!-- Node7&#45;&gt;Node6 -->
<g id="edge4" class="edge">
<title>Node7&#45;&gt;Node6</title>
<path fill="none" stroke="#9a32cd" stroke-dasharray="5,2" d="M128.4157,-576C176.5169,-576 259.2477,-576 318.3873,-576"/>
<polygon fill="#9a32cd" stroke="#9a32cd" points="128.1215,-572.5001 118.1214,-576 128.1214,-579.5001 128.1215,-572.5001"/>
<text text-anchor="middle" x="233.5" y="-601" font-family="Helvetica,sans-Serif" font-size="10.00" fill="#000000"> value</text>
<text text-anchor="middle" x="233.5" y="-590" font-family="Helvetica,sans-Serif" font-size="10.00" fill="#000000">type</text>
<text text-anchor="middle" x="233.5" y="-579" font-family="Helvetica,sans-Serif" font-size="10.00" fill="#000000">index</text>
</g>
<!-- Node7&#45;&gt;Node11 -->
<g id="edge11" class="edge">
<title>Node7&#45;&gt;Node11</title>
<path fill="none" stroke="#9a32cd" stroke-dasharray="5,2" d="M116.1331,-561.523C153.6982,-541.4755 224.7343,-504.9191 288,-480 503.5602,-395.0951 568.0121,-359.121 799,-377 854.9234,-381.3286 917.5924,-394.3156 961.8728,-404.894"/>
<polygon fill="#9a32cd" stroke="#9a32cd" points="114.0497,-558.6689 106.8937,-566.4819 117.3601,-564.8367 114.0497,-558.6689"/>
<text text-anchor="middle" x="554.5" y="-411" font-family="Helvetica,sans-Serif" font-size="10.00" fill="#000000"> _width</text>
<text text-anchor="middle" x="554.5" y="-400" font-family="Helvetica,sans-Serif" font-size="10.00" fill="#000000">_height</text>
</g>
<!-- Node8 -->
<g id="node6" class="node">
<title>Node8</title>
<polygon fill="none" stroke="#bfbfbf" points="42.5,-661.5 42.5,-680.5 136.5,-680.5 136.5,-661.5 42.5,-661.5"/>
<text text-anchor="middle" x="89.5" y="-668.5" font-family="Helvetica,sans-Serif" font-size="10.00" fill="#000000">anonymous:@5</text>
</g>
<!-- Node8&#45;&gt;Node6 -->
<g id="edge5" class="edge">
<title>Node8&#45;&gt;Node6</title>
<path fill="none" stroke="#9a32cd" stroke-dasharray="5,2" d="M129.1712,-658.3743C183.8587,-640.9696 282.2599,-609.6526 340.7047,-591.0521"/>
<polygon fill="#9a32cd" stroke="#9a32cd" points="127.9556,-655.0881 119.488,-661.4561 130.0785,-661.7585 127.9556,-655.0881"/>
<text text-anchor="middle" x="233.5" y="-637" font-family="Helvetica,sans-Serif" font-size="10.00" fill="#000000"> @5</text>
</g>
<!-- Node9 -->
<g id="node7" class="node">
<title>Node9</title>
<polygon fill="none" stroke="#bfbfbf" points="365.5,-489.5 365.5,-508.5 410.5,-508.5 410.5,-489.5 365.5,-489.5"/>
<text text-anchor="middle" x="388" y="-496.5" font-family="Helvetica,sans-Serif" font-size="10.00" fill="#000000">string</text>
</g>
<!-- Node9&#45;&gt;Node5 -->
<g id="edge6" class="edge">
<title>Node9&#45;&gt;Node5</title>
<path fill="none" stroke="#9a32cd" stroke-dasharray="5,2" d="M420.8135,-499C472.102,-499 572.4123,-499 640.3268,-499"/>
<polygon fill="#9a32cd" stroke="#9a32cd" points="420.6424,-495.5001 410.6424,-499 420.6424,-502.5001 420.6424,-495.5001"/>
<text text-anchor="middle" x="554.5" y="-502" font-family="Helvetica,sans-Serif" font-size="10.00" fill="#000000"> _name</text>
</g>
<!-- Node10 -->
<g id="node8" class="node">
<title>Node10</title>
<g id="a_node8"><a xlink:href="classlug_1_1Graphics_1_1Resource_1_1SharedPtr.html" target="_top" xlink:title="lug::Graphics::Resource\l::SharedPtr\&lt; lug::Graphics\l::Render::Texture \&gt;">
<polygon fill="none" stroke="#000000" points="1265,-412.5 1265,-453.5 1420,-453.5 1420,-412.5 1265,-412.5"/>
<text text-anchor="start" x="1273" y="-441.5" font-family="Helvetica,sans-Serif" font-size="10.00" fill="#000000">lug::Graphics::Resource</text>
<text text-anchor="start" x="1273" y="-430.5" font-family="Helvetica,sans-Serif" font-size="10.00" fill="#000000">::SharedPtr&lt; lug::Graphics</text>
<text text-anchor="middle" x="1342.5" y="-419.5" font-family="Helvetica,sans-Serif" font-size="10.00" fill="#000000">::Render::Texture &gt;</text>
</a>
</g>
</g>
<!-- Node10&#45;&gt;Node3 -->
<g id="edge16" class="edge">
<title>Node10&#45;&gt;Node3</title>
<path fill="none" stroke="#9a32cd" stroke-dasharray="5,2" d="M1430.3536,-432.5857C1469.4419,-432.6133 1516.0273,-432.9366 1558,-434 1625.6055,-435.7128 1642.72,-434.1564 1710,-441 1763.4503,-446.4368 1823.6398,-456.1827 1867.7708,-464.012"/>
<polygon fill="#9a32cd" stroke="#9a32cd" points="1430.0631,-429.0858 1420.0629,-432.585 1430.0626,-436.0858 1430.0631,-429.0858"/>
<text text-anchor="middle" x="1643" y="-444" font-family="Helvetica,sans-Serif" font-size="10.00" fill="#000000"> _brdfLut</text>
</g>
<!-- Node10&#45;&gt;Node4 -->
<g id="edge7" class="edge">
<title>Node10&#45;&gt;Node4</title>
<path fill="none" stroke="#9a32cd" stroke-dasharray="5,2" d="M1430.3134,-437.7214C1469.5876,-440.7119 1516.3298,-445.4861 1558,-453 1569.4342,-455.0618 1581.5708,-457.9265 1592.985,-460.9357"/>
<polygon fill="#9a32cd" stroke="#9a32cd" points="1430.4648,-434.2232 1420.2351,-436.9804 1429.9515,-441.2044 1430.4648,-434.2232"/>
<text text-anchor="middle" x="1498" y="-467" font-family="Helvetica,sans-Serif" font-size="10.00" fill="#000000"> _backgroundTexture</text>
<text text-anchor="middle" x="1498" y="-456" font-family="Helvetica,sans-Serif" font-size="10.00" fill="#000000">_environnementTexture</text>
</g>
<!-- Node11&#45;&gt;Node10 -->
<g id="edge8" class="edge">
<title>Node11&#45;&gt;Node10</title>
<path fill="none" stroke="#9a32cd" stroke-dasharray="5,2" d="M1094.4101,-422.9995C1145.4806,-425.0581 1213.1135,-427.7844 1264.8629,-429.8704"/>
<polygon fill="#9a32cd" stroke="#9a32cd" points="1094.2341,-419.4896 1084.1012,-422.5839 1093.9521,-426.484 1094.2341,-419.4896"/>
<text text-anchor="middle" x="1183" y="-431" font-family="Helvetica,sans-Serif" font-size="10.00" fill="#000000"> _resource</text>
</g>
<!-- Node12 -->
<g id="node10" class="node">
<title>Node12</title>
<polygon fill="none" stroke="#bfbfbf" points="684,-386.5 684,-405.5 736,-405.5 736,-386.5 684,-386.5"/>
<text text-anchor="middle" x="710" y="-393.5" font-family="Helvetica,sans-Serif" font-size="10.00" fill="#000000">Format</text>
</g>
<!-- Node12&#45;&gt;Node11 -->
<g id="edge10" class="edge">
<title>Node12&#45;&gt;Node11</title>
<path fill="none" stroke="#9a32cd" stroke-dasharray="5,2" d="M746.0556,-397.3498C788.1049,-399.0863 859.6813,-402.5457 921,-408 932.2956,-409.0048 944.292,-410.2809 955.8911,-411.6238"/>
<polygon fill="#9a32cd" stroke="#9a32cd" points="746.1585,-393.8512 736.0255,-396.9453 745.8763,-400.8455 746.1585,-393.8512"/>
<text text-anchor="middle" x="869" y="-411" font-family="Helvetica,sans-Serif" font-size="10.00" fill="#000000"> _format</text>
</g>
<!-- Node13 -->
<g id="node11" class="node">
<title>Node13</title>
<polygon fill="none" stroke="#bfbfbf" points="689,-300.5 689,-319.5 731,-319.5 731,-300.5 689,-300.5"/>
<text text-anchor="middle" x="710" y="-307.5" font-family="Helvetica,sans-Serif" font-size="10.00" fill="#000000">Filter</text>
</g>
<!-- Node13&#45;&gt;Node11 -->
<g id="edge12" class="edge">
<title>Node13&#45;&gt;Node11</title>
<path fill="none" stroke="#9a32cd" stroke-dasharray="5,2" d="M741.0281,-299.4687C785.8612,-286.3862 869.0617,-270.3881 921,-311 946.6448,-331.0524 918.2728,-356.8975 939,-382 947.1098,-391.8217 958.3349,-399.2502 969.8474,-404.8109"/>
<polygon fill="#9a32cd" stroke="#9a32cd" points="739.8244,-296.1766 731.2826,-302.4447 741.8688,-302.8714 739.8244,-296.1766"/>
<text text-anchor="middle" x="869" y="-336" font-family="Helvetica,sans-Serif" font-size="10.00" fill="#000000"> _magFilter</text>
<text text-anchor="middle" x="869" y="-325" font-family="Helvetica,sans-Serif" font-size="10.00" fill="#000000">_mipMapFilter</text>
<text text-anchor="middle" x="869" y="-314" font-family="Helvetica,sans-Serif" font-size="10.00" fill="#000000">_minFilter</text>
</g>
<!-- Node14 -->
<g id="node12" class="node">
<title>Node14</title>
<polygon fill="none" stroke="#bfbfbf" points="665,-424.5 665,-443.5 755,-443.5 755,-424.5 665,-424.5"/>
<text text-anchor="middle" x="710" y="-431.5" font-family="Helvetica,sans-Serif" font-size="10.00" fill="#000000">WrappingMode</text>
</g>
<!-- Node14&#45;&gt;Node11 -->
<g id="edge13" class="edge">
<title>Node14&#45;&gt;Node11</title>
<path fill="none" stroke="#9a32cd" stroke-dasharray="5,2" d="M765.1511,-430.7317C781.8089,-429.7919 800.1477,-428.8045 817,-428 863.504,-425.78 916.0222,-423.7224 955.9884,-422.25"/>
<polygon fill="#9a32cd" stroke="#9a32cd" points="764.8095,-427.2453 755.0248,-431.3086 765.2077,-434.234 764.8095,-427.2453"/>
<text text-anchor="middle" x="869" y="-442" font-family="Helvetica,sans-Serif" font-size="10.00" fill="#000000"> _wrapS</text>
<text text-anchor="middle" x="869" y="-431" font-family="Helvetica,sans-Serif" font-size="10.00" fill="#000000">_wrapT</text>
</g>
<!-- Node15 -->
<g id="node13" class="node">
<title>Node15</title>
<g id="a_node13"><a xlink:href="classlug_1_1Graphics_1_1Resource_1_1SharedPtr.html" target="_top" xlink:title="Dummy class for a shared pointer. ">
<polygon fill="none" stroke="#000000" points="950.5,-522 950.5,-552 1089.5,-552 1089.5,-522 950.5,-522"/>
<text text-anchor="start" x="958.5" y="-540" font-family="Helvetica,sans-Serif" font-size="10.00" fill="#000000">lug::Graphics::Resource</text>
<text text-anchor="middle" x="1020" y="-529" font-family="Helvetica,sans-Serif" font-size="10.00" fill="#000000">::SharedPtr&lt; T &gt;</text>
</a>
</g>
</g>
<!-- Node15&#45;&gt;Node10 -->
<g id="edge14" class="edge">
<title>Node15&#45;&gt;Node10</title>
<path fill="none" stroke="#ffa500" stroke-dasharray="5,2" d="M1076.388,-518.816C1132.8984,-500.5925 1219.7487,-472.5849 1278.7362,-453.5626"/>
<polygon fill="#ffa500" stroke="#ffa500" points="1074.993,-515.5883 1066.5498,-521.9886 1077.1414,-522.2504 1074.993,-515.5883"/>
<text text-anchor="start" x="1119" y="-517" font-family="Helvetica,sans-Serif" font-size="10.00" fill="#000000"> &lt; lug::Graphics::Render</text>
<text text-anchor="middle" x="1183" y="-506" font-family="Helvetica,sans-Serif" font-size="10.00" fill="#000000">::Texture &gt;</text>
</g>
<!-- Node17 -->
<g id="node15" class="node">
<title>Node17</title>
<g id="a_node15"><a xlink:href="classlug_1_1Graphics_1_1Resource_1_1SharedPtr.html" target="_top" xlink:title="lug::Graphics::Resource\l::SharedPtr\&lt; lug::Graphics\l::Render::Mesh \&gt;">
<polygon fill="none" stroke="#000000" points="1265,-546.5 1265,-587.5 1420,-587.5 1420,-546.5 1265,-546.5"/>
<text text-anchor="start" x="1273" y="-575.5" font-family="Helvetica,sans-Serif" font-size="10.00" fill="#000000">lug::Graphics::Resource</text>
<text text-anchor="start" x="1273" y="-564.5" font-family="Helvetica,sans-Serif" font-size="10.00" fill="#000000">::SharedPtr&lt; lug::Graphics</text>
<text text-anchor="middle" x="1342.5" y="-553.5" font-family="Helvetica,sans-Serif" font-size="10.00" fill="#000000">::Render::Mesh &gt;</text>
</a>
</g>
</g>
<!-- Node15&#45;&gt;Node17 -->
<g id="edge22" class="edge">
<title>Node15&#45;&gt;Node17</title>
<path fill="none" stroke="#ffa500" stroke-dasharray="5,2" d="M1099.776,-544.421C1150.142,-549.1062 1214.892,-555.1295 1264.8464,-559.7764"/>
<polygon fill="#ffa500" stroke="#ffa500" points="1099.8619,-540.914 1089.5806,-543.4726 1099.2134,-547.8839 1099.8619,-540.914"/>
<text text-anchor="start" x="1119" y="-571" font-family="Helvetica,sans-Serif" font-size="10.00" fill="#000000"> &lt; lug::Graphics::Render</text>
<text text-anchor="middle" x="1183" y="-560" font-family="Helvetica,sans-Serif" font-size="10.00" fill="#000000">::Mesh &gt;</text>
</g>
<!-- Node16 -->
<g id="node14" class="node">
<title>Node16</title>
<polygon fill="none" stroke="#bfbfbf" points="695.5,-537.5 695.5,-556.5 724.5,-556.5 724.5,-537.5 695.5,-537.5"/>
<text text-anchor="middle" x="710" y="-544.5" font-family="Helvetica,sans-Serif" font-size="10.00" fill="#000000">T</text>
</g>
<!-- Node16&#45;&gt;Node15 -->
<g id="edge15" class="edge">
<title>Node16&#45;&gt;Node15</title>
<path fill="none" stroke="#9a32cd" stroke-dasharray="5,2" d="M734.7995,-546.2C780.9831,-544.7102 881.685,-541.4618 950.1869,-539.252"/>
<polygon fill="#9a32cd" stroke="#9a32cd" points="734.4181,-542.7104 724.5362,-546.5311 734.6438,-549.7068 734.4181,-542.7104"/>
<text text-anchor="middle" x="869" y="-546" font-family="Helvetica,sans-Serif" font-size="10.00" fill="#000000"> _resource</text>
</g>
<!-- Node17&#45;&gt;Node3 -->
<g id="edge18" class="edge">
<title>Node17&#45;&gt;Node3</title>
<path fill="none" stroke="#9a32cd" stroke-dasharray="5,2" d="M1430.5708,-554.1707C1531.8516,-539.2934 1703.073,-513.7634 1850,-490 1855.8107,-489.0602 1861.8506,-488.0623 1867.8973,-487.0491"/>
<polygon fill="#9a32cd" stroke="#9a32cd" points="1429.7729,-550.7503 1420.3872,-555.6653 1430.7894,-557.6761 1429.7729,-550.7503"/>
<text text-anchor="middle" x="1643" y="-534" font-family="Helvetica,sans-Serif" font-size="10.00" fill="#000000"> _mesh</text>
</g>
<!-- Node18&#45;&gt;Node17 -->
<g id="edge19" class="edge">
<title>Node18&#45;&gt;Node17</title>
<path fill="none" stroke="#9a32cd" stroke-dasharray="5,2" d="M1094.4586,-592.3778C1138.8905,-594.925 1196.3442,-596.0139 1247,-590 1252.8426,-589.3064 1258.8448,-588.382 1264.8576,-587.3016"/>
<polygon fill="#9a32cd" stroke="#9a32cd" points="1094.5167,-588.8749 1084.3219,-591.7586 1094.0899,-595.8619 1094.5167,-588.8749"/>
<text text-anchor="middle" x="1183" y="-597" font-family="Helvetica,sans-Serif" font-size="10.00" fill="#000000"> _resource</text>
</g>
<!-- Node19 -->
<g id="node17" class="node">
<title>Node19</title>
<polygon fill="none" stroke="#bfbfbf" points="621,-576 621,-606 799,-606 799,-576 621,-576"/>
<text text-anchor="start" x="629" y="-594" font-family="Helvetica,sans-Serif" font-size="10.00" fill="#000000">vector&lt; lug::Graphics</text>
<text text-anchor="middle" x="710" y="-583" font-family="Helvetica,sans-Serif" font-size="10.00" fill="#000000">::Render::Mesh::PrimitiveSet &gt;</text>
</g>
<!-- Node19&#45;&gt;Node18 -->
<g id="edge21" class="edge">
<title>Node19&#45;&gt;Node18</title>
<path fill="none" stroke="#9a32cd" stroke-dasharray="5,2" d="M809.3671,-589.3973C857.4059,-588.6225 913.6648,-587.7151 955.95,-587.0331"/>
<polygon fill="#9a32cd" stroke="#9a32cd" points="809.1912,-585.8996 799.2489,-589.5605 809.3041,-592.8987 809.1912,-585.8996"/>
<text text-anchor="middle" x="869" y="-592" font-family="Helvetica,sans-Serif" font-size="10.00" fill="#000000"> _primitiveSets</text>
</g>
<!-- Node20 -->
<g id="node18" class="node">
<title>Node20</title>
<g id="a_node18"><a xlink:href="classlug_1_1Graphics_1_1Vulkan_1_1API_1_1GraphicsPipeline.html" target="_top" xlink:title="lug::Graphics::Vulkan\l::API::GraphicsPipeline">
<polygon fill="none" stroke="#000000" points="1576,-285 1576,-315 1710,-315 1710,-285 1576,-285"/>
<text text-anchor="start" x="1584" y="-303" font-family="Helvetica,sans-Serif" font-size="10.00" fill="#000000">lug::Graphics::Vulkan</text>
<text text-anchor="middle" x="1643" y="-292" font-family="Helvetica,sans-Serif" font-size="10.00" fill="#000000">::API::GraphicsPipeline</text>
</a>
</g>
</g>
<!-- Node20&#45;&gt;Node3 -->
<g id="edge23" class="edge">
<title>Node20&#45;&gt;Node3</title>
<path fill="none" stroke="#9a32cd" stroke-dasharray="5,2" d="M1720.4865,-310.2408C1761.8779,-318.6604 1811.9823,-333.8349 1850,-361 1887.0331,-387.4615 1913.2757,-436.1789 1924.8583,-460.8427"/>
<polygon fill="#9a32cd" stroke="#9a32cd" points="1720.9207,-306.7599 1710.4374,-308.293 1719.5887,-313.632 1720.9207,-306.7599"/>
<text text-anchor="middle" x="1789" y="-397" font-family="Helvetica,sans-Serif" font-size="10.00" fill="#000000"> _prefilteredMapPipeline</text>
<text text-anchor="middle" x="1789" y="-386" font-family="Helvetica,sans-Serif" font-size="10.00" fill="#000000">_brdfLutPipeline</text>
<text text-anchor="middle" x="1789" y="-375" font-family="Helvetica,sans-Serif" font-size="10.00" fill="#000000">_irradianceMapPipeline</text>
<text text-anchor="middle" x="1789" y="-364" font-family="Helvetica,sans-Serif" font-size="10.00" fill="#000000">_pipeline</text>
</g>
<!-- Node21 -->
<g id="node19" class="node">
<title>Node21</title>
<g id="a_node19"><a xlink:href="classlug_1_1Graphics_1_1Vulkan_1_1API_1_1RenderPass.html" target="_top" xlink:title="lug::Graphics::Vulkan\l::API::RenderPass">
<polygon fill="none" stroke="#000000" points="1279,-232 1279,-262 1406,-262 1406,-232 1279,-232"/>
<text text-anchor="start" x="1287" y="-250" font-family="Helvetica,sans-Serif" font-size="10.00" fill="#000000">lug::Graphics::Vulkan</text>
<text text-anchor="middle" x="1342.5" y="-239" font-family="Helvetica,sans-Serif" font-size="10.00" fill="#000000">::API::RenderPass</text>
</a>
</g>
</g>
<!-- Node21&#45;&gt;Node20 -->
<g id="edge24" class="edge">
<title>Node21&#45;&gt;Node20</title>
<path fill="none" stroke="#9a32cd" stroke-dasharray="5,2" d="M1416.2051,-259.9942C1457.8326,-267.3338 1510.8216,-276.6776 1558,-285 1563.7553,-286.0152 1569.7297,-287.0693 1575.723,-288.1267"/>
<polygon fill="#9a32cd" stroke="#9a32cd" points="1416.6054,-256.5109 1406.1495,-258.2213 1415.3899,-263.4046 1416.6054,-256.5109"/>
<text text-anchor="middle" x="1498" y="-288" font-family="Helvetica,sans-Serif" font-size="10.00" fill="#000000"> _renderPass</text>
</g>
<!-- Node22 -->
<g id="node20" class="node">
<title>Node22</title>
<polygon fill="none" stroke="#bfbfbf" points="976.5,-166.5 976.5,-185.5 1063.5,-185.5 1063.5,-166.5 976.5,-166.5"/>
<text text-anchor="middle" x="1020" y="-173.5" font-family="Helvetica,sans-Serif" font-size="10.00" fill="#000000">VkRenderPass</text>
</g>
<!-- Node22&#45;&gt;Node21 -->
<g id="edge25" class="edge">
<title>Node22&#45;&gt;Node21</title>
<path fill="none" stroke="#9a32cd" stroke-dasharray="5,2" d="M1073.6189,-182.8485C1119.9249,-189.3233 1188.4192,-200.2456 1247,-215 1265.3128,-219.6124 1285.1712,-226.0283 1302.0117,-231.9053"/>
<polygon fill="#9a32cd" stroke="#9a32cd" points="1073.8912,-179.353 1063.5071,-181.456 1072.9361,-186.2876 1073.8912,-179.353"/>
<text text-anchor="middle" x="1183" y="-218" font-family="Helvetica,sans-Serif" font-size="10.00" fill="#000000"> _renderPass</text>
</g>
<!-- Node23 -->
<g id="node21" class="node">
<title>Node23</title>
<g id="a_node21"><a xlink:href="classlug_1_1Graphics_1_1Vulkan_1_1API_1_1Device.html" target="_top" xlink:title="lug::Graphics::Vulkan\l::API::Device">
<polygon fill="none" stroke="#000000" points="956.5,-213 956.5,-243 1083.5,-243 1083.5,-213 956.5,-213"/>
<text text-anchor="start" x="964.5" y="-231" font-family="Helvetica,sans-Serif" font-size="10.00" fill="#000000">lug::Graphics::Vulkan</text>
<text text-anchor="middle" x="1020" y="-220" font-family="Helvetica,sans-Serif" font-size="10.00" fill="#000000">::API::Device</text>
</a>
</g>
</g>
<!-- Node23&#45;&gt;Node20 -->
<g id="edge41" class="edge">
<title>Node23&#45;&gt;Node20</title>
<path fill="none" stroke="#9a32cd" stroke-dasharray="5,2" d="M1093.6376,-215.5908C1174.3444,-204.1383 1307.3439,-191.593 1420,-211 1494.3542,-223.8088 1575.0431,-262.9957 1615.9399,-284.8573"/>
<polygon fill="#9a32cd" stroke="#9a32cd" points="1092.9682,-212.1512 1083.5748,-217.0516 1093.9739,-219.0785 1092.9682,-212.1512"/>
<text text-anchor="middle" x="1342.5" y="-214" font-family="Helvetica,sans-Serif" font-size="10.00" fill="#000000"> _device</text>
</g>
<!-- Node23&#45;&gt;Node21 -->
<g id="edge26" class="edge">
<title>Node23&#45;&gt;Node21</title>
<path fill="none" stroke="#9a32cd" stroke-dasharray="5,2" d="M1093.8087,-229.1192C1138.245,-230.1618 1195.9256,-232.1646 1247,-236 1257.3184,-236.7748 1268.2404,-237.8196 1278.8683,-238.958"/>
<polygon fill="#9a32cd" stroke="#9a32cd" points="1093.7509,-225.6172 1083.6751,-228.8927 1093.5943,-232.6154 1093.7509,-225.6172"/>
<text text-anchor="middle" x="1183" y="-239" font-family="Helvetica,sans-Serif" font-size="10.00" fill="#000000"> _device</text>
</g>
<!-- Node39 -->
<g id="node37" class="node">
<title>Node39</title>
<g id="a_node37"><a xlink:href="classlug_1_1Graphics_1_1Vulkan_1_1API_1_1PipelineLayout.html" target="_top" xlink:title="lug::Graphics::Vulkan\l::API::PipelineLayout">
<polygon fill="none" stroke="#000000" points="1279,-285 1279,-315 1406,-315 1406,-285 1279,-285"/>
<text text-anchor="start" x="1287" y="-303" font-family="Helvetica,sans-Serif" font-size="10.00" fill="#000000">lug::Graphics::Vulkan</text>
<text text-anchor="middle" x="1342.5" y="-292" font-family="Helvetica,sans-Serif" font-size="10.00" fill="#000000">::API::PipelineLayout</text>
</a>
</g>
</g>
<!-- Node23&#45;&gt;Node39 -->
<g id="edge46" class="edge">
<title>Node23&#45;&gt;Node39</title>
<path fill="none" stroke="#9a32cd" stroke-dasharray="5,2" d="M1093.5601,-244.4227C1149.4796,-256.9071 1225.6182,-273.9055 1278.9167,-285.8047"/>
<polygon fill="#9a32cd" stroke="#9a32cd" points="1094.238,-240.988 1083.7156,-242.2249 1092.7127,-247.8198 1094.238,-240.988"/>
<text text-anchor="middle" x="1183" y="-279" font-family="Helvetica,sans-Serif" font-size="10.00" fill="#000000"> _device</text>
</g>
<!-- Node24 -->
<g id="node22" class="node">
<title>Node24</title>
<g id="a_node22"><a xlink:href="structlug_1_1Graphics_1_1Vulkan_1_1PhysicalDeviceInfo.html" target="_top" xlink:title="lug::Graphics::Vulkan\l::PhysicalDeviceInfo">
<polygon fill="none" stroke="#000000" points="646.5,-147 646.5,-177 773.5,-177 773.5,-147 646.5,-147"/>
<text text-anchor="start" x="654.5" y="-165" font-family="Helvetica,sans-Serif" font-size="10.00" fill="#000000">lug::Graphics::Vulkan</text>
<text text-anchor="middle" x="710" y="-154" font-family="Helvetica,sans-Serif" font-size="10.00" fill="#000000">::PhysicalDeviceInfo</text>
</a>
</g>
</g>
<!-- Node24&#45;&gt;Node23 -->
<g id="edge27" class="edge">
<title>Node24&#45;&gt;Node23</title>
<path fill="none" stroke="#9a32cd" stroke-dasharray="5,2" d="M783.9269,-175.9391C824.4828,-183.781 875.6078,-193.9847 921,-204 933.5207,-206.7626 946.8898,-209.8853 959.6226,-212.9426"/>
<polygon fill="#9a32cd" stroke="#9a32cd" points="784.3354,-172.4535 773.8537,-173.9978 783.0107,-179.327 784.3354,-172.4535"/>
<text text-anchor="middle" x="869" y="-207" font-family="Helvetica,sans-Serif" font-size="10.00" fill="#000000"> _physicalDeviceInfo</text>
</g>
<!-- Node25 -->
<g id="node23" class="node">
<title>Node25</title>
<g id="a_node23"><a xlink:href="structlug_1_1Graphics_1_1Vulkan_1_1PhysicalDeviceInfo_1_1Swapchain.html" target="_top" xlink:title="lug::Graphics::Vulkan\l::PhysicalDeviceInfo\l::Swapchain">
<polygon fill="none" stroke="#000000" points="324.5,-278.5 324.5,-319.5 451.5,-319.5 451.5,-278.5 324.5,-278.5"/>
<text text-anchor="start" x="332.5" y="-307.5" font-family="Helvetica,sans-Serif" font-size="10.00" fill="#000000">lug::Graphics::Vulkan</text>
<text text-anchor="start" x="332.5" y="-296.5" font-family="Helvetica,sans-Serif" font-size="10.00" fill="#000000">::PhysicalDeviceInfo</text>
<text text-anchor="middle" x="388" y="-285.5" font-family="Helvetica,sans-Serif" font-size="10.00" fill="#000000">::Swapchain</text>
</a>
</g>
</g>
<!-- Node25&#45;&gt;Node24 -->
<g id="edge28" class="edge">
<title>Node25&#45;&gt;Node24</title>
<path fill="none" stroke="#9a32cd" stroke-dasharray="5,2" d="M461.7878,-295.577C507.4263,-289.8166 564.4545,-275.5404 603,-241 619.35,-226.3489 605.3378,-210.3841 621,-195 628.6418,-187.4939 638.1406,-181.6721 648.0609,-177.1631"/>
<polygon fill="#9a32cd" stroke="#9a32cd" points="461.1762,-292.1241 451.6412,-296.7429 461.9754,-299.0784 461.1762,-292.1241"/>
<text text-anchor="middle" x="554.5" y="-290" font-family="Helvetica,sans-Serif" font-size="10.00" fill="#000000"> swapchain</text>
</g>
<!-- Node26 -->
<g id="node24" class="node">
<title>Node26</title>
<polygon fill="none" stroke="#bfbfbf" points="16.5,-248.5 16.5,-267.5 162.5,-267.5 162.5,-248.5 16.5,-248.5"/>
<text text-anchor="middle" x="89.5" y="-255.5" font-family="Helvetica,sans-Serif" font-size="10.00" fill="#000000">VkSurfaceCapabilitiesKHR</text>
</g>
<!-- Node26&#45;&gt;Node25 -->
<g id="edge29" class="edge">
<title>Node26&#45;&gt;Node25</title>
<path fill="none" stroke="#9a32cd" stroke-dasharray="5,2" d="M172.6258,-268.8601C203.2458,-272.9112 238.2093,-277.5966 270,-282 287.6316,-284.4422 306.7338,-287.162 324.3286,-289.6974"/>
<polygon fill="#9a32cd" stroke="#9a32cd" points="172.7912,-265.3516 162.419,-267.5118 171.8745,-272.2913 172.7912,-265.3516"/>
<text text-anchor="middle" x="233.5" y="-285" font-family="Helvetica,sans-Serif" font-size="10.00" fill="#000000"> capabilities</text>
</g>
<!-- Node27 -->
<g id="node25" class="node">
<title>Node27</title>
<polygon fill="none" stroke="#bfbfbf" points="0,-324.5 0,-343.5 179,-343.5 179,-324.5 0,-324.5"/>
<text text-anchor="middle" x="89.5" y="-331.5" font-family="Helvetica,sans-Serif" font-size="10.00" fill="#000000">vector&lt; VkSurfaceFormatKHR &gt;</text>
</g>
<!-- Node27&#45;&gt;Node25 -->
<g id="edge30" class="edge">
<title>Node27&#45;&gt;Node25</title>
<path fill="none" stroke="#9a32cd" stroke-dasharray="5,2" d="M180.7466,-323.3011C227.2052,-317.8537 282.5437,-311.3651 324.3475,-306.4634"/>
<polygon fill="#9a32cd" stroke="#9a32cd" points="180.1965,-319.8415 170.6721,-324.4823 181.0117,-326.7939 180.1965,-319.8415"/>
<text text-anchor="middle" x="233.5" y="-323" font-family="Helvetica,sans-Serif" font-size="10.00" fill="#000000"> formats</text>
</g>
<!-- Node28 -->
<g id="node26" class="node">
<title>Node28</title>
<polygon fill="none" stroke="#bfbfbf" points="4.5,-286.5 4.5,-305.5 174.5,-305.5 174.5,-286.5 4.5,-286.5"/>
<text text-anchor="middle" x="89.5" y="-293.5" font-family="Helvetica,sans-Serif" font-size="10.00" fill="#000000">vector&lt; VkPresentModeKHR &gt;</text>
</g>
<!-- Node28&#45;&gt;Node25 -->
<g id="edge31" class="edge">
<title>Node28&#45;&gt;Node25</title>
<path fill="none" stroke="#9a32cd" stroke-dasharray="5,2" d="M184.8212,-296.958C230.3231,-297.4153 283.5514,-297.9503 324.1102,-298.3579"/>
<polygon fill="#9a32cd" stroke="#9a32cd" points="184.6733,-293.4564 174.6386,-296.8557 184.6029,-300.4561 184.6733,-293.4564"/>
<text text-anchor="middle" x="233.5" y="-300" font-family="Helvetica,sans-Serif" font-size="10.00" fill="#000000"> presentModes</text>
</g>
<!-- Node29 -->
<g id="node27" class="node">
<title>Node29</title>
<polygon fill="none" stroke="#bfbfbf" points="308.5,-229 308.5,-259 467.5,-259 467.5,-229 308.5,-229"/>
<text text-anchor="start" x="316.5" y="-247" font-family="Helvetica,sans-Serif" font-size="10.00" fill="#000000">unordered_map&lt; VkFormat,</text>
<text text-anchor="middle" x="388" y="-236" font-family="Helvetica,sans-Serif" font-size="10.00" fill="#000000"> VkFormatProperties &gt;</text>
</g>
<!-- Node29&#45;&gt;Node24 -->
<g id="edge32" class="edge">
<title>Node29&#45;&gt;Node24</title>
<path fill="none" stroke="#9a32cd" stroke-dasharray="5,2" d="M477.9703,-231.579C516.9186,-224.9928 562.7198,-215.6073 603,-203 611.3549,-200.385 612.8917,-198.3012 621,-195 636.1102,-188.848 652.8437,-182.519 667.6852,-177.0699"/>
<polygon fill="#9a32cd" stroke="#9a32cd" points="476.9964,-228.1924 467.7018,-233.2778 478.139,-235.0985 476.9964,-228.1924"/>
<text text-anchor="middle" x="554.5" y="-229" font-family="Helvetica,sans-Serif" font-size="10.00" fill="#000000"> formatProperties</text>
</g>
<!-- Node30 -->
<g id="node28" class="node">
<title>Node30</title>
<polygon fill="none" stroke="#bfbfbf" points="315,-190.5 315,-209.5 461,-209.5 461,-190.5 315,-190.5"/>
<text text-anchor="middle" x="388" y="-197.5" font-family="Helvetica,sans-Serif" font-size="10.00" fill="#000000">VkPhysicalDeviceFeatures</text>
</g>
<!-- Node30&#45;&gt;Node24 -->
<g id="edge33" class="edge">
<title>Node30&#45;&gt;Node24</title>
<path fill="none" stroke="#9a32cd" stroke-dasharray="5,2" d="M471.1634,-191.7437C511.074,-187.618 559.553,-182.3678 603,-177 617.0555,-175.2635 632.1271,-173.2465 646.3931,-171.2656"/>
<polygon fill="#9a32cd" stroke="#9a32cd" points="470.7988,-188.2627 461.2095,-192.7678 471.5153,-195.2259 470.7988,-188.2627"/>
<text text-anchor="middle" x="554.5" y="-191" font-family="Helvetica,sans-Serif" font-size="10.00" fill="#000000"> features</text>
</g>
<!-- Node31 -->
<g id="node29" class="node">
<title>Node31</title>
<polygon fill="none" stroke="#bfbfbf" points="288,-152.5 288,-171.5 488,-171.5 488,-152.5 288,-152.5"/>
<text text-anchor="middle" x="388" y="-159.5" font-family="Helvetica,sans-Serif" font-size="10.00" fill="#000000">vector&lt; VkQueueFamilyProperties &gt;</text>
</g>
<!-- Node31&#45;&gt;Node24 -->
<g id="edge34" class="edge">
<title>Node31&#45;&gt;Node24</title>
<path fill="none" stroke="#9a32cd" stroke-dasharray="5,2" d="M498.2284,-162C547.6718,-162 604.232,-162 646.4553,-162"/>
<polygon fill="#9a32cd" stroke="#9a32cd" points="498.1178,-158.5001 488.1177,-162 498.1177,-165.5001 498.1178,-158.5001"/>
<text text-anchor="middle" x="554.5" y="-165" font-family="Helvetica,sans-Serif" font-size="10.00" fill="#000000"> queueFamilies</text>
</g>
<!-- Node32 -->
<g id="node30" class="node">
<title>Node32</title>
<polygon fill="none" stroke="#bfbfbf" points="290.5,-114.5 290.5,-133.5 485.5,-133.5 485.5,-114.5 290.5,-114.5"/>
<text text-anchor="middle" x="388" y="-121.5" font-family="Helvetica,sans-Serif" font-size="10.00" fill="#000000">VkPhysicalDeviceMemoryProperties</text>
</g>
<!-- Node32&#45;&gt;Node24 -->
<g id="edge35" class="edge">
<title>Node32&#45;&gt;Node24</title>
<path fill="none" stroke="#9a32cd" stroke-dasharray="5,2" d="M493.534,-134.5945C528.4121,-138.2813 567.3957,-142.6011 603,-147 617.0555,-148.7365 632.1271,-150.7535 646.3931,-152.7344"/>
<polygon fill="#9a32cd" stroke="#9a32cd" points="493.6438,-131.0868 483.3325,-133.5217 492.9116,-138.0484 493.6438,-131.0868"/>
<text text-anchor="middle" x="554.5" y="-150" font-family="Helvetica,sans-Serif" font-size="10.00" fill="#000000"> memoryProperties</text>
</g>
<!-- Node33 -->
<g id="node31" class="node">
<title>Node33</title>
<polygon fill="none" stroke="#bfbfbf" points="336,-76.5 336,-95.5 440,-95.5 440,-76.5 336,-76.5"/>
<text text-anchor="middle" x="388" y="-83.5" font-family="Helvetica,sans-Serif" font-size="10.00" fill="#000000">VkPhysicalDevice</text>
</g>
<!-- Node33&#45;&gt;Node24 -->
<g id="edge36" class="edge">
<title>Node33&#45;&gt;Node24</title>
<path fill="none" stroke="#9a32cd" stroke-dasharray="5,2" d="M450.3935,-93.2273C493.6741,-99.0212 552.4046,-108.4417 603,-122 627.5198,-128.5707 654.2698,-138.5707 674.8899,-146.928"/>
<polygon fill="#9a32cd" stroke="#9a32cd" points="450.6644,-89.733 440.2943,-91.9036 449.7546,-96.6736 450.6644,-89.733"/>
<text text-anchor="middle" x="554.5" y="-125" font-family="Helvetica,sans-Serif" font-size="10.00" fill="#000000"> handle</text>
</g>
<!-- Node34 -->
<g id="node32" class="node">
<title>Node34</title>
<polygon fill="none" stroke="#bfbfbf" points="310.5,-38.5 310.5,-57.5 465.5,-57.5 465.5,-38.5 310.5,-38.5"/>
<text text-anchor="middle" x="388" y="-45.5" font-family="Helvetica,sans-Serif" font-size="10.00" fill="#000000">VkPhysicalDeviceProperties</text>
</g>
<!-- Node34&#45;&gt;Node24 -->
<g id="edge37" class="edge">
<title>Node34&#45;&gt;Node24</title>
<path fill="none" stroke="#9a32cd" stroke-dasharray="5,2" d="M475.6151,-55.8319C515.5888,-61.5202 562.852,-71.2853 603,-88 638.0301,-102.584 673.1643,-129.8956 693.1797,-146.9491"/>
<polygon fill="#9a32cd" stroke="#9a32cd" points="475.9987,-52.3519 465.6181,-54.4718 475.055,-59.288 475.9987,-52.3519"/>
<text text-anchor="middle" x="554.5" y="-91" font-family="Helvetica,sans-Serif" font-size="10.00" fill="#000000"> properties</text>
</g>
<!-- Node35 -->
<g id="node33" class="node">
<title>Node35</title>
<polygon fill="none" stroke="#bfbfbf" points="296,-.5 296,-19.5 480,-19.5 480,-.5 296,-.5"/>
<text text-anchor="middle" x="388" y="-7.5" font-family="Helvetica,sans-Serif" font-size="10.00" fill="#000000">vector&lt; VkExtensionProperties &gt;</text>
</g>
<!-- Node35&#45;&gt;Node24 -->
<g id="edge38" class="edge">
<title>Node35&#45;&gt;Node24</title>
<path fill="none" stroke="#9a32cd" stroke-dasharray="5,2" d="M490.5065,-14.0481C527.686,-18.9386 568.8965,-28.5494 603,-47 647.8528,-71.2662 684.272,-121.4432 700.6458,-146.7289"/>
<polygon fill="#9a32cd" stroke="#9a32cd" points="490.4848,-10.5199 480.1361,-12.7905 489.642,-17.469 490.4848,-10.5199"/>
<text text-anchor="middle" x="554.5" y="-50" font-family="Helvetica,sans-Serif" font-size="10.00" fill="#000000"> extensions</text>
</g>
<!-- Node36 -->
<g id="node34" class="node">
<title>Node36</title>
<polygon fill="none" stroke="#bfbfbf" points="625,-243 625,-273 795,-273 795,-243 625,-243"/>
<text text-anchor="start" x="633" y="-261" font-family="Helvetica,sans-Serif" font-size="10.00" fill="#000000">vector&lt; lug::Graphics</text>
<text text-anchor="middle" x="710" y="-250" font-family="Helvetica,sans-Serif" font-size="10.00" fill="#000000">::Vulkan::API::QueueFamily &gt;</text>
</g>
<!-- Node36&#45;&gt;Node23 -->
<g id="edge39" class="edge">
<title>Node36&#45;&gt;Node23</title>
<path fill="none" stroke="#9a32cd" stroke-dasharray="5,2" d="M805.1124,-248.7956C854.1544,-244.0496 912.6487,-238.3888 956.217,-234.1725"/>
<polygon fill="#9a32cd" stroke="#9a32cd" points="804.7352,-245.3156 795.1189,-249.7627 805.4096,-252.2831 804.7352,-245.3156"/>
<text text-anchor="middle" x="869" y="-250" font-family="Helvetica,sans-Serif" font-size="10.00" fill="#000000"> _queueFamilies</text>
</g>
<!-- Node37 -->
<g id="node35" class="node">
<title>Node37</title>
<polygon fill="none" stroke="#bfbfbf" points="678.5,-204.5 678.5,-223.5 741.5,-223.5 741.5,-204.5 678.5,-204.5"/>
<text text-anchor="middle" x="710" y="-211.5" font-family="Helvetica,sans-Serif" font-size="10.00" fill="#000000">VkDevice</text>
</g>
<!-- Node37&#45;&gt;Node23 -->
<g id="edge40" class="edge">
<title>Node37&#45;&gt;Node23</title>
<path fill="none" stroke="#9a32cd" stroke-dasharray="5,2" d="M752.0313,-215.8982C804.6545,-218.2747 895.2986,-222.3683 956.4236,-225.1288"/>
<polygon fill="#9a32cd" stroke="#9a32cd" points="751.8664,-212.3873 741.7186,-215.4325 751.5505,-219.3801 751.8664,-212.3873"/>
<text text-anchor="middle" x="869" y="-227" font-family="Helvetica,sans-Serif" font-size="10.00" fill="#000000"> _device</text>
</g>
<!-- Node38 -->
<g id="node36" class="node">
<title>Node38</title>
<polygon fill="none" stroke="#bfbfbf" points="1308.5,-334.5 1308.5,-353.5 1376.5,-353.5 1376.5,-334.5 1308.5,-334.5"/>
<text text-anchor="middle" x="1342.5" y="-341.5" font-family="Helvetica,sans-Serif" font-size="10.00" fill="#000000">VkPipeline</text>
</g>
<!-- Node38&#45;&gt;Node20 -->
<g id="edge42" class="edge">
<title>Node38&#45;&gt;Node20</title>
<path fill="none" stroke="#9a32cd" stroke-dasharray="5,2" d="M1386.5141,-338.6122C1430.1204,-333.1483 1498.7744,-324.2069 1558,-315 1563.7748,-314.1023 1569.7628,-313.13 1575.765,-312.1266"/>
<polygon fill="#9a32cd" stroke="#9a32cd" points="1386.0173,-335.147 1376.5273,-339.8576 1386.8835,-342.0932 1386.0173,-335.147"/>
<text text-anchor="middle" x="1498" y="-334" font-family="Helvetica,sans-Serif" font-size="10.00" fill="#000000"> _pipeline</text>
</g>
<!-- Node39&#45;&gt;Node20 -->
<g id="edge43" class="edge">
<title>Node39&#45;&gt;Node20</title>
<path fill="none" stroke="#9a32cd" stroke-dasharray="5,2" d="M1416.4088,-300C1465.2098,-300 1528.6429,-300 1575.9768,-300"/>
<polygon fill="#9a32cd" stroke="#9a32cd" points="1416.2284,-296.5001 1406.2283,-300 1416.2283,-303.5001 1416.2284,-296.5001"/>
<text text-anchor="middle" x="1498" y="-303" font-family="Helvetica,sans-Serif" font-size="10.00" fill="#000000"> _pipelineLayout</text>
</g>
<!-- Node40 -->
<g id="node38" class="node">
<title>Node40</title>
<polygon fill="none" stroke="#bfbfbf" points="939,-331.5 939,-372.5 1101,-372.5 1101,-331.5 939,-331.5"/>
<text text-anchor="start" x="947" y="-360.5" font-family="Helvetica,sans-Serif" font-size="10.00" fill="#000000">vector&lt; lug::Graphics</text>
<text text-anchor="start" x="947" y="-349.5" font-family="Helvetica,sans-Serif" font-size="10.00" fill="#000000">::Vulkan::API::DescriptorSet</text>
<text text-anchor="middle" x="1020" y="-338.5" font-family="Helvetica,sans-Serif" font-size="10.00" fill="#000000">Layout &gt;</text>
</g>
<!-- Node40&#45;&gt;Node39 -->
<g id="edge44" class="edge">
<title>Node40&#45;&gt;Node39</title>
<path fill="none" stroke="#9a32cd" stroke-dasharray="5,2" d="M1111.3118,-338.4148C1152.762,-332.121 1202.3923,-324.4082 1247,-317 1257.3,-315.2894 1268.2125,-313.4103 1278.8367,-311.5445"/>
<polygon fill="#9a32cd" stroke="#9a32cd" points="1110.596,-334.9832 1101.2331,-339.9417 1111.6446,-341.9042 1110.596,-334.9832"/>
<text text-anchor="middle" x="1183" y="-339" font-family="Helvetica,sans-Serif" font-size="10.00" fill="#000000"> _descriptorSetLayouts</text>
</g>
<!-- Node41 -->
<g id="node39" class="node">
<title>Node41</title>
<polygon fill="none" stroke="#bfbfbf" points="969.5,-293.5 969.5,-312.5 1070.5,-312.5 1070.5,-293.5 969.5,-293.5"/>
<text text-anchor="middle" x="1020" y="-300.5" font-family="Helvetica,sans-Serif" font-size="10.00" fill="#000000">VkPipelineLayout</text>
</g>
<!-- Node41&#45;&gt;Node39 -->
<g id="edge45" class="edge">
<title>Node41&#45;&gt;Node39</title>
<path fill="none" stroke="#9a32cd" stroke-dasharray="5,2" d="M1080.9725,-302.4328C1137.5114,-301.9069 1221.3239,-301.1272 1278.7385,-300.5931"/>
<polygon fill="#9a32cd" stroke="#9a32cd" points="1080.7124,-298.935 1070.7454,-302.5279 1080.7776,-305.9347 1080.7124,-298.935"/>
<text text-anchor="middle" x="1183" y="-305" font-family="Helvetica,sans-Serif" font-size="10.00" fill="#000000"> _pipelineLayout</text>
</g>
</g>
</svg>
