<?xml version="1.0" encoding="UTF-8" standalone="no"?>
<!DOCTYPE svg PUBLIC "-//W3C//DTD SVG 1.1//EN"
 "http://www.w3.org/Graphics/SVG/1.1/DTD/svg11.dtd">
<!-- Generated by graphviz version 2.40.1 (20161225.0304)
 -->
<!-- Title: lug::Graphics::Vulkan::Render::Texture Pages: 1 -->
<!--zoomable 831 -->
<svg id="main" version="1.1" xmlns="http://www.w3.org/2000/svg" xmlns:xlink="http://www.w3.org/1999/xlink" xml:space="preserve" onload="init(evt)">
<style type="text/css"><![CDATA[
.edge:hover path { stroke: red; }
.edge:hover polygon { stroke: red; fill: red; }
]]></style>
<script type="text/javascript"><![CDATA[
var edges = document.getElementsByTagName('g');
if (edges && edges.length) {
  for (var i=0;i<edges.length;i++) {
    if (edges[i].id.substr(0,4)=='edge') {
      edges[i].setAttribute('class','edge');
    }
  }
}
]]></script>
        <defs>
                <circle id="rim" cx="0" cy="0" r="7"/>
                <circle id="rim2" cx="0" cy="0" r="3.5"/>
                <g id="zoomPlus">
                        <use xlink:href="#rim" fill="#404040">
                                <set attributeName="fill" to="#808080" begin="zoomplus.mouseover" end="zoomplus.mouseout"/>
                        </use>
                        <path d="M-4,0h8M0,-4v8" fill="none" stroke="white" stroke-width="1.5" pointer-events="none"/>
                </g>
                <g id="zoomMin">
                        <use xlink:href="#rim" fill="#404040">
                                <set attributeName="fill" to="#808080" begin="zoomminus.mouseover" end="zoomminus.mouseout"/>
                        </use>
                        <path d="M-4,0h8" fill="none" stroke="white" stroke-width="1.5" pointer-events="none"/>
                </g>
                <g id="dirArrow">
                        <path fill="none" stroke="white" stroke-width="1.5" d="M0,-3.0v7 M-2.5,-0.5L0,-3.0L2.5,-0.5"/>
                </g>
               <g id="resetDef">
                       <use xlink:href="#rim2" fill="#404040">
                               <set attributeName="fill" to="#808080" begin="reset.mouseover" end="reset.mouseout"/>
                       </use>
               </g>
        </defs>

<script type="text/javascript">
var viewWidth = 2068;
var viewHeight = 831;
var sectionId = 'dynsection-1';
</script>
<script xlink:href="svgpan.js"/>
<svg id="graph" class="graph">
<g id="viewport">
<title>lug::Graphics::Vulkan::Render::Texture</title>
<!-- Node3 -->
<g id="node1" class="node">
<title>Node3</title>
<polygon fill="#bfbfbf" stroke="#000000" points="1933,-453 1933,-483 2060,-483 2060,-453 1933,-453"/>
<text text-anchor="start" x="1941" y="-471" font-family="Helvetica,sans-Serif" font-size="10.00" fill="#000000">lug::Graphics::Vulkan</text>
<text text-anchor="middle" x="1996.5" y="-460" font-family="Helvetica,sans-Serif" font-size="10.00" fill="#000000">::Render::Texture</text>
</g>
<!-- Node4 -->
<g id="node2" class="node">
<title>Node4</title>
<g id="a_node2"><a xlink:href="classlug_1_1Graphics_1_1Render_1_1Texture.html" target="_top" xlink:title="lug::Graphics::Render\l::Texture">
<polygon fill="none" stroke="#000000" points="1704,-88 1704,-118 1832,-118 1832,-88 1704,-88"/>
<text text-anchor="start" x="1712" y="-106" font-family="Helvetica,sans-Serif" font-size="10.00" fill="#000000">lug::Graphics::Render</text>
<text text-anchor="middle" x="1768" y="-95" font-family="Helvetica,sans-Serif" font-size="10.00" fill="#000000">::Texture</text>
</a>
</g>
</g>
<!-- Node4&#45;&gt;Node3 -->
<g id="edge1" class="edge">
<title>Node4&#45;&gt;Node3</title>
<path fill="none" stroke="#191970" d="M1782.8445,-126.7123C1826.1129,-195.8281 1951.2966,-395.7932 1986.9319,-452.7161"/>
<polygon fill="#191970" stroke="#191970" points="1785.8004,-124.8378 1777.5274,-118.2189 1779.8671,-128.5522 1785.8004,-124.8378"/>
</g>
<!-- Node5 -->
<g id="node3" class="node">
<title>Node5</title>
<g id="a_node3"><a xlink:href="classlug_1_1Graphics_1_1Resource.html" target="_top" xlink:title="Class for resource. ">
<polygon fill="none" stroke="#000000" points="1446,-76.5 1446,-95.5 1585,-95.5 1585,-76.5 1446,-76.5"/>
<text text-anchor="middle" x="1515.5" y="-83.5" font-family="Helvetica,sans-Serif" font-size="10.00" fill="#000000">lug::Graphics::Resource</text>
</a>
</g>
</g>
<!-- Node5&#45;&gt;Node4 -->
<g id="edge2" class="edge">
<title>Node5&#45;&gt;Node4</title>
<path fill="none" stroke="#191970" d="M1595.3449,-91.3757C1630.3068,-93.7296 1670.7841,-96.4548 1703.7555,-98.6746"/>
<polygon fill="#191970" stroke="#191970" points="1595.3777,-87.8701 1585.1651,-90.6903 1594.9074,-94.8543 1595.3777,-87.8701"/>
</g>
<!-- Node6 -->
<g id="node4" class="node">
<title>Node6</title>
<g id="a_node4"><a xlink:href="structlug_1_1Graphics_1_1Resource_1_1Handle.html" target="_top" xlink:title="Handle of the resource. It contains informations such as the type and the index in the ResourceManage...">
<polygon fill="none" stroke="#000000" points="1177,-90 1177,-120 1316,-120 1316,-90 1177,-90"/>
<text text-anchor="start" x="1185" y="-108" font-family="Helvetica,sans-Serif" font-size="10.00" fill="#000000">lug::Graphics::Resource</text>
<text text-anchor="middle" x="1246.5" y="-97" font-family="Helvetica,sans-Serif" font-size="10.00" fill="#000000">::Handle</text>
</a>
</g>
</g>
<!-- Node6&#45;&gt;Node5 -->
<g id="edge3" class="edge">
<title>Node6&#45;&gt;Node5</title>
<path fill="none" stroke="#9a32cd" stroke-dasharray="5,2" d="M1326.122,-99.3761C1364.0863,-96.6946 1409.0913,-93.5159 1445.7009,-90.93"/>
<polygon fill="#9a32cd" stroke="#9a32cd" points="1325.8525,-95.8864 1316.124,-100.0823 1326.3458,-102.869 1325.8525,-95.8864"/>
<text text-anchor="middle" x="1381" y="-101" font-family="Helvetica,sans-Serif" font-size="10.00" fill="#000000"> _handle</text>
</g>
<!-- Node7 -->
<g id="node5" class="node">
<title>Node7</title>
<polygon fill="none" stroke="#bfbfbf" points="966,-157.5 966,-176.5 1023,-176.5 1023,-157.5 966,-157.5"/>
<text text-anchor="middle" x="994.5" y="-164.5" font-family="Helvetica,sans-Serif" font-size="10.00" fill="#000000">uint32_t</text>
</g>
<!-- Node7&#45;&gt;Node4 -->
<g id="edge8" class="edge">
<title>Node7&#45;&gt;Node4</title>
<path fill="none" stroke="#9a32cd" stroke-dasharray="5,2" d="M1033.2245,-167.3931C1169.6955,-168.6165 1623.4389,-171.2544 1686,-153 1710.0097,-145.9944 1734.0355,-130.0323 1749.8154,-118.0148"/>
<polygon fill="#9a32cd" stroke="#9a32cd" points="1033.2489,-163.8932 1023.217,-167.3007 1033.1843,-170.8929 1033.2489,-163.8932"/>
<text text-anchor="middle" x="1381" y="-181" font-family="Helvetica,sans-Serif" font-size="10.00" fill="#000000"> _width</text>
<text text-anchor="middle" x="1381" y="-170" font-family="Helvetica,sans-Serif" font-size="10.00" fill="#000000">_height</text>
</g>
<!-- Node7&#45;&gt;Node6 -->
<g id="edge4" class="edge">
<title>Node7&#45;&gt;Node6</title>
<path fill="none" stroke="#9a32cd" stroke-dasharray="5,2" d="M1015.3951,-151.5142C1031.1885,-140.6935 1053.8628,-126.9797 1076,-120 1108.1657,-109.8584 1145.3242,-105.7611 1176.7256,-104.3419"/>
<polygon fill="#9a32cd" stroke="#9a32cd" points="1013.0981,-148.8514 1006.9474,-157.4781 1017.1353,-154.57 1013.0981,-148.8514"/>
<text text-anchor="middle" x="1117.5" y="-145" font-family="Helvetica,sans-Serif" font-size="10.00" fill="#000000"> value</text>
<text text-anchor="middle" x="1117.5" y="-134" font-family="Helvetica,sans-Serif" font-size="10.00" fill="#000000">type</text>
<text text-anchor="middle" x="1117.5" y="-123" font-family="Helvetica,sans-Serif" font-size="10.00" fill="#000000">index</text>
</g>
<!-- Node35 -->
<g id="node33" class="node">
<title>Node35</title>
<g id="a_node33"><a xlink:href="structlug_1_1Graphics_1_1Vulkan_1_1API_1_1Image_1_1Extent.html" target="_top" xlink:title="lug::Graphics::Vulkan\l::API::Image::Extent">
<polygon fill="none" stroke="#000000" points="1183,-196 1183,-226 1310,-226 1310,-196 1183,-196"/>
<text text-anchor="start" x="1191" y="-214" font-family="Helvetica,sans-Serif" font-size="10.00" fill="#000000">lug::Graphics::Vulkan</text>
<text text-anchor="middle" x="1246.5" y="-203" font-family="Helvetica,sans-Serif" font-size="10.00" fill="#000000">::API::Image::Extent</text>
</a>
</g>
</g>
<!-- Node7&#45;&gt;Node35 -->
<g id="edge35" class="edge">
<title>Node7&#45;&gt;Node35</title>
<path fill="none" stroke="#9a32cd" stroke-dasharray="5,2" d="M1033.2637,-173.7683C1073.0903,-180.7221 1135.7538,-191.6634 1182.864,-199.8889"/>
<polygon fill="#9a32cd" stroke="#9a32cd" points="1033.8606,-170.3196 1023.4076,-172.0474 1032.6565,-177.2153 1033.8606,-170.3196"/>
<text text-anchor="middle" x="1117.5" y="-209" font-family="Helvetica,sans-Serif" font-size="10.00" fill="#000000"> width</text>
<text text-anchor="middle" x="1117.5" y="-198" font-family="Helvetica,sans-Serif" font-size="10.00" fill="#000000">height</text>
</g>
<!-- Node8 -->
<g id="node6" class="node">
<title>Node8</title>
<polygon fill="none" stroke="#bfbfbf" points="947.5,-75.5 947.5,-94.5 1041.5,-94.5 1041.5,-75.5 947.5,-75.5"/>
<text text-anchor="middle" x="994.5" y="-82.5" font-family="Helvetica,sans-Serif" font-size="10.00" fill="#000000">anonymous:@5</text>
</g>
<!-- Node8&#45;&gt;Node6 -->
<g id="edge5" class="edge">
<title>Node8&#45;&gt;Node6</title>
<path fill="none" stroke="#9a32cd" stroke-dasharray="5,2" d="M1052.1975,-82.431C1083.8275,-81.7555 1123.6769,-82.1005 1159,-86 1167.4981,-86.9382 1176.3835,-88.3502 1185.0975,-89.9892"/>
<polygon fill="#9a32cd" stroke="#9a32cd" points="1051.712,-78.9421 1041.8043,-82.6955 1051.8901,-85.9399 1051.712,-78.9421"/>
<text text-anchor="middle" x="1117.5" y="-89" font-family="Helvetica,sans-Serif" font-size="10.00" fill="#000000"> @5</text>
</g>
<!-- Node9 -->
<g id="node7" class="node">
<title>Node9</title>
<polygon fill="none" stroke="#bfbfbf" points="1224,-51.5 1224,-70.5 1269,-70.5 1269,-51.5 1224,-51.5"/>
<text text-anchor="middle" x="1246.5" y="-58.5" font-family="Helvetica,sans-Serif" font-size="10.00" fill="#000000">string</text>
</g>
<!-- Node9&#45;&gt;Node5 -->
<g id="edge6" class="edge">
<title>Node9&#45;&gt;Node5</title>
<path fill="none" stroke="#9a32cd" stroke-dasharray="5,2" d="M1279.1739,-63.7361C1315.5212,-66.8134 1375.9817,-72.0322 1428,-77 1433.7767,-77.5517 1439.7665,-78.1379 1445.7786,-78.7362"/>
<polygon fill="#9a32cd" stroke="#9a32cd" points="1279.4053,-60.2433 1269.1463,-62.8897 1278.8164,-67.2185 1279.4053,-60.2433"/>
<text text-anchor="middle" x="1381" y="-80" font-family="Helvetica,sans-Serif" font-size="10.00" fill="#000000"> _name</text>
</g>
<!-- Node10 -->
<g id="node8" class="node">
<title>Node10</title>
<polygon fill="none" stroke="#bfbfbf" points="1489.5,-.5 1489.5,-19.5 1541.5,-19.5 1541.5,-.5 1489.5,-.5"/>
<text text-anchor="middle" x="1515.5" y="-7.5" font-family="Helvetica,sans-Serif" font-size="10.00" fill="#000000">Format</text>
</g>
<!-- Node10&#45;&gt;Node4 -->
<g id="edge7" class="edge">
<title>Node10&#45;&gt;Node4</title>
<path fill="none" stroke="#9a32cd" stroke-dasharray="5,2" d="M1551.9205,-10.0519C1587.5409,-11.3457 1642.6048,-16.7147 1686,-36 1713.3834,-48.1695 1739.1395,-72.0044 1754.2389,-87.7159"/>
<polygon fill="#9a32cd" stroke="#9a32cd" points="1551.6157,-6.5425 1541.5246,-9.7703 1551.4261,-13.5399 1551.6157,-6.5425"/>
<text text-anchor="middle" x="1644.5" y="-39" font-family="Helvetica,sans-Serif" font-size="10.00" fill="#000000"> _format</text>
</g>
<!-- Node11 -->
<g id="node9" class="node">
<title>Node11</title>
<polygon fill="none" stroke="#bfbfbf" points="1494.5,-114.5 1494.5,-133.5 1536.5,-133.5 1536.5,-114.5 1494.5,-114.5"/>
<text text-anchor="middle" x="1515.5" y="-121.5" font-family="Helvetica,sans-Serif" font-size="10.00" fill="#000000">Filter</text>
</g>
<!-- Node11&#45;&gt;Node4 -->
<g id="edge9" class="edge">
<title>Node11&#45;&gt;Node4</title>
<path fill="none" stroke="#9a32cd" stroke-dasharray="5,2" d="M1546.813,-121.3957C1585.8803,-118.1466 1653.6554,-112.5098 1703.9151,-108.3298"/>
<polygon fill="#9a32cd" stroke="#9a32cd" points="1546.2692,-117.9288 1536.5937,-122.2457 1546.8494,-124.9047 1546.2692,-117.9288"/>
<text text-anchor="middle" x="1644.5" y="-141" font-family="Helvetica,sans-Serif" font-size="10.00" fill="#000000"> _magFilter</text>
<text text-anchor="middle" x="1644.5" y="-130" font-family="Helvetica,sans-Serif" font-size="10.00" fill="#000000">_mipMapFilter</text>
<text text-anchor="middle" x="1644.5" y="-119" font-family="Helvetica,sans-Serif" font-size="10.00" fill="#000000">_minFilter</text>
</g>
<!-- Node12 -->
<g id="node10" class="node">
<title>Node12</title>
<polygon fill="none" stroke="#bfbfbf" points="1470.5,-38.5 1470.5,-57.5 1560.5,-57.5 1560.5,-38.5 1470.5,-38.5"/>
<text text-anchor="middle" x="1515.5" y="-45.5" font-family="Helvetica,sans-Serif" font-size="10.00" fill="#000000">WrappingMode</text>
</g>
<!-- Node12&#45;&gt;Node4 -->
<g id="edge10" class="edge">
<title>Node12&#45;&gt;Node4</title>
<path fill="none" stroke="#9a32cd" stroke-dasharray="5,2" d="M1570.902,-48.858C1604.6741,-50.5231 1648.4216,-54.7346 1686,-65 1705.3739,-70.2924 1725.8739,-79.7924 1741.5304,-87.9693"/>
<polygon fill="#9a32cd" stroke="#9a32cd" points="1570.9011,-45.3548 1560.7591,-48.4192 1570.5984,-52.3483 1570.9011,-45.3548"/>
<text text-anchor="middle" x="1644.5" y="-79" font-family="Helvetica,sans-Serif" font-size="10.00" fill="#000000"> _wrapS</text>
<text text-anchor="middle" x="1644.5" y="-68" font-family="Helvetica,sans-Serif" font-size="10.00" fill="#000000">_wrapT</text>
</g>
<!-- Node13 -->
<g id="node11" class="node">
<title>Node13</title>
<g id="a_node11"><a xlink:href="classlug_1_1Graphics_1_1Vulkan_1_1API_1_1Sampler.html" target="_top" xlink:title="lug::Graphics::Vulkan\l::API::Sampler">
<polygon fill="none" stroke="#000000" points="1183,-618 1183,-648 1310,-648 1310,-618 1183,-618"/>
<text text-anchor="start" x="1191" y="-636" font-family="Helvetica,sans-Serif" font-size="10.00" fill="#000000">lug::Graphics::Vulkan</text>
<text text-anchor="middle" x="1246.5" y="-625" font-family="Helvetica,sans-Serif" font-size="10.00" fill="#000000">::API::Sampler</text>
</a>
</g>
</g>
<!-- Node13&#45;&gt;Node3 -->
<g id="edge11" class="edge">
<title>Node13&#45;&gt;Node3</title>
<path fill="none" stroke="#9a32cd" stroke-dasharray="5,2" d="M1320.4226,-629.357C1389.4382,-624.9636 1495.0136,-615.6977 1585,-597 1725.0096,-567.9083 1885.1625,-510.4183 1957.464,-483.0996"/>
<polygon fill="#9a32cd" stroke="#9a32cd" points="1319.855,-625.8853 1310.09,-629.9956 1320.2869,-632.8719 1319.855,-625.8853"/>
<text text-anchor="middle" x="1644.5" y="-595" font-family="Helvetica,sans-Serif" font-size="10.00" fill="#000000"> _sampler</text>
</g>
<!-- Node14 -->
<g id="node12" class="node">
<title>Node14</title>
<polygon fill="none" stroke="#bfbfbf" points="959,-646.5 959,-665.5 1030,-665.5 1030,-646.5 959,-646.5"/>
<text text-anchor="middle" x="994.5" y="-653.5" font-family="Helvetica,sans-Serif" font-size="10.00" fill="#000000">VkSampler</text>
</g>
<!-- Node14&#45;&gt;Node13 -->
<g id="edge12" class="edge">
<title>Node14&#45;&gt;Node13</title>
<path fill="none" stroke="#9a32cd" stroke-dasharray="5,2" d="M1040.0517,-651.8425C1079.9637,-648.1997 1138.3863,-642.8675 1182.9047,-638.8043"/>
<polygon fill="#9a32cd" stroke="#9a32cd" points="1039.7114,-648.3589 1030.071,-652.7534 1040.3477,-655.3299 1039.7114,-648.3589"/>
<text text-anchor="middle" x="1117.5" y="-651" font-family="Helvetica,sans-Serif" font-size="10.00" fill="#000000"> _sampler</text>
</g>
<!-- Node15 -->
<g id="node13" class="node">
<title>Node15</title>
<g id="a_node13"><a xlink:href="classlug_1_1Graphics_1_1Vulkan_1_1API_1_1Device.html" target="_top" xlink:title="lug::Graphics::Vulkan\l::API::Device">
<polygon fill="none" stroke="#000000" points="931,-555 931,-585 1058,-585 1058,-555 931,-555"/>
<text text-anchor="start" x="939" y="-573" font-family="Helvetica,sans-Serif" font-size="10.00" fill="#000000">lug::Graphics::Vulkan</text>
<text text-anchor="middle" x="994.5" y="-562" font-family="Helvetica,sans-Serif" font-size="10.00" fill="#000000">::API::Device</text>
</a>
</g>
</g>
<!-- Node15&#45;&gt;Node13 -->
<g id="edge13" class="edge">
<title>Node15&#45;&gt;Node13</title>
<path fill="none" stroke="#9a32cd" stroke-dasharray="5,2" d="M1041.099,-588.6213C1052.4068,-592.7302 1064.5424,-596.805 1076,-600 1110.8504,-609.7182 1150.492,-617.5765 1182.7754,-623.1833"/>
<polygon fill="#9a32cd" stroke="#9a32cd" points="1042.0058,-585.2245 1031.4129,-585.0228 1039.568,-591.7863 1042.0058,-585.2245"/>
<text text-anchor="middle" x="1117.5" y="-621" font-family="Helvetica,sans-Serif" font-size="10.00" fill="#000000"> _device</text>
</g>
<!-- Node30 -->
<g id="node28" class="node">
<title>Node30</title>
<g id="a_node28"><a xlink:href="classlug_1_1Graphics_1_1Vulkan_1_1API_1_1ImageView.html" target="_top" xlink:title="lug::Graphics::Vulkan\l::API::ImageView">
<polygon fill="none" stroke="#000000" points="1704.5,-401 1704.5,-431 1831.5,-431 1831.5,-401 1704.5,-401"/>
<text text-anchor="start" x="1712.5" y="-419" font-family="Helvetica,sans-Serif" font-size="10.00" fill="#000000">lug::Graphics::Vulkan</text>
<text text-anchor="middle" x="1768" y="-408" font-family="Helvetica,sans-Serif" font-size="10.00" fill="#000000">::API::ImageView</text>
</a>
</g>
</g>
<!-- Node15&#45;&gt;Node30 -->
<g id="edge30" class="edge">
<title>Node15&#45;&gt;Node30</title>
<path fill="none" stroke="#9a32cd" stroke-dasharray="5,2" d="M1068.4046,-571.3407C1096.7411,-571.6209 1129.3746,-571.6601 1159,-571 1395.1054,-565.7391 1510.0185,-660.4927 1686,-503 1708.0182,-483.295 1683.8593,-460.6204 1704,-439 1706.8167,-435.9763 1710.0596,-433.3495 1713.5593,-431.0676"/>
<polygon fill="#9a32cd" stroke="#9a32cd" points="1068.2109,-567.8385 1058.1728,-571.2275 1068.1334,-574.838 1068.2109,-567.8385"/>
<text text-anchor="middle" x="1381" y="-595" font-family="Helvetica,sans-Serif" font-size="10.00" fill="#000000"> _device</text>
</g>
<!-- Node32 -->
<g id="node30" class="node">
<title>Node32</title>
<g id="a_node30"><a xlink:href="classlug_1_1Graphics_1_1Vulkan_1_1API_1_1Image.html" target="_top" xlink:title="lug::Graphics::Vulkan\l::API::Image">
<polygon fill="none" stroke="#000000" points="1452,-401 1452,-431 1579,-431 1579,-401 1452,-401"/>
<text text-anchor="start" x="1460" y="-419" font-family="Helvetica,sans-Serif" font-size="10.00" fill="#000000">lug::Graphics::Vulkan</text>
<text text-anchor="middle" x="1515.5" y="-408" font-family="Helvetica,sans-Serif" font-size="10.00" fill="#000000">::API::Image</text>
</a>
</g>
</g>
<!-- Node15&#45;&gt;Node32 -->
<g id="edge38" class="edge">
<title>Node15&#45;&gt;Node32</title>
<path fill="none" stroke="#9a32cd" stroke-dasharray="5,2" d="M1068.3379,-562.8606C1175.2239,-551.5833 1366.948,-527.5397 1428,-495 1458.7041,-478.6352 1487.215,-449.1676 1502.9056,-431.2158"/>
<polygon fill="#9a32cd" stroke="#9a32cd" points="1067.8487,-559.3926 1058.2661,-563.912 1068.5755,-566.3548 1067.8487,-559.3926"/>
<text text-anchor="middle" x="1246.5" y="-552" font-family="Helvetica,sans-Serif" font-size="10.00" fill="#000000"> _device</text>
</g>
<!-- Node40 -->
<g id="node38" class="node">
<title>Node40</title>
<g id="a_node38"><a xlink:href="classlug_1_1Graphics_1_1Vulkan_1_1API_1_1DeviceMemory.html" target="_top" xlink:title="lug::Graphics::Vulkan\l::API::DeviceMemory">
<polygon fill="none" stroke="#000000" points="1183,-483 1183,-513 1310,-513 1310,-483 1183,-483"/>
<text text-anchor="start" x="1191" y="-501" font-family="Helvetica,sans-Serif" font-size="10.00" fill="#000000">lug::Graphics::Vulkan</text>
<text text-anchor="middle" x="1246.5" y="-490" font-family="Helvetica,sans-Serif" font-size="10.00" fill="#000000">::API::DeviceMemory</text>
</a>
</g>
</g>
<!-- Node15&#45;&gt;Node40 -->
<g id="edge42" class="edge">
<title>Node15&#45;&gt;Node40</title>
<path fill="none" stroke="#9a32cd" stroke-dasharray="5,2" d="M1025.3956,-549.6031C1040.1537,-540.7491 1058.4036,-531.0424 1076,-525 1110.2974,-513.2227 1150.2634,-506.5467 1182.8772,-502.7808"/>
<polygon fill="#9a32cd" stroke="#9a32cd" points="1023.3717,-546.7391 1016.695,-554.9655 1027.0444,-552.6983 1023.3717,-546.7391"/>
<text text-anchor="middle" x="1117.5" y="-528" font-family="Helvetica,sans-Serif" font-size="10.00" fill="#000000"> _device</text>
</g>
<!-- Node16 -->
<g id="node14" class="node">
<title>Node16</title>
<g id="a_node14"><a xlink:href="structlug_1_1Graphics_1_1Vulkan_1_1PhysicalDeviceInfo.html" target="_top" xlink:title="lug::Graphics::Vulkan\l::PhysicalDeviceInfo">
<polygon fill="none" stroke="#000000" points="642.5,-604 642.5,-634 769.5,-634 769.5,-604 642.5,-604"/>
<text text-anchor="start" x="650.5" y="-622" font-family="Helvetica,sans-Serif" font-size="10.00" fill="#000000">lug::Graphics::Vulkan</text>
<text text-anchor="middle" x="706" y="-611" font-family="Helvetica,sans-Serif" font-size="10.00" fill="#000000">::PhysicalDeviceInfo</text>
</a>
</g>
</g>
<!-- Node16&#45;&gt;Node15 -->
<g id="edge14" class="edge">
<title>Node16&#45;&gt;Node15</title>
<path fill="none" stroke="#9a32cd" stroke-dasharray="5,2" d="M780.0102,-607.1973C819.5121,-600.8086 868.937,-592.6728 913,-585 918.8112,-583.9881 924.8515,-582.9155 930.8984,-581.8277"/>
<polygon fill="#9a32cd" stroke="#9a32cd" points="779.2445,-603.7756 769.9301,-608.8246 780.3601,-610.6861 779.2445,-603.7756"/>
<text text-anchor="middle" x="861" y="-605" font-family="Helvetica,sans-Serif" font-size="10.00" fill="#000000"> _physicalDeviceInfo</text>
</g>
<!-- Node17 -->
<g id="node15" class="node">
<title>Node17</title>
<g id="a_node15"><a xlink:href="structlug_1_1Graphics_1_1Vulkan_1_1PhysicalDeviceInfo_1_1Swapchain.html" target="_top" xlink:title="lug::Graphics::Vulkan\l::PhysicalDeviceInfo\l::Swapchain">
<polygon fill="none" stroke="#000000" points="324.5,-754.5 324.5,-795.5 451.5,-795.5 451.5,-754.5 324.5,-754.5"/>
<text text-anchor="start" x="332.5" y="-783.5" font-family="Helvetica,sans-Serif" font-size="10.00" fill="#000000">lug::Graphics::Vulkan</text>
<text text-anchor="start" x="332.5" y="-772.5" font-family="Helvetica,sans-Serif" font-size="10.00" fill="#000000">::PhysicalDeviceInfo</text>
<text text-anchor="middle" x="388" y="-761.5" font-family="Helvetica,sans-Serif" font-size="10.00" fill="#000000">::Swapchain</text>
</a>
</g>
</g>
<!-- Node17&#45;&gt;Node16 -->
<g id="edge15" class="edge">
<title>Node17&#45;&gt;Node16</title>
<path fill="none" stroke="#9a32cd" stroke-dasharray="5,2" d="M461.6295,-763.495C504.7948,-754.5982 559.2582,-739.5358 603,-715 641.1623,-693.5939 676.3144,-655.1878 694.0081,-634.0208"/>
<polygon fill="#9a32cd" stroke="#9a32cd" points="460.881,-760.0752 451.7585,-765.4633 462.2499,-766.9401 460.881,-760.0752"/>
<text text-anchor="middle" x="554.5" y="-755" font-family="Helvetica,sans-Serif" font-size="10.00" fill="#000000"> swapchain</text>
</g>
<!-- Node18 -->
<g id="node16" class="node">
<title>Node18</title>
<polygon fill="none" stroke="#bfbfbf" points="16.5,-803.5 16.5,-822.5 162.5,-822.5 162.5,-803.5 16.5,-803.5"/>
<text text-anchor="middle" x="89.5" y="-810.5" font-family="Helvetica,sans-Serif" font-size="10.00" fill="#000000">VkSurfaceCapabilitiesKHR</text>
</g>
<!-- Node18&#45;&gt;Node17 -->
<g id="edge16" class="edge">
<title>Node18&#45;&gt;Node17</title>
<path fill="none" stroke="#9a32cd" stroke-dasharray="5,2" d="M172.5828,-802.4233C220.5932,-796.3114 280.0566,-788.7415 324.3375,-783.1044"/>
<polygon fill="#9a32cd" stroke="#9a32cd" points="171.9992,-798.9692 162.5213,-803.7042 172.8833,-805.9132 171.9992,-798.9692"/>
<text text-anchor="middle" x="233.5" y="-801" font-family="Helvetica,sans-Serif" font-size="10.00" fill="#000000"> capabilities</text>
</g>
<!-- Node19 -->
<g id="node17" class="node">
<title>Node19</title>
<polygon fill="none" stroke="#bfbfbf" points="0,-765.5 0,-784.5 179,-784.5 179,-765.5 0,-765.5"/>
<text text-anchor="middle" x="89.5" y="-772.5" font-family="Helvetica,sans-Serif" font-size="10.00" fill="#000000">vector&lt; VkSurfaceFormatKHR &gt;</text>
</g>
<!-- Node19&#45;&gt;Node17 -->
<g id="edge17" class="edge">
<title>Node19&#45;&gt;Node17</title>
<path fill="none" stroke="#9a32cd" stroke-dasharray="5,2" d="M189.3241,-775C233.799,-775 284.8747,-775 324.1016,-775"/>
<polygon fill="#9a32cd" stroke="#9a32cd" points="189.0599,-771.5001 179.0598,-775 189.0598,-778.5001 189.0599,-771.5001"/>
<text text-anchor="middle" x="233.5" y="-778" font-family="Helvetica,sans-Serif" font-size="10.00" fill="#000000"> formats</text>
</g>
<!-- Node20 -->
<g id="node18" class="node">
<title>Node20</title>
<polygon fill="none" stroke="#bfbfbf" points="4.5,-727.5 4.5,-746.5 174.5,-746.5 174.5,-727.5 4.5,-727.5"/>
<text text-anchor="middle" x="89.5" y="-734.5" font-family="Helvetica,sans-Serif" font-size="10.00" fill="#000000">vector&lt; VkPresentModeKHR &gt;</text>
</g>
<!-- Node20&#45;&gt;Node17 -->
<g id="edge18" class="edge">
<title>Node20&#45;&gt;Node17</title>
<path fill="none" stroke="#9a32cd" stroke-dasharray="5,2" d="M174.4265,-747.8114C222.0428,-753.8731 280.4605,-761.3099 324.1567,-766.8725"/>
<polygon fill="#9a32cd" stroke="#9a32cd" points="174.8008,-744.3309 164.4389,-746.54 173.9168,-751.2749 174.8008,-744.3309"/>
<text text-anchor="middle" x="233.5" y="-762" font-family="Helvetica,sans-Serif" font-size="10.00" fill="#000000"> presentModes</text>
</g>
<!-- Node21 -->
<g id="node19" class="node">
<title>Node21</title>
<polygon fill="none" stroke="#bfbfbf" points="308.5,-705 308.5,-735 467.5,-735 467.5,-705 308.5,-705"/>
<text text-anchor="start" x="316.5" y="-723" font-family="Helvetica,sans-Serif" font-size="10.00" fill="#000000">unordered_map&lt; VkFormat,</text>
<text text-anchor="middle" x="388" y="-712" font-family="Helvetica,sans-Serif" font-size="10.00" fill="#000000"> VkFormatProperties &gt;</text>
</g>
<!-- Node21&#45;&gt;Node16 -->
<g id="edge19" class="edge">
<title>Node21&#45;&gt;Node16</title>
<path fill="none" stroke="#9a32cd" stroke-dasharray="5,2" d="M477.7382,-707.2435C516.9352,-700.144 562.9918,-689.7019 603,-675 631.8484,-664.399 662.5,-646.8206 682.7908,-634.1842"/>
<polygon fill="#9a32cd" stroke="#9a32cd" points="476.9054,-703.8363 467.6664,-709.0221 478.1227,-710.7297 476.9054,-703.8363"/>
<text text-anchor="middle" x="554.5" y="-703" font-family="Helvetica,sans-Serif" font-size="10.00" fill="#000000"> formatProperties</text>
</g>
<!-- Node22 -->
<g id="node20" class="node">
<title>Node22</title>
<polygon fill="none" stroke="#bfbfbf" points="315,-666.5 315,-685.5 461,-685.5 461,-666.5 315,-666.5"/>
<text text-anchor="middle" x="388" y="-673.5" font-family="Helvetica,sans-Serif" font-size="10.00" fill="#000000">VkPhysicalDeviceFeatures</text>
</g>
<!-- Node22&#45;&gt;Node16 -->
<g id="edge20" class="edge">
<title>Node22&#45;&gt;Node16</title>
<path fill="none" stroke="#9a32cd" stroke-dasharray="5,2" d="M471.4332,-666.0252C511.4044,-660.7232 559.8563,-653.5316 603,-645 618.65,-641.9052 635.4836,-637.9334 650.9141,-634.0306"/>
<polygon fill="#9a32cd" stroke="#9a32cd" points="470.9225,-662.5622 461.4622,-667.3322 471.8322,-669.5028 470.9225,-662.5622"/>
<text text-anchor="middle" x="554.5" y="-663" font-family="Helvetica,sans-Serif" font-size="10.00" fill="#000000"> features</text>
</g>
<!-- Node23 -->
<g id="node21" class="node">
<title>Node23</title>
<polygon fill="none" stroke="#bfbfbf" points="288,-628.5 288,-647.5 488,-647.5 488,-628.5 288,-628.5"/>
<text text-anchor="middle" x="388" y="-635.5" font-family="Helvetica,sans-Serif" font-size="10.00" fill="#000000">vector&lt; VkQueueFamilyProperties &gt;</text>
</g>
<!-- Node23&#45;&gt;Node16 -->
<g id="edge21" class="edge">
<title>Node23&#45;&gt;Node16</title>
<path fill="none" stroke="#9a32cd" stroke-dasharray="5,2" d="M498.3415,-631.4073C546.4596,-628.5323 601.1572,-625.2642 642.3325,-622.804"/>
<polygon fill="#9a32cd" stroke="#9a32cd" points="497.9541,-627.9241 488.1807,-632.0144 498.3717,-634.9116 497.9541,-627.9241"/>
<text text-anchor="middle" x="554.5" y="-633" font-family="Helvetica,sans-Serif" font-size="10.00" fill="#000000"> queueFamilies</text>
</g>
<!-- Node24 -->
<g id="node22" class="node">
<title>Node24</title>
<polygon fill="none" stroke="#bfbfbf" points="290.5,-590.5 290.5,-609.5 485.5,-609.5 485.5,-590.5 290.5,-590.5"/>
<text text-anchor="middle" x="388" y="-597.5" font-family="Helvetica,sans-Serif" font-size="10.00" fill="#000000">VkPhysicalDeviceMemoryProperties</text>
</g>
<!-- Node24&#45;&gt;Node16 -->
<g id="edge22" class="edge">
<title>Node24&#45;&gt;Node16</title>
<path fill="none" stroke="#9a32cd" stroke-dasharray="5,2" d="M495.751,-604.1518C530.0489,-605.7038 568.1331,-607.6668 603,-610 615.7161,-610.8509 629.3015,-611.9221 642.2958,-613.026"/>
<polygon fill="#9a32cd" stroke="#9a32cd" points="495.8574,-600.6532 485.7115,-603.7043 495.5457,-607.6463 495.8574,-600.6532"/>
<text text-anchor="middle" x="554.5" y="-613" font-family="Helvetica,sans-Serif" font-size="10.00" fill="#000000"> memoryProperties</text>
</g>
<!-- Node25 -->
<g id="node23" class="node">
<title>Node25</title>
<polygon fill="none" stroke="#bfbfbf" points="336,-552.5 336,-571.5 440,-571.5 440,-552.5 336,-552.5"/>
<text text-anchor="middle" x="388" y="-559.5" font-family="Helvetica,sans-Serif" font-size="10.00" fill="#000000">VkPhysicalDevice</text>
</g>
<!-- Node25&#45;&gt;Node16 -->
<g id="edge23" class="edge">
<title>Node25&#45;&gt;Node16</title>
<path fill="none" stroke="#9a32cd" stroke-dasharray="5,2" d="M450.2805,-566.5574C493.51,-570.5133 552.2261,-577.4678 603,-589 611.2233,-590.8677 612.9401,-592.5203 621,-595 630.6729,-597.976 641.008,-601.0127 651.0208,-603.881"/>
<polygon fill="#9a32cd" stroke="#9a32cd" points="450.4643,-563.0601 440.1942,-565.663 449.8459,-570.0327 450.4643,-563.0601"/>
<text text-anchor="middle" x="554.5" y="-592" font-family="Helvetica,sans-Serif" font-size="10.00" fill="#000000"> handle</text>
</g>
<!-- Node26 -->
<g id="node24" class="node">
<title>Node26</title>
<polygon fill="none" stroke="#bfbfbf" points="310.5,-514.5 310.5,-533.5 465.5,-533.5 465.5,-514.5 310.5,-514.5"/>
<text text-anchor="middle" x="388" y="-521.5" font-family="Helvetica,sans-Serif" font-size="10.00" fill="#000000">VkPhysicalDeviceProperties</text>
</g>
<!-- Node26&#45;&gt;Node16 -->
<g id="edge24" class="edge">
<title>Node26&#45;&gt;Node16</title>
<path fill="none" stroke="#9a32cd" stroke-dasharray="5,2" d="M475.8296,-519.7988C517.9094,-522.0171 566.8779,-531.2496 603,-558 617.6961,-568.8833 606.9733,-583.2667 621,-595 627.2336,-600.2144 634.5294,-604.2984 642.1803,-607.4965"/>
<polygon fill="#9a32cd" stroke="#9a32cd" points="475.7048,-516.2911 465.5725,-519.3873 475.4241,-523.2854 475.7048,-516.2911"/>
<text text-anchor="middle" x="554.5" y="-561" font-family="Helvetica,sans-Serif" font-size="10.00" fill="#000000"> properties</text>
</g>
<!-- Node27 -->
<g id="node25" class="node">
<title>Node27</title>
<polygon fill="none" stroke="#bfbfbf" points="296,-476.5 296,-495.5 480,-495.5 480,-476.5 296,-476.5"/>
<text text-anchor="middle" x="388" y="-483.5" font-family="Helvetica,sans-Serif" font-size="10.00" fill="#000000">vector&lt; VkExtensionProperties &gt;</text>
</g>
<!-- Node27&#45;&gt;Node16 -->
<g id="edge25" class="edge">
<title>Node27&#45;&gt;Node16</title>
<path fill="none" stroke="#9a32cd" stroke-dasharray="5,2" d="M444.0509,-475.094C492.2349,-469.1871 560.4888,-469.6197 603,-508 632.3082,-534.4602 594.0905,-566.1038 621,-595 626.852,-601.2841 634.2112,-605.9673 642.1381,-609.4494"/>
<polygon fill="#9a32cd" stroke="#9a32cd" points="443.5316,-471.6323 434.0901,-476.4393 444.4686,-478.5693 443.5316,-471.6323"/>
<text text-anchor="middle" x="554.5" y="-511" font-family="Helvetica,sans-Serif" font-size="10.00" fill="#000000"> extensions</text>
</g>
<!-- Node28 -->
<g id="node26" class="node">
<title>Node28</title>
<polygon fill="none" stroke="#bfbfbf" points="621,-555 621,-585 791,-585 791,-555 621,-555"/>
<text text-anchor="start" x="629" y="-573" font-family="Helvetica,sans-Serif" font-size="10.00" fill="#000000">vector&lt; lug::Graphics</text>
<text text-anchor="middle" x="706" y="-562" font-family="Helvetica,sans-Serif" font-size="10.00" fill="#000000">::Vulkan::API::QueueFamily &gt;</text>
</g>
<!-- Node28&#45;&gt;Node15 -->
<g id="edge26" class="edge">
<title>Node28&#45;&gt;Node15</title>
<path fill="none" stroke="#9a32cd" stroke-dasharray="5,2" d="M801.4818,-570C843.9993,-570 892.9233,-570 930.8771,-570"/>
<polygon fill="#9a32cd" stroke="#9a32cd" points="801.3886,-566.5001 791.3885,-570 801.3885,-573.5001 801.3886,-566.5001"/>
<text text-anchor="middle" x="861" y="-573" font-family="Helvetica,sans-Serif" font-size="10.00" fill="#000000"> _queueFamilies</text>
</g>
<!-- Node29 -->
<g id="node27" class="node">
<title>Node29</title>
<polygon fill="none" stroke="#bfbfbf" points="674.5,-516.5 674.5,-535.5 737.5,-535.5 737.5,-516.5 674.5,-516.5"/>
<text text-anchor="middle" x="706" y="-523.5" font-family="Helvetica,sans-Serif" font-size="10.00" fill="#000000">VkDevice</text>
</g>
<!-- Node29&#45;&gt;Node15 -->
<g id="edge27" class="edge">
<title>Node29&#45;&gt;Node15</title>
<path fill="none" stroke="#9a32cd" stroke-dasharray="5,2" d="M747.7219,-531.3116C789.5836,-536.7664 855.8703,-545.7452 913,-555 918.8227,-555.9433 924.8709,-556.9691 930.9228,-558.027"/>
<polygon fill="#9a32cd" stroke="#9a32cd" points="747.9928,-527.8175 737.6257,-530.0027 747.0927,-534.7594 747.9928,-527.8175"/>
<text text-anchor="middle" x="861" y="-558" font-family="Helvetica,sans-Serif" font-size="10.00" fill="#000000"> _device</text>
</g>
<!-- Node30&#45;&gt;Node3 -->
<g id="edge28" class="edge">
<title>Node30&#45;&gt;Node3</title>
<path fill="none" stroke="#9a32cd" stroke-dasharray="5,2" d="M1841.5847,-427.7889C1865.1582,-432.0257 1891.2904,-437.2068 1915,-443 1926.6454,-445.8454 1939.0807,-449.3931 1950.6401,-452.9137"/>
<polygon fill="#9a32cd" stroke="#9a32cd" points="1842.1097,-424.3276 1831.6529,-426.032 1840.8903,-431.2205 1842.1097,-424.3276"/>
<text text-anchor="middle" x="1882.5" y="-446" font-family="Helvetica,sans-Serif" font-size="10.00" fill="#000000"> _imageView</text>
</g>
<!-- Node31 -->
<g id="node29" class="node">
<title>Node31</title>
<polygon fill="none" stroke="#bfbfbf" points="1473,-362.5 1473,-381.5 1558,-381.5 1558,-362.5 1473,-362.5"/>
<text text-anchor="middle" x="1515.5" y="-369.5" font-family="Helvetica,sans-Serif" font-size="10.00" fill="#000000">VkImageView</text>
</g>
<!-- Node31&#45;&gt;Node30 -->
<g id="edge29" class="edge">
<title>Node31&#45;&gt;Node30</title>
<path fill="none" stroke="#9a32cd" stroke-dasharray="5,2" d="M1568.3558,-380.8158C1602.0433,-386.4777 1646.6088,-394.0474 1686,-401 1691.9859,-402.0565 1698.2148,-403.1701 1704.4458,-404.2936"/>
<polygon fill="#9a32cd" stroke="#9a32cd" points="1568.7095,-377.3263 1558.2681,-379.1228 1567.5508,-384.2298 1568.7095,-377.3263"/>
<text text-anchor="middle" x="1644.5" y="-404" font-family="Helvetica,sans-Serif" font-size="10.00" fill="#000000"> _imageView</text>
</g>
<!-- Node32&#45;&gt;Node3 -->
<g id="edge45" class="edge">
<title>Node32&#45;&gt;Node3</title>
<path fill="none" stroke="#9a32cd" stroke-dasharray="5,2" d="M1589.4821,-429.0619C1594.0512,-429.7509 1598.5849,-430.4038 1603,-431 1718.9401,-446.6572 1854.9918,-457.8708 1932.9375,-463.6147"/>
<polygon fill="#9a32cd" stroke="#9a32cd" points="1589.8739,-425.5808 1579.455,-427.5035 1588.7988,-432.4978 1589.8739,-425.5808"/>
<text text-anchor="middle" x="1768" y="-458" font-family="Helvetica,sans-Serif" font-size="10.00" fill="#000000"> _image</text>
</g>
<!-- Node32&#45;&gt;Node30 -->
<g id="edge31" class="edge">
<title>Node32&#45;&gt;Node30</title>
<path fill="none" stroke="#9a32cd" stroke-dasharray="5,2" d="M1589.299,-416C1625.76,-416 1669.3196,-416 1704.304,-416"/>
<polygon fill="#9a32cd" stroke="#9a32cd" points="1589.2164,-412.5001 1579.2164,-416 1589.2164,-419.5001 1589.2164,-412.5001"/>
<text text-anchor="middle" x="1644.5" y="-419" font-family="Helvetica,sans-Serif" font-size="10.00" fill="#000000"> _image</text>
</g>
<!-- Node33 -->
<g id="node31" class="node">
<title>Node33</title>
<polygon fill="none" stroke="#bfbfbf" points="1177,-444.5 1177,-463.5 1316,-463.5 1316,-444.5 1177,-444.5"/>
<text text-anchor="middle" x="1246.5" y="-451.5" font-family="Helvetica,sans-Serif" font-size="10.00" fill="#000000">VkMemoryRequirements</text>
</g>
<!-- Node33&#45;&gt;Node32 -->
<g id="edge32" class="edge">
<title>Node33&#45;&gt;Node32</title>
<path fill="none" stroke="#9a32cd" stroke-dasharray="5,2" d="M1324.1222,-443.0348C1364.5654,-437.3216 1413.419,-430.4204 1451.6435,-425.0206"/>
<polygon fill="#9a32cd" stroke="#9a32cd" points="1323.4449,-439.5956 1314.0328,-444.46 1324.4241,-446.5268 1323.4449,-439.5956"/>
<text text-anchor="middle" x="1381" y="-443" font-family="Helvetica,sans-Serif" font-size="10.00" fill="#000000"> _requirements</text>
</g>
<!-- Node34 -->
<g id="node32" class="node">
<title>Node34</title>
<polygon fill="none" stroke="#bfbfbf" points="1214,-406.5 1214,-425.5 1279,-425.5 1279,-406.5 1214,-406.5"/>
<text text-anchor="middle" x="1246.5" y="-413.5" font-family="Helvetica,sans-Serif" font-size="10.00" fill="#000000">VkFormat</text>
</g>
<!-- Node34&#45;&gt;Node32 -->
<g id="edge33" class="edge">
<title>Node34&#45;&gt;Node32</title>
<path fill="none" stroke="#9a32cd" stroke-dasharray="5,2" d="M1289.2469,-416C1333.0358,-416 1401.6187,-416 1451.8047,-416"/>
<polygon fill="#9a32cd" stroke="#9a32cd" points="1289.2158,-412.5001 1279.2157,-416 1289.2157,-419.5001 1289.2158,-412.5001"/>
<text text-anchor="middle" x="1381" y="-419" font-family="Helvetica,sans-Serif" font-size="10.00" fill="#000000"> _format</text>
</g>
<!-- Node35&#45;&gt;Node32 -->
<g id="edge34" class="edge">
<title>Node35&#45;&gt;Node32</title>
<path fill="none" stroke="#9a32cd" stroke-dasharray="5,2" d="M1320.388,-195.9965C1357.4041,-193.0005 1400.1528,-197.1341 1428,-224 1454.8626,-249.916 1422.9256,-361.6605 1446,-391 1449.0122,-394.8301 1452.6615,-398.074 1456.6924,-400.8213"/>
<polygon fill="#9a32cd" stroke="#9a32cd" points="1319.7214,-192.5455 1310.1167,-197.0177 1320.414,-199.5111 1319.7214,-192.5455"/>
<text text-anchor="middle" x="1381" y="-227" font-family="Helvetica,sans-Serif" font-size="10.00" fill="#000000"> _extent</text>
</g>
<!-- Node36 -->
<g id="node34" class="node">
<title>Node36</title>
<polygon fill="none" stroke="#bfbfbf" points="1187,-368.5 1187,-387.5 1306,-387.5 1306,-368.5 1187,-368.5"/>
<text text-anchor="middle" x="1246.5" y="-375.5" font-family="Helvetica,sans-Serif" font-size="10.00" fill="#000000">VkImageAspectFlags</text>
</g>
<!-- Node36&#45;&gt;Node32 -->
<g id="edge36" class="edge">
<title>Node36&#45;&gt;Node32</title>
<path fill="none" stroke="#9a32cd" stroke-dasharray="5,2" d="M1316.4917,-386.1448C1350.2396,-390.2568 1391.2732,-395.5276 1428,-401 1435.7746,-402.1584 1443.9242,-403.4506 1451.9908,-404.7773"/>
<polygon fill="#9a32cd" stroke="#9a32cd" points="1316.6132,-382.634 1306.265,-384.9069 1315.7719,-389.5833 1316.6132,-382.634"/>
<text text-anchor="middle" x="1381" y="-404" font-family="Helvetica,sans-Serif" font-size="10.00" fill="#000000"> _aspect</text>
</g>
<!-- Node37 -->
<g id="node35" class="node">
<title>Node37</title>
<polygon fill="none" stroke="#bfbfbf" points="1227.5,-283.5 1227.5,-302.5 1265.5,-302.5 1265.5,-283.5 1227.5,-283.5"/>
<text text-anchor="middle" x="1246.5" y="-290.5" font-family="Helvetica,sans-Serif" font-size="10.00" fill="#000000">bool</text>
</g>
<!-- Node37&#45;&gt;Node32 -->
<g id="edge37" class="edge">
<title>Node37&#45;&gt;Node32</title>
<path fill="none" stroke="#9a32cd" stroke-dasharray="5,2" d="M1275.8535,-287.0684C1315.538,-280.8898 1386.1429,-276.6789 1428,-314 1454.2318,-337.3891 1422.6267,-364.7541 1446,-391 1449.4112,-394.8304 1453.4531,-398.0742 1457.8455,-400.8211"/>
<polygon fill="#9a32cd" stroke="#9a32cd" points="1275.0341,-283.6575 1265.7638,-288.787 1276.2096,-290.5581 1275.0341,-283.6575"/>
<text text-anchor="middle" x="1381" y="-317" font-family="Helvetica,sans-Serif" font-size="10.00" fill="#000000"> _swapchainImage</text>
</g>
<!-- Node38 -->
<g id="node36" class="node">
<title>Node38</title>
<polygon fill="none" stroke="#bfbfbf" points="952.5,-386.5 952.5,-405.5 1036.5,-405.5 1036.5,-386.5 952.5,-386.5"/>
<text text-anchor="middle" x="994.5" y="-393.5" font-family="Helvetica,sans-Serif" font-size="10.00" fill="#000000">VkDeviceSize</text>
</g>
<!-- Node38&#45;&gt;Node32 -->
<g id="edge39" class="edge">
<title>Node38&#45;&gt;Node32</title>
<path fill="none" stroke="#9a32cd" stroke-dasharray="5,2" d="M1031.5962,-383.2312C1068.0813,-371.3946 1125.6209,-354.6437 1177,-348 1238.2677,-340.0776 1254.9676,-338.4323 1316,-348 1367.6551,-356.0977 1378.7236,-366.5167 1428,-384 1436.0896,-386.8702 1437.9608,-387.9915 1446,-391 1454.7669,-394.2808 1464.1853,-397.7234 1473.1707,-400.9687"/>
<polygon fill="#9a32cd" stroke="#9a32cd" points="1030.291,-379.976 1021.8865,-386.4269 1032.4795,-386.6251 1030.291,-379.976"/>
<text text-anchor="middle" x="1246.5" y="-351" font-family="Helvetica,sans-Serif" font-size="10.00" fill="#000000"> _deviceMemoryOffset</text>
</g>
<!-- Node38&#45;&gt;Node40 -->
<g id="edge43" class="edge">
<title>Node38&#45;&gt;Node40</title>
<path fill="none" stroke="#9a32cd" stroke-dasharray="5,2" d="M1025.4657,-409.6673C1061.6038,-425.4768 1123.2707,-452.0194 1177,-473 1185.4806,-476.3116 1194.603,-479.7092 1203.3589,-482.8905"/>
<polygon fill="#9a32cd" stroke="#9a32cd" points="1026.5415,-406.3173 1015.9777,-405.5064 1023.7301,-412.728 1026.5415,-406.3173"/>
<text text-anchor="middle" x="1117.5" y="-468" font-family="Helvetica,sans-Serif" font-size="10.00" fill="#000000"> _size</text>
</g>
<!-- Node39 -->
<g id="node37" class="node">
<title>Node39</title>
<polygon fill="none" stroke="#bfbfbf" points="1216,-245.5 1216,-264.5 1277,-264.5 1277,-245.5 1216,-245.5"/>
<text text-anchor="middle" x="1246.5" y="-252.5" font-family="Helvetica,sans-Serif" font-size="10.00" fill="#000000">VkImage</text>
</g>
<!-- Node39&#45;&gt;Node32 -->
<g id="edge40" class="edge">
<title>Node39&#45;&gt;Node32</title>
<path fill="none" stroke="#9a32cd" stroke-dasharray="5,2" d="M1286.9351,-244.8538C1327.9433,-237.2067 1390.5502,-233.2171 1428,-268 1468.4817,-305.5989 1411.0283,-348.2283 1446,-391 1449.1655,-394.8715 1452.9795,-398.1437 1457.171,-400.9092"/>
<polygon fill="#9a32cd" stroke="#9a32cd" points="1286.1145,-241.4487 1277.003,-246.8554 1287.4974,-248.3108 1286.1145,-241.4487"/>
<text text-anchor="middle" x="1381" y="-271" font-family="Helvetica,sans-Serif" font-size="10.00" fill="#000000"> _image</text>
</g>
<!-- Node40&#45;&gt;Node3 -->
<g id="edge46" class="edge">
<title>Node40&#45;&gt;Node3</title>
<path fill="none" stroke="#9a32cd" stroke-dasharray="5,2" d="M1320.3588,-497.2577C1353.3079,-496.8032 1392.6022,-496.0919 1428,-495 1644.5622,-488.3201 1698.6414,-484.523 1915,-473 1920.8039,-472.6909 1926.8392,-472.3525 1932.8829,-472.0023"/>
<polygon fill="#9a32cd" stroke="#9a32cd" points="1320.3008,-493.7581 1310.3482,-497.3907 1320.3939,-500.7575 1320.3008,-493.7581"/>
<text text-anchor="middle" x="1644.5" y="-491" font-family="Helvetica,sans-Serif" font-size="10.00" fill="#000000"> _deviceMemory</text>
</g>
<!-- Node40&#45;&gt;Node32 -->
<g id="edge41" class="edge">
<title>Node40&#45;&gt;Node32</title>
<path fill="none" stroke="#9a32cd" stroke-dasharray="5,2" d="M1320.4313,-483.7604C1353.7123,-476.5171 1393.2481,-466.7465 1428,-455 1447.5373,-448.3962 1468.677,-439.0397 1485.283,-431.1465"/>
<polygon fill="#9a32cd" stroke="#9a32cd" points="1319.3611,-480.4102 1310.3157,-485.9266 1320.8269,-487.255 1319.3611,-480.4102"/>
<text text-anchor="middle" x="1381" y="-483" font-family="Helvetica,sans-Serif" font-size="10.00" fill="#000000"> _deviceMemory</text>
</g>
<!-- Node41 -->
<g id="node39" class="node">
<title>Node41</title>
<polygon fill="none" stroke="#bfbfbf" points="942.5,-480.5 942.5,-499.5 1046.5,-499.5 1046.5,-480.5 942.5,-480.5"/>
<text text-anchor="middle" x="994.5" y="-487.5" font-family="Helvetica,sans-Serif" font-size="10.00" fill="#000000">VkDeviceMemory</text>
</g>
<!-- Node41&#45;&gt;Node40 -->
<g id="edge44" class="edge">
<title>Node41&#45;&gt;Node40</title>
<path fill="none" stroke="#9a32cd" stroke-dasharray="5,2" d="M1056.9045,-489.2972C1087.6581,-489.2266 1125.2896,-489.5511 1159,-491 1166.765,-491.3337 1174.9088,-491.8123 1182.9724,-492.3648"/>
<polygon fill="#9a32cd" stroke="#9a32cd" points="1056.7411,-485.7977 1046.7543,-489.3352 1056.7674,-492.7976 1056.7411,-485.7977"/>
<text text-anchor="middle" x="1117.5" y="-494" font-family="Helvetica,sans-Serif" font-size="10.00" fill="#000000"> _deviceMemory</text>
</g>
</g>
</svg>
        <g id="navigator" transform="translate(0 0)" fill="#404254">
                <rect fill="#f2f5e9" fill-opacity="0.5" stroke="#606060" stroke-width=".5" x="0" y="0" width="60" height="60"/>
                <use id="zoomplus" xlink:href="#zoomPlus" x="17" y="9" onmousedown="handleZoom(evt,'in')"/>
                <use id="zoomminus" xlink:href="#zoomMin" x="42" y="9" onmousedown="handleZoom(evt,'out')"/>
                <use id="reset" xlink:href="#resetDef" x="30" y="36" onmousedown="handleReset()"/>
                <g id="arrowUp" xlink:href="#dirArrow" transform="translate(30 24)" onmousedown="handlePan(0,-1)">
                  <use xlink:href="#rim" fill="#404040">
                        <set attributeName="fill" to="#808080" begin="arrowUp.mouseover" end="arrowUp.mouseout"/>
                  </use>
                  <path fill="none" stroke="white" stroke-width="1.5" d="M0,-3.0v7 M-2.5,-0.5L0,-3.0L2.5,-0.5"/>
                </g>
                <g id="arrowRight" xlink:href="#dirArrow" transform="rotate(90) translate(36 -43)" onmousedown="handlePan(1,0)">
                  <use xlink:href="#rim" fill="#404040">
                        <set attributeName="fill" to="#808080" begin="arrowRight.mouseover" end="arrowRight.mouseout"/>
                  </use>
                  <path fill="none" stroke="white" stroke-width="1.5" d="M0,-3.0v7 M-2.5,-0.5L0,-3.0L2.5,-0.5"/>
                </g>
                <g id="arrowDown" xlink:href="#dirArrow" transform="rotate(180) translate(-30 -48)" onmousedown="handlePan(0,1)">
                  <use xlink:href="#rim" fill="#404040">
                        <set attributeName="fill" to="#808080" begin="arrowDown.mouseover" end="arrowDown.mouseout"/>
                  </use>
                  <path fill="none" stroke="white" stroke-width="1.5" d="M0,-3.0v7 M-2.5,-0.5L0,-3.0L2.5,-0.5"/>
                </g>
                <g id="arrowLeft" xlink:href="#dirArrow" transform="rotate(270) translate(-36 17)" onmousedown="handlePan(-1,0)">
                  <use xlink:href="#rim" fill="#404040">
                        <set attributeName="fill" to="#808080" begin="arrowLeft.mouseover" end="arrowLeft.mouseout"/>
                  </use>
                  <path fill="none" stroke="white" stroke-width="1.5" d="M0,-3.0v7 M-2.5,-0.5L0,-3.0L2.5,-0.5"/>
                </g>
        </g>
        <svg viewBox="0 0 15 15" width="100%" height="30px" preserveAspectRatio="xMaxYMin meet">
         <g id="arrow_out" transform="scale(0.3 0.3)">
          <a xlink:href="classlug_1_1Graphics_1_1Vulkan_1_1Render_1_1Texture__coll__graph_org.svg" target="_base">
           <rect id="button" ry="5" rx="5" y="6" x="6" height="38" width="38"
                fill="#f2f5e9" fill-opacity="0.5" stroke="#606060" stroke-width="1.0"/>
           <path id="arrow"
             d="M 11.500037,31.436501 C 11.940474,20.09759 22.043105,11.32322 32.158766,21.979434 L 37.068811,17.246167 C 37.068811,17.246167 37.088388,32 37.088388,32 L 22.160133,31.978069 C 22.160133,31.978069 26.997745,27.140456 26.997745,27.140456 C 18.528582,18.264221 13.291696,25.230495 11.500037,31.436501 z"
             style="fill:#404040;"/>
          </a>
         </g>
        </svg>
</svg>
