<?xml version="1.0" encoding="UTF-8" standalone="no"?>
<!DOCTYPE svg PUBLIC "-//W3C//DTD SVG 1.1//EN"
 "http://www.w3.org/Graphics/SVG/1.1/DTD/svg11.dtd">
<!-- Generated by graphviz version 2.40.1 (20161225.0304)
 -->
<!-- Title: lug::Graphics::Render::SkyBox Pages: 1 -->
<svg width="1375pt" height="257pt"
 viewBox="0.00 0.00 1375.00 256.50" xmlns="http://www.w3.org/2000/svg" xmlns:xlink="http://www.w3.org/1999/xlink">
<g id="graph0" class="graph" transform="scale(1 1) rotate(0) translate(4 252.5)">
<title>lug::Graphics::Render::SkyBox</title>
<!-- Node3 -->
<g id="node1" class="node">
<title>Node3</title>
<polygon fill="#bfbfbf" stroke="#000000" points="1239,-193 1239,-223 1367,-223 1367,-193 1239,-193"/>
<text text-anchor="start" x="1247" y="-211" font-family="Helvetica,sans-Serif" font-size="10.00" fill="#000000">lug::Graphics::Render</text>
<text text-anchor="middle" x="1303" y="-200" font-family="Helvetica,sans-Serif" font-size="10.00" fill="#000000">::SkyBox</text>
</g>
<!-- Node4 -->
<g id="node2" class="node">
<title>Node4</title>
<g id="a_node2"><a xlink:href="classlug_1_1Graphics_1_1Resource.html" target="_top" xlink:title="Class for resource. ">
<polygon fill="none" stroke="#000000" points="379,-223.5 379,-242.5 518,-242.5 518,-223.5 379,-223.5"/>
<text text-anchor="middle" x="448.5" y="-230.5" font-family="Helvetica,sans-Serif" font-size="10.00" fill="#000000">lug::Graphics::Resource</text>
</a>
</g>
</g>
<!-- Node4&#45;&gt;Node3 -->
<g id="edge1" class="edge">
<title>Node4&#45;&gt;Node3</title>
<path fill="none" stroke="#191970" d="M528.3687,-234.5784C668.7219,-236.6769 968.6714,-238.1469 1221,-219 1226.729,-218.5653 1232.6696,-217.9979 1238.6159,-217.3498"/>
<polygon fill="#191970" stroke="#191970" points="528.1878,-231.0752 518.1348,-234.4199 528.0794,-238.0744 528.1878,-231.0752"/>
</g>
<!-- Node10 -->
<g id="node8" class="node">
<title>Node10</title>
<g id="a_node8"><a xlink:href="classlug_1_1Graphics_1_1Render_1_1Texture.html" target="_top" xlink:title="lug::Graphics::Render\l::Texture">
<polygon fill="none" stroke="#000000" points="630.5,-102 630.5,-132 758.5,-132 758.5,-102 630.5,-102"/>
<text text-anchor="start" x="638.5" y="-120" font-family="Helvetica,sans-Serif" font-size="10.00" fill="#000000">lug::Graphics::Render</text>
<text text-anchor="middle" x="694.5" y="-109" font-family="Helvetica,sans-Serif" font-size="10.00" fill="#000000">::Texture</text>
</a>
</g>
</g>
<!-- Node4&#45;&gt;Node10 -->
<g id="edge8" class="edge">
<title>Node4&#45;&gt;Node10</title>
<path fill="none" stroke="#191970" d="M509.4378,-219.2437C512.4348,-217.6802 515.3115,-215.939 518,-214 529.6973,-205.5636 524.9631,-196.2837 536,-187 545.87,-178.6978 613.6498,-150.1036 657.3197,-132.1315"/>
<polygon fill="#191970" stroke="#191970" points="507.8365,-216.1262 500.1535,-223.4215 510.709,-222.5097 507.8365,-216.1262"/>
</g>
<!-- Node5 -->
<g id="node3" class="node">
<title>Node5</title>
<g id="a_node3"><a xlink:href="structlug_1_1Graphics_1_1Resource_1_1Handle.html" target="_top" xlink:title="Handle of the resource. It contains informations such as the type and the index in the ResourceManage...">
<polygon fill="none" stroke="#000000" points="161,-218 161,-248 300,-248 300,-218 161,-218"/>
<text text-anchor="start" x="169" y="-236" font-family="Helvetica,sans-Serif" font-size="10.00" fill="#000000">lug::Graphics::Resource</text>
<text text-anchor="middle" x="230.5" y="-225" font-family="Helvetica,sans-Serif" font-size="10.00" fill="#000000">::Handle</text>
</a>
</g>
</g>
<!-- Node5&#45;&gt;Node4 -->
<g id="edge2" class="edge">
<title>Node5&#45;&gt;Node4</title>
<path fill="none" stroke="#9a32cd" stroke-dasharray="5,2" d="M310.2613,-233C332.7367,-233 357.0031,-233 378.8373,-233"/>
<polygon fill="#9a32cd" stroke="#9a32cd" points="310.076,-229.5001 300.0759,-233 310.0759,-236.5001 310.076,-229.5001"/>
<text text-anchor="middle" x="339.5" y="-236" font-family="Helvetica,sans-Serif" font-size="10.00" fill="#000000"> _handle</text>
</g>
<!-- Node6 -->
<g id="node4" class="node">
<title>Node6</title>
<polygon fill="none" stroke="#bfbfbf" points="18.5,-150.5 18.5,-169.5 75.5,-169.5 75.5,-150.5 18.5,-150.5"/>
<text text-anchor="middle" x="47" y="-157.5" font-family="Helvetica,sans-Serif" font-size="10.00" fill="#000000">uint32_t</text>
</g>
<!-- Node6&#45;&gt;Node5 -->
<g id="edge3" class="edge">
<title>Node6&#45;&gt;Node5</title>
<path fill="none" stroke="#9a32cd" stroke-dasharray="5,2" d="M85.4305,-172.1435C103.3389,-178.3704 124.687,-186.6195 143,-196 151.5575,-200.3834 152.4132,-203.6743 161,-208 168.2147,-211.6345 176.0874,-214.9941 183.8574,-217.9942"/>
<polygon fill="#9a32cd" stroke="#9a32cd" points="86.4707,-168.8005 75.8763,-168.8978 84.219,-175.4284 86.4707,-168.8005"/>
<text text-anchor="middle" x="127.5" y="-221" font-family="Helvetica,sans-Serif" font-size="10.00" fill="#000000"> value</text>
<text text-anchor="middle" x="127.5" y="-210" font-family="Helvetica,sans-Serif" font-size="10.00" fill="#000000">type</text>
<text text-anchor="middle" x="127.5" y="-199" font-family="Helvetica,sans-Serif" font-size="10.00" fill="#000000">index</text>
</g>
<!-- Node6&#45;&gt;Node10 -->
<g id="edge10" class="edge">
<title>Node6&#45;&gt;Node10</title>
<path fill="none" stroke="#9a32cd" stroke-dasharray="5,2" d="M85.7234,-158.4516C176.7628,-154.6513 411.4678,-143.9216 607,-127 614.4641,-126.354 622.2766,-125.589 630.0305,-124.7741"/>
<polygon fill="#9a32cd" stroke="#9a32cd" points="85.4434,-154.9601 75.5966,-158.8704 85.7327,-161.9541 85.4434,-154.9601"/>
<text text-anchor="middle" x="339.5" y="-161" font-family="Helvetica,sans-Serif" font-size="10.00" fill="#000000"> _width</text>
<text text-anchor="middle" x="339.5" y="-150" font-family="Helvetica,sans-Serif" font-size="10.00" fill="#000000">_height</text>
</g>
<!-- Node7 -->
<g id="node5" class="node">
<title>Node7</title>
<polygon fill="none" stroke="#bfbfbf" points="0,-223.5 0,-242.5 94,-242.5 94,-223.5 0,-223.5"/>
<text text-anchor="middle" x="47" y="-230.5" font-family="Helvetica,sans-Serif" font-size="10.00" fill="#000000">anonymous:@5</text>
</g>
<!-- Node7&#45;&gt;Node5 -->
<g id="edge4" class="edge">
<title>Node7&#45;&gt;Node5</title>
<path fill="none" stroke="#9a32cd" stroke-dasharray="5,2" d="M104.2721,-233C122.2136,-233 142.2134,-233 160.9078,-233"/>
<polygon fill="#9a32cd" stroke="#9a32cd" points="104.2558,-229.5001 94.2558,-233 104.2558,-236.5001 104.2558,-229.5001"/>
<text text-anchor="middle" x="127.5" y="-236" font-family="Helvetica,sans-Serif" font-size="10.00" fill="#000000"> @5</text>
</g>
<!-- Node8 -->
<g id="node6" class="node">
<title>Node8</title>
<polygon fill="none" stroke="#bfbfbf" points="208,-179.5 208,-198.5 253,-198.5 253,-179.5 208,-179.5"/>
<text text-anchor="middle" x="230.5" y="-186.5" font-family="Helvetica,sans-Serif" font-size="10.00" fill="#000000">string</text>
</g>
<!-- Node8&#45;&gt;Node4 -->
<g id="edge5" class="edge">
<title>Node8&#45;&gt;Node4</title>
<path fill="none" stroke="#9a32cd" stroke-dasharray="5,2" d="M263.1474,-195.5894C299.8021,-202.9876 359.6006,-215.057 401.3315,-223.4798"/>
<polygon fill="#9a32cd" stroke="#9a32cd" points="263.5036,-192.0908 253.0087,-193.543 262.1186,-198.9524 263.5036,-192.0908"/>
<text text-anchor="middle" x="339.5" y="-217" font-family="Helvetica,sans-Serif" font-size="10.00" fill="#000000"> _name</text>
</g>
<!-- Node9 -->
<g id="node7" class="node">
<title>Node9</title>
<g id="a_node7"><a xlink:href="classlug_1_1Graphics_1_1Resource_1_1SharedPtr.html" target="_top" xlink:title="lug::Graphics::Resource\l::SharedPtr\&lt; lug::Graphics\l::Render::Texture \&gt;">
<polygon fill="none" stroke="#000000" points="928,-163.5 928,-204.5 1083,-204.5 1083,-163.5 928,-163.5"/>
<text text-anchor="start" x="936" y="-192.5" font-family="Helvetica,sans-Serif" font-size="10.00" fill="#000000">lug::Graphics::Resource</text>
<text text-anchor="start" x="936" y="-181.5" font-family="Helvetica,sans-Serif" font-size="10.00" fill="#000000">::SharedPtr&lt; lug::Graphics</text>
<text text-anchor="middle" x="1005.5" y="-170.5" font-family="Helvetica,sans-Serif" font-size="10.00" fill="#000000">::Render::Texture &gt;</text>
</a>
</g>
</g>
<!-- Node9&#45;&gt;Node3 -->
<g id="edge6" class="edge">
<title>Node9&#45;&gt;Node3</title>
<path fill="none" stroke="#9a32cd" stroke-dasharray="5,2" d="M1093.4554,-187.8488C1132.5627,-189.9354 1179.1349,-192.9347 1221,-197 1226.7186,-197.5553 1232.652,-198.2056 1238.5936,-198.9077"/>
<polygon fill="#9a32cd" stroke="#9a32cd" points="1093.3277,-184.3375 1083.1588,-187.3112 1092.9627,-191.3279 1093.3277,-184.3375"/>
<text text-anchor="middle" x="1161" y="-211" font-family="Helvetica,sans-Serif" font-size="10.00" fill="#000000"> _backgroundTexture</text>
<text text-anchor="middle" x="1161" y="-200" font-family="Helvetica,sans-Serif" font-size="10.00" fill="#000000">_environnementTexture</text>
</g>
<!-- Node10&#45;&gt;Node9 -->
<g id="edge7" class="edge">
<title>Node10&#45;&gt;Node9</title>
<path fill="none" stroke="#9a32cd" stroke-dasharray="5,2" d="M768.5785,-132.959C816.5908,-143.3025 879.028,-156.7536 927.7518,-167.2504"/>
<polygon fill="#9a32cd" stroke="#9a32cd" points="769.0752,-129.4858 758.5623,-130.8012 767.6009,-136.3288 769.0752,-129.4858"/>
<text text-anchor="middle" x="846" y="-166" font-family="Helvetica,sans-Serif" font-size="10.00" fill="#000000"> _resource</text>
</g>
<!-- Node11 -->
<g id="node9" class="node">
<title>Node11</title>
<polygon fill="none" stroke="#bfbfbf" points="422.5,-.5 422.5,-19.5 474.5,-19.5 474.5,-.5 422.5,-.5"/>
<text text-anchor="middle" x="448.5" y="-7.5" font-family="Helvetica,sans-Serif" font-size="10.00" fill="#000000">Format</text>
</g>
<!-- Node11&#45;&gt;Node10 -->
<g id="edge9" class="edge">
<title>Node11&#45;&gt;Node10</title>
<path fill="none" stroke="#9a32cd" stroke-dasharray="5,2" d="M484.7835,-10.0776C518.125,-11.4751 568.1191,-16.9917 607,-36 639.1732,-51.729 667.8218,-83.1904 683.0167,-101.9377"/>
<polygon fill="#9a32cd" stroke="#9a32cd" points="484.6837,-6.5729 474.5787,-9.7568 484.4637,-13.5694 484.6837,-6.5729"/>
<text text-anchor="middle" x="571.5" y="-39" font-family="Helvetica,sans-Serif" font-size="10.00" fill="#000000"> _format</text>
</g>
<!-- Node12 -->
<g id="node10" class="node">
<title>Node12</title>
<polygon fill="none" stroke="#bfbfbf" points="427.5,-83.5 427.5,-102.5 469.5,-102.5 469.5,-83.5 427.5,-83.5"/>
<text text-anchor="middle" x="448.5" y="-90.5" font-family="Helvetica,sans-Serif" font-size="10.00" fill="#000000">Filter</text>
</g>
<!-- Node12&#45;&gt;Node10 -->
<g id="edge11" class="edge">
<title>Node12&#45;&gt;Node10</title>
<path fill="none" stroke="#9a32cd" stroke-dasharray="5,2" d="M479.7442,-90.9024C511.8271,-89.2848 563.1287,-88.1896 607,-94 619.7683,-95.6911 633.3343,-98.6586 645.8772,-101.9113"/>
<polygon fill="#9a32cd" stroke="#9a32cd" points="479.4303,-87.4143 469.6391,-91.4617 479.8173,-94.4036 479.4303,-87.4143"/>
<text text-anchor="middle" x="571.5" y="-119" font-family="Helvetica,sans-Serif" font-size="10.00" fill="#000000"> _magFilter</text>
<text text-anchor="middle" x="571.5" y="-108" font-family="Helvetica,sans-Serif" font-size="10.00" fill="#000000">_mipMapFilter</text>
<text text-anchor="middle" x="571.5" y="-97" font-family="Helvetica,sans-Serif" font-size="10.00" fill="#000000">_minFilter</text>
</g>
<!-- Node13 -->
<g id="node11" class="node">
<title>Node13</title>
<polygon fill="none" stroke="#bfbfbf" points="403.5,-38.5 403.5,-57.5 493.5,-57.5 493.5,-38.5 403.5,-38.5"/>
<text text-anchor="middle" x="448.5" y="-45.5" font-family="Helvetica,sans-Serif" font-size="10.00" fill="#000000">WrappingMode</text>
</g>
<!-- Node13&#45;&gt;Node10 -->
<g id="edge12" class="edge">
<title>Node13&#45;&gt;Node10</title>
<path fill="none" stroke="#9a32cd" stroke-dasharray="5,2" d="M503.8688,-47.6334C534.8945,-48.8883 573.8892,-52.9315 607,-64 632.4347,-72.5025 658.307,-89.4142 675.2516,-101.8568"/>
<polygon fill="#9a32cd" stroke="#9a32cd" points="503.779,-44.1289 493.6726,-47.3086 503.5561,-51.1253 503.779,-44.1289"/>
<text text-anchor="middle" x="571.5" y="-78" font-family="Helvetica,sans-Serif" font-size="10.00" fill="#000000"> _wrapS</text>
<text text-anchor="middle" x="571.5" y="-67" font-family="Helvetica,sans-Serif" font-size="10.00" fill="#000000">_wrapT</text>
</g>
<!-- Node14 -->
<g id="node12" class="node">
<title>Node14</title>
<g id="a_node12"><a xlink:href="classlug_1_1Graphics_1_1Resource_1_1SharedPtr.html" target="_top" xlink:title="Dummy class for a shared pointer. ">
<polygon fill="none" stroke="#000000" points="625,-173 625,-203 764,-203 764,-173 625,-173"/>
<text text-anchor="start" x="633" y="-191" font-family="Helvetica,sans-Serif" font-size="10.00" fill="#000000">lug::Graphics::Resource</text>
<text text-anchor="middle" x="694.5" y="-180" font-family="Helvetica,sans-Serif" font-size="10.00" fill="#000000">::SharedPtr&lt; T &gt;</text>
</a>
</g>
</g>
<!-- Node14&#45;&gt;Node9 -->
<g id="edge13" class="edge">
<title>Node14&#45;&gt;Node9</title>
<path fill="none" stroke="#ffa500" stroke-dasharray="5,2" d="M774.4648,-186.9715C821.6094,-186.3652 880.9893,-185.6014 927.744,-185.0001"/>
<polygon fill="#ffa500" stroke="#ffa500" points="774.2486,-183.4739 764.2945,-187.1023 774.3387,-190.4733 774.2486,-183.4739"/>
<text text-anchor="start" x="782" y="-201" font-family="Helvetica,sans-Serif" font-size="10.00" fill="#000000"> &lt; lug::Graphics::Render</text>
<text text-anchor="middle" x="846" y="-190" font-family="Helvetica,sans-Serif" font-size="10.00" fill="#000000">::Texture &gt;</text>
</g>
<!-- Node15 -->
<g id="node13" class="node">
<title>Node15</title>
<polygon fill="none" stroke="#bfbfbf" points="434,-185.5 434,-204.5 463,-204.5 463,-185.5 434,-185.5"/>
<text text-anchor="middle" x="448.5" y="-192.5" font-family="Helvetica,sans-Serif" font-size="10.00" fill="#000000">T</text>
</g>
<!-- Node15&#45;&gt;Node14 -->
<g id="edge14" class="edge">
<title>Node15&#45;&gt;Node14</title>
<path fill="none" stroke="#9a32cd" stroke-dasharray="5,2" d="M473.4559,-194.2899C508.6585,-193.2882 574.2496,-191.4218 624.8747,-189.9812"/>
<polygon fill="#9a32cd" stroke="#9a32cd" points="473.0481,-190.8 463.1517,-194.5831 473.2473,-197.7971 473.0481,-190.8"/>
<text text-anchor="middle" x="571.5" y="-196" font-family="Helvetica,sans-Serif" font-size="10.00" fill="#000000"> _resource</text>
</g>
</g>
</svg>
