<?xml version="1.0" encoding="UTF-8" standalone="no"?>
<!DOCTYPE svg PUBLIC "-//W3C//DTD SVG 1.1//EN"
 "http://www.w3.org/Graphics/SVG/1.1/DTD/svg11.dtd">
<!-- Generated by graphviz version 2.40.1 (20161225.0304)
 -->
<!-- Title: lug::Graphics::Vulkan::Render::Mesh Pages: 1 -->
<svg width="1610pt" height="422pt"
 viewBox="0.00 0.00 1610.00 422.02" xmlns="http://www.w3.org/2000/svg" xmlns:xlink="http://www.w3.org/1999/xlink">
<g id="graph0" class="graph" transform="scale(1 1) rotate(0) translate(4 418.0234)">
<title>lug::Graphics::Vulkan::Render::Mesh</title>
<!-- Node3 -->
<g id="node1" class="node">
<title>Node3</title>
<polygon fill="#bfbfbf" stroke="#000000" points="1475,-143.0234 1475,-173.0234 1602,-173.0234 1602,-143.0234 1475,-143.0234"/>
<text text-anchor="start" x="1483" y="-161.0234" font-family="Helvetica,sans-Serif" font-size="10.00" fill="#000000">lug::Graphics::Vulkan</text>
<text text-anchor="middle" x="1538.5" y="-150.0234" font-family="Helvetica,sans-Serif" font-size="10.00" fill="#000000">::Render::Mesh</text>
</g>
<!-- Node4 -->
<g id="node2" class="node">
<title>Node4</title>
<g id="a_node2"><a xlink:href="classlug_1_1Graphics_1_1Render_1_1Mesh.html" target="_top" xlink:title="A Mesh, which itsef is a Resource. A mesh is composed of a vector of PrimitiveSet. ">
<polygon fill="none" stroke="#000000" points="1228,-192.0234 1228,-222.0234 1356,-222.0234 1356,-192.0234 1228,-192.0234"/>
<text text-anchor="start" x="1236" y="-210.0234" font-family="Helvetica,sans-Serif" font-size="10.00" fill="#000000">lug::Graphics::Render</text>
<text text-anchor="middle" x="1292" y="-199.0234" font-family="Helvetica,sans-Serif" font-size="10.00" fill="#000000">::Mesh</text>
</a>
</g>
</g>
<!-- Node4&#45;&gt;Node3 -->
<g id="edge1" class="edge">
<title>Node4&#45;&gt;Node3</title>
<path fill="none" stroke="#191970" d="M1366.1709,-192.2795C1400.759,-185.404 1441.5107,-177.3032 1474.6996,-170.7058"/>
<polygon fill="#191970" stroke="#191970" points="1365.2472,-188.8945 1356.1215,-194.2771 1366.612,-195.7602 1365.2472,-188.8945"/>
</g>
<!-- Node5 -->
<g id="node3" class="node">
<title>Node5</title>
<g id="a_node3"><a xlink:href="classlug_1_1Graphics_1_1Resource.html" target="_top" xlink:title="Class for resource. ">
<polygon fill="none" stroke="#000000" points="950.5,-278.5234 950.5,-297.5234 1089.5,-297.5234 1089.5,-278.5234 950.5,-278.5234"/>
<text text-anchor="middle" x="1020" y="-285.5234" font-family="Helvetica,sans-Serif" font-size="10.00" fill="#000000">lug::Graphics::Resource</text>
</a>
</g>
</g>
<!-- Node5&#45;&gt;Node4 -->
<g id="edge2" class="edge">
<title>Node5&#45;&gt;Node4</title>
<path fill="none" stroke="#191970" d="M1061.8039,-275.5744C1110.0497,-261.2071 1189.3789,-237.5833 1241.1555,-222.1646"/>
<polygon fill="#191970" stroke="#191970" points="1060.5868,-272.2849 1052.0017,-278.4935 1062.5847,-278.9937 1060.5868,-272.2849"/>
</g>
<!-- Node6 -->
<g id="node4" class="node">
<title>Node6</title>
<g id="a_node4"><a xlink:href="structlug_1_1Graphics_1_1Resource_1_1Handle.html" target="_top" xlink:title="Handle of the resource. It contains informations such as the type and the index in the ResourceManage...">
<polygon fill="none" stroke="#000000" points="636.5,-341.0234 636.5,-371.0234 775.5,-371.0234 775.5,-341.0234 636.5,-341.0234"/>
<text text-anchor="start" x="644.5" y="-359.0234" font-family="Helvetica,sans-Serif" font-size="10.00" fill="#000000">lug::Graphics::Resource</text>
<text text-anchor="middle" x="706" y="-348.0234" font-family="Helvetica,sans-Serif" font-size="10.00" fill="#000000">::Handle</text>
</a>
</g>
</g>
<!-- Node6&#45;&gt;Node5 -->
<g id="edge3" class="edge">
<title>Node6&#45;&gt;Node5</title>
<path fill="none" stroke="#9a32cd" stroke-dasharray="5,2" d="M785.1929,-338.8733C845.6447,-325.7819 926.6939,-308.2298 976.0368,-297.5441"/>
<polygon fill="#9a32cd" stroke="#9a32cd" points="784.33,-335.479 775.2974,-341.0163 785.8116,-342.3204 784.33,-335.479"/>
<text text-anchor="middle" x="861" y="-335.0234" font-family="Helvetica,sans-Serif" font-size="10.00" fill="#000000"> _handle</text>
</g>
<!-- Node7 -->
<g id="node5" class="node">
<title>Node7</title>
<polygon fill="none" stroke="#bfbfbf" points="359.5,-384.5234 359.5,-403.5234 416.5,-403.5234 416.5,-384.5234 359.5,-384.5234"/>
<text text-anchor="middle" x="388" y="-391.5234" font-family="Helvetica,sans-Serif" font-size="10.00" fill="#000000">uint32_t</text>
</g>
<!-- Node7&#45;&gt;Node6 -->
<g id="edge4" class="edge">
<title>Node7&#45;&gt;Node6</title>
<path fill="none" stroke="#9a32cd" stroke-dasharray="5,2" d="M426.6062,-390.34C469.6792,-386.1264 541.4119,-378.7994 603,-371.0234 613.7569,-369.6652 625.1295,-368.1198 636.2383,-366.5493"/>
<polygon fill="#9a32cd" stroke="#9a32cd" points="426.1723,-386.8656 416.5581,-391.3172 426.8499,-393.8327 426.1723,-386.8656"/>
<text text-anchor="middle" x="554.5" y="-406.0234" font-family="Helvetica,sans-Serif" font-size="10.00" fill="#000000"> value</text>
<text text-anchor="middle" x="554.5" y="-395.0234" font-family="Helvetica,sans-Serif" font-size="10.00" fill="#000000">type</text>
<text text-anchor="middle" x="554.5" y="-384.0234" font-family="Helvetica,sans-Serif" font-size="10.00" fill="#000000">index</text>
</g>
<!-- Node8 -->
<g id="node6" class="node">
<title>Node8</title>
<polygon fill="none" stroke="#bfbfbf" points="341,-346.5234 341,-365.5234 435,-365.5234 435,-346.5234 341,-346.5234"/>
<text text-anchor="middle" x="388" y="-353.5234" font-family="Helvetica,sans-Serif" font-size="10.00" fill="#000000">anonymous:@5</text>
</g>
<!-- Node8&#45;&gt;Node6 -->
<g id="edge5" class="edge">
<title>Node8&#45;&gt;Node6</title>
<path fill="none" stroke="#9a32cd" stroke-dasharray="5,2" d="M445.2862,-356.0234C498.9015,-356.0234 579.1113,-356.0234 636.3921,-356.0234"/>
<polygon fill="#9a32cd" stroke="#9a32cd" points="445.2645,-352.5235 435.2644,-356.0234 445.2644,-359.5235 445.2645,-352.5235"/>
<text text-anchor="middle" x="554.5" y="-359.0234" font-family="Helvetica,sans-Serif" font-size="10.00" fill="#000000"> @5</text>
</g>
<!-- Node9 -->
<g id="node7" class="node">
<title>Node9</title>
<polygon fill="none" stroke="#bfbfbf" points="683.5,-278.5234 683.5,-297.5234 728.5,-297.5234 728.5,-278.5234 683.5,-278.5234"/>
<text text-anchor="middle" x="706" y="-285.5234" font-family="Helvetica,sans-Serif" font-size="10.00" fill="#000000">string</text>
</g>
<!-- Node9&#45;&gt;Node5 -->
<g id="edge6" class="edge">
<title>Node9&#45;&gt;Node5</title>
<path fill="none" stroke="#9a32cd" stroke-dasharray="5,2" d="M738.7741,-288.0234C788.5959,-288.0234 884.541,-288.0234 950.3893,-288.0234"/>
<polygon fill="#9a32cd" stroke="#9a32cd" points="738.5821,-284.5235 728.5821,-288.0234 738.5821,-291.5235 738.5821,-284.5235"/>
<text text-anchor="middle" x="861" y="-291.0234" font-family="Helvetica,sans-Serif" font-size="10.00" fill="#000000"> _name</text>
</g>
<!-- Node10 -->
<g id="node8" class="node">
<title>Node10</title>
<polygon fill="none" stroke="#bfbfbf" points="931,-192.0234 931,-222.0234 1109,-222.0234 1109,-192.0234 931,-192.0234"/>
<text text-anchor="start" x="939" y="-210.0234" font-family="Helvetica,sans-Serif" font-size="10.00" fill="#000000">vector&lt; lug::Graphics</text>
<text text-anchor="middle" x="1020" y="-199.0234" font-family="Helvetica,sans-Serif" font-size="10.00" fill="#000000">::Render::Mesh::PrimitiveSet &gt;</text>
</g>
<!-- Node10&#45;&gt;Node4 -->
<g id="edge7" class="edge">
<title>Node10&#45;&gt;Node4</title>
<path fill="none" stroke="#9a32cd" stroke-dasharray="5,2" d="M1119.1678,-207.0234C1155.382,-207.0234 1195.3644,-207.0234 1227.7444,-207.0234"/>
<polygon fill="#9a32cd" stroke="#9a32cd" points="1119.063,-203.5235 1109.063,-207.0234 1119.0629,-210.5235 1119.063,-203.5235"/>
<text text-anchor="middle" x="1168.5" y="-210.0234" font-family="Helvetica,sans-Serif" font-size="10.00" fill="#000000"> _primitiveSets</text>
</g>
<!-- Node11 -->
<g id="node9" class="node">
<title>Node11</title>
<g id="a_node9"><a xlink:href="classlug_1_1Graphics_1_1Vulkan_1_1API_1_1DeviceMemory.html" target="_top" xlink:title="lug::Graphics::Vulkan\l::API::DeviceMemory">
<polygon fill="none" stroke="#000000" points="1228.5,-119.0234 1228.5,-149.0234 1355.5,-149.0234 1355.5,-119.0234 1228.5,-119.0234"/>
<text text-anchor="start" x="1236.5" y="-137.0234" font-family="Helvetica,sans-Serif" font-size="10.00" fill="#000000">lug::Graphics::Vulkan</text>
<text text-anchor="middle" x="1292" y="-126.0234" font-family="Helvetica,sans-Serif" font-size="10.00" fill="#000000">::API::DeviceMemory</text>
</a>
</g>
</g>
<!-- Node11&#45;&gt;Node3 -->
<g id="edge8" class="edge">
<title>Node11&#45;&gt;Node3</title>
<path fill="none" stroke="#9a32cd" stroke-dasharray="5,2" d="M1365.8918,-141.2177C1400.6325,-144.6002 1441.6405,-148.5929 1474.9669,-151.8376"/>
<polygon fill="#9a32cd" stroke="#9a32cd" points="1366.0926,-137.7208 1355.8004,-140.2352 1365.4142,-144.6879 1366.0926,-137.7208"/>
<text text-anchor="middle" x="1415.5" y="-152.0234" font-family="Helvetica,sans-Serif" font-size="10.00" fill="#000000"> _deviceMemory</text>
</g>
<!-- Node12 -->
<g id="node10" class="node">
<title>Node12</title>
<g id="a_node10"><a xlink:href="classlug_1_1Graphics_1_1Vulkan_1_1API_1_1Device.html" target="_top" xlink:title="lug::Graphics::Vulkan\l::API::Device">
<polygon fill="none" stroke="#000000" points="956.5,-124.0234 956.5,-154.0234 1083.5,-154.0234 1083.5,-124.0234 956.5,-124.0234"/>
<text text-anchor="start" x="964.5" y="-142.0234" font-family="Helvetica,sans-Serif" font-size="10.00" fill="#000000">lug::Graphics::Vulkan</text>
<text text-anchor="middle" x="1020" y="-131.0234" font-family="Helvetica,sans-Serif" font-size="10.00" fill="#000000">::API::Device</text>
</a>
</g>
</g>
<!-- Node12&#45;&gt;Node11 -->
<g id="edge9" class="edge">
<title>Node12&#45;&gt;Node11</title>
<path fill="none" stroke="#9a32cd" stroke-dasharray="5,2" d="M1093.9406,-137.6642C1135.9279,-136.8924 1187.9611,-135.9359 1228.1569,-135.197"/>
<polygon fill="#9a32cd" stroke="#9a32cd" points="1093.7059,-134.1678 1083.7719,-137.8511 1093.8346,-141.1666 1093.7059,-134.1678"/>
<text text-anchor="middle" x="1168.5" y="-139.0234" font-family="Helvetica,sans-Serif" font-size="10.00" fill="#000000"> _device</text>
</g>
<!-- Node13 -->
<g id="node11" class="node">
<title>Node13</title>
<g id="a_node11"><a xlink:href="structlug_1_1Graphics_1_1Vulkan_1_1PhysicalDeviceInfo.html" target="_top" xlink:title="lug::Graphics::Vulkan\l::PhysicalDeviceInfo">
<polygon fill="none" stroke="#000000" points="642.5,-155.0234 642.5,-185.0234 769.5,-185.0234 769.5,-155.0234 642.5,-155.0234"/>
<text text-anchor="start" x="650.5" y="-173.0234" font-family="Helvetica,sans-Serif" font-size="10.00" fill="#000000">lug::Graphics::Vulkan</text>
<text text-anchor="middle" x="706" y="-162.0234" font-family="Helvetica,sans-Serif" font-size="10.00" fill="#000000">::PhysicalDeviceInfo</text>
</a>
</g>
</g>
<!-- Node13&#45;&gt;Node12 -->
<g id="edge10" class="edge">
<title>Node13&#45;&gt;Node12</title>
<path fill="none" stroke="#9a32cd" stroke-dasharray="5,2" d="M779.67,-162.7502C833.2794,-157.4576 905.1409,-150.363 956.2831,-145.3139"/>
<polygon fill="#9a32cd" stroke="#9a32cd" points="779.1503,-159.2844 769.5426,-163.7501 779.8381,-166.2506 779.1503,-159.2844"/>
<text text-anchor="middle" x="861" y="-162.0234" font-family="Helvetica,sans-Serif" font-size="10.00" fill="#000000"> _physicalDeviceInfo</text>
</g>
<!-- Node14 -->
<g id="node12" class="node">
<title>Node14</title>
<g id="a_node12"><a xlink:href="structlug_1_1Graphics_1_1Vulkan_1_1PhysicalDeviceInfo_1_1Swapchain.html" target="_top" xlink:title="lug::Graphics::Vulkan\l::PhysicalDeviceInfo\l::Swapchain">
<polygon fill="none" stroke="#000000" points="324.5,-286.5234 324.5,-327.5234 451.5,-327.5234 451.5,-286.5234 324.5,-286.5234"/>
<text text-anchor="start" x="332.5" y="-315.5234" font-family="Helvetica,sans-Serif" font-size="10.00" fill="#000000">lug::Graphics::Vulkan</text>
<text text-anchor="start" x="332.5" y="-304.5234" font-family="Helvetica,sans-Serif" font-size="10.00" fill="#000000">::PhysicalDeviceInfo</text>
<text text-anchor="middle" x="388" y="-293.5234" font-family="Helvetica,sans-Serif" font-size="10.00" fill="#000000">::Swapchain</text>
</a>
</g>
</g>
<!-- Node14&#45;&gt;Node13 -->
<g id="edge11" class="edge">
<title>Node14&#45;&gt;Node13</title>
<path fill="none" stroke="#9a32cd" stroke-dasharray="5,2" d="M461.8956,-293.4901C504.5525,-283.965 558.4112,-268.9511 603,-247.0234 636.6585,-230.471 670.4986,-202.4825 689.7865,-185.1963"/>
<polygon fill="#9a32cd" stroke="#9a32cd" points="460.8886,-290.1273 451.8628,-295.6758 462.3787,-296.9668 460.8886,-290.1273"/>
<text text-anchor="middle" x="554.5" y="-283.0234" font-family="Helvetica,sans-Serif" font-size="10.00" fill="#000000"> swapchain</text>
</g>
<!-- Node15 -->
<g id="node13" class="node">
<title>Node15</title>
<polygon fill="none" stroke="#bfbfbf" points="16.5,-335.5234 16.5,-354.5234 162.5,-354.5234 162.5,-335.5234 16.5,-335.5234"/>
<text text-anchor="middle" x="89.5" y="-342.5234" font-family="Helvetica,sans-Serif" font-size="10.00" fill="#000000">VkSurfaceCapabilitiesKHR</text>
</g>
<!-- Node15&#45;&gt;Node14 -->
<g id="edge12" class="edge">
<title>Node15&#45;&gt;Node14</title>
<path fill="none" stroke="#9a32cd" stroke-dasharray="5,2" d="M172.5828,-334.4467C220.5932,-328.3348 280.0566,-320.7649 324.3375,-315.1278"/>
<polygon fill="#9a32cd" stroke="#9a32cd" points="171.9992,-330.9926 162.5213,-335.7275 172.8833,-337.9366 171.9992,-330.9926"/>
<text text-anchor="middle" x="233.5" y="-333.0234" font-family="Helvetica,sans-Serif" font-size="10.00" fill="#000000"> capabilities</text>
</g>
<!-- Node16 -->
<g id="node14" class="node">
<title>Node16</title>
<polygon fill="none" stroke="#bfbfbf" points="0,-297.5234 0,-316.5234 179,-316.5234 179,-297.5234 0,-297.5234"/>
<text text-anchor="middle" x="89.5" y="-304.5234" font-family="Helvetica,sans-Serif" font-size="10.00" fill="#000000">vector&lt; VkSurfaceFormatKHR &gt;</text>
</g>
<!-- Node16&#45;&gt;Node14 -->
<g id="edge13" class="edge">
<title>Node16&#45;&gt;Node14</title>
<path fill="none" stroke="#9a32cd" stroke-dasharray="5,2" d="M189.3241,-307.0234C233.799,-307.0234 284.8747,-307.0234 324.1016,-307.0234"/>
<polygon fill="#9a32cd" stroke="#9a32cd" points="189.0599,-303.5235 179.0598,-307.0234 189.0598,-310.5235 189.0599,-303.5235"/>
<text text-anchor="middle" x="233.5" y="-310.0234" font-family="Helvetica,sans-Serif" font-size="10.00" fill="#000000"> formats</text>
</g>
<!-- Node17 -->
<g id="node15" class="node">
<title>Node17</title>
<polygon fill="none" stroke="#bfbfbf" points="4.5,-259.5234 4.5,-278.5234 174.5,-278.5234 174.5,-259.5234 4.5,-259.5234"/>
<text text-anchor="middle" x="89.5" y="-266.5234" font-family="Helvetica,sans-Serif" font-size="10.00" fill="#000000">vector&lt; VkPresentModeKHR &gt;</text>
</g>
<!-- Node17&#45;&gt;Node14 -->
<g id="edge14" class="edge">
<title>Node17&#45;&gt;Node14</title>
<path fill="none" stroke="#9a32cd" stroke-dasharray="5,2" d="M174.4265,-279.8348C222.0428,-285.8965 280.4605,-293.3333 324.1567,-298.8959"/>
<polygon fill="#9a32cd" stroke="#9a32cd" points="174.8008,-276.3543 164.4389,-278.5633 173.9168,-283.2983 174.8008,-276.3543"/>
<text text-anchor="middle" x="233.5" y="-294.0234" font-family="Helvetica,sans-Serif" font-size="10.00" fill="#000000"> presentModes</text>
</g>
<!-- Node18 -->
<g id="node16" class="node">
<title>Node18</title>
<polygon fill="none" stroke="#bfbfbf" points="308.5,-237.0234 308.5,-267.0234 467.5,-267.0234 467.5,-237.0234 308.5,-237.0234"/>
<text text-anchor="start" x="316.5" y="-255.0234" font-family="Helvetica,sans-Serif" font-size="10.00" fill="#000000">unordered_map&lt; VkFormat,</text>
<text text-anchor="middle" x="388" y="-244.0234" font-family="Helvetica,sans-Serif" font-size="10.00" fill="#000000"> VkFormatProperties &gt;</text>
</g>
<!-- Node18&#45;&gt;Node13 -->
<g id="edge15" class="edge">
<title>Node18&#45;&gt;Node13</title>
<path fill="none" stroke="#9a32cd" stroke-dasharray="5,2" d="M477.9243,-238.1288C516.7698,-231.1858 562.5049,-221.7412 603,-210.0234 626.4024,-203.2516 651.9345,-193.3543 671.7236,-185.0992"/>
<polygon fill="#9a32cd" stroke="#9a32cd" points="476.9265,-234.7505 467.6841,-239.9301 478.1392,-241.6447 476.9265,-234.7505"/>
<text text-anchor="middle" x="554.5" y="-235.0234" font-family="Helvetica,sans-Serif" font-size="10.00" fill="#000000"> formatProperties</text>
</g>
<!-- Node19 -->
<g id="node17" class="node">
<title>Node19</title>
<polygon fill="none" stroke="#bfbfbf" points="315,-198.5234 315,-217.5234 461,-217.5234 461,-198.5234 315,-198.5234"/>
<text text-anchor="middle" x="388" y="-205.5234" font-family="Helvetica,sans-Serif" font-size="10.00" fill="#000000">VkPhysicalDeviceFeatures</text>
</g>
<!-- Node19&#45;&gt;Node13 -->
<g id="edge16" class="edge">
<title>Node19&#45;&gt;Node13</title>
<path fill="none" stroke="#9a32cd" stroke-dasharray="5,2" d="M471.1763,-199.8702C511.0898,-195.7675 559.5675,-190.5071 603,-185.0234 615.7291,-183.4163 629.3202,-181.5468 642.3161,-179.6841"/>
<polygon fill="#9a32cd" stroke="#9a32cd" points="470.8138,-196.3889 461.2216,-200.8877 471.5257,-203.3526 470.8138,-196.3889"/>
<text text-anchor="middle" x="554.5" y="-198.0234" font-family="Helvetica,sans-Serif" font-size="10.00" fill="#000000"> features</text>
</g>
<!-- Node20 -->
<g id="node18" class="node">
<title>Node20</title>
<polygon fill="none" stroke="#bfbfbf" points="288,-160.5234 288,-179.5234 488,-179.5234 488,-160.5234 288,-160.5234"/>
<text text-anchor="middle" x="388" y="-167.5234" font-family="Helvetica,sans-Serif" font-size="10.00" fill="#000000">vector&lt; VkQueueFamilyProperties &gt;</text>
</g>
<!-- Node20&#45;&gt;Node13 -->
<g id="edge17" class="edge">
<title>Node20&#45;&gt;Node13</title>
<path fill="none" stroke="#9a32cd" stroke-dasharray="5,2" d="M498.3415,-170.0234C546.4596,-170.0234 601.1572,-170.0234 642.3325,-170.0234"/>
<polygon fill="#9a32cd" stroke="#9a32cd" points="498.1807,-166.5235 488.1807,-170.0234 498.1807,-173.5235 498.1807,-166.5235"/>
<text text-anchor="middle" x="554.5" y="-173.0234" font-family="Helvetica,sans-Serif" font-size="10.00" fill="#000000"> queueFamilies</text>
</g>
<!-- Node21 -->
<g id="node19" class="node">
<title>Node21</title>
<polygon fill="none" stroke="#bfbfbf" points="290.5,-122.5234 290.5,-141.5234 485.5,-141.5234 485.5,-122.5234 290.5,-122.5234"/>
<text text-anchor="middle" x="388" y="-129.5234" font-family="Helvetica,sans-Serif" font-size="10.00" fill="#000000">VkPhysicalDeviceMemoryProperties</text>
</g>
<!-- Node21&#45;&gt;Node13 -->
<g id="edge18" class="edge">
<title>Node21&#45;&gt;Node13</title>
<path fill="none" stroke="#9a32cd" stroke-dasharray="5,2" d="M494.5457,-142.6113C529.1692,-146.2684 567.7465,-150.5724 603,-155.0234 615.7291,-156.6305 629.3202,-158.5 642.3161,-160.3627"/>
<polygon fill="#9a32cd" stroke="#9a32cd" points="494.7257,-139.1111 484.4149,-141.5477 493.9948,-146.0728 494.7257,-139.1111"/>
<text text-anchor="middle" x="554.5" y="-158.0234" font-family="Helvetica,sans-Serif" font-size="10.00" fill="#000000"> memoryProperties</text>
</g>
<!-- Node22 -->
<g id="node20" class="node">
<title>Node22</title>
<polygon fill="none" stroke="#bfbfbf" points="336,-84.5234 336,-103.5234 440,-103.5234 440,-84.5234 336,-84.5234"/>
<text text-anchor="middle" x="388" y="-91.5234" font-family="Helvetica,sans-Serif" font-size="10.00" fill="#000000">VkPhysicalDevice</text>
</g>
<!-- Node22&#45;&gt;Node13 -->
<g id="edge19" class="edge">
<title>Node22&#45;&gt;Node13</title>
<path fill="none" stroke="#9a32cd" stroke-dasharray="5,2" d="M450.2259,-94.5603C494.8177,-97.174 555.1933,-105.3909 603,-129.0234 612.8645,-133.8997 611.4289,-140.5939 621,-146.0234 627.6687,-149.8064 634.9749,-153.0272 642.4152,-155.7611"/>
<polygon fill="#9a32cd" stroke="#9a32cd" points="450.2708,-91.0582 440.1063,-94.0469 449.916,-98.0492 450.2708,-91.0582"/>
<text text-anchor="middle" x="554.5" y="-132.0234" font-family="Helvetica,sans-Serif" font-size="10.00" fill="#000000"> handle</text>
</g>
<!-- Node23 -->
<g id="node21" class="node">
<title>Node23</title>
<polygon fill="none" stroke="#bfbfbf" points="310.5,-46.5234 310.5,-65.5234 465.5,-65.5234 465.5,-46.5234 310.5,-46.5234"/>
<text text-anchor="middle" x="388" y="-53.5234" font-family="Helvetica,sans-Serif" font-size="10.00" fill="#000000">VkPhysicalDeviceProperties</text>
</g>
<!-- Node23&#45;&gt;Node13 -->
<g id="edge20" class="edge">
<title>Node23&#45;&gt;Node13</title>
<path fill="none" stroke="#9a32cd" stroke-dasharray="5,2" d="M475.8953,-46.9613C518.8281,-47.3073 568.527,-55.4548 603,-85.0234 624.4555,-103.4265 600.8953,-126.1535 621,-146.0234 626.9984,-151.9517 634.3428,-156.4405 642.1779,-159.8347"/>
<polygon fill="#9a32cd" stroke="#9a32cd" points="475.6906,-43.4624 465.7115,-47.0215 475.7321,-50.4622 475.6906,-43.4624"/>
<text text-anchor="middle" x="554.5" y="-88.0234" font-family="Helvetica,sans-Serif" font-size="10.00" fill="#000000"> properties</text>
</g>
<!-- Node24 -->
<g id="node22" class="node">
<title>Node24</title>
<polygon fill="none" stroke="#bfbfbf" points="296,-8.5234 296,-27.5234 480,-27.5234 480,-8.5234 296,-8.5234"/>
<text text-anchor="middle" x="388" y="-15.5234" font-family="Helvetica,sans-Serif" font-size="10.00" fill="#000000">vector&lt; VkExtensionProperties &gt;</text>
</g>
<!-- Node24&#45;&gt;Node13 -->
<g id="edge21" class="edge">
<title>Node24&#45;&gt;Node13</title>
<path fill="none" stroke="#9a32cd" stroke-dasharray="5,2" d="M434.3784,-6.5477C482.8395,2.4239 557.9594,7.3398 603,-34.0234 640.1335,-68.1251 587.4735,-108.3697 621,-146.0234 626.8122,-152.5511 634.2501,-157.3618 642.3016,-160.8964"/>
<polygon fill="#9a32cd" stroke="#9a32cd" points="433.5934,-3.1351 424.4623,-8.5085 434.9514,-10.0021 433.5934,-3.1351"/>
<text text-anchor="middle" x="554.5" y="-37.0234" font-family="Helvetica,sans-Serif" font-size="10.00" fill="#000000"> extensions</text>
</g>
<!-- Node25 -->
<g id="node23" class="node">
<title>Node25</title>
<polygon fill="none" stroke="#bfbfbf" points="621,-106.0234 621,-136.0234 791,-136.0234 791,-106.0234 621,-106.0234"/>
<text text-anchor="start" x="629" y="-124.0234" font-family="Helvetica,sans-Serif" font-size="10.00" fill="#000000">vector&lt; lug::Graphics</text>
<text text-anchor="middle" x="706" y="-113.0234" font-family="Helvetica,sans-Serif" font-size="10.00" fill="#000000">::Vulkan::API::QueueFamily &gt;</text>
</g>
<!-- Node25&#45;&gt;Node12 -->
<g id="edge22" class="edge">
<title>Node25&#45;&gt;Node12</title>
<path fill="none" stroke="#9a32cd" stroke-dasharray="5,2" d="M801.3861,-124.3627C836.4929,-125.8046 876.5693,-127.7002 913,-130.0234 927.0462,-130.9191 942.114,-132.0693 956.3792,-133.246"/>
<polygon fill="#9a32cd" stroke="#9a32cd" points="801.2764,-120.8555 791.1433,-123.949 800.9939,-127.8498 801.2764,-120.8555"/>
<text text-anchor="middle" x="861" y="-133.0234" font-family="Helvetica,sans-Serif" font-size="10.00" fill="#000000"> _queueFamilies</text>
</g>
<!-- Node26 -->
<g id="node24" class="node">
<title>Node26</title>
<polygon fill="none" stroke="#bfbfbf" points="674.5,-67.5234 674.5,-86.5234 737.5,-86.5234 737.5,-67.5234 674.5,-67.5234"/>
<text text-anchor="middle" x="706" y="-74.5234" font-family="Helvetica,sans-Serif" font-size="10.00" fill="#000000">VkDevice</text>
</g>
<!-- Node26&#45;&gt;Node12 -->
<g id="edge23" class="edge">
<title>Node26&#45;&gt;Node12</title>
<path fill="none" stroke="#9a32cd" stroke-dasharray="5,2" d="M747.9134,-82.0025C789.9223,-87.3439 856.3196,-96.7428 913,-109.0234 913.7483,-109.1855 940.0878,-116.5701 966.4431,-123.9711"/>
<polygon fill="#9a32cd" stroke="#9a32cd" points="748.137,-78.5032 737.7794,-80.7326 747.2666,-85.4489 748.137,-78.5032"/>
<text text-anchor="middle" x="861" y="-112.0234" font-family="Helvetica,sans-Serif" font-size="10.00" fill="#000000"> _device</text>
</g>
<!-- Node27 -->
<g id="node25" class="node">
<title>Node27</title>
<polygon fill="none" stroke="#bfbfbf" points="978,-85.5234 978,-104.5234 1062,-104.5234 1062,-85.5234 978,-85.5234"/>
<text text-anchor="middle" x="1020" y="-92.5234" font-family="Helvetica,sans-Serif" font-size="10.00" fill="#000000">VkDeviceSize</text>
</g>
<!-- Node27&#45;&gt;Node11 -->
<g id="edge24" class="edge">
<title>Node27&#45;&gt;Node11</title>
<path fill="none" stroke="#9a32cd" stroke-dasharray="5,2" d="M1072.6867,-101.4064C1110.8637,-106.1654 1163.6923,-113.0264 1210,-120.0234 1215.9976,-120.9296 1222.2344,-121.9153 1228.4705,-122.93"/>
<polygon fill="#9a32cd" stroke="#9a32cd" points="1072.6797,-97.8788 1062.3249,-100.1215 1071.8182,-104.8256 1072.6797,-97.8788"/>
<text text-anchor="middle" x="1168.5" y="-123.0234" font-family="Helvetica,sans-Serif" font-size="10.00" fill="#000000"> _size</text>
</g>
<!-- Node28 -->
<g id="node26" class="node">
<title>Node28</title>
<polygon fill="none" stroke="#bfbfbf" points="968,-47.5234 968,-66.5234 1072,-66.5234 1072,-47.5234 968,-47.5234"/>
<text text-anchor="middle" x="1020" y="-54.5234" font-family="Helvetica,sans-Serif" font-size="10.00" fill="#000000">VkDeviceMemory</text>
</g>
<!-- Node28&#45;&gt;Node11 -->
<g id="edge25" class="edge">
<title>Node28&#45;&gt;Node11</title>
<path fill="none" stroke="#9a32cd" stroke-dasharray="5,2" d="M1082.4999,-64.4275C1120.1075,-69.9678 1168.5654,-79.0413 1210,-93.0234 1229.756,-99.6901 1250.7652,-110.2699 1266.5718,-119.0123"/>
<polygon fill="#9a32cd" stroke="#9a32cd" points="1082.5893,-60.9049 1072.1952,-62.9574 1081.6006,-67.8347 1082.5893,-60.9049"/>
<text text-anchor="middle" x="1168.5" y="-96.0234" font-family="Helvetica,sans-Serif" font-size="10.00" fill="#000000"> _deviceMemory</text>
</g>
</g>
</svg>
