<?xml version="1.0" encoding="UTF-8" standalone="no"?>
<!DOCTYPE svg PUBLIC "-//W3C//DTD SVG 1.1//EN"
 "http://www.w3.org/Graphics/SVG/1.1/DTD/svg11.dtd">
<!-- Generated by graphviz version 2.40.1 (20161225.0304)
 -->
<!-- Title: lug::Graphics::Vulkan::Render::Mesh Pages: 1 -->
<!--zoomable 433 -->
<svg id="main" version="1.1" xmlns="http://www.w3.org/2000/svg" xmlns:xlink="http://www.w3.org/1999/xlink" xml:space="preserve" onload="init(evt)">
<style type="text/css"><![CDATA[
.edge:hover path { stroke: red; }
.edge:hover polygon { stroke: red; fill: red; }
]]></style>
<script type="text/javascript"><![CDATA[
var edges = document.getElementsByTagName('g');
if (edges && edges.length) {
  for (var i=0;i<edges.length;i++) {
    if (edges[i].id.substr(0,4)=='edge') {
      edges[i].setAttribute('class','edge');
    }
  }
}
]]></script>
        <defs>
                <circle id="rim" cx="0" cy="0" r="7"/>
                <circle id="rim2" cx="0" cy="0" r="3.5"/>
                <g id="zoomPlus">
                        <use xlink:href="#rim" fill="#404040">
                                <set attributeName="fill" to="#808080" begin="zoomplus.mouseover" end="zoomplus.mouseout"/>
                        </use>
                        <path d="M-4,0h8M0,-4v8" fill="none" stroke="white" stroke-width="1.5" pointer-events="none"/>
                </g>
                <g id="zoomMin">
                        <use xlink:href="#rim" fill="#404040">
                                <set attributeName="fill" to="#808080" begin="zoomminus.mouseover" end="zoomminus.mouseout"/>
                        </use>
                        <path d="M-4,0h8" fill="none" stroke="white" stroke-width="1.5" pointer-events="none"/>
                </g>
                <g id="dirArrow">
                        <path fill="none" stroke="white" stroke-width="1.5" d="M0,-3.0v7 M-2.5,-0.5L0,-3.0L2.5,-0.5"/>
                </g>
               <g id="resetDef">
                       <use xlink:href="#rim2" fill="#404040">
                               <set attributeName="fill" to="#808080" begin="reset.mouseover" end="reset.mouseout"/>
                       </use>
               </g>
        </defs>

<script type="text/javascript">
var viewWidth = 1374;
var viewHeight = 433;
var sectionId = 'dynsection-1';
</script>
<script xlink:href="svgpan.js"/>
<svg id="graph" class="graph">
<g id="viewport">
<title>lug::Graphics::Vulkan::Render::Mesh</title>
<!-- Node2 -->
<g id="node1" class="node">
<title>Node2</title>
<polygon fill="#bfbfbf" stroke="#000000" points="1239,-181.6423 1239,-211.6423 1366,-211.6423 1366,-181.6423 1239,-181.6423"/>
<text text-anchor="start" x="1247" y="-199.6423" font-family="Helvetica,sans-Serif" font-size="10.00" fill="#000000">lug::Graphics::Vulkan</text>
<text text-anchor="middle" x="1302.5" y="-188.6423" font-family="Helvetica,sans-Serif" font-size="10.00" fill="#000000">::Render::Mesh</text>
</g>
<!-- Node3 -->
<g id="node2" class="node">
<title>Node3</title>
<g id="a_node2"><a xlink:href="classlug_1_1Graphics_1_1Render_1_1Mesh.html" target="_top" xlink:title="lug::Graphics::Render\l::Mesh">
<polygon fill="none" stroke="#000000" points="936,-299.6423 936,-329.6423 1064,-329.6423 1064,-299.6423 936,-299.6423"/>
<text text-anchor="start" x="944" y="-317.6423" font-family="Helvetica,sans-Serif" font-size="10.00" fill="#000000">lug::Graphics::Render</text>
<text text-anchor="middle" x="1000" y="-306.6423" font-family="Helvetica,sans-Serif" font-size="10.00" fill="#000000">::Mesh</text>
</a>
</g>
</g>
<!-- Node3&#45;&gt;Node2 -->
<g id="edge1" class="edge">
<title>Node3&#45;&gt;Node2</title>
<path fill="none" stroke="#191970" d="M1074.5979,-310.3457C1119.069,-305.3533 1175.5298,-294.6269 1221,-271.6423 1250.0019,-256.9822 1276.2304,-228.9925 1290.7081,-211.6614"/>
<polygon fill="#191970" stroke="#191970" points="1074.0154,-306.8875 1064.4348,-311.411 1074.7452,-313.8493 1074.0154,-306.8875"/>
</g>
<!-- Node4 -->
<g id="node3" class="node">
<title>Node4</title>
<g id="a_node3"><a xlink:href="structlug_1_1Graphics_1_1Render_1_1Mesh_1_1Material.html" target="_top" xlink:title="lug::Graphics::Render\l::Mesh::Material">
<polygon fill="none" stroke="#000000" points="631.5,-306.6423 631.5,-336.6423 759.5,-336.6423 759.5,-306.6423 631.5,-306.6423"/>
<text text-anchor="start" x="639.5" y="-324.6423" font-family="Helvetica,sans-Serif" font-size="10.00" fill="#000000">lug::Graphics::Render</text>
<text text-anchor="middle" x="695.5" y="-313.6423" font-family="Helvetica,sans-Serif" font-size="10.00" fill="#000000">::Mesh::Material</text>
</a>
</g>
</g>
<!-- Node4&#45;&gt;Node3 -->
<g id="edge2" class="edge">
<title>Node4&#45;&gt;Node3</title>
<path fill="none" stroke="#9a32cd" stroke-dasharray="5,2" d="M769.9722,-319.9303C820.7938,-318.762 887.423,-317.2303 935.8833,-316.1162"/>
<polygon fill="#9a32cd" stroke="#9a32cd" points="769.6214,-316.4373 759.7045,-320.1663 769.7824,-323.4355 769.6214,-316.4373"/>
<text text-anchor="middle" x="840" y="-321.6423" font-family="Helvetica,sans-Serif" font-size="10.00" fill="#000000"> _baseMaterial</text>
</g>
<!-- Node5 -->
<g id="node4" class="node">
<title>Node5</title>
<polygon fill="none" stroke="#bfbfbf" points="366,-341.1423 366,-360.1423 410,-360.1423 410,-341.1423 366,-341.1423"/>
<text text-anchor="middle" x="388" y="-348.1423" font-family="Helvetica,sans-Serif" font-size="10.00" fill="#000000">Vec3f</text>
</g>
<!-- Node5&#45;&gt;Node4 -->
<g id="edge3" class="edge">
<title>Node5&#45;&gt;Node4</title>
<path fill="none" stroke="#9a32cd" stroke-dasharray="5,2" d="M420.3104,-347.5951C470.21,-342.8891 566.9864,-333.7623 631.4356,-327.6841"/>
<polygon fill="#9a32cd" stroke="#9a32cd" points="419.7418,-344.1331 410.1146,-348.5567 420.3991,-351.1022 419.7418,-344.1331"/>
<text text-anchor="middle" x="554.5" y="-363.6423" font-family="Helvetica,sans-Serif" font-size="10.00" fill="#000000"> ambient</text>
<text text-anchor="middle" x="554.5" y="-352.6423" font-family="Helvetica,sans-Serif" font-size="10.00" fill="#000000">diffuse</text>
<text text-anchor="middle" x="554.5" y="-341.6423" font-family="Helvetica,sans-Serif" font-size="10.00" fill="#000000">specular</text>
</g>
<!-- Node6 -->
<g id="node5" class="node">
<title>Node6</title>
<polygon fill="none" stroke="#bfbfbf" points="673,-222.1423 673,-241.1423 718,-241.1423 718,-222.1423 673,-222.1423"/>
<text text-anchor="middle" x="695.5" y="-229.1423" font-family="Helvetica,sans-Serif" font-size="10.00" fill="#000000">string</text>
</g>
<!-- Node6&#45;&gt;Node3 -->
<g id="edge4" class="edge">
<title>Node6&#45;&gt;Node3</title>
<path fill="none" stroke="#9a32cd" stroke-dasharray="5,2" d="M728.3,-236.4837C767.672,-242.714 835.464,-254.7796 892,-271.6423 917.5282,-279.2564 945.4444,-290.4509 966.4987,-299.509"/>
<polygon fill="#9a32cd" stroke="#9a32cd" points="728.6365,-232.9941 718.2178,-234.918 727.5623,-239.9112 728.6365,-232.9941"/>
<text text-anchor="middle" x="840" y="-274.6423" font-family="Helvetica,sans-Serif" font-size="10.00" fill="#000000"> _name</text>
</g>
<!-- Node7 -->
<g id="node6" class="node">
<title>Node7</title>
<polygon fill="none" stroke="#bfbfbf" points="676.5,-405.1423 676.5,-424.1423 714.5,-424.1423 714.5,-405.1423 676.5,-405.1423"/>
<text text-anchor="middle" x="695.5" y="-412.1423" font-family="Helvetica,sans-Serif" font-size="10.00" fill="#000000">bool</text>
</g>
<!-- Node7&#45;&gt;Node3 -->
<g id="edge5" class="edge">
<title>Node7&#45;&gt;Node3</title>
<path fill="none" stroke="#9a32cd" stroke-dasharray="5,2" d="M724.6639,-409.4999C763.5312,-402.2015 834.1336,-387.3826 892,-366.6423 920.4053,-356.4613 951.2809,-341.131 972.7155,-329.7509"/>
<polygon fill="#9a32cd" stroke="#9a32cd" points="723.7801,-406.1037 714.5798,-411.3577 725.0484,-412.9879 723.7801,-406.1037"/>
<text text-anchor="middle" x="840" y="-397.6423" font-family="Helvetica,sans-Serif" font-size="10.00" fill="#000000"> _loaded</text>
</g>
<!-- Node8 -->
<g id="node7" class="node">
<title>Node8</title>
<polygon fill="none" stroke="#bfbfbf" points="639,-265.1423 639,-284.1423 752,-284.1423 752,-265.1423 639,-265.1423"/>
<text text-anchor="middle" x="695.5" y="-272.1423" font-family="Helvetica,sans-Serif" font-size="10.00" fill="#000000">vector&lt; uint32_t &gt;</text>
</g>
<!-- Node8&#45;&gt;Node2 -->
<g id="edge22" class="edge">
<title>Node8&#45;&gt;Node2</title>
<path fill="none" stroke="#9a32cd" stroke-dasharray="5,2" d="M761.9905,-268.0219C861.8904,-257.7698 1056.5408,-236.6096 1221,-211.6423 1226.8318,-210.7569 1232.8861,-209.7704 1238.9421,-208.7378"/>
<polygon fill="#9a32cd" stroke="#9a32cd" points="761.6303,-264.5404 752.0381,-269.0393 762.3422,-271.5041 761.6303,-264.5404"/>
<text text-anchor="middle" x="1000" y="-253.6423" font-family="Helvetica,sans-Serif" font-size="10.00" fill="#000000"> _queueFamilyIndices</text>
</g>
<!-- Node8&#45;&gt;Node3 -->
<g id="edge6" class="edge">
<title>Node8&#45;&gt;Node3</title>
<path fill="none" stroke="#9a32cd" stroke-dasharray="5,2" d="M762.1147,-283.393C813.7426,-290.175 884.84,-299.5145 935.8376,-306.2137"/>
<polygon fill="#9a32cd" stroke="#9a32cd" points="762.4312,-279.9046 752.0605,-282.0722 761.5194,-286.8449 762.4312,-279.9046"/>
<text text-anchor="middle" x="840" y="-301.6423" font-family="Helvetica,sans-Serif" font-size="10.00" fill="#000000"> indices</text>
</g>
<!-- Node9 -->
<g id="node8" class="node">
<title>Node9</title>
<polygon fill="none" stroke="#bfbfbf" points="621,-355.6423 621,-385.6423 770,-385.6423 770,-355.6423 621,-355.6423"/>
<text text-anchor="start" x="629" y="-373.6423" font-family="Helvetica,sans-Serif" font-size="10.00" fill="#000000">vector&lt; lug::Graphics</text>
<text text-anchor="middle" x="695.5" y="-362.6423" font-family="Helvetica,sans-Serif" font-size="10.00" fill="#000000">::Render::Mesh::Vertex &gt;</text>
</g>
<!-- Node9&#45;&gt;Node3 -->
<g id="edge7" class="edge">
<title>Node9&#45;&gt;Node3</title>
<path fill="none" stroke="#9a32cd" stroke-dasharray="5,2" d="M780.3883,-355.0306C829.6733,-345.9667 890.7539,-334.7335 935.9772,-326.4166"/>
<polygon fill="#9a32cd" stroke="#9a32cd" points="779.581,-351.6203 770.3791,-356.8714 780.8472,-358.5049 779.581,-351.6203"/>
<text text-anchor="middle" x="840" y="-354.6423" font-family="Helvetica,sans-Serif" font-size="10.00" fill="#000000"> vertices</text>
</g>
<!-- Node10 -->
<g id="node9" class="node">
<title>Node10</title>
<g id="a_node9"><a xlink:href="classlug_1_1Graphics_1_1Vulkan_1_1API_1_1Device.html" target="_top" xlink:title="lug::Graphics::Vulkan\l::API::Device">
<polygon fill="none" stroke="#000000" points="936.5,-181.6423 936.5,-211.6423 1063.5,-211.6423 1063.5,-181.6423 936.5,-181.6423"/>
<text text-anchor="start" x="944.5" y="-199.6423" font-family="Helvetica,sans-Serif" font-size="10.00" fill="#000000">lug::Graphics::Vulkan</text>
<text text-anchor="middle" x="1000" y="-188.6423" font-family="Helvetica,sans-Serif" font-size="10.00" fill="#000000">::API::Device</text>
</a>
</g>
</g>
<!-- Node10&#45;&gt;Node2 -->
<g id="edge8" class="edge">
<title>Node10&#45;&gt;Node2</title>
<path fill="none" stroke="#9a32cd" stroke-dasharray="5,2" d="M1073.983,-196.6423C1124.4708,-196.6423 1190.6624,-196.6423 1238.8044,-196.6423"/>
<polygon fill="#9a32cd" stroke="#9a32cd" points="1073.7829,-193.1424 1063.7828,-196.6423 1073.7828,-200.1424 1073.7829,-193.1424"/>
<text text-anchor="middle" x="1164.5" y="-199.6423" font-family="Helvetica,sans-Serif" font-size="10.00" fill="#000000"> _device</text>
</g>
<!-- Node11 -->
<g id="node10" class="node">
<title>Node11</title>
<g id="a_node10"><a xlink:href="structlug_1_1Graphics_1_1Vulkan_1_1PhysicalDeviceInfo.html" target="_top" xlink:title="lug::Graphics::Vulkan\l::PhysicalDeviceInfo">
<polygon fill="none" stroke="#000000" points="632,-172.6423 632,-202.6423 759,-202.6423 759,-172.6423 632,-172.6423"/>
<text text-anchor="start" x="640" y="-190.6423" font-family="Helvetica,sans-Serif" font-size="10.00" fill="#000000">lug::Graphics::Vulkan</text>
<text text-anchor="middle" x="695.5" y="-179.6423" font-family="Helvetica,sans-Serif" font-size="10.00" fill="#000000">::PhysicalDeviceInfo</text>
</a>
</g>
</g>
<!-- Node11&#45;&gt;Node10 -->
<g id="edge9" class="edge">
<title>Node11&#45;&gt;Node10</title>
<path fill="none" stroke="#9a32cd" stroke-dasharray="5,2" d="M769.6327,-189.8334C820.6252,-191.3406 887.6526,-193.3217 936.2509,-194.7581"/>
<polygon fill="#9a32cd" stroke="#9a32cd" points="769.4322,-186.326 759.3332,-189.529 769.2254,-193.323 769.4322,-186.326"/>
<text text-anchor="middle" x="840" y="-195.6423" font-family="Helvetica,sans-Serif" font-size="10.00" fill="#000000"> _physicalDeviceInfo</text>
</g>
<!-- Node12 -->
<g id="node11" class="node">
<title>Node12</title>
<g id="a_node11"><a xlink:href="structlug_1_1Graphics_1_1Vulkan_1_1PhysicalDeviceInfo_1_1Swapchain.html" target="_top" xlink:title="lug::Graphics::Vulkan\l::PhysicalDeviceInfo\l::Swapchain">
<polygon fill="none" stroke="#000000" points="324.5,-167.1423 324.5,-208.1423 451.5,-208.1423 451.5,-167.1423 324.5,-167.1423"/>
<text text-anchor="start" x="332.5" y="-196.1423" font-family="Helvetica,sans-Serif" font-size="10.00" fill="#000000">lug::Graphics::Vulkan</text>
<text text-anchor="start" x="332.5" y="-185.1423" font-family="Helvetica,sans-Serif" font-size="10.00" fill="#000000">::PhysicalDeviceInfo</text>
<text text-anchor="middle" x="388" y="-174.1423" font-family="Helvetica,sans-Serif" font-size="10.00" fill="#000000">::Swapchain</text>
</a>
</g>
</g>
<!-- Node12&#45;&gt;Node11 -->
<g id="edge10" class="edge">
<title>Node12&#45;&gt;Node11</title>
<path fill="none" stroke="#9a32cd" stroke-dasharray="5,2" d="M461.8548,-187.6423C513.7317,-187.6423 582.4124,-187.6423 631.8674,-187.6423"/>
<polygon fill="#9a32cd" stroke="#9a32cd" points="461.7142,-184.1424 451.7142,-187.6423 461.7142,-191.1424 461.7142,-184.1424"/>
<text text-anchor="middle" x="554.5" y="-190.6423" font-family="Helvetica,sans-Serif" font-size="10.00" fill="#000000"> swapchain</text>
</g>
<!-- Node13 -->
<g id="node12" class="node">
<title>Node13</title>
<polygon fill="none" stroke="#bfbfbf" points="16.5,-216.1423 16.5,-235.1423 162.5,-235.1423 162.5,-216.1423 16.5,-216.1423"/>
<text text-anchor="middle" x="89.5" y="-223.1423" font-family="Helvetica,sans-Serif" font-size="10.00" fill="#000000">VkSurfaceCapabilitiesKHR</text>
</g>
<!-- Node13&#45;&gt;Node12 -->
<g id="edge11" class="edge">
<title>Node13&#45;&gt;Node12</title>
<path fill="none" stroke="#9a32cd" stroke-dasharray="5,2" d="M172.5828,-215.0656C220.5932,-208.9537 280.0566,-201.3838 324.3375,-195.7467"/>
<polygon fill="#9a32cd" stroke="#9a32cd" points="171.9992,-211.6115 162.5213,-216.3464 172.8833,-218.5555 171.9992,-211.6115"/>
<text text-anchor="middle" x="233.5" y="-213.6423" font-family="Helvetica,sans-Serif" font-size="10.00" fill="#000000"> capabilities</text>
</g>
<!-- Node14 -->
<g id="node13" class="node">
<title>Node14</title>
<polygon fill="none" stroke="#bfbfbf" points="0,-178.1423 0,-197.1423 179,-197.1423 179,-178.1423 0,-178.1423"/>
<text text-anchor="middle" x="89.5" y="-185.1423" font-family="Helvetica,sans-Serif" font-size="10.00" fill="#000000">vector&lt; VkSurfaceFormatKHR &gt;</text>
</g>
<!-- Node14&#45;&gt;Node12 -->
<g id="edge12" class="edge">
<title>Node14&#45;&gt;Node12</title>
<path fill="none" stroke="#9a32cd" stroke-dasharray="5,2" d="M189.3241,-187.6423C233.799,-187.6423 284.8747,-187.6423 324.1016,-187.6423"/>
<polygon fill="#9a32cd" stroke="#9a32cd" points="189.0599,-184.1424 179.0598,-187.6423 189.0598,-191.1424 189.0599,-184.1424"/>
<text text-anchor="middle" x="233.5" y="-190.6423" font-family="Helvetica,sans-Serif" font-size="10.00" fill="#000000"> formats</text>
</g>
<!-- Node15 -->
<g id="node14" class="node">
<title>Node15</title>
<polygon fill="none" stroke="#bfbfbf" points="4.5,-140.1423 4.5,-159.1423 174.5,-159.1423 174.5,-140.1423 4.5,-140.1423"/>
<text text-anchor="middle" x="89.5" y="-147.1423" font-family="Helvetica,sans-Serif" font-size="10.00" fill="#000000">vector&lt; VkPresentModeKHR &gt;</text>
</g>
<!-- Node15&#45;&gt;Node12 -->
<g id="edge13" class="edge">
<title>Node15&#45;&gt;Node12</title>
<path fill="none" stroke="#9a32cd" stroke-dasharray="5,2" d="M174.4265,-160.4537C222.0428,-166.5154 280.4605,-173.9522 324.1567,-179.5148"/>
<polygon fill="#9a32cd" stroke="#9a32cd" points="174.8008,-156.9732 164.4389,-159.1822 173.9168,-163.9171 174.8008,-156.9732"/>
<text text-anchor="middle" x="233.5" y="-174.6423" font-family="Helvetica,sans-Serif" font-size="10.00" fill="#000000"> presentModes</text>
</g>
<!-- Node16 -->
<g id="node15" class="node">
<title>Node16</title>
<polygon fill="none" stroke="#bfbfbf" points="308.5,-117.6423 308.5,-147.6423 467.5,-147.6423 467.5,-117.6423 308.5,-117.6423"/>
<text text-anchor="start" x="316.5" y="-135.6423" font-family="Helvetica,sans-Serif" font-size="10.00" fill="#000000">unordered_map&lt; VkFormat,</text>
<text text-anchor="middle" x="388" y="-124.6423" font-family="Helvetica,sans-Serif" font-size="10.00" fill="#000000"> VkFormatProperties &gt;</text>
</g>
<!-- Node16&#45;&gt;Node11 -->
<g id="edge14" class="edge">
<title>Node16&#45;&gt;Node11</title>
<path fill="none" stroke="#9a32cd" stroke-dasharray="5,2" d="M477.6344,-148.6744C527.021,-157.5078 587.1596,-168.2643 631.7311,-176.2365"/>
<polygon fill="#9a32cd" stroke="#9a32cd" points="478.0488,-145.1931 467.5888,-146.8777 476.8163,-152.0837 478.0488,-145.1931"/>
<text text-anchor="middle" x="554.5" y="-172.6423" font-family="Helvetica,sans-Serif" font-size="10.00" fill="#000000"> formatProperties</text>
</g>
<!-- Node17 -->
<g id="node16" class="node">
<title>Node17</title>
<polygon fill="none" stroke="#bfbfbf" points="315,-79.1423 315,-98.1423 461,-98.1423 461,-79.1423 315,-79.1423"/>
<text text-anchor="middle" x="388" y="-86.1423" font-family="Helvetica,sans-Serif" font-size="10.00" fill="#000000">VkPhysicalDeviceFeatures</text>
</g>
<!-- Node17&#45;&gt;Node11 -->
<g id="edge15" class="edge">
<title>Node17&#45;&gt;Node11</title>
<path fill="none" stroke="#9a32cd" stroke-dasharray="5,2" d="M452.5014,-100.0759C464.3452,-102.4082 476.5728,-104.9717 488,-107.6423 539.661,-119.7154 558.8888,-110.1666 603,-139.6423 613.7927,-146.8541 610.3998,-155.1503 621,-162.6423 626.4591,-166.5006 632.5579,-169.7979 638.8513,-172.6074"/>
<polygon fill="#9a32cd" stroke="#9a32cd" points="453.1516,-96.6368 442.6688,-98.1738 451.822,-103.5094 453.1516,-96.6368"/>
<text text-anchor="middle" x="554.5" y="-142.6423" font-family="Helvetica,sans-Serif" font-size="10.00" fill="#000000"> features</text>
</g>
<!-- Node18 -->
<g id="node17" class="node">
<title>Node18</title>
<polygon fill="none" stroke="#bfbfbf" points="288,-41.1423 288,-60.1423 488,-60.1423 488,-41.1423 288,-41.1423"/>
<text text-anchor="middle" x="388" y="-48.1423" font-family="Helvetica,sans-Serif" font-size="10.00" fill="#000000">vector&lt; VkQueueFamilyProperties &gt;</text>
</g>
<!-- Node18&#45;&gt;Node11 -->
<g id="edge16" class="edge">
<title>Node18&#45;&gt;Node11</title>
<path fill="none" stroke="#9a32cd" stroke-dasharray="5,2" d="M498.2695,-51.335C535.7793,-57.0122 575.2009,-69.8168 603,-96.6423 624.8791,-117.755 600.1277,-140.5337 621,-162.6423 624.6526,-166.5112 628.9213,-169.7815 633.5337,-172.5458"/>
<polygon fill="#9a32cd" stroke="#9a32cd" points="498.6488,-47.8545 488.2691,-49.9788 497.7081,-54.791 498.6488,-47.8545"/>
<text text-anchor="middle" x="554.5" y="-99.6423" font-family="Helvetica,sans-Serif" font-size="10.00" fill="#000000"> queueFamilies</text>
</g>
<!-- Node19 -->
<g id="node18" class="node">
<title>Node19</title>
<polygon fill="none" stroke="#bfbfbf" points="290.5,-3.1423 290.5,-22.1423 485.5,-22.1423 485.5,-3.1423 290.5,-3.1423"/>
<text text-anchor="middle" x="388" y="-10.1423" font-family="Helvetica,sans-Serif" font-size="10.00" fill="#000000">VkPhysicalDeviceMemoryProperties</text>
</g>
<!-- Node19&#45;&gt;Node11 -->
<g id="edge17" class="edge">
<title>Node19&#45;&gt;Node11</title>
<path fill="none" stroke="#9a32cd" stroke-dasharray="5,2" d="M447.9106,-1.996C496.3268,2.8949 562.8172,.5951 603,-38.6423 642.8438,-77.5486 585.3123,-119.8915 621,-162.6423 624.2349,-166.5174 628.0909,-169.7946 632.321,-172.5657"/>
<polygon fill="#9a32cd" stroke="#9a32cd" points="447.4098,1.4696 437.8694,-3.1382 448.2009,-5.4855 447.4098,1.4696"/>
<text text-anchor="middle" x="554.5" y="-41.6423" font-family="Helvetica,sans-Serif" font-size="10.00" fill="#000000"> memoryProperties</text>
</g>
<!-- Node20 -->
<g id="node19" class="node">
<title>Node20</title>
<polygon fill="none" stroke="#bfbfbf" points="336,-303.1423 336,-322.1423 440,-322.1423 440,-303.1423 336,-303.1423"/>
<text text-anchor="middle" x="388" y="-310.1423" font-family="Helvetica,sans-Serif" font-size="10.00" fill="#000000">VkPhysicalDevice</text>
</g>
<!-- Node20&#45;&gt;Node11 -->
<g id="edge18" class="edge">
<title>Node20&#45;&gt;Node11</title>
<path fill="none" stroke="#9a32cd" stroke-dasharray="5,2" d="M450.164,-301.2592C462.7096,-298.8415 475.7921,-296.2339 488,-293.6423 539.3564,-282.7398 564.2236,-302.0363 603,-266.6423 621.6849,-249.5872 603.1295,-230.5488 621,-212.6423 624.8549,-208.7796 629.324,-205.5137 634.1212,-202.7523"/>
<polygon fill="#9a32cd" stroke="#9a32cd" points="449.4107,-297.8397 440.2447,-303.1534 450.7238,-304.7154 449.4107,-297.8397"/>
<text text-anchor="middle" x="554.5" y="-292.6423" font-family="Helvetica,sans-Serif" font-size="10.00" fill="#000000"> handle</text>
</g>
<!-- Node21 -->
<g id="node20" class="node">
<title>Node21</title>
<polygon fill="none" stroke="#bfbfbf" points="310.5,-265.1423 310.5,-284.1423 465.5,-284.1423 465.5,-265.1423 310.5,-265.1423"/>
<text text-anchor="middle" x="388" y="-272.1423" font-family="Helvetica,sans-Serif" font-size="10.00" fill="#000000">VkPhysicalDeviceProperties</text>
</g>
<!-- Node21&#45;&gt;Node11 -->
<g id="edge19" class="edge">
<title>Node21&#45;&gt;Node11</title>
<path fill="none" stroke="#9a32cd" stroke-dasharray="5,2" d="M448.8387,-263.1799C461.7704,-260.7163 475.3402,-258.1109 488,-255.6423 539.1598,-245.6664 557.7066,-258.4367 603,-232.6423 613.3918,-226.7242 611.0026,-219.2047 621,-212.6423 626.8167,-208.8241 633.2725,-205.5351 639.882,-202.7158"/>
<polygon fill="#9a32cd" stroke="#9a32cd" points="447.8045,-259.8137 438.6341,-265.1199 449.1119,-266.6906 447.8045,-259.8137"/>
<text text-anchor="middle" x="554.5" y="-254.6423" font-family="Helvetica,sans-Serif" font-size="10.00" fill="#000000"> properties</text>
</g>
<!-- Node22 -->
<g id="node21" class="node">
<title>Node22</title>
<polygon fill="none" stroke="#bfbfbf" points="296,-227.1423 296,-246.1423 480,-246.1423 480,-227.1423 296,-227.1423"/>
<text text-anchor="middle" x="388" y="-234.1423" font-family="Helvetica,sans-Serif" font-size="10.00" fill="#000000">vector&lt; VkExtensionProperties &gt;</text>
</g>
<!-- Node22&#45;&gt;Node11 -->
<g id="edge20" class="edge">
<title>Node22&#45;&gt;Node11</title>
<path fill="none" stroke="#9a32cd" stroke-dasharray="5,2" d="M458.8231,-225.5139C500.7528,-218.9076 554.911,-210.3437 603,-202.6423 612.3172,-201.1501 622.1606,-199.5641 631.8135,-198.0035"/>
<polygon fill="#9a32cd" stroke="#9a32cd" points="458.0448,-222.0932 448.7111,-227.1065 459.1339,-229.008 458.0448,-222.0932"/>
<text text-anchor="middle" x="554.5" y="-220.6423" font-family="Helvetica,sans-Serif" font-size="10.00" fill="#000000"> extensions</text>
</g>
<!-- Node23 -->
<g id="node22" class="node">
<title>Node23</title>
<polygon fill="none" stroke="#bfbfbf" points="664,-134.1423 664,-153.1423 727,-153.1423 727,-134.1423 664,-134.1423"/>
<text text-anchor="middle" x="695.5" y="-141.1423" font-family="Helvetica,sans-Serif" font-size="10.00" fill="#000000">VkDevice</text>
</g>
<!-- Node23&#45;&gt;Node10 -->
<g id="edge21" class="edge">
<title>Node23&#45;&gt;Node10</title>
<path fill="none" stroke="#9a32cd" stroke-dasharray="5,2" d="M737.3628,-149.6952C777.2069,-155.5865 838.8066,-165.0334 892,-174.6423 906.4052,-177.2444 921.8452,-180.2559 936.4153,-183.1998"/>
<polygon fill="#9a32cd" stroke="#9a32cd" points="737.6269,-146.1964 727.2239,-148.2034 736.6079,-153.1219 737.6269,-146.1964"/>
<text text-anchor="middle" x="840" y="-177.6423" font-family="Helvetica,sans-Serif" font-size="10.00" fill="#000000"> _device</text>
</g>
<!-- Node24 -->
<g id="node23" class="node">
<title>Node24</title>
<polygon fill="none" stroke="#bfbfbf" points="910,-132.6423 910,-162.6423 1090,-162.6423 1090,-132.6423 910,-132.6423"/>
<text text-anchor="start" x="918" y="-150.6423" font-family="Helvetica,sans-Serif" font-size="10.00" fill="#000000">unique_ptr&lt; lug::Graphics</text>
<text text-anchor="middle" x="1000" y="-139.6423" font-family="Helvetica,sans-Serif" font-size="10.00" fill="#000000">::Vulkan::API::DeviceMemory &gt;</text>
</g>
<!-- Node24&#45;&gt;Node2 -->
<g id="edge23" class="edge">
<title>Node24&#45;&gt;Node2</title>
<path fill="none" stroke="#9a32cd" stroke-dasharray="5,2" d="M1100.2339,-153.6989C1138.3162,-157.1411 1181.9205,-162.4656 1221,-170.6423 1234.2287,-173.4101 1248.3509,-177.4955 1261.0596,-181.612"/>
<polygon fill="#9a32cd" stroke="#9a32cd" points="1100.4304,-150.2029 1090.164,-152.8206 1099.822,-157.1764 1100.4304,-150.2029"/>
<text text-anchor="middle" x="1164.5" y="-184.6423" font-family="Helvetica,sans-Serif" font-size="10.00" fill="#000000"> _indexDeviceMemory</text>
<text text-anchor="middle" x="1164.5" y="-173.6423" font-family="Helvetica,sans-Serif" font-size="10.00" fill="#000000">_vertexDeviceMemory</text>
</g>
<!-- Node25 -->
<g id="node24" class="node">
<title>Node25</title>
<polygon fill="none" stroke="#bfbfbf" points="925.5,-83.6423 925.5,-113.6423 1074.5,-113.6423 1074.5,-83.6423 925.5,-83.6423"/>
<text text-anchor="start" x="933.5" y="-101.6423" font-family="Helvetica,sans-Serif" font-size="10.00" fill="#000000">unique_ptr&lt; lug::Graphics</text>
<text text-anchor="middle" x="1000" y="-90.6423" font-family="Helvetica,sans-Serif" font-size="10.00" fill="#000000">::Vulkan::API::Buffer &gt;</text>
</g>
<!-- Node25&#45;&gt;Node2 -->
<g id="edge24" class="edge">
<title>Node25&#45;&gt;Node2</title>
<path fill="none" stroke="#9a32cd" stroke-dasharray="5,2" d="M1084.7199,-99.1716C1127.1631,-102.1243 1178.44,-109.8841 1221,-128.6423 1248.8229,-140.9051 1274.6371,-165.609 1289.4738,-181.6224"/>
<polygon fill="#9a32cd" stroke="#9a32cd" points="1084.8885,-95.6754 1074.6914,-98.5509 1084.456,-102.662 1084.8885,-95.6754"/>
<text text-anchor="middle" x="1164.5" y="-142.6423" font-family="Helvetica,sans-Serif" font-size="10.00" fill="#000000"> _indexBuffer</text>
<text text-anchor="middle" x="1164.5" y="-131.6423" font-family="Helvetica,sans-Serif" font-size="10.00" fill="#000000">_vertexBuffer</text>
</g>
</g>
</svg>
        <g id="navigator" transform="translate(0 0)" fill="#404254">
                <rect fill="#f2f5e9" fill-opacity="0.5" stroke="#606060" stroke-width=".5" x="0" y="0" width="60" height="60"/>
                <use id="zoomplus" xlink:href="#zoomPlus" x="17" y="9" onmousedown="handleZoom(evt,'in')"/>
                <use id="zoomminus" xlink:href="#zoomMin" x="42" y="9" onmousedown="handleZoom(evt,'out')"/>
                <use id="reset" xlink:href="#resetDef" x="30" y="36" onmousedown="handleReset()"/>
                <g id="arrowUp" xlink:href="#dirArrow" transform="translate(30 24)" onmousedown="handlePan(0,-1)">
                  <use xlink:href="#rim" fill="#404040">
                        <set attributeName="fill" to="#808080" begin="arrowUp.mouseover" end="arrowUp.mouseout"/>
                  </use>
                  <path fill="none" stroke="white" stroke-width="1.5" d="M0,-3.0v7 M-2.5,-0.5L0,-3.0L2.5,-0.5"/>
                </g>
                <g id="arrowRight" xlink:href="#dirArrow" transform="rotate(90) translate(36 -43)" onmousedown="handlePan(1,0)">
                  <use xlink:href="#rim" fill="#404040">
                        <set attributeName="fill" to="#808080" begin="arrowRight.mouseover" end="arrowRight.mouseout"/>
                  </use>
                  <path fill="none" stroke="white" stroke-width="1.5" d="M0,-3.0v7 M-2.5,-0.5L0,-3.0L2.5,-0.5"/>
                </g>
                <g id="arrowDown" xlink:href="#dirArrow" transform="rotate(180) translate(-30 -48)" onmousedown="handlePan(0,1)">
                  <use xlink:href="#rim" fill="#404040">
                        <set attributeName="fill" to="#808080" begin="arrowDown.mouseover" end="arrowDown.mouseout"/>
                  </use>
                  <path fill="none" stroke="white" stroke-width="1.5" d="M0,-3.0v7 M-2.5,-0.5L0,-3.0L2.5,-0.5"/>
                </g>
                <g id="arrowLeft" xlink:href="#dirArrow" transform="rotate(270) translate(-36 17)" onmousedown="handlePan(-1,0)">
                  <use xlink:href="#rim" fill="#404040">
                        <set attributeName="fill" to="#808080" begin="arrowLeft.mouseover" end="arrowLeft.mouseout"/>
                  </use>
                  <path fill="none" stroke="white" stroke-width="1.5" d="M0,-3.0v7 M-2.5,-0.5L0,-3.0L2.5,-0.5"/>
                </g>
        </g>
        <svg viewBox="0 0 15 15" width="100%" height="30px" preserveAspectRatio="xMaxYMin meet">
         <g id="arrow_out" transform="scale(0.3 0.3)">
          <a xlink:href="classlug_1_1Graphics_1_1Vulkan_1_1Render_1_1Mesh__coll__graph_org.svg" target="_base">
           <rect id="button" ry="5" rx="5" y="6" x="6" height="38" width="38"
                fill="#f2f5e9" fill-opacity="0.5" stroke="#606060" stroke-width="1.0"/>
           <path id="arrow"
             d="M 11.500037,31.436501 C 11.940474,20.09759 22.043105,11.32322 32.158766,21.979434 L 37.068811,17.246167 C 37.068811,17.246167 37.088388,32 37.088388,32 L 22.160133,31.978069 C 22.160133,31.978069 26.997745,27.140456 26.997745,27.140456 C 18.528582,18.264221 13.291696,25.230495 11.500037,31.436501 z"
             style="fill:#404040;"/>
          </a>
         </g>
        </svg>
</svg>
