<?xml version="1.0" encoding="UTF-8" standalone="no"?>
<!DOCTYPE svg PUBLIC "-//W3C//DTD SVG 1.1//EN"
 "http://www.w3.org/Graphics/SVG/1.1/DTD/svg11.dtd">
<!-- Generated by graphviz version 2.40.1 (20161225.0304)
 -->
<!-- Title: lug::Graphics::Vulkan::Render::BufferPool Pages: 1 -->
<!--zoomable 451 -->
<svg id="main" version="1.1" xmlns="http://www.w3.org/2000/svg" xmlns:xlink="http://www.w3.org/1999/xlink" xml:space="preserve" onload="init(evt)">
<style type="text/css"><![CDATA[
.edge:hover path { stroke: red; }
.edge:hover polygon { stroke: red; fill: red; }
]]></style>
<script type="text/javascript"><![CDATA[
var edges = document.getElementsByTagName('g');
if (edges && edges.length) {
  for (var i=0;i<edges.length;i++) {
    if (edges[i].id.substr(0,4)=='edge') {
      edges[i].setAttribute('class','edge');
    }
  }
}
]]></script>
        <defs>
                <circle id="rim" cx="0" cy="0" r="7"/>
                <circle id="rim2" cx="0" cy="0" r="3.5"/>
                <g id="zoomPlus">
                        <use xlink:href="#rim" fill="#404040">
                                <set attributeName="fill" to="#808080" begin="zoomplus.mouseover" end="zoomplus.mouseout"/>
                        </use>
                        <path d="M-4,0h8M0,-4v8" fill="none" stroke="white" stroke-width="1.5" pointer-events="none"/>
                </g>
                <g id="zoomMin">
                        <use xlink:href="#rim" fill="#404040">
                                <set attributeName="fill" to="#808080" begin="zoomminus.mouseover" end="zoomminus.mouseout"/>
                        </use>
                        <path d="M-4,0h8" fill="none" stroke="white" stroke-width="1.5" pointer-events="none"/>
                </g>
                <g id="dirArrow">
                        <path fill="none" stroke="white" stroke-width="1.5" d="M0,-3.0v7 M-2.5,-0.5L0,-3.0L2.5,-0.5"/>
                </g>
               <g id="resetDef">
                       <use xlink:href="#rim2" fill="#404040">
                               <set attributeName="fill" to="#808080" begin="reset.mouseover" end="reset.mouseout"/>
                       </use>
               </g>
        </defs>

<script type="text/javascript">
var viewWidth = 1610;
var viewHeight = 451;
var sectionId = 'dynsection-0';
</script>
<script xlink:href="svgpan.js"/>
<svg id="graph" class="graph">
<g id="viewport">
<title>lug::Graphics::Vulkan::Render::BufferPool</title>
<!-- Node1 -->
<g id="node1" class="node">
<title>Node1</title>
<polygon fill="#bfbfbf" stroke="#000000" points="1475,-118 1475,-148 1602,-148 1602,-118 1475,-118"/>
<text text-anchor="start" x="1483" y="-136" font-family="Helvetica,sans-Serif" font-size="10.00" fill="#000000">lug::Graphics::Vulkan</text>
<text text-anchor="middle" x="1538.5" y="-125" font-family="Helvetica,sans-Serif" font-size="10.00" fill="#000000">::Render::BufferPool</text>
</g>
<!-- Node2 -->
<g id="node2" class="node">
<title>Node2</title>
<g id="a_node2"><a xlink:href="classlug_1_1Graphics_1_1Vulkan_1_1API_1_1DescriptorPool.html" target="_top" xlink:title="lug::Graphics::Vulkan\l::API::DescriptorPool">
<polygon fill="none" stroke="#000000" points="1183.5,-148 1183.5,-178 1310.5,-178 1310.5,-148 1183.5,-148"/>
<text text-anchor="start" x="1191.5" y="-166" font-family="Helvetica,sans-Serif" font-size="10.00" fill="#000000">lug::Graphics::Vulkan</text>
<text text-anchor="middle" x="1247" y="-155" font-family="Helvetica,sans-Serif" font-size="10.00" fill="#000000">::API::DescriptorPool</text>
</a>
</g>
</g>
<!-- Node2&#45;&gt;Node1 -->
<g id="edge1" class="edge">
<title>Node2&#45;&gt;Node1</title>
<path fill="none" stroke="#9a32cd" stroke-dasharray="5,2" d="M1320.8335,-155.4014C1368.3244,-150.5138 1429.4087,-144.2272 1474.7736,-139.5585"/>
<polygon fill="#9a32cd" stroke="#9a32cd" points="1320.1998,-151.948 1310.6107,-156.4534 1320.9165,-158.9112 1320.1998,-151.948"/>
<text text-anchor="middle" x="1402" y="-155" font-family="Helvetica,sans-Serif" font-size="10.00" fill="#000000"> _descriptorPool</text>
</g>
<!-- Node3 -->
<g id="node3" class="node">
<title>Node3</title>
<g id="a_node3"><a xlink:href="classlug_1_1Graphics_1_1Vulkan_1_1API_1_1Device.html" target="_top" xlink:title="lug::Graphics::Vulkan\l::API::Device">
<polygon fill="none" stroke="#000000" points="890,-200 890,-230 1017,-230 1017,-200 890,-200"/>
<text text-anchor="start" x="898" y="-218" font-family="Helvetica,sans-Serif" font-size="10.00" fill="#000000">lug::Graphics::Vulkan</text>
<text text-anchor="middle" x="953.5" y="-207" font-family="Helvetica,sans-Serif" font-size="10.00" fill="#000000">::API::Device</text>
</a>
</g>
</g>
<!-- Node3&#45;&gt;Node1 -->
<g id="edge23" class="edge">
<title>Node3&#45;&gt;Node1</title>
<path fill="none" stroke="#9a32cd" stroke-dasharray="5,2" d="M1027.5364,-216.3321C1127.117,-216.245 1308.818,-209.4372 1457,-167 1473.9495,-162.1459 1492.1174,-154.7918 1506.9887,-148.1633"/>
<polygon fill="#9a32cd" stroke="#9a32cd" points="1027.2829,-212.8319 1017.2778,-216.3174 1027.2727,-219.8319 1027.2829,-212.8319"/>
<text text-anchor="middle" x="1247" y="-215" font-family="Helvetica,sans-Serif" font-size="10.00" fill="#000000"> _device</text>
</g>
<!-- Node3&#45;&gt;Node2 -->
<g id="edge2" class="edge">
<title>Node3&#45;&gt;Node2</title>
<path fill="none" stroke="#9a32cd" stroke-dasharray="5,2" d="M1008.7135,-197.0924C1018.0865,-194.4495 1027.772,-191.961 1037,-190 1085.54,-179.6851 1141.2847,-172.7407 1183.1368,-168.4805"/>
<polygon fill="#9a32cd" stroke="#9a32cd" points="1007.7185,-193.7366 999.0914,-199.8867 1009.6707,-200.4589 1007.7185,-193.7366"/>
<text text-anchor="middle" x="1092" y="-193" font-family="Helvetica,sans-Serif" font-size="10.00" fill="#000000"> _device</text>
</g>
<!-- Node19 -->
<g id="node19" class="node">
<title>Node19</title>
<g id="a_node19"><a xlink:href="classlug_1_1Graphics_1_1Vulkan_1_1API_1_1DescriptorSetLayout.html" target="_top" xlink:title="lug::Graphics::Vulkan\l::API::DescriptorSetLayout">
<polygon fill="none" stroke="#000000" points="1171,-245 1171,-275 1323,-275 1323,-245 1171,-245"/>
<text text-anchor="start" x="1179" y="-263" font-family="Helvetica,sans-Serif" font-size="10.00" fill="#000000">lug::Graphics::Vulkan</text>
<text text-anchor="middle" x="1247" y="-252" font-family="Helvetica,sans-Serif" font-size="10.00" fill="#000000">::API::DescriptorSetLayout</text>
</a>
</g>
</g>
<!-- Node3&#45;&gt;Node19 -->
<g id="edge19" class="edge">
<title>Node3&#45;&gt;Node19</title>
<path fill="none" stroke="#9a32cd" stroke-dasharray="5,2" d="M1027.2153,-226.3022C1071.0946,-233.0298 1126.6664,-241.5502 1170.9512,-248.34"/>
<polygon fill="#9a32cd" stroke="#9a32cd" points="1027.6001,-222.8204 1017.1851,-224.7643 1026.5392,-229.7395 1027.6001,-222.8204"/>
<text text-anchor="middle" x="1092" y="-247" font-family="Helvetica,sans-Serif" font-size="10.00" fill="#000000"> _device</text>
</g>
<!-- Node4 -->
<g id="node4" class="node">
<title>Node4</title>
<g id="a_node4"><a xlink:href="structlug_1_1Graphics_1_1Vulkan_1_1PhysicalDeviceInfo.html" target="_top" xlink:title="lug::Graphics::Vulkan\l::PhysicalDeviceInfo">
<polygon fill="none" stroke="#000000" points="621,-224 621,-254 748,-254 748,-224 621,-224"/>
<text text-anchor="start" x="629" y="-242" font-family="Helvetica,sans-Serif" font-size="10.00" fill="#000000">lug::Graphics::Vulkan</text>
<text text-anchor="middle" x="684.5" y="-231" font-family="Helvetica,sans-Serif" font-size="10.00" fill="#000000">::PhysicalDeviceInfo</text>
</a>
</g>
</g>
<!-- Node4&#45;&gt;Node3 -->
<g id="edge3" class="edge">
<title>Node4&#45;&gt;Node3</title>
<path fill="none" stroke="#9a32cd" stroke-dasharray="5,2" d="M758.2327,-232.4216C799.4349,-228.7456 850.2703,-224.2101 889.7428,-220.6884"/>
<polygon fill="#9a32cd" stroke="#9a32cd" points="757.8986,-228.9374 748.2492,-233.3123 758.5207,-235.9097 757.8986,-228.9374"/>
<text text-anchor="middle" x="818" y="-234" font-family="Helvetica,sans-Serif" font-size="10.00" fill="#000000"> _physicalDeviceInfo</text>
</g>
<!-- Node5 -->
<g id="node5" class="node">
<title>Node5</title>
<g id="a_node5"><a xlink:href="structlug_1_1Graphics_1_1Vulkan_1_1PhysicalDeviceInfo_1_1Swapchain.html" target="_top" xlink:title="lug::Graphics::Vulkan\l::PhysicalDeviceInfo\l::Swapchain">
<polygon fill="none" stroke="#000000" points="324.5,-374.5 324.5,-415.5 451.5,-415.5 451.5,-374.5 324.5,-374.5"/>
<text text-anchor="start" x="332.5" y="-403.5" font-family="Helvetica,sans-Serif" font-size="10.00" fill="#000000">lug::Graphics::Vulkan</text>
<text text-anchor="start" x="332.5" y="-392.5" font-family="Helvetica,sans-Serif" font-size="10.00" fill="#000000">::PhysicalDeviceInfo</text>
<text text-anchor="middle" x="388" y="-381.5" font-family="Helvetica,sans-Serif" font-size="10.00" fill="#000000">::Swapchain</text>
</a>
</g>
</g>
<!-- Node5&#45;&gt;Node4 -->
<g id="edge4" class="edge">
<title>Node5&#45;&gt;Node4</title>
<path fill="none" stroke="#9a32cd" stroke-dasharray="5,2" d="M461.9687,-387.4062C505.7326,-380.1887 560.6959,-366.1687 603,-339 637.1095,-317.0941 663.7273,-276.1752 676.3961,-254.0795"/>
<polygon fill="#9a32cd" stroke="#9a32cd" points="461.296,-383.9688 451.9569,-388.972 462.3776,-390.8847 461.296,-383.9688"/>
<text text-anchor="middle" x="554.5" y="-380" font-family="Helvetica,sans-Serif" font-size="10.00" fill="#000000"> swapchain</text>
</g>
<!-- Node6 -->
<g id="node6" class="node">
<title>Node6</title>
<polygon fill="none" stroke="#bfbfbf" points="16.5,-423.5 16.5,-442.5 162.5,-442.5 162.5,-423.5 16.5,-423.5"/>
<text text-anchor="middle" x="89.5" y="-430.5" font-family="Helvetica,sans-Serif" font-size="10.00" fill="#000000">VkSurfaceCapabilitiesKHR</text>
</g>
<!-- Node6&#45;&gt;Node5 -->
<g id="edge5" class="edge">
<title>Node6&#45;&gt;Node5</title>
<path fill="none" stroke="#9a32cd" stroke-dasharray="5,2" d="M172.5828,-422.4233C220.5932,-416.3114 280.0566,-408.7415 324.3375,-403.1044"/>
<polygon fill="#9a32cd" stroke="#9a32cd" points="171.9992,-418.9692 162.5213,-423.7042 172.8833,-425.9132 171.9992,-418.9692"/>
<text text-anchor="middle" x="233.5" y="-421" font-family="Helvetica,sans-Serif" font-size="10.00" fill="#000000"> capabilities</text>
</g>
<!-- Node7 -->
<g id="node7" class="node">
<title>Node7</title>
<polygon fill="none" stroke="#bfbfbf" points="0,-385.5 0,-404.5 179,-404.5 179,-385.5 0,-385.5"/>
<text text-anchor="middle" x="89.5" y="-392.5" font-family="Helvetica,sans-Serif" font-size="10.00" fill="#000000">vector&lt; VkSurfaceFormatKHR &gt;</text>
</g>
<!-- Node7&#45;&gt;Node5 -->
<g id="edge6" class="edge">
<title>Node7&#45;&gt;Node5</title>
<path fill="none" stroke="#9a32cd" stroke-dasharray="5,2" d="M189.3241,-395C233.799,-395 284.8747,-395 324.1016,-395"/>
<polygon fill="#9a32cd" stroke="#9a32cd" points="189.0599,-391.5001 179.0598,-395 189.0598,-398.5001 189.0599,-391.5001"/>
<text text-anchor="middle" x="233.5" y="-398" font-family="Helvetica,sans-Serif" font-size="10.00" fill="#000000"> formats</text>
</g>
<!-- Node8 -->
<g id="node8" class="node">
<title>Node8</title>
<polygon fill="none" stroke="#bfbfbf" points="4.5,-347.5 4.5,-366.5 174.5,-366.5 174.5,-347.5 4.5,-347.5"/>
<text text-anchor="middle" x="89.5" y="-354.5" font-family="Helvetica,sans-Serif" font-size="10.00" fill="#000000">vector&lt; VkPresentModeKHR &gt;</text>
</g>
<!-- Node8&#45;&gt;Node5 -->
<g id="edge7" class="edge">
<title>Node8&#45;&gt;Node5</title>
<path fill="none" stroke="#9a32cd" stroke-dasharray="5,2" d="M174.4265,-367.8114C222.0428,-373.8731 280.4605,-381.3099 324.1567,-386.8725"/>
<polygon fill="#9a32cd" stroke="#9a32cd" points="174.8008,-364.3309 164.4389,-366.54 173.9168,-371.2749 174.8008,-364.3309"/>
<text text-anchor="middle" x="233.5" y="-382" font-family="Helvetica,sans-Serif" font-size="10.00" fill="#000000"> presentModes</text>
</g>
<!-- Node9 -->
<g id="node9" class="node">
<title>Node9</title>
<polygon fill="none" stroke="#bfbfbf" points="308.5,-325 308.5,-355 467.5,-355 467.5,-325 308.5,-325"/>
<text text-anchor="start" x="316.5" y="-343" font-family="Helvetica,sans-Serif" font-size="10.00" fill="#000000">unordered_map&lt; VkFormat,</text>
<text text-anchor="middle" x="388" y="-332" font-family="Helvetica,sans-Serif" font-size="10.00" fill="#000000"> VkFormatProperties &gt;</text>
</g>
<!-- Node9&#45;&gt;Node4 -->
<g id="edge8" class="edge">
<title>Node9&#45;&gt;Node4</title>
<path fill="none" stroke="#9a32cd" stroke-dasharray="5,2" d="M477.4236,-330.7005C517.0561,-324.4299 563.5404,-314.0543 603,-297 627.5497,-286.3897 652.0561,-267.556 667.6872,-254.2323"/>
<polygon fill="#9a32cd" stroke="#9a32cd" points="476.8643,-327.2452 467.5036,-332.2078 477.9159,-334.1658 476.8643,-327.2452"/>
<text text-anchor="middle" x="554.5" y="-327" font-family="Helvetica,sans-Serif" font-size="10.00" fill="#000000"> formatProperties</text>
</g>
<!-- Node10 -->
<g id="node10" class="node">
<title>Node10</title>
<polygon fill="none" stroke="#bfbfbf" points="315,-286.5 315,-305.5 461,-305.5 461,-286.5 315,-286.5"/>
<text text-anchor="middle" x="388" y="-293.5" font-family="Helvetica,sans-Serif" font-size="10.00" fill="#000000">VkPhysicalDeviceFeatures</text>
</g>
<!-- Node10&#45;&gt;Node4 -->
<g id="edge9" class="edge">
<title>Node10&#45;&gt;Node4</title>
<path fill="none" stroke="#9a32cd" stroke-dasharray="5,2" d="M471.2106,-287.2619C511.3296,-282.2222 559.9699,-274.8941 603,-265 615.7373,-262.0713 629.348,-258.0838 641.7267,-254.1115"/>
<polygon fill="#9a32cd" stroke="#9a32cd" points="470.7004,-283.7982 461.2031,-288.4941 471.5558,-290.7457 470.7004,-283.7982"/>
<text text-anchor="middle" x="554.5" y="-285" font-family="Helvetica,sans-Serif" font-size="10.00" fill="#000000"> features</text>
</g>
<!-- Node11 -->
<g id="node11" class="node">
<title>Node11</title>
<polygon fill="none" stroke="#bfbfbf" points="288,-248.5 288,-267.5 488,-267.5 488,-248.5 288,-248.5"/>
<text text-anchor="middle" x="388" y="-255.5" font-family="Helvetica,sans-Serif" font-size="10.00" fill="#000000">vector&lt; VkQueueFamilyProperties &gt;</text>
</g>
<!-- Node11&#45;&gt;Node4 -->
<g id="edge10" class="edge">
<title>Node11&#45;&gt;Node4</title>
<path fill="none" stroke="#9a32cd" stroke-dasharray="5,2" d="M498.5025,-250.9189C539.7965,-248.2727 585.2765,-245.3583 620.9274,-243.0738"/>
<polygon fill="#9a32cd" stroke="#9a32cd" points="498.137,-247.435 488.3814,-251.5675 498.5848,-254.4207 498.137,-247.435"/>
<text text-anchor="middle" x="554.5" y="-253" font-family="Helvetica,sans-Serif" font-size="10.00" fill="#000000"> queueFamilies</text>
</g>
<!-- Node12 -->
<g id="node12" class="node">
<title>Node12</title>
<polygon fill="none" stroke="#bfbfbf" points="290.5,-210.5 290.5,-229.5 485.5,-229.5 485.5,-210.5 290.5,-210.5"/>
<text text-anchor="middle" x="388" y="-217.5" font-family="Helvetica,sans-Serif" font-size="10.00" fill="#000000">VkPhysicalDeviceMemoryProperties</text>
</g>
<!-- Node12&#45;&gt;Node4 -->
<g id="edge11" class="edge">
<title>Node12&#45;&gt;Node4</title>
<path fill="none" stroke="#9a32cd" stroke-dasharray="5,2" d="M495.8071,-222.8176C530.1079,-224.168 568.1796,-226.1396 603,-229 608.8251,-229.4785 614.8748,-230.0603 620.9278,-230.6999"/>
<polygon fill="#9a32cd" stroke="#9a32cd" points="495.8922,-219.3184 485.7664,-222.4356 495.626,-226.3133 495.8922,-219.3184"/>
<text text-anchor="middle" x="554.5" y="-232" font-family="Helvetica,sans-Serif" font-size="10.00" fill="#000000"> memoryProperties</text>
</g>
<!-- Node13 -->
<g id="node13" class="node">
<title>Node13</title>
<polygon fill="none" stroke="#bfbfbf" points="336,-172.5 336,-191.5 440,-191.5 440,-172.5 336,-172.5"/>
<text text-anchor="middle" x="388" y="-179.5" font-family="Helvetica,sans-Serif" font-size="10.00" fill="#000000">VkPhysicalDevice</text>
</g>
<!-- Node13&#45;&gt;Node4 -->
<g id="edge12" class="edge">
<title>Node13&#45;&gt;Node4</title>
<path fill="none" stroke="#9a32cd" stroke-dasharray="5,2" d="M450.4396,-185.5272C493.741,-188.9478 552.4775,-195.5341 603,-208 607.593,-209.1333 627.1317,-216.5508 645.9257,-223.8454"/>
<polygon fill="#9a32cd" stroke="#9a32cd" points="450.5703,-182.0272 440.3352,-184.7642 450.0432,-189.0073 450.5703,-182.0272"/>
<text text-anchor="middle" x="554.5" y="-211" font-family="Helvetica,sans-Serif" font-size="10.00" fill="#000000"> handle</text>
</g>
<!-- Node14 -->
<g id="node14" class="node">
<title>Node14</title>
<polygon fill="none" stroke="#bfbfbf" points="310.5,-134.5 310.5,-153.5 465.5,-153.5 465.5,-134.5 310.5,-134.5"/>
<text text-anchor="middle" x="388" y="-141.5" font-family="Helvetica,sans-Serif" font-size="10.00" fill="#000000">VkPhysicalDeviceProperties</text>
</g>
<!-- Node14&#45;&gt;Node4 -->
<g id="edge13" class="edge">
<title>Node14&#45;&gt;Node4</title>
<path fill="none" stroke="#9a32cd" stroke-dasharray="5,2" d="M475.8881,-138.7045C517.9821,-140.4633 566.9458,-149.2631 603,-176 618.0107,-187.1316 607.3486,-201.2378 621,-214 625.1544,-217.8837 629.9832,-221.19 635.0877,-223.9987"/>
<polygon fill="#9a32cd" stroke="#9a32cd" points="475.7243,-135.1984 465.627,-138.4069 475.5213,-142.1954 475.7243,-135.1984"/>
<text text-anchor="middle" x="554.5" y="-179" font-family="Helvetica,sans-Serif" font-size="10.00" fill="#000000"> properties</text>
</g>
<!-- Node15 -->
<g id="node15" class="node">
<title>Node15</title>
<polygon fill="none" stroke="#bfbfbf" points="296,-96.5 296,-115.5 480,-115.5 480,-96.5 296,-96.5"/>
<text text-anchor="middle" x="388" y="-103.5" font-family="Helvetica,sans-Serif" font-size="10.00" fill="#000000">vector&lt; VkExtensionProperties &gt;</text>
</g>
<!-- Node15&#45;&gt;Node4 -->
<g id="edge14" class="edge">
<title>Node15&#45;&gt;Node4</title>
<path fill="none" stroke="#9a32cd" stroke-dasharray="5,2" d="M440.507,-94.9505C488.8042,-88.0805 559.3515,-86.8678 603,-126 632.7242,-152.6487 595.3205,-183.4346 621,-214 624.2772,-217.9007 628.2449,-221.1963 632.5789,-223.9801"/>
<polygon fill="#9a32cd" stroke="#9a32cd" points="439.9036,-91.5022 430.5563,-96.4899 440.9739,-98.4199 439.9036,-91.5022"/>
<text text-anchor="middle" x="554.5" y="-129" font-family="Helvetica,sans-Serif" font-size="10.00" fill="#000000"> extensions</text>
</g>
<!-- Node16 -->
<g id="node16" class="node">
<title>Node16</title>
<polygon fill="none" stroke="#bfbfbf" points="653,-185.5 653,-204.5 716,-204.5 716,-185.5 653,-185.5"/>
<text text-anchor="middle" x="684.5" y="-192.5" font-family="Helvetica,sans-Serif" font-size="10.00" fill="#000000">VkDevice</text>
</g>
<!-- Node16&#45;&gt;Node3 -->
<g id="edge15" class="edge">
<title>Node16&#45;&gt;Node3</title>
<path fill="none" stroke="#9a32cd" stroke-dasharray="5,2" d="M726.184,-194.7587C763.8485,-194.9182 820.7629,-196.0983 870,-201 876.4357,-201.6407 883.1258,-202.4747 889.7927,-203.4167"/>
<polygon fill="#9a32cd" stroke="#9a32cd" points="726.1006,-191.2586 716.0935,-194.7385 726.0865,-198.2586 726.1006,-191.2586"/>
<text text-anchor="middle" x="818" y="-204" font-family="Helvetica,sans-Serif" font-size="10.00" fill="#000000"> _device</text>
</g>
<!-- Node17 -->
<g id="node17" class="node">
<title>Node17</title>
<polygon fill="none" stroke="#bfbfbf" points="902.5,-145.5 902.5,-164.5 1004.5,-164.5 1004.5,-145.5 902.5,-145.5"/>
<text text-anchor="middle" x="953.5" y="-152.5" font-family="Helvetica,sans-Serif" font-size="10.00" fill="#000000">VkDescriptorPool</text>
</g>
<!-- Node17&#45;&gt;Node2 -->
<g id="edge16" class="edge">
<title>Node17&#45;&gt;Node2</title>
<path fill="none" stroke="#9a32cd" stroke-dasharray="5,2" d="M1015.2481,-154.3021C1053.2569,-154.1252 1102.9662,-154.3468 1147,-156 1158.7392,-156.4407 1171.24,-157.1357 1183.2848,-157.9202"/>
<polygon fill="#9a32cd" stroke="#9a32cd" points="1014.8321,-150.8044 1004.8524,-154.3618 1014.8723,-157.8043 1014.8321,-150.8044"/>
<text text-anchor="middle" x="1092" y="-159" font-family="Helvetica,sans-Serif" font-size="10.00" fill="#000000"> _descriptorPool</text>
</g>
<!-- Node18 -->
<g id="node18" class="node">
<title>Node18</title>
<polygon fill="none" stroke="#bfbfbf" points="1165,-77 1165,-129 1329,-129 1329,-77 1165,-77"/>
<text text-anchor="start" x="1173" y="-117" font-family="Helvetica,sans-Serif" font-size="10.00" fill="#000000">vector&lt; std::unique</text>
<text text-anchor="start" x="1173" y="-106" font-family="Helvetica,sans-Serif" font-size="10.00" fill="#000000">_ptr&lt; lug::Graphics</text>
<text text-anchor="start" x="1173" y="-95" font-family="Helvetica,sans-Serif" font-size="10.00" fill="#000000">::Vulkan::Render::BufferPool</text>
<text text-anchor="middle" x="1247" y="-84" font-family="Helvetica,sans-Serif" font-size="10.00" fill="#000000">::Chunk &gt; &gt;</text>
</g>
<!-- Node18&#45;&gt;Node1 -->
<g id="edge17" class="edge">
<title>Node18&#45;&gt;Node1</title>
<path fill="none" stroke="#9a32cd" stroke-dasharray="5,2" d="M1339.5199,-112.5218C1383.6088,-117.0592 1435.2311,-122.372 1474.8457,-126.449"/>
<polygon fill="#9a32cd" stroke="#9a32cd" points="1339.6692,-109.0187 1329.3634,-111.4765 1338.9525,-115.982 1339.6692,-109.0187"/>
<text text-anchor="middle" x="1402" y="-128" font-family="Helvetica,sans-Serif" font-size="10.00" fill="#000000"> _chunks</text>
</g>
<!-- Node19&#45;&gt;Node1 -->
<g id="edge18" class="edge">
<title>Node19&#45;&gt;Node1</title>
<path fill="none" stroke="#9a32cd" stroke-dasharray="5,2" d="M1333.2789,-260.9351C1373.0726,-258.0448 1419.6512,-249.7315 1457,-229 1491.4077,-209.901 1517.7219,-170.1991 1530.3135,-148.3093"/>
<polygon fill="#9a32cd" stroke="#9a32cd" points="1332.8151,-257.4571 1323.0517,-261.5712 1333.2498,-264.4436 1332.8151,-257.4571"/>
<text text-anchor="middle" x="1402" y="-262" font-family="Helvetica,sans-Serif" font-size="10.00" fill="#000000"> _descriptorSetLayout</text>
</g>
<!-- Node20 -->
<g id="node20" class="node">
<title>Node20</title>
<polygon fill="none" stroke="#bfbfbf" points="888,-272.5 888,-291.5 1019,-291.5 1019,-272.5 888,-272.5"/>
<text text-anchor="middle" x="953.5" y="-279.5" font-family="Helvetica,sans-Serif" font-size="10.00" fill="#000000">VkDescriptorSetLayout</text>
</g>
<!-- Node20&#45;&gt;Node19 -->
<g id="edge20" class="edge">
<title>Node20&#45;&gt;Node19</title>
<path fill="none" stroke="#9a32cd" stroke-dasharray="5,2" d="M1029.242,-276.3226C1072.7461,-273.0616 1127.2198,-268.9784 1170.8004,-265.7117"/>
<polygon fill="#9a32cd" stroke="#9a32cd" points="1028.7122,-272.8524 1019.0018,-277.0902 1029.2355,-279.8328 1028.7122,-272.8524"/>
<text text-anchor="middle" x="1092" y="-278" font-family="Helvetica,sans-Serif" font-size="10.00" fill="#000000"> _descriptorSetLayout</text>
</g>
<!-- Node21 -->
<g id="node21" class="node">
<title>Node21</title>
<polygon fill="none" stroke="#bfbfbf" points="1218.5,-38.5 1218.5,-57.5 1275.5,-57.5 1275.5,-38.5 1218.5,-38.5"/>
<text text-anchor="middle" x="1247" y="-45.5" font-family="Helvetica,sans-Serif" font-size="10.00" fill="#000000">uint32_t</text>
</g>
<!-- Node21&#45;&gt;Node1 -->
<g id="edge21" class="edge">
<title>Node21&#45;&gt;Node1</title>
<path fill="none" stroke="#9a32cd" stroke-dasharray="5,2" d="M1285.621,-51.6567C1328.4982,-56.5569 1399.2712,-67.1654 1457,-88 1477.9802,-95.5718 1500.0241,-108.0568 1515.8882,-117.9576"/>
<polygon fill="#9a32cd" stroke="#9a32cd" points="1285.9289,-48.1696 1275.607,-50.5585 1285.1658,-55.1279 1285.9289,-48.1696"/>
<text text-anchor="middle" x="1402" y="-102" font-family="Helvetica,sans-Serif" font-size="10.00" fill="#000000"> _subBufferSize</text>
<text text-anchor="middle" x="1402" y="-91" font-family="Helvetica,sans-Serif" font-size="10.00" fill="#000000">_countPerChunk</text>
</g>
<!-- Node22 -->
<g id="node22" class="node">
<title>Node22</title>
<polygon fill="none" stroke="#bfbfbf" points="1190.5,-.5 1190.5,-19.5 1303.5,-19.5 1303.5,-.5 1190.5,-.5"/>
<text text-anchor="middle" x="1247" y="-7.5" font-family="Helvetica,sans-Serif" font-size="10.00" fill="#000000">vector&lt; uint32_t &gt;</text>
</g>
<!-- Node22&#45;&gt;Node1 -->
<g id="edge22" class="edge">
<title>Node22&#45;&gt;Node1</title>
<path fill="none" stroke="#9a32cd" stroke-dasharray="5,2" d="M1313.7698,-10.648C1356.9005,-13.5889 1412.9778,-22.2979 1457,-46 1489.0723,-63.2681 1515.5667,-97.9137 1528.9936,-117.8808"/>
<polygon fill="#9a32cd" stroke="#9a32cd" points="1313.8492,-7.1467 1303.6591,-10.0472 1313.4339,-14.1344 1313.8492,-7.1467"/>
<text text-anchor="middle" x="1402" y="-49" font-family="Helvetica,sans-Serif" font-size="10.00" fill="#000000"> _queueFamilyIndices</text>
</g>
</g>
</svg>
        <g id="navigator" transform="translate(0 0)" fill="#404254">
                <rect fill="#f2f5e9" fill-opacity="0.5" stroke="#606060" stroke-width=".5" x="0" y="0" width="60" height="60"/>
                <use id="zoomplus" xlink:href="#zoomPlus" x="17" y="9" onmousedown="handleZoom(evt,'in')"/>
                <use id="zoomminus" xlink:href="#zoomMin" x="42" y="9" onmousedown="handleZoom(evt,'out')"/>
                <use id="reset" xlink:href="#resetDef" x="30" y="36" onmousedown="handleReset()"/>
                <g id="arrowUp" xlink:href="#dirArrow" transform="translate(30 24)" onmousedown="handlePan(0,-1)">
                  <use xlink:href="#rim" fill="#404040">
                        <set attributeName="fill" to="#808080" begin="arrowUp.mouseover" end="arrowUp.mouseout"/>
                  </use>
                  <path fill="none" stroke="white" stroke-width="1.5" d="M0,-3.0v7 M-2.5,-0.5L0,-3.0L2.5,-0.5"/>
                </g>
                <g id="arrowRight" xlink:href="#dirArrow" transform="rotate(90) translate(36 -43)" onmousedown="handlePan(1,0)">
                  <use xlink:href="#rim" fill="#404040">
                        <set attributeName="fill" to="#808080" begin="arrowRight.mouseover" end="arrowRight.mouseout"/>
                  </use>
                  <path fill="none" stroke="white" stroke-width="1.5" d="M0,-3.0v7 M-2.5,-0.5L0,-3.0L2.5,-0.5"/>
                </g>
                <g id="arrowDown" xlink:href="#dirArrow" transform="rotate(180) translate(-30 -48)" onmousedown="handlePan(0,1)">
                  <use xlink:href="#rim" fill="#404040">
                        <set attributeName="fill" to="#808080" begin="arrowDown.mouseover" end="arrowDown.mouseout"/>
                  </use>
                  <path fill="none" stroke="white" stroke-width="1.5" d="M0,-3.0v7 M-2.5,-0.5L0,-3.0L2.5,-0.5"/>
                </g>
                <g id="arrowLeft" xlink:href="#dirArrow" transform="rotate(270) translate(-36 17)" onmousedown="handlePan(-1,0)">
                  <use xlink:href="#rim" fill="#404040">
                        <set attributeName="fill" to="#808080" begin="arrowLeft.mouseover" end="arrowLeft.mouseout"/>
                  </use>
                  <path fill="none" stroke="white" stroke-width="1.5" d="M0,-3.0v7 M-2.5,-0.5L0,-3.0L2.5,-0.5"/>
                </g>
        </g>
        <svg viewBox="0 0 15 15" width="100%" height="30px" preserveAspectRatio="xMaxYMin meet">
         <g id="arrow_out" transform="scale(0.3 0.3)">
          <a xlink:href="classlug_1_1Graphics_1_1Vulkan_1_1Render_1_1BufferPool__coll__graph_org.svg" target="_base">
           <rect id="button" ry="5" rx="5" y="6" x="6" height="38" width="38"
                fill="#f2f5e9" fill-opacity="0.5" stroke="#606060" stroke-width="1.0"/>
           <path id="arrow"
             d="M 11.500037,31.436501 C 11.940474,20.09759 22.043105,11.32322 32.158766,21.979434 L 37.068811,17.246167 C 37.068811,17.246167 37.088388,32 37.088388,32 L 22.160133,31.978069 C 22.160133,31.978069 26.997745,27.140456 26.997745,27.140456 C 18.528582,18.264221 13.291696,25.230495 11.500037,31.436501 z"
             style="fill:#404040;"/>
          </a>
         </g>
        </svg>
</svg>
