<?xml version="1.0" encoding="UTF-8" standalone="no"?>
<!DOCTYPE svg PUBLIC "-//W3C//DTD SVG 1.1//EN"
 "http://www.w3.org/Graphics/SVG/1.1/DTD/svg11.dtd">
<!-- Generated by graphviz version 2.40.1 (20161225.0304)
 -->
<!-- Title: lug::Graphics::Vulkan::API::Image Pages: 1 -->
<svg width="1538pt" height="359pt"
 viewBox="0.00 0.00 1538.00 359.45" xmlns="http://www.w3.org/2000/svg" xmlns:xlink="http://www.w3.org/1999/xlink">
<g id="graph0" class="graph" transform="scale(1 1) rotate(0) translate(4 355.4482)">
<title>lug::Graphics::Vulkan::API::Image</title>
<!-- Node1 -->
<g id="node1" class="node">
<title>Node1</title>
<polygon fill="#bfbfbf" stroke="#000000" points="1403,-182.4482 1403,-212.4482 1530,-212.4482 1530,-182.4482 1403,-182.4482"/>
<text text-anchor="start" x="1411" y="-200.4482" font-family="Helvetica,sans-Serif" font-size="10.00" fill="#000000">lug::Graphics::Vulkan</text>
<text text-anchor="middle" x="1466.5" y="-189.4482" font-family="Helvetica,sans-Serif" font-size="10.00" fill="#000000">::API::Image</text>
</g>
<!-- Node2 -->
<g id="node2" class="node">
<title>Node2</title>
<polygon fill="none" stroke="#bfbfbf" points="1134,-313.9482 1134,-332.9482 1273,-332.9482 1273,-313.9482 1134,-313.9482"/>
<text text-anchor="middle" x="1203.5" y="-320.9482" font-family="Helvetica,sans-Serif" font-size="10.00" fill="#000000">VkMemoryRequirements</text>
</g>
<!-- Node2&#45;&gt;Node1 -->
<g id="edge1" class="edge">
<title>Node2&#45;&gt;Node1</title>
<path fill="none" stroke="#9a32cd" stroke-dasharray="5,2" d="M1283.2579,-313.8629C1316.2847,-307.4768 1354.0252,-296.9024 1385,-279.4482 1415.0767,-262.5001 1441.5283,-231.3099 1455.6488,-212.6661"/>
<polygon fill="#9a32cd" stroke="#9a32cd" points="1282.3764,-310.4661 1273.1722,-315.7133 1283.6396,-317.3512 1282.3764,-310.4661"/>
<text text-anchor="middle" x="1338" y="-314.4482" font-family="Helvetica,sans-Serif" font-size="10.00" fill="#000000"> _requirements</text>
</g>
<!-- Node3 -->
<g id="node3" class="node">
<title>Node3</title>
<g id="a_node3"><a xlink:href="structlug_1_1Graphics_1_1Vulkan_1_1API_1_1Image_1_1Extent.html" target="_top" xlink:title="lug::Graphics::Vulkan\l::API::Image::Extent">
<polygon fill="none" stroke="#000000" points="1140,-264.4482 1140,-294.4482 1267,-294.4482 1267,-264.4482 1140,-264.4482"/>
<text text-anchor="start" x="1148" y="-282.4482" font-family="Helvetica,sans-Serif" font-size="10.00" fill="#000000">lug::Graphics::Vulkan</text>
<text text-anchor="middle" x="1203.5" y="-271.4482" font-family="Helvetica,sans-Serif" font-size="10.00" fill="#000000">::API::Image::Extent</text>
</a>
</g>
</g>
<!-- Node3&#45;&gt;Node1 -->
<g id="edge2" class="edge">
<title>Node3&#45;&gt;Node1</title>
<path fill="none" stroke="#9a32cd" stroke-dasharray="5,2" d="M1277.3772,-267.6616C1310.8098,-261.1908 1350.4814,-251.9071 1385,-239.4482 1404.6137,-232.369 1425.4952,-221.537 1441.2111,-212.6466"/>
<polygon fill="#9a32cd" stroke="#9a32cd" points="1276.3917,-264.2857 1267.2144,-269.5798 1277.6901,-271.1642 1276.3917,-264.2857"/>
<text text-anchor="middle" x="1338" y="-267.4482" font-family="Helvetica,sans-Serif" font-size="10.00" fill="#000000"> _extent</text>
</g>
<!-- Node4 -->
<g id="node4" class="node">
<title>Node4</title>
<polygon fill="none" stroke="#bfbfbf" points="923,-269.9482 923,-288.9482 980,-288.9482 980,-269.9482 923,-269.9482"/>
<text text-anchor="middle" x="951.5" y="-276.9482" font-family="Helvetica,sans-Serif" font-size="10.00" fill="#000000">uint32_t</text>
</g>
<!-- Node4&#45;&gt;Node3 -->
<g id="edge3" class="edge">
<title>Node4&#45;&gt;Node3</title>
<path fill="none" stroke="#9a32cd" stroke-dasharray="5,2" d="M990.5177,-279.4482C1030.3563,-279.4482 1092.8538,-279.4482 1139.864,-279.4482"/>
<polygon fill="#9a32cd" stroke="#9a32cd" points="990.4076,-275.9483 980.4076,-279.4482 990.4076,-282.9483 990.4076,-275.9483"/>
<text text-anchor="middle" x="1074.5" y="-293.4482" font-family="Helvetica,sans-Serif" font-size="10.00" fill="#000000"> width</text>
<text text-anchor="middle" x="1074.5" y="-282.4482" font-family="Helvetica,sans-Serif" font-size="10.00" fill="#000000">height</text>
</g>
<!-- Node5 -->
<g id="node5" class="node">
<title>Node5</title>
<polygon fill="none" stroke="#bfbfbf" points="1144,-225.9482 1144,-244.9482 1263,-244.9482 1263,-225.9482 1144,-225.9482"/>
<text text-anchor="middle" x="1203.5" y="-232.9482" font-family="Helvetica,sans-Serif" font-size="10.00" fill="#000000">VkImageAspectFlags</text>
</g>
<!-- Node5&#45;&gt;Node1 -->
<g id="edge4" class="edge">
<title>Node5&#45;&gt;Node1</title>
<path fill="none" stroke="#9a32cd" stroke-dasharray="5,2" d="M1273.522,-227.5023C1307.2767,-223.4354 1348.3074,-218.1451 1385,-212.4482 1390.8288,-211.5432 1396.8811,-210.5434 1402.9357,-209.5022"/>
<polygon fill="#9a32cd" stroke="#9a32cd" points="1272.8071,-224.0628 1263.2929,-228.7243 1273.6374,-231.0133 1272.8071,-224.0628"/>
<text text-anchor="middle" x="1338" y="-227.4482" font-family="Helvetica,sans-Serif" font-size="10.00" fill="#000000"> _aspect</text>
</g>
<!-- Node6 -->
<g id="node6" class="node">
<title>Node6</title>
<polygon fill="none" stroke="#bfbfbf" points="1184.5,-187.9482 1184.5,-206.9482 1222.5,-206.9482 1222.5,-187.9482 1184.5,-187.9482"/>
<text text-anchor="middle" x="1203.5" y="-194.9482" font-family="Helvetica,sans-Serif" font-size="10.00" fill="#000000">bool</text>
</g>
<!-- Node6&#45;&gt;Node1 -->
<g id="edge5" class="edge">
<title>Node6&#45;&gt;Node1</title>
<path fill="none" stroke="#9a32cd" stroke-dasharray="5,2" d="M1232.9467,-197.4482C1273.8496,-197.4482 1348.9145,-197.4482 1402.9169,-197.4482"/>
<polygon fill="#9a32cd" stroke="#9a32cd" points="1232.8391,-193.9483 1222.839,-197.4482 1232.839,-200.9483 1232.8391,-193.9483"/>
<text text-anchor="middle" x="1338" y="-200.4482" font-family="Helvetica,sans-Serif" font-size="10.00" fill="#000000"> _swapchainImage</text>
</g>
<!-- Node7 -->
<g id="node7" class="node">
<title>Node7</title>
<g id="a_node7"><a xlink:href="classlug_1_1Graphics_1_1Vulkan_1_1API_1_1Device.html" target="_top" xlink:title="lug::Graphics::Vulkan\l::API::Device">
<polygon fill="none" stroke="#000000" points="888,-105.4482 888,-135.4482 1015,-135.4482 1015,-105.4482 888,-105.4482"/>
<text text-anchor="start" x="896" y="-123.4482" font-family="Helvetica,sans-Serif" font-size="10.00" fill="#000000">lug::Graphics::Vulkan</text>
<text text-anchor="middle" x="951.5" y="-112.4482" font-family="Helvetica,sans-Serif" font-size="10.00" fill="#000000">::API::Device</text>
</a>
</g>
</g>
<!-- Node7&#45;&gt;Node1 -->
<g id="edge6" class="edge">
<title>Node7&#45;&gt;Node1</title>
<path fill="none" stroke="#9a32cd" stroke-dasharray="5,2" d="M1025.537,-111.9745C1091.1737,-106.3549 1189.3179,-102.6002 1273,-118.4482 1335.5692,-130.2978 1403.2902,-163.0285 1439.6935,-182.4413"/>
<polygon fill="#9a32cd" stroke="#9a32cd" points="1024.938,-108.514 1015.289,-112.8897 1025.5607,-115.4862 1024.938,-108.514"/>
<text text-anchor="middle" x="1203.5" y="-121.4482" font-family="Helvetica,sans-Serif" font-size="10.00" fill="#000000"> _device</text>
</g>
<!-- Node22 -->
<g id="node22" class="node">
<title>Node22</title>
<g id="a_node22"><a xlink:href="classlug_1_1Graphics_1_1Vulkan_1_1API_1_1DeviceMemory.html" target="_top" xlink:title="lug::Graphics::Vulkan\l::API::DeviceMemory">
<polygon fill="none" stroke="#000000" points="1140,-138.4482 1140,-168.4482 1267,-168.4482 1267,-138.4482 1140,-138.4482"/>
<text text-anchor="start" x="1148" y="-156.4482" font-family="Helvetica,sans-Serif" font-size="10.00" fill="#000000">lug::Graphics::Vulkan</text>
<text text-anchor="middle" x="1203.5" y="-145.4482" font-family="Helvetica,sans-Serif" font-size="10.00" fill="#000000">::API::DeviceMemory</text>
</a>
</g>
</g>
<!-- Node7&#45;&gt;Node22 -->
<g id="edge22" class="edge">
<title>Node7&#45;&gt;Node22</title>
<path fill="none" stroke="#9a32cd" stroke-dasharray="5,2" d="M1025.1529,-130.0932C1061.5417,-134.8584 1105.0151,-140.5514 1139.9301,-145.1236"/>
<polygon fill="#9a32cd" stroke="#9a32cd" points="1025.4601,-126.6037 1015.0902,-128.7755 1024.5511,-133.5444 1025.4601,-126.6037"/>
<text text-anchor="middle" x="1074.5" y="-144.4482" font-family="Helvetica,sans-Serif" font-size="10.00" fill="#000000"> _device</text>
</g>
<!-- Node8 -->
<g id="node8" class="node">
<title>Node8</title>
<g id="a_node8"><a xlink:href="structlug_1_1Graphics_1_1Vulkan_1_1PhysicalDeviceInfo.html" target="_top" xlink:title="lug::Graphics::Vulkan\l::PhysicalDeviceInfo">
<polygon fill="none" stroke="#000000" points="621,-132.4482 621,-162.4482 748,-162.4482 748,-132.4482 621,-132.4482"/>
<text text-anchor="start" x="629" y="-150.4482" font-family="Helvetica,sans-Serif" font-size="10.00" fill="#000000">lug::Graphics::Vulkan</text>
<text text-anchor="middle" x="684.5" y="-139.4482" font-family="Helvetica,sans-Serif" font-size="10.00" fill="#000000">::PhysicalDeviceInfo</text>
</a>
</g>
</g>
<!-- Node8&#45;&gt;Node7 -->
<g id="edge7" class="edge">
<title>Node8&#45;&gt;Node7</title>
<path fill="none" stroke="#9a32cd" stroke-dasharray="5,2" d="M758.2452,-139.9908C798.9344,-135.8762 848.9548,-130.818 887.9112,-126.8785"/>
<polygon fill="#9a32cd" stroke="#9a32cd" points="757.711,-136.5269 748.1139,-141.0153 758.4154,-143.4914 757.711,-136.5269"/>
<text text-anchor="middle" x="818" y="-141.4482" font-family="Helvetica,sans-Serif" font-size="10.00" fill="#000000"> _physicalDeviceInfo</text>
</g>
<!-- Node9 -->
<g id="node9" class="node">
<title>Node9</title>
<g id="a_node9"><a xlink:href="structlug_1_1Graphics_1_1Vulkan_1_1PhysicalDeviceInfo_1_1Swapchain.html" target="_top" xlink:title="lug::Graphics::Vulkan\l::PhysicalDeviceInfo\l::Swapchain">
<polygon fill="none" stroke="#000000" points="324.5,-282.9482 324.5,-323.9482 451.5,-323.9482 451.5,-282.9482 324.5,-282.9482"/>
<text text-anchor="start" x="332.5" y="-311.9482" font-family="Helvetica,sans-Serif" font-size="10.00" fill="#000000">lug::Graphics::Vulkan</text>
<text text-anchor="start" x="332.5" y="-300.9482" font-family="Helvetica,sans-Serif" font-size="10.00" fill="#000000">::PhysicalDeviceInfo</text>
<text text-anchor="middle" x="388" y="-289.9482" font-family="Helvetica,sans-Serif" font-size="10.00" fill="#000000">::Swapchain</text>
</a>
</g>
</g>
<!-- Node9&#45;&gt;Node8 -->
<g id="edge8" class="edge">
<title>Node9&#45;&gt;Node8</title>
<path fill="none" stroke="#9a32cd" stroke-dasharray="5,2" d="M461.9687,-295.8544C505.7326,-288.6369 560.6959,-274.617 603,-247.4482 637.1095,-225.5423 663.7273,-184.6234 676.3961,-162.5277"/>
<polygon fill="#9a32cd" stroke="#9a32cd" points="461.296,-292.417 451.9569,-297.4202 462.3776,-299.3329 461.296,-292.417"/>
<text text-anchor="middle" x="554.5" y="-288.4482" font-family="Helvetica,sans-Serif" font-size="10.00" fill="#000000"> swapchain</text>
</g>
<!-- Node10 -->
<g id="node10" class="node">
<title>Node10</title>
<polygon fill="none" stroke="#bfbfbf" points="16.5,-331.9482 16.5,-350.9482 162.5,-350.9482 162.5,-331.9482 16.5,-331.9482"/>
<text text-anchor="middle" x="89.5" y="-338.9482" font-family="Helvetica,sans-Serif" font-size="10.00" fill="#000000">VkSurfaceCapabilitiesKHR</text>
</g>
<!-- Node10&#45;&gt;Node9 -->
<g id="edge9" class="edge">
<title>Node10&#45;&gt;Node9</title>
<path fill="none" stroke="#9a32cd" stroke-dasharray="5,2" d="M172.5828,-330.8715C220.5932,-324.7596 280.0566,-317.1898 324.3375,-311.5526"/>
<polygon fill="#9a32cd" stroke="#9a32cd" points="171.9992,-327.4175 162.5213,-332.1524 172.8833,-334.3614 171.9992,-327.4175"/>
<text text-anchor="middle" x="233.5" y="-329.4482" font-family="Helvetica,sans-Serif" font-size="10.00" fill="#000000"> capabilities</text>
</g>
<!-- Node11 -->
<g id="node11" class="node">
<title>Node11</title>
<polygon fill="none" stroke="#bfbfbf" points="0,-293.9482 0,-312.9482 179,-312.9482 179,-293.9482 0,-293.9482"/>
<text text-anchor="middle" x="89.5" y="-300.9482" font-family="Helvetica,sans-Serif" font-size="10.00" fill="#000000">vector&lt; VkSurfaceFormatKHR &gt;</text>
</g>
<!-- Node11&#45;&gt;Node9 -->
<g id="edge10" class="edge">
<title>Node11&#45;&gt;Node9</title>
<path fill="none" stroke="#9a32cd" stroke-dasharray="5,2" d="M189.3241,-303.4482C233.799,-303.4482 284.8747,-303.4482 324.1016,-303.4482"/>
<polygon fill="#9a32cd" stroke="#9a32cd" points="189.0599,-299.9483 179.0598,-303.4482 189.0598,-306.9483 189.0599,-299.9483"/>
<text text-anchor="middle" x="233.5" y="-306.4482" font-family="Helvetica,sans-Serif" font-size="10.00" fill="#000000"> formats</text>
</g>
<!-- Node12 -->
<g id="node12" class="node">
<title>Node12</title>
<polygon fill="none" stroke="#bfbfbf" points="4.5,-255.9482 4.5,-274.9482 174.5,-274.9482 174.5,-255.9482 4.5,-255.9482"/>
<text text-anchor="middle" x="89.5" y="-262.9482" font-family="Helvetica,sans-Serif" font-size="10.00" fill="#000000">vector&lt; VkPresentModeKHR &gt;</text>
</g>
<!-- Node12&#45;&gt;Node9 -->
<g id="edge11" class="edge">
<title>Node12&#45;&gt;Node9</title>
<path fill="none" stroke="#9a32cd" stroke-dasharray="5,2" d="M174.4265,-276.2596C222.0428,-282.3213 280.4605,-289.7581 324.1567,-295.3208"/>
<polygon fill="#9a32cd" stroke="#9a32cd" points="174.8008,-272.7791 164.4389,-274.9882 173.9168,-279.7231 174.8008,-272.7791"/>
<text text-anchor="middle" x="233.5" y="-290.4482" font-family="Helvetica,sans-Serif" font-size="10.00" fill="#000000"> presentModes</text>
</g>
<!-- Node13 -->
<g id="node13" class="node">
<title>Node13</title>
<polygon fill="none" stroke="#bfbfbf" points="308.5,-233.4482 308.5,-263.4482 467.5,-263.4482 467.5,-233.4482 308.5,-233.4482"/>
<text text-anchor="start" x="316.5" y="-251.4482" font-family="Helvetica,sans-Serif" font-size="10.00" fill="#000000">unordered_map&lt; VkFormat,</text>
<text text-anchor="middle" x="388" y="-240.4482" font-family="Helvetica,sans-Serif" font-size="10.00" fill="#000000"> VkFormatProperties &gt;</text>
</g>
<!-- Node13&#45;&gt;Node8 -->
<g id="edge12" class="edge">
<title>Node13&#45;&gt;Node8</title>
<path fill="none" stroke="#9a32cd" stroke-dasharray="5,2" d="M477.4236,-239.1487C517.0561,-232.8782 563.5404,-222.5026 603,-205.4482 627.5497,-194.8379 652.0561,-176.0042 667.6872,-162.6806"/>
<polygon fill="#9a32cd" stroke="#9a32cd" points="476.8643,-235.6934 467.5036,-240.656 477.9159,-242.614 476.8643,-235.6934"/>
<text text-anchor="middle" x="554.5" y="-235.4482" font-family="Helvetica,sans-Serif" font-size="10.00" fill="#000000"> formatProperties</text>
</g>
<!-- Node14 -->
<g id="node14" class="node">
<title>Node14</title>
<polygon fill="none" stroke="#bfbfbf" points="315,-194.9482 315,-213.9482 461,-213.9482 461,-194.9482 315,-194.9482"/>
<text text-anchor="middle" x="388" y="-201.9482" font-family="Helvetica,sans-Serif" font-size="10.00" fill="#000000">VkPhysicalDeviceFeatures</text>
</g>
<!-- Node14&#45;&gt;Node8 -->
<g id="edge13" class="edge">
<title>Node14&#45;&gt;Node8</title>
<path fill="none" stroke="#9a32cd" stroke-dasharray="5,2" d="M471.2106,-195.7101C511.3296,-190.6704 559.9699,-183.3423 603,-173.4482 615.7373,-170.5195 629.348,-166.532 641.7267,-162.5597"/>
<polygon fill="#9a32cd" stroke="#9a32cd" points="470.7004,-192.2464 461.2031,-196.9423 471.5558,-199.194 470.7004,-192.2464"/>
<text text-anchor="middle" x="554.5" y="-193.4482" font-family="Helvetica,sans-Serif" font-size="10.00" fill="#000000"> features</text>
</g>
<!-- Node15 -->
<g id="node15" class="node">
<title>Node15</title>
<polygon fill="none" stroke="#bfbfbf" points="288,-156.9482 288,-175.9482 488,-175.9482 488,-156.9482 288,-156.9482"/>
<text text-anchor="middle" x="388" y="-163.9482" font-family="Helvetica,sans-Serif" font-size="10.00" fill="#000000">vector&lt; VkQueueFamilyProperties &gt;</text>
</g>
<!-- Node15&#45;&gt;Node8 -->
<g id="edge14" class="edge">
<title>Node15&#45;&gt;Node8</title>
<path fill="none" stroke="#9a32cd" stroke-dasharray="5,2" d="M498.5025,-159.3671C539.7965,-156.7209 585.2765,-153.8065 620.9274,-151.522"/>
<polygon fill="#9a32cd" stroke="#9a32cd" points="498.137,-155.8833 488.3814,-160.0157 498.5848,-162.8689 498.137,-155.8833"/>
<text text-anchor="middle" x="554.5" y="-161.4482" font-family="Helvetica,sans-Serif" font-size="10.00" fill="#000000"> queueFamilies</text>
</g>
<!-- Node16 -->
<g id="node16" class="node">
<title>Node16</title>
<polygon fill="none" stroke="#bfbfbf" points="290.5,-118.9482 290.5,-137.9482 485.5,-137.9482 485.5,-118.9482 290.5,-118.9482"/>
<text text-anchor="middle" x="388" y="-125.9482" font-family="Helvetica,sans-Serif" font-size="10.00" fill="#000000">VkPhysicalDeviceMemoryProperties</text>
</g>
<!-- Node16&#45;&gt;Node8 -->
<g id="edge15" class="edge">
<title>Node16&#45;&gt;Node8</title>
<path fill="none" stroke="#9a32cd" stroke-dasharray="5,2" d="M495.8071,-131.2658C530.1079,-132.6163 568.1796,-134.5878 603,-137.4482 608.8251,-137.9267 614.8748,-138.5085 620.9278,-139.1481"/>
<polygon fill="#9a32cd" stroke="#9a32cd" points="495.8922,-127.7666 485.7664,-130.8838 495.626,-134.7615 495.8922,-127.7666"/>
<text text-anchor="middle" x="554.5" y="-140.4482" font-family="Helvetica,sans-Serif" font-size="10.00" fill="#000000"> memoryProperties</text>
</g>
<!-- Node17 -->
<g id="node17" class="node">
<title>Node17</title>
<polygon fill="none" stroke="#bfbfbf" points="336,-80.9482 336,-99.9482 440,-99.9482 440,-80.9482 336,-80.9482"/>
<text text-anchor="middle" x="388" y="-87.9482" font-family="Helvetica,sans-Serif" font-size="10.00" fill="#000000">VkPhysicalDevice</text>
</g>
<!-- Node17&#45;&gt;Node8 -->
<g id="edge16" class="edge">
<title>Node17&#45;&gt;Node8</title>
<path fill="none" stroke="#9a32cd" stroke-dasharray="5,2" d="M450.4396,-93.9754C493.741,-97.396 552.4775,-103.9823 603,-116.4482 607.593,-117.5815 627.1317,-124.999 645.9257,-132.2937"/>
<polygon fill="#9a32cd" stroke="#9a32cd" points="450.5703,-90.4754 440.3352,-93.2124 450.0432,-97.4555 450.5703,-90.4754"/>
<text text-anchor="middle" x="554.5" y="-119.4482" font-family="Helvetica,sans-Serif" font-size="10.00" fill="#000000"> handle</text>
</g>
<!-- Node18 -->
<g id="node18" class="node">
<title>Node18</title>
<polygon fill="none" stroke="#bfbfbf" points="310.5,-42.9482 310.5,-61.9482 465.5,-61.9482 465.5,-42.9482 310.5,-42.9482"/>
<text text-anchor="middle" x="388" y="-49.9482" font-family="Helvetica,sans-Serif" font-size="10.00" fill="#000000">VkPhysicalDeviceProperties</text>
</g>
<!-- Node18&#45;&gt;Node8 -->
<g id="edge17" class="edge">
<title>Node18&#45;&gt;Node8</title>
<path fill="none" stroke="#9a32cd" stroke-dasharray="5,2" d="M475.8881,-47.1527C517.9821,-48.9115 566.9458,-57.7113 603,-84.4482 618.0107,-95.5798 607.3486,-109.6861 621,-122.4482 625.1544,-126.3319 629.9832,-129.6382 635.0877,-132.4469"/>
<polygon fill="#9a32cd" stroke="#9a32cd" points="475.7243,-43.6466 465.627,-46.8552 475.5213,-50.6437 475.7243,-43.6466"/>
<text text-anchor="middle" x="554.5" y="-87.4482" font-family="Helvetica,sans-Serif" font-size="10.00" fill="#000000"> properties</text>
</g>
<!-- Node19 -->
<g id="node19" class="node">
<title>Node19</title>
<polygon fill="none" stroke="#bfbfbf" points="296,-4.9482 296,-23.9482 480,-23.9482 480,-4.9482 296,-4.9482"/>
<text text-anchor="middle" x="388" y="-11.9482" font-family="Helvetica,sans-Serif" font-size="10.00" fill="#000000">vector&lt; VkExtensionProperties &gt;</text>
</g>
<!-- Node19&#45;&gt;Node8 -->
<g id="edge18" class="edge">
<title>Node19&#45;&gt;Node8</title>
<path fill="none" stroke="#9a32cd" stroke-dasharray="5,2" d="M442.259,-3.4701C490.5062,2.9125 559.8993,3.2845 603,-35.4482 632.369,-61.8409 595.5665,-92.2448 621,-122.4482 624.2815,-126.3452 628.2523,-129.6384 632.588,-132.4206"/>
<polygon fill="#9a32cd" stroke="#9a32cd" points="441.6971,-.0149 432.3016,-4.9114 442.6999,-6.9427 441.6971,-.0149"/>
<text text-anchor="middle" x="554.5" y="-38.4482" font-family="Helvetica,sans-Serif" font-size="10.00" fill="#000000"> extensions</text>
</g>
<!-- Node20 -->
<g id="node20" class="node">
<title>Node20</title>
<polygon fill="none" stroke="#bfbfbf" points="653,-93.9482 653,-112.9482 716,-112.9482 716,-93.9482 653,-93.9482"/>
<text text-anchor="middle" x="684.5" y="-100.9482" font-family="Helvetica,sans-Serif" font-size="10.00" fill="#000000">VkDevice</text>
</g>
<!-- Node20&#45;&gt;Node7 -->
<g id="edge19" class="edge">
<title>Node20&#45;&gt;Node7</title>
<path fill="none" stroke="#9a32cd" stroke-dasharray="5,2" d="M726.1494,-103.5852C763.7909,-103.9966 820.6909,-105.3339 870,-109.4482 875.8335,-109.935 881.889,-110.5479 887.9457,-111.2342"/>
<polygon fill="#9a32cd" stroke="#9a32cd" points="726.0975,-100.0846 716.0656,-103.4921 726.0329,-107.0843 726.0975,-100.0846"/>
<text text-anchor="middle" x="818" y="-112.4482" font-family="Helvetica,sans-Serif" font-size="10.00" fill="#000000"> _device</text>
</g>
<!-- Node21 -->
<g id="node21" class="node">
<title>Node21</title>
<polygon fill="none" stroke="#bfbfbf" points="1173,-52.9482 1173,-71.9482 1234,-71.9482 1234,-52.9482 1173,-52.9482"/>
<text text-anchor="middle" x="1203.5" y="-59.9482" font-family="Helvetica,sans-Serif" font-size="10.00" fill="#000000">VkImage</text>
</g>
<!-- Node21&#45;&gt;Node1 -->
<g id="edge20" class="edge">
<title>Node21&#45;&gt;Node1</title>
<path fill="none" stroke="#9a32cd" stroke-dasharray="5,2" d="M1244.5264,-58.103C1283.3903,-55.9832 1342.0384,-58.1225 1385,-83.4482 1424.1927,-106.5522 1449.6144,-156.7313 1460.4711,-182.1026"/>
<polygon fill="#9a32cd" stroke="#9a32cd" points="1243.8635,-54.6394 1234.119,-58.7982 1244.33,-61.6239 1243.8635,-54.6394"/>
<text text-anchor="middle" x="1338" y="-86.4482" font-family="Helvetica,sans-Serif" font-size="10.00" fill="#000000"> _image</text>
</g>
<!-- Node22&#45;&gt;Node1 -->
<g id="edge21" class="edge">
<title>Node22&#45;&gt;Node1</title>
<path fill="none" stroke="#9a32cd" stroke-dasharray="5,2" d="M1277.4127,-164.8538C1310.372,-170.044 1349.6593,-176.3735 1385,-182.4482 1390.8134,-183.4475 1396.8552,-184.5114 1402.903,-185.5937"/>
<polygon fill="#9a32cd" stroke="#9a32cd" points="1277.8205,-161.375 1267.3985,-163.2812 1276.7345,-168.2903 1277.8205,-161.375"/>
<text text-anchor="middle" x="1338" y="-185.4482" font-family="Helvetica,sans-Serif" font-size="10.00" fill="#000000"> _deviceMemory</text>
</g>
<!-- Node23 -->
<g id="node23" class="node">
<title>Node23</title>
<polygon fill="none" stroke="#bfbfbf" points="899.5,-165.9482 899.5,-184.9482 1003.5,-184.9482 1003.5,-165.9482 899.5,-165.9482"/>
<text text-anchor="middle" x="951.5" y="-172.9482" font-family="Helvetica,sans-Serif" font-size="10.00" fill="#000000">VkDeviceMemory</text>
</g>
<!-- Node23&#45;&gt;Node22 -->
<g id="edge23" class="edge">
<title>Node23&#45;&gt;Node22</title>
<path fill="none" stroke="#9a32cd" stroke-dasharray="5,2" d="M1013.722,-170.0161C1052.064,-166.6688 1101.1069,-162.3873 1139.7317,-159.0153"/>
<polygon fill="#9a32cd" stroke="#9a32cd" points="1013.3722,-166.5333 1003.7146,-170.8898 1013.9811,-173.5067 1013.3722,-166.5333"/>
<text text-anchor="middle" x="1074.5" y="-170.4482" font-family="Helvetica,sans-Serif" font-size="10.00" fill="#000000"> _deviceMemory</text>
</g>
</g>
</svg>
