<?xml version="1.0" encoding="UTF-8" standalone="no"?>
<!DOCTYPE svg PUBLIC "-//W3C//DTD SVG 1.1//EN"
 "http://www.w3.org/Graphics/SVG/1.1/DTD/svg11.dtd">
<!-- Generated by graphviz version 2.40.1 (20161225.0304)
 -->
<!-- Title: lug::Graphics::Vulkan::API::Queue Pages: 1 -->
<svg width="1266pt" height="436pt"
 viewBox="0.00 0.00 1266.00 436.00" xmlns="http://www.w3.org/2000/svg" xmlns:xlink="http://www.w3.org/1999/xlink">
<g id="graph0" class="graph" transform="scale(1 1) rotate(0) translate(4 432)">
<title>lug::Graphics::Vulkan::API::Queue</title>
<!-- Node1 -->
<g id="node1" class="node">
<title>Node1</title>
<polygon fill="#bfbfbf" stroke="#000000" points="888,-66 888,-96 1015,-96 1015,-66 888,-66"/>
<text text-anchor="start" x="896" y="-84" font-family="Helvetica,sans-Serif" font-size="10.00" fill="#000000">lug::Graphics::Vulkan</text>
<text text-anchor="middle" x="951.5" y="-73" font-family="Helvetica,sans-Serif" font-size="10.00" fill="#000000">::API::Queue</text>
</g>
<!-- Node3 -->
<g id="node3" class="node">
<title>Node3</title>
<g id="a_node3"><a xlink:href="classlug_1_1Graphics_1_1Vulkan_1_1API_1_1CommandPool.html" target="_top" xlink:title="lug::Graphics::Vulkan\l::API::CommandPool">
<polygon fill="none" stroke="#000000" points="1131,-108 1131,-138 1258,-138 1258,-108 1131,-108"/>
<text text-anchor="start" x="1139" y="-126" font-family="Helvetica,sans-Serif" font-size="10.00" fill="#000000">lug::Graphics::Vulkan</text>
<text text-anchor="middle" x="1194.5" y="-115" font-family="Helvetica,sans-Serif" font-size="10.00" fill="#000000">::API::CommandPool</text>
</a>
</g>
</g>
<!-- Node1&#45;&gt;Node3 -->
<g id="edge17" class="edge">
<title>Node1&#45;&gt;Node3</title>
<path fill="none" stroke="#9a32cd" stroke-dasharray="5,2" d="M1025.2895,-93.7537C1059.0036,-99.5809 1098.5442,-106.415 1130.9212,-112.0111"/>
<polygon fill="#9a32cd" stroke="#9a32cd" points="1025.478,-90.2345 1015.028,-91.9801 1024.2858,-97.1322 1025.478,-90.2345"/>
<text text-anchor="middle" x="1073" y="-111" font-family="Helvetica,sans-Serif" font-size="10.00" fill="#000000"> _queue</text>
</g>
<!-- Node2 -->
<g id="node2" class="node">
<title>Node2</title>
<polygon fill="none" stroke="#bfbfbf" points="662,-114.5 662,-133.5 707,-133.5 707,-114.5 662,-114.5"/>
<text text-anchor="middle" x="684.5" y="-121.5" font-family="Helvetica,sans-Serif" font-size="10.00" fill="#000000">int8_t</text>
</g>
<!-- Node2&#45;&gt;Node1 -->
<g id="edge1" class="edge">
<title>Node2&#45;&gt;Node1</title>
<path fill="none" stroke="#9a32cd" stroke-dasharray="5,2" d="M717.3973,-120.4064C754.5798,-116.15 816.8537,-108.4333 870,-99 875.8496,-97.9617 881.916,-96.7943 887.9796,-95.5658"/>
<polygon fill="#9a32cd" stroke="#9a32cd" points="716.6964,-116.9632 707.1527,-121.564 717.4824,-123.919 716.6964,-116.9632"/>
<text text-anchor="middle" x="818" y="-117" font-family="Helvetica,sans-Serif" font-size="10.00" fill="#000000"> _idx</text>
</g>
<!-- Node3&#45;&gt;Node1 -->
<g id="edge2" class="edge">
<title>Node3&#45;&gt;Node1</title>
<path fill="none" stroke="#9a32cd" stroke-dasharray="5,2" d="M1168.1467,-101.6516C1152.9929,-90.7658 1133.0317,-78.655 1113,-73 1081.5256,-64.1147 1045.2518,-64.9732 1015.065,-68.5472"/>
<polygon fill="#9a32cd" stroke="#9a32cd" points="1166.3682,-104.6913 1176.4777,-107.8613 1170.5516,-99.0788 1166.3682,-104.6913"/>
<text text-anchor="middle" x="1073" y="-76" font-family="Helvetica,sans-Serif" font-size="10.00" fill="#000000"> _commandPool</text>
</g>
<!-- Node4 -->
<g id="node4" class="node">
<title>Node4</title>
<g id="a_node4"><a xlink:href="classlug_1_1Graphics_1_1Vulkan_1_1API_1_1Device.html" target="_top" xlink:title="lug::Graphics::Vulkan\l::API::Device">
<polygon fill="none" stroke="#000000" points="888,-169 888,-199 1015,-199 1015,-169 888,-169"/>
<text text-anchor="start" x="896" y="-187" font-family="Helvetica,sans-Serif" font-size="10.00" fill="#000000">lug::Graphics::Vulkan</text>
<text text-anchor="middle" x="951.5" y="-176" font-family="Helvetica,sans-Serif" font-size="10.00" fill="#000000">::API::Device</text>
</a>
</g>
</g>
<!-- Node4&#45;&gt;Node3 -->
<g id="edge3" class="edge">
<title>Node4&#45;&gt;Node3</title>
<path fill="none" stroke="#9a32cd" stroke-dasharray="5,2" d="M1025.1221,-169.5902C1052.8142,-163.7658 1084.4887,-156.6187 1113,-149 1125.0527,-145.7793 1137.9706,-141.8729 1149.8882,-138.0775"/>
<polygon fill="#9a32cd" stroke="#9a32cd" points="1024.1895,-166.2093 1015.1132,-171.6746 1025.6168,-173.0622 1024.1895,-166.2093"/>
<text text-anchor="middle" x="1073" y="-170" font-family="Helvetica,sans-Serif" font-size="10.00" fill="#000000"> _device</text>
</g>
<!-- Node5 -->
<g id="node5" class="node">
<title>Node5</title>
<g id="a_node5"><a xlink:href="structlug_1_1Graphics_1_1Vulkan_1_1PhysicalDeviceInfo.html" target="_top" xlink:title="lug::Graphics::Vulkan\l::PhysicalDeviceInfo">
<polygon fill="none" stroke="#000000" points="621,-209 621,-239 748,-239 748,-209 621,-209"/>
<text text-anchor="start" x="629" y="-227" font-family="Helvetica,sans-Serif" font-size="10.00" fill="#000000">lug::Graphics::Vulkan</text>
<text text-anchor="middle" x="684.5" y="-216" font-family="Helvetica,sans-Serif" font-size="10.00" fill="#000000">::PhysicalDeviceInfo</text>
</a>
</g>
</g>
<!-- Node5&#45;&gt;Node4 -->
<g id="edge4" class="edge">
<title>Node5&#45;&gt;Node4</title>
<path fill="none" stroke="#9a32cd" stroke-dasharray="5,2" d="M758.3851,-213.4816C792.3928,-208.5797 833.2634,-202.6032 870,-197 875.8074,-196.1142 881.8451,-195.1787 887.8903,-194.2322"/>
<polygon fill="#9a32cd" stroke="#9a32cd" points="757.463,-210.0781 748.0635,-214.9668 758.46,-217.0068 757.463,-210.0781"/>
<text text-anchor="middle" x="818" y="-214" font-family="Helvetica,sans-Serif" font-size="10.00" fill="#000000"> _physicalDeviceInfo</text>
</g>
<!-- Node6 -->
<g id="node6" class="node">
<title>Node6</title>
<g id="a_node6"><a xlink:href="structlug_1_1Graphics_1_1Vulkan_1_1PhysicalDeviceInfo_1_1Swapchain.html" target="_top" xlink:title="lug::Graphics::Vulkan\l::PhysicalDeviceInfo\l::Swapchain">
<polygon fill="none" stroke="#000000" points="324.5,-359.5 324.5,-400.5 451.5,-400.5 451.5,-359.5 324.5,-359.5"/>
<text text-anchor="start" x="332.5" y="-388.5" font-family="Helvetica,sans-Serif" font-size="10.00" fill="#000000">lug::Graphics::Vulkan</text>
<text text-anchor="start" x="332.5" y="-377.5" font-family="Helvetica,sans-Serif" font-size="10.00" fill="#000000">::PhysicalDeviceInfo</text>
<text text-anchor="middle" x="388" y="-366.5" font-family="Helvetica,sans-Serif" font-size="10.00" fill="#000000">::Swapchain</text>
</a>
</g>
</g>
<!-- Node6&#45;&gt;Node5 -->
<g id="edge5" class="edge">
<title>Node6&#45;&gt;Node5</title>
<path fill="none" stroke="#9a32cd" stroke-dasharray="5,2" d="M461.9687,-372.4062C505.7326,-365.1887 560.6959,-351.1687 603,-324 637.1095,-302.0941 663.7273,-261.1752 676.3961,-239.0795"/>
<polygon fill="#9a32cd" stroke="#9a32cd" points="461.296,-368.9688 451.9569,-373.972 462.3776,-375.8847 461.296,-368.9688"/>
<text text-anchor="middle" x="554.5" y="-365" font-family="Helvetica,sans-Serif" font-size="10.00" fill="#000000"> swapchain</text>
</g>
<!-- Node7 -->
<g id="node7" class="node">
<title>Node7</title>
<polygon fill="none" stroke="#bfbfbf" points="16.5,-408.5 16.5,-427.5 162.5,-427.5 162.5,-408.5 16.5,-408.5"/>
<text text-anchor="middle" x="89.5" y="-415.5" font-family="Helvetica,sans-Serif" font-size="10.00" fill="#000000">VkSurfaceCapabilitiesKHR</text>
</g>
<!-- Node7&#45;&gt;Node6 -->
<g id="edge6" class="edge">
<title>Node7&#45;&gt;Node6</title>
<path fill="none" stroke="#9a32cd" stroke-dasharray="5,2" d="M172.5828,-407.4233C220.5932,-401.3114 280.0566,-393.7415 324.3375,-388.1044"/>
<polygon fill="#9a32cd" stroke="#9a32cd" points="171.9992,-403.9692 162.5213,-408.7042 172.8833,-410.9132 171.9992,-403.9692"/>
<text text-anchor="middle" x="233.5" y="-406" font-family="Helvetica,sans-Serif" font-size="10.00" fill="#000000"> capabilities</text>
</g>
<!-- Node8 -->
<g id="node8" class="node">
<title>Node8</title>
<polygon fill="none" stroke="#bfbfbf" points="0,-370.5 0,-389.5 179,-389.5 179,-370.5 0,-370.5"/>
<text text-anchor="middle" x="89.5" y="-377.5" font-family="Helvetica,sans-Serif" font-size="10.00" fill="#000000">vector&lt; VkSurfaceFormatKHR &gt;</text>
</g>
<!-- Node8&#45;&gt;Node6 -->
<g id="edge7" class="edge">
<title>Node8&#45;&gt;Node6</title>
<path fill="none" stroke="#9a32cd" stroke-dasharray="5,2" d="M189.3241,-380C233.799,-380 284.8747,-380 324.1016,-380"/>
<polygon fill="#9a32cd" stroke="#9a32cd" points="189.0599,-376.5001 179.0598,-380 189.0598,-383.5001 189.0599,-376.5001"/>
<text text-anchor="middle" x="233.5" y="-383" font-family="Helvetica,sans-Serif" font-size="10.00" fill="#000000"> formats</text>
</g>
<!-- Node9 -->
<g id="node9" class="node">
<title>Node9</title>
<polygon fill="none" stroke="#bfbfbf" points="4.5,-332.5 4.5,-351.5 174.5,-351.5 174.5,-332.5 4.5,-332.5"/>
<text text-anchor="middle" x="89.5" y="-339.5" font-family="Helvetica,sans-Serif" font-size="10.00" fill="#000000">vector&lt; VkPresentModeKHR &gt;</text>
</g>
<!-- Node9&#45;&gt;Node6 -->
<g id="edge8" class="edge">
<title>Node9&#45;&gt;Node6</title>
<path fill="none" stroke="#9a32cd" stroke-dasharray="5,2" d="M174.4265,-352.8114C222.0428,-358.8731 280.4605,-366.3099 324.1567,-371.8725"/>
<polygon fill="#9a32cd" stroke="#9a32cd" points="174.8008,-349.3309 164.4389,-351.54 173.9168,-356.2749 174.8008,-349.3309"/>
<text text-anchor="middle" x="233.5" y="-367" font-family="Helvetica,sans-Serif" font-size="10.00" fill="#000000"> presentModes</text>
</g>
<!-- Node10 -->
<g id="node10" class="node">
<title>Node10</title>
<polygon fill="none" stroke="#bfbfbf" points="308.5,-310 308.5,-340 467.5,-340 467.5,-310 308.5,-310"/>
<text text-anchor="start" x="316.5" y="-328" font-family="Helvetica,sans-Serif" font-size="10.00" fill="#000000">unordered_map&lt; VkFormat,</text>
<text text-anchor="middle" x="388" y="-317" font-family="Helvetica,sans-Serif" font-size="10.00" fill="#000000"> VkFormatProperties &gt;</text>
</g>
<!-- Node10&#45;&gt;Node5 -->
<g id="edge9" class="edge">
<title>Node10&#45;&gt;Node5</title>
<path fill="none" stroke="#9a32cd" stroke-dasharray="5,2" d="M477.4236,-315.7005C517.0561,-309.4299 563.5404,-299.0543 603,-282 627.5497,-271.3897 652.0561,-252.556 667.6872,-239.2323"/>
<polygon fill="#9a32cd" stroke="#9a32cd" points="476.8643,-312.2452 467.5036,-317.2078 477.9159,-319.1658 476.8643,-312.2452"/>
<text text-anchor="middle" x="554.5" y="-312" font-family="Helvetica,sans-Serif" font-size="10.00" fill="#000000"> formatProperties</text>
</g>
<!-- Node11 -->
<g id="node11" class="node">
<title>Node11</title>
<polygon fill="none" stroke="#bfbfbf" points="315,-271.5 315,-290.5 461,-290.5 461,-271.5 315,-271.5"/>
<text text-anchor="middle" x="388" y="-278.5" font-family="Helvetica,sans-Serif" font-size="10.00" fill="#000000">VkPhysicalDeviceFeatures</text>
</g>
<!-- Node11&#45;&gt;Node5 -->
<g id="edge10" class="edge">
<title>Node11&#45;&gt;Node5</title>
<path fill="none" stroke="#9a32cd" stroke-dasharray="5,2" d="M471.2106,-272.2619C511.3296,-267.2222 559.9699,-259.8941 603,-250 615.7373,-247.0713 629.348,-243.0838 641.7267,-239.1115"/>
<polygon fill="#9a32cd" stroke="#9a32cd" points="470.7004,-268.7982 461.2031,-273.4941 471.5558,-275.7457 470.7004,-268.7982"/>
<text text-anchor="middle" x="554.5" y="-270" font-family="Helvetica,sans-Serif" font-size="10.00" fill="#000000"> features</text>
</g>
<!-- Node12 -->
<g id="node12" class="node">
<title>Node12</title>
<polygon fill="none" stroke="#bfbfbf" points="288,-233.5 288,-252.5 488,-252.5 488,-233.5 288,-233.5"/>
<text text-anchor="middle" x="388" y="-240.5" font-family="Helvetica,sans-Serif" font-size="10.00" fill="#000000">vector&lt; VkQueueFamilyProperties &gt;</text>
</g>
<!-- Node12&#45;&gt;Node5 -->
<g id="edge11" class="edge">
<title>Node12&#45;&gt;Node5</title>
<path fill="none" stroke="#9a32cd" stroke-dasharray="5,2" d="M498.5025,-235.9189C539.7965,-233.2727 585.2765,-230.3583 620.9274,-228.0738"/>
<polygon fill="#9a32cd" stroke="#9a32cd" points="498.137,-232.435 488.3814,-236.5675 498.5848,-239.4207 498.137,-232.435"/>
<text text-anchor="middle" x="554.5" y="-238" font-family="Helvetica,sans-Serif" font-size="10.00" fill="#000000"> queueFamilies</text>
</g>
<!-- Node13 -->
<g id="node13" class="node">
<title>Node13</title>
<polygon fill="none" stroke="#bfbfbf" points="290.5,-195.5 290.5,-214.5 485.5,-214.5 485.5,-195.5 290.5,-195.5"/>
<text text-anchor="middle" x="388" y="-202.5" font-family="Helvetica,sans-Serif" font-size="10.00" fill="#000000">VkPhysicalDeviceMemoryProperties</text>
</g>
<!-- Node13&#45;&gt;Node5 -->
<g id="edge12" class="edge">
<title>Node13&#45;&gt;Node5</title>
<path fill="none" stroke="#9a32cd" stroke-dasharray="5,2" d="M495.8071,-207.8176C530.1079,-209.168 568.1796,-211.1396 603,-214 608.8251,-214.4785 614.8748,-215.0603 620.9278,-215.6999"/>
<polygon fill="#9a32cd" stroke="#9a32cd" points="495.8922,-204.3184 485.7664,-207.4356 495.626,-211.3133 495.8922,-204.3184"/>
<text text-anchor="middle" x="554.5" y="-217" font-family="Helvetica,sans-Serif" font-size="10.00" fill="#000000"> memoryProperties</text>
</g>
<!-- Node14 -->
<g id="node14" class="node">
<title>Node14</title>
<polygon fill="none" stroke="#bfbfbf" points="336,-157.5 336,-176.5 440,-176.5 440,-157.5 336,-157.5"/>
<text text-anchor="middle" x="388" y="-164.5" font-family="Helvetica,sans-Serif" font-size="10.00" fill="#000000">VkPhysicalDevice</text>
</g>
<!-- Node14&#45;&gt;Node5 -->
<g id="edge13" class="edge">
<title>Node14&#45;&gt;Node5</title>
<path fill="none" stroke="#9a32cd" stroke-dasharray="5,2" d="M450.4396,-170.5272C493.741,-173.9478 552.4775,-180.5341 603,-193 607.593,-194.1333 627.1317,-201.5508 645.9257,-208.8454"/>
<polygon fill="#9a32cd" stroke="#9a32cd" points="450.5703,-167.0272 440.3352,-169.7642 450.0432,-174.0073 450.5703,-167.0272"/>
<text text-anchor="middle" x="554.5" y="-196" font-family="Helvetica,sans-Serif" font-size="10.00" fill="#000000"> handle</text>
</g>
<!-- Node15 -->
<g id="node15" class="node">
<title>Node15</title>
<polygon fill="none" stroke="#bfbfbf" points="310.5,-119.5 310.5,-138.5 465.5,-138.5 465.5,-119.5 310.5,-119.5"/>
<text text-anchor="middle" x="388" y="-126.5" font-family="Helvetica,sans-Serif" font-size="10.00" fill="#000000">VkPhysicalDeviceProperties</text>
</g>
<!-- Node15&#45;&gt;Node5 -->
<g id="edge14" class="edge">
<title>Node15&#45;&gt;Node5</title>
<path fill="none" stroke="#9a32cd" stroke-dasharray="5,2" d="M475.8881,-123.7045C517.9821,-125.4633 566.9458,-134.2631 603,-161 618.0107,-172.1316 607.3486,-186.2378 621,-199 625.1544,-202.8837 629.9832,-206.19 635.0877,-208.9987"/>
<polygon fill="#9a32cd" stroke="#9a32cd" points="475.7243,-120.1984 465.627,-123.4069 475.5213,-127.1954 475.7243,-120.1984"/>
<text text-anchor="middle" x="554.5" y="-164" font-family="Helvetica,sans-Serif" font-size="10.00" fill="#000000"> properties</text>
</g>
<!-- Node16 -->
<g id="node16" class="node">
<title>Node16</title>
<polygon fill="none" stroke="#bfbfbf" points="296,-81.5 296,-100.5 480,-100.5 480,-81.5 296,-81.5"/>
<text text-anchor="middle" x="388" y="-88.5" font-family="Helvetica,sans-Serif" font-size="10.00" fill="#000000">vector&lt; VkExtensionProperties &gt;</text>
</g>
<!-- Node16&#45;&gt;Node5 -->
<g id="edge15" class="edge">
<title>Node16&#45;&gt;Node5</title>
<path fill="none" stroke="#9a32cd" stroke-dasharray="5,2" d="M440.507,-79.9505C488.8042,-73.0805 559.3515,-71.8678 603,-111 632.7242,-137.6487 595.3205,-168.4346 621,-199 624.2772,-202.9007 628.2449,-206.1963 632.5789,-208.9801"/>
<polygon fill="#9a32cd" stroke="#9a32cd" points="439.9036,-76.5022 430.5563,-81.4899 440.9739,-83.4199 439.9036,-76.5022"/>
<text text-anchor="middle" x="554.5" y="-114" font-family="Helvetica,sans-Serif" font-size="10.00" fill="#000000"> extensions</text>
</g>
<!-- Node17 -->
<g id="node17" class="node">
<title>Node17</title>
<polygon fill="none" stroke="#bfbfbf" points="653,-170.5 653,-189.5 716,-189.5 716,-170.5 653,-170.5"/>
<text text-anchor="middle" x="684.5" y="-177.5" font-family="Helvetica,sans-Serif" font-size="10.00" fill="#000000">VkDevice</text>
</g>
<!-- Node17&#45;&gt;Node4 -->
<g id="edge16" class="edge">
<title>Node17&#45;&gt;Node4</title>
<path fill="none" stroke="#9a32cd" stroke-dasharray="5,2" d="M726.3603,-180.6271C769.6778,-181.2761 837.8735,-182.2977 887.8675,-183.0467"/>
<polygon fill="#9a32cd" stroke="#9a32cd" points="726.2282,-177.1248 716.1769,-180.4746 726.1233,-184.1241 726.2282,-177.1248"/>
<text text-anchor="middle" x="818" y="-185" font-family="Helvetica,sans-Serif" font-size="10.00" fill="#000000"> _device</text>
</g>
<!-- Node18 -->
<g id="node18" class="node">
<title>Node18</title>
<polygon fill="none" stroke="#bfbfbf" points="901,-130.5 901,-149.5 1002,-149.5 1002,-130.5 901,-130.5"/>
<text text-anchor="middle" x="951.5" y="-137.5" font-family="Helvetica,sans-Serif" font-size="10.00" fill="#000000">VkCommandPool</text>
</g>
<!-- Node18&#45;&gt;Node3 -->
<g id="edge18" class="edge">
<title>Node18&#45;&gt;Node3</title>
<path fill="none" stroke="#9a32cd" stroke-dasharray="5,2" d="M1012.5456,-135.7293C1048.6718,-133.202 1094.367,-130.0052 1130.9268,-127.4475"/>
<polygon fill="#9a32cd" stroke="#9a32cd" points="1011.8763,-132.2675 1002.145,-136.4569 1012.3649,-139.2504 1011.8763,-132.2675"/>
<text text-anchor="middle" x="1073" y="-137" font-family="Helvetica,sans-Serif" font-size="10.00" fill="#000000"> _commandPool</text>
</g>
<!-- Node19 -->
<g id="node19" class="node">
<title>Node19</title>
<polygon fill="none" stroke="#bfbfbf" points="641.5,-76.5 641.5,-95.5 727.5,-95.5 727.5,-76.5 641.5,-76.5"/>
<text text-anchor="middle" x="684.5" y="-83.5" font-family="Helvetica,sans-Serif" font-size="10.00" fill="#000000">VkQueueFlags</text>
</g>
<!-- Node19&#45;&gt;Node1 -->
<g id="edge19" class="edge">
<title>Node19&#45;&gt;Node1</title>
<path fill="none" stroke="#9a32cd" stroke-dasharray="5,2" d="M737.7353,-85.0031C780.9862,-84.1931 842.1135,-83.0484 887.9298,-82.1905"/>
<polygon fill="#9a32cd" stroke="#9a32cd" points="737.6276,-81.5044 727.6949,-85.1911 737.7587,-88.5032 737.6276,-81.5044"/>
<text text-anchor="middle" x="818" y="-87" font-family="Helvetica,sans-Serif" font-size="10.00" fill="#000000"> _flags</text>
</g>
<!-- Node20 -->
<g id="node20" class="node">
<title>Node20</title>
<polygon fill="none" stroke="#bfbfbf" points="665.5,-38.5 665.5,-57.5 703.5,-57.5 703.5,-38.5 665.5,-38.5"/>
<text text-anchor="middle" x="684.5" y="-45.5" font-family="Helvetica,sans-Serif" font-size="10.00" fill="#000000">bool</text>
</g>
<!-- Node20&#45;&gt;Node1 -->
<g id="edge20" class="edge">
<title>Node20&#45;&gt;Node1</title>
<path fill="none" stroke="#9a32cd" stroke-dasharray="5,2" d="M713.4781,-50.3533C750.0441,-53.464 814.8264,-59.4445 870,-67 875.8318,-67.7986 881.886,-68.7005 887.9419,-69.6521"/>
<polygon fill="#9a32cd" stroke="#9a32cd" points="713.7683,-46.8654 703.5108,-49.5172 713.1832,-53.841 713.7683,-46.8654"/>
<text text-anchor="middle" x="818" y="-70" font-family="Helvetica,sans-Serif" font-size="10.00" fill="#000000"> _presentation</text>
</g>
<!-- Node21 -->
<g id="node21" class="node">
<title>Node21</title>
<polygon fill="none" stroke="#bfbfbf" points="654,-.5 654,-19.5 715,-19.5 715,-.5 654,-.5"/>
<text text-anchor="middle" x="684.5" y="-7.5" font-family="Helvetica,sans-Serif" font-size="10.00" fill="#000000">VkQueue</text>
</g>
<!-- Node21&#45;&gt;Node1 -->
<g id="edge21" class="edge">
<title>Node21&#45;&gt;Node1</title>
<path fill="none" stroke="#9a32cd" stroke-dasharray="5,2" d="M725.2505,-12.9891C763.4054,-16.6241 821.631,-24.3343 870,-40 889.8901,-46.442 910.9369,-57.1413 926.6593,-65.9949"/>
<polygon fill="#9a32cd" stroke="#9a32cd" points="725.3199,-9.4812 715.0459,-12.0686 724.691,-16.4529 725.3199,-9.4812"/>
<text text-anchor="middle" x="818" y="-43" font-family="Helvetica,sans-Serif" font-size="10.00" fill="#000000"> _queue</text>
</g>
</g>
</svg>
