<?xml version="1.0" encoding="UTF-8" standalone="no"?>
<!DOCTYPE svg PUBLIC "-//W3C//DTD SVG 1.1//EN"
 "http://www.w3.org/Graphics/SVG/1.1/DTD/svg11.dtd">
<!-- Generated by graphviz version 2.40.1 (20161225.0304)
 -->
<!-- Title: lug::Graphics::Vulkan::API::Image Pages: 1 -->
<!--zoomable 433 -->
<svg id="main" version="1.1" xmlns="http://www.w3.org/2000/svg" xmlns:xlink="http://www.w3.org/1999/xlink" xml:space="preserve" onload="init(evt)">
<style type="text/css"><![CDATA[
.edge:hover path { stroke: red; }
.edge:hover polygon { stroke: red; fill: red; }
]]></style>
<script type="text/javascript"><![CDATA[
var edges = document.getElementsByTagName('g');
if (edges && edges.length) {
  for (var i=0;i<edges.length;i++) {
    if (edges[i].id.substr(0,4)=='edge') {
      edges[i].setAttribute('class','edge');
    }
  }
}
]]></script>
        <defs>
                <circle id="rim" cx="0" cy="0" r="7"/>
                <circle id="rim2" cx="0" cy="0" r="3.5"/>
                <g id="zoomPlus">
                        <use xlink:href="#rim" fill="#404040">
                                <set attributeName="fill" to="#808080" begin="zoomplus.mouseover" end="zoomplus.mouseout"/>
                        </use>
                        <path d="M-4,0h8M0,-4v8" fill="none" stroke="white" stroke-width="1.5" pointer-events="none"/>
                </g>
                <g id="zoomMin">
                        <use xlink:href="#rim" fill="#404040">
                                <set attributeName="fill" to="#808080" begin="zoomminus.mouseover" end="zoomminus.mouseout"/>
                        </use>
                        <path d="M-4,0h8" fill="none" stroke="white" stroke-width="1.5" pointer-events="none"/>
                </g>
                <g id="dirArrow">
                        <path fill="none" stroke="white" stroke-width="1.5" d="M0,-3.0v7 M-2.5,-0.5L0,-3.0L2.5,-0.5"/>
                </g>
               <g id="resetDef">
                       <use xlink:href="#rim2" fill="#404040">
                               <set attributeName="fill" to="#808080" begin="reset.mouseover" end="reset.mouseout"/>
                       </use>
               </g>
        </defs>

<script type="text/javascript">
var viewWidth = 1581;
var viewHeight = 433;
var sectionId = 'dynsection-0';
</script>
<script xlink:href="svgpan.js"/>
<svg id="graph" class="graph">
<g id="viewport">
<title>lug::Graphics::Vulkan::API::Image</title>
<!-- Node1 -->
<g id="node1" class="node">
<title>Node1</title>
<polygon fill="#bfbfbf" stroke="#000000" points="1446,-235.6549 1446,-265.6549 1573,-265.6549 1573,-235.6549 1446,-235.6549"/>
<text text-anchor="start" x="1454" y="-253.6549" font-family="Helvetica,sans-Serif" font-size="10.00" fill="#000000">lug::Graphics::Vulkan</text>
<text text-anchor="middle" x="1509.5" y="-242.6549" font-family="Helvetica,sans-Serif" font-size="10.00" fill="#000000">::API::Image</text>
</g>
<!-- Node2 -->
<g id="node2" class="node">
<title>Node2</title>
<polygon fill="none" stroke="#bfbfbf" points="1177,-405.1549 1177,-424.1549 1316,-424.1549 1316,-405.1549 1177,-405.1549"/>
<text text-anchor="middle" x="1246.5" y="-412.1549" font-family="Helvetica,sans-Serif" font-size="10.00" fill="#000000">VkMemoryRequirements</text>
</g>
<!-- Node2&#45;&gt;Node1 -->
<g id="edge1" class="edge">
<title>Node2&#45;&gt;Node1</title>
<path fill="none" stroke="#9a32cd" stroke-dasharray="5,2" d="M1326.4806,-413.067C1360.2275,-409.0612 1398.4547,-399.8209 1428,-379.6549 1469.7912,-351.1304 1494.5895,-293.3612 1504.4882,-265.8642"/>
<polygon fill="#9a32cd" stroke="#9a32cd" points="1325.7464,-409.6247 1316.1659,-414.1484 1326.4763,-416.5866 1325.7464,-409.6247"/>
<text text-anchor="middle" x="1381" y="-414.6549" font-family="Helvetica,sans-Serif" font-size="10.00" fill="#000000"> _requirements</text>
</g>
<!-- Node3 -->
<g id="node3" class="node">
<title>Node3</title>
<polygon fill="none" stroke="#bfbfbf" points="1214,-367.1549 1214,-386.1549 1279,-386.1549 1279,-367.1549 1214,-367.1549"/>
<text text-anchor="middle" x="1246.5" y="-374.1549" font-family="Helvetica,sans-Serif" font-size="10.00" fill="#000000">VkFormat</text>
</g>
<!-- Node3&#45;&gt;Node1 -->
<g id="edge2" class="edge">
<title>Node3&#45;&gt;Node1</title>
<path fill="none" stroke="#9a32cd" stroke-dasharray="5,2" d="M1289.59,-372.8987C1327.9775,-368.0486 1384.6229,-357.0977 1428,-332.6549 1458.0767,-315.7067 1484.5283,-284.5165 1498.6488,-265.8727"/>
<polygon fill="#9a32cd" stroke="#9a32cd" points="1288.7963,-369.4678 1279.2732,-374.1111 1289.6133,-376.42 1288.7963,-369.4678"/>
<text text-anchor="middle" x="1381" y="-367.6549" font-family="Helvetica,sans-Serif" font-size="10.00" fill="#000000"> _format</text>
</g>
<!-- Node4 -->
<g id="node4" class="node">
<title>Node4</title>
<g id="a_node4"><a xlink:href="structlug_1_1Graphics_1_1Vulkan_1_1API_1_1Image_1_1Extent.html" target="_top" xlink:title="lug::Graphics::Vulkan\l::API::Image::Extent">
<polygon fill="none" stroke="#000000" points="1183,-317.6549 1183,-347.6549 1310,-347.6549 1310,-317.6549 1183,-317.6549"/>
<text text-anchor="start" x="1191" y="-335.6549" font-family="Helvetica,sans-Serif" font-size="10.00" fill="#000000">lug::Graphics::Vulkan</text>
<text text-anchor="middle" x="1246.5" y="-324.6549" font-family="Helvetica,sans-Serif" font-size="10.00" fill="#000000">::API::Image::Extent</text>
</a>
</g>
</g>
<!-- Node4&#45;&gt;Node1 -->
<g id="edge3" class="edge">
<title>Node4&#45;&gt;Node1</title>
<path fill="none" stroke="#9a32cd" stroke-dasharray="5,2" d="M1320.3772,-320.8682C1353.8098,-314.3975 1393.4814,-305.1137 1428,-292.6549 1447.6137,-285.5757 1468.4952,-274.7436 1484.2111,-265.8533"/>
<polygon fill="#9a32cd" stroke="#9a32cd" points="1319.3917,-317.4923 1310.2144,-322.7865 1320.6901,-324.3709 1319.3917,-317.4923"/>
<text text-anchor="middle" x="1381" y="-320.6549" font-family="Helvetica,sans-Serif" font-size="10.00" fill="#000000"> _extent</text>
</g>
<!-- Node5 -->
<g id="node5" class="node">
<title>Node5</title>
<polygon fill="none" stroke="#bfbfbf" points="966,-323.1549 966,-342.1549 1023,-342.1549 1023,-323.1549 966,-323.1549"/>
<text text-anchor="middle" x="994.5" y="-330.1549" font-family="Helvetica,sans-Serif" font-size="10.00" fill="#000000">uint32_t</text>
</g>
<!-- Node5&#45;&gt;Node4 -->
<g id="edge4" class="edge">
<title>Node5&#45;&gt;Node4</title>
<path fill="none" stroke="#9a32cd" stroke-dasharray="5,2" d="M1033.5177,-332.6549C1073.3563,-332.6549 1135.8538,-332.6549 1182.864,-332.6549"/>
<polygon fill="#9a32cd" stroke="#9a32cd" points="1033.4076,-329.155 1023.4076,-332.6549 1033.4076,-336.155 1033.4076,-329.155"/>
<text text-anchor="middle" x="1117.5" y="-346.6549" font-family="Helvetica,sans-Serif" font-size="10.00" fill="#000000"> width</text>
<text text-anchor="middle" x="1117.5" y="-335.6549" font-family="Helvetica,sans-Serif" font-size="10.00" fill="#000000">height</text>
</g>
<!-- Node6 -->
<g id="node6" class="node">
<title>Node6</title>
<polygon fill="none" stroke="#bfbfbf" points="1187,-279.1549 1187,-298.1549 1306,-298.1549 1306,-279.1549 1187,-279.1549"/>
<text text-anchor="middle" x="1246.5" y="-286.1549" font-family="Helvetica,sans-Serif" font-size="10.00" fill="#000000">VkImageAspectFlags</text>
</g>
<!-- Node6&#45;&gt;Node1 -->
<g id="edge5" class="edge">
<title>Node6&#45;&gt;Node1</title>
<path fill="none" stroke="#9a32cd" stroke-dasharray="5,2" d="M1316.522,-280.709C1350.2767,-276.642 1391.3074,-271.3518 1428,-265.6549 1433.8288,-264.7499 1439.8811,-263.75 1445.9357,-262.7089"/>
<polygon fill="#9a32cd" stroke="#9a32cd" points="1315.8071,-277.2694 1306.2929,-281.931 1316.6374,-284.22 1315.8071,-277.2694"/>
<text text-anchor="middle" x="1381" y="-280.6549" font-family="Helvetica,sans-Serif" font-size="10.00" fill="#000000"> _aspect</text>
</g>
<!-- Node7 -->
<g id="node7" class="node">
<title>Node7</title>
<polygon fill="none" stroke="#bfbfbf" points="1227.5,-241.1549 1227.5,-260.1549 1265.5,-260.1549 1265.5,-241.1549 1227.5,-241.1549"/>
<text text-anchor="middle" x="1246.5" y="-248.1549" font-family="Helvetica,sans-Serif" font-size="10.00" fill="#000000">bool</text>
</g>
<!-- Node7&#45;&gt;Node1 -->
<g id="edge6" class="edge">
<title>Node7&#45;&gt;Node1</title>
<path fill="none" stroke="#9a32cd" stroke-dasharray="5,2" d="M1275.9467,-250.6549C1316.8496,-250.6549 1391.9145,-250.6549 1445.9169,-250.6549"/>
<polygon fill="#9a32cd" stroke="#9a32cd" points="1275.8391,-247.155 1265.839,-250.6549 1275.839,-254.155 1275.8391,-247.155"/>
<text text-anchor="middle" x="1381" y="-253.6549" font-family="Helvetica,sans-Serif" font-size="10.00" fill="#000000"> _swapchainImage</text>
</g>
<!-- Node8 -->
<g id="node8" class="node">
<title>Node8</title>
<g id="a_node8"><a xlink:href="classlug_1_1Graphics_1_1Vulkan_1_1API_1_1Device.html" target="_top" xlink:title="lug::Graphics::Vulkan\l::API::Device">
<polygon fill="none" stroke="#000000" points="931,-81.6549 931,-111.6549 1058,-111.6549 1058,-81.6549 931,-81.6549"/>
<text text-anchor="start" x="939" y="-99.6549" font-family="Helvetica,sans-Serif" font-size="10.00" fill="#000000">lug::Graphics::Vulkan</text>
<text text-anchor="middle" x="994.5" y="-88.6549" font-family="Helvetica,sans-Serif" font-size="10.00" fill="#000000">::API::Device</text>
</a>
</g>
</g>
<!-- Node8&#45;&gt;Node1 -->
<g id="edge7" class="edge">
<title>Node8&#45;&gt;Node1</title>
<path fill="none" stroke="#9a32cd" stroke-dasharray="5,2" d="M1068.2241,-88.7577C1160.2599,-82.7281 1318.8399,-85.3323 1428,-157.6549 1459.6773,-178.6423 1486.5113,-215.066 1500.0563,-235.5476"/>
<polygon fill="#9a32cd" stroke="#9a32cd" points="1067.8886,-85.2726 1058.1602,-89.469 1068.3821,-92.2552 1067.8886,-85.2726"/>
<text text-anchor="middle" x="1246.5" y="-111.6549" font-family="Helvetica,sans-Serif" font-size="10.00" fill="#000000"> _device</text>
</g>
<!-- Node25 -->
<g id="node25" class="node">
<title>Node25</title>
<g id="a_node25"><a xlink:href="classlug_1_1Graphics_1_1Vulkan_1_1API_1_1DeviceMemory.html" target="_top" xlink:title="lug::Graphics::Vulkan\l::API::DeviceMemory">
<polygon fill="none" stroke="#000000" points="1183,-140.6549 1183,-170.6549 1310,-170.6549 1310,-140.6549 1183,-140.6549"/>
<text text-anchor="start" x="1191" y="-158.6549" font-family="Helvetica,sans-Serif" font-size="10.00" fill="#000000">lug::Graphics::Vulkan</text>
<text text-anchor="middle" x="1246.5" y="-147.6549" font-family="Helvetica,sans-Serif" font-size="10.00" fill="#000000">::API::DeviceMemory</text>
</a>
</g>
</g>
<!-- Node8&#45;&gt;Node25 -->
<g id="edge25" class="edge">
<title>Node8&#45;&gt;Node25</title>
<path fill="none" stroke="#9a32cd" stroke-dasharray="5,2" d="M1068.1529,-113.899C1104.5417,-122.4186 1148.0151,-132.5969 1182.9301,-140.7714"/>
<polygon fill="#9a32cd" stroke="#9a32cd" points="1068.6248,-110.4149 1058.0902,-111.5431 1067.029,-117.2306 1068.6248,-110.4149"/>
<text text-anchor="middle" x="1117.5" y="-137.6549" font-family="Helvetica,sans-Serif" font-size="10.00" fill="#000000"> _device</text>
</g>
<!-- Node9 -->
<g id="node9" class="node">
<title>Node9</title>
<g id="a_node9"><a xlink:href="structlug_1_1Graphics_1_1Vulkan_1_1PhysicalDeviceInfo.html" target="_top" xlink:title="lug::Graphics::Vulkan\l::PhysicalDeviceInfo">
<polygon fill="none" stroke="#000000" points="642.5,-130.6549 642.5,-160.6549 769.5,-160.6549 769.5,-130.6549 642.5,-130.6549"/>
<text text-anchor="start" x="650.5" y="-148.6549" font-family="Helvetica,sans-Serif" font-size="10.00" fill="#000000">lug::Graphics::Vulkan</text>
<text text-anchor="middle" x="706" y="-137.6549" font-family="Helvetica,sans-Serif" font-size="10.00" fill="#000000">::PhysicalDeviceInfo</text>
</a>
</g>
</g>
<!-- Node9&#45;&gt;Node8 -->
<g id="edge8" class="edge">
<title>Node9&#45;&gt;Node8</title>
<path fill="none" stroke="#9a32cd" stroke-dasharray="5,2" d="M780.0102,-133.8522C819.5121,-127.4635 868.937,-119.3277 913,-111.6549 918.8112,-110.6429 924.8515,-109.5704 930.8984,-108.4826"/>
<polygon fill="#9a32cd" stroke="#9a32cd" points="779.2445,-130.4304 769.9301,-135.4794 780.3601,-137.341 779.2445,-130.4304"/>
<text text-anchor="middle" x="861" y="-131.6549" font-family="Helvetica,sans-Serif" font-size="10.00" fill="#000000"> _physicalDeviceInfo</text>
</g>
<!-- Node10 -->
<g id="node10" class="node">
<title>Node10</title>
<g id="a_node10"><a xlink:href="structlug_1_1Graphics_1_1Vulkan_1_1PhysicalDeviceInfo_1_1Swapchain.html" target="_top" xlink:title="lug::Graphics::Vulkan\l::PhysicalDeviceInfo\l::Swapchain">
<polygon fill="none" stroke="#000000" points="324.5,-281.1549 324.5,-322.1549 451.5,-322.1549 451.5,-281.1549 324.5,-281.1549"/>
<text text-anchor="start" x="332.5" y="-310.1549" font-family="Helvetica,sans-Serif" font-size="10.00" fill="#000000">lug::Graphics::Vulkan</text>
<text text-anchor="start" x="332.5" y="-299.1549" font-family="Helvetica,sans-Serif" font-size="10.00" fill="#000000">::PhysicalDeviceInfo</text>
<text text-anchor="middle" x="388" y="-288.1549" font-family="Helvetica,sans-Serif" font-size="10.00" fill="#000000">::Swapchain</text>
</a>
</g>
</g>
<!-- Node10&#45;&gt;Node9 -->
<g id="edge9" class="edge">
<title>Node10&#45;&gt;Node9</title>
<path fill="none" stroke="#9a32cd" stroke-dasharray="5,2" d="M461.6295,-290.1498C504.7948,-281.2531 559.2582,-266.1907 603,-241.6549 641.1623,-220.2487 676.3144,-181.8427 694.0081,-160.6756"/>
<polygon fill="#9a32cd" stroke="#9a32cd" points="460.881,-286.7301 451.7585,-292.1182 462.2499,-293.5949 460.881,-286.7301"/>
<text text-anchor="middle" x="554.5" y="-281.6549" font-family="Helvetica,sans-Serif" font-size="10.00" fill="#000000"> swapchain</text>
</g>
<!-- Node11 -->
<g id="node11" class="node">
<title>Node11</title>
<polygon fill="none" stroke="#bfbfbf" points="16.5,-330.1549 16.5,-349.1549 162.5,-349.1549 162.5,-330.1549 16.5,-330.1549"/>
<text text-anchor="middle" x="89.5" y="-337.1549" font-family="Helvetica,sans-Serif" font-size="10.00" fill="#000000">VkSurfaceCapabilitiesKHR</text>
</g>
<!-- Node11&#45;&gt;Node10 -->
<g id="edge10" class="edge">
<title>Node11&#45;&gt;Node10</title>
<path fill="none" stroke="#9a32cd" stroke-dasharray="5,2" d="M172.5828,-329.0782C220.5932,-322.9663 280.0566,-315.3964 324.3375,-309.7593"/>
<polygon fill="#9a32cd" stroke="#9a32cd" points="171.9992,-325.6241 162.5213,-330.359 172.8833,-332.5681 171.9992,-325.6241"/>
<text text-anchor="middle" x="233.5" y="-327.6549" font-family="Helvetica,sans-Serif" font-size="10.00" fill="#000000"> capabilities</text>
</g>
<!-- Node12 -->
<g id="node12" class="node">
<title>Node12</title>
<polygon fill="none" stroke="#bfbfbf" points="0,-292.1549 0,-311.1549 179,-311.1549 179,-292.1549 0,-292.1549"/>
<text text-anchor="middle" x="89.5" y="-299.1549" font-family="Helvetica,sans-Serif" font-size="10.00" fill="#000000">vector&lt; VkSurfaceFormatKHR &gt;</text>
</g>
<!-- Node12&#45;&gt;Node10 -->
<g id="edge11" class="edge">
<title>Node12&#45;&gt;Node10</title>
<path fill="none" stroke="#9a32cd" stroke-dasharray="5,2" d="M189.3241,-301.6549C233.799,-301.6549 284.8747,-301.6549 324.1016,-301.6549"/>
<polygon fill="#9a32cd" stroke="#9a32cd" points="189.0599,-298.155 179.0598,-301.6549 189.0598,-305.155 189.0599,-298.155"/>
<text text-anchor="middle" x="233.5" y="-304.6549" font-family="Helvetica,sans-Serif" font-size="10.00" fill="#000000"> formats</text>
</g>
<!-- Node13 -->
<g id="node13" class="node">
<title>Node13</title>
<polygon fill="none" stroke="#bfbfbf" points="4.5,-254.1549 4.5,-273.1549 174.5,-273.1549 174.5,-254.1549 4.5,-254.1549"/>
<text text-anchor="middle" x="89.5" y="-261.1549" font-family="Helvetica,sans-Serif" font-size="10.00" fill="#000000">vector&lt; VkPresentModeKHR &gt;</text>
</g>
<!-- Node13&#45;&gt;Node10 -->
<g id="edge12" class="edge">
<title>Node13&#45;&gt;Node10</title>
<path fill="none" stroke="#9a32cd" stroke-dasharray="5,2" d="M174.4265,-274.4663C222.0428,-280.528 280.4605,-287.9648 324.1567,-293.5274"/>
<polygon fill="#9a32cd" stroke="#9a32cd" points="174.8008,-270.9858 164.4389,-273.1948 173.9168,-277.9297 174.8008,-270.9858"/>
<text text-anchor="middle" x="233.5" y="-288.6549" font-family="Helvetica,sans-Serif" font-size="10.00" fill="#000000"> presentModes</text>
</g>
<!-- Node14 -->
<g id="node14" class="node">
<title>Node14</title>
<polygon fill="none" stroke="#bfbfbf" points="308.5,-231.6549 308.5,-261.6549 467.5,-261.6549 467.5,-231.6549 308.5,-231.6549"/>
<text text-anchor="start" x="316.5" y="-249.6549" font-family="Helvetica,sans-Serif" font-size="10.00" fill="#000000">unordered_map&lt; VkFormat,</text>
<text text-anchor="middle" x="388" y="-238.6549" font-family="Helvetica,sans-Serif" font-size="10.00" fill="#000000"> VkFormatProperties &gt;</text>
</g>
<!-- Node14&#45;&gt;Node9 -->
<g id="edge13" class="edge">
<title>Node14&#45;&gt;Node9</title>
<path fill="none" stroke="#9a32cd" stroke-dasharray="5,2" d="M477.7382,-233.8984C516.9352,-226.7989 562.9918,-216.3568 603,-201.6549 631.8484,-191.0539 662.5,-173.4755 682.7908,-160.8391"/>
<polygon fill="#9a32cd" stroke="#9a32cd" points="476.9054,-230.4912 467.6664,-235.677 478.1227,-237.3845 476.9054,-230.4912"/>
<text text-anchor="middle" x="554.5" y="-229.6549" font-family="Helvetica,sans-Serif" font-size="10.00" fill="#000000"> formatProperties</text>
</g>
<!-- Node15 -->
<g id="node15" class="node">
<title>Node15</title>
<polygon fill="none" stroke="#bfbfbf" points="315,-193.1549 315,-212.1549 461,-212.1549 461,-193.1549 315,-193.1549"/>
<text text-anchor="middle" x="388" y="-200.1549" font-family="Helvetica,sans-Serif" font-size="10.00" fill="#000000">VkPhysicalDeviceFeatures</text>
</g>
<!-- Node15&#45;&gt;Node9 -->
<g id="edge14" class="edge">
<title>Node15&#45;&gt;Node9</title>
<path fill="none" stroke="#9a32cd" stroke-dasharray="5,2" d="M471.4332,-192.6801C511.4044,-187.3781 559.8563,-180.1865 603,-171.6549 618.65,-168.5601 635.4836,-164.5883 650.9141,-160.6855"/>
<polygon fill="#9a32cd" stroke="#9a32cd" points="470.9225,-189.217 461.4622,-193.987 471.8322,-196.1577 470.9225,-189.217"/>
<text text-anchor="middle" x="554.5" y="-189.6549" font-family="Helvetica,sans-Serif" font-size="10.00" fill="#000000"> features</text>
</g>
<!-- Node16 -->
<g id="node16" class="node">
<title>Node16</title>
<polygon fill="none" stroke="#bfbfbf" points="288,-155.1549 288,-174.1549 488,-174.1549 488,-155.1549 288,-155.1549"/>
<text text-anchor="middle" x="388" y="-162.1549" font-family="Helvetica,sans-Serif" font-size="10.00" fill="#000000">vector&lt; VkQueueFamilyProperties &gt;</text>
</g>
<!-- Node16&#45;&gt;Node9 -->
<g id="edge15" class="edge">
<title>Node16&#45;&gt;Node9</title>
<path fill="none" stroke="#9a32cd" stroke-dasharray="5,2" d="M498.3415,-158.0621C546.4596,-155.1872 601.1572,-151.9191 642.3325,-149.4589"/>
<polygon fill="#9a32cd" stroke="#9a32cd" points="497.9541,-154.579 488.1807,-158.6692 498.3717,-161.5665 497.9541,-154.579"/>
<text text-anchor="middle" x="554.5" y="-159.6549" font-family="Helvetica,sans-Serif" font-size="10.00" fill="#000000"> queueFamilies</text>
</g>
<!-- Node17 -->
<g id="node17" class="node">
<title>Node17</title>
<polygon fill="none" stroke="#bfbfbf" points="290.5,-117.1549 290.5,-136.1549 485.5,-136.1549 485.5,-117.1549 290.5,-117.1549"/>
<text text-anchor="middle" x="388" y="-124.1549" font-family="Helvetica,sans-Serif" font-size="10.00" fill="#000000">VkPhysicalDeviceMemoryProperties</text>
</g>
<!-- Node17&#45;&gt;Node9 -->
<g id="edge16" class="edge">
<title>Node17&#45;&gt;Node9</title>
<path fill="none" stroke="#9a32cd" stroke-dasharray="5,2" d="M495.751,-130.8067C530.0489,-132.3587 568.1331,-134.3217 603,-136.6549 615.7161,-137.5058 629.3015,-138.577 642.2958,-139.6808"/>
<polygon fill="#9a32cd" stroke="#9a32cd" points="495.8574,-127.3081 485.7115,-130.3592 495.5457,-134.3011 495.8574,-127.3081"/>
<text text-anchor="middle" x="554.5" y="-139.6549" font-family="Helvetica,sans-Serif" font-size="10.00" fill="#000000"> memoryProperties</text>
</g>
<!-- Node18 -->
<g id="node18" class="node">
<title>Node18</title>
<polygon fill="none" stroke="#bfbfbf" points="336,-79.1549 336,-98.1549 440,-98.1549 440,-79.1549 336,-79.1549"/>
<text text-anchor="middle" x="388" y="-86.1549" font-family="Helvetica,sans-Serif" font-size="10.00" fill="#000000">VkPhysicalDevice</text>
</g>
<!-- Node18&#45;&gt;Node9 -->
<g id="edge17" class="edge">
<title>Node18&#45;&gt;Node9</title>
<path fill="none" stroke="#9a32cd" stroke-dasharray="5,2" d="M450.1465,-93.8296C493.3156,-98.064 552.0144,-105.0978 603,-115.6549 605.8497,-116.2449 630.4736,-123.4113 654.9284,-130.5912"/>
<polygon fill="#9a32cd" stroke="#9a32cd" points="450.3637,-90.3344 440.0754,-92.8648 449.6961,-97.3025 450.3637,-90.3344"/>
<text text-anchor="middle" x="554.5" y="-118.6549" font-family="Helvetica,sans-Serif" font-size="10.00" fill="#000000"> handle</text>
</g>
<!-- Node19 -->
<g id="node19" class="node">
<title>Node19</title>
<polygon fill="none" stroke="#bfbfbf" points="310.5,-41.1549 310.5,-60.1549 465.5,-60.1549 465.5,-41.1549 310.5,-41.1549"/>
<text text-anchor="middle" x="388" y="-48.1549" font-family="Helvetica,sans-Serif" font-size="10.00" fill="#000000">VkPhysicalDeviceProperties</text>
</g>
<!-- Node19&#45;&gt;Node9 -->
<g id="edge18" class="edge">
<title>Node19&#45;&gt;Node9</title>
<path fill="none" stroke="#9a32cd" stroke-dasharray="5,2" d="M475.8494,-47.2806C517.8193,-49.8155 566.6868,-59.2572 603,-85.6549 617.1488,-95.9402 607.5195,-109.5081 621,-120.6549 627.2828,-125.85 634.6074,-129.9655 642.2731,-133.2259"/>
<polygon fill="#9a32cd" stroke="#9a32cd" points="475.776,-43.7731 465.6195,-46.7888 475.4398,-50.765 475.776,-43.7731"/>
<text text-anchor="middle" x="554.5" y="-88.6549" font-family="Helvetica,sans-Serif" font-size="10.00" fill="#000000"> properties</text>
</g>
<!-- Node20 -->
<g id="node20" class="node">
<title>Node20</title>
<polygon fill="none" stroke="#bfbfbf" points="296,-3.1549 296,-22.1549 480,-22.1549 480,-3.1549 296,-3.1549"/>
<text text-anchor="middle" x="388" y="-10.1549" font-family="Helvetica,sans-Serif" font-size="10.00" fill="#000000">vector&lt; VkExtensionProperties &gt;</text>
</g>
<!-- Node20&#45;&gt;Node9 -->
<g id="edge19" class="edge">
<title>Node20&#45;&gt;Node9</title>
<path fill="none" stroke="#9a32cd" stroke-dasharray="5,2" d="M448.3744,-1.9657C496.2464,2.8367 561.7443,.6714 603,-36.6549 631.3126,-62.2708 595.0326,-92.6643 621,-120.6549 626.8584,-126.9698 634.2212,-131.7182 642.1498,-135.2833"/>
<polygon fill="#9a32cd" stroke="#9a32cd" points="447.6807,1.4782 438.1377,-3.1243 448.4679,-5.4774 447.6807,1.4782"/>
<text text-anchor="middle" x="554.5" y="-39.6549" font-family="Helvetica,sans-Serif" font-size="10.00" fill="#000000"> extensions</text>
</g>
<!-- Node21 -->
<g id="node21" class="node">
<title>Node21</title>
<polygon fill="none" stroke="#bfbfbf" points="621,-81.6549 621,-111.6549 791,-111.6549 791,-81.6549 621,-81.6549"/>
<text text-anchor="start" x="629" y="-99.6549" font-family="Helvetica,sans-Serif" font-size="10.00" fill="#000000">vector&lt; lug::Graphics</text>
<text text-anchor="middle" x="706" y="-88.6549" font-family="Helvetica,sans-Serif" font-size="10.00" fill="#000000">::Vulkan::API::QueueFamily &gt;</text>
</g>
<!-- Node21&#45;&gt;Node8 -->
<g id="edge20" class="edge">
<title>Node21&#45;&gt;Node8</title>
<path fill="none" stroke="#9a32cd" stroke-dasharray="5,2" d="M801.4818,-96.6549C843.9993,-96.6549 892.9233,-96.6549 930.8771,-96.6549"/>
<polygon fill="#9a32cd" stroke="#9a32cd" points="801.3886,-93.155 791.3885,-96.6549 801.3885,-100.155 801.3886,-93.155"/>
<text text-anchor="middle" x="861" y="-99.6549" font-family="Helvetica,sans-Serif" font-size="10.00" fill="#000000"> _queueFamilies</text>
</g>
<!-- Node22 -->
<g id="node22" class="node">
<title>Node22</title>
<polygon fill="none" stroke="#bfbfbf" points="674.5,-43.1549 674.5,-62.1549 737.5,-62.1549 737.5,-43.1549 674.5,-43.1549"/>
<text text-anchor="middle" x="706" y="-50.1549" font-family="Helvetica,sans-Serif" font-size="10.00" fill="#000000">VkDevice</text>
</g>
<!-- Node22&#45;&gt;Node8 -->
<g id="edge21" class="edge">
<title>Node22&#45;&gt;Node8</title>
<path fill="none" stroke="#9a32cd" stroke-dasharray="5,2" d="M747.7219,-57.9665C789.5836,-63.4213 855.8703,-72.4001 913,-81.6549 918.8227,-82.5981 924.8709,-83.624 930.9228,-84.6818"/>
<polygon fill="#9a32cd" stroke="#9a32cd" points="747.9928,-54.4724 737.6257,-56.6575 747.0927,-61.4143 747.9928,-54.4724"/>
<text text-anchor="middle" x="861" y="-84.6549" font-family="Helvetica,sans-Serif" font-size="10.00" fill="#000000"> _device</text>
</g>
<!-- Node23 -->
<g id="node23" class="node">
<title>Node23</title>
<polygon fill="none" stroke="#bfbfbf" points="952.5,-191.1549 952.5,-210.1549 1036.5,-210.1549 1036.5,-191.1549 952.5,-191.1549"/>
<text text-anchor="middle" x="994.5" y="-198.1549" font-family="Helvetica,sans-Serif" font-size="10.00" fill="#000000">VkDeviceSize</text>
</g>
<!-- Node23&#45;&gt;Node1 -->
<g id="edge22" class="edge">
<title>Node23&#45;&gt;Node1</title>
<path fill="none" stroke="#9a32cd" stroke-dasharray="5,2" d="M1046.932,-202.4396C1110.6771,-204.9498 1221.464,-210.4079 1316,-220.6549 1359.4293,-225.3623 1408.0133,-232.9026 1445.6349,-239.2458"/>
<polygon fill="#9a32cd" stroke="#9a32cd" points="1046.8614,-198.9344 1036.7342,-202.0474 1046.5923,-205.9292 1046.8614,-198.9344"/>
<text text-anchor="middle" x="1246.5" y="-223.6549" font-family="Helvetica,sans-Serif" font-size="10.00" fill="#000000"> _deviceMemoryOffset</text>
</g>
<!-- Node23&#45;&gt;Node25 -->
<g id="edge26" class="edge">
<title>Node23&#45;&gt;Node25</title>
<path fill="none" stroke="#9a32cd" stroke-dasharray="5,2" d="M1046.6496,-191.3424C1086.205,-184.279 1140.7673,-174.5357 1182.8881,-167.0141"/>
<polygon fill="#9a32cd" stroke="#9a32cd" points="1045.9081,-187.9194 1036.6791,-193.1229 1047.1387,-194.8104 1045.9081,-187.9194"/>
<text text-anchor="middle" x="1117.5" y="-188.6549" font-family="Helvetica,sans-Serif" font-size="10.00" fill="#000000"> _size</text>
</g>
<!-- Node24 -->
<g id="node24" class="node">
<title>Node24</title>
<polygon fill="none" stroke="#bfbfbf" points="1216,-29.1549 1216,-48.1549 1277,-48.1549 1277,-29.1549 1216,-29.1549"/>
<text text-anchor="middle" x="1246.5" y="-36.1549" font-family="Helvetica,sans-Serif" font-size="10.00" fill="#000000">VkImage</text>
</g>
<!-- Node24&#45;&gt;Node1 -->
<g id="edge23" class="edge">
<title>Node24&#45;&gt;Node1</title>
<path fill="none" stroke="#9a32cd" stroke-dasharray="5,2" d="M1287.3191,-32.4376C1327.156,-28.6851 1387.518,-29.43 1428,-59.6549 1486.7883,-103.5477 1503.6123,-198.3508 1508.0403,-235.3889"/>
<polygon fill="#9a32cd" stroke="#9a32cd" points="1286.7269,-28.9811 1277.16,-33.5335 1287.4777,-35.9407 1286.7269,-28.9811"/>
<text text-anchor="middle" x="1381" y="-62.6549" font-family="Helvetica,sans-Serif" font-size="10.00" fill="#000000"> _image</text>
</g>
<!-- Node25&#45;&gt;Node1 -->
<g id="edge24" class="edge">
<title>Node25&#45;&gt;Node1</title>
<path fill="none" stroke="#9a32cd" stroke-dasharray="5,2" d="M1320.3614,-159.9346C1354.2903,-163.9691 1394.3675,-171.739 1428,-186.6549 1454.4777,-198.3976 1479.8865,-220.6837 1495.0984,-235.607"/>
<polygon fill="#9a32cd" stroke="#9a32cd" points="1320.366,-156.4141 1310.0431,-158.7987 1319.6,-163.372 1320.366,-156.4141"/>
<text text-anchor="middle" x="1381" y="-189.6549" font-family="Helvetica,sans-Serif" font-size="10.00" fill="#000000"> _deviceMemory</text>
</g>
<!-- Node26 -->
<g id="node26" class="node">
<title>Node26</title>
<polygon fill="none" stroke="#bfbfbf" points="942.5,-142.1549 942.5,-161.1549 1046.5,-161.1549 1046.5,-142.1549 942.5,-142.1549"/>
<text text-anchor="middle" x="994.5" y="-149.1549" font-family="Helvetica,sans-Serif" font-size="10.00" fill="#000000">VkDeviceMemory</text>
</g>
<!-- Node26&#45;&gt;Node25 -->
<g id="edge27" class="edge">
<title>Node26&#45;&gt;Node25</title>
<path fill="none" stroke="#9a32cd" stroke-dasharray="5,2" d="M1056.8834,-151.6203C1087.632,-151.7088 1125.2653,-151.9742 1159,-152.6549 1166.7504,-152.8113 1174.8854,-153.0244 1182.9443,-153.2655"/>
<polygon fill="#9a32cd" stroke="#9a32cd" points="1056.7433,-148.1201 1046.7352,-151.5968 1056.727,-155.1201 1056.7433,-148.1201"/>
<text text-anchor="middle" x="1117.5" y="-155.6549" font-family="Helvetica,sans-Serif" font-size="10.00" fill="#000000"> _deviceMemory</text>
</g>
</g>
</svg>
        <g id="navigator" transform="translate(0 0)" fill="#404254">
                <rect fill="#f2f5e9" fill-opacity="0.5" stroke="#606060" stroke-width=".5" x="0" y="0" width="60" height="60"/>
                <use id="zoomplus" xlink:href="#zoomPlus" x="17" y="9" onmousedown="handleZoom(evt,'in')"/>
                <use id="zoomminus" xlink:href="#zoomMin" x="42" y="9" onmousedown="handleZoom(evt,'out')"/>
                <use id="reset" xlink:href="#resetDef" x="30" y="36" onmousedown="handleReset()"/>
                <g id="arrowUp" xlink:href="#dirArrow" transform="translate(30 24)" onmousedown="handlePan(0,-1)">
                  <use xlink:href="#rim" fill="#404040">
                        <set attributeName="fill" to="#808080" begin="arrowUp.mouseover" end="arrowUp.mouseout"/>
                  </use>
                  <path fill="none" stroke="white" stroke-width="1.5" d="M0,-3.0v7 M-2.5,-0.5L0,-3.0L2.5,-0.5"/>
                </g>
                <g id="arrowRight" xlink:href="#dirArrow" transform="rotate(90) translate(36 -43)" onmousedown="handlePan(1,0)">
                  <use xlink:href="#rim" fill="#404040">
                        <set attributeName="fill" to="#808080" begin="arrowRight.mouseover" end="arrowRight.mouseout"/>
                  </use>
                  <path fill="none" stroke="white" stroke-width="1.5" d="M0,-3.0v7 M-2.5,-0.5L0,-3.0L2.5,-0.5"/>
                </g>
                <g id="arrowDown" xlink:href="#dirArrow" transform="rotate(180) translate(-30 -48)" onmousedown="handlePan(0,1)">
                  <use xlink:href="#rim" fill="#404040">
                        <set attributeName="fill" to="#808080" begin="arrowDown.mouseover" end="arrowDown.mouseout"/>
                  </use>
                  <path fill="none" stroke="white" stroke-width="1.5" d="M0,-3.0v7 M-2.5,-0.5L0,-3.0L2.5,-0.5"/>
                </g>
                <g id="arrowLeft" xlink:href="#dirArrow" transform="rotate(270) translate(-36 17)" onmousedown="handlePan(-1,0)">
                  <use xlink:href="#rim" fill="#404040">
                        <set attributeName="fill" to="#808080" begin="arrowLeft.mouseover" end="arrowLeft.mouseout"/>
                  </use>
                  <path fill="none" stroke="white" stroke-width="1.5" d="M0,-3.0v7 M-2.5,-0.5L0,-3.0L2.5,-0.5"/>
                </g>
        </g>
        <svg viewBox="0 0 15 15" width="100%" height="30px" preserveAspectRatio="xMaxYMin meet">
         <g id="arrow_out" transform="scale(0.3 0.3)">
          <a xlink:href="classlug_1_1Graphics_1_1Vulkan_1_1API_1_1Image__coll__graph_org.svg" target="_base">
           <rect id="button" ry="5" rx="5" y="6" x="6" height="38" width="38"
                fill="#f2f5e9" fill-opacity="0.5" stroke="#606060" stroke-width="1.0"/>
           <path id="arrow"
             d="M 11.500037,31.436501 C 11.940474,20.09759 22.043105,11.32322 32.158766,21.979434 L 37.068811,17.246167 C 37.068811,17.246167 37.088388,32 37.088388,32 L 22.160133,31.978069 C 22.160133,31.978069 26.997745,27.140456 26.997745,27.140456 C 18.528582,18.264221 13.291696,25.230495 11.500037,31.436501 z"
             style="fill:#404040;"/>
          </a>
         </g>
        </svg>
</svg>
