<?xml version="1.0" encoding="UTF-8" standalone="no"?>
<!DOCTYPE svg PUBLIC "-//W3C//DTD SVG 1.1//EN"
 "http://www.w3.org/Graphics/SVG/1.1/DTD/svg11.dtd">
<!-- Generated by graphviz version 2.40.1 (20161225.0304)
 -->
<!-- Title: lug::Main::AndroidApp Pages: 1 -->
<svg width="192pt" height="95pt"
 viewBox="0.00 0.00 192.00 95.00" xmlns="http://www.w3.org/2000/svg" xmlns:xlink="http://www.w3.org/1999/xlink">
<g id="graph0" class="graph" transform="scale(1 1) rotate(0) translate(4 91)">
<title>lug::Main::AndroidApp</title>
<!-- Node1 -->
<g id="node1" class="node">
<title>Node1</title>
<polygon fill="#bfbfbf" stroke="#000000" points="13,-.5 13,-19.5 143,-19.5 143,-.5 13,-.5"/>
<text text-anchor="middle" x="78" y="-7.5" font-family="Helvetica,sans-Serif" font-size="10.00" fill="#000000">lug::Main::AndroidApp</text>
</g>
<!-- Node2 -->
<g id="node2" class="node">
<title>Node2</title>
<polygon fill="none" stroke="#bfbfbf" points="0,-67.5 0,-86.5 46,-86.5 46,-67.5 0,-67.5"/>
<text text-anchor="middle" x="23" y="-74.5" font-family="Helvetica,sans-Serif" font-size="10.00" fill="#000000">size_t</text>
</g>
<!-- Node2&#45;&gt;Node1 -->
<g id="edge1" class="edge">
<title>Node2&#45;&gt;Node1</title>
<path fill="none" stroke="#9a32cd" stroke-dasharray="5,2" d="M19.647,-57.0753C19.5205,-50.5716 20.5021,-43.5912 24,-38 29.1528,-29.7635 37.5762,-23.8308 46.2539,-19.6098"/>
<polygon fill="#9a32cd" stroke="#9a32cd" points="16.1855,-57.6367 20.6576,-67.2414 23.1511,-56.9442 16.1855,-57.6367"/>
<text text-anchor="middle" x="67.5" y="-41" font-family="Helvetica,sans-Serif" font-size="10.00" fill="#000000"> _savedStateSize</text>
</g>
<!-- Node3 -->
<g id="node3" class="node">
<title>Node3</title>
<polygon fill="none" stroke="#bfbfbf" points="109.5,-67.5 109.5,-86.5 156.5,-86.5 156.5,-67.5 109.5,-67.5"/>
<text text-anchor="middle" x="133" y="-74.5" font-family="Helvetica,sans-Serif" font-size="10.00" fill="#000000">void *</text>
</g>
<!-- Node3&#45;&gt;Node1 -->
<g id="edge2" class="edge">
<title>Node3&#45;&gt;Node1</title>
<path fill="none" stroke="#9a32cd" stroke-dasharray="5,2" d="M124.1899,-58.302C120.5791,-51.5648 116.0559,-44.1209 111,-38 105.3538,-31.1643 97.9014,-24.6813 91.5075,-19.6782"/>
<polygon fill="#9a32cd" stroke="#9a32cd" points="121.1619,-60.071 128.7833,-67.4307 127.4149,-56.9246 121.1619,-60.071"/>
<text text-anchor="middle" x="151" y="-41" font-family="Helvetica,sans-Serif" font-size="10.00" fill="#000000"> _savedState</text>
</g>
</g>
</svg>
