<?xml version="1.0" encoding="UTF-8" standalone="no"?>
<!DOCTYPE svg PUBLIC "-//W3C//DTD SVG 1.1//EN"
 "http://www.w3.org/Graphics/SVG/1.1/DTD/svg11.dtd">
<!-- Generated by graphviz version 2.40.1 (20161225.0304)
 -->
<!-- Title: lug::System::Memory::FreeList Pages: 1 -->
<svg width="246pt" height="117pt"
 viewBox="0.00 0.00 246.00 117.00" xmlns="http://www.w3.org/2000/svg" xmlns:xlink="http://www.w3.org/1999/xlink">
<g id="graph0" class="graph" transform="scale(1 1) rotate(0) translate(4 113)">
<title>lug::System::Memory::FreeList</title>
<!-- Node1 -->
<g id="node1" class="node">
<title>Node1</title>
<polygon fill="#bfbfbf" stroke="#000000" points="0,-.5 0,-30.5 128,-30.5 128,-.5 0,-.5"/>
<text text-anchor="start" x="8" y="-18.5" font-family="Helvetica,sans-Serif" font-size="10.00" fill="#000000">lug::System::Memory</text>
<text text-anchor="middle" x="64" y="-7.5" font-family="Helvetica,sans-Serif" font-size="10.00" fill="#000000">::FreeList</text>
</g>
<!-- Node2 -->
<g id="node2" class="node">
<title>Node2</title>
<polygon fill="none" stroke="#bfbfbf" points="2,-84 2,-103 48,-103 48,-84 2,-84"/>
<text text-anchor="middle" x="25" y="-91" font-family="Helvetica,sans-Serif" font-size="10.00" fill="#000000">size_t</text>
</g>
<!-- Node2&#45;&gt;Node1 -->
<g id="edge1" class="edge">
<title>Node2&#45;&gt;Node1</title>
<path fill="none" stroke="#9a32cd" stroke-dasharray="5,2" d="M34.4143,-74.6714C41.1399,-61.2202 50.0742,-43.3517 56.3588,-30.7824"/>
<polygon fill="#9a32cd" stroke="#9a32cd" points="31.1239,-73.4261 29.7822,-83.9357 37.3849,-76.5567 31.1239,-73.4261"/>
<text text-anchor="middle" x="62" y="-52" font-family="Helvetica,sans-Serif" font-size="10.00" fill="#000000"> _size</text>
</g>
<!-- Node3 -->
<g id="node3" class="node">
<title>Node3</title>
<g id="a_node3"><a xlink:href="structlug_1_1System_1_1Memory_1_1FreeList_1_1Element.html" target="_top" xlink:title="lug::System::Memory\l::FreeList::Element">
<polygon fill="none" stroke="#000000" points="66,-78.5 66,-108.5 194,-108.5 194,-78.5 66,-78.5"/>
<text text-anchor="start" x="74" y="-96.5" font-family="Helvetica,sans-Serif" font-size="10.00" fill="#000000">lug::System::Memory</text>
<text text-anchor="middle" x="130" y="-85.5" font-family="Helvetica,sans-Serif" font-size="10.00" fill="#000000">::FreeList::Element</text>
</a>
</g>
</g>
<!-- Node3&#45;&gt;Node1 -->
<g id="edge2" class="edge">
<title>Node3&#45;&gt;Node1</title>
<path fill="none" stroke="#9a32cd" stroke-dasharray="5,2" d="M110.5483,-70.5116C99.6987,-57.6894 86.4848,-42.0729 76.9116,-30.7592"/>
<polygon fill="#9a32cd" stroke="#9a32cd" points="108.1432,-73.0877 117.2745,-78.4608 113.4869,-68.5661 108.1432,-73.0877"/>
<text text-anchor="middle" x="127" y="-52" font-family="Helvetica,sans-Serif" font-size="10.00" fill="#000000"> _nextFree</text>
</g>
<!-- Node3&#45;&gt;Node3 -->
<g id="edge3" class="edge">
<title>Node3&#45;&gt;Node3</title>
<path fill="none" stroke="#9a32cd" stroke-dasharray="5,2" d="M204.5053,-98.5017C209.1818,-97.3242 212,-95.657 212,-93.5 212,-90.0488 204.7855,-87.8514 194.2877,-86.9077"/>
<polygon fill="#9a32cd" stroke="#9a32cd" points="203.6303,-95.0957 194.2877,-100.0923 204.7071,-102.0124 203.6303,-95.0957"/>
<text text-anchor="middle" x="225" y="-91" font-family="Helvetica,sans-Serif" font-size="10.00" fill="#000000"> next</text>
</g>
</g>
</svg>
