<?xml version="1.0" encoding="UTF-8" standalone="no"?>
<!DOCTYPE svg PUBLIC "-//W3C//DTD SVG 1.1//EN"
 "http://www.w3.org/Graphics/SVG/1.1/DTD/svg11.dtd">
<!-- Generated by graphviz version 2.40.1 (20161225.0304)
 -->
<!-- Title: lug::Window::Window Pages: 1 -->
<svg width="808pt" height="639pt"
 viewBox="0.00 0.00 808.00 639.03" xmlns="http://www.w3.org/2000/svg" xmlns:xlink="http://www.w3.org/1999/xlink">
<g id="graph0" class="graph" transform="scale(1 1) rotate(0) translate(4 635.0305)">
<title>lug::Window::Window</title>
<!-- Node3 -->
<g id="node1" class="node">
<title>Node3</title>
<polygon fill="#bfbfbf" stroke="#000000" points="419.5,-219.5305 419.5,-238.5305 547.5,-238.5305 547.5,-219.5305 419.5,-219.5305"/>
<text text-anchor="middle" x="483.5" y="-226.5305" font-family="Helvetica,sans-Serif" font-size="10.00" fill="#000000">lug::Window::Window</text>
</g>
<!-- Node6 -->
<g id="node4" class="node">
<title>Node6</title>
<g id="a_node4"><a xlink:href="classlug_1_1Window_1_1priv_1_1WindowImpl.html" target="_top" xlink:title="lug::Window::priv::\lWindowImpl">
<polygon fill="none" stroke="#000000" points="683,-321.0305 683,-351.0305 800,-351.0305 800,-321.0305 683,-321.0305"/>
<text text-anchor="start" x="691" y="-339.0305" font-family="Helvetica,sans-Serif" font-size="10.00" fill="#000000">lug::Window::priv::</text>
<text text-anchor="middle" x="741.5" y="-328.0305" font-family="Helvetica,sans-Serif" font-size="10.00" fill="#000000">WindowImpl</text>
</a>
</g>
</g>
<!-- Node3&#45;&gt;Node6 -->
<g id="edge11" class="edge">
<title>Node3&#45;&gt;Node6</title>
<path fill="none" stroke="#9a32cd" stroke-dasharray="5,2" d="M546.1516,-240.4811C594.277,-249.556 654.2821,-261.5843 665,-267.0305 691.1498,-280.3184 715.1908,-304.8988 729.093,-320.8499"/>
<polygon fill="#9a32cd" stroke="#9a32cd" points="546.5583,-236.9965 536.0845,-238.5929 545.2678,-243.8765 546.5583,-236.9965"/>
<text text-anchor="middle" x="617" y="-281.0305" font-family="Helvetica,sans-Serif" font-size="10.00" fill="#000000"> _window</text>
<text text-anchor="middle" x="617" y="-270.0305" font-family="Helvetica,sans-Serif" font-size="10.00" fill="#000000">_parent</text>
</g>
<!-- Node4 -->
<g id="node2" class="node">
<title>Node4</title>
<polygon fill="none" stroke="#bfbfbf" points="152,-201.0305 152,-231.0305 307,-231.0305 307,-201.0305 152,-201.0305"/>
<text text-anchor="start" x="160" y="-219.0305" font-family="Helvetica,sans-Serif" font-size="10.00" fill="#000000">unordered_map&lt; Keyboard</text>
<text text-anchor="middle" x="229.5" y="-208.0305" font-family="Helvetica,sans-Serif" font-size="10.00" fill="#000000">::Key, bool &gt;</text>
</g>
<!-- Node4&#45;&gt;Node3 -->
<g id="edge1" class="edge">
<title>Node4&#45;&gt;Node3</title>
<path fill="none" stroke="#9a32cd" stroke-dasharray="5,2" d="M317.3339,-218.3915C343.3178,-219.2971 371.8158,-220.4933 398,-222.0305 404.8392,-222.4321 411.9811,-222.9153 419.0962,-223.4379"/>
<polygon fill="#9a32cd" stroke="#9a32cd" points="317.2432,-214.8866 307.1305,-218.0462 317.0063,-221.8826 317.2432,-214.8866"/>
<text text-anchor="middle" x="361.5" y="-225.0305" font-family="Helvetica,sans-Serif" font-size="10.00" fill="#000000"> _keyState</text>
</g>
<!-- Node5 -->
<g id="node3" class="node">
<title>Node5</title>
<polygon fill="none" stroke="#bfbfbf" points="156.5,-162.5305 156.5,-181.5305 302.5,-181.5305 302.5,-162.5305 156.5,-162.5305"/>
<text text-anchor="middle" x="229.5" y="-169.5305" font-family="Helvetica,sans-Serif" font-size="10.00" fill="#000000">anonymous:_mouseCoord</text>
</g>
<!-- Node5&#45;&gt;Node3 -->
<g id="edge2" class="edge">
<title>Node5&#45;&gt;Node3</title>
<path fill="none" stroke="#9a32cd" stroke-dasharray="5,2" d="M307.7782,-183.2679C336.4354,-188.2084 368.9471,-194.7889 398,-203.0305 406.2578,-205.3731 407.8592,-207.3089 416,-210.0305 426.045,-213.3888 437.0584,-216.6588 447.2218,-219.5128"/>
<polygon fill="#9a32cd" stroke="#9a32cd" points="308.2571,-179.7994 297.8145,-181.5888 307.0938,-186.702 308.2571,-179.7994"/>
<text text-anchor="middle" x="361.5" y="-206.0305" font-family="Helvetica,sans-Serif" font-size="10.00" fill="#000000"> _mouseCoord</text>
</g>
<!-- Node6&#45;&gt;Node3 -->
<g id="edge3" class="edge">
<title>Node6&#45;&gt;Node3</title>
<path fill="none" stroke="#9a32cd" stroke-dasharray="5,2" d="M731.3876,-311.8731C719.5362,-287.0455 697.3181,-249.7328 665,-233.0305 622.5802,-211.1077 566.8027,-213.7317 528.3339,-219.5269"/>
<polygon fill="#9a32cd" stroke="#9a32cd" points="728.2259,-313.3755 735.5586,-321.0228 734.5953,-310.4719 728.2259,-313.3755"/>
<text text-anchor="middle" x="617" y="-236.0305" font-family="Helvetica,sans-Serif" font-size="10.00" fill="#000000"> _impl</text>
</g>
<!-- Node6&#45;&gt;Node6 -->
<g id="edge12" class="edge">
<title>Node6&#45;&gt;Node6</title>
<path fill="none" stroke="#9a32cd" stroke-dasharray="5,2" d="M719.4667,-361.4884C722.2013,-366.2095 729.5458,-369.5305 741.5,-369.5305 761.1172,-369.5305 768.3204,-360.5871 763.1096,-351.1895"/>
<polygon fill="#9a32cd" stroke="#9a32cd" points="722.9763,-361.325 719.8904,-351.1895 715.9822,-361.0372 722.9763,-361.325"/>
<text text-anchor="middle" x="741.5" y="-372.5305" font-family="Helvetica,sans-Serif" font-size="10.00" fill="#000000"> fullscreenWindow</text>
</g>
<!-- Node7 -->
<g id="node5" class="node">
<title>Node7</title>
<polygon fill="none" stroke="#bfbfbf" points="450.5,-605.5305 450.5,-624.5305 516.5,-624.5305 516.5,-605.5305 450.5,-605.5305"/>
<text text-anchor="middle" x="483.5" y="-612.5305" font-family="Helvetica,sans-Serif" font-size="10.00" fill="#000000">HCURSOR</text>
</g>
<!-- Node7&#45;&gt;Node6 -->
<g id="edge4" class="edge">
<title>Node7&#45;&gt;Node6</title>
<path fill="none" stroke="#9a32cd" stroke-dasharray="5,2" d="M526.7097,-620.6825C567.2128,-623.4667 627.0571,-620.7673 665,-588.0305 702.1274,-555.9975 730.745,-400.7255 739.0477,-351.2253"/>
<polygon fill="#9a32cd" stroke="#9a32cd" points="526.8537,-617.1826 516.5994,-619.847 526.2771,-624.1588 526.8537,-617.1826"/>
<text text-anchor="middle" x="617" y="-623.0305" font-family="Helvetica,sans-Serif" font-size="10.00" fill="#000000"> _cursor</text>
</g>
<!-- Node8 -->
<g id="node6" class="node">
<title>Node8</title>
<polygon fill="none" stroke="#bfbfbf" points="452,-567.5305 452,-586.5305 515,-586.5305 515,-567.5305 452,-567.5305"/>
<text text-anchor="middle" x="483.5" y="-574.5305" font-family="Helvetica,sans-Serif" font-size="10.00" fill="#000000">Display *</text>
</g>
<!-- Node8&#45;&gt;Node6 -->
<g id="edge5" class="edge">
<title>Node8&#45;&gt;Node6</title>
<path fill="none" stroke="#9a32cd" stroke-dasharray="5,2" d="M525.5241,-576.1903C572.3599,-574.4174 644.252,-568.9342 665,-552.0305 697.5386,-525.521 728.4086,-395.9741 738.2559,-351.2494"/>
<polygon fill="#9a32cd" stroke="#9a32cd" points="525.237,-572.6979 515.3604,-576.5323 525.4725,-579.6939 525.237,-572.6979"/>
<text text-anchor="middle" x="617" y="-576.0305" font-family="Helvetica,sans-Serif" font-size="10.00" fill="#000000"> _display</text>
</g>
<!-- Node9 -->
<g id="node7" class="node">
<title>Node9</title>
<polygon fill="none" stroke="#bfbfbf" points="423,-529.5305 423,-548.5305 544,-548.5305 544,-529.5305 423,-529.5305"/>
<text text-anchor="middle" x="483.5" y="-536.5305" font-family="Helvetica,sans-Serif" font-size="10.00" fill="#000000">static AInputQueue *</text>
</g>
<!-- Node9&#45;&gt;Node6 -->
<g id="edge6" class="edge">
<title>Node9&#45;&gt;Node6</title>
<path fill="none" stroke="#9a32cd" stroke-dasharray="5,2" d="M554.2974,-538.0547C597.5386,-536.1059 647.7395,-530.9904 665,-518.0305 720.5031,-476.3565 736.065,-386.7337 740.1454,-351.0942"/>
<polygon fill="#9a32cd" stroke="#9a32cd" points="553.9043,-534.5676 544.0523,-538.4648 554.1844,-541.562 553.9043,-534.5676"/>
<text text-anchor="middle" x="617" y="-540.0305" font-family="Helvetica,sans-Serif" font-size="10.00" fill="#000000"> inputQueue</text>
</g>
<!-- Node10 -->
<g id="node8" class="node">
<title>Node10</title>
<polygon fill="none" stroke="#bfbfbf" points="422.5,-479.0305 422.5,-509.0305 544.5,-509.0305 544.5,-479.0305 422.5,-479.0305"/>
<text text-anchor="start" x="430.5" y="-497.0305" font-family="Helvetica,sans-Serif" font-size="10.00" fill="#000000">queue&lt; lug::Window</text>
<text text-anchor="middle" x="483.5" y="-486.0305" font-family="Helvetica,sans-Serif" font-size="10.00" fill="#000000">::Event &gt;</text>
</g>
<!-- Node10&#45;&gt;Node6 -->
<g id="edge7" class="edge">
<title>Node10&#45;&gt;Node6</title>
<path fill="none" stroke="#9a32cd" stroke-dasharray="5,2" d="M554.897,-505.9265C590.6058,-508.1488 632.9288,-504.7861 665,-484.0305 712.8365,-453.0722 732.3513,-382.1183 738.8055,-351.0573"/>
<polygon fill="#9a32cd" stroke="#9a32cd" points="554.7742,-502.4064 544.5319,-505.1165 554.2288,-509.3851 554.7742,-502.4064"/>
<text text-anchor="middle" x="617" y="-509.0305" font-family="Helvetica,sans-Serif" font-size="10.00" fill="#000000"> _events</text>
</g>
<!-- Node10&#45;&gt;Node6 -->
<g id="edge18" class="edge">
<title>Node10&#45;&gt;Node6</title>
<path fill="none" stroke="#9a32cd" stroke-dasharray="5,2" d="M547.813,-476.3792C554.9493,-474.5251 562.1209,-472.7072 569,-471.0305 611.4334,-460.6881 628.8929,-474.6036 665,-450.0305 701.6505,-425.0876 725.427,-376.2101 735.6896,-351.3451"/>
<polygon fill="#9a32cd" stroke="#9a32cd" points="546.9181,-472.9955 538.1346,-478.92 548.6956,-479.766 546.9181,-472.9955"/>
<text text-anchor="middle" x="617" y="-474.0305" font-family="Helvetica,sans-Serif" font-size="10.00" fill="#000000"> events</text>
</g>
<!-- Node11 -->
<g id="node9" class="node">
<title>Node11</title>
<polygon fill="none" stroke="#bfbfbf" points="455.5,-440.5305 455.5,-459.5305 511.5,-459.5305 511.5,-440.5305 455.5,-440.5305"/>
<text text-anchor="middle" x="483.5" y="-447.5305" font-family="Helvetica,sans-Serif" font-size="10.00" fill="#000000">wchar_t</text>
</g>
<!-- Node11&#45;&gt;Node6 -->
<g id="edge8" class="edge">
<title>Node11&#45;&gt;Node6</title>
<path fill="none" stroke="#9a32cd" stroke-dasharray="5,2" d="M521.7441,-445.1482C567.4336,-438.8508 640.7474,-427.1371 665,-414.0305 693.3675,-398.7003 717.7943,-369.3342 731.0047,-351.3339"/>
<polygon fill="#9a32cd" stroke="#9a32cd" points="521.047,-441.7105 511.6063,-446.5193 521.9852,-448.6473 521.047,-441.7105"/>
<text text-anchor="middle" x="617" y="-440.0305" font-family="Helvetica,sans-Serif" font-size="10.00" fill="#000000"> className</text>
</g>
<!-- Node12 -->
<g id="node10" class="node">
<title>Node12</title>
<polygon fill="none" stroke="#bfbfbf" points="449,-402.5305 449,-421.5305 518,-421.5305 518,-402.5305 449,-402.5305"/>
<text text-anchor="middle" x="483.5" y="-409.5305" font-family="Helvetica,sans-Serif" font-size="10.00" fill="#000000">LONG_PTR</text>
</g>
<!-- Node12&#45;&gt;Node6 -->
<g id="edge9" class="edge">
<title>Node12&#45;&gt;Node6</title>
<path fill="none" stroke="#9a32cd" stroke-dasharray="5,2" d="M528.1204,-406.805C565.451,-401.5817 619.7196,-391.9864 665,-376.0305 683.2345,-369.6051 702.5171,-359.4984 717.1613,-351.0521"/>
<polygon fill="#9a32cd" stroke="#9a32cd" points="527.5033,-403.3564 518.062,-408.1639 528.4406,-410.2934 527.5033,-403.3564"/>
<text text-anchor="middle" x="617" y="-402.0305" font-family="Helvetica,sans-Serif" font-size="10.00" fill="#000000"> _callback</text>
</g>
<!-- Node13 -->
<g id="node11" class="node">
<title>Node13</title>
<polygon fill="none" stroke="#bfbfbf" points="459,-364.5305 459,-383.5305 508,-383.5305 508,-364.5305 459,-364.5305"/>
<text text-anchor="middle" x="483.5" y="-371.5305" font-family="Helvetica,sans-Serif" font-size="10.00" fill="#000000">HWND</text>
</g>
<!-- Node13&#45;&gt;Node6 -->
<g id="edge10" class="edge">
<title>Node13&#45;&gt;Node6</title>
<path fill="none" stroke="#9a32cd" stroke-dasharray="5,2" d="M518.3096,-369.1843C554.8613,-364.0626 614.0005,-355.683 665,-348.0305 670.7168,-347.1727 676.6714,-346.2645 682.6227,-345.3471"/>
<polygon fill="#9a32cd" stroke="#9a32cd" points="517.5938,-365.7502 508.1751,-370.6019 518.5636,-372.6827 517.5938,-365.7502"/>
<text text-anchor="middle" x="617" y="-364.0305" font-family="Helvetica,sans-Serif" font-size="10.00" fill="#000000"> _handle</text>
</g>
<!-- Node14 -->
<g id="node12" class="node">
<title>Node14</title>
<polygon fill="none" stroke="#bfbfbf" points="416,-326.5305 416,-345.5305 551,-345.5305 551,-326.5305 416,-326.5305"/>
<text text-anchor="middle" x="483.5" y="-333.5305" font-family="Helvetica,sans-Serif" font-size="10.00" fill="#000000">static ANativeWindow *</text>
</g>
<!-- Node14&#45;&gt;Node6 -->
<g id="edge13" class="edge">
<title>Node14&#45;&gt;Node6</title>
<path fill="none" stroke="#9a32cd" stroke-dasharray="5,2" d="M561.5567,-336.0305C600.5759,-336.0305 647.0037,-336.0305 682.9256,-336.0305"/>
<polygon fill="#9a32cd" stroke="#9a32cd" points="561.2865,-332.5306 551.2865,-336.0305 561.2864,-339.5306 561.2865,-332.5306"/>
<text text-anchor="middle" x="617" y="-339.0305" font-family="Helvetica,sans-Serif" font-size="10.00" fill="#000000"> nativeWindow</text>
</g>
<!-- Node15 -->
<g id="node13" class="node">
<title>Node15</title>
<polygon fill="none" stroke="#bfbfbf" points="3,-264.5305 3,-283.5305 54,-283.5305 54,-264.5305 3,-264.5305"/>
<text text-anchor="middle" x="28.5" y="-271.5305" font-family="Helvetica,sans-Serif" font-size="10.00" fill="#000000">uint8_t</text>
</g>
<!-- Node15&#45;&gt;Node6 -->
<g id="edge14" class="edge">
<title>Node15&#45;&gt;Node6</title>
<path fill="none" stroke="#9a32cd" stroke-dasharray="5,2" d="M64.3857,-282.2799C67.9596,-282.9413 71.543,-283.5415 75,-284.0305 284.973,-313.7322 339.6899,-299.172 551,-317.0305 595.2138,-320.7672 645.1197,-325.7736 682.7572,-329.7093"/>
<polygon fill="#9a32cd" stroke="#9a32cd" points="64.9438,-278.8223 54.4519,-280.2955 63.5725,-285.6867 64.9438,-278.8223"/>
<text text-anchor="middle" x="361.5" y="-310.0305" font-family="Helvetica,sans-Serif" font-size="10.00" fill="#000000"> windowCount</text>
</g>
<!-- Node23 -->
<g id="node21" class="node">
<title>Node23</title>
<g id="a_node21"><a xlink:href="structlug_1_1Window_1_1VideoMode.html" target="_top" xlink:title="The video mode we set for the window we wish to create. ">
<polygon fill="none" stroke="#000000" points="158,-250.5305 158,-269.5305 301,-269.5305 301,-250.5305 158,-250.5305"/>
<text text-anchor="middle" x="229.5" y="-257.5305" font-family="Helvetica,sans-Serif" font-size="10.00" fill="#000000">lug::Window::VideoMode</text>
</a>
</g>
</g>
<!-- Node15&#45;&gt;Node23 -->
<g id="edge25" class="edge">
<title>Node15&#45;&gt;Node23</title>
<path fill="none" stroke="#9a32cd" stroke-dasharray="5,2" d="M52.3226,-259.6466C59.376,-256.1165 67.2824,-252.8349 75,-251.0305 110.7123,-242.6812 152.266,-245.7944 183.2786,-250.5202"/>
<polygon fill="#9a32cd" stroke="#9a32cd" points="50.469,-256.6697 43.3308,-264.4989 53.7934,-262.8299 50.469,-256.6697"/>
<text text-anchor="middle" x="104.5" y="-276.0305" font-family="Helvetica,sans-Serif" font-size="10.00" fill="#000000"> greenBits</text>
<text text-anchor="middle" x="104.5" y="-265.0305" font-family="Helvetica,sans-Serif" font-size="10.00" fill="#000000">redBits</text>
<text text-anchor="middle" x="104.5" y="-254.0305" font-family="Helvetica,sans-Serif" font-size="10.00" fill="#000000">blueBits</text>
</g>
<!-- Node16 -->
<g id="node14" class="node">
<title>Node16</title>
<polygon fill="none" stroke="#bfbfbf" points="464.5,-181.5305 464.5,-200.5305 502.5,-200.5305 502.5,-181.5305 464.5,-181.5305"/>
<text text-anchor="middle" x="483.5" y="-188.5305" font-family="Helvetica,sans-Serif" font-size="10.00" fill="#000000">bool</text>
</g>
<!-- Node16&#45;&gt;Node6 -->
<g id="edge15" class="edge">
<title>Node16&#45;&gt;Node6</title>
<path fill="none" stroke="#9a32cd" stroke-dasharray="5,2" d="M512.6241,-181.8917C550.6712,-171.8055 617.9679,-160.4867 665,-189.0305 713.4517,-218.4359 732.6348,-289.6348 738.9035,-320.8911"/>
<polygon fill="#9a32cd" stroke="#9a32cd" points="511.3945,-178.6013 502.7097,-184.6697 513.2832,-185.3418 511.3945,-178.6013"/>
<text text-anchor="middle" x="617" y="-203.0305" font-family="Helvetica,sans-Serif" font-size="10.00" fill="#000000"> _keyRepeat</text>
<text text-anchor="middle" x="617" y="-192.0305" font-family="Helvetica,sans-Serif" font-size="10.00" fill="#000000">_fullscreen</text>
</g>
<!-- Node17 -->
<g id="node15" class="node">
<title>Node17</title>
<polygon fill="none" stroke="#bfbfbf" points="416.5,-143.5305 416.5,-162.5305 550.5,-162.5305 550.5,-143.5305 416.5,-143.5305"/>
<text text-anchor="middle" x="483.5" y="-150.5305" font-family="Helvetica,sans-Serif" font-size="10.00" fill="#000000">static ANativeActivity *</text>
</g>
<!-- Node17&#45;&gt;Node6 -->
<g id="edge16" class="edge">
<title>Node17&#45;&gt;Node6</title>
<path fill="none" stroke="#9a32cd" stroke-dasharray="5,2" d="M525.9678,-141.2312C565.4201,-132.9158 624.0769,-127.5729 665,-155.0305 722.5082,-193.6162 736.9152,-284.8201 740.4156,-320.9304"/>
<polygon fill="#9a32cd" stroke="#9a32cd" points="525.111,-137.8365 516.1259,-143.4507 526.6509,-144.665 525.111,-137.8365"/>
<text text-anchor="middle" x="617" y="-158.0305" font-family="Helvetica,sans-Serif" font-size="10.00" fill="#000000"> activity</text>
</g>
<!-- Node18 -->
<g id="node16" class="node">
<title>Node18</title>
<polygon fill="none" stroke="#bfbfbf" points="446,-105.5305 446,-124.5305 521,-124.5305 521,-105.5305 446,-105.5305"/>
<text text-anchor="middle" x="483.5" y="-112.5305" font-family="Helvetica,sans-Serif" font-size="10.00" fill="#000000">HINSTANCE</text>
</g>
<!-- Node18&#45;&gt;Node6 -->
<g id="edge17" class="edge">
<title>Node18&#45;&gt;Node6</title>
<path fill="none" stroke="#9a32cd" stroke-dasharray="5,2" d="M526.0747,-103.3135C565.8572,-95.0627 624.9665,-90.0281 665,-119.0305 699.2093,-143.8136 729.1089,-275.762 738.47,-320.8859"/>
<polygon fill="#9a32cd" stroke="#9a32cd" points="525.1518,-99.9332 516.1503,-105.5209 526.6717,-106.7662 525.1518,-99.9332"/>
<text text-anchor="middle" x="617" y="-122.0305" font-family="Helvetica,sans-Serif" font-size="10.00" fill="#000000"> _hinstance</text>
</g>
<!-- Node19 -->
<g id="node17" class="node">
<title>Node19</title>
<polygon fill="none" stroke="#bfbfbf" points="458.5,-67.5305 458.5,-86.5305 508.5,-86.5305 508.5,-67.5305 458.5,-67.5305"/>
<text text-anchor="middle" x="483.5" y="-74.5305" font-family="Helvetica,sans-Serif" font-size="10.00" fill="#000000">HICON</text>
</g>
<!-- Node19&#45;&gt;Node6 -->
<g id="edge19" class="edge">
<title>Node19&#45;&gt;Node6</title>
<path fill="none" stroke="#9a32cd" stroke-dasharray="5,2" d="M518.592,-66.8977C558.3586,-57.7059 623.0782,-49.9692 665,-82.0305 704.3254,-112.1062 731.5547,-270.8199 739.2679,-320.8864"/>
<polygon fill="#9a32cd" stroke="#9a32cd" points="517.6798,-63.5177 508.8059,-69.3059 519.3525,-70.3149 517.6798,-63.5177"/>
<text text-anchor="middle" x="617" y="-85.0305" font-family="Helvetica,sans-Serif" font-size="10.00" fill="#000000"> _icon</text>
</g>
<!-- Node20 -->
<g id="node18" class="node">
<title>Node20</title>
<polygon fill="none" stroke="#bfbfbf" points="462,-13.5305 462,-32.5305 505,-32.5305 505,-13.5305 462,-13.5305"/>
<text text-anchor="middle" x="483.5" y="-20.5305" font-family="Helvetica,sans-Serif" font-size="10.00" fill="#000000">Atom</text>
</g>
<!-- Node20&#45;&gt;Node6 -->
<g id="edge20" class="edge">
<title>Node20&#45;&gt;Node6</title>
<path fill="none" stroke="#9a32cd" stroke-dasharray="5,2" d="M514.8843,-12.1522C554.3587,-.6418 622.1463,11.6361 665,-22.0305 713.4229,-60.0725 735.0488,-263.7226 740.2312,-321.0213"/>
<polygon fill="#9a32cd" stroke="#9a32cd" points="513.7861,-8.828 505.2545,-15.1098 515.8414,-15.5195 513.7861,-8.828"/>
<text text-anchor="middle" x="617" y="-47.0305" font-family="Helvetica,sans-Serif" font-size="10.00" fill="#000000"> _wmHints</text>
<text text-anchor="middle" x="617" y="-36.0305" font-family="Helvetica,sans-Serif" font-size="10.00" fill="#000000">_wmDeleteWindow</text>
<text text-anchor="middle" x="617" y="-25.0305" font-family="Helvetica,sans-Serif" font-size="10.00" fill="#000000">_wmProtocols</text>
</g>
<!-- Node21 -->
<g id="node19" class="node">
<title>Node21</title>
<polygon fill="none" stroke="#bfbfbf" points="201,-124.5305 201,-143.5305 258,-143.5305 258,-124.5305 201,-124.5305"/>
<text text-anchor="middle" x="229.5" y="-131.5305" font-family="Helvetica,sans-Serif" font-size="10.00" fill="#000000">uint32_t</text>
</g>
<!-- Node21&#45;&gt;Node3 -->
<g id="edge21" class="edge">
<title>Node21&#45;&gt;Node3</title>
<path fill="none" stroke="#9a32cd" stroke-dasharray="5,2" d="M268.0457,-129.8275C305.4081,-127.9228 361.6233,-131.0797 398,-161.0305 415.9109,-175.7775 398.9701,-194.2744 416,-210.0305 420.2,-213.9164 425.133,-217.0158 430.3883,-219.4866"/>
<polygon fill="#9a32cd" stroke="#9a32cd" points="267.7904,-126.3366 258.0397,-130.4809 268.2465,-133.3217 267.7904,-126.3366"/>
<text text-anchor="middle" x="361.5" y="-175.0305" font-family="Helvetica,sans-Serif" font-size="10.00" fill="#000000"> x</text>
<text text-anchor="middle" x="361.5" y="-164.0305" font-family="Helvetica,sans-Serif" font-size="10.00" fill="#000000">y</text>
</g>
<!-- Node22 -->
<g id="node20" class="node">
<title>Node22</title>
<polygon fill="none" stroke="#bfbfbf" points="160,-75.0305 160,-105.0305 299,-105.0305 299,-75.0305 160,-75.0305"/>
<text text-anchor="start" x="168" y="-93.0305" font-family="Helvetica,sans-Serif" font-size="10.00" fill="#000000">unordered_map&lt; Mouse</text>
<text text-anchor="middle" x="229.5" y="-82.0305" font-family="Helvetica,sans-Serif" font-size="10.00" fill="#000000">::Button, bool &gt;</text>
</g>
<!-- Node22&#45;&gt;Node3 -->
<g id="edge22" class="edge">
<title>Node22&#45;&gt;Node3</title>
<path fill="none" stroke="#9a32cd" stroke-dasharray="5,2" d="M309.263,-84.2841C340.694,-86.3108 374.7605,-94.5298 398,-117.0305 428.2463,-146.3154 387.4943,-179.0488 416,-210.0305 419.5445,-213.8829 423.8027,-216.9772 428.4347,-219.4593"/>
<polygon fill="#9a32cd" stroke="#9a32cd" points="309.314,-80.783 299.1679,-83.8335 309.0018,-87.7761 309.314,-80.783"/>
<text text-anchor="middle" x="361.5" y="-120.0305" font-family="Helvetica,sans-Serif" font-size="10.00" fill="#000000"> _mouseState</text>
</g>
<!-- Node23&#45;&gt;Node3 -->
<g id="edge23" class="edge">
<title>Node23&#45;&gt;Node3</title>
<path fill="none" stroke="#9a32cd" stroke-dasharray="5,2" d="M311.4485,-250.029C346.3842,-245.7652 386.5453,-240.8636 419.2749,-236.869"/>
<polygon fill="#9a32cd" stroke="#9a32cd" points="310.77,-246.5857 301.2677,-251.2715 311.6181,-253.5341 310.77,-246.5857"/>
<text text-anchor="middle" x="361.5" y="-251.0305" font-family="Helvetica,sans-Serif" font-size="10.00" fill="#000000"> _mode</text>
</g>
<!-- Node24 -->
<g id="node22" class="node">
<title>Node24</title>
<polygon fill="none" stroke="#bfbfbf" points="0,-184.5305 0,-203.5305 57,-203.5305 57,-184.5305 0,-184.5305"/>
<text text-anchor="middle" x="28.5" y="-191.5305" font-family="Helvetica,sans-Serif" font-size="10.00" fill="#000000">uint16_t</text>
</g>
<!-- Node24&#45;&gt;Node23 -->
<g id="edge24" class="edge">
<title>Node24&#45;&gt;Node23</title>
<path fill="none" stroke="#9a32cd" stroke-dasharray="5,2" d="M67.4725,-190.9982C88.8163,-191.2369 114.7581,-194.8186 134,-208.0305 147.7726,-217.4871 138.7604,-230.8412 152,-241.0305 157.0501,-244.9171 162.7876,-248.0205 168.8024,-250.4965"/>
<polygon fill="#9a32cd" stroke="#9a32cd" points="67.3697,-187.4991 57.4136,-191.122 67.456,-194.4986 67.3697,-187.4991"/>
<text text-anchor="middle" x="104.5" y="-233.0305" font-family="Helvetica,sans-Serif" font-size="10.00" fill="#000000"> width</text>
<text text-anchor="middle" x="104.5" y="-222.0305" font-family="Helvetica,sans-Serif" font-size="10.00" fill="#000000">height</text>
<text text-anchor="middle" x="104.5" y="-211.0305" font-family="Helvetica,sans-Serif" font-size="10.00" fill="#000000">refreshRate</text>
</g>
</g>
</svg>
