<?xml version="1.0" encoding="UTF-8" standalone="no"?>
<!DOCTYPE svg PUBLIC "-//W3C//DTD SVG 1.1//EN"
 "http://www.w3.org/Graphics/SVG/1.1/DTD/svg11.dtd">
<!-- Generated by graphviz version 2.40.1 (20161225.0304)
 -->
<!-- Title: include/lug/System/Clock.hpp Pages: 1 -->
<svg width="346pt" height="207pt"
 viewBox="0.00 0.00 345.50 207.00" xmlns="http://www.w3.org/2000/svg" xmlns:xlink="http://www.w3.org/1999/xlink">
<g id="graph0" class="graph" transform="scale(1 1) rotate(0) translate(4 203)">
<title>include/lug/System/Clock.hpp</title>
<!-- Node0 -->
<g id="node1" class="node">
<title>Node0</title>
<polygon fill="#bfbfbf" stroke="#000000" points="63.5,-168.5 63.5,-198.5 176.5,-198.5 176.5,-168.5 63.5,-168.5"/>
<text text-anchor="start" x="71.5" y="-186.5" font-family="Helvetica,sans-Serif" font-size="10.00" fill="#000000">include/lug/System</text>
<text text-anchor="middle" x="120" y="-175.5" font-family="Helvetica,sans-Serif" font-size="10.00" fill="#000000">/Clock.hpp</text>
</g>
<!-- Node1 -->
<g id="node2" class="node">
<title>Node1</title>
<g id="a_node2"><a xlink:href="System_2Export_8hpp.html" target="_top" xlink:title="lug/System/Export.hpp">
<polygon fill="none" stroke="#000000" points="0,-56.5 0,-75.5 132,-75.5 132,-56.5 0,-56.5"/>
<text text-anchor="middle" x="66" y="-63.5" font-family="Helvetica,sans-Serif" font-size="10.00" fill="#000000">lug/System/Export.hpp</text>
</a>
</g>
</g>
<!-- Node0&#45;&gt;Node1 -->
<g id="edge1" class="edge">
<title>Node0&#45;&gt;Node1</title>
<path fill="none" stroke="#191970" d="M112.9404,-168.1389C103.0787,-146.6806 85.1982,-107.7738 74.5804,-84.6702"/>
<polygon fill="#191970" stroke="#191970" points="77.7494,-83.1843 70.3933,-75.5595 71.389,-86.1074 77.7494,-83.1843"/>
</g>
<!-- Node3 -->
<g id="node4" class="node">
<title>Node3</title>
<g id="a_node4"><a xlink:href="Time_8hpp.html" target="_top" xlink:title="lug/System/Time.hpp">
<polygon fill="none" stroke="#000000" points="107.5,-112.5 107.5,-131.5 232.5,-131.5 232.5,-112.5 107.5,-112.5"/>
<text text-anchor="middle" x="170" y="-119.5" font-family="Helvetica,sans-Serif" font-size="10.00" fill="#000000">lug/System/Time.hpp</text>
</a>
</g>
</g>
<!-- Node0&#45;&gt;Node3 -->
<g id="edge3" class="edge">
<title>Node0&#45;&gt;Node3</title>
<path fill="none" stroke="#191970" d="M132.3596,-168.2977C139.3724,-159.672 148.186,-148.8312 155.5214,-139.8087"/>
<polygon fill="#191970" stroke="#191970" points="158.4018,-141.8141 161.9944,-131.8469 152.9703,-137.3982 158.4018,-141.8141"/>
</g>
<!-- Node2 -->
<g id="node3" class="node">
<title>Node2</title>
<g id="a_node3"><a xlink:href="Config_8hpp.html" target="_top" xlink:title="lug/Config.hpp">
<polygon fill="none" stroke="#000000" points="21.5,-.5 21.5,-19.5 110.5,-19.5 110.5,-.5 21.5,-.5"/>
<text text-anchor="middle" x="66" y="-7.5" font-family="Helvetica,sans-Serif" font-size="10.00" fill="#000000">lug/Config.hpp</text>
</a>
</g>
</g>
<!-- Node1&#45;&gt;Node2 -->
<g id="edge2" class="edge">
<title>Node1&#45;&gt;Node2</title>
<path fill="none" stroke="#191970" d="M66,-56.2455C66,-48.9382 66,-38.6944 66,-29.7046"/>
<polygon fill="#191970" stroke="#191970" points="69.5001,-29.6426 66,-19.6427 62.5001,-29.6427 69.5001,-29.6426"/>
</g>
<!-- Node3&#45;&gt;Node1 -->
<g id="edge5" class="edge">
<title>Node3&#45;&gt;Node1</title>
<path fill="none" stroke="#191970" d="M151.8846,-112.2455C135.555,-103.4527 111.329,-90.4079 92.7661,-80.4125"/>
<polygon fill="#191970" stroke="#191970" points="94.3719,-77.3021 83.9078,-75.6427 91.0532,-83.4654 94.3719,-77.3021"/>
</g>
<!-- Node4 -->
<g id="node5" class="node">
<title>Node4</title>
<polygon fill="none" stroke="#bfbfbf" points="150,-56.5 150,-75.5 200,-75.5 200,-56.5 150,-56.5"/>
<text text-anchor="middle" x="175" y="-63.5" font-family="Helvetica,sans-Serif" font-size="10.00" fill="#000000">cstdint</text>
</g>
<!-- Node3&#45;&gt;Node4 -->
<g id="edge4" class="edge">
<title>Node3&#45;&gt;Node4</title>
<path fill="none" stroke="#191970" d="M170.8709,-112.2455C171.5234,-104.9382 172.438,-94.6944 173.2407,-85.7046"/>
<polygon fill="#191970" stroke="#191970" points="176.7358,-85.9143 174.139,-75.6427 169.7635,-85.2918 176.7358,-85.9143"/>
</g>
<!-- Node5 -->
<g id="node6" class="node">
<title>Node5</title>
<g id="a_node6"><a xlink:href="Time_8inl.html" target="_top" xlink:title="lug/System/Time.inl">
<polygon fill="none" stroke="#000000" points="218.5,-56.5 218.5,-75.5 337.5,-75.5 337.5,-56.5 218.5,-56.5"/>
<text text-anchor="middle" x="278" y="-63.5" font-family="Helvetica,sans-Serif" font-size="10.00" fill="#000000">lug/System/Time.inl</text>
</a>
</g>
</g>
<!-- Node3&#45;&gt;Node5 -->
<g id="edge6" class="edge">
<title>Node3&#45;&gt;Node5</title>
<path fill="none" stroke="#191970" d="M188.8122,-112.2455C205.8473,-103.4125 231.1575,-90.2887 250.4681,-80.2758"/>
<polygon fill="#191970" stroke="#191970" points="252.137,-83.353 259.4034,-75.6427 248.9147,-77.1388 252.137,-83.353"/>
</g>
</g>
</svg>
