<?xml version="1.0" encoding="UTF-8" standalone="no"?>
<!DOCTYPE svg PUBLIC "-//W3C//DTD SVG 1.1//EN"
 "http://www.w3.org/Graphics/SVG/1.1/DTD/svg11.dtd">
<!-- Generated by graphviz version 2.40.1 (20161225.0304)
 -->
<!-- Title: src/lug/System/Clock.cpp Pages: 1 -->
<svg width="346pt" height="252pt"
 viewBox="0.00 0.00 345.50 252.00" xmlns="http://www.w3.org/2000/svg" xmlns:xlink="http://www.w3.org/1999/xlink">
<g id="graph0" class="graph" transform="scale(1 1) rotate(0) translate(4 248)">
<title>src/lug/System/Clock.cpp</title>
<!-- Node0 -->
<g id="node1" class="node">
<title>Node0</title>
<polygon fill="#bfbfbf" stroke="#000000" points="47,-224.5 47,-243.5 193,-243.5 193,-224.5 47,-224.5"/>
<text text-anchor="middle" x="120" y="-231.5" font-family="Helvetica,sans-Serif" font-size="10.00" fill="#000000">src/lug/System/Clock.cpp</text>
</g>
<!-- Node1 -->
<g id="node2" class="node">
<title>Node1</title>
<g id="a_node2"><a xlink:href="Clock_8hpp.html" target="_top" xlink:title="lug/System/Clock.hpp">
<polygon fill="none" stroke="#000000" points="56.5,-168.5 56.5,-187.5 183.5,-187.5 183.5,-168.5 56.5,-168.5"/>
<text text-anchor="middle" x="120" y="-175.5" font-family="Helvetica,sans-Serif" font-size="10.00" fill="#000000">lug/System/Clock.hpp</text>
</a>
</g>
</g>
<!-- Node0&#45;&gt;Node1 -->
<g id="edge1" class="edge">
<title>Node0&#45;&gt;Node1</title>
<path fill="none" stroke="#191970" d="M120,-224.2455C120,-216.9382 120,-206.6944 120,-197.7046"/>
<polygon fill="#191970" stroke="#191970" points="123.5001,-197.6426 120,-187.6427 116.5001,-197.6427 123.5001,-197.6426"/>
</g>
<!-- Node2 -->
<g id="node3" class="node">
<title>Node2</title>
<g id="a_node3"><a xlink:href="System_2Export_8hpp.html" target="_top" xlink:title="lug/System/Export.hpp">
<polygon fill="none" stroke="#000000" points="0,-56.5 0,-75.5 132,-75.5 132,-56.5 0,-56.5"/>
<text text-anchor="middle" x="66" y="-63.5" font-family="Helvetica,sans-Serif" font-size="10.00" fill="#000000">lug/System/Export.hpp</text>
</a>
</g>
</g>
<!-- Node1&#45;&gt;Node2 -->
<g id="edge2" class="edge">
<title>Node1&#45;&gt;Node2</title>
<path fill="none" stroke="#191970" d="M115.396,-168.4509C106.4691,-149.936 86.6642,-108.8591 75.0251,-84.7187"/>
<polygon fill="#191970" stroke="#191970" points="78.0881,-83.0125 70.5924,-75.5249 71.7827,-86.0527 78.0881,-83.0125"/>
</g>
<!-- Node4 -->
<g id="node5" class="node">
<title>Node4</title>
<g id="a_node5"><a xlink:href="Time_8hpp.html" target="_top" xlink:title="lug/System/Time.hpp">
<polygon fill="none" stroke="#000000" points="107.5,-112.5 107.5,-131.5 232.5,-131.5 232.5,-112.5 107.5,-112.5"/>
<text text-anchor="middle" x="170" y="-119.5" font-family="Helvetica,sans-Serif" font-size="10.00" fill="#000000">lug/System/Time.hpp</text>
</a>
</g>
</g>
<!-- Node1&#45;&gt;Node4 -->
<g id="edge4" class="edge">
<title>Node1&#45;&gt;Node4</title>
<path fill="none" stroke="#191970" d="M128.7093,-168.2455C135.8073,-160.2958 146.0084,-148.8706 154.495,-139.3656"/>
<polygon fill="#191970" stroke="#191970" points="157.3411,-141.4331 161.3905,-131.6427 152.1195,-136.771 157.3411,-141.4331"/>
</g>
<!-- Node3 -->
<g id="node4" class="node">
<title>Node3</title>
<g id="a_node4"><a xlink:href="Config_8hpp.html" target="_top" xlink:title="lug/Config.hpp">
<polygon fill="none" stroke="#000000" points="21.5,-.5 21.5,-19.5 110.5,-19.5 110.5,-.5 21.5,-.5"/>
<text text-anchor="middle" x="66" y="-7.5" font-family="Helvetica,sans-Serif" font-size="10.00" fill="#000000">lug/Config.hpp</text>
</a>
</g>
</g>
<!-- Node2&#45;&gt;Node3 -->
<g id="edge3" class="edge">
<title>Node2&#45;&gt;Node3</title>
<path fill="none" stroke="#191970" d="M66,-56.2455C66,-48.9382 66,-38.6944 66,-29.7046"/>
<polygon fill="#191970" stroke="#191970" points="69.5001,-29.6426 66,-19.6427 62.5001,-29.6427 69.5001,-29.6426"/>
</g>
<!-- Node4&#45;&gt;Node2 -->
<g id="edge6" class="edge">
<title>Node4&#45;&gt;Node2</title>
<path fill="none" stroke="#191970" d="M151.8846,-112.2455C135.555,-103.4527 111.329,-90.4079 92.7661,-80.4125"/>
<polygon fill="#191970" stroke="#191970" points="94.3719,-77.3021 83.9078,-75.6427 91.0532,-83.4654 94.3719,-77.3021"/>
</g>
<!-- Node5 -->
<g id="node6" class="node">
<title>Node5</title>
<polygon fill="none" stroke="#bfbfbf" points="150,-56.5 150,-75.5 200,-75.5 200,-56.5 150,-56.5"/>
<text text-anchor="middle" x="175" y="-63.5" font-family="Helvetica,sans-Serif" font-size="10.00" fill="#000000">cstdint</text>
</g>
<!-- Node4&#45;&gt;Node5 -->
<g id="edge5" class="edge">
<title>Node4&#45;&gt;Node5</title>
<path fill="none" stroke="#191970" d="M170.8709,-112.2455C171.5234,-104.9382 172.438,-94.6944 173.2407,-85.7046"/>
<polygon fill="#191970" stroke="#191970" points="176.7358,-85.9143 174.139,-75.6427 169.7635,-85.2918 176.7358,-85.9143"/>
</g>
<!-- Node6 -->
<g id="node7" class="node">
<title>Node6</title>
<g id="a_node7"><a xlink:href="Time_8inl.html" target="_top" xlink:title="lug/System/Time.inl">
<polygon fill="none" stroke="#000000" points="218.5,-56.5 218.5,-75.5 337.5,-75.5 337.5,-56.5 218.5,-56.5"/>
<text text-anchor="middle" x="278" y="-63.5" font-family="Helvetica,sans-Serif" font-size="10.00" fill="#000000">lug/System/Time.inl</text>
</a>
</g>
</g>
<!-- Node4&#45;&gt;Node6 -->
<g id="edge7" class="edge">
<title>Node4&#45;&gt;Node6</title>
<path fill="none" stroke="#191970" d="M188.8122,-112.2455C205.8473,-103.4125 231.1575,-90.2887 250.4681,-80.2758"/>
<polygon fill="#191970" stroke="#191970" points="252.137,-83.353 259.4034,-75.6427 248.9147,-77.1388 252.137,-83.353"/>
</g>
</g>
</svg>
