<?xml version="1.0" encoding="UTF-8" standalone="no"?>
<!DOCTYPE svg PUBLIC "-//W3C//DTD SVG 1.1//EN"
 "http://www.w3.org/Graphics/SVG/1.1/DTD/svg11.dtd">
<!-- Generated by graphviz version 2.40.1 (20161225.0304)
 -->
<!-- Title: include/lug/System/Logger/Common.hpp Pages: 1 -->
<svg width="348pt" height="151pt"
 viewBox="0.00 0.00 347.50 151.00" xmlns="http://www.w3.org/2000/svg" xmlns:xlink="http://www.w3.org/1999/xlink">
<g id="graph0" class="graph" transform="scale(1 1) rotate(0) translate(4 147)">
<title>include/lug/System/Logger/Common.hpp</title>
<!-- Node0 -->
<g id="node1" class="node">
<title>Node0</title>
<polygon fill="#bfbfbf" stroke="#000000" points="128.5,-112.5 128.5,-142.5 253.5,-142.5 253.5,-112.5 128.5,-112.5"/>
<text text-anchor="start" x="136.5" y="-130.5" font-family="Helvetica,sans-Serif" font-size="10.00" fill="#000000">include/lug/System</text>
<text text-anchor="middle" x="191" y="-119.5" font-family="Helvetica,sans-Serif" font-size="10.00" fill="#000000">/Logger/Common.hpp</text>
</g>
<!-- Node1 -->
<g id="node2" class="node">
<title>Node1</title>
<g id="a_node2"><a xlink:href="System_2Export_8hpp.html" target="_top" xlink:title="lug/System/Export.hpp">
<polygon fill="none" stroke="#000000" points="0,-56.5 0,-75.5 132,-75.5 132,-56.5 0,-56.5"/>
<text text-anchor="middle" x="66" y="-63.5" font-family="Helvetica,sans-Serif" font-size="10.00" fill="#000000">lug/System/Export.hpp</text>
</a>
</g>
</g>
<!-- Node0&#45;&gt;Node1 -->
<g id="edge1" class="edge">
<title>Node0&#45;&gt;Node1</title>
<path fill="none" stroke="#191970" d="M160.4216,-112.4554C140.2968,-102.554 114.1361,-89.683 94.4562,-80.0004"/>
<polygon fill="#191970" stroke="#191970" points="95.8885,-76.8045 85.3706,-75.5303 92.7982,-83.0855 95.8885,-76.8045"/>
</g>
<!-- Node3 -->
<g id="node4" class="node">
<title>Node3</title>
<polygon fill="none" stroke="#bfbfbf" points="150,-56.5 150,-75.5 232,-75.5 232,-56.5 150,-56.5"/>
<text text-anchor="middle" x="191" y="-63.5" font-family="Helvetica,sans-Serif" font-size="10.00" fill="#000000">fmt/format.h</text>
</g>
<!-- Node0&#45;&gt;Node3 -->
<g id="edge3" class="edge">
<title>Node0&#45;&gt;Node3</title>
<path fill="none" stroke="#191970" d="M191,-112.2977C191,-104.3834 191,-94.6043 191,-86.0759"/>
<polygon fill="#191970" stroke="#191970" points="194.5001,-85.8469 191,-75.8469 187.5001,-85.847 194.5001,-85.8469"/>
</g>
<!-- Node4 -->
<g id="node5" class="node">
<title>Node4</title>
<polygon fill="none" stroke="#bfbfbf" points="250.5,-56.5 250.5,-75.5 339.5,-75.5 339.5,-56.5 250.5,-56.5"/>
<text text-anchor="middle" x="295" y="-63.5" font-family="Helvetica,sans-Serif" font-size="10.00" fill="#000000">fmt/ostream.h</text>
</g>
<!-- Node0&#45;&gt;Node4 -->
<g id="edge4" class="edge">
<title>Node0&#45;&gt;Node4</title>
<path fill="none" stroke="#191970" d="M216.4413,-112.4554C232.7284,-102.8241 253.7673,-90.3828 269.973,-80.7996"/>
<polygon fill="#191970" stroke="#191970" points="272.0576,-83.6331 278.8837,-75.5303 268.4945,-77.6078 272.0576,-83.6331"/>
</g>
<!-- Node2 -->
<g id="node3" class="node">
<title>Node2</title>
<g id="a_node3"><a xlink:href="Config_8hpp.html" target="_top" xlink:title="lug/Config.hpp">
<polygon fill="none" stroke="#000000" points="21.5,-.5 21.5,-19.5 110.5,-19.5 110.5,-.5 21.5,-.5"/>
<text text-anchor="middle" x="66" y="-7.5" font-family="Helvetica,sans-Serif" font-size="10.00" fill="#000000">lug/Config.hpp</text>
</a>
</g>
</g>
<!-- Node1&#45;&gt;Node2 -->
<g id="edge2" class="edge">
<title>Node1&#45;&gt;Node2</title>
<path fill="none" stroke="#191970" d="M66,-56.2455C66,-48.9382 66,-38.6944 66,-29.7046"/>
<polygon fill="#191970" stroke="#191970" points="69.5001,-29.6426 66,-19.6427 62.5001,-29.6427 69.5001,-29.6426"/>
</g>
</g>
</svg>
