<?xml version="1.0" encoding="UTF-8" standalone="no"?>
<!DOCTYPE svg PUBLIC "-//W3C//DTD SVG 1.1//EN"
 "http://www.w3.org/Graphics/SVG/1.1/DTD/svg11.dtd">
<!-- Generated by graphviz version 2.40.1 (20161225.0304)
 -->
<!-- Title: src/lug/Graphics/Vulkan/API/CommandBuffer/Buffer.cpp Pages: 1 -->
<svg width="1555pt" height="296pt"
 viewBox="0.00 0.00 1555.32 296.00" xmlns="http://www.w3.org/2000/svg" xmlns:xlink="http://www.w3.org/1999/xlink">
<g id="graph0" class="graph" transform="scale(1 1) rotate(0) translate(4 292)">
<title>src/lug/Graphics/Vulkan/API/CommandBuffer/Buffer.cpp</title>
<!-- Node0 -->
<g id="node1" class="node">
<title>Node0</title>
<polygon fill="#bfbfbf" stroke="#000000" points="345.3157,-257.5 345.3157,-287.5 524.3157,-287.5 524.3157,-257.5 345.3157,-257.5"/>
<text text-anchor="start" x="353.3157" y="-275.5" font-family="Helvetica,sans-Serif" font-size="10.00" fill="#000000">src/lug/Graphics/Vulkan</text>
<text text-anchor="middle" x="434.8157" y="-264.5" font-family="Helvetica,sans-Serif" font-size="10.00" fill="#000000">/API/CommandBuffer/Buffer.cpp</text>
</g>
<!-- Node1 -->
<g id="node2" class="node">
<title>Node1</title>
<g id="a_node2"><a xlink:href="CommandBuffer_8hpp.html" target="_top" xlink:title="lug/Graphics/Vulkan\l/API/CommandBuffer.hpp">
<polygon fill="none" stroke="#000000" points="643.3157,-190.5 643.3157,-220.5 788.3157,-220.5 788.3157,-190.5 643.3157,-190.5"/>
<text text-anchor="start" x="651.3157" y="-208.5" font-family="Helvetica,sans-Serif" font-size="10.00" fill="#000000">lug/Graphics/Vulkan</text>
<text text-anchor="middle" x="715.8157" y="-197.5" font-family="Helvetica,sans-Serif" font-size="10.00" fill="#000000">/API/CommandBuffer.hpp</text>
</a>
</g>
</g>
<!-- Node0&#45;&gt;Node1 -->
<g id="edge1" class="edge">
<title>Node0&#45;&gt;Node1</title>
<path fill="none" stroke="#191970" d="M497.8776,-257.4639C540.7516,-247.2412 597.6165,-233.6827 642.5096,-222.9787"/>
<polygon fill="#191970" stroke="#191970" points="643.5632,-226.3257 652.4787,-220.6017 641.9396,-219.5165 643.5632,-226.3257"/>
</g>
<!-- Node15 -->
<g id="node16" class="node">
<title>Node15</title>
<g id="a_node16"><a xlink:href="Buffer_8hpp.html" target="_top" xlink:title="lug/Graphics/Vulkan\l/API/Buffer.hpp">
<polygon fill="none" stroke="#000000" points="94.8157,-190.5 94.8157,-220.5 212.8157,-220.5 212.8157,-190.5 94.8157,-190.5"/>
<text text-anchor="start" x="102.8157" y="-208.5" font-family="Helvetica,sans-Serif" font-size="10.00" fill="#000000">lug/Graphics/Vulkan</text>
<text text-anchor="middle" x="153.8157" y="-197.5" font-family="Helvetica,sans-Serif" font-size="10.00" fill="#000000">/API/Buffer.hpp</text>
</a>
</g>
</g>
<!-- Node0&#45;&gt;Node15 -->
<g id="edge16" class="edge">
<title>Node0&#45;&gt;Node15</title>
<path fill="none" stroke="#191970" d="M371.7538,-257.4639C327.4329,-246.8963 268.161,-232.7638 222.6188,-221.905"/>
<polygon fill="#191970" stroke="#191970" points="223.3659,-218.4851 212.8268,-219.5703 221.7424,-225.2942 223.3659,-218.4851"/>
</g>
<!-- Node2 -->
<g id="node3" class="node">
<title>Node2</title>
<g id="a_node3"><a xlink:href="Graphics_2Export_8hpp.html" target="_top" xlink:title="lug/Graphics/Export.hpp">
<polygon fill="none" stroke="#000000" points="33.8157,-56.5 33.8157,-75.5 171.8157,-75.5 171.8157,-56.5 33.8157,-56.5"/>
<text text-anchor="middle" x="102.8157" y="-63.5" font-family="Helvetica,sans-Serif" font-size="10.00" fill="#000000">lug/Graphics/Export.hpp</text>
</a>
</g>
</g>
<!-- Node1&#45;&gt;Node2 -->
<g id="edge2" class="edge">
<title>Node1&#45;&gt;Node2</title>
<path fill="none" stroke="#191970" d="M642.9167,-203.4915C531.509,-199.3881 324.9455,-187.4047 259.8157,-154 237.417,-142.5119 242.5618,-126.2575 221.8157,-112 200.0131,-97.0164 172.6517,-86.0012 149.6643,-78.513"/>
<polygon fill="#191970" stroke="#191970" points="150.6984,-75.1693 140.1093,-75.5184 148.6049,-81.8489 150.6984,-75.1693"/>
</g>
<!-- Node4 -->
<g id="node5" class="node">
<title>Node4</title>
<g id="a_node5"><a xlink:href="Vulkan_8hpp.html" target="_top" xlink:title="lug/Graphics/Vulkan\l/Vulkan.hpp">
<polygon fill="none" stroke="#000000" points="268.8157,-118 268.8157,-148 386.8157,-148 386.8157,-118 268.8157,-118"/>
<text text-anchor="start" x="276.8157" y="-136" font-family="Helvetica,sans-Serif" font-size="10.00" fill="#000000">lug/Graphics/Vulkan</text>
<text text-anchor="middle" x="327.8157" y="-125" font-family="Helvetica,sans-Serif" font-size="10.00" fill="#000000">/Vulkan.hpp</text>
</a>
</g>
</g>
<!-- Node1&#45;&gt;Node4 -->
<g id="edge4" class="edge">
<title>Node1&#45;&gt;Node4</title>
<path fill="none" stroke="#191970" d="M643.0569,-196.6096C578.0442,-187.99 480.4307,-173.3796 396.8157,-154 392.6987,-153.0458 388.4681,-151.9782 384.2252,-150.8437"/>
<polygon fill="#191970" stroke="#191970" points="384.9229,-147.405 374.3507,-148.0969 383.0469,-154.1489 384.9229,-147.405"/>
</g>
<!-- Node9 -->
<g id="node10" class="node">
<title>Node9</title>
<g id="a_node10"><a xlink:href="CommandBuffer_2Buffer_8inl.html" target="_top" xlink:title="lug/Graphics/Vulkan\l/API/CommandBuffer/Buffer.inl">
<polygon fill="none" stroke="#000000" points="982.8157,-118 982.8157,-148 1156.8157,-148 1156.8157,-118 982.8157,-118"/>
<text text-anchor="start" x="990.8157" y="-136" font-family="Helvetica,sans-Serif" font-size="10.00" fill="#000000">lug/Graphics/Vulkan</text>
<text text-anchor="middle" x="1069.8157" y="-125" font-family="Helvetica,sans-Serif" font-size="10.00" fill="#000000">/API/CommandBuffer/Buffer.inl</text>
</a>
</g>
</g>
<!-- Node1&#45;&gt;Node9 -->
<g id="edge10" class="edge">
<title>Node1&#45;&gt;Node9</title>
<path fill="none" stroke="#191970" d="M788.4517,-191.3701C840.1866,-181.216 911.3365,-167.0683 973.8157,-154 979.6461,-152.7805 985.6718,-151.503 991.7311,-150.2061"/>
<polygon fill="#191970" stroke="#191970" points="992.8913,-153.5366 1001.9316,-148.0118 991.4192,-146.6932 992.8913,-153.5366"/>
</g>
<!-- Node10 -->
<g id="node11" class="node">
<title>Node10</title>
<g id="a_node11"><a xlink:href="API_2CommandBuffer_2DescriptorSet_8inl.html" target="_top" xlink:title="lug/Graphics/Vulkan\l/API/CommandBuffer/Descriptor\lSet.inl">
<polygon fill="none" stroke="#000000" points="1175.3157,-112.5 1175.3157,-153.5 1354.3157,-153.5 1354.3157,-112.5 1175.3157,-112.5"/>
<text text-anchor="start" x="1183.3157" y="-141.5" font-family="Helvetica,sans-Serif" font-size="10.00" fill="#000000">lug/Graphics/Vulkan</text>
<text text-anchor="start" x="1183.3157" y="-130.5" font-family="Helvetica,sans-Serif" font-size="10.00" fill="#000000">/API/CommandBuffer/Descriptor</text>
<text text-anchor="middle" x="1264.8157" y="-119.5" font-family="Helvetica,sans-Serif" font-size="10.00" fill="#000000">Set.inl</text>
</a>
</g>
</g>
<!-- Node1&#45;&gt;Node10 -->
<g id="edge11" class="edge">
<title>Node1&#45;&gt;Node10</title>
<path fill="none" stroke="#191970" d="M788.5913,-199.3171C875.7238,-191.4327 1026.2268,-176.288 1165.3153,-154.0016"/>
<polygon fill="#191970" stroke="#191970" points="1165.9964,-157.437 1175.3089,-152.3846 1164.8783,-150.5269 1165.9964,-157.437"/>
</g>
<!-- Node11 -->
<g id="node12" class="node">
<title>Node11</title>
<g id="a_node12"><a xlink:href="CommandBuffer_2Image_8inl.html" target="_top" xlink:title="lug/Graphics/Vulkan\l/API/CommandBuffer/Image.inl">
<polygon fill="none" stroke="#000000" points="1372.3157,-118 1372.3157,-148 1547.3157,-148 1547.3157,-118 1372.3157,-118"/>
<text text-anchor="start" x="1380.3157" y="-136" font-family="Helvetica,sans-Serif" font-size="10.00" fill="#000000">lug/Graphics/Vulkan</text>
<text text-anchor="middle" x="1459.8157" y="-125" font-family="Helvetica,sans-Serif" font-size="10.00" fill="#000000">/API/CommandBuffer/Image.inl</text>
</a>
</g>
</g>
<!-- Node1&#45;&gt;Node11 -->
<g id="edge12" class="edge">
<title>Node1&#45;&gt;Node11</title>
<path fill="none" stroke="#191970" d="M788.5803,-202.9461C908.8568,-198.0028 1156.4591,-184.7735 1363.8157,-154 1371.4098,-152.873 1379.3005,-151.4933 1387.1488,-149.9846"/>
<polygon fill="#191970" stroke="#191970" points="1387.9182,-153.4001 1397.0417,-148.0139 1386.5506,-146.535 1387.9182,-153.4001"/>
</g>
<!-- Node12 -->
<g id="node13" class="node">
<title>Node12</title>
<g id="a_node13"><a xlink:href="RenderPass_8inl.html" target="_top" xlink:title="lug/Graphics/Vulkan\l/API/CommandBuffer/RenderPass.inl">
<polygon fill="none" stroke="#000000" points="405.3157,-118 405.3157,-148 606.3157,-148 606.3157,-118 405.3157,-118"/>
<text text-anchor="start" x="413.3157" y="-136" font-family="Helvetica,sans-Serif" font-size="10.00" fill="#000000">lug/Graphics/Vulkan</text>
<text text-anchor="middle" x="505.8157" y="-125" font-family="Helvetica,sans-Serif" font-size="10.00" fill="#000000">/API/CommandBuffer/RenderPass.inl</text>
</a>
</g>
</g>
<!-- Node1&#45;&gt;Node12 -->
<g id="edge13" class="edge">
<title>Node1&#45;&gt;Node12</title>
<path fill="none" stroke="#191970" d="M672.3035,-190.478C639.3596,-179.1045 593.9472,-163.4263 558.872,-151.3171"/>
<polygon fill="#191970" stroke="#191970" points="559.8668,-147.9579 549.2721,-148.0028 557.5824,-154.5746 559.8668,-147.9579"/>
</g>
<!-- Node13 -->
<g id="node14" class="node">
<title>Node13</title>
<g id="a_node14"><a xlink:href="API_2CommandBuffer_2Pipeline_8inl.html" target="_top" xlink:title="lug/Graphics/Vulkan\l/API/CommandBuffer/Pipeline.inl">
<polygon fill="none" stroke="#000000" points="624.8157,-118 624.8157,-148 806.8157,-148 806.8157,-118 624.8157,-118"/>
<text text-anchor="start" x="632.8157" y="-136" font-family="Helvetica,sans-Serif" font-size="10.00" fill="#000000">lug/Graphics/Vulkan</text>
<text text-anchor="middle" x="715.8157" y="-125" font-family="Helvetica,sans-Serif" font-size="10.00" fill="#000000">/API/CommandBuffer/Pipeline.inl</text>
</a>
</g>
</g>
<!-- Node1&#45;&gt;Node13 -->
<g id="edge14" class="edge">
<title>Node1&#45;&gt;Node13</title>
<path fill="none" stroke="#191970" d="M715.8157,-190.478C715.8157,-181.1459 715.8157,-168.9157 715.8157,-158.1368"/>
<polygon fill="#191970" stroke="#191970" points="719.3158,-158.0028 715.8157,-148.0028 712.3158,-158.0028 719.3158,-158.0028"/>
</g>
<!-- Node14 -->
<g id="node15" class="node">
<title>Node14</title>
<g id="a_node15"><a xlink:href="CommandBuffer_8inl.html" target="_top" xlink:title="lug/Graphics/Vulkan\l/API/CommandBuffer.inl">
<polygon fill="none" stroke="#000000" points="825.3157,-118 825.3157,-148 964.3157,-148 964.3157,-118 825.3157,-118"/>
<text text-anchor="start" x="833.3157" y="-136" font-family="Helvetica,sans-Serif" font-size="10.00" fill="#000000">lug/Graphics/Vulkan</text>
<text text-anchor="middle" x="894.8157" y="-125" font-family="Helvetica,sans-Serif" font-size="10.00" fill="#000000">/API/CommandBuffer.inl</text>
</a>
</g>
</g>
<!-- Node1&#45;&gt;Node14 -->
<g id="edge15" class="edge">
<title>Node1&#45;&gt;Node14</title>
<path fill="none" stroke="#191970" d="M752.9046,-190.478C780.6253,-179.2503 818.7033,-163.8276 848.4373,-151.7845"/>
<polygon fill="#191970" stroke="#191970" points="849.8196,-155.0009 857.7743,-148.0028 847.1917,-148.5129 849.8196,-155.0009"/>
</g>
<!-- Node3 -->
<g id="node4" class="node">
<title>Node3</title>
<g id="a_node4"><a xlink:href="Config_8hpp.html" target="_top" xlink:title="lug/Config.hpp">
<polygon fill="none" stroke="#000000" points="58.3157,-.5 58.3157,-19.5 147.3157,-19.5 147.3157,-.5 58.3157,-.5"/>
<text text-anchor="middle" x="102.8157" y="-7.5" font-family="Helvetica,sans-Serif" font-size="10.00" fill="#000000">lug/Config.hpp</text>
</a>
</g>
</g>
<!-- Node2&#45;&gt;Node3 -->
<g id="edge3" class="edge">
<title>Node2&#45;&gt;Node3</title>
<path fill="none" stroke="#191970" d="M102.8157,-56.2455C102.8157,-48.9382 102.8157,-38.6944 102.8157,-29.7046"/>
<polygon fill="#191970" stroke="#191970" points="106.3158,-29.6426 102.8157,-19.6427 99.3158,-29.6427 106.3158,-29.6426"/>
</g>
<!-- Node4&#45;&gt;Node2 -->
<g id="edge8" class="edge">
<title>Node4&#45;&gt;Node2</title>
<path fill="none" stroke="#191970" d="M277.3213,-117.9639C237.2395,-106.0284 181.8867,-89.5456 144.3492,-78.3678"/>
<polygon fill="#191970" stroke="#191970" points="145.3194,-75.0049 134.7364,-75.5053 143.3216,-81.7137 145.3194,-75.0049"/>
</g>
<!-- Node5 -->
<g id="node6" class="node">
<title>Node5</title>
<polygon fill="none" stroke="#bfbfbf" points="190.3157,-56.5 190.3157,-75.5 285.3157,-75.5 285.3157,-56.5 190.3157,-56.5"/>
<text text-anchor="middle" x="237.8157" y="-63.5" font-family="Helvetica,sans-Serif" font-size="10.00" fill="#000000">unordered_map</text>
</g>
<!-- Node4&#45;&gt;Node5 -->
<g id="edge5" class="edge">
<title>Node4&#45;&gt;Node5</title>
<path fill="none" stroke="#191970" d="M307.3933,-117.7967C292.9625,-107.0537 273.6673,-92.6895 259.0569,-81.8129"/>
<polygon fill="#191970" stroke="#191970" points="260.7621,-78.719 250.6507,-75.555 256.5821,-84.3339 260.7621,-78.719"/>
</g>
<!-- Node6 -->
<g id="node7" class="node">
<title>Node6</title>
<polygon fill="none" stroke="#bfbfbf" points="303.8157,-56.5 303.8157,-75.5 351.8157,-75.5 351.8157,-56.5 303.8157,-56.5"/>
<text text-anchor="middle" x="327.8157" y="-63.5" font-family="Helvetica,sans-Serif" font-size="10.00" fill="#000000">vector</text>
</g>
<!-- Node4&#45;&gt;Node6 -->
<g id="edge6" class="edge">
<title>Node4&#45;&gt;Node6</title>
<path fill="none" stroke="#191970" d="M327.8157,-117.7967C327.8157,-108.2699 327.8157,-95.8954 327.8157,-85.6306"/>
<polygon fill="#191970" stroke="#191970" points="331.3158,-85.5549 327.8157,-75.555 324.3158,-85.555 331.3158,-85.5549"/>
</g>
<!-- Node7 -->
<g id="node8" class="node">
<title>Node7</title>
<polygon fill="none" stroke="#bfbfbf" points="369.8157,-56.5 369.8157,-75.5 427.8157,-75.5 427.8157,-56.5 369.8157,-56.5"/>
<text text-anchor="middle" x="398.8157" y="-63.5" font-family="Helvetica,sans-Serif" font-size="10.00" fill="#000000">ostream</text>
</g>
<!-- Node4&#45;&gt;Node7 -->
<g id="edge7" class="edge">
<title>Node4&#45;&gt;Node7</title>
<path fill="none" stroke="#191970" d="M343.9267,-117.7967C355.0962,-107.2564 369.9597,-93.2303 381.4024,-82.4323"/>
<polygon fill="#191970" stroke="#191970" points="383.8194,-84.9638 388.6903,-75.555 379.0151,-79.8727 383.8194,-84.9638"/>
</g>
<!-- Node8 -->
<g id="node9" class="node">
<title>Node8</title>
<polygon fill="none" stroke="#bfbfbf" points="446.3157,-56.5 446.3157,-75.5 543.3157,-75.5 543.3157,-56.5 446.3157,-56.5"/>
<text text-anchor="middle" x="494.8157" y="-63.5" font-family="Helvetica,sans-Serif" font-size="10.00" fill="#000000">vulkan/vulkan.h</text>
</g>
<!-- Node4&#45;&gt;Node8 -->
<g id="edge9" class="edge">
<title>Node4&#45;&gt;Node8</title>
<path fill="none" stroke="#191970" d="M365.2937,-117.9639C394.1977,-106.3677 433.8011,-90.4789 461.5813,-79.3335"/>
<polygon fill="#191970" stroke="#191970" points="462.8999,-82.5758 470.8775,-75.6039 460.2934,-76.0791 462.8999,-82.5758"/>
</g>
<!-- Node15&#45;&gt;Node2 -->
<g id="edge18" class="edge">
<title>Node15&#45;&gt;Node2</title>
<path fill="none" stroke="#191970" d="M94.6099,-191.9954C58.9185,-182.5215 18.3733,-168.9193 7.8157,-154 -2.967,-138.7626 -2.0987,-127.8161 7.8157,-112 17.4975,-96.5548 33.9995,-86.1672 50.5594,-79.2389"/>
<polygon fill="#191970" stroke="#191970" points="52.1628,-82.3737 60.2652,-75.5472 49.6741,-75.831 52.1628,-82.3737"/>
</g>
<!-- Node15&#45;&gt;Node4 -->
<g id="edge19" class="edge">
<title>Node15&#45;&gt;Node4</title>
<path fill="none" stroke="#191970" d="M189.8686,-190.478C216.6984,-179.2989 253.5091,-163.9611 282.3569,-151.9411"/>
<polygon fill="#191970" stroke="#191970" points="283.9244,-155.0798 291.809,-148.0028 281.232,-148.6182 283.9244,-155.0798"/>
</g>
<!-- Node16 -->
<g id="node17" class="node">
<title>Node16</title>
<polygon fill="none" stroke="#bfbfbf" points="17.3157,-123.5 17.3157,-142.5 76.3157,-142.5 76.3157,-123.5 17.3157,-123.5"/>
<text text-anchor="middle" x="46.8157" y="-130.5" font-family="Helvetica,sans-Serif" font-size="10.00" fill="#000000">memory</text>
</g>
<!-- Node15&#45;&gt;Node16 -->
<g id="edge17" class="edge">
<title>Node15&#45;&gt;Node16</title>
<path fill="none" stroke="#191970" d="M131.6452,-190.478C113.444,-178.1453 87.773,-160.7514 69.4471,-148.3344"/>
<polygon fill="#191970" stroke="#191970" points="71.3476,-145.3944 61.1057,-142.6825 67.4211,-151.1894 71.3476,-145.3944"/>
</g>
<!-- Node17 -->
<g id="node18" class="node">
<title>Node17</title>
<g id="a_node18"><a xlink:href="Buffer_8inl.html" target="_top" xlink:title="lug/Graphics/Vulkan\l/API/Buffer.inl">
<polygon fill="none" stroke="#000000" points="94.8157,-118 94.8157,-148 212.8157,-148 212.8157,-118 94.8157,-118"/>
<text text-anchor="start" x="102.8157" y="-136" font-family="Helvetica,sans-Serif" font-size="10.00" fill="#000000">lug/Graphics/Vulkan</text>
<text text-anchor="middle" x="153.8157" y="-125" font-family="Helvetica,sans-Serif" font-size="10.00" fill="#000000">/API/Buffer.inl</text>
</a>
</g>
</g>
<!-- Node15&#45;&gt;Node17 -->
<g id="edge20" class="edge">
<title>Node15&#45;&gt;Node17</title>
<path fill="none" stroke="#191970" d="M153.8157,-190.478C153.8157,-181.1459 153.8157,-168.9157 153.8157,-158.1368"/>
<polygon fill="#191970" stroke="#191970" points="157.3158,-158.0028 153.8157,-148.0028 150.3158,-158.0028 157.3158,-158.0028"/>
</g>
</g>
</svg>
