<?xml version="1.0" encoding="UTF-8" standalone="no"?>
<!DOCTYPE svg PUBLIC "-//W3C//DTD SVG 1.1//EN"
 "http://www.w3.org/Graphics/SVG/1.1/DTD/svg11.dtd">
<!-- Generated by graphviz version 2.40.1 (20161225.0304)
 -->
<!-- Title: include/lug/Graphics/Vulkan/API/CommandPool.hpp Pages: 1 -->
<svg width="592pt" height="285pt"
 viewBox="0.00 0.00 591.50 285.00" xmlns="http://www.w3.org/2000/svg" xmlns:xlink="http://www.w3.org/1999/xlink">
<g id="graph0" class="graph" transform="scale(1 1) rotate(0) translate(4 281)">
<title>include/lug/Graphics/Vulkan/API/CommandPool.hpp</title>
<!-- Node0 -->
<g id="node1" class="node">
<title>Node0</title>
<polygon fill="#bfbfbf" stroke="#000000" points="238.5,-246.5 238.5,-276.5 411.5,-276.5 411.5,-246.5 238.5,-246.5"/>
<text text-anchor="start" x="246.5" y="-264.5" font-family="Helvetica,sans-Serif" font-size="10.00" fill="#000000">include/lug/Graphics</text>
<text text-anchor="middle" x="325" y="-253.5" font-family="Helvetica,sans-Serif" font-size="10.00" fill="#000000">/Vulkan/API/CommandPool.hpp</text>
</g>
<!-- Node1 -->
<g id="node2" class="node">
<title>Node1</title>
<polygon fill="none" stroke="#bfbfbf" points="0,-56.5 0,-75.5 48,-75.5 48,-56.5 0,-56.5"/>
<text text-anchor="middle" x="24" y="-63.5" font-family="Helvetica,sans-Serif" font-size="10.00" fill="#000000">vector</text>
</g>
<!-- Node0&#45;&gt;Node1 -->
<g id="edge1" class="edge">
<title>Node0&#45;&gt;Node1</title>
<path fill="none" stroke="#191970" d="M293.1699,-246.3574C273.4484,-236.6309 247.8089,-223.356 226,-210 156.9284,-167.6998 80.327,-109.8369 44.5345,-82.1045"/>
<polygon fill="#191970" stroke="#191970" points="46.385,-79.1097 36.3434,-75.7309 42.0862,-84.6343 46.385,-79.1097"/>
</g>
<!-- Node2 -->
<g id="node3" class="node">
<title>Node2</title>
<g id="a_node3"><a xlink:href="Graphics_2Export_8hpp.html" target="_top" xlink:title="lug/Graphics/Export.hpp">
<polygon fill="none" stroke="#000000" points="372,-56.5 372,-75.5 510,-75.5 510,-56.5 372,-56.5"/>
<text text-anchor="middle" x="441" y="-63.5" font-family="Helvetica,sans-Serif" font-size="10.00" fill="#000000">lug/Graphics/Export.hpp</text>
</a>
</g>
</g>
<!-- Node0&#45;&gt;Node2 -->
<g id="edge2" class="edge">
<title>Node0&#45;&gt;Node2</title>
<path fill="none" stroke="#191970" d="M361.5694,-246.3699C377.7545,-237.9216 395.6546,-225.8606 407,-210 434.0467,-172.1896 439.8446,-115.8726 440.92,-86.1113"/>
<polygon fill="#191970" stroke="#191970" points="444.4263,-85.84 441.1372,-75.7687 437.4279,-85.6929 444.4263,-85.84"/>
</g>
<!-- Node4 -->
<g id="node5" class="node">
<title>Node4</title>
<g id="a_node5"><a xlink:href="CommandBuffer_8hpp.html" target="_top" xlink:title="lug/Graphics/Vulkan\l/API/CommandBuffer.hpp">
<polygon fill="none" stroke="#000000" points="252.5,-179.5 252.5,-209.5 397.5,-209.5 397.5,-179.5 252.5,-179.5"/>
<text text-anchor="start" x="260.5" y="-197.5" font-family="Helvetica,sans-Serif" font-size="10.00" fill="#000000">lug/Graphics/Vulkan</text>
<text text-anchor="middle" x="325" y="-186.5" font-family="Helvetica,sans-Serif" font-size="10.00" fill="#000000">/API/CommandBuffer.hpp</text>
</a>
</g>
</g>
<!-- Node0&#45;&gt;Node4 -->
<g id="edge4" class="edge">
<title>Node0&#45;&gt;Node4</title>
<path fill="none" stroke="#191970" d="M325,-246.2967C325,-238.5013 325,-228.7991 325,-219.9064"/>
<polygon fill="#191970" stroke="#191970" points="328.5001,-219.6431 325,-209.6432 321.5001,-219.6432 328.5001,-219.6431"/>
</g>
<!-- Node5 -->
<g id="node6" class="node">
<title>Node5</title>
<g id="a_node6"><a xlink:href="Vulkan_8hpp.html" target="_top" xlink:title="lug/Graphics/Vulkan\l/Vulkan.hpp">
<polygon fill="none" stroke="#000000" points="165,-112.5 165,-142.5 283,-142.5 283,-112.5 165,-112.5"/>
<text text-anchor="start" x="173" y="-130.5" font-family="Helvetica,sans-Serif" font-size="10.00" fill="#000000">lug/Graphics/Vulkan</text>
<text text-anchor="middle" x="224" y="-119.5" font-family="Helvetica,sans-Serif" font-size="10.00" fill="#000000">/Vulkan.hpp</text>
</a>
</g>
</g>
<!-- Node0&#45;&gt;Node5 -->
<g id="edge12" class="edge">
<title>Node0&#45;&gt;Node5</title>
<path fill="none" stroke="#191970" d="M288.3914,-246.3979C272.1977,-237.9557 254.3017,-225.8918 243,-210 231.0785,-193.2367 226.5132,-170.1452 224.824,-152.6547"/>
<polygon fill="#191970" stroke="#191970" points="228.309,-152.3194 224.1038,-142.5949 221.3269,-152.8193 228.309,-152.3194"/>
</g>
<!-- Node9 -->
<g id="node10" class="node">
<title>Node9</title>
<g id="a_node10"><a xlink:href="CommandPool_8inl.html" target="_top" xlink:title="lug/Graphics/Vulkan\l/API/CommandPool.inl">
<polygon fill="none" stroke="#000000" points="454.5,-179.5 454.5,-209.5 583.5,-209.5 583.5,-179.5 454.5,-179.5"/>
<text text-anchor="start" x="462.5" y="-197.5" font-family="Helvetica,sans-Serif" font-size="10.00" fill="#000000">lug/Graphics/Vulkan</text>
<text text-anchor="middle" x="519" y="-186.5" font-family="Helvetica,sans-Serif" font-size="10.00" fill="#000000">/API/CommandPool.inl</text>
</a>
</g>
</g>
<!-- Node0&#45;&gt;Node9 -->
<g id="edge13" class="edge">
<title>Node0&#45;&gt;Node9</title>
<path fill="none" stroke="#191970" d="M368.5374,-246.4639C397.2667,-236.5419 435.0953,-223.4774 465.6344,-212.9304"/>
<polygon fill="#191970" stroke="#191970" points="466.9631,-216.1744 475.2727,-209.6017 464.678,-209.5579 466.9631,-216.1744"/>
</g>
<!-- Node3 -->
<g id="node4" class="node">
<title>Node3</title>
<g id="a_node4"><a xlink:href="Config_8hpp.html" target="_top" xlink:title="lug/Config.hpp">
<polygon fill="none" stroke="#000000" points="396.5,-.5 396.5,-19.5 485.5,-19.5 485.5,-.5 396.5,-.5"/>
<text text-anchor="middle" x="441" y="-7.5" font-family="Helvetica,sans-Serif" font-size="10.00" fill="#000000">lug/Config.hpp</text>
</a>
</g>
</g>
<!-- Node2&#45;&gt;Node3 -->
<g id="edge3" class="edge">
<title>Node2&#45;&gt;Node3</title>
<path fill="none" stroke="#191970" d="M441,-56.2455C441,-48.9382 441,-38.6944 441,-29.7046"/>
<polygon fill="#191970" stroke="#191970" points="444.5001,-29.6426 441,-19.6427 437.5001,-29.6427 444.5001,-29.6426"/>
</g>
<!-- Node4&#45;&gt;Node2 -->
<g id="edge5" class="edge">
<title>Node4&#45;&gt;Node2</title>
<path fill="none" stroke="#191970" d="M338.7622,-179.2548C360.4376,-155.2437 402.4072,-108.7515 425.2535,-83.4434"/>
<polygon fill="#191970" stroke="#191970" points="428.1084,-85.504 432.2113,-75.7358 422.9124,-80.8134 428.1084,-85.504"/>
</g>
<!-- Node4&#45;&gt;Node5 -->
<g id="edge6" class="edge">
<title>Node4&#45;&gt;Node5</title>
<path fill="none" stroke="#191970" d="M302.3336,-179.4639C288.526,-170.3044 270.6811,-158.4667 255.5118,-148.4038"/>
<polygon fill="#191970" stroke="#191970" points="257.2082,-145.3291 246.9402,-142.7177 253.3386,-151.1623 257.2082,-145.3291"/>
</g>
<!-- Node5&#45;&gt;Node1 -->
<g id="edge8" class="edge">
<title>Node5&#45;&gt;Node1</title>
<path fill="none" stroke="#191970" d="M175.0745,-112.4554C138.7605,-101.2888 90.1632,-86.3452 58.0092,-76.4578"/>
<polygon fill="#191970" stroke="#191970" points="58.7708,-73.0303 48.1838,-73.4365 56.7133,-79.7212 58.7708,-73.0303"/>
</g>
<!-- Node5&#45;&gt;Node2 -->
<g id="edge10" class="edge">
<title>Node5&#45;&gt;Node2</title>
<path fill="none" stroke="#191970" d="M277.0842,-112.4554C314.0852,-101.9689 362.8396,-88.1515 397.5342,-78.3187"/>
<polygon fill="#191970" stroke="#191970" points="398.706,-81.6245 407.3727,-75.5303 396.7973,-74.8897 398.706,-81.6245"/>
</g>
<!-- Node6 -->
<g id="node7" class="node">
<title>Node6</title>
<polygon fill="none" stroke="#bfbfbf" points="66.5,-56.5 66.5,-75.5 161.5,-75.5 161.5,-56.5 66.5,-56.5"/>
<text text-anchor="middle" x="114" y="-63.5" font-family="Helvetica,sans-Serif" font-size="10.00" fill="#000000">unordered_map</text>
</g>
<!-- Node5&#45;&gt;Node6 -->
<g id="edge7" class="edge">
<title>Node5&#45;&gt;Node6</title>
<path fill="none" stroke="#191970" d="M197.091,-112.4554C179.7032,-102.734 157.1951,-90.15 139.9916,-80.5317"/>
<polygon fill="#191970" stroke="#191970" points="141.4826,-77.3554 131.0461,-75.5303 138.0665,-83.4653 141.4826,-77.3554"/>
</g>
<!-- Node7 -->
<g id="node8" class="node">
<title>Node7</title>
<polygon fill="none" stroke="#bfbfbf" points="180,-56.5 180,-75.5 238,-75.5 238,-56.5 180,-56.5"/>
<text text-anchor="middle" x="209" y="-63.5" font-family="Helvetica,sans-Serif" font-size="10.00" fill="#000000">ostream</text>
</g>
<!-- Node5&#45;&gt;Node7 -->
<g id="edge9" class="edge">
<title>Node5&#45;&gt;Node7</title>
<path fill="none" stroke="#191970" d="M220.2921,-112.2977C218.3401,-104.2945 215.923,-94.3843 213.8266,-85.7889"/>
<polygon fill="#191970" stroke="#191970" points="217.1716,-84.7328 211.4017,-75.8469 210.371,-86.3915 217.1716,-84.7328"/>
</g>
<!-- Node8 -->
<g id="node9" class="node">
<title>Node8</title>
<polygon fill="none" stroke="#bfbfbf" points="256.5,-56.5 256.5,-75.5 353.5,-75.5 353.5,-56.5 256.5,-56.5"/>
<text text-anchor="middle" x="305" y="-63.5" font-family="Helvetica,sans-Serif" font-size="10.00" fill="#000000">vulkan/vulkan.h</text>
</g>
<!-- Node5&#45;&gt;Node8 -->
<g id="edge11" class="edge">
<title>Node5&#45;&gt;Node8</title>
<path fill="none" stroke="#191970" d="M244.0225,-112.2977C256.086,-103.1384 271.4388,-91.4816 283.7211,-82.1562"/>
<polygon fill="#191970" stroke="#191970" points="286.1829,-84.6816 292.0309,-75.8469 281.9499,-79.1065 286.1829,-84.6816"/>
</g>
</g>
</svg>
