<?xml version="1.0" encoding="UTF-8" standalone="no"?>
<!DOCTYPE svg PUBLIC "-//W3C//DTD SVG 1.1//EN"
 "http://www.w3.org/Graphics/SVG/1.1/DTD/svg11.dtd">
<!-- Generated by graphviz version 2.40.1 (20161225.0304)
 -->
<!-- Title: src/lug/Graphics/Vulkan/API/CommandBuffer/RenderPass.cpp Pages: 1 -->
<!--zoomable 296 -->
<svg id="main" version="1.1" xmlns="http://www.w3.org/2000/svg" xmlns:xlink="http://www.w3.org/1999/xlink" xml:space="preserve" onload="init(evt)">
<style type="text/css"><![CDATA[
.edge:hover path { stroke: red; }
.edge:hover polygon { stroke: red; fill: red; }
]]></style>
<script type="text/javascript"><![CDATA[
var edges = document.getElementsByTagName('g');
if (edges && edges.length) {
  for (var i=0;i<edges.length;i++) {
    if (edges[i].id.substr(0,4)=='edge') {
      edges[i].setAttribute('class','edge');
    }
  }
}
]]></script>
        <defs>
                <circle id="rim" cx="0" cy="0" r="7"/>
                <circle id="rim2" cx="0" cy="0" r="3.5"/>
                <g id="zoomPlus">
                        <use xlink:href="#rim" fill="#404040">
                                <set attributeName="fill" to="#808080" begin="zoomplus.mouseover" end="zoomplus.mouseout"/>
                        </use>
                        <path d="M-4,0h8M0,-4v8" fill="none" stroke="white" stroke-width="1.5" pointer-events="none"/>
                </g>
                <g id="zoomMin">
                        <use xlink:href="#rim" fill="#404040">
                                <set attributeName="fill" to="#808080" begin="zoomminus.mouseover" end="zoomminus.mouseout"/>
                        </use>
                        <path d="M-4,0h8" fill="none" stroke="white" stroke-width="1.5" pointer-events="none"/>
                </g>
                <g id="dirArrow">
                        <path fill="none" stroke="white" stroke-width="1.5" d="M0,-3.0v7 M-2.5,-0.5L0,-3.0L2.5,-0.5"/>
                </g>
               <g id="resetDef">
                       <use xlink:href="#rim2" fill="#404040">
                               <set attributeName="fill" to="#808080" begin="reset.mouseover" end="reset.mouseout"/>
                       </use>
               </g>
        </defs>

<script type="text/javascript">
var viewWidth = 1637;
var viewHeight = 296;
var sectionId = 'dynsection-0';
</script>
<script xlink:href="svgpan.js"/>
<svg id="graph" class="graph">
<g id="viewport">
<title>src/lug/Graphics/Vulkan/API/CommandBuffer/RenderPass.cpp</title>
<!-- Node0 -->
<g id="node1" class="node">
<title>Node0</title>
<polygon fill="#bfbfbf" stroke="#000000" points="1096,-257.5 1096,-287.5 1302,-287.5 1302,-257.5 1096,-257.5"/>
<text text-anchor="start" x="1104" y="-275.5" font-family="Helvetica,sans-Serif" font-size="10.00" fill="#000000">src/lug/Graphics/Vulkan</text>
<text text-anchor="middle" x="1199" y="-264.5" font-family="Helvetica,sans-Serif" font-size="10.00" fill="#000000">/API/CommandBuffer/RenderPass.cpp</text>
</g>
<!-- Node1 -->
<g id="node2" class="node">
<title>Node1</title>
<g id="a_node2"><a xlink:href="CommandBuffer_8hpp.html" target="_top" xlink:title="lug/Graphics/Vulkan\l/API/CommandBuffer.hpp">
<polygon fill="none" stroke="#000000" points="820.5,-190.5 820.5,-220.5 965.5,-220.5 965.5,-190.5 820.5,-190.5"/>
<text text-anchor="start" x="828.5" y="-208.5" font-family="Helvetica,sans-Serif" font-size="10.00" fill="#000000">lug/Graphics/Vulkan</text>
<text text-anchor="middle" x="893" y="-197.5" font-family="Helvetica,sans-Serif" font-size="10.00" fill="#000000">/API/CommandBuffer.hpp</text>
</a>
</g>
</g>
<!-- Node0&#45;&gt;Node1 -->
<g id="edge1" class="edge">
<title>Node0&#45;&gt;Node1</title>
<path fill="none" stroke="#191970" d="M1130.3276,-257.4639C1083.2625,-247.1588 1020.7149,-233.4637 971.6473,-222.7202"/>
<polygon fill="#191970" stroke="#191970" points="972.2246,-219.2637 961.7074,-220.5438 970.7273,-226.1017 972.2246,-219.2637"/>
</g>
<!-- Node15 -->
<g id="node16" class="node">
<title>Node15</title>
<g id="a_node16"><a xlink:href="Framebuffer_8hpp.html" target="_top" xlink:title="lug/Graphics/Vulkan\l/API/Framebuffer.hpp">
<polygon fill="none" stroke="#000000" points="1136.5,-190.5 1136.5,-220.5 1261.5,-220.5 1261.5,-190.5 1136.5,-190.5"/>
<text text-anchor="start" x="1144.5" y="-208.5" font-family="Helvetica,sans-Serif" font-size="10.00" fill="#000000">lug/Graphics/Vulkan</text>
<text text-anchor="middle" x="1199" y="-197.5" font-family="Helvetica,sans-Serif" font-size="10.00" fill="#000000">/API/Framebuffer.hpp</text>
</a>
</g>
</g>
<!-- Node0&#45;&gt;Node15 -->
<g id="edge16" class="edge">
<title>Node0&#45;&gt;Node15</title>
<path fill="none" stroke="#191970" d="M1199,-257.2967C1199,-249.5013 1199,-239.7991 1199,-230.9064"/>
<polygon fill="#191970" stroke="#191970" points="1202.5001,-230.6431 1199,-220.6432 1195.5001,-230.6432 1202.5001,-230.6431"/>
</g>
<!-- Node16 -->
<g id="node17" class="node">
<title>Node16</title>
<g id="a_node17"><a xlink:href="RenderPass_8hpp.html" target="_top" xlink:title="lug/Graphics/Vulkan\l/API/RenderPass.hpp">
<polygon fill="none" stroke="#000000" points="1280,-190.5 1280,-220.5 1402,-220.5 1402,-190.5 1280,-190.5"/>
<text text-anchor="start" x="1288" y="-208.5" font-family="Helvetica,sans-Serif" font-size="10.00" fill="#000000">lug/Graphics/Vulkan</text>
<text text-anchor="middle" x="1341" y="-197.5" font-family="Helvetica,sans-Serif" font-size="10.00" fill="#000000">/API/RenderPass.hpp</text>
</a>
</g>
</g>
<!-- Node0&#45;&gt;Node16 -->
<g id="edge19" class="edge">
<title>Node0&#45;&gt;Node16</title>
<path fill="none" stroke="#191970" d="M1230.8676,-257.4639C1251.1875,-247.8763 1277.7262,-235.3545 1299.6605,-225.0052"/>
<polygon fill="#191970" stroke="#191970" points="1301.1972,-228.1503 1308.7475,-220.7177 1298.2101,-221.8196 1301.1972,-228.1503"/>
</g>
<!-- Node2 -->
<g id="node3" class="node">
<title>Node2</title>
<g id="a_node3"><a xlink:href="Graphics_2Export_8hpp.html" target="_top" xlink:title="lug/Graphics/Export.hpp">
<polygon fill="none" stroke="#000000" points="1120,-56.5 1120,-75.5 1258,-75.5 1258,-56.5 1120,-56.5"/>
<text text-anchor="middle" x="1189" y="-63.5" font-family="Helvetica,sans-Serif" font-size="10.00" fill="#000000">lug/Graphics/Export.hpp</text>
</a>
</g>
</g>
<!-- Node1&#45;&gt;Node2 -->
<g id="edge2" class="edge">
<title>Node1&#45;&gt;Node2</title>
<path fill="none" stroke="#191970" d="M965.773,-198.5405C1031.8224,-190.9001 1123.0334,-176.6199 1151,-154 1172.0701,-136.9581 1181.7106,-105.9894 1185.9367,-85.7076"/>
<polygon fill="#191970" stroke="#191970" points="1189.4115,-86.1619 1187.7657,-75.6956 1182.5255,-84.9038 1189.4115,-86.1619"/>
</g>
<!-- Node4 -->
<g id="node5" class="node">
<title>Node4</title>
<g id="a_node5"><a xlink:href="Vulkan_8hpp.html" target="_top" xlink:title="lug/Graphics/Vulkan\l/Vulkan.hpp">
<polygon fill="none" stroke="#000000" points="1274,-118 1274,-148 1392,-148 1392,-118 1274,-118"/>
<text text-anchor="start" x="1282" y="-136" font-family="Helvetica,sans-Serif" font-size="10.00" fill="#000000">lug/Graphics/Vulkan</text>
<text text-anchor="middle" x="1333" y="-125" font-family="Helvetica,sans-Serif" font-size="10.00" fill="#000000">/Vulkan.hpp</text>
</a>
</g>
</g>
<!-- Node1&#45;&gt;Node4 -->
<g id="edge4" class="edge">
<title>Node1&#45;&gt;Node4</title>
<path fill="none" stroke="#191970" d="M965.6571,-193.5281C1048.4026,-179.8939 1182.6146,-157.7794 1263.8651,-144.3915"/>
<polygon fill="#191970" stroke="#191970" points="1264.6936,-147.8023 1273.9915,-142.723 1263.5555,-140.8954 1264.6936,-147.8023"/>
</g>
<!-- Node9 -->
<g id="node10" class="node">
<title>Node9</title>
<g id="a_node10"><a xlink:href="CommandBuffer_2Buffer_8inl.html" target="_top" xlink:title="lug/Graphics/Vulkan\l/API/CommandBuffer/Buffer.inl">
<polygon fill="none" stroke="#000000" points="0,-118 0,-148 174,-148 174,-118 0,-118"/>
<text text-anchor="start" x="8" y="-136" font-family="Helvetica,sans-Serif" font-size="10.00" fill="#000000">lug/Graphics/Vulkan</text>
<text text-anchor="middle" x="87" y="-125" font-family="Helvetica,sans-Serif" font-size="10.00" fill="#000000">/API/CommandBuffer/Buffer.inl</text>
</a>
</g>
</g>
<!-- Node1&#45;&gt;Node9 -->
<g id="edge10" class="edge">
<title>Node1&#45;&gt;Node9</title>
<path fill="none" stroke="#191970" d="M820.3166,-203.6541C691.3598,-199.6178 414.32,-187.5146 183,-154 175.3426,-152.8906 167.3855,-151.5152 159.4751,-150.0028"/>
<polygon fill="#191970" stroke="#191970" points="159.9966,-146.5381 149.5064,-148.0237 158.6334,-153.4041 159.9966,-146.5381"/>
</g>
<!-- Node10 -->
<g id="node11" class="node">
<title>Node10</title>
<g id="a_node11"><a xlink:href="API_2CommandBuffer_2DescriptorSet_8inl.html" target="_top" xlink:title="lug/Graphics/Vulkan\l/API/CommandBuffer/Descriptor\lSet.inl">
<polygon fill="none" stroke="#000000" points="192.5,-112.5 192.5,-153.5 371.5,-153.5 371.5,-112.5 192.5,-112.5"/>
<text text-anchor="start" x="200.5" y="-141.5" font-family="Helvetica,sans-Serif" font-size="10.00" fill="#000000">lug/Graphics/Vulkan</text>
<text text-anchor="start" x="200.5" y="-130.5" font-family="Helvetica,sans-Serif" font-size="10.00" fill="#000000">/API/CommandBuffer/Descriptor</text>
<text text-anchor="middle" x="282" y="-119.5" font-family="Helvetica,sans-Serif" font-size="10.00" fill="#000000">Set.inl</text>
</a>
</g>
</g>
<!-- Node1&#45;&gt;Node10 -->
<g id="edge11" class="edge">
<title>Node1&#45;&gt;Node10</title>
<path fill="none" stroke="#191970" d="M820.4635,-200.7672C722.8351,-193.8296 543.6178,-179.0996 381.7884,-154.2039"/>
<polygon fill="#191970" stroke="#191970" points="382.0665,-150.7051 371.6474,-152.6267 380.9907,-157.622 382.0665,-150.7051"/>
</g>
<!-- Node11 -->
<g id="node12" class="node">
<title>Node11</title>
<g id="a_node12"><a xlink:href="CommandBuffer_2Image_8inl.html" target="_top" xlink:title="lug/Graphics/Vulkan\l/API/CommandBuffer/Image.inl">
<polygon fill="none" stroke="#000000" points="389.5,-118 389.5,-148 564.5,-148 564.5,-118 389.5,-118"/>
<text text-anchor="start" x="397.5" y="-136" font-family="Helvetica,sans-Serif" font-size="10.00" fill="#000000">lug/Graphics/Vulkan</text>
<text text-anchor="middle" x="477" y="-125" font-family="Helvetica,sans-Serif" font-size="10.00" fill="#000000">/API/CommandBuffer/Image.inl</text>
</a>
</g>
</g>
<!-- Node1&#45;&gt;Node11 -->
<g id="edge12" class="edge">
<title>Node1&#45;&gt;Node11</title>
<path fill="none" stroke="#191970" d="M820.3571,-194.9902C755.3666,-185.3067 657.5854,-170.0451 573,-154 566.5244,-152.7716 559.817,-151.4358 553.0952,-150.0528"/>
<polygon fill="#191970" stroke="#191970" points="553.7663,-146.6176 543.2621,-148 552.3358,-153.4698 553.7663,-146.6176"/>
</g>
<!-- Node12 -->
<g id="node13" class="node">
<title>Node12</title>
<g id="a_node13"><a xlink:href="RenderPass_8inl.html" target="_top" xlink:title="lug/Graphics/Vulkan\l/API/CommandBuffer/RenderPass.inl">
<polygon fill="none" stroke="#000000" points="582.5,-118 582.5,-148 783.5,-148 783.5,-118 582.5,-118"/>
<text text-anchor="start" x="590.5" y="-136" font-family="Helvetica,sans-Serif" font-size="10.00" fill="#000000">lug/Graphics/Vulkan</text>
<text text-anchor="middle" x="683" y="-125" font-family="Helvetica,sans-Serif" font-size="10.00" fill="#000000">/API/CommandBuffer/RenderPass.inl</text>
</a>
</g>
</g>
<!-- Node1&#45;&gt;Node12 -->
<g id="edge13" class="edge">
<title>Node1&#45;&gt;Node12</title>
<path fill="none" stroke="#191970" d="M849.4879,-190.478C816.544,-179.1045 771.1315,-163.4263 736.0563,-151.3171"/>
<polygon fill="#191970" stroke="#191970" points="737.0511,-147.9579 726.4564,-148.0028 734.7667,-154.5746 737.0511,-147.9579"/>
</g>
<!-- Node13 -->
<g id="node14" class="node">
<title>Node13</title>
<g id="a_node14"><a xlink:href="API_2CommandBuffer_2Pipeline_8inl.html" target="_top" xlink:title="lug/Graphics/Vulkan\l/API/CommandBuffer/Pipeline.inl">
<polygon fill="none" stroke="#000000" points="802,-118 802,-148 984,-148 984,-118 802,-118"/>
<text text-anchor="start" x="810" y="-136" font-family="Helvetica,sans-Serif" font-size="10.00" fill="#000000">lug/Graphics/Vulkan</text>
<text text-anchor="middle" x="893" y="-125" font-family="Helvetica,sans-Serif" font-size="10.00" fill="#000000">/API/CommandBuffer/Pipeline.inl</text>
</a>
</g>
</g>
<!-- Node1&#45;&gt;Node13 -->
<g id="edge14" class="edge">
<title>Node1&#45;&gt;Node13</title>
<path fill="none" stroke="#191970" d="M893,-190.478C893,-181.1459 893,-168.9157 893,-158.1368"/>
<polygon fill="#191970" stroke="#191970" points="896.5001,-158.0028 893,-148.0028 889.5001,-158.0028 896.5001,-158.0028"/>
</g>
<!-- Node14 -->
<g id="node15" class="node">
<title>Node14</title>
<g id="a_node15"><a xlink:href="CommandBuffer_8inl.html" target="_top" xlink:title="lug/Graphics/Vulkan\l/API/CommandBuffer.inl">
<polygon fill="none" stroke="#000000" points="1002.5,-118 1002.5,-148 1141.5,-148 1141.5,-118 1002.5,-118"/>
<text text-anchor="start" x="1010.5" y="-136" font-family="Helvetica,sans-Serif" font-size="10.00" fill="#000000">lug/Graphics/Vulkan</text>
<text text-anchor="middle" x="1072" y="-125" font-family="Helvetica,sans-Serif" font-size="10.00" fill="#000000">/API/CommandBuffer.inl</text>
</a>
</g>
</g>
<!-- Node1&#45;&gt;Node14 -->
<g id="edge15" class="edge">
<title>Node1&#45;&gt;Node14</title>
<path fill="none" stroke="#191970" d="M930.0889,-190.478C957.8097,-179.2503 995.8876,-163.8276 1025.6216,-151.7845"/>
<polygon fill="#191970" stroke="#191970" points="1027.0039,-155.0009 1034.9586,-148.0028 1024.376,-148.5129 1027.0039,-155.0009"/>
</g>
<!-- Node3 -->
<g id="node4" class="node">
<title>Node3</title>
<g id="a_node4"><a xlink:href="Config_8hpp.html" target="_top" xlink:title="lug/Config.hpp">
<polygon fill="none" stroke="#000000" points="1144.5,-.5 1144.5,-19.5 1233.5,-19.5 1233.5,-.5 1144.5,-.5"/>
<text text-anchor="middle" x="1189" y="-7.5" font-family="Helvetica,sans-Serif" font-size="10.00" fill="#000000">lug/Config.hpp</text>
</a>
</g>
</g>
<!-- Node2&#45;&gt;Node3 -->
<g id="edge3" class="edge">
<title>Node2&#45;&gt;Node3</title>
<path fill="none" stroke="#191970" d="M1189,-56.2455C1189,-48.9382 1189,-38.6944 1189,-29.7046"/>
<polygon fill="#191970" stroke="#191970" points="1192.5001,-29.6426 1189,-19.6427 1185.5001,-29.6427 1192.5001,-29.6426"/>
</g>
<!-- Node4&#45;&gt;Node2 -->
<g id="edge8" class="edge">
<title>Node4&#45;&gt;Node2</title>
<path fill="none" stroke="#191970" d="M1300.6836,-117.9639C1276.1957,-106.5702 1242.8016,-91.0327 1218.9216,-79.9219"/>
<polygon fill="#191970" stroke="#191970" points="1220.1844,-76.6492 1209.6413,-75.6039 1217.2314,-82.9958 1220.1844,-76.6492"/>
</g>
<!-- Node5 -->
<g id="node6" class="node">
<title>Node5</title>
<polygon fill="none" stroke="#bfbfbf" points="1467.5,-56.5 1467.5,-75.5 1562.5,-75.5 1562.5,-56.5 1467.5,-56.5"/>
<text text-anchor="middle" x="1515" y="-63.5" font-family="Helvetica,sans-Serif" font-size="10.00" fill="#000000">unordered_map</text>
</g>
<!-- Node4&#45;&gt;Node5 -->
<g id="edge5" class="edge">
<title>Node4&#45;&gt;Node5</title>
<path fill="none" stroke="#191970" d="M1373.8444,-117.9639C1405.5762,-106.2824 1449.1407,-90.2449 1479.4466,-79.0884"/>
<polygon fill="#191970" stroke="#191970" points="1481.0045,-82.2445 1489.1797,-75.5053 1478.5862,-75.6755 1481.0045,-82.2445"/>
</g>
<!-- Node6 -->
<g id="node7" class="node">
<title>Node6</title>
<polygon fill="none" stroke="#bfbfbf" points="1581,-56.5 1581,-75.5 1629,-75.5 1629,-56.5 1581,-56.5"/>
<text text-anchor="middle" x="1605" y="-63.5" font-family="Helvetica,sans-Serif" font-size="10.00" fill="#000000">vector</text>
</g>
<!-- Node4&#45;&gt;Node6 -->
<g id="edge6" class="edge">
<title>Node4&#45;&gt;Node6</title>
<path fill="none" stroke="#191970" d="M1380.3578,-117.996C1387.5789,-115.8798 1394.9669,-113.8113 1402,-112 1473.723,-93.5285 1495.4323,-95.0497 1570.9266,-76.1042"/>
<polygon fill="#191970" stroke="#191970" points="1572.0908,-79.4194 1580.9165,-73.5579 1570.3618,-72.6363 1572.0908,-79.4194"/>
</g>
<!-- Node7 -->
<g id="node8" class="node">
<title>Node7</title>
<polygon fill="none" stroke="#bfbfbf" points="1276,-56.5 1276,-75.5 1334,-75.5 1334,-56.5 1276,-56.5"/>
<text text-anchor="middle" x="1305" y="-63.5" font-family="Helvetica,sans-Serif" font-size="10.00" fill="#000000">ostream</text>
</g>
<!-- Node4&#45;&gt;Node7 -->
<g id="edge7" class="edge">
<title>Node4&#45;&gt;Node7</title>
<path fill="none" stroke="#191970" d="M1326.6464,-117.7967C1322.5803,-108.0672 1317.273,-95.3675 1312.9313,-84.9784"/>
<polygon fill="#191970" stroke="#191970" points="1316.0785,-83.4321 1308.9931,-75.555 1309.6198,-86.1313 1316.0785,-83.4321"/>
</g>
<!-- Node8 -->
<g id="node9" class="node">
<title>Node8</title>
<polygon fill="none" stroke="#bfbfbf" points="1352.5,-56.5 1352.5,-75.5 1449.5,-75.5 1449.5,-56.5 1352.5,-56.5"/>
<text text-anchor="middle" x="1401" y="-63.5" font-family="Helvetica,sans-Serif" font-size="10.00" fill="#000000">vulkan/vulkan.h</text>
</g>
<!-- Node4&#45;&gt;Node8 -->
<g id="edge9" class="edge">
<title>Node4&#45;&gt;Node8</title>
<path fill="none" stroke="#191970" d="M1348.4303,-117.7967C1359.025,-107.3578 1373.0899,-93.4997 1384.0054,-82.7446"/>
<polygon fill="#191970" stroke="#191970" points="1386.6356,-85.0666 1391.3024,-75.555 1381.7227,-80.0804 1386.6356,-85.0666"/>
</g>
<!-- Node15&#45;&gt;Node2 -->
<g id="edge17" class="edge">
<title>Node15&#45;&gt;Node2</title>
<path fill="none" stroke="#191970" d="M1197.9108,-190.3055C1196.0956,-164.9831 1192.452,-114.1556 1190.4316,-85.9709"/>
<polygon fill="#191970" stroke="#191970" points="1193.9041,-85.4607 1189.698,-75.7366 1186.922,-85.9613 1193.9041,-85.4607"/>
</g>
<!-- Node15&#45;&gt;Node4 -->
<g id="edge18" class="edge">
<title>Node15&#45;&gt;Node4</title>
<path fill="none" stroke="#191970" d="M1226.7649,-190.478C1246.8879,-179.5905 1274.3015,-164.7585 1296.2406,-152.8885"/>
<polygon fill="#191970" stroke="#191970" points="1298.141,-155.8398 1305.2707,-148.0028 1294.8099,-149.6831 1298.141,-155.8398"/>
</g>
<!-- Node16&#45;&gt;Node2 -->
<g id="edge21" class="edge">
<title>Node16&#45;&gt;Node2</title>
<path fill="none" stroke="#191970" d="M1315.1416,-190.3616C1299.8379,-180.8364 1280.4814,-167.7711 1265,-154 1240.5019,-132.2084 1216.4969,-102.6451 1202.2208,-83.9437"/>
<polygon fill="#191970" stroke="#191970" points="1204.8421,-81.606 1196.0345,-75.7173 1199.2474,-85.8132 1204.8421,-81.606"/>
</g>
<!-- Node16&#45;&gt;Node4 -->
<g id="edge22" class="edge">
<title>Node16&#45;&gt;Node4</title>
<path fill="none" stroke="#191970" d="M1339.3424,-190.478C1338.3126,-181.1459 1336.9631,-168.9157 1335.7737,-158.1368"/>
<polygon fill="#191970" stroke="#191970" points="1339.2312,-157.5586 1334.6555,-148.0028 1332.2735,-158.3264 1339.2312,-157.5586"/>
</g>
<!-- Node17 -->
<g id="node18" class="node">
<title>Node17</title>
<polygon fill="none" stroke="#bfbfbf" points="1410.5,-123.5 1410.5,-142.5 1469.5,-142.5 1469.5,-123.5 1410.5,-123.5"/>
<text text-anchor="middle" x="1440" y="-130.5" font-family="Helvetica,sans-Serif" font-size="10.00" fill="#000000">memory</text>
</g>
<!-- Node16&#45;&gt;Node17 -->
<g id="edge20" class="edge">
<title>Node16&#45;&gt;Node17</title>
<path fill="none" stroke="#191970" d="M1361.5129,-190.478C1378.2002,-178.2574 1401.6736,-161.0673 1418.5965,-148.6743"/>
<polygon fill="#191970" stroke="#191970" points="1420.7784,-151.4147 1426.7784,-142.6825 1416.6425,-145.7671 1420.7784,-151.4147"/>
</g>
</g>
</svg>
        <g id="navigator" transform="translate(0 0)" fill="#404254">
                <rect fill="#f2f5e9" fill-opacity="0.5" stroke="#606060" stroke-width=".5" x="0" y="0" width="60" height="60"/>
                <use id="zoomplus" xlink:href="#zoomPlus" x="17" y="9" onmousedown="handleZoom(evt,'in')"/>
                <use id="zoomminus" xlink:href="#zoomMin" x="42" y="9" onmousedown="handleZoom(evt,'out')"/>
                <use id="reset" xlink:href="#resetDef" x="30" y="36" onmousedown="handleReset()"/>
                <g id="arrowUp" xlink:href="#dirArrow" transform="translate(30 24)" onmousedown="handlePan(0,-1)">
                  <use xlink:href="#rim" fill="#404040">
                        <set attributeName="fill" to="#808080" begin="arrowUp.mouseover" end="arrowUp.mouseout"/>
                  </use>
                  <path fill="none" stroke="white" stroke-width="1.5" d="M0,-3.0v7 M-2.5,-0.5L0,-3.0L2.5,-0.5"/>
                </g>
                <g id="arrowRight" xlink:href="#dirArrow" transform="rotate(90) translate(36 -43)" onmousedown="handlePan(1,0)">
                  <use xlink:href="#rim" fill="#404040">
                        <set attributeName="fill" to="#808080" begin="arrowRight.mouseover" end="arrowRight.mouseout"/>
                  </use>
                  <path fill="none" stroke="white" stroke-width="1.5" d="M0,-3.0v7 M-2.5,-0.5L0,-3.0L2.5,-0.5"/>
                </g>
                <g id="arrowDown" xlink:href="#dirArrow" transform="rotate(180) translate(-30 -48)" onmousedown="handlePan(0,1)">
                  <use xlink:href="#rim" fill="#404040">
                        <set attributeName="fill" to="#808080" begin="arrowDown.mouseover" end="arrowDown.mouseout"/>
                  </use>
                  <path fill="none" stroke="white" stroke-width="1.5" d="M0,-3.0v7 M-2.5,-0.5L0,-3.0L2.5,-0.5"/>
                </g>
                <g id="arrowLeft" xlink:href="#dirArrow" transform="rotate(270) translate(-36 17)" onmousedown="handlePan(-1,0)">
                  <use xlink:href="#rim" fill="#404040">
                        <set attributeName="fill" to="#808080" begin="arrowLeft.mouseover" end="arrowLeft.mouseout"/>
                  </use>
                  <path fill="none" stroke="white" stroke-width="1.5" d="M0,-3.0v7 M-2.5,-0.5L0,-3.0L2.5,-0.5"/>
                </g>
        </g>
        <svg viewBox="0 0 15 15" width="100%" height="30px" preserveAspectRatio="xMaxYMin meet">
         <g id="arrow_out" transform="scale(0.3 0.3)">
          <a xlink:href="CommandBuffer_2RenderPass_8cpp__incl_org.svg" target="_base">
           <rect id="button" ry="5" rx="5" y="6" x="6" height="38" width="38"
                fill="#f2f5e9" fill-opacity="0.5" stroke="#606060" stroke-width="1.0"/>
           <path id="arrow"
             d="M 11.500037,31.436501 C 11.940474,20.09759 22.043105,11.32322 32.158766,21.979434 L 37.068811,17.246167 C 37.068811,17.246167 37.088388,32 37.088388,32 L 22.160133,31.978069 C 22.160133,31.978069 26.997745,27.140456 26.997745,27.140456 C 18.528582,18.264221 13.291696,25.230495 11.500037,31.436501 z"
             style="fill:#404040;"/>
          </a>
         </g>
        </svg>
</svg>
