<?xml version="1.0" encoding="UTF-8" standalone="no"?>
<!DOCTYPE svg PUBLIC "-//W3C//DTD SVG 1.1//EN"
 "http://www.w3.org/Graphics/SVG/1.1/DTD/svg11.dtd">
<!-- Generated by graphviz version 2.40.1 (20161225.0304)
 -->
<!-- Title: include/lug/Math/Constant.hpp Pages: 1 -->
<svg width="206pt" height="84pt"
 viewBox="0.00 0.00 206.00 84.00" xmlns="http://www.w3.org/2000/svg" xmlns:xlink="http://www.w3.org/1999/xlink">
<g id="graph0" class="graph" transform="scale(1 1) rotate(0) translate(4 80)">
<title>include/lug/Math/Constant.hpp</title>
<!-- Node0 -->
<g id="node1" class="node">
<title>Node0</title>
<polygon fill="#bfbfbf" stroke="#000000" points="0,-56.5 0,-75.5 170,-75.5 170,-56.5 0,-56.5"/>
<text text-anchor="middle" x="85" y="-63.5" font-family="Helvetica,sans-Serif" font-size="10.00" fill="#000000">include/lug/Math/Constant.hpp</text>
</g>
<!-- Node1 -->
<g id="node2" class="node">
<title>Node1</title>
<polygon fill="none" stroke="#bfbfbf" points="12,-.5 12,-19.5 56,-19.5 56,-.5 12,-.5"/>
<text text-anchor="middle" x="34" y="-7.5" font-family="Helvetica,sans-Serif" font-size="10.00" fill="#000000">limits</text>
</g>
<!-- Node0&#45;&gt;Node1 -->
<g id="edge1" class="edge">
<title>Node0&#45;&gt;Node1</title>
<path fill="none" stroke="#191970" d="M76.1165,-56.2455C68.8034,-48.2155 58.2609,-36.6394 49.5533,-27.0781"/>
<polygon fill="#191970" stroke="#191970" points="52.1028,-24.6795 42.7817,-19.6427 46.9273,-29.3928 52.1028,-24.6795"/>
</g>
<!-- Node2 -->
<g id="node3" class="node">
<title>Node2</title>
<g id="a_node3"><a xlink:href="Constant_8inl.html" target="_top" xlink:title="lug/Math/Constant.inl">
<polygon fill="none" stroke="#000000" points="74,-.5 74,-19.5 198,-19.5 198,-.5 74,-.5"/>
<text text-anchor="middle" x="136" y="-7.5" font-family="Helvetica,sans-Serif" font-size="10.00" fill="#000000">lug/Math/Constant.inl</text>
</a>
</g>
</g>
<!-- Node0&#45;&gt;Node2 -->
<g id="edge2" class="edge">
<title>Node0&#45;&gt;Node2</title>
<path fill="none" stroke="#191970" d="M93.8835,-56.2455C101.1966,-48.2155 111.7391,-36.6394 120.4467,-27.0781"/>
<polygon fill="#191970" stroke="#191970" points="123.0727,-29.3928 127.2183,-19.6427 117.8972,-24.6795 123.0727,-29.3928"/>
</g>
</g>
</svg>
