<?xml version="1.0" encoding="UTF-8" standalone="no"?>
<!DOCTYPE svg PUBLIC "-//W3C//DTD SVG 1.1//EN"
 "http://www.w3.org/Graphics/SVG/1.1/DTD/svg11.dtd">
<!-- Generated by graphviz version 2.40.1 (20161225.0304)
 -->
<!-- Title: include/lug/Core/Export.hpp Pages: 1 -->
<svg width="406pt" height="140pt"
 viewBox="0.00 0.00 405.50 140.00" xmlns="http://www.w3.org/2000/svg" xmlns:xlink="http://www.w3.org/1999/xlink">
<g id="graph0" class="graph" transform="scale(1 1) rotate(0) translate(4 136)">
<title>include/lug/Core/Export.hpp</title>
<!-- Node2 -->
<g id="node1" class="node">
<title>Node2</title>
<polygon fill="#bfbfbf" stroke="#000000" points="115,-112.5 115,-131.5 273,-131.5 273,-112.5 115,-112.5"/>
<text text-anchor="middle" x="194" y="-119.5" font-family="Helvetica,sans-Serif" font-size="10.00" fill="#000000">include/lug/Core/Export.hpp</text>
</g>
<!-- Node3 -->
<g id="node2" class="node">
<title>Node3</title>
<g id="a_node2"><a xlink:href="Application_8hpp.html" target="_top" xlink:title="include/lug/Core/Application.hpp">
<polygon fill="none" stroke="#000000" points="0,-56.5 0,-75.5 180,-75.5 180,-56.5 0,-56.5"/>
<text text-anchor="middle" x="90" y="-63.5" font-family="Helvetica,sans-Serif" font-size="10.00" fill="#000000">include/lug/Core/Application.hpp</text>
</a>
</g>
</g>
<!-- Node2&#45;&gt;Node3 -->
<g id="edge1" class="edge">
<title>Node2&#45;&gt;Node3</title>
<path fill="none" stroke="#191970" d="M166.9971,-107.46C148.3864,-97.4388 124.1701,-84.3993 107.9078,-75.6427"/>
<polygon fill="#191970" stroke="#191970" points="165.4205,-110.5861 175.8846,-112.2455 168.7392,-104.4228 165.4205,-110.5861"/>
</g>
<!-- Node5 -->
<g id="node4" class="node">
<title>Node5</title>
<g id="a_node4"><a xlink:href="FreeMovement_8hpp.html" target="_top" xlink:title="include/lug/Core/FreeMovement.hpp">
<polygon fill="none" stroke="#000000" points="198.5,-56.5 198.5,-75.5 397.5,-75.5 397.5,-56.5 198.5,-56.5"/>
<text text-anchor="middle" x="298" y="-63.5" font-family="Helvetica,sans-Serif" font-size="10.00" fill="#000000">include/lug/Core/FreeMovement.hpp</text>
</a>
</g>
</g>
<!-- Node2&#45;&gt;Node5 -->
<g id="edge3" class="edge">
<title>Node2&#45;&gt;Node5</title>
<path fill="none" stroke="#191970" d="M221.0029,-107.46C239.6136,-97.4388 263.8299,-84.3993 280.0922,-75.6427"/>
<polygon fill="#191970" stroke="#191970" points="219.2608,-104.4228 212.1154,-112.2455 222.5795,-110.5861 219.2608,-104.4228"/>
</g>
<!-- Node4 -->
<g id="node3" class="node">
<title>Node4</title>
<g id="a_node3"><a xlink:href="Application_8cpp.html" target="_top" xlink:title="src/lug/Core/Application.cpp">
<polygon fill="none" stroke="#000000" points="10.5,-.5 10.5,-19.5 169.5,-19.5 169.5,-.5 10.5,-.5"/>
<text text-anchor="middle" x="90" y="-7.5" font-family="Helvetica,sans-Serif" font-size="10.00" fill="#000000">src/lug/Core/Application.cpp</text>
</a>
</g>
</g>
<!-- Node3&#45;&gt;Node4 -->
<g id="edge2" class="edge">
<title>Node3&#45;&gt;Node4</title>
<path fill="none" stroke="#191970" d="M90,-46.1575C90,-37.155 90,-26.9199 90,-19.6427"/>
<polygon fill="#191970" stroke="#191970" points="86.5001,-46.2455 90,-56.2455 93.5001,-46.2456 86.5001,-46.2455"/>
</g>
<!-- Node6 -->
<g id="node5" class="node">
<title>Node6</title>
<g id="a_node5"><a xlink:href="FreeMovement_8cpp.html" target="_top" xlink:title="src/lug/Core/FreeMovement.cpp">
<polygon fill="none" stroke="#000000" points="209,-.5 209,-19.5 387,-19.5 387,-.5 209,-.5"/>
<text text-anchor="middle" x="298" y="-7.5" font-family="Helvetica,sans-Serif" font-size="10.00" fill="#000000">src/lug/Core/FreeMovement.cpp</text>
</a>
</g>
</g>
<!-- Node5&#45;&gt;Node6 -->
<g id="edge4" class="edge">
<title>Node5&#45;&gt;Node6</title>
<path fill="none" stroke="#191970" d="M298,-46.1575C298,-37.155 298,-26.9199 298,-19.6427"/>
<polygon fill="#191970" stroke="#191970" points="294.5001,-46.2455 298,-56.2455 301.5001,-46.2456 294.5001,-46.2455"/>
</g>
</g>
</svg>
