<?xml version="1.0" encoding="UTF-8" standalone="no"?>
<!DOCTYPE svg PUBLIC "-//W3C//DTD SVG 1.1//EN"
 "http://www.w3.org/Graphics/SVG/1.1/DTD/svg11.dtd">
<!-- Generated by graphviz version 2.40.1 (20161225.0304)
 -->
<!-- Title: include/lug/Graphics/Vulkan/API/DescriptorSet.hpp Pages: 1 -->
<!--zoomable 352 -->
<svg id="main" version="1.1" xmlns="http://www.w3.org/2000/svg" xmlns:xlink="http://www.w3.org/1999/xlink" xml:space="preserve" onload="init(evt)">
<style type="text/css"><![CDATA[
.edge:hover path { stroke: red; }
.edge:hover polygon { stroke: red; fill: red; }
]]></style>
<script type="text/javascript"><![CDATA[
var edges = document.getElementsByTagName('g');
if (edges && edges.length) {
  for (var i=0;i<edges.length;i++) {
    if (edges[i].id.substr(0,4)=='edge') {
      edges[i].setAttribute('class','edge');
    }
  }
}
]]></script>
        <defs>
                <circle id="rim" cx="0" cy="0" r="7"/>
                <circle id="rim2" cx="0" cy="0" r="3.5"/>
                <g id="zoomPlus">
                        <use xlink:href="#rim" fill="#404040">
                                <set attributeName="fill" to="#808080" begin="zoomplus.mouseover" end="zoomplus.mouseout"/>
                        </use>
                        <path d="M-4,0h8M0,-4v8" fill="none" stroke="white" stroke-width="1.5" pointer-events="none"/>
                </g>
                <g id="zoomMin">
                        <use xlink:href="#rim" fill="#404040">
                                <set attributeName="fill" to="#808080" begin="zoomminus.mouseover" end="zoomminus.mouseout"/>
                        </use>
                        <path d="M-4,0h8" fill="none" stroke="white" stroke-width="1.5" pointer-events="none"/>
                </g>
                <g id="dirArrow">
                        <path fill="none" stroke="white" stroke-width="1.5" d="M0,-3.0v7 M-2.5,-0.5L0,-3.0L2.5,-0.5"/>
                </g>
               <g id="resetDef">
                       <use xlink:href="#rim2" fill="#404040">
                               <set attributeName="fill" to="#808080" begin="reset.mouseover" end="reset.mouseout"/>
                       </use>
               </g>
        </defs>

<script type="text/javascript">
var viewWidth = 598;
var viewHeight = 352;
var sectionId = 'dynsection-0';
</script>
<script xlink:href="svgpan.js"/>
<svg id="graph" class="graph">
<g id="viewport">
<title>include/lug/Graphics/Vulkan/API/DescriptorSet.hpp</title>
<!-- Node0 -->
<g id="node1" class="node">
<title>Node0</title>
<polygon fill="#bfbfbf" stroke="#000000" points="190.0427,-313.5 190.0427,-343.5 360.0427,-343.5 360.0427,-313.5 190.0427,-313.5"/>
<text text-anchor="start" x="198.0427" y="-331.5" font-family="Helvetica,sans-Serif" font-size="10.00" fill="#000000">include/lug/Graphics</text>
<text text-anchor="middle" x="275.0427" y="-320.5" font-family="Helvetica,sans-Serif" font-size="10.00" fill="#000000">/Vulkan/API/DescriptorSet.hpp</text>
</g>
<!-- Node1 -->
<g id="node2" class="node">
<title>Node1</title>
<g id="a_node2"><a xlink:href="Graphics_2Export_8hpp.html" target="_top" xlink:title="lug/Graphics/Export.hpp">
<polygon fill="none" stroke="#000000" points="81.0427,-56.5 81.0427,-75.5 219.0427,-75.5 219.0427,-56.5 81.0427,-56.5"/>
<text text-anchor="middle" x="150.0427" y="-63.5" font-family="Helvetica,sans-Serif" font-size="10.00" fill="#000000">lug/Graphics/Export.hpp</text>
</a>
</g>
</g>
<!-- Node0&#45;&gt;Node1 -->
<g id="edge1" class="edge">
<title>Node0&#45;&gt;Node1</title>
<path fill="none" stroke="#191970" d="M189.7836,-318.0814C131.7374,-309.4983 61.3689,-295.698 38.0427,-277 12.4417,-256.4785 14.0965,-242.0435 7.0427,-210 -2.461,-166.8276 -5.5888,-144.8047 24.0427,-112 38.6635,-95.8135 59.453,-85.3137 79.9398,-78.5061"/>
<polygon fill="#191970" stroke="#191970" points="81.0872,-81.8153 89.6248,-75.5417 79.0383,-75.1218 81.0872,-81.8153"/>
</g>
<!-- Node3 -->
<g id="node4" class="node">
<title>Node3</title>
<g id="a_node4"><a xlink:href="Buffer_8hpp.html" target="_top" xlink:title="lug/Graphics/Vulkan\l/API/Buffer.hpp">
<polygon fill="none" stroke="#000000" points="216.0427,-179.5 216.0427,-209.5 334.0427,-209.5 334.0427,-179.5 216.0427,-179.5"/>
<text text-anchor="start" x="224.0427" y="-197.5" font-family="Helvetica,sans-Serif" font-size="10.00" fill="#000000">lug/Graphics/Vulkan</text>
<text text-anchor="middle" x="275.0427" y="-186.5" font-family="Helvetica,sans-Serif" font-size="10.00" fill="#000000">/API/Buffer.hpp</text>
</a>
</g>
</g>
<!-- Node0&#45;&gt;Node3 -->
<g id="edge3" class="edge">
<title>Node0&#45;&gt;Node3</title>
<path fill="none" stroke="#191970" d="M275.0427,-313.389C275.0427,-290.6691 275.0427,-247.438 275.0427,-219.8405"/>
<polygon fill="#191970" stroke="#191970" points="278.5428,-219.7614 275.0427,-209.7614 271.5428,-219.7614 278.5428,-219.7614"/>
</g>
<!-- Node5 -->
<g id="node6" class="node">
<title>Node5</title>
<g id="a_node6"><a xlink:href="Vulkan_8hpp.html" target="_top" xlink:title="lug/Graphics/Vulkan\l/Vulkan.hpp">
<polygon fill="none" stroke="#000000" points="303.0427,-112.5 303.0427,-142.5 421.0427,-142.5 421.0427,-112.5 303.0427,-112.5"/>
<text text-anchor="start" x="311.0427" y="-130.5" font-family="Helvetica,sans-Serif" font-size="10.00" fill="#000000">lug/Graphics/Vulkan</text>
<text text-anchor="middle" x="362.0427" y="-119.5" font-family="Helvetica,sans-Serif" font-size="10.00" fill="#000000">/Vulkan.hpp</text>
</a>
</g>
</g>
<!-- Node0&#45;&gt;Node5 -->
<g id="edge23" class="edge">
<title>Node0&#45;&gt;Node5</title>
<path fill="none" stroke="#191970" d="M360.0874,-316.1074C422.9415,-302.0101 504.3809,-272.2516 545.0427,-210 575.7963,-162.9173 495.0682,-142.4112 431.1819,-133.6844"/>
<polygon fill="#191970" stroke="#191970" points="431.4585,-130.1912 421.0928,-132.3827 430.5627,-137.1337 431.4585,-130.1912"/>
</g>
<!-- Node10 -->
<g id="node11" class="node">
<title>Node10</title>
<g id="a_node11"><a xlink:href="CommandBuffer_8hpp.html" target="_top" xlink:title="lug/Graphics/Vulkan\l/API/CommandBuffer.hpp">
<polygon fill="none" stroke="#000000" points="390.5427,-179.5 390.5427,-209.5 535.5427,-209.5 535.5427,-179.5 390.5427,-179.5"/>
<text text-anchor="start" x="398.5427" y="-197.5" font-family="Helvetica,sans-Serif" font-size="10.00" fill="#000000">lug/Graphics/Vulkan</text>
<text text-anchor="middle" x="463.0427" y="-186.5" font-family="Helvetica,sans-Serif" font-size="10.00" fill="#000000">/API/CommandBuffer.hpp</text>
</a>
</g>
</g>
<!-- Node0&#45;&gt;Node10 -->
<g id="edge12" class="edge">
<title>Node0&#45;&gt;Node10</title>
<path fill="none" stroke="#191970" d="M296.2432,-313.389C329.9006,-289.3991 395.6422,-242.5408 433.7688,-215.3655"/>
<polygon fill="#191970" stroke="#191970" points="435.8079,-218.2101 441.9196,-209.5558 431.7449,-212.5099 435.8079,-218.2101"/>
</g>
<!-- Node11 -->
<g id="node12" class="node">
<title>Node11</title>
<g id="a_node12"><a xlink:href="PipelineLayout_8hpp.html" target="_top" xlink:title="lug/Graphics/Vulkan\l/API/PipelineLayout.hpp">
<polygon fill="none" stroke="#000000" points="47.0427,-246.5 47.0427,-276.5 183.0427,-276.5 183.0427,-246.5 47.0427,-246.5"/>
<text text-anchor="start" x="55.0427" y="-264.5" font-family="Helvetica,sans-Serif" font-size="10.00" fill="#000000">lug/Graphics/Vulkan</text>
<text text-anchor="middle" x="115.0427" y="-253.5" font-family="Helvetica,sans-Serif" font-size="10.00" fill="#000000">/API/PipelineLayout.hpp</text>
</a>
</g>
</g>
<!-- Node0&#45;&gt;Node11 -->
<g id="edge15" class="edge">
<title>Node0&#45;&gt;Node11</title>
<path fill="none" stroke="#191970" d="M239.1356,-313.4639C215.8516,-303.7137 185.3207,-290.9289 160.3693,-280.4805"/>
<polygon fill="#191970" stroke="#191970" points="161.6823,-277.2359 151.1064,-276.6017 158.9785,-283.6926 161.6823,-277.2359"/>
</g>
<!-- Node2 -->
<g id="node3" class="node">
<title>Node2</title>
<g id="a_node3"><a xlink:href="Config_8hpp.html" target="_top" xlink:title="lug/Config.hpp">
<polygon fill="none" stroke="#000000" points="105.5427,-.5 105.5427,-19.5 194.5427,-19.5 194.5427,-.5 105.5427,-.5"/>
<text text-anchor="middle" x="150.0427" y="-7.5" font-family="Helvetica,sans-Serif" font-size="10.00" fill="#000000">lug/Config.hpp</text>
</a>
</g>
</g>
<!-- Node1&#45;&gt;Node2 -->
<g id="edge2" class="edge">
<title>Node1&#45;&gt;Node2</title>
<path fill="none" stroke="#191970" d="M150.0427,-56.2455C150.0427,-48.9382 150.0427,-38.6944 150.0427,-29.7046"/>
<polygon fill="#191970" stroke="#191970" points="153.5428,-29.6426 150.0427,-19.6427 146.5428,-29.6427 153.5428,-29.6426"/>
</g>
<!-- Node3&#45;&gt;Node1 -->
<g id="edge5" class="edge">
<title>Node3&#45;&gt;Node1</title>
<path fill="none" stroke="#191970" d="M260.2127,-179.2548C236.754,-155.1393 191.2361,-108.3468 166.691,-83.1145"/>
<polygon fill="#191970" stroke="#191970" points="168.9949,-80.4634 159.5133,-75.7358 163.9773,-85.3443 168.9949,-80.4634"/>
</g>
<!-- Node4 -->
<g id="node5" class="node">
<title>Node4</title>
<polygon fill="none" stroke="#bfbfbf" points="62.5427,-118 62.5427,-137 121.5427,-137 121.5427,-118 62.5427,-118"/>
<text text-anchor="middle" x="92.0427" y="-125" font-family="Helvetica,sans-Serif" font-size="10.00" fill="#000000">memory</text>
</g>
<!-- Node3&#45;&gt;Node4 -->
<g id="edge4" class="edge">
<title>Node3&#45;&gt;Node4</title>
<path fill="none" stroke="#191970" d="M233.9739,-179.4639C202.0677,-167.7824 158.2639,-151.7449 127.7915,-140.5884"/>
<polygon fill="#191970" stroke="#191970" points="128.5987,-137.1567 118.0049,-137.0053 126.192,-143.73 128.5987,-137.1567"/>
</g>
<!-- Node3&#45;&gt;Node5 -->
<g id="edge6" class="edge">
<title>Node3&#45;&gt;Node5</title>
<path fill="none" stroke="#191970" d="M294.7843,-179.2967C306.464,-170.302 321.44,-158.7687 334.2944,-148.8694"/>
<polygon fill="#191970" stroke="#191970" points="336.5918,-151.5177 342.3792,-142.6432 332.3208,-145.9717 336.5918,-151.5177"/>
</g>
<!-- Node5&#45;&gt;Node1 -->
<g id="edge10" class="edge">
<title>Node5&#45;&gt;Node1</title>
<path fill="none" stroke="#191970" d="M310.1817,-112.4554C274.0332,-101.9689 226.4022,-88.1515 192.507,-78.3187"/>
<polygon fill="#191970" stroke="#191970" points="193.4744,-74.9551 182.8952,-75.5303 191.5241,-81.6779 193.4744,-74.9551"/>
</g>
<!-- Node6 -->
<g id="node7" class="node">
<title>Node6</title>
<polygon fill="none" stroke="#bfbfbf" points="428.5427,-56.5 428.5427,-75.5 523.5427,-75.5 523.5427,-56.5 428.5427,-56.5"/>
<text text-anchor="middle" x="476.0427" y="-63.5" font-family="Helvetica,sans-Serif" font-size="10.00" fill="#000000">unordered_map</text>
</g>
<!-- Node5&#45;&gt;Node6 -->
<g id="edge7" class="edge">
<title>Node5&#45;&gt;Node6</title>
<path fill="none" stroke="#191970" d="M389.9302,-112.4554C407.9503,-102.734 431.2768,-90.15 449.1059,-80.5317"/>
<polygon fill="#191970" stroke="#191970" points="451.2375,-83.3586 458.3767,-75.5303 447.914,-77.1979 451.2375,-83.3586"/>
</g>
<!-- Node7 -->
<g id="node8" class="node">
<title>Node7</title>
<polygon fill="none" stroke="#bfbfbf" points="542.0427,-56.5 542.0427,-75.5 590.0427,-75.5 590.0427,-56.5 542.0427,-56.5"/>
<text text-anchor="middle" x="566.0427" y="-63.5" font-family="Helvetica,sans-Serif" font-size="10.00" fill="#000000">vector</text>
</g>
<!-- Node5&#45;&gt;Node7 -->
<g id="edge8" class="edge">
<title>Node5&#45;&gt;Node7</title>
<path fill="none" stroke="#191970" d="M412.1817,-112.4242C444.0037,-102.8503 486.3098,-90.112 532.0773,-76.2886"/>
<polygon fill="#191970" stroke="#191970" points="533.3331,-79.5655 541.8936,-73.3231 531.3087,-72.8646 533.3331,-79.5655"/>
</g>
<!-- Node8 -->
<g id="node9" class="node">
<title>Node8</title>
<polygon fill="none" stroke="#bfbfbf" points="237.0427,-56.5 237.0427,-75.5 295.0427,-75.5 295.0427,-56.5 237.0427,-56.5"/>
<text text-anchor="middle" x="266.0427" y="-63.5" font-family="Helvetica,sans-Serif" font-size="10.00" fill="#000000">ostream</text>
</g>
<!-- Node5&#45;&gt;Node8 -->
<g id="edge9" class="edge">
<title>Node5&#45;&gt;Node8</title>
<path fill="none" stroke="#191970" d="M338.3124,-112.2977C323.5065,-102.8127 304.5199,-90.6495 289.7234,-81.1705"/>
<polygon fill="#191970" stroke="#191970" points="291.4352,-78.1105 281.1268,-75.6633 287.6592,-84.0047 291.4352,-78.1105"/>
</g>
<!-- Node9 -->
<g id="node10" class="node">
<title>Node9</title>
<polygon fill="none" stroke="#bfbfbf" points="313.5427,-56.5 313.5427,-75.5 410.5427,-75.5 410.5427,-56.5 313.5427,-56.5"/>
<text text-anchor="middle" x="362.0427" y="-63.5" font-family="Helvetica,sans-Serif" font-size="10.00" fill="#000000">vulkan/vulkan.h</text>
</g>
<!-- Node5&#45;&gt;Node9 -->
<g id="edge11" class="edge">
<title>Node5&#45;&gt;Node9</title>
<path fill="none" stroke="#191970" d="M362.0427,-112.2977C362.0427,-104.3834 362.0427,-94.6043 362.0427,-86.0759"/>
<polygon fill="#191970" stroke="#191970" points="365.5428,-85.8469 362.0427,-75.8469 358.5428,-85.847 365.5428,-85.8469"/>
</g>
<!-- Node10&#45;&gt;Node1 -->
<g id="edge13" class="edge">
<title>Node10&#45;&gt;Node1</title>
<path fill="none" stroke="#191970" d="M403.784,-179.4996C370.9059,-170.4216 329.5958,-157.7564 294.0427,-143 250.2869,-124.839 202.2963,-97.5775 174.2444,-80.8351"/>
<polygon fill="#191970" stroke="#191970" points="175.9029,-77.7483 165.5304,-75.5889 172.2924,-83.7453 175.9029,-77.7483"/>
</g>
<!-- Node10&#45;&gt;Node5 -->
<g id="edge14" class="edge">
<title>Node10&#45;&gt;Node5</title>
<path fill="none" stroke="#191970" d="M440.3763,-179.4639C426.5687,-170.3044 408.7238,-158.4667 393.5545,-148.4038"/>
<polygon fill="#191970" stroke="#191970" points="395.2509,-145.3291 384.9829,-142.7177 391.3813,-151.1623 395.2509,-145.3291"/>
</g>
<!-- Node11&#45;&gt;Node1 -->
<g id="edge17" class="edge">
<title>Node11&#45;&gt;Node1</title>
<path fill="none" stroke="#191970" d="M61.2766,-246.4745C43.3951,-238.6361 25.4134,-227.006 15.0427,-210 7.8693,-198.2369 11.5278,-192.3219 15.0427,-179 23.7761,-145.899 27.9673,-135.3061 53.0427,-112 68.737,-97.4131 89.8968,-86.6508 108.4484,-79.2197"/>
<polygon fill="#191970" stroke="#191970" points="109.7679,-82.4625 117.8692,-75.6347 107.2783,-75.9202 109.7679,-82.4625"/>
</g>
<!-- Node11&#45;&gt;Node4 -->
<g id="edge16" class="edge">
<title>Node11&#45;&gt;Node4</title>
<path fill="none" stroke="#191970" d="M67.4069,-246.4168C50.3151,-238.445 32.8554,-226.7385 23.0427,-210 16.0748,-198.1141 16.8668,-191.3161 23.0427,-179 31.0675,-162.9968 46.6857,-150.6956 61.0361,-142.135"/>
<polygon fill="#191970" stroke="#191970" points="63.1493,-144.9649 70.1906,-137.0484 59.7494,-138.846 63.1493,-144.9649"/>
</g>
<!-- Node11&#45;&gt;Node5 -->
<g id="edge22" class="edge">
<title>Node11&#45;&gt;Node5</title>
<path fill="none" stroke="#191970" d="M183.101,-254.1393C241.8752,-246.3901 320.7575,-232.1916 343.0427,-210 358.0172,-195.0884 362.1645,-170.9026 362.923,-152.564"/>
<polygon fill="#191970" stroke="#191970" points="366.4227,-152.5948 363.0342,-142.5565 359.4232,-152.517 366.4227,-152.5948"/>
</g>
<!-- Node12 -->
<g id="node13" class="node">
<title>Node12</title>
<g id="a_node13"><a xlink:href="DescriptorSetLayout_8hpp.html" target="_top" xlink:title="lug/Graphics/Vulkan\l/API/DescriptorSetLayout.hpp">
<polygon fill="none" stroke="#000000" points="32.5427,-179.5 32.5427,-209.5 197.5427,-209.5 197.5427,-179.5 32.5427,-179.5"/>
<text text-anchor="start" x="40.5427" y="-197.5" font-family="Helvetica,sans-Serif" font-size="10.00" fill="#000000">lug/Graphics/Vulkan</text>
<text text-anchor="middle" x="115.0427" y="-186.5" font-family="Helvetica,sans-Serif" font-size="10.00" fill="#000000">/API/DescriptorSetLayout.hpp</text>
</a>
</g>
</g>
<!-- Node11&#45;&gt;Node12 -->
<g id="edge18" class="edge">
<title>Node11&#45;&gt;Node12</title>
<path fill="none" stroke="#191970" d="M115.0427,-246.2967C115.0427,-238.5013 115.0427,-228.7991 115.0427,-219.9064"/>
<polygon fill="#191970" stroke="#191970" points="118.5428,-219.6431 115.0427,-209.6432 111.5428,-219.6432 118.5428,-219.6431"/>
</g>
<!-- Node12&#45;&gt;Node1 -->
<g id="edge20" class="edge">
<title>Node12&#45;&gt;Node1</title>
<path fill="none" stroke="#191970" d="M120.0422,-179.2467C123.3249,-169.0344 127.6271,-155.2664 131.0427,-143 136.4519,-123.5739 141.8904,-101.174 145.5543,-85.5606"/>
<polygon fill="#191970" stroke="#191970" points="149.0307,-86.0631 147.8828,-75.5306 142.212,-84.48 149.0307,-86.0631"/>
</g>
<!-- Node12&#45;&gt;Node4 -->
<g id="edge19" class="edge">
<title>Node12&#45;&gt;Node4</title>
<path fill="none" stroke="#191970" d="M109.8236,-179.2967C106.5185,-169.6685 102.2148,-157.1318 98.6694,-146.8038"/>
<polygon fill="#191970" stroke="#191970" points="101.8801,-145.3768 95.3228,-137.055 95.2593,-147.6496 101.8801,-145.3768"/>
</g>
<!-- Node12&#45;&gt;Node5 -->
<g id="edge21" class="edge">
<title>Node12&#45;&gt;Node5</title>
<path fill="none" stroke="#191970" d="M170.4743,-179.4639C207.8441,-169.3272 257.306,-155.9104 296.6093,-145.2491"/>
<polygon fill="#191970" stroke="#191970" points="297.6344,-148.5976 306.3693,-142.6017 295.8018,-141.8418 297.6344,-148.5976"/>
</g>
</g>
</svg>
        <g id="navigator" transform="translate(0 0)" fill="#404254">
                <rect fill="#f2f5e9" fill-opacity="0.5" stroke="#606060" stroke-width=".5" x="0" y="0" width="60" height="60"/>
                <use id="zoomplus" xlink:href="#zoomPlus" x="17" y="9" onmousedown="handleZoom(evt,'in')"/>
                <use id="zoomminus" xlink:href="#zoomMin" x="42" y="9" onmousedown="handleZoom(evt,'out')"/>
                <use id="reset" xlink:href="#resetDef" x="30" y="36" onmousedown="handleReset()"/>
                <g id="arrowUp" xlink:href="#dirArrow" transform="translate(30 24)" onmousedown="handlePan(0,-1)">
                  <use xlink:href="#rim" fill="#404040">
                        <set attributeName="fill" to="#808080" begin="arrowUp.mouseover" end="arrowUp.mouseout"/>
                  </use>
                  <path fill="none" stroke="white" stroke-width="1.5" d="M0,-3.0v7 M-2.5,-0.5L0,-3.0L2.5,-0.5"/>
                </g>
                <g id="arrowRight" xlink:href="#dirArrow" transform="rotate(90) translate(36 -43)" onmousedown="handlePan(1,0)">
                  <use xlink:href="#rim" fill="#404040">
                        <set attributeName="fill" to="#808080" begin="arrowRight.mouseover" end="arrowRight.mouseout"/>
                  </use>
                  <path fill="none" stroke="white" stroke-width="1.5" d="M0,-3.0v7 M-2.5,-0.5L0,-3.0L2.5,-0.5"/>
                </g>
                <g id="arrowDown" xlink:href="#dirArrow" transform="rotate(180) translate(-30 -48)" onmousedown="handlePan(0,1)">
                  <use xlink:href="#rim" fill="#404040">
                        <set attributeName="fill" to="#808080" begin="arrowDown.mouseover" end="arrowDown.mouseout"/>
                  </use>
                  <path fill="none" stroke="white" stroke-width="1.5" d="M0,-3.0v7 M-2.5,-0.5L0,-3.0L2.5,-0.5"/>
                </g>
                <g id="arrowLeft" xlink:href="#dirArrow" transform="rotate(270) translate(-36 17)" onmousedown="handlePan(-1,0)">
                  <use xlink:href="#rim" fill="#404040">
                        <set attributeName="fill" to="#808080" begin="arrowLeft.mouseover" end="arrowLeft.mouseout"/>
                  </use>
                  <path fill="none" stroke="white" stroke-width="1.5" d="M0,-3.0v7 M-2.5,-0.5L0,-3.0L2.5,-0.5"/>
                </g>
        </g>
        <svg viewBox="0 0 15 15" width="100%" height="30px" preserveAspectRatio="xMaxYMin meet">
         <g id="arrow_out" transform="scale(0.3 0.3)">
          <a xlink:href="DescriptorSet_8hpp__incl_org.svg" target="_base">
           <rect id="button" ry="5" rx="5" y="6" x="6" height="38" width="38"
                fill="#f2f5e9" fill-opacity="0.5" stroke="#606060" stroke-width="1.0"/>
           <path id="arrow"
             d="M 11.500037,31.436501 C 11.940474,20.09759 22.043105,11.32322 32.158766,21.979434 L 37.068811,17.246167 C 37.068811,17.246167 37.088388,32 37.088388,32 L 22.160133,31.978069 C 22.160133,31.978069 26.997745,27.140456 26.997745,27.140456 C 18.528582,18.264221 13.291696,25.230495 11.500037,31.436501 z"
             style="fill:#404040;"/>
          </a>
         </g>
        </svg>
</svg>
