<?xml version="1.0" encoding="UTF-8" standalone="no"?>
<!DOCTYPE svg PUBLIC "-//W3C//DTD SVG 1.1//EN"
 "http://www.w3.org/Graphics/SVG/1.1/DTD/svg11.dtd">
<!-- Generated by graphviz version 2.40.1 (20161225.0304)
 -->
<!-- Title: include/lug/Graphics/Vulkan/API/DescriptorSet.hpp Pages: 1 -->
<svg width="1117pt" height="329pt"
 viewBox="0.00 0.00 1117.00 329.00" xmlns="http://www.w3.org/2000/svg" xmlns:xlink="http://www.w3.org/1999/xlink">
<g id="graph0" class="graph" transform="scale(1 1) rotate(0) translate(4 325)">
<title>include/lug/Graphics/Vulkan/API/DescriptorSet.hpp</title>
<!-- Node13 -->
<g id="node1" class="node">
<title>Node13</title>
<polygon fill="#bfbfbf" stroke="#000000" points="207.5,-290.5 207.5,-320.5 377.5,-320.5 377.5,-290.5 207.5,-290.5"/>
<text text-anchor="start" x="215.5" y="-308.5" font-family="Helvetica,sans-Serif" font-size="10.00" fill="#000000">include/lug/Graphics</text>
<text text-anchor="middle" x="292.5" y="-297.5" font-family="Helvetica,sans-Serif" font-size="10.00" fill="#000000">/Vulkan/API/DescriptorSet.hpp</text>
</g>
<!-- Node14 -->
<g id="node2" class="node">
<title>Node14</title>
<g id="a_node2"><a xlink:href="DescriptorPool_8hpp.html" target="_top" xlink:title="include/lug/Graphics\l/Vulkan/API/DescriptorPool.hpp">
<polygon fill="none" stroke="#000000" points="263,-223.5 263,-253.5 438,-253.5 438,-223.5 263,-223.5"/>
<text text-anchor="start" x="271" y="-241.5" font-family="Helvetica,sans-Serif" font-size="10.00" fill="#000000">include/lug/Graphics</text>
<text text-anchor="middle" x="350.5" y="-230.5" font-family="Helvetica,sans-Serif" font-size="10.00" fill="#000000">/Vulkan/API/DescriptorPool.hpp</text>
</a>
</g>
</g>
<!-- Node13&#45;&gt;Node14 -->
<g id="edge1" class="edge">
<title>Node13&#45;&gt;Node14</title>
<path fill="none" stroke="#191970" d="M312.2906,-282.6385C320.5778,-273.0653 329.9847,-262.1987 337.391,-253.6432"/>
<polygon fill="#191970" stroke="#191970" points="309.5599,-280.4453 305.6611,-290.2967 314.8524,-285.0268 309.5599,-280.4453"/>
</g>
<!-- Node15 -->
<g id="node3" class="node">
<title>Node15</title>
<g id="a_node3"><a xlink:href="BufferPool_8hpp.html" target="_top" xlink:title="include/lug/Graphics\l/Vulkan/Render/BufferPool.hpp">
<polygon fill="none" stroke="#000000" points="33,-151 33,-181 206,-181 206,-151 33,-151"/>
<text text-anchor="start" x="41" y="-169" font-family="Helvetica,sans-Serif" font-size="10.00" fill="#000000">include/lug/Graphics</text>
<text text-anchor="middle" x="119.5" y="-158" font-family="Helvetica,sans-Serif" font-size="10.00" fill="#000000">/Vulkan/Render/BufferPool.hpp</text>
</a>
</g>
</g>
<!-- Node13&#45;&gt;Node15 -->
<g id="edge25" class="edge">
<title>Node13&#45;&gt;Node15</title>
<path fill="none" stroke="#191970" d="M261.7875,-284.5047C248.8357,-275.4025 233.7255,-264.4525 220.5,-254 189.6638,-229.6293 155.5246,-199.0846 135.882,-181.1384"/>
<polygon fill="#191970" stroke="#191970" points="260.155,-287.6332 270.3596,-290.4822 264.1589,-281.8914 260.155,-287.6332"/>
</g>
<!-- Node16 -->
<g id="node4" class="node">
<title>Node16</title>
<g id="a_node4"><a xlink:href="Forward_8hpp.html" target="_top" xlink:title="include/lug/Graphics\l/Vulkan/Render/Technique\l/Forward.hpp">
<polygon fill="none" stroke="#000000" points="155,-67.5 155,-108.5 304,-108.5 304,-67.5 155,-67.5"/>
<text text-anchor="start" x="163" y="-96.5" font-family="Helvetica,sans-Serif" font-size="10.00" fill="#000000">include/lug/Graphics</text>
<text text-anchor="start" x="163" y="-85.5" font-family="Helvetica,sans-Serif" font-size="10.00" fill="#000000">/Vulkan/Render/Technique</text>
<text text-anchor="middle" x="229.5" y="-74.5" font-family="Helvetica,sans-Serif" font-size="10.00" fill="#000000">/Forward.hpp</text>
</a>
</g>
</g>
<!-- Node13&#45;&gt;Node16 -->
<g id="edge26" class="edge">
<title>Node13&#45;&gt;Node16</title>
<path fill="none" stroke="#191970" d="M271.902,-282.6166C265.3449,-274.168 258.7085,-264.1635 254.5,-254 234.0398,-204.5885 230.0662,-140.7226 229.4566,-108.5115"/>
<polygon fill="#191970" stroke="#191970" points="269.302,-284.9661 278.3399,-290.4948 274.7224,-280.5367 269.302,-284.9661"/>
</g>
<!-- Node29 -->
<g id="node17" class="node">
<title>Node29</title>
<g id="a_node17"><a xlink:href="DescriptorSet_8cpp.html" target="_top" xlink:title="src/lug/Graphics/Vulkan\l/API/DescriptorSet.cpp">
<polygon fill="none" stroke="#000000" points="456,-223.5 456,-253.5 593,-253.5 593,-223.5 456,-223.5"/>
<text text-anchor="start" x="464" y="-241.5" font-family="Helvetica,sans-Serif" font-size="10.00" fill="#000000">src/lug/Graphics/Vulkan</text>
<text text-anchor="middle" x="524.5" y="-230.5" font-family="Helvetica,sans-Serif" font-size="10.00" fill="#000000">/API/DescriptorSet.cpp</text>
</a>
</g>
</g>
<!-- Node13&#45;&gt;Node29 -->
<g id="edge27" class="edge">
<title>Node13&#45;&gt;Node29</title>
<path fill="none" stroke="#191970" d="M354.1904,-287.6842C390.99,-277.0568 437.2073,-263.7095 472.2076,-253.6017"/>
<polygon fill="#191970" stroke="#191970" points="353.2016,-284.3267 344.5653,-290.4639 355.1438,-291.0519 353.2016,-284.3267"/>
</g>
<!-- Node14&#45;&gt;Node15 -->
<g id="edge2" class="edge">
<title>Node14&#45;&gt;Node15</title>
<path fill="none" stroke="#191970" d="M293.0599,-220.4723C254.3321,-208.3174 203.8344,-192.4686 167.302,-181.0028"/>
<polygon fill="#191970" stroke="#191970" points="292.0474,-223.8228 302.6367,-223.478 294.1436,-217.144 292.0474,-223.8228"/>
</g>
<!-- Node20 -->
<g id="node8" class="node">
<title>Node20</title>
<g id="a_node8"><a xlink:href="Technique_8hpp.html" target="_top" xlink:title="include/lug/Graphics\l/Vulkan/Render/Technique\l/Technique.hpp">
<polygon fill="none" stroke="#000000" points="418,-145.5 418,-186.5 567,-186.5 567,-145.5 418,-145.5"/>
<text text-anchor="start" x="426" y="-174.5" font-family="Helvetica,sans-Serif" font-size="10.00" fill="#000000">include/lug/Graphics</text>
<text text-anchor="start" x="426" y="-163.5" font-family="Helvetica,sans-Serif" font-size="10.00" fill="#000000">/Vulkan/Render/Technique</text>
<text text-anchor="middle" x="492.5" y="-152.5" font-family="Helvetica,sans-Serif" font-size="10.00" fill="#000000">/Technique.hpp</text>
</a>
</g>
</g>
<!-- Node14&#45;&gt;Node20 -->
<g id="edge7" class="edge">
<title>Node14&#45;&gt;Node20</title>
<path fill="none" stroke="#191970" d="M388.9046,-218.892C408.5524,-208.8606 432.4537,-196.6575 452.3453,-186.5015"/>
<polygon fill="#191970" stroke="#191970" points="387.2373,-215.8134 379.9225,-223.478 390.4204,-222.0479 387.2373,-215.8134"/>
</g>
<!-- Node21 -->
<g id="node9" class="node">
<title>Node21</title>
<g id="a_node9"><a xlink:href="Vulkan_2Render_2View_8hpp.html" target="_top" xlink:title="include/lug/Graphics\l/Vulkan/Render/View.hpp">
<polygon fill="none" stroke="#000000" points="527,-73 527,-103 672,-103 672,-73 527,-73"/>
<text text-anchor="start" x="535" y="-91" font-family="Helvetica,sans-Serif" font-size="10.00" fill="#000000">include/lug/Graphics</text>
<text text-anchor="middle" x="599.5" y="-80" font-family="Helvetica,sans-Serif" font-size="10.00" fill="#000000">/Vulkan/Render/View.hpp</text>
</a>
</g>
</g>
<!-- Node14&#45;&gt;Node21 -->
<g id="edge14" class="edge">
<title>Node14&#45;&gt;Node21</title>
<path fill="none" stroke="#191970" d="M446.0742,-221.612C503.2914,-210.6597 566.779,-196.68 576.5,-187 599.0061,-164.5887 601.2339,-124.7492 600.573,-103.0697"/>
<polygon fill="#191970" stroke="#191970" points="445.3913,-218.1791 436.2185,-223.481 446.6955,-225.0565 445.3913,-218.1791"/>
</g>
<!-- Node24 -->
<g id="node12" class="node">
<title>Node24</title>
<g id="a_node12"><a xlink:href="Graphics_2Vulkan_2Render_2Window_8hpp.html" target="_top" xlink:title="include/lug/Graphics\l/Vulkan/Render/Window.hpp">
<polygon fill="none" stroke="#000000" points="658.5,-151 658.5,-181 818.5,-181 818.5,-151 658.5,-151"/>
<text text-anchor="start" x="666.5" y="-169" font-family="Helvetica,sans-Serif" font-size="10.00" fill="#000000">include/lug/Graphics</text>
<text text-anchor="middle" x="738.5" y="-158" font-family="Helvetica,sans-Serif" font-size="10.00" fill="#000000">/Vulkan/Render/Window.hpp</text>
</a>
</g>
</g>
<!-- Node14&#45;&gt;Node24 -->
<g id="edge15" class="edge">
<title>Node14&#45;&gt;Node24</title>
<path fill="none" stroke="#191970" d="M440.8391,-221.6196C506.614,-209.3292 594.8973,-192.833 658.2091,-181.0028"/>
<polygon fill="#191970" stroke="#191970" points="440.0808,-218.2007 430.8939,-223.478 441.3666,-225.0816 440.0808,-218.2007"/>
</g>
<!-- Node28 -->
<g id="node16" class="node">
<title>Node28</title>
<g id="a_node16"><a xlink:href="DescriptorPool_8cpp.html" target="_top" xlink:title="src/lug/Graphics/Vulkan\l/API/DescriptorPool.cpp">
<polygon fill="none" stroke="#000000" points="263,-151 263,-181 400,-181 400,-151 263,-151"/>
<text text-anchor="start" x="271" y="-169" font-family="Helvetica,sans-Serif" font-size="10.00" fill="#000000">src/lug/Graphics/Vulkan</text>
<text text-anchor="middle" x="331.5" y="-158" font-family="Helvetica,sans-Serif" font-size="10.00" fill="#000000">/API/DescriptorPool.cpp</text>
</a>
</g>
</g>
<!-- Node14&#45;&gt;Node28 -->
<g id="edge24" class="edge">
<title>Node14&#45;&gt;Node28</title>
<path fill="none" stroke="#191970" d="M343.9948,-213.6774C341.1481,-202.8151 337.9018,-190.4281 335.4318,-181.0028"/>
<polygon fill="#191970" stroke="#191970" points="340.6424,-214.6919 346.5632,-223.478 347.4137,-212.9173 340.6424,-214.6919"/>
</g>
<!-- Node15&#45;&gt;Node16 -->
<g id="edge3" class="edge">
<title>Node15&#45;&gt;Node16</title>
<path fill="none" stroke="#191970" d="M149.1363,-144.9852C165.062,-133.6924 184.6205,-119.8237 200.4549,-108.5956"/>
<polygon fill="#191970" stroke="#191970" points="146.8419,-142.3214 140.7091,-150.9608 150.891,-148.0316 146.8419,-142.3214"/>
</g>
<!-- Node19 -->
<g id="node7" class="node">
<title>Node19</title>
<g id="a_node7"><a xlink:href="BufferPool_8cpp.html" target="_top" xlink:title="src/lug/Graphics/Vulkan\l/Render/BufferPool.cpp">
<polygon fill="none" stroke="#000000" points="0,-73 0,-103 137,-103 137,-73 0,-73"/>
<text text-anchor="start" x="8" y="-91" font-family="Helvetica,sans-Serif" font-size="10.00" fill="#000000">src/lug/Graphics/Vulkan</text>
<text text-anchor="middle" x="68.5" y="-80" font-family="Helvetica,sans-Serif" font-size="10.00" fill="#000000">/Render/BufferPool.cpp</text>
</a>
</g>
</g>
<!-- Node15&#45;&gt;Node19 -->
<g id="edge6" class="edge">
<title>Node15&#45;&gt;Node19</title>
<path fill="none" stroke="#191970" d="M103.9881,-142.2759C95.6974,-129.596 85.7337,-114.3574 78.4771,-103.2592"/>
<polygon fill="#191970" stroke="#191970" points="101.2648,-144.5065 109.6667,-150.9608 107.1235,-140.6757 101.2648,-144.5065"/>
</g>
<!-- Node17 -->
<g id="node5" class="node">
<title>Node17</title>
<g id="a_node5"><a xlink:href="Forward_8cpp.html" target="_top" xlink:title="src/lug/Graphics/Vulkan\l/Render/Technique/Forward.cpp">
<polygon fill="none" stroke="#000000" points="435,-.5 435,-30.5 612,-30.5 612,-.5 435,-.5"/>
<text text-anchor="start" x="443" y="-18.5" font-family="Helvetica,sans-Serif" font-size="10.00" fill="#000000">src/lug/Graphics/Vulkan</text>
<text text-anchor="middle" x="523.5" y="-7.5" font-family="Helvetica,sans-Serif" font-size="10.00" fill="#000000">/Render/Technique/Forward.cpp</text>
</a>
</g>
</g>
<!-- Node16&#45;&gt;Node17 -->
<g id="edge4" class="edge">
<title>Node16&#45;&gt;Node17</title>
<path fill="none" stroke="#191970" d="M314.1943,-66.8326C369.7883,-53.0782 422.4238,-40.1792 461.9163,-30.5257"/>
<polygon fill="#191970" stroke="#191970" points="313.0166,-63.5184 304.1507,-69.3189 314.6987,-70.3133 313.0166,-63.5184"/>
</g>
<!-- Node18 -->
<g id="node6" class="node">
<title>Node18</title>
<g id="a_node6"><a xlink:href="Vulkan_2Render_2View_8cpp.html" target="_top" xlink:title="src/lug/Graphics/Vulkan\l/Render/View.cpp">
<polygon fill="none" stroke="#000000" points="280,-.5 280,-30.5 417,-30.5 417,-.5 280,-.5"/>
<text text-anchor="start" x="288" y="-18.5" font-family="Helvetica,sans-Serif" font-size="10.00" fill="#000000">src/lug/Graphics/Vulkan</text>
<text text-anchor="middle" x="348.5" y="-7.5" font-family="Helvetica,sans-Serif" font-size="10.00" fill="#000000">/Render/View.cpp</text>
</a>
</g>
</g>
<!-- Node16&#45;&gt;Node18 -->
<g id="edge5" class="edge">
<title>Node16&#45;&gt;Node18</title>
<path fill="none" stroke="#191970" d="M272.109,-62.0407C289.417,-51.4959 308.8042,-39.6844 323.7166,-30.5991"/>
<polygon fill="#191970" stroke="#191970" points="270.0012,-59.2264 263.2823,-67.4183 273.6433,-65.2044 270.0012,-59.2264"/>
</g>
<!-- Node20&#45;&gt;Node16 -->
<g id="edge8" class="edge">
<title>Node20&#45;&gt;Node16</title>
<path fill="none" stroke="#191970" d="M413.4436,-142.5536C376.9755,-131.738 334.072,-119.0138 298.8769,-108.5757"/>
<polygon fill="#191970" stroke="#191970" points="412.4734,-145.9165 423.0558,-145.4044 414.4638,-139.2054 412.4734,-145.9165"/>
</g>
<!-- Node20&#45;&gt;Node21 -->
<g id="edge9" class="edge">
<title>Node20&#45;&gt;Node21</title>
<path fill="none" stroke="#191970" d="M529.2918,-139.1798C545.8393,-127.1171 564.7572,-113.3265 578.7831,-103.102"/>
<polygon fill="#191970" stroke="#191970" points="526.9122,-136.5832 520.8931,-145.3022 531.0357,-142.2398 526.9122,-136.5832"/>
</g>
<!-- Node23 -->
<g id="node11" class="node">
<title>Node23</title>
<g id="a_node11"><a xlink:href="Technique_8cpp.html" target="_top" xlink:title="src/lug/Graphics/Vulkan\l/Render/Technique/Technique.cpp">
<polygon fill="none" stroke="#000000" points="322,-73 322,-103 509,-103 509,-73 322,-73"/>
<text text-anchor="start" x="330" y="-91" font-family="Helvetica,sans-Serif" font-size="10.00" fill="#000000">src/lug/Graphics/Vulkan</text>
<text text-anchor="middle" x="415.5" y="-80" font-family="Helvetica,sans-Serif" font-size="10.00" fill="#000000">/Render/Technique/Technique.cpp</text>
</a>
</g>
</g>
<!-- Node20&#45;&gt;Node23 -->
<g id="edge13" class="edge">
<title>Node20&#45;&gt;Node23</title>
<path fill="none" stroke="#191970" d="M464.5624,-137.6996C453.0789,-126.0669 440.2366,-113.0578 430.5721,-103.2679"/>
<polygon fill="#191970" stroke="#191970" points="462.3493,-140.4397 471.8654,-145.0974 467.3309,-135.522 462.3493,-140.4397"/>
</g>
<!-- Node21&#45;&gt;Node17 -->
<g id="edge10" class="edge">
<title>Node21&#45;&gt;Node17</title>
<path fill="none" stroke="#191970" d="M576.2611,-65.8313C564.2554,-54.3785 549.9222,-40.7054 539.2271,-30.5028"/>
<polygon fill="#191970" stroke="#191970" points="574.1011,-68.6079 583.7528,-72.978 578.9329,-63.5429 574.1011,-68.6079"/>
</g>
<!-- Node21&#45;&gt;Node18 -->
<g id="edge11" class="edge">
<title>Node21&#45;&gt;Node18</title>
<path fill="none" stroke="#191970" d="M537.6209,-70.1266C495.4712,-57.9518 440.3043,-42.0172 400.4407,-30.5028"/>
<polygon fill="#191970" stroke="#191970" points="536.9141,-73.5654 547.4926,-72.978 538.8567,-66.8403 536.9141,-73.5654"/>
</g>
<!-- Node22 -->
<g id="node10" class="node">
<title>Node22</title>
<g id="a_node10"><a xlink:href="Graphics_2Vulkan_2Render_2Window_8cpp.html" target="_top" xlink:title="src/lug/Graphics/Vulkan\l/Render/Window.cpp">
<polygon fill="none" stroke="#000000" points="630,-.5 630,-30.5 767,-30.5 767,-.5 630,-.5"/>
<text text-anchor="start" x="638" y="-18.5" font-family="Helvetica,sans-Serif" font-size="10.00" fill="#000000">src/lug/Graphics/Vulkan</text>
<text text-anchor="middle" x="698.5" y="-7.5" font-family="Helvetica,sans-Serif" font-size="10.00" fill="#000000">/Render/Window.cpp</text>
</a>
</g>
</g>
<!-- Node21&#45;&gt;Node22 -->
<g id="edge12" class="edge">
<title>Node21&#45;&gt;Node22</title>
<path fill="none" stroke="#191970" d="M628.4389,-66.8074C644.3399,-55.1627 663.6835,-40.9969 678.0134,-30.5028"/>
<polygon fill="#191970" stroke="#191970" points="626.0129,-64.2458 620.0129,-72.978 630.1487,-69.8934 626.0129,-64.2458"/>
</g>
<!-- Node24&#45;&gt;Node18 -->
<g id="edge21" class="edge">
<title>Node24&#45;&gt;Node18</title>
<path fill="none" stroke="#191970" d="M727.5317,-141.6454C715.2253,-115.4376 695.1963,-76.2564 681.5,-67 586.6689,-2.9101 539.3418,-50.1617 426.5,-31 423.5054,-30.4915 420.4495,-29.9559 417.3649,-29.4017"/>
<polygon fill="#191970" stroke="#191970" points="724.4671,-143.3573 731.8408,-150.9651 730.8209,-140.4195 724.4671,-143.3573"/>
</g>
<!-- Node24&#45;&gt;Node22 -->
<g id="edge22" class="edge">
<title>Node24&#45;&gt;Node22</title>
<path fill="none" stroke="#191970" d="M732.8838,-140.9234C728.2752,-120.8423 721.4058,-91.9982 714.5,-67 711.1095,-54.7267 706.8057,-40.9591 703.516,-30.7488"/>
<polygon fill="#191970" stroke="#191970" points="729.5058,-141.8535 735.1366,-150.8282 736.3315,-140.3009 729.5058,-141.8535"/>
</g>
<!-- Node25 -->
<g id="node13" class="node">
<title>Node25</title>
<g id="a_node13"><a xlink:href="Vulkan_2Renderer_8hpp.html" target="_top" xlink:title="include/lug/Graphics\l/Vulkan/Renderer.hpp">
<polygon fill="none" stroke="#000000" points="767,-73 767,-103 894,-103 894,-73 767,-73"/>
<text text-anchor="start" x="775" y="-91" font-family="Helvetica,sans-Serif" font-size="10.00" fill="#000000">include/lug/Graphics</text>
<text text-anchor="middle" x="830.5" y="-80" font-family="Helvetica,sans-Serif" font-size="10.00" fill="#000000">/Vulkan/Renderer.hpp</text>
</a>
</g>
</g>
<!-- Node24&#45;&gt;Node25 -->
<g id="edge16" class="edge">
<title>Node24&#45;&gt;Node25</title>
<path fill="none" stroke="#191970" d="M763.9009,-144.4644C779.3274,-131.3854 798.6492,-115.0039 812.502,-103.2592"/>
<polygon fill="#191970" stroke="#191970" points="761.6027,-141.8243 756.2385,-150.9608 766.1295,-147.1636 761.6027,-141.8243"/>
</g>
<!-- Node27 -->
<g id="node15" class="node">
<title>Node27</title>
<g id="a_node15"><a xlink:href="Vulkan_2Renderer_8cpp.html" target="_top" xlink:title="src/lug/Graphics/Vulkan\l/Renderer.cpp">
<polygon fill="none" stroke="#000000" points="972,-.5 972,-30.5 1109,-30.5 1109,-.5 972,-.5"/>
<text text-anchor="start" x="980" y="-18.5" font-family="Helvetica,sans-Serif" font-size="10.00" fill="#000000">src/lug/Graphics/Vulkan</text>
<text text-anchor="middle" x="1040.5" y="-7.5" font-family="Helvetica,sans-Serif" font-size="10.00" fill="#000000">/Renderer.cpp</text>
</a>
</g>
</g>
<!-- Node24&#45;&gt;Node27 -->
<g id="edge23" class="edge">
<title>Node24&#45;&gt;Node27</title>
<path fill="none" stroke="#191970" d="M803.704,-147.8829C834.7233,-138.1656 871.8574,-124.9044 903.5,-109 948.7828,-86.2397 996.5557,-50.5815 1021.9916,-30.5177"/>
<polygon fill="#191970" stroke="#191970" points="802.3902,-144.6251 793.8623,-150.9122 804.4495,-151.3154 802.3902,-144.6251"/>
</g>
<!-- Node25&#45;&gt;Node17 -->
<g id="edge18" class="edge">
<title>Node25&#45;&gt;Node17</title>
<path fill="none" stroke="#191970" d="M757.0887,-70.6635C705.2586,-58.4234 636.5066,-42.1872 587.0291,-30.5028"/>
<polygon fill="#191970" stroke="#191970" points="756.3527,-74.0858 766.8894,-72.978 757.9615,-67.2732 756.3527,-74.0858"/>
</g>
<!-- Node25&#45;&gt;Node22 -->
<g id="edge19" class="edge">
<title>Node25&#45;&gt;Node22</title>
<path fill="none" stroke="#191970" d="M794.251,-68.0905C772.6331,-56.217 745.6296,-41.3856 725.8154,-30.5028"/>
<polygon fill="#191970" stroke="#191970" points="792.6996,-71.2316 803.1495,-72.978 796.0695,-65.0961 792.6996,-71.2316"/>
</g>
<!-- Node26 -->
<g id="node14" class="node">
<title>Node26</title>
<g id="a_node14"><a xlink:href="Graphics_8cpp.html" target="_top" xlink:title="src/lug/Graphics/Graphics.cpp">
<polygon fill="none" stroke="#000000" points="785.5,-6 785.5,-25 953.5,-25 953.5,-6 785.5,-6"/>
<text text-anchor="middle" x="869.5" y="-13" font-family="Helvetica,sans-Serif" font-size="10.00" fill="#000000">src/lug/Graphics/Graphics.cpp</text>
</a>
</g>
</g>
<!-- Node25&#45;&gt;Node26 -->
<g id="edge17" class="edge">
<title>Node25&#45;&gt;Node26</title>
<path fill="none" stroke="#191970" d="M843.4327,-63.9585C850.4975,-50.8252 858.8644,-35.2713 864.1768,-25.3957"/>
<polygon fill="#191970" stroke="#191970" points="840.2359,-62.5132 838.5808,-72.978 846.4006,-65.8294 840.2359,-62.5132"/>
</g>
<!-- Node25&#45;&gt;Node27 -->
<g id="edge20" class="edge">
<title>Node25&#45;&gt;Node27</title>
<path fill="none" stroke="#191970" d="M883.6157,-69.6624C918.7025,-57.5491 964.1138,-41.8714 997.0436,-30.5028"/>
<polygon fill="#191970" stroke="#191970" points="882.3225,-66.4061 874.0121,-72.978 884.6069,-73.0229 882.3225,-66.4061"/>
</g>
</g>
</svg>
