<?xml version="1.0" encoding="UTF-8" standalone="no"?>
<!DOCTYPE svg PUBLIC "-//W3C//DTD SVG 1.1//EN"
 "http://www.w3.org/Graphics/SVG/1.1/DTD/svg11.dtd">
<!-- Generated by graphviz version 2.40.1 (20161225.0304)
 -->
<!-- Title: src/lug/Graphics/Vulkan/API/DescriptorSet.cpp Pages: 1 -->
<svg width="1519pt" height="419pt"
 viewBox="0.00 0.00 1519.39 419.00" xmlns="http://www.w3.org/2000/svg" xmlns:xlink="http://www.w3.org/1999/xlink">
<g id="graph0" class="graph" transform="scale(1 1) rotate(0) translate(4 415)">
<title>src/lug/Graphics/Vulkan/API/DescriptorSet.cpp</title>
<!-- Node0 -->
<g id="node1" class="node">
<title>Node0</title>
<polygon fill="#bfbfbf" stroke="#000000" points="684.887,-380.5 684.887,-410.5 821.887,-410.5 821.887,-380.5 684.887,-380.5"/>
<text text-anchor="start" x="692.887" y="-398.5" font-family="Helvetica,sans-Serif" font-size="10.00" fill="#000000">src/lug/Graphics/Vulkan</text>
<text text-anchor="middle" x="753.387" y="-387.5" font-family="Helvetica,sans-Serif" font-size="10.00" fill="#000000">/API/DescriptorSet.cpp</text>
</g>
<!-- Node1 -->
<g id="node2" class="node">
<title>Node1</title>
<g id="a_node2"><a xlink:href="DescriptorSet_8hpp.html" target="_top" xlink:title="lug/Graphics/Vulkan\l/API/DescriptorSet.hpp">
<polygon fill="none" stroke="#000000" points="263.387,-313.5 263.387,-343.5 395.387,-343.5 395.387,-313.5 263.387,-313.5"/>
<text text-anchor="start" x="271.387" y="-331.5" font-family="Helvetica,sans-Serif" font-size="10.00" fill="#000000">lug/Graphics/Vulkan</text>
<text text-anchor="middle" x="329.387" y="-320.5" font-family="Helvetica,sans-Serif" font-size="10.00" fill="#000000">/API/DescriptorSet.hpp</text>
</a>
</g>
</g>
<!-- Node0&#45;&gt;Node1 -->
<g id="edge1" class="edge">
<title>Node0&#45;&gt;Node1</title>
<path fill="none" stroke="#191970" d="M684.7928,-384.6608C608.2606,-372.5673 484.7891,-353.0565 405.3793,-340.5082"/>
<polygon fill="#191970" stroke="#191970" points="405.8629,-337.0413 395.4392,-338.9375 404.7703,-343.9555 405.8629,-337.0413"/>
</g>
<!-- Node14 -->
<g id="node15" class="node">
<title>Node14</title>
<g id="a_node15"><a xlink:href="Device_8hpp.html" target="_top" xlink:title="lug/Graphics/Vulkan\l/API/Device.hpp">
<polygon fill="none" stroke="#000000" points="694.387,-179.5 694.387,-209.5 812.387,-209.5 812.387,-179.5 694.387,-179.5"/>
<text text-anchor="start" x="702.387" y="-197.5" font-family="Helvetica,sans-Serif" font-size="10.00" fill="#000000">lug/Graphics/Vulkan</text>
<text text-anchor="middle" x="753.387" y="-186.5" font-family="Helvetica,sans-Serif" font-size="10.00" fill="#000000">/API/Device.hpp</text>
</a>
</g>
</g>
<!-- Node0&#45;&gt;Node14 -->
<g id="edge25" class="edge">
<title>Node0&#45;&gt;Node14</title>
<path fill="none" stroke="#191970" d="M753.387,-380.3923C753.387,-346.0414 753.387,-261.7914 753.387,-219.5301"/>
<polygon fill="#191970" stroke="#191970" points="756.8871,-219.5088 753.387,-209.5088 749.8871,-219.5088 756.8871,-219.5088"/>
</g>
<!-- Node16 -->
<g id="node17" class="node">
<title>Node16</title>
<g id="a_node17"><a xlink:href="Logger_8hpp.html" target="_top" xlink:title="lug/System/Logger/Logger.hpp">
<polygon fill="none" stroke="#000000" points="910.387,-252 910.387,-271 1082.387,-271 1082.387,-252 910.387,-252"/>
<text text-anchor="middle" x="996.387" y="-259" font-family="Helvetica,sans-Serif" font-size="10.00" fill="#000000">lug/System/Logger/Logger.hpp</text>
</a>
</g>
</g>
<!-- Node0&#45;&gt;Node16 -->
<g id="edge29" class="edge">
<title>Node0&#45;&gt;Node16</title>
<path fill="none" stroke="#191970" d="M780.7898,-380.389C827.9355,-354.3909 923.7853,-301.5355 970.1291,-275.9796"/>
<polygon fill="#191970" stroke="#191970" points="971.9037,-278.998 978.9705,-271.1042 968.5235,-272.8682 971.9037,-278.998"/>
</g>
<!-- Node2 -->
<g id="node3" class="node">
<title>Node2</title>
<g id="a_node3"><a xlink:href="Graphics_2Export_8hpp.html" target="_top" xlink:title="lug/Graphics/Export.hpp">
<polygon fill="none" stroke="#000000" points="212.387,-56.5 212.387,-75.5 350.387,-75.5 350.387,-56.5 212.387,-56.5"/>
<text text-anchor="middle" x="281.387" y="-63.5" font-family="Helvetica,sans-Serif" font-size="10.00" fill="#000000">lug/Graphics/Export.hpp</text>
</a>
</g>
</g>
<!-- Node1&#45;&gt;Node2 -->
<g id="edge2" class="edge">
<title>Node1&#45;&gt;Node2</title>
<path fill="none" stroke="#191970" d="M263.8819,-313.4413C179.6619,-292.5933 40.7304,-252.6548 11.387,-210 -41.394,-133.2754 104.7076,-94.106 202.0696,-77.0348"/>
<polygon fill="#191970" stroke="#191970" points="202.9432,-80.4364 212.2123,-75.3047 201.7661,-73.5361 202.9432,-80.4364"/>
</g>
<!-- Node4 -->
<g id="node5" class="node">
<title>Node4</title>
<g id="a_node5"><a xlink:href="Buffer_8hpp.html" target="_top" xlink:title="lug/Graphics/Vulkan\l/API/Buffer.hpp">
<polygon fill="none" stroke="#000000" points="222.387,-179.5 222.387,-209.5 340.387,-209.5 340.387,-179.5 222.387,-179.5"/>
<text text-anchor="start" x="230.387" y="-197.5" font-family="Helvetica,sans-Serif" font-size="10.00" fill="#000000">lug/Graphics/Vulkan</text>
<text text-anchor="middle" x="281.387" y="-186.5" font-family="Helvetica,sans-Serif" font-size="10.00" fill="#000000">/API/Buffer.hpp</text>
</a>
</g>
</g>
<!-- Node1&#45;&gt;Node4 -->
<g id="edge4" class="edge">
<title>Node1&#45;&gt;Node4</title>
<path fill="none" stroke="#191970" d="M319.29,-313.2948C313.0668,-303.3306 305.354,-289.8213 300.387,-277 293.2004,-258.4496 288.3019,-236.4529 285.2809,-219.8396"/>
<polygon fill="#191970" stroke="#191970" points="288.6979,-219.0567 283.5616,-209.7901 281.7981,-220.2372 288.6979,-219.0567"/>
</g>
<!-- Node6 -->
<g id="node7" class="node">
<title>Node6</title>
<g id="a_node7"><a xlink:href="Vulkan_8hpp.html" target="_top" xlink:title="lug/Graphics/Vulkan\l/Vulkan.hpp">
<polygon fill="none" stroke="#000000" points="420.387,-112.5 420.387,-142.5 538.387,-142.5 538.387,-112.5 420.387,-112.5"/>
<text text-anchor="start" x="428.387" y="-130.5" font-family="Helvetica,sans-Serif" font-size="10.00" fill="#000000">lug/Graphics/Vulkan</text>
<text text-anchor="middle" x="479.387" y="-119.5" font-family="Helvetica,sans-Serif" font-size="10.00" fill="#000000">/Vulkan.hpp</text>
</a>
</g>
</g>
<!-- Node1&#45;&gt;Node6 -->
<g id="edge24" class="edge">
<title>Node1&#45;&gt;Node6</title>
<path fill="none" stroke="#191970" d="M395.4547,-316.946C453.5305,-302.828 534.2584,-272.5892 570.387,-210 577.2748,-198.0675 577.3271,-190.9022 570.387,-179 562.4359,-165.3641 549.3875,-155.0498 535.6219,-147.3739"/>
<polygon fill="#191970" stroke="#191970" points="537.0136,-144.1542 526.5187,-142.7023 533.8175,-150.382 537.0136,-144.1542"/>
</g>
<!-- Node11 -->
<g id="node12" class="node">
<title>Node11</title>
<g id="a_node12"><a xlink:href="CommandBuffer_8hpp.html" target="_top" xlink:title="lug/Graphics/Vulkan\l/API/CommandBuffer.hpp">
<polygon fill="none" stroke="#000000" points="20.887,-179.5 20.887,-209.5 165.887,-209.5 165.887,-179.5 20.887,-179.5"/>
<text text-anchor="start" x="28.887" y="-197.5" font-family="Helvetica,sans-Serif" font-size="10.00" fill="#000000">lug/Graphics/Vulkan</text>
<text text-anchor="middle" x="93.387" y="-186.5" font-family="Helvetica,sans-Serif" font-size="10.00" fill="#000000">/API/CommandBuffer.hpp</text>
</a>
</g>
</g>
<!-- Node1&#45;&gt;Node11 -->
<g id="edge13" class="edge">
<title>Node1&#45;&gt;Node11</title>
<path fill="none" stroke="#191970" d="M302.7735,-313.389C260.079,-289.1472 176.2579,-241.5539 128.6384,-214.5157"/>
<polygon fill="#191970" stroke="#191970" points="130.3273,-211.4498 119.9031,-209.5558 126.871,-217.537 130.3273,-211.4498"/>
</g>
<!-- Node12 -->
<g id="node13" class="node">
<title>Node12</title>
<g id="a_node13"><a xlink:href="PipelineLayout_8hpp.html" target="_top" xlink:title="lug/Graphics/Vulkan\l/API/PipelineLayout.hpp">
<polygon fill="none" stroke="#000000" points="309.387,-246.5 309.387,-276.5 445.387,-276.5 445.387,-246.5 309.387,-246.5"/>
<text text-anchor="start" x="317.387" y="-264.5" font-family="Helvetica,sans-Serif" font-size="10.00" fill="#000000">lug/Graphics/Vulkan</text>
<text text-anchor="middle" x="377.387" y="-253.5" font-family="Helvetica,sans-Serif" font-size="10.00" fill="#000000">/API/PipelineLayout.hpp</text>
</a>
</g>
</g>
<!-- Node1&#45;&gt;Node12 -->
<g id="edge16" class="edge">
<title>Node1&#45;&gt;Node12</title>
<path fill="none" stroke="#191970" d="M340.2789,-313.2967C346.2933,-304.9016 353.8919,-294.2952 360.6444,-284.8698"/>
<polygon fill="#191970" stroke="#191970" points="363.5594,-286.8107 366.5381,-276.6432 357.869,-282.734 363.5594,-286.8107"/>
</g>
<!-- Node3 -->
<g id="node4" class="node">
<title>Node3</title>
<g id="a_node4"><a xlink:href="Config_8hpp.html" target="_top" xlink:title="lug/Config.hpp">
<polygon fill="none" stroke="#000000" points="593.887,-.5 593.887,-19.5 682.887,-19.5 682.887,-.5 593.887,-.5"/>
<text text-anchor="middle" x="638.387" y="-7.5" font-family="Helvetica,sans-Serif" font-size="10.00" fill="#000000">lug/Config.hpp</text>
</a>
</g>
</g>
<!-- Node2&#45;&gt;Node3 -->
<g id="edge3" class="edge">
<title>Node2&#45;&gt;Node3</title>
<path fill="none" stroke="#191970" d="M342.3518,-56.4369C410.1206,-45.8065 518.5778,-28.7936 583.7007,-18.5782"/>
<polygon fill="#191970" stroke="#191970" points="584.4308,-22.0066 593.7676,-16.9991 583.346,-15.0912 584.4308,-22.0066"/>
</g>
<!-- Node4&#45;&gt;Node2 -->
<g id="edge6" class="edge">
<title>Node4&#45;&gt;Node2</title>
<path fill="none" stroke="#191970" d="M281.387,-179.2548C281.387,-155.9744 281.387,-111.5607 281.387,-85.8117"/>
<polygon fill="#191970" stroke="#191970" points="284.8871,-85.7358 281.387,-75.7358 277.8871,-85.7358 284.8871,-85.7358"/>
</g>
<!-- Node5 -->
<g id="node6" class="node">
<title>Node5</title>
<polygon fill="none" stroke="#bfbfbf" points="560.887,-118 560.887,-137 619.887,-137 619.887,-118 560.887,-118"/>
<text text-anchor="middle" x="590.387" y="-125" font-family="Helvetica,sans-Serif" font-size="10.00" fill="#000000">memory</text>
</g>
<!-- Node4&#45;&gt;Node5 -->
<g id="edge5" class="edge">
<title>Node4&#45;&gt;Node5</title>
<path fill="none" stroke="#191970" d="M340.6303,-185.7279C394.9398,-177.0516 477.319,-162.2867 547.387,-143 550.3517,-142.1839 553.4041,-141.2598 556.4498,-140.279"/>
<polygon fill="#191970" stroke="#191970" points="557.6996,-143.5508 566.0391,-137.0161 555.4447,-136.924 557.6996,-143.5508"/>
</g>
<!-- Node4&#45;&gt;Node6 -->
<g id="edge7" class="edge">
<title>Node4&#45;&gt;Node6</title>
<path fill="none" stroke="#191970" d="M325.822,-179.4639C355.1437,-169.5419 393.7523,-156.4774 424.921,-145.9304"/>
<polygon fill="#191970" stroke="#191970" points="426.4076,-149.1224 434.7581,-142.6017 424.1638,-142.4917 426.4076,-149.1224"/>
</g>
<!-- Node6&#45;&gt;Node2 -->
<g id="edge11" class="edge">
<title>Node6&#45;&gt;Node2</title>
<path fill="none" stroke="#191970" d="M430.9507,-112.4554C397.4792,-102.059 353.4667,-88.3884 321.865,-78.5727"/>
<polygon fill="#191970" stroke="#191970" points="322.6581,-75.1542 312.0699,-75.5303 320.5817,-81.8391 322.6581,-75.1542"/>
</g>
<!-- Node7 -->
<g id="node8" class="node">
<title>Node7</title>
<polygon fill="none" stroke="#bfbfbf" points="721.887,-56.5 721.887,-75.5 816.887,-75.5 816.887,-56.5 721.887,-56.5"/>
<text text-anchor="middle" x="769.387" y="-63.5" font-family="Helvetica,sans-Serif" font-size="10.00" fill="#000000">unordered_map</text>
</g>
<!-- Node6&#45;&gt;Node7 -->
<g id="edge8" class="edge">
<title>Node6&#45;&gt;Node7</title>
<path fill="none" stroke="#191970" d="M538.7119,-114.7086C543.0009,-113.79 547.2602,-112.8796 551.387,-112 606.6647,-100.218 669.8609,-86.8997 713.9278,-77.6372"/>
<polygon fill="#191970" stroke="#191970" points="714.798,-81.0309 723.8645,-75.5492 713.3585,-74.1805 714.798,-81.0309"/>
</g>
<!-- Node8 -->
<g id="node9" class="node">
<title>Node8</title>
<polygon fill="none" stroke="#bfbfbf" points="484.387,-56.5 484.387,-75.5 532.387,-75.5 532.387,-56.5 484.387,-56.5"/>
<text text-anchor="middle" x="508.387" y="-63.5" font-family="Helvetica,sans-Serif" font-size="10.00" fill="#000000">vector</text>
</g>
<!-- Node6&#45;&gt;Node8 -->
<g id="edge9" class="edge">
<title>Node6&#45;&gt;Node8</title>
<path fill="none" stroke="#191970" d="M486.5555,-112.2977C490.4552,-104.0277 495.315,-93.7215 499.4588,-84.9339"/>
<polygon fill="#191970" stroke="#191970" points="502.6443,-86.3846 503.7437,-75.8469 496.3129,-83.399 502.6443,-86.3846"/>
</g>
<!-- Node9 -->
<g id="node10" class="node">
<title>Node9</title>
<polygon fill="none" stroke="#bfbfbf" points="550.387,-56.5 550.387,-75.5 608.387,-75.5 608.387,-56.5 550.387,-56.5"/>
<text text-anchor="middle" x="579.387" y="-63.5" font-family="Helvetica,sans-Serif" font-size="10.00" fill="#000000">ostream</text>
</g>
<!-- Node6&#45;&gt;Node9 -->
<g id="edge10" class="edge">
<title>Node6&#45;&gt;Node9</title>
<path fill="none" stroke="#191970" d="M503.8497,-112.4554C519.5104,-102.8241 539.7401,-90.3828 555.3225,-80.7996"/>
<polygon fill="#191970" stroke="#191970" points="557.206,-83.7503 563.8905,-75.5303 553.5389,-77.7876 557.206,-83.7503"/>
</g>
<!-- Node10 -->
<g id="node11" class="node">
<title>Node10</title>
<polygon fill="none" stroke="#bfbfbf" points="368.887,-56.5 368.887,-75.5 465.887,-75.5 465.887,-56.5 368.887,-56.5"/>
<text text-anchor="middle" x="417.387" y="-63.5" font-family="Helvetica,sans-Serif" font-size="10.00" fill="#000000">vulkan/vulkan.h</text>
</g>
<!-- Node6&#45;&gt;Node10 -->
<g id="edge12" class="edge">
<title>Node6&#45;&gt;Node10</title>
<path fill="none" stroke="#191970" d="M464.0611,-112.2977C455.0963,-103.4052 443.7582,-92.1586 434.5018,-82.9769"/>
<polygon fill="#191970" stroke="#191970" points="436.8785,-80.4045 427.3139,-75.8469 431.9488,-85.3742 436.8785,-80.4045"/>
</g>
<!-- Node11&#45;&gt;Node2 -->
<g id="edge14" class="edge">
<title>Node11&#45;&gt;Node2</title>
<path fill="none" stroke="#191970" d="M106.5946,-179.2043C122.6455,-161.3185 151.2172,-131.6626 180.387,-112 200.2956,-98.5801 224.753,-87.3258 244.6139,-79.3084"/>
<polygon fill="#191970" stroke="#191970" points="245.9277,-82.5527 253.9545,-75.6374 243.3672,-76.0378 245.9277,-82.5527"/>
</g>
<!-- Node11&#45;&gt;Node6 -->
<g id="edge15" class="edge">
<title>Node11&#45;&gt;Node6</title>
<path fill="none" stroke="#191970" d="M165.9906,-181.8978C236.1376,-169.722 341.6139,-151.414 410.4842,-139.4598"/>
<polygon fill="#191970" stroke="#191970" points="411.1172,-142.9024 420.3713,-137.7437 409.92,-136.0055 411.1172,-142.9024"/>
</g>
<!-- Node12&#45;&gt;Node2 -->
<g id="edge18" class="edge">
<title>Node12&#45;&gt;Node2</title>
<path fill="none" stroke="#191970" d="M309.2103,-248.5409C269.5986,-239.4727 225.2195,-226.1179 213.387,-210 182.8788,-168.4426 232.8924,-111.0253 262.3111,-82.9011"/>
<polygon fill="#191970" stroke="#191970" points="265.031,-85.1517 269.9785,-75.783 260.2684,-80.0216 265.031,-85.1517"/>
</g>
<!-- Node12&#45;&gt;Node5 -->
<g id="edge17" class="edge">
<title>Node12&#45;&gt;Node5</title>
<path fill="none" stroke="#191970" d="M445.6152,-250.8531C493.8452,-241.9687 552.9044,-227.8881 570.387,-210 586.6715,-193.3378 590.4705,-165.7941 590.9944,-147.1619"/>
<polygon fill="#191970" stroke="#191970" points="594.4945,-147.1274 590.9871,-137.13 587.4945,-147.1326 594.4945,-147.1274"/>
</g>
<!-- Node12&#45;&gt;Node6 -->
<g id="edge23" class="edge">
<title>Node12&#45;&gt;Node6</title>
<path fill="none" stroke="#191970" d="M375.3627,-246.4089C373.8009,-228.7199 373.8102,-199.2533 387.387,-179 396.587,-165.2757 410.7373,-154.827 425.203,-147.0502"/>
<polygon fill="#191970" stroke="#191970" points="426.8297,-150.15 434.2093,-142.5479 423.6997,-143.8887 426.8297,-150.15"/>
</g>
<!-- Node13 -->
<g id="node14" class="node">
<title>Node13</title>
<g id="a_node14"><a xlink:href="DescriptorSetLayout_8hpp.html" target="_top" xlink:title="lug/Graphics/Vulkan\l/API/DescriptorSetLayout.hpp">
<polygon fill="none" stroke="#000000" points="396.887,-179.5 396.887,-209.5 561.887,-209.5 561.887,-179.5 396.887,-179.5"/>
<text text-anchor="start" x="404.887" y="-197.5" font-family="Helvetica,sans-Serif" font-size="10.00" fill="#000000">lug/Graphics/Vulkan</text>
<text text-anchor="middle" x="479.387" y="-186.5" font-family="Helvetica,sans-Serif" font-size="10.00" fill="#000000">/API/DescriptorSetLayout.hpp</text>
</a>
</g>
</g>
<!-- Node12&#45;&gt;Node13 -->
<g id="edge19" class="edge">
<title>Node12&#45;&gt;Node13</title>
<path fill="none" stroke="#191970" d="M400.2778,-246.4639C414.2221,-237.3044 432.2436,-225.4667 447.5632,-215.4038"/>
<polygon fill="#191970" stroke="#191970" points="449.7831,-218.1333 456.2197,-209.7177 445.94,-212.2826 449.7831,-218.1333"/>
</g>
<!-- Node13&#45;&gt;Node2 -->
<g id="edge21" class="edge">
<title>Node13&#45;&gt;Node2</title>
<path fill="none" stroke="#191970" d="M455.8962,-179.2548C417.839,-154.556 343.1292,-106.0701 304.9961,-81.3221"/>
<polygon fill="#191970" stroke="#191970" points="306.4276,-78.0787 296.1339,-75.5706 302.6168,-83.9505 306.4276,-78.0787"/>
</g>
<!-- Node13&#45;&gt;Node5 -->
<g id="edge20" class="edge">
<title>Node13&#45;&gt;Node5</title>
<path fill="none" stroke="#191970" d="M504.2975,-179.4639C522.6702,-168.3741 547.5469,-153.3584 565.8344,-142.32"/>
<polygon fill="#191970" stroke="#191970" points="567.7234,-145.268 574.476,-137.1039 564.106,-139.2751 567.7234,-145.268"/>
</g>
<!-- Node13&#45;&gt;Node6 -->
<g id="edge22" class="edge">
<title>Node13&#45;&gt;Node6</title>
<path fill="none" stroke="#191970" d="M479.387,-179.2967C479.387,-171.5013 479.387,-161.7991 479.387,-152.9064"/>
<polygon fill="#191970" stroke="#191970" points="482.8871,-152.6431 479.387,-142.6432 475.8871,-152.6432 482.8871,-152.6431"/>
</g>
<!-- Node14&#45;&gt;Node2 -->
<g id="edge26" class="edge">
<title>Node14&#45;&gt;Node2</title>
<path fill="none" stroke="#191970" d="M732.6738,-179.1696C703.2009,-157.6501 650.3084,-120.1909 628.387,-112 625.2536,-110.8292 462.1689,-89.494 360.7177,-76.2959"/>
<polygon fill="#191970" stroke="#191970" points="361.1639,-72.8245 350.796,-75.0055 360.2611,-79.7661 361.1639,-72.8245"/>
</g>
<!-- Node14&#45;&gt;Node6 -->
<g id="edge27" class="edge">
<title>Node14&#45;&gt;Node6</title>
<path fill="none" stroke="#191970" d="M694.2704,-180.0445C651.4163,-169.5656 593.3378,-155.3639 548.3645,-144.3668"/>
<polygon fill="#191970" stroke="#191970" points="548.9428,-140.9051 538.3976,-141.9296 547.28,-147.7048 548.9428,-140.9051"/>
</g>
<!-- Node15 -->
<g id="node16" class="node">
<title>Node15</title>
<g id="a_node16"><a xlink:href="Device_8inl.html" target="_top" xlink:title="lug/Graphics/Vulkan\l/API/Device.inl">
<polygon fill="none" stroke="#000000" points="694.387,-112.5 694.387,-142.5 812.387,-142.5 812.387,-112.5 694.387,-112.5"/>
<text text-anchor="start" x="702.387" y="-130.5" font-family="Helvetica,sans-Serif" font-size="10.00" fill="#000000">lug/Graphics/Vulkan</text>
<text text-anchor="middle" x="753.387" y="-119.5" font-family="Helvetica,sans-Serif" font-size="10.00" fill="#000000">/API/Device.inl</text>
</a>
</g>
</g>
<!-- Node14&#45;&gt;Node15 -->
<g id="edge28" class="edge">
<title>Node14&#45;&gt;Node15</title>
<path fill="none" stroke="#191970" d="M753.387,-179.2967C753.387,-171.5013 753.387,-161.7991 753.387,-152.9064"/>
<polygon fill="#191970" stroke="#191970" points="756.8871,-152.6431 753.387,-142.6432 749.8871,-152.6432 756.8871,-152.6431"/>
</g>
<!-- Node16&#45;&gt;Node5 -->
<g id="edge30" class="edge">
<title>Node16&#45;&gt;Node5</title>
<path fill="none" stroke="#191970" d="M910.2708,-252.5542C832.4274,-243.511 724.264,-228.2835 685.387,-210 668.0458,-201.8446 629.8509,-166.1159 607.5326,-144.4401"/>
<polygon fill="#191970" stroke="#191970" points="609.6929,-141.6572 600.0965,-137.1672 604.7984,-146.6616 609.6929,-141.6572"/>
</g>
<!-- Node17 -->
<g id="node18" class="node">
<title>Node17</title>
<polygon fill="none" stroke="#bfbfbf" points="830.387,-185 830.387,-204 862.387,-204 862.387,-185 830.387,-185"/>
<text text-anchor="middle" x="846.387" y="-192" font-family="Helvetica,sans-Serif" font-size="10.00" fill="#000000">set</text>
</g>
<!-- Node16&#45;&gt;Node17 -->
<g id="edge31" class="edge">
<title>Node16&#45;&gt;Node17</title>
<path fill="none" stroke="#191970" d="M972.7117,-251.9259C948.3462,-241.9361 909.3927,-225.5846 876.387,-210 874.8198,-209.26 873.2145,-208.4842 871.6008,-207.6908"/>
<polygon fill="#191970" stroke="#191970" points="872.9774,-204.465 862.4735,-203.0797 869.8209,-210.713 872.9774,-204.465"/>
</g>
<!-- Node18 -->
<g id="node19" class="node">
<title>Node18</title>
<polygon fill="none" stroke="#bfbfbf" points="893.887,-118 893.887,-137 938.887,-137 938.887,-118 893.887,-118"/>
<text text-anchor="middle" x="916.387" y="-125" font-family="Helvetica,sans-Serif" font-size="10.00" fill="#000000">string</text>
</g>
<!-- Node16&#45;&gt;Node18 -->
<g id="edge32" class="edge">
<title>Node16&#45;&gt;Node18</title>
<path fill="none" stroke="#191970" d="M964.7531,-251.8306C945.0245,-243.976 921.2097,-230.7374 909.387,-210 898.362,-190.6619 903.237,-164.5308 908.8098,-146.9014"/>
<polygon fill="#191970" stroke="#191970" points="912.2197,-147.7549 912.234,-137.1601 905.6158,-145.4335 912.2197,-147.7549"/>
</g>
<!-- Node19 -->
<g id="node20" class="node">
<title>Node19</title>
<g id="a_node20"><a xlink:href="System_2Export_8hpp.html" target="_top" xlink:title="lug/System/Export.hpp">
<polygon fill="none" stroke="#000000" points="1030.387,-56.5 1030.387,-75.5 1162.387,-75.5 1162.387,-56.5 1030.387,-56.5"/>
<text text-anchor="middle" x="1096.387" y="-63.5" font-family="Helvetica,sans-Serif" font-size="10.00" fill="#000000">lug/System/Export.hpp</text>
</a>
</g>
</g>
<!-- Node16&#45;&gt;Node19 -->
<g id="edge33" class="edge">
<title>Node16&#45;&gt;Node19</title>
<path fill="none" stroke="#191970" d="M1082.7325,-256.7885C1152.9907,-250.9352 1244.1769,-238.0362 1267.387,-210 1314.0208,-153.6694 1199.3743,-102.2517 1135.5947,-79.0303"/>
<polygon fill="#191970" stroke="#191970" points="1136.4223,-75.6097 1125.8277,-75.5491 1134.0721,-82.2034 1136.4223,-75.6097"/>
</g>
<!-- Node20 -->
<g id="node21" class="node">
<title>Node20</title>
<g id="a_node21"><a xlink:href="Common_8hpp.html" target="_top" xlink:title="lug/System/Logger/Common.hpp">
<polygon fill="none" stroke="#000000" points="1314.387,-118 1314.387,-137 1496.387,-137 1496.387,-118 1314.387,-118"/>
<text text-anchor="middle" x="1405.387" y="-125" font-family="Helvetica,sans-Serif" font-size="10.00" fill="#000000">lug/System/Logger/Common.hpp</text>
</a>
</g>
</g>
<!-- Node16&#45;&gt;Node20 -->
<g id="edge35" class="edge">
<title>Node16&#45;&gt;Node20</title>
<path fill="none" stroke="#191970" d="M1082.5309,-258.9439C1220.0708,-253.9647 1476.6928,-240.6436 1504.387,-210 1529.174,-182.573 1480.7201,-156.1817 1443.2451,-140.9153"/>
<polygon fill="#191970" stroke="#191970" points="1444.1091,-137.4944 1433.5218,-137.0963 1441.5501,-144.0099 1444.1091,-137.4944"/>
</g>
<!-- Node23 -->
<g id="node24" class="node">
<title>Node23</title>
<g id="a_node24"><a xlink:href="LoggingFacility_8hpp.html" target="_top" xlink:title="lug/System/Logger/Logging\lFacility.hpp">
<polygon fill="none" stroke="#000000" points="918.887,-179.5 918.887,-209.5 1073.887,-209.5 1073.887,-179.5 918.887,-179.5"/>
<text text-anchor="start" x="926.887" y="-197.5" font-family="Helvetica,sans-Serif" font-size="10.00" fill="#000000">lug/System/Logger/Logging</text>
<text text-anchor="middle" x="996.387" y="-186.5" font-family="Helvetica,sans-Serif" font-size="10.00" fill="#000000">Facility.hpp</text>
</a>
</g>
</g>
<!-- Node16&#45;&gt;Node23 -->
<g id="edge39" class="edge">
<title>Node16&#45;&gt;Node23</title>
<path fill="none" stroke="#191970" d="M996.387,-251.9005C996.387,-243.5099 996.387,-230.9451 996.387,-219.7085"/>
<polygon fill="#191970" stroke="#191970" points="999.8871,-219.5217 996.387,-209.5218 992.8871,-219.5218 999.8871,-219.5217"/>
</g>
<!-- Node24 -->
<g id="node25" class="node">
<title>Node24</title>
<g id="a_node25"><a xlink:href="Message_8hpp.html" target="_top" xlink:title="lug/System/Logger/Message.hpp">
<polygon fill="none" stroke="#000000" points="1314.887,-185 1314.887,-204 1495.887,-204 1495.887,-185 1314.887,-185"/>
<text text-anchor="middle" x="1405.387" y="-192" font-family="Helvetica,sans-Serif" font-size="10.00" fill="#000000">lug/System/Logger/Message.hpp</text>
</a>
</g>
</g>
<!-- Node16&#45;&gt;Node24 -->
<g id="edge44" class="edge">
<title>Node16&#45;&gt;Node24</title>
<path fill="none" stroke="#191970" d="M1054.5523,-251.9717C1128.953,-239.7838 1257.6211,-218.7062 1336.7432,-205.7448"/>
<polygon fill="#191970" stroke="#191970" points="1337.7889,-209.1203 1347.0915,-204.0496 1336.6572,-202.2123 1337.7889,-209.1203"/>
</g>
<!-- Node25 -->
<g id="node26" class="node">
<title>Node25</title>
<g id="a_node26"><a xlink:href="Logger_8inl.html" target="_top" xlink:title="lug/System/Logger/Logger.inl">
<polygon fill="none" stroke="#000000" points="1092.387,-185 1092.387,-204 1258.387,-204 1258.387,-185 1092.387,-185"/>
<text text-anchor="middle" x="1175.387" y="-192" font-family="Helvetica,sans-Serif" font-size="10.00" fill="#000000">lug/System/Logger/Logger.inl</text>
</a>
</g>
</g>
<!-- Node16&#45;&gt;Node25 -->
<g id="edge46" class="edge">
<title>Node16&#45;&gt;Node25</title>
<path fill="none" stroke="#191970" d="M1022.0333,-251.9005C1053.004,-240.3082 1105.2602,-220.7486 1140.0376,-207.7313"/>
<polygon fill="#191970" stroke="#191970" points="1141.6497,-210.8651 1149.7882,-204.0817 1139.1958,-204.3093 1141.6497,-210.8651"/>
</g>
<!-- Node19&#45;&gt;Node3 -->
<g id="edge34" class="edge">
<title>Node19&#45;&gt;Node3</title>
<path fill="none" stroke="#191970" d="M1030.279,-57.9169C939.4376,-46.8097 777.6915,-27.0329 693.2066,-16.7028"/>
<polygon fill="#191970" stroke="#191970" points="693.4001,-13.2005 683.0492,-15.4609 692.5505,-20.1488 693.4001,-13.2005"/>
</g>
<!-- Node20&#45;&gt;Node19 -->
<g id="edge36" class="edge">
<title>Node20&#45;&gt;Node19</title>
<path fill="none" stroke="#191970" d="M1357.4447,-117.9581C1302.5605,-107.0345 1212.6974,-89.1492 1154.0413,-77.4749"/>
<polygon fill="#191970" stroke="#191970" points="1154.6783,-74.0331 1144.1874,-75.5137 1153.3118,-80.8984 1154.6783,-74.0331"/>
</g>
<!-- Node21 -->
<g id="node22" class="node">
<title>Node21</title>
<polygon fill="none" stroke="#bfbfbf" points="1312.387,-56.5 1312.387,-75.5 1394.387,-75.5 1394.387,-56.5 1312.387,-56.5"/>
<text text-anchor="middle" x="1353.387" y="-63.5" font-family="Helvetica,sans-Serif" font-size="10.00" fill="#000000">fmt/format.h</text>
</g>
<!-- Node20&#45;&gt;Node21 -->
<g id="edge37" class="edge">
<title>Node20&#45;&gt;Node21</title>
<path fill="none" stroke="#191970" d="M1397.262,-117.8906C1389.5228,-108.7376 1377.6882,-94.7409 1368.2598,-83.59"/>
<polygon fill="#191970" stroke="#191970" points="1370.7559,-81.1213 1361.6265,-75.7449 1365.4105,-85.6409 1370.7559,-81.1213"/>
</g>
<!-- Node22 -->
<g id="node23" class="node">
<title>Node22</title>
<polygon fill="none" stroke="#bfbfbf" points="1412.887,-56.5 1412.887,-75.5 1501.887,-75.5 1501.887,-56.5 1412.887,-56.5"/>
<text text-anchor="middle" x="1457.387" y="-63.5" font-family="Helvetica,sans-Serif" font-size="10.00" fill="#000000">fmt/ostream.h</text>
</g>
<!-- Node20&#45;&gt;Node22 -->
<g id="edge38" class="edge">
<title>Node20&#45;&gt;Node22</title>
<path fill="none" stroke="#191970" d="M1413.512,-117.8906C1421.2511,-108.7376 1433.0857,-94.7409 1442.5141,-83.59"/>
<polygon fill="#191970" stroke="#191970" points="1445.3634,-85.6409 1449.1474,-75.7449 1440.018,-81.1213 1445.3634,-85.6409"/>
</g>
<!-- Node23&#45;&gt;Node5 -->
<g id="edge41" class="edge">
<title>Node23&#45;&gt;Node5</title>
<path fill="none" stroke="#191970" d="M918.5865,-181.661C832.4741,-167.4503 697.049,-145.1019 630.2988,-134.0864"/>
<polygon fill="#191970" stroke="#191970" points="630.63,-130.5938 620.1935,-132.4188 629.4902,-137.5004 630.63,-130.5938"/>
</g>
<!-- Node23&#45;&gt;Node7 -->
<g id="edge42" class="edge">
<title>Node23&#45;&gt;Node7</title>
<path fill="none" stroke="#191970" d="M991.4241,-179.2374C984.545,-160.5295 970.3031,-129.2003 947.387,-112 928.401,-97.7496 871.3816,-84.529 826.938,-75.9527"/>
<polygon fill="#191970" stroke="#191970" points="827.5684,-72.51 817.0918,-74.0881 826.2659,-79.3878 827.5684,-72.51"/>
</g>
<!-- Node23&#45;&gt;Node18 -->
<g id="edge40" class="edge">
<title>Node23&#45;&gt;Node18</title>
<path fill="none" stroke="#191970" d="M978.2337,-179.2967C965.5273,-168.6551 948.5783,-154.4602 935.6367,-143.6217"/>
<polygon fill="#191970" stroke="#191970" points="937.7096,-140.7924 927.7959,-137.055 933.2151,-146.159 937.7096,-140.7924"/>
</g>
<!-- Node23&#45;&gt;Node19 -->
<g id="edge43" class="edge">
<title>Node23&#45;&gt;Node19</title>
<path fill="none" stroke="#191970" d="M1008.251,-179.2548C1026.8554,-155.3481 1062.803,-109.1554 1082.5545,-83.7747"/>
<polygon fill="#191970" stroke="#191970" points="1085.4311,-85.7772 1088.8105,-75.7358 1079.9067,-81.4781 1085.4311,-85.7772"/>
</g>
<!-- Node24&#45;&gt;Node20 -->
<g id="edge45" class="edge">
<title>Node24&#45;&gt;Node20</title>
<path fill="none" stroke="#191970" d="M1405.387,-184.9005C1405.387,-175.149 1405.387,-159.7597 1405.387,-147.3695"/>
<polygon fill="#191970" stroke="#191970" points="1408.8871,-147.0816 1405.387,-137.0817 1401.8871,-147.0817 1408.8871,-147.0816"/>
</g>
</g>
</svg>
