<?xml version="1.0" encoding="UTF-8" standalone="no"?>
<!DOCTYPE svg PUBLIC "-//W3C//DTD SVG 1.1//EN"
 "http://www.w3.org/Graphics/SVG/1.1/DTD/svg11.dtd">
<!-- Generated by graphviz version 2.40.1 (20161225.0304)
 -->
<!-- Title: include/lug/Graphics/Vulkan/API/DescriptorSetLayout.hpp Pages: 1 -->
<!--zoomable 463 -->
<svg id="main" version="1.1" xmlns="http://www.w3.org/2000/svg" xmlns:xlink="http://www.w3.org/1999/xlink" xml:space="preserve" onload="init(evt)">
<style type="text/css"><![CDATA[
.edge:hover path { stroke: red; }
.edge:hover polygon { stroke: red; fill: red; }
]]></style>
<script type="text/javascript"><![CDATA[
var edges = document.getElementsByTagName('g');
if (edges && edges.length) {
  for (var i=0;i<edges.length;i++) {
    if (edges[i].id.substr(0,4)=='edge') {
      edges[i].setAttribute('class','edge');
    }
  }
}
]]></script>
        <defs>
                <circle id="rim" cx="0" cy="0" r="7"/>
                <circle id="rim2" cx="0" cy="0" r="3.5"/>
                <g id="zoomPlus">
                        <use xlink:href="#rim" fill="#404040">
                                <set attributeName="fill" to="#808080" begin="zoomplus.mouseover" end="zoomplus.mouseout"/>
                        </use>
                        <path d="M-4,0h8M0,-4v8" fill="none" stroke="white" stroke-width="1.5" pointer-events="none"/>
                </g>
                <g id="zoomMin">
                        <use xlink:href="#rim" fill="#404040">
                                <set attributeName="fill" to="#808080" begin="zoomminus.mouseover" end="zoomminus.mouseout"/>
                        </use>
                        <path d="M-4,0h8" fill="none" stroke="white" stroke-width="1.5" pointer-events="none"/>
                </g>
                <g id="dirArrow">
                        <path fill="none" stroke="white" stroke-width="1.5" d="M0,-3.0v7 M-2.5,-0.5L0,-3.0L2.5,-0.5"/>
                </g>
               <g id="resetDef">
                       <use xlink:href="#rim2" fill="#404040">
                               <set attributeName="fill" to="#808080" begin="reset.mouseover" end="reset.mouseout"/>
                       </use>
               </g>
        </defs>

<script type="text/javascript">
var viewWidth = 1190;
var viewHeight = 463;
var sectionId = 'dynsection-1';
</script>
<script xlink:href="svgpan.js"/>
<svg id="graph" class="graph">
<g id="viewport">
<title>include/lug/Graphics/Vulkan/API/DescriptorSetLayout.hpp</title>
<!-- Node9 -->
<g id="node1" class="node">
<title>Node9</title>
<polygon fill="#bfbfbf" stroke="#000000" points="285,-424.5 285,-454.5 488,-454.5 488,-424.5 285,-424.5"/>
<text text-anchor="start" x="293" y="-442.5" font-family="Helvetica,sans-Serif" font-size="10.00" fill="#000000">include/lug/Graphics</text>
<text text-anchor="middle" x="386.5" y="-431.5" font-family="Helvetica,sans-Serif" font-size="10.00" fill="#000000">/Vulkan/API/DescriptorSetLayout.hpp</text>
</g>
<!-- Node10 -->
<g id="node2" class="node">
<title>Node10</title>
<g id="a_node2"><a xlink:href="PipelineLayout_8hpp.html" target="_top" xlink:title="include/lug/Graphics\l/Vulkan/API/PipelineLayout.hpp">
<polygon fill="none" stroke="#000000" points="299.5,-357.5 299.5,-387.5 473.5,-387.5 473.5,-357.5 299.5,-357.5"/>
<text text-anchor="start" x="307.5" y="-375.5" font-family="Helvetica,sans-Serif" font-size="10.00" fill="#000000">include/lug/Graphics</text>
<text text-anchor="middle" x="386.5" y="-364.5" font-family="Helvetica,sans-Serif" font-size="10.00" fill="#000000">/Vulkan/API/PipelineLayout.hpp</text>
</a>
</g>
</g>
<!-- Node9&#45;&gt;Node10 -->
<g id="edge1" class="edge">
<title>Node9&#45;&gt;Node10</title>
<path fill="none" stroke="#191970" d="M386.5,-414.0249C386.5,-405.128 386.5,-395.4287 386.5,-387.6432"/>
<polygon fill="#191970" stroke="#191970" points="383.0001,-414.2966 386.5,-424.2967 390.0001,-414.2967 383.0001,-414.2966"/>
</g>
<!-- Node13 -->
<g id="node5" class="node">
<title>Node13</title>
<g id="a_node5"><a xlink:href="BufferPool_8hpp.html" target="_top" xlink:title="include/lug/Graphics\l/Vulkan/Render/BufferPool.hpp">
<polygon fill="none" stroke="#000000" points="149,-151 149,-181 322,-181 322,-151 149,-151"/>
<text text-anchor="start" x="157" y="-169" font-family="Helvetica,sans-Serif" font-size="10.00" fill="#000000">include/lug/Graphics</text>
<text text-anchor="middle" x="235.5" y="-158" font-family="Helvetica,sans-Serif" font-size="10.00" fill="#000000">/Vulkan/Render/BufferPool.hpp</text>
</a>
</g>
</g>
<!-- Node9&#45;&gt;Node13 -->
<g id="edge35" class="edge">
<title>Node9&#45;&gt;Node13</title>
<path fill="none" stroke="#191970" d="M336.7322,-419.874C320.5891,-411.7715 303.5082,-401.1519 290.5,-388 232.8405,-329.7033 232.4152,-221.007 234.4065,-181.1517"/>
<polygon fill="#191970" stroke="#191970" points="335.5597,-423.1931 346.0907,-424.3539 338.5821,-416.8792 335.5597,-423.1931"/>
</g>
<!-- Node31 -->
<g id="node23" class="node">
<title>Node31</title>
<g id="a_node23"><a xlink:href="DescriptorSetLayout_8cpp.html" target="_top" xlink:title="src/lug/Graphics/Vulkan\l/API/DescriptorSetLayout.cpp">
<polygon fill="none" stroke="#000000" points="491.5,-357.5 491.5,-387.5 655.5,-387.5 655.5,-357.5 491.5,-357.5"/>
<text text-anchor="start" x="499.5" y="-375.5" font-family="Helvetica,sans-Serif" font-size="10.00" fill="#000000">src/lug/Graphics/Vulkan</text>
<text text-anchor="middle" x="573.5" y="-364.5" font-family="Helvetica,sans-Serif" font-size="10.00" fill="#000000">/API/DescriptorSetLayout.cpp</text>
</a>
</g>
</g>
<!-- Node9&#45;&gt;Node31 -->
<g id="edge36" class="edge">
<title>Node9&#45;&gt;Node31</title>
<path fill="none" stroke="#191970" d="M438.128,-421.0023C467.4674,-410.4903 503.7393,-397.4945 531.3505,-387.6017"/>
<polygon fill="#191970" stroke="#191970" points="436.6999,-417.796 428.4665,-424.4639 439.061,-424.3858 436.6999,-417.796"/>
</g>
<!-- Node11 -->
<g id="node3" class="node">
<title>Node11</title>
<g id="a_node3"><a xlink:href="DescriptorSet_8hpp.html" target="_top" xlink:title="include/lug/Graphics\l/Vulkan/API/DescriptorSet.hpp">
<polygon fill="none" stroke="#000000" points="264.5,-290.5 264.5,-320.5 434.5,-320.5 434.5,-290.5 264.5,-290.5"/>
<text text-anchor="start" x="272.5" y="-308.5" font-family="Helvetica,sans-Serif" font-size="10.00" fill="#000000">include/lug/Graphics</text>
<text text-anchor="middle" x="349.5" y="-297.5" font-family="Helvetica,sans-Serif" font-size="10.00" fill="#000000">/Vulkan/API/DescriptorSet.hpp</text>
</a>
</g>
</g>
<!-- Node10&#45;&gt;Node11 -->
<g id="edge2" class="edge">
<title>Node10&#45;&gt;Node11</title>
<path fill="none" stroke="#191970" d="M373.2373,-348.4837C368.1103,-339.1996 362.3984,-328.8565 357.8626,-320.6432"/>
<polygon fill="#191970" stroke="#191970" points="370.206,-350.2348 378.1041,-357.2967 376.3337,-346.8508 370.206,-350.2348"/>
</g>
<!-- Node28 -->
<g id="node20" class="node">
<title>Node28</title>
<g id="a_node20"><a xlink:href="Pipeline_8hpp.html" target="_top" xlink:title="include/lug/Graphics\l/Vulkan/API/Pipeline.hpp">
<polygon fill="none" stroke="#000000" points="631,-223.5 631,-253.5 772,-253.5 772,-223.5 631,-223.5"/>
<text text-anchor="start" x="639" y="-241.5" font-family="Helvetica,sans-Serif" font-size="10.00" fill="#000000">include/lug/Graphics</text>
<text text-anchor="middle" x="701.5" y="-230.5" font-family="Helvetica,sans-Serif" font-size="10.00" fill="#000000">/Vulkan/API/Pipeline.hpp</text>
</a>
</g>
</g>
<!-- Node10&#45;&gt;Node28 -->
<g id="edge30" class="edge">
<title>Node10&#45;&gt;Node28</title>
<path fill="none" stroke="#191970" d="M410.8113,-350.5472C436.4904,-327.5325 474.3785,-294.1299 482.5,-290 495.8603,-283.2061 571.9361,-266.0437 630.7143,-253.3895"/>
<polygon fill="#191970" stroke="#191970" points="408.3806,-348.0259 403.2804,-357.3123 413.0586,-353.2333 408.3806,-348.0259"/>
</g>
<!-- Node30 -->
<g id="node22" class="node">
<title>Node30</title>
<g id="a_node22"><a xlink:href="PipelineLayout_8cpp.html" target="_top" xlink:title="src/lug/Graphics/Vulkan\l/API/PipelineLayout.cpp">
<polygon fill="none" stroke="#000000" points="491,-290.5 491,-320.5 628,-320.5 628,-290.5 491,-290.5"/>
<text text-anchor="start" x="499" y="-308.5" font-family="Helvetica,sans-Serif" font-size="10.00" fill="#000000">src/lug/Graphics/Vulkan</text>
<text text-anchor="middle" x="559.5" y="-297.5" font-family="Helvetica,sans-Serif" font-size="10.00" fill="#000000">/API/PipelineLayout.cpp</text>
</a>
</g>
</g>
<!-- Node10&#45;&gt;Node30 -->
<g id="edge34" class="edge">
<title>Node10&#45;&gt;Node30</title>
<path fill="none" stroke="#191970" d="M434.9724,-353.7275C461.9887,-343.2645 495.1842,-330.4084 520.5061,-320.6017"/>
<polygon fill="#191970" stroke="#191970" points="433.3856,-350.5886 425.3246,-357.4639 435.9137,-357.1162 433.3856,-350.5886"/>
</g>
<!-- Node12 -->
<g id="node4" class="node">
<title>Node12</title>
<g id="a_node4"><a xlink:href="DescriptorPool_8hpp.html" target="_top" xlink:title="include/lug/Graphics\l/Vulkan/API/DescriptorPool.hpp">
<polygon fill="none" stroke="#000000" points="283,-223.5 283,-253.5 458,-253.5 458,-223.5 283,-223.5"/>
<text text-anchor="start" x="291" y="-241.5" font-family="Helvetica,sans-Serif" font-size="10.00" fill="#000000">include/lug/Graphics</text>
<text text-anchor="middle" x="370.5" y="-230.5" font-family="Helvetica,sans-Serif" font-size="10.00" fill="#000000">/Vulkan/API/DescriptorPool.hpp</text>
</a>
</g>
</g>
<!-- Node11&#45;&gt;Node12 -->
<g id="edge3" class="edge">
<title>Node11&#45;&gt;Node12</title>
<path fill="none" stroke="#191970" d="M357.3012,-280.6103C360.1394,-271.5553 363.2597,-261.5998 365.7536,-253.6432"/>
<polygon fill="#191970" stroke="#191970" points="353.9164,-279.7076 354.2652,-290.2967 360.5959,-281.8012 353.9164,-279.7076"/>
</g>
<!-- Node11&#45;&gt;Node13 -->
<g id="edge27" class="edge">
<title>Node11&#45;&gt;Node13</title>
<path fill="none" stroke="#191970" d="M310.5274,-285.0977C297.4656,-276.8088 283.6567,-266.2702 273.5,-254 255.2487,-231.9507 244.3687,-199.8056 239.1939,-181.0843"/>
<polygon fill="#191970" stroke="#191970" points="309.0302,-288.2828 319.3968,-290.4705 312.6571,-282.2957 309.0302,-288.2828"/>
</g>
<!-- Node14 -->
<g id="node6" class="node">
<title>Node14</title>
<g id="a_node6"><a xlink:href="Forward_8hpp.html" target="_top" xlink:title="include/lug/Graphics\l/Vulkan/Render/Technique\l/Forward.hpp">
<polygon fill="none" stroke="#000000" points="0,-67.5 0,-108.5 149,-108.5 149,-67.5 0,-67.5"/>
<text text-anchor="start" x="8" y="-96.5" font-family="Helvetica,sans-Serif" font-size="10.00" fill="#000000">include/lug/Graphics</text>
<text text-anchor="start" x="8" y="-85.5" font-family="Helvetica,sans-Serif" font-size="10.00" fill="#000000">/Vulkan/Render/Technique</text>
<text text-anchor="middle" x="74.5" y="-74.5" font-family="Helvetica,sans-Serif" font-size="10.00" fill="#000000">/Forward.hpp</text>
</a>
</g>
</g>
<!-- Node11&#45;&gt;Node14 -->
<g id="edge28" class="edge">
<title>Node11&#45;&gt;Node14</title>
<path fill="none" stroke="#191970" d="M300.7591,-286.3502C255.106,-266.6137 186.978,-232.3528 139.5,-187 115.2655,-163.8503 95.5404,-130.0446 84.4072,-108.5378"/>
<polygon fill="#191970" stroke="#191970" points="299.5721,-289.6487 310.1443,-290.3401 302.3107,-283.2067 299.5721,-289.6487"/>
</g>
<!-- Node27 -->
<g id="node19" class="node">
<title>Node27</title>
<g id="a_node19"><a xlink:href="DescriptorSet_8cpp.html" target="_top" xlink:title="src/lug/Graphics/Vulkan\l/API/DescriptorSet.cpp">
<polygon fill="none" stroke="#000000" points="476,-223.5 476,-253.5 613,-253.5 613,-223.5 476,-223.5"/>
<text text-anchor="start" x="484" y="-241.5" font-family="Helvetica,sans-Serif" font-size="10.00" fill="#000000">src/lug/Graphics/Vulkan</text>
<text text-anchor="middle" x="544.5" y="-230.5" font-family="Helvetica,sans-Serif" font-size="10.00" fill="#000000">/API/DescriptorSet.cpp</text>
</a>
</g>
</g>
<!-- Node11&#45;&gt;Node27 -->
<g id="edge29" class="edge">
<title>Node11&#45;&gt;Node27</title>
<path fill="none" stroke="#191970" d="M402.9381,-287.1392C433.6022,-276.6033 471.6297,-263.5375 500.5473,-253.6017"/>
<polygon fill="#191970" stroke="#191970" points="401.5818,-283.9043 393.2618,-290.4639 403.8565,-290.5245 401.5818,-283.9043"/>
</g>
<!-- Node12&#45;&gt;Node13 -->
<g id="edge4" class="edge">
<title>Node12&#45;&gt;Node13</title>
<path fill="none" stroke="#191970" d="M333.4272,-218.5905C311.3179,-206.717 283.7008,-191.8856 263.4363,-181.0028"/>
<polygon fill="#191970" stroke="#191970" points="332.062,-221.8301 342.5279,-223.478 335.3739,-215.6632 332.062,-221.8301"/>
</g>
<!-- Node18 -->
<g id="node10" class="node">
<title>Node18</title>
<g id="a_node10"><a xlink:href="Technique_8hpp.html" target="_top" xlink:title="include/lug/Graphics\l/Vulkan/Render/Technique\l/Technique.hpp">
<polygon fill="none" stroke="#000000" points="398,-145.5 398,-186.5 547,-186.5 547,-145.5 398,-145.5"/>
<text text-anchor="start" x="406" y="-174.5" font-family="Helvetica,sans-Serif" font-size="10.00" fill="#000000">include/lug/Graphics</text>
<text text-anchor="start" x="406" y="-163.5" font-family="Helvetica,sans-Serif" font-size="10.00" fill="#000000">/Vulkan/Render/Technique</text>
<text text-anchor="middle" x="472.5" y="-152.5" font-family="Helvetica,sans-Serif" font-size="10.00" fill="#000000">/Technique.hpp</text>
</a>
</g>
</g>
<!-- Node12&#45;&gt;Node18 -->
<g id="edge9" class="edge">
<title>Node12&#45;&gt;Node18</title>
<path fill="none" stroke="#191970" d="M399.8254,-217.656C413.5932,-207.87 429.95,-196.2439 443.6565,-186.5015"/>
<polygon fill="#191970" stroke="#191970" points="397.7576,-214.8317 391.6345,-223.478 401.813,-220.5372 397.7576,-214.8317"/>
</g>
<!-- Node19 -->
<g id="node11" class="node">
<title>Node19</title>
<g id="a_node11"><a xlink:href="Vulkan_2Render_2View_8hpp.html" target="_top" xlink:title="include/lug/Graphics\l/Vulkan/Render/View.hpp">
<polygon fill="none" stroke="#000000" points="322,-73 322,-103 467,-103 467,-73 322,-73"/>
<text text-anchor="start" x="330" y="-91" font-family="Helvetica,sans-Serif" font-size="10.00" fill="#000000">include/lug/Graphics</text>
<text text-anchor="middle" x="394.5" y="-80" font-family="Helvetica,sans-Serif" font-size="10.00" fill="#000000">/Vulkan/Render/View.hpp</text>
</a>
</g>
</g>
<!-- Node12&#45;&gt;Node19 -->
<g id="edge16" class="edge">
<title>Node12&#45;&gt;Node19</title>
<path fill="none" stroke="#191970" d="M374.5539,-213.0787C379.5671,-181.642 387.941,-129.1304 392.0602,-103.2994"/>
<polygon fill="#191970" stroke="#191970" points="371.0519,-212.8146 372.9333,-223.241 377.9645,-213.917 371.0519,-212.8146"/>
</g>
<!-- Node22 -->
<g id="node14" class="node">
<title>Node22</title>
<g id="a_node14"><a xlink:href="Graphics_2Vulkan_2Render_2Window_8hpp.html" target="_top" xlink:title="include/lug/Graphics\l/Vulkan/Render/Window.hpp">
<polygon fill="none" stroke="#000000" points="711.5,-151 711.5,-181 871.5,-181 871.5,-151 711.5,-151"/>
<text text-anchor="start" x="719.5" y="-169" font-family="Helvetica,sans-Serif" font-size="10.00" fill="#000000">include/lug/Graphics</text>
<text text-anchor="middle" x="791.5" y="-158" font-family="Helvetica,sans-Serif" font-size="10.00" fill="#000000">/Vulkan/Render/Window.hpp</text>
</a>
</g>
</g>
<!-- Node12&#45;&gt;Node22 -->
<g id="edge17" class="edge">
<title>Node12&#45;&gt;Node22</title>
<path fill="none" stroke="#191970" d="M467.964,-221.7158C541.7631,-209.0069 641.9145,-191.76 711.1495,-179.8371"/>
<polygon fill="#191970" stroke="#191970" points="466.9924,-218.3315 457.7315,-223.478 468.1804,-225.23 466.9924,-218.3315"/>
</g>
<!-- Node26 -->
<g id="node18" class="node">
<title>Node26</title>
<g id="a_node18"><a xlink:href="DescriptorPool_8cpp.html" target="_top" xlink:title="src/lug/Graphics/Vulkan\l/API/DescriptorPool.cpp">
<polygon fill="none" stroke="#000000" points="890,-151 890,-181 1027,-181 1027,-151 890,-151"/>
<text text-anchor="start" x="898" y="-169" font-family="Helvetica,sans-Serif" font-size="10.00" fill="#000000">src/lug/Graphics/Vulkan</text>
<text text-anchor="middle" x="958.5" y="-158" font-family="Helvetica,sans-Serif" font-size="10.00" fill="#000000">/API/DescriptorPool.cpp</text>
</a>
</g>
</g>
<!-- Node12&#45;&gt;Node26 -->
<g id="edge26" class="edge">
<title>Node12&#45;&gt;Node26</title>
<path fill="none" stroke="#191970" d="M468.2298,-222.9799C652.1193,-201.088 702.251,-218.5106 880.5,-187 889.3382,-185.4376 898.6324,-183.3439 907.602,-181.0822"/>
<polygon fill="#191970" stroke="#191970" points="467.7346,-219.5143 458.229,-224.1933 468.5778,-226.4633 467.7346,-219.5143"/>
</g>
<!-- Node13&#45;&gt;Node14 -->
<g id="edge5" class="edge">
<title>Node13&#45;&gt;Node14</title>
<path fill="none" stroke="#191970" d="M195.3255,-146.5366C171.4761,-134.9822 141.2602,-120.3435 117.0115,-108.5956"/>
<polygon fill="#191970" stroke="#191970" points="193.9321,-149.7506 204.4576,-150.9608 196.9841,-143.4509 193.9321,-149.7506"/>
</g>
<!-- Node17 -->
<g id="node9" class="node">
<title>Node17</title>
<g id="a_node9"><a xlink:href="BufferPool_8cpp.html" target="_top" xlink:title="src/lug/Graphics/Vulkan\l/Render/BufferPool.cpp">
<polygon fill="none" stroke="#000000" points="167,-73 167,-103 304,-103 304,-73 167,-73"/>
<text text-anchor="start" x="175" y="-91" font-family="Helvetica,sans-Serif" font-size="10.00" fill="#000000">src/lug/Graphics/Vulkan</text>
<text text-anchor="middle" x="235.5" y="-80" font-family="Helvetica,sans-Serif" font-size="10.00" fill="#000000">/Render/BufferPool.cpp</text>
</a>
</g>
</g>
<!-- Node13&#45;&gt;Node17 -->
<g id="edge8" class="edge">
<title>Node13&#45;&gt;Node17</title>
<path fill="none" stroke="#191970" d="M235.5,-140.7875C235.5,-128.4187 235.5,-113.9264 235.5,-103.2592"/>
<polygon fill="#191970" stroke="#191970" points="232.0001,-140.9608 235.5,-150.9608 239.0001,-140.9608 232.0001,-140.9608"/>
</g>
<!-- Node15 -->
<g id="node7" class="node">
<title>Node15</title>
<g id="a_node7"><a xlink:href="Forward_8cpp.html" target="_top" xlink:title="src/lug/Graphics/Vulkan\l/Render/Technique/Forward.cpp">
<polygon fill="none" stroke="#000000" points="321,-.5 321,-30.5 498,-30.5 498,-.5 321,-.5"/>
<text text-anchor="start" x="329" y="-18.5" font-family="Helvetica,sans-Serif" font-size="10.00" fill="#000000">src/lug/Graphics/Vulkan</text>
<text text-anchor="middle" x="409.5" y="-7.5" font-family="Helvetica,sans-Serif" font-size="10.00" fill="#000000">/Render/Technique/Forward.cpp</text>
</a>
</g>
</g>
<!-- Node14&#45;&gt;Node15 -->
<g id="edge6" class="edge">
<title>Node14&#45;&gt;Node15</title>
<path fill="none" stroke="#191970" d="M159.2254,-66.6455C222.1571,-52.3896 283.9325,-39.8349 331.2566,-30.5222"/>
<polygon fill="#191970" stroke="#191970" points="158.0903,-63.3143 149.1174,-68.9478 159.645,-70.1395 158.0903,-63.3143"/>
</g>
<!-- Node16 -->
<g id="node8" class="node">
<title>Node16</title>
<g id="a_node8"><a xlink:href="Vulkan_2Render_2View_8cpp.html" target="_top" xlink:title="src/lug/Graphics/Vulkan\l/Render/View.cpp">
<polygon fill="none" stroke="#000000" points="166,-.5 166,-30.5 303,-30.5 303,-.5 166,-.5"/>
<text text-anchor="start" x="174" y="-18.5" font-family="Helvetica,sans-Serif" font-size="10.00" fill="#000000">src/lug/Graphics/Vulkan</text>
<text text-anchor="middle" x="234.5" y="-7.5" font-family="Helvetica,sans-Serif" font-size="10.00" fill="#000000">/Render/View.cpp</text>
</a>
</g>
</g>
<!-- Node14&#45;&gt;Node16 -->
<g id="edge7" class="edge">
<title>Node14&#45;&gt;Node16</title>
<path fill="none" stroke="#191970" d="M129.2392,-63.1963C153.1395,-52.3665 180.3917,-40.0178 201.1778,-30.5991"/>
<polygon fill="#191970" stroke="#191970" points="127.5856,-60.103 119.9216,-67.4183 130.4747,-66.479 127.5856,-60.103"/>
</g>
<!-- Node18&#45;&gt;Node14 -->
<g id="edge10" class="edge">
<title>Node18&#45;&gt;Node14</title>
<path fill="none" stroke="#191970" d="M387.7682,-152.2936C324.1789,-141.6137 235.0927,-125.8154 157.5,-109 154.7399,-108.4019 151.9324,-107.7768 149.0996,-107.1322"/>
<polygon fill="#191970" stroke="#191970" points="387.3088,-155.7653 397.7493,-153.9631 388.4637,-148.8612 387.3088,-155.7653"/>
</g>
<!-- Node18&#45;&gt;Node19 -->
<g id="edge11" class="edge">
<title>Node18&#45;&gt;Node19</title>
<path fill="none" stroke="#191970" d="M444.1996,-137.6996C432.5669,-126.0669 419.5578,-113.0578 409.7679,-103.2679"/>
<polygon fill="#191970" stroke="#191970" points="442.0515,-140.5012 451.5974,-145.0974 447.0012,-135.5515 442.0515,-140.5012"/>
</g>
<!-- Node21 -->
<g id="node13" class="node">
<title>Node21</title>
<g id="a_node13"><a xlink:href="Technique_8cpp.html" target="_top" xlink:title="src/lug/Graphics/Vulkan\l/Render/Technique/Technique.cpp">
<polygon fill="none" stroke="#000000" points="485,-73 485,-103 672,-103 672,-73 485,-73"/>
<text text-anchor="start" x="493" y="-91" font-family="Helvetica,sans-Serif" font-size="10.00" fill="#000000">src/lug/Graphics/Vulkan</text>
<text text-anchor="middle" x="578.5" y="-80" font-family="Helvetica,sans-Serif" font-size="10.00" fill="#000000">/Render/Technique/Technique.cpp</text>
</a>
</g>
</g>
<!-- Node18&#45;&gt;Node21 -->
<g id="edge15" class="edge">
<title>Node18&#45;&gt;Node21</title>
<path fill="none" stroke="#191970" d="M508.948,-139.1798C525.3408,-127.1171 544.0819,-113.3265 557.9767,-103.102"/>
<polygon fill="#191970" stroke="#191970" points="506.6078,-136.5563 500.6278,-145.3022 510.7566,-142.1944 506.6078,-136.5563"/>
</g>
<!-- Node19&#45;&gt;Node15 -->
<g id="edge12" class="edge">
<title>Node19&#45;&gt;Node15</title>
<path fill="none" stroke="#191970" d="M399.6357,-63.1774C401.8831,-52.3151 404.4459,-39.9281 406.396,-30.5028"/>
<polygon fill="#191970" stroke="#191970" points="396.2067,-62.4762 397.608,-72.978 403.0616,-63.8945 396.2067,-62.4762"/>
</g>
<!-- Node19&#45;&gt;Node16 -->
<g id="edge13" class="edge">
<title>Node19&#45;&gt;Node16</title>
<path fill="none" stroke="#191970" d="M351.9593,-68.7237C325.53,-56.748 292.0557,-41.5799 267.6096,-30.5028"/>
<polygon fill="#191970" stroke="#191970" points="350.7948,-72.0386 361.3479,-72.978 353.6839,-65.6626 350.7948,-72.0386"/>
</g>
<!-- Node20 -->
<g id="node12" class="node">
<title>Node20</title>
<g id="a_node12"><a xlink:href="Graphics_2Vulkan_2Render_2Window_8cpp.html" target="_top" xlink:title="src/lug/Graphics/Vulkan\l/Render/Window.cpp">
<polygon fill="none" stroke="#000000" points="541,-.5 541,-30.5 678,-30.5 678,-.5 541,-.5"/>
<text text-anchor="start" x="549" y="-18.5" font-family="Helvetica,sans-Serif" font-size="10.00" fill="#000000">src/lug/Graphics/Vulkan</text>
<text text-anchor="middle" x="609.5" y="-7.5" font-family="Helvetica,sans-Serif" font-size="10.00" fill="#000000">/Render/Window.cpp</text>
</a>
</g>
</g>
<!-- Node19&#45;&gt;Node20 -->
<g id="edge14" class="edge">
<title>Node19&#45;&gt;Node20</title>
<path fill="none" stroke="#191970" d="M448.8803,-69.6624C484.8026,-57.5491 531.2951,-41.8714 565.0089,-30.5028"/>
<polygon fill="#191970" stroke="#191970" points="447.4055,-66.4661 439.0481,-72.978 449.6423,-73.0991 447.4055,-66.4661"/>
</g>
<!-- Node22&#45;&gt;Node16 -->
<g id="edge23" class="edge">
<title>Node22&#45;&gt;Node16</title>
<path fill="none" stroke="#191970" d="M762.5431,-144.8279C749.0317,-134.5143 732.9929,-121.6331 719.5,-109 701.1241,-91.7952 703.9854,-78.3175 681.5,-67 607.9069,-29.9587 394.0043,-43.0438 312.5,-31 309.4952,-30.556 306.4308,-30.0738 303.3393,-29.5633"/>
<polygon fill="#191970" stroke="#191970" points="760.4925,-147.6652 770.5838,-150.8926 764.7077,-142.0766 760.4925,-147.6652"/>
</g>
<!-- Node22&#45;&gt;Node20 -->
<g id="edge24" class="edge">
<title>Node22&#45;&gt;Node20</title>
<path fill="none" stroke="#191970" d="M830.6367,-145.3027C843.9095,-136.1036 857.2123,-123.9365 864.5,-109 872.6853,-92.2237 876.3209,-81.4469 864.5,-67 864.1229,-66.5392 753.4409,-44.3082 678.0394,-29.2082"/>
<polygon fill="#191970" stroke="#191970" points="828.4659,-142.5389 821.9825,-150.9184 832.2764,-148.411 828.4659,-142.5389"/>
</g>
<!-- Node23 -->
<g id="node15" class="node">
<title>Node23</title>
<g id="a_node15"><a xlink:href="Vulkan_2Renderer_8hpp.html" target="_top" xlink:title="include/lug/Graphics\l/Vulkan/Renderer.hpp">
<polygon fill="none" stroke="#000000" points="728,-73 728,-103 855,-103 855,-73 728,-73"/>
<text text-anchor="start" x="736" y="-91" font-family="Helvetica,sans-Serif" font-size="10.00" fill="#000000">include/lug/Graphics</text>
<text text-anchor="middle" x="791.5" y="-80" font-family="Helvetica,sans-Serif" font-size="10.00" fill="#000000">/Vulkan/Renderer.hpp</text>
</a>
</g>
</g>
<!-- Node22&#45;&gt;Node23 -->
<g id="edge18" class="edge">
<title>Node22&#45;&gt;Node23</title>
<path fill="none" stroke="#191970" d="M791.5,-140.7875C791.5,-128.4187 791.5,-113.9264 791.5,-103.2592"/>
<polygon fill="#191970" stroke="#191970" points="788.0001,-140.9608 791.5,-150.9608 795.0001,-140.9608 788.0001,-140.9608"/>
</g>
<!-- Node25 -->
<g id="node17" class="node">
<title>Node25</title>
<g id="a_node17"><a xlink:href="Vulkan_2Renderer_8cpp.html" target="_top" xlink:title="src/lug/Graphics/Vulkan\l/Renderer.cpp">
<polygon fill="none" stroke="#000000" points="883,-.5 883,-30.5 1020,-30.5 1020,-.5 883,-.5"/>
<text text-anchor="start" x="891" y="-18.5" font-family="Helvetica,sans-Serif" font-size="10.00" fill="#000000">src/lug/Graphics/Vulkan</text>
<text text-anchor="middle" x="951.5" y="-7.5" font-family="Helvetica,sans-Serif" font-size="10.00" fill="#000000">/Renderer.cpp</text>
</a>
</g>
</g>
<!-- Node22&#45;&gt;Node25 -->
<g id="edge25" class="edge">
<title>Node22&#45;&gt;Node25</title>
<path fill="none" stroke="#191970" d="M840.6598,-146.5912C859.9651,-137.278 881.3251,-124.6911 897.5,-109 921.0457,-86.1586 937.6342,-50.8531 945.7744,-30.798"/>
<polygon fill="#191970" stroke="#191970" points="838.976,-143.514 831.3794,-150.8994 841.9235,-149.8632 838.976,-143.514"/>
</g>
<!-- Node23&#45;&gt;Node15 -->
<g id="edge20" class="edge">
<title>Node23&#45;&gt;Node15</title>
<path fill="none" stroke="#191970" d="M728.6007,-70.515C723.506,-69.2669 718.4255,-68.0777 713.5,-67 641.4668,-51.2392 558.9346,-37.5286 498.0584,-28.2252"/>
<polygon fill="#191970" stroke="#191970" points="727.8273,-73.9294 738.3789,-72.974 729.5345,-67.1408 727.8273,-73.9294"/>
</g>
<!-- Node23&#45;&gt;Node20 -->
<g id="edge21" class="edge">
<title>Node23&#45;&gt;Node20</title>
<path fill="none" stroke="#191970" d="M744.2925,-69.1948C714.0505,-57.1478 675.3355,-41.7257 647.1622,-30.5028"/>
<polygon fill="#191970" stroke="#191970" points="743.2042,-72.5287 753.7895,-72.978 745.7947,-66.0257 743.2042,-72.5287"/>
</g>
<!-- Node24 -->
<g id="node16" class="node">
<title>Node24</title>
<g id="a_node16"><a xlink:href="Graphics_8cpp.html" target="_top" xlink:title="src/lug/Graphics/Graphics.cpp">
<polygon fill="none" stroke="#000000" points="696.5,-6 696.5,-25 864.5,-25 864.5,-6 696.5,-6"/>
<text text-anchor="middle" x="780.5" y="-13" font-family="Helvetica,sans-Serif" font-size="10.00" fill="#000000">src/lug/Graphics/Graphics.cpp</text>
</a>
</g>
</g>
<!-- Node23&#45;&gt;Node24 -->
<g id="edge19" class="edge">
<title>Node23&#45;&gt;Node24</title>
<path fill="none" stroke="#191970" d="M787.6773,-62.805C785.723,-49.924 783.4561,-34.9836 782.0014,-25.3957"/>
<polygon fill="#191970" stroke="#191970" points="784.2602,-63.6162 789.2208,-72.978 791.181,-62.566 784.2602,-63.6162"/>
</g>
<!-- Node23&#45;&gt;Node25 -->
<g id="edge22" class="edge">
<title>Node23&#45;&gt;Node25</title>
<path fill="none" stroke="#191970" d="M834.0407,-68.7237C860.47,-56.748 893.9443,-41.5799 918.3904,-30.5028"/>
<polygon fill="#191970" stroke="#191970" points="832.3161,-65.6626 824.6521,-72.978 835.2052,-72.0386 832.3161,-65.6626"/>
</g>
<!-- Node28&#45;&gt;Node18 -->
<g id="edge31" class="edge">
<title>Node28&#45;&gt;Node18</title>
<path fill="none" stroke="#191970" d="M644.2446,-220.3733C611.7334,-210.0804 570.932,-197.163 537.2565,-186.5015"/>
<polygon fill="#191970" stroke="#191970" points="643.461,-223.7964 654.0511,-223.478 645.5738,-217.1228 643.461,-223.7964"/>
</g>
<!-- Node28&#45;&gt;Node23 -->
<g id="edge32" class="edge">
<title>Node28&#45;&gt;Node23</title>
<path fill="none" stroke="#191970" d="M695.6328,-213.6343C692.3317,-193.7907 690.8966,-165.9437 702.5,-145 713.0816,-125.9005 733.0568,-112.241 751.4059,-103.0911"/>
<polygon fill="#191970" stroke="#191970" points="692.1994,-214.3144 697.5287,-223.4713 699.0729,-212.9896 692.1994,-214.3144"/>
</g>
<!-- Node29 -->
<g id="node21" class="node">
<title>Node29</title>
<g id="a_node21"><a xlink:href="Pipeline_8cpp.html" target="_top" xlink:title="src/lug/Graphics/Vulkan\l/API/Pipeline.cpp">
<polygon fill="none" stroke="#000000" points="1045,-151 1045,-181 1182,-181 1182,-151 1045,-151"/>
<text text-anchor="start" x="1053" y="-169" font-family="Helvetica,sans-Serif" font-size="10.00" fill="#000000">src/lug/Graphics/Vulkan</text>
<text text-anchor="middle" x="1113.5" y="-158" font-family="Helvetica,sans-Serif" font-size="10.00" fill="#000000">/API/Pipeline.cpp</text>
</a>
</g>
</g>
<!-- Node28&#45;&gt;Node29 -->
<g id="edge33" class="edge">
<title>Node28&#45;&gt;Node29</title>
<path fill="none" stroke="#191970" d="M782.4195,-228.6839C850.5613,-219.792 950.41,-205.295 1036.5,-187 1044.6322,-185.2718 1053.1821,-183.2002 1061.5073,-181.041"/>
<polygon fill="#191970" stroke="#191970" points="781.6503,-225.2542 772.1822,-230.0087 782.5488,-232.1963 781.6503,-225.2542"/>
</g>
</g>
</svg>
        <g id="navigator" transform="translate(0 0)" fill="#404254">
                <rect fill="#f2f5e9" fill-opacity="0.5" stroke="#606060" stroke-width=".5" x="0" y="0" width="60" height="60"/>
                <use id="zoomplus" xlink:href="#zoomPlus" x="17" y="9" onmousedown="handleZoom(evt,'in')"/>
                <use id="zoomminus" xlink:href="#zoomMin" x="42" y="9" onmousedown="handleZoom(evt,'out')"/>
                <use id="reset" xlink:href="#resetDef" x="30" y="36" onmousedown="handleReset()"/>
                <g id="arrowUp" xlink:href="#dirArrow" transform="translate(30 24)" onmousedown="handlePan(0,-1)">
                  <use xlink:href="#rim" fill="#404040">
                        <set attributeName="fill" to="#808080" begin="arrowUp.mouseover" end="arrowUp.mouseout"/>
                  </use>
                  <path fill="none" stroke="white" stroke-width="1.5" d="M0,-3.0v7 M-2.5,-0.5L0,-3.0L2.5,-0.5"/>
                </g>
                <g id="arrowRight" xlink:href="#dirArrow" transform="rotate(90) translate(36 -43)" onmousedown="handlePan(1,0)">
                  <use xlink:href="#rim" fill="#404040">
                        <set attributeName="fill" to="#808080" begin="arrowRight.mouseover" end="arrowRight.mouseout"/>
                  </use>
                  <path fill="none" stroke="white" stroke-width="1.5" d="M0,-3.0v7 M-2.5,-0.5L0,-3.0L2.5,-0.5"/>
                </g>
                <g id="arrowDown" xlink:href="#dirArrow" transform="rotate(180) translate(-30 -48)" onmousedown="handlePan(0,1)">
                  <use xlink:href="#rim" fill="#404040">
                        <set attributeName="fill" to="#808080" begin="arrowDown.mouseover" end="arrowDown.mouseout"/>
                  </use>
                  <path fill="none" stroke="white" stroke-width="1.5" d="M0,-3.0v7 M-2.5,-0.5L0,-3.0L2.5,-0.5"/>
                </g>
                <g id="arrowLeft" xlink:href="#dirArrow" transform="rotate(270) translate(-36 17)" onmousedown="handlePan(-1,0)">
                  <use xlink:href="#rim" fill="#404040">
                        <set attributeName="fill" to="#808080" begin="arrowLeft.mouseover" end="arrowLeft.mouseout"/>
                  </use>
                  <path fill="none" stroke="white" stroke-width="1.5" d="M0,-3.0v7 M-2.5,-0.5L0,-3.0L2.5,-0.5"/>
                </g>
        </g>
        <svg viewBox="0 0 15 15" width="100%" height="30px" preserveAspectRatio="xMaxYMin meet">
         <g id="arrow_out" transform="scale(0.3 0.3)">
          <a xlink:href="DescriptorSetLayout_8hpp__dep__incl_org.svg" target="_base">
           <rect id="button" ry="5" rx="5" y="6" x="6" height="38" width="38"
                fill="#f2f5e9" fill-opacity="0.5" stroke="#606060" stroke-width="1.0"/>
           <path id="arrow"
             d="M 11.500037,31.436501 C 11.940474,20.09759 22.043105,11.32322 32.158766,21.979434 L 37.068811,17.246167 C 37.068811,17.246167 37.088388,32 37.088388,32 L 22.160133,31.978069 C 22.160133,31.978069 26.997745,27.140456 26.997745,27.140456 C 18.528582,18.264221 13.291696,25.230495 11.500037,31.436501 z"
             style="fill:#404040;"/>
          </a>
         </g>
        </svg>
</svg>
