<?xml version="1.0" encoding="UTF-8" standalone="no"?>
<!DOCTYPE svg PUBLIC "-//W3C//DTD SVG 1.1//EN"
 "http://www.w3.org/Graphics/SVG/1.1/DTD/svg11.dtd">
<!-- Generated by graphviz version 2.40.1 (20161225.0304)
 -->
<!-- Title: include/lug/Graphics/Vulkan/API/DeviceMemory.hpp Pages: 1 -->
<!--zoomable 463 -->
<svg id="main" version="1.1" xmlns="http://www.w3.org/2000/svg" xmlns:xlink="http://www.w3.org/1999/xlink" xml:space="preserve" onload="init(evt)">
<style type="text/css"><![CDATA[
.edge:hover path { stroke: red; }
.edge:hover polygon { stroke: red; fill: red; }
]]></style>
<script type="text/javascript"><![CDATA[
var edges = document.getElementsByTagName('g');
if (edges && edges.length) {
  for (var i=0;i<edges.length;i++) {
    if (edges[i].id.substr(0,4)=='edge') {
      edges[i].setAttribute('class','edge');
    }
  }
}
]]></script>
        <defs>
                <circle id="rim" cx="0" cy="0" r="7"/>
                <circle id="rim2" cx="0" cy="0" r="3.5"/>
                <g id="zoomPlus">
                        <use xlink:href="#rim" fill="#404040">
                                <set attributeName="fill" to="#808080" begin="zoomplus.mouseover" end="zoomplus.mouseout"/>
                        </use>
                        <path d="M-4,0h8M0,-4v8" fill="none" stroke="white" stroke-width="1.5" pointer-events="none"/>
                </g>
                <g id="zoomMin">
                        <use xlink:href="#rim" fill="#404040">
                                <set attributeName="fill" to="#808080" begin="zoomminus.mouseover" end="zoomminus.mouseout"/>
                        </use>
                        <path d="M-4,0h8" fill="none" stroke="white" stroke-width="1.5" pointer-events="none"/>
                </g>
                <g id="dirArrow">
                        <path fill="none" stroke="white" stroke-width="1.5" d="M0,-3.0v7 M-2.5,-0.5L0,-3.0L2.5,-0.5"/>
                </g>
               <g id="resetDef">
                       <use xlink:href="#rim2" fill="#404040">
                               <set attributeName="fill" to="#808080" begin="reset.mouseover" end="reset.mouseout"/>
                       </use>
               </g>
        </defs>

<script type="text/javascript">
var viewWidth = 1480;
var viewHeight = 463;
var sectionId = 'dynsection-1';
</script>
<script xlink:href="svgpan.js"/>
<svg id="graph" class="graph">
<g id="viewport">
<title>include/lug/Graphics/Vulkan/API/DeviceMemory.hpp</title>
<!-- Node9 -->
<g id="node1" class="node">
<title>Node9</title>
<polygon fill="#bfbfbf" stroke="#000000" points="943.5,-424.5 943.5,-454.5 1119.5,-454.5 1119.5,-424.5 943.5,-424.5"/>
<text text-anchor="start" x="951.5" y="-442.5" font-family="Helvetica,sans-Serif" font-size="10.00" fill="#000000">include/lug/Graphics</text>
<text text-anchor="middle" x="1031.5" y="-431.5" font-family="Helvetica,sans-Serif" font-size="10.00" fill="#000000">/Vulkan/API/DeviceMemory.hpp</text>
</g>
<!-- Node10 -->
<g id="node2" class="node">
<title>Node10</title>
<g id="a_node2"><a xlink:href="Image_8hpp.html" target="_top" xlink:title="include/lug/Graphics\l/Vulkan/API/Image.hpp">
<polygon fill="none" stroke="#000000" points="575.5,-357.5 575.5,-387.5 709.5,-387.5 709.5,-357.5 575.5,-357.5"/>
<text text-anchor="start" x="583.5" y="-375.5" font-family="Helvetica,sans-Serif" font-size="10.00" fill="#000000">include/lug/Graphics</text>
<text text-anchor="middle" x="642.5" y="-364.5" font-family="Helvetica,sans-Serif" font-size="10.00" fill="#000000">/Vulkan/API/Image.hpp</text>
</a>
</g>
</g>
<!-- Node9&#45;&gt;Node10 -->
<g id="edge1" class="edge">
<title>Node9&#45;&gt;Node10</title>
<path fill="none" stroke="#191970" d="M934.0387,-422.7136C864.0097,-410.652 771.4167,-394.7042 709.5531,-384.049"/>
<polygon fill="#191970" stroke="#191970" points="933.7518,-426.2157 944.2008,-424.4639 934.94,-419.3172 933.7518,-426.2157"/>
</g>
<!-- Node14 -->
<g id="node6" class="node">
<title>Node14</title>
<g id="a_node6"><a xlink:href="Vulkan_2Renderer_8hpp.html" target="_top" xlink:title="include/lug/Graphics\l/Vulkan/Renderer.hpp">
<polygon fill="none" stroke="#000000" points="772,-67.5 772,-97.5 899,-97.5 899,-67.5 772,-67.5"/>
<text text-anchor="start" x="780" y="-85.5" font-family="Helvetica,sans-Serif" font-size="10.00" fill="#000000">include/lug/Graphics</text>
<text text-anchor="middle" x="835.5" y="-74.5" font-family="Helvetica,sans-Serif" font-size="10.00" fill="#000000">/Vulkan/Renderer.hpp</text>
</a>
</g>
</g>
<!-- Node9&#45;&gt;Node14 -->
<g id="edge43" class="edge">
<title>Node9&#45;&gt;Node14</title>
<path fill="none" stroke="#191970" d="M1024.7759,-414.3158C1016.1665,-383.9157 999.7821,-331.6847 978.5,-290 939.11,-212.8478 875.108,-130.9127 848.129,-97.7462"/>
<polygon fill="#191970" stroke="#191970" points="1021.4458,-415.405 1027.4922,-424.1051 1028.191,-413.5334 1021.4458,-415.405"/>
</g>
<!-- Node21 -->
<g id="node13" class="node">
<title>Node21</title>
<g id="a_node13"><a xlink:href="Forward_8hpp.html" target="_top" xlink:title="include/lug/Graphics\l/Vulkan/Render/Technique\l/Forward.hpp">
<polygon fill="none" stroke="#000000" points="702,-134.5 702,-175.5 851,-175.5 851,-134.5 702,-134.5"/>
<text text-anchor="start" x="710" y="-163.5" font-family="Helvetica,sans-Serif" font-size="10.00" fill="#000000">include/lug/Graphics</text>
<text text-anchor="start" x="710" y="-152.5" font-family="Helvetica,sans-Serif" font-size="10.00" fill="#000000">/Vulkan/Render/Technique</text>
<text text-anchor="middle" x="776.5" y="-141.5" font-family="Helvetica,sans-Serif" font-size="10.00" fill="#000000">/Forward.hpp</text>
</a>
</g>
</g>
<!-- Node9&#45;&gt;Node21 -->
<g id="edge42" class="edge">
<title>Node9&#45;&gt;Node21</title>
<path fill="none" stroke="#191970" d="M1015.165,-415.7229C1009.5783,-407.1589 1003.4858,-397.31 998.5,-388 976.0451,-346.0703 985.0011,-327.3096 955.5,-290 916.0277,-240.0798 853.9607,-198.8581 814.261,-175.5865"/>
<polygon fill="#191970" stroke="#191970" points="1012.2863,-417.7147 1020.7364,-424.1059 1018.1162,-413.8401 1012.2863,-417.7147"/>
</g>
<!-- Node28 -->
<g id="node20" class="node">
<title>Node28</title>
<g id="a_node20"><a xlink:href="BufferPool_8hpp.html" target="_top" xlink:title="include/lug/Graphics\l/Vulkan/Render/BufferPool.hpp">
<polygon fill="none" stroke="#000000" points="773,-357.5 773,-387.5 946,-387.5 946,-357.5 773,-357.5"/>
<text text-anchor="start" x="781" y="-375.5" font-family="Helvetica,sans-Serif" font-size="10.00" fill="#000000">include/lug/Graphics</text>
<text text-anchor="middle" x="859.5" y="-364.5" font-family="Helvetica,sans-Serif" font-size="10.00" fill="#000000">/Vulkan/Render/BufferPool.hpp</text>
</a>
</g>
</g>
<!-- Node9&#45;&gt;Node28 -->
<g id="edge29" class="edge">
<title>Node9&#45;&gt;Node28</title>
<path fill="none" stroke="#191970" d="M983.3078,-420.7275C956.4477,-410.2645 923.4441,-397.4084 898.2685,-387.6017"/>
<polygon fill="#191970" stroke="#191970" points="982.3114,-424.0954 992.8998,-424.4639 984.8522,-417.5728 982.3114,-424.0954"/>
</g>
<!-- Node30 -->
<g id="node22" class="node">
<title>Node30</title>
<g id="a_node22"><a xlink:href="Vulkan_2Render_2Mesh_8hpp.html" target="_top" xlink:title="include/lug/Graphics\l/Vulkan/Render/Mesh.hpp">
<polygon fill="none" stroke="#000000" points="977.5,-140 977.5,-170 1123.5,-170 1123.5,-140 977.5,-140"/>
<text text-anchor="start" x="985.5" y="-158" font-family="Helvetica,sans-Serif" font-size="10.00" fill="#000000">include/lug/Graphics</text>
<text text-anchor="middle" x="1050.5" y="-147" font-family="Helvetica,sans-Serif" font-size="10.00" fill="#000000">/Vulkan/Render/Mesh.hpp</text>
</a>
</g>
</g>
<!-- Node9&#45;&gt;Node30 -->
<g id="edge32" class="edge">
<title>Node9&#45;&gt;Node30</title>
<path fill="none" stroke="#191970" d="M1033.1969,-414.0914C1037.06,-356.2456 1046.4143,-216.1786 1049.4965,-170.0263"/>
<polygon fill="#191970" stroke="#191970" points="1029.6957,-413.993 1032.5215,-424.204 1036.6802,-414.4595 1029.6957,-413.993"/>
</g>
<!-- Node33 -->
<g id="node25" class="node">
<title>Node33</title>
<g id="a_node25"><a xlink:href="Vulkan_2Render_2Model_8hpp.html" target="_top" xlink:title="include/lug/Graphics\l/Vulkan/Render/Model.hpp">
<polygon fill="none" stroke="#000000" points="1304.5,-67.5 1304.5,-97.5 1454.5,-97.5 1454.5,-67.5 1304.5,-67.5"/>
<text text-anchor="start" x="1312.5" y="-85.5" font-family="Helvetica,sans-Serif" font-size="10.00" fill="#000000">include/lug/Graphics</text>
<text text-anchor="middle" x="1379.5" y="-74.5" font-family="Helvetica,sans-Serif" font-size="10.00" fill="#000000">/Vulkan/Render/Model.hpp</text>
</a>
</g>
</g>
<!-- Node9&#45;&gt;Node33 -->
<g id="edge38" class="edge">
<title>Node9&#45;&gt;Node33</title>
<path fill="none" stroke="#191970" d="M1068.2939,-418.9415C1103.5709,-396.2082 1151.5,-356.0247 1151.5,-305.5 1151.5,-305.5 1151.5,-305.5 1151.5,-233 1151.5,-156.4017 1242.2402,-116.5524 1309.2321,-97.57"/>
<polygon fill="#191970" stroke="#191970" points="1066.2684,-416.0798 1059.6347,-424.3409 1069.9721,-422.0197 1066.2684,-416.0798"/>
</g>
<!-- Node35 -->
<g id="node27" class="node">
<title>Node35</title>
<g id="a_node27"><a xlink:href="Buffer_8cpp.html" target="_top" xlink:title="src/lug/Graphics/Vulkan\l/API/Buffer.cpp">
<polygon fill="none" stroke="#000000" points="1180,-357.5 1180,-387.5 1317,-387.5 1317,-357.5 1180,-357.5"/>
<text text-anchor="start" x="1188" y="-375.5" font-family="Helvetica,sans-Serif" font-size="10.00" fill="#000000">src/lug/Graphics/Vulkan</text>
<text text-anchor="middle" x="1248.5" y="-364.5" font-family="Helvetica,sans-Serif" font-size="10.00" fill="#000000">/API/Buffer.cpp</text>
</a>
</g>
</g>
<!-- Node9&#45;&gt;Node35 -->
<g id="edge44" class="edge">
<title>Node9&#45;&gt;Node35</title>
<path fill="none" stroke="#191970" d="M1090.0825,-421.4123C1124.3571,-410.8298 1167.1299,-397.6235 1199.5886,-387.6017"/>
<polygon fill="#191970" stroke="#191970" points="1088.7214,-418.1695 1080.199,-424.4639 1090.7865,-424.8579 1088.7214,-418.1695"/>
</g>
<!-- Node36 -->
<g id="node28" class="node">
<title>Node36</title>
<g id="a_node28"><a xlink:href="DeviceMemory_8cpp.html" target="_top" xlink:title="src/lug/Graphics/Vulkan\l/API/DeviceMemory.cpp">
<polygon fill="none" stroke="#000000" points="1335,-357.5 1335,-387.5 1472,-387.5 1472,-357.5 1335,-357.5"/>
<text text-anchor="start" x="1343" y="-375.5" font-family="Helvetica,sans-Serif" font-size="10.00" fill="#000000">src/lug/Graphics/Vulkan</text>
<text text-anchor="middle" x="1403.5" y="-364.5" font-family="Helvetica,sans-Serif" font-size="10.00" fill="#000000">/API/DeviceMemory.cpp</text>
</a>
</g>
</g>
<!-- Node9&#45;&gt;Node36 -->
<g id="edge45" class="edge">
<title>Node9&#45;&gt;Node36</title>
<path fill="none" stroke="#191970" d="M1129.8661,-422.9811C1187.2773,-413.1767 1261.0664,-400.2953 1326.5,-388 1329.1803,-387.4964 1331.9118,-386.9768 1334.6702,-386.4469"/>
<polygon fill="#191970" stroke="#191970" points="1128.9769,-419.5821 1119.7074,-424.713 1130.1534,-426.4825 1128.9769,-419.5821"/>
</g>
<!-- Node11 -->
<g id="node3" class="node">
<title>Node11</title>
<g id="a_node3"><a xlink:href="ImageView_8hpp.html" target="_top" xlink:title="include/lug/Graphics\l/Vulkan/API/ImageView.hpp">
<polygon fill="none" stroke="#000000" points="518.5,-290.5 518.5,-320.5 676.5,-320.5 676.5,-290.5 518.5,-290.5"/>
<text text-anchor="start" x="526.5" y="-308.5" font-family="Helvetica,sans-Serif" font-size="10.00" fill="#000000">include/lug/Graphics</text>
<text text-anchor="middle" x="597.5" y="-297.5" font-family="Helvetica,sans-Serif" font-size="10.00" fill="#000000">/Vulkan/API/ImageView.hpp</text>
</a>
</g>
</g>
<!-- Node10&#45;&gt;Node11 -->
<g id="edge2" class="edge">
<title>Node10&#45;&gt;Node11</title>
<path fill="none" stroke="#191970" d="M626.5643,-348.7735C620.279,-339.4154 613.2447,-328.9421 607.6708,-320.6432"/>
<polygon fill="#191970" stroke="#191970" points="623.8077,-350.9467 632.2888,-357.2967 629.6187,-347.0438 623.8077,-350.9467"/>
</g>
<!-- Node12 -->
<g id="node4" class="node">
<title>Node12</title>
<g id="a_node4"><a xlink:href="Swapchain_8hpp.html" target="_top" xlink:title="include/lug/Graphics\l/Vulkan/API/Swapchain.hpp">
<polygon fill="none" stroke="#000000" points="521,-218 521,-248 676,-248 676,-218 521,-218"/>
<text text-anchor="start" x="529" y="-236" font-family="Helvetica,sans-Serif" font-size="10.00" fill="#000000">include/lug/Graphics</text>
<text text-anchor="middle" x="598.5" y="-225" font-family="Helvetica,sans-Serif" font-size="10.00" fill="#000000">/Vulkan/API/Swapchain.hpp</text>
</a>
</g>
</g>
<!-- Node10&#45;&gt;Node12 -->
<g id="edge25" class="edge">
<title>Node10&#45;&gt;Node12</title>
<path fill="none" stroke="#191970" d="M667.3098,-349.6201C682.1948,-333.0079 696.3215,-310.0271 685.5,-290 675.1991,-270.9363 655.4391,-257.2204 637.3513,-248.0276"/>
<polygon fill="#191970" stroke="#191970" points="664.4241,-347.574 660.0477,-357.2228 669.4859,-352.4091 664.4241,-347.574"/>
</g>
<!-- Node10&#45;&gt;Node21 -->
<g id="edge26" class="edge">
<title>Node10&#45;&gt;Node21</title>
<path fill="none" stroke="#191970" d="M671.4078,-350.9462C681.508,-342.417 692.3471,-332.0187 700.5,-321 735.2838,-273.9898 759.4054,-208.5178 770.1662,-175.6127"/>
<polygon fill="#191970" stroke="#191970" points="669.0744,-348.3327 663.5315,-357.3619 673.4953,-353.76 669.0744,-348.3327"/>
</g>
<!-- Node26 -->
<g id="node18" class="node">
<title>Node26</title>
<g id="a_node18"><a xlink:href="Image_8cpp.html" target="_top" xlink:title="src/lug/Graphics/Vulkan\l/API/Image.cpp">
<polygon fill="none" stroke="#000000" points="208,-290.5 208,-320.5 345,-320.5 345,-290.5 208,-290.5"/>
<text text-anchor="start" x="216" y="-308.5" font-family="Helvetica,sans-Serif" font-size="10.00" fill="#000000">src/lug/Graphics/Vulkan</text>
<text text-anchor="middle" x="276.5" y="-297.5" font-family="Helvetica,sans-Serif" font-size="10.00" fill="#000000">/API/Image.cpp</text>
</a>
</g>
</g>
<!-- Node10&#45;&gt;Node26 -->
<g id="edge27" class="edge">
<title>Node10&#45;&gt;Node26</title>
<path fill="none" stroke="#191970" d="M565.3988,-359.2417C507.1321,-349.1055 425.2089,-334.605 353.5,-321 350.8206,-320.4916 348.0898,-319.9681 345.3321,-319.4349"/>
<polygon fill="#191970" stroke="#191970" points="564.8156,-362.6928 575.2671,-360.9561 566.0137,-355.7961 564.8156,-362.6928"/>
</g>
<!-- Node27 -->
<g id="node19" class="node">
<title>Node27</title>
<g id="a_node19"><a xlink:href="RenderPass_8cpp.html" target="_top" xlink:title="src/lug/Graphics/Vulkan\l/API/RenderPass.cpp">
<polygon fill="none" stroke="#000000" points="363,-290.5 363,-320.5 500,-320.5 500,-290.5 363,-290.5"/>
<text text-anchor="start" x="371" y="-308.5" font-family="Helvetica,sans-Serif" font-size="10.00" fill="#000000">src/lug/Graphics/Vulkan</text>
<text text-anchor="middle" x="431.5" y="-297.5" font-family="Helvetica,sans-Serif" font-size="10.00" fill="#000000">/API/RenderPass.cpp</text>
</a>
</g>
</g>
<!-- Node10&#45;&gt;Node27 -->
<g id="edge28" class="edge">
<title>Node10&#45;&gt;Node27</title>
<path fill="none" stroke="#191970" d="M585.5373,-354.4123C552.2103,-343.8298 510.6203,-330.6235 479.059,-320.6017"/>
<polygon fill="#191970" stroke="#191970" points="584.5572,-357.7732 595.1475,-357.4639 586.6757,-351.1015 584.5572,-357.7732"/>
</g>
<!-- Node11&#45;&gt;Node12 -->
<g id="edge3" class="edge">
<title>Node11&#45;&gt;Node12</title>
<path fill="none" stroke="#191970" d="M597.847,-280.3409C597.9957,-269.5601 598.1644,-257.3309 598.2931,-248.0028"/>
<polygon fill="#191970" stroke="#191970" points="594.3455,-280.4306 597.7072,-290.478 601.3449,-280.5272 594.3455,-280.4306"/>
</g>
<!-- Node11&#45;&gt;Node21 -->
<g id="edge14" class="edge">
<title>Node11&#45;&gt;Node21</title>
<path fill="none" stroke="#191970" d="M637.2449,-285.551C652.9614,-276.8348 670.754,-265.8875 685.5,-254 701.1305,-241.3994 736.8364,-201.0407 758.5855,-175.9119"/>
<polygon fill="#191970" stroke="#191970" points="635.3939,-282.5732 628.27,-290.4154 638.7295,-288.7274 635.3939,-282.5732"/>
</g>
<!-- Node22 -->
<g id="node14" class="node">
<title>Node22</title>
<g id="a_node14"><a xlink:href="Technique_8hpp.html" target="_top" xlink:title="include/lug/Graphics\l/Vulkan/Render/Technique\l/Technique.hpp">
<polygon fill="none" stroke="#000000" points="199,-212.5 199,-253.5 348,-253.5 348,-212.5 199,-212.5"/>
<text text-anchor="start" x="207" y="-241.5" font-family="Helvetica,sans-Serif" font-size="10.00" fill="#000000">include/lug/Graphics</text>
<text text-anchor="start" x="207" y="-230.5" font-family="Helvetica,sans-Serif" font-size="10.00" fill="#000000">/Vulkan/Render/Technique</text>
<text text-anchor="middle" x="273.5" y="-219.5" font-family="Helvetica,sans-Serif" font-size="10.00" fill="#000000">/Technique.hpp</text>
</a>
</g>
</g>
<!-- Node11&#45;&gt;Node22 -->
<g id="edge17" class="edge">
<title>Node11&#45;&gt;Node22</title>
<path fill="none" stroke="#191970" d="M513.7602,-288.4058C467.3308,-278.7272 408.6132,-266.1563 356.5,-254 353.7497,-253.3584 350.9505,-252.6965 348.1247,-252.0206"/>
<polygon fill="#191970" stroke="#191970" points="513.2714,-291.879 523.7745,-290.4883 514.6966,-285.0256 513.2714,-291.879"/>
</g>
<!-- Node25 -->
<g id="node17" class="node">
<title>Node25</title>
<g id="a_node17"><a xlink:href="ImageView_8cpp.html" target="_top" xlink:title="src/lug/Graphics/Vulkan\l/API/ImageView.cpp">
<polygon fill="none" stroke="#000000" points="366,-218 366,-248 503,-248 503,-218 366,-218"/>
<text text-anchor="start" x="374" y="-236" font-family="Helvetica,sans-Serif" font-size="10.00" fill="#000000">src/lug/Graphics/Vulkan</text>
<text text-anchor="middle" x="434.5" y="-225" font-family="Helvetica,sans-Serif" font-size="10.00" fill="#000000">/API/ImageView.cpp</text>
</a>
</g>
</g>
<!-- Node11&#45;&gt;Node25 -->
<g id="edge24" class="edge">
<title>Node11&#45;&gt;Node25</title>
<path fill="none" stroke="#191970" d="M554.5155,-286.3811C527.5362,-274.3811 493.2441,-259.1285 468.2304,-248.0028"/>
<polygon fill="#191970" stroke="#191970" points="553.1669,-289.6118 563.7263,-290.478 556.0117,-283.216 553.1669,-289.6118"/>
</g>
<!-- Node13 -->
<g id="node5" class="node">
<title>Node13</title>
<g id="a_node5"><a xlink:href="Graphics_2Vulkan_2Render_2Window_8hpp.html" target="_top" xlink:title="include/lug/Graphics\l/Vulkan/Render/Window.hpp">
<polygon fill="none" stroke="#000000" points="523.5,-140 523.5,-170 683.5,-170 683.5,-140 523.5,-140"/>
<text text-anchor="start" x="531.5" y="-158" font-family="Helvetica,sans-Serif" font-size="10.00" fill="#000000">include/lug/Graphics</text>
<text text-anchor="middle" x="603.5" y="-147" font-family="Helvetica,sans-Serif" font-size="10.00" fill="#000000">/Vulkan/Render/Window.hpp</text>
</a>
</g>
</g>
<!-- Node12&#45;&gt;Node13 -->
<g id="edge4" class="edge">
<title>Node12&#45;&gt;Node13</title>
<path fill="none" stroke="#191970" d="M600.1162,-207.7875C600.9091,-195.4187 601.8381,-180.9264 602.5218,-170.2592"/>
<polygon fill="#191970" stroke="#191970" points="596.611,-207.7574 599.4641,-217.9608 603.5967,-208.2052 596.611,-207.7574"/>
</g>
<!-- Node20 -->
<g id="node12" class="node">
<title>Node20</title>
<g id="a_node12"><a xlink:href="Swapchain_8cpp.html" target="_top" xlink:title="src/lug/Graphics/Vulkan\l/API/Swapchain.cpp">
<polygon fill="none" stroke="#000000" points="368,-140 368,-170 505,-170 505,-140 368,-140"/>
<text text-anchor="start" x="376" y="-158" font-family="Helvetica,sans-Serif" font-size="10.00" fill="#000000">src/lug/Graphics/Vulkan</text>
<text text-anchor="middle" x="436.5" y="-147" font-family="Helvetica,sans-Serif" font-size="10.00" fill="#000000">/API/Swapchain.cpp</text>
</a>
</g>
</g>
<!-- Node12&#45;&gt;Node20 -->
<g id="edge13" class="edge">
<title>Node12&#45;&gt;Node20</title>
<path fill="none" stroke="#191970" d="M558.1626,-213.5783C530.2566,-200.1421 493.6565,-182.5198 467.9153,-170.1259"/>
<polygon fill="#191970" stroke="#191970" points="556.7364,-216.7761 567.2648,-217.9608 559.7731,-210.4691 556.7364,-216.7761"/>
</g>
<!-- Node13&#45;&gt;Node14 -->
<g id="edge5" class="edge">
<title>Node13&#45;&gt;Node14</title>
<path fill="none" stroke="#191970" d="M661.1888,-136.9723C700.0842,-124.8174 750.8005,-108.9686 787.491,-97.5028"/>
<polygon fill="#191970" stroke="#191970" points="660.0714,-133.6545 651.5705,-139.978 662.1593,-140.3358 660.0714,-133.6545"/>
</g>
<!-- Node17 -->
<g id="node9" class="node">
<title>Node17</title>
<g id="a_node9"><a xlink:href="Graphics_2Vulkan_2Render_2Window_8cpp.html" target="_top" xlink:title="src/lug/Graphics/Vulkan\l/Render/Window.cpp">
<polygon fill="none" stroke="#000000" points="430,-.5 430,-30.5 567,-30.5 567,-.5 430,-.5"/>
<text text-anchor="start" x="438" y="-18.5" font-family="Helvetica,sans-Serif" font-size="10.00" fill="#000000">src/lug/Graphics/Vulkan</text>
<text text-anchor="middle" x="498.5" y="-7.5" font-family="Helvetica,sans-Serif" font-size="10.00" fill="#000000">/Render/Window.cpp</text>
</a>
</g>
</g>
<!-- Node13&#45;&gt;Node17 -->
<g id="edge11" class="edge">
<title>Node13&#45;&gt;Node17</title>
<path fill="none" stroke="#191970" d="M560.5829,-134.7389C545.2318,-125.5219 529.12,-113.2286 518.5,-98 504.2529,-77.5703 500.1003,-48.1602 498.9233,-30.53"/>
<polygon fill="#191970" stroke="#191970" points="559.0645,-137.9019 569.4862,-139.8092 562.5286,-131.8191 559.0645,-137.9019"/>
</g>
<!-- Node18 -->
<g id="node10" class="node">
<title>Node18</title>
<g id="a_node10"><a xlink:href="Vulkan_2Renderer_8cpp.html" target="_top" xlink:title="src/lug/Graphics/Vulkan\l/Renderer.cpp">
<polygon fill="none" stroke="#000000" points="605,-.5 605,-30.5 742,-30.5 742,-.5 605,-.5"/>
<text text-anchor="start" x="613" y="-18.5" font-family="Helvetica,sans-Serif" font-size="10.00" fill="#000000">src/lug/Graphics/Vulkan</text>
<text text-anchor="middle" x="673.5" y="-7.5" font-family="Helvetica,sans-Serif" font-size="10.00" fill="#000000">/Renderer.cpp</text>
</a>
</g>
</g>
<!-- Node13&#45;&gt;Node18 -->
<g id="edge12" class="edge">
<title>Node13&#45;&gt;Node18</title>
<path fill="none" stroke="#191970" d="M640.7619,-134.1953C653.5939,-124.9302 666.4909,-112.7462 673.5,-98 683.7682,-76.3969 680.6396,-47.871 677.2232,-30.6477"/>
<polygon fill="#191970" stroke="#191970" points="638.7169,-131.3531 632.4013,-139.8598 642.6433,-137.1482 638.7169,-131.3531"/>
</g>
<!-- Node19 -->
<g id="node11" class="node">
<title>Node19</title>
<g id="a_node11"><a xlink:href="Vulkan_2Render_2View_8cpp.html" target="_top" xlink:title="src/lug/Graphics/Vulkan\l/Render/View.cpp">
<polygon fill="none" stroke="#000000" points="527,-67.5 527,-97.5 664,-97.5 664,-67.5 527,-67.5"/>
<text text-anchor="start" x="535" y="-85.5" font-family="Helvetica,sans-Serif" font-size="10.00" fill="#000000">src/lug/Graphics/Vulkan</text>
<text text-anchor="middle" x="595.5" y="-74.5" font-family="Helvetica,sans-Serif" font-size="10.00" fill="#000000">/Render/View.cpp</text>
</a>
</g>
</g>
<!-- Node13&#45;&gt;Node19 -->
<g id="edge10" class="edge">
<title>Node13&#45;&gt;Node19</title>
<path fill="none" stroke="#191970" d="M600.7238,-129.8409C599.5342,-119.0601 598.1848,-106.8309 597.1555,-97.5028"/>
<polygon fill="#191970" stroke="#191970" points="597.2666,-130.4222 601.8424,-139.978 604.2244,-129.6544 597.2666,-130.4222"/>
</g>
<!-- Node15 -->
<g id="node7" class="node">
<title>Node15</title>
<g id="a_node7"><a xlink:href="Graphics_8cpp.html" target="_top" xlink:title="src/lug/Graphics/Graphics.cpp">
<polygon fill="none" stroke="#000000" points="954.5,-6 954.5,-25 1122.5,-25 1122.5,-6 954.5,-6"/>
<text text-anchor="middle" x="1038.5" y="-13" font-family="Helvetica,sans-Serif" font-size="10.00" fill="#000000">src/lug/Graphics/Graphics.cpp</text>
</a>
</g>
</g>
<!-- Node14&#45;&gt;Node15 -->
<g id="edge6" class="edge">
<title>Node14&#45;&gt;Node15</title>
<path fill="none" stroke="#191970" d="M890.5712,-64.3238C929.0257,-51.6319 978.8135,-35.1995 1009.7004,-25.0053"/>
<polygon fill="#191970" stroke="#191970" points="889.4563,-61.006 881.0572,-67.4639 891.6503,-67.6533 889.4563,-61.006"/>
</g>
<!-- Node16 -->
<g id="node8" class="node">
<title>Node16</title>
<g id="a_node8"><a xlink:href="Forward_8cpp.html" target="_top" xlink:title="src/lug/Graphics/Vulkan\l/Render/Technique/Forward.cpp">
<polygon fill="none" stroke="#000000" points="760,-.5 760,-30.5 937,-30.5 937,-.5 760,-.5"/>
<text text-anchor="start" x="768" y="-18.5" font-family="Helvetica,sans-Serif" font-size="10.00" fill="#000000">src/lug/Graphics/Vulkan</text>
<text text-anchor="middle" x="848.5" y="-7.5" font-family="Helvetica,sans-Serif" font-size="10.00" fill="#000000">/Render/Technique/Forward.cpp</text>
</a>
</g>
</g>
<!-- Node14&#45;&gt;Node16 -->
<g id="edge7" class="edge">
<title>Node14&#45;&gt;Node16</title>
<path fill="none" stroke="#191970" d="M840.3861,-57.3179C842.1278,-48.3414 844.0345,-38.5143 845.5618,-30.6432"/>
<polygon fill="#191970" stroke="#191970" points="836.9188,-56.813 838.4499,-67.2967 843.7907,-58.1464 836.9188,-56.813"/>
</g>
<!-- Node14&#45;&gt;Node17 -->
<g id="edge8" class="edge">
<title>Node14&#45;&gt;Node17</title>
<path fill="none" stroke="#191970" d="M761.8964,-67.8666C703.9777,-56.3517 623.8633,-40.4239 567.2382,-29.1661"/>
<polygon fill="#191970" stroke="#191970" points="761.2261,-71.3018 771.7167,-69.819 762.5912,-64.4362 761.2261,-71.3018"/>
</g>
<!-- Node14&#45;&gt;Node18 -->
<g id="edge9" class="edge">
<title>Node14&#45;&gt;Node18</title>
<path fill="none" stroke="#191970" d="M789.7765,-63.5897C764.5386,-53.1518 733.6224,-40.3654 710.0145,-30.6017"/>
<polygon fill="#191970" stroke="#191970" points="788.5655,-66.8763 799.144,-67.4639 791.2408,-60.4077 788.5655,-66.8763"/>
</g>
<!-- Node21&#45;&gt;Node16 -->
<g id="edge15" class="edge">
<title>Node21&#45;&gt;Node16</title>
<path fill="none" stroke="#191970" d="M763.0965,-125.0644C757.1949,-107.1812 753.5867,-84.5971 763.5,-67 772.8156,-50.4638 789.8193,-38.6299 806.1841,-30.5103"/>
<polygon fill="#191970" stroke="#191970" points="759.8108,-126.2707 766.5397,-134.4543 766.3829,-123.8607 759.8108,-126.2707"/>
</g>
<!-- Node21&#45;&gt;Node19 -->
<g id="edge16" class="edge">
<title>Node21&#45;&gt;Node19</title>
<path fill="none" stroke="#191970" d="M715.6509,-130.6267C688.3589,-119.6948 657.0222,-107.1429 633.1957,-97.5991"/>
<polygon fill="#191970" stroke="#191970" points="714.5324,-133.949 725.1168,-134.4183 717.1352,-127.4509 714.5324,-133.949"/>
</g>
<!-- Node22&#45;&gt;Node21 -->
<g id="edge18" class="edge">
<title>Node22&#45;&gt;Node21</title>
<path fill="none" stroke="#191970" d="M357.9634,-211.8608C506.1153,-186.2152 547.8053,-201.7112 692.5,-176 695.6081,-175.4477 698.7715,-174.8447 701.9602,-174.2031"/>
<polygon fill="#191970" stroke="#191970" points="357.2882,-208.4258 348.0487,-213.6104 358.5048,-215.3192 357.2882,-208.4258"/>
</g>
<!-- Node23 -->
<g id="node15" class="node">
<title>Node23</title>
<g id="a_node15"><a xlink:href="Vulkan_2Render_2View_8hpp.html" target="_top" xlink:title="include/lug/Graphics\l/Vulkan/Render/View.hpp">
<polygon fill="none" stroke="#000000" points="205,-140 205,-170 350,-170 350,-140 205,-140"/>
<text text-anchor="start" x="213" y="-158" font-family="Helvetica,sans-Serif" font-size="10.00" fill="#000000">include/lug/Graphics</text>
<text text-anchor="middle" x="277.5" y="-147" font-family="Helvetica,sans-Serif" font-size="10.00" fill="#000000">/Vulkan/Render/View.hpp</text>
</a>
</g>
</g>
<!-- Node22&#45;&gt;Node23 -->
<g id="edge19" class="edge">
<title>Node22&#45;&gt;Node23</title>
<path fill="none" stroke="#191970" d="M275.0888,-202.0187C275.6485,-191.1033 276.2532,-179.3119 276.717,-170.2679"/>
<polygon fill="#191970" stroke="#191970" points="271.5888,-201.9313 274.5719,-212.0974 278.5796,-202.2898 271.5888,-201.9313"/>
</g>
<!-- Node24 -->
<g id="node16" class="node">
<title>Node24</title>
<g id="a_node16"><a xlink:href="Technique_8cpp.html" target="_top" xlink:title="src/lug/Graphics/Vulkan\l/Render/Technique/Technique.cpp">
<polygon fill="none" stroke="#000000" points="0,-140 0,-170 187,-170 187,-140 0,-140"/>
<text text-anchor="start" x="8" y="-158" font-family="Helvetica,sans-Serif" font-size="10.00" fill="#000000">src/lug/Graphics/Vulkan</text>
<text text-anchor="middle" x="93.5" y="-147" font-family="Helvetica,sans-Serif" font-size="10.00" fill="#000000">/Render/Technique/Technique.cpp</text>
</a>
</g>
</g>
<!-- Node22&#45;&gt;Node24 -->
<g id="edge23" class="edge">
<title>Node22&#45;&gt;Node24</title>
<path fill="none" stroke="#191970" d="M216.542,-208.3182C187.5952,-195.7746 153.3528,-180.9362 128.3508,-170.102"/>
<polygon fill="#191970" stroke="#191970" points="215.1687,-211.5375 225.7359,-212.3022 217.952,-205.1146 215.1687,-211.5375"/>
</g>
<!-- Node23&#45;&gt;Node16 -->
<g id="edge20" class="edge">
<title>Node23&#45;&gt;Node16</title>
<path fill="none" stroke="#191970" d="M321.3369,-136.02C369.0127,-116.0858 447.8728,-85.1619 518.5,-67 619.9826,-40.9035 647.9861,-47.2671 751.5,-31 754.2798,-30.5632 757.1042,-30.1182 759.9559,-29.6681"/>
<polygon fill="#191970" stroke="#191970" points="319.7988,-132.8699 311.9402,-139.9758 322.5148,-139.3216 319.7988,-132.8699"/>
</g>
<!-- Node23&#45;&gt;Node17 -->
<g id="edge22" class="edge">
<title>Node23&#45;&gt;Node17</title>
<path fill="none" stroke="#191970" d="M310.052,-134.4525C354.8912,-106.149 434.6236,-55.8202 474.4581,-30.6758"/>
<polygon fill="#191970" stroke="#191970" points="308.1596,-131.508 301.5716,-139.8055 311.8961,-137.4274 308.1596,-131.508"/>
</g>
<!-- Node23&#45;&gt;Node19 -->
<g id="edge21" class="edge">
<title>Node23&#45;&gt;Node19</title>
<path fill="none" stroke="#191970" d="M344.344,-137.4479C349.1293,-136.2597 353.885,-135.0992 358.5,-134 415.0252,-120.5368 479.4786,-106.6233 526.887,-96.6573"/>
<polygon fill="#191970" stroke="#191970" points="343.3622,-134.0857 334.5153,-139.9152 345.0666,-140.8751 343.3622,-134.0857"/>
</g>
<!-- Node28&#45;&gt;Node21 -->
<g id="edge30" class="edge">
<title>Node28&#45;&gt;Node21</title>
<path fill="none" stroke="#191970" d="M827.0489,-351.1981C816.9757,-342.961 806.8589,-332.685 800.5,-321 774.8196,-273.8103 773.6892,-208.4176 775.061,-175.5707"/>
<polygon fill="#191970" stroke="#191970" points="824.9866,-354.0275 835.0454,-357.3549 829.2571,-348.481 824.9866,-354.0275"/>
</g>
<!-- Node29 -->
<g id="node21" class="node">
<title>Node29</title>
<g id="a_node21"><a xlink:href="BufferPool_8cpp.html" target="_top" xlink:title="src/lug/Graphics/Vulkan\l/Render/BufferPool.cpp">
<polygon fill="none" stroke="#000000" points="809,-290.5 809,-320.5 946,-320.5 946,-290.5 809,-290.5"/>
<text text-anchor="start" x="817" y="-308.5" font-family="Helvetica,sans-Serif" font-size="10.00" fill="#000000">src/lug/Graphics/Vulkan</text>
<text text-anchor="middle" x="877.5" y="-297.5" font-family="Helvetica,sans-Serif" font-size="10.00" fill="#000000">/Render/BufferPool.cpp</text>
</a>
</g>
</g>
<!-- Node28&#45;&gt;Node29 -->
<g id="edge31" class="edge">
<title>Node28&#45;&gt;Node29</title>
<path fill="none" stroke="#191970" d="M866.1868,-347.6103C868.6195,-338.5553 871.2941,-328.5998 873.4317,-320.6432"/>
<polygon fill="#191970" stroke="#191970" points="862.799,-346.731 863.5845,-357.2967 869.5593,-348.5472 862.799,-346.731"/>
</g>
<!-- Node30&#45;&gt;Node14 -->
<g id="edge33" class="edge">
<title>Node30&#45;&gt;Node14</title>
<path fill="none" stroke="#191970" d="M996.1197,-136.6624C960.1974,-124.5491 913.7049,-108.8714 879.9911,-97.5028"/>
<polygon fill="#191970" stroke="#191970" points="995.3577,-140.0991 1005.9519,-139.978 997.5945,-133.4661 995.3577,-140.0991"/>
</g>
<!-- Node30&#45;&gt;Node15 -->
<g id="edge34" class="edge">
<title>Node30&#45;&gt;Node15</title>
<path fill="none" stroke="#191970" d="M1016.059,-133.8335C1004.0646,-124.4796 991.9927,-112.3291 985.5,-98 979.8136,-85.4504 980.1363,-79.6908 985.5,-67 993.092,-49.037 1010.3531,-34.2493 1023.1247,-25.1989"/>
<polygon fill="#191970" stroke="#191970" points="1014.145,-136.77 1024.2808,-139.8549 1018.281,-131.1226 1014.145,-136.77"/>
</g>
<!-- Node30&#45;&gt;Node16 -->
<g id="edge37" class="edge">
<title>Node30&#45;&gt;Node16</title>
<path fill="none" stroke="#191970" d="M1020.2326,-134.0975C979.1557,-105.73 906.7331,-55.7154 870.4749,-30.6758"/>
<polygon fill="#191970" stroke="#191970" points="1018.2805,-137.0029 1028.4979,-139.8055 1022.2583,-131.2429 1018.2805,-137.0029"/>
</g>
<!-- Node31 -->
<g id="node23" class="node">
<title>Node31</title>
<g id="a_node23"><a xlink:href="Pipeline_8cpp.html" target="_top" xlink:title="src/lug/Graphics/Vulkan\l/API/Pipeline.cpp">
<polygon fill="none" stroke="#000000" points="994,-67.5 994,-97.5 1131,-97.5 1131,-67.5 994,-67.5"/>
<text text-anchor="start" x="1002" y="-85.5" font-family="Helvetica,sans-Serif" font-size="10.00" fill="#000000">src/lug/Graphics/Vulkan</text>
<text text-anchor="middle" x="1062.5" y="-74.5" font-family="Helvetica,sans-Serif" font-size="10.00" fill="#000000">/API/Pipeline.cpp</text>
</a>
</g>
</g>
<!-- Node30&#45;&gt;Node31 -->
<g id="edge35" class="edge">
<title>Node30&#45;&gt;Node31</title>
<path fill="none" stroke="#191970" d="M1054.6643,-129.8409C1056.4487,-119.0601 1058.4728,-106.8309 1060.0168,-97.5028"/>
<polygon fill="#191970" stroke="#191970" points="1051.1664,-129.5406 1052.9864,-139.978 1058.0725,-130.6837 1051.1664,-129.5406"/>
</g>
<!-- Node32 -->
<g id="node24" class="node">
<title>Node32</title>
<g id="a_node24"><a xlink:href="Vulkan_2Render_2Mesh_8cpp.html" target="_top" xlink:title="src/lug/Graphics/Vulkan\l/Render/Mesh.cpp">
<polygon fill="none" stroke="#000000" points="1149,-67.5 1149,-97.5 1286,-97.5 1286,-67.5 1149,-67.5"/>
<text text-anchor="start" x="1157" y="-85.5" font-family="Helvetica,sans-Serif" font-size="10.00" fill="#000000">src/lug/Graphics/Vulkan</text>
<text text-anchor="middle" x="1217.5" y="-74.5" font-family="Helvetica,sans-Serif" font-size="10.00" fill="#000000">/Render/Mesh.cpp</text>
</a>
</g>
</g>
<!-- Node30&#45;&gt;Node32 -->
<g id="edge36" class="edge">
<title>Node30&#45;&gt;Node32</title>
<path fill="none" stroke="#191970" d="M1094.5393,-135.8811C1122.1808,-123.8811 1157.3143,-108.6285 1182.9418,-97.5028"/>
<polygon fill="#191970" stroke="#191970" points="1092.8816,-132.7851 1085.1025,-139.978 1095.6692,-139.2062 1092.8816,-132.7851"/>
</g>
<!-- Node33&#45;&gt;Node15 -->
<g id="edge39" class="edge">
<title>Node33&#45;&gt;Node15</title>
<path fill="none" stroke="#191970" d="M1294.3533,-65.7703C1228.9201,-52.9139 1140.8856,-35.6168 1086.9966,-25.0287"/>
<polygon fill="#191970" stroke="#191970" points="1293.7568,-69.2199 1304.244,-67.7136 1295.1064,-62.3513 1293.7568,-69.2199"/>
</g>
<!-- Node33&#45;&gt;Node16 -->
<g id="edge41" class="edge">
<title>Node33&#45;&gt;Node16</title>
<path fill="none" stroke="#191970" d="M1294.5234,-66.9315C1139.0129,-45.0516 1097.3674,-50.9282 945.5,-31 942.71,-30.6339 939.8767,-30.2506 937.0173,-29.8538"/>
<polygon fill="#191970" stroke="#191970" points="1294.0498,-70.3993 1304.4431,-68.3428 1295.0358,-63.4691 1294.0498,-70.3993"/>
</g>
<!-- Node34 -->
<g id="node26" class="node">
<title>Node34</title>
<g id="a_node26"><a xlink:href="Vulkan_2Render_2Model_8cpp.html" target="_top" xlink:title="src/lug/Graphics/Vulkan\l/Render/Model.cpp">
<polygon fill="none" stroke="#000000" points="1311,-.5 1311,-30.5 1448,-30.5 1448,-.5 1311,-.5"/>
<text text-anchor="start" x="1319" y="-18.5" font-family="Helvetica,sans-Serif" font-size="10.00" fill="#000000">src/lug/Graphics/Vulkan</text>
<text text-anchor="middle" x="1379.5" y="-7.5" font-family="Helvetica,sans-Serif" font-size="10.00" fill="#000000">/Render/Model.cpp</text>
</a>
</g>
</g>
<!-- Node33&#45;&gt;Node34 -->
<g id="edge40" class="edge">
<title>Node33&#45;&gt;Node34</title>
<path fill="none" stroke="#191970" d="M1379.5,-57.0249C1379.5,-48.128 1379.5,-38.4287 1379.5,-30.6432"/>
<polygon fill="#191970" stroke="#191970" points="1376.0001,-57.2966 1379.5,-67.2967 1383.0001,-57.2967 1376.0001,-57.2966"/>
</g>
</g>
</svg>
        <g id="navigator" transform="translate(0 0)" fill="#404254">
                <rect fill="#f2f5e9" fill-opacity="0.5" stroke="#606060" stroke-width=".5" x="0" y="0" width="60" height="60"/>
                <use id="zoomplus" xlink:href="#zoomPlus" x="17" y="9" onmousedown="handleZoom(evt,'in')"/>
                <use id="zoomminus" xlink:href="#zoomMin" x="42" y="9" onmousedown="handleZoom(evt,'out')"/>
                <use id="reset" xlink:href="#resetDef" x="30" y="36" onmousedown="handleReset()"/>
                <g id="arrowUp" xlink:href="#dirArrow" transform="translate(30 24)" onmousedown="handlePan(0,-1)">
                  <use xlink:href="#rim" fill="#404040">
                        <set attributeName="fill" to="#808080" begin="arrowUp.mouseover" end="arrowUp.mouseout"/>
                  </use>
                  <path fill="none" stroke="white" stroke-width="1.5" d="M0,-3.0v7 M-2.5,-0.5L0,-3.0L2.5,-0.5"/>
                </g>
                <g id="arrowRight" xlink:href="#dirArrow" transform="rotate(90) translate(36 -43)" onmousedown="handlePan(1,0)">
                  <use xlink:href="#rim" fill="#404040">
                        <set attributeName="fill" to="#808080" begin="arrowRight.mouseover" end="arrowRight.mouseout"/>
                  </use>
                  <path fill="none" stroke="white" stroke-width="1.5" d="M0,-3.0v7 M-2.5,-0.5L0,-3.0L2.5,-0.5"/>
                </g>
                <g id="arrowDown" xlink:href="#dirArrow" transform="rotate(180) translate(-30 -48)" onmousedown="handlePan(0,1)">
                  <use xlink:href="#rim" fill="#404040">
                        <set attributeName="fill" to="#808080" begin="arrowDown.mouseover" end="arrowDown.mouseout"/>
                  </use>
                  <path fill="none" stroke="white" stroke-width="1.5" d="M0,-3.0v7 M-2.5,-0.5L0,-3.0L2.5,-0.5"/>
                </g>
                <g id="arrowLeft" xlink:href="#dirArrow" transform="rotate(270) translate(-36 17)" onmousedown="handlePan(-1,0)">
                  <use xlink:href="#rim" fill="#404040">
                        <set attributeName="fill" to="#808080" begin="arrowLeft.mouseover" end="arrowLeft.mouseout"/>
                  </use>
                  <path fill="none" stroke="white" stroke-width="1.5" d="M0,-3.0v7 M-2.5,-0.5L0,-3.0L2.5,-0.5"/>
                </g>
        </g>
        <svg viewBox="0 0 15 15" width="100%" height="30px" preserveAspectRatio="xMaxYMin meet">
         <g id="arrow_out" transform="scale(0.3 0.3)">
          <a xlink:href="DeviceMemory_8hpp__dep__incl_org.svg" target="_base">
           <rect id="button" ry="5" rx="5" y="6" x="6" height="38" width="38"
                fill="#f2f5e9" fill-opacity="0.5" stroke="#606060" stroke-width="1.0"/>
           <path id="arrow"
             d="M 11.500037,31.436501 C 11.940474,20.09759 22.043105,11.32322 32.158766,21.979434 L 37.068811,17.246167 C 37.068811,17.246167 37.088388,32 37.088388,32 L 22.160133,31.978069 C 22.160133,31.978069 26.997745,27.140456 26.997745,27.140456 C 18.528582,18.264221 13.291696,25.230495 11.500037,31.436501 z"
             style="fill:#404040;"/>
          </a>
         </g>
        </svg>
</svg>
