<?xml version="1.0" encoding="UTF-8" standalone="no"?>
<!DOCTYPE svg PUBLIC "-//W3C//DTD SVG 1.1//EN"
 "http://www.w3.org/Graphics/SVG/1.1/DTD/svg11.dtd">
<!-- Generated by graphviz version 2.40.1 (20161225.0304)
 -->
<!-- Title: include/lug/Graphics/Vulkan/API/Device.hpp Pages: 1 -->
<svg width="3807pt" height="262pt"
 viewBox="0.00 0.00 3807.00 262.00" xmlns="http://www.w3.org/2000/svg" xmlns:xlink="http://www.w3.org/1999/xlink">
<g id="graph0" class="graph" transform="scale(1 1) rotate(0) translate(4 258)">
<title>include/lug/Graphics/Vulkan/API/Device.hpp</title>
<!-- Node9 -->
<g id="node1" class="node">
<title>Node9</title>
<polygon fill="#bfbfbf" stroke="#000000" points="1872.5,-223.5 1872.5,-253.5 2008.5,-253.5 2008.5,-223.5 1872.5,-223.5"/>
<text text-anchor="start" x="1880.5" y="-241.5" font-family="Helvetica,sans-Serif" font-size="10.00" fill="#000000">include/lug/Graphics</text>
<text text-anchor="middle" x="1940.5" y="-230.5" font-family="Helvetica,sans-Serif" font-size="10.00" fill="#000000">/Vulkan/API/Device.hpp</text>
</g>
<!-- Node10 -->
<g id="node2" class="node">
<title>Node10</title>
<g id="a_node2"><a xlink:href="Vulkan_2Render_2Mesh_8hpp.html" target="_top" xlink:title="include/lug/Graphics\l/Vulkan/Render/Mesh.hpp">
<polygon fill="none" stroke="#000000" points="442.5,-151 442.5,-181 588.5,-181 588.5,-151 442.5,-151"/>
<text text-anchor="start" x="450.5" y="-169" font-family="Helvetica,sans-Serif" font-size="10.00" fill="#000000">include/lug/Graphics</text>
<text text-anchor="middle" x="515.5" y="-158" font-family="Helvetica,sans-Serif" font-size="10.00" fill="#000000">/Vulkan/Render/Mesh.hpp</text>
</a>
</g>
</g>
<!-- Node9&#45;&gt;Node10 -->
<g id="edge1" class="edge">
<title>Node9&#45;&gt;Node10</title>
<path fill="none" stroke="#191970" d="M1862.2372,-236.9087C1667.9423,-232.5884 1147.9971,-218.7661 715.5,-187 673.3686,-183.9055 626.3838,-179.0448 588.5458,-174.7788"/>
<polygon fill="#191970" stroke="#191970" points="1862.2767,-240.4103 1872.3514,-237.1315 1862.431,-233.412 1862.2767,-240.4103"/>
</g>
<!-- Node11 -->
<g id="node3" class="node">
<title>Node11</title>
<g id="a_node3"><a xlink:href="Vulkan_2Renderer_8hpp.html" target="_top" xlink:title="include/lug/Graphics\l/Vulkan/Renderer.hpp">
<polygon fill="none" stroke="#000000" points="307,-73 307,-103 434,-103 434,-73 307,-73"/>
<text text-anchor="start" x="315" y="-91" font-family="Helvetica,sans-Serif" font-size="10.00" fill="#000000">include/lug/Graphics</text>
<text text-anchor="middle" x="370.5" y="-80" font-family="Helvetica,sans-Serif" font-size="10.00" fill="#000000">/Vulkan/Renderer.hpp</text>
</a>
</g>
</g>
<!-- Node9&#45;&gt;Node11 -->
<g id="edge25" class="edge">
<title>Node9&#45;&gt;Node11</title>
<path fill="none" stroke="#191970" d="M1861.7334,-237.8365C1560.5985,-235.0391 495.9059,-222.6579 433.5,-187 401.1298,-168.5041 382.8458,-125.8624 375.0503,-103.0473"/>
<polygon fill="#191970" stroke="#191970" points="1862.0889,-241.3398 1872.1206,-237.932 1862.1533,-234.3401 1862.0889,-241.3398"/>
</g>
<!-- Node16 -->
<g id="node8" class="node">
<title>Node16</title>
<g id="a_node8"><a xlink:href="Pipeline_8cpp.html" target="_top" xlink:title="src/lug/Graphics/Vulkan\l/API/Pipeline.cpp">
<polygon fill="none" stroke="#000000" points="646,-73 646,-103 783,-103 783,-73 646,-73"/>
<text text-anchor="start" x="654" y="-91" font-family="Helvetica,sans-Serif" font-size="10.00" fill="#000000">src/lug/Graphics/Vulkan</text>
<text text-anchor="middle" x="714.5" y="-80" font-family="Helvetica,sans-Serif" font-size="10.00" fill="#000000">/API/Pipeline.cpp</text>
</a>
</g>
</g>
<!-- Node9&#45;&gt;Node16 -->
<g id="edge39" class="edge">
<title>Node9&#45;&gt;Node16</title>
<path fill="none" stroke="#191970" d="M1862.0752,-237.0099C1608.4982,-231.9333 824.3936,-214.1091 777.5,-187 745.2236,-168.341 726.8993,-125.7694 719.0732,-103.0075"/>
<polygon fill="#191970" stroke="#191970" points="1862.2431,-240.5139 1872.3108,-237.2137 1862.3825,-233.5153 1862.2431,-240.5139"/>
</g>
<!-- Node18 -->
<g id="node10" class="node">
<title>Node18</title>
<g id="a_node10"><a xlink:href="Vulkan_2Render_2Model_8hpp.html" target="_top" xlink:title="include/lug/Graphics\l/Vulkan/Render/Model.hpp">
<polygon fill="none" stroke="#000000" points="100.5,-73 100.5,-103 250.5,-103 250.5,-73 100.5,-73"/>
<text text-anchor="start" x="108.5" y="-91" font-family="Helvetica,sans-Serif" font-size="10.00" fill="#000000">include/lug/Graphics</text>
<text text-anchor="middle" x="175.5" y="-80" font-family="Helvetica,sans-Serif" font-size="10.00" fill="#000000">/Vulkan/Render/Model.hpp</text>
</a>
</g>
</g>
<!-- Node9&#45;&gt;Node18 -->
<g id="edge11" class="edge">
<title>Node9&#45;&gt;Node18</title>
<path fill="none" stroke="#191970" d="M1861.8791,-237.703C1566.8098,-234.4628 534.9054,-220.8042 391.5,-187 317.8234,-169.6326 238.7888,-126.297 199.9323,-103.1444"/>
<polygon fill="#191970" stroke="#191970" points="1862.0246,-241.2047 1872.0621,-237.8139 1862.1009,-234.2051 1862.0246,-241.2047"/>
</g>
<!-- Node20 -->
<g id="node12" class="node">
<title>Node20</title>
<g id="a_node12"><a xlink:href="Technique_8hpp.html" target="_top" xlink:title="include/lug/Graphics\l/Vulkan/Render/Technique\l/Technique.hpp">
<polygon fill="none" stroke="#000000" points="786,-145.5 786,-186.5 935,-186.5 935,-145.5 786,-145.5"/>
<text text-anchor="start" x="794" y="-174.5" font-family="Helvetica,sans-Serif" font-size="10.00" fill="#000000">include/lug/Graphics</text>
<text text-anchor="start" x="794" y="-163.5" font-family="Helvetica,sans-Serif" font-size="10.00" fill="#000000">/Vulkan/Render/Technique</text>
<text text-anchor="middle" x="860.5" y="-152.5" font-family="Helvetica,sans-Serif" font-size="10.00" fill="#000000">/Technique.hpp</text>
</a>
</g>
</g>
<!-- Node9&#45;&gt;Node20 -->
<g id="edge15" class="edge">
<title>Node9&#45;&gt;Node20</title>
<path fill="none" stroke="#191970" d="M1862.0021,-236.2757C1659.7399,-230.2474 1124.3495,-212.3304 948.5,-187 944.147,-186.373 939.6935,-185.6319 935.2136,-184.8092"/>
<polygon fill="#191970" stroke="#191970" points="1862.1472,-239.7814 1872.2465,-236.5793 1862.3546,-232.7845 1862.1472,-239.7814"/>
</g>
<!-- Node23 -->
<g id="node15" class="node">
<title>Node23</title>
<g id="a_node15"><a xlink:href="Vulkan_2Render_2View_8hpp.html" target="_top" xlink:title="include/lug/Graphics\l/Vulkan/Render/View.hpp">
<polygon fill="none" stroke="#000000" points="1173,-73 1173,-103 1318,-103 1318,-73 1173,-73"/>
<text text-anchor="start" x="1181" y="-91" font-family="Helvetica,sans-Serif" font-size="10.00" fill="#000000">include/lug/Graphics</text>
<text text-anchor="middle" x="1245.5" y="-80" font-family="Helvetica,sans-Serif" font-size="10.00" fill="#000000">/Vulkan/Render/View.hpp</text>
</a>
</g>
</g>
<!-- Node9&#45;&gt;Node23 -->
<g id="edge24" class="edge">
<title>Node9&#45;&gt;Node23</title>
<path fill="none" stroke="#191970" d="M1862.1982,-237.1916C1638.8235,-233.0796 1012.5956,-218.7569 982.5,-187 969.6598,-173.451 970.6503,-159.4232 982.5,-145 1034.8436,-81.2885 1084.1127,-127.3545 1164.5,-109 1172.4312,-107.1891 1180.7685,-105.1656 1188.9547,-103.1091"/>
<polygon fill="#191970" stroke="#191970" points="1862.1463,-240.6912 1872.2085,-237.374 1862.2739,-233.6923 1862.1463,-240.6912"/>
</g>
<!-- Node25 -->
<g id="node17" class="node">
<title>Node25</title>
<g id="a_node17"><a xlink:href="Buffer_8cpp.html" target="_top" xlink:title="src/lug/Graphics/Vulkan\l/API/Buffer.cpp">
<polygon fill="none" stroke="#000000" points="991,-151 991,-181 1128,-181 1128,-151 991,-151"/>
<text text-anchor="start" x="999" y="-169" font-family="Helvetica,sans-Serif" font-size="10.00" fill="#000000">src/lug/Graphics/Vulkan</text>
<text text-anchor="middle" x="1059.5" y="-158" font-family="Helvetica,sans-Serif" font-size="10.00" fill="#000000">/API/Buffer.cpp</text>
</a>
</g>
</g>
<!-- Node9&#45;&gt;Node25 -->
<g id="edge26" class="edge">
<title>Node9&#45;&gt;Node25</title>
<path fill="none" stroke="#191970" d="M1862.1831,-235.4644C1688.4843,-228.4083 1275.4279,-209.7573 1137.5,-187 1128.3677,-185.4932 1118.7598,-183.3676 1109.5285,-181.0423"/>
<polygon fill="#191970" stroke="#191970" points="1862.1413,-238.9655 1872.2745,-235.8722 1862.424,-231.9712 1862.1413,-238.9655"/>
</g>
<!-- Node26 -->
<g id="node18" class="node">
<title>Node26</title>
<g id="a_node18"><a xlink:href="CommandBuffer_8cpp.html" target="_top" xlink:title="src/lug/Graphics/Vulkan\l/API/CommandBuffer.cpp">
<polygon fill="none" stroke="#000000" points="1146.5,-151 1146.5,-181 1290.5,-181 1290.5,-151 1146.5,-151"/>
<text text-anchor="start" x="1154.5" y="-169" font-family="Helvetica,sans-Serif" font-size="10.00" fill="#000000">src/lug/Graphics/Vulkan</text>
<text text-anchor="middle" x="1218.5" y="-158" font-family="Helvetica,sans-Serif" font-size="10.00" fill="#000000">/API/CommandBuffer.cpp</text>
</a>
</g>
</g>
<!-- Node9&#45;&gt;Node26 -->
<g id="edge27" class="edge">
<title>Node9&#45;&gt;Node26</title>
<path fill="none" stroke="#191970" d="M1862.0115,-236.4856C1740.7989,-232.4093 1501.0796,-220.5029 1300.5,-187 1291.2234,-185.4505 1281.4601,-183.3633 1272.0332,-181.104"/>
<polygon fill="#191970" stroke="#191970" points="1862.195,-239.9934 1872.3041,-236.8225 1862.424,-232.9972 1862.195,-239.9934"/>
</g>
<!-- Node27 -->
<g id="node19" class="node">
<title>Node27</title>
<g id="a_node19"><a xlink:href="CommandPool_8cpp.html" target="_top" xlink:title="src/lug/Graphics/Vulkan\l/API/CommandPool.cpp">
<polygon fill="none" stroke="#000000" points="1309,-151 1309,-181 1446,-181 1446,-151 1309,-151"/>
<text text-anchor="start" x="1317" y="-169" font-family="Helvetica,sans-Serif" font-size="10.00" fill="#000000">src/lug/Graphics/Vulkan</text>
<text text-anchor="middle" x="1377.5" y="-158" font-family="Helvetica,sans-Serif" font-size="10.00" fill="#000000">/API/CommandPool.cpp</text>
</a>
</g>
</g>
<!-- Node9&#45;&gt;Node27 -->
<g id="edge28" class="edge">
<title>Node9&#45;&gt;Node27</title>
<path fill="none" stroke="#191970" d="M1861.892,-233.9654C1765.5062,-227.5314 1597.4532,-213.4758 1455.5,-187 1446.8147,-185.3801 1437.6804,-183.2857 1428.844,-181.0484"/>
<polygon fill="#191970" stroke="#191970" points="1861.9299,-237.4753 1872.1379,-234.6386 1862.3889,-230.4904 1861.9299,-237.4753"/>
</g>
<!-- Node28 -->
<g id="node20" class="node">
<title>Node28</title>
<g id="a_node20"><a xlink:href="DescriptorPool_8cpp.html" target="_top" xlink:title="src/lug/Graphics/Vulkan\l/API/DescriptorPool.cpp">
<polygon fill="none" stroke="#000000" points="1464,-151 1464,-181 1601,-181 1601,-151 1464,-151"/>
<text text-anchor="start" x="1472" y="-169" font-family="Helvetica,sans-Serif" font-size="10.00" fill="#000000">src/lug/Graphics/Vulkan</text>
<text text-anchor="middle" x="1532.5" y="-158" font-family="Helvetica,sans-Serif" font-size="10.00" fill="#000000">/API/DescriptorPool.cpp</text>
</a>
</g>
</g>
<!-- Node9&#45;&gt;Node28 -->
<g id="edge29" class="edge">
<title>Node9&#45;&gt;Node28</title>
<path fill="none" stroke="#191970" d="M1862.4028,-228.7373C1795.2602,-219.7667 1696.0182,-205.1295 1610.5,-187 1602.2686,-185.255 1593.611,-183.1744 1585.1792,-181.0113"/>
<polygon fill="#191970" stroke="#191970" points="1862.1098,-232.229 1872.4831,-230.0737 1863.0299,-225.2897 1862.1098,-232.229"/>
</g>
<!-- Node29 -->
<g id="node21" class="node">
<title>Node29</title>
<g id="a_node21"><a xlink:href="DescriptorSet_8cpp.html" target="_top" xlink:title="src/lug/Graphics/Vulkan\l/API/DescriptorSet.cpp">
<polygon fill="none" stroke="#000000" points="1619,-151 1619,-181 1756,-181 1756,-151 1619,-151"/>
<text text-anchor="start" x="1627" y="-169" font-family="Helvetica,sans-Serif" font-size="10.00" fill="#000000">src/lug/Graphics/Vulkan</text>
<text text-anchor="middle" x="1687.5" y="-158" font-family="Helvetica,sans-Serif" font-size="10.00" fill="#000000">/API/DescriptorSet.cpp</text>
</a>
</g>
</g>
<!-- Node9&#45;&gt;Node29 -->
<g id="edge30" class="edge">
<title>Node9&#45;&gt;Node29</title>
<path fill="none" stroke="#191970" d="M1878.3966,-220.7036C1835.8769,-208.5191 1780.1206,-192.5415 1739.8546,-181.0028"/>
<polygon fill="#191970" stroke="#191970" points="1877.501,-224.0877 1888.0782,-223.478 1879.4293,-217.3586 1877.501,-224.0877"/>
</g>
<!-- Node30 -->
<g id="node22" class="node">
<title>Node30</title>
<g id="a_node22"><a xlink:href="DescriptorSetLayout_8cpp.html" target="_top" xlink:title="src/lug/Graphics/Vulkan\l/API/DescriptorSetLayout.cpp">
<polygon fill="none" stroke="#000000" points="1774.5,-151 1774.5,-181 1938.5,-181 1938.5,-151 1774.5,-151"/>
<text text-anchor="start" x="1782.5" y="-169" font-family="Helvetica,sans-Serif" font-size="10.00" fill="#000000">src/lug/Graphics/Vulkan</text>
<text text-anchor="middle" x="1856.5" y="-158" font-family="Helvetica,sans-Serif" font-size="10.00" fill="#000000">/API/DescriptorSetLayout.cpp</text>
</a>
</g>
</g>
<!-- Node9&#45;&gt;Node30 -->
<g id="edge31" class="edge">
<title>Node9&#45;&gt;Node30</title>
<path fill="none" stroke="#191970" d="M1915.1933,-216.6579C1901.8476,-205.1393 1885.8161,-191.3026 1873.8826,-181.0028"/>
<polygon fill="#191970" stroke="#191970" points="1913.238,-219.5937 1923.0951,-223.478 1917.8117,-214.2945 1913.238,-219.5937"/>
</g>
<!-- Node31 -->
<g id="node23" class="node">
<title>Node31</title>
<g id="a_node23"><a xlink:href="Device_8cpp.html" target="_top" xlink:title="src/lug/Graphics/Vulkan\l/API/Device.cpp">
<polygon fill="none" stroke="#000000" points="1957,-151 1957,-181 2094,-181 2094,-151 1957,-151"/>
<text text-anchor="start" x="1965" y="-169" font-family="Helvetica,sans-Serif" font-size="10.00" fill="#000000">src/lug/Graphics/Vulkan</text>
<text text-anchor="middle" x="2025.5" y="-158" font-family="Helvetica,sans-Serif" font-size="10.00" fill="#000000">/API/Device.cpp</text>
</a>
</g>
</g>
<!-- Node9&#45;&gt;Node31 -->
<g id="edge32" class="edge">
<title>Node9&#45;&gt;Node31</title>
<path fill="none" stroke="#191970" d="M1965.7265,-216.9833C1979.3061,-205.4007 1995.721,-191.3998 2007.9105,-181.0028"/>
<polygon fill="#191970" stroke="#191970" points="1963.4491,-214.3255 1958.1121,-223.478 1967.9917,-219.6514 1963.4491,-214.3255"/>
</g>
<!-- Node32 -->
<g id="node24" class="node">
<title>Node32</title>
<g id="a_node24"><a xlink:href="DeviceMemory_8cpp.html" target="_top" xlink:title="src/lug/Graphics/Vulkan\l/API/DeviceMemory.cpp">
<polygon fill="none" stroke="#000000" points="2112,-151 2112,-181 2249,-181 2249,-151 2112,-151"/>
<text text-anchor="start" x="2120" y="-169" font-family="Helvetica,sans-Serif" font-size="10.00" fill="#000000">src/lug/Graphics/Vulkan</text>
<text text-anchor="middle" x="2180.5" y="-158" font-family="Helvetica,sans-Serif" font-size="10.00" fill="#000000">/API/DeviceMemory.cpp</text>
</a>
</g>
</g>
<!-- Node9&#45;&gt;Node32 -->
<g id="edge33" class="edge">
<title>Node9&#45;&gt;Node32</title>
<path fill="none" stroke="#191970" d="M1999.9225,-220.5495C2040.1923,-208.3846 2092.7994,-192.4929 2130.8356,-181.0028"/>
<polygon fill="#191970" stroke="#191970" points="1998.7888,-217.2356 1990.2282,-223.478 2000.8131,-223.9366 1998.7888,-217.2356"/>
</g>
<!-- Node33 -->
<g id="node25" class="node">
<title>Node33</title>
<g id="a_node25"><a xlink:href="Fence_8cpp.html" target="_top" xlink:title="src/lug/Graphics/Vulkan\l/API/Fence.cpp">
<polygon fill="none" stroke="#000000" points="2267,-151 2267,-181 2404,-181 2404,-151 2267,-151"/>
<text text-anchor="start" x="2275" y="-169" font-family="Helvetica,sans-Serif" font-size="10.00" fill="#000000">src/lug/Graphics/Vulkan</text>
<text text-anchor="middle" x="2335.5" y="-158" font-family="Helvetica,sans-Serif" font-size="10.00" fill="#000000">/API/Fence.cpp</text>
</a>
</g>
</g>
<!-- Node9&#45;&gt;Node33 -->
<g id="edge34" class="edge">
<title>Node9&#45;&gt;Node33</title>
<path fill="none" stroke="#191970" d="M2018.6221,-228.1977C2083.2603,-219.112 2177.3026,-204.5958 2258.5,-187 2266.4898,-185.2686 2274.8867,-183.2198 2283.0787,-181.0919"/>
<polygon fill="#191970" stroke="#191970" points="2017.9274,-224.7607 2008.5069,-229.6089 2018.8947,-231.6935 2017.9274,-224.7607"/>
</g>
<!-- Node34 -->
<g id="node26" class="node">
<title>Node34</title>
<g id="a_node26"><a xlink:href="Framebuffer_8cpp.html" target="_top" xlink:title="src/lug/Graphics/Vulkan\l/API/Framebuffer.cpp">
<polygon fill="none" stroke="#000000" points="2422,-151 2422,-181 2559,-181 2559,-151 2422,-151"/>
<text text-anchor="start" x="2430" y="-169" font-family="Helvetica,sans-Serif" font-size="10.00" fill="#000000">src/lug/Graphics/Vulkan</text>
<text text-anchor="middle" x="2490.5" y="-158" font-family="Helvetica,sans-Serif" font-size="10.00" fill="#000000">/API/Framebuffer.cpp</text>
</a>
</g>
</g>
<!-- Node9&#45;&gt;Node34 -->
<g id="edge35" class="edge">
<title>Node9&#45;&gt;Node34</title>
<path fill="none" stroke="#191970" d="M2018.778,-233.7746C2113.0429,-227.2123 2275.8795,-213.0895 2413.5,-187 2422.0767,-185.3741 2431.0954,-183.2766 2439.819,-181.0381"/>
<polygon fill="#191970" stroke="#191970" points="2018.4885,-230.2861 2008.7514,-234.462 2018.9674,-237.2697 2018.4885,-230.2861"/>
</g>
<!-- Node35 -->
<g id="node27" class="node">
<title>Node35</title>
<g id="a_node27"><a xlink:href="Image_8cpp.html" target="_top" xlink:title="src/lug/Graphics/Vulkan\l/API/Image.cpp">
<polygon fill="none" stroke="#000000" points="2577,-151 2577,-181 2714,-181 2714,-151 2577,-151"/>
<text text-anchor="start" x="2585" y="-169" font-family="Helvetica,sans-Serif" font-size="10.00" fill="#000000">src/lug/Graphics/Vulkan</text>
<text text-anchor="middle" x="2645.5" y="-158" font-family="Helvetica,sans-Serif" font-size="10.00" fill="#000000">/API/Image.cpp</text>
</a>
</g>
</g>
<!-- Node9&#45;&gt;Node35 -->
<g id="edge36" class="edge">
<title>Node9&#45;&gt;Node35</title>
<path fill="none" stroke="#191970" d="M2019.014,-236.7019C2138.4877,-232.9236 2372.7298,-221.4196 2568.5,-187 2577.3705,-185.4404 2586.7006,-183.319 2595.6849,-181.0215"/>
<polygon fill="#191970" stroke="#191970" points="2018.7519,-233.2082 2008.8639,-237.0129 2018.9664,-240.2049 2018.7519,-233.2082"/>
</g>
<!-- Node36 -->
<g id="node28" class="node">
<title>Node36</title>
<g id="a_node28"><a xlink:href="ImageView_8cpp.html" target="_top" xlink:title="src/lug/Graphics/Vulkan\l/API/ImageView.cpp">
<polygon fill="none" stroke="#000000" points="2732,-151 2732,-181 2869,-181 2869,-151 2732,-151"/>
<text text-anchor="start" x="2740" y="-169" font-family="Helvetica,sans-Serif" font-size="10.00" fill="#000000">src/lug/Graphics/Vulkan</text>
<text text-anchor="middle" x="2800.5" y="-158" font-family="Helvetica,sans-Serif" font-size="10.00" fill="#000000">/API/ImageView.cpp</text>
</a>
</g>
</g>
<!-- Node9&#45;&gt;Node36 -->
<g id="edge37" class="edge">
<title>Node9&#45;&gt;Node36</title>
<path fill="none" stroke="#191970" d="M2018.6891,-235.3542C2189.1196,-228.1717 2589.5263,-209.4414 2723.5,-187 2732.5195,-185.4892 2742.0063,-183.3616 2751.1199,-181.0356"/>
<polygon fill="#191970" stroke="#191970" points="2018.3809,-231.8639 2008.5363,-235.7799 2018.6742,-238.8578 2018.3809,-231.8639"/>
</g>
<!-- Node37 -->
<g id="node29" class="node">
<title>Node37</title>
<g id="a_node29"><a xlink:href="Loader_8cpp.html" target="_top" xlink:title="src/lug/Graphics/Vulkan\l/API/Loader.cpp">
<polygon fill="none" stroke="#000000" points="2887,-151 2887,-181 3024,-181 3024,-151 2887,-151"/>
<text text-anchor="start" x="2895" y="-169" font-family="Helvetica,sans-Serif" font-size="10.00" fill="#000000">src/lug/Graphics/Vulkan</text>
<text text-anchor="middle" x="2955.5" y="-158" font-family="Helvetica,sans-Serif" font-size="10.00" fill="#000000">/API/Loader.cpp</text>
</a>
</g>
</g>
<!-- Node9&#45;&gt;Node37 -->
<g id="edge38" class="edge">
<title>Node9&#45;&gt;Node37</title>
<path fill="none" stroke="#191970" d="M2018.8684,-236.3301C2213.2675,-230.6043 2713.8107,-213.6705 2878.5,-187 2887.6643,-185.5159 2897.3059,-183.3702 2906.5473,-181.0109"/>
<polygon fill="#191970" stroke="#191970" points="2018.6245,-232.8356 2008.7312,-236.6267 2018.8293,-239.8327 2018.6245,-232.8356"/>
</g>
<!-- Node38 -->
<g id="node30" class="node">
<title>Node38</title>
<g id="a_node30"><a xlink:href="PipelineLayout_8cpp.html" target="_top" xlink:title="src/lug/Graphics/Vulkan\l/API/PipelineLayout.cpp">
<polygon fill="none" stroke="#000000" points="3042,-151 3042,-181 3179,-181 3179,-151 3042,-151"/>
<text text-anchor="start" x="3050" y="-169" font-family="Helvetica,sans-Serif" font-size="10.00" fill="#000000">src/lug/Graphics/Vulkan</text>
<text text-anchor="middle" x="3110.5" y="-158" font-family="Helvetica,sans-Serif" font-size="10.00" fill="#000000">/API/PipelineLayout.cpp</text>
</a>
</g>
</g>
<!-- Node9&#45;&gt;Node38 -->
<g id="edge40" class="edge">
<title>Node9&#45;&gt;Node38</title>
<path fill="none" stroke="#191970" d="M2018.6369,-237.0422C2234.8013,-232.6549 2837.7085,-217.9276 3033.5,-187 3042.67,-185.5515 3052.3144,-183.4227 3061.5566,-181.0691"/>
<polygon fill="#191970" stroke="#191970" points="2018.5664,-233.5428 2008.6388,-237.2433 2018.7072,-240.5414 2018.5664,-233.5428"/>
</g>
<!-- Node39 -->
<g id="node31" class="node">
<title>Node39</title>
<g id="a_node31"><a xlink:href="RenderPass_8cpp.html" target="_top" xlink:title="src/lug/Graphics/Vulkan\l/API/RenderPass.cpp">
<polygon fill="none" stroke="#000000" points="3197,-151 3197,-181 3334,-181 3334,-151 3197,-151"/>
<text text-anchor="start" x="3205" y="-169" font-family="Helvetica,sans-Serif" font-size="10.00" fill="#000000">src/lug/Graphics/Vulkan</text>
<text text-anchor="middle" x="3265.5" y="-158" font-family="Helvetica,sans-Serif" font-size="10.00" fill="#000000">/API/RenderPass.cpp</text>
</a>
</g>
</g>
<!-- Node9&#45;&gt;Node39 -->
<g id="edge41" class="edge">
<title>Node9&#45;&gt;Node39</title>
<path fill="none" stroke="#191970" d="M2018.7979,-237.5719C2255.5458,-234.4016 2961.5094,-222.1768 3188.5,-187 3197.8111,-185.557 3207.6086,-183.399 3216.9771,-181.0075"/>
<polygon fill="#191970" stroke="#191970" points="2018.5063,-234.0753 2008.5535,-237.7073 2018.5989,-241.0747 2018.5063,-234.0753"/>
</g>
<!-- Node40 -->
<g id="node32" class="node">
<title>Node40</title>
<g id="a_node32"><a xlink:href="Semaphore_8cpp.html" target="_top" xlink:title="src/lug/Graphics/Vulkan\l/API/Semaphore.cpp">
<polygon fill="none" stroke="#000000" points="3352,-151 3352,-181 3489,-181 3489,-151 3352,-151"/>
<text text-anchor="start" x="3360" y="-169" font-family="Helvetica,sans-Serif" font-size="10.00" fill="#000000">src/lug/Graphics/Vulkan</text>
<text text-anchor="middle" x="3420.5" y="-158" font-family="Helvetica,sans-Serif" font-size="10.00" fill="#000000">/API/Semaphore.cpp</text>
</a>
</g>
</g>
<!-- Node9&#45;&gt;Node40 -->
<g id="edge42" class="edge">
<title>Node9&#45;&gt;Node40</title>
<path fill="none" stroke="#191970" d="M2019.1302,-237.9856C2275.4569,-235.9364 3085.1983,-226.4273 3343.5,-187 3352.8144,-185.5782 3362.6134,-183.4301 3371.9823,-181.0418"/>
<polygon fill="#191970" stroke="#191970" points="2018.7653,-234.4883 2008.793,-238.0666 2018.8202,-241.4881 2018.7653,-234.4883"/>
</g>
<!-- Node41 -->
<g id="node33" class="node">
<title>Node41</title>
<g id="a_node33"><a xlink:href="ShaderModule_8cpp.html" target="_top" xlink:title="src/lug/Graphics/Vulkan\l/API/ShaderModule.cpp">
<polygon fill="none" stroke="#000000" points="3507,-151 3507,-181 3644,-181 3644,-151 3507,-151"/>
<text text-anchor="start" x="3515" y="-169" font-family="Helvetica,sans-Serif" font-size="10.00" fill="#000000">src/lug/Graphics/Vulkan</text>
<text text-anchor="middle" x="3575.5" y="-158" font-family="Helvetica,sans-Serif" font-size="10.00" fill="#000000">/API/ShaderModule.cpp</text>
</a>
</g>
</g>
<!-- Node9&#45;&gt;Node41 -->
<g id="edge43" class="edge">
<title>Node9&#45;&gt;Node41</title>
<path fill="none" stroke="#191970" d="M2018.9334,-236.9802C2314.529,-231.1051 3351.8827,-209.1062 3498.5,-187 3507.817,-185.5952 3517.6172,-183.4551 3526.9865,-181.0693"/>
<polygon fill="#191970" stroke="#191970" points="2018.6624,-233.4848 2008.7338,-237.1823 2018.8012,-240.4834 2018.6624,-233.4848"/>
</g>
<!-- Node42 -->
<g id="node34" class="node">
<title>Node42</title>
<g id="a_node34"><a xlink:href="Swapchain_8cpp.html" target="_top" xlink:title="src/lug/Graphics/Vulkan\l/API/Swapchain.cpp">
<polygon fill="none" stroke="#000000" points="3662,-151 3662,-181 3799,-181 3799,-151 3662,-151"/>
<text text-anchor="start" x="3670" y="-169" font-family="Helvetica,sans-Serif" font-size="10.00" fill="#000000">src/lug/Graphics/Vulkan</text>
<text text-anchor="middle" x="3730.5" y="-158" font-family="Helvetica,sans-Serif" font-size="10.00" fill="#000000">/API/Swapchain.cpp</text>
</a>
</g>
</g>
<!-- Node9&#45;&gt;Node42 -->
<g id="edge44" class="edge">
<title>Node9&#45;&gt;Node42</title>
<path fill="none" stroke="#191970" d="M2018.9919,-237.2309C2333.175,-232.0022 3490.9682,-211.2574 3653.5,-187 3662.8191,-185.6092 3672.6202,-183.4755 3681.9899,-181.0918"/>
<polygon fill="#191970" stroke="#191970" points="2018.5562,-233.7376 2008.6156,-237.4031 2018.6723,-240.7366 2018.5562,-233.7376"/>
</g>
<!-- Node10&#45;&gt;Node11 -->
<g id="edge2" class="edge">
<title>Node10&#45;&gt;Node11</title>
<path fill="none" stroke="#191970" d="M478.4448,-146.0669C453.6816,-132.746 421.601,-115.4888 398.8664,-103.2592"/>
<polygon fill="#191970" stroke="#191970" points="477.0778,-149.3057 487.5425,-150.9608 480.394,-143.1411 477.0778,-149.3057"/>
</g>
<!-- Node12 -->
<g id="node4" class="node">
<title>Node12</title>
<g id="a_node4"><a xlink:href="Graphics_8cpp.html" target="_top" xlink:title="src/lug/Graphics/Graphics.cpp">
<polygon fill="none" stroke="#000000" points="155.5,-6 155.5,-25 323.5,-25 323.5,-6 155.5,-6"/>
<text text-anchor="middle" x="239.5" y="-13" font-family="Helvetica,sans-Serif" font-size="10.00" fill="#000000">src/lug/Graphics/Graphics.cpp</text>
</a>
</g>
</g>
<!-- Node10&#45;&gt;Node12 -->
<g id="edge7" class="edge">
<title>Node10&#45;&gt;Node12</title>
<path fill="none" stroke="#191970" d="M432.4045,-150.9065C380.332,-140.2029 319.1252,-124.9553 297.5,-109 267.5262,-86.885 249.5631,-44.2107 242.7044,-25.1293"/>
<polygon fill="#191970" stroke="#191970" points="431.8501,-154.3652 442.3457,-152.9183 433.2387,-147.5043 431.8501,-154.3652"/>
</g>
<!-- Node13 -->
<g id="node5" class="node">
<title>Node13</title>
<g id="a_node5"><a xlink:href="Forward_8cpp.html" target="_top" xlink:title="src/lug/Graphics/Vulkan\l/Render/Technique/Forward.cpp">
<polygon fill="none" stroke="#000000" points="497,-.5 497,-30.5 674,-30.5 674,-.5 497,-.5"/>
<text text-anchor="start" x="505" y="-18.5" font-family="Helvetica,sans-Serif" font-size="10.00" fill="#000000">src/lug/Graphics/Vulkan</text>
<text text-anchor="middle" x="585.5" y="-7.5" font-family="Helvetica,sans-Serif" font-size="10.00" fill="#000000">/Render/Technique/Forward.cpp</text>
</a>
</g>
</g>
<!-- Node10&#45;&gt;Node13 -->
<g id="edge10" class="edge">
<title>Node10&#45;&gt;Node13</title>
<path fill="none" stroke="#191970" d="M496.5793,-142.6991C482.0427,-121.774 466.7409,-90.7781 481.5,-67 492.0723,-49.9671 510.1372,-38.3947 528.2732,-30.6112"/>
<polygon fill="#191970" stroke="#191970" points="493.9337,-145.0098 502.6726,-151 499.5766,-140.8676 493.9337,-145.0098"/>
</g>
<!-- Node10&#45;&gt;Node16 -->
<g id="edge8" class="edge">
<title>Node10&#45;&gt;Node16</title>
<path fill="none" stroke="#191970" d="M563.2716,-147.2754C597.762,-133.7566 643.7393,-115.7354 675.9096,-103.1259"/>
<polygon fill="#191970" stroke="#191970" points="561.9023,-144.0528 553.8692,-150.9608 564.4568,-150.5701 561.9023,-144.0528"/>
</g>
<!-- Node17 -->
<g id="node9" class="node">
<title>Node17</title>
<g id="a_node9"><a xlink:href="Vulkan_2Render_2Mesh_8cpp.html" target="_top" xlink:title="src/lug/Graphics/Vulkan\l/Render/Mesh.cpp">
<polygon fill="none" stroke="#000000" points="491,-73 491,-103 628,-103 628,-73 491,-73"/>
<text text-anchor="start" x="499" y="-91" font-family="Helvetica,sans-Serif" font-size="10.00" fill="#000000">src/lug/Graphics/Vulkan</text>
<text text-anchor="middle" x="559.5" y="-80" font-family="Helvetica,sans-Serif" font-size="10.00" fill="#000000">/Render/Mesh.cpp</text>
</a>
</g>
</g>
<!-- Node10&#45;&gt;Node17 -->
<g id="edge9" class="edge">
<title>Node10&#45;&gt;Node17</title>
<path fill="none" stroke="#191970" d="M529.0916,-141.9059C536.2023,-129.3005 544.6925,-114.2497 550.8923,-103.2592"/>
<polygon fill="#191970" stroke="#191970" points="525.8485,-140.5314 523.9836,-150.9608 531.9453,-143.9707 525.8485,-140.5314"/>
</g>
<!-- Node11&#45;&gt;Node12 -->
<g id="edge3" class="edge">
<title>Node11&#45;&gt;Node12</title>
<path fill="none" stroke="#191970" d="M334.4413,-68.0439C309.2392,-54.0961 276.6941,-36.0845 256.9953,-25.1825"/>
<polygon fill="#191970" stroke="#191970" points="332.9125,-71.198 343.3567,-72.978 336.3021,-65.0733 332.9125,-71.198"/>
</g>
<!-- Node11&#45;&gt;Node13 -->
<g id="edge4" class="edge">
<title>Node11&#45;&gt;Node13</title>
<path fill="none" stroke="#191970" d="M424.8803,-69.6624C460.8026,-57.5491 507.2951,-41.8714 541.0089,-30.5028"/>
<polygon fill="#191970" stroke="#191970" points="423.4055,-66.4661 415.0481,-72.978 425.6423,-73.0991 423.4055,-66.4661"/>
</g>
<!-- Node14 -->
<g id="node6" class="node">
<title>Node14</title>
<g id="a_node6"><a xlink:href="Graphics_2Vulkan_2Render_2Window_8cpp.html" target="_top" xlink:title="src/lug/Graphics/Vulkan\l/Render/Window.cpp">
<polygon fill="none" stroke="#000000" points="837,-.5 837,-30.5 974,-30.5 974,-.5 837,-.5"/>
<text text-anchor="start" x="845" y="-18.5" font-family="Helvetica,sans-Serif" font-size="10.00" fill="#000000">src/lug/Graphics/Vulkan</text>
<text text-anchor="middle" x="905.5" y="-7.5" font-family="Helvetica,sans-Serif" font-size="10.00" fill="#000000">/Render/Window.cpp</text>
</a>
</g>
</g>
<!-- Node11&#45;&gt;Node14 -->
<g id="edge5" class="edge">
<title>Node11&#45;&gt;Node14</title>
<path fill="none" stroke="#191970" d="M443.9831,-73.3902C456.4779,-71.1091 469.3423,-68.8863 481.5,-67 606.2514,-47.6446 752.5991,-31.2561 836.6437,-22.4488"/>
<polygon fill="#191970" stroke="#191970" points="443.2581,-69.9649 434.0624,-75.2268 444.5324,-76.8479 443.2581,-69.9649"/>
</g>
<!-- Node15 -->
<g id="node7" class="node">
<title>Node15</title>
<g id="a_node7"><a xlink:href="Vulkan_2Renderer_8cpp.html" target="_top" xlink:title="src/lug/Graphics/Vulkan\l/Renderer.cpp">
<polygon fill="none" stroke="#000000" points="342,-.5 342,-30.5 479,-30.5 479,-.5 342,-.5"/>
<text text-anchor="start" x="350" y="-18.5" font-family="Helvetica,sans-Serif" font-size="10.00" fill="#000000">src/lug/Graphics/Vulkan</text>
<text text-anchor="middle" x="410.5" y="-7.5" font-family="Helvetica,sans-Serif" font-size="10.00" fill="#000000">/Renderer.cpp</text>
</a>
</g>
</g>
<!-- Node11&#45;&gt;Node15 -->
<g id="edge6" class="edge">
<title>Node11&#45;&gt;Node15</title>
<path fill="none" stroke="#191970" d="M383.6417,-64.1807C389.7639,-53.0842 396.8616,-40.2196 402.2226,-30.5028"/>
<polygon fill="#191970" stroke="#191970" points="380.5543,-62.5314 378.788,-72.978 386.6834,-65.913 380.5543,-62.5314"/>
</g>
<!-- Node18&#45;&gt;Node12 -->
<g id="edge12" class="edge">
<title>Node18&#45;&gt;Node12</title>
<path fill="none" stroke="#191970" d="M195.3822,-65.4772C207.2423,-52.0419 221.7082,-35.6548 230.7645,-25.3957"/>
<polygon fill="#191970" stroke="#191970" points="192.7549,-63.1648 188.7608,-72.978 198.0027,-67.7973 192.7549,-63.1648"/>
</g>
<!-- Node18&#45;&gt;Node13 -->
<g id="edge14" class="edge">
<title>Node18&#45;&gt;Node13</title>
<path fill="none" stroke="#191970" d="M260.8553,-72.9067C331.1499,-60.4765 430.3192,-42.9405 500.5127,-30.5282"/>
<polygon fill="#191970" stroke="#191970" points="259.9381,-69.5145 250.7003,-74.7024 261.157,-76.4076 259.9381,-69.5145"/>
</g>
<!-- Node19 -->
<g id="node11" class="node">
<title>Node19</title>
<g id="a_node11"><a xlink:href="Vulkan_2Render_2Model_8cpp.html" target="_top" xlink:title="src/lug/Graphics/Vulkan\l/Render/Model.cpp">
<polygon fill="none" stroke="#000000" points="0,-.5 0,-30.5 137,-30.5 137,-.5 0,-.5"/>
<text text-anchor="start" x="8" y="-18.5" font-family="Helvetica,sans-Serif" font-size="10.00" fill="#000000">src/lug/Graphics/Vulkan</text>
<text text-anchor="middle" x="68.5" y="-7.5" font-family="Helvetica,sans-Serif" font-size="10.00" fill="#000000">/Render/Model.cpp</text>
</a>
</g>
</g>
<!-- Node18&#45;&gt;Node19 -->
<g id="edge13" class="edge">
<title>Node18&#45;&gt;Node19</title>
<path fill="none" stroke="#191970" d="M144.699,-67.1302C127.4243,-55.4253 106.2733,-41.0941 90.6421,-30.5028"/>
<polygon fill="#191970" stroke="#191970" points="143.0876,-70.2661 153.3295,-72.978 147.0142,-64.4711 143.0876,-70.2661"/>
</g>
<!-- Node21 -->
<g id="node13" class="node">
<title>Node21</title>
<g id="a_node13"><a xlink:href="Forward_8hpp.html" target="_top" xlink:title="include/lug/Graphics\l/Vulkan/Render/Technique\l/Forward.hpp">
<polygon fill="none" stroke="#000000" points="801,-67.5 801,-108.5 950,-108.5 950,-67.5 801,-67.5"/>
<text text-anchor="start" x="809" y="-96.5" font-family="Helvetica,sans-Serif" font-size="10.00" fill="#000000">include/lug/Graphics</text>
<text text-anchor="start" x="809" y="-85.5" font-family="Helvetica,sans-Serif" font-size="10.00" fill="#000000">/Vulkan/Render/Technique</text>
<text text-anchor="middle" x="875.5" y="-74.5" font-family="Helvetica,sans-Serif" font-size="10.00" fill="#000000">/Forward.hpp</text>
</a>
</g>
</g>
<!-- Node20&#45;&gt;Node21 -->
<g id="edge16" class="edge">
<title>Node20&#45;&gt;Node21</title>
<path fill="none" stroke="#191970" d="M866.4464,-135.0789C868.1504,-126.2178 869.9664,-116.7747 871.5212,-108.6898"/>
<polygon fill="#191970" stroke="#191970" points="862.9713,-134.6164 864.5197,-145.0974 869.8453,-135.9384 862.9713,-134.6164"/>
</g>
<!-- Node20&#45;&gt;Node23 -->
<g id="edge19" class="edge">
<title>Node20&#45;&gt;Node23</title>
<path fill="none" stroke="#191970" d="M945.2477,-145.6653C946.3379,-145.44 947.4224,-145.2181 948.5,-145 1043.89,-125.6931 1069.302,-129.2322 1164.5,-109 1172.8839,-107.2182 1181.7058,-105.1422 1190.3184,-103.0024"/>
<polygon fill="#191970" stroke="#191970" points="944.3694,-142.2737 935.3147,-147.7748 945.8236,-149.121 944.3694,-142.2737"/>
</g>
<!-- Node24 -->
<g id="node16" class="node">
<title>Node24</title>
<g id="a_node16"><a xlink:href="Technique_8cpp.html" target="_top" xlink:title="src/lug/Graphics/Vulkan\l/Render/Technique/Technique.cpp">
<polygon fill="none" stroke="#000000" points="968,-73 968,-103 1155,-103 1155,-73 968,-73"/>
<text text-anchor="start" x="976" y="-91" font-family="Helvetica,sans-Serif" font-size="10.00" fill="#000000">src/lug/Graphics/Vulkan</text>
<text text-anchor="middle" x="1061.5" y="-80" font-family="Helvetica,sans-Serif" font-size="10.00" fill="#000000">/Render/Technique/Technique.cpp</text>
</a>
</g>
</g>
<!-- Node20&#45;&gt;Node24 -->
<g id="edge23" class="edge">
<title>Node20&#45;&gt;Node24</title>
<path fill="none" stroke="#191970" d="M923.0367,-141.732C955.6657,-129.07 994.5534,-113.9793 1022.7977,-103.0188"/>
<polygon fill="#191970" stroke="#191970" points="921.6297,-138.5236 913.5733,-145.4044 924.1622,-145.0495 921.6297,-138.5236"/>
</g>
<!-- Node21&#45;&gt;Node13 -->
<g id="edge17" class="edge">
<title>Node21&#45;&gt;Node13</title>
<path fill="none" stroke="#191970" d="M791.0857,-66.6486C737.013,-53.0924 685.1297,-40.1923 646.2021,-30.535"/>
<polygon fill="#191970" stroke="#191970" points="790.2958,-70.0589 800.8468,-69.097 791.9988,-63.2692 790.2958,-70.0589"/>
</g>
<!-- Node22 -->
<g id="node14" class="node">
<title>Node22</title>
<g id="a_node14"><a xlink:href="Vulkan_2Render_2View_8cpp.html" target="_top" xlink:title="src/lug/Graphics/Vulkan\l/Render/View.cpp">
<polygon fill="none" stroke="#000000" points="1065,-.5 1065,-30.5 1202,-30.5 1202,-.5 1065,-.5"/>
<text text-anchor="start" x="1073" y="-18.5" font-family="Helvetica,sans-Serif" font-size="10.00" fill="#000000">src/lug/Graphics/Vulkan</text>
<text text-anchor="middle" x="1133.5" y="-7.5" font-family="Helvetica,sans-Serif" font-size="10.00" fill="#000000">/Render/View.cpp</text>
</a>
</g>
</g>
<!-- Node21&#45;&gt;Node22 -->
<g id="edge18" class="edge">
<title>Node21&#45;&gt;Node22</title>
<path fill="none" stroke="#191970" d="M958.432,-64.6955C998.2003,-53.5203 1044.6931,-40.4554 1079.768,-30.5991"/>
<polygon fill="#191970" stroke="#191970" points="957.4226,-61.3435 948.7423,-67.4183 959.3163,-68.0825 957.4226,-61.3435"/>
</g>
<!-- Node23&#45;&gt;Node13 -->
<g id="edge20" class="edge">
<title>Node23&#45;&gt;Node13</title>
<path fill="none" stroke="#191970" d="M1182.4867,-70.5905C1176.436,-69.243 1170.3692,-68.0147 1164.5,-67 1072.7022,-51.1295 812.1642,-31.3643 674.0196,-21.5766"/>
<polygon fill="#191970" stroke="#191970" points="1182.0828,-74.0902 1192.6165,-72.9541 1183.6734,-67.2733 1182.0828,-74.0902"/>
</g>
<!-- Node23&#45;&gt;Node14 -->
<g id="edge22" class="edge">
<title>Node23&#45;&gt;Node14</title>
<path fill="none" stroke="#191970" d="M1178.9391,-70.4183C1174.0606,-69.2295 1169.2086,-68.0776 1164.5,-67 1100.2578,-52.298 1026.4977,-37.8687 974.1648,-28.0414"/>
<polygon fill="#191970" stroke="#191970" points="1178.4049,-73.8916 1188.9531,-72.8981 1180.0876,-67.0969 1178.4049,-73.8916"/>
</g>
<!-- Node23&#45;&gt;Node22 -->
<g id="edge21" class="edge">
<title>Node23&#45;&gt;Node22</title>
<path fill="none" stroke="#191970" d="M1213.7564,-67.4517C1195.5844,-55.6886 1173.1886,-41.1913 1156.6767,-30.5028"/>
<polygon fill="#191970" stroke="#191970" points="1211.9969,-70.482 1222.2935,-72.978 1215.8008,-64.6057 1211.9969,-70.482"/>
</g>
</g>
</svg>
