<?xml version="1.0" encoding="UTF-8" standalone="no"?>
<!DOCTYPE svg PUBLIC "-//W3C//DTD SVG 1.1//EN"
 "http://www.w3.org/Graphics/SVG/1.1/DTD/svg11.dtd">
<!-- Generated by graphviz version 2.40.1 (20161225.0304)
 -->
<!-- Title: src/lug Pages: 1 -->
<svg width="550pt" height="159pt"
 viewBox="0.00 0.00 550.00 159.00" xmlns="http://www.w3.org/2000/svg" xmlns:xlink="http://www.w3.org/1999/xlink">
<g id="graph0" class="graph" transform="scale(1 1) rotate(0) translate(4 155)">
<title>src/lug</title>
<g id="clust1" class="cluster">
<title>clusterdir_68267d1309a1af8e8297ef4c3efbcdba</title>
<g id="a_clust1"><a xlink:href="dir_68267d1309a1af8e8297ef4c3efbcdba.html" target="_top" xlink:title="src">
<polygon fill="#ddddee" stroke="#000000" points="8,-56 8,-143 534,-143 534,-56 8,-56"/>
<text text-anchor="middle" x="271" y="-131" font-family="Helvetica,sans-Serif" font-size="10.00" fill="#000000">src</text>
</a>
</g>
</g>
<g id="clust2" class="cluster">
<title>clusterdir_5b9a086aa131470e9732dbc77fcf07c3</title>
<g id="a_clust2"><a xlink:href="dir_5b9a086aa131470e9732dbc77fcf07c3.html" target="_top">
<polygon fill="#eeeeff" stroke="#000000" points="16,-64 16,-116 526,-116 526,-64 16,-64"/>
</a>
</g>
</g>
<!-- dir_5b9a086aa131470e9732dbc77fcf07c3 -->
<g id="node1" class="node">
<title>dir_5b9a086aa131470e9732dbc77fcf07c3</title>
<text text-anchor="middle" x="491" y="-87.5" font-family="Helvetica,sans-Serif" font-size="10.00" fill="#000000">lug</text>
</g>
<!-- dir_a1eaa6c6099f9919200a7ae276b06da5 -->
<g id="node2" class="node">
<title>dir_a1eaa6c6099f9919200a7ae276b06da5</title>
<g id="a_node2"><a xlink:href="dir_a1eaa6c6099f9919200a7ae276b06da5.html" target="_top" xlink:title="Core">
<polygon fill="#ffffff" stroke="#000000" points="446,-108 392,-108 392,-72 446,-72 446,-108"/>
<text text-anchor="middle" x="419" y="-87.5" font-family="Helvetica,sans-Serif" font-size="10.00" fill="#000000">Core</text>
</a>
</g>
</g>
<!-- dir_d44c64559bbebec7f509842c48db8b23 -->
<g id="node8" class="node">
<title>dir_d44c64559bbebec7f509842c48db8b23</title>
<g id="a_node8"><a xlink:href="dir_d44c64559bbebec7f509842c48db8b23.html" target="_top" xlink:title="include">
<polygon fill="none" stroke="#ff0000" points="260,-36 206,-36 206,0 260,0 260,-36"/>
<text text-anchor="middle" x="233" y="-15.5" font-family="Helvetica,sans-Serif" font-size="10.00" fill="#000000">include</text>
</a>
</g>
</g>
<!-- dir_a1eaa6c6099f9919200a7ae276b06da5&#45;&gt;dir_d44c64559bbebec7f509842c48db8b23 -->
<g id="edge1" class="edge">
<title>dir_a1eaa6c6099f9919200a7ae276b06da5&#45;&gt;dir_d44c64559bbebec7f509842c48db8b23</title>
<path fill="none" stroke="#000000" d="M403.2253,-71.7695C397.3897,-65.9909 390.3835,-60.0574 383,-56 347.5695,-36.5302 301.96,-26.8195 270.3823,-22.1223"/>
<polygon fill="#000000" stroke="#000000" points="270.6327,-18.6235 260.2463,-20.7146 269.6697,-25.557 270.6327,-18.6235"/>
<g id="a_edge1&#45;headlabel"><a xlink:href="dir_000031_000000.html" target="_top" xlink:title="6">
<text text-anchor="middle" x="274.5836" y="-13.8056" font-family="Helvetica,sans-Serif" font-size="10.00" fill="#000000">6</text>
</a>
</g>
</g>
<!-- dir_59100328d2370279ba94bc83fb98fc4f -->
<g id="node3" class="node">
<title>dir_59100328d2370279ba94bc83fb98fc4f</title>
<g id="a_node3"><a xlink:href="dir_59100328d2370279ba94bc83fb98fc4f.html" target="_top" xlink:title="Graphics">
<polygon fill="#ffffff" stroke="#ff0000" points="374,-108 314,-108 314,-72 374,-72 374,-108"/>
<text text-anchor="middle" x="344" y="-87.5" font-family="Helvetica,sans-Serif" font-size="10.00" fill="#000000">Graphics</text>
</a>
</g>
</g>
<!-- dir_59100328d2370279ba94bc83fb98fc4f&#45;&gt;dir_d44c64559bbebec7f509842c48db8b23 -->
<g id="edge2" class="edge">
<title>dir_59100328d2370279ba94bc83fb98fc4f&#45;&gt;dir_d44c64559bbebec7f509842c48db8b23</title>
<path fill="none" stroke="#000000" d="M324.8803,-71.7733C318.7678,-66.3812 311.8144,-60.6752 305,-56 293.8723,-48.3656 281.03,-41.1402 269.2998,-35.0805"/>
<polygon fill="#000000" stroke="#000000" points="270.69,-31.8618 260.1849,-30.4852 267.5387,-38.1123 270.69,-31.8618"/>
<g id="a_edge2&#45;headlabel"><a xlink:href="dir_000032_000000.html" target="_top" xlink:title="372">
<text text-anchor="middle" x="275.1779" y="-28.4446" font-family="Helvetica,sans-Serif" font-size="10.00" fill="#000000">372</text>
</a>
</g>
</g>
<!-- dir_111fa723b77c3b53ee3fccf974850ad5 -->
<g id="node4" class="node">
<title>dir_111fa723b77c3b53ee3fccf974850ad5</title>
<g id="a_node4"><a xlink:href="dir_111fa723b77c3b53ee3fccf974850ad5.html" target="_top" xlink:title="Main">
<polygon fill="#ffffff" stroke="#000000" points="296,-108 242,-108 242,-72 296,-72 296,-108"/>
<text text-anchor="middle" x="269" y="-87.5" font-family="Helvetica,sans-Serif" font-size="10.00" fill="#000000">Main</text>
</a>
</g>
</g>
<!-- dir_111fa723b77c3b53ee3fccf974850ad5&#45;&gt;dir_d44c64559bbebec7f509842c48db8b23 -->
<g id="edge3" class="edge">
<title>dir_111fa723b77c3b53ee3fccf974850ad5&#45;&gt;dir_d44c64559bbebec7f509842c48db8b23</title>
<path fill="none" stroke="#000000" d="M259.9157,-71.8314C255.9385,-63.8771 251.1845,-54.369 246.7861,-45.5723"/>
<polygon fill="#000000" stroke="#000000" points="249.8093,-43.7923 242.2066,-36.4133 243.5483,-46.9228 249.8093,-43.7923"/>
<g id="a_edge3&#45;headlabel"><a xlink:href="dir_000050_000000.html" target="_top" xlink:title="1">
<text text-anchor="middle" x="253.9563" y="-43.2377" font-family="Helvetica,sans-Serif" font-size="10.00" fill="#000000">1</text>
</a>
</g>
</g>
<!-- dir_482ac9d898290812c1353ce6a1c6b548 -->
<g id="node5" class="node">
<title>dir_482ac9d898290812c1353ce6a1c6b548</title>
<g id="a_node5"><a xlink:href="dir_482ac9d898290812c1353ce6a1c6b548.html" target="_top" xlink:title="Math">
<polygon fill="#ffffff" stroke="#000000" points="224,-108 170,-108 170,-72 224,-72 224,-108"/>
<text text-anchor="middle" x="197" y="-87.5" font-family="Helvetica,sans-Serif" font-size="10.00" fill="#000000">Math</text>
</a>
</g>
</g>
<!-- dir_482ac9d898290812c1353ce6a1c6b548&#45;&gt;dir_d44c64559bbebec7f509842c48db8b23 -->
<g id="edge4" class="edge">
<title>dir_482ac9d898290812c1353ce6a1c6b548&#45;&gt;dir_d44c64559bbebec7f509842c48db8b23</title>
<path fill="none" stroke="#000000" d="M206.0843,-71.8314C210.0615,-63.8771 214.8155,-54.369 219.2139,-45.5723"/>
<polygon fill="#000000" stroke="#000000" points="222.4517,-46.9228 223.7934,-36.4133 216.1907,-43.7923 222.4517,-46.9228"/>
<g id="a_edge4&#45;headlabel"><a xlink:href="dir_000051_000000.html" target="_top" xlink:title="3">
<text text-anchor="middle" x="223.3837" y="-48.9077" font-family="Helvetica,sans-Serif" font-size="10.00" fill="#000000">3</text>
</a>
</g>
</g>
<!-- dir_26b78d53927eff45ef60a6d46f6a7e9c -->
<g id="node6" class="node">
<title>dir_26b78d53927eff45ef60a6d46f6a7e9c</title>
<g id="a_node6"><a xlink:href="dir_26b78d53927eff45ef60a6d46f6a7e9c.html" target="_top" xlink:title="System">
<polygon fill="#ffffff" stroke="#ff0000" points="152,-108 98,-108 98,-72 152,-72 152,-108"/>
<text text-anchor="middle" x="125" y="-87.5" font-family="Helvetica,sans-Serif" font-size="10.00" fill="#000000">System</text>
</a>
</g>
</g>
<!-- dir_26b78d53927eff45ef60a6d46f6a7e9c&#45;&gt;dir_d44c64559bbebec7f509842c48db8b23 -->
<g id="edge5" class="edge">
<title>dir_26b78d53927eff45ef60a6d46f6a7e9c&#45;&gt;dir_d44c64559bbebec7f509842c48db8b23</title>
<path fill="none" stroke="#000000" d="M142.4752,-71.6849C148.1104,-66.2892 154.5686,-60.6034 161,-56 172.0642,-48.0807 184.9883,-40.7439 196.8092,-34.6714"/>
<polygon fill="#000000" stroke="#000000" points="198.6121,-37.6833 205.9961,-30.0854 195.4856,-31.4203 198.6121,-37.6833"/>
<g id="a_edge5&#45;headlabel"><a xlink:href="dir_000052_000000.html" target="_top" xlink:title="26">
<text text-anchor="middle" x="196.664" y="-39.3291" font-family="Helvetica,sans-Serif" font-size="10.00" fill="#000000">26</text>
</a>
</g>
</g>
<!-- dir_71c5a6f7aaaae38d651920df63f27495 -->
<g id="node7" class="node">
<title>dir_71c5a6f7aaaae38d651920df63f27495</title>
<g id="a_node7"><a xlink:href="dir_71c5a6f7aaaae38d651920df63f27495.html" target="_top" xlink:title="Window">
<polygon fill="#ffffff" stroke="#ff0000" points="80,-108 24,-108 24,-72 80,-72 80,-108"/>
<text text-anchor="middle" x="52" y="-87.5" font-family="Helvetica,sans-Serif" font-size="10.00" fill="#000000">Window</text>
</a>
</g>
</g>
<!-- dir_71c5a6f7aaaae38d651920df63f27495&#45;&gt;dir_d44c64559bbebec7f509842c48db8b23 -->
<g id="edge6" class="edge">
<title>dir_71c5a6f7aaaae38d651920df63f27495&#45;&gt;dir_d44c64559bbebec7f509842c48db8b23</title>
<path fill="none" stroke="#000000" d="M68.3137,-71.8219C74.3196,-66.0474 81.4996,-60.1032 89,-56 122.5815,-37.6287 165.4807,-27.7972 195.6901,-22.7724"/>
<polygon fill="#000000" stroke="#000000" points="196.4713,-26.1929 205.8102,-21.1894 195.3894,-19.277 196.4713,-26.1929"/>
<g id="a_edge6&#45;headlabel"><a xlink:href="dir_000048_000000.html" target="_top" xlink:title="11">
<text text-anchor="middle" x="193.3586" y="-27.0535" font-family="Helvetica,sans-Serif" font-size="10.00" fill="#000000">11</text>
</a>
</g>
</g>
</g>
</svg>
