<?xml version="1.0" encoding="UTF-8" standalone="no"?>
<!DOCTYPE svg PUBLIC "-//W3C//DTD SVG 1.1//EN"
 "http://www.w3.org/Graphics/SVG/1.1/DTD/svg11.dtd">
<!-- Generated by graphviz version 2.40.1 (20161225.0304)
 -->
<!-- Title: include/lug/Graphics/Vulkan/Render/Technique Pages: 1 -->
<svg width="161pt" height="223pt"
 viewBox="0.00 0.00 161.00 223.00" xmlns="http://www.w3.org/2000/svg" xmlns:xlink="http://www.w3.org/1999/xlink">
<g id="graph0" class="graph" transform="scale(1 1) rotate(0) translate(4 219)">
<title>include/lug/Graphics/Vulkan/Render/Technique</title>
<g id="clust1" class="cluster">
<title>clusterdir_04d0c208589a8c9fd2d0e9ff4453ced6</title>
<g id="a_clust1"><a xlink:href="dir_04d0c208589a8c9fd2d0e9ff4453ced6.html" target="_top" xlink:title="Render">
<polygon fill="#ddddee" stroke="#000000" points="57,-136 57,-207 141,-207 141,-136 57,-136"/>
<text text-anchor="middle" x="99" y="-195" font-family="Helvetica,sans-Serif" font-size="10.00" fill="#000000">Render</text>
</a>
</g>
</g>
<!-- dir_8199ba459dabd86786baa87823a3bac8 -->
<g id="node1" class="node">
<title>dir_8199ba459dabd86786baa87823a3bac8</title>
<g id="a_node1"><a xlink:href="dir_8199ba459dabd86786baa87823a3bac8.html" target="_top" xlink:title="Technique">
<polygon fill="#eeeeff" stroke="#000000" points="132.5,-180 65.5,-180 65.5,-144 132.5,-144 132.5,-180"/>
<text text-anchor="middle" x="99" y="-159.5" font-family="Helvetica,sans-Serif" font-size="10.00" fill="#000000">Technique</text>
</a>
</g>
</g>
<!-- dir_a5d1627081a6f447c6539454aad85447 -->
<g id="node2" class="node">
<title>dir_a5d1627081a6f447c6539454aad85447</title>
<g id="a_node2"><a xlink:href="dir_a5d1627081a6f447c6539454aad85447.html" target="_top" xlink:title="Light">
<polygon fill="none" stroke="#000000" points="54,-108 0,-108 0,-72 54,-72 54,-108"/>
<text text-anchor="middle" x="27" y="-87.5" font-family="Helvetica,sans-Serif" font-size="10.00" fill="#000000">Light</text>
</a>
</g>
</g>
<!-- dir_8199ba459dabd86786baa87823a3bac8&#45;&gt;dir_a5d1627081a6f447c6539454aad85447 -->
<g id="edge1" class="edge">
<title>dir_8199ba459dabd86786baa87823a3bac8&#45;&gt;dir_a5d1627081a6f447c6539454aad85447</title>
<path fill="none" stroke="#000000" d="M80.8314,-143.8314C72.2848,-135.2848 61.9443,-124.9443 52.6198,-115.6198"/>
<polygon fill="#000000" stroke="#000000" points="54.9592,-113.0095 45.4133,-108.4133 50.0095,-117.9592 54.9592,-113.0095"/>
<g id="a_edge1&#45;headlabel"><a xlink:href="dir_000015_000007.html" target="_top" xlink:title="1">
<text text-anchor="middle" x="59.5087" y="-111.0436" font-family="Helvetica,sans-Serif" font-size="10.00" fill="#000000">1</text>
</a>
</g>
</g>
<!-- dir_0074de55169a32d51621afef63e52605 -->
<g id="node3" class="node">
<title>dir_0074de55169a32d51621afef63e52605</title>
<g id="a_node3"><a xlink:href="dir_0074de55169a32d51621afef63e52605.html" target="_top" xlink:title="API">
<polygon fill="none" stroke="#ff0000" points="126,-108 72,-108 72,-72 126,-72 126,-108"/>
<text text-anchor="middle" x="99" y="-87.5" font-family="Helvetica,sans-Serif" font-size="10.00" fill="#000000">API</text>
</a>
</g>
</g>
<!-- dir_8199ba459dabd86786baa87823a3bac8&#45;&gt;dir_0074de55169a32d51621afef63e52605 -->
<g id="edge2" class="edge">
<title>dir_8199ba459dabd86786baa87823a3bac8&#45;&gt;dir_0074de55169a32d51621afef63e52605</title>
<path fill="none" stroke="#000000" d="M99,-143.8314C99,-136.131 99,-126.9743 99,-118.4166"/>
<polygon fill="#000000" stroke="#000000" points="102.5001,-118.4132 99,-108.4133 95.5001,-118.4133 102.5001,-118.4132"/>
<g id="a_edge2&#45;headlabel"><a xlink:href="dir_000015_000012.html" target="_top" xlink:title="14">
<text text-anchor="middle" x="105.3393" y="-119.5079" font-family="Helvetica,sans-Serif" font-size="10.00" fill="#000000">14</text>
</a>
</g>
</g>
<!-- dir_f44858ad8592ab932b3454b04c24a188 -->
<g id="node4" class="node">
<title>dir_f44858ad8592ab932b3454b04c24a188</title>
<g id="a_node4"><a xlink:href="dir_f44858ad8592ab932b3454b04c24a188.html" target="_top" xlink:title="System">
<polygon fill="none" stroke="#ff0000" points="153,-36 99,-36 99,0 153,0 153,-36"/>
<text text-anchor="middle" x="126" y="-15.5" font-family="Helvetica,sans-Serif" font-size="10.00" fill="#000000">System</text>
</a>
</g>
</g>
<!-- dir_8199ba459dabd86786baa87823a3bac8&#45;&gt;dir_f44858ad8592ab932b3454b04c24a188 -->
<g id="edge3" class="edge">
<title>dir_8199ba459dabd86786baa87823a3bac8&#45;&gt;dir_f44858ad8592ab932b3454b04c24a188</title>
<path fill="none" stroke="#000000" d="M114.9905,-143.9169C122.6538,-134.0371 131.0166,-121.1563 135,-108 141.0862,-87.8985 138.3561,-64.2346 134.3608,-46.2178"/>
<polygon fill="#000000" stroke="#000000" points="137.7149,-45.201 131.9192,-36.3319 130.9191,-46.8794 137.7149,-45.201"/>
<g id="a_edge3&#45;headlabel"><a xlink:href="dir_000015_000005.html" target="_top" xlink:title="1">
<text text-anchor="middle" x="141.3331" y="-45.51" font-family="Helvetica,sans-Serif" font-size="10.00" fill="#000000">1</text>
</a>
</g>
</g>
<!-- dir_0074de55169a32d51621afef63e52605&#45;&gt;dir_f44858ad8592ab932b3454b04c24a188 -->
<g id="edge4" class="edge">
<title>dir_0074de55169a32d51621afef63e52605&#45;&gt;dir_f44858ad8592ab932b3454b04c24a188</title>
<path fill="none" stroke="#000000" d="M105.8132,-71.8314C108.7644,-63.9617 112.2858,-54.5712 115.555,-45.8533"/>
<polygon fill="#000000" stroke="#000000" points="118.8609,-47.0055 119.095,-36.4133 112.3066,-44.5476 118.8609,-47.0055"/>
<g id="a_edge4&#45;headlabel"><a xlink:href="dir_000012_000005.html" target="_top" xlink:title="1">
<text text-anchor="middle" x="120.2573" y="-48.8682" font-family="Helvetica,sans-Serif" font-size="10.00" fill="#000000">1</text>
</a>
</g>
</g>
</g>
</svg>
