<?xml version="1.0" encoding="UTF-8" standalone="no"?>
<!DOCTYPE svg PUBLIC "-//W3C//DTD SVG 1.1//EN"
 "http://www.w3.org/Graphics/SVG/1.1/DTD/svg11.dtd">
<!-- Generated by graphviz version 2.40.1 (20161225.0304)
 -->
<!-- Title: include/lug/Core Pages: 1 -->
<svg width="202pt" height="367pt"
 viewBox="0.00 0.00 201.93 367.00" xmlns="http://www.w3.org/2000/svg" xmlns:xlink="http://www.w3.org/1999/xlink">
<g id="graph0" class="graph" transform="scale(1 1) rotate(0) translate(4 363)">
<title>include/lug/Core</title>
<g id="clust1" class="cluster">
<title>clusterdir_97ca62288c38873332c455638a8da9db</title>
<g id="a_clust1"><a xlink:href="dir_97ca62288c38873332c455638a8da9db.html" target="_top" xlink:title="lug">
<polygon fill="#ddddee" stroke="#000000" points="45.934,-280 45.934,-351 115.934,-351 115.934,-280 45.934,-280"/>
<text text-anchor="middle" x="80.934" y="-339" font-family="Helvetica,sans-Serif" font-size="10.00" fill="#000000">lug</text>
</a>
</g>
</g>
<!-- dir_39dbb894624796a4d4aca810dc76203c -->
<g id="node1" class="node">
<title>dir_39dbb894624796a4d4aca810dc76203c</title>
<g id="a_node1"><a xlink:href="dir_39dbb894624796a4d4aca810dc76203c.html" target="_top" xlink:title="Core">
<polygon fill="#eeeeff" stroke="#000000" points="107.934,-324 53.934,-324 53.934,-288 107.934,-288 107.934,-324"/>
<text text-anchor="middle" x="80.934" y="-303.5" font-family="Helvetica,sans-Serif" font-size="10.00" fill="#000000">Core</text>
</a>
</g>
</g>
<!-- dir_f413c8fdc27a5e3c3c68bd86b71b3c66 -->
<g id="node2" class="node">
<title>dir_f413c8fdc27a5e3c3c68bd86b71b3c66</title>
<g id="a_node2"><a xlink:href="dir_f413c8fdc27a5e3c3c68bd86b71b3c66.html" target="_top" xlink:title="Math">
<polygon fill="none" stroke="#ff0000" points="125.934,-108 71.934,-108 71.934,-72 125.934,-72 125.934,-108"/>
<text text-anchor="middle" x="98.934" y="-87.5" font-family="Helvetica,sans-Serif" font-size="10.00" fill="#000000">Math</text>
</a>
</g>
</g>
<!-- dir_39dbb894624796a4d4aca810dc76203c&#45;&gt;dir_f413c8fdc27a5e3c3c68bd86b71b3c66 -->
<g id="edge2" class="edge">
<title>dir_39dbb894624796a4d4aca810dc76203c&#45;&gt;dir_f413c8fdc27a5e3c3c68bd86b71b3c66</title>
<path fill="none" stroke="#000000" d="M84.9734,-287.5983C87.0966,-277.2002 89.5409,-263.9323 90.934,-252 96.391,-205.2607 98.1325,-150.5117 98.684,-118.1261"/>
<polygon fill="#000000" stroke="#000000" points="102.1847,-118.0937 98.8291,-108.0443 95.1855,-117.9929 102.1847,-118.0937"/>
<g id="a_edge2&#45;headlabel"><a xlink:href="dir_000002_000004.html" target="_top" xlink:title="1">
<text text-anchor="middle" x="104.9721" y="-119.2288" font-family="Helvetica,sans-Serif" font-size="10.00" fill="#000000">1</text>
</a>
</g>
</g>
<!-- dir_70fe5ef1b2e73aa8ccf5892106012c3f -->
<g id="node3" class="node">
<title>dir_70fe5ef1b2e73aa8ccf5892106012c3f</title>
<g id="a_node3"><a xlink:href="dir_70fe5ef1b2e73aa8ccf5892106012c3f.html" target="_top" xlink:title="Window">
<polygon fill="none" stroke="#ff0000" points="193.934,-180 137.934,-180 137.934,-144 193.934,-144 193.934,-180"/>
<text text-anchor="middle" x="165.934" y="-159.5" font-family="Helvetica,sans-Serif" font-size="10.00" fill="#000000">Window</text>
</a>
</g>
</g>
<!-- dir_39dbb894624796a4d4aca810dc76203c&#45;&gt;dir_70fe5ef1b2e73aa8ccf5892106012c3f -->
<g id="edge3" class="edge">
<title>dir_39dbb894624796a4d4aca810dc76203c&#45;&gt;dir_70fe5ef1b2e73aa8ccf5892106012c3f</title>
<path fill="none" stroke="#000000" d="M97.2003,-287.8113C105.7759,-277.6976 116.1091,-264.6334 123.934,-252 136.2677,-232.0872 147.3382,-207.9654 155.0132,-189.7085"/>
<polygon fill="#000000" stroke="#000000" points="158.3436,-190.8126 158.9142,-180.2332 151.8707,-188.1477 158.3436,-190.8126"/>
<g id="a_edge3&#45;headlabel"><a xlink:href="dir_000002_000006.html" target="_top" xlink:title="1">
<text text-anchor="middle" x="159.6007" y="-192.7175" font-family="Helvetica,sans-Serif" font-size="10.00" fill="#000000">1</text>
</a>
</g>
</g>
<!-- dir_8febab45017bc485d0434a8948e4f10f -->
<g id="node4" class="node">
<title>dir_8febab45017bc485d0434a8948e4f10f</title>
<g id="a_node4"><a xlink:href="dir_8febab45017bc485d0434a8948e4f10f.html" target="_top" xlink:title="Graphics">
<polygon fill="none" stroke="#ff0000" points="81.934,-252 21.934,-252 21.934,-216 81.934,-216 81.934,-252"/>
<text text-anchor="middle" x="51.934" y="-231.5" font-family="Helvetica,sans-Serif" font-size="10.00" fill="#000000">Graphics</text>
</a>
</g>
</g>
<!-- dir_39dbb894624796a4d4aca810dc76203c&#45;&gt;dir_8febab45017bc485d0434a8948e4f10f -->
<g id="edge4" class="edge">
<title>dir_39dbb894624796a4d4aca810dc76203c&#45;&gt;dir_8febab45017bc485d0434a8948e4f10f</title>
<path fill="none" stroke="#000000" d="M73.6161,-287.8314C70.4464,-279.9617 66.6641,-270.5712 63.1527,-261.8533"/>
<polygon fill="#000000" stroke="#000000" points="66.3332,-260.3815 59.3505,-252.4133 59.8401,-262.9968 66.3332,-260.3815"/>
<g id="a_edge4&#45;headlabel"><a xlink:href="dir_000002_000003.html" target="_top" xlink:title="3">
<text text-anchor="middle" x="70.3098" y="-260.155" font-family="Helvetica,sans-Serif" font-size="10.00" fill="#000000">3</text>
</a>
</g>
</g>
<!-- dir_f44858ad8592ab932b3454b04c24a188 -->
<g id="node5" class="node">
<title>dir_f44858ad8592ab932b3454b04c24a188</title>
<g id="a_node5"><a xlink:href="dir_f44858ad8592ab932b3454b04c24a188.html" target="_top" xlink:title="System">
<polygon fill="none" stroke="#ff0000" points="87.934,-36 33.934,-36 33.934,0 87.934,0 87.934,-36"/>
<text text-anchor="middle" x="60.934" y="-15.5" font-family="Helvetica,sans-Serif" font-size="10.00" fill="#000000">System</text>
</a>
</g>
</g>
<!-- dir_39dbb894624796a4d4aca810dc76203c&#45;&gt;dir_f44858ad8592ab932b3454b04c24a188 -->
<g id="edge5" class="edge">
<title>dir_39dbb894624796a4d4aca810dc76203c&#45;&gt;dir_f44858ad8592ab932b3454b04c24a188</title>
<path fill="none" stroke="#000000" d="M53.9236,-292.4585C38.8576,-283.2976 21.4553,-269.6482 12.934,-252 -20.6508,-182.4433 20.041,-90.2362 44.7072,-45.1552"/>
<polygon fill="#000000" stroke="#000000" points="47.849,-46.7086 49.695,-36.2759 41.746,-43.2804 47.849,-46.7086"/>
<g id="a_edge5&#45;headlabel"><a xlink:href="dir_000002_000005.html" target="_top" xlink:title="2">
<text text-anchor="middle" x="48.5641" y="-48.7332" font-family="Helvetica,sans-Serif" font-size="10.00" fill="#000000">2</text>
</a>
</g>
</g>
<!-- dir_f413c8fdc27a5e3c3c68bd86b71b3c66&#45;&gt;dir_f44858ad8592ab932b3454b04c24a188 -->
<g id="edge1" class="edge">
<title>dir_f413c8fdc27a5e3c3c68bd86b71b3c66&#45;&gt;dir_f44858ad8592ab932b3454b04c24a188</title>
<path fill="none" stroke="#000000" d="M89.345,-71.8314C85.1023,-63.7925 80.0219,-54.1666 75.338,-45.2918"/>
<polygon fill="#000000" stroke="#000000" points="78.4151,-43.6235 70.6521,-36.4133 72.2244,-46.8908 78.4151,-43.6235"/>
<g id="a_edge1&#45;headlabel"><a xlink:href="dir_000004_000005.html" target="_top" xlink:title="1">
<text text-anchor="middle" x="82.6039" y="-42.9772" font-family="Helvetica,sans-Serif" font-size="10.00" fill="#000000">1</text>
</a>
</g>
</g>
<!-- dir_70fe5ef1b2e73aa8ccf5892106012c3f&#45;&gt;dir_f413c8fdc27a5e3c3c68bd86b71b3c66 -->
<g id="edge6" class="edge">
<title>dir_70fe5ef1b2e73aa8ccf5892106012c3f&#45;&gt;dir_f413c8fdc27a5e3c3c68bd86b71b3c66</title>
<path fill="none" stroke="#000000" d="M149.0271,-143.8314C141.1527,-135.3694 131.642,-125.1489 123.0327,-115.8971"/>
<polygon fill="#000000" stroke="#000000" points="125.4432,-113.3497 116.0686,-108.4133 120.3187,-118.1183 125.4432,-113.3497"/>
<g id="a_edge6&#45;headlabel"><a xlink:href="dir_000006_000004.html" target="_top" xlink:title="4">
<text text-anchor="middle" x="129.9704" y="-111.547" font-family="Helvetica,sans-Serif" font-size="10.00" fill="#000000">4</text>
</a>
</g>
</g>
<!-- dir_70fe5ef1b2e73aa8ccf5892106012c3f&#45;&gt;dir_f44858ad8592ab932b3454b04c24a188 -->
<g id="edge7" class="edge">
<title>dir_70fe5ef1b2e73aa8ccf5892106012c3f&#45;&gt;dir_f44858ad8592ab932b3454b04c24a188</title>
<path fill="none" stroke="#000000" d="M163.0385,-143.9312C159.228,-124.6066 151.0336,-93.8025 134.934,-72 124.8591,-58.3564 110.337,-46.7093 96.821,-37.7628"/>
<polygon fill="#000000" stroke="#000000" points="98.4649,-34.6614 88.1412,-32.2799 94.7264,-40.5796 98.4649,-34.6614"/>
<g id="a_edge7&#45;headlabel"><a xlink:href="dir_000006_000005.html" target="_top" xlink:title="1">
<text text-anchor="middle" x="103.0203" y="-31.6807" font-family="Helvetica,sans-Serif" font-size="10.00" fill="#000000">1</text>
</a>
</g>
</g>
<!-- dir_8febab45017bc485d0434a8948e4f10f&#45;&gt;dir_f413c8fdc27a5e3c3c68bd86b71b3c66 -->
<g id="edge8" class="edge">
<title>dir_8febab45017bc485d0434a8948e4f10f&#45;&gt;dir_f413c8fdc27a5e3c3c68bd86b71b3c66</title>
<path fill="none" stroke="#000000" d="M57.8866,-215.7623C65.9384,-191.0928 80.3756,-146.8598 89.8039,-117.9731"/>
<polygon fill="#000000" stroke="#000000" points="93.2542,-118.6821 93.0298,-108.0896 86.5996,-116.5101 93.2542,-118.6821"/>
<g id="a_edge8&#45;headlabel"><a xlink:href="dir_000003_000004.html" target="_top" xlink:title="12">
<text text-anchor="middle" x="94.838" y="-120.4802" font-family="Helvetica,sans-Serif" font-size="10.00" fill="#000000">12</text>
</a>
</g>
</g>
<!-- dir_8febab45017bc485d0434a8948e4f10f&#45;&gt;dir_70fe5ef1b2e73aa8ccf5892106012c3f -->
<g id="edge9" class="edge">
<title>dir_8febab45017bc485d0434a8948e4f10f&#45;&gt;dir_70fe5ef1b2e73aa8ccf5892106012c3f</title>
<path fill="none" stroke="#000000" d="M80.701,-215.8314C95.2576,-206.6377 113.1007,-195.3684 128.6927,-185.5208"/>
<polygon fill="#000000" stroke="#000000" points="130.9852,-188.2126 137.5711,-179.9134 127.2472,-182.2942 130.9852,-188.2126"/>
<g id="a_edge9&#45;headlabel"><a xlink:href="dir_000003_000006.html" target="_top" xlink:title="1">
<text text-anchor="middle" x="129.4621" y="-190.0326" font-family="Helvetica,sans-Serif" font-size="10.00" fill="#000000">1</text>
</a>
</g>
</g>
<!-- dir_8febab45017bc485d0434a8948e4f10f&#45;&gt;dir_f44858ad8592ab932b3454b04c24a188 -->
<g id="edge10" class="edge">
<title>dir_8febab45017bc485d0434a8948e4f10f&#45;&gt;dir_f44858ad8592ab932b3454b04c24a188</title>
<path fill="none" stroke="#000000" d="M52.6859,-215.9555C54.2509,-178.3938 57.8693,-91.5541 59.7502,-46.4103"/>
<polygon fill="#000000" stroke="#000000" points="63.2585,-46.2821 60.178,-36.1451 56.2646,-45.9907 63.2585,-46.2821"/>
<g id="a_edge10&#45;headlabel"><a xlink:href="dir_000003_000005.html" target="_top" xlink:title="5">
<text text-anchor="middle" x="65.9458" y="-47.4918" font-family="Helvetica,sans-Serif" font-size="10.00" fill="#000000">5</text>
</a>
</g>
</g>
</g>
</svg>
