<?xml version="1.0" encoding="UTF-8" standalone="no"?>
<!DOCTYPE svg PUBLIC "-//W3C//DTD SVG 1.1//EN"
 "http://www.w3.org/Graphics/SVG/1.1/DTD/svg11.dtd">
<!-- Generated by graphviz version 2.40.1 (20161225.0304)
 -->
<!-- Title: include/lug Pages: 1 -->
<svg width="192pt" height="399pt"
 viewBox="0.00 0.00 192.00 399.00" xmlns="http://www.w3.org/2000/svg" xmlns:xlink="http://www.w3.org/1999/xlink">
<g id="graph0" class="graph" transform="scale(1 1) rotate(0) translate(4 395)">
<title>include/lug</title>
<g id="clust1" class="cluster">
<title>clusterdir_d44c64559bbebec7f509842c48db8b23</title>
<g id="a_clust1"><a xlink:href="dir_d44c64559bbebec7f509842c48db8b23.html" target="_top" xlink:title="include">
<polygon fill="#ddddee" stroke="#000000" points="8,-8 8,-383 176,-383 176,-8 8,-8"/>
<text text-anchor="middle" x="92" y="-371" font-family="Helvetica,sans-Serif" font-size="10.00" fill="#000000">include</text>
</a>
</g>
</g>
<g id="clust2" class="cluster">
<title>clusterdir_97ca62288c38873332c455638a8da9db</title>
<g id="a_clust2"><a xlink:href="dir_97ca62288c38873332c455638a8da9db.html" target="_top">
<polygon fill="#eeeeff" stroke="#000000" points="16,-16 16,-356 168,-356 168,-16 16,-16"/>
</a>
</g>
</g>
<!-- dir_97ca62288c38873332c455638a8da9db -->
<g id="node1" class="node">
<title>dir_97ca62288c38873332c455638a8da9db</title>
<text text-anchor="middle" x="133" y="-327.5" font-family="Helvetica,sans-Serif" font-size="10.00" fill="#000000">lug</text>
</g>
<!-- dir_39dbb894624796a4d4aca810dc76203c -->
<g id="node2" class="node">
<title>dir_39dbb894624796a4d4aca810dc76203c</title>
<g id="a_node2"><a xlink:href="dir_39dbb894624796a4d4aca810dc76203c.html" target="_top" xlink:title="Core">
<polygon fill="#ffffff" stroke="#000000" points="88,-348 34,-348 34,-312 88,-312 88,-348"/>
<text text-anchor="middle" x="61" y="-327.5" font-family="Helvetica,sans-Serif" font-size="10.00" fill="#000000">Core</text>
</a>
</g>
</g>
<!-- dir_8febab45017bc485d0434a8948e4f10f -->
<g id="node3" class="node">
<title>dir_8febab45017bc485d0434a8948e4f10f</title>
<g id="a_node3"><a xlink:href="dir_8febab45017bc485d0434a8948e4f10f.html" target="_top" xlink:title="Graphics">
<polygon fill="#ffffff" stroke="#ff0000" points="84,-276 24,-276 24,-240 84,-240 84,-276"/>
<text text-anchor="middle" x="54" y="-255.5" font-family="Helvetica,sans-Serif" font-size="10.00" fill="#000000">Graphics</text>
</a>
</g>
</g>
<!-- dir_39dbb894624796a4d4aca810dc76203c&#45;&gt;dir_8febab45017bc485d0434a8948e4f10f -->
<g id="edge4" class="edge">
<title>dir_39dbb894624796a4d4aca810dc76203c&#45;&gt;dir_8febab45017bc485d0434a8948e4f10f</title>
<path fill="none" stroke="#000000" d="M53.2812,-311.8314C51.7821,-304.131 50.671,-294.9743 50.1476,-286.4166"/>
<polygon fill="#000000" stroke="#000000" points="53.6455,-286.2911 49.8142,-276.4133 46.6494,-286.5244 53.6455,-286.2911"/>
<g id="a_edge4&#45;headlabel"><a xlink:href="dir_000002_000003.html" target="_top" xlink:title="3">
<text text-anchor="middle" x="56.6029" y="-287.2891" font-family="Helvetica,sans-Serif" font-size="10.00" fill="#000000">3</text>
</a>
</g>
</g>
<!-- dir_f413c8fdc27a5e3c3c68bd86b71b3c66 -->
<g id="node4" class="node">
<title>dir_f413c8fdc27a5e3c3c68bd86b71b3c66</title>
<g id="a_node4"><a xlink:href="dir_f413c8fdc27a5e3c3c68bd86b71b3c66.html" target="_top" xlink:title="Math">
<polygon fill="#ffffff" stroke="#ff0000" points="98,-132 44,-132 44,-96 98,-96 98,-132"/>
<text text-anchor="middle" x="71" y="-111.5" font-family="Helvetica,sans-Serif" font-size="10.00" fill="#000000">Math</text>
</a>
</g>
</g>
<!-- dir_39dbb894624796a4d4aca810dc76203c&#45;&gt;dir_f413c8fdc27a5e3c3c68bd86b71b3c66 -->
<g id="edge2" class="edge">
<title>dir_39dbb894624796a4d4aca810dc76203c&#45;&gt;dir_f413c8fdc27a5e3c3c68bd86b71b3c66</title>
<path fill="none" stroke="#000000" d="M75.2359,-311.6423C82.0539,-301.6872 89.4862,-288.8222 93,-276 97.2288,-260.5689 96.676,-255.572 93,-240 88.8901,-222.59 79.4955,-221.3144 75,-204 69.7674,-183.8469 68.8953,-160.316 69.2635,-142.3701"/>
<polygon fill="#000000" stroke="#000000" points="72.7654,-142.3729 69.6125,-132.2581 65.7696,-142.1314 72.7654,-142.3729"/>
<g id="a_edge2&#45;headlabel"><a xlink:href="dir_000002_000004.html" target="_top" xlink:title="1">
<text text-anchor="middle" x="75.4791" y="-143.5633" font-family="Helvetica,sans-Serif" font-size="10.00" fill="#000000">1</text>
</a>
</g>
</g>
<!-- dir_f44858ad8592ab932b3454b04c24a188 -->
<g id="node5" class="node">
<title>dir_f44858ad8592ab932b3454b04c24a188</title>
<g id="a_node5"><a xlink:href="dir_f44858ad8592ab932b3454b04c24a188.html" target="_top" xlink:title="System">
<polygon fill="#ffffff" stroke="#ff0000" points="121,-60 67,-60 67,-24 121,-24 121,-60"/>
<text text-anchor="middle" x="94" y="-39.5" font-family="Helvetica,sans-Serif" font-size="10.00" fill="#000000">System</text>
</a>
</g>
</g>
<!-- dir_39dbb894624796a4d4aca810dc76203c&#45;&gt;dir_f44858ad8592ab932b3454b04c24a188 -->
<g id="edge5" class="edge">
<title>dir_39dbb894624796a4d4aca810dc76203c&#45;&gt;dir_f44858ad8592ab932b3454b04c24a188</title>
<path fill="none" stroke="#000000" d="M82.9912,-311.8426C93.8995,-302.0399 106.6956,-289.2514 116,-276 136.228,-247.1913 141.494,-238.3914 149,-204 159.664,-155.1388 132.5064,-100.4699 112.6667,-68.7709"/>
<polygon fill="#000000" stroke="#000000" points="115.4179,-66.5797 107.0488,-60.0828 109.5397,-70.3807 115.4179,-66.5797"/>
<g id="a_edge5&#45;headlabel"><a xlink:href="dir_000002_000005.html" target="_top" xlink:title="2">
<text text-anchor="middle" x="119.7539" y="-65.5565" font-family="Helvetica,sans-Serif" font-size="10.00" fill="#000000">2</text>
</a>
</g>
</g>
<!-- dir_70fe5ef1b2e73aa8ccf5892106012c3f -->
<g id="node6" class="node">
<title>dir_70fe5ef1b2e73aa8ccf5892106012c3f</title>
<g id="a_node6"><a xlink:href="dir_70fe5ef1b2e73aa8ccf5892106012c3f.html" target="_top" xlink:title="Window">
<polygon fill="#ffffff" stroke="#ff0000" points="140,-204 84,-204 84,-168 140,-168 140,-204"/>
<text text-anchor="middle" x="112" y="-183.5" font-family="Helvetica,sans-Serif" font-size="10.00" fill="#000000">Window</text>
</a>
</g>
</g>
<!-- dir_39dbb894624796a4d4aca810dc76203c&#45;&gt;dir_70fe5ef1b2e73aa8ccf5892106012c3f -->
<g id="edge3" class="edge">
<title>dir_39dbb894624796a4d4aca810dc76203c&#45;&gt;dir_70fe5ef1b2e73aa8ccf5892106012c3f</title>
<path fill="none" stroke="#000000" d="M82.5024,-311.714C92.1448,-302.1549 102.5559,-289.618 108,-276 115.8138,-256.4542 116.5173,-232.5849 115.4271,-214.3404"/>
<polygon fill="#000000" stroke="#000000" points="118.9118,-214.0092 114.618,-204.3234 111.9345,-214.5728 118.9118,-214.0092"/>
<g id="a_edge3&#45;headlabel"><a xlink:href="dir_000002_000006.html" target="_top" xlink:title="1">
<text text-anchor="middle" x="122.0311" y="-214.8636" font-family="Helvetica,sans-Serif" font-size="10.00" fill="#000000">1</text>
</a>
</g>
</g>
<!-- dir_8febab45017bc485d0434a8948e4f10f&#45;&gt;dir_39dbb894624796a4d4aca810dc76203c -->
<g id="edge9" class="edge">
<title>dir_8febab45017bc485d0434a8948e4f10f&#45;&gt;dir_39dbb894624796a4d4aca810dc76203c</title>
<path fill="none" stroke="#000000" d="M61.7662,-276.4133C63.2407,-284.0593 64.3336,-293.1084 64.8517,-301.5726"/>
<polygon fill="#000000" stroke="#000000" points="61.3621,-301.9507 65.186,-311.8314 68.3584,-301.7226 61.3621,-301.9507"/>
<g id="a_edge9&#45;headlabel"><a xlink:href="dir_000003_000002.html" target="_top" xlink:title="3">
<text text-anchor="middle" x="58.4073" y="-295.9504" font-family="Helvetica,sans-Serif" font-size="10.00" fill="#000000">3</text>
</a>
</g>
</g>
<!-- dir_8febab45017bc485d0434a8948e4f10f&#45;&gt;dir_f413c8fdc27a5e3c3c68bd86b71b3c66 -->
<g id="edge8" class="edge">
<title>dir_8febab45017bc485d0434a8948e4f10f&#45;&gt;dir_f413c8fdc27a5e3c3c68bd86b71b3c66</title>
<path fill="none" stroke="#000000" d="M54.4888,-239.9993C55.1501,-221.78 56.6585,-192.8317 60,-168 61.1304,-159.5995 62.7958,-150.546 64.4906,-142.2976"/>
<polygon fill="#000000" stroke="#000000" points="67.9406,-142.9016 66.6149,-132.39 61.0961,-141.434 67.9406,-142.9016"/>
<g id="a_edge8&#45;headlabel"><a xlink:href="dir_000003_000004.html" target="_top" xlink:title="12">
<text text-anchor="middle" x="69.9632" y="-144.5115" font-family="Helvetica,sans-Serif" font-size="10.00" fill="#000000">12</text>
</a>
</g>
</g>
<!-- dir_8febab45017bc485d0434a8948e4f10f&#45;&gt;dir_f44858ad8592ab932b3454b04c24a188 -->
<g id="edge11" class="edge">
<title>dir_8febab45017bc485d0434a8948e4f10f&#45;&gt;dir_f44858ad8592ab932b3454b04c24a188</title>
<path fill="none" stroke="#000000" d="M46.0507,-239.848C33.7409,-208.9084 13.6016,-144.593 35,-96 40.1589,-84.2848 49.2533,-74.0045 58.7797,-65.6448"/>
<polygon fill="#000000" stroke="#000000" points="61.2781,-68.1231 66.8066,-59.0851 56.8486,-62.7029 61.2781,-68.1231"/>
<g id="a_edge11&#45;headlabel"><a xlink:href="dir_000003_000005.html" target="_top" xlink:title="5">
<text text-anchor="middle" x="60.2914" y="-70.0963" font-family="Helvetica,sans-Serif" font-size="10.00" fill="#000000">5</text>
</a>
</g>
</g>
<!-- dir_8febab45017bc485d0434a8948e4f10f&#45;&gt;dir_70fe5ef1b2e73aa8ccf5892106012c3f -->
<g id="edge10" class="edge">
<title>dir_8febab45017bc485d0434a8948e4f10f&#45;&gt;dir_70fe5ef1b2e73aa8ccf5892106012c3f</title>
<path fill="none" stroke="#000000" d="M68.6358,-239.8314C75.3161,-231.5386 83.3568,-221.557 90.6904,-212.4533"/>
<polygon fill="#000000" stroke="#000000" points="93.6194,-214.3965 97.1671,-204.4133 88.1681,-210.0052 93.6194,-214.3965"/>
<g id="a_edge10&#45;headlabel"><a xlink:href="dir_000003_000006.html" target="_top" xlink:title="1">
<text text-anchor="middle" x="93.5755" y="-216.4769" font-family="Helvetica,sans-Serif" font-size="10.00" fill="#000000">1</text>
</a>
</g>
</g>
<!-- dir_f413c8fdc27a5e3c3c68bd86b71b3c66&#45;&gt;dir_f44858ad8592ab932b3454b04c24a188 -->
<g id="edge1" class="edge">
<title>dir_f413c8fdc27a5e3c3c68bd86b71b3c66&#45;&gt;dir_f44858ad8592ab932b3454b04c24a188</title>
<path fill="none" stroke="#000000" d="M76.8039,-95.8314C79.2908,-88.0463 82.2531,-78.7729 85.0125,-70.1347"/>
<polygon fill="#000000" stroke="#000000" points="88.409,-71.0041 88.118,-60.4133 81.7409,-68.874 88.409,-71.0041"/>
<g id="a_edge1&#45;headlabel"><a xlink:href="dir_000004_000005.html" target="_top" xlink:title="1">
<text text-anchor="middle" x="90.0199" y="-72.7922" font-family="Helvetica,sans-Serif" font-size="10.00" fill="#000000">1</text>
</a>
</g>
</g>
<!-- dir_70fe5ef1b2e73aa8ccf5892106012c3f&#45;&gt;dir_f413c8fdc27a5e3c3c68bd86b71b3c66 -->
<g id="edge6" class="edge">
<title>dir_70fe5ef1b2e73aa8ccf5892106012c3f&#45;&gt;dir_f413c8fdc27a5e3c3c68bd86b71b3c66</title>
<path fill="none" stroke="#000000" d="M101.654,-167.8314C97.0763,-159.7925 91.5948,-150.1666 86.5412,-141.2918"/>
<polygon fill="#000000" stroke="#000000" points="89.4752,-139.3712 81.4853,-132.4133 83.3923,-142.8351 89.4752,-139.3712"/>
<g id="a_edge6&#45;headlabel"><a xlink:href="dir_000006_000004.html" target="_top" xlink:title="4">
<text text-anchor="middle" x="93.7212" y="-138.5899" font-family="Helvetica,sans-Serif" font-size="10.00" fill="#000000">4</text>
</a>
</g>
</g>
<!-- dir_70fe5ef1b2e73aa8ccf5892106012c3f&#45;&gt;dir_f44858ad8592ab932b3454b04c24a188 -->
<g id="edge7" class="edge">
<title>dir_70fe5ef1b2e73aa8ccf5892106012c3f&#45;&gt;dir_f44858ad8592ab932b3454b04c24a188</title>
<path fill="none" stroke="#000000" d="M111.9534,-167.9744C111.6827,-149.7357 110.6395,-120.7726 107,-96 105.7582,-87.5478 103.819,-78.4784 101.8138,-70.2313"/>
<polygon fill="#000000" stroke="#000000" points="105.1516,-69.1561 99.2861,-60.3331 98.3693,-70.8882 105.1516,-69.1561"/>
<g id="a_edge7&#45;headlabel"><a xlink:href="dir_000006_000005.html" target="_top" xlink:title="1">
<text text-anchor="middle" x="108.792" y="-69.4365" font-family="Helvetica,sans-Serif" font-size="10.00" fill="#000000">1</text>
</a>
</g>
</g>
</g>
</svg>
