<?xml version="1.0" encoding="UTF-8" standalone="no"?>
<!DOCTYPE svg PUBLIC "-//W3C//DTD SVG 1.1//EN"
 "http://www.w3.org/Graphics/SVG/1.1/DTD/svg11.dtd">
<!-- Generated by graphviz version 2.40.1 (20161225.0304)
 -->
<!-- Title: include/lug/Graphics Pages: 1 -->
<svg width="205pt" height="447pt"
 viewBox="0.00 0.00 205.00 447.00" xmlns="http://www.w3.org/2000/svg" xmlns:xlink="http://www.w3.org/1999/xlink">
<g id="graph0" class="graph" transform="scale(1 1) rotate(0) translate(4 443)">
<title>include/lug/Graphics</title>
<g id="clust1" class="cluster">
<title>clusterdir_97ca62288c38873332c455638a8da9db</title>
<g id="a_clust1"><a xlink:href="dir_97ca62288c38873332c455638a8da9db.html" target="_top" xlink:title="lug">
<polygon fill="#ddddee" stroke="#000000" points="8,-200 8,-431 186,-431 186,-200 8,-200"/>
<text text-anchor="middle" x="97" y="-419" font-family="Helvetica,sans-Serif" font-size="10.00" fill="#000000">lug</text>
</a>
</g>
</g>
<g id="clust2" class="cluster">
<title>clusterdir_8febab45017bc485d0434a8948e4f10f</title>
<g id="a_clust2"><a xlink:href="dir_8febab45017bc485d0434a8948e4f10f.html" target="_top">
<polygon fill="#eeeeff" stroke="#000000" points="16,-208 16,-404 178,-404 178,-208 16,-208"/>
</a>
</g>
</g>
<!-- dir_8febab45017bc485d0434a8948e4f10f -->
<g id="node1" class="node">
<title>dir_8febab45017bc485d0434a8948e4f10f</title>
<text text-anchor="middle" x="75" y="-375.5" font-family="Helvetica,sans-Serif" font-size="10.00" fill="#000000">Graphics</text>
</g>
<!-- dir_949021cfbccc62bf42d0518d7de7e7e3 -->
<g id="node3" class="node">
<title>dir_949021cfbccc62bf42d0518d7de7e7e3</title>
<g id="a_node3"><a xlink:href="dir_949021cfbccc62bf42d0518d7de7e7e3.html" target="_top" xlink:title="Render">
<polygon fill="#ffffff" stroke="#ff0000" points="150,-252 96,-252 96,-216 150,-216 150,-252"/>
<text text-anchor="middle" x="123" y="-231.5" font-family="Helvetica,sans-Serif" font-size="10.00" fill="#000000">Render</text>
</a>
</g>
</g>
<!-- dir_8febab45017bc485d0434a8948e4f10f&#45;&gt;dir_949021cfbccc62bf42d0518d7de7e7e3 -->
<g id="edge10" class="edge">
<title>dir_8febab45017bc485d0434a8948e4f10f&#45;&gt;dir_949021cfbccc62bf42d0518d7de7e7e3</title>
<path fill="none" stroke="#000000" d="M81.0792,-359.7623C89.3385,-334.9846 104.1762,-290.4714 113.802,-261.5939"/>
<polygon fill="#000000" stroke="#000000" points="117.1282,-262.6833 116.9701,-252.0896 110.4874,-260.4696 117.1282,-262.6833"/>
<g id="a_edge10&#45;headlabel"><a xlink:href="dir_000003_000009.html" target="_top" xlink:title="13">
<text text-anchor="middle" x="118.6851" y="-264.4913" font-family="Helvetica,sans-Serif" font-size="10.00" fill="#000000">13</text>
</a>
</g>
</g>
<!-- dir_a8215f94647f9508900dcab7ebfb9d7b -->
<g id="node4" class="node">
<title>dir_a8215f94647f9508900dcab7ebfb9d7b</title>
<g id="a_node4"><a xlink:href="dir_a8215f94647f9508900dcab7ebfb9d7b.html" target="_top" xlink:title="Scene">
<polygon fill="#ffffff" stroke="#000000" points="78,-324 24,-324 24,-288 78,-288 78,-324"/>
<text text-anchor="middle" x="51" y="-303.5" font-family="Helvetica,sans-Serif" font-size="10.00" fill="#000000">Scene</text>
</a>
</g>
</g>
<!-- dir_8febab45017bc485d0434a8948e4f10f&#45;&gt;dir_a8215f94647f9508900dcab7ebfb9d7b -->
<g id="edge9" class="edge">
<title>dir_8febab45017bc485d0434a8948e4f10f&#45;&gt;dir_a8215f94647f9508900dcab7ebfb9d7b</title>
<path fill="none" stroke="#000000" d="M68.9438,-359.8314C66.3488,-352.0463 63.2576,-342.7729 60.3782,-334.1347"/>
<polygon fill="#000000" stroke="#000000" points="63.6205,-332.7933 57.1378,-324.4133 56.9797,-335.0069 63.6205,-332.7933"/>
<g id="a_edge9&#45;headlabel"><a xlink:href="dir_000003_000008.html" target="_top" xlink:title="2">
<text text-anchor="middle" x="67.4507" y="-332.8056" font-family="Helvetica,sans-Serif" font-size="10.00" fill="#000000">2</text>
</a>
</g>
</g>
<!-- dir_a5d1627081a6f447c6539454aad85447 -->
<g id="node2" class="node">
<title>dir_a5d1627081a6f447c6539454aad85447</title>
<g id="a_node2"><a xlink:href="dir_a5d1627081a6f447c6539454aad85447.html" target="_top" xlink:title="Light">
<polygon fill="#ffffff" stroke="#000000" points="78,-252 24,-252 24,-216 78,-216 78,-252"/>
<text text-anchor="middle" x="51" y="-231.5" font-family="Helvetica,sans-Serif" font-size="10.00" fill="#000000">Light</text>
</a>
</g>
</g>
<!-- dir_a5d1627081a6f447c6539454aad85447&#45;&gt;dir_a8215f94647f9508900dcab7ebfb9d7b -->
<g id="edge7" class="edge">
<title>dir_a5d1627081a6f447c6539454aad85447&#45;&gt;dir_a8215f94647f9508900dcab7ebfb9d7b</title>
<path fill="none" stroke="#000000" d="M56.976,-252.4133C57.7071,-260.0593 57.9203,-269.1084 57.6155,-277.5726"/>
<polygon fill="#000000" stroke="#000000" points="54.1048,-277.6264 56.9524,-287.8314 61.0902,-278.078 54.1048,-277.6264"/>
<g id="a_edge7&#45;headlabel"><a xlink:href="dir_000007_000008.html" target="_top" xlink:title="1">
<text text-anchor="middle" x="51.5032" y="-271.3562" font-family="Helvetica,sans-Serif" font-size="10.00" fill="#000000">1</text>
</a>
</g>
</g>
<!-- dir_f413c8fdc27a5e3c3c68bd86b71b3c66 -->
<g id="node6" class="node">
<title>dir_f413c8fdc27a5e3c3c68bd86b71b3c66</title>
<g id="a_node6"><a xlink:href="dir_f413c8fdc27a5e3c3c68bd86b71b3c66.html" target="_top" xlink:title="Math">
<polygon fill="none" stroke="#ff0000" points="150,-108 96,-108 96,-72 150,-72 150,-108"/>
<text text-anchor="middle" x="123" y="-87.5" font-family="Helvetica,sans-Serif" font-size="10.00" fill="#000000">Math</text>
</a>
</g>
</g>
<!-- dir_a5d1627081a6f447c6539454aad85447&#45;&gt;dir_f413c8fdc27a5e3c3c68bd86b71b3c66 -->
<g id="edge6" class="edge">
<title>dir_a5d1627081a6f447c6539454aad85447&#45;&gt;dir_f413c8fdc27a5e3c3c68bd86b71b3c66</title>
<path fill="none" stroke="#000000" d="M54.1878,-215.9238C58.0012,-197.136 65.4906,-167.2788 78,-144 83.3407,-134.0615 90.693,-124.2586 97.9074,-115.7894"/>
<polygon fill="#000000" stroke="#000000" points="100.695,-117.9212 104.7119,-108.1173 95.4579,-113.2764 100.695,-117.9212"/>
<g id="a_edge6&#45;headlabel"><a xlink:href="dir_000007_000004.html" target="_top" xlink:title="4">
<text text-anchor="middle" x="100.434" y="-119.9944" font-family="Helvetica,sans-Serif" font-size="10.00" fill="#000000">4</text>
</a>
</g>
</g>
<!-- dir_949021cfbccc62bf42d0518d7de7e7e3&#45;&gt;dir_f413c8fdc27a5e3c3c68bd86b71b3c66 -->
<g id="edge13" class="edge">
<title>dir_949021cfbccc62bf42d0518d7de7e7e3&#45;&gt;dir_f413c8fdc27a5e3c3c68bd86b71b3c66</title>
<path fill="none" stroke="#000000" d="M106.5719,-215.989C98.6975,-206.1289 90.102,-193.2441 86,-180 81.2662,-164.7163 81.2662,-159.2837 86,-144 89.0445,-134.1704 94.5641,-124.5387 100.4271,-116.1946"/>
<polygon fill="#000000" stroke="#000000" points="103.3663,-118.1092 106.5719,-108.011 97.7686,-113.9061 103.3663,-118.1092"/>
<g id="a_edge13&#45;headlabel"><a xlink:href="dir_000009_000004.html" target="_top" xlink:title="3">
<text text-anchor="middle" x="103.4785" y="-120.1885" font-family="Helvetica,sans-Serif" font-size="10.00" fill="#000000">3</text>
</a>
</g>
</g>
<!-- dir_70fe5ef1b2e73aa8ccf5892106012c3f -->
<g id="node7" class="node">
<title>dir_70fe5ef1b2e73aa8ccf5892106012c3f</title>
<g id="a_node7"><a xlink:href="dir_70fe5ef1b2e73aa8ccf5892106012c3f.html" target="_top" xlink:title="Window">
<polygon fill="none" stroke="#000000" points="151,-180 95,-180 95,-144 151,-144 151,-180"/>
<text text-anchor="middle" x="123" y="-159.5" font-family="Helvetica,sans-Serif" font-size="10.00" fill="#000000">Window</text>
</a>
</g>
</g>
<!-- dir_949021cfbccc62bf42d0518d7de7e7e3&#45;&gt;dir_70fe5ef1b2e73aa8ccf5892106012c3f -->
<g id="edge14" class="edge">
<title>dir_949021cfbccc62bf42d0518d7de7e7e3&#45;&gt;dir_70fe5ef1b2e73aa8ccf5892106012c3f</title>
<path fill="none" stroke="#000000" d="M123,-215.8314C123,-208.131 123,-198.9743 123,-190.4166"/>
<polygon fill="#000000" stroke="#000000" points="126.5001,-190.4132 123,-180.4133 119.5001,-190.4133 126.5001,-190.4132"/>
<g id="a_edge14&#45;headlabel"><a xlink:href="dir_000009_000006.html" target="_top" xlink:title="1">
<text text-anchor="middle" x="129.3393" y="-191.5079" font-family="Helvetica,sans-Serif" font-size="10.00" fill="#000000">1</text>
</a>
</g>
</g>
<!-- dir_a8215f94647f9508900dcab7ebfb9d7b&#45;&gt;dir_a5d1627081a6f447c6539454aad85447 -->
<g id="edge11" class="edge">
<title>dir_a8215f94647f9508900dcab7ebfb9d7b&#45;&gt;dir_a5d1627081a6f447c6539454aad85447</title>
<path fill="none" stroke="#000000" d="M45.0476,-287.8314C44.2972,-280.131 44.0763,-270.9743 44.3849,-262.4166"/>
<polygon fill="#000000" stroke="#000000" points="47.8792,-262.6161 45.024,-252.4133 40.8935,-262.1697 47.8792,-262.6161"/>
<g id="a_edge11&#45;headlabel"><a xlink:href="dir_000008_000007.html" target="_top" xlink:title="1">
<text text-anchor="middle" x="50.4836" y="-263.8844" font-family="Helvetica,sans-Serif" font-size="10.00" fill="#000000">1</text>
</a>
</g>
</g>
<!-- dir_a8215f94647f9508900dcab7ebfb9d7b&#45;&gt;dir_949021cfbccc62bf42d0518d7de7e7e3 -->
<g id="edge12" class="edge">
<title>dir_a8215f94647f9508900dcab7ebfb9d7b&#45;&gt;dir_949021cfbccc62bf42d0518d7de7e7e3</title>
<path fill="none" stroke="#000000" d="M69.1686,-287.8314C77.7152,-279.2848 88.0557,-268.9443 97.3802,-259.6198"/>
<polygon fill="#000000" stroke="#000000" points="99.9905,-261.9592 104.5867,-252.4133 95.0408,-257.0095 99.9905,-261.9592"/>
<g id="a_edge12&#45;headlabel"><a xlink:href="dir_000008_000009.html" target="_top" xlink:title="3">
<text text-anchor="middle" x="99.4564" y="-264.0087" font-family="Helvetica,sans-Serif" font-size="10.00" fill="#000000">3</text>
</a>
</g>
</g>
<!-- dir_68f5b811b7b502beb8a363541603ba46 -->
<g id="node5" class="node">
<title>dir_68f5b811b7b502beb8a363541603ba46</title>
<g id="a_node5"><a xlink:href="dir_68f5b811b7b502beb8a363541603ba46.html" target="_top" xlink:title="Vulkan">
<polygon fill="#ffffff" stroke="#ff0000" points="170,-324 116,-324 116,-288 170,-288 170,-324"/>
<text text-anchor="middle" x="143" y="-303.5" font-family="Helvetica,sans-Serif" font-size="10.00" fill="#000000">Vulkan</text>
</a>
</g>
</g>
<!-- dir_68f5b811b7b502beb8a363541603ba46&#45;&gt;dir_a5d1627081a6f447c6539454aad85447 -->
<g id="edge2" class="edge">
<title>dir_68f5b811b7b502beb8a363541603ba46&#45;&gt;dir_a5d1627081a6f447c6539454aad85447</title>
<path fill="none" stroke="#000000" d="M119.7845,-287.8314C108.453,-278.9632 94.6536,-268.1637 82.3973,-258.5718"/>
<polygon fill="#000000" stroke="#000000" points="84.2402,-255.5697 74.2081,-252.1628 79.926,-261.0822 84.2402,-255.5697"/>
<g id="a_edge2&#45;headlabel"><a xlink:href="dir_000010_000007.html" target="_top" xlink:title="1">
<text text-anchor="middle" x="88.8208" y="-253.0491" font-family="Helvetica,sans-Serif" font-size="10.00" fill="#000000">1</text>
</a>
</g>
</g>
<!-- dir_68f5b811b7b502beb8a363541603ba46&#45;&gt;dir_949021cfbccc62bf42d0518d7de7e7e3 -->
<g id="edge4" class="edge">
<title>dir_68f5b811b7b502beb8a363541603ba46&#45;&gt;dir_949021cfbccc62bf42d0518d7de7e7e3</title>
<path fill="none" stroke="#000000" d="M137.9532,-287.8314C135.7906,-280.0463 133.2147,-270.7729 130.8152,-262.1347"/>
<polygon fill="#000000" stroke="#000000" points="134.1636,-261.1117 128.1148,-252.4133 127.419,-262.9852 134.1636,-261.1117"/>
<g id="a_edge4&#45;headlabel"><a xlink:href="dir_000010_000009.html" target="_top" xlink:title="5">
<text text-anchor="middle" x="137.8613" y="-261.3153" font-family="Helvetica,sans-Serif" font-size="10.00" fill="#000000">5</text>
</a>
</g>
</g>
<!-- dir_68f5b811b7b502beb8a363541603ba46&#45;&gt;dir_f413c8fdc27a5e3c3c68bd86b71b3c66 -->
<g id="edge1" class="edge">
<title>dir_68f5b811b7b502beb8a363541603ba46&#45;&gt;dir_f413c8fdc27a5e3c3c68bd86b71b3c66</title>
<path fill="none" stroke="#000000" d="M149.6087,-287.5568C159.5364,-256.9964 175.5622,-194.2449 160,-144 156.9555,-134.1704 151.4359,-124.5387 145.5729,-116.1946"/>
<polygon fill="#000000" stroke="#000000" points="148.2314,-113.9061 139.4281,-108.011 142.6337,-118.1092 148.2314,-113.9061"/>
<g id="a_edge1&#45;headlabel"><a xlink:href="dir_000010_000004.html" target="_top" xlink:title="1">
<text text-anchor="middle" x="152.6602" y="-112.5758" font-family="Helvetica,sans-Serif" font-size="10.00" fill="#000000">1</text>
</a>
</g>
</g>
<!-- dir_f44858ad8592ab932b3454b04c24a188 -->
<g id="node8" class="node">
<title>dir_f44858ad8592ab932b3454b04c24a188</title>
<g id="a_node8"><a xlink:href="dir_f44858ad8592ab932b3454b04c24a188.html" target="_top" xlink:title="System">
<polygon fill="none" stroke="#ff0000" points="197,-36 143,-36 143,0 197,0 197,-36"/>
<text text-anchor="middle" x="170" y="-15.5" font-family="Helvetica,sans-Serif" font-size="10.00" fill="#000000">System</text>
</a>
</g>
</g>
<!-- dir_68f5b811b7b502beb8a363541603ba46&#45;&gt;dir_f44858ad8592ab932b3454b04c24a188 -->
<g id="edge3" class="edge">
<title>dir_68f5b811b7b502beb8a363541603ba46&#45;&gt;dir_f44858ad8592ab932b3454b04c24a188</title>
<path fill="none" stroke="#000000" d="M157.6016,-287.6878C164.6109,-277.7453 172.28,-264.8776 176,-252 196.7779,-180.0728 184.5428,-90.4826 176.0495,-45.9027"/>
<polygon fill="#000000" stroke="#000000" points="179.4798,-45.2072 174.0979,-36.0811 172.614,-46.5715 179.4798,-45.2072"/>
<g id="a_edge3&#45;headlabel"><a xlink:href="dir_000010_000005.html" target="_top" xlink:title="2">
<text text-anchor="middle" x="182.9651" y="-45.6795" font-family="Helvetica,sans-Serif" font-size="10.00" fill="#000000">2</text>
</a>
</g>
</g>
<!-- dir_f413c8fdc27a5e3c3c68bd86b71b3c66&#45;&gt;dir_f44858ad8592ab932b3454b04c24a188 -->
<g id="edge5" class="edge">
<title>dir_f413c8fdc27a5e3c3c68bd86b71b3c66&#45;&gt;dir_f44858ad8592ab932b3454b04c24a188</title>
<path fill="none" stroke="#000000" d="M134.8601,-71.8314C140.1629,-63.7079 146.5237,-53.9637 152.3673,-45.0118"/>
<polygon fill="#000000" stroke="#000000" points="155.4448,-46.7003 157.9802,-36.4133 149.5831,-42.8739 155.4448,-46.7003"/>
<g id="a_edge5&#45;headlabel"><a xlink:href="dir_000004_000005.html" target="_top" xlink:title="1">
<text text-anchor="middle" x="155.8575" y="-48.7623" font-family="Helvetica,sans-Serif" font-size="10.00" fill="#000000">1</text>
</a>
</g>
</g>
<!-- dir_70fe5ef1b2e73aa8ccf5892106012c3f&#45;&gt;dir_f413c8fdc27a5e3c3c68bd86b71b3c66 -->
<g id="edge8" class="edge">
<title>dir_70fe5ef1b2e73aa8ccf5892106012c3f&#45;&gt;dir_f413c8fdc27a5e3c3c68bd86b71b3c66</title>
<path fill="none" stroke="#000000" d="M123,-143.8314C123,-136.131 123,-126.9743 123,-118.4166"/>
<polygon fill="#000000" stroke="#000000" points="126.5001,-118.4132 123,-108.4133 119.5001,-118.4133 126.5001,-118.4132"/>
<g id="a_edge8&#45;headlabel"><a xlink:href="dir_000006_000004.html" target="_top" xlink:title="1">
<text text-anchor="middle" x="129.3393" y="-119.5079" font-family="Helvetica,sans-Serif" font-size="10.00" fill="#000000">1</text>
</a>
</g>
</g>
</g>
</svg>
