<?xml version="1.0" encoding="UTF-8" standalone="no"?>
<!DOCTYPE svg PUBLIC "-//W3C//DTD SVG 1.1//EN"
 "http://www.w3.org/Graphics/SVG/1.1/DTD/svg11.dtd">
<!-- Generated by graphviz version 2.40.1 (20161225.0304)
 -->
<!-- Title: src/lug/Graphics/Vulkan/API/RTTI/Enum.cpp Pages: 1 -->
<svg width="1017pt" height="341pt"
 viewBox="0.00 0.00 1016.80 341.00" xmlns="http://www.w3.org/2000/svg" xmlns:xlink="http://www.w3.org/1999/xlink">
<g id="graph0" class="graph" transform="scale(1 1) rotate(0) translate(4 337)">
<title>src/lug/Graphics/Vulkan/API/RTTI/Enum.cpp</title>
<!-- Node0 -->
<g id="node1" class="node">
<title>Node0</title>
<polygon fill="#bfbfbf" stroke="#000000" points="318.5,-302.5 318.5,-332.5 455.5,-332.5 455.5,-302.5 318.5,-302.5"/>
<text text-anchor="start" x="326.5" y="-320.5" font-family="Helvetica,sans-Serif" font-size="10.00" fill="#000000">src/lug/Graphics/Vulkan</text>
<text text-anchor="middle" x="387" y="-309.5" font-family="Helvetica,sans-Serif" font-size="10.00" fill="#000000">/API/RTTI/Enum.cpp</text>
</g>
<!-- Node1 -->
<g id="node2" class="node">
<title>Node1</title>
<g id="a_node2"><a xlink:href="Enum_8hpp.html" target="_top" xlink:title="lug/Graphics/Vulkan\l/API/RTTI/Enum.hpp">
<polygon fill="none" stroke="#000000" points="245.5,-235.5 245.5,-265.5 364.5,-265.5 364.5,-235.5 245.5,-235.5"/>
<text text-anchor="start" x="253.5" y="-253.5" font-family="Helvetica,sans-Serif" font-size="10.00" fill="#000000">lug/Graphics/Vulkan</text>
<text text-anchor="middle" x="305" y="-242.5" font-family="Helvetica,sans-Serif" font-size="10.00" fill="#000000">/API/RTTI/Enum.hpp</text>
</a>
</g>
</g>
<!-- Node0&#45;&gt;Node1 -->
<g id="edge1" class="edge">
<title>Node0&#45;&gt;Node1</title>
<path fill="none" stroke="#191970" d="M368.3929,-302.2967C357.4893,-293.3876 343.5378,-281.9882 331.5003,-272.1527"/>
<polygon fill="#191970" stroke="#191970" points="333.4918,-269.2601 323.5334,-265.6432 329.0627,-274.6808 333.4918,-269.2601"/>
</g>
<!-- Node9 -->
<g id="node10" class="node">
<title>Node9</title>
<g id="a_node10"><a xlink:href="Logger_8hpp.html" target="_top" xlink:title="lug/System/Logger/Logger.hpp">
<polygon fill="none" stroke="#000000" points="475,-241 475,-260 647,-260 647,-241 475,-241"/>
<text text-anchor="middle" x="561" y="-248" font-family="Helvetica,sans-Serif" font-size="10.00" fill="#000000">lug/System/Logger/Logger.hpp</text>
</a>
</g>
</g>
<!-- Node0&#45;&gt;Node9 -->
<g id="edge9" class="edge">
<title>Node0&#45;&gt;Node9</title>
<path fill="none" stroke="#191970" d="M426.049,-302.4639C456.2542,-290.8332 497.6736,-274.8843 526.6307,-263.7342"/>
<polygon fill="#191970" stroke="#191970" points="528.2403,-266.865 536.3146,-260.0053 525.7248,-260.3325 528.2403,-266.865"/>
</g>
<!-- Node2 -->
<g id="node3" class="node">
<title>Node2</title>
<g id="a_node3"><a xlink:href="Vulkan_8hpp.html" target="_top" xlink:title="lug/Graphics/Vulkan\l/Vulkan.hpp">
<polygon fill="none" stroke="#000000" points="148,-168.5 148,-198.5 266,-198.5 266,-168.5 148,-168.5"/>
<text text-anchor="start" x="156" y="-186.5" font-family="Helvetica,sans-Serif" font-size="10.00" fill="#000000">lug/Graphics/Vulkan</text>
<text text-anchor="middle" x="207" y="-175.5" font-family="Helvetica,sans-Serif" font-size="10.00" fill="#000000">/Vulkan.hpp</text>
</a>
</g>
</g>
<!-- Node1&#45;&gt;Node2 -->
<g id="edge2" class="edge">
<title>Node1&#45;&gt;Node2</title>
<path fill="none" stroke="#191970" d="M282.7623,-235.2967C269.3553,-226.1306 252.0924,-214.3285 237.432,-204.3055"/>
<polygon fill="#191970" stroke="#191970" points="239.3802,-201.3977 229.1497,-198.6432 235.4295,-207.1763 239.3802,-201.3977"/>
</g>
<!-- Node3 -->
<g id="node4" class="node">
<title>Node3</title>
<polygon fill="none" stroke="#bfbfbf" points="296.5,-112.5 296.5,-131.5 391.5,-131.5 391.5,-112.5 296.5,-112.5"/>
<text text-anchor="middle" x="344" y="-119.5" font-family="Helvetica,sans-Serif" font-size="10.00" fill="#000000">unordered_map</text>
</g>
<!-- Node2&#45;&gt;Node3 -->
<g id="edge3" class="edge">
<title>Node2&#45;&gt;Node3</title>
<path fill="none" stroke="#191970" d="M240.514,-168.4554C262.7712,-158.464 291.7647,-145.4487 313.3985,-135.7372"/>
<polygon fill="#191970" stroke="#191970" points="315.0803,-138.8187 322.7699,-131.5303 312.2135,-132.4327 315.0803,-138.8187"/>
</g>
<!-- Node4 -->
<g id="node5" class="node">
<title>Node4</title>
<polygon fill="none" stroke="#bfbfbf" points="230,-112.5 230,-131.5 278,-131.5 278,-112.5 230,-112.5"/>
<text text-anchor="middle" x="254" y="-119.5" font-family="Helvetica,sans-Serif" font-size="10.00" fill="#000000">vector</text>
</g>
<!-- Node2&#45;&gt;Node4 -->
<g id="edge4" class="edge">
<title>Node2&#45;&gt;Node4</title>
<path fill="none" stroke="#191970" d="M218.618,-168.2977C225.21,-159.672 233.4948,-148.8312 240.3901,-139.8087"/>
<polygon fill="#191970" stroke="#191970" points="243.1835,-141.9176 246.4747,-131.8469 237.6217,-137.6671 243.1835,-141.9176"/>
</g>
<!-- Node5 -->
<g id="node6" class="node">
<title>Node5</title>
<polygon fill="none" stroke="#bfbfbf" points="0,-112.5 0,-131.5 58,-131.5 58,-112.5 0,-112.5"/>
<text text-anchor="middle" x="29" y="-119.5" font-family="Helvetica,sans-Serif" font-size="10.00" fill="#000000">ostream</text>
</g>
<!-- Node2&#45;&gt;Node5 -->
<g id="edge5" class="edge">
<title>Node2&#45;&gt;Node5</title>
<path fill="none" stroke="#191970" d="M163.4563,-168.4554C133.6263,-158.149 94.4834,-144.6249 66.1298,-134.8286"/>
<polygon fill="#191970" stroke="#191970" points="67.1784,-131.4879 56.5837,-131.5303 64.8924,-138.1041 67.1784,-131.4879"/>
</g>
<!-- Node6 -->
<g id="node7" class="node">
<title>Node6</title>
<g id="a_node7"><a xlink:href="Graphics_2Export_8hpp.html" target="_top" xlink:title="lug/Graphics/Export.hpp">
<polygon fill="none" stroke="#000000" points="200,-56.5 200,-75.5 338,-75.5 338,-56.5 200,-56.5"/>
<text text-anchor="middle" x="269" y="-63.5" font-family="Helvetica,sans-Serif" font-size="10.00" fill="#000000">lug/Graphics/Export.hpp</text>
</a>
</g>
</g>
<!-- Node2&#45;&gt;Node6 -->
<g id="edge6" class="edge">
<title>Node2&#45;&gt;Node6</title>
<path fill="none" stroke="#191970" d="M207.3362,-168.3697C208.254,-153.2501 211.297,-129.7606 221,-112 227.3344,-100.4053 237.6011,-89.9825 247.0169,-82.0017"/>
<polygon fill="#191970" stroke="#191970" points="249.333,-84.6309 254.9521,-75.6489 244.9582,-79.1664 249.333,-84.6309"/>
</g>
<!-- Node8 -->
<g id="node9" class="node">
<title>Node8</title>
<polygon fill="none" stroke="#bfbfbf" points="76.5,-112.5 76.5,-131.5 173.5,-131.5 173.5,-112.5 76.5,-112.5"/>
<text text-anchor="middle" x="125" y="-119.5" font-family="Helvetica,sans-Serif" font-size="10.00" fill="#000000">vulkan/vulkan.h</text>
</g>
<!-- Node2&#45;&gt;Node8 -->
<g id="edge8" class="edge">
<title>Node2&#45;&gt;Node8</title>
<path fill="none" stroke="#191970" d="M186.7303,-168.2977C174.3994,-159.0495 158.6734,-147.2551 146.1803,-137.8853"/>
<polygon fill="#191970" stroke="#191970" points="148.2293,-135.047 138.1292,-131.8469 144.0292,-140.647 148.2293,-135.047"/>
</g>
<!-- Node7 -->
<g id="node8" class="node">
<title>Node7</title>
<g id="a_node8"><a xlink:href="Config_8hpp.html" target="_top" xlink:title="lug/Config.hpp">
<polygon fill="none" stroke="#000000" points="300.5,-.5 300.5,-19.5 389.5,-19.5 389.5,-.5 300.5,-.5"/>
<text text-anchor="middle" x="345" y="-7.5" font-family="Helvetica,sans-Serif" font-size="10.00" fill="#000000">lug/Config.hpp</text>
</a>
</g>
</g>
<!-- Node6&#45;&gt;Node7 -->
<g id="edge7" class="edge">
<title>Node6&#45;&gt;Node7</title>
<path fill="none" stroke="#191970" d="M282.2382,-56.2455C293.681,-47.814 310.4296,-35.4729 323.7475,-25.6598"/>
<polygon fill="#191970" stroke="#191970" points="325.9391,-28.3924 331.9135,-19.6427 321.7867,-22.757 325.9391,-28.3924"/>
</g>
<!-- Node10 -->
<g id="node11" class="node">
<title>Node10</title>
<polygon fill="none" stroke="#bfbfbf" points="511.5,-112.5 511.5,-131.5 570.5,-131.5 570.5,-112.5 511.5,-112.5"/>
<text text-anchor="middle" x="541" y="-119.5" font-family="Helvetica,sans-Serif" font-size="10.00" fill="#000000">memory</text>
</g>
<!-- Node9&#45;&gt;Node10 -->
<g id="edge10" class="edge">
<title>Node9&#45;&gt;Node10</title>
<path fill="none" stroke="#191970" d="M559.4967,-240.8416C556.2391,-219.9114 548.4714,-170.004 544.1091,-141.9762"/>
<polygon fill="#191970" stroke="#191970" points="547.517,-141.1132 542.5207,-131.7705 540.6003,-142.1898 547.517,-141.1132"/>
</g>
<!-- Node11 -->
<g id="node12" class="node">
<title>Node11</title>
<polygon fill="none" stroke="#bfbfbf" points="463,-174 463,-193 495,-193 495,-174 463,-174"/>
<text text-anchor="middle" x="479" y="-181" font-family="Helvetica,sans-Serif" font-size="10.00" fill="#000000">set</text>
</g>
<!-- Node9&#45;&gt;Node11 -->
<g id="edge11" class="edge">
<title>Node9&#45;&gt;Node11</title>
<path fill="none" stroke="#191970" d="M549.2514,-240.9005C536.0989,-230.1539 514.5664,-212.5603 498.8017,-199.6794"/>
<polygon fill="#191970" stroke="#191970" points="500.6852,-196.6986 490.7268,-193.0817 496.2561,-202.1193 500.6852,-196.6986"/>
</g>
<!-- Node12 -->
<g id="node13" class="node">
<title>Node12</title>
<polygon fill="none" stroke="#bfbfbf" points="448.5,-112.5 448.5,-131.5 493.5,-131.5 493.5,-112.5 448.5,-112.5"/>
<text text-anchor="middle" x="471" y="-119.5" font-family="Helvetica,sans-Serif" font-size="10.00" fill="#000000">string</text>
</g>
<!-- Node9&#45;&gt;Node12 -->
<g id="edge12" class="edge">
<title>Node9&#45;&gt;Node12</title>
<path fill="none" stroke="#191970" d="M554.3859,-240.8086C543.8193,-225.3526 522.4409,-194.192 504,-168 497.5178,-158.7932 490.2285,-148.6144 484.1527,-140.1775"/>
<polygon fill="#191970" stroke="#191970" points="486.8219,-137.8952 478.1317,-131.8345 481.1457,-141.9916 486.8219,-137.8952"/>
</g>
<!-- Node13 -->
<g id="node14" class="node">
<title>Node13</title>
<g id="a_node14"><a xlink:href="System_2Export_8hpp.html" target="_top" xlink:title="lug/System/Export.hpp">
<polygon fill="none" stroke="#000000" points="388,-56.5 388,-75.5 520,-75.5 520,-56.5 388,-56.5"/>
<text text-anchor="middle" x="454" y="-63.5" font-family="Helvetica,sans-Serif" font-size="10.00" fill="#000000">lug/System/Export.hpp</text>
</a>
</g>
</g>
<!-- Node9&#45;&gt;Node13 -->
<g id="edge13" class="edge">
<title>Node9&#45;&gt;Node13</title>
<path fill="none" stroke="#191970" d="M566.4292,-240.6997C579.0666,-216.4302 607.2997,-152.5694 579,-112 569.9571,-99.0364 534.927,-86.8007 504.243,-78.2121"/>
<polygon fill="#191970" stroke="#191970" points="505.0398,-74.8018 494.4718,-75.5555 503.2032,-81.5566 505.0398,-74.8018"/>
</g>
<!-- Node14 -->
<g id="node15" class="node">
<title>Node14</title>
<g id="a_node15"><a xlink:href="Common_8hpp.html" target="_top" xlink:title="lug/System/Logger/Common.hpp">
<polygon fill="none" stroke="#000000" points="627,-112.5 627,-131.5 809,-131.5 809,-112.5 627,-112.5"/>
<text text-anchor="middle" x="718" y="-119.5" font-family="Helvetica,sans-Serif" font-size="10.00" fill="#000000">lug/System/Logger/Common.hpp</text>
</a>
</g>
</g>
<!-- Node9&#45;&gt;Node14 -->
<g id="edge15" class="edge">
<title>Node9&#45;&gt;Node14</title>
<path fill="none" stroke="#191970" d="M647.1611,-246.4975C768.8325,-239.9491 978.8587,-225.001 1002,-199 1011.1599,-188.7081 1010.9296,-178.4923 1002,-168 989.956,-153.8483 895.9414,-140.605 819.3288,-131.9963"/>
<polygon fill="#191970" stroke="#191970" points="819.4485,-128.4882 809.1238,-130.8651 818.6773,-135.4456 819.4485,-128.4882"/>
</g>
<!-- Node17 -->
<g id="node18" class="node">
<title>Node17</title>
<g id="a_node18"><a xlink:href="LoggingFacility_8hpp.html" target="_top" xlink:title="lug/System/Logger/Logging\lFacility.hpp">
<polygon fill="none" stroke="#000000" points="289.5,-168.5 289.5,-198.5 444.5,-198.5 444.5,-168.5 289.5,-168.5"/>
<text text-anchor="start" x="297.5" y="-186.5" font-family="Helvetica,sans-Serif" font-size="10.00" fill="#000000">lug/System/Logger/Logging</text>
<text text-anchor="middle" x="367" y="-175.5" font-family="Helvetica,sans-Serif" font-size="10.00" fill="#000000">Facility.hpp</text>
</a>
</g>
</g>
<!-- Node9&#45;&gt;Node17 -->
<g id="edge19" class="edge">
<title>Node9&#45;&gt;Node17</title>
<path fill="none" stroke="#191970" d="M533.2045,-240.9005C503.7745,-230.7366 456.6102,-214.4479 420.029,-201.8141"/>
<polygon fill="#191970" stroke="#191970" points="421.0906,-198.478 410.4959,-198.5218 418.8055,-205.0945 421.0906,-198.478"/>
</g>
<!-- Node18 -->
<g id="node19" class="node">
<title>Node18</title>
<g id="a_node19"><a xlink:href="Message_8hpp.html" target="_top" xlink:title="lug/System/Logger/Message.hpp">
<polygon fill="none" stroke="#000000" points="627.5,-174 627.5,-193 808.5,-193 808.5,-174 627.5,-174"/>
<text text-anchor="middle" x="718" y="-181" font-family="Helvetica,sans-Serif" font-size="10.00" fill="#000000">lug/System/Logger/Message.hpp</text>
</a>
</g>
</g>
<!-- Node9&#45;&gt;Node18 -->
<g id="edge24" class="edge">
<title>Node9&#45;&gt;Node18</title>
<path fill="none" stroke="#191970" d="M583.4943,-240.9005C610.4253,-229.4077 655.7067,-210.0838 686.2064,-197.068"/>
<polygon fill="#191970" stroke="#191970" points="687.7237,-200.2259 695.5475,-193.0817 684.9762,-193.7876 687.7237,-200.2259"/>
</g>
<!-- Node19 -->
<g id="node20" class="node">
<title>Node19</title>
<g id="a_node20"><a xlink:href="Logger_8inl.html" target="_top" xlink:title="lug/System/Logger/Logger.inl">
<polygon fill="none" stroke="#000000" points="827,-174 827,-193 993,-193 993,-174 827,-174"/>
<text text-anchor="middle" x="910" y="-181" font-family="Helvetica,sans-Serif" font-size="10.00" fill="#000000">lug/System/Logger/Logger.inl</text>
</a>
</g>
</g>
<!-- Node9&#45;&gt;Node19 -->
<g id="edge26" class="edge">
<title>Node9&#45;&gt;Node19</title>
<path fill="none" stroke="#191970" d="M610.6326,-240.9717C673.73,-228.8584 782.5686,-207.9639 850.1815,-194.9838"/>
<polygon fill="#191970" stroke="#191970" points="851.0957,-198.3723 860.2564,-193.0496 849.7759,-191.4978 851.0957,-198.3723"/>
</g>
<!-- Node13&#45;&gt;Node7 -->
<g id="edge14" class="edge">
<title>Node13&#45;&gt;Node7</title>
<path fill="none" stroke="#191970" d="M435.0136,-56.2455C417.8208,-47.4125 392.2762,-34.2887 372.7868,-24.2758"/>
<polygon fill="#191970" stroke="#191970" points="374.263,-21.0993 363.7688,-19.6427 371.0641,-27.3257 374.263,-21.0993"/>
</g>
<!-- Node14&#45;&gt;Node13 -->
<g id="edge16" class="edge">
<title>Node14&#45;&gt;Node13</title>
<path fill="none" stroke="#191970" d="M672.9167,-112.4369C627.5454,-102.8127 557.5114,-87.957 508.9234,-77.6504"/>
<polygon fill="#191970" stroke="#191970" points="509.4059,-74.175 498.8973,-75.5237 507.9534,-81.0226 509.4059,-74.175"/>
</g>
<!-- Node15 -->
<g id="node16" class="node">
<title>Node15</title>
<polygon fill="none" stroke="#bfbfbf" points="625,-56.5 625,-75.5 707,-75.5 707,-56.5 625,-56.5"/>
<text text-anchor="middle" x="666" y="-63.5" font-family="Helvetica,sans-Serif" font-size="10.00" fill="#000000">fmt/format.h</text>
</g>
<!-- Node14&#45;&gt;Node15 -->
<g id="edge17" class="edge">
<title>Node14&#45;&gt;Node15</title>
<path fill="none" stroke="#191970" d="M708.9423,-112.2455C701.4858,-104.2155 690.7366,-92.6394 681.8583,-83.0781"/>
<polygon fill="#191970" stroke="#191970" points="684.3232,-80.589 674.9539,-75.6427 679.1937,-85.3522 684.3232,-80.589"/>
</g>
<!-- Node16 -->
<g id="node17" class="node">
<title>Node16</title>
<polygon fill="none" stroke="#bfbfbf" points="725.5,-56.5 725.5,-75.5 814.5,-75.5 814.5,-56.5 725.5,-56.5"/>
<text text-anchor="middle" x="770" y="-63.5" font-family="Helvetica,sans-Serif" font-size="10.00" fill="#000000">fmt/ostream.h</text>
</g>
<!-- Node14&#45;&gt;Node16 -->
<g id="edge18" class="edge">
<title>Node14&#45;&gt;Node16</title>
<path fill="none" stroke="#191970" d="M727.0577,-112.2455C734.5142,-104.2155 745.2634,-92.6394 754.1417,-83.0781"/>
<polygon fill="#191970" stroke="#191970" points="756.8063,-85.3522 761.0461,-75.6427 751.6768,-80.589 756.8063,-85.3522"/>
</g>
<!-- Node17&#45;&gt;Node3 -->
<g id="edge22" class="edge">
<title>Node17&#45;&gt;Node3</title>
<path fill="none" stroke="#191970" d="M361.3146,-168.2977C358.255,-160.1166 354.4502,-149.943 351.1872,-141.2179"/>
<polygon fill="#191970" stroke="#191970" points="354.4638,-139.9873 347.6826,-131.8469 347.9073,-142.4394 354.4638,-139.9873"/>
</g>
<!-- Node17&#45;&gt;Node10 -->
<g id="edge21" class="edge">
<title>Node17&#45;&gt;Node10</title>
<path fill="none" stroke="#191970" d="M409.5652,-168.4554C438.5975,-158.194 476.6541,-144.7429 504.3409,-134.9571"/>
<polygon fill="#191970" stroke="#191970" points="505.7741,-138.1628 514.0362,-131.5303 503.4414,-131.5629 505.7741,-138.1628"/>
</g>
<!-- Node17&#45;&gt;Node12 -->
<g id="edge20" class="edge">
<title>Node17&#45;&gt;Node12</title>
<path fill="none" stroke="#191970" d="M392.4413,-168.4554C408.7284,-158.8241 429.7673,-146.3828 445.973,-136.7996"/>
<polygon fill="#191970" stroke="#191970" points="448.0576,-139.6331 454.8837,-131.5303 444.4945,-133.6078 448.0576,-139.6331"/>
</g>
<!-- Node17&#45;&gt;Node13 -->
<g id="edge23" class="edge">
<title>Node17&#45;&gt;Node13</title>
<path fill="none" stroke="#191970" d="M378.3737,-168.1389C394.4758,-146.3919 423.8471,-106.7238 440.8601,-83.7465"/>
<polygon fill="#191970" stroke="#191970" points="443.7841,-85.679 446.9219,-75.5595 438.1584,-81.5135 443.7841,-85.679"/>
</g>
<!-- Node18&#45;&gt;Node14 -->
<g id="edge25" class="edge">
<title>Node18&#45;&gt;Node14</title>
<path fill="none" stroke="#191970" d="M718,-173.8906C718,-165.3657 718,-152.6392 718,-141.9235"/>
<polygon fill="#191970" stroke="#191970" points="721.5001,-141.7448 718,-131.7449 714.5001,-141.7449 721.5001,-141.7448"/>
</g>
</g>
</svg>
