<?xml version="1.0" encoding="UTF-8" standalone="no"?>
<!DOCTYPE svg PUBLIC "-//W3C//DTD SVG 1.1//EN"
 "http://www.w3.org/Graphics/SVG/1.1/DTD/svg11.dtd">
<!-- Generated by graphviz version 2.40.1 (20161225.0304)
 -->
<!-- Title: include/lug/System/Exception.hpp Pages: 1 -->
<svg width="694pt" height="106pt"
 viewBox="0.00 0.00 693.50 106.00" xmlns="http://www.w3.org/2000/svg" xmlns:xlink="http://www.w3.org/1999/xlink">
<g id="graph0" class="graph" transform="scale(1 1) rotate(0) translate(4 102)">
<title>include/lug/System/Exception.hpp</title>
<!-- Node7 -->
<g id="node1" class="node">
<title>Node7</title>
<polygon fill="#bfbfbf" stroke="#000000" points="311.5,-67.5 311.5,-97.5 424.5,-97.5 424.5,-67.5 311.5,-67.5"/>
<text text-anchor="start" x="319.5" y="-85.5" font-family="Helvetica,sans-Serif" font-size="10.00" fill="#000000">include/lug/System</text>
<text text-anchor="middle" x="368" y="-74.5" font-family="Helvetica,sans-Serif" font-size="10.00" fill="#000000">/Exception.hpp</text>
</g>
<!-- Node8 -->
<g id="node2" class="node">
<title>Node8</title>
<g id="a_node2"><a xlink:href="ShaderBuilder_8cpp.html" target="_top" xlink:title="src/lug/Graphics/Vulkan\l/Render/Pipeline/ShaderBuilder.cpp">
<polygon fill="none" stroke="#000000" points="0,-.5 0,-30.5 196,-30.5 196,-.5 0,-.5"/>
<text text-anchor="start" x="8" y="-18.5" font-family="Helvetica,sans-Serif" font-size="10.00" fill="#000000">src/lug/Graphics/Vulkan</text>
<text text-anchor="middle" x="98" y="-7.5" font-family="Helvetica,sans-Serif" font-size="10.00" fill="#000000">/Render/Pipeline/ShaderBuilder.cpp</text>
</a>
</g>
</g>
<!-- Node7&#45;&gt;Node8 -->
<g id="edge1" class="edge">
<title>Node7&#45;&gt;Node8</title>
<path fill="none" stroke="#191970" d="M301.4487,-65.9854C257.8019,-55.1545 201.1754,-41.1028 158.7497,-30.5749"/>
<polygon fill="#191970" stroke="#191970" points="300.8505,-69.4431 311.3992,-68.4546 302.5365,-62.6491 300.8505,-69.4431"/>
</g>
<!-- Node9 -->
<g id="node3" class="node">
<title>Node9</title>
<g id="a_node3"><a xlink:href="Render_2Pipeline_8cpp.html" target="_top" xlink:title="src/lug/Graphics/Vulkan\l/Render/Pipeline.cpp">
<polygon fill="none" stroke="#000000" points="214.5,-.5 214.5,-30.5 351.5,-30.5 351.5,-.5 214.5,-.5"/>
<text text-anchor="start" x="222.5" y="-18.5" font-family="Helvetica,sans-Serif" font-size="10.00" fill="#000000">src/lug/Graphics/Vulkan</text>
<text text-anchor="middle" x="283" y="-7.5" font-family="Helvetica,sans-Serif" font-size="10.00" fill="#000000">/Render/Pipeline.cpp</text>
</a>
</g>
</g>
<!-- Node7&#45;&gt;Node9 -->
<g id="edge2" class="edge">
<title>Node7&#45;&gt;Node9</title>
<path fill="none" stroke="#191970" d="M340.8055,-61.0643C328.2374,-51.1577 313.6083,-39.6265 302.2115,-30.6432"/>
<polygon fill="#191970" stroke="#191970" points="338.6919,-63.8549 348.7122,-67.2967 343.0253,-58.3574 338.6919,-63.8549"/>
</g>
<!-- Node10 -->
<g id="node4" class="node">
<title>Node10</title>
<g id="a_node4"><a xlink:href="Exception_8cpp.html" target="_top" xlink:title="src/lug/System/Exception.cpp">
<polygon fill="none" stroke="#000000" points="369.5,-6 369.5,-25 536.5,-25 536.5,-6 369.5,-6"/>
<text text-anchor="middle" x="453" y="-13" font-family="Helvetica,sans-Serif" font-size="10.00" fill="#000000">src/lug/System/Exception.cpp</text>
</a>
</g>
</g>
<!-- Node7&#45;&gt;Node10 -->
<g id="edge3" class="edge">
<title>Node7&#45;&gt;Node10</title>
<path fill="none" stroke="#191970" d="M395.4325,-60.8767C410.758,-48.7967 429.0861,-34.3498 440.878,-25.055"/>
<polygon fill="#191970" stroke="#191970" points="392.9747,-58.3574 387.2878,-67.2967 397.3081,-63.8549 392.9747,-58.3574"/>
</g>
<!-- Node11 -->
<g id="node5" class="node">
<title>Node11</title>
<g id="a_node5"><a xlink:href="FileHandler_8cpp.html" target="_top" xlink:title="src/lug/System/Logger\l/FileHandler.cpp">
<polygon fill="none" stroke="#000000" points="554.5,-.5 554.5,-30.5 685.5,-30.5 685.5,-.5 554.5,-.5"/>
<text text-anchor="start" x="562.5" y="-18.5" font-family="Helvetica,sans-Serif" font-size="10.00" fill="#000000">src/lug/System/Logger</text>
<text text-anchor="middle" x="620" y="-7.5" font-family="Helvetica,sans-Serif" font-size="10.00" fill="#000000">/FileHandler.cpp</text>
</a>
</g>
</g>
<!-- Node7&#45;&gt;Node11 -->
<g id="edge4" class="edge">
<title>Node7&#45;&gt;Node11</title>
<path fill="none" stroke="#191970" d="M434.2444,-64.8874C474.3391,-54.2273 524.9394,-40.774 563.1996,-30.6017"/>
<polygon fill="#191970" stroke="#191970" points="433.3186,-61.5119 424.5537,-67.4639 435.1173,-68.2768 433.3186,-61.5119"/>
</g>
</g>
</svg>
