<?xml version="1.0" encoding="UTF-8" standalone="no"?>
<!DOCTYPE svg PUBLIC "-//W3C//DTD SVG 1.1//EN"
 "http://www.w3.org/Graphics/SVG/1.1/DTD/svg11.dtd">
<!-- Generated by graphviz version 2.40.1 (20161225.0304)
 -->
<!-- Title: src/lug/System/Exception.cpp Pages: 1 -->
<svg width="496pt" height="196pt"
 viewBox="0.00 0.00 495.50 196.00" xmlns="http://www.w3.org/2000/svg" xmlns:xlink="http://www.w3.org/1999/xlink">
<g id="graph0" class="graph" transform="scale(1 1) rotate(0) translate(4 192)">
<title>src/lug/System/Exception.cpp</title>
<!-- Node0 -->
<g id="node1" class="node">
<title>Node0</title>
<polygon fill="#bfbfbf" stroke="#000000" points="151,-168.5 151,-187.5 318,-187.5 318,-168.5 151,-168.5"/>
<text text-anchor="middle" x="234.5" y="-175.5" font-family="Helvetica,sans-Serif" font-size="10.00" fill="#000000">src/lug/System/Exception.cpp</text>
</g>
<!-- Node1 -->
<g id="node2" class="node">
<title>Node1</title>
<g id="a_node2"><a xlink:href="Exception_8hpp.html" target="_top" xlink:title="lug/System/Exception.hpp">
<polygon fill="none" stroke="#000000" points="100.5,-112.5 100.5,-131.5 248.5,-131.5 248.5,-112.5 100.5,-112.5"/>
<text text-anchor="middle" x="174.5" y="-119.5" font-family="Helvetica,sans-Serif" font-size="10.00" fill="#000000">lug/System/Exception.hpp</text>
</a>
</g>
</g>
<!-- Node0&#45;&gt;Node1 -->
<g id="edge1" class="edge">
<title>Node0&#45;&gt;Node1</title>
<path fill="none" stroke="#191970" d="M224.0488,-168.2455C215.2731,-160.0549 202.5446,-148.1749 192.186,-138.5069"/>
<polygon fill="#191970" stroke="#191970" points="194.5301,-135.9072 184.8314,-131.6427 189.7539,-141.0246 194.5301,-135.9072"/>
</g>
<!-- Node8 -->
<g id="node9" class="node">
<title>Node8</title>
<polygon fill="none" stroke="#bfbfbf" points="267,-112.5 267,-131.5 324,-131.5 324,-112.5 267,-112.5"/>
<text text-anchor="middle" x="295.5" y="-119.5" font-family="Helvetica,sans-Serif" font-size="10.00" fill="#000000">sstream</text>
</g>
<!-- Node0&#45;&gt;Node8 -->
<g id="edge8" class="edge">
<title>Node0&#45;&gt;Node8</title>
<path fill="none" stroke="#191970" d="M245.1254,-168.2455C254.0473,-160.0549 266.988,-148.1749 277.5192,-138.5069"/>
<polygon fill="#191970" stroke="#191970" points="279.9968,-140.9837 284.9964,-131.6427 275.2629,-135.8271 279.9968,-140.9837"/>
</g>
<!-- Node2 -->
<g id="node3" class="node">
<title>Node2</title>
<polygon fill="none" stroke="#bfbfbf" points="0,-56.5 0,-75.5 65,-75.5 65,-56.5 0,-56.5"/>
<text text-anchor="middle" x="32.5" y="-63.5" font-family="Helvetica,sans-Serif" font-size="10.00" fill="#000000">exception</text>
</g>
<!-- Node1&#45;&gt;Node2 -->
<g id="edge2" class="edge">
<title>Node1&#45;&gt;Node2</title>
<path fill="none" stroke="#191970" d="M150.0893,-112.3733C126.8858,-103.2226 91.7962,-89.3844 65.9858,-79.2057"/>
<polygon fill="#191970" stroke="#191970" points="67.1789,-75.9139 56.5921,-75.5011 64.6108,-82.4258 67.1789,-75.9139"/>
</g>
<!-- Node3 -->
<g id="node4" class="node">
<title>Node3</title>
<polygon fill="none" stroke="#bfbfbf" points="83.5,-56.5 83.5,-75.5 133.5,-75.5 133.5,-56.5 83.5,-56.5"/>
<text text-anchor="middle" x="108.5" y="-63.5" font-family="Helvetica,sans-Serif" font-size="10.00" fill="#000000">cstdint</text>
</g>
<!-- Node1&#45;&gt;Node3 -->
<g id="edge3" class="edge">
<title>Node1&#45;&gt;Node3</title>
<path fill="none" stroke="#191970" d="M163.0037,-112.2455C153.2558,-103.9746 139.0741,-91.9416 127.6202,-82.2232"/>
<polygon fill="#191970" stroke="#191970" points="129.7541,-79.4437 119.8646,-75.6427 125.2253,-84.7813 129.7541,-79.4437"/>
</g>
<!-- Node4 -->
<g id="node5" class="node">
<title>Node4</title>
<polygon fill="none" stroke="#bfbfbf" points="152,-56.5 152,-75.5 197,-75.5 197,-56.5 152,-56.5"/>
<text text-anchor="middle" x="174.5" y="-63.5" font-family="Helvetica,sans-Serif" font-size="10.00" fill="#000000">string</text>
</g>
<!-- Node1&#45;&gt;Node4 -->
<g id="edge4" class="edge">
<title>Node1&#45;&gt;Node4</title>
<path fill="none" stroke="#191970" d="M174.5,-112.2455C174.5,-104.9382 174.5,-94.6944 174.5,-85.7046"/>
<polygon fill="#191970" stroke="#191970" points="178.0001,-85.6426 174.5,-75.6427 171.0001,-85.6427 178.0001,-85.6426"/>
</g>
<!-- Node5 -->
<g id="node6" class="node">
<title>Node5</title>
<g id="a_node6"><a xlink:href="System_2Export_8hpp.html" target="_top" xlink:title="lug/System/Export.hpp">
<polygon fill="none" stroke="#000000" points="215.5,-56.5 215.5,-75.5 347.5,-75.5 347.5,-56.5 215.5,-56.5"/>
<text text-anchor="middle" x="281.5" y="-63.5" font-family="Helvetica,sans-Serif" font-size="10.00" fill="#000000">lug/System/Export.hpp</text>
</a>
</g>
</g>
<!-- Node1&#45;&gt;Node5 -->
<g id="edge5" class="edge">
<title>Node1&#45;&gt;Node5</title>
<path fill="none" stroke="#191970" d="M193.138,-112.2455C209.9386,-103.4527 234.8634,-90.4079 253.9618,-80.4125"/>
<polygon fill="#191970" stroke="#191970" points="255.8386,-83.3807 263.0756,-75.6427 252.5927,-77.1787 255.8386,-83.3807"/>
</g>
<!-- Node7 -->
<g id="node8" class="node">
<title>Node7</title>
<g id="a_node8"><a xlink:href="Utils_8hpp.html" target="_top" xlink:title="lug/System/Utils.hpp">
<polygon fill="none" stroke="#000000" points="365.5,-56.5 365.5,-75.5 487.5,-75.5 487.5,-56.5 365.5,-56.5"/>
<text text-anchor="middle" x="426.5" y="-63.5" font-family="Helvetica,sans-Serif" font-size="10.00" fill="#000000">lug/System/Utils.hpp</text>
</a>
</g>
</g>
<!-- Node1&#45;&gt;Node7 -->
<g id="edge7" class="edge">
<title>Node1&#45;&gt;Node7</title>
<path fill="none" stroke="#191970" d="M217.534,-112.4369C260.7525,-102.8328 327.4141,-88.0191 373.7818,-77.7152"/>
<polygon fill="#191970" stroke="#191970" points="374.6409,-81.1097 383.6435,-75.5237 373.1223,-74.2764 374.6409,-81.1097"/>
</g>
<!-- Node6 -->
<g id="node7" class="node">
<title>Node6</title>
<g id="a_node7"><a xlink:href="Config_8hpp.html" target="_top" xlink:title="lug/Config.hpp">
<polygon fill="none" stroke="#000000" points="237,-.5 237,-19.5 326,-19.5 326,-.5 237,-.5"/>
<text text-anchor="middle" x="281.5" y="-7.5" font-family="Helvetica,sans-Serif" font-size="10.00" fill="#000000">lug/Config.hpp</text>
</a>
</g>
</g>
<!-- Node5&#45;&gt;Node6 -->
<g id="edge6" class="edge">
<title>Node5&#45;&gt;Node6</title>
<path fill="none" stroke="#191970" d="M281.5,-56.2455C281.5,-48.9382 281.5,-38.6944 281.5,-29.7046"/>
<polygon fill="#191970" stroke="#191970" points="285.0001,-29.6426 281.5,-19.6427 278.0001,-29.6427 285.0001,-29.6426"/>
</g>
</g>
</svg>
