<?xml version="1.0" encoding="UTF-8" standalone="no"?>
<!DOCTYPE svg PUBLIC "-//W3C//DTD SVG 1.1//EN"
 "http://www.w3.org/Graphics/SVG/1.1/DTD/svg11.dtd">
<!-- Generated by graphviz version 2.40.1 (20161225.0304)
 -->
<!-- Title: src/lug/Graphics/Vulkan/API/Fence.cpp Pages: 1 -->
<!--zoomable 419 -->
<svg id="main" version="1.1" xmlns="http://www.w3.org/2000/svg" xmlns:xlink="http://www.w3.org/1999/xlink" xml:space="preserve" onload="init(evt)">
<style type="text/css"><![CDATA[
.edge:hover path { stroke: red; }
.edge:hover polygon { stroke: red; fill: red; }
]]></style>
<script type="text/javascript"><![CDATA[
var edges = document.getElementsByTagName('g');
if (edges && edges.length) {
  for (var i=0;i<edges.length;i++) {
    if (edges[i].id.substr(0,4)=='edge') {
      edges[i].setAttribute('class','edge');
    }
  }
}
]]></script>
        <defs>
                <circle id="rim" cx="0" cy="0" r="7"/>
                <circle id="rim2" cx="0" cy="0" r="3.5"/>
                <g id="zoomPlus">
                        <use xlink:href="#rim" fill="#404040">
                                <set attributeName="fill" to="#808080" begin="zoomplus.mouseover" end="zoomplus.mouseout"/>
                        </use>
                        <path d="M-4,0h8M0,-4v8" fill="none" stroke="white" stroke-width="1.5" pointer-events="none"/>
                </g>
                <g id="zoomMin">
                        <use xlink:href="#rim" fill="#404040">
                                <set attributeName="fill" to="#808080" begin="zoomminus.mouseover" end="zoomminus.mouseout"/>
                        </use>
                        <path d="M-4,0h8" fill="none" stroke="white" stroke-width="1.5" pointer-events="none"/>
                </g>
                <g id="dirArrow">
                        <path fill="none" stroke="white" stroke-width="1.5" d="M0,-3.0v7 M-2.5,-0.5L0,-3.0L2.5,-0.5"/>
                </g>
               <g id="resetDef">
                       <use xlink:href="#rim2" fill="#404040">
                               <set attributeName="fill" to="#808080" begin="reset.mouseover" end="reset.mouseout"/>
                       </use>
               </g>
        </defs>

<script type="text/javascript">
var viewWidth = 1331;
var viewHeight = 419;
var sectionId = 'dynsection-0';
</script>
<script xlink:href="svgpan.js"/>
<svg id="graph" class="graph">
<g id="viewport">
<title>src/lug/Graphics/Vulkan/API/Fence.cpp</title>
<!-- Node0 -->
<g id="node1" class="node">
<title>Node0</title>
<polygon fill="#bfbfbf" stroke="#000000" points="88.383,-380.5 88.383,-410.5 225.383,-410.5 225.383,-380.5 88.383,-380.5"/>
<text text-anchor="start" x="96.383" y="-398.5" font-family="Helvetica,sans-Serif" font-size="10.00" fill="#000000">src/lug/Graphics/Vulkan</text>
<text text-anchor="middle" x="156.883" y="-387.5" font-family="Helvetica,sans-Serif" font-size="10.00" fill="#000000">/API/Fence.cpp</text>
</g>
<!-- Node1 -->
<g id="node2" class="node">
<title>Node1</title>
<g id="a_node2"><a xlink:href="Fence_8hpp.html" target="_top" xlink:title="lug/Graphics/Vulkan\l/API/Fence.hpp">
<polygon fill="none" stroke="#000000" points="16.883,-179.5 16.883,-209.5 134.883,-209.5 134.883,-179.5 16.883,-179.5"/>
<text text-anchor="start" x="24.883" y="-197.5" font-family="Helvetica,sans-Serif" font-size="10.00" fill="#000000">lug/Graphics/Vulkan</text>
<text text-anchor="middle" x="75.883" y="-186.5" font-family="Helvetica,sans-Serif" font-size="10.00" fill="#000000">/API/Fence.hpp</text>
</a>
</g>
</g>
<!-- Node0&#45;&gt;Node1 -->
<g id="edge1" class="edge">
<title>Node0&#45;&gt;Node1</title>
<path fill="none" stroke="#191970" d="M132.8607,-380.4048C119.0225,-370.9898 101.8572,-358.0223 88.883,-344 64.8529,-318.0287 55.8411,-310.9527 45.883,-277 42.0054,-263.7791 42.2913,-259.3014 45.883,-246 48.4978,-236.3164 53.4339,-226.582 58.5584,-218.2239"/>
<polygon fill="#191970" stroke="#191970" points="61.5481,-220.047 64.0921,-209.7621 55.6896,-216.2158 61.5481,-220.047"/>
</g>
<!-- Node9 -->
<g id="node10" class="node">
<title>Node9</title>
<g id="a_node10"><a xlink:href="Device_8hpp.html" target="_top" xlink:title="lug/Graphics/Vulkan\l/API/Device.hpp">
<polygon fill="none" stroke="#000000" points="97.883,-313.5 97.883,-343.5 215.883,-343.5 215.883,-313.5 97.883,-313.5"/>
<text text-anchor="start" x="105.883" y="-331.5" font-family="Helvetica,sans-Serif" font-size="10.00" fill="#000000">lug/Graphics/Vulkan</text>
<text text-anchor="middle" x="156.883" y="-320.5" font-family="Helvetica,sans-Serif" font-size="10.00" fill="#000000">/API/Device.hpp</text>
</a>
</g>
</g>
<!-- Node0&#45;&gt;Node9 -->
<g id="edge10" class="edge">
<title>Node0&#45;&gt;Node9</title>
<path fill="none" stroke="#191970" d="M156.883,-380.2967C156.883,-372.5013 156.883,-362.7991 156.883,-353.9064"/>
<polygon fill="#191970" stroke="#191970" points="160.3831,-353.6431 156.883,-343.6432 153.3831,-353.6432 160.3831,-353.6431"/>
</g>
<!-- Node15 -->
<g id="node16" class="node">
<title>Node15</title>
<g id="a_node16"><a xlink:href="Logger_8hpp.html" target="_top" xlink:title="lug/System/Logger/Logger.hpp">
<polygon fill="none" stroke="#000000" points="754.883,-252 754.883,-271 926.883,-271 926.883,-252 754.883,-252"/>
<text text-anchor="middle" x="840.883" y="-259" font-family="Helvetica,sans-Serif" font-size="10.00" fill="#000000">lug/System/Logger/Logger.hpp</text>
</a>
</g>
</g>
<!-- Node0&#45;&gt;Node15 -->
<g id="edge23" class="edge">
<title>Node0&#45;&gt;Node15</title>
<path fill="none" stroke="#191970" d="M225.5993,-382.038C360.1752,-355.6738 656.3049,-297.66 782.291,-272.9785"/>
<polygon fill="#191970" stroke="#191970" points="783.0051,-276.4053 792.1457,-271.048 781.6593,-269.5358 783.0051,-276.4053"/>
</g>
<!-- Node2 -->
<g id="node3" class="node">
<title>Node2</title>
<g id="a_node3"><a xlink:href="Graphics_2Export_8hpp.html" target="_top" xlink:title="lug/Graphics/Export.hpp">
<polygon fill="none" stroke="#000000" points="93.883,-56.5 93.883,-75.5 231.883,-75.5 231.883,-56.5 93.883,-56.5"/>
<text text-anchor="middle" x="162.883" y="-63.5" font-family="Helvetica,sans-Serif" font-size="10.00" fill="#000000">lug/Graphics/Export.hpp</text>
</a>
</g>
</g>
<!-- Node1&#45;&gt;Node2 -->
<g id="edge2" class="edge">
<title>Node1&#45;&gt;Node2</title>
<path fill="none" stroke="#191970" d="M86.2047,-179.2548C102.3199,-155.4524 133.3921,-109.5584 150.6229,-84.1084"/>
<polygon fill="#191970" stroke="#191970" points="153.5833,-85.9787 156.2914,-75.7358 147.7868,-82.0542 153.5833,-85.9787"/>
</g>
<!-- Node4 -->
<g id="node5" class="node">
<title>Node4</title>
<g id="a_node5"><a xlink:href="Vulkan_8hpp.html" target="_top" xlink:title="lug/Graphics/Vulkan\l/Vulkan.hpp">
<polygon fill="none" stroke="#000000" points="228.883,-112.5 228.883,-142.5 346.883,-142.5 346.883,-112.5 228.883,-112.5"/>
<text text-anchor="start" x="236.883" y="-130.5" font-family="Helvetica,sans-Serif" font-size="10.00" fill="#000000">lug/Graphics/Vulkan</text>
<text text-anchor="middle" x="287.883" y="-119.5" font-family="Helvetica,sans-Serif" font-size="10.00" fill="#000000">/Vulkan.hpp</text>
</a>
</g>
</g>
<!-- Node1&#45;&gt;Node4 -->
<g id="edge4" class="edge">
<title>Node1&#45;&gt;Node4</title>
<path fill="none" stroke="#191970" d="M123.4599,-179.4639C155.1267,-169.456 196.9099,-156.2509 230.4309,-145.657"/>
<polygon fill="#191970" stroke="#191970" points="231.6181,-148.9525 240.0985,-142.6017 229.5087,-142.2779 231.6181,-148.9525"/>
</g>
<!-- Node3 -->
<g id="node4" class="node">
<title>Node3</title>
<g id="a_node4"><a xlink:href="Config_8hpp.html" target="_top" xlink:title="lug/Config.hpp">
<polygon fill="none" stroke="#000000" points="400.383,-.5 400.383,-19.5 489.383,-19.5 489.383,-.5 400.383,-.5"/>
<text text-anchor="middle" x="444.883" y="-7.5" font-family="Helvetica,sans-Serif" font-size="10.00" fill="#000000">lug/Config.hpp</text>
</a>
</g>
</g>
<!-- Node2&#45;&gt;Node3 -->
<g id="edge3" class="edge">
<title>Node2&#45;&gt;Node3</title>
<path fill="none" stroke="#191970" d="M211.0401,-56.4369C260.7401,-46.5674 338.1441,-31.1964 390.1375,-20.8714"/>
<polygon fill="#191970" stroke="#191970" points="391.0549,-24.2577 400.1816,-18.8769 389.6914,-17.3918 391.0549,-24.2577"/>
</g>
<!-- Node4&#45;&gt;Node2 -->
<g id="edge8" class="edge">
<title>Node4&#45;&gt;Node2</title>
<path fill="none" stroke="#191970" d="M257.3046,-112.4554C237.1798,-102.554 211.0191,-89.683 191.3392,-80.0004"/>
<polygon fill="#191970" stroke="#191970" points="192.7715,-76.8045 182.2536,-75.5303 189.6812,-83.0855 192.7715,-76.8045"/>
</g>
<!-- Node5 -->
<g id="node6" class="node">
<title>Node5</title>
<polygon fill="none" stroke="#bfbfbf" points="508.383,-56.5 508.383,-75.5 603.383,-75.5 603.383,-56.5 508.383,-56.5"/>
<text text-anchor="middle" x="555.883" y="-63.5" font-family="Helvetica,sans-Serif" font-size="10.00" fill="#000000">unordered_map</text>
</g>
<!-- Node4&#45;&gt;Node5 -->
<g id="edge5" class="edge">
<title>Node4&#45;&gt;Node5</title>
<path fill="none" stroke="#191970" d="M347.0285,-113.9274C394.1769,-103.1079 459.5293,-88.111 504.5092,-77.7891"/>
<polygon fill="#191970" stroke="#191970" points="505.3847,-81.1793 514.3485,-75.5312 503.819,-74.3566 505.3847,-81.1793"/>
</g>
<!-- Node6 -->
<g id="node7" class="node">
<title>Node6</title>
<polygon fill="none" stroke="#bfbfbf" points="441.883,-56.5 441.883,-75.5 489.883,-75.5 489.883,-56.5 441.883,-56.5"/>
<text text-anchor="middle" x="465.883" y="-63.5" font-family="Helvetica,sans-Serif" font-size="10.00" fill="#000000">vector</text>
</g>
<!-- Node4&#45;&gt;Node6 -->
<g id="edge6" class="edge">
<title>Node4&#45;&gt;Node6</title>
<path fill="none" stroke="#191970" d="M331.4267,-112.4554C362.3615,-101.7672 403.3118,-87.6187 431.8582,-77.7558"/>
<polygon fill="#191970" stroke="#191970" points="433.0926,-81.0324 441.4013,-74.4586 430.8066,-74.4161 433.0926,-81.0324"/>
</g>
<!-- Node7 -->
<g id="node8" class="node">
<title>Node7</title>
<polygon fill="none" stroke="#bfbfbf" points="249.883,-56.5 249.883,-75.5 307.883,-75.5 307.883,-56.5 249.883,-56.5"/>
<text text-anchor="middle" x="278.883" y="-63.5" font-family="Helvetica,sans-Serif" font-size="10.00" fill="#000000">ostream</text>
</g>
<!-- Node4&#45;&gt;Node7 -->
<g id="edge7" class="edge">
<title>Node4&#45;&gt;Node7</title>
<path fill="none" stroke="#191970" d="M285.6583,-112.2977C284.4871,-104.2945 283.0368,-94.3843 281.7789,-85.7889"/>
<polygon fill="#191970" stroke="#191970" points="285.2352,-85.2347 280.324,-75.8469 278.309,-86.2484 285.2352,-85.2347"/>
</g>
<!-- Node8 -->
<g id="node9" class="node">
<title>Node8</title>
<polygon fill="none" stroke="#bfbfbf" points="326.383,-56.5 326.383,-75.5 423.383,-75.5 423.383,-56.5 326.383,-56.5"/>
<text text-anchor="middle" x="374.883" y="-63.5" font-family="Helvetica,sans-Serif" font-size="10.00" fill="#000000">vulkan/vulkan.h</text>
</g>
<!-- Node4&#45;&gt;Node8 -->
<g id="edge9" class="edge">
<title>Node4&#45;&gt;Node8</title>
<path fill="none" stroke="#191970" d="M309.3886,-112.2977C322.6798,-102.9022 339.6887,-90.8787 353.0418,-81.4395"/>
<polygon fill="#191970" stroke="#191970" points="355.0675,-84.2937 361.213,-75.6633 351.0269,-78.5776 355.0675,-84.2937"/>
</g>
<!-- Node9&#45;&gt;Node2 -->
<g id="edge11" class="edge">
<title>Node9&#45;&gt;Node2</title>
<path fill="none" stroke="#191970" d="M108.1957,-313.4733C87.231,-305.2095 63.5352,-293.2688 45.883,-277 11.5317,-245.3408 -13.2914,-220.6409 7.883,-179 32.9628,-129.6788 90.7801,-96.7793 128.2748,-79.7612"/>
<polygon fill="#191970" stroke="#191970" points="130.0521,-82.8034 137.8018,-75.579 127.2384,-76.3938 130.0521,-82.8034"/>
</g>
<!-- Node9&#45;&gt;Node4 -->
<g id="edge21" class="edge">
<title>Node9&#45;&gt;Node4</title>
<path fill="none" stroke="#191970" d="M164.6536,-313.3292C169.7655,-303.1517 176.4837,-289.3915 181.883,-277 200.5435,-234.1735 191.751,-216.2949 219.883,-179 228.8534,-167.1079 241.2725,-156.6103 253.0454,-148.2473"/>
<polygon fill="#191970" stroke="#191970" points="255.137,-151.0578 261.4451,-142.5456 251.2055,-145.266 255.137,-151.0578"/>
</g>
<!-- Node10 -->
<g id="node11" class="node">
<title>Node10</title>
<g id="a_node11"><a xlink:href="QueueFamily_8hpp.html" target="_top" xlink:title="lug/Graphics/Vulkan\l/API/QueueFamily.hpp">
<polygon fill="none" stroke="#000000" points="295.883,-246.5 295.883,-276.5 423.883,-276.5 423.883,-246.5 295.883,-246.5"/>
<text text-anchor="start" x="303.883" y="-264.5" font-family="Helvetica,sans-Serif" font-size="10.00" fill="#000000">lug/Graphics/Vulkan</text>
<text text-anchor="middle" x="359.883" y="-253.5" font-family="Helvetica,sans-Serif" font-size="10.00" fill="#000000">/API/QueueFamily.hpp</text>
</a>
</g>
</g>
<!-- Node9&#45;&gt;Node10 -->
<g id="edge12" class="edge">
<title>Node9&#45;&gt;Node10</title>
<path fill="none" stroke="#191970" d="M202.4402,-313.4639C232.6324,-303.499 272.4287,-290.3642 304.4562,-279.7936"/>
<polygon fill="#191970" stroke="#191970" points="305.728,-283.0596 314.1271,-276.6017 303.534,-276.4123 305.728,-283.0596"/>
</g>
<!-- Node14 -->
<g id="node15" class="node">
<title>Node14</title>
<g id="a_node15"><a xlink:href="Device_8inl.html" target="_top" xlink:title="lug/Graphics/Vulkan\l/API/Device.inl">
<polygon fill="none" stroke="#000000" points="54.883,-246.5 54.883,-276.5 172.883,-276.5 172.883,-246.5 54.883,-246.5"/>
<text text-anchor="start" x="62.883" y="-264.5" font-family="Helvetica,sans-Serif" font-size="10.00" fill="#000000">lug/Graphics/Vulkan</text>
<text text-anchor="middle" x="113.883" y="-253.5" font-family="Helvetica,sans-Serif" font-size="10.00" fill="#000000">/API/Device.inl</text>
</a>
</g>
</g>
<!-- Node9&#45;&gt;Node14 -->
<g id="edge22" class="edge">
<title>Node9&#45;&gt;Node14</title>
<path fill="none" stroke="#191970" d="M147.1256,-313.2967C141.7927,-304.9873 135.0694,-294.5115 129.0669,-285.1587"/>
<polygon fill="#191970" stroke="#191970" points="131.9486,-283.1686 123.6017,-276.6432 126.0575,-286.9495 131.9486,-283.1686"/>
</g>
<!-- Node10&#45;&gt;Node2 -->
<g id="edge15" class="edge">
<title>Node10&#45;&gt;Node2</title>
<path fill="none" stroke="#191970" d="M295.7683,-249.5556C269.6038,-241.9442 240.6769,-229.661 219.883,-210 183.8647,-175.9442 170.1624,-116.2577 165.3141,-85.5187"/>
<polygon fill="#191970" stroke="#191970" points="168.7773,-85.0119 163.9035,-75.6046 161.8471,-85.9979 168.7773,-85.0119"/>
</g>
<!-- Node10&#45;&gt;Node5 -->
<g id="edge13" class="edge">
<title>Node10&#45;&gt;Node5</title>
<path fill="none" stroke="#191970" d="M424.2522,-246.7659C461.2016,-237.093 502.7968,-223.7288 515.883,-210 548.7427,-175.5269 555.0452,-116.46 555.9807,-85.7887"/>
<polygon fill="#191970" stroke="#191970" points="559.4837,-85.5812 556.1206,-75.5344 552.4844,-85.4856 559.4837,-85.5812"/>
</g>
<!-- Node10&#45;&gt;Node6 -->
<g id="edge14" class="edge">
<title>Node10&#45;&gt;Node6</title>
<path fill="none" stroke="#191970" d="M418.4012,-246.4977C450.8228,-236.8745 486.4496,-223.6592 495.883,-210 522.6108,-171.2988 495.3515,-113.7489 477.9528,-84.504"/>
<polygon fill="#191970" stroke="#191970" points="480.7646,-82.3967 472.5226,-75.7393 474.8141,-86.0834 480.7646,-82.3967"/>
</g>
<!-- Node11 -->
<g id="node12" class="node">
<title>Node11</title>
<g id="a_node12"><a xlink:href="Vulkan_2API_2Queue_8hpp.html" target="_top" xlink:title="lug/Graphics/Vulkan\l/API/Queue.hpp">
<polygon fill="none" stroke="#000000" points="228.883,-179.5 228.883,-209.5 346.883,-209.5 346.883,-179.5 228.883,-179.5"/>
<text text-anchor="start" x="236.883" y="-197.5" font-family="Helvetica,sans-Serif" font-size="10.00" fill="#000000">lug/Graphics/Vulkan</text>
<text text-anchor="middle" x="287.883" y="-186.5" font-family="Helvetica,sans-Serif" font-size="10.00" fill="#000000">/API/Queue.hpp</text>
</a>
</g>
</g>
<!-- Node10&#45;&gt;Node11 -->
<g id="edge16" class="edge">
<title>Node10&#45;&gt;Node11</title>
<path fill="none" stroke="#191970" d="M343.5451,-246.2967C334.1553,-237.559 322.1912,-226.4257 311.7632,-216.7218"/>
<polygon fill="#191970" stroke="#191970" points="313.8613,-213.8933 304.1563,-209.6432 309.0926,-219.0178 313.8613,-213.8933"/>
</g>
<!-- Node13 -->
<g id="node14" class="node">
<title>Node13</title>
<g id="a_node14"><a xlink:href="QueueFamily_8inl.html" target="_top" xlink:title="lug/Graphics/Vulkan\l/API/QueueFamily.inl">
<polygon fill="none" stroke="#000000" points="364.883,-179.5 364.883,-209.5 486.883,-209.5 486.883,-179.5 364.883,-179.5"/>
<text text-anchor="start" x="372.883" y="-197.5" font-family="Helvetica,sans-Serif" font-size="10.00" fill="#000000">lug/Graphics/Vulkan</text>
<text text-anchor="middle" x="425.883" y="-186.5" font-family="Helvetica,sans-Serif" font-size="10.00" fill="#000000">/API/QueueFamily.inl</text>
</a>
</g>
</g>
<!-- Node10&#45;&gt;Node13 -->
<g id="edge20" class="edge">
<title>Node10&#45;&gt;Node13</title>
<path fill="none" stroke="#191970" d="M374.8594,-246.2967C383.3823,-237.6446 394.219,-226.6438 403.7113,-217.0076"/>
<polygon fill="#191970" stroke="#191970" points="406.4415,-219.2234 410.9658,-209.6432 401.4547,-214.311 406.4415,-219.2234"/>
</g>
<!-- Node11&#45;&gt;Node2 -->
<g id="edge17" class="edge">
<title>Node11&#45;&gt;Node2</title>
<path fill="none" stroke="#191970" d="M264.5188,-179.3008C250.7453,-169.7541 233.4214,-156.6875 219.883,-143 201.8928,-124.8116 184.9439,-100.6828 174.2794,-84.3178"/>
<polygon fill="#191970" stroke="#191970" points="177.0977,-82.228 168.7661,-75.6831 171.1978,-85.9951 177.0977,-82.228"/>
</g>
<!-- Node11&#45;&gt;Node4 -->
<g id="edge18" class="edge">
<title>Node11&#45;&gt;Node4</title>
<path fill="none" stroke="#191970" d="M287.883,-179.2967C287.883,-171.5013 287.883,-161.7991 287.883,-152.9064"/>
<polygon fill="#191970" stroke="#191970" points="291.3831,-152.6431 287.883,-142.6432 284.3831,-152.6432 291.3831,-152.6431"/>
</g>
<!-- Node12 -->
<g id="node13" class="node">
<title>Node12</title>
<polygon fill="none" stroke="#bfbfbf" points="364.883,-118 364.883,-137 412.883,-137 412.883,-118 364.883,-118"/>
<text text-anchor="middle" x="388.883" y="-125" font-family="Helvetica,sans-Serif" font-size="10.00" fill="#000000">mutex</text>
</g>
<!-- Node11&#45;&gt;Node12 -->
<g id="edge19" class="edge">
<title>Node11&#45;&gt;Node12</title>
<path fill="none" stroke="#191970" d="M310.5494,-179.4639C327.0379,-168.526 349.2834,-153.769 365.8552,-142.7759"/>
<polygon fill="#191970" stroke="#191970" points="368.007,-145.5485 374.4054,-137.1039 364.1375,-139.7153 368.007,-145.5485"/>
</g>
<!-- Node16 -->
<g id="node17" class="node">
<title>Node16</title>
<polygon fill="none" stroke="#bfbfbf" points="688.383,-118 688.383,-137 747.383,-137 747.383,-118 688.383,-118"/>
<text text-anchor="middle" x="717.883" y="-125" font-family="Helvetica,sans-Serif" font-size="10.00" fill="#000000">memory</text>
</g>
<!-- Node15&#45;&gt;Node16 -->
<g id="edge24" class="edge">
<title>Node15&#45;&gt;Node16</title>
<path fill="none" stroke="#191970" d="M832.0371,-251.8631C811.3817,-229.3603 759.75,-173.1112 733.5951,-144.6173"/>
<polygon fill="#191970" stroke="#191970" points="735.9894,-142.0498 726.6487,-137.0496 730.8325,-146.7834 735.9894,-142.0498"/>
</g>
<!-- Node17 -->
<g id="node18" class="node">
<title>Node17</title>
<polygon fill="none" stroke="#bfbfbf" points="1106.883,-185 1106.883,-204 1138.883,-204 1138.883,-185 1106.883,-185"/>
<text text-anchor="middle" x="1122.883" y="-192" font-family="Helvetica,sans-Serif" font-size="10.00" fill="#000000">set</text>
</g>
<!-- Node15&#45;&gt;Node17 -->
<g id="edge25" class="edge">
<title>Node15&#45;&gt;Node17</title>
<path fill="none" stroke="#191970" d="M924.4588,-251.9821C975.4842,-244.4024 1041.3659,-231.4089 1096.883,-210 1097.7625,-209.6608 1098.6464,-209.2931 1099.5298,-208.9025"/>
<polygon fill="#191970" stroke="#191970" points="1101.4979,-211.8237 1108.7492,-204.0991 1098.2634,-205.6157 1101.4979,-211.8237"/>
</g>
<!-- Node18 -->
<g id="node19" class="node">
<title>Node18</title>
<polygon fill="none" stroke="#bfbfbf" points="766.383,-118 766.383,-137 811.383,-137 811.383,-118 766.383,-118"/>
<text text-anchor="middle" x="788.883" y="-125" font-family="Helvetica,sans-Serif" font-size="10.00" fill="#000000">string</text>
</g>
<!-- Node15&#45;&gt;Node18 -->
<g id="edge26" class="edge">
<title>Node15&#45;&gt;Node18</title>
<path fill="none" stroke="#191970" d="M837.1433,-251.8631C828.5983,-229.8432 807.5137,-175.5098 796.252,-146.4894"/>
<polygon fill="#191970" stroke="#191970" points="799.4696,-145.1061 792.5888,-137.0496 792.9437,-147.6385 799.4696,-145.1061"/>
</g>
<!-- Node19 -->
<g id="node20" class="node">
<title>Node19</title>
<g id="a_node20"><a xlink:href="System_2Export_8hpp.html" target="_top" xlink:title="lug/System/Export.hpp">
<polygon fill="none" stroke="#000000" points="693.883,-56.5 693.883,-75.5 825.883,-75.5 825.883,-56.5 693.883,-56.5"/>
<text text-anchor="middle" x="759.883" y="-63.5" font-family="Helvetica,sans-Serif" font-size="10.00" fill="#000000">lug/System/Export.hpp</text>
</a>
</g>
</g>
<!-- Node15&#45;&gt;Node19 -->
<g id="edge27" class="edge">
<title>Node15&#45;&gt;Node19</title>
<path fill="none" stroke="#191970" d="M841.9063,-251.9558C844.109,-227.0215 847.0908,-158.6355 819.883,-112 812.3984,-99.1711 799.8078,-88.6959 788.0873,-81.0003"/>
<polygon fill="#191970" stroke="#191970" points="789.7467,-77.9121 779.3931,-75.6641 786.0851,-83.8781 789.7467,-77.9121"/>
</g>
<!-- Node20 -->
<g id="node21" class="node">
<title>Node20</title>
<g id="a_node21"><a xlink:href="Common_8hpp.html" target="_top" xlink:title="lug/System/Logger/Common.hpp">
<polygon fill="none" stroke="#000000" points="868.883,-118 868.883,-137 1050.883,-137 1050.883,-118 868.883,-118"/>
<text text-anchor="middle" x="959.883" y="-125" font-family="Helvetica,sans-Serif" font-size="10.00" fill="#000000">lug/System/Logger/Common.hpp</text>
</a>
</g>
</g>
<!-- Node15&#45;&gt;Node20 -->
<g id="edge29" class="edge">
<title>Node15&#45;&gt;Node20</title>
<path fill="none" stroke="#191970" d="M846.2835,-251.9847C855.621,-235.9669 875.9047,-203.0161 897.883,-179 910.0872,-165.6643 925.7629,-152.673 938.2985,-143.0746"/>
<polygon fill="#191970" stroke="#191970" points="940.4897,-145.8063 946.394,-137.0091 936.2924,-140.2042 940.4897,-145.8063"/>
</g>
<!-- Node23 -->
<g id="node24" class="node">
<title>Node23</title>
<g id="a_node24"><a xlink:href="LoggingFacility_8hpp.html" target="_top" xlink:title="lug/System/Logger/Logging\lFacility.hpp">
<polygon fill="none" stroke="#000000" points="581.383,-179.5 581.383,-209.5 736.383,-209.5 736.383,-179.5 581.383,-179.5"/>
<text text-anchor="start" x="589.383" y="-197.5" font-family="Helvetica,sans-Serif" font-size="10.00" fill="#000000">lug/System/Logger/Logging</text>
<text text-anchor="middle" x="658.883" y="-186.5" font-family="Helvetica,sans-Serif" font-size="10.00" fill="#000000">Facility.hpp</text>
</a>
</g>
</g>
<!-- Node15&#45;&gt;Node23 -->
<g id="edge33" class="edge">
<title>Node15&#45;&gt;Node23</title>
<path fill="none" stroke="#191970" d="M814.8068,-251.9005C787.4322,-241.8231 743.7022,-225.7247 709.5102,-213.1375"/>
<polygon fill="#191970" stroke="#191970" points="710.2819,-209.692 699.6884,-209.5218 707.8635,-216.261 710.2819,-209.692"/>
</g>
<!-- Node24 -->
<g id="node25" class="node">
<title>Node24</title>
<g id="a_node25"><a xlink:href="Message_8hpp.html" target="_top" xlink:title="lug/System/Logger/Message.hpp">
<polygon fill="none" stroke="#000000" points="907.383,-185 907.383,-204 1088.383,-204 1088.383,-185 907.383,-185"/>
<text text-anchor="middle" x="997.883" y="-192" font-family="Helvetica,sans-Serif" font-size="10.00" fill="#000000">lug/System/Logger/Message.hpp</text>
</a>
</g>
</g>
<!-- Node15&#45;&gt;Node24 -->
<g id="edge38" class="edge">
<title>Node15&#45;&gt;Node24</title>
<path fill="none" stroke="#191970" d="M863.3773,-251.9005C890.3083,-240.4077 935.5897,-221.0838 966.0894,-208.068"/>
<polygon fill="#191970" stroke="#191970" points="967.6067,-211.2259 975.4304,-204.0817 964.8592,-204.7876 967.6067,-211.2259"/>
</g>
<!-- Node25 -->
<g id="node26" class="node">
<title>Node25</title>
<g id="a_node26"><a xlink:href="Logger_8inl.html" target="_top" xlink:title="lug/System/Logger/Logger.inl">
<polygon fill="none" stroke="#000000" points="1156.883,-185 1156.883,-204 1322.883,-204 1322.883,-185 1156.883,-185"/>
<text text-anchor="middle" x="1239.883" y="-192" font-family="Helvetica,sans-Serif" font-size="10.00" fill="#000000">lug/System/Logger/Logger.inl</text>
</a>
</g>
</g>
<!-- Node15&#45;&gt;Node25 -->
<g id="edge40" class="edge">
<title>Node15&#45;&gt;Node25</title>
<path fill="none" stroke="#191970" d="M897.7497,-251.9728C959.3772,-241.6451 1060.6117,-224.6716 1147.883,-210 1156.1491,-208.6103 1164.8327,-207.1491 1173.4273,-205.7021"/>
<polygon fill="#191970" stroke="#191970" points="1174.1654,-209.1271 1183.4453,-204.015 1173.0029,-202.2243 1174.1654,-209.1271"/>
</g>
<!-- Node19&#45;&gt;Node3 -->
<g id="edge28" class="edge">
<title>Node19&#45;&gt;Node3</title>
<path fill="none" stroke="#191970" d="M706.0905,-56.4369C648.5699,-46.211 557.8281,-30.0791 499.8573,-19.7732"/>
<polygon fill="#191970" stroke="#191970" points="500.2423,-16.2869 489.7841,-17.9824 499.0171,-23.1788 500.2423,-16.2869"/>
</g>
<!-- Node20&#45;&gt;Node19 -->
<g id="edge30" class="edge">
<title>Node20&#45;&gt;Node19</title>
<path fill="none" stroke="#191970" d="M928.633,-117.8906C894.1419,-107.2846 838.5018,-90.1753 800.6168,-78.5257"/>
<polygon fill="#191970" stroke="#191970" points="801.5006,-75.1357 790.9136,-75.5419 799.4431,-81.8266 801.5006,-75.1357"/>
</g>
<!-- Node21 -->
<g id="node22" class="node">
<title>Node21</title>
<polygon fill="none" stroke="#bfbfbf" points="970.883,-56.5 970.883,-75.5 1052.883,-75.5 1052.883,-56.5 970.883,-56.5"/>
<text text-anchor="middle" x="1011.883" y="-63.5" font-family="Helvetica,sans-Serif" font-size="10.00" fill="#000000">fmt/format.h</text>
</g>
<!-- Node20&#45;&gt;Node21 -->
<g id="edge31" class="edge">
<title>Node20&#45;&gt;Node21</title>
<path fill="none" stroke="#191970" d="M968.008,-117.8906C975.7472,-108.7376 987.5817,-94.7409 997.0102,-83.59"/>
<polygon fill="#191970" stroke="#191970" points="999.8594,-85.6409 1003.6434,-75.7449 994.5141,-81.1213 999.8594,-85.6409"/>
</g>
<!-- Node22 -->
<g id="node23" class="node">
<title>Node22</title>
<polygon fill="none" stroke="#bfbfbf" points="863.383,-56.5 863.383,-75.5 952.383,-75.5 952.383,-56.5 863.383,-56.5"/>
<text text-anchor="middle" x="907.883" y="-63.5" font-family="Helvetica,sans-Serif" font-size="10.00" fill="#000000">fmt/ostream.h</text>
</g>
<!-- Node20&#45;&gt;Node22 -->
<g id="edge32" class="edge">
<title>Node20&#45;&gt;Node22</title>
<path fill="none" stroke="#191970" d="M951.758,-117.8906C944.0188,-108.7376 932.1842,-94.7409 922.7558,-83.59"/>
<polygon fill="#191970" stroke="#191970" points="925.2519,-81.1213 916.1225,-75.7449 919.9065,-85.6409 925.2519,-81.1213"/>
</g>
<!-- Node23&#45;&gt;Node5 -->
<g id="edge36" class="edge">
<title>Node23&#45;&gt;Node5</title>
<path fill="none" stroke="#191970" d="M646.6631,-179.2548C627.5005,-155.3481 590.4745,-109.1554 570.1304,-83.7747"/>
<polygon fill="#191970" stroke="#191970" points="572.6721,-81.3495 563.6868,-75.7358 567.2102,-85.7276 572.6721,-81.3495"/>
</g>
<!-- Node23&#45;&gt;Node16 -->
<g id="edge35" class="edge">
<title>Node23&#45;&gt;Node16</title>
<path fill="none" stroke="#191970" d="M672.271,-179.2967C681.285,-169.0605 693.1941,-155.5366 702.583,-144.8746"/>
<polygon fill="#191970" stroke="#191970" points="705.4868,-146.873 709.4689,-137.055 700.2333,-142.2468 705.4868,-146.873"/>
</g>
<!-- Node23&#45;&gt;Node18 -->
<g id="edge34" class="edge">
<title>Node23&#45;&gt;Node18</title>
<path fill="none" stroke="#191970" d="M688.0575,-179.4639C709.9681,-168.1715 739.7768,-152.8086 761.2935,-141.7192"/>
<polygon fill="#191970" stroke="#191970" points="762.963,-144.7963 770.2485,-137.1039 759.7562,-138.5741 762.963,-144.7963"/>
</g>
<!-- Node23&#45;&gt;Node19 -->
<g id="edge37" class="edge">
<title>Node23&#45;&gt;Node19</title>
<path fill="none" stroke="#191970" d="M659.047,-179.282C659.9747,-161.4709 663.8877,-131.887 678.883,-112 689.6874,-97.6711 706.3447,-87.1213 721.7507,-79.7666"/>
<polygon fill="#191970" stroke="#191970" points="723.4067,-82.8606 731.1178,-75.595 720.5588,-76.466 723.4067,-82.8606"/>
</g>
<!-- Node24&#45;&gt;Node20 -->
<g id="edge39" class="edge">
<title>Node24&#45;&gt;Node20</title>
<path fill="none" stroke="#191970" d="M992.4385,-184.9005C986.6821,-174.751 977.4617,-158.4941 970.3006,-145.8679"/>
<polygon fill="#191970" stroke="#191970" points="973.2952,-144.0533 965.3174,-137.0817 967.2064,-147.5067 973.2952,-144.0533"/>
</g>
</g>
</svg>
        <g id="navigator" transform="translate(0 0)" fill="#404254">
                <rect fill="#f2f5e9" fill-opacity="0.5" stroke="#606060" stroke-width=".5" x="0" y="0" width="60" height="60"/>
                <use id="zoomplus" xlink:href="#zoomPlus" x="17" y="9" onmousedown="handleZoom(evt,'in')"/>
                <use id="zoomminus" xlink:href="#zoomMin" x="42" y="9" onmousedown="handleZoom(evt,'out')"/>
                <use id="reset" xlink:href="#resetDef" x="30" y="36" onmousedown="handleReset()"/>
                <g id="arrowUp" xlink:href="#dirArrow" transform="translate(30 24)" onmousedown="handlePan(0,-1)">
                  <use xlink:href="#rim" fill="#404040">
                        <set attributeName="fill" to="#808080" begin="arrowUp.mouseover" end="arrowUp.mouseout"/>
                  </use>
                  <path fill="none" stroke="white" stroke-width="1.5" d="M0,-3.0v7 M-2.5,-0.5L0,-3.0L2.5,-0.5"/>
                </g>
                <g id="arrowRight" xlink:href="#dirArrow" transform="rotate(90) translate(36 -43)" onmousedown="handlePan(1,0)">
                  <use xlink:href="#rim" fill="#404040">
                        <set attributeName="fill" to="#808080" begin="arrowRight.mouseover" end="arrowRight.mouseout"/>
                  </use>
                  <path fill="none" stroke="white" stroke-width="1.5" d="M0,-3.0v7 M-2.5,-0.5L0,-3.0L2.5,-0.5"/>
                </g>
                <g id="arrowDown" xlink:href="#dirArrow" transform="rotate(180) translate(-30 -48)" onmousedown="handlePan(0,1)">
                  <use xlink:href="#rim" fill="#404040">
                        <set attributeName="fill" to="#808080" begin="arrowDown.mouseover" end="arrowDown.mouseout"/>
                  </use>
                  <path fill="none" stroke="white" stroke-width="1.5" d="M0,-3.0v7 M-2.5,-0.5L0,-3.0L2.5,-0.5"/>
                </g>
                <g id="arrowLeft" xlink:href="#dirArrow" transform="rotate(270) translate(-36 17)" onmousedown="handlePan(-1,0)">
                  <use xlink:href="#rim" fill="#404040">
                        <set attributeName="fill" to="#808080" begin="arrowLeft.mouseover" end="arrowLeft.mouseout"/>
                  </use>
                  <path fill="none" stroke="white" stroke-width="1.5" d="M0,-3.0v7 M-2.5,-0.5L0,-3.0L2.5,-0.5"/>
                </g>
        </g>
        <svg viewBox="0 0 15 15" width="100%" height="30px" preserveAspectRatio="xMaxYMin meet">
         <g id="arrow_out" transform="scale(0.3 0.3)">
          <a xlink:href="Fence_8cpp__incl_org.svg" target="_base">
           <rect id="button" ry="5" rx="5" y="6" x="6" height="38" width="38"
                fill="#f2f5e9" fill-opacity="0.5" stroke="#606060" stroke-width="1.0"/>
           <path id="arrow"
             d="M 11.500037,31.436501 C 11.940474,20.09759 22.043105,11.32322 32.158766,21.979434 L 37.068811,17.246167 C 37.068811,17.246167 37.088388,32 37.088388,32 L 22.160133,31.978069 C 22.160133,31.978069 26.997745,27.140456 26.997745,27.140456 C 18.528582,18.264221 13.291696,25.230495 11.500037,31.436501 z"
             style="fill:#404040;"/>
          </a>
         </g>
        </svg>
</svg>
