<?xml version="1.0" encoding="UTF-8" standalone="no"?>
<!DOCTYPE svg PUBLIC "-//W3C//DTD SVG 1.1//EN"
 "http://www.w3.org/Graphics/SVG/1.1/DTD/svg11.dtd">
<!-- Generated by graphviz version 2.40.1 (20161225.0304)
 -->
<!-- Title: include/lug/System/Logger/Formatter.hpp Pages: 1 -->
<svg width="946pt" height="240pt"
 viewBox="0.00 0.00 946.00 240.00" xmlns="http://www.w3.org/2000/svg" xmlns:xlink="http://www.w3.org/1999/xlink">
<g id="graph0" class="graph" transform="scale(1 1) rotate(0) translate(4 236)">
<title>include/lug/System/Logger/Formatter.hpp</title>
<!-- Node7 -->
<g id="node1" class="node">
<title>Node7</title>
<polygon fill="#bfbfbf" stroke="#000000" points="702,-201.5 702,-231.5 833,-231.5 833,-201.5 702,-201.5"/>
<text text-anchor="start" x="710" y="-219.5" font-family="Helvetica,sans-Serif" font-size="10.00" fill="#000000">include/lug/System</text>
<text text-anchor="middle" x="767.5" y="-208.5" font-family="Helvetica,sans-Serif" font-size="10.00" fill="#000000">/Logger/Formatter.hpp</text>
</g>
<!-- Node8 -->
<g id="node2" class="node">
<title>Node8</title>
<g id="a_node2"><a xlink:href="Handler_8hpp.html" target="_top" xlink:title="include/lug/System\l/Logger/Handler.hpp">
<polygon fill="none" stroke="#000000" points="514.5,-134.5 514.5,-164.5 634.5,-164.5 634.5,-134.5 514.5,-134.5"/>
<text text-anchor="start" x="522.5" y="-152.5" font-family="Helvetica,sans-Serif" font-size="10.00" fill="#000000">include/lug/System</text>
<text text-anchor="middle" x="574.5" y="-141.5" font-family="Helvetica,sans-Serif" font-size="10.00" fill="#000000">/Logger/Handler.hpp</text>
</a>
</g>
</g>
<!-- Node7&#45;&gt;Node8 -->
<g id="edge1" class="edge">
<title>Node7&#45;&gt;Node8</title>
<path fill="none" stroke="#191970" d="M714.61,-198.1392C684.2604,-187.6033 646.6229,-174.5375 618.0019,-164.6017"/>
<polygon fill="#191970" stroke="#191970" points="713.5922,-201.4907 724.187,-201.4639 715.8879,-194.8779 713.5922,-201.4907"/>
</g>
<!-- Node15 -->
<g id="node9" class="node">
<title>Node15</title>
<g id="a_node9"><a xlink:href="Handler_8cpp.html" target="_top" xlink:title="src/lug/System/Logger\l/Handler.cpp">
<polygon fill="none" stroke="#000000" points="807,-67.5 807,-97.5 938,-97.5 938,-67.5 807,-67.5"/>
<text text-anchor="start" x="815" y="-85.5" font-family="Helvetica,sans-Serif" font-size="10.00" fill="#000000">src/lug/System/Logger</text>
<text text-anchor="middle" x="872.5" y="-74.5" font-family="Helvetica,sans-Serif" font-size="10.00" fill="#000000">/Handler.cpp</text>
</a>
</g>
</g>
<!-- Node7&#45;&gt;Node15 -->
<g id="edge12" class="edge">
<title>Node7&#45;&gt;Node15</title>
<path fill="none" stroke="#191970" d="M768.2147,-191.2667C769.8525,-173.7392 774.4013,-150.6358 786.5,-134 798.1689,-117.9552 816.4993,-105.9877 833.2443,-97.6478"/>
<polygon fill="#191970" stroke="#191970" points="764.7155,-191.1376 767.5296,-201.3518 771.6994,-191.612 764.7155,-191.1376"/>
</g>
<!-- Node18 -->
<g id="node12" class="node">
<title>Node18</title>
<g id="a_node12"><a xlink:href="Formatter_8cpp.html" target="_top" xlink:title="src/lug/System/Logger\l/Formatter.cpp">
<polygon fill="none" stroke="#000000" points="796,-134.5 796,-164.5 927,-164.5 927,-134.5 796,-134.5"/>
<text text-anchor="start" x="804" y="-152.5" font-family="Helvetica,sans-Serif" font-size="10.00" fill="#000000">src/lug/System/Logger</text>
<text text-anchor="middle" x="861.5" y="-141.5" font-family="Helvetica,sans-Serif" font-size="10.00" fill="#000000">/Formatter.cpp</text>
</a>
</g>
</g>
<!-- Node7&#45;&gt;Node18 -->
<g id="edge11" class="edge">
<title>Node7&#45;&gt;Node18</title>
<path fill="none" stroke="#191970" d="M797.1775,-195.3469C811.1643,-185.3776 827.5308,-173.7121 840.2544,-164.6432"/>
<polygon fill="#191970" stroke="#191970" points="794.9418,-192.6423 788.8301,-201.2967 799.0047,-198.3426 794.9418,-192.6423"/>
</g>
<!-- Node9 -->
<g id="node3" class="node">
<title>Node9</title>
<g id="a_node3"><a xlink:href="FileHandler_8hpp.html" target="_top" xlink:title="include/lug/System\l/Logger/FileHandler.hpp">
<polygon fill="none" stroke="#000000" points="0,-67.5 0,-97.5 137,-97.5 137,-67.5 0,-67.5"/>
<text text-anchor="start" x="8" y="-85.5" font-family="Helvetica,sans-Serif" font-size="10.00" fill="#000000">include/lug/System</text>
<text text-anchor="middle" x="68.5" y="-74.5" font-family="Helvetica,sans-Serif" font-size="10.00" fill="#000000">/Logger/FileHandler.hpp</text>
</a>
</g>
</g>
<!-- Node8&#45;&gt;Node9 -->
<g id="edge2" class="edge">
<title>Node8&#45;&gt;Node9</title>
<path fill="none" stroke="#191970" d="M504.3558,-142.7214C419.3901,-134.1277 272.0327,-117.9953 146.5,-98 143.5004,-97.5222 140.4403,-97.0121 137.3523,-96.4787"/>
<polygon fill="#191970" stroke="#191970" points="504.1025,-146.2135 514.4025,-143.7318 504.803,-139.2486 504.1025,-146.2135"/>
</g>
<!-- Node11 -->
<g id="node5" class="node">
<title>Node11</title>
<g id="a_node5"><a xlink:href="LogCatHandler_8hpp.html" target="_top" xlink:title="include/lug/System\l/Logger/LogCatHandler.hpp">
<polygon fill="none" stroke="#000000" points="155.5,-67.5 155.5,-97.5 309.5,-97.5 309.5,-67.5 155.5,-67.5"/>
<text text-anchor="start" x="163.5" y="-85.5" font-family="Helvetica,sans-Serif" font-size="10.00" fill="#000000">include/lug/System</text>
<text text-anchor="middle" x="232.5" y="-74.5" font-family="Helvetica,sans-Serif" font-size="10.00" fill="#000000">/Logger/LogCatHandler.hpp</text>
</a>
</g>
</g>
<!-- Node8&#45;&gt;Node11 -->
<g id="edge4" class="edge">
<title>Node8&#45;&gt;Node11</title>
<path fill="none" stroke="#191970" d="M504.1831,-135.7245C447.4482,-124.6097 367.747,-108.9958 309.3405,-97.5536"/>
<polygon fill="#191970" stroke="#191970" points="503.6582,-139.1881 514.1445,-137.676 505.004,-132.3187 503.6582,-139.1881"/>
</g>
<!-- Node13 -->
<g id="node7" class="node">
<title>Node13</title>
<g id="a_node7"><a xlink:href="OstreamHandler_8hpp.html" target="_top" xlink:title="include/lug/System\l/Logger/OstreamHandler.hpp">
<polygon fill="none" stroke="#000000" points="328,-67.5 328,-97.5 491,-97.5 491,-67.5 328,-67.5"/>
<text text-anchor="start" x="336" y="-85.5" font-family="Helvetica,sans-Serif" font-size="10.00" fill="#000000">include/lug/System</text>
<text text-anchor="middle" x="409.5" y="-74.5" font-family="Helvetica,sans-Serif" font-size="10.00" fill="#000000">/Logger/OstreamHandler.hpp</text>
</a>
</g>
</g>
<!-- Node8&#45;&gt;Node13 -->
<g id="edge6" class="edge">
<title>Node8&#45;&gt;Node13</title>
<path fill="none" stroke="#191970" d="M527.9298,-130.5897C502.2245,-120.1518 470.7358,-107.3654 446.6907,-97.6017"/>
<polygon fill="#191970" stroke="#191970" points="526.8887,-133.9444 537.4708,-134.4639 529.5223,-127.4587 526.8887,-133.9444"/>
</g>
<!-- Node8&#45;&gt;Node15 -->
<g id="edge8" class="edge">
<title>Node8&#45;&gt;Node15</title>
<path fill="none" stroke="#191970" d="M644.7059,-133.7155C693.7659,-122.6852 758.8257,-108.0576 806.852,-97.2598"/>
<polygon fill="#191970" stroke="#191970" points="643.7934,-130.3332 634.8047,-135.9416 645.329,-137.1627 643.7934,-130.3332"/>
</g>
<!-- Node16 -->
<g id="node10" class="node">
<title>Node16</title>
<g id="a_node10"><a xlink:href="Logger_8cpp.html" target="_top" xlink:title="src/lug/System/Logger\l/Logger.cpp">
<polygon fill="none" stroke="#000000" points="509,-67.5 509,-97.5 640,-97.5 640,-67.5 509,-67.5"/>
<text text-anchor="start" x="517" y="-85.5" font-family="Helvetica,sans-Serif" font-size="10.00" fill="#000000">src/lug/System/Logger</text>
<text text-anchor="middle" x="574.5" y="-74.5" font-family="Helvetica,sans-Serif" font-size="10.00" fill="#000000">/Logger.cpp</text>
</a>
</g>
</g>
<!-- Node8&#45;&gt;Node16 -->
<g id="edge9" class="edge">
<title>Node8&#45;&gt;Node16</title>
<path fill="none" stroke="#191970" d="M574.5,-124.0249C574.5,-115.128 574.5,-105.4287 574.5,-97.6432"/>
<polygon fill="#191970" stroke="#191970" points="571.0001,-124.2966 574.5,-134.2967 578.0001,-124.2967 571.0001,-124.2966"/>
</g>
<!-- Node17 -->
<g id="node11" class="node">
<title>Node17</title>
<g id="a_node11"><a xlink:href="LoggingFacility_8cpp.html" target="_top" xlink:title="src/lug/System/Logger\l/LoggingFacility.cpp">
<polygon fill="none" stroke="#000000" points="658,-67.5 658,-97.5 789,-97.5 789,-67.5 658,-67.5"/>
<text text-anchor="start" x="666" y="-85.5" font-family="Helvetica,sans-Serif" font-size="10.00" fill="#000000">src/lug/System/Logger</text>
<text text-anchor="middle" x="723.5" y="-74.5" font-family="Helvetica,sans-Serif" font-size="10.00" fill="#000000">/LoggingFacility.cpp</text>
</a>
</g>
</g>
<!-- Node8&#45;&gt;Node17 -->
<g id="edge10" class="edge">
<title>Node8&#45;&gt;Node17</title>
<path fill="none" stroke="#191970" d="M617.1691,-130.3132C640.2675,-119.9267 668.3936,-107.2794 689.9156,-97.6017"/>
<polygon fill="#191970" stroke="#191970" points="615.6235,-127.1706 607.9385,-134.4639 618.4943,-133.5549 615.6235,-127.1706"/>
</g>
<!-- Node10 -->
<g id="node4" class="node">
<title>Node10</title>
<g id="a_node4"><a xlink:href="FileHandler_8cpp.html" target="_top" xlink:title="src/lug/System/Logger\l/FileHandler.cpp">
<polygon fill="none" stroke="#000000" points="3,-.5 3,-30.5 134,-30.5 134,-.5 3,-.5"/>
<text text-anchor="start" x="11" y="-18.5" font-family="Helvetica,sans-Serif" font-size="10.00" fill="#000000">src/lug/System/Logger</text>
<text text-anchor="middle" x="68.5" y="-7.5" font-family="Helvetica,sans-Serif" font-size="10.00" fill="#000000">/FileHandler.cpp</text>
</a>
</g>
</g>
<!-- Node9&#45;&gt;Node10 -->
<g id="edge3" class="edge">
<title>Node9&#45;&gt;Node10</title>
<path fill="none" stroke="#191970" d="M68.5,-57.0249C68.5,-48.128 68.5,-38.4287 68.5,-30.6432"/>
<polygon fill="#191970" stroke="#191970" points="65.0001,-57.2966 68.5,-67.2967 72.0001,-57.2967 65.0001,-57.2966"/>
</g>
<!-- Node12 -->
<g id="node6" class="node">
<title>Node12</title>
<g id="a_node6"><a xlink:href="LogCatHandler_8cpp.html" target="_top" xlink:title="src/lug/System/Logger\l/LogCatHandler.cpp">
<polygon fill="none" stroke="#000000" points="167,-.5 167,-30.5 298,-30.5 298,-.5 167,-.5"/>
<text text-anchor="start" x="175" y="-18.5" font-family="Helvetica,sans-Serif" font-size="10.00" fill="#000000">src/lug/System/Logger</text>
<text text-anchor="middle" x="232.5" y="-7.5" font-family="Helvetica,sans-Serif" font-size="10.00" fill="#000000">/LogCatHandler.cpp</text>
</a>
</g>
</g>
<!-- Node11&#45;&gt;Node12 -->
<g id="edge5" class="edge">
<title>Node11&#45;&gt;Node12</title>
<path fill="none" stroke="#191970" d="M232.5,-57.0249C232.5,-48.128 232.5,-38.4287 232.5,-30.6432"/>
<polygon fill="#191970" stroke="#191970" points="229.0001,-57.2966 232.5,-67.2967 236.0001,-57.2967 229.0001,-57.2966"/>
</g>
<!-- Node14 -->
<g id="node8" class="node">
<title>Node14</title>
<g id="a_node8"><a xlink:href="OstreamHandler_8cpp.html" target="_top" xlink:title="src/lug/System/Logger\l/OstreamHandler.cpp">
<polygon fill="none" stroke="#000000" points="344,-.5 344,-30.5 475,-30.5 475,-.5 344,-.5"/>
<text text-anchor="start" x="352" y="-18.5" font-family="Helvetica,sans-Serif" font-size="10.00" fill="#000000">src/lug/System/Logger</text>
<text text-anchor="middle" x="409.5" y="-7.5" font-family="Helvetica,sans-Serif" font-size="10.00" fill="#000000">/OstreamHandler.cpp</text>
</a>
</g>
</g>
<!-- Node13&#45;&gt;Node14 -->
<g id="edge7" class="edge">
<title>Node13&#45;&gt;Node14</title>
<path fill="none" stroke="#191970" d="M409.5,-57.0249C409.5,-48.128 409.5,-38.4287 409.5,-30.6432"/>
<polygon fill="#191970" stroke="#191970" points="406.0001,-57.2966 409.5,-67.2967 413.0001,-57.2967 406.0001,-57.2966"/>
</g>
</g>
</svg>
