<?xml version="1.0" encoding="UTF-8" standalone="no"?>
<!DOCTYPE svg PUBLIC "-//W3C//DTD SVG 1.1//EN"
 "http://www.w3.org/Graphics/SVG/1.1/DTD/svg11.dtd">
<!-- Generated by graphviz version 2.40.1 (20161225.0304)
 -->
<!-- Title: include/lug/Graphics/Vulkan/Render/Technique/Forward.hpp Pages: 1 -->
<svg width="340pt" height="117pt"
 viewBox="0.00 0.00 340.00 117.00" xmlns="http://www.w3.org/2000/svg" xmlns:xlink="http://www.w3.org/1999/xlink">
<g id="graph0" class="graph" transform="scale(1 1) rotate(0) translate(4 113)">
<title>include/lug/Graphics/Vulkan/Render/Technique/Forward.hpp</title>
<!-- Node190 -->
<g id="node1" class="node">
<title>Node190</title>
<polygon fill="#bfbfbf" stroke="#000000" points="101,-67.5 101,-108.5 250,-108.5 250,-67.5 101,-67.5"/>
<text text-anchor="start" x="109" y="-96.5" font-family="Helvetica,sans-Serif" font-size="10.00" fill="#000000">include/lug/Graphics</text>
<text text-anchor="start" x="109" y="-85.5" font-family="Helvetica,sans-Serif" font-size="10.00" fill="#000000">/Vulkan/Render/Technique</text>
<text text-anchor="middle" x="175.5" y="-74.5" font-family="Helvetica,sans-Serif" font-size="10.00" fill="#000000">/Forward.hpp</text>
</g>
<!-- Node191 -->
<g id="node2" class="node">
<title>Node191</title>
<g id="a_node2"><a xlink:href="Forward_8cpp.html" target="_top" xlink:title="src/lug/Graphics/Vulkan\l/Render/Technique/Forward.cpp">
<polygon fill="none" stroke="#000000" points="0,-.5 0,-30.5 177,-30.5 177,-.5 0,-.5"/>
<text text-anchor="start" x="8" y="-18.5" font-family="Helvetica,sans-Serif" font-size="10.00" fill="#000000">src/lug/Graphics/Vulkan</text>
<text text-anchor="middle" x="88.5" y="-7.5" font-family="Helvetica,sans-Serif" font-size="10.00" fill="#000000">/Render/Technique/Forward.cpp</text>
</a>
</g>
</g>
<!-- Node190&#45;&gt;Node191 -->
<g id="edge1" class="edge">
<title>Node190&#45;&gt;Node191</title>
<path fill="none" stroke="#191970" d="M142.9499,-60.8749C130.6592,-50.6327 117.1212,-39.351 106.6189,-30.5991"/>
<polygon fill="#191970" stroke="#191970" points="140.8791,-63.7052 150.802,-67.4183 145.3604,-58.3277 140.8791,-63.7052"/>
</g>
<!-- Node192 -->
<g id="node3" class="node">
<title>Node192</title>
<g id="a_node3"><a xlink:href="Vulkan_2Render_2View_8cpp.html" target="_top" xlink:title="src/lug/Graphics/Vulkan\l/Render/View.cpp">
<polygon fill="none" stroke="#000000" points="195,-.5 195,-30.5 332,-30.5 332,-.5 195,-.5"/>
<text text-anchor="start" x="203" y="-18.5" font-family="Helvetica,sans-Serif" font-size="10.00" fill="#000000">src/lug/Graphics/Vulkan</text>
<text text-anchor="middle" x="263.5" y="-7.5" font-family="Helvetica,sans-Serif" font-size="10.00" fill="#000000">/Render/View.cpp</text>
</a>
</g>
</g>
<!-- Node190&#45;&gt;Node192 -->
<g id="edge2" class="edge">
<title>Node190&#45;&gt;Node192</title>
<path fill="none" stroke="#191970" d="M208.4243,-60.8749C220.8562,-50.6327 234.5498,-39.351 245.1728,-30.5991"/>
<polygon fill="#191970" stroke="#191970" points="205.9744,-58.3584 200.4819,-67.4183 210.4255,-63.761 205.9744,-58.3584"/>
</g>
</g>
</svg>
