<?xml version="1.0" encoding="UTF-8" standalone="no"?>
<!DOCTYPE svg PUBLIC "-//W3C//DTD SVG 1.1//EN"
 "http://www.w3.org/Graphics/SVG/1.1/DTD/svg11.dtd">
<!-- Generated by graphviz version 2.40.1 (20161225.0304)
 -->
<!-- Title: src/lug/Graphics/Vulkan/API/Framebuffer.cpp Pages: 1 -->
<svg width="518pt" height="285pt"
 viewBox="0.00 0.00 517.50 285.00" xmlns="http://www.w3.org/2000/svg" xmlns:xlink="http://www.w3.org/1999/xlink">
<g id="graph0" class="graph" transform="scale(1 1) rotate(0) translate(4 281)">
<title>src/lug/Graphics/Vulkan/API/Framebuffer.cpp</title>
<!-- Node0 -->
<g id="node1" class="node">
<title>Node0</title>
<polygon fill="#bfbfbf" stroke="#000000" points="70.5,-246.5 70.5,-276.5 207.5,-276.5 207.5,-246.5 70.5,-246.5"/>
<text text-anchor="start" x="78.5" y="-264.5" font-family="Helvetica,sans-Serif" font-size="10.00" fill="#000000">src/lug/Graphics/Vulkan</text>
<text text-anchor="middle" x="139" y="-253.5" font-family="Helvetica,sans-Serif" font-size="10.00" fill="#000000">/API/Framebuffer.cpp</text>
</g>
<!-- Node1 -->
<g id="node2" class="node">
<title>Node1</title>
<g id="a_node2"><a xlink:href="Framebuffer_8hpp.html" target="_top" xlink:title="lug/Graphics/Vulkan\l/API/Framebuffer.hpp">
<polygon fill="none" stroke="#000000" points="6.5,-179.5 6.5,-209.5 131.5,-209.5 131.5,-179.5 6.5,-179.5"/>
<text text-anchor="start" x="14.5" y="-197.5" font-family="Helvetica,sans-Serif" font-size="10.00" fill="#000000">lug/Graphics/Vulkan</text>
<text text-anchor="middle" x="69" y="-186.5" font-family="Helvetica,sans-Serif" font-size="10.00" fill="#000000">/API/Framebuffer.hpp</text>
</a>
</g>
</g>
<!-- Node0&#45;&gt;Node1 -->
<g id="edge1" class="edge">
<title>Node0&#45;&gt;Node1</title>
<path fill="none" stroke="#191970" d="M123.1159,-246.2967C113.987,-237.559 102.3552,-226.4257 92.2168,-216.7218"/>
<polygon fill="#191970" stroke="#191970" points="94.4655,-214.0293 84.8212,-209.6432 89.6253,-219.0862 94.4655,-214.0293"/>
</g>
<!-- Node9 -->
<g id="node10" class="node">
<title>Node9</title>
<g id="a_node10"><a xlink:href="Device_8hpp.html" target="_top" xlink:title="lug/Graphics/Vulkan\l/API/Device.hpp">
<polygon fill="none" stroke="#000000" points="150,-179.5 150,-209.5 268,-209.5 268,-179.5 150,-179.5"/>
<text text-anchor="start" x="158" y="-197.5" font-family="Helvetica,sans-Serif" font-size="10.00" fill="#000000">lug/Graphics/Vulkan</text>
<text text-anchor="middle" x="209" y="-186.5" font-family="Helvetica,sans-Serif" font-size="10.00" fill="#000000">/API/Device.hpp</text>
</a>
</g>
</g>
<!-- Node0&#45;&gt;Node9 -->
<g id="edge10" class="edge">
<title>Node0&#45;&gt;Node9</title>
<path fill="none" stroke="#191970" d="M154.8841,-246.2967C164.013,-237.559 175.6448,-226.4257 185.7832,-216.7218"/>
<polygon fill="#191970" stroke="#191970" points="188.3747,-219.0862 193.1788,-209.6432 183.5345,-214.0293 188.3747,-219.0862"/>
</g>
<!-- Node2 -->
<g id="node3" class="node">
<title>Node2</title>
<g id="a_node3"><a xlink:href="Graphics_2Export_8hpp.html" target="_top" xlink:title="lug/Graphics/Export.hpp">
<polygon fill="none" stroke="#000000" points="0,-56.5 0,-75.5 138,-75.5 138,-56.5 0,-56.5"/>
<text text-anchor="middle" x="69" y="-63.5" font-family="Helvetica,sans-Serif" font-size="10.00" fill="#000000">lug/Graphics/Export.hpp</text>
</a>
</g>
</g>
<!-- Node1&#45;&gt;Node2 -->
<g id="edge2" class="edge">
<title>Node1&#45;&gt;Node2</title>
<path fill="none" stroke="#191970" d="M69,-179.2548C69,-155.9744 69,-111.5607 69,-85.8117"/>
<polygon fill="#191970" stroke="#191970" points="72.5001,-85.7358 69,-75.7358 65.5001,-85.7358 72.5001,-85.7358"/>
</g>
<!-- Node4 -->
<g id="node5" class="node">
<title>Node4</title>
<g id="a_node5"><a xlink:href="Vulkan_8hpp.html" target="_top" xlink:title="lug/Graphics/Vulkan\l/Vulkan.hpp">
<polygon fill="none" stroke="#000000" points="147,-112.5 147,-142.5 265,-142.5 265,-112.5 147,-112.5"/>
<text text-anchor="start" x="155" y="-130.5" font-family="Helvetica,sans-Serif" font-size="10.00" fill="#000000">lug/Graphics/Vulkan</text>
<text text-anchor="middle" x="206" y="-119.5" font-family="Helvetica,sans-Serif" font-size="10.00" fill="#000000">/Vulkan.hpp</text>
</a>
</g>
</g>
<!-- Node1&#45;&gt;Node4 -->
<g id="edge4" class="edge">
<title>Node1&#45;&gt;Node4</title>
<path fill="none" stroke="#191970" d="M99.7455,-179.4639C119.2624,-169.9191 144.7257,-157.4663 165.8325,-147.144"/>
<polygon fill="#191970" stroke="#191970" points="167.4375,-150.2552 174.8831,-142.7177 164.3622,-143.9669 167.4375,-150.2552"/>
</g>
<!-- Node3 -->
<g id="node4" class="node">
<title>Node3</title>
<g id="a_node4"><a xlink:href="Config_8hpp.html" target="_top" xlink:title="lug/Config.hpp">
<polygon fill="none" stroke="#000000" points="24.5,-.5 24.5,-19.5 113.5,-19.5 113.5,-.5 24.5,-.5"/>
<text text-anchor="middle" x="69" y="-7.5" font-family="Helvetica,sans-Serif" font-size="10.00" fill="#000000">lug/Config.hpp</text>
</a>
</g>
</g>
<!-- Node2&#45;&gt;Node3 -->
<g id="edge3" class="edge">
<title>Node2&#45;&gt;Node3</title>
<path fill="none" stroke="#191970" d="M69,-56.2455C69,-48.9382 69,-38.6944 69,-29.7046"/>
<polygon fill="#191970" stroke="#191970" points="72.5001,-29.6426 69,-19.6427 65.5001,-29.6427 72.5001,-29.6426"/>
</g>
<!-- Node4&#45;&gt;Node2 -->
<g id="edge8" class="edge">
<title>Node4&#45;&gt;Node2</title>
<path fill="none" stroke="#191970" d="M172.486,-112.4554C150.2288,-102.464 121.2353,-89.4487 99.6015,-79.7372"/>
<polygon fill="#191970" stroke="#191970" points="100.7865,-76.4327 90.2301,-75.5303 97.9197,-82.8187 100.7865,-76.4327"/>
</g>
<!-- Node5 -->
<g id="node6" class="node">
<title>Node5</title>
<polygon fill="none" stroke="#bfbfbf" points="156.5,-56.5 156.5,-75.5 251.5,-75.5 251.5,-56.5 156.5,-56.5"/>
<text text-anchor="middle" x="204" y="-63.5" font-family="Helvetica,sans-Serif" font-size="10.00" fill="#000000">unordered_map</text>
</g>
<!-- Node4&#45;&gt;Node5 -->
<g id="edge5" class="edge">
<title>Node4&#45;&gt;Node5</title>
<path fill="none" stroke="#191970" d="M205.5056,-112.2977C205.2482,-104.3834 204.9302,-94.6043 204.6529,-86.0759"/>
<polygon fill="#191970" stroke="#191970" points="208.1435,-85.7279 204.3202,-75.8469 201.1472,-85.9554 208.1435,-85.7279"/>
</g>
<!-- Node6 -->
<g id="node7" class="node">
<title>Node6</title>
<polygon fill="none" stroke="#bfbfbf" points="270,-56.5 270,-75.5 318,-75.5 318,-56.5 270,-56.5"/>
<text text-anchor="middle" x="294" y="-63.5" font-family="Helvetica,sans-Serif" font-size="10.00" fill="#000000">vector</text>
</g>
<!-- Node4&#45;&gt;Node6 -->
<g id="edge6" class="edge">
<title>Node4&#45;&gt;Node6</title>
<path fill="none" stroke="#191970" d="M227.7528,-112.2977C241.1968,-102.9022 258.4011,-90.8787 271.9078,-81.4395"/>
<polygon fill="#191970" stroke="#191970" points="273.9811,-84.2605 280.1729,-75.6633 269.9712,-78.5228 273.9811,-84.2605"/>
</g>
<!-- Node7 -->
<g id="node8" class="node">
<title>Node7</title>
<polygon fill="none" stroke="#bfbfbf" points="336,-56.5 336,-75.5 394,-75.5 394,-56.5 336,-56.5"/>
<text text-anchor="middle" x="365" y="-63.5" font-family="Helvetica,sans-Serif" font-size="10.00" fill="#000000">ostream</text>
</g>
<!-- Node4&#45;&gt;Node7 -->
<g id="edge7" class="edge">
<title>Node4&#45;&gt;Node7</title>
<path fill="none" stroke="#191970" d="M244.8958,-112.4554C271.1926,-102.284 305.5917,-88.9787 330.8332,-79.2155"/>
<polygon fill="#191970" stroke="#191970" points="332.2966,-82.4022 340.3606,-75.5303 329.7714,-75.8735 332.2966,-82.4022"/>
</g>
<!-- Node8 -->
<g id="node9" class="node">
<title>Node8</title>
<polygon fill="none" stroke="#bfbfbf" points="412.5,-56.5 412.5,-75.5 509.5,-75.5 509.5,-56.5 412.5,-56.5"/>
<text text-anchor="middle" x="461" y="-63.5" font-family="Helvetica,sans-Serif" font-size="10.00" fill="#000000">vulkan/vulkan.h</text>
</g>
<!-- Node4&#45;&gt;Node8 -->
<g id="edge9" class="edge">
<title>Node4&#45;&gt;Node8</title>
<path fill="none" stroke="#191970" d="M265.1431,-113.2361C309.4533,-102.5495 369.4021,-88.0913 411.2602,-77.9961"/>
<polygon fill="#191970" stroke="#191970" points="412.3256,-81.3396 421.2263,-75.5925 410.6844,-74.5347 412.3256,-81.3396"/>
</g>
<!-- Node9&#45;&gt;Node2 -->
<g id="edge11" class="edge">
<title>Node9&#45;&gt;Node2</title>
<path fill="none" stroke="#191970" d="M185.6699,-179.4318C171.337,-169.7334 152.9268,-156.4618 138,-143 117.3053,-124.3364 96.3345,-99.991 83.0335,-83.7192"/>
<polygon fill="#191970" stroke="#191970" points="85.4855,-81.1843 76.4835,-75.5972 80.0366,-85.5785 85.4855,-81.1843"/>
</g>
<!-- Node9&#45;&gt;Node4 -->
<g id="edge12" class="edge">
<title>Node9&#45;&gt;Node4</title>
<path fill="none" stroke="#191970" d="M208.3193,-179.2967C207.9702,-171.5013 207.5358,-161.7991 207.1376,-152.9064"/>
<polygon fill="#191970" stroke="#191970" points="210.622,-152.4766 206.6781,-142.6432 203.629,-152.7898 210.622,-152.4766"/>
</g>
<!-- Node10 -->
<g id="node11" class="node">
<title>Node10</title>
<g id="a_node11"><a xlink:href="Device_8inl.html" target="_top" xlink:title="lug/Graphics/Vulkan\l/API/Device.inl">
<polygon fill="none" stroke="#000000" points="283,-112.5 283,-142.5 401,-142.5 401,-112.5 283,-112.5"/>
<text text-anchor="start" x="291" y="-130.5" font-family="Helvetica,sans-Serif" font-size="10.00" fill="#000000">lug/Graphics/Vulkan</text>
<text text-anchor="middle" x="342" y="-119.5" font-family="Helvetica,sans-Serif" font-size="10.00" fill="#000000">/API/Device.inl</text>
</a>
</g>
</g>
<!-- Node9&#45;&gt;Node10 -->
<g id="edge13" class="edge">
<title>Node9&#45;&gt;Node10</title>
<path fill="none" stroke="#191970" d="M238.8478,-179.4639C257.7099,-169.9619 282.2931,-157.5779 302.7293,-147.283"/>
<polygon fill="#191970" stroke="#191970" points="304.4355,-150.3425 311.7917,-142.7177 301.2862,-144.091 304.4355,-150.3425"/>
</g>
</g>
</svg>
