<?xml version="1.0" encoding="UTF-8" standalone="no"?>
<!DOCTYPE svg PUBLIC "-//W3C//DTD SVG 1.1//EN"
 "http://www.w3.org/Graphics/SVG/1.1/DTD/svg11.dtd">
<!-- Generated by graphviz version 2.40.1 (20161225.0304)
 -->
<!-- Title: include/lug/System/Memory/FreeList.hpp Pages: 1 -->
<svg width="208pt" height="151pt"
 viewBox="0.00 0.00 207.50 151.00" xmlns="http://www.w3.org/2000/svg" xmlns:xlink="http://www.w3.org/1999/xlink">
<g id="graph0" class="graph" transform="scale(1 1) rotate(0) translate(4 147)">
<title>include/lug/System/Memory/FreeList.hpp</title>
<!-- Node0 -->
<g id="node1" class="node">
<title>Node0</title>
<polygon fill="#bfbfbf" stroke="#000000" points="15,-112.5 15,-142.5 142,-142.5 142,-112.5 15,-112.5"/>
<text text-anchor="start" x="23" y="-130.5" font-family="Helvetica,sans-Serif" font-size="10.00" fill="#000000">include/lug/System</text>
<text text-anchor="middle" x="78.5" y="-119.5" font-family="Helvetica,sans-Serif" font-size="10.00" fill="#000000">/Memory/FreeList.hpp</text>
</g>
<!-- Node1 -->
<g id="node2" class="node">
<title>Node1</title>
<polygon fill="none" stroke="#bfbfbf" points="0,-56.5 0,-75.5 49,-75.5 49,-56.5 0,-56.5"/>
<text text-anchor="middle" x="24.5" y="-63.5" font-family="Helvetica,sans-Serif" font-size="10.00" fill="#000000">cstdlib</text>
</g>
<!-- Node0&#45;&gt;Node1 -->
<g id="edge1" class="edge">
<title>Node0&#45;&gt;Node1</title>
<path fill="none" stroke="#191970" d="M65.1517,-112.2977C57.4998,-103.5831 47.8627,-92.6075 39.8924,-83.5302"/>
<polygon fill="#191970" stroke="#191970" points="42.3742,-81.052 33.1461,-75.8469 37.1141,-85.6707 42.3742,-81.052"/>
</g>
<!-- Node2 -->
<g id="node3" class="node">
<title>Node2</title>
<g id="a_node3"><a xlink:href="System_2Export_8hpp.html" target="_top" xlink:title="lug/System/Export.hpp">
<polygon fill="none" stroke="#000000" points="67.5,-56.5 67.5,-75.5 199.5,-75.5 199.5,-56.5 67.5,-56.5"/>
<text text-anchor="middle" x="133.5" y="-63.5" font-family="Helvetica,sans-Serif" font-size="10.00" fill="#000000">lug/System/Export.hpp</text>
</a>
</g>
</g>
<!-- Node0&#45;&gt;Node2 -->
<g id="edge2" class="edge">
<title>Node0&#45;&gt;Node2</title>
<path fill="none" stroke="#191970" d="M92.0955,-112.2977C99.8891,-103.5831 109.7047,-92.6075 117.8226,-83.5302"/>
<polygon fill="#191970" stroke="#191970" points="120.6365,-85.6341 124.6938,-75.8469 115.4187,-80.9678 120.6365,-85.6341"/>
</g>
<!-- Node3 -->
<g id="node4" class="node">
<title>Node3</title>
<g id="a_node4"><a xlink:href="Config_8hpp.html" target="_top" xlink:title="lug/Config.hpp">
<polygon fill="none" stroke="#000000" points="89,-.5 89,-19.5 178,-19.5 178,-.5 89,-.5"/>
<text text-anchor="middle" x="133.5" y="-7.5" font-family="Helvetica,sans-Serif" font-size="10.00" fill="#000000">lug/Config.hpp</text>
</a>
</g>
</g>
<!-- Node2&#45;&gt;Node3 -->
<g id="edge3" class="edge">
<title>Node2&#45;&gt;Node3</title>
<path fill="none" stroke="#191970" d="M133.5,-56.2455C133.5,-48.9382 133.5,-38.6944 133.5,-29.7046"/>
<polygon fill="#191970" stroke="#191970" points="137.0001,-29.6426 133.5,-19.6427 130.0001,-29.6427 137.0001,-29.6426"/>
</g>
</g>
</svg>
