<?xml version="1.0" encoding="UTF-8" standalone="no"?>
<!DOCTYPE svg PUBLIC "-//W3C//DTD SVG 1.1//EN"
 "http://www.w3.org/Graphics/SVG/1.1/DTD/svg11.dtd">
<!-- Generated by graphviz version 2.40.1 (20161225.0304)
 -->
<!-- Title: src/lug/System/Memory/FreeList.cpp Pages: 1 -->
<svg width="494pt" height="207pt"
 viewBox="0.00 0.00 493.50 207.00" xmlns="http://www.w3.org/2000/svg" xmlns:xlink="http://www.w3.org/1999/xlink">
<g id="graph0" class="graph" transform="scale(1 1) rotate(0) translate(4 203)">
<title>src/lug/System/Memory/FreeList.cpp</title>
<!-- Node0 -->
<g id="node1" class="node">
<title>Node0</title>
<polygon fill="#bfbfbf" stroke="#000000" points="163,-168.5 163,-198.5 301,-198.5 301,-168.5 163,-168.5"/>
<text text-anchor="start" x="171" y="-186.5" font-family="Helvetica,sans-Serif" font-size="10.00" fill="#000000">src/lug/System/Memory</text>
<text text-anchor="middle" x="232" y="-175.5" font-family="Helvetica,sans-Serif" font-size="10.00" fill="#000000">/FreeList.cpp</text>
</g>
<!-- Node1 -->
<g id="node2" class="node">
<title>Node1</title>
<g id="a_node2"><a xlink:href="FreeList_8hpp.html" target="_top" xlink:title="lug/System/Memory/FreeList.hpp">
<polygon fill="none" stroke="#000000" points="0,-112.5 0,-131.5 184,-131.5 184,-112.5 0,-112.5"/>
<text text-anchor="middle" x="92" y="-119.5" font-family="Helvetica,sans-Serif" font-size="10.00" fill="#000000">lug/System/Memory/FreeList.hpp</text>
</a>
</g>
</g>
<!-- Node0&#45;&gt;Node1 -->
<g id="edge1" class="edge">
<title>Node0&#45;&gt;Node1</title>
<path fill="none" stroke="#191970" d="M197.7521,-168.4554C174.9051,-158.419 145.1121,-145.3314 122.9733,-135.6061"/>
<polygon fill="#191970" stroke="#191970" points="124.2583,-132.3478 113.695,-131.5303 121.4429,-138.7567 124.2583,-132.3478"/>
</g>
<!-- Node5 -->
<g id="node6" class="node">
<title>Node5</title>
<polygon fill="none" stroke="#bfbfbf" points="202.5,-112.5 202.5,-131.5 261.5,-131.5 261.5,-112.5 202.5,-112.5"/>
<text text-anchor="middle" x="232" y="-119.5" font-family="Helvetica,sans-Serif" font-size="10.00" fill="#000000">memory</text>
</g>
<!-- Node0&#45;&gt;Node5 -->
<g id="edge5" class="edge">
<title>Node0&#45;&gt;Node5</title>
<path fill="none" stroke="#191970" d="M232,-168.2977C232,-160.3834 232,-150.6043 232,-142.0759"/>
<polygon fill="#191970" stroke="#191970" points="235.5001,-141.8469 232,-131.8469 228.5001,-141.847 235.5001,-141.8469"/>
</g>
<!-- Node6 -->
<g id="node7" class="node">
<title>Node6</title>
<g id="a_node7"><a xlink:href="Debug_8hpp.html" target="_top" xlink:title="lug/System/Debug.hpp">
<polygon fill="none" stroke="#000000" points="279.5,-112.5 279.5,-131.5 410.5,-131.5 410.5,-112.5 279.5,-112.5"/>
<text text-anchor="middle" x="345" y="-119.5" font-family="Helvetica,sans-Serif" font-size="10.00" fill="#000000">lug/System/Debug.hpp</text>
</a>
</g>
</g>
<!-- Node0&#45;&gt;Node6 -->
<g id="edge6" class="edge">
<title>Node0&#45;&gt;Node6</title>
<path fill="none" stroke="#191970" d="M259.6429,-168.4554C277.5049,-158.734 300.6268,-146.15 318.2995,-136.5317"/>
<polygon fill="#191970" stroke="#191970" points="320.3787,-139.3849 327.489,-131.5303 317.0325,-133.2365 320.3787,-139.3849"/>
</g>
<!-- Node2 -->
<g id="node3" class="node">
<title>Node2</title>
<polygon fill="none" stroke="#bfbfbf" points="28.5,-56.5 28.5,-75.5 77.5,-75.5 77.5,-56.5 28.5,-56.5"/>
<text text-anchor="middle" x="53" y="-63.5" font-family="Helvetica,sans-Serif" font-size="10.00" fill="#000000">cstdlib</text>
</g>
<!-- Node1&#45;&gt;Node2 -->
<g id="edge2" class="edge">
<title>Node1&#45;&gt;Node2</title>
<path fill="none" stroke="#191970" d="M85.2067,-112.2455C79.7822,-104.4564 72.0339,-93.3308 65.4967,-83.9439"/>
<polygon fill="#191970" stroke="#191970" points="68.3025,-81.8485 59.7154,-75.6427 62.5583,-85.849 68.3025,-81.8485"/>
</g>
<!-- Node3 -->
<g id="node4" class="node">
<title>Node3</title>
<g id="a_node4"><a xlink:href="System_2Export_8hpp.html" target="_top" xlink:title="lug/System/Export.hpp">
<polygon fill="none" stroke="#000000" points="96,-56.5 96,-75.5 228,-75.5 228,-56.5 96,-56.5"/>
<text text-anchor="middle" x="162" y="-63.5" font-family="Helvetica,sans-Serif" font-size="10.00" fill="#000000">lug/System/Export.hpp</text>
</a>
</g>
</g>
<!-- Node1&#45;&gt;Node3 -->
<g id="edge3" class="edge">
<title>Node1&#45;&gt;Node3</title>
<path fill="none" stroke="#191970" d="M104.1931,-112.2455C114.6321,-103.8943 129.8655,-91.7076 142.074,-81.9408"/>
<polygon fill="#191970" stroke="#191970" points="144.3244,-84.6227 149.9467,-75.6427 139.9515,-79.1566 144.3244,-84.6227"/>
</g>
<!-- Node4 -->
<g id="node5" class="node">
<title>Node4</title>
<g id="a_node5"><a xlink:href="Config_8hpp.html" target="_top" xlink:title="lug/Config.hpp">
<polygon fill="none" stroke="#000000" points="164.5,-.5 164.5,-19.5 253.5,-19.5 253.5,-.5 164.5,-.5"/>
<text text-anchor="middle" x="209" y="-7.5" font-family="Helvetica,sans-Serif" font-size="10.00" fill="#000000">lug/Config.hpp</text>
</a>
</g>
</g>
<!-- Node3&#45;&gt;Node4 -->
<g id="edge4" class="edge">
<title>Node3&#45;&gt;Node4</title>
<path fill="none" stroke="#191970" d="M170.1868,-56.2455C176.8589,-48.2958 186.4479,-36.8706 194.4253,-27.3656"/>
<polygon fill="#191970" stroke="#191970" points="197.1592,-29.5525 200.907,-19.6427 191.7974,-25.0524 197.1592,-29.5525"/>
</g>
<!-- Node6&#45;&gt;Node4 -->
<g id="edge7" class="edge">
<title>Node6&#45;&gt;Node4</title>
<path fill="none" stroke="#191970" d="M328.5022,-112.4752C313.8866,-103.7357 292.2528,-90.0487 275,-76 256.3028,-60.7752 237.0434,-40.9516 224.1919,-27.0187"/>
<polygon fill="#191970" stroke="#191970" points="226.7374,-24.6156 217.4183,-19.5752 221.5601,-29.3269 226.7374,-24.6156"/>
</g>
<!-- Node7 -->
<g id="node8" class="node">
<title>Node7</title>
<g id="a_node8"><a xlink:href="Utils_8hpp.html" target="_top" xlink:title="lug/System/Utils.hpp">
<polygon fill="none" stroke="#000000" points="284,-56.5 284,-75.5 406,-75.5 406,-56.5 284,-56.5"/>
<text text-anchor="middle" x="345" y="-63.5" font-family="Helvetica,sans-Serif" font-size="10.00" fill="#000000">lug/System/Utils.hpp</text>
</a>
</g>
</g>
<!-- Node6&#45;&gt;Node7 -->
<g id="edge8" class="edge">
<title>Node6&#45;&gt;Node7</title>
<path fill="none" stroke="#191970" d="M345,-112.2455C345,-104.9382 345,-94.6944 345,-85.7046"/>
<polygon fill="#191970" stroke="#191970" points="348.5001,-85.6426 345,-75.6427 341.5001,-85.6427 348.5001,-85.6426"/>
</g>
<!-- Node8 -->
<g id="node9" class="node">
<title>Node8</title>
<polygon fill="none" stroke="#bfbfbf" points="424.5,-56.5 424.5,-75.5 485.5,-75.5 485.5,-56.5 424.5,-56.5"/>
<text text-anchor="middle" x="455" y="-63.5" font-family="Helvetica,sans-Serif" font-size="10.00" fill="#000000">iostream</text>
</g>
<!-- Node6&#45;&gt;Node8 -->
<g id="edge9" class="edge">
<title>Node6&#45;&gt;Node8</title>
<path fill="none" stroke="#191970" d="M364.1605,-112.2455C381.5111,-103.4125 407.2901,-90.2887 426.9583,-80.2758"/>
<polygon fill="#191970" stroke="#191970" points="428.7353,-83.2986 436.059,-75.6427 425.5595,-77.0605 428.7353,-83.2986"/>
</g>
</g>
</svg>
