<?xml version="1.0" encoding="UTF-8" standalone="no"?>
<!DOCTYPE svg PUBLIC "-//W3C//DTD SVG 1.1//EN"
 "http://www.w3.org/Graphics/SVG/1.1/DTD/svg11.dtd">
<!-- Generated by graphviz version 2.40.1 (20161225.0304)
 -->
<!-- Title: include/lug/System/Memory/FreeList.hpp Pages: 1 -->
<svg width="332pt" height="173pt"
 viewBox="0.00 0.00 331.50 173.00" xmlns="http://www.w3.org/2000/svg" xmlns:xlink="http://www.w3.org/1999/xlink">
<g id="graph0" class="graph" transform="scale(1 1) rotate(0) translate(4 169)">
<title>include/lug/System/Memory/FreeList.hpp</title>
<!-- Node4 -->
<g id="node1" class="node">
<title>Node4</title>
<polygon fill="#bfbfbf" stroke="#000000" points="105,-134.5 105,-164.5 232,-164.5 232,-134.5 105,-134.5"/>
<text text-anchor="start" x="113" y="-152.5" font-family="Helvetica,sans-Serif" font-size="10.00" fill="#000000">include/lug/System</text>
<text text-anchor="middle" x="168.5" y="-141.5" font-family="Helvetica,sans-Serif" font-size="10.00" fill="#000000">/Memory/FreeList.hpp</text>
</g>
<!-- Node5 -->
<g id="node2" class="node">
<title>Node5</title>
<g id="a_node2"><a xlink:href="Chunk_8hpp.html" target="_top" xlink:title="include/lug/System\l/Memory/Allocator/Chunk.hpp">
<polygon fill="none" stroke="#000000" points="0,-67.5 0,-97.5 167,-97.5 167,-67.5 0,-67.5"/>
<text text-anchor="start" x="8" y="-85.5" font-family="Helvetica,sans-Serif" font-size="10.00" fill="#000000">include/lug/System</text>
<text text-anchor="middle" x="83.5" y="-74.5" font-family="Helvetica,sans-Serif" font-size="10.00" fill="#000000">/Memory/Allocator/Chunk.hpp</text>
</a>
</g>
</g>
<!-- Node4&#45;&gt;Node5 -->
<g id="edge1" class="edge">
<title>Node4&#45;&gt;Node5</title>
<path fill="none" stroke="#191970" d="M141.3055,-128.0643C128.7374,-118.1577 114.1083,-106.6265 102.7115,-97.6432"/>
<polygon fill="#191970" stroke="#191970" points="139.1919,-130.8549 149.2122,-134.2967 143.5253,-125.3574 139.1919,-130.8549"/>
</g>
<!-- Node7 -->
<g id="node4" class="node">
<title>Node7</title>
<g id="a_node4"><a xlink:href="FreeList_8cpp.html" target="_top" xlink:title="src/lug/System/Memory\l/FreeList.cpp">
<polygon fill="none" stroke="#000000" points="185.5,-67.5 185.5,-97.5 323.5,-97.5 323.5,-67.5 185.5,-67.5"/>
<text text-anchor="start" x="193.5" y="-85.5" font-family="Helvetica,sans-Serif" font-size="10.00" fill="#000000">src/lug/System/Memory</text>
<text text-anchor="middle" x="254.5" y="-74.5" font-family="Helvetica,sans-Serif" font-size="10.00" fill="#000000">/FreeList.cpp</text>
</a>
</g>
</g>
<!-- Node4&#45;&gt;Node7 -->
<g id="edge3" class="edge">
<title>Node4&#45;&gt;Node7</title>
<path fill="none" stroke="#191970" d="M196.0145,-128.0643C208.7304,-118.1577 223.5316,-106.6265 235.0625,-97.6432"/>
<polygon fill="#191970" stroke="#191970" points="193.7523,-125.3899 188.0147,-134.2967 198.0544,-130.9119 193.7523,-125.3899"/>
</g>
<!-- Node6 -->
<g id="node3" class="node">
<title>Node6</title>
<g id="a_node3"><a xlink:href="Pool_8hpp.html" target="_top" xlink:title="include/lug/System\l/Memory/Allocator/Pool.hpp">
<polygon fill="none" stroke="#000000" points="4.5,-.5 4.5,-30.5 162.5,-30.5 162.5,-.5 4.5,-.5"/>
<text text-anchor="start" x="12.5" y="-18.5" font-family="Helvetica,sans-Serif" font-size="10.00" fill="#000000">include/lug/System</text>
<text text-anchor="middle" x="83.5" y="-7.5" font-family="Helvetica,sans-Serif" font-size="10.00" fill="#000000">/Memory/Allocator/Pool.hpp</text>
</a>
</g>
</g>
<!-- Node5&#45;&gt;Node6 -->
<g id="edge2" class="edge">
<title>Node5&#45;&gt;Node6</title>
<path fill="none" stroke="#191970" d="M83.5,-57.0249C83.5,-48.128 83.5,-38.4287 83.5,-30.6432"/>
<polygon fill="#191970" stroke="#191970" points="80.0001,-57.2966 83.5,-67.2967 87.0001,-57.2967 80.0001,-57.2966"/>
</g>
</g>
</svg>
