<?xml version="1.0" encoding="UTF-8" standalone="no"?>
<!DOCTYPE svg PUBLIC "-//W3C//DTD SVG 1.1//EN"
 "http://www.w3.org/Graphics/SVG/1.1/DTD/svg11.dtd">
<!-- Generated by graphviz version 2.40.1 (20161225.0304)
 -->
<!-- Title: include/lug/Window/Android/gestureDetector.hpp Pages: 1 -->
<svg width="425pt" height="173pt"
 viewBox="0.00 0.00 424.50 173.00" xmlns="http://www.w3.org/2000/svg" xmlns:xlink="http://www.w3.org/1999/xlink">
<g id="graph0" class="graph" transform="scale(1 1) rotate(0) translate(4 169)">
<title>include/lug/Window/Android/gestureDetector.hpp</title>
<!-- Node25 -->
<g id="node1" class="node">
<title>Node25</title>
<polygon fill="#bfbfbf" stroke="#000000" points="175,-134.5 175,-164.5 341,-164.5 341,-134.5 175,-134.5"/>
<text text-anchor="start" x="183" y="-152.5" font-family="Helvetica,sans-Serif" font-size="10.00" fill="#000000">include/lug/Window</text>
<text text-anchor="middle" x="258" y="-141.5" font-family="Helvetica,sans-Serif" font-size="10.00" fill="#000000">/Android/gestureDetector.hpp</text>
</g>
<!-- Node26 -->
<g id="node2" class="node">
<title>Node26</title>
<g id="a_node2"><a xlink:href="WindowImplAndroid_8hpp.html" target="_top" xlink:title="include/lug/Window\l/Android/WindowImplAndroid.hpp">
<polygon fill="none" stroke="#000000" points="76.5,-67.5 76.5,-97.5 261.5,-97.5 261.5,-67.5 76.5,-67.5"/>
<text text-anchor="start" x="84.5" y="-85.5" font-family="Helvetica,sans-Serif" font-size="10.00" fill="#000000">include/lug/Window</text>
<text text-anchor="middle" x="169" y="-74.5" font-family="Helvetica,sans-Serif" font-size="10.00" fill="#000000">/Android/WindowImplAndroid.hpp</text>
</a>
</g>
</g>
<!-- Node25&#45;&gt;Node26 -->
<g id="edge1" class="edge">
<title>Node25&#45;&gt;Node26</title>
<path fill="none" stroke="#191970" d="M229.5257,-128.0643C216.3662,-118.1577 201.0487,-106.6265 189.1156,-97.6432"/>
<polygon fill="#191970" stroke="#191970" points="227.7103,-131.0785 237.8045,-134.2967 231.9203,-125.486 227.7103,-131.0785"/>
</g>
<!-- Node29 -->
<g id="node5" class="node">
<title>Node29</title>
<g id="a_node5"><a xlink:href="gestureDetector_8cpp.html" target="_top" xlink:title="src/lug/Window/Android\l/gestureDetector.cpp">
<polygon fill="none" stroke="#000000" points="279.5,-67.5 279.5,-97.5 416.5,-97.5 416.5,-67.5 279.5,-67.5"/>
<text text-anchor="start" x="287.5" y="-85.5" font-family="Helvetica,sans-Serif" font-size="10.00" fill="#000000">src/lug/Window/Android</text>
<text text-anchor="middle" x="348" y="-74.5" font-family="Helvetica,sans-Serif" font-size="10.00" fill="#000000">/gestureDetector.cpp</text>
</a>
</g>
</g>
<!-- Node25&#45;&gt;Node29 -->
<g id="edge4" class="edge">
<title>Node25&#45;&gt;Node29</title>
<path fill="none" stroke="#191970" d="M286.7942,-128.0643C300.1016,-118.1577 315.5913,-106.6265 327.6584,-97.6432"/>
<polygon fill="#191970" stroke="#191970" points="284.3537,-125.5177 278.4224,-134.2967 288.5338,-131.1327 284.3537,-125.5177"/>
</g>
<!-- Node27 -->
<g id="node3" class="node">
<title>Node27</title>
<g id="a_node3"><a xlink:href="MainAndroid_8cpp.html" target="_top" xlink:title="src/lug/Main/MainAndroid.cpp">
<polygon fill="none" stroke="#000000" points="0,-6 0,-25 166,-25 166,-6 0,-6"/>
<text text-anchor="middle" x="83" y="-13" font-family="Helvetica,sans-Serif" font-size="10.00" fill="#000000">src/lug/Main/MainAndroid.cpp</text>
</a>
</g>
</g>
<!-- Node26&#45;&gt;Node27 -->
<g id="edge2" class="edge">
<title>Node26&#45;&gt;Node27</title>
<path fill="none" stroke="#191970" d="M141.2448,-60.8767C125.739,-48.7967 107.1952,-34.3498 95.2646,-25.055"/>
<polygon fill="#191970" stroke="#191970" points="139.4456,-63.9119 149.4853,-67.2967 143.7477,-58.3899 139.4456,-63.9119"/>
</g>
<!-- Node28 -->
<g id="node4" class="node">
<title>Node28</title>
<g id="a_node4"><a xlink:href="WindowImplAndroid_8cpp.html" target="_top" xlink:title="src/lug/Window/Android\l/WindowImplAndroid.cpp">
<polygon fill="none" stroke="#000000" points="184,-.5 184,-30.5 326,-30.5 326,-.5 184,-.5"/>
<text text-anchor="start" x="192" y="-18.5" font-family="Helvetica,sans-Serif" font-size="10.00" fill="#000000">src/lug/Window/Android</text>
<text text-anchor="middle" x="255" y="-7.5" font-family="Helvetica,sans-Serif" font-size="10.00" fill="#000000">/WindowImplAndroid.cpp</text>
</a>
</g>
</g>
<!-- Node26&#45;&gt;Node28 -->
<g id="edge3" class="edge">
<title>Node26&#45;&gt;Node28</title>
<path fill="none" stroke="#191970" d="M196.5145,-61.0643C209.2304,-51.1577 224.0316,-39.6265 235.5625,-30.6432"/>
<polygon fill="#191970" stroke="#191970" points="194.2523,-58.3899 188.5147,-67.2967 198.5544,-63.9119 194.2523,-58.3899"/>
</g>
</g>
</svg>
