<?xml version="1.0" encoding="UTF-8" standalone="no"?>
<!DOCTYPE svg PUBLIC "-//W3C//DTD SVG 1.1//EN"
 "http://www.w3.org/Graphics/SVG/1.1/DTD/svg11.dtd">
<!-- Generated by graphviz version 2.40.1 (20161225.0304)
 -->
<!-- Title: include/lug/Graphics/GltfLoader.hpp Pages: 1 -->
<svg width="351pt" height="106pt"
 viewBox="0.00 0.00 350.50 106.00" xmlns="http://www.w3.org/2000/svg" xmlns:xlink="http://www.w3.org/1999/xlink">
<g id="graph0" class="graph" transform="scale(1 1) rotate(0) translate(4 102)">
<title>include/lug/Graphics/GltfLoader.hpp</title>
<!-- Node51 -->
<g id="node1" class="node">
<title>Node51</title>
<polygon fill="#bfbfbf" stroke="#000000" points="118.5,-67.5 118.5,-97.5 237.5,-97.5 237.5,-67.5 118.5,-67.5"/>
<text text-anchor="start" x="126.5" y="-85.5" font-family="Helvetica,sans-Serif" font-size="10.00" fill="#000000">include/lug/Graphics</text>
<text text-anchor="middle" x="178" y="-74.5" font-family="Helvetica,sans-Serif" font-size="10.00" fill="#000000">/GltfLoader.hpp</text>
</g>
<!-- Node52 -->
<g id="node2" class="node">
<title>Node52</title>
<g id="a_node2"><a xlink:href="GltfLoader_8cpp.html" target="_top" xlink:title="src/lug/Graphics/GltfLoader.cpp">
<polygon fill="none" stroke="#000000" points="0,-6 0,-25 176,-25 176,-6 0,-6"/>
<text text-anchor="middle" x="88" y="-13" font-family="Helvetica,sans-Serif" font-size="10.00" fill="#000000">src/lug/Graphics/GltfLoader.cpp</text>
</a>
</g>
</g>
<!-- Node51&#45;&gt;Node52 -->
<g id="edge1" class="edge">
<title>Node51&#45;&gt;Node52</title>
<path fill="none" stroke="#191970" d="M149.4038,-61.2117C133.0868,-49.0646 113.4362,-34.4358 100.835,-25.055"/>
<polygon fill="#191970" stroke="#191970" points="147.4662,-64.1327 157.5776,-67.2967 151.6463,-58.5177 147.4662,-64.1327"/>
</g>
<!-- Node53 -->
<g id="node3" class="node">
<title>Node53</title>
<g id="a_node3"><a xlink:href="ResourceManager_8cpp.html" target="_top" xlink:title="src/lug/Graphics/Resource\lManager.cpp">
<polygon fill="none" stroke="#000000" points="193.5,-.5 193.5,-30.5 342.5,-30.5 342.5,-.5 193.5,-.5"/>
<text text-anchor="start" x="201.5" y="-18.5" font-family="Helvetica,sans-Serif" font-size="10.00" fill="#000000">src/lug/Graphics/Resource</text>
<text text-anchor="middle" x="268" y="-7.5" font-family="Helvetica,sans-Serif" font-size="10.00" fill="#000000">Manager.cpp</text>
</a>
</g>
</g>
<!-- Node51&#45;&gt;Node53 -->
<g id="edge2" class="edge">
<title>Node51&#45;&gt;Node53</title>
<path fill="none" stroke="#191970" d="M206.7942,-61.0643C220.1016,-51.1577 235.5913,-39.6265 247.6584,-30.6432"/>
<polygon fill="#191970" stroke="#191970" points="204.3537,-58.5177 198.4224,-67.2967 208.5338,-64.1327 204.3537,-58.5177"/>
</g>
</g>
</svg>
