<?xml version="1.0" encoding="UTF-8" standalone="no"?>
<!DOCTYPE svg PUBLIC "-//W3C//DTD SVG 1.1//EN"
 "http://www.w3.org/Graphics/SVG/1.1/DTD/svg11.dtd">
<!-- Generated by graphviz version 2.40.1 (20161225.0304)
 -->
<!-- Title: include/lug/Graphics/Vulkan/Render/Window.hpp Pages: 1 -->
<svg width="707pt" height="173pt"
 viewBox="0.00 0.00 706.50 173.00" xmlns="http://www.w3.org/2000/svg" xmlns:xlink="http://www.w3.org/1999/xlink">
<g id="graph0" class="graph" transform="scale(1 1) rotate(0) translate(4 169)">
<title>include/lug/Graphics/Vulkan/Render/Window.hpp</title>
<!-- Node71 -->
<g id="node1" class="node">
<title>Node71</title>
<polygon fill="#bfbfbf" stroke="#000000" points="434,-134.5 434,-164.5 594,-164.5 594,-134.5 434,-134.5"/>
<text text-anchor="start" x="442" y="-152.5" font-family="Helvetica,sans-Serif" font-size="10.00" fill="#000000">include/lug/Graphics</text>
<text text-anchor="middle" x="514" y="-141.5" font-family="Helvetica,sans-Serif" font-size="10.00" fill="#000000">/Vulkan/Render/Window.hpp</text>
</g>
<!-- Node72 -->
<g id="node2" class="node">
<title>Node72</title>
<g id="a_node2"><a xlink:href="Vulkan_2Renderer_8hpp.html" target="_top" xlink:title="include/lug/Graphics\l/Vulkan/Renderer.hpp">
<polygon fill="none" stroke="#000000" points="339.5,-67.5 339.5,-97.5 466.5,-97.5 466.5,-67.5 339.5,-67.5"/>
<text text-anchor="start" x="347.5" y="-85.5" font-family="Helvetica,sans-Serif" font-size="10.00" fill="#000000">include/lug/Graphics</text>
<text text-anchor="middle" x="403" y="-74.5" font-family="Helvetica,sans-Serif" font-size="10.00" fill="#000000">/Vulkan/Renderer.hpp</text>
</a>
</g>
</g>
<!-- Node71&#45;&gt;Node72 -->
<g id="edge1" class="edge">
<title>Node71&#45;&gt;Node72</title>
<path fill="none" stroke="#191970" d="M480.1634,-129.0761C463.4328,-118.9774 443.5868,-106.9983 428.2115,-97.7177"/>
<polygon fill="#191970" stroke="#191970" points="478.7194,-132.2927 489.0894,-134.4639 482.3368,-126.2998 478.7194,-132.2927"/>
</g>
<!-- Node75 -->
<g id="node5" class="node">
<title>Node75</title>
<g id="a_node5"><a xlink:href="Graphics_2Vulkan_2Render_2Window_8cpp.html" target="_top" xlink:title="src/lug/Graphics/Vulkan\l/Render/Window.cpp">
<polygon fill="none" stroke="#000000" points="380.5,-.5 380.5,-30.5 517.5,-30.5 517.5,-.5 380.5,-.5"/>
<text text-anchor="start" x="388.5" y="-18.5" font-family="Helvetica,sans-Serif" font-size="10.00" fill="#000000">src/lug/Graphics/Vulkan</text>
<text text-anchor="middle" x="449" y="-7.5" font-family="Helvetica,sans-Serif" font-size="10.00" fill="#000000">/Render/Window.cpp</text>
</a>
</g>
</g>
<!-- Node71&#45;&gt;Node75 -->
<g id="edge7" class="edge">
<title>Node71&#45;&gt;Node75</title>
<path fill="none" stroke="#191970" d="M502.5299,-124.8046C494.847,-108.3711 484.4471,-86.3315 475,-67 469.0193,-54.7617 462.0552,-40.9919 456.8405,-30.7718"/>
<polygon fill="#191970" stroke="#191970" points="499.5307,-126.6547 506.9296,-134.238 505.8746,-123.6958 499.5307,-126.6547"/>
</g>
<!-- Node76 -->
<g id="node6" class="node">
<title>Node76</title>
<g id="a_node6"><a xlink:href="Vulkan_2Renderer_8cpp.html" target="_top" xlink:title="src/lug/Graphics/Vulkan\l/Renderer.cpp">
<polygon fill="none" stroke="#000000" points="535.5,-.5 535.5,-30.5 672.5,-30.5 672.5,-.5 535.5,-.5"/>
<text text-anchor="start" x="543.5" y="-18.5" font-family="Helvetica,sans-Serif" font-size="10.00" fill="#000000">src/lug/Graphics/Vulkan</text>
<text text-anchor="middle" x="604" y="-7.5" font-family="Helvetica,sans-Serif" font-size="10.00" fill="#000000">/Renderer.cpp</text>
</a>
</g>
</g>
<!-- Node71&#45;&gt;Node76 -->
<g id="edge8" class="edge">
<title>Node71&#45;&gt;Node76</title>
<path fill="none" stroke="#191970" d="M523.1801,-124.5973C530.059,-107.5784 540.4296,-84.9452 553,-67 562.3852,-53.602 575.3901,-40.5308 585.9183,-30.9096"/>
<polygon fill="#191970" stroke="#191970" points="519.7385,-123.7884 519.3597,-134.3764 526.2587,-126.3356 519.7385,-123.7884"/>
</g>
<!-- Node77 -->
<g id="node7" class="node">
<title>Node77</title>
<g id="a_node7"><a xlink:href="Vulkan_2Render_2View_8cpp.html" target="_top" xlink:title="src/lug/Graphics/Vulkan\l/Render/View.cpp">
<polygon fill="none" stroke="#000000" points="561.5,-67.5 561.5,-97.5 698.5,-97.5 698.5,-67.5 561.5,-67.5"/>
<text text-anchor="start" x="569.5" y="-85.5" font-family="Helvetica,sans-Serif" font-size="10.00" fill="#000000">src/lug/Graphics/Vulkan</text>
<text text-anchor="middle" x="630" y="-74.5" font-family="Helvetica,sans-Serif" font-size="10.00" fill="#000000">/Render/View.cpp</text>
</a>
</g>
</g>
<!-- Node71&#45;&gt;Node77 -->
<g id="edge6" class="edge">
<title>Node71&#45;&gt;Node77</title>
<path fill="none" stroke="#191970" d="M548.876,-129.3561C566.4605,-119.1995 587.4362,-107.0843 603.6529,-97.7177"/>
<polygon fill="#191970" stroke="#191970" points="546.9415,-126.4315 540.0327,-134.4639 550.4426,-132.4931 546.9415,-126.4315"/>
</g>
<!-- Node73 -->
<g id="node3" class="node">
<title>Node73</title>
<g id="a_node3"><a xlink:href="Graphics_8cpp.html" target="_top" xlink:title="src/lug/Graphics/Graphics.cpp">
<polygon fill="none" stroke="#000000" points="0,-6 0,-25 168,-25 168,-6 0,-6"/>
<text text-anchor="middle" x="84" y="-13" font-family="Helvetica,sans-Serif" font-size="10.00" fill="#000000">src/lug/Graphics/Graphics.cpp</text>
</a>
</g>
</g>
<!-- Node72&#45;&gt;Node73 -->
<g id="edge2" class="edge">
<title>Node72&#45;&gt;Node73</title>
<path fill="none" stroke="#191970" d="M329.1581,-66.9909C267.5476,-54.0507 181.6935,-36.0187 129.64,-25.0858"/>
<polygon fill="#191970" stroke="#191970" points="328.7064,-70.4723 339.2123,-69.1026 330.1452,-63.6218 328.7064,-70.4723"/>
</g>
<!-- Node74 -->
<g id="node4" class="node">
<title>Node74</title>
<g id="a_node4"><a xlink:href="Forward_8cpp.html" target="_top" xlink:title="src/lug/Graphics/Vulkan\l/Render/Technique/Forward.cpp">
<polygon fill="none" stroke="#000000" points="185.5,-.5 185.5,-30.5 362.5,-30.5 362.5,-.5 185.5,-.5"/>
<text text-anchor="start" x="193.5" y="-18.5" font-family="Helvetica,sans-Serif" font-size="10.00" fill="#000000">src/lug/Graphics/Vulkan</text>
<text text-anchor="middle" x="274" y="-7.5" font-family="Helvetica,sans-Serif" font-size="10.00" fill="#000000">/Render/Technique/Forward.cpp</text>
</a>
</g>
</g>
<!-- Node72&#45;&gt;Node74 -->
<g id="edge3" class="edge">
<title>Node72&#45;&gt;Node74</title>
<path fill="none" stroke="#191970" d="M365.0207,-62.7743C345.3033,-52.5335 321.5821,-40.2132 303.2998,-30.7177"/>
<polygon fill="#191970" stroke="#191970" points="363.5622,-65.9607 374.0499,-67.4639 366.7887,-59.7486 363.5622,-65.9607"/>
</g>
<!-- Node72&#45;&gt;Node75 -->
<g id="edge4" class="edge">
<title>Node72&#45;&gt;Node75</title>
<path fill="none" stroke="#191970" d="M419.2898,-58.7735C425.7148,-49.4154 432.9054,-38.9421 438.6032,-30.6432"/>
<polygon fill="#191970" stroke="#191970" points="416.2128,-57.0716 413.4381,-67.2967 421.9836,-61.0337 416.2128,-57.0716"/>
</g>
<!-- Node72&#45;&gt;Node76 -->
<g id="edge5" class="edge">
<title>Node72&#45;&gt;Node76</title>
<path fill="none" stroke="#191970" d="M457.6723,-64.2759C489.3504,-53.7165 528.7585,-40.5805 558.6949,-30.6017"/>
<polygon fill="#191970" stroke="#191970" points="456.4883,-60.9812 448.1083,-67.4639 458.702,-67.6219 456.4883,-60.9812"/>
</g>
</g>
</svg>
