<?xml version="1.0" encoding="UTF-8" standalone="no"?>
<!DOCTYPE svg PUBLIC "-//W3C//DTD SVG 1.1//EN"
 "http://www.w3.org/Graphics/SVG/1.1/DTD/svg11.dtd">
<!-- Generated by graphviz version 2.40.1 (20161225.0304)
 -->
<!-- Title: src/lug/Graphics/Graphics.cpp Pages: 1 -->
<svg width="3292pt" height="531pt"
 viewBox="0.00 0.00 3291.60 531.00" xmlns="http://www.w3.org/2000/svg" xmlns:xlink="http://www.w3.org/1999/xlink">
<g id="graph0" class="graph" transform="scale(1 1) rotate(0) translate(4 527)">
<title>src/lug/Graphics/Graphics.cpp</title>
<!-- Node0 -->
<g id="node1" class="node">
<title>Node0</title>
<polygon fill="#bfbfbf" stroke="#000000" points="2388.5999,-503.5 2388.5999,-522.5 2556.5999,-522.5 2556.5999,-503.5 2388.5999,-503.5"/>
<text text-anchor="middle" x="2472.5999" y="-510.5" font-family="Helvetica,sans-Serif" font-size="10.00" fill="#000000">src/lug/Graphics/Graphics.cpp</text>
</g>
<!-- Node1 -->
<g id="node2" class="node">
<title>Node1</title>
<g id="a_node2"><a xlink:href="Graphics_8hpp.html" target="_top" xlink:title="lug/Graphics/Graphics.hpp">
<polygon fill="none" stroke="#000000" points="1446.0999,-308 1446.0999,-327 1595.0999,-327 1595.0999,-308 1446.0999,-308"/>
<text text-anchor="middle" x="1520.5999" y="-315" font-family="Helvetica,sans-Serif" font-size="10.00" fill="#000000">lug/Graphics/Graphics.hpp</text>
</a>
</g>
</g>
<!-- Node0&#45;&gt;Node1 -->
<g id="edge1" class="edge">
<title>Node0&#45;&gt;Node1</title>
<path fill="none" stroke="#191970" d="M2426.0386,-503.4383C2267.5541,-470.8924 1749.3627,-364.4781 1576.9576,-329.0734"/>
<polygon fill="#191970" stroke="#191970" points="1577.5714,-325.6265 1567.0717,-327.0433 1576.1632,-332.4834 1577.5714,-325.6265"/>
</g>
<!-- Node9 -->
<g id="node10" class="node">
<title>Node9</title>
<g id="a_node10"><a xlink:href="Module_8hpp.html" target="_top" xlink:title="lug/Graphics/Module.hpp">
<polygon fill="none" stroke="#000000" points="2193.0999,-174 2193.0999,-193 2334.0999,-193 2334.0999,-174 2193.0999,-174"/>
<text text-anchor="middle" x="2263.5999" y="-181" font-family="Helvetica,sans-Serif" font-size="10.00" fill="#000000">lug/Graphics/Module.hpp</text>
</a>
</g>
</g>
<!-- Node0&#45;&gt;Node9 -->
<g id="edge56" class="edge">
<title>Node0&#45;&gt;Node9</title>
<path fill="none" stroke="#191970" d="M2465.8936,-503.2594C2443.2991,-470.3421 2368.1514,-360.0449 2310.5999,-266 2297.3654,-244.3735 2283.0675,-218.9524 2273.7616,-202.1037"/>
<polygon fill="#191970" stroke="#191970" points="2276.7889,-200.3453 2268.905,-193.2675 2270.6544,-203.7169 2276.7889,-200.3453"/>
</g>
<!-- Node84 -->
<g id="node28" class="node">
<title>Node84</title>
<polygon fill="none" stroke="#bfbfbf" points="2593.5999,-442 2593.5999,-461 2647.5999,-461 2647.5999,-442 2593.5999,-442"/>
<text text-anchor="middle" x="2620.5999" y="-449" font-family="Helvetica,sans-Serif" font-size="10.00" fill="#000000">iterator</text>
</g>
<!-- Node0&#45;&gt;Node84 -->
<g id="edge53" class="edge">
<title>Node0&#45;&gt;Node84</title>
<path fill="none" stroke="#191970" d="M2496.2458,-503.4232C2518.9464,-494.1974 2554.1789,-479.7951 2584.5999,-467 2586.0113,-466.4064 2587.4526,-465.7974 2588.9077,-465.1803"/>
<polygon fill="#191970" stroke="#191970" points="2590.7178,-468.2132 2598.5403,-461.0676 2587.9691,-461.7754 2590.7178,-468.2132"/>
</g>
<!-- Node85 -->
<g id="node29" class="node">
<title>Node85</title>
<polygon fill="none" stroke="#bfbfbf" points="2666.0999,-442 2666.0999,-461 2723.0999,-461 2723.0999,-442 2666.0999,-442"/>
<text text-anchor="middle" x="2694.5999" y="-449" font-family="Helvetica,sans-Serif" font-size="10.00" fill="#000000">sstream</text>
</g>
<!-- Node0&#45;&gt;Node85 -->
<g id="edge54" class="edge">
<title>Node0&#45;&gt;Node85</title>
<path fill="none" stroke="#191970" d="M2518.4822,-503.4363C2556.0213,-495.1581 2610.2821,-482.1509 2656.5999,-467 2658.7458,-466.2981 2660.9426,-465.5325 2663.1449,-464.7296"/>
<polygon fill="#191970" stroke="#191970" points="2664.619,-467.9126 2672.6943,-461.0541 2662.1045,-461.3798 2664.619,-467.9126"/>
</g>
<!-- Node86 -->
<g id="node30" class="node">
<title>Node86</title>
<polygon fill="none" stroke="#bfbfbf" points="2741.5999,-442 2741.5999,-461 2779.5999,-461 2779.5999,-442 2741.5999,-442"/>
<text text-anchor="middle" x="2760.5999" y="-449" font-family="Helvetica,sans-Serif" font-size="10.00" fill="#000000">map</text>
</g>
<!-- Node0&#45;&gt;Node86 -->
<g id="edge55" class="edge">
<title>Node0&#45;&gt;Node86</title>
<path fill="none" stroke="#191970" d="M2556.6565,-505.2577C2608.4736,-498.7534 2675.6701,-487.1603 2732.5999,-467 2733.8079,-466.5722 2735.0254,-466.0958 2736.2409,-465.5828"/>
<polygon fill="#191970" stroke="#191970" points="2737.883,-468.676 2745.3302,-461.14 2734.809,-462.3871 2737.883,-468.676"/>
</g>
<!-- Node87 -->
<g id="node31" class="node">
<title>Node87</title>
<g id="a_node31"><a xlink:href="Vulkan_2Render_2Mesh_8hpp.html" target="_top" xlink:title="lug/Graphics/Vulkan\l/Render/Mesh.hpp">
<polygon fill="none" stroke="#000000" points="2131.5999,-369.5 2131.5999,-399.5 2249.5999,-399.5 2249.5999,-369.5 2131.5999,-369.5"/>
<text text-anchor="start" x="2139.5999" y="-387.5" font-family="Helvetica,sans-Serif" font-size="10.00" fill="#000000">lug/Graphics/Vulkan</text>
<text text-anchor="middle" x="2190.5999" y="-376.5" font-family="Helvetica,sans-Serif" font-size="10.00" fill="#000000">/Render/Mesh.hpp</text>
</a>
</g>
</g>
<!-- Node0&#45;&gt;Node87 -->
<g id="edge57" class="edge">
<title>Node0&#45;&gt;Node87</title>
<path fill="none" stroke="#191970" d="M2451.4041,-503.3416C2405.2015,-482.2883 2294.6564,-431.9158 2233.3584,-403.9839"/>
<polygon fill="#191970" stroke="#191970" points="2234.5118,-400.6633 2223.9607,-399.7016 2231.6092,-407.0331 2234.5118,-400.6633"/>
</g>
<!-- Node105 -->
<g id="node38" class="node">
<title>Node105</title>
<g id="a_node38"><a xlink:href="Vulkan_2Renderer_8hpp.html" target="_top" xlink:title="lug/Graphics/Vulkan\l/Renderer.hpp">
<polygon fill="none" stroke="#000000" points="2457.5999,-436.5 2457.5999,-466.5 2575.5999,-466.5 2575.5999,-436.5 2457.5999,-436.5"/>
<text text-anchor="start" x="2465.5999" y="-454.5" font-family="Helvetica,sans-Serif" font-size="10.00" fill="#000000">lug/Graphics/Vulkan</text>
<text text-anchor="middle" x="2516.5999" y="-443.5" font-family="Helvetica,sans-Serif" font-size="10.00" fill="#000000">/Renderer.hpp</text>
</a>
</g>
</g>
<!-- Node0&#45;&gt;Node105 -->
<g id="edge87" class="edge">
<title>Node0&#45;&gt;Node105</title>
<path fill="none" stroke="#191970" d="M2479.4749,-503.3906C2484.9336,-495.761 2492.8,-484.7658 2499.888,-474.8588"/>
<polygon fill="#191970" stroke="#191970" points="2502.8642,-476.714 2505.8363,-466.5446 2497.1712,-472.6409 2502.8642,-476.714"/>
</g>
<!-- Node115 -->
<g id="node45" class="node">
<title>Node115</title>
<g id="a_node45"><a xlink:href="Logger_8hpp.html" target="_top" xlink:title="lug/System/Logger/Logger.hpp">
<polygon fill="none" stroke="#000000" points="295.5999,-241 295.5999,-260 467.5999,-260 467.5999,-241 295.5999,-241"/>
<text text-anchor="middle" x="381.5999" y="-248" font-family="Helvetica,sans-Serif" font-size="10.00" fill="#000000">lug/System/Logger/Logger.hpp</text>
</a>
</g>
</g>
<!-- Node0&#45;&gt;Node115 -->
<g id="edge111" class="edge">
<title>Node0&#45;&gt;Node115</title>
<path fill="none" stroke="#191970" d="M2388.3724,-510.7844C2021.6504,-500.4537 575.3516,-452.3786 414.5999,-333 394.7225,-318.2385 386.7982,-289.5582 383.6521,-270.2143"/>
<polygon fill="#191970" stroke="#191970" points="387.0916,-269.5278 382.2977,-260.0796 380.1533,-270.4552 387.0916,-269.5278"/>
</g>
<!-- Node2 -->
<g id="node3" class="node">
<title>Node2</title>
<polygon fill="none" stroke="#bfbfbf" points="729.0999,-241 729.0999,-260 794.0999,-260 794.0999,-241 729.0999,-241"/>
<text text-anchor="middle" x="761.5999" y="-248" font-family="Helvetica,sans-Serif" font-size="10.00" fill="#000000">algorithm</text>
</g>
<!-- Node1&#45;&gt;Node2 -->
<g id="edge2" class="edge">
<title>Node1&#45;&gt;Node2</title>
<path fill="none" stroke="#191970" d="M1446.0529,-314.4353C1289.0606,-307.601 928.9602,-289.82 808.5999,-266 804.6359,-265.2155 800.5421,-264.1961 796.4999,-263.0546"/>
<polygon fill="#191970" stroke="#191970" points="797.2489,-259.6232 786.6619,-260.0298 795.1917,-266.3141 797.2489,-259.6232"/>
</g>
<!-- Node3 -->
<g id="node4" class="node">
<title>Node3</title>
<polygon fill="none" stroke="#bfbfbf" points="1714.0999,-112.5 1714.0999,-131.5 1773.0999,-131.5 1773.0999,-112.5 1714.0999,-112.5"/>
<text text-anchor="middle" x="1743.5999" y="-119.5" font-family="Helvetica,sans-Serif" font-size="10.00" fill="#000000">memory</text>
</g>
<!-- Node1&#45;&gt;Node3 -->
<g id="edge3" class="edge">
<title>Node1&#45;&gt;Node3</title>
<path fill="none" stroke="#191970" d="M1543.9674,-307.9959C1564.5529,-298.9731 1594.7348,-284.1159 1617.5999,-266 1665.7641,-227.8398 1710.1107,-169.6417 1731.0092,-140.2879"/>
<polygon fill="#191970" stroke="#191970" points="1734.0637,-142.0283 1736.9456,-131.8329 1728.3348,-138.0059 1734.0637,-142.0283"/>
</g>
<!-- Node4 -->
<g id="node5" class="node">
<title>Node4</title>
<polygon fill="none" stroke="#bfbfbf" points="523.5999,-174 523.5999,-193 555.5999,-193 555.5999,-174 523.5999,-174"/>
<text text-anchor="middle" x="539.5999" y="-181" font-family="Helvetica,sans-Serif" font-size="10.00" fill="#000000">set</text>
</g>
<!-- Node1&#45;&gt;Node4 -->
<g id="edge4" class="edge">
<title>Node1&#45;&gt;Node4</title>
<path fill="none" stroke="#191970" d="M1445.8809,-316.7668C1294.1433,-314.4697 955.1065,-304.9962 846.5999,-266 824.088,-257.9094 824.7837,-243.9515 802.5999,-235 705.4283,-195.7899 669.2255,-231.4732 569.5999,-199 568.1368,-198.5231 566.6583,-197.981 565.183,-197.3921"/>
<polygon fill="#191970" stroke="#191970" points="566.2364,-194.0241 555.6891,-193.022 563.3094,-200.3828 566.2364,-194.0241"/>
</g>
<!-- Node5 -->
<g id="node6" class="node">
<title>Node5</title>
<g id="a_node6"><a xlink:href="Version_8hpp.html" target="_top" xlink:title="lug/Core/Version.hpp">
<polygon fill="none" stroke="#000000" points="1459.0999,-174 1459.0999,-193 1582.0999,-193 1582.0999,-174 1459.0999,-174"/>
<text text-anchor="middle" x="1520.5999" y="-181" font-family="Helvetica,sans-Serif" font-size="10.00" fill="#000000">lug/Core/Version.hpp</text>
</a>
</g>
</g>
<!-- Node1&#45;&gt;Node5 -->
<g id="edge5" class="edge">
<title>Node1&#45;&gt;Node5</title>
<path fill="none" stroke="#191970" d="M1520.5999,-307.8631C1520.5999,-286.0364 1520.5999,-232.4605 1520.5999,-203.2589"/>
<polygon fill="#191970" stroke="#191970" points="1524.1,-203.0496 1520.5999,-193.0496 1517.1,-203.0497 1524.1,-203.0496"/>
</g>
<!-- Node7 -->
<g id="node8" class="node">
<title>Node7</title>
<g id="a_node8"><a xlink:href="Graphics_2Export_8hpp.html" target="_top" xlink:title="lug/Graphics/Export.hpp">
<polygon fill="none" stroke="#000000" points="2615.5999,-56.5 2615.5999,-75.5 2753.5999,-75.5 2753.5999,-56.5 2615.5999,-56.5"/>
<text text-anchor="middle" x="2684.5999" y="-63.5" font-family="Helvetica,sans-Serif" font-size="10.00" fill="#000000">lug/Graphics/Export.hpp</text>
</a>
</g>
</g>
<!-- Node1&#45;&gt;Node7 -->
<g id="edge7" class="edge">
<title>Node1&#45;&gt;Node7</title>
<path fill="none" stroke="#191970" d="M1525.5753,-307.7512C1543.7958,-273.2489 1610.7455,-156.6124 1704.5999,-112 1745.0087,-92.7922 2379.4426,-74.1222 2605.4261,-68.0501"/>
<polygon fill="#191970" stroke="#191970" points="2605.6499,-71.5455 2615.5527,-67.7791 2605.4626,-64.548 2605.6499,-71.5455"/>
</g>
<!-- Node1&#45;&gt;Node9 -->
<g id="edge9" class="edge">
<title>Node1&#45;&gt;Node9</title>
<path fill="none" stroke="#191970" d="M1580.3902,-307.9972C1642.8736,-297.9656 1743.7241,-281.4903 1830.5999,-266 1965.1175,-242.0149 2122.6308,-211.3542 2205.6237,-194.9979"/>
<polygon fill="#191970" stroke="#191970" points="2206.4789,-198.3967 2215.6124,-193.0274 2205.1241,-191.5291 2206.4789,-198.3967"/>
</g>
<!-- Node14 -->
<g id="node15" class="node">
<title>Node14</title>
<g id="a_node15"><a xlink:href="Render_2Mesh_8hpp.html" target="_top" xlink:title="lug/Graphics/Render\l/Mesh.hpp">
<polygon fill="none" stroke="#000000" points="1289.0999,-235.5 1289.0999,-265.5 1408.0999,-265.5 1408.0999,-235.5 1289.0999,-235.5"/>
<text text-anchor="start" x="1297.0999" y="-253.5" font-family="Helvetica,sans-Serif" font-size="10.00" fill="#000000">lug/Graphics/Render</text>
<text text-anchor="middle" x="1348.5999" y="-242.5" font-family="Helvetica,sans-Serif" font-size="10.00" fill="#000000">/Mesh.hpp</text>
</a>
</g>
</g>
<!-- Node1&#45;&gt;Node14 -->
<g id="edge15" class="edge">
<title>Node1&#45;&gt;Node14</title>
<path fill="none" stroke="#191970" d="M1495.9565,-307.9005C1470.1971,-297.8663 1429.1132,-281.8627 1396.862,-269.2997"/>
<polygon fill="#191970" stroke="#191970" points="1397.7517,-265.8902 1387.1633,-265.5218 1395.2109,-272.4128 1397.7517,-265.8902"/>
</g>
<!-- Node43 -->
<g id="node22" class="node">
<title>Node43</title>
<g id="a_node22"><a xlink:href="Renderer_8hpp.html" target="_top" xlink:title="lug/Graphics/Renderer.hpp">
<polygon fill="none" stroke="#ff0000" points="1669.5999,-241 1669.5999,-260 1821.5999,-260 1821.5999,-241 1669.5999,-241"/>
<text text-anchor="middle" x="1745.5999" y="-248" font-family="Helvetica,sans-Serif" font-size="10.00" fill="#000000">lug/Graphics/Renderer.hpp</text>
</a>
</g>
</g>
<!-- Node1&#45;&gt;Node43 -->
<g id="edge31" class="edge">
<title>Node1&#45;&gt;Node43</title>
<path fill="none" stroke="#191970" d="M1552.837,-307.9005C1592.5185,-296.0843 1659.999,-275.9901 1703.6742,-262.9845"/>
<polygon fill="#191970" stroke="#191970" points="1704.8375,-266.2901 1713.4227,-260.0817 1702.8397,-259.5812 1704.8375,-266.2901"/>
</g>
<!-- Node76 -->
<g id="node26" class="node">
<title>Node76</title>
<g id="a_node26"><a xlink:href="Scene_2Scene_8hpp.html" target="_top" xlink:title="lug/Graphics/Scene\l/Scene.hpp">
<polygon fill="none" stroke="#ff0000" points="649.5999,-168.5 649.5999,-198.5 763.5999,-198.5 763.5999,-168.5 649.5999,-168.5"/>
<text text-anchor="start" x="657.5999" y="-186.5" font-family="Helvetica,sans-Serif" font-size="10.00" fill="#000000">lug/Graphics/Scene</text>
<text text-anchor="middle" x="706.5999" y="-175.5" font-family="Helvetica,sans-Serif" font-size="10.00" fill="#000000">/Scene.hpp</text>
</a>
</g>
</g>
<!-- Node1&#45;&gt;Node76 -->
<g id="edge48" class="edge">
<title>Node1&#45;&gt;Node76</title>
<path fill="none" stroke="#191970" d="M1445.982,-313.674C1308.4771,-306.1927 1020.2326,-288.3844 922.5999,-266 905.597,-262.1017 812.1,-225.4617 753.8263,-202.3403"/>
<polygon fill="#191970" stroke="#191970" points="755.0266,-199.0511 744.4408,-198.6125 752.4426,-205.5567 755.0266,-199.0511"/>
</g>
<!-- Node83 -->
<g id="node27" class="node">
<title>Node83</title>
<g id="a_node27"><a xlink:href="Graphics_8inl.html" target="_top" xlink:title="lug/Graphics/Graphics.inl">
<polygon fill="none" stroke="#000000" points="568.0999,-241 568.0999,-260 711.0999,-260 711.0999,-241 568.0999,-241"/>
<text text-anchor="middle" x="639.5999" y="-248" font-family="Helvetica,sans-Serif" font-size="10.00" fill="#000000">lug/Graphics/Graphics.inl</text>
</a>
</g>
</g>
<!-- Node1&#45;&gt;Node83 -->
<g id="edge52" class="edge">
<title>Node1&#45;&gt;Node83</title>
<path fill="none" stroke="#191970" d="M1446.0326,-315.8689C1304.0891,-312.0643 985.4878,-300.1647 719.5999,-266 711.1282,-264.9114 702.2028,-263.4742 693.5089,-261.9133"/>
<polygon fill="#191970" stroke="#191970" points="693.9226,-258.4302 683.4504,-260.0377 692.6393,-265.3116 693.9226,-258.4302"/>
</g>
<!-- Node6 -->
<g id="node7" class="node">
<title>Node6</title>
<g id="a_node7"><a xlink:href="Version_8inl.html" target="_top" xlink:title="lug/Core/Version.inl">
<polygon fill="none" stroke="#000000" points="1462.0999,-112.5 1462.0999,-131.5 1579.0999,-131.5 1579.0999,-112.5 1462.0999,-112.5"/>
<text text-anchor="middle" x="1520.5999" y="-119.5" font-family="Helvetica,sans-Serif" font-size="10.00" fill="#000000">lug/Core/Version.inl</text>
</a>
</g>
</g>
<!-- Node5&#45;&gt;Node6 -->
<g id="edge6" class="edge">
<title>Node5&#45;&gt;Node6</title>
<path fill="none" stroke="#191970" d="M1520.5999,-173.8906C1520.5999,-165.3657 1520.5999,-152.6392 1520.5999,-141.9235"/>
<polygon fill="#191970" stroke="#191970" points="1524.1,-141.7448 1520.5999,-131.7449 1517.1,-141.7449 1524.1,-141.7448"/>
</g>
<!-- Node8 -->
<g id="node9" class="node">
<title>Node8</title>
<g id="a_node9"><a xlink:href="Config_8hpp.html" target="_top" xlink:title="lug/Config.hpp">
<polygon fill="none" stroke="#000000" points="1346.0999,-.5 1346.0999,-19.5 1435.0999,-19.5 1435.0999,-.5 1346.0999,-.5"/>
<text text-anchor="middle" x="1390.5999" y="-7.5" font-family="Helvetica,sans-Serif" font-size="10.00" fill="#000000">lug/Config.hpp</text>
</a>
</g>
</g>
<!-- Node7&#45;&gt;Node8 -->
<g id="edge8" class="edge">
<title>Node7&#45;&gt;Node8</title>
<path fill="none" stroke="#191970" d="M2615.4864,-63.009C2386.0394,-53.0793 1652.4246,-21.3309 1445.4417,-12.3734"/>
<polygon fill="#191970" stroke="#191970" points="1445.5561,-8.8751 1435.4141,-11.9394 1445.2534,-15.8686 1445.5561,-8.8751"/>
</g>
<!-- Node9&#45;&gt;Node7 -->
<g id="edge13" class="edge">
<title>Node9&#45;&gt;Node7</title>
<path fill="none" stroke="#191970" d="M2276.1774,-173.7661C2299.3066,-156.0533 2348.0133,-119.669 2367.5999,-112 2409.6862,-95.5213 2526.1301,-81.4234 2605.5369,-73.3266"/>
<polygon fill="#191970" stroke="#191970" points="2605.915,-76.8063 2615.5135,-72.3209 2605.2129,-69.8416 2605.915,-76.8063"/>
</g>
<!-- Node10 -->
<g id="node11" class="node">
<title>Node10</title>
<polygon fill="none" stroke="#bfbfbf" points="2457.5999,-112.5 2457.5999,-131.5 2515.5999,-131.5 2515.5999,-112.5 2457.5999,-112.5"/>
<text text-anchor="middle" x="2486.5999" y="-119.5" font-family="Helvetica,sans-Serif" font-size="10.00" fill="#000000">ostream</text>
</g>
<!-- Node9&#45;&gt;Node10 -->
<g id="edge10" class="edge">
<title>Node9&#45;&gt;Node10</title>
<path fill="none" stroke="#191970" d="M2298.4437,-173.8906C2338.8442,-162.7488 2405.2688,-144.4299 2447.427,-132.8033"/>
<polygon fill="#191970" stroke="#191970" points="2448.6224,-136.1044 2457.332,-130.0716 2446.7614,-129.3563 2448.6224,-136.1044"/>
</g>
<!-- Node11 -->
<g id="node12" class="node">
<title>Node11</title>
<polygon fill="none" stroke="#bfbfbf" points="2072.0999,-112.5 2072.0999,-131.5 2167.0999,-131.5 2167.0999,-112.5 2072.0999,-112.5"/>
<text text-anchor="middle" x="2119.5999" y="-119.5" font-family="Helvetica,sans-Serif" font-size="10.00" fill="#000000">unordered_map</text>
</g>
<!-- Node9&#45;&gt;Node11 -->
<g id="edge11" class="edge">
<title>Node9&#45;&gt;Node11</title>
<path fill="none" stroke="#191970" d="M2241.0999,-173.8906C2217.0061,-163.6005 2178.5786,-147.1888 2151.3991,-135.5809"/>
<polygon fill="#191970" stroke="#191970" points="2152.513,-132.2508 2141.942,-131.5419 2149.7637,-138.6883 2152.513,-132.2508"/>
</g>
<!-- Node12 -->
<g id="node13" class="node">
<title>Node12</title>
<polygon fill="none" stroke="#bfbfbf" points="2376.5999,-112.5 2376.5999,-131.5 2424.5999,-131.5 2424.5999,-112.5 2376.5999,-112.5"/>
<text text-anchor="middle" x="2400.5999" y="-119.5" font-family="Helvetica,sans-Serif" font-size="10.00" fill="#000000">vector</text>
</g>
<!-- Node9&#45;&gt;Node12 -->
<g id="edge12" class="edge">
<title>Node9&#45;&gt;Node12</title>
<path fill="none" stroke="#191970" d="M2285.0062,-173.8906C2307.8283,-163.6457 2344.1679,-147.3326 2370.0057,-135.7339"/>
<polygon fill="#191970" stroke="#191970" points="2371.6544,-138.8303 2379.344,-131.5419 2368.7877,-132.4443 2371.6544,-138.8303"/>
</g>
<!-- Node13 -->
<g id="node14" class="node">
<title>Node13</title>
<g id="a_node14"><a xlink:href="Module_8inl.html" target="_top" xlink:title="lug/Graphics/Module.inl">
<polygon fill="none" stroke="#000000" points="2185.0999,-112.5 2185.0999,-131.5 2320.0999,-131.5 2320.0999,-112.5 2185.0999,-112.5"/>
<text text-anchor="middle" x="2252.5999" y="-119.5" font-family="Helvetica,sans-Serif" font-size="10.00" fill="#000000">lug/Graphics/Module.inl</text>
</a>
</g>
</g>
<!-- Node9&#45;&gt;Node13 -->
<g id="edge14" class="edge">
<title>Node9&#45;&gt;Node13</title>
<path fill="none" stroke="#191970" d="M2261.8812,-173.8906C2260.3564,-165.3657 2258.0801,-152.6392 2256.1635,-141.9235"/>
<polygon fill="#191970" stroke="#191970" points="2259.549,-140.9724 2254.3429,-131.7449 2252.6584,-142.2049 2259.549,-140.9724"/>
</g>
<!-- Node14&#45;&gt;Node7 -->
<g id="edge18" class="edge">
<title>Node14&#45;&gt;Node7</title>
<path fill="none" stroke="#191970" d="M1360.9838,-235.3198C1369.2155,-225.1385 1380.1993,-211.3774 1389.5999,-199 1418.4747,-160.9821 1410.4928,-134.4966 1452.5999,-112 1503.4234,-84.8465 2340.7224,-70.8233 2605.2018,-67.0563"/>
<polygon fill="#191970" stroke="#191970" points="2605.5425,-70.5519 2615.492,-66.9108 2605.4434,-63.5526 2605.5425,-70.5519"/>
</g>
<!-- Node14&#45;&gt;Node12 -->
<g id="edge17" class="edge">
<title>Node14&#45;&gt;Node12</title>
<path fill="none" stroke="#191970" d="M1408.2536,-247.5339C1575.349,-239.0733 2040.2139,-214.4405 2107.5999,-199 2143.5596,-190.7604 2149.3158,-178.7712 2184.5999,-168 2247.6113,-148.7644 2323.3494,-134.6268 2366.3405,-127.4098"/>
<polygon fill="#191970" stroke="#191970" points="2366.9859,-130.8507 2376.2813,-125.7667 2365.8444,-123.9444 2366.9859,-130.8507"/>
</g>
<!-- Node15 -->
<g id="node16" class="node">
<title>Node15</title>
<polygon fill="none" stroke="#bfbfbf" points="1238.5999,-56.5 1238.5999,-75.5 1288.5999,-75.5 1288.5999,-56.5 1238.5999,-56.5"/>
<text text-anchor="middle" x="1263.5999" y="-63.5" font-family="Helvetica,sans-Serif" font-size="10.00" fill="#000000">cstdint</text>
</g>
<!-- Node14&#45;&gt;Node15 -->
<g id="edge16" class="edge">
<title>Node14&#45;&gt;Node15</title>
<path fill="none" stroke="#191970" d="M1288.7062,-248.1958C1169.7761,-243.003 912.9684,-228.4712 886.5999,-199 877.4131,-188.7322 878.2259,-178.9408 886.5999,-168 928.6339,-113.0822 1143.0582,-80.9204 1228.4471,-70.1191"/>
<polygon fill="#191970" stroke="#191970" points="1228.9437,-73.5844 1238.4362,-68.879 1228.0812,-66.6378 1228.9437,-73.5844"/>
</g>
<!-- Node16 -->
<g id="node17" class="node">
<title>Node16</title>
<g id="a_node17"><a xlink:href="Resource_8hpp.html" target="_top" xlink:title="lug/Graphics/Resource.hpp">
<polygon fill="none" stroke="#ff0000" points="725.5999,-112.5 725.5999,-131.5 877.5999,-131.5 877.5999,-112.5 725.5999,-112.5"/>
<text text-anchor="middle" x="801.5999" y="-119.5" font-family="Helvetica,sans-Serif" font-size="10.00" fill="#000000">lug/Graphics/Resource.hpp</text>
</a>
</g>
</g>
<!-- Node14&#45;&gt;Node16 -->
<g id="edge19" class="edge">
<title>Node14&#45;&gt;Node16</title>
<path fill="none" stroke="#191970" d="M1289.068,-247.1268C1165.6345,-239.728 890.2313,-220.9701 853.5999,-199 831.5257,-185.7607 816.7666,-159.1093 808.7798,-140.9097"/>
<polygon fill="#191970" stroke="#191970" points="811.9816,-139.4928 804.9457,-131.5716 805.5062,-142.1516 811.9816,-139.4928"/>
</g>
<!-- Node20 -->
<g id="node19" class="node">
<title>Node20</title>
<g id="a_node19"><a xlink:href="Render_2Material_8hpp.html" target="_top" xlink:title="lug/Graphics/Render\l/Material.hpp">
<polygon fill="none" stroke="#ff0000" points="896.0999,-168.5 896.0999,-198.5 1015.0999,-198.5 1015.0999,-168.5 896.0999,-168.5"/>
<text text-anchor="start" x="904.0999" y="-186.5" font-family="Helvetica,sans-Serif" font-size="10.00" fill="#000000">lug/Graphics/Render</text>
<text text-anchor="middle" x="955.5999" y="-175.5" font-family="Helvetica,sans-Serif" font-size="10.00" fill="#000000">/Material.hpp</text>
</a>
</g>
</g>
<!-- Node14&#45;&gt;Node20 -->
<g id="edge23" class="edge">
<title>Node14&#45;&gt;Node20</title>
<path fill="none" stroke="#191970" d="M1289.0864,-242.29C1225.9242,-233.3022 1122.9896,-217.8738 1025.3008,-199.2642"/>
<polygon fill="#191970" stroke="#191970" points="1025.7369,-195.7841 1015.2563,-197.3357 1024.417,-202.6585 1025.7369,-195.7841"/>
</g>
<!-- Node27 -->
<g id="node20" class="node">
<title>Node27</title>
<g id="a_node20"><a xlink:href="Vector_8hpp.html" target="_top" xlink:title="lug/Math/Vector.hpp">
<polygon fill="none" stroke="#ff0000" points="1204.0999,-112.5 1204.0999,-131.5 1323.0999,-131.5 1323.0999,-112.5 1204.0999,-112.5"/>
<text text-anchor="middle" x="1263.5999" y="-119.5" font-family="Helvetica,sans-Serif" font-size="10.00" fill="#000000">lug/Math/Vector.hpp</text>
</a>
</g>
</g>
<!-- Node14&#45;&gt;Node27 -->
<g id="edge29" class="edge">
<title>Node14&#45;&gt;Node27</title>
<path fill="none" stroke="#191970" d="M1360.0689,-235.3593C1371.7882,-217.8867 1386.4533,-188.8828 1372.5999,-168 1362.1095,-152.1864 1344.9939,-141.7957 1327.4015,-134.9732"/>
<polygon fill="#191970" stroke="#191970" points="1328.2128,-131.5486 1317.618,-131.5383 1325.8939,-138.1534 1328.2128,-131.5486"/>
</g>
<!-- Node42 -->
<g id="node21" class="node">
<title>Node42</title>
<g id="a_node21"><a xlink:href="Render_2Mesh_8inl.html" target="_top" xlink:title="lug/Graphics/Render\l/Mesh.inl">
<polygon fill="none" stroke="#000000" points="1245.0999,-168.5 1245.0999,-198.5 1364.0999,-198.5 1364.0999,-168.5 1245.0999,-168.5"/>
<text text-anchor="start" x="1253.0999" y="-186.5" font-family="Helvetica,sans-Serif" font-size="10.00" fill="#000000">lug/Graphics/Render</text>
<text text-anchor="middle" x="1304.5999" y="-175.5" font-family="Helvetica,sans-Serif" font-size="10.00" fill="#000000">/Mesh.inl</text>
</a>
</g>
</g>
<!-- Node14&#45;&gt;Node42 -->
<g id="edge30" class="edge">
<title>Node14&#45;&gt;Node42</title>
<path fill="none" stroke="#191970" d="M1338.6157,-235.2967C1333.1588,-226.9873 1326.2791,-216.5115 1320.137,-207.1587"/>
<polygon fill="#191970" stroke="#191970" points="1322.9596,-205.0806 1314.5447,-198.6432 1317.1085,-208.9231 1322.9596,-205.0806"/>
</g>
<!-- Node16&#45;&gt;Node7 -->
<g id="edge22" class="edge">
<title>Node16&#45;&gt;Node7</title>
<path fill="none" stroke="#191970" d="M877.7313,-118.391C922.5237,-116.3423 980.2733,-113.8298 1031.5999,-112 1636.5892,-90.4315 2366.4378,-73.185 2604.9879,-67.7741"/>
<polygon fill="#191970" stroke="#191970" points="2605.3809,-71.2662 2615.2991,-67.5407 2605.2224,-64.268 2605.3809,-71.2662"/>
</g>
<!-- Node16&#45;&gt;Node15 -->
<g id="edge20" class="edge">
<title>Node16&#45;&gt;Node15</title>
<path fill="none" stroke="#191970" d="M877.631,-112.7841C978.7031,-100.5329 1153.2364,-79.3774 1227.9658,-70.3193"/>
<polygon fill="#191970" stroke="#191970" points="1228.7405,-73.7511 1238.2467,-69.0731 1227.8982,-66.802 1228.7405,-73.7511"/>
</g>
<!-- Node18 -->
<g id="node18" class="node">
<title>Node18</title>
<polygon fill="none" stroke="#bfbfbf" points="637.0999,-56.5 637.0999,-75.5 682.0999,-75.5 682.0999,-56.5 637.0999,-56.5"/>
<text text-anchor="middle" x="659.5999" y="-63.5" font-family="Helvetica,sans-Serif" font-size="10.00" fill="#000000">string</text>
</g>
<!-- Node16&#45;&gt;Node18 -->
<g id="edge21" class="edge">
<title>Node16&#45;&gt;Node18</title>
<path fill="none" stroke="#191970" d="M777.1893,-112.3733C753.5638,-103.0562 717.6162,-88.8797 691.6872,-78.6541"/>
<polygon fill="#191970" stroke="#191970" points="692.8736,-75.3597 682.2868,-74.9469 690.3054,-81.8716 692.8736,-75.3597"/>
</g>
<!-- Node20&#45;&gt;Node7 -->
<g id="edge25" class="edge">
<title>Node20&#45;&gt;Node7</title>
<path fill="none" stroke="#191970" d="M994.6143,-168.3991C1041.3348,-151.1242 1122.3499,-123.7172 1194.5999,-112 1333.7854,-89.4275 2315.8055,-71.9503 2604.788,-67.2516"/>
<polygon fill="#191970" stroke="#191970" points="2605.2392,-70.7449 2615.1812,-67.0833 2605.1258,-63.7458 2605.2392,-70.7449"/>
</g>
<!-- Node20&#45;&gt;Node16 -->
<g id="edge26" class="edge">
<title>Node20&#45;&gt;Node16</title>
<path fill="none" stroke="#191970" d="M917.9273,-168.4554C892.5701,-158.329 859.4348,-145.0964 835.0174,-135.3453"/>
<polygon fill="#191970" stroke="#191970" points="836.0494,-131.9887 825.4645,-131.5303 833.4533,-138.4895 836.0494,-131.9887"/>
</g>
<!-- Node20&#45;&gt;Node18 -->
<g id="edge24" class="edge">
<title>Node20&#45;&gt;Node18</title>
<path fill="none" stroke="#191970" d="M945.3221,-168.3073C933.2673,-151.7445 911.7091,-125.7682 886.5999,-112 853.5455,-93.8751 747.1384,-77.624 692.5606,-70.2249"/>
<polygon fill="#191970" stroke="#191970" points="692.7483,-66.719 682.3731,-68.8651 691.8222,-73.6574 692.7483,-66.719"/>
</g>
<!-- Node20&#45;&gt;Node27 -->
<g id="edge27" class="edge">
<title>Node20&#45;&gt;Node27</title>
<path fill="none" stroke="#191970" d="M1015.2783,-169.7735C1018.0896,-169.1657 1020.8743,-168.5717 1023.5999,-168 1083.6847,-155.398 1152.5273,-142.3449 1201.0284,-133.3772"/>
<polygon fill="#191970" stroke="#191970" points="1201.8594,-136.7831 1211.0587,-131.5273 1200.5898,-129.8992 1201.8594,-136.7831"/>
</g>
<!-- Node27&#45;&gt;Node15 -->
<g id="edge28" class="edge">
<title>Node27&#45;&gt;Node15</title>
<path fill="none" stroke="#191970" d="M1263.5999,-112.2455C1263.5999,-104.9382 1263.5999,-94.6944 1263.5999,-85.7046"/>
<polygon fill="#191970" stroke="#191970" points="1267.1,-85.6426 1263.5999,-75.6427 1260.1,-85.6427 1267.1,-85.6426"/>
</g>
<!-- Node43&#45;&gt;Node4 -->
<g id="edge33" class="edge">
<title>Node43&#45;&gt;Node4</title>
<path fill="none" stroke="#191970" d="M1669.4825,-246.8576C1602.8024,-243.6802 1503.2818,-238.9705 1416.5999,-235 1057.0656,-218.5312 964.2709,-247.1877 607.5999,-199 593.5382,-197.1002 578.1011,-193.6917 565.4945,-190.5539"/>
<polygon fill="#191970" stroke="#191970" points="566.22,-187.1266 555.663,-188.0209 564.4735,-193.9052 566.22,-187.1266"/>
</g>
<!-- Node43&#45;&gt;Node5 -->
<g id="edge35" class="edge">
<title>Node43&#45;&gt;Node5</title>
<path fill="none" stroke="#191970" d="M1713.3629,-240.9005C1673.6814,-229.0843 1606.2009,-208.9901 1562.5257,-195.9845"/>
<polygon fill="#191970" stroke="#191970" points="1563.3602,-192.5812 1552.7772,-193.0817 1561.3624,-199.2901 1563.3602,-192.5812"/>
</g>
<!-- Node43&#45;&gt;Node9 -->
<g id="edge36" class="edge">
<title>Node43&#45;&gt;Node9</title>
<path fill="none" stroke="#191970" d="M1797.3841,-240.9804C1809.8725,-238.8512 1823.1928,-236.7176 1835.5999,-235 1987.4337,-213.9808 2026.8712,-220.7646 2178.5999,-199 2187.031,-197.7906 2195.9037,-196.3552 2204.6073,-194.8535"/>
<polygon fill="#191970" stroke="#191970" points="2205.4712,-198.2552 2214.7103,-193.0697 2204.2541,-191.3618 2205.4712,-198.2552"/>
</g>
<!-- Node43&#45;&gt;Node15 -->
<g id="edge32" class="edge">
<title>Node43&#45;&gt;Node15</title>
<path fill="none" stroke="#191970" d="M1737.9925,-240.6825C1717.1737,-214.6144 1656.2225,-143.5032 1587.5999,-112 1536.6647,-88.6167 1371.7956,-73.9536 1298.862,-68.4584"/>
<polygon fill="#191970" stroke="#191970" points="1299.0237,-64.9609 1288.7929,-67.7142 1298.5077,-71.9419 1299.0237,-64.9609"/>
</g>
<!-- Node43&#45;&gt;Node18 -->
<g id="edge34" class="edge">
<title>Node43&#45;&gt;Node18</title>
<path fill="none" stroke="#191970" d="M1669.4806,-246.8983C1602.7993,-243.7469 1503.2781,-239.0524 1416.5999,-235 1373.4896,-232.9845 670.4014,-230.216 640.5999,-199 611.0643,-168.0624 633.5921,-113.2025 648.7501,-84.5673"/>
<polygon fill="#191970" stroke="#191970" points="651.9251,-86.0585 653.7069,-75.6145 645.8011,-82.6678 651.9251,-86.0585"/>
</g>
<!-- Node44 -->
<g id="node23" class="node">
<title>Node44</title>
<g id="a_node23"><a xlink:href="Graphics_2Render_2Window_8hpp.html" target="_top" xlink:title="lug/Graphics/Render\l/Window.hpp">
<polygon fill="none" stroke="#ff0000" points="2429.0999,-168.5 2429.0999,-198.5 2548.0999,-198.5 2548.0999,-168.5 2429.0999,-168.5"/>
<text text-anchor="start" x="2437.0999" y="-186.5" font-family="Helvetica,sans-Serif" font-size="10.00" fill="#000000">lug/Graphics/Render</text>
<text text-anchor="middle" x="2488.5999" y="-175.5" font-family="Helvetica,sans-Serif" font-size="10.00" fill="#000000">/Window.hpp</text>
</a>
</g>
</g>
<!-- Node43&#45;&gt;Node44 -->
<g id="edge37" class="edge">
<title>Node43&#45;&gt;Node44</title>
<path fill="none" stroke="#191970" d="M1821.6361,-244.4561C1935.2728,-235.3091 2156.1226,-217.0912 2343.5999,-199 2368.1857,-196.6275 2395.0918,-193.8121 2418.9788,-191.236"/>
<polygon fill="#191970" stroke="#191970" points="2419.4509,-194.7055 2429.0157,-190.1486 2418.6969,-187.7462 2419.4509,-194.7055"/>
</g>
<!-- Node70 -->
<g id="node24" class="node">
<title>Node70</title>
<g id="a_node24"><a xlink:href="Type_8hpp.html" target="_top" xlink:title="lug/Graphics/Render\l/Technique/Type.hpp">
<polygon fill="none" stroke="#000000" points="2566.5999,-168.5 2566.5999,-198.5 2688.5999,-198.5 2688.5999,-168.5 2566.5999,-168.5"/>
<text text-anchor="start" x="2574.5999" y="-186.5" font-family="Helvetica,sans-Serif" font-size="10.00" fill="#000000">lug/Graphics/Render</text>
<text text-anchor="middle" x="2627.5999" y="-175.5" font-family="Helvetica,sans-Serif" font-size="10.00" fill="#000000">/Technique/Type.hpp</text>
</a>
</g>
</g>
<!-- Node43&#45;&gt;Node70 -->
<g id="edge40" class="edge">
<title>Node43&#45;&gt;Node70</title>
<path fill="none" stroke="#191970" d="M1821.8231,-247.1746C1991.8497,-239.5169 2398.877,-219.7944 2556.239,-199.0197"/>
<polygon fill="#191970" stroke="#191970" points="2556.8055,-202.4749 2566.2379,-197.6499 2555.8554,-195.5397 2556.8055,-202.4749"/>
</g>
<!-- Node71 -->
<g id="node25" class="node">
<title>Node71</title>
<g id="a_node25"><a xlink:href="ResourceManager_8hpp.html" target="_top" xlink:title="lug/Graphics/ResourceManager.hpp">
<polygon fill="none" stroke="#ff0000" points="1904.5999,-174 1904.5999,-193 2098.5999,-193 2098.5999,-174 1904.5999,-174"/>
<text text-anchor="middle" x="2001.5999" y="-181" font-family="Helvetica,sans-Serif" font-size="10.00" fill="#000000">lug/Graphics/ResourceManager.hpp</text>
</a>
</g>
</g>
<!-- Node43&#45;&gt;Node71 -->
<g id="edge42" class="edge">
<title>Node43&#45;&gt;Node71</title>
<path fill="none" stroke="#191970" d="M1782.0066,-240.9717C1827.4653,-229.0743 1905.2909,-208.7059 1955.0414,-195.6852"/>
<polygon fill="#191970" stroke="#191970" points="1956.1164,-199.0219 1964.9044,-193.1039 1954.344,-192.2499 1956.1164,-199.0219"/>
</g>
<!-- Node44&#45;&gt;Node7 -->
<g id="edge39" class="edge">
<title>Node44&#45;&gt;Node7</title>
<path fill="none" stroke="#191970" d="M2513.8223,-168.3795C2551.5666,-145.7521 2622.3078,-103.3435 2659.8027,-80.8657"/>
<polygon fill="#191970" stroke="#191970" points="2661.8014,-83.7483 2668.5786,-75.6046 2658.2021,-77.7445 2661.8014,-83.7483"/>
</g>
<!-- Node44&#45;&gt;Node12 -->
<g id="edge38" class="edge">
<title>Node44&#45;&gt;Node12</title>
<path fill="none" stroke="#191970" d="M2466.8471,-168.2977C2453.4031,-158.9022 2436.1988,-146.8787 2422.6922,-137.4395"/>
<polygon fill="#191970" stroke="#191970" points="2424.6287,-134.5228 2414.4271,-131.6633 2420.6188,-140.2605 2424.6287,-134.5228"/>
</g>
<!-- Node70&#45;&gt;Node7 -->
<g id="edge41" class="edge">
<title>Node70&#45;&gt;Node7</title>
<path fill="none" stroke="#191970" d="M2635.0517,-168.1389C2645.4613,-146.6806 2664.3352,-107.7738 2675.5429,-84.6702"/>
<polygon fill="#191970" stroke="#191970" points="2678.7469,-86.0844 2679.9626,-75.5595 2672.4489,-83.0291 2678.7469,-86.0844"/>
</g>
<!-- Node71&#45;&gt;Node3 -->
<g id="edge43" class="edge">
<title>Node71&#45;&gt;Node3</title>
<path fill="none" stroke="#191970" d="M1961.5705,-173.9581C1912.9434,-162.3668 1831.4306,-142.9364 1783.0613,-131.4065"/>
<polygon fill="#191970" stroke="#191970" points="1783.8057,-127.9859 1773.2666,-129.0717 1782.1825,-134.7951 1783.8057,-127.9859"/>
</g>
<!-- Node71&#45;&gt;Node7 -->
<g id="edge46" class="edge">
<title>Node71&#45;&gt;Node7</title>
<path fill="none" stroke="#191970" d="M2006.5561,-173.9786C2015.4971,-157.9216 2035.9937,-125.8564 2063.5999,-112 2110.872,-88.2728 2448.7853,-73.9401 2605.3433,-68.5047"/>
<polygon fill="#191970" stroke="#191970" points="2605.5144,-72.001 2615.3883,-68.1596 2605.274,-65.0051 2605.5144,-72.001"/>
</g>
<!-- Node71&#45;&gt;Node11 -->
<g id="edge44" class="edge">
<title>Node71&#45;&gt;Node11</title>
<path fill="none" stroke="#191970" d="M2020.0374,-173.8906C2039.4346,-163.7811 2070.1689,-147.7628 2092.3617,-136.1962"/>
<polygon fill="#191970" stroke="#191970" points="2094.0417,-139.2675 2101.2919,-131.5419 2090.8064,-133.06 2094.0417,-139.2675"/>
</g>
<!-- Node71&#45;&gt;Node12 -->
<g id="edge45" class="edge">
<title>Node71&#45;&gt;Node12</title>
<path fill="none" stroke="#191970" d="M2063.5059,-173.9581C2148.6935,-160.8277 2299.1413,-137.6384 2366.4192,-127.2685"/>
<polygon fill="#191970" stroke="#191970" points="2367.13,-130.7003 2376.48,-125.7177 2366.0635,-123.782 2367.13,-130.7003"/>
</g>
<!-- Node71&#45;&gt;Node16 -->
<g id="edge47" class="edge">
<title>Node71&#45;&gt;Node16</title>
<path fill="none" stroke="#191970" d="M1904.4154,-178.5193C1675.5163,-166.7882 1105.4232,-137.5709 887.8495,-126.4203"/>
<polygon fill="#191970" stroke="#191970" points="887.9241,-122.9196 877.7581,-125.9031 887.5658,-129.9104 887.9241,-122.9196"/>
</g>
<!-- Node76&#45;&gt;Node7 -->
<g id="edge50" class="edge">
<title>Node76&#45;&gt;Node7</title>
<path fill="none" stroke="#191970" d="M703.6776,-168.3332C701.4703,-151.7935 701.0623,-125.838 716.5999,-112 752.4442,-80.0767 2241.7427,-68.7536 2605.215,-66.4628"/>
<polygon fill="#191970" stroke="#191970" points="2605.4049,-69.9618 2615.3828,-66.3992 2605.3611,-62.9619 2605.4049,-69.9618"/>
</g>
<!-- Node76&#45;&gt;Node16 -->
<g id="edge51" class="edge">
<title>Node76&#45;&gt;Node16</title>
<path fill="none" stroke="#191970" d="M730.0831,-168.2977C744.7347,-158.8127 763.5235,-146.6495 778.1659,-137.1705"/>
<polygon fill="#191970" stroke="#191970" points="780.1804,-140.0357 786.6729,-131.6633 776.3764,-134.1596 780.1804,-140.0357"/>
</g>
<!-- Node76&#45;&gt;Node18 -->
<g id="edge49" class="edge">
<title>Node76&#45;&gt;Node18</title>
<path fill="none" stroke="#191970" d="M699.4686,-168.2988C694.773,-158.1085 688.5939,-144.3454 683.5999,-132 677.3225,-116.4818 670.8752,-98.625 666.2459,-85.4017"/>
<polygon fill="#191970" stroke="#191970" points="669.5427,-84.2259 662.961,-75.9234 662.9286,-86.5182 669.5427,-84.2259"/>
</g>
<!-- Node87&#45;&gt;Node3 -->
<g id="edge58" class="edge">
<title>Node87&#45;&gt;Node3</title>
<path fill="none" stroke="#191970" d="M2131.4611,-378.7916C2059.654,-371.0063 1943.552,-355.4161 1906.5999,-333 1859.4748,-304.4126 1874.0608,-268.8996 1830.5999,-235 1799.216,-210.5205 1771.433,-231.6014 1748.5999,-199 1736.9861,-182.4175 1737.3418,-158.5795 1739.5824,-141.8312"/>
<polygon fill="#191970" stroke="#191970" points="1743.1053,-141.9869 1741.3108,-131.5451 1736.202,-140.8269 1743.1053,-141.9869"/>
</g>
<!-- Node87&#45;&gt;Node4 -->
<g id="edge59" class="edge">
<title>Node87&#45;&gt;Node4</title>
<path fill="none" stroke="#191970" d="M2131.5929,-382.1797C1846.1021,-370.7069 619.3658,-318.4889 558.5999,-266 540.8408,-250.6598 537.8432,-222.3632 538.1021,-203.2389"/>
<polygon fill="#191970" stroke="#191970" points="541.6005,-203.3502 538.5438,-193.2059 534.6073,-203.0422 541.6005,-203.3502"/>
</g>
<!-- Node87&#45;&gt;Node7 -->
<g id="edge61" class="edge">
<title>Node87&#45;&gt;Node7</title>
<path fill="none" stroke="#191970" d="M2197.5831,-369.2878C2212.9244,-337.8493 2252.8607,-266.0643 2310.5999,-235 2386.6617,-194.078 2639.4234,-262.8395 2697.5999,-199 2726.1312,-167.6915 2707.3533,-113.3909 2694.2352,-84.819"/>
<polygon fill="#191970" stroke="#191970" points="2697.2576,-83.0291 2689.7565,-75.5469 2690.9544,-86.0738 2697.2576,-83.0291"/>
</g>
<!-- Node87&#45;&gt;Node12 -->
<g id="edge60" class="edge">
<title>Node87&#45;&gt;Node12</title>
<path fill="none" stroke="#191970" d="M2191.0397,-369.3251C2192.7575,-339.214 2200.9652,-271.6621 2239.5999,-235 2284.0211,-192.8469 2327.5091,-240.436 2372.5999,-199 2388.7524,-184.1568 2395.6052,-159.2534 2398.5011,-141.7974"/>
<polygon fill="#191970" stroke="#191970" points="2402.0107,-141.9628 2399.8906,-131.5823 2395.0746,-141.0192 2402.0107,-141.9628"/>
</g>
<!-- Node87&#45;&gt;Node14 -->
<g id="edge62" class="edge">
<title>Node87&#45;&gt;Node14</title>
<path fill="none" stroke="#191970" d="M2131.541,-382.7447C1965.0066,-377.4771 1499.6437,-360.4513 1436.5999,-333 1407.1992,-320.198 1381.4859,-293.1943 1365.5677,-273.5585"/>
<polygon fill="#191970" stroke="#191970" points="1368.2918,-271.3605 1359.3631,-265.6571 1362.7864,-275.6837 1368.2918,-271.3605"/>
</g>
<!-- Node88 -->
<g id="node32" class="node">
<title>Node88</title>
<g id="a_node32"><a xlink:href="Buffer_8hpp.html" target="_top" xlink:title="lug/Graphics/Vulkan\l/API/Buffer.hpp">
<polygon fill="none" stroke="#ff0000" points="2319.5999,-235.5 2319.5999,-265.5 2437.5999,-265.5 2437.5999,-235.5 2319.5999,-235.5"/>
<text text-anchor="start" x="2327.5999" y="-253.5" font-family="Helvetica,sans-Serif" font-size="10.00" fill="#000000">lug/Graphics/Vulkan</text>
<text text-anchor="middle" x="2378.5999" y="-242.5" font-family="Helvetica,sans-Serif" font-size="10.00" fill="#000000">/API/Buffer.hpp</text>
</a>
</g>
</g>
<!-- Node87&#45;&gt;Node88 -->
<g id="edge63" class="edge">
<title>Node87&#45;&gt;Node88</title>
<path fill="none" stroke="#191970" d="M2211.8005,-369.389C2245.4579,-345.3991 2311.1994,-298.5408 2349.326,-271.3655"/>
<polygon fill="#191970" stroke="#191970" points="2351.3652,-274.2101 2357.4769,-265.5558 2347.3022,-268.5099 2351.3652,-274.2101"/>
</g>
<!-- Node89 -->
<g id="node33" class="node">
<title>Node89</title>
<g id="a_node33"><a xlink:href="Vulkan_8hpp.html" target="_top" xlink:title="lug/Graphics/Vulkan\l/Vulkan.hpp">
<polygon fill="none" stroke="#ff0000" points="2858.5999,-168.5 2858.5999,-198.5 2976.5999,-198.5 2976.5999,-168.5 2858.5999,-168.5"/>
<text text-anchor="start" x="2866.5999" y="-186.5" font-family="Helvetica,sans-Serif" font-size="10.00" fill="#000000">lug/Graphics/Vulkan</text>
<text text-anchor="middle" x="2917.5999" y="-175.5" font-family="Helvetica,sans-Serif" font-size="10.00" fill="#000000">/Vulkan.hpp</text>
</a>
</g>
</g>
<!-- Node87&#45;&gt;Node89 -->
<g id="edge85" class="edge">
<title>Node87&#45;&gt;Node89</title>
<path fill="none" stroke="#191970" d="M2228.2291,-369.4339C2274.5236,-351.3589 2355.8172,-321.1085 2427.5999,-302 2511.4986,-279.6663 2538.9534,-298.1546 2619.5999,-266 2643.1897,-256.5945 2644.0829,-244.5857 2667.5999,-235 2741.939,-204.6989 2766.0026,-215.3369 2844.5999,-199 2845.8486,-198.7405 2847.1092,-198.478 2848.379,-198.2131"/>
<polygon fill="#191970" stroke="#191970" points="2849.1763,-201.6221 2858.2466,-196.1468 2847.7416,-194.7707 2849.1763,-201.6221"/>
</g>
<!-- Node92 -->
<g id="node34" class="node">
<title>Node92</title>
<g id="a_node34"><a xlink:href="DeviceMemory_8hpp.html" target="_top" xlink:title="lug/Graphics/Vulkan\l/API/DeviceMemory.hpp">
<polygon fill="none" stroke="#ff0000" points="2709.5999,-235.5 2709.5999,-265.5 2847.5999,-265.5 2847.5999,-235.5 2709.5999,-235.5"/>
<text text-anchor="start" x="2717.5999" y="-253.5" font-family="Helvetica,sans-Serif" font-size="10.00" fill="#000000">lug/Graphics/Vulkan</text>
<text text-anchor="middle" x="2778.5999" y="-242.5" font-family="Helvetica,sans-Serif" font-size="10.00" fill="#000000">/API/DeviceMemory.hpp</text>
</a>
</g>
</g>
<!-- Node87&#45;&gt;Node92 -->
<g id="edge71" class="edge">
<title>Node87&#45;&gt;Node92</title>
<path fill="none" stroke="#191970" d="M2249.6718,-371.038C2356.9214,-346.5968 2583.5292,-294.9549 2702.3078,-267.8863"/>
<polygon fill="#191970" stroke="#191970" points="2703.4408,-271.2179 2712.4131,-265.5834 2701.8853,-264.3929 2703.4408,-271.2179"/>
</g>
<!-- Node94 -->
<g id="node35" class="node">
<title>Node94</title>
<g id="a_node35"><a xlink:href="Vulkan_2Builder_2Mesh_8hpp.html" target="_top" xlink:title="lug/Graphics/Vulkan\l/Builder/Mesh.hpp">
<polygon fill="none" stroke="#000000" points="423.5999,-302.5 423.5999,-332.5 541.5999,-332.5 541.5999,-302.5 423.5999,-302.5"/>
<text text-anchor="start" x="431.5999" y="-320.5" font-family="Helvetica,sans-Serif" font-size="10.00" fill="#000000">lug/Graphics/Vulkan</text>
<text text-anchor="middle" x="482.5999" y="-309.5" font-family="Helvetica,sans-Serif" font-size="10.00" fill="#000000">/Builder/Mesh.hpp</text>
</a>
</g>
</g>
<!-- Node87&#45;&gt;Node94 -->
<g id="edge74" class="edge">
<title>Node87&#45;&gt;Node94</title>
<path fill="none" stroke="#191970" d="M2131.3414,-384.0449C1876.1628,-381.868 869.7875,-370.9976 555.5999,-333 554.3338,-332.8469 553.0571,-332.6826 551.7725,-332.5083"/>
<polygon fill="#191970" stroke="#191970" points="552.2272,-329.0373 541.8144,-330.9928 551.174,-335.9576 552.2272,-329.0373"/>
</g>
<!-- Node95 -->
<g id="node36" class="node">
<title>Node95</title>
<g id="a_node36"><a xlink:href="Pipeline_8hpp.html" target="_top" xlink:title="lug/Graphics/Vulkan\l/Render/Pipeline.hpp">
<polygon fill="none" stroke="#ff0000" points="2051.5999,-302.5 2051.5999,-332.5 2173.5999,-332.5 2173.5999,-302.5 2051.5999,-302.5"/>
<text text-anchor="start" x="2059.5999" y="-320.5" font-family="Helvetica,sans-Serif" font-size="10.00" fill="#000000">lug/Graphics/Vulkan</text>
<text text-anchor="middle" x="2112.5999" y="-309.5" font-family="Helvetica,sans-Serif" font-size="10.00" fill="#000000">/Render/Pipeline.hpp</text>
</a>
</g>
</g>
<!-- Node87&#45;&gt;Node95 -->
<g id="edge77" class="edge">
<title>Node87&#45;&gt;Node95</title>
<path fill="none" stroke="#191970" d="M2172.9005,-369.2967C2162.6286,-360.4733 2149.5128,-349.2072 2138.1384,-339.4368"/>
<polygon fill="#191970" stroke="#191970" points="2140.0956,-336.5041 2130.2293,-332.6432 2135.5344,-341.8141 2140.0956,-336.5041"/>
</g>
<!-- Node104 -->
<g id="node37" class="node">
<title>Node104</title>
<g id="a_node37"><a xlink:href="Vulkan_2Render_2Mesh_8inl.html" target="_top" xlink:title="lug/Graphics/Vulkan\l/Render/Mesh.inl">
<polygon fill="none" stroke="#000000" points="1915.5999,-302.5 1915.5999,-332.5 2033.5999,-332.5 2033.5999,-302.5 1915.5999,-302.5"/>
<text text-anchor="start" x="1923.5999" y="-320.5" font-family="Helvetica,sans-Serif" font-size="10.00" fill="#000000">lug/Graphics/Vulkan</text>
<text text-anchor="middle" x="1974.5999" y="-309.5" font-family="Helvetica,sans-Serif" font-size="10.00" fill="#000000">/Render/Mesh.inl</text>
</a>
</g>
</g>
<!-- Node87&#45;&gt;Node104 -->
<g id="edge86" class="edge">
<title>Node87&#45;&gt;Node104</title>
<path fill="none" stroke="#191970" d="M2142.1253,-369.4639C2109.8611,-359.456 2067.2895,-346.2509 2033.136,-335.657"/>
<polygon fill="#191970" stroke="#191970" points="2033.874,-332.2215 2023.286,-332.6017 2031.8001,-338.9072 2033.874,-332.2215"/>
</g>
<!-- Node88&#45;&gt;Node3 -->
<g id="edge64" class="edge">
<title>Node88&#45;&gt;Node3</title>
<path fill="none" stroke="#191970" d="M2319.5817,-249.8578C2195.4581,-247.7292 1911.667,-238.551 1824.5999,-199 1795.7558,-185.8973 1770.7545,-158.1844 1756.4282,-139.8289"/>
<polygon fill="#191970" stroke="#191970" points="1759.0965,-137.5541 1750.2827,-131.6747 1753.5064,-141.7673 1759.0965,-137.5541"/>
</g>
<!-- Node88&#45;&gt;Node7 -->
<g id="edge65" class="edge">
<title>Node88&#45;&gt;Node7</title>
<path fill="none" stroke="#191970" d="M2437.8685,-236.6305C2440.8157,-236.0538 2443.7384,-235.5062 2446.5999,-235 2509.2433,-223.9176 2688.54,-246.7281 2730.5999,-199 2756.1645,-169.9903 2745.397,-147.7233 2730.5999,-112 2725.7687,-100.3363 2716.3862,-90.0881 2707.3482,-82.243"/>
<polygon fill="#191970" stroke="#191970" points="2709.2669,-79.2942 2699.2852,-75.7423 2704.8733,-84.7436 2709.2669,-79.2942"/>
</g>
<!-- Node88&#45;&gt;Node89 -->
<g id="edge66" class="edge">
<title>Node88&#45;&gt;Node89</title>
<path fill="none" stroke="#191970" d="M2437.8581,-236.5699C2440.808,-236.0092 2443.7341,-235.4816 2446.5999,-235 2466.0985,-231.7229 2722.05,-204.3119 2848.2333,-190.8719"/>
<polygon fill="#191970" stroke="#191970" points="2848.6189,-194.3508 2858.1921,-189.8115 2847.8777,-187.3901 2848.6189,-194.3508"/>
</g>
<!-- Node89&#45;&gt;Node7 -->
<g id="edge70" class="edge">
<title>Node89&#45;&gt;Node7</title>
<path fill="none" stroke="#191970" d="M2906.073,-168.4045C2892.907,-152.1774 2869.8923,-126.7339 2844.5999,-112 2816.5525,-95.6612 2782.3215,-84.8051 2752.73,-77.7656"/>
<polygon fill="#191970" stroke="#191970" points="2753.4159,-74.3323 2742.8881,-75.5223 2751.8601,-81.1572 2753.4159,-74.3323"/>
</g>
<!-- Node89&#45;&gt;Node10 -->
<g id="edge69" class="edge">
<title>Node89&#45;&gt;Node10</title>
<path fill="none" stroke="#191970" d="M2858.5749,-175.0776C2769.1776,-162.3214 2601.8345,-138.443 2525.8856,-127.6057"/>
<polygon fill="#191970" stroke="#191970" points="2526.1873,-124.1134 2515.7931,-126.1656 2525.1984,-131.0432 2526.1873,-124.1134"/>
</g>
<!-- Node89&#45;&gt;Node11 -->
<g id="edge67" class="edge">
<title>Node89&#45;&gt;Node11</title>
<path fill="none" stroke="#191970" d="M2858.3087,-179.3009C2814.0305,-176.1703 2752.0296,-171.7979 2697.5999,-168 2469.334,-152.0725 2408.7083,-159.8638 2177.2122,-131.9472"/>
<polygon fill="#191970" stroke="#191970" points="2177.4794,-128.454 2167.1302,-130.722 2176.6349,-135.4029 2177.4794,-128.454"/>
</g>
<!-- Node89&#45;&gt;Node12 -->
<g id="edge68" class="edge">
<title>Node89&#45;&gt;Node12</title>
<path fill="none" stroke="#191970" d="M2858.4969,-178.8435C2769.329,-171.4049 2595.2324,-155.2698 2448.5999,-132 2444.1284,-131.2904 2439.443,-130.444 2434.8256,-129.5483"/>
<polygon fill="#191970" stroke="#191970" points="2435.4314,-126.1 2424.9353,-127.5425 2434.0401,-132.9603 2435.4314,-126.1"/>
</g>
<!-- Node92&#45;&gt;Node7 -->
<g id="edge72" class="edge">
<title>Node92&#45;&gt;Node7</title>
<path fill="none" stroke="#191970" d="M2847.4914,-235.4796C2905.9866,-222.3971 2981.1739,-204.6621 2985.5999,-199 2994.0851,-188.1451 2992.8846,-179.6945 2985.5999,-168 2959.8968,-126.737 2826.9636,-93.9515 2746.5987,-77.5234"/>
<polygon fill="#191970" stroke="#191970" points="2747.0825,-74.0506 2736.5881,-75.5058 2745.6995,-80.9126 2747.0825,-74.0506"/>
</g>
<!-- Node92&#45;&gt;Node89 -->
<g id="edge73" class="edge">
<title>Node92&#45;&gt;Node89</title>
<path fill="none" stroke="#191970" d="M2809.7943,-235.4639C2829.5961,-225.9191 2855.4311,-213.4663 2876.846,-203.144"/>
<polygon fill="#191970" stroke="#191970" points="2878.5404,-206.2127 2886.0288,-198.7177 2875.5009,-199.907 2878.5404,-206.2127"/>
</g>
<!-- Node94&#45;&gt;Node14 -->
<g id="edge75" class="edge">
<title>Node94&#45;&gt;Node14</title>
<path fill="none" stroke="#191970" d="M541.7828,-312.9212C696.5436,-300.9478 1112.7249,-268.749 1278.7848,-255.9014"/>
<polygon fill="#191970" stroke="#191970" points="1279.1815,-259.3813 1288.8817,-255.1202 1278.6415,-252.4021 1279.1815,-259.3813"/>
</g>
<!-- Node94&#45;&gt;Node16 -->
<g id="edge76" class="edge">
<title>Node94&#45;&gt;Node16</title>
<path fill="none" stroke="#191970" d="M480.791,-302.1503C478.1445,-271.725 477.0632,-203.6361 514.5999,-168 542.868,-141.1633 641.5317,-129.9648 715.3362,-125.3034"/>
<polygon fill="#191970" stroke="#191970" points="715.8034,-128.7818 725.5755,-124.6881 715.3835,-121.7944 715.8034,-128.7818"/>
</g>
<!-- Node95&#45;&gt;Node7 -->
<g id="edge81" class="edge">
<title>Node95&#45;&gt;Node7</title>
<path fill="none" stroke="#191970" d="M2173.808,-313.029C2293.4509,-303.9727 2549.8933,-282.8874 2586.5999,-266 2604.8811,-257.5895 2601.7641,-244.3178 2619.5999,-235 2688.0528,-199.239 2740.9741,-259.0014 2789.5999,-199 2797.4688,-189.2904 2796.0979,-125.8735 2786.5999,-112 2775.8593,-96.3113 2758.4219,-85.8951 2740.9785,-79.0129"/>
<polygon fill="#191970" stroke="#191970" points="2741.924,-75.6336 2731.3295,-75.5421 2739.5546,-82.2204 2741.924,-75.6336"/>
</g>
<!-- Node95&#45;&gt;Node12 -->
<g id="edge80" class="edge">
<title>Node95&#45;&gt;Node12</title>
<path fill="none" stroke="#191970" d="M2120.0499,-302.3739C2130.1613,-283.5066 2150.0575,-251.7025 2176.5999,-235 2240.8623,-194.5614 2279.7975,-240.1604 2343.5999,-199 2365.7846,-184.6882 2382.3721,-158.5215 2391.7746,-140.7031"/>
<polygon fill="#191970" stroke="#191970" points="2395.0053,-142.0683 2396.3587,-131.5602 2388.7478,-138.9308 2395.0053,-142.0683"/>
</g>
<!-- Node95&#45;&gt;Node15 -->
<g id="edge78" class="edge">
<title>Node95&#45;&gt;Node15</title>
<path fill="none" stroke="#191970" d="M2081.5647,-302.4304C2038.665,-281.183 1959.3242,-240.3731 1895.5999,-199 1842.143,-164.2929 1841.0173,-135.0608 1781.5999,-112 1693.0947,-77.6497 1400.4161,-68.6932 1298.757,-66.5903"/>
<polygon fill="#191970" stroke="#191970" points="1298.7664,-63.0899 1288.6993,-66.3919 1298.6284,-70.0885 1298.7664,-63.0899"/>
</g>
<!-- Node95&#45;&gt;Node16 -->
<g id="edge84" class="edge">
<title>Node95&#45;&gt;Node16</title>
<path fill="none" stroke="#191970" d="M2051.2457,-303.293C2048.3305,-302.8137 2045.4377,-302.3783 2042.5999,-302 1706.0886,-257.1392 1617.5236,-298.5566 1279.5999,-266 1176.9941,-256.1147 896.9363,-268.2707 820.5999,-199 804.8,-184.6625 801.1659,-159.471 800.7588,-141.8179"/>
<polygon fill="#191970" stroke="#191970" points="804.2593,-141.7622 800.8519,-131.7303 797.2596,-141.6976 804.2593,-141.7622"/>
</g>
<!-- Node95&#45;&gt;Node18 -->
<g id="edge79" class="edge">
<title>Node95&#45;&gt;Node18</title>
<path fill="none" stroke="#191970" d="M2051.2528,-303.2381C2048.3357,-302.7736 2045.4405,-302.3562 2042.5999,-302 1791.3305,-270.4894 1149.6808,-325.7785 903.5999,-266 872.4983,-258.4447 869.1245,-244.6253 838.5999,-235 792.3995,-220.4317 654.8983,-235.9747 623.5999,-199 617.4343,-191.7161 620.183,-130.2617 626.5999,-112 630.2758,-101.5391 637.1203,-91.365 643.627,-83.2564"/>
<polygon fill="#191970" stroke="#191970" points="646.3078,-85.5067 650.1384,-75.6286 640.9838,-80.9619 646.3078,-85.5067"/>
</g>
<!-- Node95&#45;&gt;Node43 -->
<g id="edge82" class="edge">
<title>Node95&#45;&gt;Node43</title>
<path fill="none" stroke="#191970" d="M2051.5514,-303.8079C2048.5273,-303.1843 2045.5308,-302.5783 2042.5999,-302 1965.0663,-286.7022 1875.6568,-271.5318 1815.3625,-261.6617"/>
<polygon fill="#191970" stroke="#191970" points="1815.6316,-258.1594 1805.1984,-260.003 1814.5041,-265.068 1815.6316,-258.1594"/>
</g>
<!-- Node95&#45;&gt;Node70 -->
<g id="edge83" class="edge">
<title>Node95&#45;&gt;Node70</title>
<path fill="none" stroke="#191970" d="M2130.0886,-302.2836C2153.3425,-283.0085 2196.5379,-250.4468 2239.5999,-235 2370.4759,-188.0535 2415.2892,-220.8579 2556.6883,-199.0004"/>
<polygon fill="#191970" stroke="#191970" points="2557.2741,-202.4513 2566.5903,-197.4056 2556.1609,-195.5403 2557.2741,-202.4513"/>
</g>
<!-- Node105&#45;&gt;Node3 -->
<g id="edge89" class="edge">
<title>Node105&#45;&gt;Node3</title>
<path fill="none" stroke="#191970" d="M2484.7912,-436.4239C2413.5529,-402.7975 2242.7368,-322.9716 2182.5999,-302 2138.9603,-286.7815 1815.1905,-228.4846 1779.5999,-199 1761.9078,-184.3431 1752.4201,-159.0349 1747.7012,-141.4516"/>
<polygon fill="#191970" stroke="#191970" points="1751.0892,-140.5708 1745.3485,-131.6661 1744.2832,-142.2072 1751.0892,-140.5708"/>
</g>
<!-- Node105&#45;&gt;Node7 -->
<g id="edge91" class="edge">
<title>Node105&#45;&gt;Node7</title>
<path fill="none" stroke="#191970" d="M2575.8441,-437.4836C2578.7977,-436.9458 2581.7285,-436.4466 2584.5999,-436 2740.2776,-411.7852 3283.5999,-475.0496 3283.5999,-317.5 3283.5999,-317.5 3283.5999,-317.5 3283.5999,-183.5 3283.5999,-131.1126 2926.2334,-89.5524 2763.5617,-73.3481"/>
<polygon fill="#191970" stroke="#191970" points="2763.9011,-69.8646 2753.6052,-72.3637 2763.2123,-76.8307 2763.9011,-69.8646"/>
</g>
<!-- Node105&#45;&gt;Node11 -->
<g id="edge90" class="edge">
<title>Node105&#45;&gt;Node11</title>
<path fill="none" stroke="#191970" d="M2498.2948,-436.2934C2465.1223,-408.8655 2392.659,-349.5434 2329.5999,-302 2266.4809,-254.4113 2242.7789,-252.5154 2184.5999,-199 2164.6106,-180.6129 2144.9607,-156.2086 2132.5901,-139.8476"/>
<polygon fill="#191970" stroke="#191970" points="2135.2874,-137.6095 2126.5106,-131.675 2129.671,-141.7875 2135.2874,-137.6095"/>
</g>
<!-- Node105&#45;&gt;Node43 -->
<g id="edge92" class="edge">
<title>Node105&#45;&gt;Node43</title>
<path fill="none" stroke="#191970" d="M2457.5922,-449.7544C2341.0418,-444.3773 2075.1406,-422.4437 1873.5999,-333 1832.7079,-314.8521 1789.9483,-284.649 1765.6573,-266.2573"/>
<polygon fill="#191970" stroke="#191970" points="1767.6454,-263.3712 1757.5812,-260.0601 1763.3839,-268.9246 1767.6454,-263.3712"/>
</g>
<!-- Node105&#45;&gt;Node87 -->
<g id="edge102" class="edge">
<title>Node105&#45;&gt;Node87</title>
<path fill="none" stroke="#191970" d="M2457.5273,-439.6214C2406.2346,-429.2723 2329.977,-413.8024 2263.5999,-400 2262.3513,-399.7404 2261.0907,-399.4778 2259.821,-399.2128"/>
<polygon fill="#191970" stroke="#191970" points="2260.4586,-395.7705 2249.9534,-397.146 2259.0235,-402.6218 2260.4586,-395.7705"/>
</g>
<!-- Node105&#45;&gt;Node89 -->
<g id="edge109" class="edge">
<title>Node105&#45;&gt;Node89</title>
<path fill="none" stroke="#191970" d="M2524.8356,-436.3157C2547.2881,-396.4491 2613.7441,-288.2151 2700.5999,-235 2707.0895,-231.024 2787.4795,-212.5018 2848.5359,-198.8033"/>
<polygon fill="#191970" stroke="#191970" points="2849.5436,-202.1644 2858.5371,-196.5637 2848.0139,-195.3336 2849.5436,-202.1644"/>
</g>
<!-- Node105&#45;&gt;Node95 -->
<g id="edge103" class="edge">
<title>Node105&#45;&gt;Node95</title>
<path fill="none" stroke="#191970" d="M2457.5379,-443.703C2413.1604,-436.3565 2351.6675,-422.9542 2301.5999,-400 2280.1837,-390.1814 2279.4769,-379.9186 2258.5999,-369 2232.8345,-355.5248 2202.7734,-344.2418 2176.6481,-335.7045"/>
<polygon fill="#191970" stroke="#191970" points="2177.4362,-332.2819 2166.8452,-332.5681 2175.3031,-338.949 2177.4362,-332.2819"/>
</g>
<!-- Node33 -->
<g id="node39" class="node">
<title>Node33</title>
<polygon fill="none" stroke="#bfbfbf" points="2709.5999,-375 2709.5999,-394 2759.5999,-394 2759.5999,-375 2709.5999,-375"/>
<text text-anchor="middle" x="2734.5999" y="-382" font-family="Helvetica,sans-Serif" font-size="10.00" fill="#000000">cstring</text>
</g>
<!-- Node105&#45;&gt;Node33 -->
<g id="edge88" class="edge">
<title>Node105&#45;&gt;Node33</title>
<path fill="none" stroke="#191970" d="M2574.282,-436.451C2609.5808,-426.8602 2655.5135,-413.6956 2695.5999,-400 2697.7287,-399.2727 2699.9112,-398.4954 2702.1036,-397.6907"/>
<polygon fill="#191970" stroke="#191970" points="2703.5431,-400.8878 2711.6425,-394.0576 2701.0516,-394.3462 2703.5431,-400.8878"/>
</g>
<!-- Node106 -->
<g id="node40" class="node">
<title>Node106</title>
<g id="a_node40"><a xlink:href="Device_8hpp.html" target="_top" xlink:title="lug/Graphics/Vulkan\l/API/Device.hpp">
<polygon fill="none" stroke="#ff0000" points="2865.5999,-235.5 2865.5999,-265.5 2983.5999,-265.5 2983.5999,-235.5 2865.5999,-235.5"/>
<text text-anchor="start" x="2873.5999" y="-253.5" font-family="Helvetica,sans-Serif" font-size="10.00" fill="#000000">lug/Graphics/Vulkan</text>
<text text-anchor="middle" x="2924.5999" y="-242.5" font-family="Helvetica,sans-Serif" font-size="10.00" fill="#000000">/API/Device.hpp</text>
</a>
</g>
</g>
<!-- Node105&#45;&gt;Node106 -->
<g id="edge93" class="edge">
<title>Node105&#45;&gt;Node106</title>
<path fill="none" stroke="#191970" d="M2575.8599,-437.5809C2578.8094,-437.0173 2581.7349,-436.4861 2584.5999,-436 2655.1513,-424.0295 2853.4721,-450.0673 2904.5999,-400 2937.5204,-367.7624 2934.6348,-309.2131 2929.612,-275.7517"/>
<polygon fill="#191970" stroke="#191970" points="2933.0546,-275.1176 2927.9488,-265.8343 2926.151,-276.2755 2933.0546,-275.1176"/>
</g>
<!-- Node111 -->
<g id="node41" class="node">
<title>Node111</title>
<g id="a_node41"><a xlink:href="Instance_8hpp.html" target="_top" xlink:title="lug/Graphics/Vulkan\l/API/Instance.hpp">
<polygon fill="none" stroke="#ff0000" points="3001.5999,-235.5 3001.5999,-265.5 3119.5999,-265.5 3119.5999,-235.5 3001.5999,-235.5"/>
<text text-anchor="start" x="3009.5999" y="-253.5" font-family="Helvetica,sans-Serif" font-size="10.00" fill="#000000">lug/Graphics/Vulkan</text>
<text text-anchor="middle" x="3060.5999" y="-242.5" font-family="Helvetica,sans-Serif" font-size="10.00" fill="#000000">/API/Instance.hpp</text>
</a>
</g>
</g>
<!-- Node105&#45;&gt;Node111 -->
<g id="edge96" class="edge">
<title>Node105&#45;&gt;Node111</title>
<path fill="none" stroke="#191970" d="M2575.8555,-437.5546C2578.8061,-436.998 2581.7331,-436.4754 2584.5999,-436 2735.8164,-410.9225 2791.2285,-469.9866 2927.5999,-400 2983.2538,-371.4381 3026.4184,-309.0888 3047.1277,-274.6158"/>
<polygon fill="#191970" stroke="#191970" points="3050.3265,-276.0799 3052.3651,-265.6831 3044.2878,-272.5394 3050.3265,-276.0799"/>
</g>
<!-- Node113 -->
<g id="node42" class="node">
<title>Node113</title>
<g id="a_node42"><a xlink:href="Vulkan_2API_2Loader_8hpp.html" target="_top" xlink:title="lug/Graphics/Vulkan\l/API/Loader.hpp">
<polygon fill="none" stroke="#ff0000" points="3137.5999,-235.5 3137.5999,-265.5 3255.5999,-265.5 3255.5999,-235.5 3137.5999,-235.5"/>
<text text-anchor="start" x="3145.5999" y="-253.5" font-family="Helvetica,sans-Serif" font-size="10.00" fill="#000000">lug/Graphics/Vulkan</text>
<text text-anchor="middle" x="3196.5999" y="-242.5" font-family="Helvetica,sans-Serif" font-size="10.00" fill="#000000">/API/Loader.hpp</text>
</a>
</g>
</g>
<!-- Node105&#45;&gt;Node113 -->
<g id="edge99" class="edge">
<title>Node105&#45;&gt;Node113</title>
<path fill="none" stroke="#191970" d="M2575.8501,-437.5214C2578.8021,-436.9736 2581.7309,-436.462 2584.5999,-436 2750.777,-409.2409 2802.4132,-454.685 2961.5999,-400 3045.8845,-371.046 3130.6118,-306.2956 3171.4595,-272.2977"/>
<polygon fill="#191970" stroke="#191970" points="3173.8652,-274.8476 3179.2626,-265.7306 3169.3579,-269.4919 3173.8652,-274.8476"/>
</g>
<!-- Node124 -->
<g id="node43" class="node">
<title>Node124</title>
<g id="a_node43"><a xlink:href="Graphics_2Vulkan_2Render_2Window_8hpp.html" target="_top" xlink:title="lug/Graphics/Vulkan\l/Render/Window.hpp">
<polygon fill="none" stroke="#ff0000" points="2455.5999,-235.5 2455.5999,-265.5 2577.5999,-265.5 2577.5999,-235.5 2455.5999,-235.5"/>
<text text-anchor="start" x="2463.5999" y="-253.5" font-family="Helvetica,sans-Serif" font-size="10.00" fill="#000000">lug/Graphics/Vulkan</text>
<text text-anchor="middle" x="2516.5999" y="-242.5" font-family="Helvetica,sans-Serif" font-size="10.00" fill="#000000">/Render/Window.hpp</text>
</a>
</g>
</g>
<!-- Node105&#45;&gt;Node124 -->
<g id="edge104" class="edge">
<title>Node105&#45;&gt;Node124</title>
<path fill="none" stroke="#191970" d="M2516.5999,-436.3923C2516.5999,-402.0414 2516.5999,-317.7914 2516.5999,-275.5301"/>
<polygon fill="#191970" stroke="#191970" points="2520.1,-275.5088 2516.5999,-265.5088 2513.1,-275.5088 2520.1,-275.5088"/>
</g>
<!-- Node166 -->
<g id="node44" class="node">
<title>Node166</title>
<g id="a_node44"><a xlink:href="Vulkan_2Renderer_8inl.html" target="_top" xlink:title="lug/Graphics/Vulkan\l/Renderer.inl">
<polygon fill="none" stroke="#000000" points="2777.5999,-369.5 2777.5999,-399.5 2895.5999,-399.5 2895.5999,-369.5 2777.5999,-369.5"/>
<text text-anchor="start" x="2785.5999" y="-387.5" font-family="Helvetica,sans-Serif" font-size="10.00" fill="#000000">lug/Graphics/Vulkan</text>
<text text-anchor="middle" x="2836.5999" y="-376.5" font-family="Helvetica,sans-Serif" font-size="10.00" fill="#000000">/Renderer.inl</text>
</a>
</g>
</g>
<!-- Node105&#45;&gt;Node166 -->
<g id="edge110" class="edge">
<title>Node105&#45;&gt;Node166</title>
<path fill="none" stroke="#191970" d="M2575.9143,-437.8664C2578.8494,-437.2273 2581.757,-436.602 2584.5999,-436 2663.016,-419.3959 2685.3948,-417.3969 2767.2729,-400.2442"/>
<polygon fill="#191970" stroke="#191970" points="2768.2225,-403.621 2777.2856,-398.1336 2766.7787,-396.7715 2768.2225,-403.621"/>
</g>
<!-- Node106&#45;&gt;Node7 -->
<g id="edge94" class="edge">
<title>Node106&#45;&gt;Node7</title>
<path fill="none" stroke="#191970" d="M2961.4171,-235.4687C2976.7468,-227.1524 2992.961,-215.1711 3001.5999,-199 3008.092,-186.8476 3007.9265,-180.2394 3001.5999,-168 2981.8378,-129.7678 2962.1766,-128.9096 2922.5999,-112 2872.1085,-90.4269 2811.2645,-78.8951 2763.7349,-72.7729"/>
<polygon fill="#191970" stroke="#191970" points="2764.1567,-69.2985 2753.8032,-71.547 2763.2991,-76.2458 2764.1567,-69.2985"/>
</g>
<!-- Node106&#45;&gt;Node89 -->
<g id="edge95" class="edge">
<title>Node106&#45;&gt;Node89</title>
<path fill="none" stroke="#191970" d="M2923.0115,-235.2967C2922.1881,-227.4156 2921.1611,-217.5857 2920.2237,-208.6135"/>
<polygon fill="#191970" stroke="#191970" points="2923.7023,-208.2253 2919.1821,-198.6432 2916.7402,-208.9528 2923.7023,-208.2253"/>
</g>
<!-- Node111&#45;&gt;Node7 -->
<g id="edge97" class="edge">
<title>Node111&#45;&gt;Node7</title>
<path fill="none" stroke="#191970" d="M3054.8611,-235.0848C3042.6133,-204.75 3010.7051,-137.999 2958.5999,-112 2925.2956,-95.3821 2832.569,-82.0829 2764.1681,-74.1403"/>
<polygon fill="#191970" stroke="#191970" points="2764.1705,-70.6179 2753.8377,-72.9597 2763.3756,-77.5726 2764.1705,-70.6179"/>
</g>
<!-- Node111&#45;&gt;Node89 -->
<g id="edge98" class="edge">
<title>Node111&#45;&gt;Node89</title>
<path fill="none" stroke="#191970" d="M3028.508,-235.4639C3008.045,-225.8763 2981.3193,-213.3545 2959.2305,-203.0052"/>
<polygon fill="#191970" stroke="#191970" points="2960.6199,-199.7911 2950.0796,-198.7177 2957.65,-206.1299 2960.6199,-199.7911"/>
</g>
<!-- Node113&#45;&gt;Node7 -->
<g id="edge100" class="edge">
<title>Node113&#45;&gt;Node7</title>
<path fill="none" stroke="#191970" d="M3179.4324,-235.4208C3145.2178,-206.2837 3064.9698,-142.4432 2985.5999,-112 2946.2968,-96.9248 2839.4031,-82.8036 2764.227,-74.2838"/>
<polygon fill="#191970" stroke="#191970" points="2764.1678,-70.7553 2753.8401,-73.1193 2763.3879,-77.7117 2764.1678,-70.7553"/>
</g>
<!-- Node113&#45;&gt;Node89 -->
<g id="edge101" class="edge">
<title>Node113&#45;&gt;Node89</title>
<path fill="none" stroke="#191970" d="M3137.4312,-236.291C3093.3206,-225.6982 3032.9544,-211.2016 2986.6395,-200.0794"/>
<polygon fill="#191970" stroke="#191970" points="2987.2242,-196.6204 2976.6834,-197.6885 2985.5896,-203.4269 2987.2242,-196.6204"/>
</g>
<!-- Node124&#45;&gt;Node3 -->
<g id="edge105" class="edge">
<title>Node124&#45;&gt;Node3</title>
<path fill="none" stroke="#191970" d="M2455.2369,-236.3568C2452.3241,-235.8605 2449.4341,-235.404 2446.5999,-235 2203.6444,-200.3712 2132.3107,-263.7655 1895.5999,-199 1846.6815,-185.6156 1795.1118,-155.6233 1766.3824,-137.271"/>
<polygon fill="#191970" stroke="#191970" points="1768.1829,-134.267 1757.8895,-131.7573 1764.3711,-140.1382 1768.1829,-134.267"/>
</g>
<!-- Node124&#45;&gt;Node7 -->
<g id="edge106" class="edge">
<title>Node124&#45;&gt;Node7</title>
<path fill="none" stroke="#191970" d="M2577.9916,-237.796C2582.5963,-236.8482 2587.1714,-235.908 2591.5999,-235 2670.2414,-218.8763 2717.8062,-261.1646 2768.5999,-199 2793.0655,-169.0576 2788.3102,-145.2659 2768.5999,-112 2759.7563,-97.0742 2744.1668,-86.6736 2728.7998,-79.589"/>
<polygon fill="#191970" stroke="#191970" points="2729.8971,-76.2534 2719.3227,-75.5956 2727.1788,-82.7041 2729.8971,-76.2534"/>
</g>
<!-- Node124&#45;&gt;Node44 -->
<g id="edge107" class="edge">
<title>Node124&#45;&gt;Node44</title>
<path fill="none" stroke="#191970" d="M2510.2463,-235.2967C2506.8811,-227.2443 2502.6657,-217.1574 2498.8511,-208.0296"/>
<polygon fill="#191970" stroke="#191970" points="2502.0138,-206.5203 2494.9284,-198.6432 2495.5551,-209.2195 2502.0138,-206.5203"/>
</g>
<!-- Node124&#45;&gt;Node89 -->
<g id="edge108" class="edge">
<title>Node124&#45;&gt;Node89</title>
<path fill="none" stroke="#191970" d="M2577.9397,-240.2512C2650.9048,-228.06 2772.388,-207.7623 2848.5749,-195.0329"/>
<polygon fill="#191970" stroke="#191970" points="2849.2679,-198.4657 2858.5544,-193.3655 2848.1143,-191.5614 2849.2679,-198.4657"/>
</g>
<!-- Node115&#45;&gt;Node3 -->
<g id="edge112" class="edge">
<title>Node115&#45;&gt;Node3</title>
<path fill="none" stroke="#191970" d="M467.983,-242.3958C496.7887,-239.8373 529.0635,-237.1261 558.5999,-235 700.2368,-224.8048 1063.9,-249.5535 1196.5999,-199 1217.2914,-191.1174 1215.0452,-176.2326 1235.5999,-168 1257.2484,-159.3293 1587.3005,-133.7769 1703.4987,-125.0001"/>
<polygon fill="#191970" stroke="#191970" points="1704.0315,-128.47 1713.7401,-124.2282 1703.5053,-121.4898 1704.0315,-128.47"/>
</g>
<!-- Node115&#45;&gt;Node4 -->
<g id="edge113" class="edge">
<title>Node115&#45;&gt;Node4</title>
<path fill="none" stroke="#191970" d="M404.2375,-240.9005C433.216,-228.6122 483.3066,-207.3712 513.7524,-194.4607"/>
<polygon fill="#191970" stroke="#191970" points="515.4255,-197.553 523.2655,-190.4266 512.6926,-191.1084 515.4255,-197.553"/>
</g>
<!-- Node115&#45;&gt;Node18 -->
<g id="edge114" class="edge">
<title>Node115&#45;&gt;Node18</title>
<path fill="none" stroke="#191970" d="M348.8159,-240.8522C328.7314,-233.057 304.6397,-219.877 292.5999,-199 285.7169,-187.0647 284.2634,-178.9695 292.5999,-168 333.6645,-113.966 544.801,-81.0085 626.8944,-70.0654"/>
<polygon fill="#191970" stroke="#191970" points="627.4593,-73.5214 636.9206,-68.7534 626.551,-66.5806 627.4593,-73.5214"/>
</g>
<!-- Node68 -->
<g id="node46" class="node">
<title>Node68</title>
<g id="a_node46"><a xlink:href="System_2Export_8hpp.html" target="_top" xlink:title="lug/System/Export.hpp">
<polygon fill="none" stroke="#000000" points="287.5999,-56.5 287.5999,-75.5 419.5999,-75.5 419.5999,-56.5 287.5999,-56.5"/>
<text text-anchor="middle" x="353.5999" y="-63.5" font-family="Helvetica,sans-Serif" font-size="10.00" fill="#000000">lug/System/Export.hpp</text>
</a>
</g>
</g>
<!-- Node115&#45;&gt;Node68 -->
<g id="edge115" class="edge">
<title>Node115&#45;&gt;Node68</title>
<path fill="none" stroke="#191970" d="M295.3245,-244.2141C193.2107,-235.8803 34.6478,-219.7731 16.5999,-199 -60.7395,-109.9822 155.9402,-80.0162 277.4731,-70.3522"/>
<polygon fill="#191970" stroke="#191970" points="277.7854,-73.8386 287.4886,-69.5844 277.2503,-66.8591 277.7854,-73.8386"/>
</g>
<!-- Node116 -->
<g id="node47" class="node">
<title>Node116</title>
<g id="a_node47"><a xlink:href="Common_8hpp.html" target="_top" xlink:title="lug/System/Logger/Common.hpp">
<polygon fill="none" stroke="#ff0000" points="63.5999,-112.5 63.5999,-131.5 245.5999,-131.5 245.5999,-112.5 63.5999,-112.5"/>
<text text-anchor="middle" x="154.5999" y="-119.5" font-family="Helvetica,sans-Serif" font-size="10.00" fill="#000000">lug/System/Logger/Common.hpp</text>
</a>
</g>
</g>
<!-- Node115&#45;&gt;Node116 -->
<g id="edge117" class="edge">
<title>Node115&#45;&gt;Node116</title>
<path fill="none" stroke="#191970" d="M354.0874,-240.9884C328.7802,-231.7555 290.5937,-216.5854 259.5999,-199 250.8246,-194.021 203.2222,-158.5377 175.2156,-137.5182"/>
<polygon fill="#191970" stroke="#191970" points="177.315,-134.7178 167.2177,-131.5091 173.1102,-140.3142 177.315,-134.7178"/>
</g>
<!-- Node119 -->
<g id="node48" class="node">
<title>Node119</title>
<g id="a_node48"><a xlink:href="LoggingFacility_8hpp.html" target="_top" xlink:title="lug/System/Logger/Logging\lFacility.hpp">
<polygon fill="none" stroke="#000000" points="1033.0999,-168.5 1033.0999,-198.5 1188.0999,-198.5 1188.0999,-168.5 1033.0999,-168.5"/>
<text text-anchor="start" x="1041.0999" y="-186.5" font-family="Helvetica,sans-Serif" font-size="10.00" fill="#000000">lug/System/Logger/Logging</text>
<text text-anchor="middle" x="1110.5999" y="-175.5" font-family="Helvetica,sans-Serif" font-size="10.00" fill="#000000">Facility.hpp</text>
</a>
</g>
</g>
<!-- Node115&#45;&gt;Node119 -->
<g id="edge119" class="edge">
<title>Node115&#45;&gt;Node119</title>
<path fill="none" stroke="#191970" d="M468.0109,-242.7573C496.8185,-240.2229 529.0873,-237.4346 558.5999,-235 761.9555,-218.2246 816.2913,-224.9902 1022.9148,-199.0042"/>
<polygon fill="#191970" stroke="#191970" points="1023.39,-202.472 1032.8703,-197.7418 1022.5094,-195.5276 1023.39,-202.472"/>
</g>
<!-- Node120 -->
<g id="node49" class="node">
<title>Node120</title>
<g id="a_node49"><a xlink:href="Message_8hpp.html" target="_top" xlink:title="lug/System/Logger/Message.hpp">
<polygon fill="none" stroke="#000000" points="26.0999,-174 26.0999,-193 207.0999,-193 207.0999,-174 26.0999,-174"/>
<text text-anchor="middle" x="116.5999" y="-181" font-family="Helvetica,sans-Serif" font-size="10.00" fill="#000000">lug/System/Logger/Message.hpp</text>
</a>
</g>
</g>
<!-- Node115&#45;&gt;Node120 -->
<g id="edge124" class="edge">
<title>Node115&#45;&gt;Node120</title>
<path fill="none" stroke="#191970" d="M343.9133,-240.9717C296.7583,-229.0495 215.9584,-208.6208 164.4731,-195.6038"/>
<polygon fill="#191970" stroke="#191970" points="165.1385,-192.1619 154.5856,-193.1039 163.4226,-198.9484 165.1385,-192.1619"/>
</g>
<!-- Node121 -->
<g id="node50" class="node">
<title>Node121</title>
<g id="a_node50"><a xlink:href="Logger_8inl.html" target="_top" xlink:title="lug/System/Logger/Logger.inl">
<polygon fill="none" stroke="#000000" points="301.5999,-174 301.5999,-193 467.5999,-193 467.5999,-174 301.5999,-174"/>
<text text-anchor="middle" x="384.5999" y="-181" font-family="Helvetica,sans-Serif" font-size="10.00" fill="#000000">lug/System/Logger/Logger.inl</text>
</a>
</g>
</g>
<!-- Node115&#45;&gt;Node121 -->
<g id="edge126" class="edge">
<title>Node115&#45;&gt;Node121</title>
<path fill="none" stroke="#191970" d="M382.0298,-240.9005C382.4664,-231.149 383.1555,-215.7597 383.7103,-203.3695"/>
<polygon fill="#191970" stroke="#191970" points="387.22,-203.2282 384.1709,-193.0817 380.227,-202.9151 387.22,-203.2282"/>
</g>
<!-- Node68&#45;&gt;Node8 -->
<g id="edge116" class="edge">
<title>Node68&#45;&gt;Node8</title>
<path fill="none" stroke="#191970" d="M419.6505,-62.4331C610.4714,-52.1284 1160.0991,-22.4475 1335.8571,-12.9562"/>
<polygon fill="#191970" stroke="#191970" points="1336.113,-16.4476 1345.9097,-12.4134 1335.7355,-9.4578 1336.113,-16.4476"/>
</g>
<!-- Node116&#45;&gt;Node68 -->
<g id="edge118" class="edge">
<title>Node116&#45;&gt;Node68</title>
<path fill="none" stroke="#191970" d="M188.8093,-112.3733C222.3297,-102.9404 273.5504,-88.5265 309.981,-78.2747"/>
<polygon fill="#191970" stroke="#191970" points="311.159,-81.5792 319.837,-75.5011 309.2628,-74.8409 311.159,-81.5792"/>
</g>
<!-- Node119&#45;&gt;Node3 -->
<g id="edge121" class="edge">
<title>Node119&#45;&gt;Node3</title>
<path fill="none" stroke="#191970" d="M1188.3334,-169.9426C1193.155,-169.2446 1197.9399,-168.5897 1202.5999,-168 1299.7777,-155.7035 1595.7299,-133.055 1703.6658,-124.9671"/>
<polygon fill="#191970" stroke="#191970" points="1704.0977,-128.4446 1713.8088,-124.2084 1703.5755,-121.4641 1704.0977,-128.4446"/>
</g>
<!-- Node119&#45;&gt;Node11 -->
<g id="edge122" class="edge">
<title>Node119&#45;&gt;Node11</title>
<path fill="none" stroke="#191970" d="M1188.1907,-173.0056C1203.8637,-171.132 1220.2425,-169.35 1235.5999,-168 1546.6254,-140.6593 1920.748,-127.7426 2061.9258,-123.5756"/>
<polygon fill="#191970" stroke="#191970" points="2062.1888,-127.0695 2072.0824,-123.2791 2061.9845,-120.0725 2062.1888,-127.0695"/>
</g>
<!-- Node119&#45;&gt;Node18 -->
<g id="edge120" class="edge">
<title>Node119&#45;&gt;Node18</title>
<path fill="none" stroke="#191970" d="M1075.0711,-168.4431C1036.2535,-152.4903 971.9426,-127.5085 914.5999,-112 836.1139,-90.7732 741.3472,-76.5904 692.4096,-70.0858"/>
<polygon fill="#191970" stroke="#191970" points="692.7712,-66.6034 682.402,-68.7782 691.8642,-73.5444 692.7712,-66.6034"/>
</g>
<!-- Node119&#45;&gt;Node68 -->
<g id="edge123" class="edge">
<title>Node119&#45;&gt;Node68</title>
<path fill="none" stroke="#191970" d="M1065.3405,-168.4568C1005.1807,-148.5537 904.3624,-115.555 886.5999,-112 801.4502,-94.9579 556.3146,-78.2693 430.3452,-70.5104"/>
<polygon fill="#191970" stroke="#191970" points="430.2053,-66.9954 420.01,-69.8774 429.7773,-73.9823 430.2053,-66.9954"/>
</g>
<!-- Node120&#45;&gt;Node116 -->
<g id="edge125" class="edge">
<title>Node120&#45;&gt;Node116</title>
<path fill="none" stroke="#191970" d="M122.5374,-173.8906C128.0267,-165.0068 136.3352,-151.5601 143.119,-140.5811"/>
<polygon fill="#191970" stroke="#191970" points="146.2998,-142.0917 148.5787,-131.7449 140.3448,-138.4122 146.2998,-142.0917"/>
</g>
</g>
</svg>
