<?xml version="1.0" encoding="UTF-8" standalone="no"?>
<!DOCTYPE svg PUBLIC "-//W3C//DTD SVG 1.1//EN"
 "http://www.w3.org/Graphics/SVG/1.1/DTD/svg11.dtd">
<!-- Generated by graphviz version 2.40.1 (20161225.0304)
 -->
<!-- Title: include/lug/Graphics/Vulkan/API/GraphicsPipeline.hpp Pages: 1 -->
<svg width="665pt" height="352pt"
 viewBox="0.00 0.00 665.30 352.00" xmlns="http://www.w3.org/2000/svg" xmlns:xlink="http://www.w3.org/1999/xlink">
<g id="graph0" class="graph" transform="scale(1 1) rotate(0) translate(4 348)">
<title>include/lug/Graphics/Vulkan/API/GraphicsPipeline.hpp</title>
<!-- Node0 -->
<g id="node1" class="node">
<title>Node0</title>
<polygon fill="#bfbfbf" stroke="#000000" points="272.7997,-313.5 272.7997,-343.5 457.7997,-343.5 457.7997,-313.5 272.7997,-313.5"/>
<text text-anchor="start" x="280.7997" y="-331.5" font-family="Helvetica,sans-Serif" font-size="10.00" fill="#000000">include/lug/Graphics</text>
<text text-anchor="middle" x="365.2997" y="-320.5" font-family="Helvetica,sans-Serif" font-size="10.00" fill="#000000">/Vulkan/API/GraphicsPipeline.hpp</text>
</g>
<!-- Node1 -->
<g id="node2" class="node">
<title>Node1</title>
<g id="a_node2"><a xlink:href="PipelineLayout_8hpp.html" target="_top" xlink:title="lug/Graphics/Vulkan\l/API/PipelineLayout.hpp">
<polygon fill="none" stroke="#000000" points="249.2997,-246.5 249.2997,-276.5 385.2997,-276.5 385.2997,-246.5 249.2997,-246.5"/>
<text text-anchor="start" x="257.2997" y="-264.5" font-family="Helvetica,sans-Serif" font-size="10.00" fill="#000000">lug/Graphics/Vulkan</text>
<text text-anchor="middle" x="317.2997" y="-253.5" font-family="Helvetica,sans-Serif" font-size="10.00" fill="#000000">/API/PipelineLayout.hpp</text>
</a>
</g>
</g>
<!-- Node0&#45;&gt;Node1 -->
<g id="edge1" class="edge">
<title>Node0&#45;&gt;Node1</title>
<path fill="none" stroke="#191970" d="M354.4078,-313.2967C348.3934,-304.9016 340.7948,-294.2952 334.0423,-284.8698"/>
<polygon fill="#191970" stroke="#191970" points="336.8177,-282.734 328.1486,-276.6432 331.1273,-286.8107 336.8177,-282.734"/>
</g>
<!-- Node13 -->
<g id="node14" class="node">
<title>Node13</title>
<g id="a_node14"><a xlink:href="RenderPass_8hpp.html" target="_top" xlink:title="lug/Graphics/Vulkan\l/API/RenderPass.hpp">
<polygon fill="none" stroke="#000000" points="400.2997,-179.5 400.2997,-209.5 522.2997,-209.5 522.2997,-179.5 400.2997,-179.5"/>
<text text-anchor="start" x="408.2997" y="-197.5" font-family="Helvetica,sans-Serif" font-size="10.00" fill="#000000">lug/Graphics/Vulkan</text>
<text text-anchor="middle" x="461.2997" y="-186.5" font-family="Helvetica,sans-Serif" font-size="10.00" fill="#000000">/API/RenderPass.hpp</text>
</a>
</g>
</g>
<!-- Node0&#45;&gt;Node13 -->
<g id="edge18" class="edge">
<title>Node0&#45;&gt;Node13</title>
<path fill="none" stroke="#191970" d="M376.1255,-313.389C392.7625,-290.1665 424.7516,-245.5151 444.4408,-218.0322"/>
<polygon fill="#191970" stroke="#191970" points="447.3875,-219.9289 450.3662,-209.7614 441.6971,-215.8522 447.3875,-219.9289"/>
</g>
<!-- Node2 -->
<g id="node3" class="node">
<title>Node2</title>
<polygon fill="none" stroke="#bfbfbf" points="244.7997,-118 244.7997,-137 303.7997,-137 303.7997,-118 244.7997,-118"/>
<text text-anchor="middle" x="274.2997" y="-125" font-family="Helvetica,sans-Serif" font-size="10.00" fill="#000000">memory</text>
</g>
<!-- Node1&#45;&gt;Node2 -->
<g id="edge2" class="edge">
<title>Node1&#45;&gt;Node2</title>
<path fill="none" stroke="#191970" d="M282.2673,-246.3603C267.4136,-237.9673 251.6341,-225.9543 243.2997,-210 232.1389,-188.635 246.4542,-162.3226 259.117,-145.2429"/>
<polygon fill="#191970" stroke="#191970" points="261.9951,-147.2457 265.4445,-137.2281 256.5009,-142.9082 261.9951,-147.2457"/>
</g>
<!-- Node3 -->
<g id="node4" class="node">
<title>Node3</title>
<polygon fill="none" stroke="#bfbfbf" points="609.2997,-56.5 609.2997,-75.5 657.2997,-75.5 657.2997,-56.5 609.2997,-56.5"/>
<text text-anchor="middle" x="633.2997" y="-63.5" font-family="Helvetica,sans-Serif" font-size="10.00" fill="#000000">vector</text>
</g>
<!-- Node1&#45;&gt;Node3 -->
<g id="edge3" class="edge">
<title>Node1&#45;&gt;Node3</title>
<path fill="none" stroke="#191970" d="M385.3022,-252.3276C443.4727,-243.403 521.7315,-228.4996 547.2997,-210 591.1946,-178.2403 616.7126,-116.5792 627.3793,-85.2588"/>
<polygon fill="#191970" stroke="#191970" points="630.7741,-86.1367 630.5386,-75.5445 624.1173,-83.9717 630.7741,-86.1367"/>
</g>
<!-- Node4 -->
<g id="node5" class="node">
<title>Node4</title>
<g id="a_node5"><a xlink:href="Graphics_2Export_8hpp.html" target="_top" xlink:title="lug/Graphics/Export.hpp">
<polygon fill="none" stroke="#000000" points="147.2997,-56.5 147.2997,-75.5 285.2997,-75.5 285.2997,-56.5 147.2997,-56.5"/>
<text text-anchor="middle" x="216.2997" y="-63.5" font-family="Helvetica,sans-Serif" font-size="10.00" fill="#000000">lug/Graphics/Export.hpp</text>
</a>
</g>
</g>
<!-- Node1&#45;&gt;Node4 -->
<g id="edge4" class="edge">
<title>Node1&#45;&gt;Node4</title>
<path fill="none" stroke="#191970" d="M249.2764,-259.3845C171.1728,-255.3645 50.0898,-243.7177 21.2997,-210 -6.9845,-176.8747 -6.7538,-146.1379 20.2997,-112 35.044,-93.3947 89.3258,-81.5824 137.0352,-74.5927"/>
<polygon fill="#191970" stroke="#191970" points="137.6862,-78.0356 147.0996,-73.1736 136.7088,-71.1042 137.6862,-78.0356"/>
</g>
<!-- Node6 -->
<g id="node7" class="node">
<title>Node6</title>
<g id="a_node7"><a xlink:href="DescriptorSetLayout_8hpp.html" target="_top" xlink:title="lug/Graphics/Vulkan\l/API/DescriptorSetLayout.hpp">
<polygon fill="none" stroke="#000000" points="30.7997,-179.5 30.7997,-209.5 195.7997,-209.5 195.7997,-179.5 30.7997,-179.5"/>
<text text-anchor="start" x="38.7997" y="-197.5" font-family="Helvetica,sans-Serif" font-size="10.00" fill="#000000">lug/Graphics/Vulkan</text>
<text text-anchor="middle" x="113.2997" y="-186.5" font-family="Helvetica,sans-Serif" font-size="10.00" fill="#000000">/API/DescriptorSetLayout.hpp</text>
</a>
</g>
</g>
<!-- Node1&#45;&gt;Node6 -->
<g id="edge6" class="edge">
<title>Node1&#45;&gt;Node6</title>
<path fill="none" stroke="#191970" d="M271.5182,-246.4639C241.1772,-236.499 201.1848,-223.3642 168.9996,-212.7936"/>
<polygon fill="#191970" stroke="#191970" points="169.8738,-209.3968 159.281,-209.6017 167.6896,-216.0473 169.8738,-209.3968"/>
</g>
<!-- Node7 -->
<g id="node8" class="node">
<title>Node7</title>
<g id="a_node8"><a xlink:href="Vulkan_8hpp.html" target="_top" xlink:title="lug/Graphics/Vulkan\l/Vulkan.hpp">
<polygon fill="none" stroke="#000000" points="395.2997,-112.5 395.2997,-142.5 513.2997,-142.5 513.2997,-112.5 395.2997,-112.5"/>
<text text-anchor="start" x="403.2997" y="-130.5" font-family="Helvetica,sans-Serif" font-size="10.00" fill="#000000">lug/Graphics/Vulkan</text>
<text text-anchor="middle" x="454.2997" y="-119.5" font-family="Helvetica,sans-Serif" font-size="10.00" fill="#000000">/Vulkan.hpp</text>
</a>
</g>
</g>
<!-- Node1&#45;&gt;Node7 -->
<g id="edge16" class="edge">
<title>Node1&#45;&gt;Node7</title>
<path fill="none" stroke="#191970" d="M385.3854,-254.2391C441.0155,-246.7363 513.2965,-232.8498 531.2997,-210 549.0243,-187.5039 521.4005,-163.7993 494.4382,-147.6013"/>
<polygon fill="#191970" stroke="#191970" points="496.1799,-144.5655 485.7658,-142.617 492.6918,-150.6346 496.1799,-144.5655"/>
</g>
<!-- Node12 -->
<g id="node13" class="node">
<title>Node12</title>
<g id="a_node13"><a xlink:href="PipelineLayout_8inl.html" target="_top" xlink:title="lug/Graphics/Vulkan\l/API/PipelineLayout.inl">
<polygon fill="none" stroke="#000000" points="252.2997,-179.5 252.2997,-209.5 382.2997,-209.5 382.2997,-179.5 252.2997,-179.5"/>
<text text-anchor="start" x="260.2997" y="-197.5" font-family="Helvetica,sans-Serif" font-size="10.00" fill="#000000">lug/Graphics/Vulkan</text>
<text text-anchor="middle" x="317.2997" y="-186.5" font-family="Helvetica,sans-Serif" font-size="10.00" fill="#000000">/API/PipelineLayout.inl</text>
</a>
</g>
</g>
<!-- Node1&#45;&gt;Node12 -->
<g id="edge17" class="edge">
<title>Node1&#45;&gt;Node12</title>
<path fill="none" stroke="#191970" d="M317.2997,-246.2967C317.2997,-238.5013 317.2997,-228.7991 317.2997,-219.9064"/>
<polygon fill="#191970" stroke="#191970" points="320.7998,-219.6431 317.2997,-209.6432 313.7998,-219.6432 320.7998,-219.6431"/>
</g>
<!-- Node5 -->
<g id="node6" class="node">
<title>Node5</title>
<g id="a_node6"><a xlink:href="Config_8hpp.html" target="_top" xlink:title="lug/Config.hpp">
<polygon fill="none" stroke="#000000" points="171.7997,-.5 171.7997,-19.5 260.7997,-19.5 260.7997,-.5 171.7997,-.5"/>
<text text-anchor="middle" x="216.2997" y="-7.5" font-family="Helvetica,sans-Serif" font-size="10.00" fill="#000000">lug/Config.hpp</text>
</a>
</g>
</g>
<!-- Node4&#45;&gt;Node5 -->
<g id="edge5" class="edge">
<title>Node4&#45;&gt;Node5</title>
<path fill="none" stroke="#191970" d="M216.2997,-56.2455C216.2997,-48.9382 216.2997,-38.6944 216.2997,-29.7046"/>
<polygon fill="#191970" stroke="#191970" points="219.7998,-29.6426 216.2997,-19.6427 212.7998,-29.6427 219.7998,-29.6426"/>
</g>
<!-- Node6&#45;&gt;Node2 -->
<g id="edge7" class="edge">
<title>Node6&#45;&gt;Node2</title>
<path fill="none" stroke="#191970" d="M149.4313,-179.4639C177.1751,-167.9183 215.144,-152.1176 241.9079,-140.9798"/>
<polygon fill="#191970" stroke="#191970" points="243.3339,-144.1774 251.2217,-137.1039 240.6444,-137.7147 243.3339,-144.1774"/>
</g>
<!-- Node6&#45;&gt;Node4 -->
<g id="edge8" class="edge">
<title>Node6&#45;&gt;Node4</title>
<path fill="none" stroke="#191970" d="M151.109,-179.2924C167.5583,-170.885 185.6885,-158.8796 197.2997,-143 209.4497,-126.3835 213.8886,-102.9147 215.4791,-86.2637"/>
<polygon fill="#191970" stroke="#191970" points="218.991,-86.2097 216.185,-75.9933 212.0075,-85.7297 218.991,-86.2097"/>
</g>
<!-- Node6&#45;&gt;Node7 -->
<g id="edge9" class="edge">
<title>Node6&#45;&gt;Node7</title>
<path fill="none" stroke="#191970" d="M189.8268,-179.4639C248.4557,-167.9444 328.6436,-152.189 385.3085,-141.0555"/>
<polygon fill="#191970" stroke="#191970" points="386.1135,-144.4643 395.2511,-139.1019 384.7639,-137.5956 386.1135,-144.4643"/>
</g>
<!-- Node11 -->
<g id="node12" class="node">
<title>Node11</title>
<g id="a_node12"><a xlink:href="DescriptorSetLayout_8inl.html" target="_top" xlink:title="lug/Graphics/Vulkan\l/API/DescriptorSetLayout.inl">
<polygon fill="none" stroke="#000000" points="29.7997,-112.5 29.7997,-142.5 188.7997,-142.5 188.7997,-112.5 29.7997,-112.5"/>
<text text-anchor="start" x="37.7997" y="-130.5" font-family="Helvetica,sans-Serif" font-size="10.00" fill="#000000">lug/Graphics/Vulkan</text>
<text text-anchor="middle" x="109.2997" y="-119.5" font-family="Helvetica,sans-Serif" font-size="10.00" fill="#000000">/API/DescriptorSetLayout.inl</text>
</a>
</g>
</g>
<!-- Node6&#45;&gt;Node11 -->
<g id="edge15" class="edge">
<title>Node6&#45;&gt;Node11</title>
<path fill="none" stroke="#191970" d="M112.3921,-179.2967C111.9267,-171.5013 111.3474,-161.7991 110.8165,-152.9064"/>
<polygon fill="#191970" stroke="#191970" points="114.2936,-152.4168 110.2038,-142.6432 107.3061,-152.834 114.2936,-152.4168"/>
</g>
<!-- Node7&#45;&gt;Node3 -->
<g id="edge11" class="edge">
<title>Node7&#45;&gt;Node3</title>
<path fill="none" stroke="#191970" d="M498.0881,-112.4554C529.3819,-101.7036 570.8676,-87.4501 599.5951,-77.5801"/>
<polygon fill="#191970" stroke="#191970" points="600.8665,-80.8441 609.1866,-74.2847 598.5919,-74.224 600.8665,-80.8441"/>
</g>
<!-- Node7&#45;&gt;Node4 -->
<g id="edge13" class="edge">
<title>Node7&#45;&gt;Node4</title>
<path fill="none" stroke="#191970" d="M396.0784,-112.4554C355.1483,-101.8789 301.1051,-87.914 262.9955,-78.0663"/>
<polygon fill="#191970" stroke="#191970" points="263.7389,-74.6436 253.1813,-75.5303 261.9876,-81.4209 263.7389,-74.6436"/>
</g>
<!-- Node8 -->
<g id="node9" class="node">
<title>Node8</title>
<polygon fill="none" stroke="#bfbfbf" points="303.7997,-56.5 303.7997,-75.5 398.7997,-75.5 398.7997,-56.5 303.7997,-56.5"/>
<text text-anchor="middle" x="351.2997" y="-63.5" font-family="Helvetica,sans-Serif" font-size="10.00" fill="#000000">unordered_map</text>
</g>
<!-- Node7&#45;&gt;Node8 -->
<g id="edge10" class="edge">
<title>Node7&#45;&gt;Node8</title>
<path fill="none" stroke="#191970" d="M429.1031,-112.4554C412.9726,-102.8241 392.136,-90.3828 376.0861,-80.7996"/>
<polygon fill="#191970" stroke="#191970" points="377.6413,-77.6518 367.2611,-75.5303 374.0527,-83.662 377.6413,-77.6518"/>
</g>
<!-- Node9 -->
<g id="node10" class="node">
<title>Node9</title>
<polygon fill="none" stroke="#bfbfbf" points="417.2997,-56.5 417.2997,-75.5 475.2997,-75.5 475.2997,-56.5 417.2997,-56.5"/>
<text text-anchor="middle" x="446.2997" y="-63.5" font-family="Helvetica,sans-Serif" font-size="10.00" fill="#000000">ostream</text>
</g>
<!-- Node7&#45;&gt;Node9 -->
<g id="edge12" class="edge">
<title>Node7&#45;&gt;Node9</title>
<path fill="none" stroke="#191970" d="M452.3222,-112.2977C451.2811,-104.2945 449.992,-94.3843 448.8739,-85.7889"/>
<polygon fill="#191970" stroke="#191970" points="452.3414,-85.3119 447.5806,-75.8469 445.3999,-86.2149 452.3414,-85.3119"/>
</g>
<!-- Node10 -->
<g id="node11" class="node">
<title>Node10</title>
<polygon fill="none" stroke="#bfbfbf" points="493.7997,-56.5 493.7997,-75.5 590.7997,-75.5 590.7997,-56.5 493.7997,-56.5"/>
<text text-anchor="middle" x="542.2997" y="-63.5" font-family="Helvetica,sans-Serif" font-size="10.00" fill="#000000">vulkan/vulkan.h</text>
</g>
<!-- Node7&#45;&gt;Node10 -->
<g id="edge14" class="edge">
<title>Node7&#45;&gt;Node10</title>
<path fill="none" stroke="#191970" d="M476.0525,-112.2977C489.4965,-102.9022 506.7009,-90.8787 520.2075,-81.4395"/>
<polygon fill="#191970" stroke="#191970" points="522.2808,-84.2605 528.4726,-75.6633 518.271,-78.5228 522.2808,-84.2605"/>
</g>
<!-- Node13&#45;&gt;Node2 -->
<g id="edge19" class="edge">
<title>Node13&#45;&gt;Node2</title>
<path fill="none" stroke="#191970" d="M419.3333,-179.4639C386.5879,-167.7316 341.5789,-151.6054 310.4245,-140.4431"/>
<polygon fill="#191970" stroke="#191970" points="311.424,-137.0834 300.8294,-137.0053 309.0629,-143.6732 311.424,-137.0834"/>
</g>
<!-- Node13&#45;&gt;Node4 -->
<g id="edge20" class="edge">
<title>Node13&#45;&gt;Node4</title>
<path fill="none" stroke="#191970" d="M435.1753,-179.4233C405.6214,-162.5112 355.9214,-134.5028 312.2997,-112 290.3806,-100.6927 265.2259,-88.6737 246.1657,-79.7578"/>
<polygon fill="#191970" stroke="#191970" points="247.6148,-76.5718 237.072,-75.523 244.6596,-82.9174 247.6148,-76.5718"/>
</g>
<!-- Node13&#45;&gt;Node7 -->
<g id="edge21" class="edge">
<title>Node13&#45;&gt;Node7</title>
<path fill="none" stroke="#191970" d="M459.7113,-179.2967C458.8879,-171.4156 457.8609,-161.5857 456.9235,-152.6135"/>
<polygon fill="#191970" stroke="#191970" points="460.4021,-152.2253 455.8819,-142.6432 453.44,-152.9528 460.4021,-152.2253"/>
</g>
</g>
</svg>
