<?xml version="1.0" encoding="UTF-8" standalone="no"?>
<!DOCTYPE svg PUBLIC "-//W3C//DTD SVG 1.1//EN"
 "http://www.w3.org/Graphics/SVG/1.1/DTD/svg11.dtd">
<!-- Generated by graphviz version 2.40.1 (20161225.0304)
 -->
<!-- Title: include/lug/System/Memory/Area/IArea.hpp Pages: 1 -->
<!--zoomable 173 -->
<svg id="main" version="1.1" xmlns="http://www.w3.org/2000/svg" xmlns:xlink="http://www.w3.org/1999/xlink" xml:space="preserve" onload="init(evt)">
<style type="text/css"><![CDATA[
.edge:hover path { stroke: red; }
.edge:hover polygon { stroke: red; fill: red; }
]]></style>
<script type="text/javascript"><![CDATA[
var edges = document.getElementsByTagName('g');
if (edges && edges.length) {
  for (var i=0;i<edges.length;i++) {
    if (edges[i].id.substr(0,4)=='edge') {
      edges[i].setAttribute('class','edge');
    }
  }
}
]]></script>
        <defs>
                <circle id="rim" cx="0" cy="0" r="7"/>
                <circle id="rim2" cx="0" cy="0" r="3.5"/>
                <g id="zoomPlus">
                        <use xlink:href="#rim" fill="#404040">
                                <set attributeName="fill" to="#808080" begin="zoomplus.mouseover" end="zoomplus.mouseout"/>
                        </use>
                        <path d="M-4,0h8M0,-4v8" fill="none" stroke="white" stroke-width="1.5" pointer-events="none"/>
                </g>
                <g id="zoomMin">
                        <use xlink:href="#rim" fill="#404040">
                                <set attributeName="fill" to="#808080" begin="zoomminus.mouseover" end="zoomminus.mouseout"/>
                        </use>
                        <path d="M-4,0h8" fill="none" stroke="white" stroke-width="1.5" pointer-events="none"/>
                </g>
                <g id="dirArrow">
                        <path fill="none" stroke="white" stroke-width="1.5" d="M0,-3.0v7 M-2.5,-0.5L0,-3.0L2.5,-0.5"/>
                </g>
               <g id="resetDef">
                       <use xlink:href="#rim2" fill="#404040">
                               <set attributeName="fill" to="#808080" begin="reset.mouseover" end="reset.mouseout"/>
                       </use>
               </g>
        </defs>

<script type="text/javascript">
var viewWidth = 1198;
var viewHeight = 173;
var sectionId = 'dynsection-1';
</script>
<script xlink:href="svgpan.js"/>
<svg id="graph" class="graph">
<g id="viewport">
<title>include/lug/System/Memory/Area/IArea.hpp</title>
<!-- Node3 -->
<g id="node1" class="node">
<title>Node3</title>
<polygon fill="#bfbfbf" stroke="#000000" points="572,-134.5 572,-164.5 715,-164.5 715,-134.5 572,-134.5"/>
<text text-anchor="start" x="580" y="-152.5" font-family="Helvetica,sans-Serif" font-size="10.00" fill="#000000">include/lug/System</text>
<text text-anchor="middle" x="643.5" y="-141.5" font-family="Helvetica,sans-Serif" font-size="10.00" fill="#000000">/Memory/Area/IArea.hpp</text>
</g>
<!-- Node4 -->
<g id="node2" class="node">
<title>Node4</title>
<g id="a_node2"><a xlink:href="Chunk_8hpp.html" target="_top" xlink:title="include/lug/System\l/Memory/Allocator/Chunk.hpp">
<polygon fill="none" stroke="#000000" points="0,-67.5 0,-97.5 167,-97.5 167,-67.5 0,-67.5"/>
<text text-anchor="start" x="8" y="-85.5" font-family="Helvetica,sans-Serif" font-size="10.00" fill="#000000">include/lug/System</text>
<text text-anchor="middle" x="83.5" y="-74.5" font-family="Helvetica,sans-Serif" font-size="10.00" fill="#000000">/Memory/Allocator/Chunk.hpp</text>
</a>
</g>
</g>
<!-- Node3&#45;&gt;Node4 -->
<g id="edge1" class="edge">
<title>Node3&#45;&gt;Node4</title>
<path fill="none" stroke="#191970" d="M562.0223,-141.9626C468.5124,-132.9808 310.6376,-116.8036 175.5,-98 172.7727,-97.6205 170.002,-97.2231 167.2055,-96.8118"/>
<polygon fill="#191970" stroke="#191970" points="561.6956,-145.4472 571.9835,-142.9155 562.3623,-138.479 561.6956,-145.4472"/>
</g>
<!-- Node6 -->
<g id="node4" class="node">
<title>Node6</title>
<g id="a_node4"><a xlink:href="Linear_8hpp.html" target="_top" xlink:title="include/lug/System\l/Memory/Allocator/Linear.hpp">
<polygon fill="none" stroke="#000000" points="185,-67.5 185,-97.5 352,-97.5 352,-67.5 185,-67.5"/>
<text text-anchor="start" x="193" y="-85.5" font-family="Helvetica,sans-Serif" font-size="10.00" fill="#000000">include/lug/System</text>
<text text-anchor="middle" x="268.5" y="-74.5" font-family="Helvetica,sans-Serif" font-size="10.00" fill="#000000">/Memory/Allocator/Linear.hpp</text>
</a>
</g>
</g>
<!-- Node3&#45;&gt;Node6 -->
<g id="edge3" class="edge">
<title>Node3&#45;&gt;Node6</title>
<path fill="none" stroke="#191970" d="M561.5036,-134.85C499.4933,-123.7708 414.6583,-108.6136 352.2284,-97.4595"/>
<polygon fill="#191970" stroke="#191970" points="561.1802,-138.3475 571.6399,-136.661 562.4114,-131.4567 561.1802,-138.3475"/>
</g>
<!-- Node8 -->
<g id="node6" class="node">
<title>Node8</title>
<g id="a_node6"><a xlink:href="Allocator_2Stack_8hpp.html" target="_top" xlink:title="include/lug/System\l/Memory/Allocator/Stack.hpp">
<polygon fill="none" stroke="#000000" points="370.5,-67.5 370.5,-97.5 534.5,-97.5 534.5,-67.5 370.5,-67.5"/>
<text text-anchor="start" x="378.5" y="-85.5" font-family="Helvetica,sans-Serif" font-size="10.00" fill="#000000">include/lug/System</text>
<text text-anchor="middle" x="452.5" y="-74.5" font-family="Helvetica,sans-Serif" font-size="10.00" fill="#000000">/Memory/Allocator/Stack.hpp</text>
</a>
</g>
</g>
<!-- Node3&#45;&gt;Node8 -->
<g id="edge5" class="edge">
<title>Node3&#45;&gt;Node8</title>
<path fill="none" stroke="#191970" d="M591.1581,-131.1392C561.1229,-120.6033 523.8755,-107.5375 495.5511,-97.6017"/>
<polygon fill="#191970" stroke="#191970" points="590.041,-134.4564 600.6359,-134.4639 592.3582,-127.851 590.041,-134.4564"/>
</g>
<!-- Node10 -->
<g id="node8" class="node">
<title>Node10</title>
<g id="a_node8"><a xlink:href="GrowingHeap_8hpp.html" target="_top" xlink:title="include/lug/System\l/Memory/Area/GrowingHeap.hpp">
<polygon fill="none" stroke="#000000" points="552.5,-67.5 552.5,-97.5 734.5,-97.5 734.5,-67.5 552.5,-67.5"/>
<text text-anchor="start" x="560.5" y="-85.5" font-family="Helvetica,sans-Serif" font-size="10.00" fill="#000000">include/lug/System</text>
<text text-anchor="middle" x="643.5" y="-74.5" font-family="Helvetica,sans-Serif" font-size="10.00" fill="#000000">/Memory/Area/GrowingHeap.hpp</text>
</a>
</g>
</g>
<!-- Node3&#45;&gt;Node10 -->
<g id="edge7" class="edge">
<title>Node3&#45;&gt;Node10</title>
<path fill="none" stroke="#191970" d="M643.5,-124.0249C643.5,-115.128 643.5,-105.4287 643.5,-97.6432"/>
<polygon fill="#191970" stroke="#191970" points="640.0001,-124.2966 643.5,-134.2967 647.0001,-124.2967 640.0001,-124.2966"/>
</g>
<!-- Node11 -->
<g id="node9" class="node">
<title>Node11</title>
<g id="a_node9"><a xlink:href="Heap_8hpp.html" target="_top" xlink:title="include/lug/System\l/Memory/Area/Heap.hpp">
<polygon fill="none" stroke="#000000" points="753,-67.5 753,-97.5 894,-97.5 894,-67.5 753,-67.5"/>
<text text-anchor="start" x="761" y="-85.5" font-family="Helvetica,sans-Serif" font-size="10.00" fill="#000000">include/lug/System</text>
<text text-anchor="middle" x="823.5" y="-74.5" font-family="Helvetica,sans-Serif" font-size="10.00" fill="#000000">/Memory/Area/Heap.hpp</text>
</a>
</g>
</g>
<!-- Node3&#45;&gt;Node11 -->
<g id="edge8" class="edge">
<title>Node3&#45;&gt;Node11</title>
<path fill="none" stroke="#191970" d="M693.5642,-130.865C721.74,-120.3773 756.4663,-107.4515 782.9283,-97.6017"/>
<polygon fill="#191970" stroke="#191970" points="692.0464,-127.6953 683.8955,-134.4639 694.4883,-134.2556 692.0464,-127.6953"/>
</g>
<!-- Node12 -->
<g id="node10" class="node">
<title>Node12</title>
<g id="a_node10"><a xlink:href="Area_2Stack_8hpp.html" target="_top" xlink:title="include/lug/System\l/Memory/Area/Stack.hpp">
<polygon fill="none" stroke="#000000" points="912,-67.5 912,-97.5 1055,-97.5 1055,-67.5 912,-67.5"/>
<text text-anchor="start" x="920" y="-85.5" font-family="Helvetica,sans-Serif" font-size="10.00" fill="#000000">include/lug/System</text>
<text text-anchor="middle" x="983.5" y="-74.5" font-family="Helvetica,sans-Serif" font-size="10.00" fill="#000000">/Memory/Area/Stack.hpp</text>
</a>
</g>
</g>
<!-- Node3&#45;&gt;Node12 -->
<g id="edge9" class="edge">
<title>Node3&#45;&gt;Node12</title>
<path fill="none" stroke="#191970" d="M725.2366,-133.3931C782.1571,-122.1764 857.3464,-107.3597 911.9083,-96.6078"/>
<polygon fill="#191970" stroke="#191970" points="724.3244,-130.0054 715.1898,-135.3729 725.6778,-136.8734 724.3244,-130.0054"/>
</g>
<!-- Node13 -->
<g id="node11" class="node">
<title>Node13</title>
<g id="a_node11"><a xlink:href="Arena_8hpp.html" target="_top" xlink:title="include/lug/System\l/Memory/Arena.hpp">
<polygon fill="none" stroke="#000000" points="1073,-67.5 1073,-97.5 1190,-97.5 1190,-67.5 1073,-67.5"/>
<text text-anchor="start" x="1081" y="-85.5" font-family="Helvetica,sans-Serif" font-size="10.00" fill="#000000">include/lug/System</text>
<text text-anchor="middle" x="1131.5" y="-74.5" font-family="Helvetica,sans-Serif" font-size="10.00" fill="#000000">/Memory/Arena.hpp</text>
</a>
</g>
</g>
<!-- Node3&#45;&gt;Node13 -->
<g id="edge10" class="edge">
<title>Node3&#45;&gt;Node13</title>
<path fill="none" stroke="#191970" d="M725.4724,-142.0602C810.5918,-133.7303 947.4313,-118.6424 1064.5,-98 1067.2043,-97.5232 1069.9635,-97.0069 1072.7458,-96.4621"/>
<polygon fill="#191970" stroke="#191970" points="724.9682,-138.5926 715.3532,-143.0424 725.6446,-145.5598 724.9682,-138.5926"/>
</g>
<!-- Node5 -->
<g id="node3" class="node">
<title>Node5</title>
<g id="a_node3"><a xlink:href="Pool_8hpp.html" target="_top" xlink:title="include/lug/System\l/Memory/Allocator/Pool.hpp">
<polygon fill="none" stroke="#000000" points="4.5,-.5 4.5,-30.5 162.5,-30.5 162.5,-.5 4.5,-.5"/>
<text text-anchor="start" x="12.5" y="-18.5" font-family="Helvetica,sans-Serif" font-size="10.00" fill="#000000">include/lug/System</text>
<text text-anchor="middle" x="83.5" y="-7.5" font-family="Helvetica,sans-Serif" font-size="10.00" fill="#000000">/Memory/Allocator/Pool.hpp</text>
</a>
</g>
</g>
<!-- Node4&#45;&gt;Node5 -->
<g id="edge2" class="edge">
<title>Node4&#45;&gt;Node5</title>
<path fill="none" stroke="#191970" d="M83.5,-57.0249C83.5,-48.128 83.5,-38.4287 83.5,-30.6432"/>
<polygon fill="#191970" stroke="#191970" points="80.0001,-57.2966 83.5,-67.2967 87.0001,-57.2967 80.0001,-57.2966"/>
</g>
<!-- Node7 -->
<g id="node5" class="node">
<title>Node7</title>
<g id="a_node5"><a xlink:href="Linear_8cpp.html" target="_top" xlink:title="src/lug/System/Memory\l/Allocator/Linear.cpp">
<polygon fill="none" stroke="#000000" points="199.5,-.5 199.5,-30.5 337.5,-30.5 337.5,-.5 199.5,-.5"/>
<text text-anchor="start" x="207.5" y="-18.5" font-family="Helvetica,sans-Serif" font-size="10.00" fill="#000000">src/lug/System/Memory</text>
<text text-anchor="middle" x="268.5" y="-7.5" font-family="Helvetica,sans-Serif" font-size="10.00" fill="#000000">/Allocator/Linear.cpp</text>
</a>
</g>
</g>
<!-- Node6&#45;&gt;Node7 -->
<g id="edge4" class="edge">
<title>Node6&#45;&gt;Node7</title>
<path fill="none" stroke="#191970" d="M268.5,-57.0249C268.5,-48.128 268.5,-38.4287 268.5,-30.6432"/>
<polygon fill="#191970" stroke="#191970" points="265.0001,-57.2966 268.5,-67.2967 272.0001,-57.2967 265.0001,-57.2966"/>
</g>
<!-- Node9 -->
<g id="node7" class="node">
<title>Node9</title>
<g id="a_node7"><a xlink:href="Stack_8cpp.html" target="_top" xlink:title="src/lug/System/Memory\l/Allocator/Stack.cpp">
<polygon fill="none" stroke="#000000" points="383.5,-.5 383.5,-30.5 521.5,-30.5 521.5,-.5 383.5,-.5"/>
<text text-anchor="start" x="391.5" y="-18.5" font-family="Helvetica,sans-Serif" font-size="10.00" fill="#000000">src/lug/System/Memory</text>
<text text-anchor="middle" x="452.5" y="-7.5" font-family="Helvetica,sans-Serif" font-size="10.00" fill="#000000">/Allocator/Stack.cpp</text>
</a>
</g>
</g>
<!-- Node8&#45;&gt;Node9 -->
<g id="edge6" class="edge">
<title>Node8&#45;&gt;Node9</title>
<path fill="none" stroke="#191970" d="M452.5,-57.0249C452.5,-48.128 452.5,-38.4287 452.5,-30.6432"/>
<polygon fill="#191970" stroke="#191970" points="449.0001,-57.2966 452.5,-67.2967 456.0001,-57.2967 449.0001,-57.2966"/>
</g>
<!-- Node14 -->
<g id="node12" class="node">
<title>Node14</title>
<g id="a_node12"><a xlink:href="Memory_8hpp.html" target="_top" xlink:title="include/lug/System\l/Memory.hpp">
<polygon fill="none" stroke="#000000" points="1075,-.5 1075,-30.5 1188,-30.5 1188,-.5 1075,-.5"/>
<text text-anchor="start" x="1083" y="-18.5" font-family="Helvetica,sans-Serif" font-size="10.00" fill="#000000">include/lug/System</text>
<text text-anchor="middle" x="1131.5" y="-7.5" font-family="Helvetica,sans-Serif" font-size="10.00" fill="#000000">/Memory.hpp</text>
</a>
</g>
</g>
<!-- Node13&#45;&gt;Node14 -->
<g id="edge11" class="edge">
<title>Node13&#45;&gt;Node14</title>
<path fill="none" stroke="#191970" d="M1131.5,-57.0249C1131.5,-48.128 1131.5,-38.4287 1131.5,-30.6432"/>
<polygon fill="#191970" stroke="#191970" points="1128.0001,-57.2966 1131.5,-67.2967 1135.0001,-57.2967 1128.0001,-57.2966"/>
</g>
</g>
</svg>
        <g id="navigator" transform="translate(0 0)" fill="#404254">
                <rect fill="#f2f5e9" fill-opacity="0.5" stroke="#606060" stroke-width=".5" x="0" y="0" width="60" height="60"/>
                <use id="zoomplus" xlink:href="#zoomPlus" x="17" y="9" onmousedown="handleZoom(evt,'in')"/>
                <use id="zoomminus" xlink:href="#zoomMin" x="42" y="9" onmousedown="handleZoom(evt,'out')"/>
                <use id="reset" xlink:href="#resetDef" x="30" y="36" onmousedown="handleReset()"/>
                <g id="arrowUp" xlink:href="#dirArrow" transform="translate(30 24)" onmousedown="handlePan(0,-1)">
                  <use xlink:href="#rim" fill="#404040">
                        <set attributeName="fill" to="#808080" begin="arrowUp.mouseover" end="arrowUp.mouseout"/>
                  </use>
                  <path fill="none" stroke="white" stroke-width="1.5" d="M0,-3.0v7 M-2.5,-0.5L0,-3.0L2.5,-0.5"/>
                </g>
                <g id="arrowRight" xlink:href="#dirArrow" transform="rotate(90) translate(36 -43)" onmousedown="handlePan(1,0)">
                  <use xlink:href="#rim" fill="#404040">
                        <set attributeName="fill" to="#808080" begin="arrowRight.mouseover" end="arrowRight.mouseout"/>
                  </use>
                  <path fill="none" stroke="white" stroke-width="1.5" d="M0,-3.0v7 M-2.5,-0.5L0,-3.0L2.5,-0.5"/>
                </g>
                <g id="arrowDown" xlink:href="#dirArrow" transform="rotate(180) translate(-30 -48)" onmousedown="handlePan(0,1)">
                  <use xlink:href="#rim" fill="#404040">
                        <set attributeName="fill" to="#808080" begin="arrowDown.mouseover" end="arrowDown.mouseout"/>
                  </use>
                  <path fill="none" stroke="white" stroke-width="1.5" d="M0,-3.0v7 M-2.5,-0.5L0,-3.0L2.5,-0.5"/>
                </g>
                <g id="arrowLeft" xlink:href="#dirArrow" transform="rotate(270) translate(-36 17)" onmousedown="handlePan(-1,0)">
                  <use xlink:href="#rim" fill="#404040">
                        <set attributeName="fill" to="#808080" begin="arrowLeft.mouseover" end="arrowLeft.mouseout"/>
                  </use>
                  <path fill="none" stroke="white" stroke-width="1.5" d="M0,-3.0v7 M-2.5,-0.5L0,-3.0L2.5,-0.5"/>
                </g>
        </g>
        <svg viewBox="0 0 15 15" width="100%" height="30px" preserveAspectRatio="xMaxYMin meet">
         <g id="arrow_out" transform="scale(0.3 0.3)">
          <a xlink:href="IArea_8hpp__dep__incl_org.svg" target="_base">
           <rect id="button" ry="5" rx="5" y="6" x="6" height="38" width="38"
                fill="#f2f5e9" fill-opacity="0.5" stroke="#606060" stroke-width="1.0"/>
           <path id="arrow"
             d="M 11.500037,31.436501 C 11.940474,20.09759 22.043105,11.32322 32.158766,21.979434 L 37.068811,17.246167 C 37.068811,17.246167 37.088388,32 37.088388,32 L 22.160133,31.978069 C 22.160133,31.978069 26.997745,27.140456 26.997745,27.140456 C 18.528582,18.264221 13.291696,25.230495 11.500037,31.436501 z"
             style="fill:#404040;"/>
          </a>
         </g>
        </svg>
</svg>
