<?xml version="1.0" encoding="UTF-8" standalone="no"?>
<!DOCTYPE svg PUBLIC "-//W3C//DTD SVG 1.1//EN"
 "http://www.w3.org/Graphics/SVG/1.1/DTD/svg11.dtd">
<!-- Generated by graphviz version 2.40.1 (20161225.0304)
 -->
<!-- Title: src/lug/Graphics/Vulkan/API/ImageView.cpp Pages: 1 -->
<svg width="698pt" height="419pt"
 viewBox="0.00 0.00 697.50 419.00" xmlns="http://www.w3.org/2000/svg" xmlns:xlink="http://www.w3.org/1999/xlink">
<g id="graph0" class="graph" transform="scale(1 1) rotate(0) translate(4 415)">
<title>src/lug/Graphics/Vulkan/API/ImageView.cpp</title>
<!-- Node0 -->
<g id="node1" class="node">
<title>Node0</title>
<polygon fill="#bfbfbf" stroke="#000000" points="54,-380.5 54,-410.5 191,-410.5 191,-380.5 54,-380.5"/>
<text text-anchor="start" x="62" y="-398.5" font-family="Helvetica,sans-Serif" font-size="10.00" fill="#000000">src/lug/Graphics/Vulkan</text>
<text text-anchor="middle" x="122.5" y="-387.5" font-family="Helvetica,sans-Serif" font-size="10.00" fill="#000000">/API/ImageView.cpp</text>
</g>
<!-- Node1 -->
<g id="node2" class="node">
<title>Node1</title>
<g id="a_node2"><a xlink:href="ImageView_8hpp.html" target="_top" xlink:title="lug/Graphics/Vulkan\l/API/ImageView.hpp">
<polygon fill="none" stroke="#000000" points="0,-179.5 0,-209.5 119,-209.5 119,-179.5 0,-179.5"/>
<text text-anchor="start" x="8" y="-197.5" font-family="Helvetica,sans-Serif" font-size="10.00" fill="#000000">lug/Graphics/Vulkan</text>
<text text-anchor="middle" x="59.5" y="-186.5" font-family="Helvetica,sans-Serif" font-size="10.00" fill="#000000">/API/ImageView.hpp</text>
</a>
</g>
</g>
<!-- Node0&#45;&gt;Node1 -->
<g id="edge1" class="edge">
<title>Node0&#45;&gt;Node1</title>
<path fill="none" stroke="#191970" d="M117.7648,-380.3923C106.9752,-345.9685 80.4791,-261.4334 67.2611,-219.2615"/>
<polygon fill="#191970" stroke="#191970" points="70.535,-218.0042 64.2042,-209.5088 63.8554,-220.0979 70.535,-218.0042"/>
</g>
<!-- Node10 -->
<g id="node11" class="node">
<title>Node10</title>
<g id="a_node11"><a xlink:href="Device_8hpp.html" target="_top" xlink:title="lug/Graphics/Vulkan\l/API/Device.hpp">
<polygon fill="none" stroke="#000000" points="126.5,-313.5 126.5,-343.5 244.5,-343.5 244.5,-313.5 126.5,-313.5"/>
<text text-anchor="start" x="134.5" y="-331.5" font-family="Helvetica,sans-Serif" font-size="10.00" fill="#000000">lug/Graphics/Vulkan</text>
<text text-anchor="middle" x="185.5" y="-320.5" font-family="Helvetica,sans-Serif" font-size="10.00" fill="#000000">/API/Device.hpp</text>
</a>
</g>
</g>
<!-- Node0&#45;&gt;Node10 -->
<g id="edge11" class="edge">
<title>Node0&#45;&gt;Node10</title>
<path fill="none" stroke="#191970" d="M136.7957,-380.2967C144.9312,-371.6446 155.2752,-360.6438 164.3361,-351.0076"/>
<polygon fill="#191970" stroke="#191970" points="166.9604,-353.326 171.2609,-343.6432 161.8608,-348.5308 166.9604,-353.326"/>
</g>
<!-- Node2 -->
<g id="node3" class="node">
<title>Node2</title>
<g id="a_node3"><a xlink:href="Graphics_2Export_8hpp.html" target="_top" xlink:title="lug/Graphics/Export.hpp">
<polygon fill="none" stroke="#000000" points="106.5,-56.5 106.5,-75.5 244.5,-75.5 244.5,-56.5 106.5,-56.5"/>
<text text-anchor="middle" x="175.5" y="-63.5" font-family="Helvetica,sans-Serif" font-size="10.00" fill="#000000">lug/Graphics/Export.hpp</text>
</a>
</g>
</g>
<!-- Node1&#45;&gt;Node2 -->
<g id="edge2" class="edge">
<title>Node1&#45;&gt;Node2</title>
<path fill="none" stroke="#191970" d="M46.2357,-179.2528C32.633,-161.6801 15.4363,-132.5823 30.5,-112 40.8633,-97.84 79.5364,-85.9861 114.3373,-77.8594"/>
<polygon fill="#191970" stroke="#191970" points="115.5164,-81.1812 124.499,-75.5631 113.9734,-74.3534 115.5164,-81.1812"/>
</g>
<!-- Node4 -->
<g id="node5" class="node">
<title>Node4</title>
<g id="a_node5"><a xlink:href="Vulkan_8hpp.html" target="_top" xlink:title="lug/Graphics/Vulkan\l/Vulkan.hpp">
<polygon fill="none" stroke="#000000" points="289.5,-112.5 289.5,-142.5 407.5,-142.5 407.5,-112.5 289.5,-112.5"/>
<text text-anchor="start" x="297.5" y="-130.5" font-family="Helvetica,sans-Serif" font-size="10.00" fill="#000000">lug/Graphics/Vulkan</text>
<text text-anchor="middle" x="348.5" y="-119.5" font-family="Helvetica,sans-Serif" font-size="10.00" fill="#000000">/Vulkan.hpp</text>
</a>
</g>
</g>
<!-- Node1&#45;&gt;Node4 -->
<g id="edge4" class="edge">
<title>Node1&#45;&gt;Node4</title>
<path fill="none" stroke="#191970" d="M119.0306,-180.6988C165.561,-169.9115 230.3224,-154.8976 279.1852,-143.5695"/>
<polygon fill="#191970" stroke="#191970" points="280.0955,-146.9514 289.0467,-141.2833 278.5146,-140.1322 280.0955,-146.9514"/>
</g>
<!-- Node9 -->
<g id="node10" class="node">
<title>Node9</title>
<g id="a_node10"><a xlink:href="ImageView_8inl.html" target="_top" xlink:title="lug/Graphics/Vulkan\l/API/ImageView.inl">
<polygon fill="none" stroke="#000000" points="39.5,-112.5 39.5,-142.5 157.5,-142.5 157.5,-112.5 39.5,-112.5"/>
<text text-anchor="start" x="47.5" y="-130.5" font-family="Helvetica,sans-Serif" font-size="10.00" fill="#000000">lug/Graphics/Vulkan</text>
<text text-anchor="middle" x="98.5" y="-119.5" font-family="Helvetica,sans-Serif" font-size="10.00" fill="#000000">/API/ImageView.inl</text>
</a>
</g>
</g>
<!-- Node1&#45;&gt;Node9 -->
<g id="edge10" class="edge">
<title>Node1&#45;&gt;Node9</title>
<path fill="none" stroke="#191970" d="M68.3497,-179.2967C73.1366,-171.0729 79.1588,-160.7272 84.5599,-151.4483"/>
<polygon fill="#191970" stroke="#191970" points="87.6794,-153.0464 89.6853,-142.6432 81.6297,-149.5249 87.6794,-153.0464"/>
</g>
<!-- Node3 -->
<g id="node4" class="node">
<title>Node3</title>
<g id="a_node4"><a xlink:href="Config_8hpp.html" target="_top" xlink:title="lug/Config.hpp">
<polygon fill="none" stroke="#000000" points="131,-.5 131,-19.5 220,-19.5 220,-.5 131,-.5"/>
<text text-anchor="middle" x="175.5" y="-7.5" font-family="Helvetica,sans-Serif" font-size="10.00" fill="#000000">lug/Config.hpp</text>
</a>
</g>
</g>
<!-- Node2&#45;&gt;Node3 -->
<g id="edge3" class="edge">
<title>Node2&#45;&gt;Node3</title>
<path fill="none" stroke="#191970" d="M175.5,-56.2455C175.5,-48.9382 175.5,-38.6944 175.5,-29.7046"/>
<polygon fill="#191970" stroke="#191970" points="179.0001,-29.6426 175.5,-19.6427 172.0001,-29.6427 179.0001,-29.6426"/>
</g>
<!-- Node4&#45;&gt;Node2 -->
<g id="edge8" class="edge">
<title>Node4&#45;&gt;Node2</title>
<path fill="none" stroke="#191970" d="M306.1794,-112.4554C277.3139,-102.194 239.4761,-88.7429 211.9484,-78.9571"/>
<polygon fill="#191970" stroke="#191970" points="212.9036,-75.5821 202.3089,-75.5303 210.5588,-82.1778 212.9036,-75.5821"/>
</g>
<!-- Node5 -->
<g id="node6" class="node">
<title>Node5</title>
<polygon fill="none" stroke="#bfbfbf" points="454,-56.5 454,-75.5 549,-75.5 549,-56.5 454,-56.5"/>
<text text-anchor="middle" x="501.5" y="-63.5" font-family="Helvetica,sans-Serif" font-size="10.00" fill="#000000">unordered_map</text>
</g>
<!-- Node4&#45;&gt;Node5 -->
<g id="edge5" class="edge">
<title>Node4&#45;&gt;Node5</title>
<path fill="none" stroke="#191970" d="M385.928,-112.4554C411.1206,-102.329 444.0407,-89.0964 468.2996,-79.3453"/>
<polygon fill="#191970" stroke="#191970" points="469.8173,-82.5074 477.7904,-75.5303 467.2066,-76.0125 469.8173,-82.5074"/>
</g>
<!-- Node6 -->
<g id="node7" class="node">
<title>Node6</title>
<polygon fill="none" stroke="#bfbfbf" points="567.5,-56.5 567.5,-75.5 615.5,-75.5 615.5,-56.5 567.5,-56.5"/>
<text text-anchor="middle" x="591.5" y="-63.5" font-family="Helvetica,sans-Serif" font-size="10.00" fill="#000000">vector</text>
</g>
<!-- Node4&#45;&gt;Node6 -->
<g id="edge6" class="edge">
<title>Node4&#45;&gt;Node6</title>
<path fill="none" stroke="#191970" d="M407.5562,-113.9127C447.4518,-104.5277 501.5109,-91.414 557.634,-76.1406"/>
<polygon fill="#191970" stroke="#191970" points="558.6722,-79.4853 567.3928,-73.4685 556.8234,-72.7338 558.6722,-79.4853"/>
</g>
<!-- Node7 -->
<g id="node8" class="node">
<title>Node7</title>
<polygon fill="none" stroke="#bfbfbf" points="262.5,-56.5 262.5,-75.5 320.5,-75.5 320.5,-56.5 262.5,-56.5"/>
<text text-anchor="middle" x="291.5" y="-63.5" font-family="Helvetica,sans-Serif" font-size="10.00" fill="#000000">ostream</text>
</g>
<!-- Node4&#45;&gt;Node7 -->
<g id="edge7" class="edge">
<title>Node4&#45;&gt;Node7</title>
<path fill="none" stroke="#191970" d="M334.4101,-112.2977C326.2507,-103.4941 315.9528,-92.3833 307.4905,-83.2529"/>
<polygon fill="#191970" stroke="#191970" points="309.9911,-80.8021 300.6264,-75.8469 304.8571,-85.5604 309.9911,-80.8021"/>
</g>
<!-- Node8 -->
<g id="node9" class="node">
<title>Node8</title>
<polygon fill="none" stroke="#bfbfbf" points="339,-56.5 339,-75.5 436,-75.5 436,-56.5 339,-56.5"/>
<text text-anchor="middle" x="387.5" y="-63.5" font-family="Helvetica,sans-Serif" font-size="10.00" fill="#000000">vulkan/vulkan.h</text>
</g>
<!-- Node4&#45;&gt;Node8 -->
<g id="edge9" class="edge">
<title>Node4&#45;&gt;Node8</title>
<path fill="none" stroke="#191970" d="M358.1405,-112.2977C363.4977,-103.8498 370.2022,-93.2773 375.8513,-84.369"/>
<polygon fill="#191970" stroke="#191970" points="378.8559,-86.1664 381.2556,-75.8469 372.9444,-82.4176 378.8559,-86.1664"/>
</g>
<!-- Node10&#45;&gt;Node2 -->
<g id="edge12" class="edge">
<title>Node10&#45;&gt;Node2</title>
<path fill="none" stroke="#191970" d="M184.9191,-313.2523C183.206,-268.2814 178.174,-136.193 176.2552,-85.8234"/>
<polygon fill="#191970" stroke="#191970" points="179.7447,-85.4796 175.8665,-75.6202 172.7498,-85.7462 179.7447,-85.4796"/>
</g>
<!-- Node10&#45;&gt;Node4 -->
<g id="edge22" class="edge">
<title>Node10&#45;&gt;Node4</title>
<path fill="none" stroke="#191970" d="M192.8435,-313.2835C207.0618,-284.808 240.4987,-222.4285 280.5,-179 290.9148,-167.6929 304.064,-157.088 316.0177,-148.4748"/>
<polygon fill="#191970" stroke="#191970" points="318.2661,-151.1734 324.4543,-142.5736 314.2539,-145.4374 318.2661,-151.1734"/>
</g>
<!-- Node11 -->
<g id="node12" class="node">
<title>Node11</title>
<g id="a_node12"><a xlink:href="QueueFamily_8hpp.html" target="_top" xlink:title="lug/Graphics/Vulkan\l/API/QueueFamily.hpp">
<polygon fill="none" stroke="#000000" points="284.5,-246.5 284.5,-276.5 412.5,-276.5 412.5,-246.5 284.5,-246.5"/>
<text text-anchor="start" x="292.5" y="-264.5" font-family="Helvetica,sans-Serif" font-size="10.00" fill="#000000">lug/Graphics/Vulkan</text>
<text text-anchor="middle" x="348.5" y="-253.5" font-family="Helvetica,sans-Serif" font-size="10.00" fill="#000000">/API/QueueFamily.hpp</text>
</a>
</g>
</g>
<!-- Node10&#45;&gt;Node11 -->
<g id="edge13" class="edge">
<title>Node10&#45;&gt;Node11</title>
<path fill="none" stroke="#191970" d="M222.0804,-313.4639C245.8009,-303.7137 276.9043,-290.9289 302.3235,-280.4805"/>
<polygon fill="#191970" stroke="#191970" points="303.8416,-283.6407 311.7601,-276.6017 301.1803,-277.1663 303.8416,-283.6407"/>
</g>
<!-- Node15 -->
<g id="node16" class="node">
<title>Node15</title>
<g id="a_node16"><a xlink:href="Device_8inl.html" target="_top" xlink:title="lug/Graphics/Vulkan\l/API/Device.inl">
<polygon fill="none" stroke="#000000" points="430.5,-246.5 430.5,-276.5 548.5,-276.5 548.5,-246.5 430.5,-246.5"/>
<text text-anchor="start" x="438.5" y="-264.5" font-family="Helvetica,sans-Serif" font-size="10.00" fill="#000000">lug/Graphics/Vulkan</text>
<text text-anchor="middle" x="489.5" y="-253.5" font-family="Helvetica,sans-Serif" font-size="10.00" fill="#000000">/API/Device.inl</text>
</a>
</g>
</g>
<!-- Node10&#45;&gt;Node15 -->
<g id="edge23" class="edge">
<title>Node10&#45;&gt;Node15</title>
<path fill="none" stroke="#191970" d="M244.6962,-315.7411C290.1162,-305.915 354.6557,-291.8746 420.0878,-277.3053"/>
<polygon fill="#191970" stroke="#191970" points="421.1703,-280.65 430.1692,-275.0579 419.6472,-273.8177 421.1703,-280.65"/>
</g>
<!-- Node11&#45;&gt;Node2 -->
<g id="edge16" class="edge">
<title>Node11&#45;&gt;Node2</title>
<path fill="none" stroke="#191970" d="M325.0999,-246.3362C311.3137,-236.8021 293.989,-223.7362 280.5,-210 240.7672,-169.5392 204.107,-113.203 186.4857,-84.4623"/>
<polygon fill="#191970" stroke="#191970" points="189.4362,-82.5776 181.2628,-75.8362 183.4482,-86.2032 189.4362,-82.5776"/>
</g>
<!-- Node11&#45;&gt;Node5 -->
<g id="edge14" class="edge">
<title>Node11&#45;&gt;Node5</title>
<path fill="none" stroke="#191970" d="M374.1637,-246.4848C405.2001,-226.8698 456.5041,-189.4854 482.5,-143 492.5472,-125.0338 497.3393,-101.7917 499.5876,-85.5629"/>
<polygon fill="#191970" stroke="#191970" points="503.0671,-85.9421 500.7711,-75.599 496.1159,-85.1164 503.0671,-85.9421"/>
</g>
<!-- Node11&#45;&gt;Node6 -->
<g id="edge15" class="edge">
<title>Node11&#45;&gt;Node6</title>
<path fill="none" stroke="#191970" d="M387.6481,-246.4859C408.5098,-237.5238 434.0194,-224.973 454.5,-210 506.5041,-171.9807 555.5174,-112.8328 578.2461,-83.5911"/>
<polygon fill="#191970" stroke="#191970" points="581.1187,-85.5967 584.4301,-75.5327 575.5654,-81.3351 581.1187,-85.5967"/>
</g>
<!-- Node12 -->
<g id="node13" class="node">
<title>Node12</title>
<g id="a_node13"><a xlink:href="Vulkan_2API_2Queue_8hpp.html" target="_top" xlink:title="lug/Graphics/Vulkan\l/API/Queue.hpp">
<polygon fill="none" stroke="#000000" points="289.5,-179.5 289.5,-209.5 407.5,-209.5 407.5,-179.5 289.5,-179.5"/>
<text text-anchor="start" x="297.5" y="-197.5" font-family="Helvetica,sans-Serif" font-size="10.00" fill="#000000">lug/Graphics/Vulkan</text>
<text text-anchor="middle" x="348.5" y="-186.5" font-family="Helvetica,sans-Serif" font-size="10.00" fill="#000000">/API/Queue.hpp</text>
</a>
</g>
</g>
<!-- Node11&#45;&gt;Node12 -->
<g id="edge17" class="edge">
<title>Node11&#45;&gt;Node12</title>
<path fill="none" stroke="#191970" d="M348.5,-246.2967C348.5,-238.5013 348.5,-228.7991 348.5,-219.9064"/>
<polygon fill="#191970" stroke="#191970" points="352.0001,-219.6431 348.5,-209.6432 345.0001,-219.6432 352.0001,-219.6431"/>
</g>
<!-- Node14 -->
<g id="node15" class="node">
<title>Node14</title>
<g id="a_node15"><a xlink:href="QueueFamily_8inl.html" target="_top" xlink:title="lug/Graphics/Vulkan\l/API/QueueFamily.inl">
<polygon fill="none" stroke="#000000" points="567.5,-179.5 567.5,-209.5 689.5,-209.5 689.5,-179.5 567.5,-179.5"/>
<text text-anchor="start" x="575.5" y="-197.5" font-family="Helvetica,sans-Serif" font-size="10.00" fill="#000000">lug/Graphics/Vulkan</text>
<text text-anchor="middle" x="628.5" y="-186.5" font-family="Helvetica,sans-Serif" font-size="10.00" fill="#000000">/API/QueueFamily.inl</text>
</a>
</g>
</g>
<!-- Node11&#45;&gt;Node14 -->
<g id="edge21" class="edge">
<title>Node11&#45;&gt;Node14</title>
<path fill="none" stroke="#191970" d="M411.3375,-246.4639C454.6586,-236.0978 512.3147,-222.3015 557.3312,-211.5297"/>
<polygon fill="#191970" stroke="#191970" points="558.4055,-214.8715 567.3164,-209.1404 556.7764,-208.0637 558.4055,-214.8715"/>
</g>
<!-- Node12&#45;&gt;Node2 -->
<g id="edge18" class="edge">
<title>Node12&#45;&gt;Node2</title>
<path fill="none" stroke="#191970" d="M328.0456,-179.2894C305.7771,-162.7316 269.1141,-135.4763 237.5,-112 223.819,-101.8406 208.4346,-90.4263 196.4132,-81.5094"/>
<polygon fill="#191970" stroke="#191970" points="198.4435,-78.6577 188.3266,-75.5116 194.2734,-84.2801 198.4435,-78.6577"/>
</g>
<!-- Node12&#45;&gt;Node4 -->
<g id="edge19" class="edge">
<title>Node12&#45;&gt;Node4</title>
<path fill="none" stroke="#191970" d="M348.5,-179.2967C348.5,-171.5013 348.5,-161.7991 348.5,-152.9064"/>
<polygon fill="#191970" stroke="#191970" points="352.0001,-152.6431 348.5,-142.6432 345.0001,-152.6432 352.0001,-152.6431"/>
</g>
<!-- Node13 -->
<g id="node14" class="node">
<title>Node13</title>
<polygon fill="none" stroke="#bfbfbf" points="425.5,-118 425.5,-137 473.5,-137 473.5,-118 425.5,-118"/>
<text text-anchor="middle" x="449.5" y="-125" font-family="Helvetica,sans-Serif" font-size="10.00" fill="#000000">mutex</text>
</g>
<!-- Node12&#45;&gt;Node13 -->
<g id="edge20" class="edge">
<title>Node12&#45;&gt;Node13</title>
<path fill="none" stroke="#191970" d="M371.1664,-179.4639C387.6549,-168.526 409.9004,-153.769 426.4722,-142.7759"/>
<polygon fill="#191970" stroke="#191970" points="428.6241,-145.5485 435.0224,-137.1039 424.7545,-139.7153 428.6241,-145.5485"/>
</g>
</g>
</svg>
