<?xml version="1.0" encoding="UTF-8" standalone="no"?>
<!DOCTYPE svg PUBLIC "-//W3C//DTD SVG 1.1//EN"
 "http://www.w3.org/Graphics/SVG/1.1/DTD/svg11.dtd">
<!-- Generated by graphviz version 2.40.1 (20161225.0304)
 -->
<!-- Title: src/lug/Graphics/Vulkan/API/Image.cpp Pages: 1 -->
<svg width="1335pt" height="352pt"
 viewBox="0.00 0.00 1335.01 352.00" xmlns="http://www.w3.org/2000/svg" xmlns:xlink="http://www.w3.org/1999/xlink">
<g id="graph0" class="graph" transform="scale(1 1) rotate(0) translate(4 348)">
<title>src/lug/Graphics/Vulkan/API/Image.cpp</title>
<!-- Node0 -->
<g id="node1" class="node">
<title>Node0</title>
<polygon fill="#bfbfbf" stroke="#000000" points="294.5091,-313.5 294.5091,-343.5 431.5091,-343.5 431.5091,-313.5 294.5091,-313.5"/>
<text text-anchor="start" x="302.5091" y="-331.5" font-family="Helvetica,sans-Serif" font-size="10.00" fill="#000000">src/lug/Graphics/Vulkan</text>
<text text-anchor="middle" x="363.0091" y="-320.5" font-family="Helvetica,sans-Serif" font-size="10.00" fill="#000000">/API/Image.cpp</text>
</g>
<!-- Node1 -->
<g id="node2" class="node">
<title>Node1</title>
<g id="a_node2"><a xlink:href="Image_8hpp.html" target="_top" xlink:title="lug/Graphics/Vulkan\l/API/Image.hpp">
<polygon fill="none" stroke="#000000" points="304.0091,-246.5 304.0091,-276.5 422.0091,-276.5 422.0091,-246.5 304.0091,-246.5"/>
<text text-anchor="start" x="312.0091" y="-264.5" font-family="Helvetica,sans-Serif" font-size="10.00" fill="#000000">lug/Graphics/Vulkan</text>
<text text-anchor="middle" x="363.0091" y="-253.5" font-family="Helvetica,sans-Serif" font-size="10.00" fill="#000000">/API/Image.hpp</text>
</a>
</g>
</g>
<!-- Node0&#45;&gt;Node1 -->
<g id="edge1" class="edge">
<title>Node0&#45;&gt;Node1</title>
<path fill="none" stroke="#191970" d="M363.0091,-313.2967C363.0091,-305.5013 363.0091,-295.7991 363.0091,-286.9064"/>
<polygon fill="#191970" stroke="#191970" points="366.5092,-286.6431 363.0091,-276.6432 359.5092,-286.6432 366.5092,-286.6431"/>
</g>
<!-- Node12 -->
<g id="node13" class="node">
<title>Node12</title>
<g id="a_node13"><a xlink:href="Device_8hpp.html" target="_top" xlink:title="lug/Graphics/Vulkan\l/API/Device.hpp">
<polygon fill="none" stroke="#000000" points="15.0091,-179.5 15.0091,-209.5 133.0091,-209.5 133.0091,-179.5 15.0091,-179.5"/>
<text text-anchor="start" x="23.0091" y="-197.5" font-family="Helvetica,sans-Serif" font-size="10.00" fill="#000000">lug/Graphics/Vulkan</text>
<text text-anchor="middle" x="74.0091" y="-186.5" font-family="Helvetica,sans-Serif" font-size="10.00" fill="#000000">/API/Device.hpp</text>
</a>
</g>
</g>
<!-- Node0&#45;&gt;Node12 -->
<g id="edge18" class="edge">
<title>Node0&#45;&gt;Node12</title>
<path fill="none" stroke="#191970" d="M330.4189,-313.389C277.7014,-288.9456 173.7803,-240.7607 115.7317,-213.8454"/>
<polygon fill="#191970" stroke="#191970" points="117.0248,-210.5871 106.4802,-209.5558 114.0802,-216.9376 117.0248,-210.5871"/>
</g>
<!-- Node14 -->
<g id="node15" class="node">
<title>Node14</title>
<g id="a_node15"><a xlink:href="Logger_8hpp.html" target="_top" xlink:title="lug/System/Logger/Logger.hpp">
<polygon fill="none" stroke="#000000" points="759.0091,-252 759.0091,-271 931.0091,-271 931.0091,-252 759.0091,-252"/>
<text text-anchor="middle" x="845.0091" y="-259" font-family="Helvetica,sans-Serif" font-size="10.00" fill="#000000">lug/System/Logger/Logger.hpp</text>
</a>
</g>
</g>
<!-- Node0&#45;&gt;Node14 -->
<g id="edge22" class="edge">
<title>Node0&#45;&gt;Node14</title>
<path fill="none" stroke="#191970" d="M431.5561,-318.9717C519.9519,-306.6843 673.3493,-285.3614 766.3854,-272.429"/>
<polygon fill="#191970" stroke="#191970" points="766.886,-275.8932 776.3088,-271.0496 765.9222,-268.9598 766.886,-275.8932"/>
</g>
<!-- Node2 -->
<g id="node3" class="node">
<title>Node2</title>
<polygon fill="none" stroke="#bfbfbf" points="546.5091,-118 546.5091,-137 605.5091,-137 605.5091,-118 546.5091,-118"/>
<text text-anchor="middle" x="576.0091" y="-125" font-family="Helvetica,sans-Serif" font-size="10.00" fill="#000000">memory</text>
</g>
<!-- Node1&#45;&gt;Node2 -->
<g id="edge2" class="edge">
<title>Node1&#45;&gt;Node2</title>
<path fill="none" stroke="#191970" d="M422.0376,-249.6193C465.6834,-239.8419 520.4569,-225.1687 538.0091,-210 556.9592,-193.6233 567.0223,-165.8113 571.9314,-147.0572"/>
<polygon fill="#191970" stroke="#191970" points="575.3632,-147.7534 574.2545,-137.2167 568.5505,-146.1451 575.3632,-147.7534"/>
</g>
<!-- Node3 -->
<g id="node4" class="node">
<title>Node3</title>
<g id="a_node4"><a xlink:href="Graphics_2Export_8hpp.html" target="_top" xlink:title="lug/Graphics/Export.hpp">
<polygon fill="none" stroke="#000000" points="181.0091,-56.5 181.0091,-75.5 319.0091,-75.5 319.0091,-56.5 181.0091,-56.5"/>
<text text-anchor="middle" x="250.0091" y="-63.5" font-family="Helvetica,sans-Serif" font-size="10.00" fill="#000000">lug/Graphics/Export.hpp</text>
</a>
</g>
</g>
<!-- Node1&#45;&gt;Node3 -->
<g id="edge3" class="edge">
<title>Node1&#45;&gt;Node3</title>
<path fill="none" stroke="#191970" d="M303.8201,-252.5954C256.5977,-244.1386 195.9643,-229.7741 181.0091,-210 149.6944,-168.5947 201.1155,-110.7113 230.9855,-82.6134"/>
<polygon fill="#191970" stroke="#191970" points="233.3871,-85.16 238.4024,-75.8274 228.6619,-79.9955 233.3871,-85.16"/>
</g>
<!-- Node5 -->
<g id="node6" class="node">
<title>Node5</title>
<g id="a_node6"><a xlink:href="CommandBuffer_8hpp.html" target="_top" xlink:title="lug/Graphics/Vulkan\l/API/CommandBuffer.hpp">
<polygon fill="none" stroke="#000000" points="189.5091,-179.5 189.5091,-209.5 334.5091,-209.5 334.5091,-179.5 189.5091,-179.5"/>
<text text-anchor="start" x="197.5091" y="-197.5" font-family="Helvetica,sans-Serif" font-size="10.00" fill="#000000">lug/Graphics/Vulkan</text>
<text text-anchor="middle" x="262.0091" y="-186.5" font-family="Helvetica,sans-Serif" font-size="10.00" fill="#000000">/API/CommandBuffer.hpp</text>
</a>
</g>
</g>
<!-- Node1&#45;&gt;Node5 -->
<g id="edge5" class="edge">
<title>Node1&#45;&gt;Node5</title>
<path fill="none" stroke="#191970" d="M340.3428,-246.4639C326.5351,-237.3044 308.6903,-225.4667 293.5209,-215.4038"/>
<polygon fill="#191970" stroke="#191970" points="295.2173,-212.3291 284.9493,-209.7177 291.3477,-218.1623 295.2173,-212.3291"/>
</g>
<!-- Node6 -->
<g id="node7" class="node">
<title>Node6</title>
<g id="a_node7"><a xlink:href="Vulkan_8hpp.html" target="_top" xlink:title="lug/Graphics/Vulkan\l/Vulkan.hpp">
<polygon fill="none" stroke="#000000" points="316.0091,-112.5 316.0091,-142.5 434.0091,-142.5 434.0091,-112.5 316.0091,-112.5"/>
<text text-anchor="start" x="324.0091" y="-130.5" font-family="Helvetica,sans-Serif" font-size="10.00" fill="#000000">lug/Graphics/Vulkan</text>
<text text-anchor="middle" x="375.0091" y="-119.5" font-family="Helvetica,sans-Serif" font-size="10.00" fill="#000000">/Vulkan.hpp</text>
</a>
</g>
</g>
<!-- Node1&#45;&gt;Node6 -->
<g id="edge17" class="edge">
<title>Node1&#45;&gt;Node6</title>
<path fill="none" stroke="#191970" d="M364.3624,-246.389C366.397,-223.6691 370.2684,-180.438 372.7398,-152.8405"/>
<polygon fill="#191970" stroke="#191970" points="376.2364,-153.0338 373.6424,-142.7614 369.2643,-152.4093 376.2364,-153.0338"/>
</g>
<!-- Node11 -->
<g id="node12" class="node">
<title>Node11</title>
<g id="a_node12"><a xlink:href="DeviceMemory_8hpp.html" target="_top" xlink:title="lug/Graphics/Vulkan\l/API/DeviceMemory.hpp">
<polygon fill="none" stroke="#000000" points="391.0091,-179.5 391.0091,-209.5 529.0091,-209.5 529.0091,-179.5 391.0091,-179.5"/>
<text text-anchor="start" x="399.0091" y="-197.5" font-family="Helvetica,sans-Serif" font-size="10.00" fill="#000000">lug/Graphics/Vulkan</text>
<text text-anchor="middle" x="460.0091" y="-186.5" font-family="Helvetica,sans-Serif" font-size="10.00" fill="#000000">/API/DeviceMemory.hpp</text>
</a>
</g>
</g>
<!-- Node1&#45;&gt;Node11 -->
<g id="edge13" class="edge">
<title>Node1&#45;&gt;Node11</title>
<path fill="none" stroke="#191970" d="M385.0199,-246.2967C398.1661,-237.2163 415.0578,-225.5488 429.4802,-215.587"/>
<polygon fill="#191970" stroke="#191970" points="431.8465,-218.2063 438.0854,-209.6432 427.8682,-212.4467 431.8465,-218.2063"/>
</g>
<!-- Node4 -->
<g id="node5" class="node">
<title>Node4</title>
<g id="a_node5"><a xlink:href="Config_8hpp.html" target="_top" xlink:title="lug/Config.hpp">
<polygon fill="none" stroke="#000000" points="467.5091,-.5 467.5091,-19.5 556.5091,-19.5 556.5091,-.5 467.5091,-.5"/>
<text text-anchor="middle" x="512.0091" y="-7.5" font-family="Helvetica,sans-Serif" font-size="10.00" fill="#000000">lug/Config.hpp</text>
</a>
</g>
</g>
<!-- Node3&#45;&gt;Node4 -->
<g id="edge4" class="edge">
<title>Node3&#45;&gt;Node4</title>
<path fill="none" stroke="#191970" d="M294.7508,-56.4369C339.7785,-46.8127 409.2819,-31.957 457.5019,-21.6504"/>
<polygon fill="#191970" stroke="#191970" points="458.4044,-25.0366 467.452,-19.5237 456.9412,-18.1912 458.4044,-25.0366"/>
</g>
<!-- Node5&#45;&gt;Node3 -->
<g id="edge6" class="edge">
<title>Node5&#45;&gt;Node3</title>
<path fill="none" stroke="#191970" d="M260.5854,-179.2548C258.4114,-155.9744 254.2638,-111.5607 251.8592,-85.8117"/>
<polygon fill="#191970" stroke="#191970" points="255.333,-85.367 250.9183,-75.7358 248.3634,-86.0179 255.333,-85.367"/>
</g>
<!-- Node5&#45;&gt;Node6 -->
<g id="edge7" class="edge">
<title>Node5&#45;&gt;Node6</title>
<path fill="none" stroke="#191970" d="M287.3685,-179.4639C303.1055,-170.1332 323.5297,-158.0232 340.7019,-147.8415"/>
<polygon fill="#191970" stroke="#191970" points="342.5268,-150.8285 349.3434,-142.7177 338.9566,-144.8073 342.5268,-150.8285"/>
</g>
<!-- Node6&#45;&gt;Node3 -->
<g id="edge11" class="edge">
<title>Node6&#45;&gt;Node3</title>
<path fill="none" stroke="#191970" d="M344.4307,-112.4554C324.3059,-102.554 298.1452,-89.683 278.4653,-80.0004"/>
<polygon fill="#191970" stroke="#191970" points="279.8976,-76.8045 269.3797,-75.5303 276.8074,-83.0855 279.8976,-76.8045"/>
</g>
<!-- Node7 -->
<g id="node8" class="node">
<title>Node7</title>
<polygon fill="none" stroke="#bfbfbf" points="624.5091,-56.5 624.5091,-75.5 719.5091,-75.5 719.5091,-56.5 624.5091,-56.5"/>
<text text-anchor="middle" x="672.0091" y="-63.5" font-family="Helvetica,sans-Serif" font-size="10.00" fill="#000000">unordered_map</text>
</g>
<!-- Node6&#45;&gt;Node7 -->
<g id="edge8" class="edge">
<title>Node6&#45;&gt;Node7</title>
<path fill="none" stroke="#191970" d="M434.0419,-115.276C486.8541,-104.3402 563.7352,-88.4203 615.6989,-77.6602"/>
<polygon fill="#191970" stroke="#191970" points="616.6624,-81.035 625.7449,-75.58 615.2429,-74.1804 616.6624,-81.035"/>
</g>
<!-- Node8 -->
<g id="node9" class="node">
<title>Node8</title>
<polygon fill="none" stroke="#bfbfbf" points="529.0091,-56.5 529.0091,-75.5 577.0091,-75.5 577.0091,-56.5 529.0091,-56.5"/>
<text text-anchor="middle" x="553.0091" y="-63.5" font-family="Helvetica,sans-Serif" font-size="10.00" fill="#000000">vector</text>
</g>
<!-- Node6&#45;&gt;Node8 -->
<g id="edge9" class="edge">
<title>Node6&#45;&gt;Node8</title>
<path fill="none" stroke="#191970" d="M418.5528,-112.4554C449.4877,-101.7672 490.4379,-87.6187 518.9843,-77.7558"/>
<polygon fill="#191970" stroke="#191970" points="520.2187,-81.0324 528.5275,-74.4586 517.9327,-74.4161 520.2187,-81.0324"/>
</g>
<!-- Node9 -->
<g id="node10" class="node">
<title>Node9</title>
<polygon fill="none" stroke="#bfbfbf" points="337.0091,-56.5 337.0091,-75.5 395.0091,-75.5 395.0091,-56.5 337.0091,-56.5"/>
<text text-anchor="middle" x="366.0091" y="-63.5" font-family="Helvetica,sans-Serif" font-size="10.00" fill="#000000">ostream</text>
</g>
<!-- Node6&#45;&gt;Node9 -->
<g id="edge10" class="edge">
<title>Node6&#45;&gt;Node9</title>
<path fill="none" stroke="#191970" d="M372.7844,-112.2977C371.6132,-104.2945 370.1629,-94.3843 368.9051,-85.7889"/>
<polygon fill="#191970" stroke="#191970" points="372.3613,-85.2347 367.4501,-75.8469 365.4351,-86.2484 372.3613,-85.2347"/>
</g>
<!-- Node10 -->
<g id="node11" class="node">
<title>Node10</title>
<polygon fill="none" stroke="#bfbfbf" points="413.5091,-56.5 413.5091,-75.5 510.5091,-75.5 510.5091,-56.5 413.5091,-56.5"/>
<text text-anchor="middle" x="462.0091" y="-63.5" font-family="Helvetica,sans-Serif" font-size="10.00" fill="#000000">vulkan/vulkan.h</text>
</g>
<!-- Node6&#45;&gt;Node10 -->
<g id="edge12" class="edge">
<title>Node6&#45;&gt;Node10</title>
<path fill="none" stroke="#191970" d="M396.5147,-112.2977C409.806,-102.9022 426.8148,-90.8787 440.1679,-81.4395"/>
<polygon fill="#191970" stroke="#191970" points="442.1937,-84.2937 448.3391,-75.6633 438.153,-78.5776 442.1937,-84.2937"/>
</g>
<!-- Node11&#45;&gt;Node2 -->
<g id="edge14" class="edge">
<title>Node11&#45;&gt;Node2</title>
<path fill="none" stroke="#191970" d="M486.0418,-179.4639C505.3298,-168.3234 531.4769,-153.2212 550.612,-142.1691"/>
<polygon fill="#191970" stroke="#191970" points="552.4726,-145.1363 559.3814,-137.1039 548.9715,-139.0747 552.4726,-145.1363"/>
</g>
<!-- Node11&#45;&gt;Node3 -->
<g id="edge15" class="edge">
<title>Node11&#45;&gt;Node3</title>
<path fill="none" stroke="#191970" d="M390.6498,-180.7321C362.8254,-172.8709 331.5963,-160.8939 307.0091,-143 285.8749,-127.6191 269.2077,-102.1041 259.4877,-84.6941"/>
<polygon fill="#191970" stroke="#191970" points="262.385,-82.6893 254.5863,-75.5177 256.2106,-85.9873 262.385,-82.6893"/>
</g>
<!-- Node11&#45;&gt;Node6 -->
<g id="edge16" class="edge">
<title>Node11&#45;&gt;Node6</title>
<path fill="none" stroke="#191970" d="M440.7213,-179.2967C429.3101,-170.302 414.6784,-158.7687 402.1196,-148.8694"/>
<polygon fill="#191970" stroke="#191970" points="404.2409,-146.0849 394.2206,-142.6432 399.9075,-151.5824 404.2409,-146.0849"/>
</g>
<!-- Node12&#45;&gt;Node3 -->
<g id="edge19" class="edge">
<title>Node12&#45;&gt;Node3</title>
<path fill="none" stroke="#191970" d="M46.447,-179.2729C19.952,-162.701 -13.4196,-135.4337 6.0091,-112 26.7289,-87.0091 107.5274,-75.5019 170.5391,-70.2628"/>
<polygon fill="#191970" stroke="#191970" points="171.1909,-73.7223 180.8839,-69.4448 170.6391,-66.744 171.1909,-73.7223"/>
</g>
<!-- Node12&#45;&gt;Node6 -->
<g id="edge20" class="edge">
<title>Node12&#45;&gt;Node6</title>
<path fill="none" stroke="#191970" d="M133.1179,-181.3429C182.738,-170.2979 253.6895,-154.5047 305.9234,-142.8779"/>
<polygon fill="#191970" stroke="#191970" points="306.7781,-146.2734 315.7787,-140.6842 305.2571,-139.4406 306.7781,-146.2734"/>
</g>
<!-- Node13 -->
<g id="node14" class="node">
<title>Node13</title>
<g id="a_node14"><a xlink:href="Device_8inl.html" target="_top" xlink:title="lug/Graphics/Vulkan\l/API/Device.inl">
<polygon fill="none" stroke="#000000" points="15.0091,-112.5 15.0091,-142.5 133.0091,-142.5 133.0091,-112.5 15.0091,-112.5"/>
<text text-anchor="start" x="23.0091" y="-130.5" font-family="Helvetica,sans-Serif" font-size="10.00" fill="#000000">lug/Graphics/Vulkan</text>
<text text-anchor="middle" x="74.0091" y="-119.5" font-family="Helvetica,sans-Serif" font-size="10.00" fill="#000000">/API/Device.inl</text>
</a>
</g>
</g>
<!-- Node12&#45;&gt;Node13 -->
<g id="edge21" class="edge">
<title>Node12&#45;&gt;Node13</title>
<path fill="none" stroke="#191970" d="M74.0091,-179.2967C74.0091,-171.5013 74.0091,-161.7991 74.0091,-152.9064"/>
<polygon fill="#191970" stroke="#191970" points="77.5092,-152.6431 74.0091,-142.6432 70.5092,-152.6432 77.5092,-152.6431"/>
</g>
<!-- Node14&#45;&gt;Node2 -->
<g id="edge23" class="edge">
<title>Node14&#45;&gt;Node2</title>
<path fill="none" stroke="#191970" d="M770.2413,-251.9672C712.575,-243.3175 638.7739,-229.0118 615.0091,-210 595.257,-194.1983 584.9727,-166.0159 580.0296,-147.0428"/>
<polygon fill="#191970" stroke="#191970" points="583.3897,-146.0399 577.7052,-137.0991 576.5734,-147.6333 583.3897,-146.0399"/>
</g>
<!-- Node15 -->
<g id="node16" class="node">
<title>Node15</title>
<polygon fill="none" stroke="#bfbfbf" points="1295.0091,-185 1295.0091,-204 1327.0091,-204 1327.0091,-185 1295.0091,-185"/>
<text text-anchor="middle" x="1311.0091" y="-192" font-family="Helvetica,sans-Serif" font-size="10.00" fill="#000000">set</text>
</g>
<!-- Node14&#45;&gt;Node15 -->
<g id="edge24" class="edge">
<title>Node14&#45;&gt;Node15</title>
<path fill="none" stroke="#191970" d="M931.3312,-255.8996C1040.6725,-248.0326 1222.5069,-232.151 1286.0091,-210 1287.0458,-209.6384 1288.0847,-209.2282 1289.1181,-208.7801"/>
<polygon fill="#191970" stroke="#191970" points="1290.8839,-211.8052 1298.0635,-204.0139 1287.5923,-205.6273 1290.8839,-211.8052"/>
</g>
<!-- Node16 -->
<g id="node17" class="node">
<title>Node16</title>
<polygon fill="none" stroke="#bfbfbf" points="770.5091,-118 770.5091,-137 815.5091,-137 815.5091,-118 770.5091,-118"/>
<text text-anchor="middle" x="793.0091" y="-125" font-family="Helvetica,sans-Serif" font-size="10.00" fill="#000000">string</text>
</g>
<!-- Node14&#45;&gt;Node16 -->
<g id="edge25" class="edge">
<title>Node14&#45;&gt;Node16</title>
<path fill="none" stroke="#191970" d="M841.2694,-251.8631C832.7244,-229.8432 811.6398,-175.5098 800.3781,-146.4894"/>
<polygon fill="#191970" stroke="#191970" points="803.5957,-145.1061 796.715,-137.0496 797.0698,-147.6385 803.5957,-145.1061"/>
</g>
<!-- Node17 -->
<g id="node18" class="node">
<title>Node17</title>
<g id="a_node18"><a xlink:href="System_2Export_8hpp.html" target="_top" xlink:title="lug/System/Export.hpp">
<polygon fill="none" stroke="#000000" points="753.0091,-56.5 753.0091,-75.5 885.0091,-75.5 885.0091,-56.5 753.0091,-56.5"/>
<text text-anchor="middle" x="819.0091" y="-63.5" font-family="Helvetica,sans-Serif" font-size="10.00" fill="#000000">lug/System/Export.hpp</text>
</a>
</g>
</g>
<!-- Node14&#45;&gt;Node17 -->
<g id="edge26" class="edge">
<title>Node14&#45;&gt;Node17</title>
<path fill="none" stroke="#191970" d="M843.7198,-251.8051C839.665,-221.3163 827.1169,-126.9646 821.6265,-85.6804"/>
<polygon fill="#191970" stroke="#191970" points="825.0941,-85.2047 820.3063,-75.7534 818.1552,-86.1276 825.0941,-85.2047"/>
</g>
<!-- Node18 -->
<g id="node19" class="node">
<title>Node18</title>
<g id="a_node19"><a xlink:href="Common_8hpp.html" target="_top" xlink:title="lug/System/Logger/Common.hpp">
<polygon fill="none" stroke="#000000" points="873.0091,-118 873.0091,-137 1055.0091,-137 1055.0091,-118 873.0091,-118"/>
<text text-anchor="middle" x="964.0091" y="-125" font-family="Helvetica,sans-Serif" font-size="10.00" fill="#000000">lug/System/Logger/Common.hpp</text>
</a>
</g>
</g>
<!-- Node14&#45;&gt;Node18 -->
<g id="edge28" class="edge">
<title>Node14&#45;&gt;Node18</title>
<path fill="none" stroke="#191970" d="M850.4096,-251.9847C859.7471,-235.9669 880.0308,-203.0161 902.0091,-179 914.2133,-165.6643 929.889,-152.673 942.4246,-143.0746"/>
<polygon fill="#191970" stroke="#191970" points="944.6159,-145.8063 950.5201,-137.0091 940.4186,-140.2042 944.6159,-145.8063"/>
</g>
<!-- Node21 -->
<g id="node22" class="node">
<title>Node21</title>
<g id="a_node22"><a xlink:href="LoggingFacility_8hpp.html" target="_top" xlink:title="lug/System/Logger/Logging\lFacility.hpp">
<polygon fill="none" stroke="#000000" points="623.5091,-179.5 623.5091,-209.5 778.5091,-209.5 778.5091,-179.5 623.5091,-179.5"/>
<text text-anchor="start" x="631.5091" y="-197.5" font-family="Helvetica,sans-Serif" font-size="10.00" fill="#000000">lug/System/Logger/Logging</text>
<text text-anchor="middle" x="701.0091" y="-186.5" font-family="Helvetica,sans-Serif" font-size="10.00" fill="#000000">Facility.hpp</text>
</a>
</g>
</g>
<!-- Node14&#45;&gt;Node21 -->
<g id="edge32" class="edge">
<title>Node14&#45;&gt;Node21</title>
<path fill="none" stroke="#191970" d="M824.3774,-251.9005C803.0902,-241.9961 769.303,-226.2756 742.4657,-213.7888"/>
<polygon fill="#191970" stroke="#191970" points="743.8379,-210.567 733.2947,-209.5218 740.8849,-216.9137 743.8379,-210.567"/>
</g>
<!-- Node22 -->
<g id="node23" class="node">
<title>Node22</title>
<g id="a_node23"><a xlink:href="Message_8hpp.html" target="_top" xlink:title="lug/System/Logger/Message.hpp">
<polygon fill="none" stroke="#000000" points="1095.5091,-185 1095.5091,-204 1276.5091,-204 1276.5091,-185 1095.5091,-185"/>
<text text-anchor="middle" x="1186.0091" y="-192" font-family="Helvetica,sans-Serif" font-size="10.00" fill="#000000">lug/System/Logger/Message.hpp</text>
</a>
</g>
</g>
<!-- Node14&#45;&gt;Node22 -->
<g id="edge37" class="edge">
<title>Node14&#45;&gt;Node22</title>
<path fill="none" stroke="#191970" d="M893.504,-251.9717C955.1551,-239.8584 1061.4988,-218.9639 1127.5618,-205.9838"/>
<polygon fill="#191970" stroke="#191970" points="1128.2682,-209.412 1137.4058,-204.0496 1126.9186,-202.5433 1128.2682,-209.412"/>
</g>
<!-- Node23 -->
<g id="node24" class="node">
<title>Node23</title>
<g id="a_node24"><a xlink:href="Logger_8inl.html" target="_top" xlink:title="lug/System/Logger/Logger.inl">
<polygon fill="none" stroke="#000000" points="911.0091,-185 911.0091,-204 1077.0091,-204 1077.0091,-185 911.0091,-185"/>
<text text-anchor="middle" x="994.0091" y="-192" font-family="Helvetica,sans-Serif" font-size="10.00" fill="#000000">lug/System/Logger/Logger.inl</text>
</a>
</g>
</g>
<!-- Node14&#45;&gt;Node23 -->
<g id="edge39" class="edge">
<title>Node14&#45;&gt;Node23</title>
<path fill="none" stroke="#191970" d="M866.3572,-251.9005C891.8053,-240.4574 934.5183,-221.2509 963.4588,-208.2374"/>
<polygon fill="#191970" stroke="#191970" points="965.0157,-211.3749 972.7007,-204.0817 962.1449,-204.9907 965.0157,-211.3749"/>
</g>
<!-- Node17&#45;&gt;Node4 -->
<g id="edge27" class="edge">
<title>Node17&#45;&gt;Node4</title>
<path fill="none" stroke="#191970" d="M766.5828,-56.4369C710.9615,-46.291 623.4674,-30.3311 566.9189,-20.0161"/>
<polygon fill="#191970" stroke="#191970" points="567.2007,-16.5098 556.7349,-18.1584 565.9445,-23.3962 567.2007,-16.5098"/>
</g>
<!-- Node18&#45;&gt;Node17 -->
<g id="edge29" class="edge">
<title>Node18&#45;&gt;Node17</title>
<path fill="none" stroke="#191970" d="M941.3529,-117.8906C917.0917,-107.6005 878.3974,-91.1888 851.0291,-79.5809"/>
<polygon fill="#191970" stroke="#191970" points="852.0791,-76.2245 841.5063,-75.5419 849.3458,-82.6688 852.0791,-76.2245"/>
</g>
<!-- Node19 -->
<g id="node20" class="node">
<title>Node19</title>
<polygon fill="none" stroke="#bfbfbf" points="1019.0091,-56.5 1019.0091,-75.5 1101.0091,-75.5 1101.0091,-56.5 1019.0091,-56.5"/>
<text text-anchor="middle" x="1060.0091" y="-63.5" font-family="Helvetica,sans-Serif" font-size="10.00" fill="#000000">fmt/format.h</text>
</g>
<!-- Node18&#45;&gt;Node19 -->
<g id="edge30" class="edge">
<title>Node18&#45;&gt;Node19</title>
<path fill="none" stroke="#191970" d="M979.0091,-117.8906C994.3672,-108.0519 1018.4612,-92.6167 1036.3837,-81.1351"/>
<polygon fill="#191970" stroke="#191970" points="1038.5821,-83.8833 1045.1145,-75.5419 1034.8061,-77.9891 1038.5821,-83.8833"/>
</g>
<!-- Node20 -->
<g id="node21" class="node">
<title>Node20</title>
<polygon fill="none" stroke="#bfbfbf" points="911.5091,-56.5 911.5091,-75.5 1000.5091,-75.5 1000.5091,-56.5 911.5091,-56.5"/>
<text text-anchor="middle" x="956.0091" y="-63.5" font-family="Helvetica,sans-Serif" font-size="10.00" fill="#000000">fmt/ostream.h</text>
</g>
<!-- Node18&#45;&gt;Node20 -->
<g id="edge31" class="edge">
<title>Node18&#45;&gt;Node20</title>
<path fill="none" stroke="#191970" d="M962.7591,-117.8906C961.6502,-109.3657 959.9947,-96.6392 958.6008,-85.9235"/>
<polygon fill="#191970" stroke="#191970" points="962.0375,-85.2098 957.2767,-75.7449 955.096,-86.1128 962.0375,-85.2098"/>
</g>
<!-- Node21&#45;&gt;Node2 -->
<g id="edge34" class="edge">
<title>Node21&#45;&gt;Node2</title>
<path fill="none" stroke="#191970" d="M672.9567,-179.4639C651.9833,-168.2222 623.4835,-152.9463 602.8163,-141.8686"/>
<polygon fill="#191970" stroke="#191970" points="604.3941,-138.7433 593.9269,-137.1039 601.0872,-144.913 604.3941,-138.7433"/>
</g>
<!-- Node21&#45;&gt;Node7 -->
<g id="edge35" class="edge">
<title>Node21&#45;&gt;Node7</title>
<path fill="none" stroke="#191970" d="M697.5686,-179.2548C692.3146,-155.9744 682.2913,-111.5607 676.4803,-85.8117"/>
<polygon fill="#191970" stroke="#191970" points="679.822,-84.7199 674.2063,-75.7358 672.9937,-86.261 679.822,-84.7199"/>
</g>
<!-- Node21&#45;&gt;Node16 -->
<g id="edge33" class="edge">
<title>Node21&#45;&gt;Node16</title>
<path fill="none" stroke="#191970" d="M721.8853,-179.2967C736.776,-168.4524 756.7334,-153.9182 771.7173,-143.006"/>
<polygon fill="#191970" stroke="#191970" points="773.8657,-145.7712 779.8889,-137.055 769.7448,-140.1127 773.8657,-145.7712"/>
</g>
<!-- Node21&#45;&gt;Node17 -->
<g id="edge36" class="edge">
<title>Node21&#45;&gt;Node17</title>
<path fill="none" stroke="#191970" d="M710.5371,-179.3059C721.7375,-162.04 741.4243,-133.4751 762.0091,-112 772.563,-100.9896 785.7392,-90.1992 796.7639,-81.8394"/>
<polygon fill="#191970" stroke="#191970" points="799.1015,-84.4635 805.0531,-75.6983 794.9345,-78.8389 799.1015,-84.4635"/>
</g>
<!-- Node22&#45;&gt;Node18 -->
<g id="edge38" class="edge">
<title>Node22&#45;&gt;Node18</title>
<path fill="none" stroke="#191970" d="M1154.2019,-184.9005C1115.0495,-173.0843 1048.4688,-152.9901 1005.3758,-139.9845"/>
<polygon fill="#191970" stroke="#191970" points="1006.3421,-136.6203 995.7573,-137.0817 1004.3195,-143.3218 1006.3421,-136.6203"/>
</g>
</g>
</svg>
