<?xml version="1.0" encoding="UTF-8" standalone="no"?>
<!DOCTYPE svg PUBLIC "-//W3C//DTD SVG 1.1//EN"
 "http://www.w3.org/Graphics/SVG/1.1/DTD/svg11.dtd">
<!-- Generated by graphviz version 2.40.1 (20161225.0304)
 -->
<!-- Title: Graphical Class Hierarchy Pages: 1 -->
<svg width="461pt" height="302pt"
 viewBox="0.00 0.00 461.00 301.50" xmlns="http://www.w3.org/2000/svg" xmlns:xlink="http://www.w3.org/1999/xlink">
<g id="graph0" class="graph" transform="scale(1 1) rotate(0) translate(4 297.5)">
<title>Graphical Class Hierarchy</title>
<!-- Node173 -->
<g id="node1" class="node">
<title>Node173</title>
<polygon fill="none" stroke="#bfbfbf" points="0,-126.5 0,-145.5 65,-145.5 65,-126.5 0,-126.5"/>
<text text-anchor="middle" x="32.5" y="-133.5" font-family="Helvetica,sans-Serif" font-size="10.00" fill="#000000">exception</text>
</g>
<!-- Node0 -->
<g id="node2" class="node">
<title>Node0</title>
<g id="a_node2"><a xlink:href="classlug_1_1System_1_1Exception.html" target="_top" xlink:title="lug::System::Exception">
<polygon fill="none" stroke="#000000" points="101,-126.5 101,-145.5 236,-145.5 236,-126.5 101,-126.5"/>
<text text-anchor="middle" x="168.5" y="-133.5" font-family="Helvetica,sans-Serif" font-size="10.00" fill="#000000">lug::System::Exception</text>
</a>
</g>
</g>
<!-- Node173&#45;&gt;Node0 -->
<g id="edge1" class="edge">
<title>Node173&#45;&gt;Node0</title>
<path fill="none" stroke="#191970" d="M75.1305,-136C83.3472,-136 92.1408,-136 100.9249,-136"/>
<polygon fill="#191970" stroke="#191970" points="75.0754,-132.5001 65.0754,-136 75.0754,-139.5001 75.0754,-132.5001"/>
</g>
<!-- Node1 -->
<g id="node3" class="node">
<title>Node1</title>
<g id="a_node3"><a xlink:href="classlug_1_1System_1_1FileNotFoundException.html" target="_top" xlink:title="lug::System::FileNotFound\lException">
<polygon fill="none" stroke="#000000" points="287,-263 287,-293 438,-293 438,-263 287,-263"/>
<text text-anchor="start" x="295" y="-281" font-family="Helvetica,sans-Serif" font-size="10.00" fill="#000000">lug::System::FileNotFound</text>
<text text-anchor="middle" x="362.5" y="-270" font-family="Helvetica,sans-Serif" font-size="10.00" fill="#000000">Exception</text>
</a>
</g>
</g>
<!-- Node0&#45;&gt;Node1 -->
<g id="edge2" class="edge">
<title>Node0&#45;&gt;Node1</title>
<path fill="none" stroke="#191970" d="M179.4534,-154.2317C196.1149,-180.3662 230.3342,-228.1671 272,-254 277.526,-257.4261 283.5346,-260.3676 289.7401,-262.8921"/>
<polygon fill="#191970" stroke="#191970" points="182.3797,-152.3097 174.128,-145.6644 176.4346,-156.0051 182.3797,-152.3097"/>
</g>
<!-- Node2 -->
<g id="node4" class="node">
<title>Node2</title>
<g id="a_node4"><a xlink:href="classlug_1_1System_1_1InternalErrorException.html" target="_top" xlink:title="lug::System::InternalError\lException">
<polygon fill="none" stroke="#000000" points="286.5,-214 286.5,-244 438.5,-244 438.5,-214 286.5,-214"/>
<text text-anchor="start" x="294.5" y="-232" font-family="Helvetica,sans-Serif" font-size="10.00" fill="#000000">lug::System::InternalError</text>
<text text-anchor="middle" x="362.5" y="-221" font-family="Helvetica,sans-Serif" font-size="10.00" fill="#000000">Exception</text>
</a>
</g>
</g>
<!-- Node0&#45;&gt;Node2 -->
<g id="edge3" class="edge">
<title>Node0&#45;&gt;Node2</title>
<path fill="none" stroke="#191970" d="M188.181,-152.0123C208.1861,-167.5668 240.6171,-190.849 272,-205 279.4091,-208.3409 287.3763,-211.2922 295.4009,-213.8788"/>
<polygon fill="#191970" stroke="#191970" points="190.1746,-149.1268 180.1598,-145.6693 185.8326,-154.6175 190.1746,-149.1268"/>
</g>
<!-- Node3 -->
<g id="node5" class="node">
<title>Node3</title>
<g id="a_node5"><a xlink:href="classlug_1_1System_1_1InvalidParametersException.html" target="_top" xlink:title="lug::System::InvalidParameters\lException">
<polygon fill="none" stroke="#000000" points="273,-165 273,-195 452,-195 452,-165 273,-165"/>
<text text-anchor="start" x="281" y="-183" font-family="Helvetica,sans-Serif" font-size="10.00" fill="#000000">lug::System::InvalidParameters</text>
<text text-anchor="middle" x="362.5" y="-172" font-family="Helvetica,sans-Serif" font-size="10.00" fill="#000000">Exception</text>
</a>
</g>
</g>
<!-- Node0&#45;&gt;Node3 -->
<g id="edge4" class="edge">
<title>Node0&#45;&gt;Node3</title>
<path fill="none" stroke="#191970" d="M220.5853,-147.8132C243.7937,-153.0769 271.4043,-159.3391 296.0754,-164.9346"/>
<polygon fill="#191970" stroke="#191970" points="221.1216,-144.346 210.5951,-145.5473 219.5732,-151.1726 221.1216,-144.346"/>
</g>
<!-- Node4 -->
<g id="node6" class="node">
<title>Node4</title>
<g id="a_node6"><a xlink:href="classlug_1_1System_1_1IOException.html" target="_top" xlink:title="lug::System::IOException">
<polygon fill="none" stroke="#000000" points="289.5,-126.5 289.5,-145.5 435.5,-145.5 435.5,-126.5 289.5,-126.5"/>
<text text-anchor="middle" x="362.5" y="-133.5" font-family="Helvetica,sans-Serif" font-size="10.00" fill="#000000">lug::System::IOException</text>
</a>
</g>
</g>
<!-- Node0&#45;&gt;Node4 -->
<g id="edge5" class="edge">
<title>Node0&#45;&gt;Node4</title>
<path fill="none" stroke="#191970" d="M246.2762,-136C260.443,-136 275.1799,-136 289.2115,-136"/>
<polygon fill="#191970" stroke="#191970" points="246.0795,-132.5001 236.0794,-136 246.0794,-139.5001 246.0795,-132.5001"/>
</g>
<!-- Node5 -->
<g id="node7" class="node">
<title>Node5</title>
<g id="a_node7"><a xlink:href="classlug_1_1System_1_1NotImplementedException.html" target="_top" xlink:title="lug::System::NotImplemented\lException">
<polygon fill="none" stroke="#000000" points="277.5,-77 277.5,-107 447.5,-107 447.5,-77 277.5,-77"/>
<text text-anchor="start" x="285.5" y="-95" font-family="Helvetica,sans-Serif" font-size="10.00" fill="#000000">lug::System::NotImplemented</text>
<text text-anchor="middle" x="362.5" y="-84" font-family="Helvetica,sans-Serif" font-size="10.00" fill="#000000">Exception</text>
</a>
</g>
</g>
<!-- Node0&#45;&gt;Node5 -->
<g id="edge6" class="edge">
<title>Node0&#45;&gt;Node5</title>
<path fill="none" stroke="#191970" d="M220.5853,-124.1868C243.7937,-118.9231 271.4043,-112.6609 296.0754,-107.0654"/>
<polygon fill="#191970" stroke="#191970" points="219.5732,-120.8274 210.5951,-126.4527 221.1216,-127.654 219.5732,-120.8274"/>
</g>
<!-- Node6 -->
<g id="node8" class="node">
<title>Node6</title>
<g id="a_node8"><a xlink:href="classlug_1_1System_1_1RendererException.html" target="_top" xlink:title="lug::System::RendererException">
<polygon fill="none" stroke="#000000" points="272,-38.5 272,-57.5 453,-57.5 453,-38.5 272,-38.5"/>
<text text-anchor="middle" x="362.5" y="-45.5" font-family="Helvetica,sans-Serif" font-size="10.00" fill="#000000">lug::System::RendererException</text>
</a>
</g>
</g>
<!-- Node0&#45;&gt;Node6 -->
<g id="edge7" class="edge">
<title>Node0&#45;&gt;Node6</title>
<path fill="none" stroke="#191970" d="M188.0986,-119.9556C208.0406,-104.4239 240.4243,-81.3273 272,-68 282.2289,-63.6826 293.5184,-60.2396 304.5536,-57.5133"/>
<polygon fill="#191970" stroke="#191970" points="185.7639,-117.3401 180.1058,-126.2976 190.1149,-122.8236 185.7639,-117.3401"/>
</g>
<!-- Node7 -->
<g id="node9" class="node">
<title>Node7</title>
<g id="a_node9"><a xlink:href="classlug_1_1System_1_1WindowException.html" target="_top" xlink:title="lug::System::WindowException">
<polygon fill="none" stroke="#000000" points="275.5,-.5 275.5,-19.5 449.5,-19.5 449.5,-.5 275.5,-.5"/>
<text text-anchor="middle" x="362.5" y="-7.5" font-family="Helvetica,sans-Serif" font-size="10.00" fill="#000000">lug::System::WindowException</text>
</a>
</g>
</g>
<!-- Node0&#45;&gt;Node7 -->
<g id="edge8" class="edge">
<title>Node0&#45;&gt;Node7</title>
<path fill="none" stroke="#191970" d="M180.4444,-118.178C197.6736,-93.9632 231.8755,-51.1542 272,-29 279.0272,-25.12 286.7617,-22.0309 294.6591,-19.5717"/>
<polygon fill="#191970" stroke="#191970" points="177.5189,-116.2547 174.6952,-126.4663 183.2707,-120.2444 177.5189,-116.2547"/>
</g>
</g>
</svg>
