<?xml version="1.0" encoding="UTF-8" standalone="no"?>
<!DOCTYPE svg PUBLIC "-//W3C//DTD SVG 1.1//EN"
 "http://www.w3.org/Graphics/SVG/1.1/DTD/svg11.dtd">
<!-- Generated by graphviz version 2.40.1 (20161225.0304)
 -->
<!-- Title: Graphical Class Hierarchy Pages: 1 -->
<svg width="463pt" height="78pt"
 viewBox="0.00 0.00 463.00 77.50" xmlns="http://www.w3.org/2000/svg" xmlns:xlink="http://www.w3.org/1999/xlink">
<g id="graph0" class="graph" transform="scale(1 1) rotate(0) translate(4 73.5)">
<title>Graphical Class Hierarchy</title>
<!-- Node20 -->
<g id="node1" class="node">
<title>Node20</title>
<g id="a_node1"><a xlink:href="classlug_1_1Graphics_1_1Render_1_1Target.html" target="_top" xlink:title="lug::Graphics::Render\l::Target">
<polygon fill="none" stroke="#000000" points="0,-39 0,-69 128,-69 128,-39 0,-39"/>
<text text-anchor="start" x="8" y="-57" font-family="Helvetica,sans-Serif" font-size="10.00" fill="#000000">lug::Graphics::Render</text>
<text text-anchor="middle" x="64" y="-46" font-family="Helvetica,sans-Serif" font-size="10.00" fill="#000000">::Target</text>
</a>
</g>
</g>
<!-- Node1 -->
<g id="node2" class="node">
<title>Node1</title>
<g id="a_node2"><a xlink:href="classlug_1_1Graphics_1_1Render_1_1Window.html" target="_top" xlink:title="lug::Graphics::Render\l::Window">
<polygon fill="none" stroke="#000000" points="164,-17 164,-47 292,-47 292,-17 164,-17"/>
<text text-anchor="start" x="172" y="-35" font-family="Helvetica,sans-Serif" font-size="10.00" fill="#000000">lug::Graphics::Render</text>
<text text-anchor="middle" x="228" y="-24" font-family="Helvetica,sans-Serif" font-size="10.00" fill="#000000">::Window</text>
</a>
</g>
</g>
<!-- Node20&#45;&gt;Node1 -->
<g id="edge1" class="edge">
<title>Node20&#45;&gt;Node1</title>
<path fill="none" stroke="#191970" d="M138.2859,-44.0348C146.8158,-42.8906 155.4581,-41.7312 163.8391,-40.6069"/>
<polygon fill="#191970" stroke="#191970" points="137.7923,-40.5696 128.3464,-45.3682 138.723,-47.5074 137.7923,-40.5696"/>
</g>
<!-- Node2 -->
<g id="node3" class="node">
<title>Node2</title>
<g id="a_node3"><a xlink:href="classlug_1_1Graphics_1_1Vulkan_1_1Render_1_1Window.html" target="_top" xlink:title="lug::Graphics::Vulkan\l::Render::Window">
<polygon fill="none" stroke="#000000" points="328,-17 328,-47 455,-47 455,-17 328,-17"/>
<text text-anchor="start" x="336" y="-35" font-family="Helvetica,sans-Serif" font-size="10.00" fill="#000000">lug::Graphics::Vulkan</text>
<text text-anchor="middle" x="391.5" y="-24" font-family="Helvetica,sans-Serif" font-size="10.00" fill="#000000">::Render::Window</text>
</a>
</g>
</g>
<!-- Node1&#45;&gt;Node2 -->
<g id="edge2" class="edge">
<title>Node1&#45;&gt;Node2</title>
<path fill="none" stroke="#191970" d="M302.4157,-32C310.895,-32 319.4803,-32 327.8029,-32"/>
<polygon fill="#191970" stroke="#191970" points="302.1503,-28.5001 292.1503,-32 302.1502,-35.5001 302.1503,-28.5001"/>
</g>
<!-- Node0 -->
<g id="node4" class="node">
<title>Node0</title>
<g id="a_node4"><a xlink:href="classlug_1_1Window_1_1Window.html" target="_top" xlink:title="Class for window. ">
<polygon fill="none" stroke="#000000" points="0,-.5 0,-19.5 128,-19.5 128,-.5 0,-.5"/>
<text text-anchor="middle" x="64" y="-7.5" font-family="Helvetica,sans-Serif" font-size="10.00" fill="#000000">lug::Window::Window</text>
</a>
</g>
</g>
<!-- Node0&#45;&gt;Node1 -->
<g id="edge3" class="edge">
<title>Node0&#45;&gt;Node1</title>
<path fill="none" stroke="#191970" d="M138.2859,-19.9652C146.8158,-21.1094 155.4581,-22.2688 163.8391,-23.3931"/>
<polygon fill="#191970" stroke="#191970" points="138.723,-16.4926 128.3464,-18.6318 137.7923,-23.4304 138.723,-16.4926"/>
</g>
</g>
</svg>
