<?xml version="1.0" encoding="UTF-8" standalone="no"?>
<!DOCTYPE svg PUBLIC "-//W3C//DTD SVG 1.1//EN"
 "http://www.w3.org/Graphics/SVG/1.1/DTD/svg11.dtd">
<!-- Generated by graphviz version 2.40.1 (20161225.0304)
 -->
<!-- Title: Graphical Class Hierarchy Pages: 1 -->
<svg width="485pt" height="431pt"
 viewBox="0.00 0.00 485.00 431.00" xmlns="http://www.w3.org/2000/svg" xmlns:xlink="http://www.w3.org/1999/xlink">
<g id="graph0" class="graph" transform="scale(1 1) rotate(0) translate(4 427)">
<title>Graphical Class Hierarchy</title>
<!-- Node184 -->
<g id="node1" class="node">
<title>Node184</title>
<g id="a_node1"><a xlink:href="classlug_1_1Graphics_1_1Render_1_1DirtyObject.html" target="_top" xlink:title="lug::Graphics::Render\l::DirtyObject">
<polygon fill="none" stroke="#000000" points="5.5,-318.5 5.5,-348.5 133.5,-348.5 133.5,-318.5 5.5,-318.5"/>
<text text-anchor="start" x="13.5" y="-336.5" font-family="Helvetica,sans-Serif" font-size="10.00" fill="#000000">lug::Graphics::Render</text>
<text text-anchor="middle" x="69.5" y="-325.5" font-family="Helvetica,sans-Serif" font-size="10.00" fill="#000000">::DirtyObject</text>
</a>
</g>
</g>
<!-- Node1 -->
<g id="node2" class="node">
<title>Node1</title>
<g id="a_node2"><a xlink:href="classlug_1_1Graphics_1_1Render_1_1Camera_1_1Camera.html" target="_top" xlink:title="Class for camera. ">
<polygon fill="none" stroke="#000000" points="175,-343.5 175,-373.5 303,-373.5 303,-343.5 175,-343.5"/>
<text text-anchor="start" x="183" y="-361.5" font-family="Helvetica,sans-Serif" font-size="10.00" fill="#000000">lug::Graphics::Render</text>
<text text-anchor="middle" x="239" y="-350.5" font-family="Helvetica,sans-Serif" font-size="10.00" fill="#000000">::Camera::Camera</text>
</a>
</g>
</g>
<!-- Node184&#45;&gt;Node1 -->
<g id="edge1" class="edge">
<title>Node184&#45;&gt;Node1</title>
<path fill="none" stroke="#191970" d="M143.4992,-344.4143C153.9369,-345.9538 164.5958,-347.5259 174.8287,-349.0352"/>
<polygon fill="#191970" stroke="#191970" points="143.9844,-340.9481 133.5807,-342.9514 142.9629,-347.8732 143.9844,-340.9481"/>
</g>
<!-- Node4 -->
<g id="node5" class="node">
<title>Node4</title>
<g id="a_node5"><a xlink:href="classlug_1_1Graphics_1_1Render_1_1Light.html" target="_top" xlink:title="Class for Light. ">
<polygon fill="none" stroke="#000000" points="175,-294.5 175,-324.5 303,-324.5 303,-294.5 175,-294.5"/>
<text text-anchor="start" x="183" y="-312.5" font-family="Helvetica,sans-Serif" font-size="10.00" fill="#000000">lug::Graphics::Render</text>
<text text-anchor="middle" x="239" y="-301.5" font-family="Helvetica,sans-Serif" font-size="10.00" fill="#000000">::Light</text>
</a>
</g>
</g>
<!-- Node184&#45;&gt;Node4 -->
<g id="edge4" class="edge">
<title>Node184&#45;&gt;Node4</title>
<path fill="none" stroke="#191970" d="M143.4992,-323.0222C153.9369,-321.5443 164.5958,-320.0351 174.8287,-318.5862"/>
<polygon fill="#191970" stroke="#191970" points="142.9912,-319.5592 133.5807,-324.4266 143.9726,-326.49 142.9912,-319.5592"/>
</g>
<!-- Node5 -->
<g id="node6" class="node">
<title>Node5</title>
<g id="a_node6"><a xlink:href="classlug_1_1Graphics_1_1Render_1_1Material.html" target="_top" xlink:title="Class for Material. Is a Resource. ">
<polygon fill="none" stroke="#000000" points="175,-245.5 175,-275.5 303,-275.5 303,-245.5 175,-245.5"/>
<text text-anchor="start" x="183" y="-263.5" font-family="Helvetica,sans-Serif" font-size="10.00" fill="#000000">lug::Graphics::Render</text>
<text text-anchor="middle" x="239" y="-252.5" font-family="Helvetica,sans-Serif" font-size="10.00" fill="#000000">::Material</text>
</a>
</g>
</g>
<!-- Node184&#45;&gt;Node5 -->
<g id="edge5" class="edge">
<title>Node184&#45;&gt;Node5</title>
<path fill="none" stroke="#191970" d="M109.8214,-313.896C129.3492,-304.6276 153.2308,-293.6216 175,-284.5 182.2235,-281.4732 189.9763,-278.4119 197.5053,-275.5351"/>
<polygon fill="#191970" stroke="#191970" points="108.1306,-310.8248 100.6131,-318.2906 111.1456,-317.1422 108.1306,-310.8248"/>
</g>
<!-- Node95 -->
<g id="node8" class="node">
<title>Node95</title>
<g id="a_node8"><a xlink:href="classlug_1_1Graphics_1_1Scene_1_1Node.html" target="_top" xlink:title="lug::Graphics::Scene\l::Node">
<polygon fill="none" stroke="#000000" points="177.5,-392.5 177.5,-422.5 300.5,-422.5 300.5,-392.5 177.5,-392.5"/>
<text text-anchor="start" x="185.5" y="-410.5" font-family="Helvetica,sans-Serif" font-size="10.00" fill="#000000">lug::Graphics::Scene</text>
<text text-anchor="middle" x="239" y="-399.5" font-family="Helvetica,sans-Serif" font-size="10.00" fill="#000000">::Node</text>
</a>
</g>
</g>
<!-- Node184&#45;&gt;Node95 -->
<g id="edge7" class="edge">
<title>Node184&#45;&gt;Node95</title>
<path fill="none" stroke="#191970" d="M108.6564,-353.0174C128.378,-362.6012 152.7656,-374.0818 175,-383.5 182.1024,-386.5085 189.7241,-389.5365 197.1435,-392.3801"/>
<polygon fill="#191970" stroke="#191970" points="110.1857,-349.8693 99.6645,-348.6225 107.1118,-356.1583 110.1857,-349.8693"/>
</g>
<!-- Node2 -->
<g id="node3" class="node">
<title>Node2</title>
<g id="a_node3"><a xlink:href="classlug_1_1Graphics_1_1Render_1_1Camera_1_1Orthographic.html" target="_top" xlink:title="lug::Graphics::Render\l::Camera::Orthographic">
<polygon fill="none" stroke="#000000" points="339,-367.5 339,-397.5 477,-397.5 477,-367.5 339,-367.5"/>
<text text-anchor="start" x="347" y="-385.5" font-family="Helvetica,sans-Serif" font-size="10.00" fill="#000000">lug::Graphics::Render</text>
<text text-anchor="middle" x="408" y="-374.5" font-family="Helvetica,sans-Serif" font-size="10.00" fill="#000000">::Camera::Orthographic</text>
</a>
</g>
</g>
<!-- Node1&#45;&gt;Node2 -->
<g id="edge2" class="edge">
<title>Node1&#45;&gt;Node2</title>
<path fill="none" stroke="#191970" d="M313.5155,-369.0821C321.9026,-370.2732 330.4228,-371.4831 338.7393,-372.6642"/>
<polygon fill="#191970" stroke="#191970" points="313.7666,-365.5827 303.3738,-367.6418 312.7823,-372.5132 313.7666,-365.5827"/>
</g>
<!-- Node3 -->
<g id="node4" class="node">
<title>Node3</title>
<g id="a_node4"><a xlink:href="classlug_1_1Graphics_1_1Render_1_1Camera_1_1Perspective.html" target="_top" xlink:title="lug::Graphics::Render\l::Camera::Perspective">
<polygon fill="none" stroke="#000000" points="342.5,-318.5 342.5,-348.5 473.5,-348.5 473.5,-318.5 342.5,-318.5"/>
<text text-anchor="start" x="350.5" y="-336.5" font-family="Helvetica,sans-Serif" font-size="10.00" fill="#000000">lug::Graphics::Render</text>
<text text-anchor="middle" x="408" y="-325.5" font-family="Helvetica,sans-Serif" font-size="10.00" fill="#000000">::Camera::Perspective</text>
</a>
</g>
</g>
<!-- Node1&#45;&gt;Node3 -->
<g id="edge3" class="edge">
<title>Node1&#45;&gt;Node3</title>
<path fill="none" stroke="#191970" d="M313.3662,-347.4991C323.038,-346.0683 332.8896,-344.611 342.4041,-343.2035"/>
<polygon fill="#191970" stroke="#191970" points="312.7539,-344.0515 303.3738,-348.9773 313.7783,-350.9761 312.7539,-344.0515"/>
</g>
<!-- Node6 -->
<g id="node7" class="node">
<title>Node6</title>
<g id="a_node7"><a xlink:href="classlug_1_1Graphics_1_1Vulkan_1_1Render_1_1Material.html" target="_top" xlink:title="Class for Material. ">
<polygon fill="none" stroke="#000000" points="344.5,-245.5 344.5,-275.5 471.5,-275.5 471.5,-245.5 344.5,-245.5"/>
<text text-anchor="start" x="352.5" y="-263.5" font-family="Helvetica,sans-Serif" font-size="10.00" fill="#000000">lug::Graphics::Vulkan</text>
<text text-anchor="middle" x="408" y="-252.5" font-family="Helvetica,sans-Serif" font-size="10.00" fill="#000000">::Render::Material</text>
</a>
</g>
</g>
<!-- Node5&#45;&gt;Node6 -->
<g id="edge6" class="edge">
<title>Node5&#45;&gt;Node6</title>
<path fill="none" stroke="#191970" d="M313.5601,-260.5C323.8357,-260.5 334.3102,-260.5 344.3642,-260.5"/>
<polygon fill="#191970" stroke="#191970" points="313.3738,-257.0001 303.3738,-260.5 313.3737,-264.0001 313.3738,-257.0001"/>
</g>
<!-- Node94 -->
<g id="node9" class="node">
<title>Node94</title>
<g id="a_node9"><a xlink:href="classlug_1_1Graphics_1_1Node.html" target="_top" xlink:title="lug::Graphics::Node">
<polygon fill="none" stroke="#000000" points="10,-398 10,-417 129,-417 129,-398 10,-398"/>
<text text-anchor="middle" x="69.5" y="-405" font-family="Helvetica,sans-Serif" font-size="10.00" fill="#000000">lug::Graphics::Node</text>
</a>
</g>
</g>
<!-- Node94&#45;&gt;Node95 -->
<g id="edge8" class="edge">
<title>Node94&#45;&gt;Node95</title>
<path fill="none" stroke="#191970" d="M139.2948,-407.5C151.9591,-407.5 165.0836,-407.5 177.4883,-407.5"/>
<polygon fill="#191970" stroke="#191970" points="139.2594,-404.0001 129.2594,-407.5 139.2593,-411.0001 139.2594,-404.0001"/>
</g>
<!-- Node0 -->
<g id="node10" class="node">
<title>Node0</title>
<g id="a_node10"><a xlink:href="classlug_1_1Graphics_1_1Resource.html" target="_top" xlink:title="Class for resource. ">
<polygon fill="none" stroke="#000000" points="0,-178 0,-197 139,-197 139,-178 0,-178"/>
<text text-anchor="middle" x="69.5" y="-185" font-family="Helvetica,sans-Serif" font-size="10.00" fill="#000000">lug::Graphics::Resource</text>
</a>
</g>
</g>
<!-- Node0&#45;&gt;Node1 -->
<g id="edge9" class="edge">
<title>Node0&#45;&gt;Node1</title>
<path fill="none" stroke="#191970" d="M78.5391,-206.304C94.1618,-236.9718 129.0095,-297.9 175,-333.5 179.9051,-337.2969 185.4581,-340.5828 191.1935,-343.4086"/>
<polygon fill="#191970" stroke="#191970" points="81.5726,-204.5433 73.9896,-197.144 75.3032,-207.6571 81.5726,-204.5433"/>
</g>
<!-- Node0&#45;&gt;Node4 -->
<g id="edge10" class="edge">
<title>Node0&#45;&gt;Node4</title>
<path fill="none" stroke="#191970" d="M84.3458,-204.6042C103.4892,-225.7818 138.6628,-261.8234 175,-284.5 180.9707,-288.2261 187.5887,-291.5626 194.2385,-294.4911"/>
<polygon fill="#191970" stroke="#191970" points="86.8649,-202.1699 77.6045,-197.0224 81.6336,-206.8212 86.8649,-202.1699"/>
</g>
<!-- Node0&#45;&gt;Node5 -->
<g id="edge11" class="edge">
<title>Node0&#45;&gt;Node5</title>
<path fill="none" stroke="#191970" d="M98.6504,-201.2804C119.7281,-211.1175 148.959,-224.4995 175,-235.5 182.9117,-238.8422 191.4356,-242.2819 199.6015,-245.4999"/>
<polygon fill="#191970" stroke="#191970" points="100.1209,-198.1043 89.5805,-197.0315 97.1513,-204.4432 100.1209,-198.1043"/>
</g>
<!-- Node7 -->
<g id="node11" class="node">
<title>Node7</title>
<g id="a_node11"><a xlink:href="classlug_1_1Graphics_1_1Render_1_1Mesh.html" target="_top" xlink:title="A Mesh, which itsef is a Resource. A mesh is composed of a vector of PrimitiveSet. ">
<polygon fill="none" stroke="#000000" points="175,-98.5 175,-128.5 303,-128.5 303,-98.5 175,-98.5"/>
<text text-anchor="start" x="183" y="-116.5" font-family="Helvetica,sans-Serif" font-size="10.00" fill="#000000">lug::Graphics::Render</text>
<text text-anchor="middle" x="239" y="-105.5" font-family="Helvetica,sans-Serif" font-size="10.00" fill="#000000">::Mesh</text>
</a>
</g>
</g>
<!-- Node0&#45;&gt;Node7 -->
<g id="edge12" class="edge">
<title>Node0&#45;&gt;Node7</title>
<path fill="none" stroke="#191970" d="M97.3818,-173.5012C118.4841,-163.0988 148.2951,-148.8119 175,-137.5 182.1024,-134.4915 189.7241,-131.4635 197.1435,-128.6199"/>
<polygon fill="#191970" stroke="#191970" points="95.7465,-170.4054 88.3414,-177.9827 98.8555,-176.6771 95.7465,-170.4054"/>
</g>
<!-- Node9 -->
<g id="node13" class="node">
<title>Node9</title>
<g id="a_node13"><a xlink:href="classlug_1_1Graphics_1_1Render_1_1SkyBox.html" target="_top" xlink:title="lug::Graphics::Render\l::SkyBox">
<polygon fill="none" stroke="#000000" points="175,-49.5 175,-79.5 303,-79.5 303,-49.5 175,-49.5"/>
<text text-anchor="start" x="183" y="-67.5" font-family="Helvetica,sans-Serif" font-size="10.00" fill="#000000">lug::Graphics::Render</text>
<text text-anchor="middle" x="239" y="-56.5" font-family="Helvetica,sans-Serif" font-size="10.00" fill="#000000">::SkyBox</text>
</a>
</g>
</g>
<!-- Node0&#45;&gt;Node9 -->
<g id="edge14" class="edge">
<title>Node0&#45;&gt;Node9</title>
<path fill="none" stroke="#191970" d="M84.2221,-169.9416C103.2373,-148.2222 138.2782,-111.3286 175,-88.5 180.3413,-85.1795 186.2142,-82.2052 192.1695,-79.5761"/>
<polygon fill="#191970" stroke="#191970" points="81.3985,-167.8569 77.5303,-177.7204 86.7052,-172.422 81.3985,-167.8569"/>
</g>
<!-- Node11 -->
<g id="node15" class="node">
<title>Node11</title>
<g id="a_node15"><a xlink:href="classlug_1_1Graphics_1_1Render_1_1Texture.html" target="_top" xlink:title="lug::Graphics::Render\l::Texture">
<polygon fill="none" stroke="#000000" points="175,-.5 175,-30.5 303,-30.5 303,-.5 175,-.5"/>
<text text-anchor="start" x="183" y="-18.5" font-family="Helvetica,sans-Serif" font-size="10.00" fill="#000000">lug::Graphics::Render</text>
<text text-anchor="middle" x="239" y="-7.5" font-family="Helvetica,sans-Serif" font-size="10.00" fill="#000000">::Texture</text>
</a>
</g>
</g>
<!-- Node0&#45;&gt;Node11 -->
<g id="edge16" class="edge">
<title>Node0&#45;&gt;Node11</title>
<path fill="none" stroke="#191970" d="M78.4171,-168.3636C93.8645,-137.1681 128.4659,-75.2542 175,-39.5 179.4226,-36.1019 184.3785,-33.1426 189.5229,-30.5755"/>
<polygon fill="#191970" stroke="#191970" points="75.114,-167.1554 73.9231,-177.6831 81.4192,-170.1958 75.114,-167.1554"/>
</g>
<!-- Node13 -->
<g id="node17" class="node">
<title>Node13</title>
<g id="a_node17"><a xlink:href="classlug_1_1Graphics_1_1Scene_1_1Scene.html" target="_top" xlink:title="lug::Graphics::Scene\l::Scene">
<polygon fill="none" stroke="#000000" points="177.5,-196.5 177.5,-226.5 300.5,-226.5 300.5,-196.5 177.5,-196.5"/>
<text text-anchor="start" x="185.5" y="-214.5" font-family="Helvetica,sans-Serif" font-size="10.00" fill="#000000">lug::Graphics::Scene</text>
<text text-anchor="middle" x="239" y="-203.5" font-family="Helvetica,sans-Serif" font-size="10.00" fill="#000000">::Scene</text>
</a>
</g>
</g>
<!-- Node0&#45;&gt;Node13 -->
<g id="edge18" class="edge">
<title>Node0&#45;&gt;Node13</title>
<path fill="none" stroke="#191970" d="M147.0379,-198.4788C157.1657,-199.9128 167.4318,-201.3665 177.2521,-202.7569"/>
<polygon fill="#191970" stroke="#191970" points="147.3699,-194.991 136.9779,-197.0544 146.3885,-201.9219 147.3699,-194.991"/>
</g>
<!-- Node14 -->
<g id="node18" class="node">
<title>Node14</title>
<g id="a_node18"><a xlink:href="classlug_1_1Graphics_1_1Vulkan_1_1Render_1_1Pipeline.html" target="_top" xlink:title="Class for the Vulkan pipeline, Render side. ">
<polygon fill="none" stroke="#000000" points="175.5,-147.5 175.5,-177.5 302.5,-177.5 302.5,-147.5 175.5,-147.5"/>
<text text-anchor="start" x="183.5" y="-165.5" font-family="Helvetica,sans-Serif" font-size="10.00" fill="#000000">lug::Graphics::Vulkan</text>
<text text-anchor="middle" x="239" y="-154.5" font-family="Helvetica,sans-Serif" font-size="10.00" fill="#000000">::Render::Pipeline</text>
</a>
</g>
</g>
<!-- Node0&#45;&gt;Node14 -->
<g id="edge19" class="edge">
<title>Node0&#45;&gt;Node14</title>
<path fill="none" stroke="#191970" d="M144.028,-176.5077C154.5103,-174.9616 165.2043,-173.3843 175.4559,-171.8723"/>
<polygon fill="#191970" stroke="#191970" points="143.4465,-173.0555 134.0642,-177.9773 144.4679,-179.9806 143.4465,-173.0555"/>
</g>
<!-- Node8 -->
<g id="node12" class="node">
<title>Node8</title>
<g id="a_node12"><a xlink:href="classlug_1_1Graphics_1_1Vulkan_1_1Render_1_1Mesh.html" target="_top" xlink:title="lug::Graphics::Vulkan\l::Render::Mesh">
<polygon fill="none" stroke="#000000" points="344.5,-98.5 344.5,-128.5 471.5,-128.5 471.5,-98.5 344.5,-98.5"/>
<text text-anchor="start" x="352.5" y="-116.5" font-family="Helvetica,sans-Serif" font-size="10.00" fill="#000000">lug::Graphics::Vulkan</text>
<text text-anchor="middle" x="408" y="-105.5" font-family="Helvetica,sans-Serif" font-size="10.00" fill="#000000">::Render::Mesh</text>
</a>
</g>
</g>
<!-- Node7&#45;&gt;Node8 -->
<g id="edge13" class="edge">
<title>Node7&#45;&gt;Node8</title>
<path fill="none" stroke="#191970" d="M313.5601,-113.5C323.8357,-113.5 334.3102,-113.5 344.3642,-113.5"/>
<polygon fill="#191970" stroke="#191970" points="313.3738,-110.0001 303.3738,-113.5 313.3737,-117.0001 313.3738,-110.0001"/>
</g>
<!-- Node10 -->
<g id="node14" class="node">
<title>Node10</title>
<g id="a_node14"><a xlink:href="classlug_1_1Graphics_1_1Vulkan_1_1Render_1_1SkyBox.html" target="_top" xlink:title="Class for SkyBox. ">
<polygon fill="none" stroke="#000000" points="344.5,-49.5 344.5,-79.5 471.5,-79.5 471.5,-49.5 344.5,-49.5"/>
<text text-anchor="start" x="352.5" y="-67.5" font-family="Helvetica,sans-Serif" font-size="10.00" fill="#000000">lug::Graphics::Vulkan</text>
<text text-anchor="middle" x="408" y="-56.5" font-family="Helvetica,sans-Serif" font-size="10.00" fill="#000000">::Render::SkyBox</text>
</a>
</g>
</g>
<!-- Node9&#45;&gt;Node10 -->
<g id="edge15" class="edge">
<title>Node9&#45;&gt;Node10</title>
<path fill="none" stroke="#191970" d="M313.5601,-64.5C323.8357,-64.5 334.3102,-64.5 344.3642,-64.5"/>
<polygon fill="#191970" stroke="#191970" points="313.3738,-61.0001 303.3738,-64.5 313.3737,-68.0001 313.3738,-61.0001"/>
</g>
<!-- Node12 -->
<g id="node16" class="node">
<title>Node12</title>
<g id="a_node16"><a xlink:href="classlug_1_1Graphics_1_1Vulkan_1_1Render_1_1Texture.html" target="_top" xlink:title="lug::Graphics::Vulkan\l::Render::Texture">
<polygon fill="none" stroke="#000000" points="344.5,-.5 344.5,-30.5 471.5,-30.5 471.5,-.5 344.5,-.5"/>
<text text-anchor="start" x="352.5" y="-18.5" font-family="Helvetica,sans-Serif" font-size="10.00" fill="#000000">lug::Graphics::Vulkan</text>
<text text-anchor="middle" x="408" y="-7.5" font-family="Helvetica,sans-Serif" font-size="10.00" fill="#000000">::Render::Texture</text>
</a>
</g>
</g>
<!-- Node11&#45;&gt;Node12 -->
<g id="edge17" class="edge">
<title>Node11&#45;&gt;Node12</title>
<path fill="none" stroke="#191970" d="M313.5601,-15.5C323.8357,-15.5 334.3102,-15.5 344.3642,-15.5"/>
<polygon fill="#191970" stroke="#191970" points="313.3738,-12.0001 303.3738,-15.5 313.3737,-19.0001 313.3738,-12.0001"/>
</g>
</g>
</svg>
