<?xml version="1.0" encoding="UTF-8" standalone="no"?>
<!DOCTYPE svg PUBLIC "-//W3C//DTD SVG 1.1//EN"
 "http://www.w3.org/Graphics/SVG/1.1/DTD/svg11.dtd">
<!-- Generated by graphviz version 2.40.1 (20161225.0304)
 -->
<!-- Title: include/lug/Graphics/Vulkan/API/Instance.inl Pages: 1 -->
<svg width="743pt" height="240pt"
 viewBox="0.00 0.00 742.50 240.00" xmlns="http://www.w3.org/2000/svg" xmlns:xlink="http://www.w3.org/1999/xlink">
<g id="graph0" class="graph" transform="scale(1 1) rotate(0) translate(4 236)">
<title>include/lug/Graphics/Vulkan/API/Instance.inl</title>
<!-- Node1 -->
<g id="node1" class="node">
<title>Node1</title>
<polygon fill="#bfbfbf" stroke="#000000" points="442,-201.5 442,-231.5 580,-231.5 580,-201.5 442,-201.5"/>
<text text-anchor="start" x="450" y="-219.5" font-family="Helvetica,sans-Serif" font-size="10.00" fill="#000000">include/lug/Graphics</text>
<text text-anchor="middle" x="511" y="-208.5" font-family="Helvetica,sans-Serif" font-size="10.00" fill="#000000">/Vulkan/API/Instance.inl</text>
</g>
<!-- Node2 -->
<g id="node2" class="node">
<title>Node2</title>
<g id="a_node2"><a xlink:href="Instance_8hpp.html" target="_top" xlink:title="include/lug/Graphics\l/Vulkan/API/Instance.hpp">
<polygon fill="none" stroke="#000000" points="439,-134.5 439,-164.5 583,-164.5 583,-134.5 439,-134.5"/>
<text text-anchor="start" x="447" y="-152.5" font-family="Helvetica,sans-Serif" font-size="10.00" fill="#000000">include/lug/Graphics</text>
<text text-anchor="middle" x="511" y="-141.5" font-family="Helvetica,sans-Serif" font-size="10.00" fill="#000000">/Vulkan/API/Instance.hpp</text>
</a>
</g>
</g>
<!-- Node1&#45;&gt;Node2 -->
<g id="edge1" class="edge">
<title>Node1&#45;&gt;Node2</title>
<path fill="none" stroke="#191970" d="M511,-191.0249C511,-182.128 511,-172.4287 511,-164.6432"/>
<polygon fill="#191970" stroke="#191970" points="507.5001,-191.2966 511,-201.2967 514.5001,-191.2967 507.5001,-191.2966"/>
</g>
<!-- Node3 -->
<g id="node3" class="node">
<title>Node3</title>
<g id="a_node3"><a xlink:href="Vulkan_2Renderer_8hpp.html" target="_top" xlink:title="include/lug/Graphics\l/Vulkan/Renderer.hpp">
<polygon fill="none" stroke="#000000" points="297.5,-67.5 297.5,-97.5 424.5,-97.5 424.5,-67.5 297.5,-67.5"/>
<text text-anchor="start" x="305.5" y="-85.5" font-family="Helvetica,sans-Serif" font-size="10.00" fill="#000000">include/lug/Graphics</text>
<text text-anchor="middle" x="361" y="-74.5" font-family="Helvetica,sans-Serif" font-size="10.00" fill="#000000">/Vulkan/Renderer.hpp</text>
</a>
</g>
</g>
<!-- Node2&#45;&gt;Node3 -->
<g id="edge2" class="edge">
<title>Node2&#45;&gt;Node3</title>
<path fill="none" stroke="#191970" d="M468.0445,-130.3132C444.7911,-119.9267 416.4763,-107.2794 394.8097,-97.6017"/>
<polygon fill="#191970" stroke="#191970" points="466.7791,-133.5812 477.3371,-134.4639 469.6339,-127.1898 466.7791,-133.5812"/>
</g>
<!-- Node8 -->
<g id="node8" class="node">
<title>Node8</title>
<g id="a_node8"><a xlink:href="Instance_8cpp.html" target="_top" xlink:title="src/lug/Graphics/Vulkan\l/API/Instance.cpp">
<polygon fill="none" stroke="#000000" points="442.5,-67.5 442.5,-97.5 579.5,-97.5 579.5,-67.5 442.5,-67.5"/>
<text text-anchor="start" x="450.5" y="-85.5" font-family="Helvetica,sans-Serif" font-size="10.00" fill="#000000">src/lug/Graphics/Vulkan</text>
<text text-anchor="middle" x="511" y="-74.5" font-family="Helvetica,sans-Serif" font-size="10.00" fill="#000000">/API/Instance.cpp</text>
</a>
</g>
</g>
<!-- Node2&#45;&gt;Node8 -->
<g id="edge7" class="edge">
<title>Node2&#45;&gt;Node8</title>
<path fill="none" stroke="#191970" d="M511,-124.0249C511,-115.128 511,-105.4287 511,-97.6432"/>
<polygon fill="#191970" stroke="#191970" points="507.5001,-124.2966 511,-134.2967 514.5001,-124.2967 507.5001,-124.2966"/>
</g>
<!-- Node9 -->
<g id="node9" class="node">
<title>Node9</title>
<g id="a_node9"><a xlink:href="Loader_8cpp.html" target="_top" xlink:title="src/lug/Graphics/Vulkan\l/API/Loader.cpp">
<polygon fill="none" stroke="#000000" points="597.5,-67.5 597.5,-97.5 734.5,-97.5 734.5,-67.5 597.5,-67.5"/>
<text text-anchor="start" x="605.5" y="-85.5" font-family="Helvetica,sans-Serif" font-size="10.00" fill="#000000">src/lug/Graphics/Vulkan</text>
<text text-anchor="middle" x="666" y="-74.5" font-family="Helvetica,sans-Serif" font-size="10.00" fill="#000000">/API/Loader.cpp</text>
</a>
</g>
</g>
<!-- Node2&#45;&gt;Node9 -->
<g id="edge8" class="edge">
<title>Node2&#45;&gt;Node9</title>
<path fill="none" stroke="#191970" d="M555.0672,-130.4516C579.1556,-120.0392 608.575,-107.3224 631.0633,-97.6017"/>
<polygon fill="#191970" stroke="#191970" points="553.5754,-127.2834 545.785,-134.4639 556.3529,-133.7088 553.5754,-127.2834"/>
</g>
<!-- Node4 -->
<g id="node4" class="node">
<title>Node4</title>
<g id="a_node4"><a xlink:href="Graphics_8cpp.html" target="_top" xlink:title="src/lug/Graphics/Graphics.cpp">
<polygon fill="none" stroke="#000000" points="0,-6 0,-25 168,-25 168,-6 0,-6"/>
<text text-anchor="middle" x="84" y="-13" font-family="Helvetica,sans-Serif" font-size="10.00" fill="#000000">src/lug/Graphics/Graphics.cpp</text>
</a>
</g>
</g>
<!-- Node3&#45;&gt;Node4 -->
<g id="edge3" class="edge">
<title>Node3&#45;&gt;Node4</title>
<path fill="none" stroke="#191970" d="M288.8381,-65.0457C235.9813,-52.2608 166.2478,-35.3939 123.298,-25.0053"/>
<polygon fill="#191970" stroke="#191970" points="288.2932,-68.5147 298.8358,-67.4639 289.9389,-61.7109 288.2932,-68.5147"/>
</g>
<!-- Node5 -->
<g id="node5" class="node">
<title>Node5</title>
<g id="a_node5"><a xlink:href="Forward_8cpp.html" target="_top" xlink:title="src/lug/Graphics/Vulkan\l/Render/Technique/Forward.cpp">
<polygon fill="none" stroke="#000000" points="185.5,-.5 185.5,-30.5 362.5,-30.5 362.5,-.5 185.5,-.5"/>
<text text-anchor="start" x="193.5" y="-18.5" font-family="Helvetica,sans-Serif" font-size="10.00" fill="#000000">src/lug/Graphics/Vulkan</text>
<text text-anchor="middle" x="274" y="-7.5" font-family="Helvetica,sans-Serif" font-size="10.00" fill="#000000">/Render/Technique/Forward.cpp</text>
</a>
</g>
</g>
<!-- Node3&#45;&gt;Node5 -->
<g id="edge4" class="edge">
<title>Node3&#45;&gt;Node5</title>
<path fill="none" stroke="#191970" d="M333.1656,-61.0643C320.3018,-51.1577 305.3285,-39.6265 293.6635,-30.6432"/>
<polygon fill="#191970" stroke="#191970" points="331.1999,-63.9681 341.2584,-67.2967 335.471,-58.4221 331.1999,-63.9681"/>
</g>
<!-- Node6 -->
<g id="node6" class="node">
<title>Node6</title>
<g id="a_node6"><a xlink:href="Graphics_2Vulkan_2Render_2Window_8cpp.html" target="_top" xlink:title="src/lug/Graphics/Vulkan\l/Render/Window.cpp">
<polygon fill="none" stroke="#000000" points="380.5,-.5 380.5,-30.5 517.5,-30.5 517.5,-.5 380.5,-.5"/>
<text text-anchor="start" x="388.5" y="-18.5" font-family="Helvetica,sans-Serif" font-size="10.00" fill="#000000">src/lug/Graphics/Vulkan</text>
<text text-anchor="middle" x="449" y="-7.5" font-family="Helvetica,sans-Serif" font-size="10.00" fill="#000000">/Render/Window.cpp</text>
</a>
</g>
</g>
<!-- Node3&#45;&gt;Node6 -->
<g id="edge5" class="edge">
<title>Node3&#45;&gt;Node6</title>
<path fill="none" stroke="#191970" d="M389.1543,-61.0643C402.166,-51.1577 417.3114,-39.6265 429.1105,-30.6432"/>
<polygon fill="#191970" stroke="#191970" points="386.8048,-58.4542 380.9686,-67.2967 391.0452,-64.0237 386.8048,-58.4542"/>
</g>
<!-- Node7 -->
<g id="node7" class="node">
<title>Node7</title>
<g id="a_node7"><a xlink:href="Vulkan_2Renderer_8cpp.html" target="_top" xlink:title="src/lug/Graphics/Vulkan\l/Renderer.cpp">
<polygon fill="none" stroke="#000000" points="535.5,-.5 535.5,-30.5 672.5,-30.5 672.5,-.5 535.5,-.5"/>
<text text-anchor="start" x="543.5" y="-18.5" font-family="Helvetica,sans-Serif" font-size="10.00" fill="#000000">src/lug/Graphics/Vulkan</text>
<text text-anchor="middle" x="604" y="-7.5" font-family="Helvetica,sans-Serif" font-size="10.00" fill="#000000">/Renderer.cpp</text>
</a>
</g>
</g>
<!-- Node3&#45;&gt;Node7 -->
<g id="edge6" class="edge">
<title>Node3&#45;&gt;Node7</title>
<path fill="none" stroke="#191970" d="M425.6154,-64.6842C464.1598,-54.0568 512.5684,-40.7095 549.2282,-30.6017"/>
<polygon fill="#191970" stroke="#191970" points="424.2439,-61.4317 415.5339,-67.4639 426.1046,-68.1799 424.2439,-61.4317"/>
</g>
</g>
</svg>
