<?xml version="1.0" encoding="UTF-8" standalone="no"?>
<!DOCTYPE svg PUBLIC "-//W3C//DTD SVG 1.1//EN"
 "http://www.w3.org/Graphics/SVG/1.1/DTD/svg11.dtd">
<!-- Generated by graphviz version 2.40.1 (20161225.0304)
 -->
<!-- Title: include/lug/Graphics/Light/Light.inl Pages: 1 -->
<!--zoomable 374 -->
<svg id="main" version="1.1" xmlns="http://www.w3.org/2000/svg" xmlns:xlink="http://www.w3.org/1999/xlink" xml:space="preserve" onload="init(evt)">
<style type="text/css"><![CDATA[
.edge:hover path { stroke: red; }
.edge:hover polygon { stroke: red; fill: red; }
]]></style>
<script type="text/javascript"><![CDATA[
var edges = document.getElementsByTagName('g');
if (edges && edges.length) {
  for (var i=0;i<edges.length;i++) {
    if (edges[i].id.substr(0,4)=='edge') {
      edges[i].setAttribute('class','edge');
    }
  }
}
]]></script>
        <defs>
                <circle id="rim" cx="0" cy="0" r="7"/>
                <circle id="rim2" cx="0" cy="0" r="3.5"/>
                <g id="zoomPlus">
                        <use xlink:href="#rim" fill="#404040">
                                <set attributeName="fill" to="#808080" begin="zoomplus.mouseover" end="zoomplus.mouseout"/>
                        </use>
                        <path d="M-4,0h8M0,-4v8" fill="none" stroke="white" stroke-width="1.5" pointer-events="none"/>
                </g>
                <g id="zoomMin">
                        <use xlink:href="#rim" fill="#404040">
                                <set attributeName="fill" to="#808080" begin="zoomminus.mouseover" end="zoomminus.mouseout"/>
                        </use>
                        <path d="M-4,0h8" fill="none" stroke="white" stroke-width="1.5" pointer-events="none"/>
                </g>
                <g id="dirArrow">
                        <path fill="none" stroke="white" stroke-width="1.5" d="M0,-3.0v7 M-2.5,-0.5L0,-3.0L2.5,-0.5"/>
                </g>
               <g id="resetDef">
                       <use xlink:href="#rim2" fill="#404040">
                               <set attributeName="fill" to="#808080" begin="reset.mouseover" end="reset.mouseout"/>
                       </use>
               </g>
        </defs>

<script type="text/javascript">
var viewWidth = 1377;
var viewHeight = 374;
var sectionId = 'dynsection-0';
</script>
<script xlink:href="svgpan.js"/>
<svg id="graph" class="graph">
<g id="viewport">
<title>include/lug/Graphics/Light/Light.inl</title>
<!-- Node1 -->
<g id="node1" class="node">
<title>Node1</title>
<polygon fill="#bfbfbf" stroke="#000000" points="750.5,-335.5 750.5,-365.5 869.5,-365.5 869.5,-335.5 750.5,-335.5"/>
<text text-anchor="start" x="758.5" y="-353.5" font-family="Helvetica,sans-Serif" font-size="10.00" fill="#000000">include/lug/Graphics</text>
<text text-anchor="middle" x="810" y="-342.5" font-family="Helvetica,sans-Serif" font-size="10.00" fill="#000000">/Light/Light.inl</text>
</g>
<!-- Node2 -->
<g id="node2" class="node">
<title>Node2</title>
<g id="a_node2"><a xlink:href="Light_8hpp.html" target="_top" xlink:title="include/lug/Graphics\l/Light/Light.hpp">
<polygon fill="none" stroke="#000000" points="750.5,-268.5 750.5,-298.5 869.5,-298.5 869.5,-268.5 750.5,-268.5"/>
<text text-anchor="start" x="758.5" y="-286.5" font-family="Helvetica,sans-Serif" font-size="10.00" fill="#000000">include/lug/Graphics</text>
<text text-anchor="middle" x="810" y="-275.5" font-family="Helvetica,sans-Serif" font-size="10.00" fill="#000000">/Light/Light.hpp</text>
</a>
</g>
</g>
<!-- Node1&#45;&gt;Node2 -->
<g id="edge1" class="edge">
<title>Node1&#45;&gt;Node2</title>
<path fill="none" stroke="#191970" d="M810,-325.0249C810,-316.128 810,-306.4287 810,-298.6432"/>
<polygon fill="#191970" stroke="#191970" points="806.5001,-325.2966 810,-335.2967 813.5001,-325.2967 806.5001,-325.2966"/>
</g>
<!-- Node3 -->
<g id="node3" class="node">
<title>Node3</title>
<g id="a_node3"><a xlink:href="Directional_8hpp.html" target="_top" xlink:title="include/lug/Graphics\l/Light/Directional.hpp">
<polygon fill="none" stroke="#000000" points="318.5,-196 318.5,-226 443.5,-226 443.5,-196 318.5,-196"/>
<text text-anchor="start" x="326.5" y="-214" font-family="Helvetica,sans-Serif" font-size="10.00" fill="#000000">include/lug/Graphics</text>
<text text-anchor="middle" x="381" y="-203" font-family="Helvetica,sans-Serif" font-size="10.00" fill="#000000">/Light/Directional.hpp</text>
</a>
</g>
</g>
<!-- Node2&#45;&gt;Node3 -->
<g id="edge2" class="edge">
<title>Node2&#45;&gt;Node3</title>
<path fill="none" stroke="#191970" d="M740.292,-274.6923C652.1601,-263.3441 505.4756,-243.6904 452,-232 444.3398,-230.3254 436.2989,-228.2565 428.4937,-226.0763"/>
<polygon fill="#191970" stroke="#191970" points="740.1113,-278.1977 750.4757,-276.0001 741.003,-271.2547 740.1113,-278.1977"/>
</g>
<!-- Node7 -->
<g id="node7" class="node">
<title>Node7</title>
<g id="a_node7"><a xlink:href="Point_8hpp.html" target="_top" xlink:title="include/lug/Graphics\l/Light/Point.hpp">
<polygon fill="none" stroke="#000000" points="598.5,-196 598.5,-226 717.5,-226 717.5,-196 598.5,-196"/>
<text text-anchor="start" x="606.5" y="-214" font-family="Helvetica,sans-Serif" font-size="10.00" fill="#000000">include/lug/Graphics</text>
<text text-anchor="middle" x="658" y="-203" font-family="Helvetica,sans-Serif" font-size="10.00" fill="#000000">/Light/Point.hpp</text>
</a>
</g>
</g>
<!-- Node2&#45;&gt;Node7 -->
<g id="edge6" class="edge">
<title>Node2&#45;&gt;Node7</title>
<path fill="none" stroke="#191970" d="M769.2556,-264.066C744.1997,-252.115 712.5761,-237.0313 689.4542,-226.0028"/>
<polygon fill="#191970" stroke="#191970" points="767.9728,-267.3319 778.5055,-268.478 770.9864,-261.0137 767.9728,-267.3319"/>
</g>
<!-- Node9 -->
<g id="node9" class="node">
<title>Node9</title>
<g id="a_node9"><a xlink:href="Spot_8hpp.html" target="_top" xlink:title="include/lug/Graphics\l/Light/Spot.hpp">
<polygon fill="none" stroke="#000000" points="461.5,-196 461.5,-226 580.5,-226 580.5,-196 461.5,-196"/>
<text text-anchor="start" x="469.5" y="-214" font-family="Helvetica,sans-Serif" font-size="10.00" fill="#000000">include/lug/Graphics</text>
<text text-anchor="middle" x="521" y="-203" font-family="Helvetica,sans-Serif" font-size="10.00" fill="#000000">/Light/Spot.hpp</text>
</a>
</g>
</g>
<!-- Node2&#45;&gt;Node9 -->
<g id="edge10" class="edge">
<title>Node2&#45;&gt;Node9</title>
<path fill="none" stroke="#191970" d="M740.2105,-268.5607C696.5614,-258.8903 639.2747,-245.6026 589,-232 582.2017,-230.1606 575.0596,-228.0992 568.0639,-226.0059"/>
<polygon fill="#191970" stroke="#191970" points="739.6334,-272.0175 750.1525,-270.7531 741.1409,-265.1817 739.6334,-272.0175"/>
</g>
<!-- Node11 -->
<g id="node11" class="node">
<title>Node11</title>
<g id="a_node11"><a xlink:href="Scene_8hpp.html" target="_top" xlink:title="include/lug/Graphics\l/Scene/Scene.hpp">
<polygon fill="none" stroke="#000000" points="902.5,-196 902.5,-226 1021.5,-226 1021.5,-196 902.5,-196"/>
<text text-anchor="start" x="910.5" y="-214" font-family="Helvetica,sans-Serif" font-size="10.00" fill="#000000">include/lug/Graphics</text>
<text text-anchor="middle" x="962" y="-203" font-family="Helvetica,sans-Serif" font-size="10.00" fill="#000000">/Scene/Scene.hpp</text>
</a>
</g>
</g>
<!-- Node2&#45;&gt;Node11 -->
<g id="edge14" class="edge">
<title>Node2&#45;&gt;Node11</title>
<path fill="none" stroke="#191970" d="M850.7444,-264.066C875.8003,-252.115 907.4239,-237.0313 930.5458,-226.0028"/>
<polygon fill="#191970" stroke="#191970" points="849.0136,-261.0137 841.4945,-268.478 852.0272,-267.3319 849.0136,-261.0137"/>
</g>
<!-- Node19 -->
<g id="node19" class="node">
<title>Node19</title>
<g id="a_node19"><a xlink:href="Forward_8hpp.html" target="_top" xlink:title="include/lug/Graphics\l/Vulkan/Render/Technique\l/Forward.hpp">
<polygon fill="none" stroke="#000000" points="735.5,-190.5 735.5,-231.5 884.5,-231.5 884.5,-190.5 735.5,-190.5"/>
<text text-anchor="start" x="743.5" y="-219.5" font-family="Helvetica,sans-Serif" font-size="10.00" fill="#000000">include/lug/Graphics</text>
<text text-anchor="start" x="743.5" y="-208.5" font-family="Helvetica,sans-Serif" font-size="10.00" fill="#000000">/Vulkan/Render/Technique</text>
<text text-anchor="middle" x="810" y="-197.5" font-family="Helvetica,sans-Serif" font-size="10.00" fill="#000000">/Forward.hpp</text>
</a>
</g>
</g>
<!-- Node2&#45;&gt;Node19 -->
<g id="edge23" class="edge">
<title>Node2&#45;&gt;Node19</title>
<path fill="none" stroke="#191970" d="M810,-258.4016C810,-249.6173 810,-239.8652 810,-231.5015"/>
<polygon fill="#191970" stroke="#191970" points="806.5001,-258.4779 810,-268.478 813.5001,-258.478 806.5001,-258.4779"/>
</g>
<!-- Node21 -->
<g id="node21" class="node">
<title>Node21</title>
<g id="a_node21"><a xlink:href="Light_8cpp.html" target="_top" xlink:title="src/lug/Graphics/Light\l/Light.cpp">
<polygon fill="none" stroke="#000000" points="1040,-196 1040,-226 1168,-226 1168,-196 1040,-196"/>
<text text-anchor="start" x="1048" y="-214" font-family="Helvetica,sans-Serif" font-size="10.00" fill="#000000">src/lug/Graphics/Light</text>
<text text-anchor="middle" x="1104" y="-203" font-family="Helvetica,sans-Serif" font-size="10.00" fill="#000000">/Light.cpp</text>
</a>
</g>
</g>
<!-- Node2&#45;&gt;Node21 -->
<g id="edge26" class="edge">
<title>Node2&#45;&gt;Node21</title>
<path fill="none" stroke="#191970" d="M879.6985,-268.2177C923.3131,-258.4174 980.5955,-245.1137 1031,-232 1038.1471,-230.1405 1045.6605,-228.0897 1053.038,-226.0202"/>
<polygon fill="#191970" stroke="#191970" points="878.7584,-264.8415 869.765,-270.4423 880.2882,-271.6723 878.7584,-264.8415"/>
</g>
<!-- Node22 -->
<g id="node22" class="node">
<title>Node22</title>
<g id="a_node22"><a xlink:href="Render_2Queue_8cpp.html" target="_top" xlink:title="src/lug/Graphics/Render\l/Queue.cpp">
<polygon fill="none" stroke="#000000" points="1186.5,-196 1186.5,-226 1325.5,-226 1325.5,-196 1186.5,-196"/>
<text text-anchor="start" x="1194.5" y="-214" font-family="Helvetica,sans-Serif" font-size="10.00" fill="#000000">src/lug/Graphics/Render</text>
<text text-anchor="middle" x="1256" y="-203" font-family="Helvetica,sans-Serif" font-size="10.00" fill="#000000">/Queue.cpp</text>
</a>
</g>
</g>
<!-- Node2&#45;&gt;Node22 -->
<g id="edge27" class="edge">
<title>Node2&#45;&gt;Node22</title>
<path fill="none" stroke="#191970" d="M879.9588,-276.2208C954.1193,-267.9138 1074.46,-252.7448 1177,-232 1185.485,-230.2834 1194.4118,-228.1925 1203.0881,-226.0032"/>
<polygon fill="#191970" stroke="#191970" points="879.3605,-272.7656 869.8076,-277.3473 880.1326,-279.7229 879.3605,-272.7656"/>
</g>
<!-- Node4 -->
<g id="node4" class="node">
<title>Node4</title>
<g id="a_node4"><a xlink:href="Directional_8cpp.html" target="_top" xlink:title="src/lug/Graphics/Light\l/Directional.cpp">
<polygon fill="none" stroke="#000000" points="0,-123.5 0,-153.5 128,-153.5 128,-123.5 0,-123.5"/>
<text text-anchor="start" x="8" y="-141.5" font-family="Helvetica,sans-Serif" font-size="10.00" fill="#000000">src/lug/Graphics/Light</text>
<text text-anchor="middle" x="64" y="-130.5" font-family="Helvetica,sans-Serif" font-size="10.00" fill="#000000">/Directional.cpp</text>
</a>
</g>
</g>
<!-- Node3&#45;&gt;Node4 -->
<g id="edge3" class="edge">
<title>Node3&#45;&gt;Node4</title>
<path fill="none" stroke="#191970" d="M308.4527,-194.4079C254.0774,-181.972 180.3543,-165.111 128.1288,-153.1667"/>
<polygon fill="#191970" stroke="#191970" points="307.8423,-197.8587 318.371,-196.6763 309.4031,-191.0349 307.8423,-197.8587"/>
</g>
<!-- Node5 -->
<g id="node5" class="node">
<title>Node5</title>
<g id="a_node5"><a xlink:href="Scene_8cpp.html" target="_top" xlink:title="src/lug/Graphics/Scene\l/Scene.cpp">
<polygon fill="none" stroke="#000000" points="488,-123.5 488,-153.5 622,-153.5 622,-123.5 488,-123.5"/>
<text text-anchor="start" x="496" y="-141.5" font-family="Helvetica,sans-Serif" font-size="10.00" fill="#000000">src/lug/Graphics/Scene</text>
<text text-anchor="middle" x="555" y="-130.5" font-family="Helvetica,sans-Serif" font-size="10.00" fill="#000000">/Scene.cpp</text>
</a>
</g>
</g>
<!-- Node3&#45;&gt;Node5 -->
<g id="edge4" class="edge">
<title>Node3&#45;&gt;Node5</title>
<path fill="none" stroke="#191970" d="M426.5084,-192.0382C455.3654,-180.0144 492.175,-164.6771 518.9933,-153.5028"/>
<polygon fill="#191970" stroke="#191970" points="424.9375,-188.901 417.0529,-195.978 427.6299,-195.3625 424.9375,-188.901"/>
</g>
<!-- Node6 -->
<g id="node6" class="node">
<title>Node6</title>
<g id="a_node6"><a xlink:href="Forward_8cpp.html" target="_top" xlink:title="src/lug/Graphics/Vulkan\l/Render/Technique/Forward.cpp">
<polygon fill="none" stroke="#000000" points="292.5,-123.5 292.5,-153.5 469.5,-153.5 469.5,-123.5 292.5,-123.5"/>
<text text-anchor="start" x="300.5" y="-141.5" font-family="Helvetica,sans-Serif" font-size="10.00" fill="#000000">src/lug/Graphics/Vulkan</text>
<text text-anchor="middle" x="381" y="-130.5" font-family="Helvetica,sans-Serif" font-size="10.00" fill="#000000">/Render/Technique/Forward.cpp</text>
</a>
</g>
</g>
<!-- Node3&#45;&gt;Node6 -->
<g id="edge5" class="edge">
<title>Node3&#45;&gt;Node6</title>
<path fill="none" stroke="#191970" d="M381,-185.8409C381,-175.0601 381,-162.8309 381,-153.5028"/>
<polygon fill="#191970" stroke="#191970" points="377.5001,-185.9779 381,-195.978 384.5001,-185.978 377.5001,-185.9779"/>
</g>
<!-- Node7&#45;&gt;Node5 -->
<g id="edge8" class="edge">
<title>Node7&#45;&gt;Node5</title>
<path fill="none" stroke="#191970" d="M628.3505,-190.1302C611.7215,-178.4253 591.3613,-164.0941 576.3143,-153.5028"/>
<polygon fill="#191970" stroke="#191970" points="626.4664,-193.0841 636.6583,-195.978 630.4955,-187.3599 626.4664,-193.0841"/>
</g>
<!-- Node7&#45;&gt;Node6 -->
<g id="edge9" class="edge">
<title>Node7&#45;&gt;Node6</title>
<path fill="none" stroke="#191970" d="M599.9939,-193.1055C596.2795,-192.0341 592.5912,-190.9903 589,-190 541.1231,-176.7972 486.6155,-163.3593 445.4128,-153.5219"/>
<polygon fill="#191970" stroke="#191970" points="599.2577,-196.5368 609.8384,-195.9883 601.2251,-189.8189 599.2577,-196.5368"/>
</g>
<!-- Node8 -->
<g id="node8" class="node">
<title>Node8</title>
<g id="a_node8"><a xlink:href="Point_8cpp.html" target="_top" xlink:title="src/lug/Graphics/Light\l/Point.cpp">
<polygon fill="none" stroke="#000000" points="640,-123.5 640,-153.5 768,-153.5 768,-123.5 640,-123.5"/>
<text text-anchor="start" x="648" y="-141.5" font-family="Helvetica,sans-Serif" font-size="10.00" fill="#000000">src/lug/Graphics/Light</text>
<text text-anchor="middle" x="704" y="-130.5" font-family="Helvetica,sans-Serif" font-size="10.00" fill="#000000">/Point.cpp</text>
</a>
</g>
</g>
<!-- Node7&#45;&gt;Node8 -->
<g id="edge7" class="edge">
<title>Node7&#45;&gt;Node8</title>
<path fill="none" stroke="#191970" d="M672.9021,-187.513C679.99,-176.3418 688.2542,-163.3167 694.481,-153.5028"/>
<polygon fill="#191970" stroke="#191970" points="669.9334,-185.659 667.5312,-195.978 675.8441,-189.4093 669.9334,-185.659"/>
</g>
<!-- Node9&#45;&gt;Node5 -->
<g id="edge12" class="edge">
<title>Node9&#45;&gt;Node5</title>
<path fill="none" stroke="#191970" d="M532.3268,-186.8473C537.4948,-175.8272 543.4529,-163.1224 547.9642,-153.5028"/>
<polygon fill="#191970" stroke="#191970" points="529.122,-185.438 528.0448,-195.978 535.4597,-188.4102 529.122,-185.438"/>
</g>
<!-- Node9&#45;&gt;Node6 -->
<g id="edge13" class="edge">
<title>Node9&#45;&gt;Node6</title>
<path fill="none" stroke="#191970" d="M482.8609,-191.2494C459.8818,-179.3495 431.0798,-164.4342 409.9709,-153.5028"/>
<polygon fill="#191970" stroke="#191970" points="481.5024,-194.4873 491.9919,-195.978 484.7215,-188.2714 481.5024,-194.4873"/>
</g>
<!-- Node10 -->
<g id="node10" class="node">
<title>Node10</title>
<g id="a_node10"><a xlink:href="Spot_8cpp.html" target="_top" xlink:title="src/lug/Graphics/Light\l/Spot.cpp">
<polygon fill="none" stroke="#000000" points="146,-123.5 146,-153.5 274,-153.5 274,-123.5 146,-123.5"/>
<text text-anchor="start" x="154" y="-141.5" font-family="Helvetica,sans-Serif" font-size="10.00" fill="#000000">src/lug/Graphics/Light</text>
<text text-anchor="middle" x="210" y="-130.5" font-family="Helvetica,sans-Serif" font-size="10.00" fill="#000000">/Spot.cpp</text>
</a>
</g>
</g>
<!-- Node9&#45;&gt;Node10 -->
<g id="edge11" class="edge">
<title>Node9&#45;&gt;Node10</title>
<path fill="none" stroke="#191970" d="M463.5651,-193.1151C459.6615,-192.0246 455.7794,-190.9754 452,-190 449.8034,-189.4331 345.0419,-167.1707 274.0905,-152.1046"/>
<polygon fill="#191970" stroke="#191970" points="462.6898,-196.5051 473.267,-195.8928 464.6166,-189.7755 462.6898,-196.5051"/>
</g>
<!-- Node11&#45;&gt;Node5 -->
<g id="edge21" class="edge">
<title>Node11&#45;&gt;Node5</title>
<path fill="none" stroke="#191970" d="M906.406,-193.254C901.8929,-192.0662 897.384,-190.9619 893,-190 778.1926,-164.8092 746.8666,-173.7544 631,-154 628.0796,-153.5021 625.0999,-152.9753 622.0926,-152.4282"/>
<polygon fill="#191970" stroke="#191970" points="905.6751,-196.683 916.2456,-195.9652 907.5346,-189.9345 905.6751,-196.683"/>
</g>
<!-- Node12 -->
<g id="node12" class="node">
<title>Node12</title>
<g id="a_node12"><a xlink:href="Graphics_8hpp.html" target="_top" xlink:title="include/lug/Graphics\l/Graphics.hpp">
<polygon fill="none" stroke="#000000" points="941.5,-123.5 941.5,-153.5 1060.5,-153.5 1060.5,-123.5 941.5,-123.5"/>
<text text-anchor="start" x="949.5" y="-141.5" font-family="Helvetica,sans-Serif" font-size="10.00" fill="#000000">include/lug/Graphics</text>
<text text-anchor="middle" x="1001" y="-130.5" font-family="Helvetica,sans-Serif" font-size="10.00" fill="#000000">/Graphics.hpp</text>
</a>
</g>
</g>
<!-- Node11&#45;&gt;Node12 -->
<g id="edge15" class="edge">
<title>Node11&#45;&gt;Node12</title>
<path fill="none" stroke="#191970" d="M974.9925,-186.8473C980.9205,-175.8272 987.7548,-163.1224 992.9295,-153.5028"/>
<polygon fill="#191970" stroke="#191970" points="971.7359,-185.5132 970.0808,-195.978 977.9006,-188.8294 971.7359,-185.5132"/>
</g>
<!-- Node17 -->
<g id="node17" class="node">
<title>Node17</title>
<g id="a_node17"><a xlink:href="Scene_2Node_8cpp.html" target="_top" xlink:title="src/lug/Graphics/Scene\l/Node.cpp">
<polygon fill="none" stroke="#000000" points="1079,-123.5 1079,-153.5 1213,-153.5 1213,-123.5 1079,-123.5"/>
<text text-anchor="start" x="1087" y="-141.5" font-family="Helvetica,sans-Serif" font-size="10.00" fill="#000000">src/lug/Graphics/Scene</text>
<text text-anchor="middle" x="1146" y="-130.5" font-family="Helvetica,sans-Serif" font-size="10.00" fill="#000000">/Node.cpp</text>
</a>
</g>
</g>
<!-- Node11&#45;&gt;Node17 -->
<g id="edge20" class="edge">
<title>Node11&#45;&gt;Node17</title>
<path fill="none" stroke="#191970" d="M1009.7263,-192.1948C1040.3006,-180.1478 1079.441,-164.7257 1107.9239,-153.5028"/>
<polygon fill="#191970" stroke="#191970" points="1008.1457,-189.0556 1000.1249,-195.978 1010.7118,-195.5683 1008.1457,-189.0556"/>
</g>
<!-- Node18 -->
<g id="node18" class="node">
<title>Node18</title>
<g id="a_node18"><a xlink:href="Vulkan_2Render_2Camera_8cpp.html" target="_top" xlink:title="src/lug/Graphics/Vulkan\l/Render/Camera.cpp">
<polygon fill="none" stroke="#000000" points="1231.5,-123.5 1231.5,-153.5 1368.5,-153.5 1368.5,-123.5 1231.5,-123.5"/>
<text text-anchor="start" x="1239.5" y="-141.5" font-family="Helvetica,sans-Serif" font-size="10.00" fill="#000000">src/lug/Graphics/Vulkan</text>
<text text-anchor="middle" x="1300" y="-130.5" font-family="Helvetica,sans-Serif" font-size="10.00" fill="#000000">/Render/Camera.cpp</text>
</a>
</g>
</g>
<!-- Node11&#45;&gt;Node18 -->
<g id="edge22" class="edge">
<title>Node11&#45;&gt;Node18</title>
<path fill="none" stroke="#191970" d="M1018.6504,-193.2201C1022.8154,-192.0785 1026.9643,-190.9913 1031,-190 1114.8898,-169.3935 1137.1911,-170.4186 1222,-154 1224.9821,-153.4227 1228.0276,-152.8301 1231.1037,-152.2292"/>
<polygon fill="#191970" stroke="#191970" points="1017.6192,-189.8744 1008.9486,-195.963 1019.5236,-196.6104 1017.6192,-189.8744"/>
</g>
<!-- Node13 -->
<g id="node13" class="node">
<title>Node13</title>
<g id="a_node13"><a xlink:href="Application_8hpp.html" target="_top" xlink:title="include/lug/Core/Application.hpp">
<polygon fill="none" stroke="#000000" points="719,-62 719,-81 899,-81 899,-62 719,-62"/>
<text text-anchor="middle" x="809" y="-69" font-family="Helvetica,sans-Serif" font-size="10.00" fill="#000000">include/lug/Core/Application.hpp</text>
</a>
</g>
</g>
<!-- Node12&#45;&gt;Node13 -->
<g id="edge16" class="edge">
<title>Node12&#45;&gt;Node13</title>
<path fill="none" stroke="#191970" d="M948.4501,-120.1623C912.1434,-107.4928 865.3285,-91.1563 836.239,-81.0053"/>
<polygon fill="#191970" stroke="#191970" points="947.3166,-123.4737 957.9115,-123.4639 949.623,-116.8645 947.3166,-123.4737"/>
</g>
<!-- Node15 -->
<g id="node15" class="node">
<title>Node15</title>
<g id="a_node15"><a xlink:href="Graphics_8cpp.html" target="_top" xlink:title="src/lug/Graphics/Graphics.cpp">
<polygon fill="none" stroke="#000000" points="917,-62 917,-81 1085,-81 1085,-62 917,-62"/>
<text text-anchor="middle" x="1001" y="-69" font-family="Helvetica,sans-Serif" font-size="10.00" fill="#000000">src/lug/Graphics/Graphics.cpp</text>
</a>
</g>
</g>
<!-- Node12&#45;&gt;Node15 -->
<g id="edge18" class="edge">
<title>Node12&#45;&gt;Node15</title>
<path fill="none" stroke="#191970" d="M1001,-113.1199C1001,-101.9072 1001,-89.4031 1001,-81.055"/>
<polygon fill="#191970" stroke="#191970" points="997.5001,-113.2966 1001,-123.2967 1004.5001,-113.2967 997.5001,-113.2966"/>
</g>
<!-- Node16 -->
<g id="node16" class="node">
<title>Node16</title>
<g id="a_node16"><a xlink:href="Vulkan_2Renderer_8cpp.html" target="_top" xlink:title="src/lug/Graphics/Vulkan\l/Renderer.cpp">
<polygon fill="none" stroke="#000000" points="1103.5,-56.5 1103.5,-86.5 1240.5,-86.5 1240.5,-56.5 1103.5,-56.5"/>
<text text-anchor="start" x="1111.5" y="-74.5" font-family="Helvetica,sans-Serif" font-size="10.00" fill="#000000">src/lug/Graphics/Vulkan</text>
<text text-anchor="middle" x="1172" y="-63.5" font-family="Helvetica,sans-Serif" font-size="10.00" fill="#000000">/Renderer.cpp</text>
</a>
</g>
</g>
<!-- Node12&#45;&gt;Node16 -->
<g id="edge19" class="edge">
<title>Node12&#45;&gt;Node16</title>
<path fill="none" stroke="#191970" d="M1048.912,-119.7275C1075.616,-109.2645 1108.4277,-96.4084 1133.4569,-86.6017"/>
<polygon fill="#191970" stroke="#191970" points="1047.4097,-116.5569 1039.3757,-123.4639 1049.9634,-123.0745 1047.4097,-116.5569"/>
</g>
<!-- Node14 -->
<g id="node14" class="node">
<title>Node14</title>
<g id="a_node14"><a xlink:href="Application_8cpp.html" target="_top" xlink:title="src/lug/Core/Application.cpp">
<polygon fill="none" stroke="#000000" points="729.5,-.5 729.5,-19.5 888.5,-19.5 888.5,-.5 729.5,-.5"/>
<text text-anchor="middle" x="809" y="-7.5" font-family="Helvetica,sans-Serif" font-size="10.00" fill="#000000">src/lug/Core/Application.cpp</text>
</a>
</g>
</g>
<!-- Node13&#45;&gt;Node14 -->
<g id="edge17" class="edge">
<title>Node13&#45;&gt;Node14</title>
<path fill="none" stroke="#191970" d="M809,-51.7462C809,-41.0519 809,-28.314 809,-19.7449"/>
<polygon fill="#191970" stroke="#191970" points="805.5001,-51.8906 809,-61.8906 812.5001,-51.8907 805.5001,-51.8906"/>
</g>
<!-- Node19&#45;&gt;Node6 -->
<g id="edge24" class="edge">
<title>Node19&#45;&gt;Node6</title>
<path fill="none" stroke="#191970" d="M725.596,-190.0161C615.4833,-168.6263 585.5726,-170.1937 479,-154 475.9346,-153.5342 472.8158,-153.0573 469.6662,-152.5731"/>
<polygon fill="#191970" stroke="#191970" points="724.9455,-193.4552 735.4323,-191.9459 726.2932,-186.5861 724.9455,-193.4552"/>
</g>
<!-- Node20 -->
<g id="node20" class="node">
<title>Node20</title>
<g id="a_node20"><a xlink:href="Vulkan_2Render_2View_8cpp.html" target="_top" xlink:title="src/lug/Graphics/Vulkan\l/Render/View.cpp">
<polygon fill="none" stroke="#000000" points="786.5,-123.5 786.5,-153.5 923.5,-153.5 923.5,-123.5 786.5,-123.5"/>
<text text-anchor="start" x="794.5" y="-141.5" font-family="Helvetica,sans-Serif" font-size="10.00" fill="#000000">src/lug/Graphics/Vulkan</text>
<text text-anchor="middle" x="855" y="-130.5" font-family="Helvetica,sans-Serif" font-size="10.00" fill="#000000">/Render/View.cpp</text>
</a>
</g>
</g>
<!-- Node19&#45;&gt;Node20 -->
<g id="edge25" class="edge">
<title>Node19&#45;&gt;Node20</title>
<path fill="none" stroke="#191970" d="M828.1157,-181.8136C834.1202,-172.1397 840.5581,-161.7676 845.6281,-153.5991"/>
<polygon fill="#191970" stroke="#191970" points="825.0748,-180.0761 822.7748,-190.4183 831.0222,-183.7677 825.0748,-180.0761"/>
</g>
</g>
</svg>
        <g id="navigator" transform="translate(0 0)" fill="#404254">
                <rect fill="#f2f5e9" fill-opacity="0.5" stroke="#606060" stroke-width=".5" x="0" y="0" width="60" height="60"/>
                <use id="zoomplus" xlink:href="#zoomPlus" x="17" y="9" onmousedown="handleZoom(evt,'in')"/>
                <use id="zoomminus" xlink:href="#zoomMin" x="42" y="9" onmousedown="handleZoom(evt,'out')"/>
                <use id="reset" xlink:href="#resetDef" x="30" y="36" onmousedown="handleReset()"/>
                <g id="arrowUp" xlink:href="#dirArrow" transform="translate(30 24)" onmousedown="handlePan(0,-1)">
                  <use xlink:href="#rim" fill="#404040">
                        <set attributeName="fill" to="#808080" begin="arrowUp.mouseover" end="arrowUp.mouseout"/>
                  </use>
                  <path fill="none" stroke="white" stroke-width="1.5" d="M0,-3.0v7 M-2.5,-0.5L0,-3.0L2.5,-0.5"/>
                </g>
                <g id="arrowRight" xlink:href="#dirArrow" transform="rotate(90) translate(36 -43)" onmousedown="handlePan(1,0)">
                  <use xlink:href="#rim" fill="#404040">
                        <set attributeName="fill" to="#808080" begin="arrowRight.mouseover" end="arrowRight.mouseout"/>
                  </use>
                  <path fill="none" stroke="white" stroke-width="1.5" d="M0,-3.0v7 M-2.5,-0.5L0,-3.0L2.5,-0.5"/>
                </g>
                <g id="arrowDown" xlink:href="#dirArrow" transform="rotate(180) translate(-30 -48)" onmousedown="handlePan(0,1)">
                  <use xlink:href="#rim" fill="#404040">
                        <set attributeName="fill" to="#808080" begin="arrowDown.mouseover" end="arrowDown.mouseout"/>
                  </use>
                  <path fill="none" stroke="white" stroke-width="1.5" d="M0,-3.0v7 M-2.5,-0.5L0,-3.0L2.5,-0.5"/>
                </g>
                <g id="arrowLeft" xlink:href="#dirArrow" transform="rotate(270) translate(-36 17)" onmousedown="handlePan(-1,0)">
                  <use xlink:href="#rim" fill="#404040">
                        <set attributeName="fill" to="#808080" begin="arrowLeft.mouseover" end="arrowLeft.mouseout"/>
                  </use>
                  <path fill="none" stroke="white" stroke-width="1.5" d="M0,-3.0v7 M-2.5,-0.5L0,-3.0L2.5,-0.5"/>
                </g>
        </g>
        <svg viewBox="0 0 15 15" width="100%" height="30px" preserveAspectRatio="xMaxYMin meet">
         <g id="arrow_out" transform="scale(0.3 0.3)">
          <a xlink:href="Light_8inl__dep__incl_org.svg" target="_base">
           <rect id="button" ry="5" rx="5" y="6" x="6" height="38" width="38"
                fill="#f2f5e9" fill-opacity="0.5" stroke="#606060" stroke-width="1.0"/>
           <path id="arrow"
             d="M 11.500037,31.436501 C 11.940474,20.09759 22.043105,11.32322 32.158766,21.979434 L 37.068811,17.246167 C 37.068811,17.246167 37.088388,32 37.088388,32 L 22.160133,31.978069 C 22.160133,31.978069 26.997745,27.140456 26.997745,27.140456 C 18.528582,18.264221 13.291696,25.230495 11.500037,31.436501 z"
             style="fill:#404040;"/>
          </a>
         </g>
        </svg>
</svg>
