<?xml version="1.0" encoding="UTF-8" standalone="no"?>
<!DOCTYPE svg PUBLIC "-//W3C//DTD SVG 1.1//EN"
 "http://www.w3.org/Graphics/SVG/1.1/DTD/svg11.dtd">
<!-- Generated by graphviz version 2.40.1 (20161225.0304)
 -->
<!-- Title: include/lug/Graphics/Loader.hpp Pages: 1 -->
<svg width="532pt" height="207pt"
 viewBox="0.00 0.00 531.50 207.00" xmlns="http://www.w3.org/2000/svg" xmlns:xlink="http://www.w3.org/1999/xlink">
<g id="graph0" class="graph" transform="scale(1 1) rotate(0) translate(4 203)">
<title>include/lug/Graphics/Loader.hpp</title>
<!-- Node0 -->
<g id="node1" class="node">
<title>Node0</title>
<polygon fill="#bfbfbf" stroke="#000000" points="73,-168.5 73,-198.5 192,-198.5 192,-168.5 73,-168.5"/>
<text text-anchor="start" x="81" y="-186.5" font-family="Helvetica,sans-Serif" font-size="10.00" fill="#000000">include/lug/Graphics</text>
<text text-anchor="middle" x="132.5" y="-175.5" font-family="Helvetica,sans-Serif" font-size="10.00" fill="#000000">/Loader.hpp</text>
</g>
<!-- Node1 -->
<g id="node2" class="node">
<title>Node1</title>
<polygon fill="none" stroke="#bfbfbf" points="0,-56.5 0,-75.5 45,-75.5 45,-56.5 0,-56.5"/>
<text text-anchor="middle" x="22.5" y="-63.5" font-family="Helvetica,sans-Serif" font-size="10.00" fill="#000000">string</text>
</g>
<!-- Node0&#45;&gt;Node1 -->
<g id="edge1" class="edge">
<title>Node0&#45;&gt;Node1</title>
<path fill="none" stroke="#191970" d="M118.1194,-168.1389C97.5803,-146.1994 59.9658,-106.0203 38.5463,-83.1404"/>
<polygon fill="#191970" stroke="#191970" points="40.8387,-80.4677 31.4493,-75.5595 35.7285,-85.2517 40.8387,-80.4677"/>
</g>
<!-- Node2 -->
<g id="node3" class="node">
<title>Node2</title>
<g id="a_node3"><a xlink:href="Graphics_2Export_8hpp.html" target="_top" xlink:title="lug/Graphics/Export.hpp">
<polygon fill="none" stroke="#000000" points="63.5,-56.5 63.5,-75.5 201.5,-75.5 201.5,-56.5 63.5,-56.5"/>
<text text-anchor="middle" x="132.5" y="-63.5" font-family="Helvetica,sans-Serif" font-size="10.00" fill="#000000">lug/Graphics/Export.hpp</text>
</a>
</g>
</g>
<!-- Node0&#45;&gt;Node2 -->
<g id="edge2" class="edge">
<title>Node0&#45;&gt;Node2</title>
<path fill="none" stroke="#191970" d="M132.5,-168.1389C132.5,-146.9692 132.5,-108.8174 132.5,-85.6112"/>
<polygon fill="#191970" stroke="#191970" points="136.0001,-85.5594 132.5,-75.5595 129.0001,-85.5595 136.0001,-85.5594"/>
</g>
<!-- Node4 -->
<g id="node5" class="node">
<title>Node4</title>
<g id="a_node5"><a xlink:href="Resource_8hpp.html" target="_top" xlink:title="lug/Graphics/Resource.hpp">
<polygon fill="none" stroke="#000000" points="164.5,-112.5 164.5,-131.5 316.5,-131.5 316.5,-112.5 164.5,-112.5"/>
<text text-anchor="middle" x="240.5" y="-119.5" font-family="Helvetica,sans-Serif" font-size="10.00" fill="#000000">lug/Graphics/Resource.hpp</text>
</a>
</g>
</g>
<!-- Node0&#45;&gt;Node4 -->
<g id="edge4" class="edge">
<title>Node0&#45;&gt;Node4</title>
<path fill="none" stroke="#191970" d="M158.9198,-168.4554C175.9914,-158.734 198.0902,-146.15 214.9809,-136.5317"/>
<polygon fill="#191970" stroke="#191970" points="216.8059,-139.5202 223.7638,-131.5303 213.342,-133.4373 216.8059,-139.5202"/>
</g>
<!-- Node3 -->
<g id="node4" class="node">
<title>Node3</title>
<g id="a_node4"><a xlink:href="Config_8hpp.html" target="_top" xlink:title="lug/Config.hpp">
<polygon fill="none" stroke="#000000" points="88,-.5 88,-19.5 177,-19.5 177,-.5 88,-.5"/>
<text text-anchor="middle" x="132.5" y="-7.5" font-family="Helvetica,sans-Serif" font-size="10.00" fill="#000000">lug/Config.hpp</text>
</a>
</g>
</g>
<!-- Node2&#45;&gt;Node3 -->
<g id="edge3" class="edge">
<title>Node2&#45;&gt;Node3</title>
<path fill="none" stroke="#191970" d="M132.5,-56.2455C132.5,-48.9382 132.5,-38.6944 132.5,-29.7046"/>
<polygon fill="#191970" stroke="#191970" points="136.0001,-29.6426 132.5,-19.6427 129.0001,-29.6427 136.0001,-29.6426"/>
</g>
<!-- Node4&#45;&gt;Node1 -->
<g id="edge7" class="edge">
<title>Node4&#45;&gt;Node1</title>
<path fill="none" stroke="#191970" d="M198.9423,-112.4817C163.265,-104.1405 110.2621,-91.3478 55.1263,-76.0534"/>
<polygon fill="#191970" stroke="#191970" points="55.7483,-72.5932 45.1753,-73.2719 53.8639,-79.3347 55.7483,-72.5932"/>
</g>
<!-- Node4&#45;&gt;Node2 -->
<g id="edge8" class="edge">
<title>Node4&#45;&gt;Node2</title>
<path fill="none" stroke="#191970" d="M221.6878,-112.2455C204.6527,-103.4125 179.3425,-90.2887 160.0319,-80.2758"/>
<polygon fill="#191970" stroke="#191970" points="161.5853,-77.1388 151.0966,-75.6427 158.363,-83.353 161.5853,-77.1388"/>
</g>
<!-- Node5 -->
<g id="node6" class="node">
<title>Node5</title>
<polygon fill="none" stroke="#bfbfbf" points="219.5,-56.5 219.5,-75.5 269.5,-75.5 269.5,-56.5 219.5,-56.5"/>
<text text-anchor="middle" x="244.5" y="-63.5" font-family="Helvetica,sans-Serif" font-size="10.00" fill="#000000">cstdint</text>
</g>
<!-- Node4&#45;&gt;Node5 -->
<g id="edge5" class="edge">
<title>Node4&#45;&gt;Node5</title>
<path fill="none" stroke="#191970" d="M241.1967,-112.2455C241.7187,-104.9382 242.4504,-94.6944 243.0925,-85.7046"/>
<polygon fill="#191970" stroke="#191970" points="246.5898,-85.8667 243.8112,-75.6427 239.6076,-85.3679 246.5898,-85.8667"/>
</g>
<!-- Node6 -->
<g id="node7" class="node">
<title>Node6</title>
<polygon fill="none" stroke="#bfbfbf" points="288,-56.5 288,-75.5 359,-75.5 359,-56.5 288,-56.5"/>
<text text-anchor="middle" x="323.5" y="-63.5" font-family="Helvetica,sans-Serif" font-size="10.00" fill="#000000">type_traits</text>
</g>
<!-- Node4&#45;&gt;Node6 -->
<g id="edge6" class="edge">
<title>Node4&#45;&gt;Node6</title>
<path fill="none" stroke="#191970" d="M254.9575,-112.2455C267.5732,-103.7337 286.0944,-91.2375 300.7045,-81.3801"/>
<polygon fill="#191970" stroke="#191970" points="302.8761,-84.1371 309.2082,-75.6427 298.9609,-78.3343 302.8761,-84.1371"/>
</g>
<!-- Node7 -->
<g id="node8" class="node">
<title>Node7</title>
<g id="a_node8"><a xlink:href="Resource_8inl.html" target="_top" xlink:title="lug/Graphics/Resource.inl">
<polygon fill="none" stroke="#000000" points="377.5,-56.5 377.5,-75.5 523.5,-75.5 523.5,-56.5 377.5,-56.5"/>
<text text-anchor="middle" x="450.5" y="-63.5" font-family="Helvetica,sans-Serif" font-size="10.00" fill="#000000">lug/Graphics/Resource.inl</text>
</a>
</g>
</g>
<!-- Node4&#45;&gt;Node7 -->
<g id="edge9" class="edge">
<title>Node4&#45;&gt;Node7</title>
<path fill="none" stroke="#191970" d="M276.6003,-112.3733C312.1248,-102.9001 366.488,-88.4032 404.9619,-78.1435"/>
<polygon fill="#191970" stroke="#191970" points="406.1103,-81.4596 414.8708,-75.5011 404.3066,-74.696 406.1103,-81.4596"/>
</g>
</g>
</svg>
