<?xml version="1.0" encoding="UTF-8" standalone="no"?>
<!DOCTYPE svg PUBLIC "-//W3C//DTD SVG 1.1//EN"
 "http://www.w3.org/Graphics/SVG/1.1/DTD/svg11.dtd">
<!-- Generated by graphviz version 2.40.1 (20161225.0304)
 -->
<!-- Title: src/lug/Graphics/Vulkan/API/Loader.cpp Pages: 1 -->
<svg width="1384pt" height="464pt"
 viewBox="0.00 0.00 1383.50 464.00" xmlns="http://www.w3.org/2000/svg" xmlns:xlink="http://www.w3.org/1999/xlink">
<g id="graph0" class="graph" transform="scale(1 1) rotate(0) translate(4 460)">
<title>src/lug/Graphics/Vulkan/API/Loader.cpp</title>
<!-- Node0 -->
<g id="node1" class="node">
<title>Node0</title>
<polygon fill="#bfbfbf" stroke="#000000" points="998,-425.5 998,-455.5 1135,-455.5 1135,-425.5 998,-425.5"/>
<text text-anchor="start" x="1006" y="-443.5" font-family="Helvetica,sans-Serif" font-size="10.00" fill="#000000">src/lug/Graphics/Vulkan</text>
<text text-anchor="middle" x="1066.5" y="-432.5" font-family="Helvetica,sans-Serif" font-size="10.00" fill="#000000">/API/Loader.cpp</text>
</g>
<!-- Node1 -->
<g id="node2" class="node">
<title>Node1</title>
<g id="a_node2"><a xlink:href="Loader_8hpp.html" target="_top" xlink:title="lug/Graphics/Vulkan\l/API/Loader.hpp">
<polygon fill="none" stroke="#000000" points="871.5,-358.5 871.5,-388.5 989.5,-388.5 989.5,-358.5 871.5,-358.5"/>
<text text-anchor="start" x="879.5" y="-376.5" font-family="Helvetica,sans-Serif" font-size="10.00" fill="#000000">lug/Graphics/Vulkan</text>
<text text-anchor="middle" x="930.5" y="-365.5" font-family="Helvetica,sans-Serif" font-size="10.00" fill="#000000">/API/Loader.hpp</text>
</a>
</g>
</g>
<!-- Node0&#45;&gt;Node1 -->
<g id="edge1" class="edge">
<title>Node0&#45;&gt;Node1</title>
<path fill="none" stroke="#191970" d="M1035.9789,-425.4639C1016.6045,-415.9191 991.327,-403.4663 970.3743,-393.144"/>
<polygon fill="#191970" stroke="#191970" points="971.907,-389.9974 961.3897,-388.7177 968.8135,-396.2768 971.907,-389.9974"/>
</g>
<!-- Node23 -->
<g id="node24" class="node">
<title>Node23</title>
<g id="a_node24"><a xlink:href="Device_8hpp.html" target="_top" xlink:title="lug/Graphics/Vulkan\l/API/Device.hpp">
<polygon fill="none" stroke="#000000" points="1007.5,-358.5 1007.5,-388.5 1125.5,-388.5 1125.5,-358.5 1007.5,-358.5"/>
<text text-anchor="start" x="1015.5" y="-376.5" font-family="Helvetica,sans-Serif" font-size="10.00" fill="#000000">lug/Graphics/Vulkan</text>
<text text-anchor="middle" x="1066.5" y="-365.5" font-family="Helvetica,sans-Serif" font-size="10.00" fill="#000000">/API/Device.hpp</text>
</a>
</g>
</g>
<!-- Node0&#45;&gt;Node23 -->
<g id="edge32" class="edge">
<title>Node0&#45;&gt;Node23</title>
<path fill="none" stroke="#191970" d="M1066.5,-425.2967C1066.5,-417.5013 1066.5,-407.7991 1066.5,-398.9064"/>
<polygon fill="#191970" stroke="#191970" points="1070.0001,-398.6431 1066.5,-388.6432 1063.0001,-398.6432 1070.0001,-398.6431"/>
</g>
<!-- Node25 -->
<g id="node26" class="node">
<title>Node25</title>
<g id="a_node26"><a xlink:href="Instance_8hpp.html" target="_top" xlink:title="lug/Graphics/Vulkan\l/API/Instance.hpp">
<polygon fill="none" stroke="#000000" points="1156.5,-358.5 1156.5,-388.5 1274.5,-388.5 1274.5,-358.5 1156.5,-358.5"/>
<text text-anchor="start" x="1164.5" y="-376.5" font-family="Helvetica,sans-Serif" font-size="10.00" fill="#000000">lug/Graphics/Vulkan</text>
<text text-anchor="middle" x="1215.5" y="-365.5" font-family="Helvetica,sans-Serif" font-size="10.00" fill="#000000">/API/Instance.hpp</text>
</a>
</g>
</g>
<!-- Node0&#45;&gt;Node25 -->
<g id="edge36" class="edge">
<title>Node0&#45;&gt;Node25</title>
<path fill="none" stroke="#191970" d="M1099.9385,-425.4639C1121.4307,-415.7996 1149.5531,-403.154 1172.6742,-392.7572"/>
<polygon fill="#191970" stroke="#191970" points="1174.2307,-395.895 1181.9156,-388.6017 1171.3599,-389.5107 1174.2307,-395.895"/>
</g>
<!-- Node2 -->
<g id="node3" class="node">
<title>Node2</title>
<g id="a_node3"><a xlink:href="Graphics_2Export_8hpp.html" target="_top" xlink:title="lug/Graphics/Export.hpp">
<polygon fill="none" stroke="#000000" points="1093.5,-235.5 1093.5,-254.5 1231.5,-254.5 1231.5,-235.5 1093.5,-235.5"/>
<text text-anchor="middle" x="1162.5" y="-242.5" font-family="Helvetica,sans-Serif" font-size="10.00" fill="#000000">lug/Graphics/Export.hpp</text>
</a>
</g>
</g>
<!-- Node1&#45;&gt;Node2 -->
<g id="edge2" class="edge">
<title>Node1&#45;&gt;Node2</title>
<path fill="none" stroke="#191970" d="M951.8143,-358.4704C976.9179,-341.1021 1020.1888,-312.1961 1059.5,-291 1082.0173,-278.859 1108.3725,-267.1314 1128.7864,-258.5564"/>
<polygon fill="#191970" stroke="#191970" points="1130.3938,-261.6788 1138.2877,-254.6122 1127.7099,-255.2138 1130.3938,-261.6788"/>
</g>
<!-- Node4 -->
<g id="node5" class="node">
<title>Node4</title>
<g id="a_node5"><a xlink:href="Vulkan_8hpp.html" target="_top" xlink:title="lug/Graphics/Vulkan\l/Vulkan.hpp">
<polygon fill="none" stroke="#000000" points="871.5,-291.5 871.5,-321.5 989.5,-321.5 989.5,-291.5 871.5,-291.5"/>
<text text-anchor="start" x="879.5" y="-309.5" font-family="Helvetica,sans-Serif" font-size="10.00" fill="#000000">lug/Graphics/Vulkan</text>
<text text-anchor="middle" x="930.5" y="-298.5" font-family="Helvetica,sans-Serif" font-size="10.00" fill="#000000">/Vulkan.hpp</text>
</a>
</g>
</g>
<!-- Node1&#45;&gt;Node4 -->
<g id="edge4" class="edge">
<title>Node1&#45;&gt;Node4</title>
<path fill="none" stroke="#191970" d="M930.5,-358.2967C930.5,-350.5013 930.5,-340.7991 930.5,-331.9064"/>
<polygon fill="#191970" stroke="#191970" points="934.0001,-331.6431 930.5,-321.6432 927.0001,-331.6432 934.0001,-331.6431"/>
</g>
<!-- Node9 -->
<g id="node10" class="node">
<title>Node9</title>
<g id="a_node10"><a xlink:href="Library_8hpp.html" target="_top" xlink:title="lug/System/Library.hpp">
<polygon fill="none" stroke="#000000" points="609,-297 609,-316 744,-316 744,-297 609,-297"/>
<text text-anchor="middle" x="676.5" y="-304" font-family="Helvetica,sans-Serif" font-size="10.00" fill="#000000">lug/System/Library.hpp</text>
</a>
</g>
</g>
<!-- Node1&#45;&gt;Node9 -->
<g id="edge10" class="edge">
<title>Node1&#45;&gt;Node9</title>
<path fill="none" stroke="#191970" d="M873.4974,-358.4639C827.8645,-346.4269 764.6975,-329.7647 722.3092,-318.5835"/>
<polygon fill="#191970" stroke="#191970" points="723.097,-315.1717 712.535,-316.0053 721.3115,-321.9402 723.097,-315.1717"/>
</g>
<!-- Node3 -->
<g id="node4" class="node">
<title>Node3</title>
<g id="a_node4"><a xlink:href="Config_8hpp.html" target="_top" xlink:title="lug/Config.hpp">
<polygon fill="none" stroke="#000000" points="842,-.5 842,-19.5 931,-19.5 931,-.5 842,-.5"/>
<text text-anchor="middle" x="886.5" y="-7.5" font-family="Helvetica,sans-Serif" font-size="10.00" fill="#000000">lug/Config.hpp</text>
</a>
</g>
</g>
<!-- Node2&#45;&gt;Node3 -->
<g id="edge3" class="edge">
<title>Node2&#45;&gt;Node3</title>
<path fill="none" stroke="#191970" d="M1151.3386,-235.4967C1109.1223,-199.5516 958.9054,-71.6495 905.5076,-26.184"/>
<polygon fill="#191970" stroke="#191970" points="907.6832,-23.4396 897.8003,-19.6216 903.1452,-28.7694 907.6832,-23.4396"/>
</g>
<!-- Node4&#45;&gt;Node2 -->
<g id="edge8" class="edge">
<title>Node4&#45;&gt;Node2</title>
<path fill="none" stroke="#191970" d="M987.2536,-291.4554C1026.9821,-280.9239 1079.3844,-267.0328 1116.5064,-257.1923"/>
<polygon fill="#191970" stroke="#191970" points="1117.7789,-260.4759 1126.5482,-254.5303 1115.9852,-253.7096 1117.7789,-260.4759"/>
</g>
<!-- Node5 -->
<g id="node6" class="node">
<title>Node5</title>
<polygon fill="none" stroke="#bfbfbf" points="798,-112.5 798,-131.5 893,-131.5 893,-112.5 798,-112.5"/>
<text text-anchor="middle" x="845.5" y="-119.5" font-family="Helvetica,sans-Serif" font-size="10.00" fill="#000000">unordered_map</text>
</g>
<!-- Node4&#45;&gt;Node5 -->
<g id="edge5" class="edge">
<title>Node4&#45;&gt;Node5</title>
<path fill="none" stroke="#191970" d="M873.2732,-291.3888C855.1372,-283.6053 837.0723,-272.0329 826.5,-255 804.3582,-219.3277 822.7477,-168.0646 835.6172,-140.7724"/>
<polygon fill="#191970" stroke="#191970" points="838.8744,-142.0822 840.1832,-131.5685 832.6036,-138.9713 838.8744,-142.0822"/>
</g>
<!-- Node6 -->
<g id="node7" class="node">
<title>Node6</title>
<polygon fill="none" stroke="#bfbfbf" points="835.5,-235.5 835.5,-254.5 883.5,-254.5 883.5,-235.5 835.5,-235.5"/>
<text text-anchor="middle" x="859.5" y="-242.5" font-family="Helvetica,sans-Serif" font-size="10.00" fill="#000000">vector</text>
</g>
<!-- Node4&#45;&gt;Node6 -->
<g id="edge6" class="edge">
<title>Node4&#45;&gt;Node6</title>
<path fill="none" stroke="#191970" d="M912.9494,-291.2977C902.4779,-282.2274 889.1789,-270.7077 878.4662,-261.4285"/>
<polygon fill="#191970" stroke="#191970" points="880.7182,-258.7487 870.868,-254.8469 876.1351,-264.0398 880.7182,-258.7487"/>
</g>
<!-- Node7 -->
<g id="node8" class="node">
<title>Node7</title>
<polygon fill="none" stroke="#bfbfbf" points="901.5,-235.5 901.5,-254.5 959.5,-254.5 959.5,-235.5 901.5,-235.5"/>
<text text-anchor="middle" x="930.5" y="-242.5" font-family="Helvetica,sans-Serif" font-size="10.00" fill="#000000">ostream</text>
</g>
<!-- Node4&#45;&gt;Node7 -->
<g id="edge7" class="edge">
<title>Node4&#45;&gt;Node7</title>
<path fill="none" stroke="#191970" d="M930.5,-291.2977C930.5,-283.3834 930.5,-273.6043 930.5,-265.0759"/>
<polygon fill="#191970" stroke="#191970" points="934.0001,-264.8469 930.5,-254.8469 927.0001,-264.847 934.0001,-264.8469"/>
</g>
<!-- Node8 -->
<g id="node9" class="node">
<title>Node8</title>
<polygon fill="none" stroke="#bfbfbf" points="978,-235.5 978,-254.5 1075,-254.5 1075,-235.5 978,-235.5"/>
<text text-anchor="middle" x="1026.5" y="-242.5" font-family="Helvetica,sans-Serif" font-size="10.00" fill="#000000">vulkan/vulkan.h</text>
</g>
<!-- Node4&#45;&gt;Node8 -->
<g id="edge9" class="edge">
<title>Node4&#45;&gt;Node8</title>
<path fill="none" stroke="#191970" d="M954.2303,-291.2977C969.0362,-281.8127 988.0228,-269.6495 1002.8193,-260.1705"/>
<polygon fill="#191970" stroke="#191970" points="1004.8835,-263.0047 1011.4159,-254.6633 1001.1075,-257.1105 1004.8835,-263.0047"/>
</g>
<!-- Node10 -->
<g id="node11" class="node">
<title>Node10</title>
<g id="a_node11"><a xlink:href="System_2Export_8hpp.html" target="_top" xlink:title="lug/System/Export.hpp">
<polygon fill="none" stroke="#000000" points="665.5,-56.5 665.5,-75.5 797.5,-75.5 797.5,-56.5 665.5,-56.5"/>
<text text-anchor="middle" x="731.5" y="-63.5" font-family="Helvetica,sans-Serif" font-size="10.00" fill="#000000">lug/System/Export.hpp</text>
</a>
</g>
</g>
<!-- Node9&#45;&gt;Node10 -->
<g id="edge11" class="edge">
<title>Node9&#45;&gt;Node10</title>
<path fill="none" stroke="#191970" d="M700.9211,-296.8271C718.1898,-288.546 740.0558,-274.7966 750.5,-255 780.1569,-198.7863 764.4421,-174.2255 751.5,-112 749.5586,-102.6655 745.6196,-92.9017 741.7469,-84.783"/>
<polygon fill="#191970" stroke="#191970" points="744.8486,-83.161 737.1945,-75.8354 738.6097,-86.3353 744.8486,-83.161"/>
</g>
<!-- Node11 -->
<g id="node12" class="node">
<title>Node11</title>
<g id="a_node12"><a xlink:href="Logger_8hpp.html" target="_top" xlink:title="lug/System/Logger/Logger.hpp">
<polygon fill="none" stroke="#000000" points="353.5,-235.5 353.5,-254.5 525.5,-254.5 525.5,-235.5 353.5,-235.5"/>
<text text-anchor="middle" x="439.5" y="-242.5" font-family="Helvetica,sans-Serif" font-size="10.00" fill="#000000">lug/System/Logger/Logger.hpp</text>
</a>
</g>
</g>
<!-- Node9&#45;&gt;Node11 -->
<g id="edge13" class="edge">
<title>Node9&#45;&gt;Node11</title>
<path fill="none" stroke="#191970" d="M639.7288,-296.9581C598.3894,-286.2308 531.1767,-268.7895 486.1678,-257.11"/>
<polygon fill="#191970" stroke="#191970" points="486.916,-253.6883 476.3575,-254.5643 485.1578,-260.4639 486.916,-253.6883"/>
</g>
<!-- Node21 -->
<g id="node22" class="node">
<title>Node21</title>
<polygon fill="none" stroke="#bfbfbf" points="543.5,-235.5 543.5,-254.5 593.5,-254.5 593.5,-235.5 543.5,-235.5"/>
<text text-anchor="middle" x="568.5" y="-242.5" font-family="Helvetica,sans-Serif" font-size="10.00" fill="#000000">dlfcn.h</text>
</g>
<!-- Node9&#45;&gt;Node21 -->
<g id="edge30" class="edge">
<title>Node9&#45;&gt;Node21</title>
<path fill="none" stroke="#191970" d="M659.625,-296.8906C642.0302,-286.8713 614.2434,-271.0483 593.9759,-259.5071"/>
<polygon fill="#191970" stroke="#191970" points="595.6783,-256.4489 585.2565,-254.5419 592.2144,-262.5318 595.6783,-256.4489"/>
</g>
<!-- Node22 -->
<g id="node23" class="node">
<title>Node22</title>
<g id="a_node23"><a xlink:href="Library_8inl.html" target="_top" xlink:title="lug/System/Library.inl">
<polygon fill="none" stroke="#000000" points="612,-235.5 612,-254.5 741,-254.5 741,-235.5 612,-235.5"/>
<text text-anchor="middle" x="676.5" y="-242.5" font-family="Helvetica,sans-Serif" font-size="10.00" fill="#000000">lug/System/Library.inl</text>
</a>
</g>
</g>
<!-- Node9&#45;&gt;Node22 -->
<g id="edge31" class="edge">
<title>Node9&#45;&gt;Node22</title>
<path fill="none" stroke="#191970" d="M676.5,-296.8906C676.5,-288.3657 676.5,-275.6392 676.5,-264.9235"/>
<polygon fill="#191970" stroke="#191970" points="680.0001,-264.7448 676.5,-254.7449 673.0001,-264.7449 680.0001,-264.7448"/>
</g>
<!-- Node10&#45;&gt;Node3 -->
<g id="edge12" class="edge">
<title>Node10&#45;&gt;Node3</title>
<path fill="none" stroke="#191970" d="M758.1454,-56.3733C783.6964,-47.1419 822.4512,-33.1402 850.6909,-22.9375"/>
<polygon fill="#191970" stroke="#191970" points="851.9865,-26.1909 860.2022,-19.5011 849.6079,-19.6074 851.9865,-26.1909"/>
</g>
<!-- Node11&#45;&gt;Node10 -->
<g id="edge17" class="edge">
<title>Node11&#45;&gt;Node10</title>
<path fill="none" stroke="#191970" d="M525.574,-235.6127C600.584,-226.6109 699.3913,-212.441 712.5,-199 741.9726,-168.7802 739.27,-114.819 735.1547,-85.7866"/>
<polygon fill="#191970" stroke="#191970" points="738.5678,-84.968 733.5132,-75.6567 731.658,-86.0878 738.5678,-84.968"/>
</g>
<!-- Node12 -->
<g id="node13" class="node">
<title>Node12</title>
<polygon fill="none" stroke="#bfbfbf" points="578,-112.5 578,-131.5 637,-131.5 637,-112.5 578,-112.5"/>
<text text-anchor="middle" x="607.5" y="-119.5" font-family="Helvetica,sans-Serif" font-size="10.00" fill="#000000">memory</text>
</g>
<!-- Node11&#45;&gt;Node12 -->
<g id="edge14" class="edge">
<title>Node11&#45;&gt;Node12</title>
<path fill="none" stroke="#191970" d="M451.6324,-235.2706C470.2664,-220.4165 507.1706,-191.3482 539.5,-168 554.1457,-157.4229 570.9583,-146.0431 584.2018,-137.2484"/>
<polygon fill="#191970" stroke="#191970" points="586.3154,-140.0469 592.7297,-131.6144 582.4568,-134.2064 586.3154,-140.0469"/>
</g>
<!-- Node13 -->
<g id="node14" class="node">
<title>Node13</title>
<polygon fill="none" stroke="#bfbfbf" points="237.5,-174 237.5,-193 269.5,-193 269.5,-174 237.5,-174"/>
<text text-anchor="middle" x="253.5" y="-181" font-family="Helvetica,sans-Serif" font-size="10.00" fill="#000000">set</text>
</g>
<!-- Node11&#45;&gt;Node13 -->
<g id="edge15" class="edge">
<title>Node11&#45;&gt;Node13</title>
<path fill="none" stroke="#191970" d="M393.5624,-235.4522C360.6969,-227.7707 315.8491,-215.5291 278.5,-199 277.7995,-198.69 277.0953,-198.3631 276.3902,-198.0224"/>
<polygon fill="#191970" stroke="#191970" points="277.8502,-194.8305 267.4042,-193.0606 274.4665,-200.9584 277.8502,-194.8305"/>
</g>
<!-- Node14 -->
<g id="node15" class="node">
<title>Node14</title>
<polygon fill="none" stroke="#bfbfbf" points="478,-112.5 478,-131.5 523,-131.5 523,-112.5 478,-112.5"/>
<text text-anchor="middle" x="500.5" y="-119.5" font-family="Helvetica,sans-Serif" font-size="10.00" fill="#000000">string</text>
</g>
<!-- Node11&#45;&gt;Node14 -->
<g id="edge16" class="edge">
<title>Node11&#45;&gt;Node14</title>
<path fill="none" stroke="#191970" d="M444.2718,-235.4924C448.9337,-226.1956 456.2239,-211.6344 462.5,-199 472.2926,-179.2867 483.4305,-156.6977 491.1041,-141.1086"/>
<polygon fill="#191970" stroke="#191970" points="494.3233,-142.4936 495.5975,-131.9757 488.0424,-139.4034 494.3233,-142.4936"/>
</g>
<!-- Node15 -->
<g id="node16" class="node">
<title>Node15</title>
<g id="a_node16"><a xlink:href="Common_8hpp.html" target="_top" xlink:title="lug/System/Logger/Common.hpp">
<polygon fill="none" stroke="#000000" points="118.5,-112.5 118.5,-131.5 300.5,-131.5 300.5,-112.5 118.5,-112.5"/>
<text text-anchor="middle" x="209.5" y="-119.5" font-family="Helvetica,sans-Serif" font-size="10.00" fill="#000000">lug/System/Logger/Common.hpp</text>
</a>
</g>
</g>
<!-- Node11&#45;&gt;Node15 -->
<g id="edge18" class="edge">
<title>Node11&#45;&gt;Node15</title>
<path fill="none" stroke="#191970" d="M353.3975,-235.5114C303.2579,-228.2568 246.4694,-216.4859 228.5,-199 213.2817,-184.1911 209.5037,-159.2807 208.9052,-141.8137"/>
<polygon fill="#191970" stroke="#191970" points="212.4048,-141.5834 208.8827,-131.5912 205.4048,-141.5989 212.4048,-141.5834"/>
</g>
<!-- Node18 -->
<g id="node19" class="node">
<title>Node18</title>
<g id="a_node19"><a xlink:href="LoggingFacility_8hpp.html" target="_top" xlink:title="lug/System/Logger/Logging\lFacility.hpp">
<polygon fill="none" stroke="#000000" points="548,-168.5 548,-198.5 703,-198.5 703,-168.5 548,-168.5"/>
<text text-anchor="start" x="556" y="-186.5" font-family="Helvetica,sans-Serif" font-size="10.00" fill="#000000">lug/System/Logger/Logging</text>
<text text-anchor="middle" x="625.5" y="-175.5" font-family="Helvetica,sans-Serif" font-size="10.00" fill="#000000">Facility.hpp</text>
</a>
</g>
</g>
<!-- Node11&#45;&gt;Node18 -->
<g id="edge22" class="edge">
<title>Node11&#45;&gt;Node18</title>
<path fill="none" stroke="#191970" d="M468.5625,-235.3906C495.7165,-226.4123 536.9655,-212.7735 570.3605,-201.7316"/>
<polygon fill="#191970" stroke="#191970" points="571.6036,-205.007 579.9993,-198.5446 569.406,-198.3609 571.6036,-205.007"/>
</g>
<!-- Node19 -->
<g id="node20" class="node">
<title>Node19</title>
<g id="a_node20"><a xlink:href="Message_8hpp.html" target="_top" xlink:title="lug/System/Logger/Message.hpp">
<polygon fill="none" stroke="#000000" points="0,-174 0,-193 181,-193 181,-174 0,-174"/>
<text text-anchor="middle" x="90.5" y="-181" font-family="Helvetica,sans-Serif" font-size="10.00" fill="#000000">lug/System/Logger/Message.hpp</text>
</a>
</g>
</g>
<!-- Node11&#45;&gt;Node19 -->
<g id="edge27" class="edge">
<title>Node11&#45;&gt;Node19</title>
<path fill="none" stroke="#191970" d="M385.3517,-235.4581C322.9785,-224.4668 220.6071,-206.4272 154.3898,-194.7585"/>
<polygon fill="#191970" stroke="#191970" points="154.9439,-191.3023 144.4882,-193.0137 153.729,-198.1961 154.9439,-191.3023"/>
</g>
<!-- Node20 -->
<g id="node21" class="node">
<title>Node20</title>
<g id="a_node21"><a xlink:href="Logger_8inl.html" target="_top" xlink:title="lug/System/Logger/Logger.inl">
<polygon fill="none" stroke="#000000" points="287.5,-174 287.5,-193 453.5,-193 453.5,-174 287.5,-174"/>
<text text-anchor="middle" x="370.5" y="-181" font-family="Helvetica,sans-Serif" font-size="10.00" fill="#000000">lug/System/Logger/Logger.inl</text>
</a>
</g>
</g>
<!-- Node11&#45;&gt;Node20 -->
<g id="edge29" class="edge">
<title>Node11&#45;&gt;Node20</title>
<path fill="none" stroke="#191970" d="M428.7188,-235.3906C418.1474,-225.9683 401.8175,-211.4134 389.1397,-200.1137"/>
<polygon fill="#191970" stroke="#191970" points="391.2272,-197.2858 381.4333,-193.2449 386.5696,-202.5114 391.2272,-197.2858"/>
</g>
<!-- Node15&#45;&gt;Node10 -->
<g id="edge19" class="edge">
<title>Node15&#45;&gt;Node10</title>
<path fill="none" stroke="#191970" d="M298.3459,-112.4686C398.7327,-101.6992 560.4527,-84.3499 655.3041,-74.1743"/>
<polygon fill="#191970" stroke="#191970" points="655.8304,-77.638 665.4,-73.0912 655.0837,-70.6779 655.8304,-77.638"/>
</g>
<!-- Node16 -->
<g id="node17" class="node">
<title>Node16</title>
<polygon fill="none" stroke="#bfbfbf" points="116.5,-56.5 116.5,-75.5 198.5,-75.5 198.5,-56.5 116.5,-56.5"/>
<text text-anchor="middle" x="157.5" y="-63.5" font-family="Helvetica,sans-Serif" font-size="10.00" fill="#000000">fmt/format.h</text>
</g>
<!-- Node15&#45;&gt;Node16 -->
<g id="edge20" class="edge">
<title>Node15&#45;&gt;Node16</title>
<path fill="none" stroke="#191970" d="M200.4423,-112.2455C192.9858,-104.2155 182.2366,-92.6394 173.3583,-83.0781"/>
<polygon fill="#191970" stroke="#191970" points="175.8232,-80.589 166.4539,-75.6427 170.6937,-85.3522 175.8232,-80.589"/>
</g>
<!-- Node17 -->
<g id="node18" class="node">
<title>Node17</title>
<polygon fill="none" stroke="#bfbfbf" points="217,-56.5 217,-75.5 306,-75.5 306,-56.5 217,-56.5"/>
<text text-anchor="middle" x="261.5" y="-63.5" font-family="Helvetica,sans-Serif" font-size="10.00" fill="#000000">fmt/ostream.h</text>
</g>
<!-- Node15&#45;&gt;Node17 -->
<g id="edge21" class="edge">
<title>Node15&#45;&gt;Node17</title>
<path fill="none" stroke="#191970" d="M218.5577,-112.2455C226.0142,-104.2155 236.7634,-92.6394 245.6417,-83.0781"/>
<polygon fill="#191970" stroke="#191970" points="248.3063,-85.3522 252.5461,-75.6427 243.1768,-80.589 248.3063,-85.3522"/>
</g>
<!-- Node18&#45;&gt;Node5 -->
<g id="edge25" class="edge">
<title>Node18&#45;&gt;Node5</title>
<path fill="none" stroke="#191970" d="M679.3181,-168.4554C716.8306,-157.9689 766.259,-144.1515 801.4333,-134.3187"/>
<polygon fill="#191970" stroke="#191970" points="802.7193,-137.5934 811.4078,-131.5303 800.8347,-130.8519 802.7193,-137.5934"/>
</g>
<!-- Node18&#45;&gt;Node10 -->
<g id="edge26" class="edge">
<title>Node18&#45;&gt;Node10</title>
<path fill="none" stroke="#191970" d="M639.3576,-168.1389C659.1499,-146.1994 695.3966,-106.0203 716.0372,-83.1404"/>
<polygon fill="#191970" stroke="#191970" points="718.7765,-85.329 722.8761,-75.5595 713.5789,-80.6401 718.7765,-85.329"/>
</g>
<!-- Node18&#45;&gt;Node12 -->
<g id="edge24" class="edge">
<title>Node18&#45;&gt;Node12</title>
<path fill="none" stroke="#191970" d="M621.0506,-168.2977C618.6821,-160.2055 615.7431,-150.1639 613.2082,-141.5029"/>
<polygon fill="#191970" stroke="#191970" points="616.5502,-140.4611 610.382,-131.8469 609.832,-142.4275 616.5502,-140.4611"/>
</g>
<!-- Node18&#45;&gt;Node14 -->
<g id="edge23" class="edge">
<title>Node18&#45;&gt;Node14</title>
<path fill="none" stroke="#191970" d="M594.9216,-168.4554C574.7968,-158.554 548.6361,-145.683 528.9562,-136.0004"/>
<polygon fill="#191970" stroke="#191970" points="530.3885,-132.8045 519.8706,-131.5303 527.2982,-139.0855 530.3885,-132.8045"/>
</g>
<!-- Node19&#45;&gt;Node15 -->
<g id="edge28" class="edge">
<title>Node19&#45;&gt;Node15</title>
<path fill="none" stroke="#191970" d="M109.0938,-173.8906C128.6553,-163.7811 159.6501,-147.7628 182.0309,-136.1962"/>
<polygon fill="#191970" stroke="#191970" points="183.76,-139.2425 191.0368,-131.5419 180.5461,-133.0238 183.76,-139.2425"/>
</g>
<!-- Node23&#45;&gt;Node2 -->
<g id="edge33" class="edge">
<title>Node23&#45;&gt;Node2</title>
<path fill="none" stroke="#191970" d="M1063.9356,-358.3795C1061.7774,-340.6623 1060.9112,-311.1685 1074.5,-291 1084.6459,-275.9414 1101.3398,-265.4872 1117.4759,-258.3977"/>
<polygon fill="#191970" stroke="#191970" points="1118.9003,-261.5972 1126.8584,-254.603 1116.2756,-255.1078 1118.9003,-261.5972"/>
</g>
<!-- Node23&#45;&gt;Node4 -->
<g id="edge34" class="edge">
<title>Node23&#45;&gt;Node4</title>
<path fill="none" stroke="#191970" d="M1035.9789,-358.4639C1016.6045,-348.9191 991.327,-336.4663 970.3743,-326.144"/>
<polygon fill="#191970" stroke="#191970" points="971.907,-322.9974 961.3897,-321.7177 968.8135,-329.2768 971.907,-322.9974"/>
</g>
<!-- Node24 -->
<g id="node25" class="node">
<title>Node24</title>
<g id="a_node25"><a xlink:href="Device_8inl.html" target="_top" xlink:title="lug/Graphics/Vulkan\l/API/Device.inl">
<polygon fill="none" stroke="#000000" points="1083.5,-291.5 1083.5,-321.5 1201.5,-321.5 1201.5,-291.5 1083.5,-291.5"/>
<text text-anchor="start" x="1091.5" y="-309.5" font-family="Helvetica,sans-Serif" font-size="10.00" fill="#000000">lug/Graphics/Vulkan</text>
<text text-anchor="middle" x="1142.5" y="-298.5" font-family="Helvetica,sans-Serif" font-size="10.00" fill="#000000">/API/Device.inl</text>
</a>
</g>
</g>
<!-- Node23&#45;&gt;Node24 -->
<g id="edge35" class="edge">
<title>Node23&#45;&gt;Node24</title>
<path fill="none" stroke="#191970" d="M1083.7456,-358.2967C1093.7542,-349.4733 1106.5336,-338.2072 1117.6164,-328.4368"/>
<polygon fill="#191970" stroke="#191970" points="1120.1359,-330.8816 1125.3227,-321.6432 1115.5068,-325.6307 1120.1359,-330.8816"/>
</g>
<!-- Node25&#45;&gt;Node2 -->
<g id="edge37" class="edge">
<title>Node25&#45;&gt;Node2</title>
<path fill="none" stroke="#191970" d="M1217.7578,-358.404C1219.6281,-341.228 1220.5679,-312.7456 1210.5,-291 1205.024,-279.1725 1195.0396,-268.829 1185.5895,-260.9616"/>
<polygon fill="#191970" stroke="#191970" points="1187.5922,-258.0852 1177.5493,-254.7102 1183.2955,-263.6114 1187.5922,-258.0852"/>
</g>
<!-- Node25&#45;&gt;Node4 -->
<g id="edge38" class="edge">
<title>Node25&#45;&gt;Node4</title>
<path fill="none" stroke="#191970" d="M1156.4478,-359.6176C1110.9351,-348.9181 1047.8874,-334.0963 999.9535,-322.8277"/>
<polygon fill="#191970" stroke="#191970" points="1000.5017,-319.3612 989.9661,-320.4798 998.8998,-326.1754 1000.5017,-319.3612"/>
</g>
<!-- Node26 -->
<g id="node27" class="node">
<title>Node26</title>
<g id="a_node27"><a xlink:href="Instance_8inl.html" target="_top" xlink:title="lug/Graphics/Vulkan\l/API/Instance.inl">
<polygon fill="none" stroke="#000000" points="1257.5,-291.5 1257.5,-321.5 1375.5,-321.5 1375.5,-291.5 1257.5,-291.5"/>
<text text-anchor="start" x="1265.5" y="-309.5" font-family="Helvetica,sans-Serif" font-size="10.00" fill="#000000">lug/Graphics/Vulkan</text>
<text text-anchor="middle" x="1316.5" y="-298.5" font-family="Helvetica,sans-Serif" font-size="10.00" fill="#000000">/API/Instance.inl</text>
</a>
</g>
</g>
<!-- Node25&#45;&gt;Node26 -->
<g id="edge39" class="edge">
<title>Node25&#45;&gt;Node26</title>
<path fill="none" stroke="#191970" d="M1238.1664,-358.4639C1251.974,-349.3044 1269.8189,-337.4667 1284.9882,-327.4038"/>
<polygon fill="#191970" stroke="#191970" points="1287.1614,-330.1623 1293.5598,-321.7177 1283.2918,-324.3291 1287.1614,-330.1623"/>
</g>
</g>
</svg>
