<?xml version="1.0" encoding="UTF-8" standalone="no"?>
<!DOCTYPE svg PUBLIC "-//W3C//DTD SVG 1.1//EN"
 "http://www.w3.org/Graphics/SVG/1.1/DTD/svg11.dtd">
<!-- Generated by graphviz version 2.40.1 (20161225.0304)
 -->
<!-- Title: include/lug/System/Logger/LogCatHandler.hpp Pages: 1 -->
<!--zoomable 330 -->
<svg id="main" version="1.1" xmlns="http://www.w3.org/2000/svg" xmlns:xlink="http://www.w3.org/1999/xlink" xml:space="preserve" onload="init(evt)">
<style type="text/css"><![CDATA[
.edge:hover path { stroke: red; }
.edge:hover polygon { stroke: red; fill: red; }
]]></style>
<script type="text/javascript"><![CDATA[
var edges = document.getElementsByTagName('g');
if (edges && edges.length) {
  for (var i=0;i<edges.length;i++) {
    if (edges[i].id.substr(0,4)=='edge') {
      edges[i].setAttribute('class','edge');
    }
  }
}
]]></script>
        <defs>
                <circle id="rim" cx="0" cy="0" r="7"/>
                <circle id="rim2" cx="0" cy="0" r="3.5"/>
                <g id="zoomPlus">
                        <use xlink:href="#rim" fill="#404040">
                                <set attributeName="fill" to="#808080" begin="zoomplus.mouseover" end="zoomplus.mouseout"/>
                        </use>
                        <path d="M-4,0h8M0,-4v8" fill="none" stroke="white" stroke-width="1.5" pointer-events="none"/>
                </g>
                <g id="zoomMin">
                        <use xlink:href="#rim" fill="#404040">
                                <set attributeName="fill" to="#808080" begin="zoomminus.mouseover" end="zoomminus.mouseout"/>
                        </use>
                        <path d="M-4,0h8" fill="none" stroke="white" stroke-width="1.5" pointer-events="none"/>
                </g>
                <g id="dirArrow">
                        <path fill="none" stroke="white" stroke-width="1.5" d="M0,-3.0v7 M-2.5,-0.5L0,-3.0L2.5,-0.5"/>
                </g>
               <g id="resetDef">
                       <use xlink:href="#rim2" fill="#404040">
                               <set attributeName="fill" to="#808080" begin="reset.mouseover" end="reset.mouseout"/>
                       </use>
               </g>
        </defs>

<script type="text/javascript">
var viewWidth = 942;
var viewHeight = 330;
var sectionId = 'dynsection-0';
</script>
<script xlink:href="svgpan.js"/>
<svg id="graph" class="graph">
<g id="viewport">
<title>include/lug/System/Logger/LogCatHandler.hpp</title>
<!-- Node0 -->
<g id="node1" class="node">
<title>Node0</title>
<polygon fill="#bfbfbf" stroke="#000000" points="218,-291.5 218,-321.5 372,-321.5 372,-291.5 218,-291.5"/>
<text text-anchor="start" x="226" y="-309.5" font-family="Helvetica,sans-Serif" font-size="10.00" fill="#000000">include/lug/System</text>
<text text-anchor="middle" x="295" y="-298.5" font-family="Helvetica,sans-Serif" font-size="10.00" fill="#000000">/Logger/LogCatHandler.hpp</text>
</g>
<!-- Node1 -->
<g id="node2" class="node">
<title>Node1</title>
<polygon fill="none" stroke="#bfbfbf" points="179.5,-235.5 179.5,-254.5 262.5,-254.5 262.5,-235.5 179.5,-235.5"/>
<text text-anchor="middle" x="221" y="-242.5" font-family="Helvetica,sans-Serif" font-size="10.00" fill="#000000">android/log.h</text>
</g>
<!-- Node0&#45;&gt;Node1 -->
<g id="edge1" class="edge">
<title>Node0&#45;&gt;Node1</title>
<path fill="none" stroke="#191970" d="M276.7079,-291.2977C265.7939,-282.2274 251.9329,-270.7077 240.7676,-261.4285"/>
<polygon fill="#191970" stroke="#191970" points="242.7762,-258.5468 232.8483,-254.8469 238.302,-263.9303 242.7762,-258.5468"/>
</g>
<!-- Node2 -->
<g id="node3" class="node">
<title>Node2</title>
<g id="a_node3"><a xlink:href="Handler_8hpp.html" target="_top" xlink:title="lug/System/Logger/Handler.hpp">
<polygon fill="none" stroke="#000000" points="280.5,-235.5 280.5,-254.5 457.5,-254.5 457.5,-235.5 280.5,-235.5"/>
<text text-anchor="middle" x="369" y="-242.5" font-family="Helvetica,sans-Serif" font-size="10.00" fill="#000000">lug/System/Logger/Handler.hpp</text>
</a>
</g>
</g>
<!-- Node0&#45;&gt;Node2 -->
<g id="edge2" class="edge">
<title>Node0&#45;&gt;Node2</title>
<path fill="none" stroke="#191970" d="M313.2921,-291.2977C324.2061,-282.2274 338.0671,-270.7077 349.2324,-261.4285"/>
<polygon fill="#191970" stroke="#191970" points="351.698,-263.9303 357.1517,-254.8469 347.2238,-258.5468 351.698,-263.9303"/>
</g>
<!-- Node3 -->
<g id="node4" class="node">
<title>Node3</title>
<polygon fill="none" stroke="#bfbfbf" points="0,-174 0,-193 50,-193 50,-174 0,-174"/>
<text text-anchor="middle" x="25" y="-181" font-family="Helvetica,sans-Serif" font-size="10.00" fill="#000000">atomic</text>
</g>
<!-- Node2&#45;&gt;Node3 -->
<g id="edge3" class="edge">
<title>Node2&#45;&gt;Node3</title>
<path fill="none" stroke="#191970" d="M287.0732,-235.4753C210.0183,-226.0403 100.4793,-211.2662 59,-199 57.0871,-198.4343 55.1431,-197.7809 53.2032,-197.069"/>
<polygon fill="#191970" stroke="#191970" points="54.2792,-193.727 43.6997,-193.1572 51.6148,-200.2001 54.2792,-193.727"/>
</g>
<!-- Node4 -->
<g id="node5" class="node">
<title>Node4</title>
<polygon fill="none" stroke="#bfbfbf" points="558.5,-112.5 558.5,-131.5 617.5,-131.5 617.5,-112.5 558.5,-112.5"/>
<text text-anchor="middle" x="588" y="-119.5" font-family="Helvetica,sans-Serif" font-size="10.00" fill="#000000">memory</text>
</g>
<!-- Node2&#45;&gt;Node4 -->
<g id="edge4" class="edge">
<title>Node2&#45;&gt;Node4</title>
<path fill="none" stroke="#191970" d="M415.0713,-235.4826C443.5275,-228.2792 480.0126,-216.5742 509,-199 522.9625,-190.5349 553.3714,-159.1876 572.1246,-139.1945"/>
<polygon fill="#191970" stroke="#191970" points="574.8823,-141.3691 579.1387,-131.6668 569.7609,-136.5971 574.8823,-141.3691"/>
</g>
<!-- Node5 -->
<g id="node6" class="node">
<title>Node5</title>
<g id="a_node6"><a xlink:href="System_2Export_8hpp.html" target="_top" xlink:title="lug/System/Export.hpp">
<polygon fill="none" stroke="#000000" points="280,-56.5 280,-75.5 412,-75.5 412,-56.5 280,-56.5"/>
<text text-anchor="middle" x="346" y="-63.5" font-family="Helvetica,sans-Serif" font-size="10.00" fill="#000000">lug/System/Export.hpp</text>
</a>
</g>
</g>
<!-- Node2&#45;&gt;Node5 -->
<g id="edge5" class="edge">
<title>Node2&#45;&gt;Node5</title>
<path fill="none" stroke="#191970" d="M359.0638,-235.4913C350.824,-226.8654 339.7233,-213.3368 335,-199 322.2494,-160.2976 332.2102,-111.9992 339.6946,-85.5569"/>
<polygon fill="#191970" stroke="#191970" points="343.1444,-86.2388 342.6771,-75.6543 336.4418,-84.22 343.1444,-86.2388"/>
</g>
<!-- Node7 -->
<g id="node8" class="node">
<title>Node7</title>
<g id="a_node8"><a xlink:href="Common_8hpp.html" target="_top" xlink:title="lug/System/Logger/Common.hpp">
<polygon fill="none" stroke="#000000" points="106,-112.5 106,-131.5 288,-131.5 288,-112.5 106,-112.5"/>
<text text-anchor="middle" x="197" y="-119.5" font-family="Helvetica,sans-Serif" font-size="10.00" fill="#000000">lug/System/Logger/Common.hpp</text>
</a>
</g>
</g>
<!-- Node2&#45;&gt;Node7 -->
<g id="edge7" class="edge">
<title>Node2&#45;&gt;Node7</title>
<path fill="none" stroke="#191970" d="M354.7949,-235.4347C341.1718,-226.2172 320.065,-211.8206 302,-199 272.6426,-178.1653 239.1779,-153.4551 218.0765,-137.7535"/>
<polygon fill="#191970" stroke="#191970" points="219.9476,-134.7829 209.838,-131.6133 215.7645,-140.3955 219.9476,-134.7829"/>
</g>
<!-- Node10 -->
<g id="node11" class="node">
<title>Node10</title>
<g id="a_node11"><a xlink:href="Formatter_8hpp.html" target="_top" xlink:title="lug/System/Logger/Formatter.hpp">
<polygon fill="none" stroke="#000000" points="556,-174 556,-193 744,-193 744,-174 556,-174"/>
<text text-anchor="middle" x="650" y="-181" font-family="Helvetica,sans-Serif" font-size="10.00" fill="#000000">lug/System/Logger/Formatter.hpp</text>
</a>
</g>
</g>
<!-- Node2&#45;&gt;Node10 -->
<g id="edge11" class="edge">
<title>Node2&#45;&gt;Node10</title>
<path fill="none" stroke="#191970" d="M412.5979,-235.4581C462.1271,-224.6181 542.9807,-206.9224 596.3411,-195.2439"/>
<polygon fill="#191970" stroke="#191970" points="597.2793,-198.6214 606.2998,-193.0643 595.7827,-191.7833 597.2793,-198.6214"/>
</g>
<!-- Node14 -->
<g id="node15" class="node">
<title>Node14</title>
<g id="a_node15"><a xlink:href="LoggingFacility_8hpp.html" target="_top" xlink:title="lug/System/Logger/Logging\lFacility.hpp">
<polygon fill="none" stroke="#000000" points="344.5,-168.5 344.5,-198.5 499.5,-198.5 499.5,-168.5 344.5,-168.5"/>
<text text-anchor="start" x="352.5" y="-186.5" font-family="Helvetica,sans-Serif" font-size="10.00" fill="#000000">lug/System/Logger/Logging</text>
<text text-anchor="middle" x="422" y="-175.5" font-family="Helvetica,sans-Serif" font-size="10.00" fill="#000000">Facility.hpp</text>
</a>
</g>
</g>
<!-- Node2&#45;&gt;Node14 -->
<g id="edge17" class="edge">
<title>Node2&#45;&gt;Node14</title>
<path fill="none" stroke="#191970" d="M377.2813,-235.3906C383.9892,-227.6068 393.7159,-216.3202 402.3859,-206.2597"/>
<polygon fill="#191970" stroke="#191970" points="405.1578,-208.4046 409.0347,-198.5446 399.8552,-203.8349 405.1578,-208.4046"/>
</g>
<!-- Node16 -->
<g id="node17" class="node">
<title>Node16</title>
<g id="a_node17"><a xlink:href="Message_8hpp.html" target="_top" xlink:title="lug/System/Logger/Message.hpp">
<polygon fill="none" stroke="#000000" points="68.5,-174 68.5,-193 249.5,-193 249.5,-174 68.5,-174"/>
<text text-anchor="middle" x="159" y="-181" font-family="Helvetica,sans-Serif" font-size="10.00" fill="#000000">lug/System/Logger/Message.hpp</text>
</a>
</g>
</g>
<!-- Node2&#45;&gt;Node16 -->
<g id="edge22" class="edge">
<title>Node2&#45;&gt;Node16</title>
<path fill="none" stroke="#191970" d="M336.1875,-235.3906C299.8178,-224.7395 241.0522,-207.5296 201.2637,-195.8772"/>
<polygon fill="#191970" stroke="#191970" points="202.1627,-192.4936 191.5821,-193.0419 200.1953,-199.2114 202.1627,-192.4936"/>
</g>
<!-- Node17 -->
<g id="node18" class="node">
<title>Node17</title>
<g id="a_node18"><a xlink:href="Handler_8inl.html" target="_top" xlink:title="lug/System/Logger/Handler.inl">
<polygon fill="none" stroke="#000000" points="762.5,-174 762.5,-193 933.5,-193 933.5,-174 762.5,-174"/>
<text text-anchor="middle" x="848" y="-181" font-family="Helvetica,sans-Serif" font-size="10.00" fill="#000000">lug/System/Logger/Handler.inl</text>
</a>
</g>
</g>
<!-- Node2&#45;&gt;Node17 -->
<g id="edge24" class="edge">
<title>Node2&#45;&gt;Node17</title>
<path fill="none" stroke="#191970" d="M457.6,-235.4681C535.5199,-226.8272 651.9475,-213.2898 753,-199 762.3947,-197.6715 772.2951,-196.1699 782.0148,-194.6372"/>
<polygon fill="#191970" stroke="#191970" points="782.7267,-198.068 792.0496,-193.0348 781.6228,-191.1556 782.7267,-198.068"/>
</g>
<!-- Node6 -->
<g id="node7" class="node">
<title>Node6</title>
<g id="a_node7"><a xlink:href="Config_8hpp.html" target="_top" xlink:title="lug/Config.hpp">
<polygon fill="none" stroke="#000000" points="301.5,-.5 301.5,-19.5 390.5,-19.5 390.5,-.5 301.5,-.5"/>
<text text-anchor="middle" x="346" y="-7.5" font-family="Helvetica,sans-Serif" font-size="10.00" fill="#000000">lug/Config.hpp</text>
</a>
</g>
</g>
<!-- Node5&#45;&gt;Node6 -->
<g id="edge6" class="edge">
<title>Node5&#45;&gt;Node6</title>
<path fill="none" stroke="#191970" d="M346,-56.2455C346,-48.9382 346,-38.6944 346,-29.7046"/>
<polygon fill="#191970" stroke="#191970" points="349.5001,-29.6426 346,-19.6427 342.5001,-29.6427 349.5001,-29.6426"/>
</g>
<!-- Node7&#45;&gt;Node5 -->
<g id="edge8" class="edge">
<title>Node7&#45;&gt;Node5</title>
<path fill="none" stroke="#191970" d="M222.614,-112.3733C247.0687,-103.1822 284.1054,-89.2624 311.2209,-79.0713"/>
<polygon fill="#191970" stroke="#191970" points="312.5909,-82.2956 320.7202,-75.5011 310.1281,-75.7431 312.5909,-82.2956"/>
</g>
<!-- Node8 -->
<g id="node9" class="node">
<title>Node8</title>
<polygon fill="none" stroke="#bfbfbf" points="164,-56.5 164,-75.5 246,-75.5 246,-56.5 164,-56.5"/>
<text text-anchor="middle" x="205" y="-63.5" font-family="Helvetica,sans-Serif" font-size="10.00" fill="#000000">fmt/format.h</text>
</g>
<!-- Node7&#45;&gt;Node8 -->
<g id="edge9" class="edge">
<title>Node7&#45;&gt;Node8</title>
<path fill="none" stroke="#191970" d="M198.3935,-112.2455C199.4374,-104.9382 200.9008,-94.6944 202.1851,-85.7046"/>
<polygon fill="#191970" stroke="#191970" points="205.673,-86.0372 203.6225,-75.6427 198.7434,-85.0472 205.673,-86.0372"/>
</g>
<!-- Node9 -->
<g id="node10" class="node">
<title>Node9</title>
<polygon fill="none" stroke="#bfbfbf" points="56.5,-56.5 56.5,-75.5 145.5,-75.5 145.5,-56.5 56.5,-56.5"/>
<text text-anchor="middle" x="101" y="-63.5" font-family="Helvetica,sans-Serif" font-size="10.00" fill="#000000">fmt/ostream.h</text>
</g>
<!-- Node7&#45;&gt;Node9 -->
<g id="edge10" class="edge">
<title>Node7&#45;&gt;Node9</title>
<path fill="none" stroke="#191970" d="M180.2781,-112.2455C165.4111,-103.5731 143.4534,-90.7645 126.4142,-80.825"/>
<polygon fill="#191970" stroke="#191970" points="127.9317,-77.6582 117.5303,-75.6427 124.4045,-83.7047 127.9317,-77.6582"/>
</g>
<!-- Node10&#45;&gt;Node4 -->
<g id="edge13" class="edge">
<title>Node10&#45;&gt;Node4</title>
<path fill="none" stroke="#191970" d="M640.3125,-173.8906C630.9041,-164.5581 616.4193,-150.1902 605.0751,-138.9374"/>
<polygon fill="#191970" stroke="#191970" points="607.3886,-136.3024 597.8241,-131.7449 602.4589,-141.2722 607.3886,-136.3024"/>
</g>
<!-- Node10&#45;&gt;Node5 -->
<g id="edge16" class="edge">
<title>Node10&#45;&gt;Node5</title>
<path fill="none" stroke="#191970" d="M649.9038,-173.9357C649.1923,-158.3993 645.3786,-127.8262 627,-112 597.0371,-86.1982 494.79,-74.6805 422.3008,-69.6702"/>
<polygon fill="#191970" stroke="#191970" points="422.4901,-66.1752 412.2804,-69.0056 422.0268,-73.1598 422.4901,-66.1752"/>
</g>
<!-- Node11 -->
<g id="node12" class="node">
<title>Node11</title>
<polygon fill="none" stroke="#bfbfbf" points="674,-112.5 674,-131.5 724,-131.5 724,-112.5 674,-112.5"/>
<text text-anchor="middle" x="699" y="-119.5" font-family="Helvetica,sans-Serif" font-size="10.00" fill="#000000">chrono</text>
</g>
<!-- Node10&#45;&gt;Node11 -->
<g id="edge12" class="edge">
<title>Node10&#45;&gt;Node11</title>
<path fill="none" stroke="#191970" d="M657.6563,-173.8906C664.9489,-164.7376 676.1007,-150.7409 684.9852,-139.59"/>
<polygon fill="#191970" stroke="#191970" points="687.7417,-141.747 691.2358,-131.7449 682.267,-137.3849 687.7417,-141.747"/>
</g>
<!-- Node12 -->
<g id="node13" class="node">
<title>Node12</title>
<polygon fill="none" stroke="#bfbfbf" points="742,-112.5 742,-131.5 790,-131.5 790,-112.5 742,-112.5"/>
<text text-anchor="middle" x="766" y="-119.5" font-family="Helvetica,sans-Serif" font-size="10.00" fill="#000000">vector</text>
</g>
<!-- Node10&#45;&gt;Node12 -->
<g id="edge14" class="edge">
<title>Node10&#45;&gt;Node12</title>
<path fill="none" stroke="#191970" d="M668.125,-173.8906C687.1083,-163.8262 717.1373,-147.9057 738.9307,-136.3514"/>
<polygon fill="#191970" stroke="#191970" points="740.8066,-139.3184 748.0023,-131.5419 737.5277,-133.1338 740.8066,-139.3184"/>
</g>
<!-- Node13 -->
<g id="node14" class="node">
<title>Node13</title>
<polygon fill="none" stroke="#bfbfbf" points="495.5,-112.5 495.5,-131.5 540.5,-131.5 540.5,-112.5 495.5,-112.5"/>
<text text-anchor="middle" x="518" y="-119.5" font-family="Helvetica,sans-Serif" font-size="10.00" fill="#000000">string</text>
</g>
<!-- Node10&#45;&gt;Node13 -->
<g id="edge15" class="edge">
<title>Node10&#45;&gt;Node13</title>
<path fill="none" stroke="#191970" d="M629.375,-173.8906C607.4827,-163.6908 572.6807,-147.4763 547.8073,-135.8875"/>
<polygon fill="#191970" stroke="#191970" points="549.0228,-132.5926 538.4802,-131.5419 546.0665,-138.9377 549.0228,-132.5926"/>
</g>
<!-- Node14&#45;&gt;Node4 -->
<g id="edge19" class="edge">
<title>Node14&#45;&gt;Node4</title>
<path fill="none" stroke="#191970" d="M462.6082,-168.4554C490.1842,-158.239 526.2942,-144.8609 552.6782,-135.0861"/>
<polygon fill="#191970" stroke="#191970" points="554.1147,-138.2864 562.2759,-131.5303 551.6828,-131.7224 554.1147,-138.2864"/>
</g>
<!-- Node14&#45;&gt;Node5 -->
<g id="edge21" class="edge">
<title>Node14&#45;&gt;Node5</title>
<path fill="none" stroke="#191970" d="M404.4095,-168.1419C394.217,-158.5389 381.7174,-145.4688 373,-132 363.6583,-117.5665 356.5063,-99.37 351.9173,-85.7407"/>
<polygon fill="#191970" stroke="#191970" points="355.1673,-84.412 348.7937,-75.9487 348.4984,-86.5394 355.1673,-84.412"/>
</g>
<!-- Node14&#45;&gt;Node13 -->
<g id="edge18" class="edge">
<title>Node14&#45;&gt;Node13</title>
<path fill="none" stroke="#191970" d="M445.7303,-168.2977C460.5362,-158.8127 479.5228,-146.6495 494.3193,-137.1705"/>
<polygon fill="#191970" stroke="#191970" points="496.3835,-140.0047 502.9159,-131.6633 492.6075,-134.1105 496.3835,-140.0047"/>
</g>
<!-- Node15 -->
<g id="node16" class="node">
<title>Node15</title>
<polygon fill="none" stroke="#bfbfbf" points="382.5,-112.5 382.5,-131.5 477.5,-131.5 477.5,-112.5 382.5,-112.5"/>
<text text-anchor="middle" x="430" y="-119.5" font-family="Helvetica,sans-Serif" font-size="10.00" fill="#000000">unordered_map</text>
</g>
<!-- Node14&#45;&gt;Node15 -->
<g id="edge20" class="edge">
<title>Node14&#45;&gt;Node15</title>
<path fill="none" stroke="#191970" d="M423.9775,-168.2977C425.0186,-160.2945 426.3077,-150.3843 427.4258,-141.7889"/>
<polygon fill="#191970" stroke="#191970" points="430.8998,-142.2149 428.7191,-131.8469 423.9583,-141.3119 430.8998,-142.2149"/>
</g>
<!-- Node16&#45;&gt;Node7 -->
<g id="edge23" class="edge">
<title>Node16&#45;&gt;Node7</title>
<path fill="none" stroke="#191970" d="M164.9375,-173.8906C170.4267,-165.0068 178.7353,-151.5601 185.519,-140.5811"/>
<polygon fill="#191970" stroke="#191970" points="188.6998,-142.0917 190.9788,-131.7449 182.7449,-138.4122 188.6998,-142.0917"/>
</g>
</g>
</svg>
        <g id="navigator" transform="translate(0 0)" fill="#404254">
                <rect fill="#f2f5e9" fill-opacity="0.5" stroke="#606060" stroke-width=".5" x="0" y="0" width="60" height="60"/>
                <use id="zoomplus" xlink:href="#zoomPlus" x="17" y="9" onmousedown="handleZoom(evt,'in')"/>
                <use id="zoomminus" xlink:href="#zoomMin" x="42" y="9" onmousedown="handleZoom(evt,'out')"/>
                <use id="reset" xlink:href="#resetDef" x="30" y="36" onmousedown="handleReset()"/>
                <g id="arrowUp" xlink:href="#dirArrow" transform="translate(30 24)" onmousedown="handlePan(0,-1)">
                  <use xlink:href="#rim" fill="#404040">
                        <set attributeName="fill" to="#808080" begin="arrowUp.mouseover" end="arrowUp.mouseout"/>
                  </use>
                  <path fill="none" stroke="white" stroke-width="1.5" d="M0,-3.0v7 M-2.5,-0.5L0,-3.0L2.5,-0.5"/>
                </g>
                <g id="arrowRight" xlink:href="#dirArrow" transform="rotate(90) translate(36 -43)" onmousedown="handlePan(1,0)">
                  <use xlink:href="#rim" fill="#404040">
                        <set attributeName="fill" to="#808080" begin="arrowRight.mouseover" end="arrowRight.mouseout"/>
                  </use>
                  <path fill="none" stroke="white" stroke-width="1.5" d="M0,-3.0v7 M-2.5,-0.5L0,-3.0L2.5,-0.5"/>
                </g>
                <g id="arrowDown" xlink:href="#dirArrow" transform="rotate(180) translate(-30 -48)" onmousedown="handlePan(0,1)">
                  <use xlink:href="#rim" fill="#404040">
                        <set attributeName="fill" to="#808080" begin="arrowDown.mouseover" end="arrowDown.mouseout"/>
                  </use>
                  <path fill="none" stroke="white" stroke-width="1.5" d="M0,-3.0v7 M-2.5,-0.5L0,-3.0L2.5,-0.5"/>
                </g>
                <g id="arrowLeft" xlink:href="#dirArrow" transform="rotate(270) translate(-36 17)" onmousedown="handlePan(-1,0)">
                  <use xlink:href="#rim" fill="#404040">
                        <set attributeName="fill" to="#808080" begin="arrowLeft.mouseover" end="arrowLeft.mouseout"/>
                  </use>
                  <path fill="none" stroke="white" stroke-width="1.5" d="M0,-3.0v7 M-2.5,-0.5L0,-3.0L2.5,-0.5"/>
                </g>
        </g>
        <svg viewBox="0 0 15 15" width="100%" height="30px" preserveAspectRatio="xMaxYMin meet">
         <g id="arrow_out" transform="scale(0.3 0.3)">
          <a xlink:href="LogCatHandler_8hpp__incl_org.svg" target="_base">
           <rect id="button" ry="5" rx="5" y="6" x="6" height="38" width="38"
                fill="#f2f5e9" fill-opacity="0.5" stroke="#606060" stroke-width="1.0"/>
           <path id="arrow"
             d="M 11.500037,31.436501 C 11.940474,20.09759 22.043105,11.32322 32.158766,21.979434 L 37.068811,17.246167 C 37.068811,17.246167 37.088388,32 37.088388,32 L 22.160133,31.978069 C 22.160133,31.978069 26.997745,27.140456 26.997745,27.140456 C 18.528582,18.264221 13.291696,25.230495 11.500037,31.436501 z"
             style="fill:#404040;"/>
          </a>
         </g>
        </svg>
</svg>
