<?xml version="1.0" encoding="UTF-8" standalone="no"?>
<!DOCTYPE svg PUBLIC "-//W3C//DTD SVG 1.1//EN"
 "http://www.w3.org/Graphics/SVG/1.1/DTD/svg11.dtd">
<!-- Generated by graphviz version 2.40.1 (20161225.0304)
 -->
<!-- Title: src/lug/Main/MainAndroid.hpp Pages: 1 -->
<svg width="302pt" height="84pt"
 viewBox="0.00 0.00 302.00 84.00" xmlns="http://www.w3.org/2000/svg" xmlns:xlink="http://www.w3.org/1999/xlink">
<g id="graph0" class="graph" transform="scale(1 1) rotate(0) translate(4 80)">
<title>src/lug/Main/MainAndroid.hpp</title>
<!-- Node0 -->
<g id="node1" class="node">
<title>Node0</title>
<polygon fill="#bfbfbf" stroke="#000000" points="61.5,-56.5 61.5,-75.5 228.5,-75.5 228.5,-56.5 61.5,-56.5"/>
<text text-anchor="middle" x="145" y="-63.5" font-family="Helvetica,sans-Serif" font-size="10.00" fill="#000000">src/lug/Main/MainAndroid.hpp</text>
</g>
<!-- Node1 -->
<g id="node2" class="node">
<title>Node1</title>
<polygon fill="none" stroke="#bfbfbf" points="0,-.5 0,-19.5 134,-19.5 134,-.5 0,-.5"/>
<text text-anchor="middle" x="67" y="-7.5" font-family="Helvetica,sans-Serif" font-size="10.00" fill="#000000">android/configuration.h</text>
</g>
<!-- Node0&#45;&gt;Node1 -->
<g id="edge1" class="edge">
<title>Node0&#45;&gt;Node1</title>
<path fill="none" stroke="#191970" d="M131.4134,-56.2455C119.6695,-47.814 102.4801,-35.4729 88.8118,-25.6598"/>
<polygon fill="#191970" stroke="#191970" points="90.5954,-22.6316 80.4309,-19.6427 86.5129,-28.3179 90.5954,-22.6316"/>
</g>
<!-- Node2 -->
<g id="node3" class="node">
<title>Node2</title>
<polygon fill="none" stroke="#bfbfbf" points="152,-.5 152,-19.5 294,-19.5 294,-.5 152,-.5"/>
<text text-anchor="middle" x="223" y="-7.5" font-family="Helvetica,sans-Serif" font-size="10.00" fill="#000000">android/native_activity.h</text>
</g>
<!-- Node0&#45;&gt;Node2 -->
<g id="edge2" class="edge">
<title>Node0&#45;&gt;Node2</title>
<path fill="none" stroke="#191970" d="M158.5866,-56.2455C170.3305,-47.814 187.5199,-35.4729 201.1882,-25.6598"/>
<polygon fill="#191970" stroke="#191970" points="203.4871,-28.3179 209.5691,-19.6427 199.4046,-22.6316 203.4871,-28.3179"/>
</g>
</g>
</svg>
