<?xml version="1.0" encoding="UTF-8" standalone="no"?>
<!DOCTYPE svg PUBLIC "-//W3C//DTD SVG 1.1//EN"
 "http://www.w3.org/Graphics/SVG/1.1/DTD/svg11.dtd">
<!-- Generated by graphviz version 2.40.1 (20161225.0304)
 -->
<!-- Title: src/lug/Main/MainAndroid.cpp Pages: 1 -->
<svg width="2263pt" height="442pt"
 viewBox="0.00 0.00 2263.00 442.00" xmlns="http://www.w3.org/2000/svg" xmlns:xlink="http://www.w3.org/1999/xlink">
<g id="graph0" class="graph" transform="scale(1 1) rotate(0) translate(4 438)">
<title>src/lug/Main/MainAndroid.cpp</title>
<!-- Node0 -->
<g id="node1" class="node">
<title>Node0</title>
<polygon fill="#bfbfbf" stroke="#000000" points="215,-414.5 215,-433.5 381,-433.5 381,-414.5 215,-414.5"/>
<text text-anchor="middle" x="298" y="-421.5" font-family="Helvetica,sans-Serif" font-size="10.00" fill="#000000">src/lug/Main/MainAndroid.cpp</text>
</g>
<!-- Node1 -->
<g id="node2" class="node">
<title>Node1</title>
<polygon fill="none" stroke="#bfbfbf" points="148.5,-353 148.5,-372 197.5,-372 197.5,-353 148.5,-353"/>
<text text-anchor="middle" x="173" y="-360" font-family="Helvetica,sans-Serif" font-size="10.00" fill="#000000">thread</text>
</g>
<!-- Node0&#45;&gt;Node1 -->
<g id="edge1" class="edge">
<title>Node0&#45;&gt;Node1</title>
<path fill="none" stroke="#191970" d="M278.4688,-414.3906C257.8292,-404.2359 225.0724,-388.1196 201.5398,-376.5416"/>
<polygon fill="#191970" stroke="#191970" points="202.912,-373.3161 192.3941,-372.0419 199.8218,-379.5971 202.912,-373.3161"/>
</g>
<!-- Node2 -->
<g id="node3" class="node">
<title>Node2</title>
<polygon fill="none" stroke="#bfbfbf" points="216,-353 216,-372 264,-372 264,-353 216,-353"/>
<text text-anchor="middle" x="240" y="-360" font-family="Helvetica,sans-Serif" font-size="10.00" fill="#000000">mutex</text>
</g>
<!-- Node0&#45;&gt;Node2 -->
<g id="edge2" class="edge">
<title>Node0&#45;&gt;Node2</title>
<path fill="none" stroke="#191970" d="M288.9375,-414.3906C280.2207,-405.1478 266.846,-390.966 256.2804,-379.7628"/>
<polygon fill="#191970" stroke="#191970" points="258.5976,-377.1186 249.1903,-372.2449 253.505,-381.9213 258.5976,-377.1186"/>
</g>
<!-- Node3 -->
<g id="node4" class="node">
<title>Node3</title>
<g id="a_node4"><a xlink:href="MainAndroid_8hpp.html" target="_top" xlink:title="lug/Main/MainAndroid.hpp">
<polygon fill="none" stroke="#000000" points="282.5,-353 282.5,-372 429.5,-372 429.5,-353 282.5,-353"/>
<text text-anchor="middle" x="356" y="-360" font-family="Helvetica,sans-Serif" font-size="10.00" fill="#000000">lug/Main/MainAndroid.hpp</text>
</a>
</g>
</g>
<!-- Node0&#45;&gt;Node3 -->
<g id="edge3" class="edge">
<title>Node0&#45;&gt;Node3</title>
<path fill="none" stroke="#191970" d="M307.0625,-414.3906C315.7793,-405.1478 329.154,-390.966 339.7196,-379.7628"/>
<polygon fill="#191970" stroke="#191970" points="342.495,-381.9213 346.8097,-372.2449 337.4024,-377.1186 342.495,-381.9213"/>
</g>
<!-- Node6 -->
<g id="node7" class="node">
<title>Node6</title>
<g id="a_node7"><a xlink:href="WindowImplAndroid_8hpp.html" target="_top" xlink:title="lug/Window/Android\l/WindowImplAndroid.hpp">
<polygon fill="none" stroke="#000000" points="659.5,-347.5 659.5,-377.5 802.5,-377.5 802.5,-347.5 659.5,-347.5"/>
<text text-anchor="start" x="667.5" y="-365.5" font-family="Helvetica,sans-Serif" font-size="10.00" fill="#000000">lug/Window/Android</text>
<text text-anchor="middle" x="731" y="-354.5" font-family="Helvetica,sans-Serif" font-size="10.00" fill="#000000">/WindowImplAndroid.hpp</text>
</a>
</g>
</g>
<!-- Node0&#45;&gt;Node6 -->
<g id="edge6" class="edge">
<title>Node0&#45;&gt;Node6</title>
<path fill="none" stroke="#191970" d="M365.1812,-414.4581C441.7997,-403.5758 567.0645,-385.7841 649.2763,-374.1074"/>
<polygon fill="#191970" stroke="#191970" points="649.9235,-377.5507 659.3319,-372.6792 648.9391,-370.6203 649.9235,-377.5507"/>
</g>
<!-- Node4 -->
<g id="node5" class="node">
<title>Node4</title>
<polygon fill="none" stroke="#bfbfbf" points="0,-230 0,-249 134,-249 134,-230 0,-230"/>
<text text-anchor="middle" x="67" y="-237" font-family="Helvetica,sans-Serif" font-size="10.00" fill="#000000">android/configuration.h</text>
</g>
<!-- Node3&#45;&gt;Node4 -->
<g id="edge4" class="edge">
<title>Node3&#45;&gt;Node4</title>
<path fill="none" stroke="#191970" d="M333.3227,-352.8484C282.2529,-331.1128 158.0992,-278.2723 99.1258,-253.1729"/>
<polygon fill="#191970" stroke="#191970" points="100.144,-249.8025 89.572,-249.1068 97.4026,-256.2434 100.144,-249.8025"/>
</g>
<!-- Node5 -->
<g id="node6" class="node">
<title>Node5</title>
<polygon fill="none" stroke="#bfbfbf" points="285,-291.5 285,-310.5 427,-310.5 427,-291.5 285,-291.5"/>
<text text-anchor="middle" x="356" y="-298.5" font-family="Helvetica,sans-Serif" font-size="10.00" fill="#000000">android/native_activity.h</text>
</g>
<!-- Node3&#45;&gt;Node5 -->
<g id="edge5" class="edge">
<title>Node3&#45;&gt;Node5</title>
<path fill="none" stroke="#191970" d="M356,-352.8906C356,-344.3657 356,-331.6392 356,-320.9235"/>
<polygon fill="#191970" stroke="#191970" points="359.5001,-320.7448 356,-310.7449 352.5001,-320.7449 359.5001,-320.7448"/>
</g>
<!-- Node6&#45;&gt;Node5 -->
<g id="edge47" class="edge">
<title>Node6&#45;&gt;Node5</title>
<path fill="none" stroke="#191970" d="M659.1399,-350.7149C591.3739,-339.6013 490.5445,-323.0653 424.0527,-312.1606"/>
<polygon fill="#191970" stroke="#191970" points="424.5279,-308.6919 414.0932,-310.5273 423.395,-315.5996 424.5279,-308.6919"/>
</g>
<!-- Node7 -->
<g id="node8" class="node">
<title>Node7</title>
<g id="a_node8"><a xlink:href="Vector_8hpp.html" target="_top" xlink:title="lug/Math/Vector.hpp">
<polygon fill="none" stroke="#000000" points="781.5,-168.5 781.5,-187.5 900.5,-187.5 900.5,-168.5 781.5,-168.5"/>
<text text-anchor="middle" x="841" y="-175.5" font-family="Helvetica,sans-Serif" font-size="10.00" fill="#000000">lug/Math/Vector.hpp</text>
</a>
</g>
</g>
<!-- Node6&#45;&gt;Node7 -->
<g id="edge7" class="edge">
<title>Node6&#45;&gt;Node7</title>
<path fill="none" stroke="#191970" d="M753.6694,-347.4087C779.1401,-328.9979 819.2407,-295.2931 837,-255 844.9502,-236.9623 845.0776,-214.198 843.7514,-198.1132"/>
<polygon fill="#191970" stroke="#191970" points="847.1841,-197.3058 842.6198,-187.7446 840.2254,-198.0653 847.1841,-197.3058"/>
</g>
<!-- Node24 -->
<g id="node23" class="node">
<title>Node24</title>
<g id="a_node23"><a xlink:href="Window_2Window_8hpp.html" target="_top" xlink:title="lug/Window/Window.hpp">
<polygon fill="none" stroke="#000000" points="1164,-291.5 1164,-310.5 1304,-310.5 1304,-291.5 1164,-291.5"/>
<text text-anchor="middle" x="1234" y="-298.5" font-family="Helvetica,sans-Serif" font-size="10.00" fill="#000000">lug/Window/Window.hpp</text>
</a>
</g>
</g>
<!-- Node6&#45;&gt;Node24 -->
<g id="edge24" class="edge">
<title>Node6&#45;&gt;Node24</title>
<path fill="none" stroke="#191970" d="M802.5335,-353.7539C895.3978,-342.3997 1057.0066,-322.6403 1153.8913,-310.7946"/>
<polygon fill="#191970" stroke="#191970" points="1154.427,-314.2553 1163.9283,-309.5674 1153.5774,-307.307 1154.427,-314.2553"/>
</g>
<!-- Node36 -->
<g id="node35" class="node">
<title>Node36</title>
<polygon fill="none" stroke="#bfbfbf" points="734.5,-230 734.5,-249 827.5,-249 827.5,-230 734.5,-230"/>
<text text-anchor="middle" x="781" y="-237" font-family="Helvetica,sans-Serif" font-size="10.00" fill="#000000">android/input.h</text>
</g>
<!-- Node6&#45;&gt;Node36 -->
<g id="edge45" class="edge">
<title>Node6&#45;&gt;Node36</title>
<path fill="none" stroke="#191970" d="M741.6937,-347.332C748.3064,-337.3826 756.5442,-323.8758 762,-311 769.1877,-294.0369 774.2856,-273.6361 777.3792,-258.9753"/>
<polygon fill="#191970" stroke="#191970" points="780.8382,-259.5255 779.3555,-249.0349 773.9726,-258.1604 780.8382,-259.5255"/>
</g>
<!-- Node37 -->
<g id="node36" class="node">
<title>Node37</title>
<polygon fill="none" stroke="#bfbfbf" points="609.5,-291.5 609.5,-310.5 752.5,-310.5 752.5,-291.5 609.5,-291.5"/>
<text text-anchor="middle" x="681" y="-298.5" font-family="Helvetica,sans-Serif" font-size="10.00" fill="#000000">android/native_window.h</text>
</g>
<!-- Node6&#45;&gt;Node37 -->
<g id="edge46" class="edge">
<title>Node6&#45;&gt;Node37</title>
<path fill="none" stroke="#191970" d="M718.6404,-347.2977C711.6276,-338.672 702.814,-327.8312 695.4786,-318.8087"/>
<polygon fill="#191970" stroke="#191970" points="698.0297,-316.3982 689.0056,-310.8469 692.5982,-320.8141 698.0297,-316.3982"/>
</g>
<!-- Node38 -->
<g id="node37" class="node">
<title>Node38</title>
<g id="a_node37"><a xlink:href="gestureDetector_8hpp.html" target="_top" xlink:title="gestureDetector.hpp">
<polygon fill="none" stroke="#000000" points="445.5,-291.5 445.5,-310.5 564.5,-310.5 564.5,-291.5 445.5,-291.5"/>
<text text-anchor="middle" x="505" y="-298.5" font-family="Helvetica,sans-Serif" font-size="10.00" fill="#000000">gestureDetector.hpp</text>
</a>
</g>
</g>
<!-- Node6&#45;&gt;Node38 -->
<g id="edge48" class="edge">
<title>Node6&#45;&gt;Node38</title>
<path fill="none" stroke="#191970" d="M675.7142,-347.4554C637.0132,-336.9239 585.966,-323.0328 549.8041,-313.1923"/>
<polygon fill="#191970" stroke="#191970" points="550.5901,-309.779 540.022,-310.5303 548.7521,-316.5333 550.5901,-309.779"/>
</g>
<!-- Node43 -->
<g id="node42" class="node">
<title>Node43</title>
<g id="a_node42"><a xlink:href="Logger_8hpp.html" target="_top" xlink:title="lug/System/Logger/Logger.hpp">
<polygon fill="none" stroke="#000000" points="1687,-291.5 1687,-310.5 1859,-310.5 1859,-291.5 1687,-291.5"/>
<text text-anchor="middle" x="1773" y="-298.5" font-family="Helvetica,sans-Serif" font-size="10.00" fill="#000000">lug/System/Logger/Logger.hpp</text>
</a>
</g>
</g>
<!-- Node6&#45;&gt;Node43 -->
<g id="edge57" class="edge">
<title>Node6&#45;&gt;Node43</title>
<path fill="none" stroke="#191970" d="M802.6209,-358.2729C985.4091,-347.4845 1469.3544,-318.9215 1676.5978,-306.6898"/>
<polygon fill="#191970" stroke="#191970" points="1677.078,-310.1676 1686.8544,-306.0844 1676.6655,-303.1798 1677.078,-310.1676"/>
</g>
<!-- Node8 -->
<g id="node9" class="node">
<title>Node8</title>
<polygon fill="none" stroke="#bfbfbf" points="937,-56.5 937,-75.5 987,-75.5 987,-56.5 937,-56.5"/>
<text text-anchor="middle" x="962" y="-63.5" font-family="Helvetica,sans-Serif" font-size="10.00" fill="#000000">cstdint</text>
</g>
<!-- Node7&#45;&gt;Node8 -->
<g id="edge8" class="edge">
<title>Node7&#45;&gt;Node8</title>
<path fill="none" stroke="#191970" d="M851.3164,-168.4509C871.9442,-149.3574 918.4943,-106.2697 944.1672,-82.5063"/>
<polygon fill="#191970" stroke="#191970" points="946.7485,-84.8864 951.7097,-75.5249 941.9935,-79.7492 946.7485,-84.8864"/>
</g>
<!-- Node9 -->
<g id="node10" class="node">
<title>Node9</title>
<g id="a_node10"><a xlink:href="Matrix_8hpp.html" target="_top" xlink:title="lug/Math/Matrix.hpp">
<polygon fill="none" stroke="#000000" points="613,-112.5 613,-131.5 731,-131.5 731,-112.5 613,-112.5"/>
<text text-anchor="middle" x="672" y="-119.5" font-family="Helvetica,sans-Serif" font-size="10.00" fill="#000000">lug/Math/Matrix.hpp</text>
</a>
</g>
</g>
<!-- Node7&#45;&gt;Node9 -->
<g id="edge9" class="edge">
<title>Node7&#45;&gt;Node9</title>
<path fill="none" stroke="#191970" d="M811.9479,-168.3733C783.8457,-159.0613 741.0946,-144.8953 710.2393,-134.671"/>
<polygon fill="#191970" stroke="#191970" points="711.2664,-131.3243 700.673,-131.5011 709.0645,-137.969 711.2664,-131.3243"/>
</g>
<!-- Node23 -->
<g id="node22" class="node">
<title>Node23</title>
<g id="a_node22"><a xlink:href="Vector_8inl.html" target="_top" xlink:title="lug/Math/Vector.inl">
<polygon fill="none" stroke="#000000" points="749.5,-112.5 749.5,-131.5 862.5,-131.5 862.5,-112.5 749.5,-112.5"/>
<text text-anchor="middle" x="806" y="-119.5" font-family="Helvetica,sans-Serif" font-size="10.00" fill="#000000">lug/Math/Vector.inl</text>
</a>
</g>
</g>
<!-- Node7&#45;&gt;Node23 -->
<g id="edge23" class="edge">
<title>Node7&#45;&gt;Node23</title>
<path fill="none" stroke="#191970" d="M834.9035,-168.2455C830.0855,-160.5367 823.2249,-149.5598 817.3968,-140.2348"/>
<polygon fill="#191970" stroke="#191970" points="820.2947,-138.2677 812.0267,-131.6427 814.3587,-141.9777 820.2947,-138.2677"/>
</g>
<!-- Node9&#45;&gt;Node8 -->
<g id="edge10" class="edge">
<title>Node9&#45;&gt;Node8</title>
<path fill="none" stroke="#191970" d="M731.0911,-113.2443C780.9795,-105.4294 854.4458,-92.9336 927.0572,-76.0354"/>
<polygon fill="#191970" stroke="#191970" points="927.8993,-79.4329 936.8301,-73.7328 926.2939,-72.6195 927.8993,-79.4329"/>
</g>
<!-- Node10 -->
<g id="node11" class="node">
<title>Node10</title>
<polygon fill="none" stroke="#bfbfbf" points="722.5,-56.5 722.5,-75.5 781.5,-75.5 781.5,-56.5 722.5,-56.5"/>
<text text-anchor="middle" x="752" y="-63.5" font-family="Helvetica,sans-Serif" font-size="10.00" fill="#000000">valarray</text>
</g>
<!-- Node9&#45;&gt;Node10 -->
<g id="edge11" class="edge">
<title>Node9&#45;&gt;Node10</title>
<path fill="none" stroke="#191970" d="M685.9349,-112.2455C698.0947,-103.7337 715.9464,-91.2375 730.0285,-81.3801"/>
<polygon fill="#191970" stroke="#191970" points="732.0395,-84.2447 738.2248,-75.6427 728.0253,-78.51 732.0395,-84.2447"/>
</g>
<!-- Node11 -->
<g id="node12" class="node">
<title>Node11</title>
<g id="a_node12"><a xlink:href="Math_2Export_8hpp.html" target="_top" xlink:title="lug/Math/Export.hpp">
<polygon fill="none" stroke="#000000" points="799.5,-56.5 799.5,-75.5 918.5,-75.5 918.5,-56.5 799.5,-56.5"/>
<text text-anchor="middle" x="859" y="-63.5" font-family="Helvetica,sans-Serif" font-size="10.00" fill="#000000">lug/Math/Export.hpp</text>
</a>
</g>
</g>
<!-- Node9&#45;&gt;Node11 -->
<g id="edge12" class="edge">
<title>Node9&#45;&gt;Node11</title>
<path fill="none" stroke="#191970" d="M704.1464,-112.3733C735.5109,-102.9807 783.3665,-88.6496 817.5716,-78.4064"/>
<polygon fill="#191970" stroke="#191970" points="818.6975,-81.7229 827.273,-75.5011 816.6893,-75.0171 818.6975,-81.7229"/>
</g>
<!-- Node13 -->
<g id="node14" class="node">
<title>Node13</title>
<g id="a_node14"><a xlink:href="ValArray_8hpp.html" target="_top" xlink:title="lug/Math/ValArray.hpp">
<polygon fill="none" stroke="#000000" points="425,-56.5 425,-75.5 555,-75.5 555,-56.5 425,-56.5"/>
<text text-anchor="middle" x="490" y="-63.5" font-family="Helvetica,sans-Serif" font-size="10.00" fill="#000000">lug/Math/ValArray.hpp</text>
</a>
</g>
</g>
<!-- Node9&#45;&gt;Node13 -->
<g id="edge14" class="edge">
<title>Node9&#45;&gt;Node13</title>
<path fill="none" stroke="#191970" d="M640.7131,-112.3733C610.3182,-103.021 564.0107,-88.7725 530.75,-78.5385"/>
<polygon fill="#191970" stroke="#191970" points="531.4658,-75.0968 520.8786,-75.5011 529.4071,-81.7873 531.4658,-75.0968"/>
</g>
<!-- Node19 -->
<g id="node20" class="node">
<title>Node19</title>
<g id="a_node20"><a xlink:href="Debug_8hpp.html" target="_top" xlink:title="lug/System/Debug.hpp">
<polygon fill="none" stroke="#ff0000" points="573.5,-56.5 573.5,-75.5 704.5,-75.5 704.5,-56.5 573.5,-56.5"/>
<text text-anchor="middle" x="639" y="-63.5" font-family="Helvetica,sans-Serif" font-size="10.00" fill="#000000">lug/System/Debug.hpp</text>
</a>
</g>
</g>
<!-- Node9&#45;&gt;Node19 -->
<g id="edge20" class="edge">
<title>Node9&#45;&gt;Node19</title>
<path fill="none" stroke="#191970" d="M666.2518,-112.2455C661.7565,-104.617 655.3752,-93.7881 649.9175,-84.5267"/>
<polygon fill="#191970" stroke="#191970" points="652.7747,-82.4811 644.6823,-75.6427 646.7439,-86.035 652.7747,-82.4811"/>
</g>
<!-- Node22 -->
<g id="node21" class="node">
<title>Node22</title>
<g id="a_node21"><a xlink:href="Matrix_8inl.html" target="_top" xlink:title="lug/Math/Matrix.inl">
<polygon fill="none" stroke="#000000" points="295,-56.5 295,-75.5 407,-75.5 407,-56.5 295,-56.5"/>
<text text-anchor="middle" x="351" y="-63.5" font-family="Helvetica,sans-Serif" font-size="10.00" fill="#000000">lug/Math/Matrix.inl</text>
</a>
</g>
</g>
<!-- Node9&#45;&gt;Node22 -->
<g id="edge22" class="edge">
<title>Node9&#45;&gt;Node22</title>
<path fill="none" stroke="#191970" d="M617.1829,-112.4369C561.3229,-102.6918 474.7179,-87.5832 415.5695,-77.2645"/>
<polygon fill="#191970" stroke="#191970" points="416.0438,-73.7944 405.591,-75.5237 414.8407,-80.6903 416.0438,-73.7944"/>
</g>
<!-- Node12 -->
<g id="node13" class="node">
<title>Node12</title>
<g id="a_node13"><a xlink:href="Config_8hpp.html" target="_top" xlink:title="lug/Config.hpp">
<polygon fill="none" stroke="#000000" points="1091.5,-.5 1091.5,-19.5 1180.5,-19.5 1180.5,-.5 1091.5,-.5"/>
<text text-anchor="middle" x="1136" y="-7.5" font-family="Helvetica,sans-Serif" font-size="10.00" fill="#000000">lug/Config.hpp</text>
</a>
</g>
</g>
<!-- Node11&#45;&gt;Node12 -->
<g id="edge13" class="edge">
<title>Node11&#45;&gt;Node12</title>
<path fill="none" stroke="#191970" d="M906.3033,-56.4369C954.8324,-46.6259 1030.2522,-31.3786 1081.3132,-21.0558"/>
<polygon fill="#191970" stroke="#191970" points="1082.0774,-24.4722 1091.1855,-19.06 1080.6902,-17.611 1082.0774,-24.4722"/>
</g>
<!-- Node14 -->
<g id="node15" class="node">
<title>Node14</title>
<polygon fill="none" stroke="#bfbfbf" points="679.5,-.5 679.5,-19.5 744.5,-19.5 744.5,-.5 679.5,-.5"/>
<text text-anchor="middle" x="712" y="-7.5" font-family="Helvetica,sans-Serif" font-size="10.00" fill="#000000">algorithm</text>
</g>
<!-- Node13&#45;&gt;Node14 -->
<g id="edge15" class="edge">
<title>Node13&#45;&gt;Node14</title>
<path fill="none" stroke="#191970" d="M527.9109,-56.4369C567.1835,-46.5303 628.4299,-31.0807 669.3632,-20.7552"/>
<polygon fill="#191970" stroke="#191970" points="670.4664,-24.0867 679.3065,-18.247 668.7542,-17.2993 670.4664,-24.0867"/>
</g>
<!-- Node15 -->
<g id="node16" class="node">
<title>Node15</title>
<polygon fill="none" stroke="#bfbfbf" points="331,-.5 331,-19.5 375,-19.5 375,-.5 331,-.5"/>
<text text-anchor="middle" x="353" y="-7.5" font-family="Helvetica,sans-Serif" font-size="10.00" fill="#000000">array</text>
</g>
<!-- Node13&#45;&gt;Node15 -->
<g id="edge16" class="edge">
<title>Node13&#45;&gt;Node15</title>
<path fill="none" stroke="#191970" d="M466.4489,-56.3733C443.8908,-47.1524 409.6888,-33.1721 384.7358,-22.9723"/>
<polygon fill="#191970" stroke="#191970" points="385.9175,-19.6743 375.3366,-19.1303 383.2689,-26.1539 385.9175,-19.6743"/>
</g>
<!-- Node16 -->
<g id="node17" class="node">
<title>Node16</title>
<polygon fill="none" stroke="#bfbfbf" points="393,-.5 393,-19.5 443,-19.5 443,-.5 393,-.5"/>
<text text-anchor="middle" x="418" y="-7.5" font-family="Helvetica,sans-Serif" font-size="10.00" fill="#000000">cstring</text>
</g>
<!-- Node13&#45;&gt;Node16 -->
<g id="edge17" class="edge">
<title>Node13&#45;&gt;Node16</title>
<path fill="none" stroke="#191970" d="M477.4586,-56.2455C466.7213,-47.8943 451.0527,-35.7076 438.4953,-25.9408"/>
<polygon fill="#191970" stroke="#191970" points="440.4401,-23.0194 430.3977,-19.6427 436.1425,-28.5449 440.4401,-23.0194"/>
</g>
<!-- Node17 -->
<g id="node18" class="node">
<title>Node17</title>
<polygon fill="none" stroke="#bfbfbf" points="461.5,-.5 461.5,-19.5 518.5,-19.5 518.5,-.5 461.5,-.5"/>
<text text-anchor="middle" x="490" y="-7.5" font-family="Helvetica,sans-Serif" font-size="10.00" fill="#000000">numeric</text>
</g>
<!-- Node13&#45;&gt;Node17 -->
<g id="edge18" class="edge">
<title>Node13&#45;&gt;Node17</title>
<path fill="none" stroke="#191970" d="M490,-56.2455C490,-48.9382 490,-38.6944 490,-29.7046"/>
<polygon fill="#191970" stroke="#191970" points="493.5001,-29.6426 490,-19.6427 486.5001,-29.6427 493.5001,-29.6426"/>
</g>
<!-- Node18 -->
<g id="node19" class="node">
<title>Node18</title>
<g id="a_node19"><a xlink:href="ValArray_8inl.html" target="_top" xlink:title="lug/Math/ValArray.inl">
<polygon fill="none" stroke="#000000" points="537,-.5 537,-19.5 661,-19.5 661,-.5 537,-.5"/>
<text text-anchor="middle" x="599" y="-7.5" font-family="Helvetica,sans-Serif" font-size="10.00" fill="#000000">lug/Math/ValArray.inl</text>
</a>
</g>
</g>
<!-- Node13&#45;&gt;Node18 -->
<g id="edge19" class="edge">
<title>Node13&#45;&gt;Node18</title>
<path fill="none" stroke="#191970" d="M508.9864,-56.2455C526.1792,-47.4125 551.7238,-34.2887 571.2132,-24.2758"/>
<polygon fill="#191970" stroke="#191970" points="572.9359,-27.3257 580.2312,-19.6427 569.737,-21.0993 572.9359,-27.3257"/>
</g>
<!-- Node19&#45;&gt;Node12 -->
<g id="edge21" class="edge">
<title>Node19&#45;&gt;Node12</title>
<path fill="none" stroke="#191970" d="M704.8387,-57.1307C707.9348,-56.7422 711.0006,-56.3634 714,-56 845.461,-40.0733 1000.2762,-23.8425 1080.8984,-15.5806"/>
<polygon fill="#191970" stroke="#191970" points="1081.7082,-19.0161 1091.3002,-14.5167 1080.9959,-12.0524 1081.7082,-19.0161"/>
</g>
<!-- Node24&#45;&gt;Node7 -->
<g id="edge29" class="edge">
<title>Node24&#45;&gt;Node7</title>
<path fill="none" stroke="#191970" d="M1163.9135,-296.3077C1083.2088,-289.9746 956.3109,-276.8887 914,-255 887.5283,-241.3054 865.3581,-214.1638 852.6263,-196.043"/>
<polygon fill="#191970" stroke="#191970" points="855.3564,-193.8321 846.8559,-187.5083 849.5574,-197.7529 855.3564,-193.8321"/>
</g>
<!-- Node25 -->
<g id="node24" class="node">
<title>Node25</title>
<polygon fill="none" stroke="#bfbfbf" points="1541.5,-168.5 1541.5,-187.5 1600.5,-187.5 1600.5,-168.5 1541.5,-168.5"/>
<text text-anchor="middle" x="1571" y="-175.5" font-family="Helvetica,sans-Serif" font-size="10.00" fill="#000000">memory</text>
</g>
<!-- Node24&#45;&gt;Node25 -->
<g id="edge25" class="edge">
<title>Node24&#45;&gt;Node25</title>
<path fill="none" stroke="#191970" d="M1277.2352,-291.4228C1311.9685,-283.2248 1361.7507,-270.3334 1404,-255 1454.8056,-236.5613 1511.446,-208.8371 1543.9871,-192.1714"/>
<polygon fill="#191970" stroke="#191970" points="1545.6076,-195.2737 1552.8905,-187.5788 1542.3986,-189.0526 1545.6076,-195.2737"/>
</g>
<!-- Node26 -->
<g id="node25" class="node">
<title>Node26</title>
<polygon fill="none" stroke="#bfbfbf" points="1108.5,-230 1108.5,-249 1155.5,-249 1155.5,-230 1108.5,-230"/>
<text text-anchor="middle" x="1132" y="-237" font-family="Helvetica,sans-Serif" font-size="10.00" fill="#000000">queue</text>
</g>
<!-- Node24&#45;&gt;Node26 -->
<g id="edge26" class="edge">
<title>Node24&#45;&gt;Node26</title>
<path fill="none" stroke="#191970" d="M1218.0625,-291.3906C1201.5949,-281.4616 1175.6742,-265.833 1156.5796,-254.3201"/>
<polygon fill="#191970" stroke="#191970" points="1158.1966,-251.2081 1147.8256,-249.0419 1154.5822,-257.2027 1158.1966,-251.2081"/>
</g>
<!-- Node27 -->
<g id="node26" class="node">
<title>Node27</title>
<polygon fill="none" stroke="#bfbfbf" points="1712.5,-168.5 1712.5,-187.5 1757.5,-187.5 1757.5,-168.5 1712.5,-168.5"/>
<text text-anchor="middle" x="1735" y="-175.5" font-family="Helvetica,sans-Serif" font-size="10.00" fill="#000000">string</text>
</g>
<!-- Node24&#45;&gt;Node27 -->
<g id="edge27" class="edge">
<title>Node24&#45;&gt;Node27</title>
<path fill="none" stroke="#191970" d="M1304.078,-298.7371C1430.2677,-294.0231 1685.4935,-281.3281 1716,-255 1732.2379,-240.9861 1735.7494,-215.5158 1736.0101,-197.7207"/>
<polygon fill="#191970" stroke="#191970" points="1739.5068,-197.5027 1735.8253,-187.5681 1732.508,-197.6302 1739.5068,-197.5027"/>
</g>
<!-- Node28 -->
<g id="node27" class="node">
<title>Node28</title>
<polygon fill="none" stroke="#bfbfbf" points="1389.5,-168.5 1389.5,-187.5 1484.5,-187.5 1484.5,-168.5 1389.5,-168.5"/>
<text text-anchor="middle" x="1437" y="-175.5" font-family="Helvetica,sans-Serif" font-size="10.00" fill="#000000">unordered_map</text>
</g>
<!-- Node24&#45;&gt;Node28 -->
<g id="edge28" class="edge">
<title>Node24&#45;&gt;Node28</title>
<path fill="none" stroke="#191970" d="M1286.5065,-291.4715C1314.5467,-284.5876 1348.6168,-273.21 1375,-255 1397.4059,-239.5352 1415.8494,-213.6719 1426.6384,-196.2341"/>
<polygon fill="#191970" stroke="#191970" points="1429.7108,-197.9153 1431.8214,-187.5328 1423.6969,-194.333 1429.7108,-197.9153"/>
</g>
<!-- Node29 -->
<g id="node28" class="node">
<title>Node29</title>
<g id="a_node28"><a xlink:href="Event_8hpp.html" target="_top" xlink:title="lug/Window/Event.hpp">
<polygon fill="none" stroke="#000000" points="922.5,-230 922.5,-249 1051.5,-249 1051.5,-230 922.5,-230"/>
<text text-anchor="middle" x="987" y="-237" font-family="Helvetica,sans-Serif" font-size="10.00" fill="#000000">lug/Window/Event.hpp</text>
</a>
</g>
</g>
<!-- Node24&#45;&gt;Node29 -->
<g id="edge30" class="edge">
<title>Node24&#45;&gt;Node29</title>
<path fill="none" stroke="#191970" d="M1195.6773,-291.4581C1152.503,-280.7082 1082.2505,-263.2162 1035.3416,-251.5365"/>
<polygon fill="#191970" stroke="#191970" points="1035.962,-248.0842 1025.4126,-249.0643 1034.2707,-254.8768 1035.962,-248.0842"/>
</g>
<!-- Node31 -->
<g id="node30" class="node">
<title>Node31</title>
<g id="a_node30"><a xlink:href="Window_2Export_8hpp.html" target="_top" xlink:title="lug/Window/Export.hpp">
<polygon fill="none" stroke="#000000" points="1069,-112.5 1069,-131.5 1203,-131.5 1203,-112.5 1069,-112.5"/>
<text text-anchor="middle" x="1136" y="-119.5" font-family="Helvetica,sans-Serif" font-size="10.00" fill="#000000">lug/Window/Export.hpp</text>
</a>
</g>
</g>
<!-- Node24&#45;&gt;Node31 -->
<g id="edge40" class="edge">
<title>Node24&#45;&gt;Node31</title>
<path fill="none" stroke="#191970" d="M1259.7988,-291.4178C1275.6011,-284.059 1294.5507,-272.2079 1304,-255 1322.6126,-221.1049 1328.4797,-198.7248 1305,-168 1293.1705,-152.5202 1250.8406,-141.012 1211.5081,-133.3778"/>
<polygon fill="#191970" stroke="#191970" points="1212.0668,-129.9216 1201.5933,-131.5203 1210.7777,-136.8019 1212.0668,-129.9216"/>
</g>
<!-- Node32 -->
<g id="node31" class="node">
<title>Node32</title>
<g id="a_node31"><a xlink:href="Keyboard_8hpp.html" target="_top" xlink:title="lug/Window/Keyboard.hpp">
<polygon fill="none" stroke="#000000" points="1146.5,-168.5 1146.5,-187.5 1295.5,-187.5 1295.5,-168.5 1146.5,-168.5"/>
<text text-anchor="middle" x="1221" y="-175.5" font-family="Helvetica,sans-Serif" font-size="10.00" fill="#000000">lug/Window/Keyboard.hpp</text>
</a>
</g>
</g>
<!-- Node24&#45;&gt;Node32 -->
<g id="edge41" class="edge">
<title>Node24&#45;&gt;Node32</title>
<path fill="none" stroke="#191970" d="M1188.9209,-291.4253C1154.2949,-283.0495 1110.648,-269.9132 1100,-255 1091.994,-243.787 1092.1779,-235.342 1100,-224 1108.7408,-211.326 1142.7848,-199.042 1172.5436,-190.3609"/>
<polygon fill="#191970" stroke="#191970" points="1173.7618,-193.6536 1182.4287,-187.5596 1171.8533,-186.9188 1173.7618,-193.6536"/>
</g>
<!-- Node34 -->
<g id="node33" class="node">
<title>Node34</title>
<g id="a_node33"><a xlink:href="WindowHandle_8hpp.html" target="_top" xlink:title="lug/Window/WindowHandle.hpp">
<polygon fill="none" stroke="#000000" points="1255.5,-112.5 1255.5,-131.5 1430.5,-131.5 1430.5,-112.5 1255.5,-112.5"/>
<text text-anchor="middle" x="1343" y="-119.5" font-family="Helvetica,sans-Serif" font-size="10.00" fill="#000000">lug/Window/WindowHandle.hpp</text>
</a>
</g>
</g>
<!-- Node24&#45;&gt;Node34 -->
<g id="edge42" class="edge">
<title>Node24&#45;&gt;Node34</title>
<path fill="none" stroke="#191970" d="M1270.1148,-291.3812C1289.1484,-284.4182 1311.1516,-272.9936 1324,-255 1348.1834,-221.1324 1347.8867,-169.8701 1345.4858,-141.91"/>
<polygon fill="#191970" stroke="#191970" points="1348.9487,-141.3705 1344.4322,-131.7866 1341.9863,-142.0952 1348.9487,-141.3705"/>
</g>
<!-- Node35 -->
<g id="node34" class="node">
<title>Node35</title>
<g id="a_node34"><a xlink:href="Style_8inl.html" target="_top" xlink:title="lug/Window/Style.inl">
<polygon fill="none" stroke="#000000" points="1173.5,-230 1173.5,-249 1294.5,-249 1294.5,-230 1173.5,-230"/>
<text text-anchor="middle" x="1234" y="-237" font-family="Helvetica,sans-Serif" font-size="10.00" fill="#000000">lug/Window/Style.inl</text>
</a>
</g>
</g>
<!-- Node24&#45;&gt;Node35 -->
<g id="edge44" class="edge">
<title>Node24&#45;&gt;Node35</title>
<path fill="none" stroke="#191970" d="M1234,-291.3906C1234,-282.8657 1234,-270.1392 1234,-259.4235"/>
<polygon fill="#191970" stroke="#191970" points="1237.5001,-259.2448 1234,-249.2449 1230.5001,-259.2449 1237.5001,-259.2448"/>
</g>
<!-- Node29&#45;&gt;Node7 -->
<g id="edge39" class="edge">
<title>Node29&#45;&gt;Node7</title>
<path fill="none" stroke="#191970" d="M964.1875,-229.8906C939.6519,-219.5554 900.4558,-203.0447 872.8789,-191.4284"/>
<polygon fill="#191970" stroke="#191970" points="874.2268,-188.1984 863.6523,-187.5419 871.5094,-194.6495 874.2268,-188.1984"/>
</g>
<!-- Node29&#45;&gt;Node8 -->
<g id="edge31" class="edge">
<title>Node29&#45;&gt;Node8</title>
<path fill="none" stroke="#191970" d="M976.9695,-229.9687C967.6757,-220.3855 954.4866,-204.6767 949,-188 937.5186,-153.1019 947.409,-109.8497 955.085,-85.3413"/>
<polygon fill="#191970" stroke="#191970" points="958.4301,-86.3737 958.2708,-75.7801 951.7891,-84.1609 958.4301,-86.3737"/>
</g>
<!-- Node30 -->
<g id="node29" class="node">
<title>Node30</title>
<polygon fill="none" stroke="#bfbfbf" points="487,-168.5 487,-187.5 535,-187.5 535,-168.5 487,-168.5"/>
<text text-anchor="middle" x="511" y="-175.5" font-family="Helvetica,sans-Serif" font-size="10.00" fill="#000000">vector</text>
</g>
<!-- Node29&#45;&gt;Node30 -->
<g id="edge32" class="edge">
<title>Node29&#45;&gt;Node30</title>
<path fill="none" stroke="#191970" d="M922.3091,-231.1418C820.1009,-217.9364 624.7559,-192.6974 545.5958,-182.4698"/>
<polygon fill="#191970" stroke="#191970" points="545.5849,-178.9394 535.2188,-181.1291 544.6879,-185.8817 545.5849,-178.9394"/>
</g>
<!-- Node29&#45;&gt;Node31 -->
<g id="edge33" class="edge">
<title>Node29&#45;&gt;Node31</title>
<path fill="none" stroke="#191970" d="M1022.2284,-229.9413C1046.4084,-221.9419 1077.9847,-208.4904 1100,-188 1113.8386,-175.12 1123.542,-155.6866 1129.3596,-141.2389"/>
<polygon fill="#191970" stroke="#191970" points="1132.6782,-142.357 1132.9124,-131.7648 1126.1239,-139.8991 1132.6782,-142.357"/>
</g>
<!-- Node29&#45;&gt;Node32 -->
<g id="edge35" class="edge">
<title>Node29&#45;&gt;Node32</title>
<path fill="none" stroke="#191970" d="M1023.3058,-229.9581C1064.1219,-219.2308 1130.4838,-201.7895 1174.923,-190.11"/>
<polygon fill="#191970" stroke="#191970" points="1175.8272,-193.4913 1184.6091,-187.5643 1174.0478,-186.7212 1175.8272,-193.4913"/>
</g>
<!-- Node33 -->
<g id="node32" class="node">
<title>Node33</title>
<g id="a_node32"><a xlink:href="Mouse_8hpp.html" target="_top" xlink:title="lug/Window/Mouse.hpp">
<polygon fill="none" stroke="#000000" points="957.5,-168.5 957.5,-187.5 1090.5,-187.5 1090.5,-168.5 957.5,-168.5"/>
<text text-anchor="middle" x="1024" y="-175.5" font-family="Helvetica,sans-Serif" font-size="10.00" fill="#000000">lug/Window/Mouse.hpp</text>
</a>
</g>
</g>
<!-- Node29&#45;&gt;Node33 -->
<g id="edge37" class="edge">
<title>Node29&#45;&gt;Node33</title>
<path fill="none" stroke="#191970" d="M992.7813,-229.8906C998.126,-221.0068 1006.2159,-207.5601 1012.8211,-196.5811"/>
<polygon fill="#191970" stroke="#191970" points="1015.9811,-198.118 1018.1372,-187.7449 1009.9829,-194.5093 1015.9811,-198.118"/>
</g>
<!-- Node31&#45;&gt;Node12 -->
<g id="edge34" class="edge">
<title>Node31&#45;&gt;Node12</title>
<path fill="none" stroke="#191970" d="M1136,-112.4509C1136,-94.184 1136,-53.9553 1136,-29.6976"/>
<polygon fill="#191970" stroke="#191970" points="1139.5001,-29.5249 1136,-19.5249 1132.5001,-29.5249 1139.5001,-29.5249"/>
</g>
<!-- Node32&#45;&gt;Node31 -->
<g id="edge36" class="edge">
<title>Node32&#45;&gt;Node31</title>
<path fill="none" stroke="#191970" d="M1206.1941,-168.2455C1193.2744,-159.7337 1174.3069,-147.2375 1159.3448,-137.3801"/>
<polygon fill="#191970" stroke="#191970" points="1160.9124,-134.2216 1150.6362,-131.6427 1157.0613,-140.067 1160.9124,-134.2216"/>
</g>
<!-- Node33&#45;&gt;Node31 -->
<g id="edge38" class="edge">
<title>Node33&#45;&gt;Node31</title>
<path fill="none" stroke="#191970" d="M1043.2535,-168.3733C1061.0712,-159.4644 1087.7747,-146.1127 1107.9594,-136.0203"/>
<polygon fill="#191970" stroke="#191970" points="1109.6187,-139.1038 1116.9978,-131.5011 1106.4882,-132.8428 1109.6187,-139.1038"/>
</g>
<!-- Node34&#45;&gt;Node12 -->
<g id="edge43" class="edge">
<title>Node34&#45;&gt;Node12</title>
<path fill="none" stroke="#191970" d="M1325.3513,-112.4509C1288.993,-92.7788 1205.56,-47.6363 1162.6152,-24.4005"/>
<polygon fill="#191970" stroke="#191970" points="1164.0648,-21.2054 1153.604,-19.5249 1160.7336,-27.362 1164.0648,-21.2054"/>
</g>
<!-- Node38&#45;&gt;Node4 -->
<g id="edge53" class="edge">
<title>Node38&#45;&gt;Node4</title>
<path fill="none" stroke="#191970" d="M445.1719,-292.2483C442.0709,-291.82 438.9993,-291.4016 436,-291 305.9588,-273.5899 272.4895,-276.1257 143,-255 135.7817,-253.8224 128.2054,-252.4467 120.7479,-251.0102"/>
<polygon fill="#191970" stroke="#191970" points="121.1855,-247.5291 110.697,-249.0262 119.8299,-254.3966 121.1855,-247.5291"/>
</g>
<!-- Node38&#45;&gt;Node7 -->
<g id="edge56" class="edge">
<title>Node38&#45;&gt;Node7</title>
<path fill="none" stroke="#191970" d="M564.5978,-292.5092C601.2607,-285.7162 648.444,-274.0826 687,-255 706.8445,-245.1783 706.8517,-235.1181 726,-224 749.4882,-210.362 777.7938,-198.9837 800.4451,-190.9553"/>
<polygon fill="#191970" stroke="#191970" points="801.7908,-194.1933 810.0957,-187.6147 799.501,-187.5784 801.7908,-194.1933"/>
</g>
<!-- Node38&#45;&gt;Node30 -->
<g id="edge49" class="edge">
<title>Node38&#45;&gt;Node30</title>
<path fill="none" stroke="#191970" d="M445.6065,-291.4579C388.7034,-281.7121 310.1403,-266.4308 301,-255 292.3956,-244.2394 292.3626,-234.7342 301,-224 322.6613,-197.0802 422.8429,-185.0375 476.6312,-180.4338"/>
<polygon fill="#191970" stroke="#191970" points="477.0508,-183.9113 486.7333,-179.6101 476.4819,-176.9345 477.0508,-183.9113"/>
</g>
<!-- Node38&#45;&gt;Node36 -->
<g id="edge54" class="edge">
<title>Node38&#45;&gt;Node36</title>
<path fill="none" stroke="#191970" d="M552.089,-291.4627C595.7248,-282.4975 662.3901,-268.4771 720,-255 724.6748,-253.9064 729.5417,-252.7316 734.3972,-251.5357"/>
<polygon fill="#191970" stroke="#191970" points="735.4265,-254.8863 744.2825,-249.0706 733.7327,-248.0943 735.4265,-254.8863"/>
</g>
<!-- Node39 -->
<g id="node38" class="node">
<title>Node39</title>
<polygon fill="none" stroke="#bfbfbf" points="152.5,-230 152.5,-249 253.5,-249 253.5,-230 152.5,-230"/>
<text text-anchor="middle" x="203" y="-237" font-family="Helvetica,sans-Serif" font-size="10.00" fill="#000000">android/sensor.h</text>
</g>
<!-- Node38&#45;&gt;Node39 -->
<g id="edge50" class="edge">
<title>Node38&#45;&gt;Node39</title>
<path fill="none" stroke="#191970" d="M452.6237,-291.4933C404.5134,-282.6046 331.2946,-268.6827 268,-255 262.6847,-253.851 257.1367,-252.6031 251.6193,-251.331"/>
<polygon fill="#191970" stroke="#191970" points="252.3122,-247.8987 241.7781,-249.0313 250.7193,-254.715 252.3122,-247.8987"/>
</g>
<!-- Node40 -->
<g id="node39" class="node">
<title>Node40</title>
<polygon fill="none" stroke="#bfbfbf" points="310.5,-230 310.5,-249 393.5,-249 393.5,-230 310.5,-230"/>
<text text-anchor="middle" x="352" y="-237" font-family="Helvetica,sans-Serif" font-size="10.00" fill="#000000">android/log.h</text>
</g>
<!-- Node38&#45;&gt;Node40 -->
<g id="edge51" class="edge">
<title>Node38&#45;&gt;Node40</title>
<path fill="none" stroke="#191970" d="M481.0938,-291.3906C455.2695,-281.0103 413.9473,-264.4004 385.0295,-252.7766"/>
<polygon fill="#191970" stroke="#191970" points="386.3222,-249.5241 375.7384,-249.0419 383.7115,-256.019 386.3222,-249.5241"/>
</g>
<!-- Node41 -->
<g id="node40" class="node">
<title>Node41</title>
<polygon fill="none" stroke="#bfbfbf" points="411.5,-224.5 411.5,-254.5 544.5,-254.5 544.5,-224.5 411.5,-224.5"/>
<text text-anchor="start" x="419.5" y="-242.5" font-family="Helvetica,sans-Serif" font-size="10.00" fill="#000000">android/native_window</text>
<text text-anchor="middle" x="478" y="-231.5" font-family="Helvetica,sans-Serif" font-size="10.00" fill="#000000">_jni.h</text>
</g>
<!-- Node38&#45;&gt;Node41 -->
<g id="edge52" class="edge">
<title>Node38&#45;&gt;Node41</title>
<path fill="none" stroke="#191970" d="M500.7813,-291.3906C497.5331,-283.9922 492.8957,-273.4291 488.6517,-263.7623"/>
<polygon fill="#191970" stroke="#191970" points="491.8297,-262.2941 484.6049,-254.5446 485.4201,-265.108 491.8297,-262.2941"/>
</g>
<!-- Node42 -->
<g id="node41" class="node">
<title>Node42</title>
<polygon fill="none" stroke="#bfbfbf" points="562.5,-230 562.5,-249 677.5,-249 677.5,-230 562.5,-230"/>
<text text-anchor="middle" x="620" y="-237" font-family="Helvetica,sans-Serif" font-size="10.00" fill="#000000">android/keycodes.h</text>
</g>
<!-- Node38&#45;&gt;Node42 -->
<g id="edge55" class="edge">
<title>Node38&#45;&gt;Node42</title>
<path fill="none" stroke="#191970" d="M522.9688,-291.3906C541.7884,-281.3262 571.5585,-265.4057 593.1641,-253.8514"/>
<polygon fill="#191970" stroke="#191970" points="594.9898,-256.8442 602.1574,-249.0419 591.6886,-250.6714 594.9898,-256.8442"/>
</g>
<!-- Node43&#45;&gt;Node25 -->
<g id="edge58" class="edge">
<title>Node43&#45;&gt;Node25</title>
<path fill="none" stroke="#191970" d="M1686.7829,-294.9645C1629.3662,-288.9427 1561.2332,-277.2409 1543,-255 1528.7161,-237.5764 1542.8261,-212.2372 1555.6625,-195.4472"/>
<polygon fill="#191970" stroke="#191970" points="1558.5051,-197.4992 1562.1019,-187.5336 1553.0755,-193.081 1558.5051,-197.4992"/>
</g>
<!-- Node43&#45;&gt;Node27 -->
<g id="edge60" class="edge">
<title>Node43&#45;&gt;Node27</title>
<path fill="none" stroke="#191970" d="M1770.0182,-291.3484C1763.7749,-271.1397 1749.2246,-224.0427 1740.9789,-197.3528"/>
<polygon fill="#191970" stroke="#191970" points="1744.2638,-196.1281 1737.9679,-187.6068 1737.5757,-198.1943 1744.2638,-196.1281"/>
</g>
<!-- Node44 -->
<g id="node43" class="node">
<title>Node44</title>
<polygon fill="none" stroke="#bfbfbf" points="2039,-230 2039,-249 2071,-249 2071,-230 2039,-230"/>
<text text-anchor="middle" x="2055" y="-237" font-family="Helvetica,sans-Serif" font-size="10.00" fill="#000000">set</text>
</g>
<!-- Node43&#45;&gt;Node44 -->
<g id="edge59" class="edge">
<title>Node43&#45;&gt;Node44</title>
<path fill="none" stroke="#191970" d="M1859.1731,-291.7019C1908.6147,-284.7875 1971.3331,-273.3056 2025,-255 2026.4565,-254.5032 2027.9297,-253.9453 2029.4009,-253.3441"/>
<polygon fill="#191970" stroke="#191970" points="2031.29,-256.3256 2038.8821,-248.9357 2028.3387,-249.9782 2031.29,-256.3256"/>
</g>
<!-- Node45 -->
<g id="node44" class="node">
<title>Node45</title>
<g id="a_node44"><a xlink:href="System_2Export_8hpp.html" target="_top" xlink:title="lug/System/Export.hpp">
<polygon fill="none" stroke="#000000" points="1505,-112.5 1505,-131.5 1637,-131.5 1637,-112.5 1505,-112.5"/>
<text text-anchor="middle" x="1571" y="-119.5" font-family="Helvetica,sans-Serif" font-size="10.00" fill="#000000">lug/System/Export.hpp</text>
</a>
</g>
</g>
<!-- Node43&#45;&gt;Node45 -->
<g id="edge61" class="edge">
<title>Node43&#45;&gt;Node45</title>
<path fill="none" stroke="#191970" d="M1686.8729,-295.8392C1626.2208,-290.1966 1552.4943,-278.5855 1533,-255 1508.366,-225.196 1519.9149,-204.3853 1533,-168 1536.9436,-157.0341 1544.7597,-146.8227 1552.2831,-138.8204"/>
<polygon fill="#191970" stroke="#191970" points="1554.9193,-141.1354 1559.5547,-131.6084 1549.9899,-136.1653 1554.9193,-141.1354"/>
</g>
<!-- Node46 -->
<g id="node45" class="node">
<title>Node46</title>
<g id="a_node45"><a xlink:href="Common_8hpp.html" target="_top" xlink:title="lug/System/Logger/Common.hpp">
<polygon fill="none" stroke="#000000" points="1801,-168.5 1801,-187.5 1983,-187.5 1983,-168.5 1801,-168.5"/>
<text text-anchor="middle" x="1892" y="-175.5" font-family="Helvetica,sans-Serif" font-size="10.00" fill="#000000">lug/System/Logger/Common.hpp</text>
</a>
</g>
</g>
<!-- Node43&#45;&gt;Node46 -->
<g id="edge63" class="edge">
<title>Node43&#45;&gt;Node46</title>
<path fill="none" stroke="#191970" d="M1859.2181,-293.9207C1913.0116,-287.5111 1975.1355,-275.7748 1992,-255 2000.6835,-244.3031 1999.4329,-235.6008 1992,-224 1981.953,-208.3194 1965.0639,-197.9113 1947.9979,-191.0336"/>
<polygon fill="#191970" stroke="#191970" points="1949.1345,-187.7226 1938.5409,-187.5649 1946.724,-194.2945 1949.1345,-187.7226"/>
</g>
<!-- Node49 -->
<g id="node48" class="node">
<title>Node49</title>
<g id="a_node48"><a xlink:href="LoggingFacility_8hpp.html" target="_top" xlink:title="lug/System/Logger/Logging\lFacility.hpp">
<polygon fill="none" stroke="#000000" points="1551.5,-224.5 1551.5,-254.5 1706.5,-254.5 1706.5,-224.5 1551.5,-224.5"/>
<text text-anchor="start" x="1559.5" y="-242.5" font-family="Helvetica,sans-Serif" font-size="10.00" fill="#000000">lug/System/Logger/Logging</text>
<text text-anchor="middle" x="1629" y="-231.5" font-family="Helvetica,sans-Serif" font-size="10.00" fill="#000000">Facility.hpp</text>
</a>
</g>
</g>
<!-- Node43&#45;&gt;Node49 -->
<g id="edge67" class="edge">
<title>Node43&#45;&gt;Node49</title>
<path fill="none" stroke="#191970" d="M1750.5,-291.3906C1730.0189,-282.6435 1699.1803,-269.4728 1673.6978,-258.5897"/>
<polygon fill="#191970" stroke="#191970" points="1674.7975,-255.2535 1664.2264,-254.5446 1672.0481,-261.691 1674.7975,-255.2535"/>
</g>
<!-- Node50 -->
<g id="node49" class="node">
<title>Node50</title>
<g id="a_node49"><a xlink:href="Message_8hpp.html" target="_top" xlink:title="lug/System/Logger/Message.hpp">
<polygon fill="none" stroke="#000000" points="1801.5,-230 1801.5,-249 1982.5,-249 1982.5,-230 1801.5,-230"/>
<text text-anchor="middle" x="1892" y="-237" font-family="Helvetica,sans-Serif" font-size="10.00" fill="#000000">lug/System/Logger/Message.hpp</text>
</a>
</g>
</g>
<!-- Node43&#45;&gt;Node50 -->
<g id="edge72" class="edge">
<title>Node43&#45;&gt;Node50</title>
<path fill="none" stroke="#191970" d="M1791.5938,-291.3906C1811.1553,-281.2811 1842.1501,-265.2628 1864.5309,-253.6962"/>
<polygon fill="#191970" stroke="#191970" points="1866.26,-256.7425 1873.5368,-249.0419 1863.0461,-250.5238 1866.26,-256.7425"/>
</g>
<!-- Node51 -->
<g id="node50" class="node">
<title>Node51</title>
<g id="a_node50"><a xlink:href="Logger_8inl.html" target="_top" xlink:title="lug/System/Logger/Logger.inl">
<polygon fill="none" stroke="#000000" points="2089,-230 2089,-249 2255,-249 2255,-230 2089,-230"/>
<text text-anchor="middle" x="2172" y="-237" font-family="Helvetica,sans-Serif" font-size="10.00" fill="#000000">lug/System/Logger/Logger.inl</text>
</a>
</g>
</g>
<!-- Node43&#45;&gt;Node51 -->
<g id="edge74" class="edge">
<title>Node43&#45;&gt;Node51</title>
<path fill="none" stroke="#191970" d="M1838.9285,-291.4752C1901.1327,-282.4047 1996.9708,-268.2136 2080,-255 2088.6004,-253.6313 2097.6462,-252.1538 2106.5711,-250.6736"/>
<polygon fill="#191970" stroke="#191970" points="2107.278,-254.1042 2116.5661,-249.0069 2106.1265,-247.1995 2107.278,-254.1042"/>
</g>
<!-- Node45&#45;&gt;Node12 -->
<g id="edge62" class="edge">
<title>Node45&#45;&gt;Node12</title>
<path fill="none" stroke="#191970" d="M1533.9121,-112.4509C1454.8585,-92.0969 1269.9027,-44.4761 1182.8599,-22.0651"/>
<polygon fill="#191970" stroke="#191970" points="1183.5509,-18.6289 1172.994,-19.5249 1181.8054,-25.4078 1183.5509,-18.6289"/>
</g>
<!-- Node46&#45;&gt;Node45 -->
<g id="edge64" class="edge">
<title>Node46&#45;&gt;Node45</title>
<path fill="none" stroke="#191970" d="M1837.1829,-168.4369C1781.3229,-158.6918 1694.7179,-143.5832 1635.5695,-133.2645"/>
<polygon fill="#191970" stroke="#191970" points="1636.0438,-129.7944 1625.591,-131.5237 1634.8407,-136.6903 1636.0438,-129.7944"/>
</g>
<!-- Node47 -->
<g id="node46" class="node">
<title>Node47</title>
<polygon fill="none" stroke="#bfbfbf" points="1903,-112.5 1903,-131.5 1985,-131.5 1985,-112.5 1903,-112.5"/>
<text text-anchor="middle" x="1944" y="-119.5" font-family="Helvetica,sans-Serif" font-size="10.00" fill="#000000">fmt/format.h</text>
</g>
<!-- Node46&#45;&gt;Node47 -->
<g id="edge65" class="edge">
<title>Node46&#45;&gt;Node47</title>
<path fill="none" stroke="#191970" d="M1901.0577,-168.2455C1908.5142,-160.2155 1919.2634,-148.6394 1928.1417,-139.0781"/>
<polygon fill="#191970" stroke="#191970" points="1930.8063,-141.3522 1935.0461,-131.6427 1925.6768,-136.589 1930.8063,-141.3522"/>
</g>
<!-- Node48 -->
<g id="node47" class="node">
<title>Node48</title>
<polygon fill="none" stroke="#bfbfbf" points="1795.5,-112.5 1795.5,-131.5 1884.5,-131.5 1884.5,-112.5 1795.5,-112.5"/>
<text text-anchor="middle" x="1840" y="-119.5" font-family="Helvetica,sans-Serif" font-size="10.00" fill="#000000">fmt/ostream.h</text>
</g>
<!-- Node46&#45;&gt;Node48 -->
<g id="edge66" class="edge">
<title>Node46&#45;&gt;Node48</title>
<path fill="none" stroke="#191970" d="M1882.9423,-168.2455C1875.4858,-160.2155 1864.7366,-148.6394 1855.8583,-139.0781"/>
<polygon fill="#191970" stroke="#191970" points="1858.3232,-136.589 1848.9539,-131.6427 1853.1937,-141.3522 1858.3232,-136.589"/>
</g>
<!-- Node49&#45;&gt;Node25 -->
<g id="edge69" class="edge">
<title>Node49&#45;&gt;Node25</title>
<path fill="none" stroke="#191970" d="M1614.6629,-224.2977C1606.3603,-215.4941 1595.8818,-204.3833 1587.2711,-195.2529"/>
<polygon fill="#191970" stroke="#191970" points="1589.6939,-192.7206 1580.2865,-187.8469 1584.6013,-197.5234 1589.6939,-192.7206"/>
</g>
<!-- Node49&#45;&gt;Node27 -->
<g id="edge68" class="edge">
<title>Node49&#45;&gt;Node27</title>
<path fill="none" stroke="#191970" d="M1654.9305,-224.4554C1671.5309,-214.8241 1692.9744,-202.3828 1709.4917,-192.7996"/>
<polygon fill="#191970" stroke="#191970" points="1711.6806,-195.5761 1718.5738,-187.5303 1708.1677,-189.5214 1711.6806,-195.5761"/>
</g>
<!-- Node49&#45;&gt;Node28 -->
<g id="edge70" class="edge">
<title>Node49&#45;&gt;Node28</title>
<path fill="none" stroke="#191970" d="M1582.0315,-224.4554C1549.7148,-214.104 1507.2649,-200.5067 1476.6501,-190.7004"/>
<polygon fill="#191970" stroke="#191970" points="1477.3443,-187.2477 1466.7532,-187.5303 1475.2089,-193.914 1477.3443,-187.2477"/>
</g>
<!-- Node49&#45;&gt;Node45 -->
<g id="edge71" class="edge">
<title>Node49&#45;&gt;Node45</title>
<path fill="none" stroke="#191970" d="M1626.957,-224.2793C1624.4962,-209.2982 1619.4573,-186.1002 1610,-168 1604.4726,-157.4211 1596.1342,-147.1421 1588.5845,-138.9937"/>
<polygon fill="#191970" stroke="#191970" points="1590.9072,-136.3615 1581.4309,-131.6233 1585.8841,-141.2369 1590.9072,-136.3615"/>
</g>
<!-- Node50&#45;&gt;Node46 -->
<g id="edge73" class="edge">
<title>Node50&#45;&gt;Node46</title>
<path fill="none" stroke="#191970" d="M1892,-229.8906C1892,-221.3657 1892,-208.6392 1892,-197.9235"/>
<polygon fill="#191970" stroke="#191970" points="1895.5001,-197.7448 1892,-187.7449 1888.5001,-197.7449 1895.5001,-197.7448"/>
</g>
</g>
</svg>
