<?xml version="1.0" encoding="UTF-8" standalone="no"?>
<!DOCTYPE svg PUBLIC "-//W3C//DTD SVG 1.1//EN"
 "http://www.w3.org/Graphics/SVG/1.1/DTD/svg11.dtd">
<!-- Generated by graphviz version 2.40.1 (20161225.0304)
 -->
<!-- Title: include/lug/System/Memory/Policies/MemoryMarker.hpp Pages: 1 -->
<svg width="388pt" height="162pt"
 viewBox="0.00 0.00 387.50 162.00" xmlns="http://www.w3.org/2000/svg" xmlns:xlink="http://www.w3.org/1999/xlink">
<g id="graph0" class="graph" transform="scale(1 1) rotate(0) translate(4 158)">
<title>include/lug/System/Memory/Policies/MemoryMarker.hpp</title>
<!-- Node0 -->
<g id="node1" class="node">
<title>Node0</title>
<polygon fill="#bfbfbf" stroke="#000000" points="31,-123.5 31,-153.5 237,-153.5 237,-123.5 31,-123.5"/>
<text text-anchor="start" x="39" y="-141.5" font-family="Helvetica,sans-Serif" font-size="10.00" fill="#000000">include/lug/System</text>
<text text-anchor="middle" x="134" y="-130.5" font-family="Helvetica,sans-Serif" font-size="10.00" fill="#000000">/Memory/Policies/MemoryMarker.hpp</text>
</g>
<!-- Node1 -->
<g id="node2" class="node">
<title>Node1</title>
<polygon fill="none" stroke="#bfbfbf" points="0,-62 0,-81 50,-81 50,-62 0,-62"/>
<text text-anchor="middle" x="25" y="-69" font-family="Helvetica,sans-Serif" font-size="10.00" fill="#000000">cstring</text>
</g>
<!-- Node0&#45;&gt;Node1 -->
<g id="edge1" class="edge">
<title>Node0&#45;&gt;Node1</title>
<path fill="none" stroke="#191970" d="M109.5383,-123.4639C91.579,-112.4247 67.2911,-97.4954 49.3566,-86.4715"/>
<polygon fill="#191970" stroke="#191970" points="50.9764,-83.3588 40.6243,-81.1039 47.3107,-89.3223 50.9764,-83.3588"/>
</g>
<!-- Node2 -->
<g id="node3" class="node">
<title>Node2</title>
<g id="a_node3"><a xlink:href="System_2Export_8hpp.html" target="_top" xlink:title="lug/System/Export.hpp">
<polygon fill="none" stroke="#000000" points="68,-62 68,-81 200,-81 200,-62 68,-62"/>
<text text-anchor="middle" x="134" y="-69" font-family="Helvetica,sans-Serif" font-size="10.00" fill="#000000">lug/System/Export.hpp</text>
</a>
</g>
</g>
<!-- Node0&#45;&gt;Node2 -->
<g id="edge2" class="edge">
<title>Node0&#45;&gt;Node2</title>
<path fill="none" stroke="#191970" d="M134,-123.2967C134,-113.7699 134,-101.3954 134,-91.1306"/>
<polygon fill="#191970" stroke="#191970" points="137.5001,-91.0549 134,-81.055 130.5001,-91.055 137.5001,-91.0549"/>
</g>
<!-- Node4 -->
<g id="node5" class="node">
<title>Node4</title>
<g id="a_node5"><a xlink:href="MemoryMarker_8inl.html" target="_top" xlink:title="lug/System/Memory/Policies\l/MemoryMarker.inl">
<polygon fill="none" stroke="#000000" points="218.5,-56.5 218.5,-86.5 379.5,-86.5 379.5,-56.5 218.5,-56.5"/>
<text text-anchor="start" x="226.5" y="-74.5" font-family="Helvetica,sans-Serif" font-size="10.00" fill="#000000">lug/System/Memory/Policies</text>
<text text-anchor="middle" x="299" y="-63.5" font-family="Helvetica,sans-Serif" font-size="10.00" fill="#000000">/MemoryMarker.inl</text>
</a>
</g>
</g>
<!-- Node0&#45;&gt;Node4 -->
<g id="edge4" class="edge">
<title>Node0&#45;&gt;Node4</title>
<path fill="none" stroke="#191970" d="M171.0292,-123.4639C195.0408,-113.7137 226.5258,-100.9289 252.2569,-90.4805"/>
<polygon fill="#191970" stroke="#191970" points="253.8608,-93.6069 261.8093,-86.6017 251.2272,-87.1212 253.8608,-93.6069"/>
</g>
<!-- Node3 -->
<g id="node4" class="node">
<title>Node3</title>
<g id="a_node4"><a xlink:href="Config_8hpp.html" target="_top" xlink:title="lug/Config.hpp">
<polygon fill="none" stroke="#000000" points="89.5,-.5 89.5,-19.5 178.5,-19.5 178.5,-.5 89.5,-.5"/>
<text text-anchor="middle" x="134" y="-7.5" font-family="Helvetica,sans-Serif" font-size="10.00" fill="#000000">lug/Config.hpp</text>
</a>
</g>
</g>
<!-- Node2&#45;&gt;Node3 -->
<g id="edge3" class="edge">
<title>Node2&#45;&gt;Node3</title>
<path fill="none" stroke="#191970" d="M134,-61.8906C134,-53.3657 134,-40.6392 134,-29.9235"/>
<polygon fill="#191970" stroke="#191970" points="137.5001,-29.7448 134,-19.7449 130.5001,-29.7449 137.5001,-29.7448"/>
</g>
</g>
</svg>
