<?xml version="1.0" encoding="UTF-8" standalone="no"?>
<!DOCTYPE svg PUBLIC "-//W3C//DTD SVG 1.1//EN"
 "http://www.w3.org/Graphics/SVG/1.1/DTD/svg11.dtd">
<!-- Generated by graphviz version 2.40.1 (20161225.0304)
 -->
<!-- Title: src/lug/Graphics/Scene/MeshInstance.cpp Pages: 1 -->
<!--zoomable 408 -->
<svg id="main" version="1.1" xmlns="http://www.w3.org/2000/svg" xmlns:xlink="http://www.w3.org/1999/xlink" xml:space="preserve" onload="init(evt)">
<style type="text/css"><![CDATA[
.edge:hover path { stroke: red; }
.edge:hover polygon { stroke: red; fill: red; }
]]></style>
<script type="text/javascript"><![CDATA[
var edges = document.getElementsByTagName('g');
if (edges && edges.length) {
  for (var i=0;i<edges.length;i++) {
    if (edges[i].id.substr(0,4)=='edge') {
      edges[i].setAttribute('class','edge');
    }
  }
}
]]></script>
        <defs>
                <circle id="rim" cx="0" cy="0" r="7"/>
                <circle id="rim2" cx="0" cy="0" r="3.5"/>
                <g id="zoomPlus">
                        <use xlink:href="#rim" fill="#404040">
                                <set attributeName="fill" to="#808080" begin="zoomplus.mouseover" end="zoomplus.mouseout"/>
                        </use>
                        <path d="M-4,0h8M0,-4v8" fill="none" stroke="white" stroke-width="1.5" pointer-events="none"/>
                </g>
                <g id="zoomMin">
                        <use xlink:href="#rim" fill="#404040">
                                <set attributeName="fill" to="#808080" begin="zoomminus.mouseover" end="zoomminus.mouseout"/>
                        </use>
                        <path d="M-4,0h8" fill="none" stroke="white" stroke-width="1.5" pointer-events="none"/>
                </g>
                <g id="dirArrow">
                        <path fill="none" stroke="white" stroke-width="1.5" d="M0,-3.0v7 M-2.5,-0.5L0,-3.0L2.5,-0.5"/>
                </g>
               <g id="resetDef">
                       <use xlink:href="#rim2" fill="#404040">
                               <set attributeName="fill" to="#808080" begin="reset.mouseover" end="reset.mouseout"/>
                       </use>
               </g>
        </defs>

<script type="text/javascript">
var viewWidth = 818;
var viewHeight = 408;
var sectionId = 'dynsection-0';
</script>
<script xlink:href="svgpan.js"/>
<svg id="graph" class="graph">
<g id="viewport">
<title>src/lug/Graphics/Scene/MeshInstance.cpp</title>
<!-- Node0 -->
<g id="node1" class="node">
<title>Node0</title>
<polygon fill="#bfbfbf" stroke="#000000" points="476,-369.5 476,-399.5 610,-399.5 610,-369.5 476,-369.5"/>
<text text-anchor="start" x="484" y="-387.5" font-family="Helvetica,sans-Serif" font-size="10.00" fill="#000000">src/lug/Graphics/Scene</text>
<text text-anchor="middle" x="543" y="-376.5" font-family="Helvetica,sans-Serif" font-size="10.00" fill="#000000">/MeshInstance.cpp</text>
</g>
<!-- Node1 -->
<g id="node2" class="node">
<title>Node1</title>
<g id="a_node2"><a xlink:href="MeshInstance_8hpp.html" target="_top" xlink:title="lug/Graphics/Scene\l/MeshInstance.hpp">
<polygon fill="none" stroke="#000000" points="486,-302.5 486,-332.5 600,-332.5 600,-302.5 486,-302.5"/>
<text text-anchor="start" x="494" y="-320.5" font-family="Helvetica,sans-Serif" font-size="10.00" fill="#000000">lug/Graphics/Scene</text>
<text text-anchor="middle" x="543" y="-309.5" font-family="Helvetica,sans-Serif" font-size="10.00" fill="#000000">/MeshInstance.hpp</text>
</a>
</g>
</g>
<!-- Node0&#45;&gt;Node1 -->
<g id="edge1" class="edge">
<title>Node0&#45;&gt;Node1</title>
<path fill="none" stroke="#191970" d="M543,-369.2967C543,-361.5013 543,-351.7991 543,-342.9064"/>
<polygon fill="#191970" stroke="#191970" points="546.5001,-342.6431 543,-332.6432 539.5001,-342.6432 546.5001,-342.6431"/>
</g>
<!-- Node2 -->
<g id="node3" class="node">
<title>Node2</title>
<g id="a_node3"><a xlink:href="Graphics_2Export_8hpp.html" target="_top" xlink:title="lug/Graphics/Export.hpp">
<polygon fill="none" stroke="#000000" points="431,-174 431,-193 569,-193 569,-174 431,-174"/>
<text text-anchor="middle" x="500" y="-181" font-family="Helvetica,sans-Serif" font-size="10.00" fill="#000000">lug/Graphics/Export.hpp</text>
</a>
</g>
</g>
<!-- Node1&#45;&gt;Node2 -->
<g id="edge2" class="edge">
<title>Node1&#45;&gt;Node2</title>
<path fill="none" stroke="#191970" d="M534.7719,-302.0756C529.6727,-292.0239 523.2985,-278.4995 519,-266 511.8542,-245.2211 506.5748,-220.5757 503.4188,-203.6661"/>
<polygon fill="#191970" stroke="#191970" points="506.7782,-202.5679 501.5763,-193.338 499.887,-203.7973 506.7782,-202.5679"/>
</g>
<!-- Node4 -->
<g id="node5" class="node">
<title>Node4</title>
<g id="a_node5"><a xlink:href="Render_2Mesh_8hpp.html" target="_top" xlink:title="lug/Graphics/Render\l/Mesh.hpp">
<polygon fill="none" stroke="#000000" points="225.5,-235.5 225.5,-265.5 344.5,-265.5 344.5,-235.5 225.5,-235.5"/>
<text text-anchor="start" x="233.5" y="-253.5" font-family="Helvetica,sans-Serif" font-size="10.00" fill="#000000">lug/Graphics/Render</text>
<text text-anchor="middle" x="285" y="-242.5" font-family="Helvetica,sans-Serif" font-size="10.00" fill="#000000">/Mesh.hpp</text>
</a>
</g>
</g>
<!-- Node1&#45;&gt;Node4 -->
<g id="edge4" class="edge">
<title>Node1&#45;&gt;Node4</title>
<path fill="none" stroke="#191970" d="M485.7414,-302.6305C446.4345,-292.4229 394.0975,-278.8315 352.7188,-268.0859"/>
<polygon fill="#191970" stroke="#191970" points="353.5494,-264.6856 342.9907,-265.5596 351.7899,-271.4608 353.5494,-264.6856"/>
</g>
<!-- Node23 -->
<g id="node24" class="node">
<title>Node23</title>
<g id="a_node24"><a xlink:href="MovableObject_8hpp.html" target="_top" xlink:title="lug/Graphics/Scene\l/MovableObject.hpp">
<polygon fill="none" stroke="#000000" points="528,-235.5 528,-265.5 644,-265.5 644,-235.5 528,-235.5"/>
<text text-anchor="start" x="536" y="-253.5" font-family="Helvetica,sans-Serif" font-size="10.00" fill="#000000">lug/Graphics/Scene</text>
<text text-anchor="middle" x="586" y="-242.5" font-family="Helvetica,sans-Serif" font-size="10.00" fill="#000000">/MovableObject.hpp</text>
</a>
</g>
</g>
<!-- Node1&#45;&gt;Node23 -->
<g id="edge28" class="edge">
<title>Node1&#45;&gt;Node23</title>
<path fill="none" stroke="#191970" d="M552.7574,-302.2967C558.0903,-293.9873 564.8135,-283.5115 570.816,-274.1587"/>
<polygon fill="#191970" stroke="#191970" points="573.8255,-275.9495 576.2812,-265.6432 567.9344,-272.1686 573.8255,-275.9495"/>
</g>
<!-- Node26 -->
<g id="node27" class="node">
<title>Node26</title>
<g id="a_node27"><a xlink:href="MeshInstance_8inl.html" target="_top" xlink:title="lug/Graphics/Scene\l/MeshInstance.inl">
<polygon fill="none" stroke="#000000" points="662,-235.5 662,-265.5 776,-265.5 776,-235.5 662,-235.5"/>
<text text-anchor="start" x="670" y="-253.5" font-family="Helvetica,sans-Serif" font-size="10.00" fill="#000000">lug/Graphics/Scene</text>
<text text-anchor="middle" x="719" y="-242.5" font-family="Helvetica,sans-Serif" font-size="10.00" fill="#000000">/MeshInstance.inl</text>
</a>
</g>
</g>
<!-- Node1&#45;&gt;Node26 -->
<g id="edge32" class="edge">
<title>Node1&#45;&gt;Node26</title>
<path fill="none" stroke="#191970" d="M582.4978,-302.4639C608.3359,-292.6278 642.2866,-279.7034 669.8647,-269.2049"/>
<polygon fill="#191970" stroke="#191970" points="671.2294,-272.4305 679.3299,-265.6017 668.7389,-265.8885 671.2294,-272.4305"/>
</g>
<!-- Node3 -->
<g id="node4" class="node">
<title>Node3</title>
<g id="a_node4"><a xlink:href="Config_8hpp.html" target="_top" xlink:title="lug/Config.hpp">
<polygon fill="none" stroke="#000000" points="692.5,-.5 692.5,-19.5 781.5,-19.5 781.5,-.5 692.5,-.5"/>
<text text-anchor="middle" x="737" y="-7.5" font-family="Helvetica,sans-Serif" font-size="10.00" fill="#000000">lug/Config.hpp</text>
</a>
</g>
</g>
<!-- Node2&#45;&gt;Node3 -->
<g id="edge3" class="edge">
<title>Node2&#45;&gt;Node3</title>
<path fill="none" stroke="#191970" d="M546.5133,-173.9838C624.3139,-157.0184 775.3573,-119.2436 806,-76 820.4474,-55.6115 793.9562,-36.3499 769.7294,-23.9574"/>
<polygon fill="#191970" stroke="#191970" points="771.1706,-20.7665 760.6452,-19.5561 768.1185,-27.0661 771.1706,-20.7665"/>
</g>
<!-- Node4&#45;&gt;Node2 -->
<g id="edge7" class="edge">
<title>Node4&#45;&gt;Node2</title>
<path fill="none" stroke="#191970" d="M333.2502,-235.4639C371.3876,-223.5792 423.9934,-207.1858 459.8536,-196.0108"/>
<polygon fill="#191970" stroke="#191970" points="460.9921,-199.322 469.498,-193.0053 458.9095,-192.639 460.9921,-199.322"/>
</g>
<!-- Node5 -->
<g id="node6" class="node">
<title>Node5</title>
<polygon fill="none" stroke="#bfbfbf" points="103,-56.5 103,-75.5 153,-75.5 153,-56.5 103,-56.5"/>
<text text-anchor="middle" x="128" y="-63.5" font-family="Helvetica,sans-Serif" font-size="10.00" fill="#000000">cstdint</text>
</g>
<!-- Node4&#45;&gt;Node5 -->
<g id="edge5" class="edge">
<title>Node4&#45;&gt;Node5</title>
<path fill="none" stroke="#191970" d="M225.4805,-242.4924C197.5044,-235.6074 166.1619,-222.8048 147,-199 120.7766,-166.4226 121.9658,-114.2377 125.0325,-85.8909"/>
<polygon fill="#191970" stroke="#191970" points="128.5458,-86.008 126.3402,-75.6453 121.6022,-85.1217 128.5458,-86.008"/>
</g>
<!-- Node6 -->
<g id="node7" class="node">
<title>Node6</title>
<polygon fill="none" stroke="#bfbfbf" points="52,-174 52,-193 100,-193 100,-174 52,-174"/>
<text text-anchor="middle" x="76" y="-181" font-family="Helvetica,sans-Serif" font-size="10.00" fill="#000000">vector</text>
</g>
<!-- Node4&#45;&gt;Node6 -->
<g id="edge6" class="edge">
<title>Node4&#45;&gt;Node6</title>
<path fill="none" stroke="#191970" d="M230.2797,-235.4509C196.5072,-225.8103 152.4384,-212.5932 114,-199 112.0856,-198.323 110.1264,-197.6046 108.1563,-196.8625"/>
<polygon fill="#191970" stroke="#191970" points="108.9574,-193.4177 98.3695,-193.0352 106.4079,-199.9369 108.9574,-193.4177"/>
</g>
<!-- Node7 -->
<g id="node8" class="node">
<title>Node7</title>
<g id="a_node8"><a xlink:href="Vector_8hpp.html" target="_top" xlink:title="lug/Math/Vector.hpp">
<polygon fill="none" stroke="#000000" points="293.5,-174 293.5,-193 412.5,-193 412.5,-174 293.5,-174"/>
<text text-anchor="middle" x="353" y="-181" font-family="Helvetica,sans-Serif" font-size="10.00" fill="#000000">lug/Math/Vector.hpp</text>
</a>
</g>
</g>
<!-- Node4&#45;&gt;Node7 -->
<g id="edge8" class="edge">
<title>Node4&#45;&gt;Node7</title>
<path fill="none" stroke="#191970" d="M300.4303,-235.2967C311.025,-224.8578 325.0899,-210.9997 336.0054,-200.2446"/>
<polygon fill="#191970" stroke="#191970" points="338.6356,-202.5666 343.3024,-193.055 333.7227,-197.5804 338.6356,-202.5666"/>
</g>
<!-- Node22 -->
<g id="node23" class="node">
<title>Node22</title>
<g id="a_node23"><a xlink:href="Render_2Mesh_8inl.html" target="_top" xlink:title="lug/Graphics/Render\l/Mesh.inl">
<polygon fill="none" stroke="#000000" points="156.5,-168.5 156.5,-198.5 275.5,-198.5 275.5,-168.5 156.5,-168.5"/>
<text text-anchor="start" x="164.5" y="-186.5" font-family="Helvetica,sans-Serif" font-size="10.00" fill="#000000">lug/Graphics/Render</text>
<text text-anchor="middle" x="216" y="-175.5" font-family="Helvetica,sans-Serif" font-size="10.00" fill="#000000">/Mesh.inl</text>
</a>
</g>
</g>
<!-- Node4&#45;&gt;Node22 -->
<g id="edge27" class="edge">
<title>Node4&#45;&gt;Node22</title>
<path fill="none" stroke="#191970" d="M269.3428,-235.2967C260.3443,-226.559 248.8787,-215.4257 238.8852,-205.7218"/>
<polygon fill="#191970" stroke="#191970" points="241.2077,-203.0985 231.5952,-198.6432 236.3313,-208.1205 241.2077,-203.0985"/>
</g>
<!-- Node7&#45;&gt;Node5 -->
<g id="edge9" class="edge">
<title>Node7&#45;&gt;Node5</title>
<path fill="none" stroke="#191970" d="M331.4614,-173.9077C309.3026,-163.9034 273.8989,-147.5405 244,-132 212.0169,-115.3762 176.0688,-94.5841 152.7852,-80.8284"/>
<polygon fill="#191970" stroke="#191970" points="154.3123,-77.6649 143.926,-75.5728 150.7407,-83.6852 154.3123,-77.6649"/>
</g>
<!-- Node8 -->
<g id="node9" class="node">
<title>Node8</title>
<g id="a_node9"><a xlink:href="Matrix_8hpp.html" target="_top" xlink:title="lug/Math/Matrix.hpp">
<polygon fill="none" stroke="#000000" points="385,-112.5 385,-131.5 503,-131.5 503,-112.5 385,-112.5"/>
<text text-anchor="middle" x="444" y="-119.5" font-family="Helvetica,sans-Serif" font-size="10.00" fill="#000000">lug/Math/Matrix.hpp</text>
</a>
</g>
</g>
<!-- Node7&#45;&gt;Node8 -->
<g id="edge10" class="edge">
<title>Node7&#45;&gt;Node8</title>
<path fill="none" stroke="#191970" d="M367.2188,-173.8906C381.6434,-164.1421 404.1976,-148.8994 421.136,-137.4521"/>
<polygon fill="#191970" stroke="#191970" points="423.5556,-140.0412 429.8811,-131.5419 419.6359,-134.2415 423.5556,-140.0412"/>
</g>
<!-- Node21 -->
<g id="node22" class="node">
<title>Node21</title>
<g id="a_node22"><a xlink:href="Vector_8inl.html" target="_top" xlink:title="lug/Math/Vector.inl">
<polygon fill="none" stroke="#000000" points="253.5,-112.5 253.5,-131.5 366.5,-131.5 366.5,-112.5 253.5,-112.5"/>
<text text-anchor="middle" x="310" y="-119.5" font-family="Helvetica,sans-Serif" font-size="10.00" fill="#000000">lug/Math/Vector.inl</text>
</a>
</g>
</g>
<!-- Node7&#45;&gt;Node21 -->
<g id="edge26" class="edge">
<title>Node7&#45;&gt;Node21</title>
<path fill="none" stroke="#191970" d="M346.2813,-173.8906C340.007,-164.917 330.4777,-151.2879 322.7596,-140.2491"/>
<polygon fill="#191970" stroke="#191970" points="325.4121,-137.9348 316.8135,-131.7449 319.6753,-141.9459 325.4121,-137.9348"/>
</g>
<!-- Node8&#45;&gt;Node5 -->
<g id="edge11" class="edge">
<title>Node8&#45;&gt;Node5</title>
<path fill="none" stroke="#191970" d="M384.749,-113.222C319.32,-103.3824 217.0882,-87.5411 163.2553,-76.0218"/>
<polygon fill="#191970" stroke="#191970" points="163.6804,-72.531 153.1593,-73.7786 162.1621,-79.3643 163.6804,-72.531"/>
</g>
<!-- Node9 -->
<g id="node10" class="node">
<title>Node9</title>
<polygon fill="none" stroke="#bfbfbf" points="171.5,-56.5 171.5,-75.5 230.5,-75.5 230.5,-56.5 171.5,-56.5"/>
<text text-anchor="middle" x="201" y="-63.5" font-family="Helvetica,sans-Serif" font-size="10.00" fill="#000000">valarray</text>
</g>
<!-- Node8&#45;&gt;Node9 -->
<g id="edge12" class="edge">
<title>Node8&#45;&gt;Node9</title>
<path fill="none" stroke="#191970" d="M400.1403,-112.4984C360.871,-103.904 301.4748,-90.6912 240.5727,-76.0885"/>
<polygon fill="#191970" stroke="#191970" points="241.3296,-72.6708 230.7882,-73.7334 239.6914,-79.4764 241.3296,-72.6708"/>
</g>
<!-- Node10 -->
<g id="node11" class="node">
<title>Node10</title>
<g id="a_node11"><a xlink:href="Math_2Export_8hpp.html" target="_top" xlink:title="lug/Math/Export.hpp">
<polygon fill="none" stroke="#000000" points="677.5,-56.5 677.5,-75.5 796.5,-75.5 796.5,-56.5 677.5,-56.5"/>
<text text-anchor="middle" x="737" y="-63.5" font-family="Helvetica,sans-Serif" font-size="10.00" fill="#000000">lug/Math/Export.hpp</text>
</a>
</g>
</g>
<!-- Node8&#45;&gt;Node10 -->
<g id="edge13" class="edge">
<title>Node8&#45;&gt;Node10</title>
<path fill="none" stroke="#191970" d="M494.0356,-112.4369C544.707,-102.7522 623.0948,-87.7703 677.0559,-77.4569"/>
<polygon fill="#191970" stroke="#191970" points="678.0057,-80.8388 687.1708,-75.5237 676.6915,-73.9633 678.0057,-80.8388"/>
</g>
<!-- Node11 -->
<g id="node12" class="node">
<title>Node11</title>
<g id="a_node12"><a xlink:href="ValArray_8hpp.html" target="_top" xlink:title="lug/Math/ValArray.hpp">
<polygon fill="none" stroke="#000000" points="249,-56.5 249,-75.5 379,-75.5 379,-56.5 249,-56.5"/>
<text text-anchor="middle" x="314" y="-63.5" font-family="Helvetica,sans-Serif" font-size="10.00" fill="#000000">lug/Math/ValArray.hpp</text>
</a>
</g>
</g>
<!-- Node8&#45;&gt;Node11 -->
<g id="edge15" class="edge">
<title>Node8&#45;&gt;Node11</title>
<path fill="none" stroke="#191970" d="M421.6522,-112.3733C400.5967,-103.3032 368.8505,-89.6279 345.2825,-79.4755"/>
<polygon fill="#191970" stroke="#191970" points="346.625,-76.243 336.0562,-75.5011 343.8556,-82.6719 346.625,-76.243"/>
</g>
<!-- Node17 -->
<g id="node18" class="node">
<title>Node17</title>
<g id="a_node18"><a xlink:href="Debug_8hpp.html" target="_top" xlink:title="lug/System/Debug.hpp">
<polygon fill="none" stroke="#000000" points="397.5,-56.5 397.5,-75.5 528.5,-75.5 528.5,-56.5 397.5,-56.5"/>
<text text-anchor="middle" x="463" y="-63.5" font-family="Helvetica,sans-Serif" font-size="10.00" fill="#000000">lug/System/Debug.hpp</text>
</a>
</g>
</g>
<!-- Node8&#45;&gt;Node17 -->
<g id="edge21" class="edge">
<title>Node8&#45;&gt;Node17</title>
<path fill="none" stroke="#191970" d="M447.3095,-112.2455C449.8433,-104.7776 453.4177,-94.2427 456.515,-85.1137"/>
<polygon fill="#191970" stroke="#191970" points="459.8298,-86.237 459.7284,-75.6427 453.2009,-83.9879 459.8298,-86.237"/>
</g>
<!-- Node20 -->
<g id="node21" class="node">
<title>Node20</title>
<g id="a_node21"><a xlink:href="Matrix_8inl.html" target="_top" xlink:title="lug/Math/Matrix.inl">
<polygon fill="none" stroke="#000000" points="547,-56.5 547,-75.5 659,-75.5 659,-56.5 547,-56.5"/>
<text text-anchor="middle" x="603" y="-63.5" font-family="Helvetica,sans-Serif" font-size="10.00" fill="#000000">lug/Math/Matrix.inl</text>
</a>
</g>
</g>
<!-- Node8&#45;&gt;Node20 -->
<g id="edge25" class="edge">
<title>Node8&#45;&gt;Node20</title>
<path fill="none" stroke="#191970" d="M471.3331,-112.3733C497.5434,-103.1419 537.2984,-89.1402 566.2668,-78.9375"/>
<polygon fill="#191970" stroke="#191970" points="567.7542,-82.1244 576.0236,-75.5011 565.4288,-75.5219 567.7542,-82.1244"/>
</g>
<!-- Node10&#45;&gt;Node3 -->
<g id="edge14" class="edge">
<title>Node10&#45;&gt;Node3</title>
<path fill="none" stroke="#191970" d="M737,-56.2455C737,-48.9382 737,-38.6944 737,-29.7046"/>
<polygon fill="#191970" stroke="#191970" points="740.5001,-29.6426 737,-19.6427 733.5001,-29.6427 740.5001,-29.6426"/>
</g>
<!-- Node12 -->
<g id="node13" class="node">
<title>Node12</title>
<polygon fill="none" stroke="#bfbfbf" points="286.5,-.5 286.5,-19.5 351.5,-19.5 351.5,-.5 286.5,-.5"/>
<text text-anchor="middle" x="319" y="-7.5" font-family="Helvetica,sans-Serif" font-size="10.00" fill="#000000">algorithm</text>
</g>
<!-- Node11&#45;&gt;Node12 -->
<g id="edge16" class="edge">
<title>Node11&#45;&gt;Node12</title>
<path fill="none" stroke="#191970" d="M314.8709,-56.2455C315.5234,-48.9382 316.438,-38.6944 317.2407,-29.7046"/>
<polygon fill="#191970" stroke="#191970" points="320.7358,-29.9143 318.139,-19.6427 313.7635,-29.2918 320.7358,-29.9143"/>
</g>
<!-- Node13 -->
<g id="node14" class="node">
<title>Node13</title>
<polygon fill="none" stroke="#bfbfbf" points="370,-.5 370,-19.5 414,-19.5 414,-.5 370,-.5"/>
<text text-anchor="middle" x="392" y="-7.5" font-family="Helvetica,sans-Serif" font-size="10.00" fill="#000000">array</text>
</g>
<!-- Node11&#45;&gt;Node13 -->
<g id="edge17" class="edge">
<title>Node11&#45;&gt;Node13</title>
<path fill="none" stroke="#191970" d="M327.5866,-56.2455C339.3305,-47.814 356.5199,-35.4729 370.1882,-25.6598"/>
<polygon fill="#191970" stroke="#191970" points="372.4871,-28.3179 378.5691,-19.6427 368.4046,-22.6316 372.4871,-28.3179"/>
</g>
<!-- Node14 -->
<g id="node15" class="node">
<title>Node14</title>
<polygon fill="none" stroke="#bfbfbf" points="0,-.5 0,-19.5 50,-19.5 50,-.5 0,-.5"/>
<text text-anchor="middle" x="25" y="-7.5" font-family="Helvetica,sans-Serif" font-size="10.00" fill="#000000">cstring</text>
</g>
<!-- Node11&#45;&gt;Node14 -->
<g id="edge18" class="edge">
<title>Node11&#45;&gt;Node14</title>
<path fill="none" stroke="#191970" d="M250.4707,-56.4876C200.9699,-48.6306 130.3692,-36.4541 60.0836,-20.0705"/>
<polygon fill="#191970" stroke="#191970" points="60.707,-16.6215 50.1704,-17.7308 59.099,-23.4344 60.707,-16.6215"/>
</g>
<!-- Node15 -->
<g id="node16" class="node">
<title>Node15</title>
<polygon fill="none" stroke="#bfbfbf" points="68.5,-.5 68.5,-19.5 125.5,-19.5 125.5,-.5 68.5,-.5"/>
<text text-anchor="middle" x="97" y="-7.5" font-family="Helvetica,sans-Serif" font-size="10.00" fill="#000000">numeric</text>
</g>
<!-- Node11&#45;&gt;Node15 -->
<g id="edge19" class="edge">
<title>Node11&#45;&gt;Node15</title>
<path fill="none" stroke="#191970" d="M276.6146,-56.4596C242.4424,-47.7242 190.2421,-34.3432 135.5115,-20.1227"/>
<polygon fill="#191970" stroke="#191970" points="136.1882,-16.6823 125.6292,-17.5529 134.4265,-23.457 136.1882,-16.6823"/>
</g>
<!-- Node16 -->
<g id="node17" class="node">
<title>Node16</title>
<g id="a_node17"><a xlink:href="ValArray_8inl.html" target="_top" xlink:title="lug/Math/ValArray.inl">
<polygon fill="none" stroke="#000000" points="144,-.5 144,-19.5 268,-19.5 268,-.5 144,-.5"/>
<text text-anchor="middle" x="206" y="-7.5" font-family="Helvetica,sans-Serif" font-size="10.00" fill="#000000">lug/Math/ValArray.inl</text>
</a>
</g>
</g>
<!-- Node11&#45;&gt;Node16 -->
<g id="edge20" class="edge">
<title>Node11&#45;&gt;Node16</title>
<path fill="none" stroke="#191970" d="M295.1878,-56.2455C278.1527,-47.4125 252.8425,-34.2887 233.5319,-24.2758"/>
<polygon fill="#191970" stroke="#191970" points="235.0853,-21.1388 224.5966,-19.6427 231.863,-27.353 235.0853,-21.1388"/>
</g>
<!-- Node17&#45;&gt;Node3 -->
<g id="edge22" class="edge">
<title>Node17&#45;&gt;Node3</title>
<path fill="none" stroke="#191970" d="M509.791,-56.4369C557.5515,-46.6756 631.6428,-31.5329 682.1366,-21.213"/>
<polygon fill="#191970" stroke="#191970" points="683.1238,-24.5836 692.2204,-19.152 681.7221,-17.7254 683.1238,-24.5836"/>
</g>
<!-- Node18 -->
<g id="node19" class="node">
<title>Node18</title>
<g id="a_node19"><a xlink:href="Utils_8hpp.html" target="_top" xlink:title="lug/System/Utils.hpp">
<polygon fill="none" stroke="#000000" points="512,-.5 512,-19.5 634,-19.5 634,-.5 512,-.5"/>
<text text-anchor="middle" x="573" y="-7.5" font-family="Helvetica,sans-Serif" font-size="10.00" fill="#000000">lug/System/Utils.hpp</text>
</a>
</g>
</g>
<!-- Node17&#45;&gt;Node18 -->
<g id="edge23" class="edge">
<title>Node17&#45;&gt;Node18</title>
<path fill="none" stroke="#191970" d="M482.1605,-56.2455C499.5111,-47.4125 525.2901,-34.2887 544.9583,-24.2758"/>
<polygon fill="#191970" stroke="#191970" points="546.7353,-27.2986 554.059,-19.6427 543.5595,-21.0605 546.7353,-27.2986"/>
</g>
<!-- Node19 -->
<g id="node20" class="node">
<title>Node19</title>
<polygon fill="none" stroke="#bfbfbf" points="432.5,-.5 432.5,-19.5 493.5,-19.5 493.5,-.5 432.5,-.5"/>
<text text-anchor="middle" x="463" y="-7.5" font-family="Helvetica,sans-Serif" font-size="10.00" fill="#000000">iostream</text>
</g>
<!-- Node17&#45;&gt;Node19 -->
<g id="edge24" class="edge">
<title>Node17&#45;&gt;Node19</title>
<path fill="none" stroke="#191970" d="M463,-56.2455C463,-48.9382 463,-38.6944 463,-29.7046"/>
<polygon fill="#191970" stroke="#191970" points="466.5001,-29.6426 463,-19.6427 459.5001,-29.6427 466.5001,-29.6426"/>
</g>
<!-- Node23&#45;&gt;Node2 -->
<g id="edge30" class="edge">
<title>Node23&#45;&gt;Node2</title>
<path fill="none" stroke="#191970" d="M566.4853,-235.2967C552.6958,-224.5537 534.2582,-210.1895 520.2972,-199.3129"/>
<polygon fill="#191970" stroke="#191970" points="522.3042,-196.4398 512.2646,-193.055 518.0022,-201.9618 522.3042,-196.4398"/>
</g>
<!-- Node24 -->
<g id="node25" class="node">
<title>Node24</title>
<polygon fill="none" stroke="#bfbfbf" points="719.5,-174 719.5,-193 764.5,-193 764.5,-174 719.5,-174"/>
<text text-anchor="middle" x="742" y="-181" font-family="Helvetica,sans-Serif" font-size="10.00" fill="#000000">string</text>
</g>
<!-- Node23&#45;&gt;Node24 -->
<g id="edge29" class="edge">
<title>Node23&#45;&gt;Node24</title>
<path fill="none" stroke="#191970" d="M623.9562,-235.3946C648.6262,-225.4151 681.4023,-211.8519 710,-199 711.1719,-198.4734 712.3647,-197.9299 713.5673,-197.3759"/>
<polygon fill="#191970" stroke="#191970" points="715.2422,-200.4557 722.7935,-193.0241 712.2559,-194.1246 715.2422,-200.4557"/>
</g>
<!-- Node25 -->
<g id="node26" class="node">
<title>Node25</title>
<g id="a_node26"><a xlink:href="MovableObject_8inl.html" target="_top" xlink:title="lug/Graphics/Scene\l/MovableObject.inl">
<polygon fill="none" stroke="#000000" points="587,-168.5 587,-198.5 701,-198.5 701,-168.5 587,-168.5"/>
<text text-anchor="start" x="595" y="-186.5" font-family="Helvetica,sans-Serif" font-size="10.00" fill="#000000">lug/Graphics/Scene</text>
<text text-anchor="middle" x="644" y="-175.5" font-family="Helvetica,sans-Serif" font-size="10.00" fill="#000000">/MovableObject.inl</text>
</a>
</g>
</g>
<!-- Node23&#45;&gt;Node25 -->
<g id="edge31" class="edge">
<title>Node23&#45;&gt;Node25</title>
<path fill="none" stroke="#191970" d="M599.1611,-235.2967C606.5768,-226.7303 615.9857,-215.8614 624.2677,-206.2943"/>
<polygon fill="#191970" stroke="#191970" points="626.9922,-208.4946 630.891,-198.6432 621.6997,-203.913 626.9922,-208.4946"/>
</g>
</g>
</svg>
        <g id="navigator" transform="translate(0 0)" fill="#404254">
                <rect fill="#f2f5e9" fill-opacity="0.5" stroke="#606060" stroke-width=".5" x="0" y="0" width="60" height="60"/>
                <use id="zoomplus" xlink:href="#zoomPlus" x="17" y="9" onmousedown="handleZoom(evt,'in')"/>
                <use id="zoomminus" xlink:href="#zoomMin" x="42" y="9" onmousedown="handleZoom(evt,'out')"/>
                <use id="reset" xlink:href="#resetDef" x="30" y="36" onmousedown="handleReset()"/>
                <g id="arrowUp" xlink:href="#dirArrow" transform="translate(30 24)" onmousedown="handlePan(0,-1)">
                  <use xlink:href="#rim" fill="#404040">
                        <set attributeName="fill" to="#808080" begin="arrowUp.mouseover" end="arrowUp.mouseout"/>
                  </use>
                  <path fill="none" stroke="white" stroke-width="1.5" d="M0,-3.0v7 M-2.5,-0.5L0,-3.0L2.5,-0.5"/>
                </g>
                <g id="arrowRight" xlink:href="#dirArrow" transform="rotate(90) translate(36 -43)" onmousedown="handlePan(1,0)">
                  <use xlink:href="#rim" fill="#404040">
                        <set attributeName="fill" to="#808080" begin="arrowRight.mouseover" end="arrowRight.mouseout"/>
                  </use>
                  <path fill="none" stroke="white" stroke-width="1.5" d="M0,-3.0v7 M-2.5,-0.5L0,-3.0L2.5,-0.5"/>
                </g>
                <g id="arrowDown" xlink:href="#dirArrow" transform="rotate(180) translate(-30 -48)" onmousedown="handlePan(0,1)">
                  <use xlink:href="#rim" fill="#404040">
                        <set attributeName="fill" to="#808080" begin="arrowDown.mouseover" end="arrowDown.mouseout"/>
                  </use>
                  <path fill="none" stroke="white" stroke-width="1.5" d="M0,-3.0v7 M-2.5,-0.5L0,-3.0L2.5,-0.5"/>
                </g>
                <g id="arrowLeft" xlink:href="#dirArrow" transform="rotate(270) translate(-36 17)" onmousedown="handlePan(-1,0)">
                  <use xlink:href="#rim" fill="#404040">
                        <set attributeName="fill" to="#808080" begin="arrowLeft.mouseover" end="arrowLeft.mouseout"/>
                  </use>
                  <path fill="none" stroke="white" stroke-width="1.5" d="M0,-3.0v7 M-2.5,-0.5L0,-3.0L2.5,-0.5"/>
                </g>
        </g>
        <svg viewBox="0 0 15 15" width="100%" height="30px" preserveAspectRatio="xMaxYMin meet">
         <g id="arrow_out" transform="scale(0.3 0.3)">
          <a xlink:href="MeshInstance_8cpp__incl_org.svg" target="_base">
           <rect id="button" ry="5" rx="5" y="6" x="6" height="38" width="38"
                fill="#f2f5e9" fill-opacity="0.5" stroke="#606060" stroke-width="1.0"/>
           <path id="arrow"
             d="M 11.500037,31.436501 C 11.940474,20.09759 22.043105,11.32322 32.158766,21.979434 L 37.068811,17.246167 C 37.068811,17.246167 37.088388,32 37.088388,32 L 22.160133,31.978069 C 22.160133,31.978069 26.997745,27.140456 26.997745,27.140456 C 18.528582,18.264221 13.291696,25.230495 11.500037,31.436501 z"
             style="fill:#404040;"/>
          </a>
         </g>
        </svg>
</svg>
