<?xml version="1.0" encoding="UTF-8" standalone="no"?>
<!DOCTYPE svg PUBLIC "-//W3C//DTD SVG 1.1//EN"
 "http://www.w3.org/Graphics/SVG/1.1/DTD/svg11.dtd">
<!-- Generated by graphviz version 2.40.1 (20161225.0304)
 -->
<!-- Title: include/lug/Graphics/Scene/ModelInstance.inl Pages: 1 -->
<svg width="1076pt" height="363pt"
 viewBox="0.00 0.00 1075.50 363.00" xmlns="http://www.w3.org/2000/svg" xmlns:xlink="http://www.w3.org/1999/xlink">
<g id="graph0" class="graph" transform="scale(1 1) rotate(0) translate(4 359)">
<title>include/lug/Graphics/Scene/ModelInstance.inl</title>
<!-- Node1 -->
<g id="node1" class="node">
<title>Node1</title>
<polygon fill="#bfbfbf" stroke="#000000" points="655.5,-324.5 655.5,-354.5 798.5,-354.5 798.5,-324.5 655.5,-324.5"/>
<text text-anchor="start" x="663.5" y="-342.5" font-family="Helvetica,sans-Serif" font-size="10.00" fill="#000000">include/lug/Graphics</text>
<text text-anchor="middle" x="727" y="-331.5" font-family="Helvetica,sans-Serif" font-size="10.00" fill="#000000">/Scene/ModelInstance.inl</text>
</g>
<!-- Node2 -->
<g id="node2" class="node">
<title>Node2</title>
<g id="a_node2"><a xlink:href="ModelInstance_8hpp.html" target="_top" xlink:title="include/lug/Graphics\l/Scene/ModelInstance.hpp">
<polygon fill="none" stroke="#000000" points="652.5,-257.5 652.5,-287.5 801.5,-287.5 801.5,-257.5 652.5,-257.5"/>
<text text-anchor="start" x="660.5" y="-275.5" font-family="Helvetica,sans-Serif" font-size="10.00" fill="#000000">include/lug/Graphics</text>
<text text-anchor="middle" x="727" y="-264.5" font-family="Helvetica,sans-Serif" font-size="10.00" fill="#000000">/Scene/ModelInstance.hpp</text>
</a>
</g>
</g>
<!-- Node1&#45;&gt;Node2 -->
<g id="edge1" class="edge">
<title>Node1&#45;&gt;Node2</title>
<path fill="none" stroke="#191970" d="M727,-314.0249C727,-305.128 727,-295.4287 727,-287.6432"/>
<polygon fill="#191970" stroke="#191970" points="723.5001,-314.2966 727,-324.2967 730.5001,-314.2967 723.5001,-314.2966"/>
</g>
<!-- Node3 -->
<g id="node3" class="node">
<title>Node3</title>
<g id="a_node3"><a xlink:href="Scene_8hpp.html" target="_top" xlink:title="include/lug/Graphics\l/Scene/Scene.hpp">
<polygon fill="none" stroke="#000000" points="443.5,-190.5 443.5,-220.5 562.5,-220.5 562.5,-190.5 443.5,-190.5"/>
<text text-anchor="start" x="451.5" y="-208.5" font-family="Helvetica,sans-Serif" font-size="10.00" fill="#000000">include/lug/Graphics</text>
<text text-anchor="middle" x="503" y="-197.5" font-family="Helvetica,sans-Serif" font-size="10.00" fill="#000000">/Scene/Scene.hpp</text>
</a>
</g>
</g>
<!-- Node2&#45;&gt;Node3 -->
<g id="edge2" class="edge">
<title>Node2&#45;&gt;Node3</title>
<path fill="none" stroke="#191970" d="M666.9828,-254.5484C631.5267,-243.9432 587.1388,-230.6665 553.4892,-220.6017"/>
<polygon fill="#191970" stroke="#191970" points="666.1464,-257.9514 676.73,-257.4639 668.1524,-251.245 666.1464,-257.9514"/>
</g>
<!-- Node12 -->
<g id="node12" class="node">
<title>Node12</title>
<g id="a_node12"><a xlink:href="Render_2Queue_8cpp.html" target="_top" xlink:title="src/lug/Graphics/Render\l/Queue.cpp">
<polygon fill="none" stroke="#000000" points="580.5,-190.5 580.5,-220.5 719.5,-220.5 719.5,-190.5 580.5,-190.5"/>
<text text-anchor="start" x="588.5" y="-208.5" font-family="Helvetica,sans-Serif" font-size="10.00" fill="#000000">src/lug/Graphics/Render</text>
<text text-anchor="middle" x="650" y="-197.5" font-family="Helvetica,sans-Serif" font-size="10.00" fill="#000000">/Queue.cpp</text>
</a>
</g>
</g>
<!-- Node2&#45;&gt;Node12 -->
<g id="edge11" class="edge">
<title>Node2&#45;&gt;Node12</title>
<path fill="none" stroke="#191970" d="M701.7124,-250.4965C690.476,-240.7193 677.5308,-229.4554 667.4033,-220.6432"/>
<polygon fill="#191970" stroke="#191970" points="699.6861,-253.3728 709.5275,-257.2967 704.281,-248.092 699.6861,-253.3728"/>
</g>
<!-- Node13 -->
<g id="node13" class="node">
<title>Node13</title>
<g id="a_node13"><a xlink:href="ModelInstance_8cpp.html" target="_top" xlink:title="src/lug/Graphics/Scene\l/ModelInstance.cpp">
<polygon fill="none" stroke="#000000" points="738,-190.5 738,-220.5 872,-220.5 872,-190.5 738,-190.5"/>
<text text-anchor="start" x="746" y="-208.5" font-family="Helvetica,sans-Serif" font-size="10.00" fill="#000000">src/lug/Graphics/Scene</text>
<text text-anchor="middle" x="805" y="-197.5" font-family="Helvetica,sans-Serif" font-size="10.00" fill="#000000">/ModelInstance.cpp</text>
</a>
</g>
</g>
<!-- Node2&#45;&gt;Node13 -->
<g id="edge12" class="edge">
<title>Node2&#45;&gt;Node13</title>
<path fill="none" stroke="#191970" d="M752.616,-250.4965C763.9984,-240.7193 777.1116,-229.4554 787.3706,-220.6432"/>
<polygon fill="#191970" stroke="#191970" points="750.0045,-248.1257 744.6994,-257.2967 754.5657,-253.4357 750.0045,-248.1257"/>
</g>
<!-- Node14 -->
<g id="node14" class="node">
<title>Node14</title>
<g id="a_node14"><a xlink:href="Forward_8cpp.html" target="_top" xlink:title="src/lug/Graphics/Vulkan\l/Render/Technique/Forward.cpp">
<polygon fill="none" stroke="#000000" points="890.5,-190.5 890.5,-220.5 1067.5,-220.5 1067.5,-190.5 890.5,-190.5"/>
<text text-anchor="start" x="898.5" y="-208.5" font-family="Helvetica,sans-Serif" font-size="10.00" fill="#000000">src/lug/Graphics/Vulkan</text>
<text text-anchor="middle" x="979" y="-197.5" font-family="Helvetica,sans-Serif" font-size="10.00" fill="#000000">/Render/Technique/Forward.cpp</text>
</a>
</g>
</g>
<!-- Node2&#45;&gt;Node14 -->
<g id="edge13" class="edge">
<title>Node2&#45;&gt;Node14</title>
<path fill="none" stroke="#191970" d="M793.2444,-254.8874C833.3391,-244.2273 883.9394,-230.774 922.1996,-220.6017"/>
<polygon fill="#191970" stroke="#191970" points="792.3186,-251.5119 783.5537,-257.4639 794.1173,-258.2768 792.3186,-251.5119"/>
</g>
<!-- Node4 -->
<g id="node4" class="node">
<title>Node4</title>
<g id="a_node4"><a xlink:href="Graphics_8hpp.html" target="_top" xlink:title="include/lug/Graphics\l/Graphics.hpp">
<polygon fill="none" stroke="#000000" points="222.5,-123.5 222.5,-153.5 341.5,-153.5 341.5,-123.5 222.5,-123.5"/>
<text text-anchor="start" x="230.5" y="-141.5" font-family="Helvetica,sans-Serif" font-size="10.00" fill="#000000">include/lug/Graphics</text>
<text text-anchor="middle" x="282" y="-130.5" font-family="Helvetica,sans-Serif" font-size="10.00" fill="#000000">/Graphics.hpp</text>
</a>
</g>
</g>
<!-- Node3&#45;&gt;Node4 -->
<g id="edge3" class="edge">
<title>Node3&#45;&gt;Node4</title>
<path fill="none" stroke="#191970" d="M443.7866,-187.5484C408.8053,-176.9432 365.0119,-163.6665 331.813,-153.6017"/>
<polygon fill="#191970" stroke="#191970" points="442.8179,-190.912 453.4033,-190.4639 444.8489,-184.2131 442.8179,-190.912"/>
</g>
<!-- Node9 -->
<g id="node9" class="node">
<title>Node9</title>
<g id="a_node9"><a xlink:href="Scene_2Node_8cpp.html" target="_top" xlink:title="src/lug/Graphics/Scene\l/Node.cpp">
<polygon fill="none" stroke="#000000" points="360,-123.5 360,-153.5 494,-153.5 494,-123.5 360,-123.5"/>
<text text-anchor="start" x="368" y="-141.5" font-family="Helvetica,sans-Serif" font-size="10.00" fill="#000000">src/lug/Graphics/Scene</text>
<text text-anchor="middle" x="427" y="-130.5" font-family="Helvetica,sans-Serif" font-size="10.00" fill="#000000">/Node.cpp</text>
</a>
</g>
</g>
<!-- Node3&#45;&gt;Node9 -->
<g id="edge8" class="edge">
<title>Node3&#45;&gt;Node9</title>
<path fill="none" stroke="#191970" d="M478.0408,-183.4965C466.9503,-173.7193 454.1733,-162.4554 444.1773,-153.6432"/>
<polygon fill="#191970" stroke="#191970" points="475.9386,-186.3091 485.7544,-190.2967 480.5677,-181.0582 475.9386,-186.3091"/>
</g>
<!-- Node10 -->
<g id="node10" class="node">
<title>Node10</title>
<g id="a_node10"><a xlink:href="Scene_8cpp.html" target="_top" xlink:title="src/lug/Graphics/Scene\l/Scene.cpp">
<polygon fill="none" stroke="#000000" points="512,-123.5 512,-153.5 646,-153.5 646,-123.5 512,-123.5"/>
<text text-anchor="start" x="520" y="-141.5" font-family="Helvetica,sans-Serif" font-size="10.00" fill="#000000">src/lug/Graphics/Scene</text>
<text text-anchor="middle" x="579" y="-130.5" font-family="Helvetica,sans-Serif" font-size="10.00" fill="#000000">/Scene.cpp</text>
</a>
</g>
</g>
<!-- Node3&#45;&gt;Node10 -->
<g id="edge9" class="edge">
<title>Node3&#45;&gt;Node10</title>
<path fill="none" stroke="#191970" d="M527.9592,-183.4965C539.0497,-173.7193 551.8267,-162.4554 561.8227,-153.6432"/>
<polygon fill="#191970" stroke="#191970" points="525.4323,-181.0582 520.2456,-190.2967 530.0614,-186.3091 525.4323,-181.0582"/>
</g>
<!-- Node11 -->
<g id="node11" class="node">
<title>Node11</title>
<g id="a_node11"><a xlink:href="Vulkan_2Render_2Camera_8cpp.html" target="_top" xlink:title="src/lug/Graphics/Vulkan\l/Render/Camera.cpp">
<polygon fill="none" stroke="#000000" points="664.5,-123.5 664.5,-153.5 801.5,-153.5 801.5,-123.5 664.5,-123.5"/>
<text text-anchor="start" x="672.5" y="-141.5" font-family="Helvetica,sans-Serif" font-size="10.00" fill="#000000">src/lug/Graphics/Vulkan</text>
<text text-anchor="middle" x="733" y="-130.5" font-family="Helvetica,sans-Serif" font-size="10.00" fill="#000000">/Render/Camera.cpp</text>
</a>
</g>
</g>
<!-- Node3&#45;&gt;Node11 -->
<g id="edge10" class="edge">
<title>Node3&#45;&gt;Node11</title>
<path fill="none" stroke="#191970" d="M564.6248,-187.5484C601.0307,-176.9432 646.6075,-163.6665 681.1584,-153.6017"/>
<polygon fill="#191970" stroke="#191970" points="563.2385,-184.3067 554.6165,-190.4639 565.1963,-191.0274 563.2385,-184.3067"/>
</g>
<!-- Node5 -->
<g id="node5" class="node">
<title>Node5</title>
<g id="a_node5"><a xlink:href="Application_8hpp.html" target="_top" xlink:title="include/lug/Core/Application.hpp">
<polygon fill="none" stroke="#000000" points="0,-62 0,-81 180,-81 180,-62 0,-62"/>
<text text-anchor="middle" x="90" y="-69" font-family="Helvetica,sans-Serif" font-size="10.00" fill="#000000">include/lug/Core/Application.hpp</text>
</a>
</g>
</g>
<!-- Node4&#45;&gt;Node5 -->
<g id="edge4" class="edge">
<title>Node4&#45;&gt;Node5</title>
<path fill="none" stroke="#191970" d="M229.4501,-120.1623C193.1434,-107.4928 146.3285,-91.1563 117.239,-81.0053"/>
<polygon fill="#191970" stroke="#191970" points="228.3166,-123.4737 238.9115,-123.4639 230.623,-116.8645 228.3166,-123.4737"/>
</g>
<!-- Node7 -->
<g id="node7" class="node">
<title>Node7</title>
<g id="a_node7"><a xlink:href="Graphics_8cpp.html" target="_top" xlink:title="src/lug/Graphics/Graphics.cpp">
<polygon fill="none" stroke="#000000" points="198,-62 198,-81 366,-81 366,-62 198,-62"/>
<text text-anchor="middle" x="282" y="-69" font-family="Helvetica,sans-Serif" font-size="10.00" fill="#000000">src/lug/Graphics/Graphics.cpp</text>
</a>
</g>
</g>
<!-- Node4&#45;&gt;Node7 -->
<g id="edge6" class="edge">
<title>Node4&#45;&gt;Node7</title>
<path fill="none" stroke="#191970" d="M282,-113.1199C282,-101.9072 282,-89.4031 282,-81.055"/>
<polygon fill="#191970" stroke="#191970" points="278.5001,-113.2966 282,-123.2967 285.5001,-113.2967 278.5001,-113.2966"/>
</g>
<!-- Node8 -->
<g id="node8" class="node">
<title>Node8</title>
<g id="a_node8"><a xlink:href="Vulkan_2Renderer_8cpp.html" target="_top" xlink:title="src/lug/Graphics/Vulkan\l/Renderer.cpp">
<polygon fill="none" stroke="#000000" points="384.5,-56.5 384.5,-86.5 521.5,-86.5 521.5,-56.5 384.5,-56.5"/>
<text text-anchor="start" x="392.5" y="-74.5" font-family="Helvetica,sans-Serif" font-size="10.00" fill="#000000">src/lug/Graphics/Vulkan</text>
<text text-anchor="middle" x="453" y="-63.5" font-family="Helvetica,sans-Serif" font-size="10.00" fill="#000000">/Renderer.cpp</text>
</a>
</g>
</g>
<!-- Node4&#45;&gt;Node8 -->
<g id="edge7" class="edge">
<title>Node4&#45;&gt;Node8</title>
<path fill="none" stroke="#191970" d="M329.912,-119.7275C356.616,-109.2645 389.4277,-96.4084 414.4569,-86.6017"/>
<polygon fill="#191970" stroke="#191970" points="328.4097,-116.5569 320.3757,-123.4639 330.9634,-123.0745 328.4097,-116.5569"/>
</g>
<!-- Node6 -->
<g id="node6" class="node">
<title>Node6</title>
<g id="a_node6"><a xlink:href="Application_8cpp.html" target="_top" xlink:title="src/lug/Core/Application.cpp">
<polygon fill="none" stroke="#000000" points="10.5,-.5 10.5,-19.5 169.5,-19.5 169.5,-.5 10.5,-.5"/>
<text text-anchor="middle" x="90" y="-7.5" font-family="Helvetica,sans-Serif" font-size="10.00" fill="#000000">src/lug/Core/Application.cpp</text>
</a>
</g>
</g>
<!-- Node5&#45;&gt;Node6 -->
<g id="edge5" class="edge">
<title>Node5&#45;&gt;Node6</title>
<path fill="none" stroke="#191970" d="M90,-51.7462C90,-41.0519 90,-28.314 90,-19.7449"/>
<polygon fill="#191970" stroke="#191970" points="86.5001,-51.8906 90,-61.8906 93.5001,-51.8907 86.5001,-51.8906"/>
</g>
</g>
</svg>
