<?xml version="1.0" encoding="UTF-8" standalone="no"?>
<!DOCTYPE svg PUBLIC "-//W3C//DTD SVG 1.1//EN"
 "http://www.w3.org/Graphics/SVG/1.1/DTD/svg11.dtd">
<!-- Generated by graphviz version 2.40.1 (20161225.0304)
 -->
<!-- Title: include/lug/Graphics/Module.hpp Pages: 1 -->
<svg width="880pt" height="296pt"
 viewBox="0.00 0.00 879.50 296.00" xmlns="http://www.w3.org/2000/svg" xmlns:xlink="http://www.w3.org/1999/xlink">
<g id="graph0" class="graph" transform="scale(1 1) rotate(0) translate(4 292)">
<title>include/lug/Graphics/Module.hpp</title>
<!-- Node7 -->
<g id="node1" class="node">
<title>Node7</title>
<polygon fill="#bfbfbf" stroke="#000000" points="325.5,-257.5 325.5,-287.5 444.5,-287.5 444.5,-257.5 325.5,-257.5"/>
<text text-anchor="start" x="333.5" y="-275.5" font-family="Helvetica,sans-Serif" font-size="10.00" fill="#000000">include/lug/Graphics</text>
<text text-anchor="middle" x="385" y="-264.5" font-family="Helvetica,sans-Serif" font-size="10.00" fill="#000000">/Module.hpp</text>
</g>
<!-- Node8 -->
<g id="node2" class="node">
<title>Node8</title>
<g id="a_node2"><a xlink:href="Graphics_8hpp.html" target="_top" xlink:title="include/lug/Graphics\l/Graphics.hpp">
<polygon fill="none" stroke="#000000" points="281.5,-123.5 281.5,-153.5 400.5,-153.5 400.5,-123.5 281.5,-123.5"/>
<text text-anchor="start" x="289.5" y="-141.5" font-family="Helvetica,sans-Serif" font-size="10.00" fill="#000000">include/lug/Graphics</text>
<text text-anchor="middle" x="341" y="-130.5" font-family="Helvetica,sans-Serif" font-size="10.00" fill="#000000">/Graphics.hpp</text>
</a>
</g>
</g>
<!-- Node7&#45;&gt;Node8 -->
<g id="edge1" class="edge">
<title>Node7&#45;&gt;Node8</title>
<path fill="none" stroke="#191970" d="M371.8059,-248.1932C367.6056,-239.7583 363.2191,-230.1252 360,-221 351.9321,-198.1299 346.3712,-170.4686 343.4372,-153.693"/>
<polygon fill="#191970" stroke="#191970" points="368.7096,-249.8256 376.397,-257.1164 374.9341,-246.623 368.7096,-249.8256"/>
</g>
<!-- Node11 -->
<g id="node5" class="node">
<title>Node11</title>
<g id="a_node5"><a xlink:href="Graphics_8cpp.html" target="_top" xlink:title="src/lug/Graphics/Graphics.cpp">
<polygon fill="none" stroke="#000000" points="198,-62 198,-81 366,-81 366,-62 198,-62"/>
<text text-anchor="middle" x="282" y="-69" font-family="Helvetica,sans-Serif" font-size="10.00" fill="#000000">src/lug/Graphics/Graphics.cpp</text>
</a>
</g>
</g>
<!-- Node7&#45;&gt;Node11 -->
<g id="edge14" class="edge">
<title>Node7&#45;&gt;Node11</title>
<path fill="none" stroke="#191970" d="M354.2226,-251.1766C326.777,-230.1112 288.4697,-195.1366 272,-154 262.0256,-129.0869 271.8242,-96.8245 277.9286,-81.0437"/>
<polygon fill="#191970" stroke="#191970" points="352.251,-254.0726 362.3553,-257.259 356.4435,-248.4669 352.251,-254.0726"/>
</g>
<!-- Node13 -->
<g id="node7" class="node">
<title>Node13</title>
<g id="a_node7"><a xlink:href="Renderer_8hpp.html" target="_top" xlink:title="include/lug/Graphics\l/Renderer.hpp">
<polygon fill="none" stroke="#000000" points="369.5,-190.5 369.5,-220.5 488.5,-220.5 488.5,-190.5 369.5,-190.5"/>
<text text-anchor="start" x="377.5" y="-208.5" font-family="Helvetica,sans-Serif" font-size="10.00" fill="#000000">include/lug/Graphics</text>
<text text-anchor="middle" x="429" y="-197.5" font-family="Helvetica,sans-Serif" font-size="10.00" fill="#000000">/Renderer.hpp</text>
</a>
</g>
</g>
<!-- Node7&#45;&gt;Node13 -->
<g id="edge6" class="edge">
<title>Node7&#45;&gt;Node13</title>
<path fill="none" stroke="#191970" d="M400.5816,-248.7735C406.7272,-239.4154 413.6052,-228.9421 419.0552,-220.6432"/>
<polygon fill="#191970" stroke="#191970" points="397.5481,-247.0167 394.9843,-257.2967 403.3992,-250.8592 397.5481,-247.0167"/>
</g>
<!-- Node18 -->
<g id="node12" class="node">
<title>Node18</title>
<g id="a_node12"><a xlink:href="Module_8cpp.html" target="_top" xlink:title="src/lug/Graphics/Module.cpp">
<polygon fill="none" stroke="#000000" points="507,-196 507,-215 667,-215 667,-196 507,-196"/>
<text text-anchor="middle" x="587" y="-203" font-family="Helvetica,sans-Serif" font-size="10.00" fill="#000000">src/lug/Graphics/Module.cpp</text>
</a>
</g>
</g>
<!-- Node7&#45;&gt;Node18 -->
<g id="edge15" class="edge">
<title>Node7&#45;&gt;Node18</title>
<path fill="none" stroke="#191970" d="M440.2869,-254.1623C478.4845,-241.4928 527.7378,-225.1563 558.3423,-215.0053"/>
<polygon fill="#191970" stroke="#191970" points="438.7224,-250.9936 430.3327,-257.4639 440.9262,-257.6377 438.7224,-250.9936"/>
</g>
<!-- Node9 -->
<g id="node3" class="node">
<title>Node9</title>
<g id="a_node3"><a xlink:href="Application_8hpp.html" target="_top" xlink:title="include/lug/Core/Application.hpp">
<polygon fill="none" stroke="#000000" points="0,-62 0,-81 180,-81 180,-62 0,-62"/>
<text text-anchor="middle" x="90" y="-69" font-family="Helvetica,sans-Serif" font-size="10.00" fill="#000000">include/lug/Core/Application.hpp</text>
</a>
</g>
</g>
<!-- Node8&#45;&gt;Node9 -->
<g id="edge2" class="edge">
<title>Node8&#45;&gt;Node9</title>
<path fill="none" stroke="#191970" d="M274.7135,-120.806C226.9287,-108.0507 164.285,-91.3291 125.6094,-81.0053"/>
<polygon fill="#191970" stroke="#191970" points="274.1063,-124.2664 284.6707,-123.4639 275.9117,-117.5032 274.1063,-124.2664"/>
</g>
<!-- Node8&#45;&gt;Node11 -->
<g id="edge4" class="edge">
<title>Node8&#45;&gt;Node11</title>
<path fill="none" stroke="#191970" d="M320.7684,-115.5252C310.3848,-103.7336 298.2959,-90.0055 290.4141,-81.055"/>
<polygon fill="#191970" stroke="#191970" points="318.3764,-118.1048 327.612,-123.2967 323.6299,-113.4786 318.3764,-118.1048"/>
</g>
<!-- Node12 -->
<g id="node6" class="node">
<title>Node12</title>
<g id="a_node6"><a xlink:href="Vulkan_2Renderer_8cpp.html" target="_top" xlink:title="src/lug/Graphics/Vulkan\l/Renderer.cpp">
<polygon fill="none" stroke="#000000" points="384.5,-56.5 384.5,-86.5 521.5,-86.5 521.5,-56.5 384.5,-56.5"/>
<text text-anchor="start" x="392.5" y="-74.5" font-family="Helvetica,sans-Serif" font-size="10.00" fill="#000000">src/lug/Graphics/Vulkan</text>
<text text-anchor="middle" x="453" y="-63.5" font-family="Helvetica,sans-Serif" font-size="10.00" fill="#000000">/Renderer.cpp</text>
</a>
</g>
</g>
<!-- Node8&#45;&gt;Node12 -->
<g id="edge5" class="edge">
<title>Node8&#45;&gt;Node12</title>
<path fill="none" stroke="#191970" d="M375.1415,-118.0761C392.0228,-107.9774 412.0475,-95.9983 427.5614,-86.7177"/>
<polygon fill="#191970" stroke="#191970" points="372.9199,-115.3266 366.135,-123.4639 376.5135,-121.3338 372.9199,-115.3266"/>
</g>
<!-- Node10 -->
<g id="node4" class="node">
<title>Node10</title>
<g id="a_node4"><a xlink:href="Application_8cpp.html" target="_top" xlink:title="src/lug/Core/Application.cpp">
<polygon fill="none" stroke="#000000" points="10.5,-.5 10.5,-19.5 169.5,-19.5 169.5,-.5 10.5,-.5"/>
<text text-anchor="middle" x="90" y="-7.5" font-family="Helvetica,sans-Serif" font-size="10.00" fill="#000000">src/lug/Core/Application.cpp</text>
</a>
</g>
</g>
<!-- Node9&#45;&gt;Node10 -->
<g id="edge3" class="edge">
<title>Node9&#45;&gt;Node10</title>
<path fill="none" stroke="#191970" d="M90,-51.7462C90,-41.0519 90,-28.314 90,-19.7449"/>
<polygon fill="#191970" stroke="#191970" points="86.5001,-51.8906 90,-61.8906 93.5001,-51.8907 86.5001,-51.8906"/>
</g>
<!-- Node13&#45;&gt;Node8 -->
<g id="edge7" class="edge">
<title>Node13&#45;&gt;Node8</title>
<path fill="none" stroke="#191970" d="M400.8457,-184.0643C387.834,-174.1577 372.6886,-162.6265 360.8895,-153.6432"/>
<polygon fill="#191970" stroke="#191970" points="398.9548,-187.0237 409.0314,-190.2967 403.1952,-181.4542 398.9548,-187.0237"/>
</g>
<!-- Node14 -->
<g id="node8" class="node">
<title>Node14</title>
<g id="a_node8"><a xlink:href="Vulkan_2Renderer_8hpp.html" target="_top" xlink:title="include/lug/Graphics\l/Vulkan/Renderer.hpp">
<polygon fill="none" stroke="#000000" points="418.5,-123.5 418.5,-153.5 545.5,-153.5 545.5,-123.5 418.5,-123.5"/>
<text text-anchor="start" x="426.5" y="-141.5" font-family="Helvetica,sans-Serif" font-size="10.00" fill="#000000">include/lug/Graphics</text>
<text text-anchor="middle" x="482" y="-130.5" font-family="Helvetica,sans-Serif" font-size="10.00" fill="#000000">/Vulkan/Renderer.hpp</text>
</a>
</g>
</g>
<!-- Node13&#45;&gt;Node14 -->
<g id="edge8" class="edge">
<title>Node13&#45;&gt;Node14</title>
<path fill="none" stroke="#191970" d="M447.312,-182.3509C454.8291,-172.8482 463.3209,-162.1132 470.0211,-153.6432"/>
<polygon fill="#191970" stroke="#191970" points="444.4856,-180.2824 441.0265,-190.2967 449.9756,-184.6252 444.4856,-180.2824"/>
</g>
<!-- Node17 -->
<g id="node11" class="node">
<title>Node17</title>
<g id="a_node11"><a xlink:href="Renderer_8cpp.html" target="_top" xlink:title="src/lug/Graphics/Renderer.cpp">
<polygon fill="none" stroke="#000000" points="564,-129 564,-148 734,-148 734,-129 564,-129"/>
<text text-anchor="middle" x="649" y="-136" font-family="Helvetica,sans-Serif" font-size="10.00" fill="#000000">src/lug/Graphics/Renderer.cpp</text>
</a>
</g>
</g>
<!-- Node13&#45;&gt;Node17 -->
<g id="edge13" class="edge">
<title>Node13&#45;&gt;Node17</title>
<path fill="none" stroke="#191970" d="M488.1539,-187.4849C529.9003,-174.7713 584.1733,-158.2427 617.7886,-148.0053"/>
<polygon fill="#191970" stroke="#191970" points="486.9188,-184.2023 478.3723,-190.4639 488.9582,-190.8987 486.9188,-184.2023"/>
</g>
<!-- Node14&#45;&gt;Node11 -->
<g id="edge9" class="edge">
<title>Node14&#45;&gt;Node11</title>
<path fill="none" stroke="#191970" d="M427.2605,-120.1623C389.4411,-107.4928 340.6755,-91.1563 310.374,-81.0053"/>
<polygon fill="#191970" stroke="#191970" points="426.5222,-123.6061 437.1161,-123.4639 428.7458,-116.9686 426.5222,-123.6061"/>
</g>
<!-- Node14&#45;&gt;Node12 -->
<g id="edge12" class="edge">
<title>Node14&#45;&gt;Node12</title>
<path fill="none" stroke="#191970" d="M471.3532,-113.9021C467.4003,-104.7696 463.0355,-94.6854 459.5545,-86.6432"/>
<polygon fill="#191970" stroke="#191970" points="468.2351,-115.5097 475.4195,-123.2967 474.6592,-112.7291 468.2351,-115.5097"/>
</g>
<!-- Node15 -->
<g id="node9" class="node">
<title>Node15</title>
<g id="a_node9"><a xlink:href="Forward_8cpp.html" target="_top" xlink:title="src/lug/Graphics/Vulkan\l/Render/Technique/Forward.cpp">
<polygon fill="none" stroke="#000000" points="539.5,-56.5 539.5,-86.5 716.5,-86.5 716.5,-56.5 539.5,-56.5"/>
<text text-anchor="start" x="547.5" y="-74.5" font-family="Helvetica,sans-Serif" font-size="10.00" fill="#000000">src/lug/Graphics/Vulkan</text>
<text text-anchor="middle" x="628" y="-63.5" font-family="Helvetica,sans-Serif" font-size="10.00" fill="#000000">/Render/Technique/Forward.cpp</text>
</a>
</g>
</g>
<!-- Node14&#45;&gt;Node15 -->
<g id="edge10" class="edge">
<title>Node14&#45;&gt;Node15</title>
<path fill="none" stroke="#191970" d="M524.1121,-119.1746C546.6882,-108.8143 574.0968,-96.2364 595.0918,-86.6017"/>
<polygon fill="#191970" stroke="#191970" points="522.3941,-116.112 514.7652,-123.4639 525.3138,-122.474 522.3941,-116.112"/>
</g>
<!-- Node16 -->
<g id="node10" class="node">
<title>Node16</title>
<g id="a_node10"><a xlink:href="Graphics_2Vulkan_2Render_2Window_8cpp.html" target="_top" xlink:title="src/lug/Graphics/Vulkan\l/Render/Window.cpp">
<polygon fill="none" stroke="#000000" points="734.5,-56.5 734.5,-86.5 871.5,-86.5 871.5,-56.5 734.5,-56.5"/>
<text text-anchor="start" x="742.5" y="-74.5" font-family="Helvetica,sans-Serif" font-size="10.00" fill="#000000">src/lug/Graphics/Vulkan</text>
<text text-anchor="middle" x="803" y="-63.5" font-family="Helvetica,sans-Serif" font-size="10.00" fill="#000000">/Render/Window.cpp</text>
</a>
</g>
</g>
<!-- Node14&#45;&gt;Node16 -->
<g id="edge11" class="edge">
<title>Node14&#45;&gt;Node16</title>
<path fill="none" stroke="#191970" d="M555.5157,-122.8965C621.9928,-108.9483 686.8395,-95.4968 734.2958,-85.6813"/>
<polygon fill="#191970" stroke="#191970" points="554.7652,-119.4777 545.6977,-124.9576 556.2035,-126.3283 554.7652,-119.4777"/>
</g>
</g>
</svg>
