<?xml version="1.0" encoding="UTF-8" standalone="no"?>
<!DOCTYPE svg PUBLIC "-//W3C//DTD SVG 1.1//EN"
 "http://www.w3.org/Graphics/SVG/1.1/DTD/svg11.dtd">
<!-- Generated by graphviz version 2.40.1 (20161225.0304)
 -->
<!-- Title: include/lug/Graphics/Module.hpp Pages: 1 -->
<svg width="556pt" height="151pt"
 viewBox="0.00 0.00 555.50 151.00" xmlns="http://www.w3.org/2000/svg" xmlns:xlink="http://www.w3.org/1999/xlink">
<g id="graph0" class="graph" transform="scale(1 1) rotate(0) translate(4 147)">
<title>include/lug/Graphics/Module.hpp</title>
<!-- Node0 -->
<g id="node1" class="node">
<title>Node0</title>
<polygon fill="#bfbfbf" stroke="#000000" points="154.5,-112.5 154.5,-142.5 273.5,-142.5 273.5,-112.5 154.5,-112.5"/>
<text text-anchor="start" x="162.5" y="-130.5" font-family="Helvetica,sans-Serif" font-size="10.00" fill="#000000">include/lug/Graphics</text>
<text text-anchor="middle" x="214" y="-119.5" font-family="Helvetica,sans-Serif" font-size="10.00" fill="#000000">/Module.hpp</text>
</g>
<!-- Node1 -->
<g id="node2" class="node">
<title>Node1</title>
<polygon fill="none" stroke="#bfbfbf" points="0,-56.5 0,-75.5 58,-75.5 58,-56.5 0,-56.5"/>
<text text-anchor="middle" x="29" y="-63.5" font-family="Helvetica,sans-Serif" font-size="10.00" fill="#000000">ostream</text>
</g>
<!-- Node0&#45;&gt;Node1 -->
<g id="edge1" class="edge">
<title>Node0&#45;&gt;Node1</title>
<path fill="none" stroke="#191970" d="M168.7439,-112.4554C137.6054,-102.104 96.7031,-88.5067 67.2045,-78.7004"/>
<polygon fill="#191970" stroke="#191970" points="68.262,-75.3637 57.6684,-75.5303 66.0537,-82.0063 68.262,-75.3637"/>
</g>
<!-- Node2 -->
<g id="node3" class="node">
<title>Node2</title>
<polygon fill="none" stroke="#bfbfbf" points="76.5,-56.5 76.5,-75.5 171.5,-75.5 171.5,-56.5 76.5,-56.5"/>
<text text-anchor="middle" x="124" y="-63.5" font-family="Helvetica,sans-Serif" font-size="10.00" fill="#000000">unordered_map</text>
</g>
<!-- Node0&#45;&gt;Node2 -->
<g id="edge2" class="edge">
<title>Node0&#45;&gt;Node2</title>
<path fill="none" stroke="#191970" d="M191.7528,-112.2977C178.0033,-102.9022 160.4079,-90.8787 146.5943,-81.4395"/>
<polygon fill="#191970" stroke="#191970" points="148.3725,-78.4155 138.1414,-75.6633 144.4232,-84.195 148.3725,-78.4155"/>
</g>
<!-- Node3 -->
<g id="node4" class="node">
<title>Node3</title>
<polygon fill="none" stroke="#bfbfbf" points="190,-56.5 190,-75.5 238,-75.5 238,-56.5 190,-56.5"/>
<text text-anchor="middle" x="214" y="-63.5" font-family="Helvetica,sans-Serif" font-size="10.00" fill="#000000">vector</text>
</g>
<!-- Node0&#45;&gt;Node3 -->
<g id="edge3" class="edge">
<title>Node0&#45;&gt;Node3</title>
<path fill="none" stroke="#191970" d="M214,-112.2977C214,-104.3834 214,-94.6043 214,-86.0759"/>
<polygon fill="#191970" stroke="#191970" points="217.5001,-85.8469 214,-75.8469 210.5001,-85.847 217.5001,-85.8469"/>
</g>
<!-- Node4 -->
<g id="node5" class="node">
<title>Node4</title>
<g id="a_node5"><a xlink:href="Graphics_2Export_8hpp.html" target="_top" xlink:title="lug/Graphics/Export.hpp">
<polygon fill="none" stroke="#000000" points="256,-56.5 256,-75.5 394,-75.5 394,-56.5 256,-56.5"/>
<text text-anchor="middle" x="325" y="-63.5" font-family="Helvetica,sans-Serif" font-size="10.00" fill="#000000">lug/Graphics/Export.hpp</text>
</a>
</g>
</g>
<!-- Node0&#45;&gt;Node4 -->
<g id="edge4" class="edge">
<title>Node0&#45;&gt;Node4</title>
<path fill="none" stroke="#191970" d="M241.1537,-112.4554C258.6995,-102.734 281.4122,-90.15 298.7721,-80.5317"/>
<polygon fill="#191970" stroke="#191970" points="300.748,-83.4383 307.7989,-75.5303 297.3555,-77.3153 300.748,-83.4383"/>
</g>
<!-- Node6 -->
<g id="node7" class="node">
<title>Node6</title>
<g id="a_node7"><a xlink:href="Module_8inl.html" target="_top" xlink:title="lug/Graphics/Module.inl">
<polygon fill="none" stroke="#000000" points="412.5,-56.5 412.5,-75.5 547.5,-75.5 547.5,-56.5 412.5,-56.5"/>
<text text-anchor="middle" x="480" y="-63.5" font-family="Helvetica,sans-Serif" font-size="10.00" fill="#000000">lug/Graphics/Module.inl</text>
</a>
</g>
</g>
<!-- Node0&#45;&gt;Node6 -->
<g id="edge6" class="edge">
<title>Node0&#45;&gt;Node6</title>
<path fill="none" stroke="#191970" d="M273.6956,-113.6982C320.3063,-102.9217 384.3852,-88.1064 428.7044,-77.8597"/>
<polygon fill="#191970" stroke="#191970" points="429.7293,-81.2152 438.6838,-75.5524 428.1524,-74.3951 429.7293,-81.2152"/>
</g>
<!-- Node5 -->
<g id="node6" class="node">
<title>Node5</title>
<g id="a_node6"><a xlink:href="Config_8hpp.html" target="_top" xlink:title="lug/Config.hpp">
<polygon fill="none" stroke="#000000" points="280.5,-.5 280.5,-19.5 369.5,-19.5 369.5,-.5 280.5,-.5"/>
<text text-anchor="middle" x="325" y="-7.5" font-family="Helvetica,sans-Serif" font-size="10.00" fill="#000000">lug/Config.hpp</text>
</a>
</g>
</g>
<!-- Node4&#45;&gt;Node5 -->
<g id="edge5" class="edge">
<title>Node4&#45;&gt;Node5</title>
<path fill="none" stroke="#191970" d="M325,-56.2455C325,-48.9382 325,-38.6944 325,-29.7046"/>
<polygon fill="#191970" stroke="#191970" points="328.5001,-29.6426 325,-19.6427 321.5001,-29.6427 328.5001,-29.6426"/>
</g>
</g>
</svg>
