<?xml version="1.0" encoding="UTF-8" standalone="no"?>
<!DOCTYPE svg PUBLIC "-//W3C//DTD SVG 1.1//EN"
 "http://www.w3.org/Graphics/SVG/1.1/DTD/svg11.dtd">
<!-- Generated by graphviz version 2.40.1 (20161225.0304)
 -->
<!-- Title: src/lug/Graphics/Module.cpp Pages: 1 -->
<svg width="556pt" height="196pt"
 viewBox="0.00 0.00 555.50 196.00" xmlns="http://www.w3.org/2000/svg" xmlns:xlink="http://www.w3.org/1999/xlink">
<g id="graph0" class="graph" transform="scale(1 1) rotate(0) translate(4 192)">
<title>src/lug/Graphics/Module.cpp</title>
<!-- Node0 -->
<g id="node1" class="node">
<title>Node0</title>
<polygon fill="#bfbfbf" stroke="#000000" points="134,-168.5 134,-187.5 294,-187.5 294,-168.5 134,-168.5"/>
<text text-anchor="middle" x="214" y="-175.5" font-family="Helvetica,sans-Serif" font-size="10.00" fill="#000000">src/lug/Graphics/Module.cpp</text>
</g>
<!-- Node1 -->
<g id="node2" class="node">
<title>Node1</title>
<g id="a_node2"><a xlink:href="Module_8hpp.html" target="_top" xlink:title="lug/Graphics/Module.hpp">
<polygon fill="none" stroke="#000000" points="143.5,-112.5 143.5,-131.5 284.5,-131.5 284.5,-112.5 143.5,-112.5"/>
<text text-anchor="middle" x="214" y="-119.5" font-family="Helvetica,sans-Serif" font-size="10.00" fill="#000000">lug/Graphics/Module.hpp</text>
</a>
</g>
</g>
<!-- Node0&#45;&gt;Node1 -->
<g id="edge1" class="edge">
<title>Node0&#45;&gt;Node1</title>
<path fill="none" stroke="#191970" d="M214,-168.2455C214,-160.9382 214,-150.6944 214,-141.7046"/>
<polygon fill="#191970" stroke="#191970" points="217.5001,-141.6426 214,-131.6427 210.5001,-141.6427 217.5001,-141.6426"/>
</g>
<!-- Node2 -->
<g id="node3" class="node">
<title>Node2</title>
<polygon fill="none" stroke="#bfbfbf" points="0,-56.5 0,-75.5 58,-75.5 58,-56.5 0,-56.5"/>
<text text-anchor="middle" x="29" y="-63.5" font-family="Helvetica,sans-Serif" font-size="10.00" fill="#000000">ostream</text>
</g>
<!-- Node1&#45;&gt;Node2 -->
<g id="edge2" class="edge">
<title>Node1&#45;&gt;Node2</title>
<path fill="none" stroke="#191970" d="M182.1974,-112.3733C150.5101,-102.7814 101.8087,-88.0394 67.8504,-77.7601"/>
<polygon fill="#191970" stroke="#191970" points="68.8407,-74.4031 58.2556,-74.8557 66.8126,-81.1029 68.8407,-74.4031"/>
</g>
<!-- Node3 -->
<g id="node4" class="node">
<title>Node3</title>
<polygon fill="none" stroke="#bfbfbf" points="76.5,-56.5 76.5,-75.5 171.5,-75.5 171.5,-56.5 76.5,-56.5"/>
<text text-anchor="middle" x="124" y="-63.5" font-family="Helvetica,sans-Serif" font-size="10.00" fill="#000000">unordered_map</text>
</g>
<!-- Node1&#45;&gt;Node3 -->
<g id="edge3" class="edge">
<title>Node1&#45;&gt;Node3</title>
<path fill="none" stroke="#191970" d="M198.3232,-112.2455C184.5144,-103.6534 164.1807,-91.0014 148.2708,-81.1018"/>
<polygon fill="#191970" stroke="#191970" points="149.8368,-77.954 139.4972,-75.6427 146.1387,-83.8974 149.8368,-77.954"/>
</g>
<!-- Node4 -->
<g id="node5" class="node">
<title>Node4</title>
<polygon fill="none" stroke="#bfbfbf" points="190,-56.5 190,-75.5 238,-75.5 238,-56.5 190,-56.5"/>
<text text-anchor="middle" x="214" y="-63.5" font-family="Helvetica,sans-Serif" font-size="10.00" fill="#000000">vector</text>
</g>
<!-- Node1&#45;&gt;Node4 -->
<g id="edge4" class="edge">
<title>Node1&#45;&gt;Node4</title>
<path fill="none" stroke="#191970" d="M214,-112.2455C214,-104.9382 214,-94.6944 214,-85.7046"/>
<polygon fill="#191970" stroke="#191970" points="217.5001,-85.6426 214,-75.6427 210.5001,-85.6427 217.5001,-85.6426"/>
</g>
<!-- Node5 -->
<g id="node6" class="node">
<title>Node5</title>
<g id="a_node6"><a xlink:href="Graphics_2Export_8hpp.html" target="_top" xlink:title="lug/Graphics/Export.hpp">
<polygon fill="none" stroke="#000000" points="256,-56.5 256,-75.5 394,-75.5 394,-56.5 256,-56.5"/>
<text text-anchor="middle" x="325" y="-63.5" font-family="Helvetica,sans-Serif" font-size="10.00" fill="#000000">lug/Graphics/Export.hpp</text>
</a>
</g>
</g>
<!-- Node1&#45;&gt;Node5 -->
<g id="edge5" class="edge">
<title>Node1&#45;&gt;Node5</title>
<path fill="none" stroke="#191970" d="M233.0816,-112.3733C250.7402,-103.4644 277.2053,-90.1127 297.2098,-80.0203"/>
<polygon fill="#191970" stroke="#191970" points="298.8158,-83.1303 306.1674,-75.5011 295.6628,-76.8806 298.8158,-83.1303"/>
</g>
<!-- Node7 -->
<g id="node8" class="node">
<title>Node7</title>
<g id="a_node8"><a xlink:href="Module_8inl.html" target="_top" xlink:title="lug/Graphics/Module.inl">
<polygon fill="none" stroke="#000000" points="412.5,-56.5 412.5,-75.5 547.5,-75.5 547.5,-56.5 412.5,-56.5"/>
<text text-anchor="middle" x="480" y="-63.5" font-family="Helvetica,sans-Serif" font-size="10.00" fill="#000000">lug/Graphics/Module.inl</text>
</a>
</g>
</g>
<!-- Node1&#45;&gt;Node7 -->
<g id="edge7" class="edge">
<title>Node1&#45;&gt;Node7</title>
<path fill="none" stroke="#191970" d="M259.4248,-112.4369C305.2355,-102.7925 375.9998,-87.8948 424.9675,-77.5858"/>
<polygon fill="#191970" stroke="#191970" points="425.6981,-81.0088 434.7626,-75.5237 424.256,-74.1589 425.6981,-81.0088"/>
</g>
<!-- Node6 -->
<g id="node7" class="node">
<title>Node6</title>
<g id="a_node7"><a xlink:href="Config_8hpp.html" target="_top" xlink:title="lug/Config.hpp">
<polygon fill="none" stroke="#000000" points="280.5,-.5 280.5,-19.5 369.5,-19.5 369.5,-.5 280.5,-.5"/>
<text text-anchor="middle" x="325" y="-7.5" font-family="Helvetica,sans-Serif" font-size="10.00" fill="#000000">lug/Config.hpp</text>
</a>
</g>
</g>
<!-- Node5&#45;&gt;Node6 -->
<g id="edge6" class="edge">
<title>Node5&#45;&gt;Node6</title>
<path fill="none" stroke="#191970" d="M325,-56.2455C325,-48.9382 325,-38.6944 325,-29.7046"/>
<polygon fill="#191970" stroke="#191970" points="328.5001,-29.6426 325,-19.6427 321.5001,-29.6427 328.5001,-29.6426"/>
</g>
</g>
</svg>
