<?xml version="1.0" encoding="UTF-8" standalone="no"?>
<!DOCTYPE svg PUBLIC "-//W3C//DTD SVG 1.1//EN"
 "http://www.w3.org/Graphics/SVG/1.1/DTD/svg11.dtd">
<!-- Generated by graphviz version 2.40.1 (20161225.0304)
 -->
<!-- Title: include/lug/Graphics/Scene/MovableObject.hpp Pages: 1 -->
<svg width="342pt" height="162pt"
 viewBox="0.00 0.00 341.50 162.00" xmlns="http://www.w3.org/2000/svg" xmlns:xlink="http://www.w3.org/1999/xlink">
<g id="graph0" class="graph" transform="scale(1 1) rotate(0) translate(4 158)">
<title>include/lug/Graphics/Scene/MovableObject.hpp</title>
<!-- Node0 -->
<g id="node1" class="node">
<title>Node0</title>
<polygon fill="#bfbfbf" stroke="#000000" points="57.5,-123.5 57.5,-153.5 207.5,-153.5 207.5,-123.5 57.5,-123.5"/>
<text text-anchor="start" x="65.5" y="-141.5" font-family="Helvetica,sans-Serif" font-size="10.00" fill="#000000">include/lug/Graphics</text>
<text text-anchor="middle" x="132.5" y="-130.5" font-family="Helvetica,sans-Serif" font-size="10.00" fill="#000000">/Scene/MovableObject.hpp</text>
</g>
<!-- Node1 -->
<g id="node2" class="node">
<title>Node1</title>
<polygon fill="none" stroke="#bfbfbf" points="0,-62 0,-81 45,-81 45,-62 0,-62"/>
<text text-anchor="middle" x="22.5" y="-69" font-family="Helvetica,sans-Serif" font-size="10.00" fill="#000000">string</text>
</g>
<!-- Node0&#45;&gt;Node1 -->
<g id="edge1" class="edge">
<title>Node0&#45;&gt;Node1</title>
<path fill="none" stroke="#191970" d="M107.8139,-123.4639C89.6898,-112.4247 65.1791,-97.4954 47.08,-86.4715"/>
<polygon fill="#191970" stroke="#191970" points="48.6288,-83.3167 38.2676,-81.1039 44.9874,-89.2951 48.6288,-83.3167"/>
</g>
<!-- Node2 -->
<g id="node3" class="node">
<title>Node2</title>
<g id="a_node3"><a xlink:href="Graphics_2Export_8hpp.html" target="_top" xlink:title="lug/Graphics/Export.hpp">
<polygon fill="none" stroke="#000000" points="63.5,-62 63.5,-81 201.5,-81 201.5,-62 63.5,-62"/>
<text text-anchor="middle" x="132.5" y="-69" font-family="Helvetica,sans-Serif" font-size="10.00" fill="#000000">lug/Graphics/Export.hpp</text>
</a>
</g>
</g>
<!-- Node0&#45;&gt;Node2 -->
<g id="edge2" class="edge">
<title>Node0&#45;&gt;Node2</title>
<path fill="none" stroke="#191970" d="M132.5,-123.2967C132.5,-113.7699 132.5,-101.3954 132.5,-91.1306"/>
<polygon fill="#191970" stroke="#191970" points="136.0001,-91.0549 132.5,-81.055 129.0001,-91.055 136.0001,-91.0549"/>
</g>
<!-- Node4 -->
<g id="node5" class="node">
<title>Node4</title>
<g id="a_node5"><a xlink:href="MovableObject_8inl.html" target="_top" xlink:title="lug/Graphics/Scene\l/MovableObject.inl">
<polygon fill="none" stroke="#000000" points="219.5,-56.5 219.5,-86.5 333.5,-86.5 333.5,-56.5 219.5,-56.5"/>
<text text-anchor="start" x="227.5" y="-74.5" font-family="Helvetica,sans-Serif" font-size="10.00" fill="#000000">lug/Graphics/Scene</text>
<text text-anchor="middle" x="276.5" y="-63.5" font-family="Helvetica,sans-Serif" font-size="10.00" fill="#000000">/MovableObject.inl</text>
</a>
</g>
</g>
<!-- Node0&#45;&gt;Node4 -->
<g id="edge4" class="edge">
<title>Node0&#45;&gt;Node4</title>
<path fill="none" stroke="#191970" d="M164.8164,-123.4639C185.4225,-113.8763 212.3351,-101.3545 234.5783,-91.0052"/>
<polygon fill="#191970" stroke="#191970" points="236.2031,-94.1096 243.7932,-86.7177 233.2501,-87.763 236.2031,-94.1096"/>
</g>
<!-- Node3 -->
<g id="node4" class="node">
<title>Node3</title>
<g id="a_node4"><a xlink:href="Config_8hpp.html" target="_top" xlink:title="lug/Config.hpp">
<polygon fill="none" stroke="#000000" points="88,-.5 88,-19.5 177,-19.5 177,-.5 88,-.5"/>
<text text-anchor="middle" x="132.5" y="-7.5" font-family="Helvetica,sans-Serif" font-size="10.00" fill="#000000">lug/Config.hpp</text>
</a>
</g>
</g>
<!-- Node2&#45;&gt;Node3 -->
<g id="edge3" class="edge">
<title>Node2&#45;&gt;Node3</title>
<path fill="none" stroke="#191970" d="M132.5,-61.8906C132.5,-53.3657 132.5,-40.6392 132.5,-29.9235"/>
<polygon fill="#191970" stroke="#191970" points="136.0001,-29.7448 132.5,-19.7449 129.0001,-29.7449 136.0001,-29.7448"/>
</g>
</g>
</svg>
