<?xml version="1.0" encoding="UTF-8" standalone="no"?>
<!DOCTYPE svg PUBLIC "-//W3C//DTD SVG 1.1//EN"
 "http://www.w3.org/Graphics/SVG/1.1/DTD/svg11.dtd">
<!-- Generated by graphviz version 2.40.1 (20161225.0304)
 -->
<!-- Title: include/lug/Graphics/Node.hpp Pages: 1 -->
<!--zoomable 319 -->
<svg id="main" version="1.1" xmlns="http://www.w3.org/2000/svg" xmlns:xlink="http://www.w3.org/1999/xlink" xml:space="preserve" onload="init(evt)">
<style type="text/css"><![CDATA[
.edge:hover path { stroke: red; }
.edge:hover polygon { stroke: red; fill: red; }
]]></style>
<script type="text/javascript"><![CDATA[
var edges = document.getElementsByTagName('g');
if (edges && edges.length) {
  for (var i=0;i<edges.length;i++) {
    if (edges[i].id.substr(0,4)=='edge') {
      edges[i].setAttribute('class','edge');
    }
  }
}
]]></script>
        <defs>
                <circle id="rim" cx="0" cy="0" r="7"/>
                <circle id="rim2" cx="0" cy="0" r="3.5"/>
                <g id="zoomPlus">
                        <use xlink:href="#rim" fill="#404040">
                                <set attributeName="fill" to="#808080" begin="zoomplus.mouseover" end="zoomplus.mouseout"/>
                        </use>
                        <path d="M-4,0h8M0,-4v8" fill="none" stroke="white" stroke-width="1.5" pointer-events="none"/>
                </g>
                <g id="zoomMin">
                        <use xlink:href="#rim" fill="#404040">
                                <set attributeName="fill" to="#808080" begin="zoomminus.mouseover" end="zoomminus.mouseout"/>
                        </use>
                        <path d="M-4,0h8" fill="none" stroke="white" stroke-width="1.5" pointer-events="none"/>
                </g>
                <g id="dirArrow">
                        <path fill="none" stroke="white" stroke-width="1.5" d="M0,-3.0v7 M-2.5,-0.5L0,-3.0L2.5,-0.5"/>
                </g>
               <g id="resetDef">
                       <use xlink:href="#rim2" fill="#404040">
                               <set attributeName="fill" to="#808080" begin="reset.mouseover" end="reset.mouseout"/>
                       </use>
               </g>
        </defs>

<script type="text/javascript">
var viewWidth = 941;
var viewHeight = 319;
var sectionId = 'dynsection-0';
</script>
<script xlink:href="svgpan.js"/>
<svg id="graph" class="graph">
<g id="viewport">
<title>include/lug/Graphics/Node.hpp</title>
<!-- Node0 -->
<g id="node1" class="node">
<title>Node0</title>
<polygon fill="#bfbfbf" stroke="#000000" points="385.5,-280.5 385.5,-310.5 504.5,-310.5 504.5,-280.5 385.5,-280.5"/>
<text text-anchor="start" x="393.5" y="-298.5" font-family="Helvetica,sans-Serif" font-size="10.00" fill="#000000">include/lug/Graphics</text>
<text text-anchor="middle" x="445" y="-287.5" font-family="Helvetica,sans-Serif" font-size="10.00" fill="#000000">/Node.hpp</text>
</g>
<!-- Node1 -->
<g id="node2" class="node">
<title>Node1</title>
<polygon fill="none" stroke="#bfbfbf" points="192.5,-224.5 192.5,-243.5 251.5,-243.5 251.5,-224.5 192.5,-224.5"/>
<text text-anchor="middle" x="222" y="-231.5" font-family="Helvetica,sans-Serif" font-size="10.00" fill="#000000">memory</text>
</g>
<!-- Node0&#45;&gt;Node1 -->
<g id="edge1" class="edge">
<title>Node0&#45;&gt;Node1</title>
<path fill="none" stroke="#191970" d="M390.4481,-280.4554C350.6636,-269.4835 297.6565,-254.8649 261.8113,-244.9793"/>
<polygon fill="#191970" stroke="#191970" points="262.2977,-241.4829 251.727,-242.1983 260.4366,-248.231 262.2977,-241.4829"/>
</g>
<!-- Node2 -->
<g id="node3" class="node">
<title>Node2</title>
<polygon fill="none" stroke="#bfbfbf" points="270,-224.5 270,-243.5 318,-243.5 318,-224.5 270,-224.5"/>
<text text-anchor="middle" x="294" y="-231.5" font-family="Helvetica,sans-Serif" font-size="10.00" fill="#000000">vector</text>
</g>
<!-- Node0&#45;&gt;Node2 -->
<g id="edge2" class="edge">
<title>Node0&#45;&gt;Node2</title>
<path fill="none" stroke="#191970" d="M408.0612,-280.4554C383.198,-270.329 350.7082,-257.0964 326.7664,-247.3453"/>
<polygon fill="#191970" stroke="#191970" points="327.9812,-244.0609 317.3996,-243.5303 325.3407,-250.5438 327.9812,-244.0609"/>
</g>
<!-- Node3 -->
<g id="node4" class="node">
<title>Node3</title>
<g id="a_node4"><a xlink:href="Graphics_2Export_8hpp.html" target="_top" xlink:title="lug/Graphics/Export.hpp">
<polygon fill="none" stroke="#000000" points="0,-168.5 0,-187.5 138,-187.5 138,-168.5 0,-168.5"/>
<text text-anchor="middle" x="69" y="-175.5" font-family="Helvetica,sans-Serif" font-size="10.00" fill="#000000">lug/Graphics/Export.hpp</text>
</a>
</g>
</g>
<!-- Node0&#45;&gt;Node3 -->
<g id="edge3" class="edge">
<title>Node0&#45;&gt;Node3</title>
<path fill="none" stroke="#191970" d="M422.4373,-280.4551C394.0047,-261.7418 346.4992,-231.353 327,-224 294.9751,-211.9236 211.4814,-198.1538 148.0763,-188.8521"/>
<polygon fill="#191970" stroke="#191970" points="148.4834,-185.3746 138.0837,-187.3986 147.4757,-192.3017 148.4834,-185.3746"/>
</g>
<!-- Node5 -->
<g id="node6" class="node">
<title>Node5</title>
<g id="a_node6"><a xlink:href="Matrix_8hpp.html" target="_top" xlink:title="lug/Math/Matrix.hpp">
<polygon fill="none" stroke="#000000" points="448,-112.5 448,-131.5 566,-131.5 566,-112.5 448,-112.5"/>
<text text-anchor="middle" x="507" y="-119.5" font-family="Helvetica,sans-Serif" font-size="10.00" fill="#000000">lug/Math/Matrix.hpp</text>
</a>
</g>
</g>
<!-- Node0&#45;&gt;Node5 -->
<g id="edge5" class="edge">
<title>Node0&#45;&gt;Node5</title>
<path fill="none" stroke="#191970" d="M483.1614,-280.471C498.7613,-272.2068 515.1865,-260.2664 524,-244 541.908,-210.9486 527.2079,-165.7656 516.2368,-140.6943"/>
<polygon fill="#191970" stroke="#191970" points="519.3863,-139.1661 512.0095,-131.5612 513.0337,-142.1064 519.3863,-139.1661"/>
</g>
<!-- Node19 -->
<g id="node20" class="node">
<title>Node19</title>
<g id="a_node20"><a xlink:href="Quaternion_8hpp.html" target="_top" xlink:title="lug/Math/Quaternion.hpp">
<polygon fill="none" stroke="#000000" points="374.5,-224.5 374.5,-243.5 515.5,-243.5 515.5,-224.5 374.5,-224.5"/>
<text text-anchor="middle" x="445" y="-231.5" font-family="Helvetica,sans-Serif" font-size="10.00" fill="#000000">lug/Math/Quaternion.hpp</text>
</a>
</g>
</g>
<!-- Node0&#45;&gt;Node19 -->
<g id="edge21" class="edge">
<title>Node0&#45;&gt;Node19</title>
<path fill="none" stroke="#191970" d="M445,-280.2977C445,-272.3834 445,-262.6043 445,-254.0759"/>
<polygon fill="#191970" stroke="#191970" points="448.5001,-253.8469 445,-243.8469 441.5001,-253.847 448.5001,-253.8469"/>
</g>
<!-- Node20 -->
<g id="node21" class="node">
<title>Node20</title>
<g id="a_node21"><a xlink:href="Vector_8hpp.html" target="_top" xlink:title="lug/Math/Vector.hpp">
<polygon fill="none" stroke="#000000" points="572.5,-168.5 572.5,-187.5 691.5,-187.5 691.5,-168.5 572.5,-168.5"/>
<text text-anchor="middle" x="632" y="-175.5" font-family="Helvetica,sans-Serif" font-size="10.00" fill="#000000">lug/Math/Vector.hpp</text>
</a>
</g>
</g>
<!-- Node0&#45;&gt;Node20 -->
<g id="edge32" class="edge">
<title>Node0&#45;&gt;Node20</title>
<path fill="none" stroke="#191970" d="M485.7541,-280.4109C507.9577,-271.3467 535.428,-258.7231 558,-244 579.8981,-229.7164 601.8586,-209.1513 616.1002,-194.7851"/>
<polygon fill="#191970" stroke="#191970" points="618.7033,-197.1287 623.1687,-187.5209 613.6864,-192.247 618.7033,-197.1287"/>
</g>
<!-- Node26 -->
<g id="node27" class="node">
<title>Node26</title>
<g id="a_node27"><a xlink:href="Node_8inl.html" target="_top" xlink:title="lug/Graphics/Node.inl">
<polygon fill="none" stroke="#000000" points="610.5,-224.5 610.5,-243.5 735.5,-243.5 735.5,-224.5 610.5,-224.5"/>
<text text-anchor="middle" x="673" y="-231.5" font-family="Helvetica,sans-Serif" font-size="10.00" fill="#000000">lug/Graphics/Node.inl</text>
</a>
</g>
</g>
<!-- Node0&#45;&gt;Node26 -->
<g id="edge33" class="edge">
<title>Node0&#45;&gt;Node26</title>
<path fill="none" stroke="#191970" d="M500.7751,-280.4554C539.8186,-269.9239 591.3175,-256.0328 627.7994,-246.1923"/>
<polygon fill="#191970" stroke="#191970" points="628.9247,-249.5139 637.6681,-243.5303 627.1016,-242.7555 628.9247,-249.5139"/>
</g>
<!-- Node4 -->
<g id="node5" class="node">
<title>Node4</title>
<g id="a_node5"><a xlink:href="Config_8hpp.html" target="_top" xlink:title="lug/Config.hpp">
<polygon fill="none" stroke="#000000" points="112.5,-.5 112.5,-19.5 201.5,-19.5 201.5,-.5 112.5,-.5"/>
<text text-anchor="middle" x="157" y="-7.5" font-family="Helvetica,sans-Serif" font-size="10.00" fill="#000000">lug/Config.hpp</text>
</a>
</g>
</g>
<!-- Node3&#45;&gt;Node4 -->
<g id="edge4" class="edge">
<title>Node3&#45;&gt;Node4</title>
<path fill="none" stroke="#191970" d="M68.0157,-168.2263C66.3032,-146.2676 64.914,-92.1251 88,-56 96.6928,-42.3976 111.0074,-31.8862 124.3517,-24.3676"/>
<polygon fill="#191970" stroke="#191970" points="126.1284,-27.3879 133.354,-19.6393 122.8734,-21.1907 126.1284,-27.3879"/>
</g>
<!-- Node6 -->
<g id="node7" class="node">
<title>Node6</title>
<polygon fill="none" stroke="#bfbfbf" points="740,-56.5 740,-75.5 790,-75.5 790,-56.5 740,-56.5"/>
<text text-anchor="middle" x="765" y="-63.5" font-family="Helvetica,sans-Serif" font-size="10.00" fill="#000000">cstdint</text>
</g>
<!-- Node5&#45;&gt;Node6 -->
<g id="edge6" class="edge">
<title>Node5&#45;&gt;Node6</title>
<path fill="none" stroke="#191970" d="M559.7811,-112.4503C603.1261,-104.316 666.2946,-91.7967 730.0004,-76.1041"/>
<polygon fill="#191970" stroke="#191970" points="730.9541,-79.4736 739.813,-73.6624 729.2638,-72.6807 730.9541,-79.4736"/>
</g>
<!-- Node7 -->
<g id="node8" class="node">
<title>Node7</title>
<polygon fill="none" stroke="#bfbfbf" points="365.5,-56.5 365.5,-75.5 424.5,-75.5 424.5,-56.5 365.5,-56.5"/>
<text text-anchor="middle" x="395" y="-63.5" font-family="Helvetica,sans-Serif" font-size="10.00" fill="#000000">valarray</text>
</g>
<!-- Node5&#45;&gt;Node7 -->
<g id="edge7" class="edge">
<title>Node5&#45;&gt;Node7</title>
<path fill="none" stroke="#191970" d="M487.7465,-112.3733C469.9288,-103.4644 443.2253,-90.1127 423.0406,-80.0203"/>
<polygon fill="#191970" stroke="#191970" points="424.5118,-76.8428 414.0022,-75.5011 421.3813,-83.1038 424.5118,-76.8428"/>
</g>
<!-- Node8 -->
<g id="node9" class="node">
<title>Node8</title>
<g id="a_node9"><a xlink:href="Math_2Export_8hpp.html" target="_top" xlink:title="lug/Math/Export.hpp">
<polygon fill="none" stroke="#000000" points="97.5,-56.5 97.5,-75.5 216.5,-75.5 216.5,-56.5 97.5,-56.5"/>
<text text-anchor="middle" x="157" y="-63.5" font-family="Helvetica,sans-Serif" font-size="10.00" fill="#000000">lug/Math/Export.hpp</text>
</a>
</g>
</g>
<!-- Node5&#45;&gt;Node8 -->
<g id="edge8" class="edge">
<title>Node5&#45;&gt;Node8</title>
<path fill="none" stroke="#191970" d="M447.6273,-112.5004C386.5349,-102.7256 291.4133,-87.5061 226.7677,-77.1628"/>
<polygon fill="#191970" stroke="#191970" points="227.0914,-73.6702 216.664,-75.5462 225.9854,-80.5823 227.0914,-73.6702"/>
</g>
<!-- Node9 -->
<g id="node10" class="node">
<title>Node9</title>
<g id="a_node10"><a xlink:href="ValArray_8hpp.html" target="_top" xlink:title="lug/Math/ValArray.hpp">
<polygon fill="none" stroke="#000000" points="592,-56.5 592,-75.5 722,-75.5 722,-56.5 592,-56.5"/>
<text text-anchor="middle" x="657" y="-63.5" font-family="Helvetica,sans-Serif" font-size="10.00" fill="#000000">lug/Math/ValArray.hpp</text>
</a>
</g>
</g>
<!-- Node5&#45;&gt;Node9 -->
<g id="edge10" class="edge">
<title>Node5&#45;&gt;Node9</title>
<path fill="none" stroke="#191970" d="M532.7859,-112.3733C557.4047,-103.1822 594.69,-89.2624 621.9875,-79.0713"/>
<polygon fill="#191970" stroke="#191970" points="623.4063,-82.2777 631.5506,-75.5011 620.958,-75.7198 623.4063,-82.2777"/>
</g>
<!-- Node15 -->
<g id="node16" class="node">
<title>Node15</title>
<g id="a_node16"><a xlink:href="Debug_8hpp.html" target="_top" xlink:title="lug/System/Debug.hpp">
<polygon fill="none" stroke="#000000" points="442.5,-56.5 442.5,-75.5 573.5,-75.5 573.5,-56.5 442.5,-56.5"/>
<text text-anchor="middle" x="508" y="-63.5" font-family="Helvetica,sans-Serif" font-size="10.00" fill="#000000">lug/System/Debug.hpp</text>
</a>
</g>
</g>
<!-- Node5&#45;&gt;Node15 -->
<g id="edge16" class="edge">
<title>Node5&#45;&gt;Node15</title>
<path fill="none" stroke="#191970" d="M507.1742,-112.2455C507.3047,-104.9382 507.4876,-94.6944 507.6481,-85.7046"/>
<polygon fill="#191970" stroke="#191970" points="511.1486,-85.7036 507.8278,-75.6427 504.1497,-85.5786 511.1486,-85.7036"/>
</g>
<!-- Node18 -->
<g id="node19" class="node">
<title>Node18</title>
<g id="a_node19"><a xlink:href="Matrix_8inl.html" target="_top" xlink:title="lug/Math/Matrix.inl">
<polygon fill="none" stroke="#000000" points="235,-56.5 235,-75.5 347,-75.5 347,-56.5 235,-56.5"/>
<text text-anchor="middle" x="291" y="-63.5" font-family="Helvetica,sans-Serif" font-size="10.00" fill="#000000">lug/Math/Matrix.inl</text>
</a>
</g>
</g>
<!-- Node5&#45;&gt;Node18 -->
<g id="edge20" class="edge">
<title>Node5&#45;&gt;Node18</title>
<path fill="none" stroke="#191970" d="M469.8683,-112.3733C433.1733,-102.8598 376.9361,-88.2797 337.3349,-78.0127"/>
<polygon fill="#191970" stroke="#191970" points="338.2056,-74.6228 327.6472,-75.5011 336.4488,-81.3988 338.2056,-74.6228"/>
</g>
<!-- Node8&#45;&gt;Node4 -->
<g id="edge9" class="edge">
<title>Node8&#45;&gt;Node4</title>
<path fill="none" stroke="#191970" d="M157,-56.2455C157,-48.9382 157,-38.6944 157,-29.7046"/>
<polygon fill="#191970" stroke="#191970" points="160.5001,-29.6426 157,-19.6427 153.5001,-29.6427 160.5001,-29.6426"/>
</g>
<!-- Node10 -->
<g id="node11" class="node">
<title>Node10</title>
<polygon fill="none" stroke="#bfbfbf" points="737.5,-.5 737.5,-19.5 802.5,-19.5 802.5,-.5 737.5,-.5"/>
<text text-anchor="middle" x="770" y="-7.5" font-family="Helvetica,sans-Serif" font-size="10.00" fill="#000000">algorithm</text>
</g>
<!-- Node9&#45;&gt;Node10 -->
<g id="edge11" class="edge">
<title>Node9&#45;&gt;Node10</title>
<path fill="none" stroke="#191970" d="M676.4254,-56.3733C694.4021,-47.4644 721.3441,-34.1127 741.709,-24.0203"/>
<polygon fill="#191970" stroke="#191970" points="743.4222,-27.0776 750.8281,-19.5011 740.3139,-20.8055 743.4222,-27.0776"/>
</g>
<!-- Node11 -->
<g id="node12" class="node">
<title>Node11</title>
<polygon fill="none" stroke="#bfbfbf" points="821,-.5 821,-19.5 865,-19.5 865,-.5 821,-.5"/>
<text text-anchor="middle" x="843" y="-7.5" font-family="Helvetica,sans-Serif" font-size="10.00" fill="#000000">array</text>
</g>
<!-- Node9&#45;&gt;Node11 -->
<g id="edge12" class="edge">
<title>Node9&#45;&gt;Node11</title>
<path fill="none" stroke="#191970" d="M690.0261,-56.4432C719.4273,-47.8813 763.8449,-34.815 810.9082,-20.2938"/>
<polygon fill="#191970" stroke="#191970" points="812.1508,-23.5731 820.6689,-17.2729 810.0811,-16.8861 812.1508,-23.5731"/>
</g>
<!-- Node12 -->
<g id="node13" class="node">
<title>Node12</title>
<polygon fill="none" stroke="#bfbfbf" points="883,-.5 883,-19.5 933,-19.5 933,-.5 883,-.5"/>
<text text-anchor="middle" x="908" y="-7.5" font-family="Helvetica,sans-Serif" font-size="10.00" fill="#000000">cstring</text>
</g>
<!-- Node9&#45;&gt;Node12 -->
<g id="edge13" class="edge">
<title>Node9&#45;&gt;Node12</title>
<path fill="none" stroke="#191970" d="M707.2426,-56.4922C749.1454,-48.3049 810.6141,-35.6999 872.8212,-20.163"/>
<polygon fill="#191970" stroke="#191970" points="873.9679,-23.4834 882.8085,-17.6444 872.2562,-16.6959 873.9679,-23.4834"/>
</g>
<!-- Node13 -->
<g id="node14" class="node">
<title>Node13</title>
<polygon fill="none" stroke="#bfbfbf" points="519.5,-.5 519.5,-19.5 576.5,-19.5 576.5,-.5 519.5,-.5"/>
<text text-anchor="middle" x="548" y="-7.5" font-family="Helvetica,sans-Serif" font-size="10.00" fill="#000000">numeric</text>
</g>
<!-- Node9&#45;&gt;Node13 -->
<g id="edge14" class="edge">
<title>Node9&#45;&gt;Node13</title>
<path fill="none" stroke="#191970" d="M638.0136,-56.2455C620.8208,-47.4125 595.2762,-34.2887 575.7868,-24.2758"/>
<polygon fill="#191970" stroke="#191970" points="577.263,-21.0993 566.7688,-19.6427 574.0641,-27.3257 577.263,-21.0993"/>
</g>
<!-- Node14 -->
<g id="node15" class="node">
<title>Node14</title>
<g id="a_node15"><a xlink:href="ValArray_8inl.html" target="_top" xlink:title="lug/Math/ValArray.inl">
<polygon fill="none" stroke="#000000" points="595,-.5 595,-19.5 719,-19.5 719,-.5 595,-.5"/>
<text text-anchor="middle" x="657" y="-7.5" font-family="Helvetica,sans-Serif" font-size="10.00" fill="#000000">lug/Math/ValArray.inl</text>
</a>
</g>
</g>
<!-- Node9&#45;&gt;Node14 -->
<g id="edge15" class="edge">
<title>Node9&#45;&gt;Node14</title>
<path fill="none" stroke="#191970" d="M657,-56.2455C657,-48.9382 657,-38.6944 657,-29.7046"/>
<polygon fill="#191970" stroke="#191970" points="660.5001,-29.6426 657,-19.6427 653.5001,-29.6427 660.5001,-29.6426"/>
</g>
<!-- Node15&#45;&gt;Node4 -->
<g id="edge17" class="edge">
<title>Node15&#45;&gt;Node4</title>
<path fill="none" stroke="#191970" d="M448.0598,-56.4369C381.7087,-45.851 275.6872,-28.9359 211.5731,-18.7068"/>
<polygon fill="#191970" stroke="#191970" points="212.0821,-15.2438 201.6555,-17.1245 210.9791,-22.1564 212.0821,-15.2438"/>
</g>
<!-- Node16 -->
<g id="node17" class="node">
<title>Node16</title>
<g id="a_node17"><a xlink:href="Utils_8hpp.html" target="_top" xlink:title="lug/System/Utils.hpp">
<polygon fill="none" stroke="#000000" points="300,-.5 300,-19.5 422,-19.5 422,-.5 300,-.5"/>
<text text-anchor="middle" x="361" y="-7.5" font-family="Helvetica,sans-Serif" font-size="10.00" fill="#000000">lug/System/Utils.hpp</text>
</a>
</g>
</g>
<!-- Node15&#45;&gt;Node16 -->
<g id="edge18" class="edge">
<title>Node15&#45;&gt;Node16</title>
<path fill="none" stroke="#191970" d="M482.7298,-56.3733C458.6034,-47.1822 422.0638,-33.2624 395.3123,-23.0713"/>
<polygon fill="#191970" stroke="#191970" points="396.5313,-19.7904 385.9404,-19.5011 394.0393,-26.3318 396.5313,-19.7904"/>
</g>
<!-- Node17 -->
<g id="node18" class="node">
<title>Node17</title>
<polygon fill="none" stroke="#bfbfbf" points="440.5,-.5 440.5,-19.5 501.5,-19.5 501.5,-.5 440.5,-.5"/>
<text text-anchor="middle" x="471" y="-7.5" font-family="Helvetica,sans-Serif" font-size="10.00" fill="#000000">iostream</text>
</g>
<!-- Node15&#45;&gt;Node17 -->
<g id="edge19" class="edge">
<title>Node15&#45;&gt;Node17</title>
<path fill="none" stroke="#191970" d="M501.5551,-56.2455C496.4618,-48.5367 489.2092,-37.5598 483.048,-28.2348"/>
<polygon fill="#191970" stroke="#191970" points="485.8038,-26.0566 477.3711,-19.6427 479.9635,-29.9155 485.8038,-26.0566"/>
</g>
<!-- Node19&#45;&gt;Node5 -->
<g id="edge23" class="edge">
<title>Node19&#45;&gt;Node5</title>
<path fill="none" stroke="#191970" d="M455.8154,-224.3877C465.0039,-215.6953 477.9483,-202.1274 486,-188 494.2686,-173.492 499.7461,-155.3018 503.0274,-141.694"/>
<polygon fill="#191970" stroke="#191970" points="506.4464,-142.4422 505.1994,-131.921 499.6132,-140.9234 506.4464,-142.4422"/>
</g>
<!-- Node19&#45;&gt;Node8 -->
<g id="edge22" class="edge">
<title>Node19&#45;&gt;Node8</title>
<path fill="none" stroke="#191970" d="M403.3175,-224.4908C380.3744,-217.5259 352.6567,-206.0637 333,-188 305.0455,-162.3109 322.784,-136.7561 294,-112 275.0256,-95.6807 250.0377,-85.095 226.6035,-78.2524"/>
<polygon fill="#191970" stroke="#191970" points="227.2461,-74.7999 216.6774,-75.5433 225.4029,-81.5529 227.2461,-74.7999"/>
</g>
<!-- Node19&#45;&gt;Node20 -->
<g id="edge24" class="edge">
<title>Node19&#45;&gt;Node20</title>
<path fill="none" stroke="#191970" d="M477.1464,-224.3733C508.5109,-214.9807 556.3665,-200.6496 590.5716,-190.4064"/>
<polygon fill="#191970" stroke="#191970" points="591.6975,-193.7229 600.273,-187.5011 589.6893,-187.0171 591.6975,-193.7229"/>
</g>
<!-- Node22 -->
<g id="node23" class="node">
<title>Node22</title>
<g id="a_node23"><a xlink:href="Constant_8hpp.html" target="_top" xlink:title="lug/Math/Constant.hpp">
<polygon fill="none" stroke="#000000" points="156,-168.5 156,-187.5 286,-187.5 286,-168.5 156,-168.5"/>
<text text-anchor="middle" x="221" y="-175.5" font-family="Helvetica,sans-Serif" font-size="10.00" fill="#000000">lug/Math/Constant.hpp</text>
</a>
</g>
</g>
<!-- Node19&#45;&gt;Node22 -->
<g id="edge28" class="edge">
<title>Node19&#45;&gt;Node22</title>
<path fill="none" stroke="#191970" d="M406.7475,-224.4369C368.6533,-214.9133 310.0687,-200.2672 268.9013,-189.9753"/>
<polygon fill="#191970" stroke="#191970" points="269.645,-186.5536 259.0947,-187.5237 267.9472,-193.3446 269.645,-186.5536"/>
</g>
<!-- Node25 -->
<g id="node26" class="node">
<title>Node25</title>
<g id="a_node26"><a xlink:href="Quaternion_8inl.html" target="_top" xlink:title="lug/Math/Quaternion.inl">
<polygon fill="none" stroke="#000000" points="342.5,-168.5 342.5,-187.5 477.5,-187.5 477.5,-168.5 342.5,-168.5"/>
<text text-anchor="middle" x="410" y="-175.5" font-family="Helvetica,sans-Serif" font-size="10.00" fill="#000000">lug/Math/Quaternion.inl</text>
</a>
</g>
</g>
<!-- Node19&#45;&gt;Node25 -->
<g id="edge31" class="edge">
<title>Node19&#45;&gt;Node25</title>
<path fill="none" stroke="#191970" d="M438.9035,-224.2455C434.0855,-216.5367 427.2249,-205.5598 421.3968,-196.2348"/>
<polygon fill="#191970" stroke="#191970" points="424.2947,-194.2677 416.0267,-187.6427 418.3587,-197.9777 424.2947,-194.2677"/>
</g>
<!-- Node20&#45;&gt;Node5 -->
<g id="edge26" class="edge">
<title>Node20&#45;&gt;Node5</title>
<path fill="none" stroke="#191970" d="M610.5117,-168.3733C590.356,-159.3435 560.012,-145.7494 537.382,-135.6111"/>
<polygon fill="#191970" stroke="#191970" points="538.7649,-132.3955 528.2079,-131.5011 535.9029,-138.7838 538.7649,-132.3955"/>
</g>
<!-- Node20&#45;&gt;Node6 -->
<g id="edge25" class="edge">
<title>Node20&#45;&gt;Node6</title>
<path fill="none" stroke="#191970" d="M650.9137,-168.4632C666.7385,-160.0163 689.4757,-146.7604 707,-132 724.1979,-117.5145 740.8205,-97.8283 751.8284,-83.7332"/>
<polygon fill="#191970" stroke="#191970" points="754.6187,-85.8461 757.9117,-75.776 749.0576,-81.5946 754.6187,-85.8461"/>
</g>
<!-- Node21 -->
<g id="node22" class="node">
<title>Node21</title>
<g id="a_node22"><a xlink:href="Vector_8inl.html" target="_top" xlink:title="lug/Math/Vector.inl">
<polygon fill="none" stroke="#000000" points="584.5,-112.5 584.5,-131.5 697.5,-131.5 697.5,-112.5 584.5,-112.5"/>
<text text-anchor="middle" x="641" y="-119.5" font-family="Helvetica,sans-Serif" font-size="10.00" fill="#000000">lug/Math/Vector.inl</text>
</a>
</g>
</g>
<!-- Node20&#45;&gt;Node21 -->
<g id="edge27" class="edge">
<title>Node20&#45;&gt;Node21</title>
<path fill="none" stroke="#191970" d="M633.5677,-168.2455C634.7421,-160.9382 636.3884,-150.6944 637.8332,-141.7046"/>
<polygon fill="#191970" stroke="#191970" points="641.3191,-142.0714 639.4503,-131.6427 634.4078,-140.9606 641.3191,-142.0714"/>
</g>
<!-- Node23 -->
<g id="node24" class="node">
<title>Node23</title>
<polygon fill="none" stroke="#bfbfbf" points="241,-112.5 241,-131.5 285,-131.5 285,-112.5 241,-112.5"/>
<text text-anchor="middle" x="263" y="-119.5" font-family="Helvetica,sans-Serif" font-size="10.00" fill="#000000">limits</text>
</g>
<!-- Node22&#45;&gt;Node23 -->
<g id="edge29" class="edge">
<title>Node22&#45;&gt;Node23</title>
<path fill="none" stroke="#191970" d="M228.3158,-168.2455C234.2179,-160.3761 242.6742,-149.101 249.7594,-139.6542"/>
<polygon fill="#191970" stroke="#191970" points="252.568,-141.7427 255.768,-131.6427 246.9679,-137.5427 252.568,-141.7427"/>
</g>
<!-- Node24 -->
<g id="node25" class="node">
<title>Node24</title>
<g id="a_node25"><a xlink:href="Constant_8inl.html" target="_top" xlink:title="lug/Math/Constant.inl">
<polygon fill="none" stroke="#000000" points="99,-112.5 99,-131.5 223,-131.5 223,-112.5 99,-112.5"/>
<text text-anchor="middle" x="161" y="-119.5" font-family="Helvetica,sans-Serif" font-size="10.00" fill="#000000">lug/Math/Constant.inl</text>
</a>
</g>
</g>
<!-- Node22&#45;&gt;Node24 -->
<g id="edge30" class="edge">
<title>Node22&#45;&gt;Node24</title>
<path fill="none" stroke="#191970" d="M210.5488,-168.2455C201.7731,-160.0549 189.0446,-148.1749 178.686,-138.5069"/>
<polygon fill="#191970" stroke="#191970" points="181.0301,-135.9072 171.3314,-131.6427 176.2539,-141.0246 181.0301,-135.9072"/>
</g>
</g>
</svg>
        <g id="navigator" transform="translate(0 0)" fill="#404254">
                <rect fill="#f2f5e9" fill-opacity="0.5" stroke="#606060" stroke-width=".5" x="0" y="0" width="60" height="60"/>
                <use id="zoomplus" xlink:href="#zoomPlus" x="17" y="9" onmousedown="handleZoom(evt,'in')"/>
                <use id="zoomminus" xlink:href="#zoomMin" x="42" y="9" onmousedown="handleZoom(evt,'out')"/>
                <use id="reset" xlink:href="#resetDef" x="30" y="36" onmousedown="handleReset()"/>
                <g id="arrowUp" xlink:href="#dirArrow" transform="translate(30 24)" onmousedown="handlePan(0,-1)">
                  <use xlink:href="#rim" fill="#404040">
                        <set attributeName="fill" to="#808080" begin="arrowUp.mouseover" end="arrowUp.mouseout"/>
                  </use>
                  <path fill="none" stroke="white" stroke-width="1.5" d="M0,-3.0v7 M-2.5,-0.5L0,-3.0L2.5,-0.5"/>
                </g>
                <g id="arrowRight" xlink:href="#dirArrow" transform="rotate(90) translate(36 -43)" onmousedown="handlePan(1,0)">
                  <use xlink:href="#rim" fill="#404040">
                        <set attributeName="fill" to="#808080" begin="arrowRight.mouseover" end="arrowRight.mouseout"/>
                  </use>
                  <path fill="none" stroke="white" stroke-width="1.5" d="M0,-3.0v7 M-2.5,-0.5L0,-3.0L2.5,-0.5"/>
                </g>
                <g id="arrowDown" xlink:href="#dirArrow" transform="rotate(180) translate(-30 -48)" onmousedown="handlePan(0,1)">
                  <use xlink:href="#rim" fill="#404040">
                        <set attributeName="fill" to="#808080" begin="arrowDown.mouseover" end="arrowDown.mouseout"/>
                  </use>
                  <path fill="none" stroke="white" stroke-width="1.5" d="M0,-3.0v7 M-2.5,-0.5L0,-3.0L2.5,-0.5"/>
                </g>
                <g id="arrowLeft" xlink:href="#dirArrow" transform="rotate(270) translate(-36 17)" onmousedown="handlePan(-1,0)">
                  <use xlink:href="#rim" fill="#404040">
                        <set attributeName="fill" to="#808080" begin="arrowLeft.mouseover" end="arrowLeft.mouseout"/>
                  </use>
                  <path fill="none" stroke="white" stroke-width="1.5" d="M0,-3.0v7 M-2.5,-0.5L0,-3.0L2.5,-0.5"/>
                </g>
        </g>
        <svg viewBox="0 0 15 15" width="100%" height="30px" preserveAspectRatio="xMaxYMin meet">
         <g id="arrow_out" transform="scale(0.3 0.3)">
          <a xlink:href="Node_8hpp__incl_org.svg" target="_base">
           <rect id="button" ry="5" rx="5" y="6" x="6" height="38" width="38"
                fill="#f2f5e9" fill-opacity="0.5" stroke="#606060" stroke-width="1.0"/>
           <path id="arrow"
             d="M 11.500037,31.436501 C 11.940474,20.09759 22.043105,11.32322 32.158766,21.979434 L 37.068811,17.246167 C 37.068811,17.246167 37.088388,32 37.088388,32 L 22.160133,31.978069 C 22.160133,31.978069 26.997745,27.140456 26.997745,27.140456 C 18.528582,18.264221 13.291696,25.230495 11.500037,31.436501 z"
             style="fill:#404040;"/>
          </a>
         </g>
        </svg>
</svg>
