<?xml version="1.0" encoding="UTF-8" standalone="no"?>
<!DOCTYPE svg PUBLIC "-//W3C//DTD SVG 1.1//EN"
 "http://www.w3.org/Graphics/SVG/1.1/DTD/svg11.dtd">
<!-- Generated by graphviz version 2.40.1 (20161225.0304)
 -->
<!-- Title: include/lug/Graphics/Render/Camera/Orthographic.hpp Pages: 1 -->
<svg width="316pt" height="106pt"
 viewBox="0.00 0.00 315.50 106.00" xmlns="http://www.w3.org/2000/svg" xmlns:xlink="http://www.w3.org/1999/xlink">
<g id="graph0" class="graph" transform="scale(1 1) rotate(0) translate(4 102)">
<title>include/lug/Graphics/Render/Camera/Orthographic.hpp</title>
<!-- Node42 -->
<g id="node1" class="node">
<title>Node42</title>
<polygon fill="#bfbfbf" stroke="#000000" points="55,-67.5 55,-97.5 246,-97.5 246,-67.5 55,-67.5"/>
<text text-anchor="start" x="63" y="-85.5" font-family="Helvetica,sans-Serif" font-size="10.00" fill="#000000">include/lug/Graphics</text>
<text text-anchor="middle" x="150.5" y="-74.5" font-family="Helvetica,sans-Serif" font-size="10.00" fill="#000000">/Render/Camera/Orthographic.hpp</text>
</g>
<!-- Node43 -->
<g id="node2" class="node">
<title>Node43</title>
<g id="a_node2"><a xlink:href="Builder_2Camera_8cpp.html" target="_top" xlink:title="src/lug/Graphics/Builder\l/Camera.cpp">
<polygon fill="none" stroke="#000000" points="0,-.5 0,-30.5 139,-30.5 139,-.5 0,-.5"/>
<text text-anchor="start" x="8" y="-18.5" font-family="Helvetica,sans-Serif" font-size="10.00" fill="#000000">src/lug/Graphics/Builder</text>
<text text-anchor="middle" x="69.5" y="-7.5" font-family="Helvetica,sans-Serif" font-size="10.00" fill="#000000">/Camera.cpp</text>
</a>
</g>
</g>
<!-- Node42&#45;&gt;Node43 -->
<g id="edge1" class="edge">
<title>Node42&#45;&gt;Node43</title>
<path fill="none" stroke="#191970" d="M124.2425,-60.7808C112.3433,-50.9383 98.5644,-39.541 87.8074,-30.6432"/>
<polygon fill="#191970" stroke="#191970" points="122.1835,-63.6198 132.1198,-67.2967 126.6451,-58.2259 122.1835,-63.6198"/>
</g>
<!-- Node44 -->
<g id="node3" class="node">
<title>Node44</title>
<g id="a_node3"><a xlink:href="Orthographic_8cpp.html" target="_top" xlink:title="src/lug/Graphics/Render\l/Camera/Orthographic.cpp">
<polygon fill="none" stroke="#000000" points="157.5,-.5 157.5,-30.5 307.5,-30.5 307.5,-.5 157.5,-.5"/>
<text text-anchor="start" x="165.5" y="-18.5" font-family="Helvetica,sans-Serif" font-size="10.00" fill="#000000">src/lug/Graphics/Render</text>
<text text-anchor="middle" x="232.5" y="-7.5" font-family="Helvetica,sans-Serif" font-size="10.00" fill="#000000">/Camera/Orthographic.cpp</text>
</a>
</g>
</g>
<!-- Node42&#45;&gt;Node44 -->
<g id="edge2" class="edge">
<title>Node42&#45;&gt;Node44</title>
<path fill="none" stroke="#191970" d="M177.0817,-60.7808C189.1278,-50.9383 203.0767,-39.541 213.9666,-30.6432"/>
<polygon fill="#191970" stroke="#191970" points="174.6363,-58.2591 169.1071,-67.2967 179.0654,-63.6797 174.6363,-58.2591"/>
</g>
</g>
</svg>
