<?xml version="1.0" encoding="UTF-8" standalone="no"?>
<!DOCTYPE svg PUBLIC "-//W3C//DTD SVG 1.1//EN"
 "http://www.w3.org/Graphics/SVG/1.1/DTD/svg11.dtd">
<!-- Generated by graphviz version 2.40.1 (20161225.0304)
 -->
<!-- Title: src/lug/System/Logger/OstreamHandler.cpp Pages: 1 -->
<svg width="960pt" height="397pt"
 viewBox="0.00 0.00 959.50 397.00" xmlns="http://www.w3.org/2000/svg" xmlns:xlink="http://www.w3.org/1999/xlink">
<g id="graph0" class="graph" transform="scale(1 1) rotate(0) translate(4 393)">
<title>src/lug/System/Logger/OstreamHandler.cpp</title>
<!-- Node0 -->
<g id="node1" class="node">
<title>Node0</title>
<polygon fill="#bfbfbf" stroke="#000000" points="450.5,-358.5 450.5,-388.5 581.5,-388.5 581.5,-358.5 450.5,-358.5"/>
<text text-anchor="start" x="458.5" y="-376.5" font-family="Helvetica,sans-Serif" font-size="10.00" fill="#000000">src/lug/System/Logger</text>
<text text-anchor="middle" x="516" y="-365.5" font-family="Helvetica,sans-Serif" font-size="10.00" fill="#000000">/OstreamHandler.cpp</text>
</g>
<!-- Node1 -->
<g id="node2" class="node">
<title>Node1</title>
<polygon fill="none" stroke="#bfbfbf" points="357.5,-297 357.5,-316 418.5,-316 418.5,-297 357.5,-297"/>
<text text-anchor="middle" x="388" y="-304" font-family="Helvetica,sans-Serif" font-size="10.00" fill="#000000">iostream</text>
</g>
<!-- Node0&#45;&gt;Node1 -->
<g id="edge1" class="edge">
<title>Node0&#45;&gt;Node1</title>
<path fill="none" stroke="#191970" d="M487.2743,-358.4639C465.7975,-347.2222 436.6138,-331.9463 415.4505,-320.8686"/>
<polygon fill="#191970" stroke="#191970" points="416.8306,-317.6406 406.3478,-316.1039 413.5843,-323.8423 416.8306,-317.6406"/>
</g>
<!-- Node2 -->
<g id="node3" class="node">
<title>Node2</title>
<g id="a_node3"><a xlink:href="OstreamHandler_8hpp.html" target="_top" xlink:title="lug/System/Logger/Ostream\lHandler.hpp">
<polygon fill="none" stroke="#000000" points="436.5,-291.5 436.5,-321.5 595.5,-321.5 595.5,-291.5 436.5,-291.5"/>
<text text-anchor="start" x="444.5" y="-309.5" font-family="Helvetica,sans-Serif" font-size="10.00" fill="#000000">lug/System/Logger/Ostream</text>
<text text-anchor="middle" x="516" y="-298.5" font-family="Helvetica,sans-Serif" font-size="10.00" fill="#000000">Handler.hpp</text>
</a>
</g>
</g>
<!-- Node0&#45;&gt;Node2 -->
<g id="edge2" class="edge">
<title>Node0&#45;&gt;Node2</title>
<path fill="none" stroke="#191970" d="M516,-358.2967C516,-350.5013 516,-340.7991 516,-331.9064"/>
<polygon fill="#191970" stroke="#191970" points="519.5001,-331.6431 516,-321.6432 512.5001,-331.6432 519.5001,-331.6431"/>
</g>
<!-- Node18 -->
<g id="node19" class="node">
<title>Node18</title>
<g id="a_node19"><a xlink:href="Message_8hpp.html" target="_top" xlink:title="lug/System/Logger/Message.hpp">
<polygon fill="none" stroke="#000000" points="770.5,-174 770.5,-193 951.5,-193 951.5,-174 770.5,-174"/>
<text text-anchor="middle" x="861" y="-181" font-family="Helvetica,sans-Serif" font-size="10.00" fill="#000000">lug/System/Logger/Message.hpp</text>
</a>
</g>
</g>
<!-- Node0&#45;&gt;Node18 -->
<g id="edge28" class="edge">
<title>Node0&#45;&gt;Node18</title>
<path fill="none" stroke="#191970" d="M543.3599,-358.4322C608.2416,-322.7003 770.763,-233.1957 834.6343,-198.0203"/>
<polygon fill="#191970" stroke="#191970" points="836.5932,-200.9372 843.6642,-193.0472 833.2163,-194.8055 836.5932,-200.9372"/>
</g>
<!-- Node3 -->
<g id="node4" class="node">
<title>Node3</title>
<polygon fill="none" stroke="#bfbfbf" points="567,-235.5 567,-254.5 625,-254.5 625,-235.5 567,-235.5"/>
<text text-anchor="middle" x="596" y="-242.5" font-family="Helvetica,sans-Serif" font-size="10.00" fill="#000000">ostream</text>
</g>
<!-- Node2&#45;&gt;Node3 -->
<g id="edge3" class="edge">
<title>Node2&#45;&gt;Node3</title>
<path fill="none" stroke="#191970" d="M535.7753,-291.2977C547.6898,-282.1384 562.8532,-270.4816 574.9838,-261.1562"/>
<polygon fill="#191970" stroke="#191970" points="577.396,-263.7165 583.191,-254.8469 573.1297,-258.1668 577.396,-263.7165"/>
</g>
<!-- Node4 -->
<g id="node5" class="node">
<title>Node4</title>
<g id="a_node5"><a xlink:href="System_2Export_8hpp.html" target="_top" xlink:title="lug/System/Export.hpp">
<polygon fill="none" stroke="#000000" points="0,-56.5 0,-75.5 132,-75.5 132,-56.5 0,-56.5"/>
<text text-anchor="middle" x="66" y="-63.5" font-family="Helvetica,sans-Serif" font-size="10.00" fill="#000000">lug/System/Export.hpp</text>
</a>
</g>
</g>
<!-- Node2&#45;&gt;Node4 -->
<g id="edge4" class="edge">
<title>Node2&#45;&gt;Node4</title>
<path fill="none" stroke="#191970" d="M436.4502,-291.586C301.9319,-265.9937 42.7907,-214.9291 30,-199 23.2929,-190.6472 28.168,-128.5101 34,-112 37.6169,-101.7607 44.1637,-91.7049 50.3976,-83.6195"/>
<polygon fill="#191970" stroke="#191970" points="53.2534,-85.6564 56.8858,-75.7037 47.8396,-81.219 53.2534,-85.6564"/>
</g>
<!-- Node6 -->
<g id="node7" class="node">
<title>Node6</title>
<g id="a_node7"><a xlink:href="Handler_8hpp.html" target="_top" xlink:title="lug/System/Logger/Handler.hpp">
<polygon fill="none" stroke="#000000" points="372.5,-235.5 372.5,-254.5 549.5,-254.5 549.5,-235.5 372.5,-235.5"/>
<text text-anchor="middle" x="461" y="-242.5" font-family="Helvetica,sans-Serif" font-size="10.00" fill="#000000">lug/System/Logger/Handler.hpp</text>
</a>
</g>
</g>
<!-- Node2&#45;&gt;Node6 -->
<g id="edge6" class="edge">
<title>Node2&#45;&gt;Node6</title>
<path fill="none" stroke="#191970" d="M502.4045,-291.2977C494.6109,-282.5831 484.7953,-271.6075 476.6774,-262.5302"/>
<polygon fill="#191970" stroke="#191970" points="479.0813,-259.9678 469.8062,-254.8469 473.8635,-264.6341 479.0813,-259.9678"/>
</g>
<!-- Node5 -->
<g id="node6" class="node">
<title>Node5</title>
<g id="a_node6"><a xlink:href="Config_8hpp.html" target="_top" xlink:title="lug/Config.hpp">
<polygon fill="none" stroke="#000000" points="21.5,-.5 21.5,-19.5 110.5,-19.5 110.5,-.5 21.5,-.5"/>
<text text-anchor="middle" x="66" y="-7.5" font-family="Helvetica,sans-Serif" font-size="10.00" fill="#000000">lug/Config.hpp</text>
</a>
</g>
</g>
<!-- Node4&#45;&gt;Node5 -->
<g id="edge5" class="edge">
<title>Node4&#45;&gt;Node5</title>
<path fill="none" stroke="#191970" d="M66,-56.2455C66,-48.9382 66,-38.6944 66,-29.7046"/>
<polygon fill="#191970" stroke="#191970" points="69.5001,-29.6426 66,-19.6427 62.5001,-29.6427 69.5001,-29.6426"/>
</g>
<!-- Node6&#45;&gt;Node4 -->
<g id="edge9" class="edge">
<title>Node6&#45;&gt;Node4</title>
<path fill="none" stroke="#191970" d="M372.1772,-241.3258C257.0109,-235.6337 68.2815,-222.777 47,-199 18.6132,-167.2844 40.3507,-113.2037 55.1764,-84.7584"/>
<polygon fill="#191970" stroke="#191970" points="58.3225,-86.2997 60.0387,-75.8447 52.1773,-82.9475 58.3225,-86.2997"/>
</g>
<!-- Node7 -->
<g id="node8" class="node">
<title>Node7</title>
<polygon fill="none" stroke="#bfbfbf" points="664,-174 664,-193 714,-193 714,-174 664,-174"/>
<text text-anchor="middle" x="689" y="-181" font-family="Helvetica,sans-Serif" font-size="10.00" fill="#000000">atomic</text>
</g>
<!-- Node6&#45;&gt;Node7 -->
<g id="edge7" class="edge">
<title>Node6&#45;&gt;Node7</title>
<path fill="none" stroke="#191970" d="M512.1046,-235.4792C551.427,-227.5184 606.8388,-214.9138 654,-199 655.8418,-198.3785 657.7196,-197.6967 659.6012,-196.9764"/>
<polygon fill="#191970" stroke="#191970" points="660.9737,-200.1965 668.8911,-193.1563 658.3114,-193.7225 660.9737,-200.1965"/>
</g>
<!-- Node8 -->
<g id="node9" class="node">
<title>Node8</title>
<polygon fill="none" stroke="#bfbfbf" points="207.5,-112.5 207.5,-131.5 266.5,-131.5 266.5,-112.5 207.5,-112.5"/>
<text text-anchor="middle" x="237" y="-119.5" font-family="Helvetica,sans-Serif" font-size="10.00" fill="#000000">memory</text>
</g>
<!-- Node6&#45;&gt;Node8 -->
<g id="edge8" class="edge">
<title>Node6&#45;&gt;Node8</title>
<path fill="none" stroke="#191970" d="M382.7644,-235.4854C333.8957,-228.0115 276.954,-216.003 259,-199 243.4322,-184.2568 238.6371,-159.3329 237.285,-141.8448"/>
<polygon fill="#191970" stroke="#191970" points="240.7701,-141.437 236.8151,-131.6081 233.7774,-141.7581 240.7701,-141.437"/>
</g>
<!-- Node9 -->
<g id="node10" class="node">
<title>Node9</title>
<g id="a_node10"><a xlink:href="Common_8hpp.html" target="_top" xlink:title="lug/System/Logger/Common.hpp">
<polygon fill="none" stroke="#000000" points="651,-112.5 651,-131.5 833,-131.5 833,-112.5 651,-112.5"/>
<text text-anchor="middle" x="742" y="-119.5" font-family="Helvetica,sans-Serif" font-size="10.00" fill="#000000">lug/System/Logger/Common.hpp</text>
</a>
</g>
</g>
<!-- Node6&#45;&gt;Node9 -->
<g id="edge10" class="edge">
<title>Node6&#45;&gt;Node9</title>
<path fill="none" stroke="#191970" d="M540.586,-235.4567C612.6864,-226.1023 709.6482,-211.4719 723,-199 738.5176,-184.505 742.2343,-159.5303 742.7368,-141.9625"/>
<polygon fill="#191970" stroke="#191970" points="746.2356,-141.6577 742.6945,-131.6722 739.2357,-141.6865 746.2356,-141.6577"/>
</g>
<!-- Node12 -->
<g id="node13" class="node">
<title>Node12</title>
<g id="a_node13"><a xlink:href="Formatter_8hpp.html" target="_top" xlink:title="lug/System/Logger/Formatter.hpp">
<polygon fill="none" stroke="#000000" points="268,-174 268,-193 456,-193 456,-174 268,-174"/>
<text text-anchor="middle" x="362" y="-181" font-family="Helvetica,sans-Serif" font-size="10.00" fill="#000000">lug/System/Logger/Formatter.hpp</text>
</a>
</g>
</g>
<!-- Node6&#45;&gt;Node12 -->
<g id="edge14" class="edge">
<title>Node6&#45;&gt;Node12</title>
<path fill="none" stroke="#191970" d="M445.5313,-235.3906C429.5479,-225.4616 404.3897,-209.833 385.8567,-198.3201"/>
<polygon fill="#191970" stroke="#191970" points="387.7015,-195.3457 377.3601,-193.0419 384.0076,-201.2918 387.7015,-195.3457"/>
</g>
<!-- Node16 -->
<g id="node17" class="node">
<title>Node16</title>
<g id="a_node17"><a xlink:href="LoggingFacility_8hpp.html" target="_top" xlink:title="lug/System/Logger/Logging\lFacility.hpp">
<polygon fill="none" stroke="#000000" points="56.5,-168.5 56.5,-198.5 211.5,-198.5 211.5,-168.5 56.5,-168.5"/>
<text text-anchor="start" x="64.5" y="-186.5" font-family="Helvetica,sans-Serif" font-size="10.00" fill="#000000">lug/System/Logger/Logging</text>
<text text-anchor="middle" x="134" y="-175.5" font-family="Helvetica,sans-Serif" font-size="10.00" fill="#000000">Facility.hpp</text>
</a>
</g>
</g>
<!-- Node6&#45;&gt;Node16 -->
<g id="edge20" class="edge">
<title>Node6&#45;&gt;Node16</title>
<path fill="none" stroke="#191970" d="M410.265,-235.4581C359.9655,-225.9981 281.9039,-211.3168 221.5726,-199.9701"/>
<polygon fill="#191970" stroke="#191970" points="222.144,-196.5162 211.6693,-198.1075 220.8501,-203.3956 222.144,-196.5162"/>
</g>
<!-- Node6&#45;&gt;Node18 -->
<g id="edge25" class="edge">
<title>Node6&#45;&gt;Node18</title>
<path fill="none" stroke="#191970" d="M523.0611,-235.4581C594.9894,-224.3991 713.3275,-206.2047 789.1717,-194.5436"/>
<polygon fill="#191970" stroke="#191970" points="789.7704,-197.9928 799.1224,-193.0137 788.7066,-191.0741 789.7704,-197.9928"/>
</g>
<!-- Node19 -->
<g id="node20" class="node">
<title>Node19</title>
<g id="a_node20"><a xlink:href="Handler_8inl.html" target="_top" xlink:title="lug/System/Logger/Handler.inl">
<polygon fill="none" stroke="#000000" points="474.5,-174 474.5,-193 645.5,-193 645.5,-174 474.5,-174"/>
<text text-anchor="middle" x="560" y="-181" font-family="Helvetica,sans-Serif" font-size="10.00" fill="#000000">lug/System/Logger/Handler.inl</text>
</a>
</g>
</g>
<!-- Node6&#45;&gt;Node19 -->
<g id="edge27" class="edge">
<title>Node6&#45;&gt;Node19</title>
<path fill="none" stroke="#191970" d="M476.4688,-235.3906C492.4521,-225.4616 517.6103,-209.833 536.1433,-198.3201"/>
<polygon fill="#191970" stroke="#191970" points="537.9924,-201.2918 544.6399,-193.0419 534.2985,-195.3457 537.9924,-201.2918"/>
</g>
<!-- Node9&#45;&gt;Node4 -->
<g id="edge11" class="edge">
<title>Node9&#45;&gt;Node4</title>
<path fill="none" stroke="#191970" d="M650.8316,-114.4476C516.5769,-103.3259 268.0832,-82.7406 142.6625,-72.3507"/>
<polygon fill="#191970" stroke="#191970" points="142.6368,-68.8367 132.3819,-71.4991 142.0588,-75.8128 142.6368,-68.8367"/>
</g>
<!-- Node10 -->
<g id="node11" class="node">
<title>Node10</title>
<polygon fill="none" stroke="#bfbfbf" points="753,-56.5 753,-75.5 835,-75.5 835,-56.5 753,-56.5"/>
<text text-anchor="middle" x="794" y="-63.5" font-family="Helvetica,sans-Serif" font-size="10.00" fill="#000000">fmt/format.h</text>
</g>
<!-- Node9&#45;&gt;Node10 -->
<g id="edge12" class="edge">
<title>Node9&#45;&gt;Node10</title>
<path fill="none" stroke="#191970" d="M751.0577,-112.2455C758.5142,-104.2155 769.2634,-92.6394 778.1417,-83.0781"/>
<polygon fill="#191970" stroke="#191970" points="780.8063,-85.3522 785.0461,-75.6427 775.6768,-80.589 780.8063,-85.3522"/>
</g>
<!-- Node11 -->
<g id="node12" class="node">
<title>Node11</title>
<polygon fill="none" stroke="#bfbfbf" points="645.5,-56.5 645.5,-75.5 734.5,-75.5 734.5,-56.5 645.5,-56.5"/>
<text text-anchor="middle" x="690" y="-63.5" font-family="Helvetica,sans-Serif" font-size="10.00" fill="#000000">fmt/ostream.h</text>
</g>
<!-- Node9&#45;&gt;Node11 -->
<g id="edge13" class="edge">
<title>Node9&#45;&gt;Node11</title>
<path fill="none" stroke="#191970" d="M732.9423,-112.2455C725.4858,-104.2155 714.7366,-92.6394 705.8583,-83.0781"/>
<polygon fill="#191970" stroke="#191970" points="708.3232,-80.589 698.9539,-75.6427 703.1937,-85.3522 708.3232,-80.589"/>
</g>
<!-- Node12&#45;&gt;Node4 -->
<g id="edge19" class="edge">
<title>Node12&#45;&gt;Node4</title>
<path fill="none" stroke="#191970" d="M402.1671,-173.9347C443.4966,-162.277 498.5035,-140.5483 473,-112 451.4081,-87.8302 254.1602,-74.7563 142.3909,-69.2323"/>
<polygon fill="#191970" stroke="#191970" points="142.3388,-65.7257 132.1809,-68.7369 141.9995,-72.7175 142.3388,-65.7257"/>
</g>
<!-- Node12&#45;&gt;Node8 -->
<g id="edge16" class="edge">
<title>Node12&#45;&gt;Node8</title>
<path fill="none" stroke="#191970" d="M342.4688,-173.8906C321.8292,-163.7359 289.0724,-147.6196 265.5398,-136.0416"/>
<polygon fill="#191970" stroke="#191970" points="266.912,-132.8161 256.3941,-131.5419 263.8218,-139.0971 266.912,-132.8161"/>
</g>
<!-- Node13 -->
<g id="node14" class="node">
<title>Node13</title>
<polygon fill="none" stroke="#bfbfbf" points="348,-112.5 348,-131.5 398,-131.5 398,-112.5 348,-112.5"/>
<text text-anchor="middle" x="373" y="-119.5" font-family="Helvetica,sans-Serif" font-size="10.00" fill="#000000">chrono</text>
</g>
<!-- Node12&#45;&gt;Node13 -->
<g id="edge15" class="edge">
<title>Node12&#45;&gt;Node13</title>
<path fill="none" stroke="#191970" d="M363.7188,-173.8906C365.2435,-165.3657 367.5198,-152.6392 369.4364,-141.9235"/>
<polygon fill="#191970" stroke="#191970" points="372.9416,-142.2049 371.257,-131.7449 366.0509,-140.9724 372.9416,-142.2049"/>
</g>
<!-- Node14 -->
<g id="node15" class="node">
<title>Node14</title>
<polygon fill="none" stroke="#bfbfbf" points="416,-112.5 416,-131.5 464,-131.5 464,-112.5 416,-112.5"/>
<text text-anchor="middle" x="440" y="-119.5" font-family="Helvetica,sans-Serif" font-size="10.00" fill="#000000">vector</text>
</g>
<!-- Node12&#45;&gt;Node14 -->
<g id="edge17" class="edge">
<title>Node12&#45;&gt;Node14</title>
<path fill="none" stroke="#191970" d="M374.1875,-173.8906C386.437,-164.2324 405.5263,-149.1812 419.9977,-137.771"/>
<polygon fill="#191970" stroke="#191970" points="422.2124,-140.4819 427.8981,-131.5419 417.8783,-134.985 422.2124,-140.4819"/>
</g>
<!-- Node15 -->
<g id="node16" class="node">
<title>Node15</title>
<polygon fill="none" stroke="#bfbfbf" points="284.5,-112.5 284.5,-131.5 329.5,-131.5 329.5,-112.5 284.5,-112.5"/>
<text text-anchor="middle" x="307" y="-119.5" font-family="Helvetica,sans-Serif" font-size="10.00" fill="#000000">string</text>
</g>
<!-- Node12&#45;&gt;Node15 -->
<g id="edge18" class="edge">
<title>Node12&#45;&gt;Node15</title>
<path fill="none" stroke="#191970" d="M353.4063,-173.8906C345.1403,-164.6478 332.4574,-150.466 322.4383,-139.2628"/>
<polygon fill="#191970" stroke="#191970" points="324.99,-136.8657 315.7149,-131.7449 319.7722,-141.5321 324.99,-136.8657"/>
</g>
<!-- Node16&#45;&gt;Node4 -->
<g id="edge24" class="edge">
<title>Node16&#45;&gt;Node4</title>
<path fill="none" stroke="#191970" d="M115.8718,-168.4696C105.4887,-158.9828 92.9776,-145.9198 85,-132 76.7551,-117.6138 71.8611,-99.3818 69.1105,-85.7273"/>
<polygon fill="#191970" stroke="#191970" points="72.4898,-84.7431 67.2775,-75.5191 65.6,-85.9803 72.4898,-84.7431"/>
</g>
<!-- Node16&#45;&gt;Node8 -->
<g id="edge22" class="edge">
<title>Node16&#45;&gt;Node8</title>
<path fill="none" stroke="#191970" d="M159.1966,-168.4554C175.3272,-158.8241 196.1638,-146.3828 212.2136,-136.7996"/>
<polygon fill="#191970" stroke="#191970" points="214.247,-139.662 221.0387,-131.5303 210.6584,-133.6518 214.247,-139.662"/>
</g>
<!-- Node16&#45;&gt;Node15 -->
<g id="edge21" class="edge">
<title>Node16&#45;&gt;Node15</title>
<path fill="none" stroke="#191970" d="M176.3206,-168.4554C206.6115,-157.6872 246.7829,-143.4067 274.552,-133.535"/>
<polygon fill="#191970" stroke="#191970" points="275.9303,-136.7596 284.1803,-130.1122 273.5856,-130.164 275.9303,-136.7596"/>
</g>
<!-- Node17 -->
<g id="node18" class="node">
<title>Node17</title>
<polygon fill="none" stroke="#bfbfbf" points="94.5,-112.5 94.5,-131.5 189.5,-131.5 189.5,-112.5 94.5,-112.5"/>
<text text-anchor="middle" x="142" y="-119.5" font-family="Helvetica,sans-Serif" font-size="10.00" fill="#000000">unordered_map</text>
</g>
<!-- Node16&#45;&gt;Node17 -->
<g id="edge23" class="edge">
<title>Node16&#45;&gt;Node17</title>
<path fill="none" stroke="#191970" d="M135.9775,-168.2977C137.0186,-160.2945 138.3077,-150.3843 139.4258,-141.7889"/>
<polygon fill="#191970" stroke="#191970" points="142.8998,-142.2149 140.7191,-131.8469 135.9583,-141.3119 142.8998,-142.2149"/>
</g>
<!-- Node18&#45;&gt;Node9 -->
<g id="edge26" class="edge">
<title>Node18&#45;&gt;Node9</title>
<path fill="none" stroke="#191970" d="M842.4063,-173.8906C822.8447,-163.7811 791.8499,-147.7628 769.4691,-136.1962"/>
<polygon fill="#191970" stroke="#191970" points="770.9539,-133.0238 760.4632,-131.5419 767.74,-139.2425 770.9539,-133.0238"/>
</g>
</g>
</svg>
