<?xml version="1.0" encoding="UTF-8" standalone="no"?>
<!DOCTYPE svg PUBLIC "-//W3C//DTD SVG 1.1//EN"
 "http://www.w3.org/Graphics/SVG/1.1/DTD/svg11.dtd">
<!-- Generated by graphviz version 2.40.1 (20161225.0304)
 -->
<!-- Title: include/lug/Graphics/Vulkan/API/PipelineLayout.hpp Pages: 1 -->
<svg width="1121pt" height="396pt"
 viewBox="0.00 0.00 1121.00 396.00" xmlns="http://www.w3.org/2000/svg" xmlns:xlink="http://www.w3.org/1999/xlink">
<g id="graph0" class="graph" transform="scale(1 1) rotate(0) translate(4 392)">
<title>include/lug/Graphics/Vulkan/API/PipelineLayout.hpp</title>
<!-- Node10 -->
<g id="node1" class="node">
<title>Node10</title>
<polygon fill="#bfbfbf" stroke="#000000" points="581.5,-357.5 581.5,-387.5 755.5,-387.5 755.5,-357.5 581.5,-357.5"/>
<text text-anchor="start" x="589.5" y="-375.5" font-family="Helvetica,sans-Serif" font-size="10.00" fill="#000000">include/lug/Graphics</text>
<text text-anchor="middle" x="668.5" y="-364.5" font-family="Helvetica,sans-Serif" font-size="10.00" fill="#000000">/Vulkan/API/PipelineLayout.hpp</text>
</g>
<!-- Node11 -->
<g id="node2" class="node">
<title>Node11</title>
<g id="a_node2"><a xlink:href="DescriptorSet_8hpp.html" target="_top" xlink:title="include/lug/Graphics\l/Vulkan/API/DescriptorSet.hpp">
<polygon fill="none" stroke="#000000" points="361.5,-290.5 361.5,-320.5 531.5,-320.5 531.5,-290.5 361.5,-290.5"/>
<text text-anchor="start" x="369.5" y="-308.5" font-family="Helvetica,sans-Serif" font-size="10.00" fill="#000000">include/lug/Graphics</text>
<text text-anchor="middle" x="446.5" y="-297.5" font-family="Helvetica,sans-Serif" font-size="10.00" fill="#000000">/Vulkan/API/DescriptorSet.hpp</text>
</a>
</g>
</g>
<!-- Node10&#45;&gt;Node11 -->
<g id="edge1" class="edge">
<title>Node10&#45;&gt;Node11</title>
<path fill="none" stroke="#191970" d="M609.0186,-354.5484C573.8791,-343.9432 529.8875,-330.6665 496.5384,-320.6017"/>
<polygon fill="#191970" stroke="#191970" points="608.0941,-357.9252 618.6789,-357.4639 610.1166,-351.2238 608.0941,-357.9252"/>
</g>
<!-- Node28 -->
<g id="node19" class="node">
<title>Node28</title>
<g id="a_node19"><a xlink:href="Pipeline_8hpp.html" target="_top" xlink:title="include/lug/Graphics\l/Vulkan/API/Pipeline.hpp">
<polygon fill="none" stroke="#000000" points="739,-223.5 739,-253.5 880,-253.5 880,-223.5 739,-223.5"/>
<text text-anchor="start" x="747" y="-241.5" font-family="Helvetica,sans-Serif" font-size="10.00" fill="#000000">include/lug/Graphics</text>
<text text-anchor="middle" x="809.5" y="-230.5" font-family="Helvetica,sans-Serif" font-size="10.00" fill="#000000">/Vulkan/API/Pipeline.hpp</text>
</a>
</g>
</g>
<!-- Node10&#45;&gt;Node28 -->
<g id="edge29" class="edge">
<title>Node10&#45;&gt;Node28</title>
<path fill="none" stroke="#191970" d="M668.8332,-347.278C670.3313,-329.417 675.021,-305.9019 688.5,-290 703.0408,-272.8454 724.3054,-261.2676 744.9669,-253.5146"/>
<polygon fill="#191970" stroke="#191970" points="665.337,-347.114 668.27,-357.2947 672.3259,-347.507 665.337,-347.114"/>
</g>
<!-- Node30 -->
<g id="node21" class="node">
<title>Node30</title>
<g id="a_node21"><a xlink:href="PipelineLayout_8cpp.html" target="_top" xlink:title="src/lug/Graphics/Vulkan\l/API/PipelineLayout.cpp">
<polygon fill="none" stroke="#000000" points="697,-290.5 697,-320.5 834,-320.5 834,-290.5 697,-290.5"/>
<text text-anchor="start" x="705" y="-308.5" font-family="Helvetica,sans-Serif" font-size="10.00" fill="#000000">src/lug/Graphics/Vulkan</text>
<text text-anchor="middle" x="765.5" y="-297.5" font-family="Helvetica,sans-Serif" font-size="10.00" fill="#000000">/API/PipelineLayout.cpp</text>
</a>
</g>
</g>
<!-- Node10&#45;&gt;Node30 -->
<g id="edge33" class="edge">
<title>Node10&#45;&gt;Node30</title>
<path fill="none" stroke="#191970" d="M699.1246,-351.3469C713.5578,-341.3776 730.4467,-329.7121 743.5763,-320.6432"/>
<polygon fill="#191970" stroke="#191970" points="696.7497,-348.7335 690.5108,-357.2967 700.728,-354.4932 696.7497,-348.7335"/>
</g>
<!-- Node12 -->
<g id="node3" class="node">
<title>Node12</title>
<g id="a_node3"><a xlink:href="DescriptorPool_8hpp.html" target="_top" xlink:title="include/lug/Graphics\l/Vulkan/API/DescriptorPool.hpp">
<polygon fill="none" stroke="#000000" points="359,-223.5 359,-253.5 534,-253.5 534,-223.5 359,-223.5"/>
<text text-anchor="start" x="367" y="-241.5" font-family="Helvetica,sans-Serif" font-size="10.00" fill="#000000">include/lug/Graphics</text>
<text text-anchor="middle" x="446.5" y="-230.5" font-family="Helvetica,sans-Serif" font-size="10.00" fill="#000000">/Vulkan/API/DescriptorPool.hpp</text>
</a>
</g>
</g>
<!-- Node11&#45;&gt;Node12 -->
<g id="edge2" class="edge">
<title>Node11&#45;&gt;Node12</title>
<path fill="none" stroke="#191970" d="M446.5,-280.0249C446.5,-271.128 446.5,-261.4287 446.5,-253.6432"/>
<polygon fill="#191970" stroke="#191970" points="443.0001,-280.2966 446.5,-290.2967 450.0001,-280.2967 443.0001,-280.2966"/>
</g>
<!-- Node13 -->
<g id="node4" class="node">
<title>Node13</title>
<g id="a_node4"><a xlink:href="BufferPool_8hpp.html" target="_top" xlink:title="include/lug/Graphics\l/Vulkan/Render/BufferPool.hpp">
<polygon fill="none" stroke="#000000" points="65,-151 65,-181 238,-181 238,-151 65,-151"/>
<text text-anchor="start" x="73" y="-169" font-family="Helvetica,sans-Serif" font-size="10.00" fill="#000000">include/lug/Graphics</text>
<text text-anchor="middle" x="151.5" y="-158" font-family="Helvetica,sans-Serif" font-size="10.00" fill="#000000">/Vulkan/Render/BufferPool.hpp</text>
</a>
</g>
</g>
<!-- Node11&#45;&gt;Node13 -->
<g id="edge26" class="edge">
<title>Node11&#45;&gt;Node13</title>
<path fill="none" stroke="#191970" d="M351.2637,-289.3511C318.7277,-281.4951 282.9027,-270.1424 252.5,-254 216.5533,-234.9141 182.5552,-200.7997 164.6394,-181.1225"/>
<polygon fill="#191970" stroke="#191970" points="350.7123,-292.8163 361.2459,-291.6783 352.3017,-285.9991 350.7123,-292.8163"/>
</g>
<!-- Node14 -->
<g id="node5" class="node">
<title>Node14</title>
<g id="a_node5"><a xlink:href="Forward_8hpp.html" target="_top" xlink:title="include/lug/Graphics\l/Vulkan/Render/Technique\l/Forward.hpp">
<polygon fill="none" stroke="#000000" points="155,-67.5 155,-108.5 304,-108.5 304,-67.5 155,-67.5"/>
<text text-anchor="start" x="163" y="-96.5" font-family="Helvetica,sans-Serif" font-size="10.00" fill="#000000">include/lug/Graphics</text>
<text text-anchor="start" x="163" y="-85.5" font-family="Helvetica,sans-Serif" font-size="10.00" fill="#000000">/Vulkan/Render/Technique</text>
<text text-anchor="middle" x="229.5" y="-74.5" font-family="Helvetica,sans-Serif" font-size="10.00" fill="#000000">/Forward.hpp</text>
</a>
</g>
</g>
<!-- Node11&#45;&gt;Node14 -->
<g id="edge27" class="edge">
<title>Node11&#45;&gt;Node14</title>
<path fill="none" stroke="#191970" d="M402.8315,-285.7551C385.7706,-277.1186 366.503,-266.1742 350.5,-254 317.7257,-229.0672 311.1735,-219.97 286.5,-187 267.4872,-161.5941 249.9748,-129.2737 239.5141,-108.6061"/>
<polygon fill="#191970" stroke="#191970" points="401.5322,-289.017 412.048,-290.3088 404.633,-282.7412 401.5322,-289.017"/>
</g>
<!-- Node27 -->
<g id="node18" class="node">
<title>Node27</title>
<g id="a_node18"><a xlink:href="DescriptorSet_8cpp.html" target="_top" xlink:title="src/lug/Graphics/Vulkan\l/API/DescriptorSet.cpp">
<polygon fill="none" stroke="#000000" points="552,-223.5 552,-253.5 689,-253.5 689,-223.5 552,-223.5"/>
<text text-anchor="start" x="560" y="-241.5" font-family="Helvetica,sans-Serif" font-size="10.00" fill="#000000">src/lug/Graphics/Vulkan</text>
<text text-anchor="middle" x="620.5" y="-230.5" font-family="Helvetica,sans-Serif" font-size="10.00" fill="#000000">/API/DescriptorSet.cpp</text>
</a>
</g>
</g>
<!-- Node11&#45;&gt;Node27 -->
<g id="edge28" class="edge">
<title>Node11&#45;&gt;Node27</title>
<path fill="none" stroke="#191970" d="M494.8954,-286.865C522.132,-276.3773 555.7007,-263.4515 581.2807,-253.6017"/>
<polygon fill="#191970" stroke="#191970" points="493.6234,-283.6042 485.549,-290.4639 496.1388,-290.1367 493.6234,-283.6042"/>
</g>
<!-- Node12&#45;&gt;Node13 -->
<g id="edge3" class="edge">
<title>Node12&#45;&gt;Node13</title>
<path fill="none" stroke="#191970" d="M375.6474,-221.0871C325.8794,-208.8559 259.9906,-192.6629 212.5459,-181.0028"/>
<polygon fill="#191970" stroke="#191970" points="374.8294,-224.4901 385.3758,-223.478 376.5001,-217.6924 374.8294,-224.4901"/>
</g>
<!-- Node18 -->
<g id="node9" class="node">
<title>Node18</title>
<g id="a_node9"><a xlink:href="Technique_8hpp.html" target="_top" xlink:title="include/lug/Graphics\l/Vulkan/Render/Technique\l/Technique.hpp">
<polygon fill="none" stroke="#000000" points="450,-145.5 450,-186.5 599,-186.5 599,-145.5 450,-145.5"/>
<text text-anchor="start" x="458" y="-174.5" font-family="Helvetica,sans-Serif" font-size="10.00" fill="#000000">include/lug/Graphics</text>
<text text-anchor="start" x="458" y="-163.5" font-family="Helvetica,sans-Serif" font-size="10.00" fill="#000000">/Vulkan/Render/Technique</text>
<text text-anchor="middle" x="524.5" y="-152.5" font-family="Helvetica,sans-Serif" font-size="10.00" fill="#000000">/Technique.hpp</text>
</a>
</g>
</g>
<!-- Node12&#45;&gt;Node18 -->
<g id="edge8" class="edge">
<title>Node12&#45;&gt;Node18</title>
<path fill="none" stroke="#191970" d="M470.1254,-216.5405C480.3947,-206.9953 492.3573,-195.8762 502.4432,-186.5015"/>
<polygon fill="#191970" stroke="#191970" points="467.6034,-214.1062 462.6617,-223.478 472.3691,-219.2334 467.6034,-214.1062"/>
</g>
<!-- Node19 -->
<g id="node10" class="node">
<title>Node19</title>
<g id="a_node10"><a xlink:href="Vulkan_2Render_2View_8hpp.html" target="_top" xlink:title="include/lug/Graphics\l/Vulkan/Render/View.hpp">
<polygon fill="none" stroke="#000000" points="565,-73 565,-103 710,-103 710,-73 565,-73"/>
<text text-anchor="start" x="573" y="-91" font-family="Helvetica,sans-Serif" font-size="10.00" fill="#000000">include/lug/Graphics</text>
<text text-anchor="middle" x="637.5" y="-80" font-family="Helvetica,sans-Serif" font-size="10.00" fill="#000000">/Vulkan/Render/View.hpp</text>
</a>
</g>
</g>
<!-- Node12&#45;&gt;Node19 -->
<g id="edge15" class="edge">
<title>Node12&#45;&gt;Node19</title>
<path fill="none" stroke="#191970" d="M525.2327,-220.8943C560.1861,-211.6261 596.1967,-199.5876 608.5,-187 630.9084,-164.0739 636.1583,-124.8067 637.2892,-103.2592"/>
<polygon fill="#191970" stroke="#191970" points="524.2268,-217.5392 515.4227,-223.4331 525.9807,-224.316 524.2268,-217.5392"/>
</g>
<!-- Node22 -->
<g id="node13" class="node">
<title>Node22</title>
<g id="a_node13"><a xlink:href="Graphics_2Vulkan_2Render_2Window_8hpp.html" target="_top" xlink:title="include/lug/Graphics\l/Vulkan/Render/Window.hpp">
<polygon fill="none" stroke="#000000" points="654.5,-151 654.5,-181 814.5,-181 814.5,-151 654.5,-151"/>
<text text-anchor="start" x="662.5" y="-169" font-family="Helvetica,sans-Serif" font-size="10.00" fill="#000000">include/lug/Graphics</text>
<text text-anchor="middle" x="734.5" y="-158" font-family="Helvetica,sans-Serif" font-size="10.00" fill="#000000">/Vulkan/Render/Window.hpp</text>
</a>
</g>
</g>
<!-- Node12&#45;&gt;Node22 -->
<g id="edge16" class="edge">
<title>Node12&#45;&gt;Node22</title>
<path fill="none" stroke="#191970" d="M515.9752,-221.0106C564.5264,-208.7885 628.6803,-192.6386 674.9027,-181.0028"/>
<polygon fill="#191970" stroke="#191970" points="515.0168,-217.6426 506.1738,-223.478 516.7257,-224.4308 515.0168,-217.6426"/>
</g>
<!-- Node26 -->
<g id="node17" class="node">
<title>Node26</title>
<g id="a_node17"><a xlink:href="DescriptorPool_8cpp.html" target="_top" xlink:title="src/lug/Graphics/Vulkan\l/API/DescriptorPool.cpp">
<polygon fill="none" stroke="#000000" points="295,-151 295,-181 432,-181 432,-151 295,-151"/>
<text text-anchor="start" x="303" y="-169" font-family="Helvetica,sans-Serif" font-size="10.00" fill="#000000">src/lug/Graphics/Vulkan</text>
<text text-anchor="middle" x="363.5" y="-158" font-family="Helvetica,sans-Serif" font-size="10.00" fill="#000000">/API/DescriptorPool.cpp</text>
</a>
</g>
</g>
<!-- Node12&#45;&gt;Node26 -->
<g id="edge25" class="edge">
<title>Node12&#45;&gt;Node26</title>
<path fill="none" stroke="#191970" d="M421.4945,-216.6579C408.3077,-205.1393 392.4671,-191.3026 380.6756,-181.0028"/>
<polygon fill="#191970" stroke="#191970" points="419.4684,-219.5353 429.3023,-223.478 424.0735,-214.2633 419.4684,-219.5353"/>
</g>
<!-- Node13&#45;&gt;Node14 -->
<g id="edge4" class="edge">
<title>Node13&#45;&gt;Node14</title>
<path fill="none" stroke="#191970" d="M173.7799,-143.7201C184.8313,-132.6687 198.0922,-119.4078 208.9044,-108.5956"/>
<polygon fill="#191970" stroke="#191970" points="171.1354,-141.4148 166.5392,-150.9608 176.0852,-146.3646 171.1354,-141.4148"/>
</g>
<!-- Node17 -->
<g id="node8" class="node">
<title>Node17</title>
<g id="a_node8"><a xlink:href="BufferPool_8cpp.html" target="_top" xlink:title="src/lug/Graphics/Vulkan\l/Render/BufferPool.cpp">
<polygon fill="none" stroke="#000000" points="0,-73 0,-103 137,-103 137,-73 0,-73"/>
<text text-anchor="start" x="8" y="-91" font-family="Helvetica,sans-Serif" font-size="10.00" fill="#000000">src/lug/Graphics/Vulkan</text>
<text text-anchor="middle" x="68.5" y="-80" font-family="Helvetica,sans-Serif" font-size="10.00" fill="#000000">/Render/BufferPool.cpp</text>
</a>
</g>
</g>
<!-- Node13&#45;&gt;Node17 -->
<g id="edge7" class="edge">
<title>Node13&#45;&gt;Node17</title>
<path fill="none" stroke="#191970" d="M128.2,-144.1036C114.3471,-131.0853 97.1203,-114.8962 84.7373,-103.2592"/>
<polygon fill="#191970" stroke="#191970" points="125.8127,-146.6631 135.4968,-150.9608 130.6065,-141.5621 125.8127,-146.6631"/>
</g>
<!-- Node15 -->
<g id="node6" class="node">
<title>Node15</title>
<g id="a_node6"><a xlink:href="Forward_8cpp.html" target="_top" xlink:title="src/lug/Graphics/Vulkan\l/Render/Technique/Forward.cpp">
<polygon fill="none" stroke="#000000" points="439,-.5 439,-30.5 616,-30.5 616,-.5 439,-.5"/>
<text text-anchor="start" x="447" y="-18.5" font-family="Helvetica,sans-Serif" font-size="10.00" fill="#000000">src/lug/Graphics/Vulkan</text>
<text text-anchor="middle" x="527.5" y="-7.5" font-family="Helvetica,sans-Serif" font-size="10.00" fill="#000000">/Render/Technique/Forward.cpp</text>
</a>
</g>
</g>
<!-- Node14&#45;&gt;Node15 -->
<g id="edge5" class="edge">
<title>Node14&#45;&gt;Node15</title>
<path fill="none" stroke="#191970" d="M313.9676,-66.8941C370.4014,-53.0718 423.9674,-40.1984 464.2584,-30.5648"/>
<polygon fill="#191970" stroke="#191970" points="313.0254,-63.5214 304.1465,-69.3021 314.6924,-70.32 313.0254,-63.5214"/>
</g>
<!-- Node16 -->
<g id="node7" class="node">
<title>Node16</title>
<g id="a_node7"><a xlink:href="Vulkan_2Render_2View_8cpp.html" target="_top" xlink:title="src/lug/Graphics/Vulkan\l/Render/View.cpp">
<polygon fill="none" stroke="#000000" points="284,-.5 284,-30.5 421,-30.5 421,-.5 284,-.5"/>
<text text-anchor="start" x="292" y="-18.5" font-family="Helvetica,sans-Serif" font-size="10.00" fill="#000000">src/lug/Graphics/Vulkan</text>
<text text-anchor="middle" x="352.5" y="-7.5" font-family="Helvetica,sans-Serif" font-size="10.00" fill="#000000">/Render/View.cpp</text>
</a>
</g>
</g>
<!-- Node14&#45;&gt;Node16 -->
<g id="edge6" class="edge">
<title>Node14&#45;&gt;Node16</title>
<path fill="none" stroke="#191970" d="M273.0495,-62.3306C291.063,-51.7129 311.3285,-39.7678 326.8836,-30.5991"/>
<polygon fill="#191970" stroke="#191970" points="271.2554,-59.3252 264.4179,-67.4183 274.81,-65.3556 271.2554,-59.3252"/>
</g>
<!-- Node18&#45;&gt;Node14 -->
<g id="edge9" class="edge">
<title>Node18&#45;&gt;Node14</title>
<path fill="none" stroke="#191970" d="M439.8431,-143.6161C397.0438,-132.2997 345.5618,-118.6875 304.2426,-107.7624"/>
<polygon fill="#191970" stroke="#191970" points="439.1152,-147.0439 449.6777,-146.2165 440.9046,-140.2765 439.1152,-147.0439"/>
</g>
<!-- Node18&#45;&gt;Node19 -->
<g id="edge10" class="edge">
<title>Node18&#45;&gt;Node19</title>
<path fill="none" stroke="#191970" d="M562.8746,-139.5113C580.4633,-127.3705 600.6731,-113.4203 615.6214,-103.102"/>
<polygon fill="#191970" stroke="#191970" points="560.7268,-136.741 554.4853,-145.3022 564.7033,-142.5019 560.7268,-136.741"/>
</g>
<!-- Node21 -->
<g id="node12" class="node">
<title>Node21</title>
<g id="a_node12"><a xlink:href="Technique_8cpp.html" target="_top" xlink:title="src/lug/Graphics/Vulkan\l/Render/Technique/Technique.cpp">
<polygon fill="none" stroke="#000000" points="322,-73 322,-103 509,-103 509,-73 322,-73"/>
<text text-anchor="start" x="330" y="-91" font-family="Helvetica,sans-Serif" font-size="10.00" fill="#000000">src/lug/Graphics/Vulkan</text>
<text text-anchor="middle" x="415.5" y="-80" font-family="Helvetica,sans-Serif" font-size="10.00" fill="#000000">/Render/Technique/Technique.cpp</text>
</a>
</g>
</g>
<!-- Node18&#45;&gt;Node21 -->
<g id="edge14" class="edge">
<title>Node18&#45;&gt;Node21</title>
<path fill="none" stroke="#191970" d="M487.0205,-139.1798C470.1637,-127.1171 450.8922,-113.3265 436.6041,-103.102"/>
<polygon fill="#191970" stroke="#191970" points="485.407,-142.329 495.5762,-145.3022 489.4807,-136.6364 485.407,-142.329"/>
</g>
<!-- Node19&#45;&gt;Node15 -->
<g id="edge11" class="edge">
<title>Node19&#45;&gt;Node15</title>
<path fill="none" stroke="#191970" d="M606.3232,-67.4517C588.4758,-55.6886 566.4798,-41.1913 550.2629,-30.5028"/>
<polygon fill="#191970" stroke="#191970" points="604.4322,-70.3971 614.7079,-72.978 608.2844,-64.5524 604.4322,-70.3971"/>
</g>
<!-- Node19&#45;&gt;Node16 -->
<g id="edge12" class="edge">
<title>Node19&#45;&gt;Node16</title>
<path fill="none" stroke="#191970" d="M568.7485,-70.5106C520.7031,-58.2885 457.2174,-42.1386 411.4765,-30.5028"/>
<polygon fill="#191970" stroke="#191970" points="567.8936,-73.9045 578.4478,-72.978 569.6194,-67.1206 567.8936,-73.9045"/>
</g>
<!-- Node20 -->
<g id="node11" class="node">
<title>Node20</title>
<g id="a_node11"><a xlink:href="Graphics_2Vulkan_2Render_2Window_8cpp.html" target="_top" xlink:title="src/lug/Graphics/Vulkan\l/Render/Window.cpp">
<polygon fill="none" stroke="#000000" points="634,-.5 634,-30.5 771,-30.5 771,-.5 634,-.5"/>
<text text-anchor="start" x="642" y="-18.5" font-family="Helvetica,sans-Serif" font-size="10.00" fill="#000000">src/lug/Graphics/Vulkan</text>
<text text-anchor="middle" x="702.5" y="-7.5" font-family="Helvetica,sans-Serif" font-size="10.00" fill="#000000">/Render/Window.cpp</text>
</a>
</g>
</g>
<!-- Node19&#45;&gt;Node20 -->
<g id="edge13" class="edge">
<title>Node19&#45;&gt;Node20</title>
<path fill="none" stroke="#191970" d="M657.6693,-65.5035C667.8766,-54.1184 679.9892,-40.6083 689.0492,-30.5028"/>
<polygon fill="#191970" stroke="#191970" points="655.0375,-63.1958 650.968,-72.978 660.2495,-67.8687 655.0375,-63.1958"/>
</g>
<!-- Node22&#45;&gt;Node16 -->
<g id="edge22" class="edge">
<title>Node22&#45;&gt;Node16</title>
<path fill="none" stroke="#191970" d="M648.5158,-148.2795C617.903,-139.5043 584.1851,-126.8483 556.5,-109 535.3427,-95.3601 539.7191,-80.5437 518.5,-67 500.6319,-55.5952 452.3756,-41.1965 412.469,-30.5255"/>
<polygon fill="#191970" stroke="#191970" points="647.7633,-151.7026 658.3344,-150.9938 649.6286,-144.9557 647.7633,-151.7026"/>
</g>
<!-- Node22&#45;&gt;Node20 -->
<g id="edge23" class="edge">
<title>Node22&#45;&gt;Node20</title>
<path fill="none" stroke="#191970" d="M731.871,-140.8115C729.4847,-120.6677 725.4258,-91.7939 719.5,-67 716.5234,-54.5457 711.9116,-40.7894 708.242,-30.6295"/>
<polygon fill="#191970" stroke="#191970" points="728.3936,-141.2095 732.9967,-150.7521 735.3492,-140.4218 728.3936,-141.2095"/>
</g>
<!-- Node23 -->
<g id="node14" class="node">
<title>Node23</title>
<g id="a_node14"><a xlink:href="Vulkan_2Renderer_8hpp.html" target="_top" xlink:title="include/lug/Graphics\l/Vulkan/Renderer.hpp">
<polygon fill="none" stroke="#000000" points="775,-73 775,-103 902,-103 902,-73 775,-73"/>
<text text-anchor="start" x="783" y="-91" font-family="Helvetica,sans-Serif" font-size="10.00" fill="#000000">include/lug/Graphics</text>
<text text-anchor="middle" x="838.5" y="-80" font-family="Helvetica,sans-Serif" font-size="10.00" fill="#000000">/Vulkan/Renderer.hpp</text>
</a>
</g>
</g>
<!-- Node22&#45;&gt;Node23 -->
<g id="edge17" class="edge">
<title>Node22&#45;&gt;Node23</title>
<path fill="none" stroke="#191970" d="M762.7352,-144.8236C780.2514,-131.6864 802.3511,-115.1117 818.1545,-103.2592"/>
<polygon fill="#191970" stroke="#191970" points="760.4523,-142.1608 754.5522,-150.9608 764.6523,-147.7608 760.4523,-142.1608"/>
</g>
<!-- Node25 -->
<g id="node16" class="node">
<title>Node25</title>
<g id="a_node16"><a xlink:href="Vulkan_2Renderer_8cpp.html" target="_top" xlink:title="src/lug/Graphics/Vulkan\l/Renderer.cpp">
<polygon fill="none" stroke="#000000" points="976,-.5 976,-30.5 1113,-30.5 1113,-.5 976,-.5"/>
<text text-anchor="start" x="984" y="-18.5" font-family="Helvetica,sans-Serif" font-size="10.00" fill="#000000">src/lug/Graphics/Vulkan</text>
<text text-anchor="middle" x="1044.5" y="-7.5" font-family="Helvetica,sans-Serif" font-size="10.00" fill="#000000">/Renderer.cpp</text>
</a>
</g>
</g>
<!-- Node22&#45;&gt;Node25 -->
<g id="edge24" class="edge">
<title>Node22&#45;&gt;Node25</title>
<path fill="none" stroke="#191970" d="M806.5024,-148.1487C839.4199,-138.6544 878.3726,-125.5015 911.5,-109 955.9652,-86.8509 1002.154,-50.9635 1026.6797,-30.6968"/>
<polygon fill="#191970" stroke="#191970" points="805.1647,-144.8896 796.4935,-150.9774 807.0685,-151.6257 805.1647,-144.8896"/>
</g>
<!-- Node23&#45;&gt;Node15 -->
<g id="edge19" class="edge">
<title>Node23&#45;&gt;Node15</title>
<path fill="none" stroke="#191970" d="M764.8766,-70.837C712.3021,-58.5809 642.2579,-42.2522 591.9018,-30.5133"/>
<polygon fill="#191970" stroke="#191970" points="764.2805,-74.2918 774.814,-73.1536 765.8698,-67.4746 764.2805,-74.2918"/>
</g>
<!-- Node23&#45;&gt;Node20 -->
<g id="edge20" class="edge">
<title>Node23&#45;&gt;Node20</title>
<path fill="none" stroke="#191970" d="M801.4506,-68.2494C779.1281,-56.3495 751.1489,-41.4342 730.6432,-30.5028"/>
<polygon fill="#191970" stroke="#191970" points="799.8498,-71.3623 810.3207,-72.978 803.1428,-65.1851 799.8498,-71.3623"/>
</g>
<!-- Node24 -->
<g id="node15" class="node">
<title>Node24</title>
<g id="a_node15"><a xlink:href="Graphics_8cpp.html" target="_top" xlink:title="src/lug/Graphics/Graphics.cpp">
<polygon fill="none" stroke="#000000" points="789.5,-6 789.5,-25 957.5,-25 957.5,-6 789.5,-6"/>
<text text-anchor="middle" x="873.5" y="-13" font-family="Helvetica,sans-Serif" font-size="10.00" fill="#000000">src/lug/Graphics/Graphics.cpp</text>
</a>
</g>
</g>
<!-- Node23&#45;&gt;Node24 -->
<g id="edge18" class="edge">
<title>Node23&#45;&gt;Node24</title>
<path fill="none" stroke="#191970" d="M850.1062,-63.9585C856.4464,-50.8252 863.9552,-35.2713 868.7228,-25.3957"/>
<polygon fill="#191970" stroke="#191970" points="846.9476,-62.4508 845.752,-72.978 853.2515,-65.4941 846.9476,-62.4508"/>
</g>
<!-- Node23&#45;&gt;Node25 -->
<g id="edge21" class="edge">
<title>Node23&#45;&gt;Node25</title>
<path fill="none" stroke="#191970" d="M891.0458,-69.5069C925.403,-57.4152 969.7068,-41.8228 1001.8713,-30.5028"/>
<polygon fill="#191970" stroke="#191970" points="889.4542,-66.3566 881.1833,-72.978 891.7782,-72.9596 889.4542,-66.3566"/>
</g>
<!-- Node28&#45;&gt;Node18 -->
<g id="edge30" class="edge">
<title>Node28&#45;&gt;Node18</title>
<path fill="none" stroke="#191970" d="M740.6953,-220.997C697.9642,-210.1269 643.0352,-196.1537 599.2378,-185.0123"/>
<polygon fill="#191970" stroke="#191970" points="739.8936,-224.4045 750.4478,-223.478 741.6194,-217.6206 739.8936,-224.4045"/>
</g>
<!-- Node28&#45;&gt;Node23 -->
<g id="edge31" class="edge">
<title>Node28&#45;&gt;Node23</title>
<path fill="none" stroke="#191970" d="M816.946,-213.3959C819.2553,-205.0477 821.6712,-195.6693 823.5,-187 829.7074,-157.5739 834.3753,-122.7076 836.7497,-103.1923"/>
<polygon fill="#191970" stroke="#191970" points="813.5016,-212.7122 814.1301,-223.2884 820.2342,-214.6287 813.5016,-212.7122"/>
</g>
<!-- Node29 -->
<g id="node20" class="node">
<title>Node29</title>
<g id="a_node20"><a xlink:href="Pipeline_8cpp.html" target="_top" xlink:title="src/lug/Graphics/Vulkan\l/API/Pipeline.cpp">
<polygon fill="none" stroke="#000000" points="871,-151 871,-181 1008,-181 1008,-151 871,-151"/>
<text text-anchor="start" x="879" y="-169" font-family="Helvetica,sans-Serif" font-size="10.00" fill="#000000">src/lug/Graphics/Vulkan</text>
<text text-anchor="middle" x="939.5" y="-158" font-family="Helvetica,sans-Serif" font-size="10.00" fill="#000000">/API/Pipeline.cpp</text>
</a>
</g>
</g>
<!-- Node28&#45;&gt;Node29 -->
<g id="edge32" class="edge">
<title>Node28&#45;&gt;Node29</title>
<path fill="none" stroke="#191970" d="M845.1997,-218.5905C866.4902,-206.717 893.0845,-191.8856 912.5984,-181.0028"/>
<polygon fill="#191970" stroke="#191970" points="843.465,-215.5504 836.4361,-223.478 846.8745,-221.664 843.465,-215.5504"/>
</g>
</g>
</svg>
