<?xml version="1.0" encoding="UTF-8" standalone="no"?>
<!DOCTYPE svg PUBLIC "-//W3C//DTD SVG 1.1//EN"
 "http://www.w3.org/Graphics/SVG/1.1/DTD/svg11.dtd">
<!-- Generated by graphviz version 2.40.1 (20161225.0304)
 -->
<!-- Title: include/lug/Graphics/Vulkan/API/PipelineLayout.hpp Pages: 1 -->
<svg width="619pt" height="285pt"
 viewBox="0.00 0.00 619.00 285.00" xmlns="http://www.w3.org/2000/svg" xmlns:xlink="http://www.w3.org/1999/xlink">
<g id="graph0" class="graph" transform="scale(1 1) rotate(0) translate(4 281)">
<title>include/lug/Graphics/Vulkan/API/PipelineLayout.hpp</title>
<!-- Node0 -->
<g id="node1" class="node">
<title>Node0</title>
<polygon fill="#bfbfbf" stroke="#000000" points="200,-246.5 200,-276.5 374,-276.5 374,-246.5 200,-246.5"/>
<text text-anchor="start" x="208" y="-264.5" font-family="Helvetica,sans-Serif" font-size="10.00" fill="#000000">include/lug/Graphics</text>
<text text-anchor="middle" x="287" y="-253.5" font-family="Helvetica,sans-Serif" font-size="10.00" fill="#000000">/Vulkan/API/PipelineLayout.hpp</text>
</g>
<!-- Node1 -->
<g id="node2" class="node">
<title>Node1</title>
<polygon fill="none" stroke="#bfbfbf" points="14.5,-118 14.5,-137 73.5,-137 73.5,-118 14.5,-118"/>
<text text-anchor="middle" x="44" y="-125" font-family="Helvetica,sans-Serif" font-size="10.00" fill="#000000">memory</text>
</g>
<!-- Node0&#45;&gt;Node1 -->
<g id="edge1" class="edge">
<title>Node0&#45;&gt;Node1</title>
<path fill="none" stroke="#191970" d="M205.2024,-246.4482C175.8435,-238.607 143.4774,-226.9818 117,-210 90.8337,-193.2178 68.4665,-164.4887 55.6223,-145.7486"/>
<polygon fill="#191970" stroke="#191970" points="58.4019,-143.6073 49.9554,-137.2114 52.5698,-147.4786 58.4019,-143.6073"/>
</g>
<!-- Node2 -->
<g id="node3" class="node">
<title>Node2</title>
<polygon fill="none" stroke="#bfbfbf" points="461,-56.5 461,-75.5 509,-75.5 509,-56.5 461,-56.5"/>
<text text-anchor="middle" x="485" y="-63.5" font-family="Helvetica,sans-Serif" font-size="10.00" fill="#000000">vector</text>
</g>
<!-- Node0&#45;&gt;Node2 -->
<g id="edge2" class="edge">
<title>Node0&#45;&gt;Node2</title>
<path fill="none" stroke="#191970" d="M309.9746,-246.3349C340.5531,-225.4429 395.2651,-185.5356 434,-143 450.4504,-124.9355 465.3861,-101.0959 474.7821,-84.756"/>
<polygon fill="#191970" stroke="#191970" points="478.0393,-86.1035 479.8807,-75.6699 471.9347,-82.678 478.0393,-86.1035"/>
</g>
<!-- Node3 -->
<g id="node4" class="node">
<title>Node3</title>
<g id="a_node4"><a xlink:href="Graphics_2Export_8hpp.html" target="_top" xlink:title="lug/Graphics/Export.hpp">
<polygon fill="none" stroke="#000000" points="0,-56.5 0,-75.5 138,-75.5 138,-56.5 0,-56.5"/>
<text text-anchor="middle" x="69" y="-63.5" font-family="Helvetica,sans-Serif" font-size="10.00" fill="#000000">lug/Graphics/Export.hpp</text>
</a>
</g>
</g>
<!-- Node0&#45;&gt;Node3 -->
<g id="edge3" class="edge">
<title>Node0&#45;&gt;Node3</title>
<path fill="none" stroke="#191970" d="M199.7631,-249.5072C161.4616,-241.8367 116.9105,-229.5211 80,-210 40.4885,-189.1033 23.2599,-183.7971 5,-143 -.6286,-130.4244 -1.2864,-124.26 5,-112 11.933,-98.4789 24.8936,-88.0326 37.3481,-80.5377"/>
<polygon fill="#191970" stroke="#191970" points="39.1928,-83.5168 46.234,-75.6001 35.7928,-77.3979 39.1928,-83.5168"/>
</g>
<!-- Node5 -->
<g id="node6" class="node">
<title>Node5</title>
<g id="a_node6"><a xlink:href="DescriptorSetLayout_8hpp.html" target="_top" xlink:title="lug/Graphics/Vulkan\l/API/DescriptorSetLayout.hpp">
<polygon fill="none" stroke="#000000" points="126.5,-179.5 126.5,-209.5 291.5,-209.5 291.5,-179.5 126.5,-179.5"/>
<text text-anchor="start" x="134.5" y="-197.5" font-family="Helvetica,sans-Serif" font-size="10.00" fill="#000000">lug/Graphics/Vulkan</text>
<text text-anchor="middle" x="209" y="-186.5" font-family="Helvetica,sans-Serif" font-size="10.00" fill="#000000">/API/DescriptorSetLayout.hpp</text>
</a>
</g>
</g>
<!-- Node0&#45;&gt;Node5 -->
<g id="edge5" class="edge">
<title>Node0&#45;&gt;Node5</title>
<path fill="none" stroke="#191970" d="M269.3006,-246.2967C259.0286,-237.4733 245.9128,-226.2072 234.5384,-216.4368"/>
<polygon fill="#191970" stroke="#191970" points="236.4957,-213.5041 226.6294,-209.6432 231.9345,-218.8141 236.4957,-213.5041"/>
</g>
<!-- Node6 -->
<g id="node7" class="node">
<title>Node6</title>
<g id="a_node7"><a xlink:href="Vulkan_8hpp.html" target="_top" xlink:title="lug/Graphics/Vulkan\l/Vulkan.hpp">
<polygon fill="none" stroke="#000000" points="307,-112.5 307,-142.5 425,-142.5 425,-112.5 307,-112.5"/>
<text text-anchor="start" x="315" y="-130.5" font-family="Helvetica,sans-Serif" font-size="10.00" fill="#000000">lug/Graphics/Vulkan</text>
<text text-anchor="middle" x="366" y="-119.5" font-family="Helvetica,sans-Serif" font-size="10.00" fill="#000000">/Vulkan.hpp</text>
</a>
</g>
</g>
<!-- Node0&#45;&gt;Node6 -->
<g id="edge15" class="edge">
<title>Node0&#45;&gt;Node6</title>
<path fill="none" stroke="#191970" d="M295.9087,-246.389C309.5403,-223.267 335.6963,-178.9012 351.9155,-151.3901"/>
<polygon fill="#191970" stroke="#191970" points="354.939,-153.1533 357.0026,-142.7614 348.9089,-149.5983 354.939,-153.1533"/>
</g>
<!-- Node11 -->
<g id="node12" class="node">
<title>Node11</title>
<g id="a_node12"><a xlink:href="PipelineLayout_8inl.html" target="_top" xlink:title="lug/Graphics/Vulkan\l/API/PipelineLayout.inl">
<polygon fill="none" stroke="#000000" points="481,-179.5 481,-209.5 611,-209.5 611,-179.5 481,-179.5"/>
<text text-anchor="start" x="489" y="-197.5" font-family="Helvetica,sans-Serif" font-size="10.00" fill="#000000">lug/Graphics/Vulkan</text>
<text text-anchor="middle" x="546" y="-186.5" font-family="Helvetica,sans-Serif" font-size="10.00" fill="#000000">/API/PipelineLayout.inl</text>
</a>
</g>
</g>
<!-- Node0&#45;&gt;Node11 -->
<g id="edge16" class="edge">
<title>Node0&#45;&gt;Node11</title>
<path fill="none" stroke="#191970" d="M345.1247,-246.4639C384.476,-236.2842 436.6146,-222.7966 477.911,-212.1138"/>
<polygon fill="#191970" stroke="#191970" points="478.8171,-215.4947 487.6218,-209.6017 477.0639,-208.7177 478.8171,-215.4947"/>
</g>
<!-- Node4 -->
<g id="node5" class="node">
<title>Node4</title>
<g id="a_node5"><a xlink:href="Config_8hpp.html" target="_top" xlink:title="lug/Config.hpp">
<polygon fill="none" stroke="#000000" points="24.5,-.5 24.5,-19.5 113.5,-19.5 113.5,-.5 24.5,-.5"/>
<text text-anchor="middle" x="69" y="-7.5" font-family="Helvetica,sans-Serif" font-size="10.00" fill="#000000">lug/Config.hpp</text>
</a>
</g>
</g>
<!-- Node3&#45;&gt;Node4 -->
<g id="edge4" class="edge">
<title>Node3&#45;&gt;Node4</title>
<path fill="none" stroke="#191970" d="M69,-56.2455C69,-48.9382 69,-38.6944 69,-29.7046"/>
<polygon fill="#191970" stroke="#191970" points="72.5001,-29.6426 69,-19.6427 65.5001,-29.6427 72.5001,-29.6426"/>
</g>
<!-- Node5&#45;&gt;Node1 -->
<g id="edge6" class="edge">
<title>Node5&#45;&gt;Node1</title>
<path fill="none" stroke="#191970" d="M171.9708,-179.4639C143.5377,-167.9183 104.6254,-152.1176 77.1966,-140.9798"/>
<polygon fill="#191970" stroke="#191970" points="78.2335,-137.6234 67.6514,-137.1039 75.5999,-144.1091 78.2335,-137.6234"/>
</g>
<!-- Node5&#45;&gt;Node3 -->
<g id="edge7" class="edge">
<title>Node5&#45;&gt;Node3</title>
<path fill="none" stroke="#191970" d="M174.8403,-179.4288C157.1586,-170.527 135.9884,-158.0503 120,-143 102.0163,-126.0714 87.2104,-101.6383 78.2688,-84.8599"/>
<polygon fill="#191970" stroke="#191970" points="81.1638,-82.8356 73.4832,-75.5378 74.9365,-86.0324 81.1638,-82.8356"/>
</g>
<!-- Node5&#45;&gt;Node6 -->
<g id="edge8" class="edge">
<title>Node5&#45;&gt;Node6</title>
<path fill="none" stroke="#191970" d="M244.2339,-179.4639C266.9806,-169.7567 296.7759,-157.0415 321.1993,-146.6188"/>
<polygon fill="#191970" stroke="#191970" points="322.7887,-149.7459 330.6125,-142.6017 320.0412,-143.3077 322.7887,-149.7459"/>
</g>
<!-- Node10 -->
<g id="node11" class="node">
<title>Node10</title>
<g id="a_node11"><a xlink:href="DescriptorSetLayout_8inl.html" target="_top" xlink:title="lug/Graphics/Vulkan\l/API/DescriptorSetLayout.inl">
<polygon fill="none" stroke="#000000" points="129.5,-112.5 129.5,-142.5 288.5,-142.5 288.5,-112.5 129.5,-112.5"/>
<text text-anchor="start" x="137.5" y="-130.5" font-family="Helvetica,sans-Serif" font-size="10.00" fill="#000000">lug/Graphics/Vulkan</text>
<text text-anchor="middle" x="209" y="-119.5" font-family="Helvetica,sans-Serif" font-size="10.00" fill="#000000">/API/DescriptorSetLayout.inl</text>
</a>
</g>
</g>
<!-- Node5&#45;&gt;Node10 -->
<g id="edge14" class="edge">
<title>Node5&#45;&gt;Node10</title>
<path fill="none" stroke="#191970" d="M209,-179.2967C209,-171.5013 209,-161.7991 209,-152.9064"/>
<polygon fill="#191970" stroke="#191970" points="212.5001,-152.6431 209,-142.6432 205.5001,-152.6432 212.5001,-152.6431"/>
</g>
<!-- Node6&#45;&gt;Node2 -->
<g id="edge10" class="edge">
<title>Node6&#45;&gt;Node2</title>
<path fill="none" stroke="#191970" d="M395.1107,-112.4554C414.1824,-102.599 438.9482,-89.7999 457.6539,-80.1327"/>
<polygon fill="#191970" stroke="#191970" points="459.2824,-83.2309 466.5592,-75.5303 456.0685,-77.0122 459.2824,-83.2309"/>
</g>
<!-- Node6&#45;&gt;Node3 -->
<g id="edge12" class="edge">
<title>Node6&#45;&gt;Node3</title>
<path fill="none" stroke="#191970" d="M306.9236,-114.14C303.5679,-113.4089 300.2421,-112.6911 297,-112 239.6017,-99.7644 173.8901,-86.5956 127.8043,-77.4967"/>
<polygon fill="#191970" stroke="#191970" points="128.4757,-74.0618 117.9876,-75.5615 127.1218,-80.9296 128.4757,-74.0618"/>
</g>
<!-- Node7 -->
<g id="node8" class="node">
<title>Node7</title>
<polygon fill="none" stroke="#bfbfbf" points="271.5,-56.5 271.5,-75.5 366.5,-75.5 366.5,-56.5 271.5,-56.5"/>
<text text-anchor="middle" x="319" y="-63.5" font-family="Helvetica,sans-Serif" font-size="10.00" fill="#000000">unordered_map</text>
</g>
<!-- Node6&#45;&gt;Node7 -->
<g id="edge9" class="edge">
<title>Node6&#45;&gt;Node7</title>
<path fill="none" stroke="#191970" d="M354.382,-112.2977C347.79,-103.672 339.5052,-92.8312 332.6099,-83.8087"/>
<polygon fill="#191970" stroke="#191970" points="335.3783,-81.6671 326.5253,-75.8469 329.8165,-85.9176 335.3783,-81.6671"/>
</g>
<!-- Node8 -->
<g id="node9" class="node">
<title>Node8</title>
<polygon fill="none" stroke="#bfbfbf" points="385,-56.5 385,-75.5 443,-75.5 443,-56.5 385,-56.5"/>
<text text-anchor="middle" x="414" y="-63.5" font-family="Helvetica,sans-Serif" font-size="10.00" fill="#000000">ostream</text>
</g>
<!-- Node6&#45;&gt;Node8 -->
<g id="edge11" class="edge">
<title>Node6&#45;&gt;Node8</title>
<path fill="none" stroke="#191970" d="M377.8652,-112.2977C384.5975,-103.672 393.0585,-92.8312 400.1006,-83.8087"/>
<polygon fill="#191970" stroke="#191970" points="402.921,-85.8836 406.3146,-75.8469 397.4027,-81.5766 402.921,-85.8836"/>
</g>
<!-- Node9 -->
<g id="node10" class="node">
<title>Node9</title>
<polygon fill="none" stroke="#bfbfbf" points="156.5,-56.5 156.5,-75.5 253.5,-75.5 253.5,-56.5 156.5,-56.5"/>
<text text-anchor="middle" x="205" y="-63.5" font-family="Helvetica,sans-Serif" font-size="10.00" fill="#000000">vulkan/vulkan.h</text>
</g>
<!-- Node6&#45;&gt;Node9 -->
<g id="edge13" class="edge">
<title>Node6&#45;&gt;Node9</title>
<path fill="none" stroke="#191970" d="M326.615,-112.4554C299.9873,-102.284 265.1556,-88.9787 239.5966,-79.2155"/>
<polygon fill="#191970" stroke="#191970" points="240.5399,-75.8292 229.9493,-75.5303 238.042,-82.3684 240.5399,-75.8292"/>
</g>
</g>
</svg>
