<?xml version="1.0" encoding="UTF-8" standalone="no"?>
<!DOCTYPE svg PUBLIC "-//W3C//DTD SVG 1.1//EN"
 "http://www.w3.org/Graphics/SVG/1.1/DTD/svg11.dtd">
<!-- Generated by graphviz version 2.40.1 (20161225.0304)
 -->
<!-- Title: include/lug/Graphics/Vulkan/API/QueueFamily.hpp Pages: 1 -->
<!--zoomable 285 -->
<svg id="main" version="1.1" xmlns="http://www.w3.org/2000/svg" xmlns:xlink="http://www.w3.org/1999/xlink" xml:space="preserve" onload="init(evt)">
<style type="text/css"><![CDATA[
.edge:hover path { stroke: red; }
.edge:hover polygon { stroke: red; fill: red; }
]]></style>
<script type="text/javascript"><![CDATA[
var edges = document.getElementsByTagName('g');
if (edges && edges.length) {
  for (var i=0;i<edges.length;i++) {
    if (edges[i].id.substr(0,4)=='edge') {
      edges[i].setAttribute('class','edge');
    }
  }
}
]]></script>
        <defs>
                <circle id="rim" cx="0" cy="0" r="7"/>
                <circle id="rim2" cx="0" cy="0" r="3.5"/>
                <g id="zoomPlus">
                        <use xlink:href="#rim" fill="#404040">
                                <set attributeName="fill" to="#808080" begin="zoomplus.mouseover" end="zoomplus.mouseout"/>
                        </use>
                        <path d="M-4,0h8M0,-4v8" fill="none" stroke="white" stroke-width="1.5" pointer-events="none"/>
                </g>
                <g id="zoomMin">
                        <use xlink:href="#rim" fill="#404040">
                                <set attributeName="fill" to="#808080" begin="zoomminus.mouseover" end="zoomminus.mouseout"/>
                        </use>
                        <path d="M-4,0h8" fill="none" stroke="white" stroke-width="1.5" pointer-events="none"/>
                </g>
                <g id="dirArrow">
                        <path fill="none" stroke="white" stroke-width="1.5" d="M0,-3.0v7 M-2.5,-0.5L0,-3.0L2.5,-0.5"/>
                </g>
               <g id="resetDef">
                       <use xlink:href="#rim2" fill="#404040">
                               <set attributeName="fill" to="#808080" begin="reset.mouseover" end="reset.mouseout"/>
                       </use>
               </g>
        </defs>

<script type="text/javascript">
var viewWidth = 610;
var viewHeight = 285;
var sectionId = 'dynsection-0';
</script>
<script xlink:href="svgpan.js"/>
<svg id="graph" class="graph">
<g id="viewport">
<title>include/lug/Graphics/Vulkan/API/QueueFamily.hpp</title>
<!-- Node0 -->
<g id="node1" class="node">
<title>Node0</title>
<polygon fill="#bfbfbf" stroke="#000000" points="232,-246.5 232,-276.5 399,-276.5 399,-246.5 232,-246.5"/>
<text text-anchor="start" x="240" y="-264.5" font-family="Helvetica,sans-Serif" font-size="10.00" fill="#000000">include/lug/Graphics</text>
<text text-anchor="middle" x="315.5" y="-253.5" font-family="Helvetica,sans-Serif" font-size="10.00" fill="#000000">/Vulkan/API/QueueFamily.hpp</text>
</g>
<!-- Node1 -->
<g id="node2" class="node">
<title>Node1</title>
<polygon fill="none" stroke="#bfbfbf" points="0,-56.5 0,-75.5 95,-75.5 95,-56.5 0,-56.5"/>
<text text-anchor="middle" x="47.5" y="-63.5" font-family="Helvetica,sans-Serif" font-size="10.00" fill="#000000">unordered_map</text>
</g>
<!-- Node0&#45;&gt;Node1 -->
<g id="edge1" class="edge">
<title>Node0&#45;&gt;Node1</title>
<path fill="none" stroke="#191970" d="M265.9405,-246.4852C241.7332,-237.879 212.8643,-225.6505 189.5,-210 135.0414,-173.5212 84.4945,-113.667 61.1153,-83.9298"/>
<polygon fill="#191970" stroke="#191970" points="63.6501,-81.4869 54.7576,-75.7272 58.1174,-85.7752 63.6501,-81.4869"/>
</g>
<!-- Node2 -->
<g id="node3" class="node">
<title>Node2</title>
<polygon fill="none" stroke="#bfbfbf" points="113.5,-56.5 113.5,-75.5 161.5,-75.5 161.5,-56.5 113.5,-56.5"/>
<text text-anchor="middle" x="137.5" y="-63.5" font-family="Helvetica,sans-Serif" font-size="10.00" fill="#000000">vector</text>
</g>
<!-- Node0&#45;&gt;Node2 -->
<g id="edge2" class="edge">
<title>Node0&#45;&gt;Node2</title>
<path fill="none" stroke="#191970" d="M285.8507,-246.4101C250.8302,-227.0963 193.2122,-190.3903 160.5,-143 148.6512,-125.8346 142.7975,-102.4579 139.9778,-85.9786"/>
<polygon fill="#191970" stroke="#191970" points="143.4024,-85.2116 138.474,-75.8329 136.4781,-86.238 143.4024,-85.2116"/>
</g>
<!-- Node3 -->
<g id="node4" class="node">
<title>Node3</title>
<g id="a_node4"><a xlink:href="Graphics_2Export_8hpp.html" target="_top" xlink:title="lug/Graphics/Export.hpp">
<polygon fill="none" stroke="#000000" points="371.5,-56.5 371.5,-75.5 509.5,-75.5 509.5,-56.5 371.5,-56.5"/>
<text text-anchor="middle" x="440.5" y="-63.5" font-family="Helvetica,sans-Serif" font-size="10.00" fill="#000000">lug/Graphics/Export.hpp</text>
</a>
</g>
</g>
<!-- Node0&#45;&gt;Node3 -->
<g id="edge3" class="edge">
<title>Node0&#45;&gt;Node3</title>
<path fill="none" stroke="#191970" d="M316.6048,-246.3724C318.384,-229.1674 322.9504,-200.6584 334.5,-179 356.0116,-138.6603 395.682,-102.0767 419.9177,-82.0426"/>
<polygon fill="#191970" stroke="#191970" points="422.222,-84.6803 427.7915,-75.6674 417.8171,-79.24 422.222,-84.6803"/>
</g>
<!-- Node5 -->
<g id="node6" class="node">
<title>Node5</title>
<g id="a_node6"><a xlink:href="Vulkan_2API_2Queue_8hpp.html" target="_top" xlink:title="lug/Graphics/Vulkan\l/API/Queue.hpp">
<polygon fill="none" stroke="#000000" points="343.5,-179.5 343.5,-209.5 461.5,-209.5 461.5,-179.5 343.5,-179.5"/>
<text text-anchor="start" x="351.5" y="-197.5" font-family="Helvetica,sans-Serif" font-size="10.00" fill="#000000">lug/Graphics/Vulkan</text>
<text text-anchor="middle" x="402.5" y="-186.5" font-family="Helvetica,sans-Serif" font-size="10.00" fill="#000000">/API/Queue.hpp</text>
</a>
</g>
</g>
<!-- Node0&#45;&gt;Node5 -->
<g id="edge5" class="edge">
<title>Node0&#45;&gt;Node5</title>
<path fill="none" stroke="#191970" d="M335.2416,-246.2967C346.9213,-237.302 361.8973,-225.7687 374.7517,-215.8694"/>
<polygon fill="#191970" stroke="#191970" points="377.0491,-218.5177 382.8365,-209.6432 372.7781,-212.9717 377.0491,-218.5177"/>
</g>
<!-- Node10 -->
<g id="node11" class="node">
<title>Node10</title>
<g id="a_node11"><a xlink:href="QueueFamily_8inl.html" target="_top" xlink:title="lug/Graphics/Vulkan\l/API/QueueFamily.inl">
<polygon fill="none" stroke="#000000" points="479.5,-179.5 479.5,-209.5 601.5,-209.5 601.5,-179.5 479.5,-179.5"/>
<text text-anchor="start" x="487.5" y="-197.5" font-family="Helvetica,sans-Serif" font-size="10.00" fill="#000000">lug/Graphics/Vulkan</text>
<text text-anchor="middle" x="540.5" y="-186.5" font-family="Helvetica,sans-Serif" font-size="10.00" fill="#000000">/API/QueueFamily.inl</text>
</a>
</g>
</g>
<!-- Node0&#45;&gt;Node10 -->
<g id="edge14" class="edge">
<title>Node0&#45;&gt;Node10</title>
<path fill="none" stroke="#191970" d="M365.9944,-246.4639C399.7472,-236.4131 444.3292,-223.1375 479.9825,-212.5208"/>
<polygon fill="#191970" stroke="#191970" points="481.2002,-215.8101 489.7854,-209.6017 479.2024,-209.1013 481.2002,-215.8101"/>
</g>
<!-- Node4 -->
<g id="node5" class="node">
<title>Node4</title>
<g id="a_node5"><a xlink:href="Config_8hpp.html" target="_top" xlink:title="lug/Config.hpp">
<polygon fill="none" stroke="#000000" points="396,-.5 396,-19.5 485,-19.5 485,-.5 396,-.5"/>
<text text-anchor="middle" x="440.5" y="-7.5" font-family="Helvetica,sans-Serif" font-size="10.00" fill="#000000">lug/Config.hpp</text>
</a>
</g>
</g>
<!-- Node3&#45;&gt;Node4 -->
<g id="edge4" class="edge">
<title>Node3&#45;&gt;Node4</title>
<path fill="none" stroke="#191970" d="M440.5,-56.2455C440.5,-48.9382 440.5,-38.6944 440.5,-29.7046"/>
<polygon fill="#191970" stroke="#191970" points="444.0001,-29.6426 440.5,-19.6427 437.0001,-29.6427 444.0001,-29.6426"/>
</g>
<!-- Node5&#45;&gt;Node3 -->
<g id="edge6" class="edge">
<title>Node5&#45;&gt;Node3</title>
<path fill="none" stroke="#191970" d="M405.1997,-179.3952C408.3634,-162.6967 414.1243,-135.1027 421.5,-112 424.3824,-102.9714 428.2829,-93.2348 431.7999,-85.0545"/>
<polygon fill="#191970" stroke="#191970" points="435.0955,-86.2563 435.9441,-75.6955 428.6949,-83.4221 435.0955,-86.2563"/>
</g>
<!-- Node6 -->
<g id="node7" class="node">
<title>Node6</title>
<g id="a_node7"><a xlink:href="Vulkan_8hpp.html" target="_top" xlink:title="lug/Graphics/Vulkan\l/Vulkan.hpp">
<polygon fill="none" stroke="#000000" points="169.5,-112.5 169.5,-142.5 287.5,-142.5 287.5,-112.5 169.5,-112.5"/>
<text text-anchor="start" x="177.5" y="-130.5" font-family="Helvetica,sans-Serif" font-size="10.00" fill="#000000">lug/Graphics/Vulkan</text>
<text text-anchor="middle" x="228.5" y="-119.5" font-family="Helvetica,sans-Serif" font-size="10.00" fill="#000000">/Vulkan.hpp</text>
</a>
</g>
</g>
<!-- Node5&#45;&gt;Node6 -->
<g id="edge7" class="edge">
<title>Node5&#45;&gt;Node6</title>
<path fill="none" stroke="#191970" d="M363.451,-179.4639C337.9066,-169.6278 304.3416,-156.7034 277.0769,-146.2049"/>
<polygon fill="#191970" stroke="#191970" points="278.3091,-142.9289 267.7193,-142.6017 275.7937,-149.4614 278.3091,-142.9289"/>
</g>
<!-- Node9 -->
<g id="node10" class="node">
<title>Node9</title>
<polygon fill="none" stroke="#bfbfbf" points="430.5,-118 430.5,-137 478.5,-137 478.5,-118 430.5,-118"/>
<text text-anchor="middle" x="454.5" y="-125" font-family="Helvetica,sans-Serif" font-size="10.00" fill="#000000">mutex</text>
</g>
<!-- Node5&#45;&gt;Node9 -->
<g id="edge13" class="edge">
<title>Node5&#45;&gt;Node9</title>
<path fill="none" stroke="#191970" d="M414.2996,-179.2967C422.1655,-169.1618 432.5327,-155.804 440.7688,-145.1921"/>
<polygon fill="#191970" stroke="#191970" points="443.7179,-147.1008 447.0842,-137.055 438.188,-142.8089 443.7179,-147.1008"/>
</g>
<!-- Node6&#45;&gt;Node1 -->
<g id="edge8" class="edge">
<title>Node6&#45;&gt;Node1</title>
<path fill="none" stroke="#191970" d="M184.2224,-112.4554C153.8896,-102.149 114.0871,-88.6249 85.2556,-78.8286"/>
<polygon fill="#191970" stroke="#191970" points="86.143,-75.4336 75.5486,-75.5303 83.8909,-82.0615 86.143,-75.4336"/>
</g>
<!-- Node6&#45;&gt;Node2 -->
<g id="edge9" class="edge">
<title>Node6&#45;&gt;Node2</title>
<path fill="none" stroke="#191970" d="M206.0056,-112.2977C192.1033,-102.9022 174.3124,-90.8787 160.3454,-81.4395"/>
<polygon fill="#191970" stroke="#191970" points="162.0436,-78.3629 151.7985,-75.6633 158.124,-84.1626 162.0436,-78.3629"/>
</g>
<!-- Node6&#45;&gt;Node3 -->
<g id="edge11" class="edge">
<title>Node6&#45;&gt;Node3</title>
<path fill="none" stroke="#191970" d="M280.361,-112.4554C316.5095,-101.9689 364.1405,-88.1515 398.0357,-78.3187"/>
<polygon fill="#191970" stroke="#191970" points="399.0186,-81.6779 407.6475,-75.5303 397.0683,-74.9551 399.0186,-81.6779"/>
</g>
<!-- Node7 -->
<g id="node8" class="node">
<title>Node7</title>
<polygon fill="none" stroke="#bfbfbf" points="295.5,-56.5 295.5,-75.5 353.5,-75.5 353.5,-56.5 295.5,-56.5"/>
<text text-anchor="middle" x="324.5" y="-63.5" font-family="Helvetica,sans-Serif" font-size="10.00" fill="#000000">ostream</text>
</g>
<!-- Node6&#45;&gt;Node7 -->
<g id="edge10" class="edge">
<title>Node6&#45;&gt;Node7</title>
<path fill="none" stroke="#191970" d="M252.2303,-112.2977C267.0362,-102.8127 286.0228,-90.6495 300.8193,-81.1705"/>
<polygon fill="#191970" stroke="#191970" points="302.8835,-84.0047 309.4159,-75.6633 299.1075,-78.1105 302.8835,-84.0047"/>
</g>
<!-- Node8 -->
<g id="node9" class="node">
<title>Node8</title>
<polygon fill="none" stroke="#bfbfbf" points="180,-56.5 180,-75.5 277,-75.5 277,-56.5 180,-56.5"/>
<text text-anchor="middle" x="228.5" y="-63.5" font-family="Helvetica,sans-Serif" font-size="10.00" fill="#000000">vulkan/vulkan.h</text>
</g>
<!-- Node6&#45;&gt;Node8 -->
<g id="edge12" class="edge">
<title>Node6&#45;&gt;Node8</title>
<path fill="none" stroke="#191970" d="M228.5,-112.2977C228.5,-104.3834 228.5,-94.6043 228.5,-86.0759"/>
<polygon fill="#191970" stroke="#191970" points="232.0001,-85.8469 228.5,-75.8469 225.0001,-85.847 232.0001,-85.8469"/>
</g>
</g>
</svg>
        <g id="navigator" transform="translate(0 0)" fill="#404254">
                <rect fill="#f2f5e9" fill-opacity="0.5" stroke="#606060" stroke-width=".5" x="0" y="0" width="60" height="60"/>
                <use id="zoomplus" xlink:href="#zoomPlus" x="17" y="9" onmousedown="handleZoom(evt,'in')"/>
                <use id="zoomminus" xlink:href="#zoomMin" x="42" y="9" onmousedown="handleZoom(evt,'out')"/>
                <use id="reset" xlink:href="#resetDef" x="30" y="36" onmousedown="handleReset()"/>
                <g id="arrowUp" xlink:href="#dirArrow" transform="translate(30 24)" onmousedown="handlePan(0,-1)">
                  <use xlink:href="#rim" fill="#404040">
                        <set attributeName="fill" to="#808080" begin="arrowUp.mouseover" end="arrowUp.mouseout"/>
                  </use>
                  <path fill="none" stroke="white" stroke-width="1.5" d="M0,-3.0v7 M-2.5,-0.5L0,-3.0L2.5,-0.5"/>
                </g>
                <g id="arrowRight" xlink:href="#dirArrow" transform="rotate(90) translate(36 -43)" onmousedown="handlePan(1,0)">
                  <use xlink:href="#rim" fill="#404040">
                        <set attributeName="fill" to="#808080" begin="arrowRight.mouseover" end="arrowRight.mouseout"/>
                  </use>
                  <path fill="none" stroke="white" stroke-width="1.5" d="M0,-3.0v7 M-2.5,-0.5L0,-3.0L2.5,-0.5"/>
                </g>
                <g id="arrowDown" xlink:href="#dirArrow" transform="rotate(180) translate(-30 -48)" onmousedown="handlePan(0,1)">
                  <use xlink:href="#rim" fill="#404040">
                        <set attributeName="fill" to="#808080" begin="arrowDown.mouseover" end="arrowDown.mouseout"/>
                  </use>
                  <path fill="none" stroke="white" stroke-width="1.5" d="M0,-3.0v7 M-2.5,-0.5L0,-3.0L2.5,-0.5"/>
                </g>
                <g id="arrowLeft" xlink:href="#dirArrow" transform="rotate(270) translate(-36 17)" onmousedown="handlePan(-1,0)">
                  <use xlink:href="#rim" fill="#404040">
                        <set attributeName="fill" to="#808080" begin="arrowLeft.mouseover" end="arrowLeft.mouseout"/>
                  </use>
                  <path fill="none" stroke="white" stroke-width="1.5" d="M0,-3.0v7 M-2.5,-0.5L0,-3.0L2.5,-0.5"/>
                </g>
        </g>
        <svg viewBox="0 0 15 15" width="100%" height="30px" preserveAspectRatio="xMaxYMin meet">
         <g id="arrow_out" transform="scale(0.3 0.3)">
          <a xlink:href="QueueFamily_8hpp__incl_org.svg" target="_base">
           <rect id="button" ry="5" rx="5" y="6" x="6" height="38" width="38"
                fill="#f2f5e9" fill-opacity="0.5" stroke="#606060" stroke-width="1.0"/>
           <path id="arrow"
             d="M 11.500037,31.436501 C 11.940474,20.09759 22.043105,11.32322 32.158766,21.979434 L 37.068811,17.246167 C 37.068811,17.246167 37.088388,32 37.088388,32 L 22.160133,31.978069 C 22.160133,31.978069 26.997745,27.140456 26.997745,27.140456 C 18.528582,18.264221 13.291696,25.230495 11.500037,31.436501 z"
             style="fill:#404040;"/>
          </a>
         </g>
        </svg>
</svg>
