<?xml version="1.0" encoding="UTF-8" standalone="no"?>
<!DOCTYPE svg PUBLIC "-//W3C//DTD SVG 1.1//EN"
 "http://www.w3.org/Graphics/SVG/1.1/DTD/svg11.dtd">
<!-- Generated by graphviz version 2.40.1 (20161225.0304)
 -->
<!-- Title: src/lug/Graphics/Vulkan/Render/Pipeline.cpp Pages: 1 -->
<svg width="3358pt" height="642pt"
 viewBox="0.00 0.00 3358.22 642.00" xmlns="http://www.w3.org/2000/svg" xmlns:xlink="http://www.w3.org/1999/xlink">
<g id="graph0" class="graph" transform="scale(1 1) rotate(0) translate(4 638)">
<title>src/lug/Graphics/Vulkan/Render/Pipeline.cpp</title>
<!-- Node0 -->
<g id="node1" class="node">
<title>Node0</title>
<polygon fill="#bfbfbf" stroke="#000000" points="952.5,-603.5 952.5,-633.5 1089.5,-633.5 1089.5,-603.5 952.5,-603.5"/>
<text text-anchor="start" x="960.5" y="-621.5" font-family="Helvetica,sans-Serif" font-size="10.00" fill="#000000">src/lug/Graphics/Vulkan</text>
<text text-anchor="middle" x="1021" y="-610.5" font-family="Helvetica,sans-Serif" font-size="10.00" fill="#000000">/Render/Pipeline.cpp</text>
</g>
<!-- Node1 -->
<g id="node2" class="node">
<title>Node1</title>
<g id="a_node2"><a xlink:href="Pipeline_8hpp.html" target="_top" xlink:title="lug/Graphics/Vulkan\l/Render/Pipeline.hpp">
<polygon fill="none" stroke="#000000" points="2566,-402.5 2566,-432.5 2688,-432.5 2688,-402.5 2566,-402.5"/>
<text text-anchor="start" x="2574" y="-420.5" font-family="Helvetica,sans-Serif" font-size="10.00" fill="#000000">lug/Graphics/Vulkan</text>
<text text-anchor="middle" x="2627" y="-409.5" font-family="Helvetica,sans-Serif" font-size="10.00" fill="#000000">/Render/Pipeline.hpp</text>
</a>
</g>
</g>
<!-- Node0&#45;&gt;Node1 -->
<g id="edge1" class="edge">
<title>Node0&#45;&gt;Node1</title>
<path fill="none" stroke="#191970" d="M1056.962,-603.4685C1141.0937,-568.5753 1349.1926,-483.915 1423,-469 1450.8753,-463.367 2300.3612,-430.1355 2555.3368,-420.2638"/>
<polygon fill="#191970" stroke="#191970" points="2555.7362,-423.751 2565.5933,-419.8669 2555.4654,-416.7563 2555.7362,-423.751"/>
</g>
<!-- Node19 -->
<g id="node19" class="node">
<title>Node19</title>
<polygon fill="none" stroke="#bfbfbf" points="1375.5,-118 1375.5,-137 1434.5,-137 1434.5,-118 1375.5,-118"/>
<text text-anchor="middle" x="1405" y="-125" font-family="Helvetica,sans-Serif" font-size="10.00" fill="#000000">memory</text>
</g>
<!-- Node0&#45;&gt;Node19 -->
<g id="edge45" class="edge">
<title>Node0&#45;&gt;Node19</title>
<path fill="none" stroke="#191970" d="M1017.4262,-603.3264C1011.9224,-578.5906 1002,-527.9687 1002,-484.5 1002,-484.5 1002,-484.5 1002,-417.5 1002,-383.6268 1112.2588,-219.2266 1174,-179 1205.1129,-158.7289 1307.4475,-141.4094 1364.9208,-132.9789"/>
<polygon fill="#191970" stroke="#191970" points="1365.7055,-136.402 1375.103,-131.5095 1364.7056,-129.4738 1365.7055,-136.402"/>
</g>
<!-- Node82 -->
<g id="node24" class="node">
<title>Node82</title>
<g id="a_node24"><a xlink:href="Render_2Mesh_8hpp.html" target="_top" xlink:title="lug/Graphics/Render\l/Mesh.hpp">
<polygon fill="none" stroke="#000000" points="2073.5,-402.5 2073.5,-432.5 2192.5,-432.5 2192.5,-402.5 2073.5,-402.5"/>
<text text-anchor="start" x="2081.5" y="-420.5" font-family="Helvetica,sans-Serif" font-size="10.00" fill="#000000">lug/Graphics/Render</text>
<text text-anchor="middle" x="2133" y="-409.5" font-family="Helvetica,sans-Serif" font-size="10.00" fill="#000000">/Mesh.hpp</text>
</a>
</g>
</g>
<!-- Node0&#45;&gt;Node82 -->
<g id="edge46" class="edge">
<title>Node0&#45;&gt;Node82</title>
<path fill="none" stroke="#191970" d="M1089.8767,-614.8379C1189.2225,-608.8301 1378.2442,-594.6803 1537,-567 1736.2357,-532.2617 1967.2397,-466.9859 2073.6953,-435.453"/>
<polygon fill="#191970" stroke="#191970" points="2074.7075,-438.8036 2083.2965,-432.6004 2072.7138,-432.0935 2074.7075,-438.8036"/>
</g>
<!-- Node86 -->
<g id="node28" class="node">
<title>Node86</title>
<g id="a_node28"><a xlink:href="Builder_2DescriptorSetLayout_8hpp.html" target="_top" xlink:title="lug/Graphics/Vulkan\l/API/Builder/DescriptorSet\lLayout.hpp">
<polygon fill="none" stroke="#000000" points="401,-257.5 401,-298.5 551,-298.5 551,-257.5 401,-257.5"/>
<text text-anchor="start" x="409" y="-286.5" font-family="Helvetica,sans-Serif" font-size="10.00" fill="#000000">lug/Graphics/Vulkan</text>
<text text-anchor="start" x="409" y="-275.5" font-family="Helvetica,sans-Serif" font-size="10.00" fill="#000000">/API/Builder/DescriptorSet</text>
<text text-anchor="middle" x="476" y="-264.5" font-family="Helvetica,sans-Serif" font-size="10.00" fill="#000000">Layout.hpp</text>
</a>
</g>
</g>
<!-- Node0&#45;&gt;Node86 -->
<g id="edge59" class="edge">
<title>Node0&#45;&gt;Node86</title>
<path fill="none" stroke="#191970" d="M952.2279,-606.3229C851.3238,-586.4714 675,-543.361 675,-484.5 675,-484.5 675,-484.5 675,-417.5 675,-358.1949 615.0071,-321.9591 560.9012,-301.3384"/>
<polygon fill="#191970" stroke="#191970" points="561.827,-297.95 551.2334,-297.7914 559.4159,-304.5216 561.827,-297.95"/>
</g>
<!-- Node88 -->
<g id="node30" class="node">
<title>Node88</title>
<g id="a_node30"><a xlink:href="Builder_2GraphicsPipeline_8hpp.html" target="_top" xlink:title="lug/Graphics/Vulkan\l/API/Builder/GraphicsPipeline.hpp">
<polygon fill="none" stroke="#000000" points="1259,-402.5 1259,-432.5 1445,-432.5 1445,-402.5 1259,-402.5"/>
<text text-anchor="start" x="1267" y="-420.5" font-family="Helvetica,sans-Serif" font-size="10.00" fill="#000000">lug/Graphics/Vulkan</text>
<text text-anchor="middle" x="1352" y="-409.5" font-family="Helvetica,sans-Serif" font-size="10.00" fill="#000000">/API/Builder/GraphicsPipeline.hpp</text>
</a>
</g>
</g>
<!-- Node0&#45;&gt;Node88 -->
<g id="edge64" class="edge">
<title>Node0&#45;&gt;Node88</title>
<path fill="none" stroke="#191970" d="M1045.5145,-603.3097C1089.4026,-576.1527 1184.3536,-517.5719 1265,-469 1282.0937,-458.7048 1301.1629,-447.3969 1317.082,-438.0062"/>
<polygon fill="#191970" stroke="#191970" points="1319.2132,-440.8128 1326.052,-432.7208 1315.6596,-434.7819 1319.2132,-440.8128"/>
</g>
<!-- Node89 -->
<g id="node31" class="node">
<title>Node89</title>
<g id="a_node31"><a xlink:href="Builder_2ShaderModule_8hpp.html" target="_top" xlink:title="lug/Graphics/Vulkan\l/API/Builder/ShaderModule.hpp">
<polygon fill="none" stroke="#000000" points="569,-263 569,-293 743,-293 743,-263 569,-263"/>
<text text-anchor="start" x="577" y="-281" font-family="Helvetica,sans-Serif" font-size="10.00" fill="#000000">lug/Graphics/Vulkan</text>
<text text-anchor="middle" x="656" y="-270" font-family="Helvetica,sans-Serif" font-size="10.00" fill="#000000">/API/Builder/ShaderModule.hpp</text>
</a>
</g>
</g>
<!-- Node0&#45;&gt;Node89 -->
<g id="edge93" class="edge">
<title>Node0&#45;&gt;Node89</title>
<path fill="none" stroke="#191970" d="M974.318,-603.4291C925.2193,-584.302 855,-546.1673 855,-484.5 855,-484.5 855,-484.5 855,-417.5 855,-352.9868 784.0075,-315.7727 726.8276,-296.262"/>
<polygon fill="#191970" stroke="#191970" points="727.6518,-292.8488 717.059,-293.0517 725.4664,-299.4989 727.6518,-292.8488"/>
</g>
<!-- Node99 -->
<g id="node36" class="node">
<title>Node99</title>
<g id="a_node36"><a xlink:href="Builder_2PipelineLayout_8hpp.html" target="_top" xlink:title="lug/Graphics/Vulkan\l/API/Builder/PipelineLayout.hpp">
<polygon fill="none" stroke="#000000" points="148,-335.5 148,-365.5 324,-365.5 324,-335.5 148,-335.5"/>
<text text-anchor="start" x="156" y="-353.5" font-family="Helvetica,sans-Serif" font-size="10.00" fill="#000000">lug/Graphics/Vulkan</text>
<text text-anchor="middle" x="236" y="-342.5" font-family="Helvetica,sans-Serif" font-size="10.00" fill="#000000">/API/Builder/PipelineLayout.hpp</text>
</a>
</g>
</g>
<!-- Node0&#45;&gt;Node99 -->
<g id="edge85" class="edge">
<title>Node0&#45;&gt;Node99</title>
<path fill="none" stroke="#191970" d="M952.171,-615.3692C878.598,-610.4857 759.2627,-598.1104 661,-567 504.6065,-517.4851 335.7548,-414.9548 267.3816,-371.1127"/>
<polygon fill="#191970" stroke="#191970" points="269.091,-368.0504 258.79,-365.5725 265.2974,-373.9334 269.091,-368.0504"/>
</g>
<!-- Node101 -->
<g id="node38" class="node">
<title>Node101</title>
<g id="a_node38"><a xlink:href="Builder_2RenderPass_8hpp.html" target="_top" xlink:title="lug/Graphics/Vulkan\l/API/Builder/RenderPass.hpp">
<polygon fill="none" stroke="#000000" points="1367.5,-536.5 1367.5,-566.5 1528.5,-566.5 1528.5,-536.5 1367.5,-536.5"/>
<text text-anchor="start" x="1375.5" y="-554.5" font-family="Helvetica,sans-Serif" font-size="10.00" fill="#000000">lug/Graphics/Vulkan</text>
<text text-anchor="middle" x="1448" y="-543.5" font-family="Helvetica,sans-Serif" font-size="10.00" fill="#000000">/API/Builder/RenderPass.hpp</text>
</a>
</g>
</g>
<!-- Node0&#45;&gt;Node101 -->
<g id="edge90" class="edge">
<title>Node0&#45;&gt;Node101</title>
<path fill="none" stroke="#191970" d="M1089.6049,-607.7353C1162.1762,-596.3482 1277.0375,-578.3255 1357.1025,-565.7626"/>
<polygon fill="#191970" stroke="#191970" points="1357.8421,-569.1895 1367.1786,-564.1816 1356.7569,-562.2741 1357.8421,-569.1895"/>
</g>
<!-- Node103 -->
<g id="node40" class="node">
<title>Node103</title>
<g id="a_node40"><a xlink:href="Vulkan_2Renderer_8hpp.html" target="_top" xlink:title="lug/Graphics/Vulkan\l/Renderer.hpp">
<polygon fill="none" stroke="#000000" points="2946,-536.5 2946,-566.5 3064,-566.5 3064,-536.5 2946,-536.5"/>
<text text-anchor="start" x="2954" y="-554.5" font-family="Helvetica,sans-Serif" font-size="10.00" fill="#000000">lug/Graphics/Vulkan</text>
<text text-anchor="middle" x="3005" y="-543.5" font-family="Helvetica,sans-Serif" font-size="10.00" fill="#000000">/Renderer.hpp</text>
</a>
</g>
</g>
<!-- Node0&#45;&gt;Node103 -->
<g id="edge94" class="edge">
<title>Node0&#45;&gt;Node103</title>
<path fill="none" stroke="#191970" d="M1089.5816,-616.184C1394.9442,-605.8718 2629.302,-564.1874 2935.8383,-553.8356"/>
<polygon fill="#191970" stroke="#191970" points="2936.0453,-557.3307 2945.9214,-553.4951 2935.8089,-550.3347 2936.0453,-557.3307"/>
</g>
<!-- Node161 -->
<g id="node48" class="node">
<title>Node161</title>
<g id="a_node48"><a xlink:href="Exception_8hpp.html" target="_top" xlink:title="lug/System/Exception.hpp">
<polygon fill="none" stroke="#000000" points="892,-268.5 892,-287.5 1040,-287.5 1040,-268.5 892,-268.5"/>
<text text-anchor="middle" x="966" y="-275.5" font-family="Helvetica,sans-Serif" font-size="10.00" fill="#000000">lug/System/Exception.hpp</text>
</a>
</g>
</g>
<!-- Node0&#45;&gt;Node161 -->
<g id="edge125" class="edge">
<title>Node0&#45;&gt;Node161</title>
<path fill="none" stroke="#191970" d="M1009.7386,-603.3118C993.1271,-579.3594 964,-530.7645 964,-484.5 964,-484.5 964,-484.5 964,-417.5 964,-374.9009 964.944,-324.992 965.5349,-297.9233"/>
<polygon fill="#191970" stroke="#191970" points="969.0365,-297.8851 965.7627,-287.8087 962.0383,-297.7274 969.0365,-297.8851"/>
</g>
<!-- Node2 -->
<g id="node3" class="node">
<title>Node2</title>
<polygon fill="none" stroke="#bfbfbf" points="2126,-190.5 2126,-209.5 2176,-209.5 2176,-190.5 2126,-190.5"/>
<text text-anchor="middle" x="2151" y="-197.5" font-family="Helvetica,sans-Serif" font-size="10.00" fill="#000000">cstdint</text>
</g>
<!-- Node1&#45;&gt;Node2 -->
<g id="edge2" class="edge">
<title>Node1&#45;&gt;Node2</title>
<path fill="none" stroke="#191970" d="M2611.4615,-402.4482C2577.5304,-370.4635 2493.0171,-295.5136 2408,-257 2397.8532,-252.4034 2254.0632,-221.7401 2186.1036,-207.3859"/>
<polygon fill="#191970" stroke="#191970" points="2186.7726,-203.95 2176.2654,-205.3099 2185.3273,-210.7992 2186.7726,-203.95"/>
</g>
<!-- Node3 -->
<g id="node4" class="node">
<title>Node3</title>
<polygon fill="none" stroke="#bfbfbf" points="2718.5,-341 2718.5,-360 2783.5,-360 2783.5,-341 2718.5,-341"/>
<text text-anchor="middle" x="2751" y="-348" font-family="Helvetica,sans-Serif" font-size="10.00" fill="#000000">functional</text>
</g>
<!-- Node1&#45;&gt;Node3 -->
<g id="edge3" class="edge">
<title>Node1&#45;&gt;Node3</title>
<path fill="none" stroke="#191970" d="M2654.828,-402.4639C2675.6336,-391.2222 2703.9054,-375.9463 2724.4073,-364.8686"/>
<polygon fill="#191970" stroke="#191970" points="2726.0915,-367.9369 2733.2256,-360.1039 2722.7639,-361.7784 2726.0915,-367.9369"/>
</g>
<!-- Node4 -->
<g id="node5" class="node">
<title>Node4</title>
<polygon fill="none" stroke="#bfbfbf" points="1974.5,-190.5 1974.5,-209.5 2019.5,-209.5 2019.5,-190.5 1974.5,-190.5"/>
<text text-anchor="middle" x="1997" y="-197.5" font-family="Helvetica,sans-Serif" font-size="10.00" fill="#000000">string</text>
</g>
<!-- Node1&#45;&gt;Node4 -->
<g id="edge4" class="edge">
<title>Node1&#45;&gt;Node4</title>
<path fill="none" stroke="#191970" d="M2597.3719,-402.3672C2522.6161,-364.2761 2330.0715,-266.7653 2299,-257 2199.4554,-225.7147 2168.7683,-244.0461 2067,-221 2054.6535,-218.204 2041.298,-214.3976 2029.5955,-210.7931"/>
<polygon fill="#191970" stroke="#191970" points="2030.3934,-207.375 2019.8038,-207.7079 2028.2898,-214.0514 2030.3934,-207.375"/>
</g>
<!-- Node5 -->
<g id="node6" class="node">
<title>Node5</title>
<polygon fill="none" stroke="#bfbfbf" points="1706,-56.5 1706,-75.5 1754,-75.5 1754,-56.5 1706,-56.5"/>
<text text-anchor="middle" x="1730" y="-63.5" font-family="Helvetica,sans-Serif" font-size="10.00" fill="#000000">vector</text>
</g>
<!-- Node1&#45;&gt;Node5 -->
<g id="edge5" class="edge">
<title>Node1&#45;&gt;Node5</title>
<path fill="none" stroke="#191970" d="M2632.6262,-402.3825C2645.2562,-367.3409 2673.6489,-281.6766 2659,-257 2641.9437,-228.268 2619.2449,-241.6797 2593,-221 2573.2275,-205.4202 2577.1027,-191.0478 2555,-179 2549.9578,-176.2516 2152.6893,-112.7804 2147,-112 2005.2668,-92.559 1835.5454,-75.8712 1764.2191,-69.1562"/>
<polygon fill="#191970" stroke="#191970" points="1764.3124,-65.6497 1754.0296,-68.2019 1763.6596,-72.6192 1764.3124,-65.6497"/>
</g>
<!-- Node6 -->
<g id="node7" class="node">
<title>Node6</title>
<g id="a_node7"><a xlink:href="Graphics_2Export_8hpp.html" target="_top" xlink:title="lug/Graphics/Export.hpp">
<polygon fill="none" stroke="#000000" points="2255,-56.5 2255,-75.5 2393,-75.5 2393,-56.5 2255,-56.5"/>
<text text-anchor="middle" x="2324" y="-63.5" font-family="Helvetica,sans-Serif" font-size="10.00" fill="#000000">lug/Graphics/Export.hpp</text>
</a>
</g>
</g>
<!-- Node1&#45;&gt;Node6 -->
<g id="edge6" class="edge">
<title>Node1&#45;&gt;Node6</title>
<path fill="none" stroke="#191970" d="M2642.8751,-402.4825C2680.5606,-364.9315 2769.6072,-263.8779 2733,-179 2715.8173,-139.16 2701.1462,-130.7094 2662,-112 2617.6505,-90.8037 2488.6949,-77.7546 2403.506,-71.1992"/>
<polygon fill="#191970" stroke="#191970" points="2403.5779,-67.6948 2393.3428,-70.4319 2403.0508,-74.6749 2403.5779,-67.6948"/>
</g>
<!-- Node8 -->
<g id="node9" class="node">
<title>Node8</title>
<g id="a_node9"><a xlink:href="Renderer_8hpp.html" target="_top" xlink:title="lug/Graphics/Renderer.hpp">
<polygon fill="none" stroke="#ff0000" points="2498,-268.5 2498,-287.5 2650,-287.5 2650,-268.5 2498,-268.5"/>
<text text-anchor="middle" x="2574" y="-275.5" font-family="Helvetica,sans-Serif" font-size="10.00" fill="#000000">lug/Graphics/Renderer.hpp</text>
</a>
</g>
</g>
<!-- Node1&#45;&gt;Node8 -->
<g id="edge8" class="edge">
<title>Node1&#45;&gt;Node8</title>
<path fill="none" stroke="#191970" d="M2617.9107,-402.1011C2612.2409,-392.0596 2605.0814,-378.537 2600,-366 2590.7331,-343.1365 2583.1636,-315.7325 2578.6288,-297.6477"/>
<polygon fill="#191970" stroke="#191970" points="2581.9768,-296.6031 2576.2095,-287.7156 2575.1757,-298.2598 2581.9768,-296.6031"/>
</g>
<!-- Node67 -->
<g id="node15" class="node">
<title>Node67</title>
<g id="a_node15"><a xlink:href="Type_8hpp.html" target="_top" xlink:title="lug/Graphics/Render\l/Technique/Type.hpp">
<polygon fill="none" stroke="#000000" points="2602,-185 2602,-215 2724,-215 2724,-185 2602,-185"/>
<text text-anchor="start" x="2610" y="-203" font-family="Helvetica,sans-Serif" font-size="10.00" fill="#000000">lug/Graphics/Render</text>
<text text-anchor="middle" x="2663" y="-192" font-family="Helvetica,sans-Serif" font-size="10.00" fill="#000000">/Technique/Type.hpp</text>
</a>
</g>
</g>
<!-- Node1&#45;&gt;Node67 -->
<g id="edge22" class="edge">
<title>Node1&#45;&gt;Node67</title>
<path fill="none" stroke="#191970" d="M2636.6301,-402.238C2653.3421,-375.4091 2686.4666,-320.5937 2692,-299 2696.6337,-280.9176 2696.3522,-275.1522 2692,-257 2689.2535,-245.5451 2683.8027,-233.7949 2678.3608,-223.9615"/>
<polygon fill="#191970" stroke="#191970" points="2681.3032,-222.0596 2673.2345,-215.1931 2675.2601,-225.5925 2681.3032,-222.0596"/>
</g>
<!-- Node47 -->
<g id="node16" class="node">
<title>Node47</title>
<g id="a_node16"><a xlink:href="Resource_8hpp.html" target="_top" xlink:title="lug/Graphics/Resource.hpp">
<polygon fill="none" stroke="#ff0000" points="2138,-268.5 2138,-287.5 2290,-287.5 2290,-268.5 2138,-268.5"/>
<text text-anchor="middle" x="2214" y="-275.5" font-family="Helvetica,sans-Serif" font-size="10.00" fill="#000000">lug/Graphics/Resource.hpp</text>
</a>
</g>
</g>
<!-- Node1&#45;&gt;Node47 -->
<g id="edge23" class="edge">
<title>Node1&#45;&gt;Node47</title>
<path fill="none" stroke="#191970" d="M2570.2135,-402.4054C2534.8434,-392.697 2488.519,-379.4242 2448,-366 2375.6063,-342.0155 2292.3519,-309.4983 2247.2507,-291.4608"/>
<polygon fill="#191970" stroke="#191970" points="2248.2778,-288.1017 2237.6936,-287.6267 2245.6714,-294.5984 2248.2778,-288.1017"/>
</g>
<!-- Node73 -->
<g id="node17" class="node">
<title>Node73</title>
<g id="a_node17"><a xlink:href="GraphicsPipeline_8hpp.html" target="_top" xlink:title="lug/Graphics/Vulkan\l/API/GraphicsPipeline.hpp">
<polygon fill="none" stroke="#000000" points="1456,-335.5 1456,-365.5 1602,-365.5 1602,-335.5 1456,-335.5"/>
<text text-anchor="start" x="1464" y="-353.5" font-family="Helvetica,sans-Serif" font-size="10.00" fill="#000000">lug/Graphics/Vulkan</text>
<text text-anchor="middle" x="1529" y="-342.5" font-family="Helvetica,sans-Serif" font-size="10.00" fill="#000000">/API/GraphicsPipeline.hpp</text>
</a>
</g>
</g>
<!-- Node1&#45;&gt;Node73 -->
<g id="edge27" class="edge">
<title>Node1&#45;&gt;Node73</title>
<path fill="none" stroke="#191970" d="M2565.614,-413.7542C2379.9872,-402.4273 1824.3554,-368.5226 1612.4025,-355.5892"/>
<polygon fill="#191970" stroke="#191970" points="1612.4633,-352.0865 1602.2686,-354.9709 1612.0369,-359.0735 1612.4633,-352.0865"/>
</g>
<!-- Node81 -->
<g id="node23" class="node">
<title>Node81</title>
<g id="a_node23"><a xlink:href="Render_2Pipeline_8inl.html" target="_top" xlink:title="lug/Graphics/Vulkan\l/Render/Pipeline.inl">
<polygon fill="none" stroke="#000000" points="2802,-335.5 2802,-365.5 2920,-365.5 2920,-335.5 2802,-335.5"/>
<text text-anchor="start" x="2810" y="-353.5" font-family="Helvetica,sans-Serif" font-size="10.00" fill="#000000">lug/Graphics/Vulkan</text>
<text text-anchor="middle" x="2861" y="-342.5" font-family="Helvetica,sans-Serif" font-size="10.00" fill="#000000">/Render/Pipeline.inl</text>
</a>
</g>
</g>
<!-- Node1&#45;&gt;Node81 -->
<g id="edge44" class="edge">
<title>Node1&#45;&gt;Node81</title>
<path fill="none" stroke="#191970" d="M2679.5142,-402.4639C2714.7671,-392.3701 2761.3788,-379.024 2798.5367,-368.3848"/>
<polygon fill="#191970" stroke="#191970" points="2799.6065,-371.7192 2808.2568,-365.6017 2797.6797,-364.9896 2799.6065,-371.7192"/>
</g>
<!-- Node7 -->
<g id="node8" class="node">
<title>Node7</title>
<g id="a_node8"><a xlink:href="Config_8hpp.html" target="_top" xlink:title="lug/Config.hpp">
<polygon fill="none" stroke="#000000" points="1318.5,-.5 1318.5,-19.5 1407.5,-19.5 1407.5,-.5 1318.5,-.5"/>
<text text-anchor="middle" x="1363" y="-7.5" font-family="Helvetica,sans-Serif" font-size="10.00" fill="#000000">lug/Config.hpp</text>
</a>
</g>
</g>
<!-- Node6&#45;&gt;Node7 -->
<g id="edge7" class="edge">
<title>Node6&#45;&gt;Node7</title>
<path fill="none" stroke="#191970" d="M2254.8872,-61.9726C2072.8572,-51.3652 1582.9162,-22.8151 1418.0198,-13.2062"/>
<polygon fill="#191970" stroke="#191970" points="1417.8219,-9.6888 1407.6352,-12.601 1417.4146,-16.6769 1417.8219,-9.6888"/>
</g>
<!-- Node8&#45;&gt;Node2 -->
<g id="edge9" class="edge">
<title>Node8&#45;&gt;Node2</title>
<path fill="none" stroke="#191970" d="M2522.1319,-268.4357C2434.8696,-252.3448 2260.9313,-220.271 2186.322,-206.5133"/>
<polygon fill="#191970" stroke="#191970" points="2186.5258,-202.9919 2176.0569,-204.6204 2185.2564,-209.8759 2186.5258,-202.9919"/>
</g>
<!-- Node8&#45;&gt;Node4 -->
<g id="edge11" class="edge">
<title>Node8&#45;&gt;Node4</title>
<path fill="none" stroke="#191970" d="M2501.3158,-268.4749C2472.3043,-264.7593 2438.5869,-260.5489 2408,-257 2256.6178,-239.4357 2216.4106,-251.0257 2067,-221 2054.589,-218.5059 2041.2193,-214.766 2029.5234,-211.1303"/>
<polygon fill="#191970" stroke="#191970" points="2030.3334,-207.7146 2019.7423,-207.9961 2028.1972,-214.3807 2030.3334,-207.7146"/>
</g>
<!-- Node9 -->
<g id="node10" class="node">
<title>Node9</title>
<polygon fill="none" stroke="#bfbfbf" points="2076,-190.5 2076,-209.5 2108,-209.5 2108,-190.5 2076,-190.5"/>
<text text-anchor="middle" x="2092" y="-197.5" font-family="Helvetica,sans-Serif" font-size="10.00" fill="#000000">set</text>
</g>
<!-- Node8&#45;&gt;Node9 -->
<g id="edge10" class="edge">
<title>Node8&#45;&gt;Node9</title>
<path fill="none" stroke="#191970" d="M2499.2211,-268.4956C2470.6773,-264.8794 2437.8333,-260.7324 2408,-257 2278.6888,-240.8221 2236.4731,-273.0508 2117,-221 2114.0802,-219.7279 2111.2377,-218.0026 2108.5794,-216.0843"/>
<polygon fill="#191970" stroke="#191970" points="2110.7607,-213.346 2100.8442,-209.6159 2106.2703,-218.7159 2110.7607,-213.346"/>
</g>
<!-- Node10 -->
<g id="node11" class="node">
<title>Node10</title>
<g id="a_node11"><a xlink:href="Version_8hpp.html" target="_top" xlink:title="lug/Core/Version.hpp">
<polygon fill="none" stroke="#ff0000" points="2422.5,-190.5 2422.5,-209.5 2545.5,-209.5 2545.5,-190.5 2422.5,-190.5"/>
<text text-anchor="middle" x="2484" y="-197.5" font-family="Helvetica,sans-Serif" font-size="10.00" fill="#000000">lug/Core/Version.hpp</text>
</a>
</g>
</g>
<!-- Node8&#45;&gt;Node10 -->
<g id="edge12" class="edge">
<title>Node8&#45;&gt;Node10</title>
<path fill="none" stroke="#191970" d="M2562.9642,-268.4357C2547.9849,-255.4536 2521.0016,-232.0681 2502.7976,-216.2913"/>
<polygon fill="#191970" stroke="#191970" points="2504.9752,-213.547 2495.126,-209.6426 2500.3907,-218.8368 2504.9752,-213.547"/>
</g>
<!-- Node12 -->
<g id="node12" class="node">
<title>Node12</title>
<g id="a_node12"><a xlink:href="Module_8hpp.html" target="_top" xlink:title="lug/Graphics/Module.hpp">
<polygon fill="none" stroke="#ff0000" points="2352.5,-118 2352.5,-137 2493.5,-137 2493.5,-118 2352.5,-118"/>
<text text-anchor="middle" x="2423" y="-125" font-family="Helvetica,sans-Serif" font-size="10.00" fill="#000000">lug/Graphics/Module.hpp</text>
</a>
</g>
</g>
<!-- Node8&#45;&gt;Node12 -->
<g id="edge13" class="edge">
<title>Node8&#45;&gt;Node12</title>
<path fill="none" stroke="#191970" d="M2530.6937,-268.4833C2488.1822,-258.1597 2427.7667,-240.5186 2414,-221 2398.5521,-199.0978 2406.6487,-166.7808 2414.4258,-146.4489"/>
<polygon fill="#191970" stroke="#191970" points="2417.7353,-147.6054 2418.3372,-137.0277 2411.2703,-144.9213 2417.7353,-147.6054"/>
</g>
<!-- Node16 -->
<g id="node14" class="node">
<title>Node16</title>
<g id="a_node14"><a xlink:href="Graphics_2Render_2Window_8hpp.html" target="_top" xlink:title="lug/Graphics/Render\l/Window.hpp">
<polygon fill="none" stroke="#ff0000" points="2019.5,-112.5 2019.5,-142.5 2138.5,-142.5 2138.5,-112.5 2019.5,-112.5"/>
<text text-anchor="start" x="2027.5" y="-130.5" font-family="Helvetica,sans-Serif" font-size="10.00" fill="#000000">lug/Graphics/Render</text>
<text text-anchor="middle" x="2079" y="-119.5" font-family="Helvetica,sans-Serif" font-size="10.00" fill="#000000">/Window.hpp</text>
</a>
</g>
</g>
<!-- Node8&#45;&gt;Node16 -->
<g id="edge17" class="edge">
<title>Node8&#45;&gt;Node16</title>
<path fill="none" stroke="#191970" d="M2543.8038,-268.3932C2487.372,-250.4855 2362.0266,-210.9259 2256,-179 2218.068,-167.5782 2175.4366,-155.1615 2141.5185,-145.3823"/>
<polygon fill="#191970" stroke="#191970" points="2142.3198,-141.9708 2131.7417,-142.5669 2140.3827,-148.6975 2142.3198,-141.9708"/>
</g>
<!-- Node8&#45;&gt;Node67 -->
<g id="edge20" class="edge">
<title>Node8&#45;&gt;Node67</title>
<path fill="none" stroke="#191970" d="M2584.9131,-268.4357C2598.0354,-256.9353 2620.4733,-237.2706 2637.9389,-221.9636"/>
<polygon fill="#191970" stroke="#191970" points="2640.3487,-224.5056 2645.5624,-215.2824 2635.735,-219.2412 2640.3487,-224.5056"/>
</g>
<!-- Node12&#45;&gt;Node5 -->
<g id="edge15" class="edge">
<title>Node12&#45;&gt;Node5</title>
<path fill="none" stroke="#191970" d="M2352.416,-121.236C2205.5392,-108.2015 1871.7498,-78.5795 1764.1288,-69.0287"/>
<polygon fill="#191970" stroke="#191970" points="1764.4154,-65.5405 1754.1452,-68.1428 1763.7966,-72.5131 1764.4154,-65.5405"/>
</g>
<!-- Node12&#45;&gt;Node6 -->
<g id="edge16" class="edge">
<title>Node12&#45;&gt;Node6</title>
<path fill="none" stroke="#191970" d="M2407.5313,-117.8906C2391.5479,-107.9616 2366.3897,-92.333 2347.8567,-80.8201"/>
<polygon fill="#191970" stroke="#191970" points="2349.7015,-77.8457 2339.3601,-75.5419 2346.0076,-83.7918 2349.7015,-77.8457"/>
</g>
<!-- Node14 -->
<g id="node13" class="node">
<title>Node14</title>
<polygon fill="none" stroke="#bfbfbf" points="2523.5,-56.5 2523.5,-75.5 2618.5,-75.5 2618.5,-56.5 2523.5,-56.5"/>
<text text-anchor="middle" x="2571" y="-63.5" font-family="Helvetica,sans-Serif" font-size="10.00" fill="#000000">unordered_map</text>
</g>
<!-- Node12&#45;&gt;Node14 -->
<g id="edge14" class="edge">
<title>Node12&#45;&gt;Node14</title>
<path fill="none" stroke="#191970" d="M2446.125,-117.8906C2470.9967,-107.5554 2510.7298,-91.0447 2538.6844,-79.4284"/>
<polygon fill="#191970" stroke="#191970" points="2540.146,-82.6113 2548.0374,-75.5419 2537.4598,-76.1472 2540.146,-82.6113"/>
</g>
<!-- Node16&#45;&gt;Node5 -->
<g id="edge18" class="edge">
<title>Node16&#45;&gt;Node5</title>
<path fill="none" stroke="#191970" d="M2019.2672,-114.7705C2014.4449,-113.8093 2009.6438,-112.8744 2005,-112 1918.6614,-95.7437 1816.5204,-79.4165 1764.3808,-71.29"/>
<polygon fill="#191970" stroke="#191970" points="1764.7568,-67.8065 1754.338,-69.7299 1763.6822,-74.7235 1764.7568,-67.8065"/>
</g>
<!-- Node16&#45;&gt;Node6 -->
<g id="edge19" class="edge">
<title>Node16&#45;&gt;Node6</title>
<path fill="none" stroke="#191970" d="M2138.6205,-112.534C2180.8375,-101.9367 2236.7245,-87.9079 2276.0592,-78.0341"/>
<polygon fill="#191970" stroke="#191970" points="2277.0882,-81.3845 2285.9351,-75.5551 2275.3839,-74.5951 2277.0882,-81.3845"/>
</g>
<!-- Node67&#45;&gt;Node6 -->
<g id="edge21" class="edge">
<title>Node67&#45;&gt;Node6</title>
<path fill="none" stroke="#191970" d="M2663.5435,-184.6632C2663.3442,-164.7488 2659.747,-130.3725 2639,-112 2621.5875,-96.5803 2490.8738,-81.5497 2403.3921,-73.0637"/>
<polygon fill="#191970" stroke="#191970" points="2403.5025,-69.5583 2393.2139,-72.0869 2402.8337,-76.5263 2403.5025,-69.5583"/>
</g>
<!-- Node47&#45;&gt;Node2 -->
<g id="edge24" class="edge">
<title>Node47&#45;&gt;Node2</title>
<path fill="none" stroke="#191970" d="M2206.275,-268.4357C2196.0728,-255.8045 2177.916,-233.3245 2165.2047,-217.5868"/>
<polygon fill="#191970" stroke="#191970" points="2167.7944,-215.2228 2158.7882,-209.6426 2162.3488,-219.6212 2167.7944,-215.2228"/>
</g>
<!-- Node47&#45;&gt;Node4 -->
<g id="edge25" class="edge">
<title>Node47&#45;&gt;Node4</title>
<path fill="none" stroke="#191970" d="M2187.3915,-268.4357C2147.4724,-254.0869 2072.1951,-227.0287 2029.2226,-211.5823"/>
<polygon fill="#191970" stroke="#191970" points="2030.1396,-208.1927 2019.5451,-208.1038 2027.7717,-214.7801 2030.1396,-208.1927"/>
</g>
<!-- Node47&#45;&gt;Node6 -->
<g id="edge26" class="edge">
<title>Node47&#45;&gt;Node6</title>
<path fill="none" stroke="#191970" d="M2219.0123,-268.3399C2236.013,-235.5749 2291.6786,-128.2922 2314.3059,-84.6832"/>
<polygon fill="#191970" stroke="#191970" points="2317.4593,-86.2051 2318.9583,-75.7168 2311.2459,-82.9811 2317.4593,-86.2051"/>
</g>
<!-- Node74 -->
<g id="node18" class="node">
<title>Node74</title>
<g id="a_node18"><a xlink:href="PipelineLayout_8hpp.html" target="_top" xlink:title="lug/Graphics/Vulkan\l/API/PipelineLayout.hpp">
<polygon fill="none" stroke="#ff0000" points="1174,-263 1174,-293 1310,-293 1310,-263 1174,-263"/>
<text text-anchor="start" x="1182" y="-281" font-family="Helvetica,sans-Serif" font-size="10.00" fill="#000000">lug/Graphics/Vulkan</text>
<text text-anchor="middle" x="1242" y="-270" font-family="Helvetica,sans-Serif" font-size="10.00" fill="#000000">/API/PipelineLayout.hpp</text>
</a>
</g>
</g>
<!-- Node73&#45;&gt;Node74 -->
<g id="edge28" class="edge">
<title>Node73&#45;&gt;Node74</title>
<path fill="none" stroke="#191970" d="M1465.9476,-335.4855C1424.1883,-325.4312 1368.2409,-311.7503 1319,-299 1314.9255,-297.945 1310.7339,-296.8447 1306.5103,-295.7247"/>
<polygon fill="#191970" stroke="#191970" points="1307.2018,-292.2867 1296.6373,-293.0877 1305.3954,-299.0497 1307.2018,-292.2867"/>
</g>
<!-- Node80 -->
<g id="node22" class="node">
<title>Node80</title>
<g id="a_node22"><a xlink:href="RenderPass_8hpp.html" target="_top" xlink:title="lug/Graphics/Vulkan\l/API/RenderPass.hpp">
<polygon fill="none" stroke="#000000" points="1556,-263 1556,-293 1678,-293 1678,-263 1556,-263"/>
<text text-anchor="start" x="1564" y="-281" font-family="Helvetica,sans-Serif" font-size="10.00" fill="#000000">lug/Graphics/Vulkan</text>
<text text-anchor="middle" x="1617" y="-270" font-family="Helvetica,sans-Serif" font-size="10.00" fill="#000000">/API/RenderPass.hpp</text>
</a>
</g>
</g>
<!-- Node73&#45;&gt;Node80 -->
<g id="edge40" class="edge">
<title>Node73&#45;&gt;Node80</title>
<path fill="none" stroke="#191970" d="M1547.2337,-335.478C1559.8588,-325.0766 1576.8539,-311.0749 1590.9091,-299.4953"/>
<polygon fill="#191970" stroke="#191970" points="1593.2972,-302.0628 1598.7897,-293.0028 1588.8461,-296.6601 1593.2972,-302.0628"/>
</g>
<!-- Node74&#45;&gt;Node5 -->
<g id="edge30" class="edge">
<title>Node74&#45;&gt;Node5</title>
<path fill="none" stroke="#191970" d="M1296.6618,-262.9121C1332.0714,-252.5267 1378.893,-237.6376 1419,-221 1516.8606,-180.4045 1535.8293,-158.5534 1631,-112 1653.7199,-100.8864 1679.6557,-88.8592 1699.2803,-79.891"/>
<polygon fill="#191970" stroke="#191970" points="1700.9915,-82.9575 1708.6406,-75.6266 1698.0894,-76.5875 1700.9915,-82.9575"/>
</g>
<!-- Node74&#45;&gt;Node6 -->
<g id="edge31" class="edge">
<title>Node74&#45;&gt;Node6</title>
<path fill="none" stroke="#191970" d="M1296.1918,-262.912C1303.8363,-260.8737 1311.6069,-258.8495 1319,-257 1388.8688,-239.521 1407.3594,-239.3669 1477,-221 1639.8801,-178.0422 1674.6854,-144.3479 1840,-112 1980.8648,-84.4363 2148.1532,-73.1944 2244.6025,-68.7527"/>
<polygon fill="#191970" stroke="#191970" points="2245.0252,-72.2374 2254.8587,-68.2938 2244.7122,-65.2444 2245.0252,-72.2374"/>
</g>
<!-- Node74&#45;&gt;Node19 -->
<g id="edge29" class="edge">
<title>Node74&#45;&gt;Node19</title>
<path fill="none" stroke="#191970" d="M1291.2953,-262.9388C1334.4088,-249.2962 1391.1941,-229.9974 1398,-221 1413.9916,-199.8592 1412.4708,-167.7808 1409.2465,-147.2341"/>
<polygon fill="#191970" stroke="#191970" points="1412.6414,-146.3446 1407.3803,-137.1483 1405.7583,-147.6183 1412.6414,-146.3446"/>
</g>
<!-- Node75 -->
<g id="node20" class="node">
<title>Node75</title>
<g id="a_node20"><a xlink:href="DescriptorSetLayout_8hpp.html" target="_top" xlink:title="lug/Graphics/Vulkan\l/API/DescriptorSetLayout.hpp">
<polygon fill="none" stroke="#ff0000" points="1224.5,-185 1224.5,-215 1389.5,-215 1389.5,-185 1224.5,-185"/>
<text text-anchor="start" x="1232.5" y="-203" font-family="Helvetica,sans-Serif" font-size="10.00" fill="#000000">lug/Graphics/Vulkan</text>
<text text-anchor="middle" x="1307" y="-192" font-family="Helvetica,sans-Serif" font-size="10.00" fill="#000000">/API/DescriptorSetLayout.hpp</text>
</a>
</g>
</g>
<!-- Node74&#45;&gt;Node75 -->
<g id="edge32" class="edge">
<title>Node74&#45;&gt;Node75</title>
<path fill="none" stroke="#191970" d="M1254.5327,-262.9608C1263.9139,-251.7033 1276.9192,-236.0969 1287.6344,-223.2387"/>
<polygon fill="#191970" stroke="#191970" points="1290.5709,-225.182 1294.284,-215.2592 1285.1934,-220.7007 1290.5709,-225.182"/>
</g>
<!-- Node76 -->
<g id="node21" class="node">
<title>Node76</title>
<g id="a_node21"><a xlink:href="Vulkan_8hpp.html" target="_top" xlink:title="lug/Graphics/Vulkan\l/Vulkan.hpp">
<polygon fill="none" stroke="#ff0000" points="2512,-112.5 2512,-142.5 2630,-142.5 2630,-112.5 2512,-112.5"/>
<text text-anchor="start" x="2520" y="-130.5" font-family="Helvetica,sans-Serif" font-size="10.00" fill="#000000">lug/Graphics/Vulkan</text>
<text text-anchor="middle" x="2571" y="-119.5" font-family="Helvetica,sans-Serif" font-size="10.00" fill="#000000">/Vulkan.hpp</text>
</a>
</g>
</g>
<!-- Node74&#45;&gt;Node76 -->
<g id="edge39" class="edge">
<title>Node74&#45;&gt;Node76</title>
<path fill="none" stroke="#191970" d="M1291.3768,-262.945C1300.4908,-260.621 1309.9785,-258.4991 1319,-257 1444.2023,-236.1954 1776.6559,-280.0529 1889,-221 1910.0132,-209.9546 1900.9802,-190.0329 1922,-179 2033.855,-120.2893 2359.2211,-159.4967 2501.8219,-142.8907"/>
<polygon fill="#191970" stroke="#191970" points="2502.3031,-146.3577 2511.7678,-141.5965 2501.3998,-139.4162 2502.3031,-146.3577"/>
</g>
<!-- Node75&#45;&gt;Node6 -->
<g id="edge34" class="edge">
<title>Node75&#45;&gt;Node6</title>
<path fill="none" stroke="#191970" d="M1312.1541,-184.9538C1320.1032,-164.3552 1337.491,-128.0998 1366,-112 1403.9778,-90.553 2021.6654,-73.3958 2244.5737,-67.8755"/>
<polygon fill="#191970" stroke="#191970" points="2244.9754,-71.3668 2254.8861,-67.6215 2244.8029,-64.3689 2244.9754,-71.3668"/>
</g>
<!-- Node75&#45;&gt;Node19 -->
<g id="edge33" class="edge">
<title>Node75&#45;&gt;Node19</title>
<path fill="none" stroke="#191970" d="M1327.3057,-184.978C1343.8244,-172.7574 1367.0608,-155.5673 1383.8127,-143.1743"/>
<polygon fill="#191970" stroke="#191970" points="1385.9543,-145.9436 1391.9119,-137.1825 1381.7911,-140.3162 1385.9543,-145.9436"/>
</g>
<!-- Node75&#45;&gt;Node76 -->
<g id="edge35" class="edge">
<title>Node75&#45;&gt;Node76</title>
<path fill="none" stroke="#191970" d="M1389.544,-196.078C1644.0038,-183.986 2404.6271,-147.8303 2501.6524,-142.3088"/>
<polygon fill="#191970" stroke="#191970" points="2502.0246,-145.792 2511.7749,-141.647 2501.5679,-138.8069 2502.0246,-145.792"/>
</g>
<!-- Node76&#45;&gt;Node5 -->
<g id="edge37" class="edge">
<title>Node76&#45;&gt;Node5</title>
<path fill="none" stroke="#191970" d="M2511.7691,-113.3949C2508.8119,-112.8805 2505.8769,-112.4106 2503,-112 2357.2061,-91.1904 1894.7885,-72.3075 1764.4796,-67.2952"/>
<polygon fill="#191970" stroke="#191970" points="1764.418,-63.7903 1754.2915,-66.9056 1764.1504,-70.7852 1764.418,-63.7903"/>
</g>
<!-- Node76&#45;&gt;Node6 -->
<g id="edge38" class="edge">
<title>Node76&#45;&gt;Node6</title>
<path fill="none" stroke="#191970" d="M2511.8373,-112.7692C2469.077,-102.1224 2412.0402,-87.9209 2372.0778,-77.9708"/>
<polygon fill="#191970" stroke="#191970" points="2372.8542,-74.5573 2362.3048,-75.5374 2371.1628,-81.3499 2372.8542,-74.5573"/>
</g>
<!-- Node76&#45;&gt;Node14 -->
<g id="edge36" class="edge">
<title>Node76&#45;&gt;Node14</title>
<path fill="none" stroke="#191970" d="M2571,-112.2977C2571,-104.3834 2571,-94.6043 2571,-86.0759"/>
<polygon fill="#191970" stroke="#191970" points="2574.5001,-85.8469 2571,-75.8469 2567.5001,-85.847 2574.5001,-85.8469"/>
</g>
<!-- Node80&#45;&gt;Node6 -->
<g id="edge42" class="edge">
<title>Node80&#45;&gt;Node6</title>
<path fill="none" stroke="#191970" d="M1632.7023,-262.9026C1656.1392,-241.1887 1702.5123,-201.3067 1749,-179 1913.4935,-100.0694 2129.7017,-76.2714 2244.4431,-69.0965"/>
<polygon fill="#191970" stroke="#191970" points="2244.7778,-72.5829 2254.5507,-68.4913 2244.3593,-65.5954 2244.7778,-72.5829"/>
</g>
<!-- Node80&#45;&gt;Node19 -->
<g id="edge41" class="edge">
<title>Node80&#45;&gt;Node19</title>
<path fill="none" stroke="#191970" d="M1609.7778,-262.7322C1598.8512,-241.1743 1576.1528,-201.8946 1546,-179 1515.8837,-156.1332 1474.6105,-142.6434 1444.5024,-135.2469"/>
<polygon fill="#191970" stroke="#191970" points="1445.2863,-131.8359 1434.7521,-132.9674 1443.6927,-138.6521 1445.2863,-131.8359"/>
</g>
<!-- Node80&#45;&gt;Node76 -->
<g id="edge43" class="edge">
<title>Node80&#45;&gt;Node76</title>
<path fill="none" stroke="#191970" d="M1667.6304,-262.9517C1675.7409,-260.7935 1684.0723,-258.724 1692,-257 1793.1037,-235.013 1829.4935,-267.3458 1922,-221 1945.8848,-209.0337 1940.6095,-189.8987 1965,-179 2071.6203,-131.3576 2368.8275,-158.8832 2501.7198,-142.9175"/>
<polygon fill="#191970" stroke="#191970" points="2502.3152,-146.3692 2511.7653,-141.579 2501.3906,-139.4305 2502.3152,-146.3692"/>
</g>
<!-- Node82&#45;&gt;Node2 -->
<g id="edge47" class="edge">
<title>Node82&#45;&gt;Node2</title>
<path fill="none" stroke="#191970" d="M2133.7507,-402.1809C2134.2142,-391.9409 2134.7638,-378.1666 2135,-366 2135.2674,-352.2248 2136.1364,-348.7308 2135,-335 2133.6621,-318.8346 2130.3379,-315.1654 2129,-299 2127.4604,-280.3969 2125.5815,-275.351 2129,-257 2131.4437,-243.882 2136.7981,-229.8925 2141.6124,-219.0556"/>
<polygon fill="#191970" stroke="#191970" points="2144.8918,-220.3048 2145.9502,-209.7629 2138.5489,-217.3439 2144.8918,-220.3048"/>
</g>
<!-- Node82&#45;&gt;Node5 -->
<g id="edge48" class="edge">
<title>Node82&#45;&gt;Node5</title>
<path fill="none" stroke="#191970" d="M2073.3275,-412.8037C1998.7488,-405.9643 1876.3512,-391.2451 1839,-366 1742.9876,-301.1068 1731.1017,-142.0404 1729.968,-85.9643"/>
<polygon fill="#191970" stroke="#191970" points="1733.4645,-85.5962 1729.8629,-75.6324 1726.4649,-85.6675 1733.4645,-85.5962"/>
</g>
<!-- Node82&#45;&gt;Node6 -->
<g id="edge49" class="edge">
<title>Node82&#45;&gt;Node6</title>
<path fill="none" stroke="#191970" d="M2169.9304,-402.3993C2209.2531,-384.1882 2269.7611,-349.5823 2299,-299 2339.2845,-229.3092 2332.2321,-128.1608 2326.9508,-85.8115"/>
<polygon fill="#191970" stroke="#191970" points="2330.3938,-85.154 2325.5807,-75.7155 2323.4574,-86.0954 2330.3938,-85.154"/>
</g>
<!-- Node82&#45;&gt;Node47 -->
<g id="edge50" class="edge">
<title>Node82&#45;&gt;Node47</title>
<path fill="none" stroke="#191970" d="M2152.3258,-402.3416C2163.2365,-392.9047 2176.373,-379.9367 2185,-366 2198.3141,-344.4915 2206.2138,-316.202 2210.3271,-297.5781"/>
<polygon fill="#191970" stroke="#191970" points="2213.7898,-298.1151 2212.3688,-287.616 2206.9323,-296.7096 2213.7898,-298.1151"/>
</g>
<!-- Node83 -->
<g id="node25" class="node">
<title>Node83</title>
<g id="a_node25"><a xlink:href="Render_2Material_8hpp.html" target="_top" xlink:title="lug/Graphics/Render\l/Material.hpp">
<polygon fill="none" stroke="#ff0000" points="1985.5,-335.5 1985.5,-365.5 2104.5,-365.5 2104.5,-335.5 1985.5,-335.5"/>
<text text-anchor="start" x="1993.5" y="-353.5" font-family="Helvetica,sans-Serif" font-size="10.00" fill="#000000">lug/Graphics/Render</text>
<text text-anchor="middle" x="2045" y="-342.5" font-family="Helvetica,sans-Serif" font-size="10.00" fill="#000000">/Material.hpp</text>
</a>
</g>
</g>
<!-- Node82&#45;&gt;Node83 -->
<g id="edge51" class="edge">
<title>Node82&#45;&gt;Node83</title>
<path fill="none" stroke="#191970" d="M2113.0314,-402.2967C2101.2175,-393.302 2086.0694,-381.7687 2073.0673,-371.8694"/>
<polygon fill="#191970" stroke="#191970" points="2074.9662,-368.9162 2064.8895,-365.6432 2070.7257,-374.4857 2074.9662,-368.9162"/>
</g>
<!-- Node36 -->
<g id="node26" class="node">
<title>Node36</title>
<g id="a_node26"><a xlink:href="Vector_8hpp.html" target="_top" xlink:title="lug/Math/Vector.hpp">
<polygon fill="none" stroke="#ff0000" points="1924.5,-268.5 1924.5,-287.5 2043.5,-287.5 2043.5,-268.5 1924.5,-268.5"/>
<text text-anchor="middle" x="1984" y="-275.5" font-family="Helvetica,sans-Serif" font-size="10.00" fill="#000000">lug/Math/Vector.hpp</text>
</a>
</g>
</g>
<!-- Node82&#45;&gt;Node36 -->
<g id="edge57" class="edge">
<title>Node82&#45;&gt;Node36</title>
<path fill="none" stroke="#191970" d="M2133.1856,-402.3321C2132.616,-384.2958 2129.0691,-354.2224 2113,-335 2100.851,-320.467 2056.264,-302.6794 2022.8882,-290.8803"/>
<polygon fill="#191970" stroke="#191970" points="2023.9689,-287.5505 2013.374,-287.5701 2021.6686,-294.1618 2023.9689,-287.5505"/>
</g>
<!-- Node85 -->
<g id="node27" class="node">
<title>Node85</title>
<g id="a_node27"><a xlink:href="Render_2Mesh_8inl.html" target="_top" xlink:title="lug/Graphics/Render\l/Mesh.inl">
<polygon fill="none" stroke="#000000" points="1848.5,-335.5 1848.5,-365.5 1967.5,-365.5 1967.5,-335.5 1848.5,-335.5"/>
<text text-anchor="start" x="1856.5" y="-353.5" font-family="Helvetica,sans-Serif" font-size="10.00" fill="#000000">lug/Graphics/Render</text>
<text text-anchor="middle" x="1908" y="-342.5" font-family="Helvetica,sans-Serif" font-size="10.00" fill="#000000">/Mesh.inl</text>
</a>
</g>
</g>
<!-- Node82&#45;&gt;Node85 -->
<g id="edge58" class="edge">
<title>Node82&#45;&gt;Node85</title>
<path fill="none" stroke="#191970" d="M2082.5056,-402.4639C2048.7528,-392.4131 2004.1708,-379.1375 1968.5175,-368.5208"/>
<polygon fill="#191970" stroke="#191970" points="1969.2976,-365.1013 1958.7146,-365.6017 1967.2998,-371.8101 1969.2976,-365.1013"/>
</g>
<!-- Node83&#45;&gt;Node4 -->
<g id="edge52" class="edge">
<title>Node83&#45;&gt;Node4</title>
<path fill="none" stroke="#191970" d="M1985.9115,-335.4652C1941.9555,-323.6861 1888.4903,-307.8572 1882,-299 1870.9667,-283.9431 1871.9395,-272.7236 1882,-257 1902.5777,-224.8389 1926.0342,-238.4385 1960,-221 1963.8439,-219.0265 1967.8631,-216.8584 1971.7768,-214.6876"/>
<polygon fill="#191970" stroke="#191970" points="1973.6024,-217.6761 1980.5851,-209.7079 1970.1574,-211.5825 1973.6024,-217.6761"/>
</g>
<!-- Node83&#45;&gt;Node6 -->
<g id="edge53" class="edge">
<title>Node83&#45;&gt;Node6</title>
<path fill="none" stroke="#191970" d="M1989.737,-335.3952C1958.5461,-325.6312 1924.0386,-312.3027 1915,-299 1904.5093,-283.5601 1903.9847,-272.0701 1915,-257 1946.104,-214.4464 1983.4941,-249.24 2028,-221 2049.5088,-207.3522 2045.2083,-192.1913 2067,-179 2119.0207,-147.5099 2143.2105,-167.1932 2199,-143 2237.7749,-126.1852 2278.7619,-98.8482 2302.8277,-81.6745"/>
<polygon fill="#191970" stroke="#191970" points="2305.13,-84.3289 2311.1828,-75.6332 2301.0284,-78.6564 2305.13,-84.3289"/>
</g>
<!-- Node83&#45;&gt;Node47 -->
<g id="edge54" class="edge">
<title>Node83&#45;&gt;Node47</title>
<path fill="none" stroke="#191970" d="M2080.0169,-335.478C2110.0714,-322.5848 2153.0208,-304.1597 2182.1279,-291.6729"/>
<polygon fill="#191970" stroke="#191970" points="2183.6196,-294.8416 2191.4298,-287.6825 2180.8598,-288.4085 2183.6196,-294.8416"/>
</g>
<!-- Node83&#45;&gt;Node36 -->
<g id="edge55" class="edge">
<title>Node83&#45;&gt;Node36</title>
<path fill="none" stroke="#191970" d="M2032.3608,-335.478C2022.607,-323.8854 2009.0906,-307.8209 1998.8263,-295.6214"/>
<polygon fill="#191970" stroke="#191970" points="2001.4423,-293.2942 1992.326,-287.8957 1996.086,-297.8009 2001.4423,-293.2942"/>
</g>
<!-- Node36&#45;&gt;Node2 -->
<g id="edge56" class="edge">
<title>Node36&#45;&gt;Node2</title>
<path fill="none" stroke="#191970" d="M2009.2681,-268.4684C2036.4088,-257.9331 2080.5507,-239.9339 2117,-221 2120.569,-219.146 2124.2651,-217.0549 2127.8476,-214.9291"/>
<polygon fill="#191970" stroke="#191970" points="2129.6918,-217.9039 2136.3821,-209.6887 2126.029,-211.9387 2129.6918,-217.9039"/>
</g>
<!-- Node86&#45;&gt;Node5 -->
<g id="edge61" class="edge">
<title>Node86&#45;&gt;Node5</title>
<path fill="none" stroke="#191970" d="M478.5687,-257.4476C482.2718,-235.6118 491.0151,-201.2361 511,-179 557.1104,-127.6955 584.0707,-128.697 651,-112 754.2389,-86.2447 1522.7576,-69.9967 1695.5662,-66.6457"/>
<polygon fill="#191970" stroke="#191970" points="1695.6948,-70.144 1705.6256,-66.4523 1695.5601,-63.1453 1695.6948,-70.144"/>
</g>
<!-- Node86&#45;&gt;Node19 -->
<g id="edge60" class="edge">
<title>Node86&#45;&gt;Node19</title>
<path fill="none" stroke="#191970" d="M487.2821,-257.3633C501.4812,-233.7059 528.2728,-196.0095 563,-179 635.4814,-143.4984 1207.4393,-130.9512 1364.9595,-128.1501"/>
<polygon fill="#191970" stroke="#191970" points="1365.2126,-131.6464 1375.15,-127.9723 1365.0905,-124.6474 1365.2126,-131.6464"/>
</g>
<!-- Node86&#45;&gt;Node75 -->
<g id="edge62" class="edge">
<title>Node86&#45;&gt;Node75</title>
<path fill="none" stroke="#191970" d="M551.4257,-258.4687C554.313,-257.9358 557.1784,-257.4429 560,-257 798.0607,-219.6285 860.8738,-241.2226 1101,-221 1138.0056,-217.8835 1178.6894,-213.8627 1214.0572,-210.1749"/>
<polygon fill="#191970" stroke="#191970" points="1214.7865,-213.6177 1224.3668,-209.0937 1214.0563,-206.6558 1214.7865,-213.6177"/>
</g>
<!-- Node87 -->
<g id="node29" class="node">
<title>Node87</title>
<g id="a_node29"><a xlink:href="Builder_2DescriptorSetLayout_8inl.html" target="_top" xlink:title="lug/Graphics/Vulkan\l/API/Builder/DescriptorSet\lLayout.inl">
<polygon fill="none" stroke="#000000" points="264,-179.5 264,-220.5 414,-220.5 414,-179.5 264,-179.5"/>
<text text-anchor="start" x="272" y="-208.5" font-family="Helvetica,sans-Serif" font-size="10.00" fill="#000000">lug/Graphics/Vulkan</text>
<text text-anchor="start" x="272" y="-197.5" font-family="Helvetica,sans-Serif" font-size="10.00" fill="#000000">/API/Builder/DescriptorSet</text>
<text text-anchor="middle" x="339" y="-186.5" font-family="Helvetica,sans-Serif" font-size="10.00" fill="#000000">Layout.inl</text>
</a>
</g>
</g>
<!-- Node86&#45;&gt;Node87 -->
<g id="edge63" class="edge">
<title>Node86&#45;&gt;Node87</title>
<path fill="none" stroke="#191970" d="M439.6462,-257.3022C422.6351,-247.617 402.2032,-235.9843 384.2065,-225.738"/>
<polygon fill="#191970" stroke="#191970" points="385.4703,-222.43 375.0483,-220.5239 382.0068,-228.5132 385.4703,-222.43"/>
</g>
<!-- Node88&#45;&gt;Node4 -->
<g id="edge67" class="edge">
<title>Node88&#45;&gt;Node4</title>
<path fill="none" stroke="#191970" d="M1445.1345,-406.2306C1500.2838,-398.1177 1571.0626,-385.1773 1632,-366 1743.3632,-330.9535 1763.9336,-303.5489 1871,-257 1909.3762,-240.3153 1920.1957,-238.9428 1958,-221 1962.2573,-218.9794 1966.7113,-216.7228 1971.0237,-214.459"/>
<polygon fill="#191970" stroke="#191970" points="1972.9532,-217.3956 1980.1069,-209.5805 1969.6411,-211.2287 1972.9532,-217.3956"/>
</g>
<!-- Node88&#45;&gt;Node5 -->
<g id="edge68" class="edge">
<title>Node88&#45;&gt;Node5</title>
<path fill="none" stroke="#191970" d="M1333.3032,-402.4669C1320.8679,-392.3477 1304.2612,-378.6005 1290,-366 1274.9199,-352.676 1274.1898,-345.4618 1257,-335 1215.9337,-310.0067 1182.7662,-338.2447 1155,-299 1137.2023,-273.8448 1169.7319,-184.023 1174,-179 1242.285,-98.6385 1585.3055,-73.6547 1695.7104,-67.631"/>
<polygon fill="#191970" stroke="#191970" points="1696.1455,-71.113 1705.9472,-67.091 1695.7767,-64.1228 1696.1455,-71.113"/>
</g>
<!-- Node88&#45;&gt;Node9 -->
<g id="edge66" class="edge">
<title>Node88&#45;&gt;Node9</title>
<path fill="none" stroke="#191970" d="M1445.0477,-409.5192C1513.0297,-402.1702 1606.9327,-388.8457 1687,-366 1759.9544,-345.1839 1776.318,-333.2753 1844,-299 1876.7083,-282.436 1881.5426,-271.9934 1915,-257 1963.1003,-235.4447 1977.8473,-237.2168 2028,-221 2040.6506,-216.9095 2054.688,-212.3102 2066.3852,-208.4609"/>
<polygon fill="#191970" stroke="#191970" points="2067.5662,-211.7569 2075.9684,-205.3029 2065.3753,-205.1086 2067.5662,-211.7569"/>
</g>
<!-- Node88&#45;&gt;Node73 -->
<g id="edge75" class="edge">
<title>Node88&#45;&gt;Node73</title>
<path fill="none" stroke="#191970" d="M1391.7223,-402.4639C1417.7071,-392.6278 1451.8507,-379.7034 1479.5855,-369.2049"/>
<polygon fill="#191970" stroke="#191970" points="1480.9912,-372.4153 1489.1045,-365.6017 1478.513,-365.8686 1480.9912,-372.4153"/>
</g>
<!-- Node88&#45;&gt;Node74 -->
<g id="edge76" class="edge">
<title>Node88&#45;&gt;Node74</title>
<path fill="none" stroke="#191970" d="M1350.7446,-402.4271C1348.6133,-384.7556 1342.9391,-355.3058 1328,-335 1316.8195,-319.803 1300.281,-307.4623 1284.6861,-298.1999"/>
<polygon fill="#191970" stroke="#191970" points="1286.0894,-294.9729 1275.6607,-293.1038 1282.6476,-301.0684 1286.0894,-294.9729"/>
</g>
<!-- Node88&#45;&gt;Node19 -->
<g id="edge65" class="edge">
<title>Node88&#45;&gt;Node19</title>
<path fill="none" stroke="#191970" d="M1344.551,-402.3297C1334.6404,-383.717 1315.3753,-352.486 1290,-335 1242.3946,-302.1954 1199.7664,-345.1922 1165,-299 1153.7748,-284.0856 1159.7514,-274.9136 1165,-257 1176.5782,-217.4836 1181.7935,-203.3502 1215,-179 1238.8005,-161.5472 1316.9696,-144.2025 1365.3125,-134.7641"/>
<polygon fill="#191970" stroke="#191970" points="1365.9864,-138.1987 1375.1453,-132.8729 1364.6642,-131.3247 1365.9864,-138.1987"/>
</g>
<!-- Node88&#45;&gt;Node80 -->
<g id="edge77" class="edge">
<title>Node88&#45;&gt;Node80</title>
<path fill="none" stroke="#191970" d="M1445.0621,-404.591C1514.6967,-394.0121 1599.7795,-378.7598 1611,-366 1625.846,-349.1173 1625.6374,-322.6566 1622.7587,-303.1561"/>
<polygon fill="#191970" stroke="#191970" points="1626.1735,-302.3688 1620.9634,-293.1435 1619.2833,-303.6043 1626.1735,-302.3688"/>
</g>
<!-- Node88&#45;&gt;Node89 -->
<g id="edge69" class="edge">
<title>Node88&#45;&gt;Node89</title>
<path fill="none" stroke="#191970" d="M1260.7552,-402.4521C1202.8483,-392.6576 1126.3966,-379.2757 1059,-366 944.2825,-343.403 811.9735,-313.8359 731.1717,-295.3803"/>
<polygon fill="#191970" stroke="#191970" points="731.6208,-291.8927 721.0921,-293.0747 730.0598,-298.7164 731.6208,-291.8927"/>
</g>
<!-- Node91 -->
<g id="node33" class="node">
<title>Node91</title>
<g id="a_node33"><a xlink:href="Logger_8hpp.html" target="_top" xlink:title="lug/System/Logger/Logger.hpp">
<polygon fill="none" stroke="#ff0000" points="1328,-268.5 1328,-287.5 1500,-287.5 1500,-268.5 1328,-268.5"/>
<text text-anchor="middle" x="1414" y="-275.5" font-family="Helvetica,sans-Serif" font-size="10.00" fill="#000000">lug/System/Logger/Logger.hpp</text>
</a>
</g>
</g>
<!-- Node88&#45;&gt;Node91 -->
<g id="edge78" class="edge">
<title>Node88&#45;&gt;Node91</title>
<path fill="none" stroke="#191970" d="M1358.7531,-402.3055C1370.1076,-376.758 1393,-325.25 1405.4557,-297.2247"/>
<polygon fill="#191970" stroke="#191970" points="1408.8095,-298.2963 1409.6726,-287.7366 1402.4128,-295.4532 1408.8095,-298.2963"/>
</g>
<!-- Node98 -->
<g id="node35" class="node">
<title>Node98</title>
<g id="a_node35"><a xlink:href="GraphicsPipeline_8inl.html" target="_top" xlink:title="lug/Graphics/Vulkan\l/API/Builder/GraphicsPipeline.inl">
<polygon fill="none" stroke="#000000" points="1068,-335.5 1068,-365.5 1248,-365.5 1248,-335.5 1068,-335.5"/>
<text text-anchor="start" x="1076" y="-353.5" font-family="Helvetica,sans-Serif" font-size="10.00" fill="#000000">lug/Graphics/Vulkan</text>
<text text-anchor="middle" x="1158" y="-342.5" font-family="Helvetica,sans-Serif" font-size="10.00" fill="#000000">/API/Builder/GraphicsPipeline.inl</text>
</a>
</g>
</g>
<!-- Node88&#45;&gt;Node98 -->
<g id="edge84" class="edge">
<title>Node88&#45;&gt;Node98</title>
<path fill="none" stroke="#191970" d="M1308.4626,-402.4639C1279.7333,-392.5419 1241.9047,-379.4774 1211.3656,-368.9304"/>
<polygon fill="#191970" stroke="#191970" points="1212.322,-365.5579 1201.7273,-365.6017 1210.0369,-372.1744 1212.322,-365.5579"/>
</g>
<!-- Node89&#45;&gt;Node5 -->
<g id="edge71" class="edge">
<title>Node89&#45;&gt;Node5</title>
<path fill="none" stroke="#191970" d="M613.0951,-262.9332C594.1813,-253.8992 573.8254,-240.3318 563,-221 553.8797,-204.7131 550.9699,-193.2731 563,-179 638.0021,-90.0142 1510.3259,-69.8372 1695.5615,-66.5454"/>
<polygon fill="#191970" stroke="#191970" points="1695.8637,-70.0408 1705.8017,-66.3683 1695.7426,-63.0418 1695.8637,-70.0408"/>
</g>
<!-- Node89&#45;&gt;Node19 -->
<g id="edge70" class="edge">
<title>Node89&#45;&gt;Node19</title>
<path fill="none" stroke="#191970" d="M620.5986,-262.802C603.514,-253.4375 584.6649,-239.6194 575,-221 566.4001,-204.4324 562.2159,-192.6019 575,-179 602.3627,-149.8869 1203.1404,-132.612 1365.0889,-128.4731"/>
<polygon fill="#191970" stroke="#191970" points="1365.2026,-131.9714 1375.1108,-128.2195 1365.0254,-124.9736 1365.2026,-131.9714"/>
</g>
<!-- Node90 -->
<g id="node32" class="node">
<title>Node90</title>
<g id="a_node32"><a xlink:href="ShaderModule_8hpp.html" target="_top" xlink:title="lug/Graphics/Vulkan\l/API/ShaderModule.hpp">
<polygon fill="none" stroke="#000000" points="584,-185 584,-215 718,-215 718,-185 584,-185"/>
<text text-anchor="start" x="592" y="-203" font-family="Helvetica,sans-Serif" font-size="10.00" fill="#000000">lug/Graphics/Vulkan</text>
<text text-anchor="middle" x="651" y="-192" font-family="Helvetica,sans-Serif" font-size="10.00" fill="#000000">/API/ShaderModule.hpp</text>
</a>
</g>
</g>
<!-- Node89&#45;&gt;Node90 -->
<g id="edge72" class="edge">
<title>Node89&#45;&gt;Node90</title>
<path fill="none" stroke="#191970" d="M655.0359,-262.9608C654.3555,-252.3466 653.4273,-237.8663 652.6326,-225.4685"/>
<polygon fill="#191970" stroke="#191970" points="656.1108,-225.0147 651.9782,-215.2592 649.1251,-225.4626 656.1108,-225.0147"/>
</g>
<!-- Node90&#45;&gt;Node6 -->
<g id="edge73" class="edge">
<title>Node90&#45;&gt;Node6</title>
<path fill="none" stroke="#191970" d="M701.0167,-184.9658C709.6278,-182.7269 718.5311,-180.6282 727,-179 992.6673,-127.923 1062.2965,-133.1654 1332,-112 1670.9813,-85.3979 2076.4238,-72.4827 2244.7366,-67.9543"/>
<polygon fill="#191970" stroke="#191970" points="2244.8492,-71.4526 2254.7523,-67.6872 2244.6625,-64.4551 2244.8492,-71.4526"/>
</g>
<!-- Node90&#45;&gt;Node76 -->
<g id="edge74" class="edge">
<title>Node90&#45;&gt;Node76</title>
<path fill="none" stroke="#191970" d="M698.4516,-184.938C707.8245,-182.5185 717.6537,-180.3641 727,-179 1114.3669,-122.4632 2094.7419,-189.9753 2501.69,-142.9492"/>
<polygon fill="#191970" stroke="#191970" points="2502.2728,-146.4046 2511.7875,-141.7441 2501.4432,-139.4539 2502.2728,-146.4046"/>
</g>
<!-- Node91&#45;&gt;Node4 -->
<g id="edge81" class="edge">
<title>Node91&#45;&gt;Node4</title>
<path fill="none" stroke="#191970" d="M1469.5434,-268.4567C1493.3471,-264.5676 1521.4904,-260.2353 1547,-257 1713.1023,-235.9336 1757.4044,-251.693 1922,-221 1936.0547,-218.3791 1951.2938,-214.3409 1964.3412,-210.5031"/>
<polygon fill="#191970" stroke="#191970" points="1965.7126,-213.745 1974.2707,-207.4992 1963.6856,-207.0449 1965.7126,-213.745"/>
</g>
<!-- Node91&#45;&gt;Node9 -->
<g id="edge80" class="edge">
<title>Node91&#45;&gt;Node9</title>
<path fill="none" stroke="#191970" d="M1467.8958,-268.4627C1492.0292,-264.4577 1520.8773,-260.0347 1547,-257 1759.9436,-232.262 1817.7239,-262.724 2028,-221 2040.9525,-218.4299 2054.9308,-214.0412 2066.5097,-209.9383"/>
<polygon fill="#191970" stroke="#191970" points="2067.8014,-213.1925 2075.9814,-206.4592 2065.3878,-206.6218 2067.8014,-213.1925"/>
</g>
<!-- Node91&#45;&gt;Node19 -->
<g id="edge79" class="edge">
<title>Node91&#45;&gt;Node19</title>
<path fill="none" stroke="#191970" d="M1418.435,-268.36C1426.0315,-250.5613 1439.9779,-211.3985 1432,-179 1429.1035,-167.2371 1422.9898,-155.186 1417.3116,-145.7015"/>
<polygon fill="#191970" stroke="#191970" points="1420.221,-143.7539 1411.9137,-137.1783 1414.3072,-147.4992 1420.221,-143.7539"/>
</g>
<!-- Node65 -->
<g id="node34" class="node">
<title>Node65</title>
<g id="a_node34"><a xlink:href="System_2Export_8hpp.html" target="_top" xlink:title="lug/System/Export.hpp">
<polygon fill="none" stroke="#000000" points="960,-190.5 960,-209.5 1092,-209.5 1092,-190.5 960,-190.5"/>
<text text-anchor="middle" x="1026" y="-197.5" font-family="Helvetica,sans-Serif" font-size="10.00" fill="#000000">lug/System/Export.hpp</text>
</a>
</g>
</g>
<!-- Node91&#45;&gt;Node65 -->
<g id="edge82" class="edge">
<title>Node91&#45;&gt;Node65</title>
<path fill="none" stroke="#191970" d="M1371.9597,-268.466C1355.4669,-264.7888 1336.365,-260.6078 1319,-257 1239.0209,-240.3835 1146.4466,-222.6189 1087.1114,-211.4202"/>
<polygon fill="#191970" stroke="#191970" points="1087.6314,-207.9566 1077.1562,-209.544 1086.335,-214.8355 1087.6314,-207.9566"/>
</g>
<!-- Node65&#45;&gt;Node7 -->
<g id="edge83" class="edge">
<title>Node65&#45;&gt;Node7</title>
<path fill="none" stroke="#191970" d="M1032.388,-190.4801C1044.7014,-172.7802 1073.4027,-134.5604 1106,-112 1171.4005,-66.7367 1259.799,-37.337 1314.0306,-22.2268"/>
<polygon fill="#191970" stroke="#191970" points="1315.0227,-25.5841 1323.7459,-19.5711 1313.1769,-18.8318 1315.0227,-25.5841"/>
</g>
<!-- Node99&#45;&gt;Node5 -->
<g id="edge87" class="edge">
<title>Node99&#45;&gt;Node5</title>
<path fill="none" stroke="#191970" d="M229.0335,-335.4066C214.9924,-302.4739 187.8232,-223.559 227,-179 323.5194,-69.2206 403.9109,-129.7949 549,-112 779.5423,-83.7244 1525.9616,-69.4843 1695.519,-66.5688"/>
<polygon fill="#191970" stroke="#191970" points="1695.6825,-70.0667 1705.6214,-66.3969 1695.5633,-63.0677 1695.6825,-70.0667"/>
</g>
<!-- Node99&#45;&gt;Node74 -->
<g id="edge88" class="edge">
<title>Node99&#45;&gt;Node74</title>
<path fill="none" stroke="#191970" d="M324.2204,-346.2183C473.5712,-338.6771 785.6778,-321.6544 1049,-299 1086.7461,-295.7526 1128.5537,-291.3083 1163.5791,-287.3443"/>
<polygon fill="#191970" stroke="#191970" points="1164.2034,-290.7959 1173.7428,-286.186 1163.4108,-283.8409 1164.2034,-290.7959"/>
</g>
<!-- Node99&#45;&gt;Node19 -->
<g id="edge86" class="edge">
<title>Node99&#45;&gt;Node19</title>
<path fill="none" stroke="#191970" d="M232.052,-335.3497C224.271,-301.5923 211.2689,-219.9531 255,-179 296.3603,-140.2671 1167.257,-129.741 1365.2117,-127.845"/>
<polygon fill="#191970" stroke="#191970" points="1365.4787,-131.3427 1375.4454,-127.749 1365.4129,-124.343 1365.4787,-131.3427"/>
</g>
<!-- Node100 -->
<g id="node37" class="node">
<title>Node100</title>
<g id="a_node37"><a xlink:href="Builder_2PipelineLayout_8inl.html" target="_top" xlink:title="lug/Graphics/Vulkan\l/API/Builder/PipelineLayout.inl">
<polygon fill="none" stroke="#000000" points="0,-263 0,-293 170,-293 170,-263 0,-263"/>
<text text-anchor="start" x="8" y="-281" font-family="Helvetica,sans-Serif" font-size="10.00" fill="#000000">lug/Graphics/Vulkan</text>
<text text-anchor="middle" x="85" y="-270" font-family="Helvetica,sans-Serif" font-size="10.00" fill="#000000">/API/Builder/PipelineLayout.inl</text>
</a>
</g>
</g>
<!-- Node99&#45;&gt;Node100 -->
<g id="edge89" class="edge">
<title>Node99&#45;&gt;Node100</title>
<path fill="none" stroke="#191970" d="M204.7127,-335.478C181.7331,-324.4447 150.3164,-309.3605 125.4329,-297.4132"/>
<polygon fill="#191970" stroke="#191970" points="126.7769,-294.176 116.2472,-293.0028 123.7471,-300.4863 126.7769,-294.176"/>
</g>
<!-- Node101&#45;&gt;Node80 -->
<g id="edge92" class="edge">
<title>Node101&#45;&gt;Node80</title>
<path fill="none" stroke="#191970" d="M1472.5044,-536.3221C1514.6203,-508.6026 1599.3527,-445.2724 1632,-366 1640.3766,-345.6603 1634.8539,-320.8241 1628.2694,-302.7295"/>
<polygon fill="#191970" stroke="#191970" points="1631.4236,-301.1896 1624.4755,-293.1912 1624.9192,-303.7767 1631.4236,-301.1896"/>
</g>
<!-- Node102 -->
<g id="node39" class="node">
<title>Node102</title>
<polygon fill="none" stroke="#bfbfbf" points="1432,-475 1432,-494 1464,-494 1464,-475 1432,-475"/>
<text text-anchor="middle" x="1448" y="-482" font-family="Helvetica,sans-Serif" font-size="10.00" fill="#000000">list</text>
</g>
<!-- Node101&#45;&gt;Node102 -->
<g id="edge91" class="edge">
<title>Node101&#45;&gt;Node102</title>
<path fill="none" stroke="#191970" d="M1448,-536.2967C1448,-526.7699 1448,-514.3954 1448,-504.1306"/>
<polygon fill="#191970" stroke="#191970" points="1451.5001,-504.0549 1448,-494.055 1444.5001,-504.055 1451.5001,-504.0549"/>
</g>
<!-- Node103&#45;&gt;Node1 -->
<g id="edge117" class="edge">
<title>Node103&#45;&gt;Node1</title>
<path fill="none" stroke="#191970" d="M3002.4828,-536.2771C2998.4926,-517.3076 2988.8043,-485.3956 2967,-469 2925.7482,-437.9811 2785.1208,-425.37 2698.1736,-420.4512"/>
<polygon fill="#191970" stroke="#191970" points="2698.2835,-416.9521 2688.1078,-419.9024 2697.9024,-423.9417 2698.2835,-416.9521"/>
</g>
<!-- Node103&#45;&gt;Node6 -->
<g id="edge98" class="edge">
<title>Node103&#45;&gt;Node6</title>
<path fill="none" stroke="#191970" d="M3024.5915,-536.3372C3035.6757,-526.8988 3049.0637,-513.9307 3058,-500 3138.6117,-374.3356 3246.2424,-298.6895 3157,-179 3094.6313,-95.3528 3034.6073,-130.9329 2932,-112 2881.3417,-102.6527 2556.2059,-80.9252 2403.2848,-71.0485"/>
<polygon fill="#191970" stroke="#191970" points="2403.2265,-67.5375 2393.0219,-70.3867 2402.776,-74.523 2403.2265,-67.5375"/>
</g>
<!-- Node103&#45;&gt;Node8 -->
<g id="edge99" class="edge">
<title>Node103&#45;&gt;Node8</title>
<path fill="none" stroke="#191970" d="M2945.9926,-544.7338C2835.5401,-530.724 2604.4225,-494.5971 2557,-433 2526.0047,-392.7402 2549.5958,-328.1988 2564.3933,-296.6204"/>
<polygon fill="#191970" stroke="#191970" points="2567.5565,-298.1191 2568.8083,-287.5985 2561.2689,-295.0422 2567.5565,-298.1191"/>
</g>
<!-- Node103&#45;&gt;Node14 -->
<g id="edge97" class="edge">
<title>Node103&#45;&gt;Node14</title>
<path fill="none" stroke="#191970" d="M3064.0988,-547.8077C3141.3067,-541.9324 3271.1259,-528.1222 3309,-500 3341.8737,-475.5907 3350,-458.445 3350,-417.5 3350,-417.5 3350,-417.5 3350,-200 3350,-159.9273 3353.4699,-154.2679 3221,-112 3111.6275,-77.1019 2767.1126,-68.6257 2629.0552,-66.6114"/>
<polygon fill="#191970" stroke="#191970" points="2628.7413,-63.1068 2618.6934,-66.4668 2628.6435,-70.1061 2628.7413,-63.1068"/>
</g>
<!-- Node103&#45;&gt;Node19 -->
<g id="edge96" class="edge">
<title>Node103&#45;&gt;Node19</title>
<path fill="none" stroke="#191970" d="M2945.7505,-550.0236C2757.0458,-545.0833 2171.5157,-527.855 1984,-500 1740.6849,-463.8561 1598.4247,-559.8536 1447,-366 1438.5186,-355.1421 1440.1258,-346.9404 1447,-335 1462.8979,-307.3854 1493.1021,-326.6146 1509,-299 1518.3134,-282.8227 1515.0815,-274.6482 1509,-257 1492.626,-209.4831 1450.3389,-166.6396 1425.0146,-144.1324"/>
<polygon fill="#191970" stroke="#191970" points="1426.9864,-141.2095 1417.1386,-137.3017 1422.4001,-146.4978 1426.9864,-141.2095"/>
</g>
<!-- Node103&#45;&gt;Node76 -->
<g id="edge123" class="edge">
<title>Node103&#45;&gt;Node76</title>
<path fill="none" stroke="#191970" d="M3064.0367,-549.5642C3139.6553,-545.6984 3264.3916,-534.1779 3293,-500 3301.8434,-489.4349 3298.5646,-481.604 3293,-469 3226.9268,-319.3424 3136.4564,-336.9003 3021,-221 3003.2342,-203.1659 3005.33,-190.6211 2983,-179 2924.889,-148.7574 2741.6104,-135.4983 2640.1931,-130.3513"/>
<polygon fill="#191970" stroke="#191970" points="2640.2028,-126.8476 2630.0421,-129.8493 2639.857,-133.839 2640.2028,-126.8476"/>
</g>
<!-- Node28 -->
<g id="node41" class="node">
<title>Node28</title>
<polygon fill="none" stroke="#bfbfbf" points="2908,-475 2908,-494 2958,-494 2958,-475 2908,-475"/>
<text text-anchor="middle" x="2933" y="-482" font-family="Helvetica,sans-Serif" font-size="10.00" fill="#000000">cstring</text>
</g>
<!-- Node103&#45;&gt;Node28 -->
<g id="edge95" class="edge">
<title>Node103&#45;&gt;Node28</title>
<path fill="none" stroke="#191970" d="M2988.6621,-536.2967C2977.3352,-525.7564 2962.2624,-511.7303 2950.6586,-500.9323"/>
<polygon fill="#191970" stroke="#191970" points="2952.9731,-498.3051 2943.268,-494.055 2948.2044,-503.4296 2952.9731,-498.3051"/>
</g>
<!-- Node104 -->
<g id="node42" class="node">
<title>Node104</title>
<g id="a_node42"><a xlink:href="Device_8hpp.html" target="_top" xlink:title="lug/Graphics/Vulkan\l/API/Device.hpp">
<polygon fill="none" stroke="#ff0000" points="3204,-185 3204,-215 3322,-215 3322,-185 3204,-185"/>
<text text-anchor="start" x="3212" y="-203" font-family="Helvetica,sans-Serif" font-size="10.00" fill="#000000">lug/Graphics/Vulkan</text>
<text text-anchor="middle" x="3263" y="-192" font-family="Helvetica,sans-Serif" font-size="10.00" fill="#000000">/API/Device.hpp</text>
</a>
</g>
</g>
<!-- Node103&#45;&gt;Node104 -->
<g id="edge100" class="edge">
<title>Node103&#45;&gt;Node104</title>
<path fill="none" stroke="#191970" d="M3054.0537,-536.4157C3074.5126,-528.2147 3097.3378,-516.3389 3114,-500 3197.086,-418.5258 3241.3195,-281.1259 3256.6747,-225.0088"/>
<polygon fill="#191970" stroke="#191970" points="3260.0933,-225.7724 3259.2865,-215.2083 3253.3294,-223.9698 3260.0933,-225.7724"/>
</g>
<!-- Node109 -->
<g id="node43" class="node">
<title>Node109</title>
<g id="a_node43"><a xlink:href="Instance_8hpp.html" target="_top" xlink:title="lug/Graphics/Vulkan\l/API/Instance.hpp">
<polygon fill="none" stroke="#ff0000" points="2856,-185 2856,-215 2974,-215 2974,-185 2856,-185"/>
<text text-anchor="start" x="2864" y="-203" font-family="Helvetica,sans-Serif" font-size="10.00" fill="#000000">lug/Graphics/Vulkan</text>
<text text-anchor="middle" x="2915" y="-192" font-family="Helvetica,sans-Serif" font-size="10.00" fill="#000000">/API/Instance.hpp</text>
</a>
</g>
</g>
<!-- Node103&#45;&gt;Node109 -->
<g id="edge103" class="edge">
<title>Node103&#45;&gt;Node109</title>
<path fill="none" stroke="#191970" d="M3008.5738,-536.3264C3014.0776,-511.5906 3024,-460.9687 3024,-417.5 3024,-417.5 3024,-417.5 3024,-350.5 3024,-295.9252 2976.4048,-247.7599 2944.116,-221.3636"/>
<polygon fill="#191970" stroke="#191970" points="2946.2812,-218.6136 2936.2751,-215.131 2941.9254,-224.0934 2946.2812,-218.6136"/>
</g>
<!-- Node111 -->
<g id="node44" class="node">
<title>Node111</title>
<g id="a_node44"><a xlink:href="Vulkan_2API_2Loader_8hpp.html" target="_top" xlink:title="lug/Graphics/Vulkan\l/API/Loader.hpp">
<polygon fill="none" stroke="#ff0000" points="3030,-185 3030,-215 3148,-215 3148,-185 3030,-185"/>
<text text-anchor="start" x="3038" y="-203" font-family="Helvetica,sans-Serif" font-size="10.00" fill="#000000">lug/Graphics/Vulkan</text>
<text text-anchor="middle" x="3089" y="-192" font-family="Helvetica,sans-Serif" font-size="10.00" fill="#000000">/API/Loader.hpp</text>
</a>
</g>
</g>
<!-- Node103&#45;&gt;Node111 -->
<g id="edge106" class="edge">
<title>Node103&#45;&gt;Node111</title>
<path fill="none" stroke="#191970" d="M3016.2614,-536.3118C3032.8729,-512.3594 3062,-463.7645 3062,-417.5 3062,-417.5 3062,-417.5 3062,-350.5 3062,-305.8163 3073.6734,-254.8261 3081.6689,-225.1418"/>
<polygon fill="#191970" stroke="#191970" points="3085.1206,-225.7922 3084.4198,-215.2206 3078.3751,-223.9218 3085.1206,-225.7922"/>
</g>
<!-- Node115 -->
<g id="node45" class="node">
<title>Node115</title>
<g id="a_node45"><a xlink:href="Vulkan_2Render_2Mesh_8hpp.html" target="_top" xlink:title="lug/Graphics/Vulkan\l/Render/Mesh.hpp">
<polygon fill="none" stroke="#ff0000" points="2379,-469.5 2379,-499.5 2497,-499.5 2497,-469.5 2379,-469.5"/>
<text text-anchor="start" x="2387" y="-487.5" font-family="Helvetica,sans-Serif" font-size="10.00" fill="#000000">lug/Graphics/Vulkan</text>
<text text-anchor="middle" x="2438" y="-476.5" font-family="Helvetica,sans-Serif" font-size="10.00" fill="#000000">/Render/Mesh.hpp</text>
</a>
</g>
</g>
<!-- Node103&#45;&gt;Node115 -->
<g id="edge109" class="edge">
<title>Node103&#45;&gt;Node115</title>
<path fill="none" stroke="#191970" d="M2945.9641,-546.552C2855.077,-538.625 2675.51,-521.736 2524,-500 2518.5562,-499.219 2512.9297,-498.3484 2507.2814,-497.4293"/>
<polygon fill="#191970" stroke="#191970" points="2507.5661,-493.9283 2497.1258,-495.7311 2506.4116,-500.8325 2507.5661,-493.9283"/>
</g>
<!-- Node122 -->
<g id="node46" class="node">
<title>Node122</title>
<g id="a_node46"><a xlink:href="Graphics_2Vulkan_2Render_2Window_8hpp.html" target="_top" xlink:title="lug/Graphics/Vulkan\l/Render/Window.hpp">
<polygon fill="none" stroke="#ff0000" points="1758,-185 1758,-215 1880,-215 1880,-185 1758,-185"/>
<text text-anchor="start" x="1766" y="-203" font-family="Helvetica,sans-Serif" font-size="10.00" fill="#000000">lug/Graphics/Vulkan</text>
<text text-anchor="middle" x="1819" y="-192" font-family="Helvetica,sans-Serif" font-size="10.00" fill="#000000">/Render/Window.hpp</text>
</a>
</g>
</g>
<!-- Node103&#45;&gt;Node122 -->
<g id="edge118" class="edge">
<title>Node103&#45;&gt;Node122</title>
<path fill="none" stroke="#191970" d="M2945.5989,-548.1495C2700.6779,-533.9499 1782,-476.7398 1782,-417.5 1782,-417.5 1782,-417.5 1782,-350.5 1782,-305.0101 1798.1375,-253.9643 1809.0976,-224.5414"/>
<polygon fill="#191970" stroke="#191970" points="1812.413,-225.6707 1812.7235,-215.0804 1805.8765,-223.1656 1812.413,-225.6707"/>
</g>
<!-- Node160 -->
<g id="node47" class="node">
<title>Node160</title>
<g id="a_node47"><a xlink:href="Vulkan_2Renderer_8inl.html" target="_top" xlink:title="lug/Graphics/Vulkan\l/Renderer.inl">
<polygon fill="none" stroke="#000000" points="3166,-469.5 3166,-499.5 3284,-499.5 3284,-469.5 3166,-469.5"/>
<text text-anchor="start" x="3174" y="-487.5" font-family="Helvetica,sans-Serif" font-size="10.00" fill="#000000">lug/Graphics/Vulkan</text>
<text text-anchor="middle" x="3225" y="-476.5" font-family="Helvetica,sans-Serif" font-size="10.00" fill="#000000">/Renderer.inl</text>
</a>
</g>
</g>
<!-- Node103&#45;&gt;Node160 -->
<g id="edge124" class="edge">
<title>Node103&#45;&gt;Node160</title>
<path fill="none" stroke="#191970" d="M3054.3723,-536.4639C3087.375,-526.4131 3130.9663,-513.1375 3165.8273,-502.5208"/>
<polygon fill="#191970" stroke="#191970" points="3166.8658,-505.8633 3175.4124,-499.6017 3164.8265,-499.1669 3166.8658,-505.8633"/>
</g>
<!-- Node104&#45;&gt;Node6 -->
<g id="edge101" class="edge">
<title>Node104&#45;&gt;Node6</title>
<path fill="none" stroke="#191970" d="M3255.5915,-184.8886C3244.5311,-164.2127 3221.5709,-127.8659 3190,-112 3188.9065,-111.4505 2617.3893,-81.4002 2403.5197,-70.1723"/>
<polygon fill="#191970" stroke="#191970" points="2403.4735,-66.6651 2393.3038,-69.636 2403.1065,-73.6555 2403.4735,-66.6651"/>
</g>
<!-- Node104&#45;&gt;Node76 -->
<g id="edge102" class="edge">
<title>Node104&#45;&gt;Node76</title>
<path fill="none" stroke="#191970" d="M3203.7667,-187.0928C3188.5783,-184.1063 3172.2296,-181.1713 3157,-179 2971.3919,-152.5371 2750.6418,-137.5443 2640.5967,-131.1793"/>
<polygon fill="#191970" stroke="#191970" points="2640.4813,-127.667 2630.2977,-130.5901 2640.0814,-134.6556 2640.4813,-127.667"/>
</g>
<!-- Node109&#45;&gt;Node6 -->
<g id="edge104" class="edge">
<title>Node109&#45;&gt;Node6</title>
<path fill="none" stroke="#191970" d="M2907.3226,-184.6972C2896.0969,-164.1473 2873.1086,-128.3315 2842,-112 2822.9055,-101.9757 2543.6891,-81.2857 2403.3297,-71.4385"/>
<polygon fill="#191970" stroke="#191970" points="2403.2792,-67.9265 2393.0593,-70.7199 2402.7906,-74.9094 2403.2792,-67.9265"/>
</g>
<!-- Node109&#45;&gt;Node76 -->
<g id="edge105" class="edge">
<title>Node109&#45;&gt;Node76</title>
<path fill="none" stroke="#191970" d="M2855.8643,-187.5368C2795.9643,-174.9125 2703.3672,-155.3971 2640.1165,-142.0667"/>
<polygon fill="#191970" stroke="#191970" points="2640.7336,-138.6199 2630.2267,-139.9824 2639.2899,-145.4695 2640.7336,-138.6199"/>
</g>
<!-- Node111&#45;&gt;Node6 -->
<g id="edge107" class="edge">
<title>Node111&#45;&gt;Node6</title>
<path fill="none" stroke="#191970" d="M3060.2418,-184.9765C3019.7068,-164.5794 2942.8951,-128.7519 2873,-112 2828.565,-101.3502 2544.5662,-80.9685 2403.4106,-71.3179"/>
<polygon fill="#191970" stroke="#191970" points="2403.3027,-67.8025 2393.0877,-70.6138 2402.8263,-74.7863 2403.3027,-67.8025"/>
</g>
<!-- Node111&#45;&gt;Node76 -->
<g id="edge108" class="edge">
<title>Node111&#45;&gt;Node76</title>
<path fill="none" stroke="#191970" d="M3040.9778,-184.9714C3032.7043,-182.7319 3024.1464,-180.6315 3016,-179 2884.5132,-152.6661 2728.2768,-138.443 2640.2775,-131.9629"/>
<polygon fill="#191970" stroke="#191970" points="2640.3783,-128.4611 2630.1515,-131.2293 2639.8724,-135.4428 2640.3783,-128.4611"/>
</g>
<!-- Node115&#45;&gt;Node1 -->
<g id="edge115" class="edge">
<title>Node115&#45;&gt;Node1</title>
<path fill="none" stroke="#191970" d="M2480.4153,-469.4639C2508.283,-459.5849 2544.9389,-446.5905 2574.623,-436.0675"/>
<polygon fill="#191970" stroke="#191970" points="2576.1439,-439.2418 2584.3997,-432.6017 2573.805,-432.6441 2576.1439,-439.2418"/>
</g>
<!-- Node115&#45;&gt;Node5 -->
<g id="edge112" class="edge">
<title>Node115&#45;&gt;Node5</title>
<path fill="none" stroke="#191970" d="M2433.6733,-469.3135C2428.7062,-452.5436 2419.9508,-424.8872 2410,-402 2380.4803,-334.104 2382.1307,-307.5089 2328,-257 2301.8418,-232.592 2284.0461,-243.2129 2256,-221 2236.952,-205.9137 2242.0562,-191.1266 2221,-179 2138.5614,-131.5222 2102.8673,-163.638 2010,-143 1920.2594,-123.0568 1816.3036,-92.4585 1763.9123,-76.5019"/>
<polygon fill="#191970" stroke="#191970" points="1764.7275,-73.0913 1754.1411,-73.5134 1762.6801,-79.7852 1764.7275,-73.0913"/>
</g>
<!-- Node115&#45;&gt;Node6 -->
<g id="edge113" class="edge">
<title>Node115&#45;&gt;Node6</title>
<path fill="none" stroke="#191970" d="M2497.1363,-480.2871C2594.1253,-472.8325 2782.4733,-455.9156 2845,-433 2904.3288,-411.2564 2962.2004,-396.5714 2948,-335 2939.3339,-297.4246 2936.3555,-285.1496 2910,-257 2887.959,-233.4586 2874,-238.6352 2847,-221 2778.904,-176.5226 2775.536,-142.16 2700,-112 2647.7008,-91.1179 2497.1016,-77.5886 2403.1304,-70.9198"/>
<polygon fill="#191970" stroke="#191970" points="2403.3111,-67.424 2393.0913,-70.2181 2402.8229,-74.4069 2403.3111,-67.424"/>
</g>
<!-- Node115&#45;&gt;Node9 -->
<g id="edge111" class="edge">
<title>Node115&#45;&gt;Node9</title>
<path fill="none" stroke="#191970" d="M2383.579,-469.394C2356.3483,-460.6986 2323.4325,-448.419 2296,-433 2213.0438,-386.373 2184.7662,-376.1099 2129,-299 2111.3179,-274.5504 2101.0851,-240.6613 2096.0275,-219.5486"/>
<polygon fill="#191970" stroke="#191970" points="2099.3859,-218.5281 2093.7889,-209.5323 2092.5544,-220.055 2099.3859,-218.5281"/>
</g>
<!-- Node115&#45;&gt;Node19 -->
<g id="edge110" class="edge">
<title>Node115&#45;&gt;Node19</title>
<path fill="none" stroke="#191970" d="M2429.4722,-469.4956C2402.1004,-421.4885 2317.1893,-273.8029 2299,-257 2273.0117,-232.9925 2256.7653,-241.5988 2228,-221 2206.2799,-205.4463 2209.3953,-189.8879 2185,-179 2117.1508,-148.7182 1594.5899,-132.5582 1444.931,-128.519"/>
<polygon fill="#191970" stroke="#191970" points="1444.9011,-125.0171 1434.8114,-128.2491 1444.7144,-132.0146 1444.9011,-125.0171"/>
</g>
<!-- Node115&#45;&gt;Node76 -->
<g id="edge116" class="edge">
<title>Node115&#45;&gt;Node76</title>
<path fill="none" stroke="#191970" d="M2497.3038,-479.386C2616.3079,-467.7408 2877.281,-434.7686 2929,-366 2967.5998,-314.6754 2908.8589,-272.8061 2733,-179 2703.9908,-163.526 2669.5502,-151.7668 2639.8993,-143.4197"/>
<polygon fill="#191970" stroke="#191970" points="2640.6116,-139.9859 2630.0421,-140.7193 2638.762,-146.7371 2640.6116,-139.9859"/>
</g>
<!-- Node115&#45;&gt;Node82 -->
<g id="edge114" class="edge">
<title>Node115&#45;&gt;Node82</title>
<path fill="none" stroke="#191970" d="M2378.8313,-471.5023C2328.3803,-460.4196 2255.786,-444.4727 2202.5622,-432.7809"/>
<polygon fill="#191970" stroke="#191970" points="2203.0421,-429.3029 2192.524,-430.5758 2201.5402,-436.1399 2203.0421,-429.3029"/>
</g>
<!-- Node122&#45;&gt;Node6 -->
<g id="edge120" class="edge">
<title>Node122&#45;&gt;Node6</title>
<path fill="none" stroke="#191970" d="M1869.2042,-184.962C1877.4448,-182.777 1885.9282,-180.6966 1894,-179 2005.1483,-155.6375 2037.7165,-173.9332 2147,-143 2176.1662,-134.7444 2252.5018,-99.7041 2294.775,-79.8578"/>
<polygon fill="#191970" stroke="#191970" points="2296.4389,-82.943 2303.9952,-75.5165 2293.4569,-76.6099 2296.4389,-82.943"/>
</g>
<!-- Node122&#45;&gt;Node16 -->
<g id="edge121" class="edge">
<title>Node122&#45;&gt;Node16</title>
<path fill="none" stroke="#191970" d="M1872.6663,-184.9629C1879.8384,-182.9564 1887.0975,-180.9271 1894,-179 1934.2119,-167.7733 1979.3507,-155.2069 2014.9741,-145.2979"/>
<polygon fill="#191970" stroke="#191970" points="2016.061,-148.6285 2024.7574,-142.5768 2014.1853,-141.8845 2016.061,-148.6285"/>
</g>
<!-- Node122&#45;&gt;Node19 -->
<g id="edge119" class="edge">
<title>Node122&#45;&gt;Node19</title>
<path fill="none" stroke="#191970" d="M1757.9129,-189.3024C1671.8391,-174.2291 1517.2813,-147.1628 1444.6965,-134.4517"/>
<polygon fill="#191970" stroke="#191970" points="1445.0538,-130.9611 1434.5999,-132.6836 1443.8463,-137.8561 1445.0538,-130.9611"/>
</g>
<!-- Node122&#45;&gt;Node76 -->
<g id="edge122" class="edge">
<title>Node122&#45;&gt;Node76</title>
<path fill="none" stroke="#191970" d="M1867.0705,-184.905C1875.9501,-182.5851 1885.1984,-180.4749 1894,-179 2158.1465,-134.7372 2232.7586,-180.1239 2501.7086,-143.0202"/>
<polygon fill="#191970" stroke="#191970" points="2502.3536,-146.4641 2511.7693,-141.6065 2501.3795,-139.5321 2502.3536,-146.4641"/>
</g>
<!-- Node161&#45;&gt;Node2 -->
<g id="edge127" class="edge">
<title>Node161&#45;&gt;Node2</title>
<path fill="none" stroke="#191970" d="M1040.0783,-268.9841C1077.4794,-264.7372 1123.5911,-259.9644 1165,-257 1376.1663,-241.8827 1914.4721,-282.6621 2117,-221 2121.5278,-219.6215 2126.0568,-217.4864 2130.2649,-215.0959"/>
<polygon fill="#191970" stroke="#191970" points="2132.275,-217.9655 2138.8394,-209.6492 2128.5217,-212.0568 2132.275,-217.9655"/>
</g>
<!-- Node161&#45;&gt;Node4 -->
<g id="edge128" class="edge">
<title>Node161&#45;&gt;Node4</title>
<path fill="none" stroke="#191970" d="M1040.0939,-269.1939C1077.4989,-264.9996 1123.6095,-260.2105 1165,-257 1486.2105,-232.0851 1569.1751,-259.8451 1889,-221 1914.5836,-217.8927 1943.1993,-212.2275 1964.5446,-207.5639"/>
<polygon fill="#191970" stroke="#191970" points="1965.3939,-210.9605 1974.394,-205.3705 1963.8723,-204.1279 1965.3939,-210.9605"/>
</g>
<!-- Node161&#45;&gt;Node65 -->
<g id="edge129" class="edge">
<title>Node161&#45;&gt;Node65</title>
<path fill="none" stroke="#191970" d="M973.3572,-268.4357C983.0735,-255.8045 1000.3657,-233.3245 1012.4717,-217.5868"/>
<polygon fill="#191970" stroke="#191970" points="1015.2597,-219.7028 1018.5826,-209.6426 1009.7113,-215.4348 1015.2597,-219.7028"/>
</g>
<!-- Node162 -->
<g id="node49" class="node">
<title>Node162</title>
<polygon fill="none" stroke="#bfbfbf" points="876.5,-190.5 876.5,-209.5 941.5,-209.5 941.5,-190.5 876.5,-190.5"/>
<text text-anchor="middle" x="909" y="-197.5" font-family="Helvetica,sans-Serif" font-size="10.00" fill="#000000">exception</text>
</g>
<!-- Node161&#45;&gt;Node162 -->
<g id="edge126" class="edge">
<title>Node161&#45;&gt;Node162</title>
<path fill="none" stroke="#191970" d="M959.0107,-268.4357C949.8657,-255.9214 933.6562,-233.74 922.1726,-218.0257"/>
<polygon fill="#191970" stroke="#191970" points="924.7726,-215.6514 916.0465,-209.6426 919.1208,-219.7816 924.7726,-215.6514"/>
</g>
<!-- Node32 -->
<g id="node50" class="node">
<title>Node32</title>
<g id="a_node50"><a xlink:href="Utils_8hpp.html" target="_top" xlink:title="lug/System/Utils.hpp">
<polygon fill="none" stroke="#000000" points="736,-190.5 736,-209.5 858,-209.5 858,-190.5 736,-190.5"/>
<text text-anchor="middle" x="797" y="-197.5" font-family="Helvetica,sans-Serif" font-size="10.00" fill="#000000">lug/System/Utils.hpp</text>
</a>
</g>
</g>
<!-- Node161&#45;&gt;Node32 -->
<g id="edge130" class="edge">
<title>Node161&#45;&gt;Node32</title>
<path fill="none" stroke="#191970" d="M945.2773,-268.4357C915.6755,-254.7733 861.1087,-229.5886 827.0654,-213.8763"/>
<polygon fill="#191970" stroke="#191970" points="828.1739,-210.5332 817.6276,-209.5204 825.2405,-216.8889 828.1739,-210.5332"/>
</g>
</g>
</svg>
