<?xml version="1.0" encoding="UTF-8" standalone="no"?>
<!DOCTYPE svg PUBLIC "-//W3C//DTD SVG 1.1//EN"
 "http://www.w3.org/Graphics/SVG/1.1/DTD/svg11.dtd">
<!-- Generated by graphviz version 2.40.1 (20161225.0304)
 -->
<!-- Title: include/lug/Graphics/Render/View.hpp Pages: 1 -->
<!--zoomable 430 -->
<svg id="main" version="1.1" xmlns="http://www.w3.org/2000/svg" xmlns:xlink="http://www.w3.org/1999/xlink" xml:space="preserve" onload="init(evt)">
<style type="text/css"><![CDATA[
.edge:hover path { stroke: red; }
.edge:hover polygon { stroke: red; fill: red; }
]]></style>
<script type="text/javascript"><![CDATA[
var edges = document.getElementsByTagName('g');
if (edges && edges.length) {
  for (var i=0;i<edges.length;i++) {
    if (edges[i].id.substr(0,4)=='edge') {
      edges[i].setAttribute('class','edge');
    }
  }
}
]]></script>
        <defs>
                <circle id="rim" cx="0" cy="0" r="7"/>
                <circle id="rim2" cx="0" cy="0" r="3.5"/>
                <g id="zoomPlus">
                        <use xlink:href="#rim" fill="#404040">
                                <set attributeName="fill" to="#808080" begin="zoomplus.mouseover" end="zoomplus.mouseout"/>
                        </use>
                        <path d="M-4,0h8M0,-4v8" fill="none" stroke="white" stroke-width="1.5" pointer-events="none"/>
                </g>
                <g id="zoomMin">
                        <use xlink:href="#rim" fill="#404040">
                                <set attributeName="fill" to="#808080" begin="zoomminus.mouseover" end="zoomminus.mouseout"/>
                        </use>
                        <path d="M-4,0h8" fill="none" stroke="white" stroke-width="1.5" pointer-events="none"/>
                </g>
                <g id="dirArrow">
                        <path fill="none" stroke="white" stroke-width="1.5" d="M0,-3.0v7 M-2.5,-0.5L0,-3.0L2.5,-0.5"/>
                </g>
               <g id="resetDef">
                       <use xlink:href="#rim2" fill="#404040">
                               <set attributeName="fill" to="#808080" begin="reset.mouseover" end="reset.mouseout"/>
                       </use>
               </g>
        </defs>

<script type="text/javascript">
var viewWidth = 901;
var viewHeight = 430;
var sectionId = 'dynsection-1';
</script>
<script xlink:href="svgpan.js"/>
<svg id="graph" class="graph">
<g id="viewport">
<title>include/lug/Graphics/Render/View.hpp</title>
<!-- Node39 -->
<g id="node1" class="node">
<title>Node39</title>
<polygon fill="#bfbfbf" stroke="#000000" points="611.5,-391.5 611.5,-421.5 730.5,-421.5 730.5,-391.5 611.5,-391.5"/>
<text text-anchor="start" x="619.5" y="-409.5" font-family="Helvetica,sans-Serif" font-size="10.00" fill="#000000">include/lug/Graphics</text>
<text text-anchor="middle" x="671" y="-398.5" font-family="Helvetica,sans-Serif" font-size="10.00" fill="#000000">/Render/View.hpp</text>
</g>
<!-- Node40 -->
<g id="node2" class="node">
<title>Node40</title>
<g id="a_node2"><a xlink:href="Target_8hpp.html" target="_top" xlink:title="include/lug/Graphics\l/Render/Target.hpp">
<polygon fill="none" stroke="#000000" points="523.5,-324.5 523.5,-354.5 642.5,-354.5 642.5,-324.5 523.5,-324.5"/>
<text text-anchor="start" x="531.5" y="-342.5" font-family="Helvetica,sans-Serif" font-size="10.00" fill="#000000">include/lug/Graphics</text>
<text text-anchor="middle" x="583" y="-331.5" font-family="Helvetica,sans-Serif" font-size="10.00" fill="#000000">/Render/Target.hpp</text>
</a>
</g>
</g>
<!-- Node39&#45;&gt;Node40 -->
<g id="edge1" class="edge">
<title>Node39&#45;&gt;Node40</title>
<path fill="none" stroke="#191970" d="M642.8457,-385.0643C629.834,-375.1577 614.6886,-363.6265 602.8895,-354.6432"/>
<polygon fill="#191970" stroke="#191970" points="640.9548,-388.0237 651.0314,-391.2967 645.1952,-382.4542 640.9548,-388.0237"/>
</g>
<!-- Node41 -->
<g id="node3" class="node">
<title>Node41</title>
<g id="a_node3"><a xlink:href="Graphics_2Render_2Window_8hpp.html" target="_top" xlink:title="include/lug/Graphics\l/Render/Window.hpp">
<polygon fill="none" stroke="#000000" points="409,-257.5 409,-287.5 531,-287.5 531,-257.5 409,-257.5"/>
<text text-anchor="start" x="417" y="-275.5" font-family="Helvetica,sans-Serif" font-size="10.00" fill="#000000">include/lug/Graphics</text>
<text text-anchor="middle" x="470" y="-264.5" font-family="Helvetica,sans-Serif" font-size="10.00" fill="#000000">/Render/Window.hpp</text>
</a>
</g>
</g>
<!-- Node39&#45;&gt;Node41 -->
<g id="edge22" class="edge">
<title>Node39&#45;&gt;Node41</title>
<path fill="none" stroke="#191970" d="M601.6232,-395.339C572.372,-387.8429 539.4995,-375.4336 515,-355 493.4498,-337.0262 480.5439,-305.9629 474.3947,-287.5127"/>
<polygon fill="#191970" stroke="#191970" points="600.8448,-398.7516 611.3871,-397.6973 602.4884,-391.9472 600.8448,-398.7516"/>
</g>
<!-- Node54 -->
<g id="node16" class="node">
<title>Node54</title>
<g id="a_node16"><a xlink:href="Render_2View_8cpp.html" target="_top" xlink:title="src/lug/Graphics/Render\l/View.cpp">
<polygon fill="none" stroke="#000000" points="549.5,-257.5 549.5,-287.5 688.5,-287.5 688.5,-257.5 549.5,-257.5"/>
<text text-anchor="start" x="557.5" y="-275.5" font-family="Helvetica,sans-Serif" font-size="10.00" fill="#000000">src/lug/Graphics/Render</text>
<text text-anchor="middle" x="619" y="-264.5" font-family="Helvetica,sans-Serif" font-size="10.00" fill="#000000">/View.cpp</text>
</a>
</g>
</g>
<!-- Node39&#45;&gt;Node54 -->
<g id="edge28" class="edge">
<title>Node39&#45;&gt;Node54</title>
<path fill="none" stroke="#191970" d="M667.5085,-381.3214C664.6396,-364.6139 659.7591,-342.4491 652,-324 646.4835,-310.8833 637.7006,-297.3878 630.5821,-287.5039"/>
<polygon fill="#191970" stroke="#191970" points="664.087,-382.092 669.1134,-391.4187 671.0002,-380.9932 664.087,-382.092"/>
</g>
<!-- Node55 -->
<g id="node17" class="node">
<title>Node55</title>
<g id="a_node17"><a xlink:href="Vulkan_2Render_2View_8hpp.html" target="_top" xlink:title="include/lug/Graphics\l/Vulkan/Render/View.hpp">
<polygon fill="none" stroke="#000000" points="701.5,-190.5 701.5,-220.5 846.5,-220.5 846.5,-190.5 701.5,-190.5"/>
<text text-anchor="start" x="709.5" y="-208.5" font-family="Helvetica,sans-Serif" font-size="10.00" fill="#000000">include/lug/Graphics</text>
<text text-anchor="middle" x="774" y="-197.5" font-family="Helvetica,sans-Serif" font-size="10.00" fill="#000000">/Vulkan/Render/View.hpp</text>
</a>
</g>
</g>
<!-- Node39&#45;&gt;Node55 -->
<g id="edge23" class="edge">
<title>Node39&#45;&gt;Node55</title>
<path fill="none" stroke="#191970" d="M683.3407,-382.4176C704.8514,-340.4405 748.6063,-255.0546 766.3089,-220.5088"/>
<polygon fill="#191970" stroke="#191970" points="680.1874,-380.8966 678.7417,-391.3923 686.4171,-384.0889 680.1874,-380.8966"/>
</g>
<!-- Node56 -->
<g id="node18" class="node">
<title>Node56</title>
<g id="a_node18"><a xlink:href="Render_2Camera_8cpp.html" target="_top" xlink:title="src/lug/Graphics/Render\l/Camera.cpp">
<polygon fill="none" stroke="#000000" points="745.5,-324.5 745.5,-354.5 884.5,-354.5 884.5,-324.5 745.5,-324.5"/>
<text text-anchor="start" x="753.5" y="-342.5" font-family="Helvetica,sans-Serif" font-size="10.00" fill="#000000">src/lug/Graphics/Render</text>
<text text-anchor="middle" x="815" y="-331.5" font-family="Helvetica,sans-Serif" font-size="10.00" fill="#000000">/Camera.cpp</text>
</a>
</g>
</g>
<!-- Node39&#45;&gt;Node56 -->
<g id="edge27" class="edge">
<title>Node39&#45;&gt;Node56</title>
<path fill="none" stroke="#191970" d="M712.5017,-387.1902C734.6856,-376.8685 761.6081,-364.3421 782.2932,-354.7177"/>
<polygon fill="#191970" stroke="#191970" points="710.9066,-384.072 703.3164,-391.4639 713.8596,-390.4187 710.9066,-384.072"/>
</g>
<!-- Node40&#45;&gt;Node41 -->
<g id="edge2" class="edge">
<title>Node40&#45;&gt;Node41</title>
<path fill="none" stroke="#191970" d="M549.026,-319.3561C531.8962,-309.1995 511.463,-297.0843 495.6657,-287.7177"/>
<polygon fill="#191970" stroke="#191970" points="547.2538,-322.3743 557.6406,-324.4639 550.824,-316.3531 547.2538,-322.3743"/>
</g>
<!-- Node40&#45;&gt;Node54 -->
<g id="edge21" class="edge">
<title>Node40&#45;&gt;Node54</title>
<path fill="none" stroke="#191970" d="M595.9043,-315.4837C600.8927,-306.1996 606.4502,-295.8565 610.8634,-287.6432"/>
<polygon fill="#191970" stroke="#191970" points="592.819,-313.8311 591.169,-324.2967 598.9853,-317.1443 592.819,-313.8311"/>
</g>
<!-- Node42 -->
<g id="node4" class="node">
<title>Node42</title>
<g id="a_node4"><a xlink:href="Application_8hpp.html" target="_top" xlink:title="include/lug/Core/Application.hpp">
<polygon fill="none" stroke="#000000" points="0,-62 0,-81 180,-81 180,-62 0,-62"/>
<text text-anchor="middle" x="90" y="-69" font-family="Helvetica,sans-Serif" font-size="10.00" fill="#000000">include/lug/Core/Application.hpp</text>
</a>
</g>
</g>
<!-- Node41&#45;&gt;Node42 -->
<g id="edge3" class="edge">
<title>Node41&#45;&gt;Node42</title>
<path fill="none" stroke="#191970" d="M398.8649,-261.1001C297.5249,-243.2369 119.6525,-205.3151 82,-154 65.9957,-132.1884 77.8122,-97.9198 85.2189,-81.2535"/>
<polygon fill="#191970" stroke="#191970" points="398.2738,-264.5498 408.7261,-262.8177 399.475,-257.6536 398.2738,-264.5498"/>
</g>
<!-- Node44 -->
<g id="node6" class="node">
<title>Node44</title>
<g id="a_node6"><a xlink:href="Renderer_8hpp.html" target="_top" xlink:title="include/lug/Graphics\l/Renderer.hpp">
<polygon fill="none" stroke="#000000" points="304.5,-190.5 304.5,-220.5 423.5,-220.5 423.5,-190.5 304.5,-190.5"/>
<text text-anchor="start" x="312.5" y="-208.5" font-family="Helvetica,sans-Serif" font-size="10.00" fill="#000000">include/lug/Graphics</text>
<text text-anchor="middle" x="364" y="-197.5" font-family="Helvetica,sans-Serif" font-size="10.00" fill="#000000">/Renderer.hpp</text>
</a>
</g>
</g>
<!-- Node41&#45;&gt;Node44 -->
<g id="edge5" class="edge">
<title>Node41&#45;&gt;Node44</title>
<path fill="none" stroke="#191970" d="M437.6875,-252.0761C421.7106,-241.9774 402.7586,-229.9983 388.0758,-220.7177"/>
<polygon fill="#191970" stroke="#191970" points="435.8885,-255.0795 446.2115,-257.4639 439.6286,-249.1624 435.8885,-255.0795"/>
</g>
<!-- Node52 -->
<g id="node14" class="node">
<title>Node52</title>
<g id="a_node14"><a xlink:href="Graphics_2Vulkan_2Render_2Window_8hpp.html" target="_top" xlink:title="include/lug/Graphics\l/Vulkan/Render/Window.hpp">
<polygon fill="none" stroke="#000000" points="493,-190.5 493,-220.5 653,-220.5 653,-190.5 493,-190.5"/>
<text text-anchor="start" x="501" y="-208.5" font-family="Helvetica,sans-Serif" font-size="10.00" fill="#000000">include/lug/Graphics</text>
<text text-anchor="middle" x="573" y="-197.5" font-family="Helvetica,sans-Serif" font-size="10.00" fill="#000000">/Vulkan/Render/Window.hpp</text>
</a>
</g>
</g>
<!-- Node41&#45;&gt;Node52 -->
<g id="edge16" class="edge">
<title>Node41&#45;&gt;Node52</title>
<path fill="none" stroke="#191970" d="M501.8299,-251.7951C517.2634,-241.7558 535.4705,-229.9124 549.6056,-220.7177"/>
<polygon fill="#191970" stroke="#191970" points="499.5893,-249.0772 493.1152,-257.4639 503.4063,-254.945 499.5893,-249.0772"/>
</g>
<!-- Node43 -->
<g id="node5" class="node">
<title>Node43</title>
<g id="a_node5"><a xlink:href="Application_8cpp.html" target="_top" xlink:title="src/lug/Core/Application.cpp">
<polygon fill="none" stroke="#000000" points="10.5,-.5 10.5,-19.5 169.5,-19.5 169.5,-.5 10.5,-.5"/>
<text text-anchor="middle" x="90" y="-7.5" font-family="Helvetica,sans-Serif" font-size="10.00" fill="#000000">src/lug/Core/Application.cpp</text>
</a>
</g>
</g>
<!-- Node42&#45;&gt;Node43 -->
<g id="edge4" class="edge">
<title>Node42&#45;&gt;Node43</title>
<path fill="none" stroke="#191970" d="M90,-51.7462C90,-41.0519 90,-28.314 90,-19.7449"/>
<polygon fill="#191970" stroke="#191970" points="86.5001,-51.8906 90,-61.8906 93.5001,-51.8907 86.5001,-51.8906"/>
</g>
<!-- Node45 -->
<g id="node7" class="node">
<title>Node45</title>
<g id="a_node7"><a xlink:href="Graphics_8hpp.html" target="_top" xlink:title="include/lug/Graphics\l/Graphics.hpp">
<polygon fill="none" stroke="#000000" points="91.5,-123.5 91.5,-153.5 210.5,-153.5 210.5,-123.5 91.5,-123.5"/>
<text text-anchor="start" x="99.5" y="-141.5" font-family="Helvetica,sans-Serif" font-size="10.00" fill="#000000">include/lug/Graphics</text>
<text text-anchor="middle" x="151" y="-130.5" font-family="Helvetica,sans-Serif" font-size="10.00" fill="#000000">/Graphics.hpp</text>
</a>
</g>
</g>
<!-- Node44&#45;&gt;Node45 -->
<g id="edge6" class="edge">
<title>Node44&#45;&gt;Node45</title>
<path fill="none" stroke="#191970" d="M306.4973,-187.4123C272.8545,-176.8298 230.8702,-163.6235 199.0098,-153.6017"/>
<polygon fill="#191970" stroke="#191970" points="305.6092,-190.802 316.1986,-190.4639 307.7097,-184.1245 305.6092,-190.802"/>
</g>
<!-- Node48 -->
<g id="node10" class="node">
<title>Node48</title>
<g id="a_node10"><a xlink:href="Vulkan_2Renderer_8hpp.html" target="_top" xlink:title="include/lug/Graphics\l/Vulkan/Renderer.hpp">
<polygon fill="none" stroke="#000000" points="417.5,-123.5 417.5,-153.5 544.5,-153.5 544.5,-123.5 417.5,-123.5"/>
<text text-anchor="start" x="425.5" y="-141.5" font-family="Helvetica,sans-Serif" font-size="10.00" fill="#000000">include/lug/Graphics</text>
<text text-anchor="middle" x="481" y="-130.5" font-family="Helvetica,sans-Serif" font-size="10.00" fill="#000000">/Vulkan/Renderer.hpp</text>
</a>
</g>
</g>
<!-- Node44&#45;&gt;Node48 -->
<g id="edge10" class="edge">
<title>Node44&#45;&gt;Node48</title>
<path fill="none" stroke="#191970" d="M399.1766,-185.3561C416.9128,-175.1995 438.0692,-163.0843 454.4257,-153.7177"/>
<polygon fill="#191970" stroke="#191970" points="397.1957,-182.4572 390.2571,-190.4639 400.6743,-188.5317 397.1957,-182.4572"/>
</g>
<!-- Node51 -->
<g id="node13" class="node">
<title>Node51</title>
<g id="a_node13"><a xlink:href="Renderer_8cpp.html" target="_top" xlink:title="src/lug/Graphics/Renderer.cpp">
<polygon fill="none" stroke="#000000" points="229,-129 229,-148 399,-148 399,-129 229,-129"/>
<text text-anchor="middle" x="314" y="-136" font-family="Helvetica,sans-Serif" font-size="10.00" fill="#000000">src/lug/Graphics/Renderer.cpp</text>
</a>
</g>
</g>
<!-- Node44&#45;&gt;Node51 -->
<g id="edge15" class="edge">
<title>Node44&#45;&gt;Node51</title>
<path fill="none" stroke="#191970" d="M346.6004,-182.1845C337.8582,-170.47 327.7459,-156.9195 321.1306,-148.055"/>
<polygon fill="#191970" stroke="#191970" points="343.8683,-184.3756 352.6542,-190.2967 349.4784,-180.189 343.8683,-184.3756"/>
</g>
<!-- Node45&#45;&gt;Node42 -->
<g id="edge7" class="edge">
<title>Node45&#45;&gt;Node42</title>
<path fill="none" stroke="#191970" d="M130.3918,-115.8648C119.5878,-103.998 106.9267,-90.0916 98.6993,-81.055"/>
<polygon fill="#191970" stroke="#191970" points="127.8379,-118.2585 137.1582,-123.2967 133.014,-113.5459 127.8379,-118.2585"/>
</g>
<!-- Node46 -->
<g id="node8" class="node">
<title>Node46</title>
<g id="a_node8"><a xlink:href="Graphics_8cpp.html" target="_top" xlink:title="src/lug/Graphics/Graphics.cpp">
<polygon fill="none" stroke="#000000" points="212,-62 212,-81 380,-81 380,-62 212,-62"/>
<text text-anchor="middle" x="296" y="-69" font-family="Helvetica,sans-Serif" font-size="10.00" fill="#000000">src/lug/Graphics/Graphics.cpp</text>
</a>
</g>
</g>
<!-- Node45&#45;&gt;Node46 -->
<g id="edge8" class="edge">
<title>Node45&#45;&gt;Node46</title>
<path fill="none" stroke="#191970" d="M192.7731,-119.198C219.7881,-106.7152 253.7874,-91.0051 275.2154,-81.1039"/>
<polygon fill="#191970" stroke="#191970" points="191.1505,-116.0921 183.5408,-123.4639 194.0867,-122.4465 191.1505,-116.0921"/>
</g>
<!-- Node47 -->
<g id="node9" class="node">
<title>Node47</title>
<g id="a_node9"><a xlink:href="Vulkan_2Renderer_8cpp.html" target="_top" xlink:title="src/lug/Graphics/Vulkan\l/Renderer.cpp">
<polygon fill="none" stroke="#000000" points="405.5,-56.5 405.5,-86.5 542.5,-86.5 542.5,-56.5 405.5,-56.5"/>
<text text-anchor="start" x="413.5" y="-74.5" font-family="Helvetica,sans-Serif" font-size="10.00" fill="#000000">src/lug/Graphics/Vulkan</text>
<text text-anchor="middle" x="474" y="-63.5" font-family="Helvetica,sans-Serif" font-size="10.00" fill="#000000">/Renderer.cpp</text>
</a>
</g>
</g>
<!-- Node45&#45;&gt;Node47 -->
<g id="edge9" class="edge">
<title>Node45&#45;&gt;Node47</title>
<path fill="none" stroke="#191970" d="M220.9265,-122.8251C289.3693,-108.258 356.6987,-94.6861 405.4632,-84.9926"/>
<polygon fill="#191970" stroke="#191970" points="219.8717,-119.4713 210.8223,-124.9813 221.3326,-126.3172 219.8717,-119.4713"/>
</g>
<!-- Node48&#45;&gt;Node46 -->
<g id="edge11" class="edge">
<title>Node48&#45;&gt;Node46</title>
<path fill="none" stroke="#191970" d="M429.9188,-120.0003C394.9994,-107.3538 350.1555,-91.1131 322.2459,-81.0053"/>
<polygon fill="#191970" stroke="#191970" points="428.8882,-123.3495 439.4824,-123.4639 431.2718,-116.7678 428.8882,-123.3495"/>
</g>
<!-- Node48&#45;&gt;Node47 -->
<g id="edge14" class="edge">
<title>Node48&#45;&gt;Node47</title>
<path fill="none" stroke="#191970" d="M478.369,-113.3179C477.4312,-104.3414 476.4045,-94.5143 475.5821,-86.6432"/>
<polygon fill="#191970" stroke="#191970" points="474.8913,-113.7145 479.4116,-123.2967 481.8534,-112.9871 474.8913,-113.7145"/>
</g>
<!-- Node49 -->
<g id="node11" class="node">
<title>Node49</title>
<g id="a_node11"><a xlink:href="Forward_8cpp.html" target="_top" xlink:title="src/lug/Graphics/Vulkan\l/Render/Technique/Forward.cpp">
<polygon fill="none" stroke="#000000" points="560.5,-56.5 560.5,-86.5 737.5,-86.5 737.5,-56.5 560.5,-56.5"/>
<text text-anchor="start" x="568.5" y="-74.5" font-family="Helvetica,sans-Serif" font-size="10.00" fill="#000000">src/lug/Graphics/Vulkan</text>
<text text-anchor="middle" x="649" y="-63.5" font-family="Helvetica,sans-Serif" font-size="10.00" fill="#000000">/Render/Technique/Forward.cpp</text>
</a>
</g>
</g>
<!-- Node48&#45;&gt;Node49 -->
<g id="edge12" class="edge">
<title>Node48&#45;&gt;Node49</title>
<path fill="none" stroke="#191970" d="M528.0714,-119.7275C554.3069,-109.2645 586.543,-96.4084 611.1331,-86.6017"/>
<polygon fill="#191970" stroke="#191970" points="526.6945,-116.5085 518.7025,-123.4639 529.2876,-123.0105 526.6945,-116.5085"/>
</g>
<!-- Node50 -->
<g id="node12" class="node">
<title>Node50</title>
<g id="a_node12"><a xlink:href="Graphics_2Vulkan_2Render_2Window_8cpp.html" target="_top" xlink:title="src/lug/Graphics/Vulkan\l/Render/Window.cpp">
<polygon fill="none" stroke="#000000" points="755.5,-56.5 755.5,-86.5 892.5,-86.5 892.5,-56.5 755.5,-56.5"/>
<text text-anchor="start" x="763.5" y="-74.5" font-family="Helvetica,sans-Serif" font-size="10.00" fill="#000000">src/lug/Graphics/Vulkan</text>
<text text-anchor="middle" x="824" y="-63.5" font-family="Helvetica,sans-Serif" font-size="10.00" fill="#000000">/Render/Window.cpp</text>
</a>
</g>
</g>
<!-- Node48&#45;&gt;Node50 -->
<g id="edge13" class="edge">
<title>Node48&#45;&gt;Node50</title>
<path fill="none" stroke="#191970" d="M554.7771,-124.3679C608.1801,-114.1015 682.0788,-99.8188 747,-87 749.6756,-86.4717 752.4031,-85.9313 755.158,-85.384"/>
<polygon fill="#191970" stroke="#191970" points="553.875,-120.9772 544.7151,-126.3014 555.1959,-127.8514 553.875,-120.9772"/>
</g>
<!-- Node52&#45;&gt;Node47 -->
<g id="edge20" class="edge">
<title>Node52&#45;&gt;Node47</title>
<path fill="none" stroke="#191970" d="M572.1181,-180.3862C570.4017,-162.915 565.8276,-139.8296 554,-123 542.8878,-107.1882 525.2226,-95.0722 509.3154,-86.5765"/>
<polygon fill="#191970" stroke="#191970" points="568.6329,-180.7165 572.8569,-190.4329 575.614,-180.2031 568.6329,-180.7165"/>
</g>
<!-- Node52&#45;&gt;Node48 -->
<g id="edge17" class="edge">
<title>Node52&#45;&gt;Node48</title>
<path fill="none" stroke="#191970" d="M543.954,-184.3469C530.2647,-174.3776 514.2464,-162.7121 501.7936,-153.6432"/>
<polygon fill="#191970" stroke="#191970" points="541.9798,-187.2389 552.1238,-190.2967 546.1006,-181.5804 541.9798,-187.2389"/>
</g>
<!-- Node52&#45;&gt;Node50 -->
<g id="edge19" class="edge">
<title>Node52&#45;&gt;Node50</title>
<path fill="none" stroke="#191970" d="M584.2189,-181.1768C594.0199,-162.5665 609.972,-137.6781 631,-123 641.7526,-115.4944 707.1698,-98.8806 758.9042,-86.5413"/>
<polygon fill="#191970" stroke="#191970" points="581.0227,-179.7423 579.6599,-190.2492 587.2774,-182.8854 581.0227,-179.7423"/>
</g>
<!-- Node53 -->
<g id="node15" class="node">
<title>Node53</title>
<g id="a_node15"><a xlink:href="Vulkan_2Render_2View_8cpp.html" target="_top" xlink:title="src/lug/Graphics/Vulkan\l/Render/View.cpp">
<polygon fill="none" stroke="#000000" points="639.5,-123.5 639.5,-153.5 776.5,-153.5 776.5,-123.5 639.5,-123.5"/>
<text text-anchor="start" x="647.5" y="-141.5" font-family="Helvetica,sans-Serif" font-size="10.00" fill="#000000">src/lug/Graphics/Vulkan</text>
<text text-anchor="middle" x="708" y="-130.5" font-family="Helvetica,sans-Serif" font-size="10.00" fill="#000000">/Render/View.cpp</text>
</a>
</g>
</g>
<!-- Node52&#45;&gt;Node53 -->
<g id="edge18" class="edge">
<title>Node52&#45;&gt;Node53</title>
<path fill="none" stroke="#191970" d="M612.466,-185.9132C633.1555,-175.645 658.1182,-163.2561 677.3374,-153.7177"/>
<polygon fill="#191970" stroke="#191970" points="610.6982,-182.8831 603.2966,-190.4639 613.8101,-189.1534 610.6982,-182.8831"/>
</g>
<!-- Node55&#45;&gt;Node49 -->
<g id="edge24" class="edge">
<title>Node55&#45;&gt;Node49</title>
<path fill="none" stroke="#191970" d="M786.0834,-180.7722C792.7785,-163.192 797.64,-139.8109 786,-123 776.5255,-109.3166 740.8733,-96.1517 708.3155,-86.5578"/>
<polygon fill="#191970" stroke="#191970" points="782.7012,-179.7851 782.0404,-190.3593 789.1511,-182.5052 782.7012,-179.7851"/>
</g>
<!-- Node55&#45;&gt;Node50 -->
<g id="edge26" class="edge">
<title>Node55&#45;&gt;Node50</title>
<path fill="none" stroke="#191970" d="M799.2181,-183.1649C806.9536,-174.8352 814.5833,-164.7651 819,-154 828.0414,-131.963 827.4596,-103.8163 825.933,-86.7494"/>
<polygon fill="#191970" stroke="#191970" points="796.7118,-180.7217 792.1734,-190.2954 801.6914,-185.6415 796.7118,-180.7217"/>
</g>
<!-- Node55&#45;&gt;Node53 -->
<g id="edge25" class="edge">
<title>Node55&#45;&gt;Node53</title>
<path fill="none" stroke="#191970" d="M751.7622,-182.9253C742.2637,-173.2828 731.4293,-162.2843 722.9172,-153.6432"/>
<polygon fill="#191970" stroke="#191970" points="749.5124,-185.6288 759.0236,-190.2967 754.4993,-180.7164 749.5124,-185.6288"/>
</g>
</g>
</svg>
        <g id="navigator" transform="translate(0 0)" fill="#404254">
                <rect fill="#f2f5e9" fill-opacity="0.5" stroke="#606060" stroke-width=".5" x="0" y="0" width="60" height="60"/>
                <use id="zoomplus" xlink:href="#zoomPlus" x="17" y="9" onmousedown="handleZoom(evt,'in')"/>
                <use id="zoomminus" xlink:href="#zoomMin" x="42" y="9" onmousedown="handleZoom(evt,'out')"/>
                <use id="reset" xlink:href="#resetDef" x="30" y="36" onmousedown="handleReset()"/>
                <g id="arrowUp" xlink:href="#dirArrow" transform="translate(30 24)" onmousedown="handlePan(0,-1)">
                  <use xlink:href="#rim" fill="#404040">
                        <set attributeName="fill" to="#808080" begin="arrowUp.mouseover" end="arrowUp.mouseout"/>
                  </use>
                  <path fill="none" stroke="white" stroke-width="1.5" d="M0,-3.0v7 M-2.5,-0.5L0,-3.0L2.5,-0.5"/>
                </g>
                <g id="arrowRight" xlink:href="#dirArrow" transform="rotate(90) translate(36 -43)" onmousedown="handlePan(1,0)">
                  <use xlink:href="#rim" fill="#404040">
                        <set attributeName="fill" to="#808080" begin="arrowRight.mouseover" end="arrowRight.mouseout"/>
                  </use>
                  <path fill="none" stroke="white" stroke-width="1.5" d="M0,-3.0v7 M-2.5,-0.5L0,-3.0L2.5,-0.5"/>
                </g>
                <g id="arrowDown" xlink:href="#dirArrow" transform="rotate(180) translate(-30 -48)" onmousedown="handlePan(0,1)">
                  <use xlink:href="#rim" fill="#404040">
                        <set attributeName="fill" to="#808080" begin="arrowDown.mouseover" end="arrowDown.mouseout"/>
                  </use>
                  <path fill="none" stroke="white" stroke-width="1.5" d="M0,-3.0v7 M-2.5,-0.5L0,-3.0L2.5,-0.5"/>
                </g>
                <g id="arrowLeft" xlink:href="#dirArrow" transform="rotate(270) translate(-36 17)" onmousedown="handlePan(-1,0)">
                  <use xlink:href="#rim" fill="#404040">
                        <set attributeName="fill" to="#808080" begin="arrowLeft.mouseover" end="arrowLeft.mouseout"/>
                  </use>
                  <path fill="none" stroke="white" stroke-width="1.5" d="M0,-3.0v7 M-2.5,-0.5L0,-3.0L2.5,-0.5"/>
                </g>
        </g>
        <svg viewBox="0 0 15 15" width="100%" height="30px" preserveAspectRatio="xMaxYMin meet">
         <g id="arrow_out" transform="scale(0.3 0.3)">
          <a xlink:href="Render_2View_8hpp__dep__incl_org.svg" target="_base">
           <rect id="button" ry="5" rx="5" y="6" x="6" height="38" width="38"
                fill="#f2f5e9" fill-opacity="0.5" stroke="#606060" stroke-width="1.0"/>
           <path id="arrow"
             d="M 11.500037,31.436501 C 11.940474,20.09759 22.043105,11.32322 32.158766,21.979434 L 37.068811,17.246167 C 37.068811,17.246167 37.088388,32 37.088388,32 L 22.160133,31.978069 C 22.160133,31.978069 26.997745,27.140456 26.997745,27.140456 C 18.528582,18.264221 13.291696,25.230495 11.500037,31.436501 z"
             style="fill:#404040;"/>
          </a>
         </g>
        </svg>
</svg>
