<?xml version="1.0" encoding="UTF-8" standalone="no"?>
<!DOCTYPE svg PUBLIC "-//W3C//DTD SVG 1.1//EN"
 "http://www.w3.org/Graphics/SVG/1.1/DTD/svg11.dtd">
<!-- Generated by graphviz version 2.40.1 (20161225.0304)
 -->
<!-- Title: include/lug/Graphics/Render/Camera.hpp Pages: 1 -->
<!--zoomable 497 -->
<svg id="main" version="1.1" xmlns="http://www.w3.org/2000/svg" xmlns:xlink="http://www.w3.org/1999/xlink" xml:space="preserve" onload="init(evt)">
<style type="text/css"><![CDATA[
.edge:hover path { stroke: red; }
.edge:hover polygon { stroke: red; fill: red; }
]]></style>
<script type="text/javascript"><![CDATA[
var edges = document.getElementsByTagName('g');
if (edges && edges.length) {
  for (var i=0;i<edges.length;i++) {
    if (edges[i].id.substr(0,4)=='edge') {
      edges[i].setAttribute('class','edge');
    }
  }
}
]]></script>
        <defs>
                <circle id="rim" cx="0" cy="0" r="7"/>
                <circle id="rim2" cx="0" cy="0" r="3.5"/>
                <g id="zoomPlus">
                        <use xlink:href="#rim" fill="#404040">
                                <set attributeName="fill" to="#808080" begin="zoomplus.mouseover" end="zoomplus.mouseout"/>
                        </use>
                        <path d="M-4,0h8M0,-4v8" fill="none" stroke="white" stroke-width="1.5" pointer-events="none"/>
                </g>
                <g id="zoomMin">
                        <use xlink:href="#rim" fill="#404040">
                                <set attributeName="fill" to="#808080" begin="zoomminus.mouseover" end="zoomminus.mouseout"/>
                        </use>
                        <path d="M-4,0h8" fill="none" stroke="white" stroke-width="1.5" pointer-events="none"/>
                </g>
                <g id="dirArrow">
                        <path fill="none" stroke="white" stroke-width="1.5" d="M0,-3.0v7 M-2.5,-0.5L0,-3.0L2.5,-0.5"/>
                </g>
               <g id="resetDef">
                       <use xlink:href="#rim2" fill="#404040">
                               <set attributeName="fill" to="#808080" begin="reset.mouseover" end="reset.mouseout"/>
                       </use>
               </g>
        </defs>

<script type="text/javascript">
var viewWidth = 1079;
var viewHeight = 497;
var sectionId = 'dynsection-1';
</script>
<script xlink:href="svgpan.js"/>
<svg id="graph" class="graph">
<g id="viewport">
<title>include/lug/Graphics/Render/Camera.hpp</title>
<!-- Node36 -->
<g id="node1" class="node">
<title>Node36</title>
<polygon fill="#bfbfbf" stroke="#000000" points="728,-458.5 728,-488.5 850,-488.5 850,-458.5 728,-458.5"/>
<text text-anchor="start" x="736" y="-476.5" font-family="Helvetica,sans-Serif" font-size="10.00" fill="#000000">include/lug/Graphics</text>
<text text-anchor="middle" x="789" y="-465.5" font-family="Helvetica,sans-Serif" font-size="10.00" fill="#000000">/Render/Camera.hpp</text>
</g>
<!-- Node37 -->
<g id="node2" class="node">
<title>Node37</title>
<g id="a_node2"><a xlink:href="Graphics_8hpp.html" target="_top" xlink:title="include/lug/Graphics\l/Graphics.hpp">
<polygon fill="none" stroke="#000000" points="75.5,-123.5 75.5,-153.5 194.5,-153.5 194.5,-123.5 75.5,-123.5"/>
<text text-anchor="start" x="83.5" y="-141.5" font-family="Helvetica,sans-Serif" font-size="10.00" fill="#000000">include/lug/Graphics</text>
<text text-anchor="middle" x="135" y="-130.5" font-family="Helvetica,sans-Serif" font-size="10.00" fill="#000000">/Graphics.hpp</text>
</a>
</g>
</g>
<!-- Node36&#45;&gt;Node37 -->
<g id="edge1" class="edge">
<title>Node36&#45;&gt;Node37</title>
<path fill="none" stroke="#191970" d="M717.7774,-468.7241C525.2766,-454.8692 9,-411.0422 9,-339.5 9,-339.5 9,-339.5 9,-272.5 9,-216.7767 67.5439,-174.759 104.8199,-153.6532"/>
<polygon fill="#191970" stroke="#191970" points="717.5709,-472.2181 727.7947,-469.439 718.0693,-465.2359 717.5709,-472.2181"/>
</g>
<!-- Node42 -->
<g id="node7" class="node">
<title>Node42</title>
<g id="a_node7"><a xlink:href="Render_2View_8hpp.html" target="_top" xlink:title="include/lug/Graphics\l/Render/View.hpp">
<polygon fill="none" stroke="#000000" points="612.5,-391.5 612.5,-421.5 731.5,-421.5 731.5,-391.5 612.5,-391.5"/>
<text text-anchor="start" x="620.5" y="-409.5" font-family="Helvetica,sans-Serif" font-size="10.00" fill="#000000">include/lug/Graphics</text>
<text text-anchor="middle" x="672" y="-398.5" font-family="Helvetica,sans-Serif" font-size="10.00" fill="#000000">/Render/View.hpp</text>
</a>
</g>
</g>
<!-- Node36&#45;&gt;Node42 -->
<g id="edge6" class="edge">
<title>Node36&#45;&gt;Node42</title>
<path fill="none" stroke="#191970" d="M753.8234,-453.3561C736.0872,-443.1995 714.9308,-431.0843 698.5743,-421.7177"/>
<polygon fill="#191970" stroke="#191970" points="752.3257,-456.5317 762.7429,-458.4639 755.8043,-450.4572 752.3257,-456.5317"/>
</g>
<!-- Node54 -->
<g id="node19" class="node">
<title>Node54</title>
<g id="a_node19"><a xlink:href="Render_2Camera_8cpp.html" target="_top" xlink:title="src/lug/Graphics/Render\l/Camera.cpp">
<polygon fill="none" stroke="#000000" points="719.5,-324.5 719.5,-354.5 858.5,-354.5 858.5,-324.5 719.5,-324.5"/>
<text text-anchor="start" x="727.5" y="-342.5" font-family="Helvetica,sans-Serif" font-size="10.00" fill="#000000">src/lug/Graphics/Render</text>
<text text-anchor="middle" x="789" y="-331.5" font-family="Helvetica,sans-Serif" font-size="10.00" fill="#000000">/Camera.cpp</text>
</a>
</g>
</g>
<!-- Node36&#45;&gt;Node54 -->
<g id="edge35" class="edge">
<title>Node36&#45;&gt;Node54</title>
<path fill="none" stroke="#191970" d="M789,-448.3415C789,-420.8131 789,-377.5714 789,-354.7614"/>
<polygon fill="#191970" stroke="#191970" points="785.5001,-448.3889 789,-458.389 792.5001,-448.389 785.5001,-448.3889"/>
</g>
<!-- Node55 -->
<g id="node20" class="node">
<title>Node55</title>
<g id="a_node20"><a xlink:href="Vulkan_2Render_2Camera_8hpp.html" target="_top" xlink:title="include/lug/Graphics\l/Vulkan/Render/Camera.hpp">
<polygon fill="none" stroke="#000000" points="855,-123.5 855,-153.5 1015,-153.5 1015,-123.5 855,-123.5"/>
<text text-anchor="start" x="863" y="-141.5" font-family="Helvetica,sans-Serif" font-size="10.00" fill="#000000">include/lug/Graphics</text>
<text text-anchor="middle" x="935" y="-130.5" font-family="Helvetica,sans-Serif" font-size="10.00" fill="#000000">/Vulkan/Render/Camera.hpp</text>
</a>
</g>
</g>
<!-- Node36&#45;&gt;Node55 -->
<g id="edge31" class="edge">
<title>Node36&#45;&gt;Node55</title>
<path fill="none" stroke="#191970" d="M818.0758,-452.1667C846.9683,-428.2723 887,-386.657 887,-339.5 887,-339.5 887,-339.5 887,-272.5 887,-227.031 911.7969,-177.6991 925.7451,-153.5465"/>
<polygon fill="#191970" stroke="#191970" points="815.8795,-449.4415 810.2645,-458.4261 820.2568,-454.9041 815.8795,-449.4415"/>
</g>
<!-- Node57 -->
<g id="node22" class="node">
<title>Node57</title>
<g id="a_node22"><a xlink:href="MovableCamera_8cpp.html" target="_top" xlink:title="src/lug/Graphics/Scene\l/MovableCamera.cpp">
<polygon fill="none" stroke="#000000" points="915,-391.5 915,-421.5 1049,-421.5 1049,-391.5 915,-391.5"/>
<text text-anchor="start" x="923" y="-409.5" font-family="Helvetica,sans-Serif" font-size="10.00" fill="#000000">src/lug/Graphics/Scene</text>
<text text-anchor="middle" x="982" y="-398.5" font-family="Helvetica,sans-Serif" font-size="10.00" fill="#000000">/MovableCamera.cpp</text>
</a>
</g>
</g>
<!-- Node36&#45;&gt;Node57 -->
<g id="edge36" class="edge">
<title>Node36&#45;&gt;Node57</title>
<path fill="none" stroke="#191970" d="M841.89,-455.1392C872.2396,-444.6033 909.8771,-431.5375 938.4981,-421.6017"/>
<polygon fill="#191970" stroke="#191970" points="840.6121,-451.8779 832.313,-458.4639 842.9078,-458.4907 840.6121,-451.8779"/>
</g>
<!-- Node38 -->
<g id="node3" class="node">
<title>Node38</title>
<g id="a_node3"><a xlink:href="Application_8hpp.html" target="_top" xlink:title="include/lug/Core/Application.hpp">
<polygon fill="none" stroke="#000000" points="0,-62 0,-81 180,-81 180,-62 0,-62"/>
<text text-anchor="middle" x="90" y="-69" font-family="Helvetica,sans-Serif" font-size="10.00" fill="#000000">include/lug/Core/Application.hpp</text>
</a>
</g>
</g>
<!-- Node37&#45;&gt;Node38 -->
<g id="edge2" class="edge">
<title>Node37&#45;&gt;Node38</title>
<path fill="none" stroke="#191970" d="M119.1108,-114.8428C111.296,-103.2073 102.3135,-89.8334 96.4175,-81.055"/>
<polygon fill="#191970" stroke="#191970" points="116.3077,-116.9467 124.7888,-123.2967 122.1187,-113.0438 116.3077,-116.9467"/>
</g>
<!-- Node40 -->
<g id="node5" class="node">
<title>Node40</title>
<g id="a_node5"><a xlink:href="Graphics_8cpp.html" target="_top" xlink:title="src/lug/Graphics/Graphics.cpp">
<polygon fill="none" stroke="#000000" points="397,-62 397,-81 565,-81 565,-62 397,-62"/>
<text text-anchor="middle" x="481" y="-69" font-family="Helvetica,sans-Serif" font-size="10.00" fill="#000000">src/lug/Graphics/Graphics.cpp</text>
</a>
</g>
</g>
<!-- Node37&#45;&gt;Node40 -->
<g id="edge4" class="edge">
<title>Node37&#45;&gt;Node40</title>
<path fill="none" stroke="#191970" d="M204.6729,-122.9029C287.7945,-105.9646 372.668,-90.5544 426.484,-81.0187"/>
<polygon fill="#191970" stroke="#191970" points="203.9048,-119.4874 194.8099,-124.9217 205.3086,-126.3452 203.9048,-119.4874"/>
</g>
<!-- Node41 -->
<g id="node6" class="node">
<title>Node41</title>
<g id="a_node6"><a xlink:href="Vulkan_2Renderer_8cpp.html" target="_top" xlink:title="src/lug/Graphics/Vulkan\l/Renderer.cpp">
<polygon fill="none" stroke="#000000" points="241.5,-56.5 241.5,-86.5 378.5,-86.5 378.5,-56.5 241.5,-56.5"/>
<text text-anchor="start" x="249.5" y="-74.5" font-family="Helvetica,sans-Serif" font-size="10.00" fill="#000000">src/lug/Graphics/Vulkan</text>
<text text-anchor="middle" x="310" y="-63.5" font-family="Helvetica,sans-Serif" font-size="10.00" fill="#000000">/Renderer.cpp</text>
</a>
</g>
</g>
<!-- Node37&#45;&gt;Node41 -->
<g id="edge5" class="edge">
<title>Node37&#45;&gt;Node41</title>
<path fill="none" stroke="#191970" d="M183.6735,-119.865C211.0667,-109.3773 244.8283,-96.4515 270.5553,-86.6017"/>
<polygon fill="#191970" stroke="#191970" points="182.3609,-116.6197 174.2734,-123.4639 184.8638,-123.157 182.3609,-116.6197"/>
</g>
<!-- Node39 -->
<g id="node4" class="node">
<title>Node39</title>
<g id="a_node4"><a xlink:href="Application_8cpp.html" target="_top" xlink:title="src/lug/Core/Application.cpp">
<polygon fill="none" stroke="#000000" points="10.5,-.5 10.5,-19.5 169.5,-19.5 169.5,-.5 10.5,-.5"/>
<text text-anchor="middle" x="90" y="-7.5" font-family="Helvetica,sans-Serif" font-size="10.00" fill="#000000">src/lug/Core/Application.cpp</text>
</a>
</g>
</g>
<!-- Node38&#45;&gt;Node39 -->
<g id="edge3" class="edge">
<title>Node38&#45;&gt;Node39</title>
<path fill="none" stroke="#191970" d="M90,-51.7462C90,-41.0519 90,-28.314 90,-19.7449"/>
<polygon fill="#191970" stroke="#191970" points="86.5001,-51.8906 90,-61.8906 93.5001,-51.8907 86.5001,-51.8906"/>
</g>
<!-- Node43 -->
<g id="node8" class="node">
<title>Node43</title>
<g id="a_node8"><a xlink:href="Target_8hpp.html" target="_top" xlink:title="include/lug/Graphics\l/Render/Target.hpp">
<polygon fill="none" stroke="#000000" points="505.5,-324.5 505.5,-354.5 624.5,-354.5 624.5,-324.5 505.5,-324.5"/>
<text text-anchor="start" x="513.5" y="-342.5" font-family="Helvetica,sans-Serif" font-size="10.00" fill="#000000">include/lug/Graphics</text>
<text text-anchor="middle" x="565" y="-331.5" font-family="Helvetica,sans-Serif" font-size="10.00" fill="#000000">/Render/Target.hpp</text>
</a>
</g>
</g>
<!-- Node42&#45;&gt;Node43 -->
<g id="edge7" class="edge">
<title>Node42&#45;&gt;Node43</title>
<path fill="none" stroke="#191970" d="M639.3827,-386.0761C623.255,-375.9774 604.1242,-363.9983 589.303,-354.7177"/>
<polygon fill="#191970" stroke="#191970" points="637.6541,-389.1232 647.9871,-391.4639 641.3691,-383.1903 637.6541,-389.1232"/>
</g>
<!-- Node44 -->
<g id="node9" class="node">
<title>Node44</title>
<g id="a_node9"><a xlink:href="Graphics_2Render_2Window_8hpp.html" target="_top" xlink:title="include/lug/Graphics\l/Render/Window.hpp">
<polygon fill="none" stroke="#000000" points="383,-257.5 383,-287.5 505,-287.5 505,-257.5 383,-257.5"/>
<text text-anchor="start" x="391" y="-275.5" font-family="Helvetica,sans-Serif" font-size="10.00" fill="#000000">include/lug/Graphics</text>
<text text-anchor="middle" x="444" y="-264.5" font-family="Helvetica,sans-Serif" font-size="10.00" fill="#000000">/Render/Window.hpp</text>
</a>
</g>
</g>
<!-- Node42&#45;&gt;Node44 -->
<g id="edge24" class="edge">
<title>Node42&#45;&gt;Node44</title>
<path fill="none" stroke="#191970" d="M602.0927,-397.93C567.4746,-390.8957 526.6452,-378.1292 496,-355 472.7565,-337.4571 457.2728,-306.2457 449.6142,-287.6519"/>
<polygon fill="#191970" stroke="#191970" points="601.668,-401.4121 612.147,-399.8501 602.981,-394.5364 601.668,-401.4121"/>
</g>
<!-- Node52 -->
<g id="node17" class="node">
<title>Node52</title>
<g id="a_node17"><a xlink:href="Render_2View_8cpp.html" target="_top" xlink:title="src/lug/Graphics/Render\l/View.cpp">
<polygon fill="none" stroke="#000000" points="523.5,-257.5 523.5,-287.5 662.5,-287.5 662.5,-257.5 523.5,-257.5"/>
<text text-anchor="start" x="531.5" y="-275.5" font-family="Helvetica,sans-Serif" font-size="10.00" fill="#000000">src/lug/Graphics/Render</text>
<text text-anchor="middle" x="593" y="-264.5" font-family="Helvetica,sans-Serif" font-size="10.00" fill="#000000">/View.cpp</text>
</a>
</g>
</g>
<!-- Node42&#45;&gt;Node52 -->
<g id="edge30" class="edge">
<title>Node42&#45;&gt;Node52</title>
<path fill="none" stroke="#191970" d="M661.9927,-381.7528C654.8041,-364.9724 644.4017,-342.5557 633,-324 625.058,-311.0748 614.4708,-297.5704 606.1836,-287.6344"/>
<polygon fill="#191970" stroke="#191970" points="658.9383,-383.5195 666.0335,-391.3877 665.3935,-380.8122 658.9383,-383.5195"/>
</g>
<!-- Node53 -->
<g id="node18" class="node">
<title>Node53</title>
<g id="a_node18"><a xlink:href="Vulkan_2Render_2View_8hpp.html" target="_top" xlink:title="include/lug/Graphics\l/Vulkan/Render/View.hpp">
<polygon fill="none" stroke="#000000" points="666.5,-190.5 666.5,-220.5 811.5,-220.5 811.5,-190.5 666.5,-190.5"/>
<text text-anchor="start" x="674.5" y="-208.5" font-family="Helvetica,sans-Serif" font-size="10.00" fill="#000000">include/lug/Graphics</text>
<text text-anchor="middle" x="739" y="-197.5" font-family="Helvetica,sans-Serif" font-size="10.00" fill="#000000">/Vulkan/Render/View.hpp</text>
</a>
</g>
</g>
<!-- Node42&#45;&gt;Node53 -->
<g id="edge25" class="edge">
<title>Node42&#45;&gt;Node53</title>
<path fill="none" stroke="#191970" d="M680.205,-381.8851C694.2592,-339.7224 722.5303,-254.9092 733.9971,-220.5088"/>
<polygon fill="#191970" stroke="#191970" points="676.8778,-380.7987 677.0359,-391.3923 683.5186,-383.0123 676.8778,-380.7987"/>
</g>
<!-- Node42&#45;&gt;Node54 -->
<g id="edge29" class="edge">
<title>Node42&#45;&gt;Node54</title>
<path fill="none" stroke="#191970" d="M707.1766,-386.3561C724.9128,-376.1995 746.0692,-364.0843 762.4257,-354.7177"/>
<polygon fill="#191970" stroke="#191970" points="705.1957,-383.4572 698.2571,-391.4639 708.6743,-389.5317 705.1957,-383.4572"/>
</g>
<!-- Node43&#45;&gt;Node44 -->
<g id="edge8" class="edge">
<title>Node43&#45;&gt;Node44</title>
<path fill="none" stroke="#191970" d="M528.8729,-319.4958C510.4791,-309.3107 488.4761,-297.1272 471.4828,-287.7177"/>
<polygon fill="#191970" stroke="#191970" points="527.4014,-322.6816 537.8452,-324.4639 530.7923,-316.5578 527.4014,-322.6816"/>
</g>
<!-- Node43&#45;&gt;Node52 -->
<g id="edge23" class="edge">
<title>Node43&#45;&gt;Node52</title>
<path fill="none" stroke="#191970" d="M575.2797,-314.9021C579.0963,-305.7696 583.3106,-295.6854 586.6715,-287.6432"/>
<polygon fill="#191970" stroke="#191970" points="571.9803,-313.7204 571.3536,-324.2967 578.439,-316.4196 571.9803,-313.7204"/>
</g>
<!-- Node44&#45;&gt;Node38 -->
<g id="edge9" class="edge">
<title>Node44&#45;&gt;Node38</title>
<path fill="none" stroke="#191970" d="M372.9542,-260.7065C273.6704,-242.5801 101.5519,-204.5944 66,-154 49.8769,-131.055 70.378,-97.3177 82.4067,-81.0136"/>
<polygon fill="#191970" stroke="#191970" points="372.4548,-264.1729 382.9173,-262.5036 373.6974,-257.284 372.4548,-264.1729"/>
</g>
<!-- Node45 -->
<g id="node10" class="node">
<title>Node45</title>
<g id="a_node10"><a xlink:href="Renderer_8hpp.html" target="_top" xlink:title="include/lug/Graphics\l/Renderer.hpp">
<polygon fill="none" stroke="#000000" points="261.5,-190.5 261.5,-220.5 380.5,-220.5 380.5,-190.5 261.5,-190.5"/>
<text text-anchor="start" x="269.5" y="-208.5" font-family="Helvetica,sans-Serif" font-size="10.00" fill="#000000">include/lug/Graphics</text>
<text text-anchor="middle" x="321" y="-197.5" font-family="Helvetica,sans-Serif" font-size="10.00" fill="#000000">/Renderer.hpp</text>
</a>
</g>
</g>
<!-- Node44&#45;&gt;Node45 -->
<g id="edge10" class="edge">
<title>Node44&#45;&gt;Node45</title>
<path fill="none" stroke="#191970" d="M407.5317,-252.6352C388.7823,-242.422 366.2901,-230.1702 348.937,-220.7177"/>
<polygon fill="#191970" stroke="#191970" points="405.9405,-255.7539 416.3964,-257.4639 409.289,-249.6067 405.9405,-255.7539"/>
</g>
<!-- Node50 -->
<g id="node15" class="node">
<title>Node50</title>
<g id="a_node15"><a xlink:href="Graphics_2Vulkan_2Render_2Window_8hpp.html" target="_top" xlink:title="include/lug/Graphics\l/Vulkan/Render/Window.hpp">
<polygon fill="none" stroke="#000000" points="423,-190.5 423,-220.5 583,-220.5 583,-190.5 423,-190.5"/>
<text text-anchor="start" x="431" y="-208.5" font-family="Helvetica,sans-Serif" font-size="10.00" fill="#000000">include/lug/Graphics</text>
<text text-anchor="middle" x="503" y="-197.5" font-family="Helvetica,sans-Serif" font-size="10.00" fill="#000000">/Vulkan/Render/Window.hpp</text>
</a>
</g>
</g>
<!-- Node44&#45;&gt;Node50 -->
<g id="edge18" class="edge">
<title>Node44&#45;&gt;Node50</title>
<path fill="none" stroke="#191970" d="M464.1318,-249.6385C472.5619,-240.0653 482.131,-229.1987 489.665,-220.6432"/>
<polygon fill="#191970" stroke="#191970" points="461.3701,-247.4786 457.388,-257.2967 466.6236,-252.1048 461.3701,-247.4786"/>
</g>
<!-- Node45&#45;&gt;Node37 -->
<g id="edge11" class="edge">
<title>Node45&#45;&gt;Node37</title>
<path fill="none" stroke="#191970" d="M269.648,-187.0023C240.4655,-176.4903 204.3876,-163.4945 176.9241,-153.6017"/>
<polygon fill="#191970" stroke="#191970" points="268.6636,-190.3677 279.258,-190.4639 271.0359,-183.782 268.6636,-190.3677"/>
</g>
<!-- Node46 -->
<g id="node11" class="node">
<title>Node46</title>
<g id="a_node11"><a xlink:href="Vulkan_2Renderer_8hpp.html" target="_top" xlink:title="include/lug/Graphics\l/Vulkan/Renderer.hpp">
<polygon fill="none" stroke="#000000" points="439.5,-123.5 439.5,-153.5 566.5,-153.5 566.5,-123.5 439.5,-123.5"/>
<text text-anchor="start" x="447.5" y="-141.5" font-family="Helvetica,sans-Serif" font-size="10.00" fill="#000000">include/lug/Graphics</text>
<text text-anchor="middle" x="503" y="-130.5" font-family="Helvetica,sans-Serif" font-size="10.00" fill="#000000">/Vulkan/Renderer.hpp</text>
</a>
</g>
</g>
<!-- Node45&#45;&gt;Node46 -->
<g id="edge12" class="edge">
<title>Node45&#45;&gt;Node46</title>
<path fill="none" stroke="#191970" d="M371.2476,-187.0023C399.8025,-176.4903 435.1046,-163.4945 461.9775,-153.6017"/>
<polygon fill="#191970" stroke="#191970" points="370.0195,-183.7247 361.8444,-190.4639 372.4378,-190.2937 370.0195,-183.7247"/>
</g>
<!-- Node49 -->
<g id="node14" class="node">
<title>Node49</title>
<g id="a_node14"><a xlink:href="Renderer_8cpp.html" target="_top" xlink:title="src/lug/Graphics/Renderer.cpp">
<polygon fill="none" stroke="#000000" points="213,-129 213,-148 383,-148 383,-129 213,-129"/>
<text text-anchor="middle" x="298" y="-136" font-family="Helvetica,sans-Serif" font-size="10.00" fill="#000000">src/lug/Graphics/Renderer.cpp</text>
</a>
</g>
</g>
<!-- Node45&#45;&gt;Node49 -->
<g id="edge17" class="edge">
<title>Node45&#45;&gt;Node49</title>
<path fill="none" stroke="#191970" d="M312.5249,-180.8118C308.6159,-169.4246 304.2049,-156.5752 301.2801,-148.055"/>
<polygon fill="#191970" stroke="#191970" points="309.2236,-181.9749 315.7809,-190.2967 315.8444,-179.702 309.2236,-181.9749"/>
</g>
<!-- Node46&#45;&gt;Node40 -->
<g id="edge13" class="edge">
<title>Node46&#45;&gt;Node40</title>
<path fill="none" stroke="#191970" d="M494.78,-113.4663C491.0693,-102.1655 486.9069,-89.4891 484.1375,-81.055"/>
<polygon fill="#191970" stroke="#191970" points="491.5628,-114.8877 498.0079,-123.2967 498.2134,-112.7038 491.5628,-114.8877"/>
</g>
<!-- Node46&#45;&gt;Node41 -->
<g id="edge16" class="edge">
<title>Node46&#45;&gt;Node41</title>
<path fill="none" stroke="#191970" d="M450.11,-120.1392C419.7604,-109.6033 382.1229,-96.5375 353.5019,-86.6017"/>
<polygon fill="#191970" stroke="#191970" points="449.0922,-123.4907 459.687,-123.4639 451.3879,-116.8779 449.0922,-123.4907"/>
</g>
<!-- Node47 -->
<g id="node12" class="node">
<title>Node47</title>
<g id="a_node12"><a xlink:href="Forward_8cpp.html" target="_top" xlink:title="src/lug/Graphics/Vulkan\l/Render/Technique/Forward.cpp">
<polygon fill="none" stroke="#000000" points="738.5,-56.5 738.5,-86.5 915.5,-86.5 915.5,-56.5 738.5,-56.5"/>
<text text-anchor="start" x="746.5" y="-74.5" font-family="Helvetica,sans-Serif" font-size="10.00" fill="#000000">src/lug/Graphics/Vulkan</text>
<text text-anchor="middle" x="827" y="-63.5" font-family="Helvetica,sans-Serif" font-size="10.00" fill="#000000">/Render/Technique/Forward.cpp</text>
</a>
</g>
</g>
<!-- Node46&#45;&gt;Node47 -->
<g id="edge14" class="edge">
<title>Node46&#45;&gt;Node47</title>
<path fill="none" stroke="#191970" d="M576.6642,-123.267C629.8137,-112.2762 701.2365,-97.5066 754.1891,-86.5566"/>
<polygon fill="#191970" stroke="#191970" points="575.7094,-119.8903 566.6254,-125.3429 577.127,-126.7452 575.7094,-119.8903"/>
</g>
<!-- Node48 -->
<g id="node13" class="node">
<title>Node48</title>
<g id="a_node13"><a xlink:href="Graphics_2Vulkan_2Render_2Window_8cpp.html" target="_top" xlink:title="src/lug/Graphics/Vulkan\l/Render/Window.cpp">
<polygon fill="none" stroke="#000000" points="583.5,-56.5 583.5,-86.5 720.5,-86.5 720.5,-56.5 583.5,-56.5"/>
<text text-anchor="start" x="591.5" y="-74.5" font-family="Helvetica,sans-Serif" font-size="10.00" fill="#000000">src/lug/Graphics/Vulkan</text>
<text text-anchor="middle" x="652" y="-63.5" font-family="Helvetica,sans-Serif" font-size="10.00" fill="#000000">/Render/Window.cpp</text>
</a>
</g>
</g>
<!-- Node46&#45;&gt;Node48 -->
<g id="edge15" class="edge">
<title>Node46&#45;&gt;Node48</title>
<path fill="none" stroke="#191970" d="M545.6691,-119.3132C568.7675,-108.9267 596.8936,-96.2794 618.4156,-86.6017"/>
<polygon fill="#191970" stroke="#191970" points="544.1235,-116.1706 536.4385,-123.4639 546.9943,-122.5549 544.1235,-116.1706"/>
</g>
<!-- Node50&#45;&gt;Node41 -->
<g id="edge22" class="edge">
<title>Node50&#45;&gt;Node41</title>
<path fill="none" stroke="#191970" d="M472.3766,-184.6053C459.1855,-175.4234 443.6805,-164.3858 430,-154 412.64,-140.8208 409.707,-135.7092 392,-123 373.8359,-109.9627 352.4126,-96.5714 336.0193,-86.713"/>
<polygon fill="#191970" stroke="#191970" points="470.4542,-187.5313 480.6684,-190.3456 474.4386,-181.7759 470.4542,-187.5313"/>
</g>
<!-- Node50&#45;&gt;Node46 -->
<g id="edge19" class="edge">
<title>Node50&#45;&gt;Node46</title>
<path fill="none" stroke="#191970" d="M503,-180.0249C503,-171.128 503,-161.4287 503,-153.6432"/>
<polygon fill="#191970" stroke="#191970" points="499.5001,-180.2966 503,-190.2967 506.5001,-180.2967 499.5001,-180.2966"/>
</g>
<!-- Node50&#45;&gt;Node48 -->
<g id="edge21" class="edge">
<title>Node50&#45;&gt;Node48</title>
<path fill="none" stroke="#191970" d="M535.1301,-184.5566C547.9672,-175.6749 562.6124,-164.8732 575,-154 599.5899,-132.4162 624.8652,-103.8844 639.4674,-86.6547"/>
<polygon fill="#191970" stroke="#191970" points="532.8786,-181.8553 526.5818,-190.376 536.8178,-187.6417 532.8786,-181.8553"/>
</g>
<!-- Node51 -->
<g id="node16" class="node">
<title>Node51</title>
<g id="a_node16"><a xlink:href="Vulkan_2Render_2View_8cpp.html" target="_top" xlink:title="src/lug/Graphics/Vulkan\l/Render/View.cpp">
<polygon fill="none" stroke="#000000" points="623.5,-123.5 623.5,-153.5 760.5,-153.5 760.5,-123.5 623.5,-123.5"/>
<text text-anchor="start" x="631.5" y="-141.5" font-family="Helvetica,sans-Serif" font-size="10.00" fill="#000000">src/lug/Graphics/Vulkan</text>
<text text-anchor="middle" x="692" y="-130.5" font-family="Helvetica,sans-Serif" font-size="10.00" fill="#000000">/Render/View.cpp</text>
</a>
</g>
</g>
<!-- Node50&#45;&gt;Node51 -->
<g id="edge20" class="edge">
<title>Node50&#45;&gt;Node51</title>
<path fill="none" stroke="#191970" d="M555.1802,-187.0023C584.8334,-176.4903 621.4932,-163.4945 649.3997,-153.6017"/>
<polygon fill="#191970" stroke="#191970" points="553.6711,-183.8237 545.4153,-190.4639 556.01,-190.4214 553.6711,-183.8237"/>
</g>
<!-- Node53&#45;&gt;Node47 -->
<g id="edge26" class="edge">
<title>Node53&#45;&gt;Node47</title>
<path fill="none" stroke="#191970" d="M762.213,-182.8327C770.3082,-174.2435 779.0877,-164.0932 786,-154 801.002,-132.0943 813.7876,-103.9087 820.9233,-86.7981"/>
<polygon fill="#191970" stroke="#191970" points="759.4865,-180.617 755.0442,-190.2356 764.5151,-185.4866 759.4865,-180.617"/>
</g>
<!-- Node53&#45;&gt;Node48 -->
<g id="edge28" class="edge">
<title>Node53&#45;&gt;Node48</title>
<path fill="none" stroke="#191970" d="M758.5316,-181.8502C770.2701,-164.5957 780.8427,-141.1521 769,-123 757.7222,-105.7139 739.1976,-94.1906 720.1798,-86.5244"/>
<polygon fill="#191970" stroke="#191970" points="755.4699,-180.1081 752.3993,-190.2483 761.1231,-184.2362 755.4699,-180.1081"/>
</g>
<!-- Node53&#45;&gt;Node51 -->
<g id="edge27" class="edge">
<title>Node53&#45;&gt;Node51</title>
<path fill="none" stroke="#191970" d="M722.5588,-182.0626C715.943,-172.6315 708.5045,-162.0276 702.6228,-153.6432"/>
<polygon fill="#191970" stroke="#191970" points="719.7268,-184.1201 728.335,-190.2967 725.4574,-180.1001 719.7268,-184.1201"/>
</g>
<!-- Node55&#45;&gt;Node40 -->
<g id="edge32" class="edge">
<title>Node55&#45;&gt;Node40</title>
<path fill="none" stroke="#191970" d="M844.8917,-126.2423C771.8096,-116.1571 666.1705,-101.2534 574,-87 562.0296,-85.1489 549.2087,-83.0728 537.0293,-81.0565"/>
<polygon fill="#191970" stroke="#191970" points="844.5988,-129.735 854.983,-127.6328 845.5544,-122.8005 844.5988,-129.735"/>
</g>
<!-- Node55&#45;&gt;Node47 -->
<g id="edge34" class="edge">
<title>Node55&#45;&gt;Node47</title>
<path fill="none" stroke="#191970" d="M902.0779,-118.0761C885.7995,-107.9774 866.4899,-95.9983 851.5301,-86.7177"/>
<polygon fill="#191970" stroke="#191970" points="900.42,-121.1663 910.7627,-123.4639 904.1102,-115.218 900.42,-121.1663"/>
</g>
<!-- Node56 -->
<g id="node21" class="node">
<title>Node56</title>
<g id="a_node21"><a xlink:href="Vulkan_2Render_2Camera_8cpp.html" target="_top" xlink:title="src/lug/Graphics/Vulkan\l/Render/Camera.cpp">
<polygon fill="none" stroke="#000000" points="933.5,-56.5 933.5,-86.5 1070.5,-86.5 1070.5,-56.5 933.5,-56.5"/>
<text text-anchor="start" x="941.5" y="-74.5" font-family="Helvetica,sans-Serif" font-size="10.00" fill="#000000">src/lug/Graphics/Vulkan</text>
<text text-anchor="middle" x="1002" y="-63.5" font-family="Helvetica,sans-Serif" font-size="10.00" fill="#000000">/Render/Camera.cpp</text>
</a>
</g>
</g>
<!-- Node55&#45;&gt;Node56 -->
<g id="edge33" class="edge">
<title>Node55&#45;&gt;Node56</title>
<path fill="none" stroke="#191970" d="M957.2887,-116.2113C966.9991,-106.5009 978.1302,-95.3698 986.8568,-86.6432"/>
<polygon fill="#191970" stroke="#191970" points="954.7996,-113.7507 950.2033,-123.2967 959.7493,-118.7004 954.7996,-113.7507"/>
</g>
</g>
</svg>
        <g id="navigator" transform="translate(0 0)" fill="#404254">
                <rect fill="#f2f5e9" fill-opacity="0.5" stroke="#606060" stroke-width=".5" x="0" y="0" width="60" height="60"/>
                <use id="zoomplus" xlink:href="#zoomPlus" x="17" y="9" onmousedown="handleZoom(evt,'in')"/>
                <use id="zoomminus" xlink:href="#zoomMin" x="42" y="9" onmousedown="handleZoom(evt,'out')"/>
                <use id="reset" xlink:href="#resetDef" x="30" y="36" onmousedown="handleReset()"/>
                <g id="arrowUp" xlink:href="#dirArrow" transform="translate(30 24)" onmousedown="handlePan(0,-1)">
                  <use xlink:href="#rim" fill="#404040">
                        <set attributeName="fill" to="#808080" begin="arrowUp.mouseover" end="arrowUp.mouseout"/>
                  </use>
                  <path fill="none" stroke="white" stroke-width="1.5" d="M0,-3.0v7 M-2.5,-0.5L0,-3.0L2.5,-0.5"/>
                </g>
                <g id="arrowRight" xlink:href="#dirArrow" transform="rotate(90) translate(36 -43)" onmousedown="handlePan(1,0)">
                  <use xlink:href="#rim" fill="#404040">
                        <set attributeName="fill" to="#808080" begin="arrowRight.mouseover" end="arrowRight.mouseout"/>
                  </use>
                  <path fill="none" stroke="white" stroke-width="1.5" d="M0,-3.0v7 M-2.5,-0.5L0,-3.0L2.5,-0.5"/>
                </g>
                <g id="arrowDown" xlink:href="#dirArrow" transform="rotate(180) translate(-30 -48)" onmousedown="handlePan(0,1)">
                  <use xlink:href="#rim" fill="#404040">
                        <set attributeName="fill" to="#808080" begin="arrowDown.mouseover" end="arrowDown.mouseout"/>
                  </use>
                  <path fill="none" stroke="white" stroke-width="1.5" d="M0,-3.0v7 M-2.5,-0.5L0,-3.0L2.5,-0.5"/>
                </g>
                <g id="arrowLeft" xlink:href="#dirArrow" transform="rotate(270) translate(-36 17)" onmousedown="handlePan(-1,0)">
                  <use xlink:href="#rim" fill="#404040">
                        <set attributeName="fill" to="#808080" begin="arrowLeft.mouseover" end="arrowLeft.mouseout"/>
                  </use>
                  <path fill="none" stroke="white" stroke-width="1.5" d="M0,-3.0v7 M-2.5,-0.5L0,-3.0L2.5,-0.5"/>
                </g>
        </g>
        <svg viewBox="0 0 15 15" width="100%" height="30px" preserveAspectRatio="xMaxYMin meet">
         <g id="arrow_out" transform="scale(0.3 0.3)">
          <a xlink:href="Render_2Camera_8hpp__dep__incl_org.svg" target="_base">
           <rect id="button" ry="5" rx="5" y="6" x="6" height="38" width="38"
                fill="#f2f5e9" fill-opacity="0.5" stroke="#606060" stroke-width="1.0"/>
           <path id="arrow"
             d="M 11.500037,31.436501 C 11.940474,20.09759 22.043105,11.32322 32.158766,21.979434 L 37.068811,17.246167 C 37.068811,17.246167 37.088388,32 37.088388,32 L 22.160133,31.978069 C 22.160133,31.978069 26.997745,27.140456 26.997745,27.140456 C 18.528582,18.264221 13.291696,25.230495 11.500037,31.436501 z"
             style="fill:#404040;"/>
          </a>
         </g>
        </svg>
</svg>
