<?xml version="1.0" encoding="UTF-8" standalone="no"?>
<!DOCTYPE svg PUBLIC "-//W3C//DTD SVG 1.1//EN"
 "http://www.w3.org/Graphics/SVG/1.1/DTD/svg11.dtd">
<!-- Generated by graphviz version 2.40.1 (20161225.0304)
 -->
<!-- Title: include/lug/Graphics/Render/View.hpp Pages: 1 -->
<svg width="1624pt" height="464pt"
 viewBox="0.00 0.00 1624.00 464.00" xmlns="http://www.w3.org/2000/svg" xmlns:xlink="http://www.w3.org/1999/xlink">
<g id="graph0" class="graph" transform="scale(1 1) rotate(0) translate(4 460)">
<title>include/lug/Graphics/Render/View.hpp</title>
<!-- Node0 -->
<g id="node1" class="node">
<title>Node0</title>
<polygon fill="#bfbfbf" stroke="#000000" points="147.5,-425.5 147.5,-455.5 266.5,-455.5 266.5,-425.5 147.5,-425.5"/>
<text text-anchor="start" x="155.5" y="-443.5" font-family="Helvetica,sans-Serif" font-size="10.00" fill="#000000">include/lug/Graphics</text>
<text text-anchor="middle" x="207" y="-432.5" font-family="Helvetica,sans-Serif" font-size="10.00" fill="#000000">/Render/View.hpp</text>
</g>
<!-- Node1 -->
<g id="node2" class="node">
<title>Node1</title>
<polygon fill="none" stroke="#bfbfbf" points="540,-56.5 540,-75.5 590,-75.5 590,-56.5 540,-56.5"/>
<text text-anchor="middle" x="565" y="-63.5" font-family="Helvetica,sans-Serif" font-size="10.00" fill="#000000">cstdint</text>
</g>
<!-- Node0&#45;&gt;Node1 -->
<g id="edge1" class="edge">
<title>Node0&#45;&gt;Node1</title>
<path fill="none" stroke="#191970" d="M206.1781,-425.3274C203.8387,-389.336 195.4987,-296.3883 169,-224 162.6325,-206.6056 152.8342,-205.8813 148,-188 145.6802,-179.4192 147.8413,-176.8875 148,-168 148.4445,-143.0992 133.0595,-130.2556 150,-112 175.6645,-84.3432 434.0646,-71.2467 529.6754,-67.3199"/>
<polygon fill="#191970" stroke="#191970" points="529.8693,-70.815 539.7209,-66.9166 529.5885,-63.8206 529.8693,-70.815"/>
</g>
<!-- Node2 -->
<g id="node3" class="node">
<title>Node2</title>
<polygon fill="none" stroke="#bfbfbf" points="553.5,-230 553.5,-249 612.5,-249 612.5,-230 553.5,-230"/>
<text text-anchor="middle" x="583" y="-237" font-family="Helvetica,sans-Serif" font-size="10.00" fill="#000000">memory</text>
</g>
<!-- Node0&#45;&gt;Node2 -->
<g id="edge2" class="edge">
<title>Node0&#45;&gt;Node2</title>
<path fill="none" stroke="#191970" d="M209.9067,-425.1676C216.6596,-394.1504 236.5133,-324.1013 283,-291 378.3871,-223.0787 430.7679,-284.8411 544,-255 546.6178,-254.3101 549.2973,-253.4939 551.9654,-252.6027"/>
<polygon fill="#191970" stroke="#191970" points="553.2564,-255.8574 561.4476,-249.1378 550.8538,-249.2826 553.2564,-255.8574"/>
</g>
<!-- Node3 -->
<g id="node4" class="node">
<title>Node3</title>
<g id="a_node4"><a xlink:href="Graphics_2Export_8hpp.html" target="_top" xlink:title="lug/Graphics/Export.hpp">
<polygon fill="none" stroke="#000000" points="22,-230 22,-249 160,-249 160,-230 22,-230"/>
<text text-anchor="middle" x="91" y="-237" font-family="Helvetica,sans-Serif" font-size="10.00" fill="#000000">lug/Graphics/Export.hpp</text>
</a>
</g>
</g>
<!-- Node0&#45;&gt;Node3 -->
<g id="edge3" class="edge">
<title>Node0&#45;&gt;Node3</title>
<path fill="none" stroke="#191970" d="M196.9258,-425.3343C190.2552,-415.159 181.4045,-401.3993 174,-389 146.2247,-342.4888 115.873,-286.3219 100.7314,-257.8986"/>
<polygon fill="#191970" stroke="#191970" points="103.8207,-256.2533 96.0391,-249.0632 97.6384,-259.5366 103.8207,-256.2533"/>
</g>
<!-- Node5 -->
<g id="node6" class="node">
<title>Node5</title>
<g id="a_node6"><a xlink:href="Render_2Camera_8hpp.html" target="_top" xlink:title="lug/Graphics/Render\l/Camera.hpp">
<polygon fill="none" stroke="#000000" points="336.5,-358.5 336.5,-388.5 455.5,-388.5 455.5,-358.5 336.5,-358.5"/>
<text text-anchor="start" x="344.5" y="-376.5" font-family="Helvetica,sans-Serif" font-size="10.00" fill="#000000">lug/Graphics/Render</text>
<text text-anchor="middle" x="396" y="-365.5" font-family="Helvetica,sans-Serif" font-size="10.00" fill="#000000">/Camera.hpp</text>
</a>
</g>
</g>
<!-- Node0&#45;&gt;Node5 -->
<g id="edge5" class="edge">
<title>Node0&#45;&gt;Node5</title>
<path fill="none" stroke="#191970" d="M249.4153,-425.4639C277.283,-415.5849 313.9389,-402.5905 343.623,-392.0675"/>
<polygon fill="#191970" stroke="#191970" points="345.1439,-395.2418 353.3997,-388.6017 342.805,-388.6441 345.1439,-395.2418"/>
</g>
<!-- Node37 -->
<g id="node38" class="node">
<title>Node37</title>
<g id="a_node38"><a xlink:href="Type_8hpp.html" target="_top" xlink:title="lug/Graphics/Render\l/Technique/Type.hpp">
<polygon fill="none" stroke="#000000" points="0,-358.5 0,-388.5 122,-388.5 122,-358.5 0,-358.5"/>
<text text-anchor="start" x="8" y="-376.5" font-family="Helvetica,sans-Serif" font-size="10.00" fill="#000000">lug/Graphics/Render</text>
<text text-anchor="middle" x="61" y="-365.5" font-family="Helvetica,sans-Serif" font-size="10.00" fill="#000000">/Technique/Type.hpp</text>
</a>
</g>
</g>
<!-- Node0&#45;&gt;Node37 -->
<g id="edge53" class="edge">
<title>Node0&#45;&gt;Node37</title>
<path fill="none" stroke="#191970" d="M174.2348,-425.4639C153.2689,-415.8426 125.8639,-403.2663 103.2659,-392.896"/>
<polygon fill="#191970" stroke="#191970" points="104.4567,-389.5915 93.9082,-388.6017 101.537,-395.9536 104.4567,-389.5915"/>
</g>
<!-- Node38 -->
<g id="node39" class="node">
<title>Node38</title>
<g id="a_node39"><a xlink:href="Render_2View_8inl.html" target="_top" xlink:title="lug/Graphics/Render\l/View.inl">
<polygon fill="none" stroke="#000000" points="473.5,-358.5 473.5,-388.5 592.5,-388.5 592.5,-358.5 473.5,-358.5"/>
<text text-anchor="start" x="481.5" y="-376.5" font-family="Helvetica,sans-Serif" font-size="10.00" fill="#000000">lug/Graphics/Render</text>
<text text-anchor="middle" x="533" y="-365.5" font-family="Helvetica,sans-Serif" font-size="10.00" fill="#000000">/View.inl</text>
</a>
</g>
</g>
<!-- Node0&#45;&gt;Node38 -->
<g id="edge55" class="edge">
<title>Node0&#45;&gt;Node38</title>
<path fill="none" stroke="#191970" d="M266.5421,-428.9748C316.4418,-419.2233 389.8178,-404.669 463.2854,-389.1262"/>
<polygon fill="#191970" stroke="#191970" points="464.1236,-392.5264 473.1794,-387.0271 462.6708,-385.6788 464.1236,-392.5264"/>
</g>
<!-- Node4 -->
<g id="node5" class="node">
<title>Node4</title>
<g id="a_node5"><a xlink:href="Config_8hpp.html" target="_top" xlink:title="lug/Config.hpp">
<polygon fill="none" stroke="#000000" points="758.5,-.5 758.5,-19.5 847.5,-19.5 847.5,-.5 758.5,-.5"/>
<text text-anchor="middle" x="803" y="-7.5" font-family="Helvetica,sans-Serif" font-size="10.00" fill="#000000">lug/Config.hpp</text>
</a>
</g>
</g>
<!-- Node3&#45;&gt;Node4 -->
<g id="edge4" class="edge">
<title>Node3&#45;&gt;Node4</title>
<path fill="none" stroke="#191970" d="M89.4693,-229.7981C86.3062,-205.9042 81.8836,-143.8534 115,-112 160.6198,-68.1201 593.0713,-27.6922 748.0641,-14.4995"/>
<polygon fill="#191970" stroke="#191970" points="748.6311,-17.9641 758.3004,-13.6335 748.0409,-10.989 748.6311,-17.9641"/>
</g>
<!-- Node5&#45;&gt;Node3 -->
<g id="edge6" class="edge">
<title>Node5&#45;&gt;Node3</title>
<path fill="none" stroke="#191970" d="M361.6055,-358.389C301.8132,-332.1196 179.6073,-278.4291 122.1563,-253.1883"/>
<polygon fill="#191970" stroke="#191970" points="123.4234,-249.9222 112.8602,-249.1042 120.6078,-256.331 123.4234,-249.9222"/>
</g>
<!-- Node6 -->
<g id="node7" class="node">
<title>Node6</title>
<g id="a_node7"><a xlink:href="Node_8hpp.html" target="_top" xlink:title="lug/Graphics/Node.hpp">
<polygon fill="none" stroke="#000000" points="672.5,-297 672.5,-316 803.5,-316 803.5,-297 672.5,-297"/>
<text text-anchor="middle" x="738" y="-304" font-family="Helvetica,sans-Serif" font-size="10.00" fill="#000000">lug/Graphics/Node.hpp</text>
</a>
</g>
</g>
<!-- Node5&#45;&gt;Node6 -->
<g id="edge7" class="edge">
<title>Node5&#45;&gt;Node6</title>
<path fill="none" stroke="#191970" d="M455.6758,-359.7614C458.4878,-359.1568 461.2734,-358.5668 464,-358 535.7149,-343.0927 618.3905,-327.8136 674.008,-317.8115"/>
<polygon fill="#191970" stroke="#191970" points="674.8445,-321.2174 684.0694,-316.0066 673.6084,-314.3274 674.8445,-321.2174"/>
</g>
<!-- Node8 -->
<g id="node9" class="node">
<title>Node8</title>
<g id="a_node9"><a xlink:href="Matrix_8hpp.html" target="_top" xlink:title="lug/Math/Matrix.hpp">
<polygon fill="none" stroke="#000000" points="982,-112.5 982,-131.5 1100,-131.5 1100,-112.5 982,-112.5"/>
<text text-anchor="middle" x="1041" y="-119.5" font-family="Helvetica,sans-Serif" font-size="10.00" fill="#000000">lug/Math/Matrix.hpp</text>
</a>
</g>
</g>
<!-- Node5&#45;&gt;Node8 -->
<g id="edge51" class="edge">
<title>Node5&#45;&gt;Node8</title>
<path fill="none" stroke="#191970" d="M455.5989,-359.3203C458.4314,-358.8337 461.2424,-358.3893 464,-358 604.6092,-338.1508 967.1508,-366.5044 1102,-322 1161.6993,-302.2974 1232.5274,-280.0213 1204,-224 1180.1396,-177.1436 1123.9334,-149.3326 1084.2181,-134.869"/>
<polygon fill="#191970" stroke="#191970" points="1085.3527,-131.558 1074.7579,-131.5603 1083.0417,-138.1655 1085.3527,-131.558"/>
</g>
<!-- Node29 -->
<g id="node30" class="node">
<title>Node29</title>
<g id="a_node30"><a xlink:href="Render_2Queue_8hpp.html" target="_top" xlink:title="lug/Graphics/Render\l/Queue.hpp">
<polygon fill="none" stroke="#000000" points="974.5,-291.5 974.5,-321.5 1093.5,-321.5 1093.5,-291.5 974.5,-291.5"/>
<text text-anchor="start" x="982.5" y="-309.5" font-family="Helvetica,sans-Serif" font-size="10.00" fill="#000000">lug/Graphics/Render</text>
<text text-anchor="middle" x="1034" y="-298.5" font-family="Helvetica,sans-Serif" font-size="10.00" fill="#000000">/Queue.hpp</text>
</a>
</g>
</g>
<!-- Node5&#45;&gt;Node29 -->
<g id="edge40" class="edge">
<title>Node5&#45;&gt;Node29</title>
<path fill="none" stroke="#191970" d="M455.6162,-359.4357C458.4441,-358.9183 461.2494,-358.4357 464,-358 558.5945,-343.0148 833.9544,-321.3943 964.1888,-311.6295"/>
<polygon fill="#191970" stroke="#191970" points="964.7326,-315.0987 974.4437,-310.8626 964.2105,-308.1182 964.7326,-315.0987"/>
</g>
<!-- Node31 -->
<g id="node32" class="node">
<title>Node31</title>
<g id="a_node32"><a xlink:href="Transform_8hpp.html" target="_top" xlink:title="lug/Math/Geometry/Transform.hpp">
<polygon fill="none" stroke="#000000" points="343,-230 343,-249 535,-249 535,-230 343,-230"/>
<text text-anchor="middle" x="439" y="-237" font-family="Helvetica,sans-Serif" font-size="10.00" fill="#000000">lug/Math/Geometry/Transform.hpp</text>
</a>
</g>
</g>
<!-- Node5&#45;&gt;Node31 -->
<g id="edge43" class="edge">
<title>Node5&#45;&gt;Node31</title>
<path fill="none" stroke="#191970" d="M404.2281,-358.0756C409.3273,-348.0239 415.7015,-334.4995 420,-322 427.1458,-301.2211 432.4252,-276.5757 435.5812,-259.6661"/>
<polygon fill="#191970" stroke="#191970" points="439.113,-259.7973 437.4237,-249.338 432.2218,-258.5679 439.113,-259.7973"/>
</g>
<!-- Node36 -->
<g id="node37" class="node">
<title>Node36</title>
<g id="a_node37"><a xlink:href="Camera_8inl.html" target="_top" xlink:title="lug/Graphics/Render\l/Camera.inl">
<polygon fill="none" stroke="#000000" points="292.5,-291.5 292.5,-321.5 411.5,-321.5 411.5,-291.5 292.5,-291.5"/>
<text text-anchor="start" x="300.5" y="-309.5" font-family="Helvetica,sans-Serif" font-size="10.00" fill="#000000">lug/Graphics/Render</text>
<text text-anchor="middle" x="352" y="-298.5" font-family="Helvetica,sans-Serif" font-size="10.00" fill="#000000">/Camera.inl</text>
</a>
</g>
</g>
<!-- Node5&#45;&gt;Node36 -->
<g id="edge52" class="edge">
<title>Node5&#45;&gt;Node36</title>
<path fill="none" stroke="#191970" d="M386.0157,-358.2967C380.5588,-349.9873 373.6792,-339.5115 367.5371,-330.1587"/>
<polygon fill="#191970" stroke="#191970" points="370.3596,-328.0806 361.9448,-321.6432 364.5086,-331.9231 370.3596,-328.0806"/>
</g>
<!-- Node6&#45;&gt;Node2 -->
<g id="edge8" class="edge">
<title>Node6&#45;&gt;Node2</title>
<path fill="none" stroke="#191970" d="M715.7923,-296.9005C689.2043,-285.4077 644.4998,-266.0838 614.3886,-253.068"/>
<polygon fill="#191970" stroke="#191970" points="615.7344,-249.8368 605.1665,-249.0817 612.9569,-256.2622 615.7344,-249.8368"/>
</g>
<!-- Node6&#45;&gt;Node3 -->
<g id="edge10" class="edge">
<title>Node6&#45;&gt;Node3</title>
<path fill="none" stroke="#191970" d="M672.4016,-299.707C552.759,-287.3174 299.5635,-261.0978 170.3997,-247.7222"/>
<polygon fill="#191970" stroke="#191970" points="170.4914,-244.2131 160.184,-246.6643 169.7703,-251.1759 170.4914,-244.2131"/>
</g>
<!-- Node7 -->
<g id="node8" class="node">
<title>Node7</title>
<polygon fill="none" stroke="#bfbfbf" points="1010,-230 1010,-249 1058,-249 1058,-230 1010,-230"/>
<text text-anchor="middle" x="1034" y="-237" font-family="Helvetica,sans-Serif" font-size="10.00" fill="#000000">vector</text>
</g>
<!-- Node6&#45;&gt;Node7 -->
<g id="edge9" class="edge">
<title>Node6&#45;&gt;Node7</title>
<path fill="none" stroke="#191970" d="M803.5189,-296.9589C856.177,-288.4488 931.7025,-274.3384 996,-255 998.3028,-254.3074 1000.6588,-253.528 1003.0141,-252.6968"/>
<polygon fill="#191970" stroke="#191970" points="1004.4455,-255.8972 1012.5533,-249.0772 1001.9621,-249.3525 1004.4455,-255.8972"/>
</g>
<!-- Node6&#45;&gt;Node8 -->
<g id="edge11" class="edge">
<title>Node6&#45;&gt;Node8</title>
<path fill="none" stroke="#191970" d="M803.7875,-299.2163C849.8386,-292.2746 911.8472,-279.1521 962,-255 981.9494,-245.393 981.5188,-234.5241 1001,-224 1045.8872,-199.7512 1080.1121,-229.347 1110,-188 1124.6389,-167.7485 1098.1137,-148.4626 1073.8265,-136.0268"/>
<polygon fill="#191970" stroke="#191970" points="1075.2431,-132.824 1064.7183,-131.6084 1072.1879,-139.1221 1075.2431,-132.824"/>
</g>
<!-- Node21 -->
<g id="node22" class="node">
<title>Node21</title>
<g id="a_node22"><a xlink:href="Quaternion_8hpp.html" target="_top" xlink:title="lug/Math/Quaternion.hpp">
<polygon fill="none" stroke="#000000" points="812.5,-230 812.5,-249 953.5,-249 953.5,-230 812.5,-230"/>
<text text-anchor="middle" x="883" y="-237" font-family="Helvetica,sans-Serif" font-size="10.00" fill="#000000">lug/Math/Quaternion.hpp</text>
</a>
</g>
</g>
<!-- Node6&#45;&gt;Node21 -->
<g id="edge27" class="edge">
<title>Node6&#45;&gt;Node21</title>
<path fill="none" stroke="#191970" d="M758.775,-296.9005C783.4323,-285.5072 824.7451,-266.4178 852.9018,-253.4075"/>
<polygon fill="#191970" stroke="#191970" points="854.6539,-256.4535 862.2636,-249.0817 851.7177,-250.099 854.6539,-256.4535"/>
</g>
<!-- Node22 -->
<g id="node23" class="node">
<title>Node22</title>
<g id="a_node23"><a xlink:href="Vector_8hpp.html" target="_top" xlink:title="lug/Math/Vector.hpp">
<polygon fill="none" stroke="#000000" points="587.5,-168.5 587.5,-187.5 706.5,-187.5 706.5,-168.5 587.5,-168.5"/>
<text text-anchor="middle" x="647" y="-175.5" font-family="Helvetica,sans-Serif" font-size="10.00" fill="#000000">lug/Math/Vector.hpp</text>
</a>
</g>
</g>
<!-- Node6&#45;&gt;Node22 -->
<g id="edge38" class="edge">
<title>Node6&#45;&gt;Node22</title>
<path fill="none" stroke="#191970" d="M746.0945,-296.8085C758.6507,-280.5311 779.8125,-247.2076 764,-224 755.5257,-211.5624 722.2272,-199.1757 693.31,-190.3946"/>
<polygon fill="#191970" stroke="#191970" points="694.2954,-187.0362 683.7135,-187.56 692.3124,-193.7495 694.2954,-187.0362"/>
</g>
<!-- Node28 -->
<g id="node29" class="node">
<title>Node28</title>
<g id="a_node29"><a xlink:href="Node_8inl.html" target="_top" xlink:title="lug/Graphics/Node.inl">
<polygon fill="none" stroke="#000000" points="630.5,-230 630.5,-249 755.5,-249 755.5,-230 630.5,-230"/>
<text text-anchor="middle" x="693" y="-237" font-family="Helvetica,sans-Serif" font-size="10.00" fill="#000000">lug/Graphics/Node.inl</text>
</a>
</g>
</g>
<!-- Node6&#45;&gt;Node28 -->
<g id="edge39" class="edge">
<title>Node6&#45;&gt;Node28</title>
<path fill="none" stroke="#191970" d="M731.5526,-296.9005C724.6689,-286.6515 713.6024,-270.1747 705.088,-257.4976"/>
<polygon fill="#191970" stroke="#191970" points="707.9165,-255.4316 699.4354,-249.0817 702.1056,-259.3345 707.9165,-255.4316"/>
</g>
<!-- Node8&#45;&gt;Node1 -->
<g id="edge12" class="edge">
<title>Node8&#45;&gt;Node1</title>
<path fill="none" stroke="#191970" d="M981.6767,-115.0208C881.3831,-103.2215 681.3301,-79.6859 600.3003,-70.153"/>
<polygon fill="#191970" stroke="#191970" points="600.4661,-66.6484 590.1257,-68.956 599.6482,-73.6005 600.4661,-66.6484"/>
</g>
<!-- Node9 -->
<g id="node10" class="node">
<title>Node9</title>
<polygon fill="none" stroke="#bfbfbf" points="1011.5,-56.5 1011.5,-75.5 1070.5,-75.5 1070.5,-56.5 1011.5,-56.5"/>
<text text-anchor="middle" x="1041" y="-63.5" font-family="Helvetica,sans-Serif" font-size="10.00" fill="#000000">valarray</text>
</g>
<!-- Node8&#45;&gt;Node9 -->
<g id="edge13" class="edge">
<title>Node8&#45;&gt;Node9</title>
<path fill="none" stroke="#191970" d="M1041,-112.2455C1041,-104.9382 1041,-94.6944 1041,-85.7046"/>
<polygon fill="#191970" stroke="#191970" points="1044.5001,-85.6426 1041,-75.6427 1037.5001,-85.6427 1044.5001,-85.6426"/>
</g>
<!-- Node10 -->
<g id="node11" class="node">
<title>Node10</title>
<g id="a_node11"><a xlink:href="Math_2Export_8hpp.html" target="_top" xlink:title="lug/Math/Export.hpp">
<polygon fill="none" stroke="#000000" points="743.5,-56.5 743.5,-75.5 862.5,-75.5 862.5,-56.5 743.5,-56.5"/>
<text text-anchor="middle" x="803" y="-63.5" font-family="Helvetica,sans-Serif" font-size="10.00" fill="#000000">lug/Math/Export.hpp</text>
</a>
</g>
</g>
<!-- Node8&#45;&gt;Node10 -->
<g id="edge14" class="edge">
<title>Node8&#45;&gt;Node10</title>
<path fill="none" stroke="#191970" d="M1000.3568,-112.4369C959.7105,-102.8731 897.1087,-88.1432 853.3413,-77.845"/>
<polygon fill="#191970" stroke="#191970" points="854.0114,-74.4072 843.4756,-75.5237 852.4081,-81.2211 854.0114,-74.4072"/>
</g>
<!-- Node11 -->
<g id="node12" class="node">
<title>Node11</title>
<g id="a_node12"><a xlink:href="ValArray_8hpp.html" target="_top" xlink:title="lug/Math/ValArray.hpp">
<polygon fill="none" stroke="#000000" points="1332,-56.5 1332,-75.5 1462,-75.5 1462,-56.5 1332,-56.5"/>
<text text-anchor="middle" x="1397" y="-63.5" font-family="Helvetica,sans-Serif" font-size="10.00" fill="#000000">lug/Math/ValArray.hpp</text>
</a>
</g>
</g>
<!-- Node8&#45;&gt;Node11 -->
<g id="edge16" class="edge">
<title>Node8&#45;&gt;Node11</title>
<path fill="none" stroke="#191970" d="M1100.1858,-112.6899C1162.434,-102.898 1260.3596,-87.494 1326.5479,-77.0824"/>
<polygon fill="#191970" stroke="#191970" points="1327.1465,-80.5313 1336.4811,-75.5198 1326.0587,-73.6164 1327.1465,-80.5313"/>
</g>
<!-- Node17 -->
<g id="node18" class="node">
<title>Node17</title>
<g id="a_node18"><a xlink:href="Debug_8hpp.html" target="_top" xlink:title="lug/System/Debug.hpp">
<polygon fill="none" stroke="#000000" points="1088.5,-56.5 1088.5,-75.5 1219.5,-75.5 1219.5,-56.5 1088.5,-56.5"/>
<text text-anchor="middle" x="1154" y="-63.5" font-family="Helvetica,sans-Serif" font-size="10.00" fill="#000000">lug/System/Debug.hpp</text>
</a>
</g>
</g>
<!-- Node8&#45;&gt;Node17 -->
<g id="edge22" class="edge">
<title>Node8&#45;&gt;Node17</title>
<path fill="none" stroke="#191970" d="M1060.4254,-112.3733C1078.4021,-103.4644 1105.3441,-90.1127 1125.709,-80.0203"/>
<polygon fill="#191970" stroke="#191970" points="1127.4222,-83.0776 1134.8281,-75.5011 1124.3139,-76.8055 1127.4222,-83.0776"/>
</g>
<!-- Node20 -->
<g id="node21" class="node">
<title>Node20</title>
<g id="a_node21"><a xlink:href="Matrix_8inl.html" target="_top" xlink:title="lug/Math/Matrix.inl">
<polygon fill="none" stroke="#000000" points="881,-56.5 881,-75.5 993,-75.5 993,-56.5 881,-56.5"/>
<text text-anchor="middle" x="937" y="-63.5" font-family="Helvetica,sans-Serif" font-size="10.00" fill="#000000">lug/Math/Matrix.inl</text>
</a>
</g>
</g>
<!-- Node8&#45;&gt;Node20 -->
<g id="edge26" class="edge">
<title>Node8&#45;&gt;Node20</title>
<path fill="none" stroke="#191970" d="M1022.8846,-112.2455C1006.555,-103.4527 982.329,-90.4079 963.7661,-80.4125"/>
<polygon fill="#191970" stroke="#191970" points="965.3719,-77.3021 954.9078,-75.6427 962.0532,-83.4654 965.3719,-77.3021"/>
</g>
<!-- Node10&#45;&gt;Node4 -->
<g id="edge15" class="edge">
<title>Node10&#45;&gt;Node4</title>
<path fill="none" stroke="#191970" d="M803,-56.2455C803,-48.9382 803,-38.6944 803,-29.7046"/>
<polygon fill="#191970" stroke="#191970" points="806.5001,-29.6426 803,-19.6427 799.5001,-29.6427 806.5001,-29.6426"/>
</g>
<!-- Node12 -->
<g id="node13" class="node">
<title>Node12</title>
<polygon fill="none" stroke="#bfbfbf" points="1420.5,-.5 1420.5,-19.5 1485.5,-19.5 1485.5,-.5 1420.5,-.5"/>
<text text-anchor="middle" x="1453" y="-7.5" font-family="Helvetica,sans-Serif" font-size="10.00" fill="#000000">algorithm</text>
</g>
<!-- Node11&#45;&gt;Node12 -->
<g id="edge17" class="edge">
<title>Node11&#45;&gt;Node12</title>
<path fill="none" stroke="#191970" d="M1406.7545,-56.2455C1414.8648,-48.1352 1426.5925,-36.4075 1436.2081,-26.7919"/>
<polygon fill="#191970" stroke="#191970" points="1438.7611,-29.1887 1443.3573,-19.6427 1433.8113,-24.2389 1438.7611,-29.1887"/>
</g>
<!-- Node13 -->
<g id="node14" class="node">
<title>Node13</title>
<polygon fill="none" stroke="#bfbfbf" points="1504,-.5 1504,-19.5 1548,-19.5 1548,-.5 1504,-.5"/>
<text text-anchor="middle" x="1526" y="-7.5" font-family="Helvetica,sans-Serif" font-size="10.00" fill="#000000">array</text>
</g>
<!-- Node11&#45;&gt;Node13 -->
<g id="edge18" class="edge">
<title>Node11&#45;&gt;Node13</title>
<path fill="none" stroke="#191970" d="M1419.1759,-56.3733C1439.9766,-47.3435 1471.2917,-33.7494 1494.6458,-23.6111"/>
<polygon fill="#191970" stroke="#191970" points="1496.3343,-26.6938 1504.1135,-19.5011 1493.5468,-20.2727 1496.3343,-26.6938"/>
</g>
<!-- Node14 -->
<g id="node15" class="node">
<title>Node14</title>
<polygon fill="none" stroke="#bfbfbf" points="1566,-.5 1566,-19.5 1616,-19.5 1616,-.5 1566,-.5"/>
<text text-anchor="middle" x="1591" y="-7.5" font-family="Helvetica,sans-Serif" font-size="10.00" fill="#000000">cstring</text>
</g>
<!-- Node11&#45;&gt;Node14 -->
<g id="edge19" class="edge">
<title>Node11&#45;&gt;Node14</title>
<path fill="none" stroke="#191970" d="M1430.4197,-56.456C1460.7768,-47.7724 1507.0483,-34.5014 1555.9439,-20.2963"/>
<polygon fill="#191970" stroke="#191970" points="1557.1289,-23.5967 1565.754,-17.4439 1555.1745,-16.8751 1557.1289,-23.5967"/>
</g>
<!-- Node15 -->
<g id="node16" class="node">
<title>Node15</title>
<polygon fill="none" stroke="#bfbfbf" points="1202.5,-.5 1202.5,-19.5 1259.5,-19.5 1259.5,-.5 1202.5,-.5"/>
<text text-anchor="middle" x="1231" y="-7.5" font-family="Helvetica,sans-Serif" font-size="10.00" fill="#000000">numeric</text>
</g>
<!-- Node11&#45;&gt;Node15 -->
<g id="edge20" class="edge">
<title>Node11&#45;&gt;Node15</title>
<path fill="none" stroke="#191970" d="M1368.4636,-56.3733C1340.9798,-47.1016 1299.2314,-33.0178 1268.9548,-22.804"/>
<polygon fill="#191970" stroke="#191970" points="1269.7582,-19.3813 1259.164,-19.5011 1267.5206,-26.0141 1269.7582,-19.3813"/>
</g>
<!-- Node16 -->
<g id="node17" class="node">
<title>Node16</title>
<g id="a_node17"><a xlink:href="ValArray_8inl.html" target="_top" xlink:title="lug/Math/ValArray.inl">
<polygon fill="none" stroke="#000000" points="1278,-.5 1278,-19.5 1402,-19.5 1402,-.5 1278,-.5"/>
<text text-anchor="middle" x="1340" y="-7.5" font-family="Helvetica,sans-Serif" font-size="10.00" fill="#000000">lug/Math/ValArray.inl</text>
</a>
</g>
</g>
<!-- Node11&#45;&gt;Node16 -->
<g id="edge21" class="edge">
<title>Node11&#45;&gt;Node16</title>
<path fill="none" stroke="#191970" d="M1387.0714,-56.2455C1378.8162,-48.1352 1366.8791,-36.4075 1357.0918,-26.7919"/>
<polygon fill="#191970" stroke="#191970" points="1359.4011,-24.1542 1349.8149,-19.6427 1354.4954,-29.1476 1359.4011,-24.1542"/>
</g>
<!-- Node17&#45;&gt;Node4 -->
<g id="edge23" class="edge">
<title>Node17&#45;&gt;Node4</title>
<path fill="none" stroke="#191970" d="M1094.0598,-56.4369C1027.7087,-45.851 921.6872,-28.9359 857.5731,-18.7068"/>
<polygon fill="#191970" stroke="#191970" points="858.0821,-15.2438 847.6555,-17.1245 856.9791,-22.1564 858.0821,-15.2438"/>
</g>
<!-- Node18 -->
<g id="node19" class="node">
<title>Node18</title>
<g id="a_node19"><a xlink:href="Utils_8hpp.html" target="_top" xlink:title="lug/System/Utils.hpp">
<polygon fill="none" stroke="#000000" points="983,-.5 983,-19.5 1105,-19.5 1105,-.5 983,-.5"/>
<text text-anchor="middle" x="1044" y="-7.5" font-family="Helvetica,sans-Serif" font-size="10.00" fill="#000000">lug/System/Utils.hpp</text>
</a>
</g>
</g>
<!-- Node17&#45;&gt;Node18 -->
<g id="edge24" class="edge">
<title>Node17&#45;&gt;Node18</title>
<path fill="none" stroke="#191970" d="M1134.8395,-56.2455C1117.4889,-47.4125 1091.7099,-34.2887 1072.0417,-24.2758"/>
<polygon fill="#191970" stroke="#191970" points="1073.4405,-21.0605 1062.941,-19.6427 1070.2647,-27.2986 1073.4405,-21.0605"/>
</g>
<!-- Node19 -->
<g id="node20" class="node">
<title>Node19</title>
<polygon fill="none" stroke="#bfbfbf" points="1123.5,-.5 1123.5,-19.5 1184.5,-19.5 1184.5,-.5 1123.5,-.5"/>
<text text-anchor="middle" x="1154" y="-7.5" font-family="Helvetica,sans-Serif" font-size="10.00" fill="#000000">iostream</text>
</g>
<!-- Node17&#45;&gt;Node19 -->
<g id="edge25" class="edge">
<title>Node17&#45;&gt;Node19</title>
<path fill="none" stroke="#191970" d="M1154,-56.2455C1154,-48.9382 1154,-38.6944 1154,-29.7046"/>
<polygon fill="#191970" stroke="#191970" points="1157.5001,-29.6426 1154,-19.6427 1150.5001,-29.6427 1157.5001,-29.6426"/>
</g>
<!-- Node21&#45;&gt;Node8 -->
<g id="edge29" class="edge">
<title>Node21&#45;&gt;Node8</title>
<path fill="none" stroke="#191970" d="M936.1464,-229.9734C995.0889,-218.8713 1083.226,-200.4606 1093,-188 1106.6629,-170.5816 1085.8533,-150.6211 1066.6407,-137.2536"/>
<polygon fill="#191970" stroke="#191970" points="1068.3338,-134.178 1058.0552,-131.6085 1064.4879,-140.0269 1068.3338,-134.178"/>
</g>
<!-- Node21&#45;&gt;Node10 -->
<g id="edge28" class="edge">
<title>Node21&#45;&gt;Node10</title>
<path fill="none" stroke="#191970" d="M883.5805,-229.75C884.4629,-207.2837 884.0413,-150.8277 861,-112 853.4738,-99.3174 841.0413,-88.7622 829.6131,-80.9754"/>
<polygon fill="#191970" stroke="#191970" points="831.4772,-78.013 821.1676,-75.571 827.7041,-83.9091 831.4772,-78.013"/>
</g>
<!-- Node21&#45;&gt;Node22 -->
<g id="edge30" class="edge">
<title>Node21&#45;&gt;Node22</title>
<path fill="none" stroke="#191970" d="M846.3839,-229.9581C805.2189,-219.2308 738.2899,-201.7895 693.4709,-190.11"/>
<polygon fill="#191970" stroke="#191970" points="694.2614,-186.6992 683.702,-187.5643 692.4962,-193.473 694.2614,-186.6992"/>
</g>
<!-- Node24 -->
<g id="node25" class="node">
<title>Node24</title>
<g id="a_node25"><a xlink:href="Constant_8hpp.html" target="_top" xlink:title="lug/Math/Constant.hpp">
<polygon fill="none" stroke="#000000" points="725,-168.5 725,-187.5 855,-187.5 855,-168.5 725,-168.5"/>
<text text-anchor="middle" x="790" y="-175.5" font-family="Helvetica,sans-Serif" font-size="10.00" fill="#000000">lug/Math/Constant.hpp</text>
</a>
</g>
</g>
<!-- Node21&#45;&gt;Node24 -->
<g id="edge34" class="edge">
<title>Node21&#45;&gt;Node24</title>
<path fill="none" stroke="#191970" d="M868.4688,-229.8906C853.5906,-220.0519 830.2496,-204.6167 812.8872,-193.1351"/>
<polygon fill="#191970" stroke="#191970" points="814.701,-190.1385 804.4292,-187.5419 810.8398,-195.9773 814.701,-190.1385"/>
</g>
<!-- Node27 -->
<g id="node28" class="node">
<title>Node27</title>
<g id="a_node28"><a xlink:href="Quaternion_8inl.html" target="_top" xlink:title="lug/Math/Quaternion.inl">
<polygon fill="none" stroke="#000000" points="949.5,-168.5 949.5,-187.5 1084.5,-187.5 1084.5,-168.5 949.5,-168.5"/>
<text text-anchor="middle" x="1017" y="-175.5" font-family="Helvetica,sans-Serif" font-size="10.00" fill="#000000">lug/Math/Quaternion.inl</text>
</a>
</g>
</g>
<!-- Node21&#45;&gt;Node27 -->
<g id="edge37" class="edge">
<title>Node21&#45;&gt;Node27</title>
<path fill="none" stroke="#191970" d="M903.9375,-229.8906C926.2598,-219.6457 961.8037,-203.3326 987.0757,-191.7339"/>
<polygon fill="#191970" stroke="#191970" points="988.581,-194.8942 996.2095,-187.5419 985.6611,-188.5322 988.581,-194.8942"/>
</g>
<!-- Node22&#45;&gt;Node1 -->
<g id="edge31" class="edge">
<title>Node22&#45;&gt;Node1</title>
<path fill="none" stroke="#191970" d="M627.7925,-168.4673C613.7118,-160.5391 595.1751,-147.9821 584,-132 574.4032,-118.2752 569.6177,-99.7437 567.2528,-85.8112"/>
<polygon fill="#191970" stroke="#191970" points="570.7027,-85.2108 565.8295,-75.8033 563.7725,-86.1965 570.7027,-85.2108"/>
</g>
<!-- Node22&#45;&gt;Node8 -->
<g id="edge32" class="edge">
<title>Node22&#45;&gt;Node8</title>
<path fill="none" stroke="#191970" d="M706.8374,-169.3155C709.936,-168.8697 713.0045,-168.4291 716,-168 804.2165,-155.3645 905.934,-141.0007 971.7382,-131.7353"/>
<polygon fill="#191970" stroke="#191970" points="972.569,-135.153 981.9834,-130.2931 971.5931,-128.2213 972.569,-135.153"/>
</g>
<!-- Node23 -->
<g id="node24" class="node">
<title>Node23</title>
<g id="a_node24"><a xlink:href="Vector_8inl.html" target="_top" xlink:title="lug/Math/Vector.inl">
<polygon fill="none" stroke="#000000" points="593.5,-112.5 593.5,-131.5 706.5,-131.5 706.5,-112.5 593.5,-112.5"/>
<text text-anchor="middle" x="650" y="-119.5" font-family="Helvetica,sans-Serif" font-size="10.00" fill="#000000">lug/Math/Vector.inl</text>
</a>
</g>
</g>
<!-- Node22&#45;&gt;Node23 -->
<g id="edge33" class="edge">
<title>Node22&#45;&gt;Node23</title>
<path fill="none" stroke="#191970" d="M647.5226,-168.2455C647.914,-160.9382 648.4628,-150.6944 648.9444,-141.7046"/>
<polygon fill="#191970" stroke="#191970" points="652.4434,-141.8156 649.4834,-131.6427 645.4534,-141.4411 652.4434,-141.8156"/>
</g>
<!-- Node25 -->
<g id="node26" class="node">
<title>Node25</title>
<polygon fill="none" stroke="#bfbfbf" points="471,-112.5 471,-131.5 515,-131.5 515,-112.5 471,-112.5"/>
<text text-anchor="middle" x="493" y="-119.5" font-family="Helvetica,sans-Serif" font-size="10.00" fill="#000000">limits</text>
</g>
<!-- Node24&#45;&gt;Node25 -->
<g id="edge35" class="edge">
<title>Node24&#45;&gt;Node25</title>
<path fill="none" stroke="#191970" d="M739.2813,-168.4369C677.9018,-156.8636 576.4016,-137.7256 524.9793,-128.0298"/>
<polygon fill="#191970" stroke="#191970" points="525.5692,-124.5794 515.0939,-126.1658 524.2722,-131.4582 525.5692,-124.5794"/>
</g>
<!-- Node26 -->
<g id="node27" class="node">
<title>Node26</title>
<g id="a_node27"><a xlink:href="Constant_8inl.html" target="_top" xlink:title="lug/Math/Constant.inl">
<polygon fill="none" stroke="#000000" points="728,-112.5 728,-131.5 852,-131.5 852,-112.5 728,-112.5"/>
<text text-anchor="middle" x="790" y="-119.5" font-family="Helvetica,sans-Serif" font-size="10.00" fill="#000000">lug/Math/Constant.inl</text>
</a>
</g>
</g>
<!-- Node24&#45;&gt;Node26 -->
<g id="edge36" class="edge">
<title>Node24&#45;&gt;Node26</title>
<path fill="none" stroke="#191970" d="M790,-168.2455C790,-160.9382 790,-150.6944 790,-141.7046"/>
<polygon fill="#191970" stroke="#191970" points="793.5001,-141.6426 790,-131.6427 786.5001,-141.6427 793.5001,-141.6426"/>
</g>
<!-- Node29&#45;&gt;Node7 -->
<g id="edge41" class="edge">
<title>Node29&#45;&gt;Node7</title>
<path fill="none" stroke="#191970" d="M1034,-291.2967C1034,-281.7699 1034,-269.3954 1034,-259.1306"/>
<polygon fill="#191970" stroke="#191970" points="1037.5001,-259.0549 1034,-249.055 1030.5001,-259.055 1037.5001,-259.0549"/>
</g>
<!-- Node30 -->
<g id="node31" class="node">
<title>Node30</title>
<g id="a_node31"><a xlink:href="Render_2Queue_8inl.html" target="_top" xlink:title="lug/Graphics/Render\l/Queue.inl">
<polygon fill="none" stroke="#000000" points="1076.5,-224.5 1076.5,-254.5 1195.5,-254.5 1195.5,-224.5 1076.5,-224.5"/>
<text text-anchor="start" x="1084.5" y="-242.5" font-family="Helvetica,sans-Serif" font-size="10.00" fill="#000000">lug/Graphics/Render</text>
<text text-anchor="middle" x="1136" y="-231.5" font-family="Helvetica,sans-Serif" font-size="10.00" fill="#000000">/Queue.inl</text>
</a>
</g>
</g>
<!-- Node29&#45;&gt;Node30 -->
<g id="edge42" class="edge">
<title>Node29&#45;&gt;Node30</title>
<path fill="none" stroke="#191970" d="M1056.8908,-291.4639C1070.8352,-282.3044 1088.8567,-270.4667 1104.1762,-260.4038"/>
<polygon fill="#191970" stroke="#191970" points="1106.3961,-263.1333 1112.8327,-254.7177 1102.553,-257.2826 1106.3961,-263.1333"/>
</g>
<!-- Node31&#45;&gt;Node8 -->
<g id="edge48" class="edge">
<title>Node31&#45;&gt;Node8</title>
<path fill="none" stroke="#191970" d="M501.135,-229.9652C515.2167,-227.9053 530.1126,-225.8056 544,-224 685.9248,-205.5469 724.7967,-221.2506 864,-188 917.275,-175.2745 976.3722,-151.0621 1011.0198,-135.7671"/>
<polygon fill="#191970" stroke="#191970" points="1012.8322,-138.791 1020.5364,-131.518 1009.9783,-132.3992 1012.8322,-138.791"/>
</g>
<!-- Node31&#45;&gt;Node22 -->
<g id="edge49" class="edge">
<title>Node31&#45;&gt;Node22</title>
<path fill="none" stroke="#191970" d="M471.5,-229.8906C507.447,-219.2621 565.4827,-202.1025 604.888,-190.4514"/>
<polygon fill="#191970" stroke="#191970" points="606.131,-193.7337 614.7282,-187.5419 604.1462,-187.021 606.131,-193.7337"/>
</g>
<!-- Node32 -->
<g id="node33" class="node">
<title>Node32</title>
<g id="a_node33"><a xlink:href="Trigonometry_8hpp.html" target="_top" xlink:title="lug/Math/Geometry/Trigonometry.hpp">
<polygon fill="none" stroke="#000000" points="157,-168.5 157,-187.5 365,-187.5 365,-168.5 157,-168.5"/>
<text text-anchor="middle" x="261" y="-175.5" font-family="Helvetica,sans-Serif" font-size="10.00" fill="#000000">lug/Math/Geometry/Trigonometry.hpp</text>
</a>
</g>
</g>
<!-- Node31&#45;&gt;Node32 -->
<g id="edge44" class="edge">
<title>Node31&#45;&gt;Node32</title>
<path fill="none" stroke="#191970" d="M411.1875,-229.8906C380.7517,-219.3749 331.8123,-202.466 298.1174,-190.8243"/>
<polygon fill="#191970" stroke="#191970" points="299.212,-187.4995 288.6172,-187.5419 296.926,-194.1157 299.212,-187.4995"/>
</g>
<!-- Node35 -->
<g id="node36" class="node">
<title>Node35</title>
<g id="a_node36"><a xlink:href="Transform_8inl.html" target="_top" xlink:title="lug/Math/Geometry/Transform.inl">
<polygon fill="none" stroke="#000000" points="383,-168.5 383,-187.5 569,-187.5 569,-168.5 383,-168.5"/>
<text text-anchor="middle" x="476" y="-175.5" font-family="Helvetica,sans-Serif" font-size="10.00" fill="#000000">lug/Math/Geometry/Transform.inl</text>
</a>
</g>
</g>
<!-- Node31&#45;&gt;Node35 -->
<g id="edge50" class="edge">
<title>Node31&#45;&gt;Node35</title>
<path fill="none" stroke="#191970" d="M444.7813,-229.8906C450.126,-221.0068 458.2159,-207.5601 464.8211,-196.5811"/>
<polygon fill="#191970" stroke="#191970" points="467.9811,-198.118 470.1372,-187.7449 461.9829,-194.5093 467.9811,-198.118"/>
</g>
<!-- Node32&#45;&gt;Node25 -->
<g id="edge46" class="edge">
<title>Node32&#45;&gt;Node25</title>
<path fill="none" stroke="#191970" d="M300.6186,-168.4369C345.836,-157.5223 418.9275,-139.8796 460.7937,-129.7739"/>
<polygon fill="#191970" stroke="#191970" points="461.8294,-133.1245 470.729,-127.3758 460.1869,-126.32 461.8294,-133.1245"/>
</g>
<!-- Node33 -->
<g id="node34" class="node">
<title>Node33</title>
<polygon fill="none" stroke="#bfbfbf" points="379.5,-112.5 379.5,-131.5 426.5,-131.5 426.5,-112.5 379.5,-112.5"/>
<text text-anchor="middle" x="403" y="-119.5" font-family="Helvetica,sans-Serif" font-size="10.00" fill="#000000">cmath</text>
</g>
<!-- Node32&#45;&gt;Node33 -->
<g id="edge45" class="edge">
<title>Node32&#45;&gt;Node33</title>
<path fill="none" stroke="#191970" d="M285.4107,-168.3733C308.7549,-159.1671 344.1296,-145.2165 369.9825,-135.021"/>
<polygon fill="#191970" stroke="#191970" points="371.361,-138.2397 379.3797,-131.315 368.7929,-131.7278 371.361,-138.2397"/>
</g>
<!-- Node34 -->
<g id="node35" class="node">
<title>Node34</title>
<g id="a_node35"><a xlink:href="Trigonometry_8inl.html" target="_top" xlink:title="lug/Math/Geometry/Trigonometry.inl">
<polygon fill="none" stroke="#000000" points="159,-112.5 159,-131.5 361,-131.5 361,-112.5 159,-112.5"/>
<text text-anchor="middle" x="260" y="-119.5" font-family="Helvetica,sans-Serif" font-size="10.00" fill="#000000">lug/Math/Geometry/Trigonometry.inl</text>
</a>
</g>
</g>
<!-- Node32&#45;&gt;Node34 -->
<g id="edge47" class="edge">
<title>Node32&#45;&gt;Node34</title>
<path fill="none" stroke="#191970" d="M260.8258,-168.2455C260.6953,-160.9382 260.5124,-150.6944 260.3519,-141.7046"/>
<polygon fill="#191970" stroke="#191970" points="263.8503,-141.5786 260.1722,-131.6427 256.8514,-141.7036 263.8503,-141.5786"/>
</g>
<!-- Node37&#45;&gt;Node3 -->
<g id="edge54" class="edge">
<title>Node37&#45;&gt;Node3</title>
<path fill="none" stroke="#191970" d="M64.3831,-358.389C69.8511,-333.9649 80.626,-285.8371 86.6546,-258.9095"/>
<polygon fill="#191970" stroke="#191970" points="90.0805,-259.6273 88.8498,-249.1042 83.2496,-258.0979 90.0805,-259.6273"/>
</g>
</g>
</svg>
