<?xml version="1.0" encoding="UTF-8" standalone="no"?>
<!DOCTYPE svg PUBLIC "-//W3C//DTD SVG 1.1//EN"
 "http://www.w3.org/Graphics/SVG/1.1/DTD/svg11.dtd">
<!-- Generated by graphviz version 2.40.1 (20161225.0304)
 -->
<!-- Title: src/lug/Graphics/Render/Queue.cpp Pages: 1 -->
<svg width="1856pt" height="475pt"
 viewBox="0.00 0.00 1855.60 475.00" xmlns="http://www.w3.org/2000/svg" xmlns:xlink="http://www.w3.org/1999/xlink">
<g id="graph0" class="graph" transform="scale(1 1) rotate(0) translate(4 471)">
<title>src/lug/Graphics/Render/Queue.cpp</title>
<!-- Node0 -->
<g id="node1" class="node">
<title>Node0</title>
<polygon fill="#bfbfbf" stroke="#000000" points="597.5,-436.5 597.5,-466.5 736.5,-466.5 736.5,-436.5 597.5,-436.5"/>
<text text-anchor="start" x="605.5" y="-454.5" font-family="Helvetica,sans-Serif" font-size="10.00" fill="#000000">src/lug/Graphics/Render</text>
<text text-anchor="middle" x="667" y="-443.5" font-family="Helvetica,sans-Serif" font-size="10.00" fill="#000000">/Queue.cpp</text>
</g>
<!-- Node1 -->
<g id="node2" class="node">
<title>Node1</title>
<g id="a_node2"><a xlink:href="Render_2Queue_8hpp.html" target="_top" xlink:title="lug/Graphics/Render\l/Queue.hpp">
<polygon fill="none" stroke="#000000" points="206.5,-369.5 206.5,-399.5 325.5,-399.5 325.5,-369.5 206.5,-369.5"/>
<text text-anchor="start" x="214.5" y="-387.5" font-family="Helvetica,sans-Serif" font-size="10.00" fill="#000000">lug/Graphics/Render</text>
<text text-anchor="middle" x="266" y="-376.5" font-family="Helvetica,sans-Serif" font-size="10.00" fill="#000000">/Queue.hpp</text>
</a>
</g>
</g>
<!-- Node0&#45;&gt;Node1 -->
<g id="edge1" class="edge">
<title>Node0&#45;&gt;Node1</title>
<path fill="none" stroke="#191970" d="M597.1511,-439.8295C523.749,-427.5653 408.9678,-408.3874 335.6432,-396.1361"/>
<polygon fill="#191970" stroke="#191970" points="336.0206,-392.6508 325.5805,-394.4548 334.8669,-399.5551 336.0206,-392.6508"/>
</g>
<!-- Node4 -->
<g id="node5" class="node">
<title>Node4</title>
<polygon fill="none" stroke="#bfbfbf" points="0,-.5 0,-19.5 50,-19.5 50,-.5 0,-.5"/>
<text text-anchor="middle" x="25" y="-7.5" font-family="Helvetica,sans-Serif" font-size="10.00" fill="#000000">cstring</text>
</g>
<!-- Node0&#45;&gt;Node4 -->
<g id="edge4" class="edge">
<title>Node0&#45;&gt;Node4</title>
<path fill="none" stroke="#191970" d="M597.3223,-447.9813C484.88,-441.6161 268.7587,-426.3459 197,-400 135.5544,-377.4405 75,-382.956 75,-317.5 75,-317.5 75,-317.5 75,-122 75,-86.2001 53.4357,-49.1175 38.6307,-27.8769"/>
<polygon fill="#191970" stroke="#191970" points="41.2949,-25.5886 32.5939,-19.5435 35.6261,-29.6952 41.2949,-25.5886"/>
</g>
<!-- Node5 -->
<g id="node6" class="node">
<title>Node5</title>
<g id="a_node6"><a xlink:href="Light_8hpp.html" target="_top" xlink:title="lug/Graphics/Light\l/Light.hpp">
<polygon fill="none" stroke="#000000" points="484,-302.5 484,-332.5 592,-332.5 592,-302.5 484,-302.5"/>
<text text-anchor="start" x="492" y="-320.5" font-family="Helvetica,sans-Serif" font-size="10.00" fill="#000000">lug/Graphics/Light</text>
<text text-anchor="middle" x="538" y="-309.5" font-family="Helvetica,sans-Serif" font-size="10.00" fill="#000000">/Light.hpp</text>
</a>
</g>
</g>
<!-- Node0&#45;&gt;Node5 -->
<g id="edge5" class="edge">
<title>Node0&#45;&gt;Node5</title>
<path fill="none" stroke="#191970" d="M652.4528,-436.389C629.8065,-412.8649 585.9915,-367.3517 559.6318,-339.9702"/>
<polygon fill="#191970" stroke="#191970" points="562.1488,-337.5382 552.6919,-332.7614 557.1059,-342.393 562.1488,-337.5382"/>
</g>
<!-- Node8 -->
<g id="node9" class="node">
<title>Node8</title>
<g id="a_node9"><a xlink:href="MovableObject_8hpp.html" target="_top" xlink:title="lug/Graphics/Scene\l/MovableObject.hpp">
<polygon fill="none" stroke="#000000" points="918,-235.5 918,-265.5 1034,-265.5 1034,-235.5 918,-235.5"/>
<text text-anchor="start" x="926" y="-253.5" font-family="Helvetica,sans-Serif" font-size="10.00" fill="#000000">lug/Graphics/Scene</text>
<text text-anchor="middle" x="976" y="-242.5" font-family="Helvetica,sans-Serif" font-size="10.00" fill="#000000">/MovableObject.hpp</text>
</a>
</g>
</g>
<!-- Node0&#45;&gt;Node8 -->
<g id="edge53" class="edge">
<title>Node0&#45;&gt;Node8</title>
<path fill="none" stroke="#191970" d="M736.803,-441.1882C839.3221,-424.359 1022.2577,-387.3252 1057,-333 1064.423,-321.3929 1063.6324,-314.0764 1057,-302 1049.7001,-288.7083 1037.355,-278.3587 1024.4739,-270.5391"/>
<polygon fill="#191970" stroke="#191970" points="1025.9606,-267.3601 1015.5259,-265.5246 1022.5385,-273.4666 1025.9606,-267.3601"/>
</g>
<!-- Node27 -->
<g id="node28" class="node">
<title>Node27</title>
<g id="a_node28"><a xlink:href="MeshInstance_8hpp.html" target="_top" xlink:title="lug/Graphics/Scene\l/MeshInstance.hpp">
<polygon fill="none" stroke="#000000" points="610,-302.5 610,-332.5 724,-332.5 724,-302.5 610,-302.5"/>
<text text-anchor="start" x="618" y="-320.5" font-family="Helvetica,sans-Serif" font-size="10.00" fill="#000000">lug/Graphics/Scene</text>
<text text-anchor="middle" x="667" y="-309.5" font-family="Helvetica,sans-Serif" font-size="10.00" fill="#000000">/MeshInstance.hpp</text>
</a>
</g>
</g>
<!-- Node0&#45;&gt;Node27 -->
<g id="edge32" class="edge">
<title>Node0&#45;&gt;Node27</title>
<path fill="none" stroke="#191970" d="M667,-436.389C667,-413.6691 667,-370.438 667,-342.8405"/>
<polygon fill="#191970" stroke="#191970" points="670.5001,-342.7614 667,-332.7614 663.5001,-342.7614 670.5001,-342.7614"/>
</g>
<!-- Node31 -->
<g id="node32" class="node">
<title>Node31</title>
<g id="a_node32"><a xlink:href="ModelInstance_8hpp.html" target="_top" xlink:title="lug/Graphics/Scene\l/ModelInstance.hpp">
<polygon fill="none" stroke="#000000" points="789,-369.5 789,-399.5 903,-399.5 903,-369.5 789,-369.5"/>
<text text-anchor="start" x="797" y="-387.5" font-family="Helvetica,sans-Serif" font-size="10.00" fill="#000000">lug/Graphics/Scene</text>
<text text-anchor="middle" x="846" y="-376.5" font-family="Helvetica,sans-Serif" font-size="10.00" fill="#000000">/ModelInstance.hpp</text>
</a>
</g>
</g>
<!-- Node0&#45;&gt;Node31 -->
<g id="edge42" class="edge">
<title>Node0&#45;&gt;Node31</title>
<path fill="none" stroke="#191970" d="M707.1711,-436.4639C733.4496,-426.6278 767.979,-413.7034 796.0272,-403.2049"/>
<polygon fill="#191970" stroke="#191970" points="797.5152,-406.3852 805.6537,-399.6017 795.0613,-399.8293 797.5152,-406.3852"/>
</g>
<!-- Node35 -->
<g id="node36" class="node">
<title>Node35</title>
<g id="a_node36"><a xlink:href="Logger_8hpp.html" target="_top" xlink:title="lug/System/Logger/Logger.hpp">
<polygon fill="none" stroke="#000000" points="1358,-308 1358,-327 1530,-327 1530,-308 1358,-308"/>
<text text-anchor="middle" x="1444" y="-315" font-family="Helvetica,sans-Serif" font-size="10.00" fill="#000000">lug/System/Logger/Logger.hpp</text>
</a>
</g>
</g>
<!-- Node0&#45;&gt;Node35 -->
<g id="edge54" class="edge">
<title>Node0&#45;&gt;Node35</title>
<path fill="none" stroke="#191970" d="M736.7786,-446.2138C824.7428,-438.9114 980.3777,-423.8682 1112,-400 1217.1783,-380.9271 1338.5658,-347.8947 1401.3835,-329.9585"/>
<polygon fill="#191970" stroke="#191970" points="1402.6704,-333.2305 1411.3173,-327.1083 1400.7398,-326.502 1402.6704,-333.2305"/>
</g>
<!-- Node2 -->
<g id="node3" class="node">
<title>Node2</title>
<polygon fill="none" stroke="#bfbfbf" points="388,-174 388,-193 436,-193 436,-174 388,-174"/>
<text text-anchor="middle" x="412" y="-181" font-family="Helvetica,sans-Serif" font-size="10.00" fill="#000000">vector</text>
</g>
<!-- Node1&#45;&gt;Node2 -->
<g id="edge2" class="edge">
<title>Node1&#45;&gt;Node2</title>
<path fill="none" stroke="#191970" d="M263.2899,-369.0644C259.0419,-339.6671 254.2008,-275.0154 285,-235 307.263,-206.0751 348.4513,-193.323 377.8872,-187.7475"/>
<polygon fill="#191970" stroke="#191970" points="378.4915,-191.1951 387.7587,-186.06 377.3118,-184.2952 378.4915,-191.1951"/>
</g>
<!-- Node3 -->
<g id="node4" class="node">
<title>Node3</title>
<g id="a_node4"><a xlink:href="Render_2Queue_8inl.html" target="_top" xlink:title="lug/Graphics/Render\l/Queue.inl">
<polygon fill="none" stroke="#000000" points="118.5,-302.5 118.5,-332.5 237.5,-332.5 237.5,-302.5 118.5,-302.5"/>
<text text-anchor="start" x="126.5" y="-320.5" font-family="Helvetica,sans-Serif" font-size="10.00" fill="#000000">lug/Graphics/Render</text>
<text text-anchor="middle" x="178" y="-309.5" font-family="Helvetica,sans-Serif" font-size="10.00" fill="#000000">/Queue.inl</text>
</a>
</g>
</g>
<!-- Node1&#45;&gt;Node3 -->
<g id="edge3" class="edge">
<title>Node1&#45;&gt;Node3</title>
<path fill="none" stroke="#191970" d="M246.0314,-369.2967C234.2175,-360.302 219.0694,-348.7687 206.0673,-338.8694"/>
<polygon fill="#191970" stroke="#191970" points="207.9662,-335.9162 197.8895,-332.6432 203.7257,-341.4857 207.9662,-335.9162"/>
</g>
<!-- Node6 -->
<g id="node7" class="node">
<title>Node6</title>
<g id="a_node7"><a xlink:href="Graphics_2Export_8hpp.html" target="_top" xlink:title="lug/Graphics/Export.hpp">
<polygon fill="none" stroke="#000000" points="787,-174 787,-193 925,-193 925,-174 787,-174"/>
<text text-anchor="middle" x="856" y="-181" font-family="Helvetica,sans-Serif" font-size="10.00" fill="#000000">lug/Graphics/Export.hpp</text>
</a>
</g>
</g>
<!-- Node5&#45;&gt;Node6 -->
<g id="edge6" class="edge">
<title>Node5&#45;&gt;Node6</title>
<path fill="none" stroke="#191970" d="M592.2841,-304.0917C595.2314,-303.3801 598.1513,-302.6791 601,-302 670.216,-285.4998 694.2332,-299.5177 757,-266 774.7507,-256.5211 774.7183,-248.0923 790,-235 804.6674,-222.434 821.892,-209.0365 835.0664,-199.0569"/>
<polygon fill="#191970" stroke="#191970" points="837.1838,-201.8438 843.0714,-193.0355 832.9759,-196.2497 837.1838,-201.8438"/>
</g>
<!-- Node5&#45;&gt;Node8 -->
<g id="edge8" class="edge">
<title>Node5&#45;&gt;Node8</title>
<path fill="none" stroke="#191970" d="M592.2169,-303.7786C595.1815,-303.1478 598.1235,-302.5498 601,-302 707.3414,-281.6741 832.1218,-266.1804 907.5649,-257.7176"/>
<polygon fill="#191970" stroke="#191970" points="908.3242,-261.1548 917.8758,-256.5704 907.55,-254.1977 908.3242,-261.1548"/>
</g>
<!-- Node11 -->
<g id="node12" class="node">
<title>Node11</title>
<g id="a_node12"><a xlink:href="Vector_8hpp.html" target="_top" xlink:title="lug/Math/Vector.hpp">
<polygon fill="none" stroke="#000000" points="454.5,-174 454.5,-193 573.5,-193 573.5,-174 454.5,-174"/>
<text text-anchor="middle" x="514" y="-181" font-family="Helvetica,sans-Serif" font-size="10.00" fill="#000000">lug/Math/Vector.hpp</text>
</a>
</g>
</g>
<!-- Node5&#45;&gt;Node11 -->
<g id="edge12" class="edge">
<title>Node5&#45;&gt;Node11</title>
<path fill="none" stroke="#191970" d="M516.5686,-302.4899C505.4806,-293.3676 493.0316,-280.6627 487,-266 478.0991,-244.3623 489.924,-218.6273 500.6101,-201.7223"/>
<polygon fill="#191970" stroke="#191970" points="503.5886,-203.5657 506.2908,-193.3212 497.7899,-199.6447 503.5886,-203.5657"/>
</g>
<!-- Node26 -->
<g id="node27" class="node">
<title>Node26</title>
<g id="a_node27"><a xlink:href="Light_8inl.html" target="_top" xlink:title="lug/Graphics/Light\l/Light.inl">
<polygon fill="none" stroke="#000000" points="294,-235.5 294,-265.5 402,-265.5 402,-235.5 294,-235.5"/>
<text text-anchor="start" x="302" y="-253.5" font-family="Helvetica,sans-Serif" font-size="10.00" fill="#000000">lug/Graphics/Light</text>
<text text-anchor="middle" x="348" y="-242.5" font-family="Helvetica,sans-Serif" font-size="10.00" fill="#000000">/Light.inl</text>
</a>
</g>
</g>
<!-- Node5&#45;&gt;Node26 -->
<g id="edge31" class="edge">
<title>Node5&#45;&gt;Node26</title>
<path fill="none" stroke="#191970" d="M495.3603,-302.4639C467.2233,-292.5419 430.1747,-279.4774 400.2653,-268.9304"/>
<polygon fill="#191970" stroke="#191970" points="401.4205,-265.6266 390.8257,-265.6017 399.0925,-272.2281 401.4205,-265.6266"/>
</g>
<!-- Node7 -->
<g id="node8" class="node">
<title>Node7</title>
<g id="a_node8"><a xlink:href="Config_8hpp.html" target="_top" xlink:title="lug/Config.hpp">
<polygon fill="none" stroke="#000000" points="713.5,-.5 713.5,-19.5 802.5,-19.5 802.5,-.5 713.5,-.5"/>
<text text-anchor="middle" x="758" y="-7.5" font-family="Helvetica,sans-Serif" font-size="10.00" fill="#000000">lug/Config.hpp</text>
</a>
</g>
</g>
<!-- Node6&#45;&gt;Node7 -->
<g id="edge7" class="edge">
<title>Node6&#45;&gt;Node7</title>
<path fill="none" stroke="#191970" d="M857.2064,-173.8691C859.5311,-151.1706 862.366,-93.4201 837,-56 827.1917,-41.5307 811.2,-30.9971 796.1611,-23.6909"/>
<polygon fill="#191970" stroke="#191970" points="797.5389,-20.4729 786.9842,-19.5526 794.6613,-26.8541 797.5389,-20.4729"/>
</g>
<!-- Node8&#45;&gt;Node6 -->
<g id="edge10" class="edge">
<title>Node8&#45;&gt;Node6</title>
<path fill="none" stroke="#191970" d="M949.0697,-235.4639C929.0259,-224.2728 901.8217,-209.0838 882.0035,-198.0186"/>
<polygon fill="#191970" stroke="#191970" points="883.6386,-194.923 873.2011,-193.1039 880.2261,-201.0349 883.6386,-194.923"/>
</g>
<!-- Node9 -->
<g id="node10" class="node">
<title>Node9</title>
<polygon fill="none" stroke="#bfbfbf" points="1076.5,-174 1076.5,-193 1121.5,-193 1121.5,-174 1076.5,-174"/>
<text text-anchor="middle" x="1099" y="-181" font-family="Helvetica,sans-Serif" font-size="10.00" fill="#000000">string</text>
</g>
<!-- Node8&#45;&gt;Node9 -->
<g id="edge9" class="edge">
<title>Node8&#45;&gt;Node9</title>
<path fill="none" stroke="#191970" d="M1003.6036,-235.4639C1024.1485,-224.2728 1052.0327,-209.0838 1072.3465,-198.0186"/>
<polygon fill="#191970" stroke="#191970" points="1074.2615,-200.9611 1081.3689,-193.1039 1070.913,-194.8139 1074.2615,-200.9611"/>
</g>
<!-- Node10 -->
<g id="node11" class="node">
<title>Node10</title>
<g id="a_node11"><a xlink:href="MovableObject_8inl.html" target="_top" xlink:title="lug/Graphics/Scene\l/MovableObject.inl">
<polygon fill="none" stroke="#000000" points="943,-168.5 943,-198.5 1057,-198.5 1057,-168.5 943,-168.5"/>
<text text-anchor="start" x="951" y="-186.5" font-family="Helvetica,sans-Serif" font-size="10.00" fill="#000000">lug/Graphics/Scene</text>
<text text-anchor="middle" x="1000" y="-175.5" font-family="Helvetica,sans-Serif" font-size="10.00" fill="#000000">/MovableObject.inl</text>
</a>
</g>
</g>
<!-- Node8&#45;&gt;Node10 -->
<g id="edge11" class="edge">
<title>Node8&#45;&gt;Node10</title>
<path fill="none" stroke="#191970" d="M981.446,-235.2967C984.2997,-227.3299 987.8668,-217.3718 991.1088,-208.3213"/>
<polygon fill="#191970" stroke="#191970" points="994.4982,-209.2377 994.5756,-198.6432 987.9083,-206.8771 994.4982,-209.2377"/>
</g>
<!-- Node12 -->
<g id="node13" class="node">
<title>Node12</title>
<polygon fill="none" stroke="#bfbfbf" points="778,-56.5 778,-75.5 828,-75.5 828,-56.5 778,-56.5"/>
<text text-anchor="middle" x="803" y="-63.5" font-family="Helvetica,sans-Serif" font-size="10.00" fill="#000000">cstdint</text>
</g>
<!-- Node11&#45;&gt;Node12 -->
<g id="edge13" class="edge">
<title>Node11&#45;&gt;Node12</title>
<path fill="none" stroke="#191970" d="M523.3595,-173.9823C539.1371,-158.5129 572.6799,-128.0338 607,-112 670.9522,-82.1225 695.4587,-93.3273 767.7652,-76.1135"/>
<polygon fill="#191970" stroke="#191970" points="768.9422,-79.4274 777.8014,-73.6167 767.2522,-72.6345 768.9422,-79.4274"/>
</g>
<!-- Node13 -->
<g id="node14" class="node">
<title>Node13</title>
<g id="a_node14"><a xlink:href="Matrix_8hpp.html" target="_top" xlink:title="lug/Math/Matrix.hpp">
<polygon fill="none" stroke="#000000" points="437,-112.5 437,-131.5 555,-131.5 555,-112.5 437,-112.5"/>
<text text-anchor="middle" x="496" y="-119.5" font-family="Helvetica,sans-Serif" font-size="10.00" fill="#000000">lug/Math/Matrix.hpp</text>
</a>
</g>
</g>
<!-- Node11&#45;&gt;Node13 -->
<g id="edge14" class="edge">
<title>Node11&#45;&gt;Node13</title>
<path fill="none" stroke="#191970" d="M511.1875,-173.8906C508.6661,-165.276 504.889,-152.3708 501.7324,-141.5858"/>
<polygon fill="#191970" stroke="#191970" points="505.0203,-140.3591 498.8522,-131.7449 498.3021,-142.3254 505.0203,-140.3591"/>
</g>
<!-- Node25 -->
<g id="node26" class="node">
<title>Node25</title>
<g id="a_node26"><a xlink:href="Vector_8inl.html" target="_top" xlink:title="lug/Math/Vector.inl">
<polygon fill="none" stroke="#000000" points="305.5,-112.5 305.5,-131.5 418.5,-131.5 418.5,-112.5 305.5,-112.5"/>
<text text-anchor="middle" x="362" y="-119.5" font-family="Helvetica,sans-Serif" font-size="10.00" fill="#000000">lug/Math/Vector.inl</text>
</a>
</g>
</g>
<!-- Node11&#45;&gt;Node25 -->
<g id="edge30" class="edge">
<title>Node11&#45;&gt;Node25</title>
<path fill="none" stroke="#191970" d="M490.25,-173.8906C464.7061,-163.5554 423.8991,-147.0447 395.189,-135.4284"/>
<polygon fill="#191970" stroke="#191970" points="396.166,-132.0481 385.5832,-131.5419 393.5404,-138.5371 396.166,-132.0481"/>
</g>
<!-- Node13&#45;&gt;Node12 -->
<g id="edge15" class="edge">
<title>Node13&#45;&gt;Node12</title>
<path fill="none" stroke="#191970" d="M555.1463,-112.8798C618.4492,-102.9788 715.7907,-87.3188 767.7668,-76.0311"/>
<polygon fill="#191970" stroke="#191970" points="768.8503,-79.3748 777.8373,-73.7637 767.3127,-72.5458 768.8503,-79.3748"/>
</g>
<!-- Node14 -->
<g id="node15" class="node">
<title>Node14</title>
<polygon fill="none" stroke="#bfbfbf" points="135.5,-56.5 135.5,-75.5 194.5,-75.5 194.5,-56.5 135.5,-56.5"/>
<text text-anchor="middle" x="165" y="-63.5" font-family="Helvetica,sans-Serif" font-size="10.00" fill="#000000">valarray</text>
</g>
<!-- Node13&#45;&gt;Node14 -->
<g id="edge16" class="edge">
<title>Node13&#45;&gt;Node14</title>
<path fill="none" stroke="#191970" d="M436.7607,-112.9758C364.6659,-101.9496 248.0589,-83.9621 204.7238,-75.8923"/>
<polygon fill="#191970" stroke="#191970" points="205.2295,-72.4248 194.7429,-73.9357 203.8829,-79.2941 205.2295,-72.4248"/>
</g>
<!-- Node15 -->
<g id="node16" class="node">
<title>Node15</title>
<g id="a_node16"><a xlink:href="Math_2Export_8hpp.html" target="_top" xlink:title="lug/Math/Export.hpp">
<polygon fill="none" stroke="#000000" points="510.5,-56.5 510.5,-75.5 629.5,-75.5 629.5,-56.5 510.5,-56.5"/>
<text text-anchor="middle" x="570" y="-63.5" font-family="Helvetica,sans-Serif" font-size="10.00" fill="#000000">lug/Math/Export.hpp</text>
</a>
</g>
</g>
<!-- Node13&#45;&gt;Node15 -->
<g id="edge17" class="edge">
<title>Node13&#45;&gt;Node15</title>
<path fill="none" stroke="#191970" d="M508.8898,-112.2455C519.9254,-103.8943 536.0292,-91.7076 548.9353,-81.9408"/>
<polygon fill="#191970" stroke="#191970" points="551.3959,-84.4681 557.2579,-75.6427 547.1717,-78.8862 551.3959,-84.4681"/>
</g>
<!-- Node16 -->
<g id="node17" class="node">
<title>Node16</title>
<g id="a_node17"><a xlink:href="ValArray_8hpp.html" target="_top" xlink:title="lug/Math/ValArray.hpp">
<polygon fill="none" stroke="#000000" points="213,-56.5 213,-75.5 343,-75.5 343,-56.5 213,-56.5"/>
<text text-anchor="middle" x="278" y="-63.5" font-family="Helvetica,sans-Serif" font-size="10.00" fill="#000000">lug/Math/ValArray.hpp</text>
</a>
</g>
</g>
<!-- Node13&#45;&gt;Node16 -->
<g id="edge19" class="edge">
<title>Node13&#45;&gt;Node16</title>
<path fill="none" stroke="#191970" d="M458.5245,-112.3733C421.4897,-102.8598 364.7318,-88.2797 324.7639,-78.0127"/>
<polygon fill="#191970" stroke="#191970" points="325.5429,-74.5993 314.9865,-75.5011 323.8012,-81.3792 325.5429,-74.5993"/>
</g>
<!-- Node21 -->
<g id="node22" class="node">
<title>Node21</title>
<g id="a_node22"><a xlink:href="Debug_8hpp.html" target="_top" xlink:title="lug/System/Debug.hpp">
<polygon fill="none" stroke="#000000" points="361.5,-56.5 361.5,-75.5 492.5,-75.5 492.5,-56.5 361.5,-56.5"/>
<text text-anchor="middle" x="427" y="-63.5" font-family="Helvetica,sans-Serif" font-size="10.00" fill="#000000">lug/System/Debug.hpp</text>
</a>
</g>
</g>
<!-- Node13&#45;&gt;Node21 -->
<g id="edge25" class="edge">
<title>Node13&#45;&gt;Node21</title>
<path fill="none" stroke="#191970" d="M483.9811,-112.2455C473.7902,-103.9746 458.9638,-91.9416 446.9893,-82.2232"/>
<polygon fill="#191970" stroke="#191970" points="448.8514,-79.2268 438.8812,-75.6427 444.4402,-84.662 448.8514,-79.2268"/>
</g>
<!-- Node24 -->
<g id="node25" class="node">
<title>Node24</title>
<g id="a_node25"><a xlink:href="Matrix_8inl.html" target="_top" xlink:title="lug/Math/Matrix.inl">
<polygon fill="none" stroke="#000000" points="648,-56.5 648,-75.5 760,-75.5 760,-56.5 648,-56.5"/>
<text text-anchor="middle" x="704" y="-63.5" font-family="Helvetica,sans-Serif" font-size="10.00" fill="#000000">lug/Math/Matrix.inl</text>
</a>
</g>
</g>
<!-- Node13&#45;&gt;Node24 -->
<g id="edge29" class="edge">
<title>Node13&#45;&gt;Node24</title>
<path fill="none" stroke="#191970" d="M531.7565,-112.3733C566.9426,-102.9001 620.7881,-88.4032 658.8956,-78.1435"/>
<polygon fill="#191970" stroke="#191970" points="659.9639,-81.4806 668.7101,-75.5011 658.144,-74.7213 659.9639,-81.4806"/>
</g>
<!-- Node15&#45;&gt;Node7 -->
<g id="edge18" class="edge">
<title>Node15&#45;&gt;Node7</title>
<path fill="none" stroke="#191970" d="M602.3184,-56.3733C633.8506,-46.9807 681.9621,-32.6496 716.3501,-22.4064"/>
<polygon fill="#191970" stroke="#191970" points="717.5187,-25.7103 726.1034,-19.5011 715.5203,-19.0016 717.5187,-25.7103"/>
</g>
<!-- Node16&#45;&gt;Node4 -->
<g id="edge22" class="edge">
<title>Node16&#45;&gt;Node4</title>
<path fill="none" stroke="#191970" d="M226.8495,-56.4435C184.5608,-48.2747 122.7483,-35.7204 60.2276,-20.1708"/>
<polygon fill="#191970" stroke="#191970" points="60.7416,-16.6913 50.1902,-17.6497 59.0363,-23.4804 60.7416,-16.6913"/>
</g>
<!-- Node17 -->
<g id="node18" class="node">
<title>Node17</title>
<polygon fill="none" stroke="#bfbfbf" points="210.5,-.5 210.5,-19.5 275.5,-19.5 275.5,-.5 210.5,-.5"/>
<text text-anchor="middle" x="243" y="-7.5" font-family="Helvetica,sans-Serif" font-size="10.00" fill="#000000">algorithm</text>
</g>
<!-- Node16&#45;&gt;Node17 -->
<g id="edge20" class="edge">
<title>Node16&#45;&gt;Node17</title>
<path fill="none" stroke="#191970" d="M271.9035,-56.2455C267.0855,-48.5367 260.2249,-37.5598 254.3968,-28.2348"/>
<polygon fill="#191970" stroke="#191970" points="257.2947,-26.2677 249.0267,-19.6427 251.3587,-29.9777 257.2947,-26.2677"/>
</g>
<!-- Node18 -->
<g id="node19" class="node">
<title>Node18</title>
<polygon fill="none" stroke="#bfbfbf" points="294,-.5 294,-19.5 338,-19.5 338,-.5 294,-.5"/>
<text text-anchor="middle" x="316" y="-7.5" font-family="Helvetica,sans-Serif" font-size="10.00" fill="#000000">array</text>
</g>
<!-- Node16&#45;&gt;Node18 -->
<g id="edge21" class="edge">
<title>Node16&#45;&gt;Node18</title>
<path fill="none" stroke="#191970" d="M284.6191,-56.2455C289.9046,-48.4564 297.4541,-37.3308 303.8238,-27.9439"/>
<polygon fill="#191970" stroke="#191970" points="306.7379,-29.8827 309.4568,-19.6427 300.9455,-25.9522 306.7379,-29.8827"/>
</g>
<!-- Node19 -->
<g id="node20" class="node">
<title>Node19</title>
<polygon fill="none" stroke="#bfbfbf" points="356.5,-.5 356.5,-19.5 413.5,-19.5 413.5,-.5 356.5,-.5"/>
<text text-anchor="middle" x="385" y="-7.5" font-family="Helvetica,sans-Serif" font-size="10.00" fill="#000000">numeric</text>
</g>
<!-- Node16&#45;&gt;Node19 -->
<g id="edge23" class="edge">
<title>Node16&#45;&gt;Node19</title>
<path fill="none" stroke="#191970" d="M296.638,-56.2455C313.4386,-47.4527 338.3634,-34.4079 357.4618,-24.4125"/>
<polygon fill="#191970" stroke="#191970" points="359.3386,-27.3807 366.5756,-19.6427 356.0927,-21.1787 359.3386,-27.3807"/>
</g>
<!-- Node20 -->
<g id="node21" class="node">
<title>Node20</title>
<g id="a_node21"><a xlink:href="ValArray_8inl.html" target="_top" xlink:title="lug/Math/ValArray.inl">
<polygon fill="none" stroke="#000000" points="68,-.5 68,-19.5 192,-19.5 192,-.5 68,-.5"/>
<text text-anchor="middle" x="130" y="-7.5" font-family="Helvetica,sans-Serif" font-size="10.00" fill="#000000">lug/Math/ValArray.inl</text>
</a>
</g>
</g>
<!-- Node16&#45;&gt;Node20 -->
<g id="edge24" class="edge">
<title>Node16&#45;&gt;Node20</title>
<path fill="none" stroke="#191970" d="M252.5579,-56.3733C228.2674,-47.1822 191.4792,-33.2624 164.5457,-23.0713"/>
<polygon fill="#191970" stroke="#191970" points="165.7016,-19.7666 155.1101,-19.5011 163.2243,-26.3136 165.7016,-19.7666"/>
</g>
<!-- Node21&#45;&gt;Node7 -->
<g id="edge26" class="edge">
<title>Node21&#45;&gt;Node7</title>
<path fill="none" stroke="#191970" d="M483.5248,-56.4369C544.965,-46.0422 642.4759,-29.5449 703.2219,-19.2676"/>
<polygon fill="#191970" stroke="#191970" points="704.1054,-22.668 713.3814,-17.5488 702.9376,-15.766 704.1054,-22.668"/>
</g>
<!-- Node22 -->
<g id="node23" class="node">
<title>Node22</title>
<g id="a_node23"><a xlink:href="Utils_8hpp.html" target="_top" xlink:title="lug/System/Utils.hpp">
<polygon fill="none" stroke="#000000" points="511,-.5 511,-19.5 633,-19.5 633,-.5 511,-.5"/>
<text text-anchor="middle" x="572" y="-7.5" font-family="Helvetica,sans-Serif" font-size="10.00" fill="#000000">lug/System/Utils.hpp</text>
</a>
</g>
</g>
<!-- Node21&#45;&gt;Node22 -->
<g id="edge27" class="edge">
<title>Node21&#45;&gt;Node22</title>
<path fill="none" stroke="#191970" d="M451.9264,-56.3733C475.6202,-47.2226 511.4511,-33.3844 537.8068,-23.2057"/>
<polygon fill="#191970" stroke="#191970" points="539.3314,-26.3689 547.3989,-19.5011 536.8094,-19.8389 539.3314,-26.3689"/>
</g>
<!-- Node23 -->
<g id="node24" class="node">
<title>Node23</title>
<polygon fill="none" stroke="#bfbfbf" points="431.5,-.5 431.5,-19.5 492.5,-19.5 492.5,-.5 431.5,-.5"/>
<text text-anchor="middle" x="462" y="-7.5" font-family="Helvetica,sans-Serif" font-size="10.00" fill="#000000">iostream</text>
</g>
<!-- Node21&#45;&gt;Node23 -->
<g id="edge28" class="edge">
<title>Node21&#45;&gt;Node23</title>
<path fill="none" stroke="#191970" d="M433.0965,-56.2455C437.9145,-48.5367 444.7751,-37.5598 450.6032,-28.2348"/>
<polygon fill="#191970" stroke="#191970" points="453.6413,-29.9777 455.9733,-19.6427 447.7053,-26.2677 453.6413,-29.9777"/>
</g>
<!-- Node27&#45;&gt;Node6 -->
<g id="edge33" class="edge">
<title>Node27&#45;&gt;Node6</title>
<path fill="none" stroke="#191970" d="M718.4943,-302.432C741.7666,-294.054 768.7462,-282.0331 790,-266 813.5674,-248.2216 833.5883,-220.189 845.2069,-201.8227"/>
<polygon fill="#191970" stroke="#191970" points="848.2475,-203.5595 850.491,-193.2049 842.28,-199.9004 848.2475,-203.5595"/>
</g>
<!-- Node27&#45;&gt;Node8 -->
<g id="edge40" class="edge">
<title>Node27&#45;&gt;Node8</title>
<path fill="none" stroke="#191970" d="M724.0049,-304.2402C727.3854,-303.4763 730.7365,-302.7247 734,-302 792.5272,-289.0035 859.1698,-274.8703 907.6816,-264.703"/>
<polygon fill="#191970" stroke="#191970" points="908.6782,-268.0703 917.7488,-262.5954 907.2438,-261.2188 908.6782,-268.0703"/>
</g>
<!-- Node28 -->
<g id="node29" class="node">
<title>Node28</title>
<g id="a_node29"><a xlink:href="Render_2Mesh_8hpp.html" target="_top" xlink:title="lug/Graphics/Render\l/Mesh.hpp">
<polygon fill="none" stroke="#000000" points="628.5,-235.5 628.5,-265.5 747.5,-265.5 747.5,-235.5 628.5,-235.5"/>
<text text-anchor="start" x="636.5" y="-253.5" font-family="Helvetica,sans-Serif" font-size="10.00" fill="#000000">lug/Graphics/Render</text>
<text text-anchor="middle" x="688" y="-242.5" font-family="Helvetica,sans-Serif" font-size="10.00" fill="#000000">/Mesh.hpp</text>
</a>
</g>
</g>
<!-- Node27&#45;&gt;Node28 -->
<g id="edge34" class="edge">
<title>Node27&#45;&gt;Node28</title>
<path fill="none" stroke="#191970" d="M671.7652,-302.2967C674.2623,-294.3299 677.3835,-284.3718 680.2202,-275.3213"/>
<polygon fill="#191970" stroke="#191970" points="683.6025,-276.2323 683.2536,-265.6432 676.9229,-274.1386 683.6025,-276.2323"/>
</g>
<!-- Node30 -->
<g id="node31" class="node">
<title>Node30</title>
<g id="a_node31"><a xlink:href="MeshInstance_8inl.html" target="_top" xlink:title="lug/Graphics/Scene\l/MeshInstance.inl">
<polygon fill="none" stroke="#000000" points="496,-235.5 496,-265.5 610,-265.5 610,-235.5 496,-235.5"/>
<text text-anchor="start" x="504" y="-253.5" font-family="Helvetica,sans-Serif" font-size="10.00" fill="#000000">lug/Graphics/Scene</text>
<text text-anchor="middle" x="553" y="-242.5" font-family="Helvetica,sans-Serif" font-size="10.00" fill="#000000">/MeshInstance.inl</text>
</a>
</g>
</g>
<!-- Node27&#45;&gt;Node30 -->
<g id="edge41" class="edge">
<title>Node27&#45;&gt;Node30</title>
<path fill="none" stroke="#191970" d="M641.4162,-302.4639C625.54,-293.1332 604.935,-281.0232 587.6108,-270.8415"/>
<polygon fill="#191970" stroke="#191970" points="589.2876,-267.7672 578.8929,-265.7177 585.7407,-273.8021 589.2876,-267.7672"/>
</g>
<!-- Node28&#45;&gt;Node2 -->
<g id="edge36" class="edge">
<title>Node28&#45;&gt;Node2</title>
<path fill="none" stroke="#191970" d="M628.1736,-237C625.0721,-236.3192 622,-235.6491 619,-235 542.24,-218.3929 520.6364,-223.44 446,-199 444.1505,-198.3944 442.2675,-197.7178 440.3843,-196.9953"/>
<polygon fill="#191970" stroke="#191970" points="441.6965,-193.7503 431.1207,-193.115 438.992,-200.2068 441.6965,-193.7503"/>
</g>
<!-- Node28&#45;&gt;Node6 -->
<g id="edge37" class="edge">
<title>Node28&#45;&gt;Node6</title>
<path fill="none" stroke="#191970" d="M725.7025,-235.4639C754.7795,-223.8677 794.62,-207.9789 822.5666,-196.8335"/>
<polygon fill="#191970" stroke="#191970" points="823.9265,-200.0594 831.9185,-193.1039 821.3334,-193.5574 823.9265,-200.0594"/>
</g>
<!-- Node28&#45;&gt;Node11 -->
<g id="edge38" class="edge">
<title>Node28&#45;&gt;Node11</title>
<path fill="none" stroke="#191970" d="M648.951,-235.4639C618.7458,-223.8332 577.3264,-207.8843 548.3693,-196.7342"/>
<polygon fill="#191970" stroke="#191970" points="549.2752,-193.3325 538.6854,-193.0053 546.7597,-199.865 549.2752,-193.3325"/>
</g>
<!-- Node28&#45;&gt;Node12 -->
<g id="edge35" class="edge">
<title>Node28&#45;&gt;Node12</title>
<path fill="none" stroke="#191970" d="M669.0902,-235.3632C650.8977,-218.8686 627.9341,-191.6668 641,-168 667.9106,-119.2558 728.9772,-90.6272 767.971,-76.6613"/>
<polygon fill="#191970" stroke="#191970" points="769.536,-79.8245 777.8558,-73.2647 767.2611,-73.2044 769.536,-79.8245"/>
</g>
<!-- Node29 -->
<g id="node30" class="node">
<title>Node29</title>
<g id="a_node30"><a xlink:href="Render_2Mesh_8inl.html" target="_top" xlink:title="lug/Graphics/Render\l/Mesh.inl">
<polygon fill="none" stroke="#000000" points="649.5,-168.5 649.5,-198.5 768.5,-198.5 768.5,-168.5 649.5,-168.5"/>
<text text-anchor="start" x="657.5" y="-186.5" font-family="Helvetica,sans-Serif" font-size="10.00" fill="#000000">lug/Graphics/Render</text>
<text text-anchor="middle" x="709" y="-175.5" font-family="Helvetica,sans-Serif" font-size="10.00" fill="#000000">/Mesh.inl</text>
</a>
</g>
</g>
<!-- Node28&#45;&gt;Node29 -->
<g id="edge39" class="edge">
<title>Node28&#45;&gt;Node29</title>
<path fill="none" stroke="#191970" d="M692.7652,-235.2967C695.2623,-227.3299 698.3835,-217.3718 701.2202,-208.3213"/>
<polygon fill="#191970" stroke="#191970" points="704.6025,-209.2323 704.2536,-198.6432 697.9229,-207.1386 704.6025,-209.2323"/>
</g>
<!-- Node31&#45;&gt;Node6 -->
<g id="edge43" class="edge">
<title>Node31&#45;&gt;Node6</title>
<path fill="none" stroke="#191970" d="M855.5887,-369.4025C861.3064,-359.4813 868.0162,-345.9794 871,-333 881.5252,-287.2165 869.8181,-231.862 861.9503,-203.061"/>
<polygon fill="#191970" stroke="#191970" points="865.2076,-201.7236 859.081,-193.0798 858.4801,-203.6576 865.2076,-201.7236"/>
</g>
<!-- Node31&#45;&gt;Node8 -->
<g id="edge50" class="edge">
<title>Node31&#45;&gt;Node8</title>
<path fill="none" stroke="#191970" d="M903.4073,-377.1214C954.6857,-369.2127 1024.228,-354.7766 1041,-333 1057.2514,-311.8994 1033.7983,-288.0203 1010.6577,-271.4023"/>
<polygon fill="#191970" stroke="#191970" points="1012.4494,-268.3874 1002.2205,-265.627 1008.4955,-274.1637 1012.4494,-268.3874"/>
</g>
<!-- Node31&#45;&gt;Node27 -->
<g id="edge51" class="edge">
<title>Node31&#45;&gt;Node27</title>
<path fill="none" stroke="#191970" d="M805.8289,-369.4639C779.5504,-359.6278 745.021,-346.7034 716.9728,-336.2049"/>
<polygon fill="#191970" stroke="#191970" points="717.9387,-332.8293 707.3463,-332.6017 715.4848,-339.3852 717.9387,-332.8293"/>
</g>
<!-- Node32 -->
<g id="node33" class="node">
<title>Node32</title>
<g id="a_node33"><a xlink:href="Render_2Model_8hpp.html" target="_top" xlink:title="lug/Graphics/Render\l/Model.hpp">
<polygon fill="none" stroke="#000000" points="742.5,-302.5 742.5,-332.5 861.5,-332.5 861.5,-302.5 742.5,-302.5"/>
<text text-anchor="start" x="750.5" y="-320.5" font-family="Helvetica,sans-Serif" font-size="10.00" fill="#000000">lug/Graphics/Render</text>
<text text-anchor="middle" x="802" y="-309.5" font-family="Helvetica,sans-Serif" font-size="10.00" fill="#000000">/Model.hpp</text>
</a>
</g>
</g>
<!-- Node31&#45;&gt;Node32 -->
<g id="edge44" class="edge">
<title>Node31&#45;&gt;Node32</title>
<path fill="none" stroke="#191970" d="M836.0157,-369.2967C830.5588,-360.9873 823.6792,-350.5115 817.5371,-341.1587"/>
<polygon fill="#191970" stroke="#191970" points="820.3596,-339.0806 811.9448,-332.6432 814.5086,-342.9231 820.3596,-339.0806"/>
</g>
<!-- Node34 -->
<g id="node35" class="node">
<title>Node34</title>
<g id="a_node35"><a xlink:href="ModelInstance_8inl.html" target="_top" xlink:title="lug/Graphics/Scene\l/ModelInstance.inl">
<polygon fill="none" stroke="#000000" points="918,-302.5 918,-332.5 1032,-332.5 1032,-302.5 918,-302.5"/>
<text text-anchor="start" x="926" y="-320.5" font-family="Helvetica,sans-Serif" font-size="10.00" fill="#000000">lug/Graphics/Scene</text>
<text text-anchor="middle" x="975" y="-309.5" font-family="Helvetica,sans-Serif" font-size="10.00" fill="#000000">/ModelInstance.inl</text>
</a>
</g>
</g>
<!-- Node31&#45;&gt;Node34 -->
<g id="edge52" class="edge">
<title>Node31&#45;&gt;Node34</title>
<path fill="none" stroke="#191970" d="M874.9501,-369.4639C893.1625,-360.0047 916.8741,-347.6894 936.6423,-337.4222"/>
<polygon fill="#191970" stroke="#191970" points="938.439,-340.433 945.7002,-332.7177 935.2125,-334.2209 938.439,-340.433"/>
</g>
<!-- Node32&#45;&gt;Node2 -->
<g id="edge47" class="edge">
<title>Node32&#45;&gt;Node2</title>
<path fill="none" stroke="#191970" d="M742.2178,-303.78C739.1047,-303.1566 736.0181,-302.559 733,-302 624.35,-281.8764 584.5403,-317.9198 487,-266 458.8065,-250.9928 435.7996,-221.0587 423.0057,-201.6736"/>
<polygon fill="#191970" stroke="#191970" points="425.8851,-199.6789 417.5674,-193.1163 419.9772,-203.4335 425.8851,-199.6789"/>
</g>
<!-- Node32&#45;&gt;Node6 -->
<g id="edge48" class="edge">
<title>Node32&#45;&gt;Node6</title>
<path fill="none" stroke="#191970" d="M810.3081,-302.4403C815.7203,-292.3098 822.7287,-278.5602 828,-266 836.8348,-244.9489 844.9852,-220.042 850.187,-203.1439"/>
<polygon fill="#191970" stroke="#191970" points="853.6142,-203.902 853.1571,-193.3171 846.9135,-201.8768 853.6142,-203.902"/>
</g>
<!-- Node32&#45;&gt;Node9 -->
<g id="edge46" class="edge">
<title>Node32&#45;&gt;Node9</title>
<path fill="none" stroke="#191970" d="M861.6828,-307.1437C928.0747,-295.2483 1028.0266,-276.0795 1043,-266 1066.2497,-250.3491 1082.49,-221.497 1091.2877,-202.4013"/>
<polygon fill="#191970" stroke="#191970" points="1094.518,-203.7495 1095.3074,-193.1841 1088.1016,-200.9512 1094.518,-203.7495"/>
</g>
<!-- Node32&#45;&gt;Node28 -->
<g id="edge49" class="edge">
<title>Node32&#45;&gt;Node28</title>
<path fill="none" stroke="#191970" d="M776.4162,-302.4639C760.54,-293.1332 739.935,-281.0232 722.6108,-270.8415"/>
<polygon fill="#191970" stroke="#191970" points="724.2876,-267.7672 713.8929,-265.7177 720.7407,-273.8021 724.2876,-267.7672"/>
</g>
<!-- Node33 -->
<g id="node34" class="node">
<title>Node33</title>
<polygon fill="none" stroke="#bfbfbf" points="1520.5,-174 1520.5,-193 1579.5,-193 1579.5,-174 1520.5,-174"/>
<text text-anchor="middle" x="1550" y="-181" font-family="Helvetica,sans-Serif" font-size="10.00" fill="#000000">memory</text>
</g>
<!-- Node32&#45;&gt;Node33 -->
<g id="edge45" class="edge">
<title>Node32&#45;&gt;Node33</title>
<path fill="none" stroke="#191970" d="M861.5947,-307.9398C877.004,-305.7227 893.5932,-303.5589 909,-302 977.8751,-295.0313 1478.1027,-310.6567 1531,-266 1548.9316,-250.8618 1551.8865,-222.5153 1551.5711,-203.3247"/>
<polygon fill="#191970" stroke="#191970" points="1555.0634,-203.0766 1551.096,-193.2526 1548.0712,-203.4065 1555.0634,-203.0766"/>
</g>
<!-- Node35&#45;&gt;Node9 -->
<g id="edge57" class="edge">
<title>Node35&#45;&gt;Node9</title>
<path fill="none" stroke="#191970" d="M1357.6446,-314.277C1273.6594,-309.343 1153.9239,-296.9499 1120,-266 1102.6487,-250.1698 1098.7473,-222.2014 1098.2836,-203.2652"/>
<polygon fill="#191970" stroke="#191970" points="1101.7845,-203.0948 1098.3407,-193.0753 1094.7846,-203.0555 1101.7845,-203.0948"/>
</g>
<!-- Node35&#45;&gt;Node33 -->
<g id="edge55" class="edge">
<title>Node35&#45;&gt;Node33</title>
<path fill="none" stroke="#191970" d="M1499.1172,-307.9345C1523.3089,-300.6999 1549.4662,-288.0531 1564,-266 1576.6223,-246.8474 1568.3492,-219.9375 1560.1542,-202.1246"/>
<polygon fill="#191970" stroke="#191970" points="1563.2185,-200.4265 1555.6199,-193.0433 1556.9557,-203.5536 1563.2185,-200.4265"/>
</g>
<!-- Node36 -->
<g id="node37" class="node">
<title>Node36</title>
<polygon fill="none" stroke="#bfbfbf" points="1800,-241 1800,-260 1832,-260 1832,-241 1800,-241"/>
<text text-anchor="middle" x="1816" y="-248" font-family="Helvetica,sans-Serif" font-size="10.00" fill="#000000">set</text>
</g>
<!-- Node35&#45;&gt;Node36 -->
<g id="edge56" class="edge">
<title>Node35&#45;&gt;Node36</title>
<path fill="none" stroke="#191970" d="M1530.0586,-308.7646C1616.852,-299.2346 1744.4648,-283.0483 1791,-266 1791.8811,-265.6772 1792.7645,-265.3209 1793.6454,-264.9375"/>
<polygon fill="#191970" stroke="#191970" points="1795.5764,-267.8749 1802.7633,-260.0903 1792.2906,-261.694 1795.5764,-267.8749"/>
</g>
<!-- Node37 -->
<g id="node38" class="node">
<title>Node37</title>
<g id="a_node38"><a xlink:href="System_2Export_8hpp.html" target="_top" xlink:title="lug/System/Export.hpp">
<polygon fill="none" stroke="#000000" points="1308,-112.5 1308,-131.5 1440,-131.5 1440,-112.5 1308,-112.5"/>
<text text-anchor="middle" x="1374" y="-119.5" font-family="Helvetica,sans-Serif" font-size="10.00" fill="#000000">lug/System/Export.hpp</text>
</a>
</g>
</g>
<!-- Node35&#45;&gt;Node37 -->
<g id="edge58" class="edge">
<title>Node35&#45;&gt;Node37</title>
<path fill="none" stroke="#191970" d="M1530.1641,-312.2856C1640.7399,-304.6996 1820.8151,-288.9725 1841,-266 1850.0941,-255.6499 1849.398,-245.9225 1841,-235 1793.8803,-173.7154 1570.1909,-141.9384 1450.3101,-129.0664"/>
<polygon fill="#191970" stroke="#191970" points="1450.4117,-125.5577 1440.0996,-127.9888 1449.677,-132.5191 1450.4117,-125.5577"/>
</g>
<!-- Node38 -->
<g id="node39" class="node">
<title>Node38</title>
<g id="a_node39"><a xlink:href="Common_8hpp.html" target="_top" xlink:title="lug/System/Logger/Common.hpp">
<polygon fill="none" stroke="#000000" points="1154,-174 1154,-193 1336,-193 1336,-174 1154,-174"/>
<text text-anchor="middle" x="1245" y="-181" font-family="Helvetica,sans-Serif" font-size="10.00" fill="#000000">lug/System/Logger/Common.hpp</text>
</a>
</g>
</g>
<!-- Node35&#45;&gt;Node38 -->
<g id="edge60" class="edge">
<title>Node35&#45;&gt;Node38</title>
<path fill="none" stroke="#191970" d="M1426.4471,-307.892C1408.7635,-298.005 1380.8931,-281.8504 1358,-266 1339.7955,-253.3958 1336.7627,-248.2196 1319,-235 1302.1548,-222.4631 1282.6426,-208.9229 1267.8849,-198.8738"/>
<polygon fill="#191970" stroke="#191970" points="1269.6186,-195.8207 1259.3768,-193.1082 1265.6916,-201.6155 1269.6186,-195.8207"/>
</g>
<!-- Node41 -->
<g id="node42" class="node">
<title>Node41</title>
<g id="a_node42"><a xlink:href="LoggingFacility_8hpp.html" target="_top" xlink:title="lug/System/Logger/Logging\lFacility.hpp">
<polygon fill="none" stroke="#000000" points="1366.5,-235.5 1366.5,-265.5 1521.5,-265.5 1521.5,-235.5 1366.5,-235.5"/>
<text text-anchor="start" x="1374.5" y="-253.5" font-family="Helvetica,sans-Serif" font-size="10.00" fill="#000000">lug/System/Logger/Logging</text>
<text text-anchor="middle" x="1444" y="-242.5" font-family="Helvetica,sans-Serif" font-size="10.00" fill="#000000">Facility.hpp</text>
</a>
</g>
</g>
<!-- Node35&#45;&gt;Node41 -->
<g id="edge64" class="edge">
<title>Node35&#45;&gt;Node41</title>
<path fill="none" stroke="#191970" d="M1444,-307.9005C1444,-299.5099 1444,-286.9451 1444,-275.7085"/>
<polygon fill="#191970" stroke="#191970" points="1447.5001,-275.5217 1444,-265.5218 1440.5001,-275.5218 1447.5001,-275.5217"/>
</g>
<!-- Node43 -->
<g id="node44" class="node">
<title>Node43</title>
<g id="a_node44"><a xlink:href="Message_8hpp.html" target="_top" xlink:title="lug/System/Logger/Message.hpp">
<polygon fill="none" stroke="#000000" points="1128.5,-241 1128.5,-260 1309.5,-260 1309.5,-241 1128.5,-241"/>
<text text-anchor="middle" x="1219" y="-248" font-family="Helvetica,sans-Serif" font-size="10.00" fill="#000000">lug/System/Logger/Message.hpp</text>
</a>
</g>
</g>
<!-- Node35&#45;&gt;Node43 -->
<g id="edge69" class="edge">
<title>Node35&#45;&gt;Node43</title>
<path fill="none" stroke="#191970" d="M1411.763,-307.9005C1372.0815,-296.0843 1304.601,-275.9901 1260.9257,-262.9845"/>
<polygon fill="#191970" stroke="#191970" points="1261.7602,-259.5812 1251.1772,-260.0817 1259.7624,-266.2901 1261.7602,-259.5812"/>
</g>
<!-- Node44 -->
<g id="node45" class="node">
<title>Node44</title>
<g id="a_node45"><a xlink:href="Logger_8inl.html" target="_top" xlink:title="lug/System/Logger/Logger.inl">
<polygon fill="none" stroke="#000000" points="1616,-241 1616,-260 1782,-260 1782,-241 1616,-241"/>
<text text-anchor="middle" x="1699" y="-248" font-family="Helvetica,sans-Serif" font-size="10.00" fill="#000000">lug/System/Logger/Logger.inl</text>
</a>
</g>
</g>
<!-- Node35&#45;&gt;Node44 -->
<g id="edge71" class="edge">
<title>Node35&#45;&gt;Node44</title>
<path fill="none" stroke="#191970" d="M1480.2645,-307.9717C1525.5456,-296.0743 1603.0671,-275.7059 1652.6233,-262.6852"/>
<polygon fill="#191970" stroke="#191970" points="1653.6655,-266.0303 1662.4478,-260.1039 1651.8866,-259.2601 1653.6655,-266.0303"/>
</g>
<!-- Node37&#45;&gt;Node7 -->
<g id="edge59" class="edge">
<title>Node37&#45;&gt;Node7</title>
<path fill="none" stroke="#191970" d="M1321.7459,-112.4993C1206.2946,-91.5081 930.4174,-41.3486 812.7198,-19.9491"/>
<polygon fill="#191970" stroke="#191970" points="813.3045,-16.4981 802.8397,-18.1527 812.0522,-23.3851 813.3045,-16.4981"/>
</g>
<!-- Node38&#45;&gt;Node37 -->
<g id="edge61" class="edge">
<title>Node38&#45;&gt;Node37</title>
<path fill="none" stroke="#191970" d="M1265.1563,-173.8906C1286.551,-163.6908 1320.562,-147.4763 1344.8702,-135.8875"/>
<polygon fill="#191970" stroke="#191970" points="1346.4648,-139.0047 1353.9853,-131.5419 1343.4524,-132.686 1346.4648,-139.0047"/>
</g>
<!-- Node39 -->
<g id="node40" class="node">
<title>Node39</title>
<polygon fill="none" stroke="#bfbfbf" points="1100,-112.5 1100,-131.5 1182,-131.5 1182,-112.5 1100,-112.5"/>
<text text-anchor="middle" x="1141" y="-119.5" font-family="Helvetica,sans-Serif" font-size="10.00" fill="#000000">fmt/format.h</text>
</g>
<!-- Node38&#45;&gt;Node39 -->
<g id="edge62" class="edge">
<title>Node38&#45;&gt;Node39</title>
<path fill="none" stroke="#191970" d="M1228.75,-173.8906C1211.8831,-163.9165 1185.2901,-148.1908 1165.7965,-136.6633"/>
<polygon fill="#191970" stroke="#191970" points="1167.5251,-133.6194 1157.1359,-131.5419 1163.962,-139.6447 1167.5251,-133.6194"/>
</g>
<!-- Node40 -->
<g id="node41" class="node">
<title>Node40</title>
<polygon fill="none" stroke="#bfbfbf" points="1200.5,-112.5 1200.5,-131.5 1289.5,-131.5 1289.5,-112.5 1200.5,-112.5"/>
<text text-anchor="middle" x="1245" y="-119.5" font-family="Helvetica,sans-Serif" font-size="10.00" fill="#000000">fmt/ostream.h</text>
</g>
<!-- Node38&#45;&gt;Node40 -->
<g id="edge63" class="edge">
<title>Node38&#45;&gt;Node40</title>
<path fill="none" stroke="#191970" d="M1245,-173.8906C1245,-165.3657 1245,-152.6392 1245,-141.9235"/>
<polygon fill="#191970" stroke="#191970" points="1248.5001,-141.7448 1245,-131.7449 1241.5001,-141.7449 1248.5001,-141.7448"/>
</g>
<!-- Node41&#45;&gt;Node9 -->
<g id="edge65" class="edge">
<title>Node41&#45;&gt;Node9</title>
<path fill="none" stroke="#191970" d="M1366.4975,-240.5042C1305.7285,-231.8632 1219.3,-217.7969 1145,-199 1140.5602,-197.8768 1135.9324,-196.532 1131.3966,-195.1102"/>
<polygon fill="#191970" stroke="#191970" points="1132.3154,-191.7281 1121.7225,-191.9312 1130.13,-198.3782 1132.3154,-191.7281"/>
</g>
<!-- Node41&#45;&gt;Node33 -->
<g id="edge66" class="edge">
<title>Node41&#45;&gt;Node33</title>
<path fill="none" stroke="#191970" d="M1467.7885,-235.4639C1485.2535,-224.4247 1508.8729,-209.4954 1526.3138,-198.4715"/>
<polygon fill="#191970" stroke="#191970" points="1528.2228,-201.4054 1534.8057,-193.1039 1524.4827,-195.4883 1528.2228,-201.4054"/>
</g>
<!-- Node41&#45;&gt;Node37 -->
<g id="edge68" class="edge">
<title>Node41&#45;&gt;Node37</title>
<path fill="none" stroke="#191970" d="M1424.8649,-235.1769C1414.3199,-225.7776 1401.8199,-212.9026 1394,-199 1383.8772,-181.0032 1378.7568,-157.7662 1376.2483,-141.547"/>
<polygon fill="#191970" stroke="#191970" points="1379.7103,-141.0298 1374.8997,-131.5901 1372.7737,-141.9694 1379.7103,-141.0298"/>
</g>
<!-- Node42 -->
<g id="node43" class="node">
<title>Node42</title>
<polygon fill="none" stroke="#bfbfbf" points="1402.5,-174 1402.5,-193 1497.5,-193 1497.5,-174 1402.5,-174"/>
<text text-anchor="middle" x="1450" y="-181" font-family="Helvetica,sans-Serif" font-size="10.00" fill="#000000">unordered_map</text>
</g>
<!-- Node41&#45;&gt;Node42 -->
<g id="edge67" class="edge">
<title>Node41&#45;&gt;Node42</title>
<path fill="none" stroke="#191970" d="M1445.3615,-235.2967C1446.2146,-225.7699 1447.3228,-213.3954 1448.242,-203.1306"/>
<polygon fill="#191970" stroke="#191970" points="1451.7383,-203.3273 1449.1443,-193.055 1444.7662,-202.7029 1451.7383,-203.3273"/>
</g>
<!-- Node43&#45;&gt;Node38 -->
<g id="edge70" class="edge">
<title>Node43&#45;&gt;Node38</title>
<path fill="none" stroke="#191970" d="M1222.7252,-240.9005C1226.5866,-230.95 1232.726,-215.1292 1237.5823,-202.6147"/>
<polygon fill="#191970" stroke="#191970" points="1240.9269,-203.6706 1241.2817,-193.0817 1234.401,-201.1381 1240.9269,-203.6706"/>
</g>
</g>
</svg>
