<?xml version="1.0" encoding="UTF-8" standalone="no"?>
<!DOCTYPE svg PUBLIC "-//W3C//DTD SVG 1.1//EN"
 "http://www.w3.org/Graphics/SVG/1.1/DTD/svg11.dtd">
<!-- Generated by graphviz version 2.40.1 (20161225.0304)
 -->
<!-- Title: include/lug/Graphics/Render/Mesh.inl Pages: 1 -->
<svg width="1698pt" height="497pt"
 viewBox="0.00 0.00 1698.44 497.00" xmlns="http://www.w3.org/2000/svg" xmlns:xlink="http://www.w3.org/1999/xlink">
<g id="graph0" class="graph" transform="scale(1 1) rotate(0) translate(4 493)">
<title>include/lug/Graphics/Render/Mesh.inl</title>
<!-- Node1 -->
<g id="node1" class="node">
<title>Node1</title>
<polygon fill="#bfbfbf" stroke="#000000" points="783.4366,-458.5 783.4366,-488.5 902.4366,-488.5 902.4366,-458.5 783.4366,-458.5"/>
<text text-anchor="start" x="791.4366" y="-476.5" font-family="Helvetica,sans-Serif" font-size="10.00" fill="#000000">include/lug/Graphics</text>
<text text-anchor="middle" x="842.9366" y="-465.5" font-family="Helvetica,sans-Serif" font-size="10.00" fill="#000000">/Render/Mesh.inl</text>
</g>
<!-- Node2 -->
<g id="node2" class="node">
<title>Node2</title>
<g id="a_node2"><a xlink:href="Render_2Mesh_8hpp.html" target="_top" xlink:title="include/lug/Graphics\l/Render/Mesh.hpp">
<polygon fill="none" stroke="#000000" points="783.4366,-391.5 783.4366,-421.5 902.4366,-421.5 902.4366,-391.5 783.4366,-391.5"/>
<text text-anchor="start" x="791.4366" y="-409.5" font-family="Helvetica,sans-Serif" font-size="10.00" fill="#000000">include/lug/Graphics</text>
<text text-anchor="middle" x="842.9366" y="-398.5" font-family="Helvetica,sans-Serif" font-size="10.00" fill="#000000">/Render/Mesh.hpp</text>
</a>
</g>
</g>
<!-- Node1&#45;&gt;Node2 -->
<g id="edge1" class="edge">
<title>Node1&#45;&gt;Node2</title>
<path fill="none" stroke="#191970" d="M842.9366,-448.0249C842.9366,-439.128 842.9366,-429.4287 842.9366,-421.6432"/>
<polygon fill="#191970" stroke="#191970" points="839.4367,-448.2966 842.9366,-458.2967 846.4367,-448.2967 839.4367,-448.2966"/>
</g>
<!-- Node3 -->
<g id="node3" class="node">
<title>Node3</title>
<g id="a_node3"><a xlink:href="Graphics_8hpp.html" target="_top" xlink:title="include/lug/Graphics\l/Graphics.hpp">
<polygon fill="none" stroke="#000000" points="259.4366,-123.5 259.4366,-153.5 378.4366,-153.5 378.4366,-123.5 259.4366,-123.5"/>
<text text-anchor="start" x="267.4366" y="-141.5" font-family="Helvetica,sans-Serif" font-size="10.00" fill="#000000">include/lug/Graphics</text>
<text text-anchor="middle" x="318.9366" y="-130.5" font-family="Helvetica,sans-Serif" font-size="10.00" fill="#000000">/Graphics.hpp</text>
</a>
</g>
</g>
<!-- Node2&#45;&gt;Node3 -->
<g id="edge2" class="edge">
<title>Node2&#45;&gt;Node3</title>
<path fill="none" stroke="#191970" d="M773.0401,-401.8428C582.1111,-388.3955 62.7608,-346.689 14.9366,-288 -56.6761,-200.1181 151.8884,-159.8219 259.3201,-145.2746"/>
<polygon fill="#191970" stroke="#191970" points="773.0203,-405.3498 783.2402,-402.5562 773.5088,-398.3669 773.0203,-405.3498"/>
</g>
<!-- Node8 -->
<g id="node8" class="node">
<title>Node8</title>
<g id="a_node8"><a xlink:href="Render_2Model_8hpp.html" target="_top" xlink:title="include/lug/Graphics\l/Render/Model.hpp">
<polygon fill="none" stroke="#000000" points="349.4366,-324.5 349.4366,-354.5 468.4366,-354.5 468.4366,-324.5 349.4366,-324.5"/>
<text text-anchor="start" x="357.4366" y="-342.5" font-family="Helvetica,sans-Serif" font-size="10.00" fill="#000000">include/lug/Graphics</text>
<text text-anchor="middle" x="408.9366" y="-331.5" font-family="Helvetica,sans-Serif" font-size="10.00" fill="#000000">/Render/Model.hpp</text>
</a>
</g>
</g>
<!-- Node2&#45;&gt;Node8 -->
<g id="edge7" class="edge">
<title>Node2&#45;&gt;Node8</title>
<path fill="none" stroke="#191970" d="M773.0378,-395.7092C688.6213,-382.6771 548.0841,-360.9813 468.56,-348.7045"/>
<polygon fill="#191970" stroke="#191970" points="772.6295,-399.1875 783.0464,-397.2543 773.6975,-392.2695 772.6295,-399.1875"/>
</g>
<!-- Node22 -->
<g id="node22" class="node">
<title>Node22</title>
<g id="a_node22"><a xlink:href="MeshInstance_8hpp.html" target="_top" xlink:title="include/lug/Graphics\l/Scene/MeshInstance.hpp">
<polygon fill="none" stroke="#000000" points="770.4366,-324.5 770.4366,-354.5 915.4366,-354.5 915.4366,-324.5 770.4366,-324.5"/>
<text text-anchor="start" x="778.4366" y="-342.5" font-family="Helvetica,sans-Serif" font-size="10.00" fill="#000000">include/lug/Graphics</text>
<text text-anchor="middle" x="842.9366" y="-331.5" font-family="Helvetica,sans-Serif" font-size="10.00" fill="#000000">/Scene/MeshInstance.hpp</text>
</a>
</g>
</g>
<!-- Node2&#45;&gt;Node22 -->
<g id="edge26" class="edge">
<title>Node2&#45;&gt;Node22</title>
<path fill="none" stroke="#191970" d="M842.9366,-381.0249C842.9366,-372.128 842.9366,-362.4287 842.9366,-354.6432"/>
<polygon fill="#191970" stroke="#191970" points="839.4367,-381.2966 842.9366,-391.2967 846.4367,-381.2967 839.4367,-381.2966"/>
</g>
<!-- Node24 -->
<g id="node24" class="node">
<title>Node24</title>
<g id="a_node24"><a xlink:href="Vulkan_2Render_2Mesh_8hpp.html" target="_top" xlink:title="include/lug/Graphics\l/Vulkan/Render/Mesh.hpp">
<polygon fill="none" stroke="#000000" points="1080.9366,-324.5 1080.9366,-354.5 1226.9366,-354.5 1226.9366,-324.5 1080.9366,-324.5"/>
<text text-anchor="start" x="1088.9366" y="-342.5" font-family="Helvetica,sans-Serif" font-size="10.00" fill="#000000">include/lug/Graphics</text>
<text text-anchor="middle" x="1153.9366" y="-331.5" font-family="Helvetica,sans-Serif" font-size="10.00" fill="#000000">/Vulkan/Render/Mesh.hpp</text>
</a>
</g>
</g>
<!-- Node2&#45;&gt;Node24 -->
<g id="edge32" class="edge">
<title>Node2&#45;&gt;Node24</title>
<path fill="none" stroke="#191970" d="M912.5181,-391.5098C963.7063,-380.4821 1032.9992,-365.554 1084.2193,-354.5195"/>
<polygon fill="#191970" stroke="#191970" points="911.5712,-388.1334 902.5326,-393.661 913.0454,-394.9764 911.5712,-388.1334"/>
</g>
<!-- Node29 -->
<g id="node29" class="node">
<title>Node29</title>
<g id="a_node29"><a xlink:href="Render_2Mesh_8cpp.html" target="_top" xlink:title="src/lug/Graphics/Render\l/Mesh.cpp">
<polygon fill="none" stroke="#000000" points="1245.4366,-324.5 1245.4366,-354.5 1384.4366,-354.5 1384.4366,-324.5 1245.4366,-324.5"/>
<text text-anchor="start" x="1253.4366" y="-342.5" font-family="Helvetica,sans-Serif" font-size="10.00" fill="#000000">src/lug/Graphics/Render</text>
<text text-anchor="middle" x="1314.9366" y="-331.5" font-family="Helvetica,sans-Serif" font-size="10.00" fill="#000000">/Mesh.cpp</text>
</a>
</g>
</g>
<!-- Node2&#45;&gt;Node29 -->
<g id="edge42" class="edge">
<title>Node2&#45;&gt;Node29</title>
<path fill="none" stroke="#191970" d="M912.9801,-398.6803C991.7348,-389.5726 1123.3359,-373.405 1235.9366,-355 1238.9712,-354.504 1242.0677,-353.9787 1245.193,-353.433"/>
<polygon fill="#191970" stroke="#191970" points="912.2325,-395.2432 902.6984,-399.8639 913.0331,-402.1972 912.2325,-395.2432"/>
</g>
<!-- Node4 -->
<g id="node4" class="node">
<title>Node4</title>
<g id="a_node4"><a xlink:href="Application_8hpp.html" target="_top" xlink:title="include/lug/Core/Application.hpp">
<polygon fill="none" stroke="#000000" points="227.9366,-62 227.9366,-81 407.9366,-81 407.9366,-62 227.9366,-62"/>
<text text-anchor="middle" x="317.9366" y="-69" font-family="Helvetica,sans-Serif" font-size="10.00" fill="#000000">include/lug/Core/Application.hpp</text>
</a>
</g>
</g>
<!-- Node3&#45;&gt;Node4 -->
<g id="edge3" class="edge">
<title>Node3&#45;&gt;Node4</title>
<path fill="none" stroke="#191970" d="M318.5578,-113.1199C318.3905,-101.9072 318.2038,-89.4031 318.0792,-81.055"/>
<polygon fill="#191970" stroke="#191970" points="315.0608,-113.35 318.7097,-123.2967 322.06,-113.2455 315.0608,-113.35"/>
</g>
<!-- Node6 -->
<g id="node6" class="node">
<title>Node6</title>
<g id="a_node6"><a xlink:href="Graphics_8cpp.html" target="_top" xlink:title="src/lug/Graphics/Graphics.cpp">
<polygon fill="none" stroke="#000000" points="425.9366,-62 425.9366,-81 593.9366,-81 593.9366,-62 425.9366,-62"/>
<text text-anchor="middle" x="509.9366" y="-69" font-family="Helvetica,sans-Serif" font-size="10.00" fill="#000000">src/lug/Graphics/Graphics.cpp</text>
</a>
</g>
</g>
<!-- Node3&#45;&gt;Node6 -->
<g id="edge5" class="edge">
<title>Node3&#45;&gt;Node6</title>
<path fill="none" stroke="#191970" d="M371.6745,-120.0003C407.7264,-107.3538 454.0247,-91.1131 482.8395,-81.0053"/>
<polygon fill="#191970" stroke="#191970" points="370.0785,-116.851 361.8008,-123.4639 372.3956,-123.4564 370.0785,-116.851"/>
</g>
<!-- Node7 -->
<g id="node7" class="node">
<title>Node7</title>
<g id="a_node7"><a xlink:href="Vulkan_2Renderer_8cpp.html" target="_top" xlink:title="src/lug/Graphics/Vulkan\l/Renderer.cpp">
<polygon fill="none" stroke="#000000" points="962.4366,-56.5 962.4366,-86.5 1099.4366,-86.5 1099.4366,-56.5 962.4366,-56.5"/>
<text text-anchor="start" x="970.4366" y="-74.5" font-family="Helvetica,sans-Serif" font-size="10.00" fill="#000000">src/lug/Graphics/Vulkan</text>
<text text-anchor="middle" x="1030.9366" y="-63.5" font-family="Helvetica,sans-Serif" font-size="10.00" fill="#000000">/Renderer.cpp</text>
</a>
</g>
</g>
<!-- Node3&#45;&gt;Node7 -->
<g id="edge6" class="edge">
<title>Node3&#45;&gt;Node7</title>
<path fill="none" stroke="#191970" d="M388.8712,-131.562C416.3247,-128.8587 448.1065,-125.7541 476.9366,-123 651.7028,-106.3046 857.5553,-87.357 962.2641,-77.7705"/>
<polygon fill="#191970" stroke="#191970" points="388.1849,-128.1126 378.5765,-132.5769 388.8717,-135.0789 388.1849,-128.1126"/>
</g>
<!-- Node5 -->
<g id="node5" class="node">
<title>Node5</title>
<g id="a_node5"><a xlink:href="Application_8cpp.html" target="_top" xlink:title="src/lug/Core/Application.cpp">
<polygon fill="none" stroke="#000000" points="238.4366,-.5 238.4366,-19.5 397.4366,-19.5 397.4366,-.5 238.4366,-.5"/>
<text text-anchor="middle" x="317.9366" y="-7.5" font-family="Helvetica,sans-Serif" font-size="10.00" fill="#000000">src/lug/Core/Application.cpp</text>
</a>
</g>
</g>
<!-- Node4&#45;&gt;Node5 -->
<g id="edge4" class="edge">
<title>Node4&#45;&gt;Node5</title>
<path fill="none" stroke="#191970" d="M317.9366,-51.7462C317.9366,-41.0519 317.9366,-28.314 317.9366,-19.7449"/>
<polygon fill="#191970" stroke="#191970" points="314.4367,-51.8906 317.9366,-61.8906 321.4367,-51.8907 314.4367,-51.8906"/>
</g>
<!-- Node8&#45;&gt;Node3 -->
<g id="edge8" class="edge">
<title>Node8&#45;&gt;Node3</title>
<path fill="none" stroke="#191970" d="M392.0636,-315.962C378.9624,-298.5782 359.7446,-274.9225 339.9366,-257 318.8214,-237.8947 300.2643,-246.1642 286.9366,-221 275.0008,-198.4637 291.9993,-170.4653 305.4266,-153.5643"/>
<polygon fill="#191970" stroke="#191970" points="389.5626,-318.4658 398.3278,-324.4174 395.1872,-314.2987 389.5626,-318.4658"/>
</g>
<!-- Node9 -->
<g id="node9" class="node">
<title>Node9</title>
<g id="a_node9"><a xlink:href="ModelInstance_8hpp.html" target="_top" xlink:title="include/lug/Graphics\l/Scene/ModelInstance.hpp">
<polygon fill="none" stroke="#000000" points="608.4366,-257.5 608.4366,-287.5 757.4366,-287.5 757.4366,-257.5 608.4366,-257.5"/>
<text text-anchor="start" x="616.4366" y="-275.5" font-family="Helvetica,sans-Serif" font-size="10.00" fill="#000000">include/lug/Graphics</text>
<text text-anchor="middle" x="682.9366" y="-264.5" font-family="Helvetica,sans-Serif" font-size="10.00" fill="#000000">/Scene/ModelInstance.hpp</text>
</a>
</g>
</g>
<!-- Node8&#45;&gt;Node9 -->
<g id="edge9" class="edge">
<title>Node8&#45;&gt;Node9</title>
<path fill="none" stroke="#191970" d="M478.4966,-322.4908C522.536,-311.7221 578.9627,-297.9243 621.3743,-287.5536"/>
<polygon fill="#191970" stroke="#191970" points="477.6109,-319.1042 468.7285,-324.8794 479.2737,-325.9038 477.6109,-319.1042"/>
</g>
<!-- Node17 -->
<g id="node17" class="node">
<title>Node17</title>
<g id="a_node17"><a xlink:href="ModelLoader_8hpp.html" target="_top" xlink:title="include/lug/Graphics\l/Scene/ModelLoader.hpp">
<polygon fill="none" stroke="#000000" points="387.9366,-257.5 387.9366,-287.5 527.9366,-287.5 527.9366,-257.5 387.9366,-257.5"/>
<text text-anchor="start" x="395.9366" y="-275.5" font-family="Helvetica,sans-Serif" font-size="10.00" fill="#000000">include/lug/Graphics</text>
<text text-anchor="middle" x="457.9366" y="-264.5" font-family="Helvetica,sans-Serif" font-size="10.00" fill="#000000">/Scene/ModelLoader.hpp</text>
</a>
</g>
</g>
<!-- Node8&#45;&gt;Node17 -->
<g id="edge18" class="edge">
<title>Node8&#45;&gt;Node17</title>
<path fill="none" stroke="#191970" d="M426.0774,-316.0626C432.9748,-306.6315 440.7299,-296.0276 446.8618,-287.6432"/>
<polygon fill="#191970" stroke="#191970" points="423.1336,-314.1588 420.0555,-324.2967 428.7838,-318.2911 423.1336,-314.1588"/>
</g>
<!-- Node19 -->
<g id="node19" class="node">
<title>Node19</title>
<g id="a_node19"><a xlink:href="Vulkan_2Render_2Model_8hpp.html" target="_top" xlink:title="include/lug/Graphics\l/Vulkan/Render/Model.hpp">
<polygon fill="none" stroke="#000000" points="23.9366,-257.5 23.9366,-287.5 173.9366,-287.5 173.9366,-257.5 23.9366,-257.5"/>
<text text-anchor="start" x="31.9366" y="-275.5" font-family="Helvetica,sans-Serif" font-size="10.00" fill="#000000">include/lug/Graphics</text>
<text text-anchor="middle" x="98.9366" y="-264.5" font-family="Helvetica,sans-Serif" font-size="10.00" fill="#000000">/Vulkan/Render/Model.hpp</text>
</a>
</g>
</g>
<!-- Node8&#45;&gt;Node19 -->
<g id="edge21" class="edge">
<title>Node8&#45;&gt;Node19</title>
<path fill="none" stroke="#191970" d="M339.224,-324.4331C288.2731,-313.4211 219.4689,-298.5505 168.5429,-287.5439"/>
<polygon fill="#191970" stroke="#191970" points="338.6518,-327.8901 349.1655,-326.5817 340.1306,-321.0481 338.6518,-327.8901"/>
</g>
<!-- Node21 -->
<g id="node21" class="node">
<title>Node21</title>
<g id="a_node21"><a xlink:href="Render_2Model_8cpp.html" target="_top" xlink:title="src/lug/Graphics/Render\l/Model.cpp">
<polygon fill="none" stroke="#000000" points="192.4366,-257.5 192.4366,-287.5 331.4366,-287.5 331.4366,-257.5 192.4366,-257.5"/>
<text text-anchor="start" x="200.4366" y="-275.5" font-family="Helvetica,sans-Serif" font-size="10.00" fill="#000000">src/lug/Graphics/Render</text>
<text text-anchor="middle" x="261.9366" y="-264.5" font-family="Helvetica,sans-Serif" font-size="10.00" fill="#000000">/Model.cpp</text>
</a>
</g>
</g>
<!-- Node8&#45;&gt;Node21 -->
<g id="edge25" class="edge">
<title>Node8&#45;&gt;Node21</title>
<path fill="none" stroke="#191970" d="M366.8403,-320.3132C344.0519,-309.9267 316.3034,-297.2794 295.0702,-287.6017"/>
<polygon fill="#191970" stroke="#191970" points="365.3959,-323.5013 375.947,-324.4639 368.2991,-317.1317 365.3959,-323.5013"/>
</g>
<!-- Node10 -->
<g id="node10" class="node">
<title>Node10</title>
<g id="a_node10"><a xlink:href="Scene_8hpp.html" target="_top" xlink:title="include/lug/Graphics\l/Scene/Scene.hpp">
<polygon fill="none" stroke="#000000" points="486.4366,-190.5 486.4366,-220.5 605.4366,-220.5 605.4366,-190.5 486.4366,-190.5"/>
<text text-anchor="start" x="494.4366" y="-208.5" font-family="Helvetica,sans-Serif" font-size="10.00" fill="#000000">include/lug/Graphics</text>
<text text-anchor="middle" x="545.9366" y="-197.5" font-family="Helvetica,sans-Serif" font-size="10.00" fill="#000000">/Scene/Scene.hpp</text>
</a>
</g>
</g>
<!-- Node9&#45;&gt;Node10 -->
<g id="edge10" class="edge">
<title>Node9&#45;&gt;Node10</title>
<path fill="none" stroke="#191970" d="M643.1694,-253.0518C622.1182,-242.7567 596.6452,-230.2991 577.0535,-220.7177"/>
<polygon fill="#191970" stroke="#191970" points="641.6702,-256.2147 652.1912,-257.4639 644.7455,-249.9264 641.6702,-256.2147"/>
</g>
<!-- Node14 -->
<g id="node14" class="node">
<title>Node14</title>
<g id="a_node14"><a xlink:href="Render_2Queue_8cpp.html" target="_top" xlink:title="src/lug/Graphics/Render\l/Queue.cpp">
<polygon fill="none" stroke="#000000" points="776.4366,-190.5 776.4366,-220.5 915.4366,-220.5 915.4366,-190.5 776.4366,-190.5"/>
<text text-anchor="start" x="784.4366" y="-208.5" font-family="Helvetica,sans-Serif" font-size="10.00" fill="#000000">src/lug/Graphics/Render</text>
<text text-anchor="middle" x="845.9366" y="-197.5" font-family="Helvetica,sans-Serif" font-size="10.00" fill="#000000">/Queue.cpp</text>
</a>
</g>
</g>
<!-- Node9&#45;&gt;Node14 -->
<g id="edge15" class="edge">
<title>Node9&#45;&gt;Node14</title>
<path fill="none" stroke="#191970" d="M728.9424,-253.5897C754.336,-243.1518 785.4431,-230.3654 809.1967,-220.6017"/>
<polygon fill="#191970" stroke="#191970" points="727.4355,-250.4248 719.517,-257.4639 730.0968,-256.8992 727.4355,-250.4248"/>
</g>
<!-- Node15 -->
<g id="node15" class="node">
<title>Node15</title>
<g id="a_node15"><a xlink:href="ModelInstance_8cpp.html" target="_top" xlink:title="src/lug/Graphics/Scene\l/ModelInstance.cpp">
<polygon fill="none" stroke="#000000" points="623.9366,-190.5 623.9366,-220.5 757.9366,-220.5 757.9366,-190.5 623.9366,-190.5"/>
<text text-anchor="start" x="631.9366" y="-208.5" font-family="Helvetica,sans-Serif" font-size="10.00" fill="#000000">src/lug/Graphics/Scene</text>
<text text-anchor="middle" x="690.9366" y="-197.5" font-family="Helvetica,sans-Serif" font-size="10.00" fill="#000000">/ModelInstance.cpp</text>
</a>
</g>
</g>
<!-- Node9&#45;&gt;Node15 -->
<g id="edge16" class="edge">
<title>Node9&#45;&gt;Node15</title>
<path fill="none" stroke="#191970" d="M685.9434,-247.3179C687.0153,-238.3414 688.1887,-228.5143 689.1285,-220.6432"/>
<polygon fill="#191970" stroke="#191970" points="682.4623,-246.9522 684.7519,-257.2967 689.413,-247.7822 682.4623,-246.9522"/>
</g>
<!-- Node16 -->
<g id="node16" class="node">
<title>Node16</title>
<g id="a_node16"><a xlink:href="Forward_8cpp.html" target="_top" xlink:title="src/lug/Graphics/Vulkan\l/Render/Technique/Forward.cpp">
<polygon fill="none" stroke="#000000" points="933.4366,-190.5 933.4366,-220.5 1110.4366,-220.5 1110.4366,-190.5 933.4366,-190.5"/>
<text text-anchor="start" x="941.4366" y="-208.5" font-family="Helvetica,sans-Serif" font-size="10.00" fill="#000000">src/lug/Graphics/Vulkan</text>
<text text-anchor="middle" x="1021.9366" y="-197.5" font-family="Helvetica,sans-Serif" font-size="10.00" fill="#000000">/Render/Technique/Forward.cpp</text>
</a>
</g>
</g>
<!-- Node9&#45;&gt;Node16 -->
<g id="edge17" class="edge">
<title>Node9&#45;&gt;Node16</title>
<path fill="none" stroke="#191970" d="M767.771,-255.7333C822.4599,-244.9246 892.9712,-230.9887 945.8473,-220.5383"/>
<polygon fill="#191970" stroke="#191970" points="766.8829,-252.3411 757.7513,-257.7136 768.2402,-259.2082 766.8829,-252.3411"/>
</g>
<!-- Node10&#45;&gt;Node3 -->
<g id="edge11" class="edge">
<title>Node10&#45;&gt;Node3</title>
<path fill="none" stroke="#191970" d="M485.1156,-187.5484C449.1846,-176.9432 404.2023,-163.6665 370.102,-153.6017"/>
<polygon fill="#191970" stroke="#191970" points="484.4116,-190.9898 494.9934,-190.4639 486.3932,-184.2762 484.4116,-190.9898"/>
</g>
<!-- Node11 -->
<g id="node11" class="node">
<title>Node11</title>
<g id="a_node11"><a xlink:href="Scene_2Node_8cpp.html" target="_top" xlink:title="src/lug/Graphics/Scene\l/Node.cpp">
<polygon fill="none" stroke="#000000" points="485.9366,-123.5 485.9366,-153.5 619.9366,-153.5 619.9366,-123.5 485.9366,-123.5"/>
<text text-anchor="start" x="493.9366" y="-141.5" font-family="Helvetica,sans-Serif" font-size="10.00" fill="#000000">src/lug/Graphics/Scene</text>
<text text-anchor="middle" x="552.9366" y="-130.5" font-family="Helvetica,sans-Serif" font-size="10.00" fill="#000000">/Node.cpp</text>
</a>
</g>
</g>
<!-- Node10&#45;&gt;Node11 -->
<g id="edge12" class="edge">
<title>Node10&#45;&gt;Node11</title>
<path fill="none" stroke="#191970" d="M548.5676,-180.3179C549.5054,-171.3414 550.5321,-161.5143 551.3545,-153.6432"/>
<polygon fill="#191970" stroke="#191970" points="545.0832,-179.9871 547.525,-190.2967 552.0453,-180.7145 545.0832,-179.9871"/>
</g>
<!-- Node12 -->
<g id="node12" class="node">
<title>Node12</title>
<g id="a_node12"><a xlink:href="Scene_8cpp.html" target="_top" xlink:title="src/lug/Graphics/Scene\l/Scene.cpp">
<polygon fill="none" stroke="#000000" points="637.9366,-123.5 637.9366,-153.5 771.9366,-153.5 771.9366,-123.5 637.9366,-123.5"/>
<text text-anchor="start" x="645.9366" y="-141.5" font-family="Helvetica,sans-Serif" font-size="10.00" fill="#000000">src/lug/Graphics/Scene</text>
<text text-anchor="middle" x="704.9366" y="-130.5" font-family="Helvetica,sans-Serif" font-size="10.00" fill="#000000">/Scene.cpp</text>
</a>
</g>
</g>
<!-- Node10&#45;&gt;Node12 -->
<g id="edge13" class="edge">
<title>Node10&#45;&gt;Node12</title>
<path fill="none" stroke="#191970" d="M591.1411,-186.4516C615.8511,-176.0392 646.0297,-163.3224 669.0983,-153.6017"/>
<polygon fill="#191970" stroke="#191970" points="589.4755,-183.3553 581.6193,-190.4639 592.1937,-189.806 589.4755,-183.3553"/>
</g>
<!-- Node13 -->
<g id="node13" class="node">
<title>Node13</title>
<g id="a_node13"><a xlink:href="Vulkan_2Render_2Camera_8cpp.html" target="_top" xlink:title="src/lug/Graphics/Vulkan\l/Render/Camera.cpp">
<polygon fill="none" stroke="#000000" points="790.4366,-123.5 790.4366,-153.5 927.4366,-153.5 927.4366,-123.5 790.4366,-123.5"/>
<text text-anchor="start" x="798.4366" y="-141.5" font-family="Helvetica,sans-Serif" font-size="10.00" fill="#000000">src/lug/Graphics/Vulkan</text>
<text text-anchor="middle" x="858.9366" y="-130.5" font-family="Helvetica,sans-Serif" font-size="10.00" fill="#000000">/Render/Camera.cpp</text>
</a>
</g>
</g>
<!-- Node10&#45;&gt;Node13 -->
<g id="edge14" class="edge">
<title>Node10&#45;&gt;Node13</title>
<path fill="none" stroke="#191970" d="M615.7593,-189.835C680.5812,-175.7479 743.7292,-162.4582 790.2598,-152.7475"/>
<polygon fill="#191970" stroke="#191970" points="614.792,-186.4636 605.7653,-192.0105 616.2809,-193.3034 614.792,-186.4636"/>
</g>
<!-- Node17&#45;&gt;Node6 -->
<g id="edge19" class="edge">
<title>Node17&#45;&gt;Node6</title>
<path fill="none" stroke="#191970" d="M457.7995,-246.956C458.3947,-216.5378 461.8327,-164.6178 476.9366,-123 482.7329,-107.0288 494.1745,-90.9044 501.9405,-81.0571"/>
<polygon fill="#191970" stroke="#191970" points="454.2979,-247.0946 457.6925,-257.1309 461.2975,-247.1683 454.2979,-247.0946"/>
</g>
<!-- Node18 -->
<g id="node18" class="node">
<title>Node18</title>
<g id="a_node18"><a xlink:href="ModelLoader_8cpp.html" target="_top" xlink:title="src/lug/Graphics/Scene\l/ModelLoader.cpp">
<polygon fill="none" stroke="#000000" points="295.9366,-190.5 295.9366,-220.5 429.9366,-220.5 429.9366,-190.5 295.9366,-190.5"/>
<text text-anchor="start" x="303.9366" y="-208.5" font-family="Helvetica,sans-Serif" font-size="10.00" fill="#000000">src/lug/Graphics/Scene</text>
<text text-anchor="middle" x="362.9366" y="-197.5" font-family="Helvetica,sans-Serif" font-size="10.00" fill="#000000">/ModelLoader.cpp</text>
</a>
</g>
</g>
<!-- Node17&#45;&gt;Node18 -->
<g id="edge20" class="edge">
<title>Node17&#45;&gt;Node18</title>
<path fill="none" stroke="#191970" d="M427.9434,-251.3469C413.8078,-241.3776 397.2672,-229.7121 384.4083,-220.6432"/>
<polygon fill="#191970" stroke="#191970" points="426.1904,-254.3934 436.3797,-257.2967 430.2248,-248.6729 426.1904,-254.3934"/>
</g>
<!-- Node19&#45;&gt;Node6 -->
<g id="edge22" class="edge">
<title>Node19&#45;&gt;Node6</title>
<path fill="none" stroke="#191970" d="M89.6646,-247.8431C84.742,-230.2975 81.7553,-206.9286 92.9366,-190 134.7489,-126.6961 177.4467,-145.38 249.9366,-123 287.4194,-111.4278 390.3039,-92.4259 454.8465,-81.0241"/>
<polygon fill="#191970" stroke="#191970" points="86.338,-248.9318 92.6943,-257.4081 93.0113,-246.818 86.338,-248.9318"/>
</g>
<!-- Node19&#45;&gt;Node16 -->
<g id="edge24" class="edge">
<title>Node19&#45;&gt;Node16</title>
<path fill="none" stroke="#191970" d="M184.2398,-256.96C512.24,-219.7261 599.3154,-254.4577 923.9366,-221 927.0209,-220.6821 930.1559,-220.3323 933.3193,-219.9566"/>
<polygon fill="#191970" stroke="#191970" points="183.5022,-253.5216 173.9673,-258.1405 184.3015,-260.4758 183.5022,-253.5216"/>
</g>
<!-- Node20 -->
<g id="node20" class="node">
<title>Node20</title>
<g id="a_node20"><a xlink:href="Vulkan_2Render_2Model_8cpp.html" target="_top" xlink:title="src/lug/Graphics/Vulkan\l/Render/Model.cpp">
<polygon fill="none" stroke="#000000" points="102.4366,-190.5 102.4366,-220.5 239.4366,-220.5 239.4366,-190.5 102.4366,-190.5"/>
<text text-anchor="start" x="110.4366" y="-208.5" font-family="Helvetica,sans-Serif" font-size="10.00" fill="#000000">src/lug/Graphics/Vulkan</text>
<text text-anchor="middle" x="170.9366" y="-197.5" font-family="Helvetica,sans-Serif" font-size="10.00" fill="#000000">/Render/Model.cpp</text>
</a>
</g>
</g>
<!-- Node19&#45;&gt;Node20 -->
<g id="edge23" class="edge">
<title>Node19&#45;&gt;Node20</title>
<path fill="none" stroke="#191970" d="M122.8887,-250.2113C133.3238,-240.5009 145.2854,-229.3698 154.6634,-220.6432"/>
<polygon fill="#191970" stroke="#191970" points="120.2109,-247.9221 115.2745,-257.2967 124.9796,-253.0466 120.2109,-247.9221"/>
</g>
<!-- Node22&#45;&gt;Node9 -->
<g id="edge27" class="edge">
<title>Node22&#45;&gt;Node9</title>
<path fill="none" stroke="#191970" d="M797.7776,-320.5897C772.8513,-310.1518 742.3167,-297.3654 719.0004,-287.6017"/>
<polygon fill="#191970" stroke="#191970" points="796.4537,-323.8297 807.0295,-324.4639 799.1575,-317.3729 796.4537,-323.8297"/>
</g>
<!-- Node22&#45;&gt;Node10 -->
<g id="edge28" class="edge">
<title>Node22&#45;&gt;Node10</title>
<path fill="none" stroke="#191970" d="M760.4675,-329.0208C700.285,-320.1039 624.8879,-305.9028 598.9366,-288 574.6943,-271.2762 559.0129,-239.4795 551.3929,-220.6193"/>
<polygon fill="#191970" stroke="#191970" points="759.9663,-332.4847 770.366,-330.4606 760.974,-325.5576 759.9663,-332.4847"/>
</g>
<!-- Node22&#45;&gt;Node14 -->
<g id="edge29" class="edge">
<title>Node22&#45;&gt;Node14</title>
<path fill="none" stroke="#191970" d="M888.1926,-319.0543C900.3866,-311.1896 912.0863,-300.917 918.9366,-288 925.3919,-275.828 925.2769,-269.2322 918.9366,-257 910.6572,-241.0266 894.8925,-228.955 880.1259,-220.5289"/>
<polygon fill="#191970" stroke="#191970" points="886.0881,-316.234 879.2883,-324.3589 889.6707,-322.2477 886.0881,-316.234"/>
</g>
<!-- Node22&#45;&gt;Node16 -->
<g id="edge31" class="edge">
<title>Node22&#45;&gt;Node16</title>
<path fill="none" stroke="#191970" d="M883.7678,-319.8276C900.5345,-311.0123 919.7662,-299.9188 935.9366,-288 963.9163,-267.3768 992.2098,-238.2918 1008.3553,-220.7327"/>
<polygon fill="#191970" stroke="#191970" points="882.0259,-316.7878 874.7417,-324.4814 885.2338,-323.0095 882.0259,-316.7878"/>
</g>
<!-- Node23 -->
<g id="node23" class="node">
<title>Node23</title>
<g id="a_node23"><a xlink:href="MeshInstance_8cpp.html" target="_top" xlink:title="src/lug/Graphics/Scene\l/MeshInstance.cpp">
<polygon fill="none" stroke="#000000" points="775.9366,-257.5 775.9366,-287.5 909.9366,-287.5 909.9366,-257.5 775.9366,-257.5"/>
<text text-anchor="start" x="783.9366" y="-275.5" font-family="Helvetica,sans-Serif" font-size="10.00" fill="#000000">src/lug/Graphics/Scene</text>
<text text-anchor="middle" x="842.9366" y="-264.5" font-family="Helvetica,sans-Serif" font-size="10.00" fill="#000000">/MeshInstance.cpp</text>
</a>
</g>
</g>
<!-- Node22&#45;&gt;Node23 -->
<g id="edge30" class="edge">
<title>Node22&#45;&gt;Node23</title>
<path fill="none" stroke="#191970" d="M842.9366,-314.0249C842.9366,-305.128 842.9366,-295.4287 842.9366,-287.6432"/>
<polygon fill="#191970" stroke="#191970" points="839.4367,-314.2966 842.9366,-324.2967 846.4367,-314.2967 839.4367,-314.2966"/>
</g>
<!-- Node24&#45;&gt;Node6 -->
<g id="edge38" class="edge">
<title>Node24&#45;&gt;Node6</title>
<path fill="none" stroke="#191970" d="M1202.4405,-320.3385C1263.2383,-293.5374 1354.7118,-242.249 1312.9366,-190 1268.3587,-134.2455 791.2858,-92.5131 594.288,-77.5347"/>
<polygon fill="#191970" stroke="#191970" points="1200.7653,-317.2494 1192.9713,-324.4261 1203.5396,-323.6762 1200.7653,-317.2494"/>
</g>
<!-- Node24&#45;&gt;Node16 -->
<g id="edge41" class="edge">
<title>Node24&#45;&gt;Node16</title>
<path fill="none" stroke="#191970" d="M1119.6934,-318.8185C1106.7944,-310.1665 1092.4686,-299.458 1080.9366,-288 1059.9514,-267.1493 1041.1001,-238.1353 1030.6195,-220.6521"/>
<polygon fill="#191970" stroke="#191970" points="1118.0563,-321.9295 1128.3435,-324.4638 1121.882,-316.0674 1118.0563,-321.9295"/>
</g>
<!-- Node25 -->
<g id="node25" class="node">
<title>Node25</title>
<g id="a_node25"><a xlink:href="Vulkan_2Renderer_8hpp.html" target="_top" xlink:title="include/lug/Graphics\l/Vulkan/Renderer.hpp">
<polygon fill="none" stroke="#000000" points="1090.4366,-257.5 1090.4366,-287.5 1217.4366,-287.5 1217.4366,-257.5 1090.4366,-257.5"/>
<text text-anchor="start" x="1098.4366" y="-275.5" font-family="Helvetica,sans-Serif" font-size="10.00" fill="#000000">include/lug/Graphics</text>
<text text-anchor="middle" x="1153.9366" y="-264.5" font-family="Helvetica,sans-Serif" font-size="10.00" fill="#000000">/Vulkan/Renderer.hpp</text>
</a>
</g>
</g>
<!-- Node24&#45;&gt;Node25 -->
<g id="edge33" class="edge">
<title>Node24&#45;&gt;Node25</title>
<path fill="none" stroke="#191970" d="M1153.9366,-314.0249C1153.9366,-305.128 1153.9366,-295.4287 1153.9366,-287.6432"/>
<polygon fill="#191970" stroke="#191970" points="1150.4367,-314.2966 1153.9366,-324.2967 1157.4367,-314.2967 1150.4367,-314.2966"/>
</g>
<!-- Node27 -->
<g id="node27" class="node">
<title>Node27</title>
<g id="a_node27"><a xlink:href="Pipeline_8cpp.html" target="_top" xlink:title="src/lug/Graphics/Vulkan\l/API/Pipeline.cpp">
<polygon fill="none" stroke="#000000" points="1398.4366,-257.5 1398.4366,-287.5 1535.4366,-287.5 1535.4366,-257.5 1398.4366,-257.5"/>
<text text-anchor="start" x="1406.4366" y="-275.5" font-family="Helvetica,sans-Serif" font-size="10.00" fill="#000000">src/lug/Graphics/Vulkan</text>
<text text-anchor="middle" x="1466.9366" y="-264.5" font-family="Helvetica,sans-Serif" font-size="10.00" fill="#000000">/API/Pipeline.cpp</text>
</a>
</g>
</g>
<!-- Node24&#45;&gt;Node27 -->
<g id="edge39" class="edge">
<title>Node24&#45;&gt;Node27</title>
<path fill="none" stroke="#191970" d="M1234.1372,-322.3325C1284.9149,-311.4631 1349.8806,-297.5567 1398.2739,-287.1978"/>
<polygon fill="#191970" stroke="#191970" points="1233.2258,-318.9482 1224.1799,-324.4639 1234.6911,-325.7931 1233.2258,-318.9482"/>
</g>
<!-- Node28 -->
<g id="node28" class="node">
<title>Node28</title>
<g id="a_node28"><a xlink:href="Vulkan_2Render_2Mesh_8cpp.html" target="_top" xlink:title="src/lug/Graphics/Vulkan\l/Render/Mesh.cpp">
<polygon fill="none" stroke="#000000" points="1553.4366,-257.5 1553.4366,-287.5 1690.4366,-287.5 1690.4366,-257.5 1553.4366,-257.5"/>
<text text-anchor="start" x="1561.4366" y="-275.5" font-family="Helvetica,sans-Serif" font-size="10.00" fill="#000000">src/lug/Graphics/Vulkan</text>
<text text-anchor="middle" x="1621.9366" y="-264.5" font-family="Helvetica,sans-Serif" font-size="10.00" fill="#000000">/Render/Mesh.cpp</text>
</a>
</g>
</g>
<!-- Node24&#45;&gt;Node28 -->
<g id="edge40" class="edge">
<title>Node24&#45;&gt;Node28</title>
<path fill="none" stroke="#191970" d="M1237.2561,-323.8664C1374.3491,-303.4367 1411.5822,-309.1532 1544.9366,-288 1547.6302,-287.5727 1550.3729,-287.1176 1553.1405,-286.6416"/>
<polygon fill="#191970" stroke="#191970" points="1236.5755,-320.4294 1227.2102,-325.3833 1237.6207,-327.351 1236.5755,-320.4294"/>
</g>
<!-- Node25&#45;&gt;Node6 -->
<g id="edge34" class="edge">
<title>Node25&#45;&gt;Node6</title>
<path fill="none" stroke="#191970" d="M1148.9171,-247.4087C1144.0839,-229.2591 1135.0531,-205.326 1118.9366,-190 1056.1722,-130.3137 1020.1563,-143.2208 935.9366,-123 819.3111,-94.9987 680.8858,-81.8484 594.2088,-75.9444"/>
<polygon fill="#191970" stroke="#191970" points="1145.5588,-248.4132 1151.2996,-257.3179 1152.3649,-246.7767 1145.5588,-248.4132"/>
</g>
<!-- Node25&#45;&gt;Node7 -->
<g id="edge37" class="edge">
<title>Node25&#45;&gt;Node7</title>
<path fill="none" stroke="#191970" d="M1227.5121,-261.5318C1280.5289,-250.2031 1338.5778,-228.5878 1312.9366,-190 1265.7644,-119.0099 1166.896,-90.4559 1099.6955,-79.0312"/>
<polygon fill="#191970" stroke="#191970" points="1226.7942,-258.1061 1217.6926,-263.5292 1228.1896,-264.9656 1226.7942,-258.1061"/>
</g>
<!-- Node25&#45;&gt;Node16 -->
<g id="edge35" class="edge">
<title>Node25&#45;&gt;Node16</title>
<path fill="none" stroke="#191970" d="M1115.3477,-252.9132C1095.1179,-242.645 1070.7099,-230.2561 1051.9178,-220.7177"/>
<polygon fill="#191970" stroke="#191970" points="1113.812,-256.0587 1124.3132,-257.4639 1116.9803,-249.8168 1113.812,-256.0587"/>
</g>
<!-- Node26 -->
<g id="node26" class="node">
<title>Node26</title>
<g id="a_node26"><a xlink:href="Graphics_2Vulkan_2Render_2Window_8cpp.html" target="_top" xlink:title="src/lug/Graphics/Vulkan\l/Render/Window.cpp">
<polygon fill="none" stroke="#000000" points="1166.4366,-190.5 1166.4366,-220.5 1303.4366,-220.5 1303.4366,-190.5 1166.4366,-190.5"/>
<text text-anchor="start" x="1174.4366" y="-208.5" font-family="Helvetica,sans-Serif" font-size="10.00" fill="#000000">src/lug/Graphics/Vulkan</text>
<text text-anchor="middle" x="1234.9366" y="-197.5" font-family="Helvetica,sans-Serif" font-size="10.00" fill="#000000">/Render/Window.cpp</text>
</a>
</g>
</g>
<!-- Node25&#45;&gt;Node26 -->
<g id="edge36" class="edge">
<title>Node25&#45;&gt;Node26</title>
<path fill="none" stroke="#191970" d="M1180.1941,-250.7808C1192.0933,-240.9383 1205.8722,-229.541 1216.6292,-220.6432"/>
<polygon fill="#191970" stroke="#191970" points="1177.7915,-248.2259 1172.3168,-257.2967 1182.2532,-253.6198 1177.7915,-248.2259"/>
</g>
</g>
</svg>
