<?xml version="1.0" encoding="UTF-8" standalone="no"?>
<!DOCTYPE svg PUBLIC "-//W3C//DTD SVG 1.1//EN"
 "http://www.w3.org/Graphics/SVG/1.1/DTD/svg11.dtd">
<!-- Generated by graphviz version 2.40.1 (20161225.0304)
 -->
<!-- Title: include/lug/Graphics/Render/View.hpp Pages: 1 -->
<!--zoomable 497 -->
<svg id="main" version="1.1" xmlns="http://www.w3.org/2000/svg" xmlns:xlink="http://www.w3.org/1999/xlink" xml:space="preserve" onload="init(evt)">
<style type="text/css"><![CDATA[
.edge:hover path { stroke: red; }
.edge:hover polygon { stroke: red; fill: red; }
]]></style>
<script type="text/javascript"><![CDATA[
var edges = document.getElementsByTagName('g');
if (edges && edges.length) {
  for (var i=0;i<edges.length;i++) {
    if (edges[i].id.substr(0,4)=='edge') {
      edges[i].setAttribute('class','edge');
    }
  }
}
]]></script>
        <defs>
                <circle id="rim" cx="0" cy="0" r="7"/>
                <circle id="rim2" cx="0" cy="0" r="3.5"/>
                <g id="zoomPlus">
                        <use xlink:href="#rim" fill="#404040">
                                <set attributeName="fill" to="#808080" begin="zoomplus.mouseover" end="zoomplus.mouseout"/>
                        </use>
                        <path d="M-4,0h8M0,-4v8" fill="none" stroke="white" stroke-width="1.5" pointer-events="none"/>
                </g>
                <g id="zoomMin">
                        <use xlink:href="#rim" fill="#404040">
                                <set attributeName="fill" to="#808080" begin="zoomminus.mouseover" end="zoomminus.mouseout"/>
                        </use>
                        <path d="M-4,0h8" fill="none" stroke="white" stroke-width="1.5" pointer-events="none"/>
                </g>
                <g id="dirArrow">
                        <path fill="none" stroke="white" stroke-width="1.5" d="M0,-3.0v7 M-2.5,-0.5L0,-3.0L2.5,-0.5"/>
                </g>
               <g id="resetDef">
                       <use xlink:href="#rim2" fill="#404040">
                               <set attributeName="fill" to="#808080" begin="reset.mouseover" end="reset.mouseout"/>
                       </use>
               </g>
        </defs>

<script type="text/javascript">
var viewWidth = 1706;
var viewHeight = 497;
var sectionId = 'dynsection-0';
</script>
<script xlink:href="svgpan.js"/>
<svg id="graph" class="graph">
<g id="viewport">
<title>include/lug/Graphics/Render/View.hpp</title>
<!-- Node0 -->
<g id="node1" class="node">
<title>Node0</title>
<polygon fill="#bfbfbf" stroke="#000000" points="1083.5,-458.5 1083.5,-488.5 1202.5,-488.5 1202.5,-458.5 1083.5,-458.5"/>
<text text-anchor="start" x="1091.5" y="-476.5" font-family="Helvetica,sans-Serif" font-size="10.00" fill="#000000">include/lug/Graphics</text>
<text text-anchor="middle" x="1143" y="-465.5" font-family="Helvetica,sans-Serif" font-size="10.00" fill="#000000">/Render/View.hpp</text>
</g>
<!-- Node1 -->
<g id="node2" class="node">
<title>Node1</title>
<polygon fill="none" stroke="#bfbfbf" points="661,-62 661,-81 711,-81 711,-62 661,-62"/>
<text text-anchor="middle" x="686" y="-69" font-family="Helvetica,sans-Serif" font-size="10.00" fill="#000000">cstdint</text>
</g>
<!-- Node0&#45;&gt;Node1 -->
<g id="edge1" class="edge">
<title>Node0&#45;&gt;Node1</title>
<path fill="none" stroke="#191970" d="M1083.3641,-469.2783C904.2012,-455.8054 383,-410.5092 383,-339.5 383,-339.5 383,-339.5 383,-272.5 383,-183.2715 440.945,-169.6622 517,-123 569.9289,-90.5264 593.5449,-107.9523 652,-87 653.6374,-86.4131 655.3047,-85.7791 656.9779,-85.1143"/>
<polygon fill="#191970" stroke="#191970" points="658.6219,-88.2186 666.4543,-81.0838 655.8821,-81.777 658.6219,-88.2186"/>
</g>
<!-- Node2 -->
<g id="node3" class="node">
<title>Node2</title>
<polygon fill="none" stroke="#bfbfbf" points="1113.5,-263 1113.5,-282 1172.5,-282 1172.5,-263 1113.5,-263"/>
<text text-anchor="middle" x="1143" y="-270" font-family="Helvetica,sans-Serif" font-size="10.00" fill="#000000">memory</text>
</g>
<!-- Node0&#45;&gt;Node2 -->
<g id="edge2" class="edge">
<title>Node0&#45;&gt;Node2</title>
<path fill="none" stroke="#191970" d="M1143,-458.3923C1143,-422.5844 1143,-332.5545 1143,-292.386"/>
<polygon fill="#191970" stroke="#191970" points="1146.5001,-292.2562 1143,-282.2562 1139.5001,-292.2562 1146.5001,-292.2562"/>
</g>
<!-- Node3 -->
<g id="node4" class="node">
<title>Node3</title>
<g id="a_node4"><a xlink:href="Graphics_2Export_8hpp.html" target="_top" xlink:title="lug/Graphics/Export.hpp">
<polygon fill="none" stroke="#000000" points="1051,-62 1051,-81 1189,-81 1189,-62 1051,-62"/>
<text text-anchor="middle" x="1120" y="-69" font-family="Helvetica,sans-Serif" font-size="10.00" fill="#000000">lug/Graphics/Export.hpp</text>
</a>
</g>
</g>
<!-- Node0&#45;&gt;Node3 -->
<g id="edge3" class="edge">
<title>Node0&#45;&gt;Node3</title>
<path fill="none" stroke="#191970" d="M1202.6172,-466.4832C1315.6653,-451.508 1550,-411.7522 1550,-339.5 1550,-339.5 1550,-339.5 1550,-205.5 1550,-46.313 1369.5308,-109.9031 1212,-87 1202.9362,-85.6822 1193.3878,-84.1904 1184.0111,-82.6656"/>
<polygon fill="#191970" stroke="#191970" points="1184.3709,-79.1778 1173.9348,-81.0048 1183.2325,-86.0846 1184.3709,-79.1778"/>
</g>
<!-- Node5 -->
<g id="node6" class="node">
<title>Node5</title>
<g id="a_node6"><a xlink:href="Render_2Camera_2Camera_8hpp.html" target="_top" xlink:title="lug/Graphics/Render\l/Camera/Camera.hpp">
<polygon fill="none" stroke="#000000" points="968.5,-391.5 968.5,-421.5 1093.5,-421.5 1093.5,-391.5 968.5,-391.5"/>
<text text-anchor="start" x="976.5" y="-409.5" font-family="Helvetica,sans-Serif" font-size="10.00" fill="#000000">lug/Graphics/Render</text>
<text text-anchor="middle" x="1031" y="-398.5" font-family="Helvetica,sans-Serif" font-size="10.00" fill="#000000">/Camera/Camera.hpp</text>
</a>
</g>
</g>
<!-- Node0&#45;&gt;Node5 -->
<g id="edge5" class="edge">
<title>Node0&#45;&gt;Node5</title>
<path fill="none" stroke="#191970" d="M1117.865,-458.4639C1102.4105,-449.2188 1082.395,-437.2452 1065.4729,-427.1222"/>
<polygon fill="#191970" stroke="#191970" points="1066.8171,-423.8479 1056.4386,-421.7177 1063.2235,-429.8551 1066.8171,-423.8479"/>
</g>
<!-- Node41 -->
<g id="node42" class="node">
<title>Node41</title>
<g id="a_node42"><a xlink:href="Render_2View_8inl.html" target="_top" xlink:title="lug/Graphics/Render\l/View.inl">
<polygon fill="none" stroke="#000000" points="1578.5,-391.5 1578.5,-421.5 1697.5,-421.5 1697.5,-391.5 1578.5,-391.5"/>
<text text-anchor="start" x="1586.5" y="-409.5" font-family="Helvetica,sans-Serif" font-size="10.00" fill="#000000">lug/Graphics/Render</text>
<text text-anchor="middle" x="1638" y="-398.5" font-family="Helvetica,sans-Serif" font-size="10.00" fill="#000000">/View.inl</text>
</a>
</g>
</g>
<!-- Node0&#45;&gt;Node41 -->
<g id="edge62" class="edge">
<title>Node0&#45;&gt;Node41</title>
<path fill="none" stroke="#191970" d="M1202.8374,-467.7928C1284.6721,-459.6206 1435.9616,-443.2016 1564,-422 1565.4568,-421.7588 1566.9285,-421.5088 1568.411,-421.2513"/>
<polygon fill="#191970" stroke="#191970" points="1569.0925,-424.6849 1578.3073,-419.4563 1567.8432,-417.7973 1569.0925,-424.6849"/>
</g>
<!-- Node4 -->
<g id="node5" class="node">
<title>Node4</title>
<g id="a_node5"><a xlink:href="Config_8hpp.html" target="_top" xlink:title="lug/Config.hpp">
<polygon fill="none" stroke="#000000" points="676.5,-.5 676.5,-19.5 765.5,-19.5 765.5,-.5 676.5,-.5"/>
<text text-anchor="middle" x="721" y="-7.5" font-family="Helvetica,sans-Serif" font-size="10.00" fill="#000000">lug/Config.hpp</text>
</a>
</g>
</g>
<!-- Node3&#45;&gt;Node4 -->
<g id="edge4" class="edge">
<title>Node3&#45;&gt;Node4</title>
<path fill="none" stroke="#191970" d="M1064.5661,-61.9931C1052.5181,-59.9737 1039.8371,-57.8838 1028,-56 939.8262,-41.9677 837.207,-26.833 775.7641,-17.8991"/>
<polygon fill="#191970" stroke="#191970" points="775.9238,-14.3857 765.5246,-16.4123 774.9178,-21.3131 775.9238,-14.3857"/>
</g>
<!-- Node5&#45;&gt;Node3 -->
<g id="edge6" class="edge">
<title>Node5&#45;&gt;Node3</title>
<path fill="none" stroke="#191970" d="M1041.6687,-391.2228C1057.4059,-367.1514 1085,-318.3998 1085,-272.5 1085,-272.5 1085,-272.5 1085,-205.5 1085,-163.2345 1101.5019,-115.8333 1111.8437,-90.2765"/>
<polygon fill="#191970" stroke="#191970" points="1115.0823,-91.604 1115.7083,-81.0277 1108.6234,-88.9052 1115.0823,-91.604"/>
</g>
<!-- Node6 -->
<g id="node7" class="node">
<title>Node6</title>
<g id="a_node7"><a xlink:href="Node_8hpp.html" target="_top" xlink:title="lug/Graphics/Node.hpp">
<polygon fill="none" stroke="#000000" points="849.5,-330 849.5,-349 980.5,-349 980.5,-330 849.5,-330"/>
<text text-anchor="middle" x="915" y="-337" font-family="Helvetica,sans-Serif" font-size="10.00" fill="#000000">lug/Graphics/Node.hpp</text>
</a>
</g>
</g>
<!-- Node5&#45;&gt;Node6 -->
<g id="edge7" class="edge">
<title>Node5&#45;&gt;Node6</title>
<path fill="none" stroke="#191970" d="M1004.9673,-391.4639C985.6794,-380.3234 959.5322,-365.2212 940.3972,-354.1691"/>
<polygon fill="#191970" stroke="#191970" points="942.0376,-351.0747 931.6277,-349.1039 938.5365,-357.1363 942.0376,-351.0747"/>
</g>
<!-- Node8 -->
<g id="node9" class="node">
<title>Node8</title>
<g id="a_node9"><a xlink:href="Matrix_8hpp.html" target="_top" xlink:title="lug/Math/Matrix.hpp">
<polygon fill="none" stroke="#000000" points="286,-129 286,-148 404,-148 404,-129 286,-129"/>
<text text-anchor="middle" x="345" y="-136" font-family="Helvetica,sans-Serif" font-size="10.00" fill="#000000">lug/Math/Matrix.hpp</text>
</a>
</g>
</g>
<!-- Node5&#45;&gt;Node8 -->
<g id="edge60" class="edge">
<title>Node5&#45;&gt;Node8</title>
<path fill="none" stroke="#191970" d="M968.4945,-398.9747C902.3678,-390.474 795.1887,-375.1558 704,-355 598.3705,-331.6523 565.7046,-338.4315 470,-288 428.6678,-266.22 418.5522,-257.1854 389,-221 373.0992,-201.5302 360.335,-175.4267 352.7312,-157.8397"/>
<polygon fill="#191970" stroke="#191970" points="355.7599,-156.0088 348.6816,-148.1254 349.2988,-158.7022 355.7599,-156.0088"/>
</g>
<!-- Node29 -->
<g id="node30" class="node">
<title>Node29</title>
<g id="a_node30"><a xlink:href="DirtyObject_8hpp.html" target="_top" xlink:title="lug/Graphics/Render\l/DirtyObject.hpp">
<polygon fill="none" stroke="#000000" points="899.5,-123.5 899.5,-153.5 1018.5,-153.5 1018.5,-123.5 899.5,-123.5"/>
<text text-anchor="start" x="907.5" y="-141.5" font-family="Helvetica,sans-Serif" font-size="10.00" fill="#000000">lug/Graphics/Render</text>
<text text-anchor="middle" x="959" y="-130.5" font-family="Helvetica,sans-Serif" font-size="10.00" fill="#000000">/DirtyObject.hpp</text>
</a>
</g>
</g>
<!-- Node5&#45;&gt;Node29 -->
<g id="edge40" class="edge">
<title>Node5&#45;&gt;Node29</title>
<path fill="none" stroke="#191970" d="M1026.9227,-391.3233C1015.0419,-347.1005 980.3686,-218.0386 965.6892,-163.3988"/>
<polygon fill="#191970" stroke="#191970" points="969.0074,-162.2597 963.0326,-153.5103 962.2471,-164.0759 969.0074,-162.2597"/>
</g>
<!-- Node31 -->
<g id="node32" class="node">
<title>Node31</title>
<g id="a_node32"><a xlink:href="Render_2Queue_8hpp.html" target="_top" xlink:title="lug/Graphics/Render\l/Queue.hpp">
<polygon fill="none" stroke="#000000" points="1239.5,-324.5 1239.5,-354.5 1358.5,-354.5 1358.5,-324.5 1239.5,-324.5"/>
<text text-anchor="start" x="1247.5" y="-342.5" font-family="Helvetica,sans-Serif" font-size="10.00" fill="#000000">lug/Graphics/Render</text>
<text text-anchor="middle" x="1299" y="-331.5" font-family="Helvetica,sans-Serif" font-size="10.00" fill="#000000">/Queue.hpp</text>
</a>
</g>
</g>
<!-- Node5&#45;&gt;Node31 -->
<g id="edge44" class="edge">
<title>Node5&#45;&gt;Node31</title>
<path fill="none" stroke="#191970" d="M1091.1444,-391.4639C1132.0923,-381.2269 1186.421,-367.6447 1229.2651,-356.9337"/>
<polygon fill="#191970" stroke="#191970" points="1230.2038,-360.3069 1239.0563,-354.4859 1228.506,-353.5159 1230.2038,-360.3069"/>
</g>
<!-- Node33 -->
<g id="node34" class="node">
<title>Node33</title>
<g id="a_node34"><a xlink:href="Resource_8hpp.html" target="_top" xlink:title="lug/Graphics/Resource.hpp">
<polygon fill="none" stroke="#000000" points="1345,-129 1345,-148 1497,-148 1497,-129 1345,-129"/>
<text text-anchor="middle" x="1421" y="-136" font-family="Helvetica,sans-Serif" font-size="10.00" fill="#000000">lug/Graphics/Resource.hpp</text>
</a>
</g>
</g>
<!-- Node5&#45;&gt;Node33 -->
<g id="edge59" class="edge">
<title>Node5&#45;&gt;Node33</title>
<path fill="none" stroke="#191970" d="M1093.8445,-403.0362C1178.5619,-397.3414 1323.8837,-383.6477 1368,-355 1426.7539,-316.8472 1432.3743,-288.5332 1451,-221 1454.6632,-207.7181 1454.5917,-203.3014 1451,-190 1447.7294,-177.8876 1440.827,-165.696 1434.4669,-156.2173"/>
<polygon fill="#191970" stroke="#191970" points="1437.3136,-154.1809 1428.6714,-148.052 1431.6052,-158.2325 1437.3136,-154.1809"/>
</g>
<!-- Node40 -->
<g id="node41" class="node">
<title>Node40</title>
<g id="a_node41"><a xlink:href="Render_2Camera_2Camera_8inl.html" target="_top" xlink:title="lug/Graphics/Render\l/Camera/Camera.inl">
<polygon fill="none" stroke="#000000" points="712.5,-324.5 712.5,-354.5 831.5,-354.5 831.5,-324.5 712.5,-324.5"/>
<text text-anchor="start" x="720.5" y="-342.5" font-family="Helvetica,sans-Serif" font-size="10.00" fill="#000000">lug/Graphics/Render</text>
<text text-anchor="middle" x="772" y="-331.5" font-family="Helvetica,sans-Serif" font-size="10.00" fill="#000000">/Camera/Camera.inl</text>
</a>
</g>
</g>
<!-- Node5&#45;&gt;Node40 -->
<g id="edge61" class="edge">
<title>Node5&#45;&gt;Node40</title>
<path fill="none" stroke="#191970" d="M972.8753,-391.4639C933.524,-381.2842 881.3854,-367.7966 840.089,-357.1138"/>
<polygon fill="#191970" stroke="#191970" points="840.9361,-353.7177 830.3782,-354.6017 839.1829,-360.4947 840.9361,-353.7177"/>
</g>
<!-- Node6&#45;&gt;Node2 -->
<g id="edge8" class="edge">
<title>Node6&#45;&gt;Node2</title>
<path fill="none" stroke="#191970" d="M947.6668,-329.9005C988.7913,-317.8157 1059.3804,-297.0724 1103.4948,-284.109"/>
<polygon fill="#191970" stroke="#191970" points="1104.6878,-287.4065 1113.2953,-281.229 1102.7142,-280.6904 1104.6878,-287.4065"/>
</g>
<!-- Node6&#45;&gt;Node3 -->
<g id="edge10" class="edge">
<title>Node6&#45;&gt;Node3</title>
<path fill="none" stroke="#191970" d="M921.9029,-329.8826C951.5637,-288.5624 1066.8777,-127.9698 1071,-123 1081.0717,-110.8578 1093.3024,-98.001 1103.0247,-88.1707"/>
<polygon fill="#191970" stroke="#191970" points="1105.5942,-90.5511 1110.195,-81.0073 1100.6468,-85.599 1105.5942,-90.5511"/>
</g>
<!-- Node7 -->
<g id="node8" class="node">
<title>Node7</title>
<polygon fill="none" stroke="#bfbfbf" points="734,-263 734,-282 782,-282 782,-263 734,-263"/>
<text text-anchor="middle" x="758" y="-270" font-family="Helvetica,sans-Serif" font-size="10.00" fill="#000000">vector</text>
</g>
<!-- Node6&#45;&gt;Node7 -->
<g id="edge9" class="edge">
<title>Node6&#45;&gt;Node7</title>
<path fill="none" stroke="#191970" d="M891.3269,-329.8448C866.4912,-319.6554 826.3635,-303.0225 792,-288 790.7963,-287.4738 789.5703,-286.9339 788.3331,-286.3856"/>
<polygon fill="#191970" stroke="#191970" points="789.3681,-283.0138 778.8117,-282.1119 786.5016,-289.4 789.3681,-283.0138"/>
</g>
<!-- Node6&#45;&gt;Node8 -->
<g id="edge11" class="edge">
<title>Node6&#45;&gt;Node8</title>
<path fill="none" stroke="#191970" d="M872.8598,-329.9852C862.4779,-327.8315 851.3646,-325.6857 841,-324 704.5309,-301.8047 661.3881,-336.7356 532,-288 457.0165,-259.7566 388.9247,-189.2763 359.8641,-156.1849"/>
<polygon fill="#191970" stroke="#191970" points="362.2141,-153.5508 353.0314,-148.2661 356.9143,-158.1238 362.2141,-153.5508"/>
</g>
<!-- Node21 -->
<g id="node22" class="node">
<title>Node21</title>
<g id="a_node22"><a xlink:href="Quaternion_8hpp.html" target="_top" xlink:title="lug/Math/Quaternion.hpp">
<polygon fill="none" stroke="#000000" points="540.5,-263 540.5,-282 681.5,-282 681.5,-263 540.5,-263"/>
<text text-anchor="middle" x="611" y="-270" font-family="Helvetica,sans-Serif" font-size="10.00" fill="#000000">lug/Math/Quaternion.hpp</text>
</a>
</g>
</g>
<!-- Node6&#45;&gt;Node21 -->
<g id="edge27" class="edge">
<title>Node6&#45;&gt;Node21</title>
<path fill="none" stroke="#191970" d="M871.7671,-329.9717C817.2214,-317.9501 723.4335,-297.2797 664.4492,-284.2799"/>
<polygon fill="#191970" stroke="#191970" points="665.095,-280.8383 654.576,-282.1039 663.5883,-287.6743 665.095,-280.8383"/>
</g>
<!-- Node22 -->
<g id="node23" class="node">
<title>Node22</title>
<g id="a_node23"><a xlink:href="Vector_8hpp.html" target="_top" xlink:title="lug/Math/Vector.hpp">
<polygon fill="none" stroke="#000000" points="678.5,-196 678.5,-215 797.5,-215 797.5,-196 678.5,-196"/>
<text text-anchor="middle" x="738" y="-203" font-family="Helvetica,sans-Serif" font-size="10.00" fill="#000000">lug/Math/Vector.hpp</text>
</a>
</g>
</g>
<!-- Node6&#45;&gt;Node22 -->
<g id="edge38" class="edge">
<title>Node6&#45;&gt;Node22</title>
<path fill="none" stroke="#191970" d="M922.0681,-329.7715C933.21,-313.1431 951.9339,-278.9299 935,-257 930.4523,-251.1106 846.6525,-230.6868 789.8278,-217.3973"/>
<polygon fill="#191970" stroke="#191970" points="790.4405,-213.9464 779.907,-215.0854 788.8517,-220.7637 790.4405,-213.9464"/>
</g>
<!-- Node28 -->
<g id="node29" class="node">
<title>Node28</title>
<g id="a_node29"><a xlink:href="Node_8inl.html" target="_top" xlink:title="lug/Graphics/Node.inl">
<polygon fill="none" stroke="#000000" points="800.5,-263 800.5,-282 925.5,-282 925.5,-263 800.5,-263"/>
<text text-anchor="middle" x="863" y="-270" font-family="Helvetica,sans-Serif" font-size="10.00" fill="#000000">lug/Graphics/Node.inl</text>
</a>
</g>
</g>
<!-- Node6&#45;&gt;Node28 -->
<g id="edge39" class="edge">
<title>Node6&#45;&gt;Node28</title>
<path fill="none" stroke="#191970" d="M907.5497,-329.9005C899.5179,-319.552 886.5585,-302.8542 876.6826,-290.1295"/>
<polygon fill="#191970" stroke="#191970" points="879.3328,-287.8356 870.4365,-282.0817 873.8028,-292.1275 879.3328,-287.8356"/>
</g>
<!-- Node8&#45;&gt;Node1 -->
<g id="edge12" class="edge">
<title>Node8&#45;&gt;Node1</title>
<path fill="none" stroke="#191970" d="M387.7666,-128.9964C397.6723,-126.9128 408.1866,-124.7952 418,-123 521.5059,-104.065 551.1759,-117.1083 652,-87 653.9114,-86.4292 655.8542,-85.7719 657.7932,-85.0571"/>
<polygon fill="#191970" stroke="#191970" points="659.3846,-88.1868 667.2947,-81.1384 656.7156,-81.7156 659.3846,-88.1868"/>
</g>
<!-- Node9 -->
<g id="node10" class="node">
<title>Node9</title>
<polygon fill="none" stroke="#bfbfbf" points="297.5,-62 297.5,-81 356.5,-81 356.5,-62 297.5,-62"/>
<text text-anchor="middle" x="327" y="-69" font-family="Helvetica,sans-Serif" font-size="10.00" fill="#000000">valarray</text>
</g>
<!-- Node8&#45;&gt;Node9 -->
<g id="edge13" class="edge">
<title>Node8&#45;&gt;Node9</title>
<path fill="none" stroke="#191970" d="M342.421,-128.9005C339.7745,-119.0495 335.5823,-103.4451 332.2364,-90.9912"/>
<polygon fill="#191970" stroke="#191970" points="335.549,-89.8311 329.5742,-81.0817 328.7887,-91.6473 335.549,-89.8311"/>
</g>
<!-- Node10 -->
<g id="node11" class="node">
<title>Node10</title>
<g id="a_node11"><a xlink:href="Math_2Export_8hpp.html" target="_top" xlink:title="lug/Math/Export.hpp">
<polygon fill="none" stroke="#000000" points="523.5,-62 523.5,-81 642.5,-81 642.5,-62 523.5,-62"/>
<text text-anchor="middle" x="583" y="-69" font-family="Helvetica,sans-Serif" font-size="10.00" fill="#000000">lug/Math/Export.hpp</text>
</a>
</g>
</g>
<!-- Node8&#45;&gt;Node10 -->
<g id="edge14" class="edge">
<title>Node8&#45;&gt;Node10</title>
<path fill="none" stroke="#191970" d="M378.8468,-128.9717C420.9327,-117.124 492.859,-96.8758 539.1344,-83.8487"/>
<polygon fill="#191970" stroke="#191970" points="540.2072,-87.1828 548.8846,-81.1039 538.3103,-80.4447 540.2072,-87.1828"/>
</g>
<!-- Node11 -->
<g id="node12" class="node">
<title>Node11</title>
<g id="a_node12"><a xlink:href="ValArray_8hpp.html" target="_top" xlink:title="lug/Math/ValArray.hpp">
<polygon fill="none" stroke="#000000" points="375,-62 375,-81 505,-81 505,-62 375,-62"/>
<text text-anchor="middle" x="440" y="-69" font-family="Helvetica,sans-Serif" font-size="10.00" fill="#000000">lug/Math/ValArray.hpp</text>
</a>
</g>
</g>
<!-- Node8&#45;&gt;Node11 -->
<g id="edge16" class="edge">
<title>Node8&#45;&gt;Node11</title>
<path fill="none" stroke="#191970" d="M358.6112,-128.9005C374.1311,-117.9549 399.7223,-99.9064 418.0667,-86.9688"/>
<polygon fill="#191970" stroke="#191970" points="420.2592,-89.7054 426.4141,-81.0817 416.2248,-83.9849 420.2592,-89.7054"/>
</g>
<!-- Node17 -->
<g id="node18" class="node">
<title>Node17</title>
<g id="a_node18"><a xlink:href="Debug_8hpp.html" target="_top" xlink:title="lug/System/Debug.hpp">
<polygon fill="none" stroke="#000000" points="17.5,-62 17.5,-81 148.5,-81 148.5,-62 17.5,-62"/>
<text text-anchor="middle" x="83" y="-69" font-family="Helvetica,sans-Serif" font-size="10.00" fill="#000000">lug/System/Debug.hpp</text>
</a>
</g>
</g>
<!-- Node8&#45;&gt;Node17 -->
<g id="edge22" class="edge">
<title>Node8&#45;&gt;Node17</title>
<path fill="none" stroke="#191970" d="M307.74,-128.9717C261.1188,-117.0495 181.2336,-96.6208 130.3312,-83.6038"/>
<polygon fill="#191970" stroke="#191970" points="131.111,-80.1906 120.5556,-81.1039 129.3767,-86.9724 131.111,-80.1906"/>
</g>
<!-- Node20 -->
<g id="node21" class="node">
<title>Node20</title>
<g id="a_node21"><a xlink:href="Matrix_8inl.html" target="_top" xlink:title="lug/Math/Matrix.inl">
<polygon fill="none" stroke="#000000" points="167,-62 167,-81 279,-81 279,-62 167,-62"/>
<text text-anchor="middle" x="223" y="-69" font-family="Helvetica,sans-Serif" font-size="10.00" fill="#000000">lug/Math/Matrix.inl</text>
</a>
</g>
</g>
<!-- Node8&#45;&gt;Node20 -->
<g id="edge26" class="edge">
<title>Node8&#45;&gt;Node20</title>
<path fill="none" stroke="#191970" d="M327.5204,-128.9005C307.046,-117.6564 272.9228,-98.9166 249.2607,-85.9219"/>
<polygon fill="#191970" stroke="#191970" points="250.8972,-82.8276 240.4472,-81.0817 247.5276,-88.9632 250.8972,-82.8276"/>
</g>
<!-- Node10&#45;&gt;Node4 -->
<g id="edge15" class="edge">
<title>Node10&#45;&gt;Node4</title>
<path fill="none" stroke="#191970" d="M604.5625,-61.8906C627.5512,-51.6457 664.156,-35.3326 690.1824,-23.7339"/>
<polygon fill="#191970" stroke="#191970" points="691.8796,-26.8095 699.5889,-19.5419 689.0302,-20.4156 691.8796,-26.8095"/>
</g>
<!-- Node12 -->
<g id="node13" class="node">
<title>Node12</title>
<polygon fill="none" stroke="#bfbfbf" points="244.5,-.5 244.5,-19.5 309.5,-19.5 309.5,-.5 244.5,-.5"/>
<text text-anchor="middle" x="277" y="-7.5" font-family="Helvetica,sans-Serif" font-size="10.00" fill="#000000">algorithm</text>
</g>
<!-- Node11&#45;&gt;Node12 -->
<g id="edge17" class="edge">
<title>Node11&#45;&gt;Node12</title>
<path fill="none" stroke="#191970" d="M414.5313,-61.8906C386.8995,-51.4652 342.6131,-34.7559 311.7872,-23.1252"/>
<polygon fill="#191970" stroke="#191970" points="312.8817,-19.7974 302.2899,-19.5419 310.4106,-26.3467 312.8817,-19.7974"/>
</g>
<!-- Node13 -->
<g id="node14" class="node">
<title>Node13</title>
<polygon fill="none" stroke="#bfbfbf" points="328,-.5 328,-19.5 372,-19.5 372,-.5 328,-.5"/>
<text text-anchor="middle" x="350" y="-7.5" font-family="Helvetica,sans-Serif" font-size="10.00" fill="#000000">array</text>
</g>
<!-- Node11&#45;&gt;Node13 -->
<g id="edge18" class="edge">
<title>Node11&#45;&gt;Node13</title>
<path fill="none" stroke="#191970" d="M425.9375,-61.8906C411.6714,-52.1421 389.365,-36.8994 372.6128,-25.4521"/>
<polygon fill="#191970" stroke="#191970" points="374.1949,-22.2941 363.9638,-19.5419 370.2455,-28.0736 374.1949,-22.2941"/>
</g>
<!-- Node14 -->
<g id="node15" class="node">
<title>Node14</title>
<polygon fill="none" stroke="#bfbfbf" points="390,-.5 390,-19.5 440,-19.5 440,-.5 390,-.5"/>
<text text-anchor="middle" x="415" y="-7.5" font-family="Helvetica,sans-Serif" font-size="10.00" fill="#000000">cstring</text>
</g>
<!-- Node11&#45;&gt;Node14 -->
<g id="edge19" class="edge">
<title>Node11&#45;&gt;Node14</title>
<path fill="none" stroke="#191970" d="M436.0938,-61.8906C432.5554,-53.1862 427.2364,-40.1015 422.825,-29.2494"/>
<polygon fill="#191970" stroke="#191970" points="425.9695,-27.6907 418.9613,-19.7449 419.4848,-30.3268 425.9695,-27.6907"/>
</g>
<!-- Node15 -->
<g id="node16" class="node">
<title>Node15</title>
<polygon fill="none" stroke="#bfbfbf" points="458.5,-.5 458.5,-19.5 515.5,-19.5 515.5,-.5 458.5,-.5"/>
<text text-anchor="middle" x="487" y="-7.5" font-family="Helvetica,sans-Serif" font-size="10.00" fill="#000000">numeric</text>
</g>
<!-- Node11&#45;&gt;Node15 -->
<g id="edge20" class="edge">
<title>Node11&#45;&gt;Node15</title>
<path fill="none" stroke="#191970" d="M447.3438,-61.8906C454.2702,-52.8273 464.826,-39.0149 473.306,-27.9188"/>
<polygon fill="#191970" stroke="#191970" points="476.2615,-29.8155 479.5527,-19.7449 470.6997,-25.565 476.2615,-29.8155"/>
</g>
<!-- Node16 -->
<g id="node17" class="node">
<title>Node16</title>
<g id="a_node17"><a xlink:href="ValArray_8inl.html" target="_top" xlink:title="lug/Math/ValArray.inl">
<polygon fill="none" stroke="#000000" points="534,-.5 534,-19.5 658,-19.5 658,-.5 534,-.5"/>
<text text-anchor="middle" x="596" y="-7.5" font-family="Helvetica,sans-Serif" font-size="10.00" fill="#000000">lug/Math/ValArray.inl</text>
</a>
</g>
</g>
<!-- Node11&#45;&gt;Node16 -->
<g id="edge21" class="edge">
<title>Node11&#45;&gt;Node16</title>
<path fill="none" stroke="#191970" d="M464.375,-61.8906C490.7056,-51.5103 532.838,-34.9004 562.3229,-23.2766"/>
<polygon fill="#191970" stroke="#191970" points="563.7767,-26.4657 571.7962,-19.5419 561.2093,-19.9534 563.7767,-26.4657"/>
</g>
<!-- Node17&#45;&gt;Node4 -->
<g id="edge23" class="edge">
<title>Node17&#45;&gt;Node4</title>
<path fill="none" stroke="#191970" d="M124.0914,-61.98C135.0582,-59.7215 146.9363,-57.5276 158,-56 379.3652,-25.4359 440.26,-48.0102 666.0897,-19.9682"/>
<polygon fill="#191970" stroke="#191970" points="666.7885,-23.4079 676.2718,-18.6837 665.9123,-16.4629 666.7885,-23.4079"/>
</g>
<!-- Node18 -->
<g id="node19" class="node">
<title>Node18</title>
<g id="a_node19"><a xlink:href="Utils_8hpp.html" target="_top" xlink:title="lug/System/Utils.hpp">
<polygon fill="none" stroke="#000000" points="0,-.5 0,-19.5 122,-19.5 122,-.5 0,-.5"/>
<text text-anchor="middle" x="61" y="-7.5" font-family="Helvetica,sans-Serif" font-size="10.00" fill="#000000">lug/System/Utils.hpp</text>
</a>
</g>
</g>
<!-- Node17&#45;&gt;Node18 -->
<g id="edge24" class="edge">
<title>Node17&#45;&gt;Node18</title>
<path fill="none" stroke="#191970" d="M79.5625,-61.8906C76.4487,-53.1862 71.768,-40.1015 67.886,-29.2494"/>
<polygon fill="#191970" stroke="#191970" points="71.1497,-27.9817 64.486,-19.7449 64.5588,-30.3394 71.1497,-27.9817"/>
</g>
<!-- Node19 -->
<g id="node20" class="node">
<title>Node19</title>
<polygon fill="none" stroke="#bfbfbf" points="140.5,-.5 140.5,-19.5 201.5,-19.5 201.5,-.5 140.5,-.5"/>
<text text-anchor="middle" x="171" y="-7.5" font-family="Helvetica,sans-Serif" font-size="10.00" fill="#000000">iostream</text>
</g>
<!-- Node17&#45;&gt;Node19 -->
<g id="edge25" class="edge">
<title>Node17&#45;&gt;Node19</title>
<path fill="none" stroke="#191970" d="M96.75,-61.8906C110.6991,-52.1421 132.5098,-36.8994 148.8897,-25.4521"/>
<polygon fill="#191970" stroke="#191970" points="151.1548,-28.1392 157.3466,-19.5419 147.1449,-22.4015 151.1548,-28.1392"/>
</g>
<!-- Node21&#45;&gt;Node8 -->
<g id="edge29" class="edge">
<title>Node21&#45;&gt;Node8</title>
<path fill="none" stroke="#191970" d="M582.8534,-262.9328C556.4527,-253.5525 516.1794,-238.1886 483,-221 460.4506,-209.3183 456.6955,-203.2001 435,-190 413.7837,-177.0914 389.2983,-163.1401 371.2281,-153.0183"/>
<polygon fill="#191970" stroke="#191970" points="372.8525,-149.9168 362.4146,-148.1002 369.4415,-156.0294 372.8525,-149.9168"/>
</g>
<!-- Node21&#45;&gt;Node10 -->
<g id="edge28" class="edge">
<title>Node21&#45;&gt;Node10</title>
<path fill="none" stroke="#191970" d="M575.0138,-262.8314C554.1193,-255.1651 529.5188,-242.1332 517,-221 494.8013,-183.5259 497.8946,-162.1416 517,-123 524.6876,-107.2502 539.7768,-94.9113 553.589,-86.2644"/>
<polygon fill="#191970" stroke="#191970" points="555.5256,-89.1865 562.3906,-81.1166 551.9916,-83.1441 555.5256,-89.1865"/>
</g>
<!-- Node21&#45;&gt;Node22 -->
<g id="edge30" class="edge">
<title>Node21&#45;&gt;Node22</title>
<path fill="none" stroke="#191970" d="M629.196,-262.9005C650.6038,-251.6067 686.3458,-232.7506 710.9893,-219.7497"/>
<polygon fill="#191970" stroke="#191970" points="712.6262,-222.8434 719.8378,-215.0817 709.3599,-216.6522 712.6262,-222.8434"/>
</g>
<!-- Node24 -->
<g id="node25" class="node">
<title>Node24</title>
<g id="a_node25"><a xlink:href="Constant_8hpp.html" target="_top" xlink:title="lug/Math/Constant.hpp">
<polygon fill="none" stroke="#000000" points="816,-196 816,-215 946,-215 946,-196 816,-196"/>
<text text-anchor="middle" x="881" y="-203" font-family="Helvetica,sans-Serif" font-size="10.00" fill="#000000">lug/Math/Constant.hpp</text>
</a>
</g>
</g>
<!-- Node21&#45;&gt;Node24 -->
<g id="edge34" class="edge">
<title>Node21&#45;&gt;Node24</title>
<path fill="none" stroke="#191970" d="M649.3977,-262.9717C697.5426,-251.0246 780.11,-230.5357 832.551,-217.5225"/>
<polygon fill="#191970" stroke="#191970" points="833.435,-220.9094 842.2976,-215.1039 831.749,-214.1155 833.435,-220.9094"/>
</g>
<!-- Node27 -->
<g id="node28" class="node">
<title>Node27</title>
<g id="a_node28"><a xlink:href="Quaternion_8inl.html" target="_top" xlink:title="lug/Math/Quaternion.inl">
<polygon fill="none" stroke="#000000" points="525.5,-196 525.5,-215 660.5,-215 660.5,-196 525.5,-196"/>
<text text-anchor="middle" x="593" y="-203" font-family="Helvetica,sans-Serif" font-size="10.00" fill="#000000">lug/Math/Quaternion.inl</text>
</a>
</g>
</g>
<!-- Node21&#45;&gt;Node27 -->
<g id="edge37" class="edge">
<title>Node21&#45;&gt;Node27</title>
<path fill="none" stroke="#191970" d="M608.421,-262.9005C605.7745,-253.0495 601.5823,-237.4451 598.2364,-224.9912"/>
<polygon fill="#191970" stroke="#191970" points="601.549,-223.8311 595.5742,-215.0817 594.7887,-225.6473 601.549,-223.8311"/>
</g>
<!-- Node22&#45;&gt;Node1 -->
<g id="edge31" class="edge">
<title>Node22&#45;&gt;Node1</title>
<path fill="none" stroke="#191970" d="M722.9074,-195.7328C710.3721,-186.6386 693.4339,-171.8251 686,-154 677.5882,-133.8301 679.2034,-108.3969 681.8814,-91.1393"/>
<polygon fill="#191970" stroke="#191970" points="685.3583,-91.5808 683.6999,-81.1166 678.4708,-90.331 685.3583,-91.5808"/>
</g>
<!-- Node22&#45;&gt;Node8 -->
<g id="edge32" class="edge">
<title>Node22&#45;&gt;Node8</title>
<path fill="none" stroke="#191970" d="M698.1821,-195.9544C688.954,-193.8728 679.1545,-191.7666 670,-190 582.2801,-173.0721 480.4525,-157.6077 414.4874,-148.1357"/>
<polygon fill="#191970" stroke="#191970" points="414.6106,-144.6179 404.216,-146.6677 413.6202,-151.5474 414.6106,-144.6179"/>
</g>
<!-- Node23 -->
<g id="node24" class="node">
<title>Node23</title>
<g id="a_node24"><a xlink:href="Vector_8inl.html" target="_top" xlink:title="lug/Math/Vector.inl">
<polygon fill="none" stroke="#000000" points="525.5,-129 525.5,-148 638.5,-148 638.5,-129 525.5,-129"/>
<text text-anchor="middle" x="582" y="-136" font-family="Helvetica,sans-Serif" font-size="10.00" fill="#000000">lug/Math/Vector.inl</text>
</a>
</g>
</g>
<!-- Node22&#45;&gt;Node23 -->
<g id="edge33" class="edge">
<title>Node22&#45;&gt;Node23</title>
<path fill="none" stroke="#191970" d="M715.649,-195.9005C688.8895,-184.4077 643.8965,-165.0838 613.5911,-152.068"/>
<polygon fill="#191970" stroke="#191970" points="614.8792,-148.8121 604.3095,-148.0817 612.1167,-155.244 614.8792,-148.8121"/>
</g>
<!-- Node25 -->
<g id="node26" class="node">
<title>Node25</title>
<polygon fill="none" stroke="#bfbfbf" points="837,-129 837,-148 881,-148 881,-129 837,-129"/>
<text text-anchor="middle" x="859" y="-136" font-family="Helvetica,sans-Serif" font-size="10.00" fill="#000000">limits</text>
</g>
<!-- Node24&#45;&gt;Node25 -->
<g id="edge35" class="edge">
<title>Node24&#45;&gt;Node25</title>
<path fill="none" stroke="#191970" d="M877.8479,-195.9005C874.5806,-185.95 869.3857,-170.1292 865.2765,-157.6147"/>
<polygon fill="#191970" stroke="#191970" points="868.5913,-156.4907 862.1462,-148.0817 861.9407,-158.6745 868.5913,-156.4907"/>
</g>
<!-- Node26 -->
<g id="node27" class="node">
<title>Node26</title>
<g id="a_node27"><a xlink:href="Constant_8inl.html" target="_top" xlink:title="lug/Math/Constant.inl">
<polygon fill="none" stroke="#000000" points="695,-129 695,-148 819,-148 819,-129 695,-129"/>
<text text-anchor="middle" x="757" y="-136" font-family="Helvetica,sans-Serif" font-size="10.00" fill="#000000">lug/Math/Constant.inl</text>
</a>
</g>
</g>
<!-- Node24&#45;&gt;Node26 -->
<g id="edge36" class="edge">
<title>Node24&#45;&gt;Node26</title>
<path fill="none" stroke="#191970" d="M863.2338,-195.9005C842.4238,-184.6564 807.7412,-165.9166 783.6913,-152.9219"/>
<polygon fill="#191970" stroke="#191970" points="785.1949,-149.7561 774.7332,-148.0817 781.8673,-155.9147 785.1949,-149.7561"/>
</g>
<!-- Node29&#45;&gt;Node1 -->
<g id="edge41" class="edge">
<title>Node29&#45;&gt;Node1</title>
<path fill="none" stroke="#191970" d="M899.4263,-123.8794C844.8445,-110.4838 765.8974,-91.1085 720.8981,-80.0647"/>
<polygon fill="#191970" stroke="#191970" points="721.574,-76.6268 711.028,-77.6424 719.9055,-83.4251 721.574,-76.6268"/>
</g>
<!-- Node29&#45;&gt;Node3 -->
<g id="edge42" class="edge">
<title>Node29&#45;&gt;Node3</title>
<path fill="none" stroke="#191970" d="M995.1315,-123.4639C1022.8754,-111.9183 1060.8443,-96.1176 1087.6082,-84.9798"/>
<polygon fill="#191970" stroke="#191970" points="1089.0342,-88.1774 1096.9219,-81.1039 1086.3447,-81.7147 1089.0342,-88.1774"/>
</g>
<!-- Node30 -->
<g id="node31" class="node">
<title>Node30</title>
<g id="a_node31"><a xlink:href="DirtyObject_8inl.html" target="_top" xlink:title="lug/Graphics/Render\l/DirtyObject.inl">
<polygon fill="none" stroke="#000000" points="899.5,-56.5 899.5,-86.5 1018.5,-86.5 1018.5,-56.5 899.5,-56.5"/>
<text text-anchor="start" x="907.5" y="-74.5" font-family="Helvetica,sans-Serif" font-size="10.00" fill="#000000">lug/Graphics/Render</text>
<text text-anchor="middle" x="959" y="-63.5" font-family="Helvetica,sans-Serif" font-size="10.00" fill="#000000">/DirtyObject.inl</text>
</a>
</g>
</g>
<!-- Node29&#45;&gt;Node30 -->
<g id="edge43" class="edge">
<title>Node29&#45;&gt;Node30</title>
<path fill="none" stroke="#191970" d="M959,-123.2967C959,-115.5013 959,-105.7991 959,-96.9064"/>
<polygon fill="#191970" stroke="#191970" points="962.5001,-96.6431 959,-86.6432 955.5001,-96.6432 962.5001,-96.6431"/>
</g>
<!-- Node32 -->
<g id="node33" class="node">
<title>Node32</title>
<g id="a_node33"><a xlink:href="Render_2SkyBox_8hpp.html" target="_top" xlink:title="lug/Graphics/Render\l/SkyBox.hpp">
<polygon fill="none" stroke="#000000" points="1239.5,-257.5 1239.5,-287.5 1358.5,-287.5 1358.5,-257.5 1239.5,-257.5"/>
<text text-anchor="start" x="1247.5" y="-275.5" font-family="Helvetica,sans-Serif" font-size="10.00" fill="#000000">lug/Graphics/Render</text>
<text text-anchor="middle" x="1299" y="-264.5" font-family="Helvetica,sans-Serif" font-size="10.00" fill="#000000">/SkyBox.hpp</text>
</a>
</g>
</g>
<!-- Node31&#45;&gt;Node32 -->
<g id="edge45" class="edge">
<title>Node31&#45;&gt;Node32</title>
<path fill="none" stroke="#191970" d="M1299,-324.2967C1299,-316.5013 1299,-306.7991 1299,-297.9064"/>
<polygon fill="#191970" stroke="#191970" points="1302.5001,-297.6431 1299,-287.6432 1295.5001,-297.6432 1302.5001,-297.6431"/>
</g>
<!-- Node31&#45;&gt;Node33 -->
<g id="edge58" class="edge">
<title>Node31&#45;&gt;Node33</title>
<path fill="none" stroke="#191970" d="M1329.0254,-324.3502C1362.5878,-305.451 1414.8663,-269.607 1435,-221 1443.5634,-200.3262 1436.7535,-174.6636 1429.9699,-157.5"/>
<polygon fill="#191970" stroke="#191970" points="1433.0609,-155.8289 1425.8873,-148.0321 1426.6331,-158.6007 1433.0609,-155.8289"/>
</g>
<!-- Node32&#45;&gt;Node3 -->
<g id="edge46" class="edge">
<title>Node32&#45;&gt;Node3</title>
<path fill="none" stroke="#191970" d="M1239.4673,-259.6457C1201.0186,-250.114 1155.8505,-236.1859 1143,-221 1111.7266,-184.0431 1113.5682,-122.7816 1117.0481,-91.3882"/>
<polygon fill="#191970" stroke="#191970" points="1120.5447,-91.6381 1118.346,-81.274 1113.6016,-90.7471 1120.5447,-91.6381"/>
</g>
<!-- Node32&#45;&gt;Node33 -->
<g id="edge47" class="edge">
<title>Node32&#45;&gt;Node33</title>
<path fill="none" stroke="#191970" d="M1358.5876,-260.4776C1380.577,-252.914 1403.4194,-240.6872 1417,-221 1429.6768,-202.623 1428.4141,-176.0854 1425.4781,-158.1097"/>
<polygon fill="#191970" stroke="#191970" points="1428.8902,-157.32 1423.5435,-148.1732 1422.0192,-158.6578 1428.8902,-157.32"/>
</g>
<!-- Node37 -->
<g id="node38" class="node">
<title>Node37</title>
<g id="a_node38"><a xlink:href="Render_2Texture_8hpp.html" target="_top" xlink:title="lug/Graphics/Render\l/Texture.hpp">
<polygon fill="none" stroke="#000000" points="1151.5,-190.5 1151.5,-220.5 1270.5,-220.5 1270.5,-190.5 1151.5,-190.5"/>
<text text-anchor="start" x="1159.5" y="-208.5" font-family="Helvetica,sans-Serif" font-size="10.00" fill="#000000">lug/Graphics/Render</text>
<text text-anchor="middle" x="1211" y="-197.5" font-family="Helvetica,sans-Serif" font-size="10.00" fill="#000000">/Texture.hpp</text>
</a>
</g>
</g>
<!-- Node32&#45;&gt;Node37 -->
<g id="edge53" class="edge">
<title>Node32&#45;&gt;Node37</title>
<path fill="none" stroke="#191970" d="M1279.0314,-257.2967C1267.2175,-248.302 1252.0694,-236.7687 1239.0673,-226.8694"/>
<polygon fill="#191970" stroke="#191970" points="1240.9662,-223.9162 1230.8895,-220.6432 1236.7257,-229.4857 1240.9662,-223.9162"/>
</g>
<!-- Node39 -->
<g id="node40" class="node">
<title>Node39</title>
<g id="a_node40"><a xlink:href="Render_2SkyBox_8inl.html" target="_top" xlink:title="lug/Graphics/Render\l/SkyBox.inl">
<polygon fill="none" stroke="#000000" points="1288.5,-190.5 1288.5,-220.5 1407.5,-220.5 1407.5,-190.5 1288.5,-190.5"/>
<text text-anchor="start" x="1296.5" y="-208.5" font-family="Helvetica,sans-Serif" font-size="10.00" fill="#000000">lug/Graphics/Render</text>
<text text-anchor="middle" x="1348" y="-197.5" font-family="Helvetica,sans-Serif" font-size="10.00" fill="#000000">/SkyBox.inl</text>
</a>
</g>
</g>
<!-- Node32&#45;&gt;Node39 -->
<g id="edge57" class="edge">
<title>Node32&#45;&gt;Node39</title>
<path fill="none" stroke="#191970" d="M1310.1189,-257.2967C1316.2585,-248.9016 1324.0154,-238.2952 1330.9086,-228.8698"/>
<polygon fill="#191970" stroke="#191970" points="1333.847,-230.781 1336.9251,-220.6432 1328.1968,-226.6488 1333.847,-230.781"/>
</g>
<!-- Node33&#45;&gt;Node1 -->
<g id="edge48" class="edge">
<title>Node33&#45;&gt;Node1</title>
<path fill="none" stroke="#191970" d="M1362.5369,-128.996C1348.0112,-126.8296 1332.4603,-124.6752 1318,-123 1258.6286,-116.1218 845.1705,-83.8515 721.1113,-74.2203"/>
<polygon fill="#191970" stroke="#191970" points="721.2582,-70.7213 711.0174,-73.4371 720.7166,-77.7003 721.2582,-70.7213"/>
</g>
<!-- Node33&#45;&gt;Node3 -->
<g id="edge51" class="edge">
<title>Node33&#45;&gt;Node3</title>
<path fill="none" stroke="#191970" d="M1378.1937,-128.9717C1324.1863,-116.9501 1231.3239,-96.2797 1172.9217,-83.2799"/>
<polygon fill="#191970" stroke="#191970" points="1173.6676,-79.8603 1163.146,-81.1039 1172.1466,-86.6931 1173.6676,-79.8603"/>
</g>
<!-- Node34 -->
<g id="node35" class="node">
<title>Node34</title>
<polygon fill="none" stroke="#bfbfbf" points="1385.5,-62 1385.5,-81 1456.5,-81 1456.5,-62 1385.5,-62"/>
<text text-anchor="middle" x="1421" y="-69" font-family="Helvetica,sans-Serif" font-size="10.00" fill="#000000">type_traits</text>
</g>
<!-- Node33&#45;&gt;Node34 -->
<g id="edge49" class="edge">
<title>Node33&#45;&gt;Node34</title>
<path fill="none" stroke="#191970" d="M1421,-128.9005C1421,-119.149 1421,-103.7597 1421,-91.3695"/>
<polygon fill="#191970" stroke="#191970" points="1424.5001,-91.0816 1421,-81.0817 1417.5001,-91.0817 1424.5001,-91.0816"/>
</g>
<!-- Node35 -->
<g id="node36" class="node">
<title>Node35</title>
<polygon fill="none" stroke="#bfbfbf" points="1474.5,-62 1474.5,-81 1519.5,-81 1519.5,-62 1474.5,-62"/>
<text text-anchor="middle" x="1497" y="-69" font-family="Helvetica,sans-Serif" font-size="10.00" fill="#000000">string</text>
</g>
<!-- Node33&#45;&gt;Node35 -->
<g id="edge50" class="edge">
<title>Node33&#45;&gt;Node35</title>
<path fill="none" stroke="#191970" d="M1431.8889,-128.9005C1443.9662,-118.2535 1463.6671,-100.8856 1478.24,-88.0385"/>
<polygon fill="#191970" stroke="#191970" points="1480.9445,-90.3201 1486.1313,-81.0817 1476.3154,-85.0692 1480.9445,-90.3201"/>
</g>
<!-- Node36 -->
<g id="node37" class="node">
<title>Node36</title>
<g id="a_node37"><a xlink:href="Resource_8inl.html" target="_top" xlink:title="lug/Graphics/Resource.inl">
<polygon fill="none" stroke="#000000" points="1221,-62 1221,-81 1367,-81 1367,-62 1221,-62"/>
<text text-anchor="middle" x="1294" y="-69" font-family="Helvetica,sans-Serif" font-size="10.00" fill="#000000">lug/Graphics/Resource.inl</text>
</a>
</g>
</g>
<!-- Node33&#45;&gt;Node36 -->
<g id="edge52" class="edge">
<title>Node33&#45;&gt;Node36</title>
<path fill="none" stroke="#191970" d="M1402.804,-128.9005C1381.3962,-117.6067 1345.6542,-98.7506 1321.0107,-85.7497"/>
<polygon fill="#191970" stroke="#191970" points="1322.6401,-82.6522 1312.1622,-81.0817 1319.3738,-88.8434 1322.6401,-82.6522"/>
</g>
<!-- Node37&#45;&gt;Node3 -->
<g id="edge54" class="edge">
<title>Node37&#45;&gt;Node3</title>
<path fill="none" stroke="#191970" d="M1200.738,-190.389C1183.8567,-165.5307 1150.3005,-116.1184 1132.2196,-89.4937"/>
<polygon fill="#191970" stroke="#191970" points="1135.0358,-87.4106 1126.5222,-81.1042 1129.2449,-91.3432 1135.0358,-87.4106"/>
</g>
<!-- Node37&#45;&gt;Node33 -->
<g id="edge55" class="edge">
<title>Node37&#45;&gt;Node33</title>
<path fill="none" stroke="#191970" d="M1258.1281,-190.4639C1295.2194,-178.63 1346.3221,-162.3258 1381.3372,-151.1543"/>
<polygon fill="#191970" stroke="#191970" points="1382.7443,-154.3793 1391.2073,-148.0053 1380.6166,-147.7105 1382.7443,-154.3793"/>
</g>
<!-- Node38 -->
<g id="node39" class="node">
<title>Node38</title>
<g id="a_node39"><a xlink:href="Render_2Texture_8inl.html" target="_top" xlink:title="lug/Graphics/Render\l/Texture.inl">
<polygon fill="none" stroke="#000000" points="1189.5,-123.5 1189.5,-153.5 1308.5,-153.5 1308.5,-123.5 1189.5,-123.5"/>
<text text-anchor="start" x="1197.5" y="-141.5" font-family="Helvetica,sans-Serif" font-size="10.00" fill="#000000">lug/Graphics/Render</text>
<text text-anchor="middle" x="1249" y="-130.5" font-family="Helvetica,sans-Serif" font-size="10.00" fill="#000000">/Texture.inl</text>
</a>
</g>
</g>
<!-- Node37&#45;&gt;Node38 -->
<g id="edge56" class="edge">
<title>Node37&#45;&gt;Node38</title>
<path fill="none" stroke="#191970" d="M1219.6228,-190.2967C1224.287,-182.0729 1230.1547,-171.7272 1235.4174,-162.4483"/>
<polygon fill="#191970" stroke="#191970" points="1238.5223,-164.0683 1240.4113,-153.6432 1232.4335,-160.6148 1238.5223,-164.0683"/>
</g>
</g>
</svg>
        <g id="navigator" transform="translate(0 0)" fill="#404254">
                <rect fill="#f2f5e9" fill-opacity="0.5" stroke="#606060" stroke-width=".5" x="0" y="0" width="60" height="60"/>
                <use id="zoomplus" xlink:href="#zoomPlus" x="17" y="9" onmousedown="handleZoom(evt,'in')"/>
                <use id="zoomminus" xlink:href="#zoomMin" x="42" y="9" onmousedown="handleZoom(evt,'out')"/>
                <use id="reset" xlink:href="#resetDef" x="30" y="36" onmousedown="handleReset()"/>
                <g id="arrowUp" xlink:href="#dirArrow" transform="translate(30 24)" onmousedown="handlePan(0,-1)">
                  <use xlink:href="#rim" fill="#404040">
                        <set attributeName="fill" to="#808080" begin="arrowUp.mouseover" end="arrowUp.mouseout"/>
                  </use>
                  <path fill="none" stroke="white" stroke-width="1.5" d="M0,-3.0v7 M-2.5,-0.5L0,-3.0L2.5,-0.5"/>
                </g>
                <g id="arrowRight" xlink:href="#dirArrow" transform="rotate(90) translate(36 -43)" onmousedown="handlePan(1,0)">
                  <use xlink:href="#rim" fill="#404040">
                        <set attributeName="fill" to="#808080" begin="arrowRight.mouseover" end="arrowRight.mouseout"/>
                  </use>
                  <path fill="none" stroke="white" stroke-width="1.5" d="M0,-3.0v7 M-2.5,-0.5L0,-3.0L2.5,-0.5"/>
                </g>
                <g id="arrowDown" xlink:href="#dirArrow" transform="rotate(180) translate(-30 -48)" onmousedown="handlePan(0,1)">
                  <use xlink:href="#rim" fill="#404040">
                        <set attributeName="fill" to="#808080" begin="arrowDown.mouseover" end="arrowDown.mouseout"/>
                  </use>
                  <path fill="none" stroke="white" stroke-width="1.5" d="M0,-3.0v7 M-2.5,-0.5L0,-3.0L2.5,-0.5"/>
                </g>
                <g id="arrowLeft" xlink:href="#dirArrow" transform="rotate(270) translate(-36 17)" onmousedown="handlePan(-1,0)">
                  <use xlink:href="#rim" fill="#404040">
                        <set attributeName="fill" to="#808080" begin="arrowLeft.mouseover" end="arrowLeft.mouseout"/>
                  </use>
                  <path fill="none" stroke="white" stroke-width="1.5" d="M0,-3.0v7 M-2.5,-0.5L0,-3.0L2.5,-0.5"/>
                </g>
        </g>
        <svg viewBox="0 0 15 15" width="100%" height="30px" preserveAspectRatio="xMaxYMin meet">
         <g id="arrow_out" transform="scale(0.3 0.3)">
          <a xlink:href="Render_2View_8hpp__incl_org.svg" target="_base">
           <rect id="button" ry="5" rx="5" y="6" x="6" height="38" width="38"
                fill="#f2f5e9" fill-opacity="0.5" stroke="#606060" stroke-width="1.0"/>
           <path id="arrow"
             d="M 11.500037,31.436501 C 11.940474,20.09759 22.043105,11.32322 32.158766,21.979434 L 37.068811,17.246167 C 37.068811,17.246167 37.088388,32 37.088388,32 L 22.160133,31.978069 C 22.160133,31.978069 26.997745,27.140456 26.997745,27.140456 C 18.528582,18.264221 13.291696,25.230495 11.500037,31.436501 z"
             style="fill:#404040;"/>
          </a>
         </g>
        </svg>
</svg>
