<?xml version="1.0" encoding="UTF-8" standalone="no"?>
<!DOCTYPE svg PUBLIC "-//W3C//DTD SVG 1.1//EN"
 "http://www.w3.org/Graphics/SVG/1.1/DTD/svg11.dtd">
<!-- Generated by graphviz version 2.40.1 (20161225.0304)
 -->
<!-- Title: include/lug/Graphics/Render/SkyBox.hpp Pages: 1 -->
<svg width="556pt" height="285pt"
 viewBox="0.00 0.00 556.00 285.00" xmlns="http://www.w3.org/2000/svg" xmlns:xlink="http://www.w3.org/1999/xlink">
<g id="graph0" class="graph" transform="scale(1 1) rotate(0) translate(4 281)">
<title>include/lug/Graphics/Render/SkyBox.hpp</title>
<!-- Node0 -->
<g id="node1" class="node">
<title>Node0</title>
<polygon fill="#bfbfbf" stroke="#000000" points="141,-246.5 141,-276.5 261,-276.5 261,-246.5 141,-246.5"/>
<text text-anchor="start" x="149" y="-264.5" font-family="Helvetica,sans-Serif" font-size="10.00" fill="#000000">include/lug/Graphics</text>
<text text-anchor="middle" x="201" y="-253.5" font-family="Helvetica,sans-Serif" font-size="10.00" fill="#000000">/Render/SkyBox.hpp</text>
</g>
<!-- Node1 -->
<g id="node2" class="node">
<title>Node1</title>
<g id="a_node2"><a xlink:href="Graphics_2Export_8hpp.html" target="_top" xlink:title="lug/Graphics/Export.hpp">
<polygon fill="none" stroke="#000000" points="0,-56.5 0,-75.5 138,-75.5 138,-56.5 0,-56.5"/>
<text text-anchor="middle" x="69" y="-63.5" font-family="Helvetica,sans-Serif" font-size="10.00" fill="#000000">lug/Graphics/Export.hpp</text>
</a>
</g>
</g>
<!-- Node0&#45;&gt;Node1 -->
<g id="edge1" class="edge">
<title>Node0&#45;&gt;Node1</title>
<path fill="none" stroke="#191970" d="M142.6962,-246.4431C122.7555,-238.6013 101.9774,-226.9771 88,-210 58.7229,-174.4396 61.5526,-116.3118 65.5765,-85.9265"/>
<polygon fill="#191970" stroke="#191970" points="69.0816,-86.1545 67.1127,-75.7443 62.16,-85.1102 69.0816,-86.1545"/>
</g>
<!-- Node3 -->
<g id="node4" class="node">
<title>Node3</title>
<g id="a_node4"><a xlink:href="Resource_8hpp.html" target="_top" xlink:title="lug/Graphics/Resource.hpp">
<polygon fill="none" stroke="#000000" points="235,-118 235,-137 387,-137 387,-118 235,-118"/>
<text text-anchor="middle" x="311" y="-125" font-family="Helvetica,sans-Serif" font-size="10.00" fill="#000000">lug/Graphics/Resource.hpp</text>
</a>
</g>
</g>
<!-- Node0&#45;&gt;Node3 -->
<g id="edge3" class="edge">
<title>Node0&#45;&gt;Node3</title>
<path fill="none" stroke="#191970" d="M212.2557,-246.3502C224.8053,-229.6123 245.8594,-201.9838 265,-179 274.7095,-167.3409 286.0617,-154.6225 295.0592,-144.7419"/>
<polygon fill="#191970" stroke="#191970" points="297.7993,-146.9323 301.9755,-137.1952 292.6387,-142.2028 297.7993,-146.9323"/>
</g>
<!-- Node8 -->
<g id="node9" class="node">
<title>Node8</title>
<g id="a_node9"><a xlink:href="Render_2Texture_8hpp.html" target="_top" xlink:title="lug/Graphics/Render\l/Texture.hpp">
<polygon fill="none" stroke="#000000" points="97.5,-179.5 97.5,-209.5 216.5,-209.5 216.5,-179.5 97.5,-179.5"/>
<text text-anchor="start" x="105.5" y="-197.5" font-family="Helvetica,sans-Serif" font-size="10.00" fill="#000000">lug/Graphics/Render</text>
<text text-anchor="middle" x="157" y="-186.5" font-family="Helvetica,sans-Serif" font-size="10.00" fill="#000000">/Texture.hpp</text>
</a>
</g>
</g>
<!-- Node0&#45;&gt;Node8 -->
<g id="edge9" class="edge">
<title>Node0&#45;&gt;Node8</title>
<path fill="none" stroke="#191970" d="M191.0157,-246.2967C185.5588,-237.9873 178.6792,-227.5115 172.5371,-218.1587"/>
<polygon fill="#191970" stroke="#191970" points="175.3596,-216.0806 166.9448,-209.6432 169.5086,-219.9231 175.3596,-216.0806"/>
</g>
<!-- Node10 -->
<g id="node11" class="node">
<title>Node10</title>
<g id="a_node11"><a xlink:href="Render_2SkyBox_8inl.html" target="_top" xlink:title="lug/Graphics/Render\l/SkyBox.inl">
<polygon fill="none" stroke="#000000" points="273.5,-179.5 273.5,-209.5 392.5,-209.5 392.5,-179.5 273.5,-179.5"/>
<text text-anchor="start" x="281.5" y="-197.5" font-family="Helvetica,sans-Serif" font-size="10.00" fill="#000000">lug/Graphics/Render</text>
<text text-anchor="middle" x="333" y="-186.5" font-family="Helvetica,sans-Serif" font-size="10.00" fill="#000000">/SkyBox.inl</text>
</a>
</g>
</g>
<!-- Node0&#45;&gt;Node10 -->
<g id="edge13" class="edge">
<title>Node0&#45;&gt;Node10</title>
<path fill="none" stroke="#191970" d="M230.6234,-246.4639C249.3436,-236.9619 273.7421,-224.5779 294.0246,-214.283"/>
<polygon fill="#191970" stroke="#191970" points="295.6858,-217.3649 303.0188,-209.7177 292.5175,-211.1229 295.6858,-217.3649"/>
</g>
<!-- Node2 -->
<g id="node3" class="node">
<title>Node2</title>
<g id="a_node3"><a xlink:href="Config_8hpp.html" target="_top" xlink:title="lug/Config.hpp">
<polygon fill="none" stroke="#000000" points="24.5,-.5 24.5,-19.5 113.5,-19.5 113.5,-.5 24.5,-.5"/>
<text text-anchor="middle" x="69" y="-7.5" font-family="Helvetica,sans-Serif" font-size="10.00" fill="#000000">lug/Config.hpp</text>
</a>
</g>
</g>
<!-- Node1&#45;&gt;Node2 -->
<g id="edge2" class="edge">
<title>Node1&#45;&gt;Node2</title>
<path fill="none" stroke="#191970" d="M69,-56.2455C69,-48.9382 69,-38.6944 69,-29.7046"/>
<polygon fill="#191970" stroke="#191970" points="72.5001,-29.6426 69,-19.6427 65.5001,-29.6427 72.5001,-29.6426"/>
</g>
<!-- Node3&#45;&gt;Node1 -->
<g id="edge7" class="edge">
<title>Node3&#45;&gt;Node1</title>
<path fill="none" stroke="#191970" d="M273.453,-117.9581C231.1528,-107.2082 162.3223,-89.7162 116.363,-78.0365"/>
<polygon fill="#191970" stroke="#191970" points="117.1891,-74.6352 106.6351,-75.5643 115.4649,-81.4196 117.1891,-74.6352"/>
</g>
<!-- Node4 -->
<g id="node5" class="node">
<title>Node4</title>
<polygon fill="none" stroke="#bfbfbf" points="181,-56.5 181,-75.5 231,-75.5 231,-56.5 181,-56.5"/>
<text text-anchor="middle" x="206" y="-63.5" font-family="Helvetica,sans-Serif" font-size="10.00" fill="#000000">cstdint</text>
</g>
<!-- Node3&#45;&gt;Node4 -->
<g id="edge4" class="edge">
<title>Node3&#45;&gt;Node4</title>
<path fill="none" stroke="#191970" d="M294.5938,-117.8906C277.5647,-107.9165 250.7159,-92.1908 231.0349,-80.6633"/>
<polygon fill="#191970" stroke="#191970" points="232.6888,-77.5759 222.291,-75.5419 229.151,-83.6161 232.6888,-77.5759"/>
</g>
<!-- Node5 -->
<g id="node6" class="node">
<title>Node5</title>
<polygon fill="none" stroke="#bfbfbf" points="249.5,-56.5 249.5,-75.5 320.5,-75.5 320.5,-56.5 249.5,-56.5"/>
<text text-anchor="middle" x="285" y="-63.5" font-family="Helvetica,sans-Serif" font-size="10.00" fill="#000000">type_traits</text>
</g>
<!-- Node3&#45;&gt;Node5 -->
<g id="edge5" class="edge">
<title>Node3&#45;&gt;Node5</title>
<path fill="none" stroke="#191970" d="M306.9375,-117.8906C303.2576,-109.1862 297.7258,-96.1015 293.138,-85.2494"/>
<polygon fill="#191970" stroke="#191970" points="296.2375,-83.5927 289.1198,-75.7449 289.79,-86.3185 296.2375,-83.5927"/>
</g>
<!-- Node6 -->
<g id="node7" class="node">
<title>Node6</title>
<polygon fill="none" stroke="#bfbfbf" points="338.5,-56.5 338.5,-75.5 383.5,-75.5 383.5,-56.5 338.5,-56.5"/>
<text text-anchor="middle" x="361" y="-63.5" font-family="Helvetica,sans-Serif" font-size="10.00" fill="#000000">string</text>
</g>
<!-- Node3&#45;&gt;Node6 -->
<g id="edge6" class="edge">
<title>Node3&#45;&gt;Node6</title>
<path fill="none" stroke="#191970" d="M318.8125,-117.8906C326.254,-108.7376 337.6334,-94.7409 346.6992,-83.59"/>
<polygon fill="#191970" stroke="#191970" points="349.4847,-85.712 353.0774,-75.7449 344.0533,-81.2962 349.4847,-85.712"/>
</g>
<!-- Node7 -->
<g id="node8" class="node">
<title>Node7</title>
<g id="a_node8"><a xlink:href="Resource_8inl.html" target="_top" xlink:title="lug/Graphics/Resource.inl">
<polygon fill="none" stroke="#000000" points="402,-56.5 402,-75.5 548,-75.5 548,-56.5 402,-56.5"/>
<text text-anchor="middle" x="475" y="-63.5" font-family="Helvetica,sans-Serif" font-size="10.00" fill="#000000">lug/Graphics/Resource.inl</text>
</a>
</g>
</g>
<!-- Node3&#45;&gt;Node7 -->
<g id="edge8" class="edge">
<title>Node3&#45;&gt;Node7</title>
<path fill="none" stroke="#191970" d="M336.625,-117.8906C364.4263,-107.4652 408.9844,-90.7559 439.9994,-79.1252"/>
<polygon fill="#191970" stroke="#191970" points="441.4206,-82.3303 449.5549,-75.5419 438.9627,-75.776 441.4206,-82.3303"/>
</g>
<!-- Node8&#45;&gt;Node1 -->
<g id="edge10" class="edge">
<title>Node8&#45;&gt;Node1</title>
<path fill="none" stroke="#191970" d="M128.3629,-179.4315C114.2252,-170.6048 98.0819,-158.1962 88,-143 76.62,-125.8471 72.0517,-102.4683 70.2204,-85.9851"/>
<polygon fill="#191970" stroke="#191970" points="73.6912,-85.4965 69.3397,-75.8366 66.7174,-86.1017 73.6912,-85.4965"/>
</g>
<!-- Node8&#45;&gt;Node3 -->
<g id="edge11" class="edge">
<title>Node8&#45;&gt;Node3</title>
<path fill="none" stroke="#191970" d="M191.5606,-179.4639C217.9818,-167.969 254.0979,-152.2561 279.6791,-141.1266"/>
<polygon fill="#191970" stroke="#191970" points="281.1519,-144.3028 288.9253,-137.1039 278.3592,-137.884 281.1519,-144.3028"/>
</g>
<!-- Node9 -->
<g id="node10" class="node">
<title>Node9</title>
<g id="a_node10"><a xlink:href="Render_2Texture_8inl.html" target="_top" xlink:title="lug/Graphics/Render\l/Texture.inl">
<polygon fill="none" stroke="#000000" points="97.5,-112.5 97.5,-142.5 216.5,-142.5 216.5,-112.5 97.5,-112.5"/>
<text text-anchor="start" x="105.5" y="-130.5" font-family="Helvetica,sans-Serif" font-size="10.00" fill="#000000">lug/Graphics/Render</text>
<text text-anchor="middle" x="157" y="-119.5" font-family="Helvetica,sans-Serif" font-size="10.00" fill="#000000">/Texture.inl</text>
</a>
</g>
</g>
<!-- Node8&#45;&gt;Node9 -->
<g id="edge12" class="edge">
<title>Node8&#45;&gt;Node9</title>
<path fill="none" stroke="#191970" d="M157,-179.2967C157,-171.5013 157,-161.7991 157,-152.9064"/>
<polygon fill="#191970" stroke="#191970" points="160.5001,-152.6431 157,-142.6432 153.5001,-152.6432 160.5001,-152.6431"/>
</g>
</g>
</svg>
