<?xml version="1.0" encoding="UTF-8" standalone="no"?>
<!DOCTYPE svg PUBLIC "-//W3C//DTD SVG 1.1//EN"
 "http://www.w3.org/Graphics/SVG/1.1/DTD/svg11.dtd">
<!-- Generated by graphviz version 2.40.1 (20161225.0304)
 -->
<!-- Title: src/lug/Graphics/Render/View.cpp Pages: 1 -->
<svg width="1522pt" height="631pt"
 viewBox="0.00 0.00 1521.50 631.00" xmlns="http://www.w3.org/2000/svg" xmlns:xlink="http://www.w3.org/1999/xlink">
<g id="graph0" class="graph" transform="scale(1 1) rotate(0) translate(4 627)">
<title>src/lug/Graphics/Render/View.cpp</title>
<!-- Node0 -->
<g id="node1" class="node">
<title>Node0</title>
<polygon fill="#bfbfbf" stroke="#000000" points="1054,-592.5 1054,-622.5 1193,-622.5 1193,-592.5 1054,-592.5"/>
<text text-anchor="start" x="1062" y="-610.5" font-family="Helvetica,sans-Serif" font-size="10.00" fill="#000000">src/lug/Graphics/Render</text>
<text text-anchor="middle" x="1123.5" y="-599.5" font-family="Helvetica,sans-Serif" font-size="10.00" fill="#000000">/View.cpp</text>
</g>
<!-- Node1 -->
<g id="node2" class="node">
<title>Node1</title>
<g id="a_node2"><a xlink:href="Render_2View_8hpp.html" target="_top" xlink:title="lug/Graphics/Render\l/View.hpp">
<polygon fill="none" stroke="#000000" points="1133,-458.5 1133,-488.5 1252,-488.5 1252,-458.5 1133,-458.5"/>
<text text-anchor="start" x="1141" y="-476.5" font-family="Helvetica,sans-Serif" font-size="10.00" fill="#000000">lug/Graphics/Render</text>
<text text-anchor="middle" x="1192.5" y="-465.5" font-family="Helvetica,sans-Serif" font-size="10.00" fill="#000000">/View.hpp</text>
</a>
</g>
</g>
<!-- Node0&#45;&gt;Node1 -->
<g id="edge1" class="edge">
<title>Node0&#45;&gt;Node1</title>
<path fill="none" stroke="#191970" d="M1131.2811,-592.389C1143.1354,-569.3676 1165.8337,-525.2866 1180.0131,-497.7499"/>
<polygon fill="#191970" stroke="#191970" points="1183.1752,-499.2543 1184.6415,-488.7614 1176.9518,-496.0497 1183.1752,-499.2543"/>
</g>
<!-- Node43 -->
<g id="node44" class="node">
<title>Node43</title>
<g id="a_node44"><a xlink:href="Target_8hpp.html" target="_top" xlink:title="lug/Graphics/Render\l/Target.hpp">
<polygon fill="none" stroke="#000000" points="1020,-525.5 1020,-555.5 1139,-555.5 1139,-525.5 1020,-525.5"/>
<text text-anchor="start" x="1028" y="-543.5" font-family="Helvetica,sans-Serif" font-size="10.00" fill="#000000">lug/Graphics/Render</text>
<text text-anchor="middle" x="1079.5" y="-532.5" font-family="Helvetica,sans-Serif" font-size="10.00" fill="#000000">/Target.hpp</text>
</a>
</g>
</g>
<!-- Node0&#45;&gt;Node43 -->
<g id="edge64" class="edge">
<title>Node0&#45;&gt;Node43</title>
<path fill="none" stroke="#191970" d="M1113.5157,-592.2967C1108.0588,-583.9873 1101.1792,-573.5115 1095.0371,-564.1587"/>
<polygon fill="#191970" stroke="#191970" points="1097.8596,-562.0806 1089.4448,-555.6432 1092.0086,-565.9231 1097.8596,-562.0806"/>
</g>
<!-- Node2 -->
<g id="node3" class="node">
<title>Node2</title>
<polygon fill="none" stroke="#bfbfbf" points="1320.5,-62 1320.5,-81 1370.5,-81 1370.5,-62 1320.5,-62"/>
<text text-anchor="middle" x="1345.5" y="-69" font-family="Helvetica,sans-Serif" font-size="10.00" fill="#000000">cstdint</text>
</g>
<!-- Node1&#45;&gt;Node2 -->
<g id="edge2" class="edge">
<title>Node1&#45;&gt;Node2</title>
<path fill="none" stroke="#191970" d="M1252.073,-466.494C1323.44,-454.3989 1433.5,-422.3202 1433.5,-339.5 1433.5,-339.5 1433.5,-339.5 1433.5,-205.5 1433.5,-167.8735 1435.0568,-154.5146 1414.5,-123 1404.4512,-107.5947 1388.1215,-95.1007 1373.8704,-86.2784"/>
<polygon fill="#191970" stroke="#191970" points="1375.2897,-83.0535 1364.8924,-81.0174 1371.7506,-89.093 1375.2897,-83.0535"/>
</g>
<!-- Node3 -->
<g id="node4" class="node">
<title>Node3</title>
<polygon fill="none" stroke="#bfbfbf" points="1081,-263 1081,-282 1140,-282 1140,-263 1081,-263"/>
<text text-anchor="middle" x="1110.5" y="-270" font-family="Helvetica,sans-Serif" font-size="10.00" fill="#000000">memory</text>
</g>
<!-- Node1&#45;&gt;Node3 -->
<g id="edge3" class="edge">
<title>Node1&#45;&gt;Node3</title>
<path fill="none" stroke="#191970" d="M1186.3367,-458.3923C1171.6346,-422.3544 1134.5271,-331.3956 1118.2994,-291.6181"/>
<polygon fill="#191970" stroke="#191970" points="1121.4983,-290.1932 1114.4801,-282.2562 1115.0169,-292.8374 1121.4983,-290.1932"/>
</g>
<!-- Node4 -->
<g id="node5" class="node">
<title>Node4</title>
<g id="a_node5"><a xlink:href="Graphics_2Export_8hpp.html" target="_top" xlink:title="lug/Graphics/Export.hpp">
<polygon fill="none" stroke="#000000" points="469.5,-62 469.5,-81 607.5,-81 607.5,-62 469.5,-62"/>
<text text-anchor="middle" x="538.5" y="-69" font-family="Helvetica,sans-Serif" font-size="10.00" fill="#000000">lug/Graphics/Export.hpp</text>
</a>
</g>
</g>
<!-- Node1&#45;&gt;Node4 -->
<g id="edge4" class="edge">
<title>Node1&#45;&gt;Node4</title>
<path fill="none" stroke="#191970" d="M1194.4722,-458.4706C1198.6848,-419.4468 1204.134,-313.9811 1149.5,-257 1105.6316,-211.247 1068.9008,-247.8873 1011.5,-221 943.7054,-189.2441 943.8407,-151.2207 874.5,-123 851.1865,-113.5117 709.7218,-93.7976 617.9374,-81.7012"/>
<polygon fill="#191970" stroke="#191970" points="618.2042,-78.2062 607.8335,-80.3738 617.2924,-85.1466 618.2042,-78.2062"/>
</g>
<!-- Node6 -->
<g id="node7" class="node">
<title>Node6</title>
<g id="a_node7"><a xlink:href="Render_2Camera_2Camera_8hpp.html" target="_top" xlink:title="lug/Graphics/Render\l/Camera/Camera.hpp">
<polygon fill="none" stroke="#000000" points="782,-391.5 782,-421.5 907,-421.5 907,-391.5 782,-391.5"/>
<text text-anchor="start" x="790" y="-409.5" font-family="Helvetica,sans-Serif" font-size="10.00" fill="#000000">lug/Graphics/Render</text>
<text text-anchor="middle" x="844.5" y="-398.5" font-family="Helvetica,sans-Serif" font-size="10.00" fill="#000000">/Camera/Camera.hpp</text>
</a>
</g>
</g>
<!-- Node1&#45;&gt;Node6 -->
<g id="edge6" class="edge">
<title>Node1&#45;&gt;Node6</title>
<path fill="none" stroke="#191970" d="M1132.6911,-459.917C1129.585,-459.2578 1126.5072,-458.6151 1123.5,-458 1053.6215,-443.7075 973.5282,-429.1062 917.1342,-419.1185"/>
<polygon fill="#191970" stroke="#191970" points="917.6964,-415.6637 907.2399,-417.3704 916.4785,-422.5569 917.6964,-415.6637"/>
</g>
<!-- Node42 -->
<g id="node43" class="node">
<title>Node42</title>
<g id="a_node43"><a xlink:href="Render_2View_8inl.html" target="_top" xlink:title="lug/Graphics/Render\l/View.inl">
<polygon fill="none" stroke="#000000" points="1240,-391.5 1240,-421.5 1359,-421.5 1359,-391.5 1240,-391.5"/>
<text text-anchor="start" x="1248" y="-409.5" font-family="Helvetica,sans-Serif" font-size="10.00" fill="#000000">lug/Graphics/Render</text>
<text text-anchor="middle" x="1299.5" y="-398.5" font-family="Helvetica,sans-Serif" font-size="10.00" fill="#000000">/View.inl</text>
</a>
</g>
</g>
<!-- Node1&#45;&gt;Node42 -->
<g id="edge63" class="edge">
<title>Node1&#45;&gt;Node42</title>
<path fill="none" stroke="#191970" d="M1216.5129,-458.4639C1231.2775,-449.2188 1250.3995,-437.2452 1266.5661,-427.1222"/>
<polygon fill="#191970" stroke="#191970" points="1268.579,-429.9913 1275.197,-421.7177 1264.864,-424.0584 1268.579,-429.9913"/>
</g>
<!-- Node5 -->
<g id="node6" class="node">
<title>Node5</title>
<g id="a_node6"><a xlink:href="Config_8hpp.html" target="_top" xlink:title="lug/Config.hpp">
<polygon fill="none" stroke="#000000" points="693,-.5 693,-19.5 782,-19.5 782,-.5 693,-.5"/>
<text text-anchor="middle" x="737.5" y="-7.5" font-family="Helvetica,sans-Serif" font-size="10.00" fill="#000000">lug/Config.hpp</text>
</a>
</g>
</g>
<!-- Node4&#45;&gt;Node5 -->
<g id="edge5" class="edge">
<title>Node4&#45;&gt;Node5</title>
<path fill="none" stroke="#191970" d="M569.5938,-61.8906C603.9124,-51.2846 659.2743,-34.1753 696.9698,-22.5257"/>
<polygon fill="#191970" stroke="#191970" points="698.1039,-25.8386 706.6246,-19.5419 696.037,-19.1507 698.1039,-25.8386"/>
</g>
<!-- Node6&#45;&gt;Node4 -->
<g id="edge7" class="edge">
<title>Node6&#45;&gt;Node4</title>
<path fill="none" stroke="#191970" d="M781.8379,-392.4317C692.3136,-370.4891 538.5,-325.1309 538.5,-272.5 538.5,-272.5 538.5,-272.5 538.5,-205.5 538.5,-164.9699 538.5,-117.5443 538.5,-91.3795"/>
<polygon fill="#191970" stroke="#191970" points="542.0001,-91.2517 538.5,-81.2517 535.0001,-91.2518 542.0001,-91.2517"/>
</g>
<!-- Node7 -->
<g id="node8" class="node">
<title>Node7</title>
<g id="a_node8"><a xlink:href="Node_8hpp.html" target="_top" xlink:title="lug/Graphics/Node.hpp">
<polygon fill="none" stroke="#000000" points="850,-330 850,-349 981,-349 981,-330 850,-330"/>
<text text-anchor="middle" x="915.5" y="-337" font-family="Helvetica,sans-Serif" font-size="10.00" fill="#000000">lug/Graphics/Node.hpp</text>
</a>
</g>
</g>
<!-- Node6&#45;&gt;Node7 -->
<g id="edge8" class="edge">
<title>Node6&#45;&gt;Node7</title>
<path fill="none" stroke="#191970" d="M860.611,-391.2967C871.7805,-380.7564 886.644,-366.7303 898.0867,-355.9323"/>
<polygon fill="#191970" stroke="#191970" points="900.5037,-358.4638 905.3746,-349.055 895.6994,-353.3727 900.5037,-358.4638"/>
</g>
<!-- Node9 -->
<g id="node10" class="node">
<title>Node9</title>
<g id="a_node10"><a xlink:href="Matrix_8hpp.html" target="_top" xlink:title="lug/Math/Matrix.hpp">
<polygon fill="none" stroke="#000000" points="1111.5,-129 1111.5,-148 1229.5,-148 1229.5,-129 1111.5,-129"/>
<text text-anchor="middle" x="1170.5" y="-136" font-family="Helvetica,sans-Serif" font-size="10.00" fill="#000000">lug/Math/Matrix.hpp</text>
</a>
</g>
</g>
<!-- Node6&#45;&gt;Node9 -->
<g id="edge61" class="edge">
<title>Node6&#45;&gt;Node9</title>
<path fill="none" stroke="#191970" d="M907.2226,-398.7581C976.2678,-386.9231 1085.8895,-357.8076 1149.5,-288 1182.2025,-252.1115 1178.5723,-189.8784 1174.068,-158.2211"/>
<polygon fill="#191970" stroke="#191970" points="1177.4756,-157.3655 1172.4347,-148.0467 1170.5641,-158.4751 1177.4756,-157.3655"/>
</g>
<!-- Node30 -->
<g id="node31" class="node">
<title>Node30</title>
<g id="a_node31"><a xlink:href="DirtyObject_8hpp.html" target="_top" xlink:title="lug/Graphics/Render\l/DirtyObject.hpp">
<polygon fill="none" stroke="#000000" points="1286,-123.5 1286,-153.5 1405,-153.5 1405,-123.5 1286,-123.5"/>
<text text-anchor="start" x="1294" y="-141.5" font-family="Helvetica,sans-Serif" font-size="10.00" fill="#000000">lug/Graphics/Render</text>
<text text-anchor="middle" x="1345.5" y="-130.5" font-family="Helvetica,sans-Serif" font-size="10.00" fill="#000000">/DirtyObject.hpp</text>
</a>
</g>
</g>
<!-- Node6&#45;&gt;Node30 -->
<g id="edge41" class="edge">
<title>Node6&#45;&gt;Node30</title>
<path fill="none" stroke="#191970" d="M907.1806,-402.6026C959.9921,-397.2808 1036.3407,-384.7041 1096.5,-355 1196.3529,-305.6969 1288.1404,-206.4277 1326.5314,-161.5094"/>
<polygon fill="#191970" stroke="#191970" points="1329.2839,-163.6748 1333.0684,-153.7789 1323.9388,-159.1549 1329.2839,-163.6748"/>
</g>
<!-- Node32 -->
<g id="node33" class="node">
<title>Node32</title>
<g id="a_node33"><a xlink:href="Render_2Queue_8hpp.html" target="_top" xlink:title="lug/Graphics/Render\l/Queue.hpp">
<polygon fill="none" stroke="#000000" points="285,-324.5 285,-354.5 404,-354.5 404,-324.5 285,-324.5"/>
<text text-anchor="start" x="293" y="-342.5" font-family="Helvetica,sans-Serif" font-size="10.00" fill="#000000">lug/Graphics/Render</text>
<text text-anchor="middle" x="344.5" y="-331.5" font-family="Helvetica,sans-Serif" font-size="10.00" fill="#000000">/Queue.hpp</text>
</a>
</g>
</g>
<!-- Node6&#45;&gt;Node32 -->
<g id="edge45" class="edge">
<title>Node6&#45;&gt;Node32</title>
<path fill="none" stroke="#191970" d="M781.9335,-398.1161C688.1677,-385.5515 511.7988,-361.918 414.0901,-348.8251"/>
<polygon fill="#191970" stroke="#191970" points="414.3955,-345.3348 404.0192,-347.4756 413.4658,-352.2728 414.3955,-345.3348"/>
</g>
<!-- Node34 -->
<g id="node35" class="node">
<title>Node34</title>
<g id="a_node35"><a xlink:href="Resource_8hpp.html" target="_top" xlink:title="lug/Graphics/Resource.hpp">
<polygon fill="none" stroke="#000000" points="35.5,-129 35.5,-148 187.5,-148 187.5,-129 35.5,-129"/>
<text text-anchor="middle" x="111.5" y="-136" font-family="Helvetica,sans-Serif" font-size="10.00" fill="#000000">lug/Graphics/Resource.hpp</text>
</a>
</g>
</g>
<!-- Node6&#45;&gt;Node34 -->
<g id="edge60" class="edge">
<title>Node6&#45;&gt;Node34</title>
<path fill="none" stroke="#191970" d="M781.5734,-405.6996C653.0832,-403.2749 365.1289,-393.5729 275.5,-355 196.3849,-320.9519 178.5056,-295.6257 135.5,-221 124.136,-201.2805 117.7926,-175.7609 114.522,-158.3598"/>
<polygon fill="#191970" stroke="#191970" points="117.9274,-157.5082 112.7946,-148.2397 111.0272,-158.6861 117.9274,-157.5082"/>
</g>
<!-- Node41 -->
<g id="node42" class="node">
<title>Node41</title>
<g id="a_node42"><a xlink:href="Render_2Camera_2Camera_8inl.html" target="_top" xlink:title="lug/Graphics/Render\l/Camera/Camera.inl">
<polygon fill="none" stroke="#000000" points="713,-324.5 713,-354.5 832,-354.5 832,-324.5 713,-324.5"/>
<text text-anchor="start" x="721" y="-342.5" font-family="Helvetica,sans-Serif" font-size="10.00" fill="#000000">lug/Graphics/Render</text>
<text text-anchor="middle" x="772.5" y="-331.5" font-family="Helvetica,sans-Serif" font-size="10.00" fill="#000000">/Camera/Camera.inl</text>
</a>
</g>
</g>
<!-- Node6&#45;&gt;Node41 -->
<g id="edge62" class="edge">
<title>Node6&#45;&gt;Node41</title>
<path fill="none" stroke="#191970" d="M828.1621,-391.2967C818.7723,-382.559 806.8082,-371.4257 796.3802,-361.7218"/>
<polygon fill="#191970" stroke="#191970" points="798.4783,-358.8933 788.7733,-354.6432 793.7097,-364.0178 798.4783,-358.8933"/>
</g>
<!-- Node7&#45;&gt;Node3 -->
<g id="edge9" class="edge">
<title>Node7&#45;&gt;Node3</title>
<path fill="none" stroke="#191970" d="M943.6371,-329.9974C973.9856,-319.726 1023.7117,-302.8328 1066.5,-288 1068.9105,-287.1644 1071.3939,-286.2998 1073.8959,-285.4259"/>
<polygon fill="#191970" stroke="#191970" points="1075.2433,-288.6624 1083.5225,-282.0514 1072.9277,-282.0565 1075.2433,-288.6624"/>
</g>
<!-- Node7&#45;&gt;Node4 -->
<g id="edge11" class="edge">
<title>Node7&#45;&gt;Node4</title>
<path fill="none" stroke="#191970" d="M901.3934,-329.7873C875.7212,-312.5565 819.1463,-276.6112 766.5,-257 693.7197,-229.8887 654.5496,-271.4494 595.5,-221 585.1683,-212.173 557.3269,-129.4891 544.781,-91.0166"/>
<polygon fill="#191970" stroke="#191970" points="547.9569,-89.4633 541.5443,-81.0295 541.2978,-91.6214 547.9569,-89.4633"/>
</g>
<!-- Node8 -->
<g id="node9" class="node">
<title>Node8</title>
<polygon fill="none" stroke="#bfbfbf" points="566.5,-263 566.5,-282 614.5,-282 614.5,-263 566.5,-263"/>
<text text-anchor="middle" x="590.5" y="-270" font-family="Helvetica,sans-Serif" font-size="10.00" fill="#000000">vector</text>
</g>
<!-- Node7&#45;&gt;Node8 -->
<g id="edge10" class="edge">
<title>Node7&#45;&gt;Node8</title>
<path fill="none" stroke="#191970" d="M870.7421,-329.9493C860.8,-327.9117 850.3035,-325.8255 840.5,-324 744.3894,-306.1035 716.8453,-317.0549 623.5,-288 621.6416,-287.4215 619.7535,-286.7584 617.8696,-286.0393"/>
<polygon fill="#191970" stroke="#191970" points="619.2151,-282.8081 608.6432,-282.11 616.4723,-289.2484 619.2151,-282.8081"/>
</g>
<!-- Node7&#45;&gt;Node9 -->
<g id="edge12" class="edge">
<title>Node7&#45;&gt;Node9</title>
<path fill="none" stroke="#191970" d="M939.0308,-329.9541C961.9011,-320.3601 997.3515,-304.6436 1026.5,-288 1047.5904,-275.9575 1050.3976,-269.0214 1071.5,-257 1104.6754,-238.101 1125.0841,-250.3538 1149.5,-221 1164.2927,-203.2156 1168.847,-176.3393 1170.1526,-158.1363"/>
<polygon fill="#191970" stroke="#191970" points="1173.6519,-158.2302 1170.6083,-148.082 1166.6591,-157.9132 1173.6519,-158.2302"/>
</g>
<!-- Node22 -->
<g id="node23" class="node">
<title>Node22</title>
<g id="a_node23"><a xlink:href="Quaternion_8hpp.html" target="_top" xlink:title="lug/Math/Quaternion.hpp">
<polygon fill="none" stroke="#000000" points="845,-263 845,-282 986,-282 986,-263 845,-263"/>
<text text-anchor="middle" x="915.5" y="-270" font-family="Helvetica,sans-Serif" font-size="10.00" fill="#000000">lug/Math/Quaternion.hpp</text>
</a>
</g>
</g>
<!-- Node7&#45;&gt;Node22 -->
<g id="edge28" class="edge">
<title>Node7&#45;&gt;Node22</title>
<path fill="none" stroke="#191970" d="M915.5,-329.9005C915.5,-320.149 915.5,-304.7597 915.5,-292.3695"/>
<polygon fill="#191970" stroke="#191970" points="919.0001,-292.0816 915.5,-282.0817 912.0001,-292.0817 919.0001,-292.0816"/>
</g>
<!-- Node23 -->
<g id="node24" class="node">
<title>Node23</title>
<g id="a_node24"><a xlink:href="Vector_8hpp.html" target="_top" xlink:title="lug/Math/Vector.hpp">
<polygon fill="none" stroke="#000000" points="1021,-196 1021,-215 1140,-215 1140,-196 1021,-196"/>
<text text-anchor="middle" x="1080.5" y="-203" font-family="Helvetica,sans-Serif" font-size="10.00" fill="#000000">lug/Math/Vector.hpp</text>
</a>
</g>
</g>
<!-- Node7&#45;&gt;Node23 -->
<g id="edge39" class="edge">
<title>Node7&#45;&gt;Node23</title>
<path fill="none" stroke="#191970" d="M932.1508,-329.8945C948.5768,-320.1349 974.1146,-304.1893 994.5,-288 1020.5372,-267.3223 1047.7746,-240.0949 1064.4449,-222.6892"/>
<polygon fill="#191970" stroke="#191970" points="1067.389,-224.6709 1071.7281,-215.0054 1062.3085,-219.8554 1067.389,-224.6709"/>
</g>
<!-- Node29 -->
<g id="node30" class="node">
<title>Node29</title>
<g id="a_node30"><a xlink:href="Node_8inl.html" target="_top" xlink:title="lug/Graphics/Node.inl">
<polygon fill="none" stroke="#000000" points="633,-263 633,-282 758,-282 758,-263 633,-263"/>
<text text-anchor="middle" x="695.5" y="-270" font-family="Helvetica,sans-Serif" font-size="10.00" fill="#000000">lug/Graphics/Node.inl</text>
</a>
</g>
</g>
<!-- Node7&#45;&gt;Node29 -->
<g id="edge40" class="edge">
<title>Node7&#45;&gt;Node29</title>
<path fill="none" stroke="#191970" d="M883.9794,-329.9005C845.2614,-318.1091 779.4764,-298.0746 736.7641,-285.0668"/>
<polygon fill="#191970" stroke="#191970" points="737.5481,-281.6469 726.9622,-282.0817 735.5087,-288.3433 737.5481,-281.6469"/>
</g>
<!-- Node9&#45;&gt;Node2 -->
<g id="edge13" class="edge">
<title>Node9&#45;&gt;Node2</title>
<path fill="none" stroke="#191970" d="M1198.5681,-128.9688C1227.2008,-119.0779 1272.7967,-102.8624 1311.5,-87 1312.8881,-86.4311 1314.3029,-85.8385 1315.7282,-85.2311"/>
<polygon fill="#191970" stroke="#191970" points="1317.3707,-88.3323 1325.1157,-81.1029 1314.5528,-81.9245 1317.3707,-88.3323"/>
</g>
<!-- Node10 -->
<g id="node11" class="node">
<title>Node10</title>
<polygon fill="none" stroke="#bfbfbf" points="946,-62 946,-81 1005,-81 1005,-62 946,-62"/>
<text text-anchor="middle" x="975.5" y="-69" font-family="Helvetica,sans-Serif" font-size="10.00" fill="#000000">valarray</text>
</g>
<!-- Node9&#45;&gt;Node10 -->
<g id="edge14" class="edge">
<title>Node9&#45;&gt;Node10</title>
<path fill="none" stroke="#191970" d="M1139.2972,-128.9759C1107.4551,-119.0906 1056.7158,-102.8794 1013.5,-87 1011.6441,-86.3181 1009.7441,-85.6019 1007.8313,-84.8668"/>
<polygon fill="#191970" stroke="#191970" points="1008.8927,-81.523 998.3061,-81.106 1006.322,-88.0339 1008.8927,-81.523"/>
</g>
<!-- Node11 -->
<g id="node12" class="node">
<title>Node11</title>
<g id="a_node12"><a xlink:href="Math_2Export_8hpp.html" target="_top" xlink:title="lug/Math/Export.hpp">
<polygon fill="none" stroke="#000000" points="678,-62 678,-81 797,-81 797,-62 678,-62"/>
<text text-anchor="middle" x="737.5" y="-69" font-family="Helvetica,sans-Serif" font-size="10.00" fill="#000000">lug/Math/Export.hpp</text>
</a>
</g>
</g>
<!-- Node9&#45;&gt;Node11 -->
<g id="edge15" class="edge">
<title>Node9&#45;&gt;Node11</title>
<path fill="none" stroke="#191970" d="M1131.2273,-128.9678C1121.5463,-126.8145 1111.1786,-124.6734 1101.5,-123 971.3472,-100.4974 936.6528,-109.5026 806.5,-87 800.1484,-85.9019 793.5001,-84.6022 786.9438,-83.23"/>
<polygon fill="#191970" stroke="#191970" points="787.2863,-79.7233 776.7727,-81.0322 785.8079,-86.5654 787.2863,-79.7233"/>
</g>
<!-- Node12 -->
<g id="node13" class="node">
<title>Node12</title>
<g id="a_node13"><a xlink:href="ValArray_8hpp.html" target="_top" xlink:title="lug/Math/ValArray.hpp">
<polygon fill="none" stroke="#000000" points="1172.5,-62 1172.5,-81 1302.5,-81 1302.5,-62 1172.5,-62"/>
<text text-anchor="middle" x="1237.5" y="-69" font-family="Helvetica,sans-Serif" font-size="10.00" fill="#000000">lug/Math/ValArray.hpp</text>
</a>
</g>
</g>
<!-- Node9&#45;&gt;Node12 -->
<g id="edge17" class="edge">
<title>Node9&#45;&gt;Node12</title>
<path fill="none" stroke="#191970" d="M1180.0995,-128.9005C1190.647,-118.353 1207.7904,-101.2096 1220.6002,-88.3998"/>
<polygon fill="#191970" stroke="#191970" points="1223.3221,-90.6276 1227.9183,-81.0817 1218.3724,-85.6779 1223.3221,-90.6276"/>
</g>
<!-- Node18 -->
<g id="node19" class="node">
<title>Node18</title>
<g id="a_node19"><a xlink:href="Debug_8hpp.html" target="_top" xlink:title="lug/System/Debug.hpp">
<polygon fill="none" stroke="#000000" points="1023,-62 1023,-81 1154,-81 1154,-62 1023,-62"/>
<text text-anchor="middle" x="1088.5" y="-69" font-family="Helvetica,sans-Serif" font-size="10.00" fill="#000000">lug/System/Debug.hpp</text>
</a>
</g>
</g>
<!-- Node9&#45;&gt;Node18 -->
<g id="edge23" class="edge">
<title>Node9&#45;&gt;Node18</title>
<path fill="none" stroke="#191970" d="M1158.7514,-128.9005C1145.5989,-118.1539 1124.0664,-100.5603 1108.3017,-87.6794"/>
<polygon fill="#191970" stroke="#191970" points="1110.1852,-84.6986 1100.2268,-81.0817 1105.7561,-90.1193 1110.1852,-84.6986"/>
</g>
<!-- Node21 -->
<g id="node22" class="node">
<title>Node21</title>
<g id="a_node22"><a xlink:href="Matrix_8inl.html" target="_top" xlink:title="lug/Math/Matrix.inl">
<polygon fill="none" stroke="#000000" points="815.5,-62 815.5,-81 927.5,-81 927.5,-62 815.5,-62"/>
<text text-anchor="middle" x="871.5" y="-69" font-family="Helvetica,sans-Serif" font-size="10.00" fill="#000000">lug/Math/Matrix.inl</text>
</a>
</g>
</g>
<!-- Node9&#45;&gt;Node21 -->
<g id="edge27" class="edge">
<title>Node9&#45;&gt;Node21</title>
<path fill="none" stroke="#191970" d="M1128.1801,-128.9502C1119.365,-126.9731 1110.1309,-124.911 1101.5,-123 1028.2162,-106.7744 1009.6757,-103.706 936.5,-87 931.4688,-85.8514 926.2234,-84.6339 920.9902,-83.4062"/>
<polygon fill="#191970" stroke="#191970" points="921.5377,-79.9393 911.001,-81.0481 919.9293,-86.7521 921.5377,-79.9393"/>
</g>
<!-- Node11&#45;&gt;Node5 -->
<g id="edge16" class="edge">
<title>Node11&#45;&gt;Node5</title>
<path fill="none" stroke="#191970" d="M737.5,-61.8906C737.5,-53.3657 737.5,-40.6392 737.5,-29.9235"/>
<polygon fill="#191970" stroke="#191970" points="741.0001,-29.7448 737.5,-19.7449 734.0001,-29.7449 741.0001,-29.7448"/>
</g>
<!-- Node13 -->
<g id="node14" class="node">
<title>Node13</title>
<polygon fill="none" stroke="#bfbfbf" points="1318,-.5 1318,-19.5 1383,-19.5 1383,-.5 1318,-.5"/>
<text text-anchor="middle" x="1350.5" y="-7.5" font-family="Helvetica,sans-Serif" font-size="10.00" fill="#000000">algorithm</text>
</g>
<!-- Node12&#45;&gt;Node13 -->
<g id="edge18" class="edge">
<title>Node12&#45;&gt;Node13</title>
<path fill="none" stroke="#191970" d="M1255.1563,-61.8906C1273.6486,-51.8262 1302.901,-35.9057 1324.1308,-24.3514"/>
<polygon fill="#191970" stroke="#191970" points="1325.8575,-27.3965 1332.9677,-19.5419 1322.5112,-21.2481 1325.8575,-27.3965"/>
</g>
<!-- Node14 -->
<g id="node15" class="node">
<title>Node14</title>
<polygon fill="none" stroke="#bfbfbf" points="1401.5,-.5 1401.5,-19.5 1445.5,-19.5 1445.5,-.5 1401.5,-.5"/>
<text text-anchor="middle" x="1423.5" y="-7.5" font-family="Helvetica,sans-Serif" font-size="10.00" fill="#000000">array</text>
</g>
<!-- Node12&#45;&gt;Node14 -->
<g id="edge19" class="edge">
<title>Node12&#45;&gt;Node14</title>
<path fill="none" stroke="#191970" d="M1266.5625,-61.8906C1300.505,-50.6677 1356.4709,-32.1628 1391.5911,-20.5505"/>
<polygon fill="#191970" stroke="#191970" points="1392.9453,-23.7892 1401.341,-17.3268 1390.7477,-17.1431 1392.9453,-23.7892"/>
</g>
<!-- Node15 -->
<g id="node16" class="node">
<title>Node15</title>
<polygon fill="none" stroke="#bfbfbf" points="1463.5,-.5 1463.5,-19.5 1513.5,-19.5 1513.5,-.5 1463.5,-.5"/>
<text text-anchor="middle" x="1488.5" y="-7.5" font-family="Helvetica,sans-Serif" font-size="10.00" fill="#000000">cstring</text>
</g>
<!-- Node12&#45;&gt;Node15 -->
<g id="edge20" class="edge">
<title>Node12&#45;&gt;Node15</title>
<path fill="none" stroke="#191970" d="M1280.8994,-61.9124C1322.6815,-52.5232 1387.8684,-37.4602 1453.2271,-20.244"/>
<polygon fill="#191970" stroke="#191970" points="1454.5216,-23.5218 1463.2908,-17.5761 1452.7278,-16.7556 1454.5216,-23.5218"/>
</g>
<!-- Node16 -->
<g id="node17" class="node">
<title>Node16</title>
<polygon fill="none" stroke="#bfbfbf" points="1100,-.5 1100,-19.5 1157,-19.5 1157,-.5 1100,-.5"/>
<text text-anchor="middle" x="1128.5" y="-7.5" font-family="Helvetica,sans-Serif" font-size="10.00" fill="#000000">numeric</text>
</g>
<!-- Node12&#45;&gt;Node16 -->
<g id="edge21" class="edge">
<title>Node12&#45;&gt;Node16</title>
<path fill="none" stroke="#191970" d="M1220.4688,-61.8906C1202.711,-51.8713 1174.667,-36.0483 1154.2118,-24.5071"/>
<polygon fill="#191970" stroke="#191970" points="1155.8409,-21.4077 1145.4117,-19.5419 1152.4011,-27.5042 1155.8409,-21.4077"/>
</g>
<!-- Node17 -->
<g id="node18" class="node">
<title>Node17</title>
<g id="a_node18"><a xlink:href="ValArray_8inl.html" target="_top" xlink:title="lug/Math/ValArray.inl">
<polygon fill="none" stroke="#000000" points="1175.5,-.5 1175.5,-19.5 1299.5,-19.5 1299.5,-.5 1175.5,-.5"/>
<text text-anchor="middle" x="1237.5" y="-7.5" font-family="Helvetica,sans-Serif" font-size="10.00" fill="#000000">lug/Math/ValArray.inl</text>
</a>
</g>
</g>
<!-- Node12&#45;&gt;Node17 -->
<g id="edge22" class="edge">
<title>Node12&#45;&gt;Node17</title>
<path fill="none" stroke="#191970" d="M1237.5,-61.8906C1237.5,-53.3657 1237.5,-40.6392 1237.5,-29.9235"/>
<polygon fill="#191970" stroke="#191970" points="1241.0001,-29.7448 1237.5,-19.7449 1234.0001,-29.7449 1241.0001,-29.7448"/>
</g>
<!-- Node18&#45;&gt;Node5 -->
<g id="edge24" class="edge">
<title>Node18&#45;&gt;Node5</title>
<path fill="none" stroke="#191970" d="M1043.7411,-61.9547C1033.7991,-59.9169 1023.3028,-57.8291 1013.5,-56 936.8511,-41.6977 847.818,-27.2468 792.0623,-18.4562"/>
<polygon fill="#191970" stroke="#191970" points="792.4716,-14.9776 782.0493,-16.8819 791.3843,-21.8926 792.4716,-14.9776"/>
</g>
<!-- Node19 -->
<g id="node20" class="node">
<title>Node19</title>
<g id="a_node20"><a xlink:href="Utils_8hpp.html" target="_top" xlink:title="lug/System/Utils.hpp">
<polygon fill="none" stroke="#000000" points="959.5,-.5 959.5,-19.5 1081.5,-19.5 1081.5,-.5 959.5,-.5"/>
<text text-anchor="middle" x="1020.5" y="-7.5" font-family="Helvetica,sans-Serif" font-size="10.00" fill="#000000">lug/System/Utils.hpp</text>
</a>
</g>
</g>
<!-- Node18&#45;&gt;Node19 -->
<g id="edge25" class="edge">
<title>Node18&#45;&gt;Node19</title>
<path fill="none" stroke="#191970" d="M1077.875,-61.8906C1067.4569,-52.4683 1051.3636,-37.9134 1038.8696,-26.6137"/>
<polygon fill="#191970" stroke="#191970" points="1041.0392,-23.8568 1031.2748,-19.7449 1036.3438,-29.0484 1041.0392,-23.8568"/>
</g>
<!-- Node20 -->
<g id="node21" class="node">
<title>Node20</title>
<polygon fill="none" stroke="#bfbfbf" points="880,-.5 880,-19.5 941,-19.5 941,-.5 880,-.5"/>
<text text-anchor="middle" x="910.5" y="-7.5" font-family="Helvetica,sans-Serif" font-size="10.00" fill="#000000">iostream</text>
</g>
<!-- Node18&#45;&gt;Node20 -->
<g id="edge26" class="edge">
<title>Node18&#45;&gt;Node20</title>
<path fill="none" stroke="#191970" d="M1060.6875,-61.8906C1030.2517,-51.3749 981.3123,-34.466 947.6174,-22.8243"/>
<polygon fill="#191970" stroke="#191970" points="948.712,-19.4995 938.1172,-19.5419 946.426,-26.1157 948.712,-19.4995"/>
</g>
<!-- Node22&#45;&gt;Node9 -->
<g id="edge30" class="edge">
<title>Node22&#45;&gt;Node9</title>
<path fill="none" stroke="#191970" d="M924.0926,-262.9527C939.8463,-245.9841 975.092,-210.4404 1011.5,-190 1043.9192,-171.799 1083.7181,-158.9161 1115.3877,-150.5875"/>
<polygon fill="#191970" stroke="#191970" points="1116.5402,-153.9056 1125.3648,-148.0424 1114.8099,-147.1228 1116.5402,-153.9056"/>
</g>
<!-- Node22&#45;&gt;Node11 -->
<g id="edge29" class="edge">
<title>Node22&#45;&gt;Node11</title>
<path fill="none" stroke="#191970" d="M915.8304,-262.9381C916.1942,-236.75 913.5076,-163.1511 874.5,-123 861.3661,-109.4811 817.4452,-94.3354 782.8311,-83.9886"/>
<polygon fill="#191970" stroke="#191970" points="783.4722,-80.5291 772.8913,-81.0709 781.5007,-87.2458 783.4722,-80.5291"/>
</g>
<!-- Node22&#45;&gt;Node23 -->
<g id="edge31" class="edge">
<title>Node22&#45;&gt;Node23</title>
<path fill="none" stroke="#191970" d="M939.1405,-262.9005C967.5664,-251.3579 1015.4449,-231.9163 1047.5017,-218.8993"/>
<polygon fill="#191970" stroke="#191970" points="1048.9549,-222.0868 1056.9034,-215.0817 1046.3213,-215.6011 1048.9549,-222.0868"/>
</g>
<!-- Node25 -->
<g id="node26" class="node">
<title>Node25</title>
<g id="a_node26"><a xlink:href="Constant_8hpp.html" target="_top" xlink:title="lug/Math/Constant.hpp">
<polygon fill="none" stroke="#000000" points="758.5,-196 758.5,-215 888.5,-215 888.5,-196 758.5,-196"/>
<text text-anchor="middle" x="823.5" y="-203" font-family="Helvetica,sans-Serif" font-size="10.00" fill="#000000">lug/Math/Constant.hpp</text>
</a>
</g>
</g>
<!-- Node22&#45;&gt;Node25 -->
<g id="edge35" class="edge">
<title>Node22&#45;&gt;Node25</title>
<path fill="none" stroke="#191970" d="M902.3186,-262.9005C887.2889,-251.9549 862.5058,-233.9064 844.7407,-220.9688"/>
<polygon fill="#191970" stroke="#191970" points="846.8009,-218.1394 836.6569,-215.0817 842.68,-223.7979 846.8009,-218.1394"/>
</g>
<!-- Node28 -->
<g id="node29" class="node">
<title>Node28</title>
<g id="a_node29"><a xlink:href="Quaternion_8inl.html" target="_top" xlink:title="lug/Math/Quaternion.inl">
<polygon fill="none" stroke="#000000" points="605,-196 605,-215 740,-215 740,-196 605,-196"/>
<text text-anchor="middle" x="672.5" y="-203" font-family="Helvetica,sans-Serif" font-size="10.00" fill="#000000">lug/Math/Quaternion.inl</text>
</a>
</g>
</g>
<!-- Node22&#45;&gt;Node28 -->
<g id="edge38" class="edge">
<title>Node22&#45;&gt;Node28</title>
<path fill="none" stroke="#191970" d="M880.9421,-262.9717C837.882,-251.0991 764.2267,-230.7909 716.9903,-217.7669"/>
<polygon fill="#191970" stroke="#191970" points="717.9027,-214.3879 707.3321,-215.1039 716.0421,-221.1361 717.9027,-214.3879"/>
</g>
<!-- Node23&#45;&gt;Node2 -->
<g id="edge32" class="edge">
<title>Node23&#45;&gt;Node2</title>
<path fill="none" stroke="#191970" d="M1123.4128,-195.9374C1156.175,-187.6065 1201.7818,-173.7433 1238.5,-154 1258.0017,-143.514 1260.0065,-136.5739 1277.5,-123 1293.1443,-110.861 1310.9971,-97.353 1324.4835,-87.2178"/>
<polygon fill="#191970" stroke="#191970" points="1326.7493,-89.8935 1332.6484,-81.0928 1322.5487,-84.2939 1326.7493,-89.8935"/>
</g>
<!-- Node23&#45;&gt;Node9 -->
<g id="edge33" class="edge">
<title>Node23&#45;&gt;Node9</title>
<path fill="none" stroke="#191970" d="M1093.3948,-195.9005C1107.9642,-185.0544 1131.9022,-167.2339 1149.2454,-154.3229"/>
<polygon fill="#191970" stroke="#191970" points="1151.6978,-156.8606 1157.6291,-148.0817 1147.5177,-151.2457 1151.6978,-156.8606"/>
</g>
<!-- Node24 -->
<g id="node25" class="node">
<title>Node24</title>
<g id="a_node25"><a xlink:href="Vector_8inl.html" target="_top" xlink:title="lug/Math/Vector.inl">
<polygon fill="none" stroke="#000000" points="980,-129 980,-148 1093,-148 1093,-129 980,-129"/>
<text text-anchor="middle" x="1036.5" y="-136" font-family="Helvetica,sans-Serif" font-size="10.00" fill="#000000">lug/Math/Vector.inl</text>
</a>
</g>
</g>
<!-- Node23&#45;&gt;Node24 -->
<g id="edge34" class="edge">
<title>Node23&#45;&gt;Node24</title>
<path fill="none" stroke="#191970" d="M1074.1959,-195.9005C1067.4651,-185.6515 1056.6446,-169.1747 1048.3193,-156.4976"/>
<polygon fill="#191970" stroke="#191970" points="1051.2073,-154.5191 1042.7924,-148.0817 1045.3562,-158.3616 1051.2073,-154.5191"/>
</g>
<!-- Node26 -->
<g id="node27" class="node">
<title>Node26</title>
<polygon fill="none" stroke="#bfbfbf" points="821.5,-129 821.5,-148 865.5,-148 865.5,-129 821.5,-129"/>
<text text-anchor="middle" x="843.5" y="-136" font-family="Helvetica,sans-Serif" font-size="10.00" fill="#000000">limits</text>
</g>
<!-- Node25&#45;&gt;Node26 -->
<g id="edge36" class="edge">
<title>Node25&#45;&gt;Node26</title>
<path fill="none" stroke="#191970" d="M826.3655,-195.9005C829.3061,-186.0495 833.9642,-170.4451 837.6817,-157.9912"/>
<polygon fill="#191970" stroke="#191970" points="841.1331,-158.665 840.6398,-148.0817 834.4256,-156.6627 841.1331,-158.665"/>
</g>
<!-- Node27 -->
<g id="node28" class="node">
<title>Node27</title>
<g id="a_node28"><a xlink:href="Constant_8inl.html" target="_top" xlink:title="lug/Math/Constant.inl">
<polygon fill="none" stroke="#000000" points="679.5,-129 679.5,-148 803.5,-148 803.5,-129 679.5,-129"/>
<text text-anchor="middle" x="741.5" y="-136" font-family="Helvetica,sans-Serif" font-size="10.00" fill="#000000">lug/Math/Constant.inl</text>
</a>
</g>
</g>
<!-- Node25&#45;&gt;Node27 -->
<g id="edge37" class="edge">
<title>Node25&#45;&gt;Node27</title>
<path fill="none" stroke="#191970" d="M811.7514,-195.9005C798.5989,-185.1539 777.0664,-167.5603 761.3017,-154.6794"/>
<polygon fill="#191970" stroke="#191970" points="763.1852,-151.6986 753.2268,-148.0817 758.7561,-157.1193 763.1852,-151.6986"/>
</g>
<!-- Node30&#45;&gt;Node2 -->
<g id="edge42" class="edge">
<title>Node30&#45;&gt;Node2</title>
<path fill="none" stroke="#191970" d="M1345.5,-123.2967C1345.5,-113.7699 1345.5,-101.3954 1345.5,-91.1306"/>
<polygon fill="#191970" stroke="#191970" points="1349.0001,-91.0549 1345.5,-81.055 1342.0001,-91.055 1349.0001,-91.0549"/>
</g>
<!-- Node30&#45;&gt;Node4 -->
<g id="edge43" class="edge">
<title>Node30&#45;&gt;Node4</title>
<path fill="none" stroke="#191970" d="M1285.8996,-128.9956C1270.4903,-126.7777 1253.9027,-124.5994 1238.5,-123 986.0194,-96.7831 921.2907,-110.0351 668.5,-87 652.0981,-85.5054 634.566,-83.6151 617.8577,-81.6728"/>
<polygon fill="#191970" stroke="#191970" points="617.9196,-78.1559 607.5783,-80.4598 617.0992,-85.1077 617.9196,-78.1559"/>
</g>
<!-- Node31 -->
<g id="node32" class="node">
<title>Node31</title>
<g id="a_node32"><a xlink:href="DirtyObject_8inl.html" target="_top" xlink:title="lug/Graphics/Render\l/DirtyObject.inl">
<polygon fill="none" stroke="#000000" points="1389,-56.5 1389,-86.5 1508,-86.5 1508,-56.5 1389,-56.5"/>
<text text-anchor="start" x="1397" y="-74.5" font-family="Helvetica,sans-Serif" font-size="10.00" fill="#000000">lug/Graphics/Render</text>
<text text-anchor="middle" x="1448.5" y="-63.5" font-family="Helvetica,sans-Serif" font-size="10.00" fill="#000000">/DirtyObject.inl</text>
</a>
</g>
</g>
<!-- Node30&#45;&gt;Node31 -->
<g id="edge44" class="edge">
<title>Node30&#45;&gt;Node31</title>
<path fill="none" stroke="#191970" d="M1368.6152,-123.4639C1382.6963,-114.3044 1400.8945,-102.4667 1416.3642,-92.4038"/>
<polygon fill="#191970" stroke="#191970" points="1418.6315,-95.1044 1425.1056,-86.7177 1414.8145,-89.2366 1418.6315,-95.1044"/>
</g>
<!-- Node33 -->
<g id="node34" class="node">
<title>Node33</title>
<g id="a_node34"><a xlink:href="Render_2SkyBox_8hpp.html" target="_top" xlink:title="lug/Graphics/Render\l/SkyBox.hpp">
<polygon fill="none" stroke="#000000" points="285,-257.5 285,-287.5 404,-287.5 404,-257.5 285,-257.5"/>
<text text-anchor="start" x="293" y="-275.5" font-family="Helvetica,sans-Serif" font-size="10.00" fill="#000000">lug/Graphics/Render</text>
<text text-anchor="middle" x="344.5" y="-264.5" font-family="Helvetica,sans-Serif" font-size="10.00" fill="#000000">/SkyBox.hpp</text>
</a>
</g>
</g>
<!-- Node32&#45;&gt;Node33 -->
<g id="edge46" class="edge">
<title>Node32&#45;&gt;Node33</title>
<path fill="none" stroke="#191970" d="M344.5,-324.2967C344.5,-316.5013 344.5,-306.7991 344.5,-297.9064"/>
<polygon fill="#191970" stroke="#191970" points="348.0001,-297.6431 344.5,-287.6432 341.0001,-297.6432 348.0001,-297.6431"/>
</g>
<!-- Node32&#45;&gt;Node34 -->
<g id="edge59" class="edge">
<title>Node32&#45;&gt;Node34</title>
<path fill="none" stroke="#191970" d="M312.2825,-324.3436C273.0873,-304.7136 206.58,-267.4429 161.5,-221 143.082,-202.0252 128.3633,-175.0737 119.7869,-157.2029"/>
<polygon fill="#191970" stroke="#191970" points="122.9446,-155.6925 115.5674,-148.0881 116.5922,-158.6332 122.9446,-155.6925"/>
</g>
<!-- Node33&#45;&gt;Node4 -->
<g id="edge47" class="edge">
<title>Node33&#45;&gt;Node4</title>
<path fill="none" stroke="#191970" d="M404.064,-261.4492C430.3487,-253.9164 459.8867,-241.4472 480.5,-221 499.4869,-202.1662 522.6424,-127.3982 533.0155,-91.2597"/>
<polygon fill="#191970" stroke="#191970" points="536.4534,-91.9642 535.8056,-81.3892 529.7174,-90.0601 536.4534,-91.9642"/>
</g>
<!-- Node33&#45;&gt;Node34 -->
<g id="edge48" class="edge">
<title>Node33&#45;&gt;Node34</title>
<path fill="none" stroke="#191970" d="M290.7118,-257.3943C264.3197,-248.7658 232.6612,-236.5447 206.5,-221 175.7212,-202.7116 145.4136,-174.0246 127.5898,-155.7502"/>
<polygon fill="#191970" stroke="#191970" points="129.7665,-152.9628 120.3221,-148.1613 124.7109,-157.8044 129.7665,-152.9628"/>
</g>
<!-- Node38 -->
<g id="node39" class="node">
<title>Node38</title>
<g id="a_node39"><a xlink:href="Render_2Texture_8hpp.html" target="_top" xlink:title="lug/Graphics/Render\l/Texture.hpp">
<polygon fill="none" stroke="#000000" points="353,-190.5 353,-220.5 472,-220.5 472,-190.5 353,-190.5"/>
<text text-anchor="start" x="361" y="-208.5" font-family="Helvetica,sans-Serif" font-size="10.00" fill="#000000">lug/Graphics/Render</text>
<text text-anchor="middle" x="412.5" y="-197.5" font-family="Helvetica,sans-Serif" font-size="10.00" fill="#000000">/Texture.hpp</text>
</a>
</g>
</g>
<!-- Node33&#45;&gt;Node38 -->
<g id="edge54" class="edge">
<title>Node33&#45;&gt;Node38</title>
<path fill="none" stroke="#191970" d="M359.9303,-257.2967C368.7984,-248.559 380.0978,-237.4257 389.9465,-227.7218"/>
<polygon fill="#191970" stroke="#191970" points="392.464,-230.1548 397.1308,-220.6432 387.551,-225.1685 392.464,-230.1548"/>
</g>
<!-- Node40 -->
<g id="node41" class="node">
<title>Node40</title>
<g id="a_node41"><a xlink:href="Render_2SkyBox_8inl.html" target="_top" xlink:title="lug/Graphics/Render\l/SkyBox.inl">
<polygon fill="none" stroke="#000000" points="216,-190.5 216,-220.5 335,-220.5 335,-190.5 216,-190.5"/>
<text text-anchor="start" x="224" y="-208.5" font-family="Helvetica,sans-Serif" font-size="10.00" fill="#000000">lug/Graphics/Render</text>
<text text-anchor="middle" x="275.5" y="-197.5" font-family="Helvetica,sans-Serif" font-size="10.00" fill="#000000">/SkyBox.inl</text>
</a>
</g>
</g>
<!-- Node33&#45;&gt;Node40 -->
<g id="edge58" class="edge">
<title>Node33&#45;&gt;Node40</title>
<path fill="none" stroke="#191970" d="M328.8428,-257.2967C319.8443,-248.559 308.3787,-237.4257 298.3852,-227.7218"/>
<polygon fill="#191970" stroke="#191970" points="300.7077,-225.0985 291.0952,-220.6432 295.8313,-230.1205 300.7077,-225.0985"/>
</g>
<!-- Node34&#45;&gt;Node2 -->
<g id="edge49" class="edge">
<title>Node34&#45;&gt;Node2</title>
<path fill="none" stroke="#191970" d="M187.9234,-131.6144C223.6203,-128.5983 266.7087,-125.2426 305.5,-123 528.8257,-110.0889 1093.7818,-138.3799 1311.5,-87 1313.844,-86.4468 1316.2232,-85.7281 1318.5781,-84.9035"/>
<polygon fill="#191970" stroke="#191970" points="1320.0333,-88.09 1327.9691,-81.0705 1317.388,-81.609 1320.0333,-88.09"/>
</g>
<!-- Node34&#45;&gt;Node4 -->
<g id="edge52" class="edge">
<title>Node34&#45;&gt;Node4</title>
<path fill="none" stroke="#191970" d="M165.7272,-128.9902C177.5134,-126.971 189.9192,-124.8819 201.5,-123 291.519,-108.3714 395.2658,-92.6947 463.6005,-82.5315"/>
<polygon fill="#191970" stroke="#191970" points="464.4606,-85.9422 473.8378,-81.0108 463.432,-79.0182 464.4606,-85.9422"/>
</g>
<!-- Node35 -->
<g id="node36" class="node">
<title>Node35</title>
<polygon fill="none" stroke="#bfbfbf" points="0,-62 0,-81 71,-81 71,-62 0,-62"/>
<text text-anchor="middle" x="35.5" y="-69" font-family="Helvetica,sans-Serif" font-size="10.00" fill="#000000">type_traits</text>
</g>
<!-- Node34&#45;&gt;Node35 -->
<g id="edge50" class="edge">
<title>Node34&#45;&gt;Node35</title>
<path fill="none" stroke="#191970" d="M100.6111,-128.9005C88.5338,-118.2535 68.8329,-100.8856 54.26,-88.0385"/>
<polygon fill="#191970" stroke="#191970" points="56.1846,-85.0692 46.3687,-81.0817 51.5555,-90.3201 56.1846,-85.0692"/>
</g>
<!-- Node36 -->
<g id="node37" class="node">
<title>Node36</title>
<polygon fill="none" stroke="#bfbfbf" points="89,-62 89,-81 134,-81 134,-62 89,-62"/>
<text text-anchor="middle" x="111.5" y="-69" font-family="Helvetica,sans-Serif" font-size="10.00" fill="#000000">string</text>
</g>
<!-- Node34&#45;&gt;Node36 -->
<g id="edge51" class="edge">
<title>Node34&#45;&gt;Node36</title>
<path fill="none" stroke="#191970" d="M111.5,-128.9005C111.5,-119.149 111.5,-103.7597 111.5,-91.3695"/>
<polygon fill="#191970" stroke="#191970" points="115.0001,-91.0816 111.5,-81.0817 108.0001,-91.0817 115.0001,-91.0816"/>
</g>
<!-- Node37 -->
<g id="node38" class="node">
<title>Node37</title>
<g id="a_node38"><a xlink:href="Resource_8inl.html" target="_top" xlink:title="lug/Graphics/Resource.inl">
<polygon fill="none" stroke="#000000" points="152.5,-62 152.5,-81 298.5,-81 298.5,-62 152.5,-62"/>
<text text-anchor="middle" x="225.5" y="-69" font-family="Helvetica,sans-Serif" font-size="10.00" fill="#000000">lug/Graphics/Resource.inl</text>
</a>
</g>
</g>
<!-- Node34&#45;&gt;Node37 -->
<g id="edge53" class="edge">
<title>Node34&#45;&gt;Node37</title>
<path fill="none" stroke="#191970" d="M127.8334,-128.9005C146.7959,-117.7559 178.2875,-99.2477 200.372,-86.2682"/>
<polygon fill="#191970" stroke="#191970" points="202.349,-89.1661 209.1969,-81.0817 198.8021,-83.1311 202.349,-89.1661"/>
</g>
<!-- Node38&#45;&gt;Node4 -->
<g id="edge55" class="edge">
<title>Node38&#45;&gt;Node4</title>
<path fill="none" stroke="#191970" d="M425.6071,-190.3549C440.1987,-173.6211 464.6132,-145.9963 486.5,-123 497.8082,-111.1185 510.9347,-98.1241 521.1701,-88.1605"/>
<polygon fill="#191970" stroke="#191970" points="523.6077,-90.6721 528.3556,-81.2007 518.7375,-85.644 523.6077,-90.6721"/>
</g>
<!-- Node38&#45;&gt;Node34 -->
<g id="edge56" class="edge">
<title>Node38&#45;&gt;Node34</title>
<path fill="none" stroke="#191970" d="M352.663,-192.0486C349.5642,-191.3551 346.4956,-190.669 343.5,-190 282.1649,-176.3033 211.6828,-160.6729 164.654,-150.2592"/>
<polygon fill="#191970" stroke="#191970" points="165.2136,-146.7984 154.6934,-148.054 163.7004,-153.6329 165.2136,-146.7984"/>
</g>
<!-- Node39 -->
<g id="node40" class="node">
<title>Node39</title>
<g id="a_node40"><a xlink:href="Render_2Texture_8inl.html" target="_top" xlink:title="lug/Graphics/Render\l/Texture.inl">
<polygon fill="none" stroke="#000000" points="315,-123.5 315,-153.5 434,-153.5 434,-123.5 315,-123.5"/>
<text text-anchor="start" x="323" y="-141.5" font-family="Helvetica,sans-Serif" font-size="10.00" fill="#000000">lug/Graphics/Render</text>
<text text-anchor="middle" x="374.5" y="-130.5" font-family="Helvetica,sans-Serif" font-size="10.00" fill="#000000">/Texture.inl</text>
</a>
</g>
</g>
<!-- Node38&#45;&gt;Node39 -->
<g id="edge57" class="edge">
<title>Node38&#45;&gt;Node39</title>
<path fill="none" stroke="#191970" d="M403.8772,-190.2967C399.213,-182.0729 393.3453,-171.7272 388.0826,-162.4483"/>
<polygon fill="#191970" stroke="#191970" points="391.0665,-160.6148 383.0887,-153.6432 384.9777,-164.0683 391.0665,-160.6148"/>
</g>
<!-- Node43&#45;&gt;Node1 -->
<g id="edge66" class="edge">
<title>Node43&#45;&gt;Node1</title>
<path fill="none" stroke="#191970" d="M1104.8594,-525.4639C1120.5963,-516.1332 1141.0205,-504.0232 1158.1928,-493.8415"/>
<polygon fill="#191970" stroke="#191970" points="1160.0176,-496.8285 1166.8343,-488.7177 1156.4475,-490.8073 1160.0176,-496.8285"/>
</g>
<!-- Node43&#45;&gt;Node4 -->
<g id="edge65" class="edge">
<title>Node43&#45;&gt;Node4</title>
<path fill="none" stroke="#191970" d="M1019.9359,-537.8513C820.3243,-528.193 187.5,-490.9165 187.5,-406.5 187.5,-406.5 187.5,-406.5 187.5,-272.5 187.5,-234.8735 185.2205,-221.0312 206.5,-190 236.547,-146.1834 256.6949,-143.9948 305.5,-123 354.5158,-101.9145 413.1894,-89.0099 459.3954,-81.3916"/>
<polygon fill="#191970" stroke="#191970" points="460.0344,-84.8339 469.3564,-79.7988 458.9291,-77.9218 460.0344,-84.8339"/>
</g>
<!-- Node44 -->
<g id="node45" class="node">
<title>Node44</title>
<g id="a_node45"><a xlink:href="Target_8inl.html" target="_top" xlink:title="lug/Graphics/Render\l/Target.inl">
<polygon fill="none" stroke="#000000" points="996,-458.5 996,-488.5 1115,-488.5 1115,-458.5 996,-458.5"/>
<text text-anchor="start" x="1004" y="-476.5" font-family="Helvetica,sans-Serif" font-size="10.00" fill="#000000">lug/Graphics/Render</text>
<text text-anchor="middle" x="1055.5" y="-465.5" font-family="Helvetica,sans-Serif" font-size="10.00" fill="#000000">/Target.inl</text>
</a>
</g>
</g>
<!-- Node43&#45;&gt;Node44 -->
<g id="edge67" class="edge">
<title>Node43&#45;&gt;Node44</title>
<path fill="none" stroke="#191970" d="M1074.054,-525.2967C1071.2003,-517.3299 1067.6332,-507.3718 1064.3912,-498.3213"/>
<polygon fill="#191970" stroke="#191970" points="1067.5917,-496.8771 1060.9244,-488.6432 1061.0018,-499.2377 1067.5917,-496.8771"/>
</g>
</g>
</svg>
