<?xml version="1.0" encoding="UTF-8" standalone="no"?>
<!DOCTYPE svg PUBLIC "-//W3C//DTD SVG 1.1//EN"
 "http://www.w3.org/Graphics/SVG/1.1/DTD/svg11.dtd">
<!-- Generated by graphviz version 2.40.1 (20161225.0304)
 -->
<!-- Title: include/lug/Graphics/Render/Camera.hpp Pages: 1 -->
<!--zoomable 397 -->
<svg id="main" version="1.1" xmlns="http://www.w3.org/2000/svg" xmlns:xlink="http://www.w3.org/1999/xlink" xml:space="preserve" onload="init(evt)">
<style type="text/css"><![CDATA[
.edge:hover path { stroke: red; }
.edge:hover polygon { stroke: red; fill: red; }
]]></style>
<script type="text/javascript"><![CDATA[
var edges = document.getElementsByTagName('g');
if (edges && edges.length) {
  for (var i=0;i<edges.length;i++) {
    if (edges[i].id.substr(0,4)=='edge') {
      edges[i].setAttribute('class','edge');
    }
  }
}
]]></script>
        <defs>
                <circle id="rim" cx="0" cy="0" r="7"/>
                <circle id="rim2" cx="0" cy="0" r="3.5"/>
                <g id="zoomPlus">
                        <use xlink:href="#rim" fill="#404040">
                                <set attributeName="fill" to="#808080" begin="zoomplus.mouseover" end="zoomplus.mouseout"/>
                        </use>
                        <path d="M-4,0h8M0,-4v8" fill="none" stroke="white" stroke-width="1.5" pointer-events="none"/>
                </g>
                <g id="zoomMin">
                        <use xlink:href="#rim" fill="#404040">
                                <set attributeName="fill" to="#808080" begin="zoomminus.mouseover" end="zoomminus.mouseout"/>
                        </use>
                        <path d="M-4,0h8" fill="none" stroke="white" stroke-width="1.5" pointer-events="none"/>
                </g>
                <g id="dirArrow">
                        <path fill="none" stroke="white" stroke-width="1.5" d="M0,-3.0v7 M-2.5,-0.5L0,-3.0L2.5,-0.5"/>
                </g>
               <g id="resetDef">
                       <use xlink:href="#rim2" fill="#404040">
                               <set attributeName="fill" to="#808080" begin="reset.mouseover" end="reset.mouseout"/>
                       </use>
               </g>
        </defs>

<script type="text/javascript">
var viewWidth = 1267;
var viewHeight = 397;
var sectionId = 'dynsection-0';
</script>
<script xlink:href="svgpan.js"/>
<svg id="graph" class="graph">
<g id="viewport">
<title>include/lug/Graphics/Render/Camera.hpp</title>
<!-- Node0 -->
<g id="node1" class="node">
<title>Node0</title>
<polygon fill="#bfbfbf" stroke="#000000" points="458,-358.5 458,-388.5 580,-388.5 580,-358.5 458,-358.5"/>
<text text-anchor="start" x="466" y="-376.5" font-family="Helvetica,sans-Serif" font-size="10.00" fill="#000000">include/lug/Graphics</text>
<text text-anchor="middle" x="519" y="-365.5" font-family="Helvetica,sans-Serif" font-size="10.00" fill="#000000">/Render/Camera.hpp</text>
</g>
<!-- Node1 -->
<g id="node2" class="node">
<title>Node1</title>
<g id="a_node2"><a xlink:href="Graphics_2Export_8hpp.html" target="_top" xlink:title="lug/Graphics/Export.hpp">
<polygon fill="none" stroke="#000000" points="0,-230 0,-249 138,-249 138,-230 0,-230"/>
<text text-anchor="middle" x="69" y="-237" font-family="Helvetica,sans-Serif" font-size="10.00" fill="#000000">lug/Graphics/Export.hpp</text>
</a>
</g>
</g>
<!-- Node0&#45;&gt;Node1 -->
<g id="edge1" class="edge">
<title>Node0&#45;&gt;Node1</title>
<path fill="none" stroke="#191970" d="M457.8772,-369.6056C367.8103,-363.084 204.4396,-348.0398 152,-322 121.8383,-307.0227 95.9396,-276.8554 81.4275,-257.4465"/>
<polygon fill="#191970" stroke="#191970" points="84.1144,-255.1891 75.4178,-249.1376 78.4425,-259.2915 84.1144,-255.1891"/>
</g>
<!-- Node3 -->
<g id="node4" class="node">
<title>Node3</title>
<g id="a_node4"><a xlink:href="Node_8hpp.html" target="_top" xlink:title="lug/Graphics/Node.hpp">
<polygon fill="none" stroke="#000000" points="382.5,-297 382.5,-316 513.5,-316 513.5,-297 382.5,-297"/>
<text text-anchor="middle" x="448" y="-304" font-family="Helvetica,sans-Serif" font-size="10.00" fill="#000000">lug/Graphics/Node.hpp</text>
</a>
</g>
</g>
<!-- Node0&#45;&gt;Node3 -->
<g id="edge3" class="edge">
<title>Node0&#45;&gt;Node3</title>
<path fill="none" stroke="#191970" d="M502.889,-358.2967C491.7195,-347.7564 476.856,-333.7303 465.4133,-322.9323"/>
<polygon fill="#191970" stroke="#191970" points="467.8006,-320.3727 458.1254,-316.055 462.9963,-325.4638 467.8006,-320.3727"/>
</g>
<!-- Node6 -->
<g id="node7" class="node">
<title>Node6</title>
<g id="a_node7"><a xlink:href="Matrix_8hpp.html" target="_top" xlink:title="lug/Math/Matrix.hpp">
<polygon fill="none" stroke="#000000" points="253,-112.5 253,-131.5 371,-131.5 371,-112.5 253,-112.5"/>
<text text-anchor="middle" x="312" y="-119.5" font-family="Helvetica,sans-Serif" font-size="10.00" fill="#000000">lug/Math/Matrix.hpp</text>
</a>
</g>
</g>
<!-- Node0&#45;&gt;Node6 -->
<g id="edge47" class="edge">
<title>Node0&#45;&gt;Node6</title>
<path fill="none" stroke="#191970" d="M457.6747,-358.8467C375.9879,-337.9282 238.4323,-297.3291 210,-255 187.9318,-222.1456 203.6272,-198.375 229,-168 240.8951,-153.7598 258.3885,-143.1461 274.2519,-135.7241"/>
<polygon fill="#191970" stroke="#191970" points="276.1027,-138.7343 283.854,-131.5115 273.2903,-132.324 276.1027,-138.7343"/>
</g>
<!-- Node28 -->
<g id="node29" class="node">
<title>Node28</title>
<g id="a_node29"><a xlink:href="Render_2Queue_8hpp.html" target="_top" xlink:title="lug/Graphics/Render\l/Queue.hpp">
<polygon fill="none" stroke="#000000" points="586.5,-291.5 586.5,-321.5 705.5,-321.5 705.5,-291.5 586.5,-291.5"/>
<text text-anchor="start" x="594.5" y="-309.5" font-family="Helvetica,sans-Serif" font-size="10.00" fill="#000000">lug/Graphics/Render</text>
<text text-anchor="middle" x="646" y="-298.5" font-family="Helvetica,sans-Serif" font-size="10.00" fill="#000000">/Queue.hpp</text>
</a>
</g>
</g>
<!-- Node0&#45;&gt;Node28 -->
<g id="edge36" class="edge">
<title>Node0&#45;&gt;Node28</title>
<path fill="none" stroke="#191970" d="M547.5013,-358.4639C565.4313,-349.0047 588.7753,-336.6894 608.237,-326.4222"/>
<polygon fill="#191970" stroke="#191970" points="609.9429,-329.4795 617.1544,-321.7177 606.6766,-323.2882 609.9429,-329.4795"/>
</g>
<!-- Node30 -->
<g id="node31" class="node">
<title>Node30</title>
<g id="a_node31"><a xlink:href="Transform_8hpp.html" target="_top" xlink:title="lug/Math/Geometry/Transform.hpp">
<polygon fill="none" stroke="#000000" points="854,-230 854,-249 1046,-249 1046,-230 854,-230"/>
<text text-anchor="middle" x="950" y="-237" font-family="Helvetica,sans-Serif" font-size="10.00" fill="#000000">lug/Math/Geometry/Transform.hpp</text>
</a>
</g>
</g>
<!-- Node0&#45;&gt;Node30 -->
<g id="edge39" class="edge">
<title>Node0&#45;&gt;Node30</title>
<path fill="none" stroke="#191970" d="M580.0635,-364.1994C619.9609,-356.5239 672.3736,-343.3467 715,-322 734.7982,-312.0853 734.2018,-300.9147 754,-291 792.6965,-271.6213 839.4581,-258.9752 877.6,-251.0659"/>
<polygon fill="#191970" stroke="#191970" points="878.4912,-254.4569 887.6069,-249.0575 877.1137,-247.5937 878.4912,-254.4569"/>
</g>
<!-- Node35 -->
<g id="node36" class="node">
<title>Node35</title>
<g id="a_node36"><a xlink:href="Camera_8inl.html" target="_top" xlink:title="lug/Graphics/Render\l/Camera.inl">
<polygon fill="none" stroke="#000000" points="762.5,-291.5 762.5,-321.5 881.5,-321.5 881.5,-291.5 762.5,-291.5"/>
<text text-anchor="start" x="770.5" y="-309.5" font-family="Helvetica,sans-Serif" font-size="10.00" fill="#000000">lug/Graphics/Render</text>
<text text-anchor="middle" x="822" y="-298.5" font-family="Helvetica,sans-Serif" font-size="10.00" fill="#000000">/Camera.inl</text>
</a>
</g>
</g>
<!-- Node0&#45;&gt;Node35 -->
<g id="edge48" class="edge">
<title>Node0&#45;&gt;Node35</title>
<path fill="none" stroke="#191970" d="M580.3166,-359.9416C630.1902,-348.9134 700.5648,-333.352 752.5184,-321.8639"/>
<polygon fill="#191970" stroke="#191970" points="753.315,-325.2724 762.3235,-319.6958 751.8036,-318.4375 753.315,-325.2724"/>
</g>
<!-- Node2 -->
<g id="node3" class="node">
<title>Node2</title>
<g id="a_node3"><a xlink:href="Config_8hpp.html" target="_top" xlink:title="lug/Config.hpp">
<polygon fill="none" stroke="#000000" points="56.5,-.5 56.5,-19.5 145.5,-19.5 145.5,-.5 56.5,-.5"/>
<text text-anchor="middle" x="101" y="-7.5" font-family="Helvetica,sans-Serif" font-size="10.00" fill="#000000">lug/Config.hpp</text>
</a>
</g>
</g>
<!-- Node1&#45;&gt;Node2 -->
<g id="edge2" class="edge">
<title>Node1&#45;&gt;Node2</title>
<path fill="none" stroke="#191970" d="M62.7261,-229.6833C45.3248,-201.1038 -.2031,-116.1721 32,-56 39.4515,-42.0767 53.1849,-31.6399 66.449,-24.258"/>
<polygon fill="#191970" stroke="#191970" points="68.1726,-27.3075 75.4738,-19.6302 64.9785,-21.0787 68.1726,-27.3075"/>
</g>
<!-- Node3&#45;&gt;Node1 -->
<g id="edge6" class="edge">
<title>Node3&#45;&gt;Node1</title>
<path fill="none" stroke="#191970" d="M394.101,-296.9717C325.2983,-284.8087 206.4138,-263.7921 133.0582,-250.8243"/>
<polygon fill="#191970" stroke="#191970" points="133.4761,-247.344 123.0195,-249.0496 132.2575,-254.2371 133.4761,-247.344"/>
</g>
<!-- Node4 -->
<g id="node5" class="node">
<title>Node4</title>
<polygon fill="none" stroke="#bfbfbf" points="391.5,-230 391.5,-249 450.5,-249 450.5,-230 391.5,-230"/>
<text text-anchor="middle" x="421" y="-237" font-family="Helvetica,sans-Serif" font-size="10.00" fill="#000000">memory</text>
</g>
<!-- Node3&#45;&gt;Node4 -->
<g id="edge4" class="edge">
<title>Node3&#45;&gt;Node4</title>
<path fill="none" stroke="#191970" d="M444.1316,-296.9005C440.1216,-286.95 433.7461,-271.1292 428.703,-258.6147"/>
<polygon fill="#191970" stroke="#191970" points="431.8454,-257.0486 424.8613,-249.0817 425.3528,-259.6651 431.8454,-257.0486"/>
</g>
<!-- Node5 -->
<g id="node6" class="node">
<title>Node5</title>
<polygon fill="none" stroke="#bfbfbf" points="650,-230 650,-249 698,-249 698,-230 650,-230"/>
<text text-anchor="middle" x="674" y="-237" font-family="Helvetica,sans-Serif" font-size="10.00" fill="#000000">vector</text>
</g>
<!-- Node3&#45;&gt;Node5 -->
<g id="edge5" class="edge">
<title>Node3&#45;&gt;Node5</title>
<path fill="none" stroke="#191970" d="M488.3966,-296.9252C526.7568,-287.4835 585.8504,-272.0283 636,-255 637.9228,-254.3471 639.8884,-253.6475 641.8635,-252.9196"/>
<polygon fill="#191970" stroke="#191970" points="643.5986,-256.0014 651.6636,-249.1306 641.0743,-249.4724 643.5986,-256.0014"/>
</g>
<!-- Node3&#45;&gt;Node6 -->
<g id="edge7" class="edge">
<title>Node3&#45;&gt;Node6</title>
<path fill="none" stroke="#191970" d="M382.4458,-300.3793C323.5944,-293.3675 243.542,-279.5447 224,-255 192.0448,-214.8642 252.453,-163.1503 288.258,-137.6467"/>
<polygon fill="#191970" stroke="#191970" points="290.5372,-140.3254 296.7597,-131.7504 286.5479,-134.5734 290.5372,-140.3254"/>
</g>
<!-- Node20 -->
<g id="node21" class="node">
<title>Node20</title>
<g id="a_node21"><a xlink:href="Quaternion_8hpp.html" target="_top" xlink:title="lug/Math/Quaternion.hpp">
<polygon fill="none" stroke="#000000" points="232.5,-230 232.5,-249 373.5,-249 373.5,-230 232.5,-230"/>
<text text-anchor="middle" x="303" y="-237" font-family="Helvetica,sans-Serif" font-size="10.00" fill="#000000">lug/Math/Quaternion.hpp</text>
</a>
</g>
</g>
<!-- Node3&#45;&gt;Node20 -->
<g id="edge23" class="edge">
<title>Node3&#45;&gt;Node20</title>
<path fill="none" stroke="#191970" d="M427.225,-296.9005C402.5677,-285.5072 361.2549,-266.4178 333.0982,-253.4075"/>
<polygon fill="#191970" stroke="#191970" points="334.2823,-250.099 323.7364,-249.0817 331.3461,-256.4535 334.2823,-250.099"/>
</g>
<!-- Node21 -->
<g id="node22" class="node">
<title>Node21</title>
<g id="a_node22"><a xlink:href="Vector_8hpp.html" target="_top" xlink:title="lug/Math/Vector.hpp">
<polygon fill="none" stroke="#000000" points="552.5,-168.5 552.5,-187.5 671.5,-187.5 671.5,-168.5 552.5,-168.5"/>
<text text-anchor="middle" x="612" y="-175.5" font-family="Helvetica,sans-Serif" font-size="10.00" fill="#000000">lug/Math/Vector.hpp</text>
</a>
</g>
</g>
<!-- Node3&#45;&gt;Node21 -->
<g id="edge34" class="edge">
<title>Node3&#45;&gt;Node21</title>
<path fill="none" stroke="#191970" d="M494.0845,-296.9169C534.5346,-287.5253 589.0378,-272.1539 603,-255 616.0331,-238.9877 616.6785,-214.5176 615.1023,-197.4751"/>
<polygon fill="#191970" stroke="#191970" points="618.5701,-196.999 613.8536,-187.5119 611.6245,-197.8695 618.5701,-196.999"/>
</g>
<!-- Node27 -->
<g id="node28" class="node">
<title>Node27</title>
<g id="a_node28"><a xlink:href="Node_8inl.html" target="_top" xlink:title="lug/Graphics/Node.inl">
<polygon fill="none" stroke="#000000" points="468.5,-230 468.5,-249 593.5,-249 593.5,-230 468.5,-230"/>
<text text-anchor="middle" x="531" y="-237" font-family="Helvetica,sans-Serif" font-size="10.00" fill="#000000">lug/Graphics/Node.inl</text>
</a>
</g>
</g>
<!-- Node3&#45;&gt;Node27 -->
<g id="edge35" class="edge">
<title>Node3&#45;&gt;Node27</title>
<path fill="none" stroke="#191970" d="M459.8919,-296.9005C473.2048,-286.1539 494.9999,-268.5603 510.9568,-255.6794"/>
<polygon fill="#191970" stroke="#191970" points="513.5474,-258.0863 519.1302,-249.0817 509.1506,-252.6395 513.5474,-258.0863"/>
</g>
<!-- Node7 -->
<g id="node8" class="node">
<title>Node7</title>
<polygon fill="none" stroke="#bfbfbf" points="684,-56.5 684,-75.5 734,-75.5 734,-56.5 684,-56.5"/>
<text text-anchor="middle" x="709" y="-63.5" font-family="Helvetica,sans-Serif" font-size="10.00" fill="#000000">cstdint</text>
</g>
<!-- Node6&#45;&gt;Node7 -->
<g id="edge8" class="edge">
<title>Node6&#45;&gt;Node7</title>
<path fill="none" stroke="#191970" d="M371.2666,-117.4221C441.4162,-111.3515 561.823,-98.8855 673.7532,-75.9828"/>
<polygon fill="#191970" stroke="#191970" points="674.785,-79.3432 683.863,-73.8805 673.3598,-72.4898 674.785,-79.3432"/>
</g>
<!-- Node8 -->
<g id="node9" class="node">
<title>Node8</title>
<polygon fill="none" stroke="#bfbfbf" points="178.5,-56.5 178.5,-75.5 237.5,-75.5 237.5,-56.5 178.5,-56.5"/>
<text text-anchor="middle" x="208" y="-63.5" font-family="Helvetica,sans-Serif" font-size="10.00" fill="#000000">valarray</text>
</g>
<!-- Node6&#45;&gt;Node8 -->
<g id="edge9" class="edge">
<title>Node6&#45;&gt;Node8</title>
<path fill="none" stroke="#191970" d="M293.8846,-112.2455C277.555,-103.4527 253.329,-90.4079 234.7661,-80.4125"/>
<polygon fill="#191970" stroke="#191970" points="236.3719,-77.3021 225.9078,-75.6427 233.0532,-83.4654 236.3719,-77.3021"/>
</g>
<!-- Node9 -->
<g id="node10" class="node">
<title>Node9</title>
<g id="a_node10"><a xlink:href="Math_2Export_8hpp.html" target="_top" xlink:title="lug/Math/Export.hpp">
<polygon fill="none" stroke="#000000" points="41.5,-56.5 41.5,-75.5 160.5,-75.5 160.5,-56.5 41.5,-56.5"/>
<text text-anchor="middle" x="101" y="-63.5" font-family="Helvetica,sans-Serif" font-size="10.00" fill="#000000">lug/Math/Export.hpp</text>
</a>
</g>
</g>
<!-- Node6&#45;&gt;Node9 -->
<g id="edge10" class="edge">
<title>Node6&#45;&gt;Node9</title>
<path fill="none" stroke="#191970" d="M275.7278,-112.3733C240.0342,-102.9001 185.4121,-88.4032 146.7549,-78.1435"/>
<polygon fill="#191970" stroke="#191970" points="147.3621,-74.6835 136.7989,-75.5011 145.5664,-81.4493 147.3621,-74.6835"/>
</g>
<!-- Node10 -->
<g id="node11" class="node">
<title>Node10</title>
<g id="a_node11"><a xlink:href="ValArray_8hpp.html" target="_top" xlink:title="lug/Math/ValArray.hpp">
<polygon fill="none" stroke="#000000" points="536,-56.5 536,-75.5 666,-75.5 666,-56.5 536,-56.5"/>
<text text-anchor="middle" x="601" y="-63.5" font-family="Helvetica,sans-Serif" font-size="10.00" fill="#000000">lug/Math/ValArray.hpp</text>
</a>
</g>
</g>
<!-- Node6&#45;&gt;Node10 -->
<g id="edge12" class="edge">
<title>Node6&#45;&gt;Node10</title>
<path fill="none" stroke="#191970" d="M361.3525,-112.4369C411.3322,-102.7522 488.6498,-87.7703 541.8742,-77.4569"/>
<polygon fill="#191970" stroke="#191970" points="542.6995,-80.8622 551.8511,-75.5237 541.3678,-73.99 542.6995,-80.8622"/>
</g>
<!-- Node16 -->
<g id="node17" class="node">
<title>Node16</title>
<g id="a_node17"><a xlink:href="Debug_8hpp.html" target="_top" xlink:title="lug/System/Debug.hpp">
<polygon fill="none" stroke="#000000" points="386.5,-56.5 386.5,-75.5 517.5,-75.5 517.5,-56.5 386.5,-56.5"/>
<text text-anchor="middle" x="452" y="-63.5" font-family="Helvetica,sans-Serif" font-size="10.00" fill="#000000">lug/System/Debug.hpp</text>
</a>
</g>
</g>
<!-- Node6&#45;&gt;Node16 -->
<g id="edge18" class="edge">
<title>Node6&#45;&gt;Node16</title>
<path fill="none" stroke="#191970" d="M336.0669,-112.3733C358.8428,-103.2629 393.2344,-89.5062 418.649,-79.3404"/>
<polygon fill="#191970" stroke="#191970" points="420.2623,-82.4648 428.2472,-75.5011 417.6625,-75.9654 420.2623,-82.4648"/>
</g>
<!-- Node19 -->
<g id="node20" class="node">
<title>Node19</title>
<g id="a_node20"><a xlink:href="Matrix_8inl.html" target="_top" xlink:title="lug/Math/Matrix.inl">
<polygon fill="none" stroke="#000000" points="256,-56.5 256,-75.5 368,-75.5 368,-56.5 256,-56.5"/>
<text text-anchor="middle" x="312" y="-63.5" font-family="Helvetica,sans-Serif" font-size="10.00" fill="#000000">lug/Math/Matrix.inl</text>
</a>
</g>
</g>
<!-- Node6&#45;&gt;Node19 -->
<g id="edge22" class="edge">
<title>Node6&#45;&gt;Node19</title>
<path fill="none" stroke="#191970" d="M312,-112.2455C312,-104.9382 312,-94.6944 312,-85.7046"/>
<polygon fill="#191970" stroke="#191970" points="315.5001,-85.6426 312,-75.6427 308.5001,-85.6427 315.5001,-85.6426"/>
</g>
<!-- Node9&#45;&gt;Node2 -->
<g id="edge11" class="edge">
<title>Node9&#45;&gt;Node2</title>
<path fill="none" stroke="#191970" d="M101,-56.2455C101,-48.9382 101,-38.6944 101,-29.7046"/>
<polygon fill="#191970" stroke="#191970" points="104.5001,-29.6426 101,-19.6427 97.5001,-29.6427 104.5001,-29.6426"/>
</g>
<!-- Node11 -->
<g id="node12" class="node">
<title>Node11</title>
<polygon fill="none" stroke="#bfbfbf" points="787.5,-.5 787.5,-19.5 852.5,-19.5 852.5,-.5 787.5,-.5"/>
<text text-anchor="middle" x="820" y="-7.5" font-family="Helvetica,sans-Serif" font-size="10.00" fill="#000000">algorithm</text>
</g>
<!-- Node10&#45;&gt;Node11 -->
<g id="edge13" class="edge">
<title>Node10&#45;&gt;Node11</title>
<path fill="none" stroke="#191970" d="M638.6474,-56.3733C677.3177,-46.485 737.3934,-31.1232 777.686,-20.82"/>
<polygon fill="#191970" stroke="#191970" points="778.6574,-24.1843 787.4786,-18.316 776.9232,-17.4025 778.6574,-24.1843"/>
</g>
<!-- Node12 -->
<g id="node13" class="node">
<title>Node12</title>
<polygon fill="none" stroke="#bfbfbf" points="871,-.5 871,-19.5 915,-19.5 915,-.5 871,-.5"/>
<text text-anchor="middle" x="893" y="-7.5" font-family="Helvetica,sans-Serif" font-size="10.00" fill="#000000">array</text>
</g>
<!-- Node10&#45;&gt;Node12 -->
<g id="edge14" class="edge">
<title>Node10&#45;&gt;Node12</title>
<path fill="none" stroke="#191970" d="M666.1439,-57.064C716.8754,-49.5245 789.1717,-37.5134 860.673,-20.077"/>
<polygon fill="#191970" stroke="#191970" points="861.8891,-23.3817 870.7546,-17.5806 860.2065,-16.5869 861.8891,-23.3817"/>
</g>
<!-- Node13 -->
<g id="node14" class="node">
<title>Node13</title>
<polygon fill="none" stroke="#bfbfbf" points="501,-.5 501,-19.5 551,-19.5 551,-.5 501,-.5"/>
<text text-anchor="middle" x="526" y="-7.5" font-family="Helvetica,sans-Serif" font-size="10.00" fill="#000000">cstring</text>
</g>
<!-- Node10&#45;&gt;Node13 -->
<g id="edge15" class="edge">
<title>Node10&#45;&gt;Node13</title>
<path fill="none" stroke="#191970" d="M587.936,-56.2455C576.6438,-47.814 560.1155,-35.4729 546.9729,-25.6598"/>
<polygon fill="#191970" stroke="#191970" points="549.0211,-22.8211 538.9143,-19.6427 544.8331,-28.4301 549.0211,-22.8211"/>
</g>
<!-- Node14 -->
<g id="node15" class="node">
<title>Node14</title>
<polygon fill="none" stroke="#bfbfbf" points="569.5,-.5 569.5,-19.5 626.5,-19.5 626.5,-.5 569.5,-.5"/>
<text text-anchor="middle" x="598" y="-7.5" font-family="Helvetica,sans-Serif" font-size="10.00" fill="#000000">numeric</text>
</g>
<!-- Node10&#45;&gt;Node14 -->
<g id="edge16" class="edge">
<title>Node10&#45;&gt;Node14</title>
<path fill="none" stroke="#191970" d="M600.4774,-56.2455C600.086,-48.9382 599.5372,-38.6944 599.0556,-29.7046"/>
<polygon fill="#191970" stroke="#191970" points="602.5466,-29.4411 598.5166,-19.6427 595.5566,-29.8156 602.5466,-29.4411"/>
</g>
<!-- Node15 -->
<g id="node16" class="node">
<title>Node15</title>
<g id="a_node16"><a xlink:href="ValArray_8inl.html" target="_top" xlink:title="lug/Math/ValArray.inl">
<polygon fill="none" stroke="#000000" points="645,-.5 645,-19.5 769,-19.5 769,-.5 645,-.5"/>
<text text-anchor="middle" x="707" y="-7.5" font-family="Helvetica,sans-Serif" font-size="10.00" fill="#000000">lug/Math/ValArray.inl</text>
</a>
</g>
</g>
<!-- Node10&#45;&gt;Node15 -->
<g id="edge17" class="edge">
<title>Node10&#45;&gt;Node15</title>
<path fill="none" stroke="#191970" d="M619.4638,-56.2455C636.1074,-47.4527 660.7993,-34.4079 679.7192,-24.4125"/>
<polygon fill="#191970" stroke="#191970" points="681.5408,-27.4086 688.7478,-19.6427 678.2709,-21.2193 681.5408,-27.4086"/>
</g>
<!-- Node16&#45;&gt;Node2 -->
<g id="edge19" class="edge">
<title>Node16&#45;&gt;Node2</title>
<path fill="none" stroke="#191970" d="M392.0598,-56.4369C325.7087,-45.851 219.6872,-28.9359 155.5731,-18.7068"/>
<polygon fill="#191970" stroke="#191970" points="156.0821,-15.2438 145.6555,-17.1245 154.9791,-22.1564 156.0821,-15.2438"/>
</g>
<!-- Node17 -->
<g id="node18" class="node">
<title>Node17</title>
<g id="a_node18"><a xlink:href="Utils_8hpp.html" target="_top" xlink:title="lug/System/Utils.hpp">
<polygon fill="none" stroke="#000000" points="281,-.5 281,-19.5 403,-19.5 403,-.5 281,-.5"/>
<text text-anchor="middle" x="342" y="-7.5" font-family="Helvetica,sans-Serif" font-size="10.00" fill="#000000">lug/System/Utils.hpp</text>
</a>
</g>
</g>
<!-- Node16&#45;&gt;Node17 -->
<g id="edge20" class="edge">
<title>Node16&#45;&gt;Node17</title>
<path fill="none" stroke="#191970" d="M432.8395,-56.2455C415.4889,-47.4125 389.7099,-34.2887 370.0417,-24.2758"/>
<polygon fill="#191970" stroke="#191970" points="371.4405,-21.0605 360.941,-19.6427 368.2647,-27.2986 371.4405,-21.0605"/>
</g>
<!-- Node18 -->
<g id="node19" class="node">
<title>Node18</title>
<polygon fill="none" stroke="#bfbfbf" points="421.5,-.5 421.5,-19.5 482.5,-19.5 482.5,-.5 421.5,-.5"/>
<text text-anchor="middle" x="452" y="-7.5" font-family="Helvetica,sans-Serif" font-size="10.00" fill="#000000">iostream</text>
</g>
<!-- Node16&#45;&gt;Node18 -->
<g id="edge21" class="edge">
<title>Node16&#45;&gt;Node18</title>
<path fill="none" stroke="#191970" d="M452,-56.2455C452,-48.9382 452,-38.6944 452,-29.7046"/>
<polygon fill="#191970" stroke="#191970" points="455.5001,-29.6426 452,-19.6427 448.5001,-29.6427 455.5001,-29.6426"/>
</g>
<!-- Node20&#45;&gt;Node6 -->
<g id="edge25" class="edge">
<title>Node20&#45;&gt;Node6</title>
<path fill="none" stroke="#191970" d="M303.7365,-229.8845C305.2066,-210.6913 308.5313,-167.286 310.486,-141.7663"/>
<polygon fill="#191970" stroke="#191970" points="313.9793,-141.9865 311.2533,-131.7484 306.9997,-141.4518 313.9793,-141.9865"/>
</g>
<!-- Node20&#45;&gt;Node9 -->
<g id="edge24" class="edge">
<title>Node20&#45;&gt;Node9</title>
<path fill="none" stroke="#191970" d="M291.8519,-229.9248C258.8887,-201.6124 161.6032,-118.0528 120.1058,-82.4101"/>
<polygon fill="#191970" stroke="#191970" points="122.2291,-79.6201 112.3627,-75.7595 117.6682,-84.9303 122.2291,-79.6201"/>
</g>
<!-- Node20&#45;&gt;Node21 -->
<g id="edge26" class="edge">
<title>Node20&#45;&gt;Node21</title>
<path fill="none" stroke="#191970" d="M350.9422,-229.9581C405.8264,-219.0345 495.6896,-201.1492 554.3457,-189.4749"/>
<polygon fill="#191970" stroke="#191970" points="555.0752,-192.8984 564.1996,-187.5137 553.7087,-186.0331 555.0752,-192.8984"/>
</g>
<!-- Node23 -->
<g id="node24" class="node">
<title>Node23</title>
<g id="a_node24"><a xlink:href="Constant_8hpp.html" target="_top" xlink:title="lug/Math/Constant.hpp">
<polygon fill="none" stroke="#000000" points="699,-168.5 699,-187.5 829,-187.5 829,-168.5 699,-168.5"/>
<text text-anchor="middle" x="764" y="-175.5" font-family="Helvetica,sans-Serif" font-size="10.00" fill="#000000">lug/Math/Constant.hpp</text>
</a>
</g>
</g>
<!-- Node20&#45;&gt;Node23 -->
<g id="edge30" class="edge">
<title>Node20&#45;&gt;Node23</title>
<path fill="none" stroke="#191970" d="M349.4345,-229.9229C360.4138,-227.8196 372.0988,-225.7119 383,-224 384.8799,-223.7048 578.3275,-200.3781 688.8116,-187.0611"/>
<polygon fill="#191970" stroke="#191970" points="689.3988,-190.5158 698.9081,-185.8442 688.5611,-183.5661 689.3988,-190.5158"/>
</g>
<!-- Node26 -->
<g id="node27" class="node">
<title>Node26</title>
<g id="a_node27"><a xlink:href="Quaternion_8inl.html" target="_top" xlink:title="lug/Math/Quaternion.inl">
<polygon fill="none" stroke="#000000" points="331.5,-168.5 331.5,-187.5 466.5,-187.5 466.5,-168.5 331.5,-168.5"/>
<text text-anchor="middle" x="399" y="-175.5" font-family="Helvetica,sans-Serif" font-size="10.00" fill="#000000">lug/Math/Quaternion.inl</text>
</a>
</g>
</g>
<!-- Node20&#45;&gt;Node26 -->
<g id="edge33" class="edge">
<title>Node20&#45;&gt;Node26</title>
<path fill="none" stroke="#191970" d="M318,-229.8906C333.3581,-220.0519 357.4521,-204.6167 375.3745,-193.1351"/>
<polygon fill="#191970" stroke="#191970" points="377.573,-195.8833 384.1053,-187.5419 373.797,-189.9891 377.573,-195.8833"/>
</g>
<!-- Node21&#45;&gt;Node6 -->
<g id="edge28" class="edge">
<title>Node21&#45;&gt;Node6</title>
<path fill="none" stroke="#191970" d="M560.769,-168.4369C508.7792,-158.7321 428.2927,-143.708 373.0319,-133.3926"/>
<polygon fill="#191970" stroke="#191970" points="373.4921,-129.9182 363.0197,-131.5237 372.2076,-136.7993 373.4921,-129.9182"/>
</g>
<!-- Node21&#45;&gt;Node7 -->
<g id="edge27" class="edge">
<title>Node21&#45;&gt;Node7</title>
<path fill="none" stroke="#191970" d="M595.9518,-168.4074C576.5513,-155.5859 548.2304,-132.1388 563,-112 564.7096,-109.6689 631.5793,-89.2452 674.218,-76.4076"/>
<polygon fill="#191970" stroke="#191970" points="675.3903,-79.71 683.9596,-73.4796 673.3754,-73.0063 675.3903,-79.71"/>
</g>
<!-- Node22 -->
<g id="node23" class="node">
<title>Node22</title>
<g id="a_node23"><a xlink:href="Vector_8inl.html" target="_top" xlink:title="lug/Math/Vector.inl">
<polygon fill="none" stroke="#000000" points="571.5,-112.5 571.5,-131.5 684.5,-131.5 684.5,-112.5 571.5,-112.5"/>
<text text-anchor="middle" x="628" y="-119.5" font-family="Helvetica,sans-Serif" font-size="10.00" fill="#000000">lug/Math/Vector.inl</text>
</a>
</g>
</g>
<!-- Node21&#45;&gt;Node22 -->
<g id="edge29" class="edge">
<title>Node21&#45;&gt;Node22</title>
<path fill="none" stroke="#191970" d="M614.787,-168.2455C616.8977,-160.8579 619.866,-150.4689 622.4547,-141.4087"/>
<polygon fill="#191970" stroke="#191970" points="625.863,-142.2195 625.245,-131.6427 619.1323,-140.2964 625.863,-142.2195"/>
</g>
<!-- Node24 -->
<g id="node25" class="node">
<title>Node24</title>
<polygon fill="none" stroke="#bfbfbf" points="918,-112.5 918,-131.5 962,-131.5 962,-112.5 918,-112.5"/>
<text text-anchor="middle" x="940" y="-119.5" font-family="Helvetica,sans-Serif" font-size="10.00" fill="#000000">limits</text>
</g>
<!-- Node23&#45;&gt;Node24 -->
<g id="edge31" class="edge">
<title>Node23&#45;&gt;Node24</title>
<path fill="none" stroke="#191970" d="M794.2555,-168.3733C826.0048,-158.2712 875.7085,-142.4564 908.0717,-132.159"/>
<polygon fill="#191970" stroke="#191970" points="909.4572,-135.3911 917.9252,-129.0238 907.3347,-128.7207 909.4572,-135.3911"/>
</g>
<!-- Node25 -->
<g id="node26" class="node">
<title>Node25</title>
<g id="a_node26"><a xlink:href="Constant_8inl.html" target="_top" xlink:title="lug/Math/Constant.inl">
<polygon fill="none" stroke="#000000" points="703,-112.5 703,-131.5 827,-131.5 827,-112.5 703,-112.5"/>
<text text-anchor="middle" x="765" y="-119.5" font-family="Helvetica,sans-Serif" font-size="10.00" fill="#000000">lug/Math/Constant.inl</text>
</a>
</g>
</g>
<!-- Node23&#45;&gt;Node25 -->
<g id="edge32" class="edge">
<title>Node23&#45;&gt;Node25</title>
<path fill="none" stroke="#191970" d="M764.1742,-168.2455C764.3047,-160.9382 764.4876,-150.6944 764.6481,-141.7046"/>
<polygon fill="#191970" stroke="#191970" points="768.1486,-141.7036 764.8278,-131.6427 761.1497,-141.5786 768.1486,-141.7036"/>
</g>
<!-- Node28&#45;&gt;Node5 -->
<g id="edge37" class="edge">
<title>Node28&#45;&gt;Node5</title>
<path fill="none" stroke="#191970" d="M652.3536,-291.2967C656.4197,-281.5672 661.727,-268.8675 666.0687,-258.4784"/>
<polygon fill="#191970" stroke="#191970" points="669.3802,-259.6313 670.0069,-249.055 662.9215,-256.9321 669.3802,-259.6313"/>
</g>
<!-- Node29 -->
<g id="node30" class="node">
<title>Node29</title>
<g id="a_node30"><a xlink:href="Render_2Queue_8inl.html" target="_top" xlink:title="lug/Graphics/Render\l/Queue.inl">
<polygon fill="none" stroke="#000000" points="716.5,-224.5 716.5,-254.5 835.5,-254.5 835.5,-224.5 716.5,-224.5"/>
<text text-anchor="start" x="724.5" y="-242.5" font-family="Helvetica,sans-Serif" font-size="10.00" fill="#000000">lug/Graphics/Render</text>
<text text-anchor="middle" x="776" y="-231.5" font-family="Helvetica,sans-Serif" font-size="10.00" fill="#000000">/Queue.inl</text>
</a>
</g>
</g>
<!-- Node28&#45;&gt;Node29 -->
<g id="edge38" class="edge">
<title>Node28&#45;&gt;Node29</title>
<path fill="none" stroke="#191970" d="M675.1745,-291.4639C693.5281,-282.0047 717.4235,-269.6894 737.345,-259.4222"/>
<polygon fill="#191970" stroke="#191970" points="739.1876,-262.4101 746.473,-254.7177 735.9807,-256.1879 739.1876,-262.4101"/>
</g>
<!-- Node30&#45;&gt;Node6 -->
<g id="edge44" class="edge">
<title>Node30&#45;&gt;Node6</title>
<path fill="none" stroke="#191970" d="M887.5774,-229.9966C873.5784,-227.9458 858.7897,-225.8421 845,-224 711.4551,-206.1605 675.977,-215.1027 544,-188 513.1417,-181.6629 506.2776,-176.6985 476,-168 435.5617,-156.3825 389.4142,-143.4693 356.395,-134.2894"/>
<polygon fill="#191970" stroke="#191970" points="357.1619,-130.87 346.59,-131.5659 355.2884,-137.6146 357.1619,-130.87"/>
</g>
<!-- Node30&#45;&gt;Node21 -->
<g id="edge45" class="edge">
<title>Node30&#45;&gt;Node21</title>
<path fill="none" stroke="#191970" d="M897.5584,-229.9581C837.2751,-218.9894 738.4133,-201.0012 674.2716,-189.3305"/>
<polygon fill="#191970" stroke="#191970" points="674.7516,-185.8604 664.2866,-187.5137 673.4985,-192.7474 674.7516,-185.8604"/>
</g>
<!-- Node31 -->
<g id="node32" class="node">
<title>Node31</title>
<g id="a_node32"><a xlink:href="Trigonometry_8hpp.html" target="_top" xlink:title="lug/Math/Geometry/Trigonometry.hpp">
<polygon fill="none" stroke="#000000" points="1051,-168.5 1051,-187.5 1259,-187.5 1259,-168.5 1051,-168.5"/>
<text text-anchor="middle" x="1155" y="-175.5" font-family="Helvetica,sans-Serif" font-size="10.00" fill="#000000">lug/Math/Geometry/Trigonometry.hpp</text>
</a>
</g>
</g>
<!-- Node30&#45;&gt;Node31 -->
<g id="edge40" class="edge">
<title>Node30&#45;&gt;Node31</title>
<path fill="none" stroke="#191970" d="M982.0313,-229.8906C1017.3846,-219.2846 1074.4157,-202.1753 1113.2478,-190.5257"/>
<polygon fill="#191970" stroke="#191970" points="1114.6212,-193.7678 1123.1937,-187.5419 1112.6097,-187.0631 1114.6212,-193.7678"/>
</g>
<!-- Node34 -->
<g id="node35" class="node">
<title>Node34</title>
<g id="a_node35"><a xlink:href="Transform_8inl.html" target="_top" xlink:title="lug/Math/Geometry/Transform.inl">
<polygon fill="none" stroke="#000000" points="847,-168.5 847,-187.5 1033,-187.5 1033,-168.5 847,-168.5"/>
<text text-anchor="middle" x="940" y="-175.5" font-family="Helvetica,sans-Serif" font-size="10.00" fill="#000000">lug/Math/Geometry/Transform.inl</text>
</a>
</g>
</g>
<!-- Node30&#45;&gt;Node34 -->
<g id="edge46" class="edge">
<title>Node30&#45;&gt;Node34</title>
<path fill="none" stroke="#191970" d="M948.4375,-229.8906C947.0513,-221.3657 944.982,-208.6392 943.2396,-197.9235"/>
<polygon fill="#191970" stroke="#191970" points="946.6442,-197.0535 941.5845,-187.7449 939.7349,-198.177 946.6442,-197.0535"/>
</g>
<!-- Node31&#45;&gt;Node24 -->
<g id="edge42" class="edge">
<title>Node31&#45;&gt;Node24</title>
<path fill="none" stroke="#191970" d="M1115.0947,-168.4818C1078.1263,-159.5297 1021.6735,-145.5179 973,-132 972.6755,-131.9099 972.3494,-131.8189 972.0218,-131.7271"/>
<polygon fill="#191970" stroke="#191970" points="972.9043,-128.339 962.3254,-128.9193 970.9572,-135.0627 972.9043,-128.339"/>
</g>
<!-- Node32 -->
<g id="node33" class="node">
<title>Node32</title>
<polygon fill="none" stroke="#bfbfbf" points="1202.5,-112.5 1202.5,-131.5 1249.5,-131.5 1249.5,-112.5 1202.5,-112.5"/>
<text text-anchor="middle" x="1226" y="-119.5" font-family="Helvetica,sans-Serif" font-size="10.00" fill="#000000">cmath</text>
</g>
<!-- Node31&#45;&gt;Node32 -->
<g id="edge41" class="edge">
<title>Node31&#45;&gt;Node32</title>
<path fill="none" stroke="#191970" d="M1167.3673,-168.2455C1177.9554,-159.8943 1193.4064,-147.7076 1205.7893,-137.9408"/>
<polygon fill="#191970" stroke="#191970" points="1208.0903,-140.5837 1213.7745,-131.6427 1203.7553,-135.0875 1208.0903,-140.5837"/>
</g>
<!-- Node33 -->
<g id="node34" class="node">
<title>Node33</title>
<g id="a_node34"><a xlink:href="Trigonometry_8inl.html" target="_top" xlink:title="lug/Math/Geometry/Trigonometry.inl">
<polygon fill="none" stroke="#000000" points="982,-112.5 982,-131.5 1184,-131.5 1184,-112.5 982,-112.5"/>
<text text-anchor="middle" x="1083" y="-119.5" font-family="Helvetica,sans-Serif" font-size="10.00" fill="#000000">lug/Math/Geometry/Trigonometry.inl</text>
</a>
</g>
</g>
<!-- Node31&#45;&gt;Node33 -->
<g id="edge43" class="edge">
<title>Node31&#45;&gt;Node33</title>
<path fill="none" stroke="#191970" d="M1142.4586,-168.2455C1131.7213,-159.8943 1116.0527,-147.7076 1103.4953,-137.9408"/>
<polygon fill="#191970" stroke="#191970" points="1105.4401,-135.0194 1095.3977,-131.6427 1101.1425,-140.5449 1105.4401,-135.0194"/>
</g>
</g>
</svg>
        <g id="navigator" transform="translate(0 0)" fill="#404254">
                <rect fill="#f2f5e9" fill-opacity="0.5" stroke="#606060" stroke-width=".5" x="0" y="0" width="60" height="60"/>
                <use id="zoomplus" xlink:href="#zoomPlus" x="17" y="9" onmousedown="handleZoom(evt,'in')"/>
                <use id="zoomminus" xlink:href="#zoomMin" x="42" y="9" onmousedown="handleZoom(evt,'out')"/>
                <use id="reset" xlink:href="#resetDef" x="30" y="36" onmousedown="handleReset()"/>
                <g id="arrowUp" xlink:href="#dirArrow" transform="translate(30 24)" onmousedown="handlePan(0,-1)">
                  <use xlink:href="#rim" fill="#404040">
                        <set attributeName="fill" to="#808080" begin="arrowUp.mouseover" end="arrowUp.mouseout"/>
                  </use>
                  <path fill="none" stroke="white" stroke-width="1.5" d="M0,-3.0v7 M-2.5,-0.5L0,-3.0L2.5,-0.5"/>
                </g>
                <g id="arrowRight" xlink:href="#dirArrow" transform="rotate(90) translate(36 -43)" onmousedown="handlePan(1,0)">
                  <use xlink:href="#rim" fill="#404040">
                        <set attributeName="fill" to="#808080" begin="arrowRight.mouseover" end="arrowRight.mouseout"/>
                  </use>
                  <path fill="none" stroke="white" stroke-width="1.5" d="M0,-3.0v7 M-2.5,-0.5L0,-3.0L2.5,-0.5"/>
                </g>
                <g id="arrowDown" xlink:href="#dirArrow" transform="rotate(180) translate(-30 -48)" onmousedown="handlePan(0,1)">
                  <use xlink:href="#rim" fill="#404040">
                        <set attributeName="fill" to="#808080" begin="arrowDown.mouseover" end="arrowDown.mouseout"/>
                  </use>
                  <path fill="none" stroke="white" stroke-width="1.5" d="M0,-3.0v7 M-2.5,-0.5L0,-3.0L2.5,-0.5"/>
                </g>
                <g id="arrowLeft" xlink:href="#dirArrow" transform="rotate(270) translate(-36 17)" onmousedown="handlePan(-1,0)">
                  <use xlink:href="#rim" fill="#404040">
                        <set attributeName="fill" to="#808080" begin="arrowLeft.mouseover" end="arrowLeft.mouseout"/>
                  </use>
                  <path fill="none" stroke="white" stroke-width="1.5" d="M0,-3.0v7 M-2.5,-0.5L0,-3.0L2.5,-0.5"/>
                </g>
        </g>
        <svg viewBox="0 0 15 15" width="100%" height="30px" preserveAspectRatio="xMaxYMin meet">
         <g id="arrow_out" transform="scale(0.3 0.3)">
          <a xlink:href="Render_2Camera_8hpp__incl_org.svg" target="_base">
           <rect id="button" ry="5" rx="5" y="6" x="6" height="38" width="38"
                fill="#f2f5e9" fill-opacity="0.5" stroke="#606060" stroke-width="1.0"/>
           <path id="arrow"
             d="M 11.500037,31.436501 C 11.940474,20.09759 22.043105,11.32322 32.158766,21.979434 L 37.068811,17.246167 C 37.068811,17.246167 37.088388,32 37.088388,32 L 22.160133,31.978069 C 22.160133,31.978069 26.997745,27.140456 26.997745,27.140456 C 18.528582,18.264221 13.291696,25.230495 11.500037,31.436501 z"
             style="fill:#404040;"/>
          </a>
         </g>
        </svg>
</svg>
