<?xml version="1.0" encoding="UTF-8" standalone="no"?>
<!DOCTYPE svg PUBLIC "-//W3C//DTD SVG 1.1//EN"
 "http://www.w3.org/Graphics/SVG/1.1/DTD/svg11.dtd">
<!-- Generated by graphviz version 2.40.1 (20161225.0304)
 -->
<!-- Title: src/lug/Graphics/Render/Mesh.cpp Pages: 1 -->
<svg width="1374pt" height="497pt"
 viewBox="0.00 0.00 1374.00 497.00" xmlns="http://www.w3.org/2000/svg" xmlns:xlink="http://www.w3.org/1999/xlink">
<g id="graph0" class="graph" transform="scale(1 1) rotate(0) translate(4 493)">
<title>src/lug/Graphics/Render/Mesh.cpp</title>
<!-- Node0 -->
<g id="node1" class="node">
<title>Node0</title>
<polygon fill="#bfbfbf" stroke="#000000" points="554,-458.5 554,-488.5 693,-488.5 693,-458.5 554,-458.5"/>
<text text-anchor="start" x="562" y="-476.5" font-family="Helvetica,sans-Serif" font-size="10.00" fill="#000000">src/lug/Graphics/Render</text>
<text text-anchor="middle" x="623.5" y="-465.5" font-family="Helvetica,sans-Serif" font-size="10.00" fill="#000000">/Mesh.cpp</text>
</g>
<!-- Node1 -->
<g id="node2" class="node">
<title>Node1</title>
<g id="a_node2"><a xlink:href="Render_2Mesh_8hpp.html" target="_top" xlink:title="lug/Graphics/Render\l/Mesh.hpp">
<polygon fill="none" stroke="#000000" points="564,-391.5 564,-421.5 683,-421.5 683,-391.5 564,-391.5"/>
<text text-anchor="start" x="572" y="-409.5" font-family="Helvetica,sans-Serif" font-size="10.00" fill="#000000">lug/Graphics/Render</text>
<text text-anchor="middle" x="623.5" y="-398.5" font-family="Helvetica,sans-Serif" font-size="10.00" fill="#000000">/Mesh.hpp</text>
</a>
</g>
</g>
<!-- Node0&#45;&gt;Node1 -->
<g id="edge1" class="edge">
<title>Node0&#45;&gt;Node1</title>
<path fill="none" stroke="#191970" d="M623.5,-458.2967C623.5,-450.5013 623.5,-440.7991 623.5,-431.9064"/>
<polygon fill="#191970" stroke="#191970" points="627.0001,-431.6431 623.5,-421.6432 620.0001,-431.6432 627.0001,-431.6431"/>
</g>
<!-- Node2 -->
<g id="node3" class="node">
<title>Node2</title>
<polygon fill="none" stroke="#bfbfbf" points="672.5,-62 672.5,-81 722.5,-81 722.5,-62 672.5,-62"/>
<text text-anchor="middle" x="697.5" y="-69" font-family="Helvetica,sans-Serif" font-size="10.00" fill="#000000">cstdint</text>
</g>
<!-- Node1&#45;&gt;Node2 -->
<g id="edge2" class="edge">
<title>Node1&#45;&gt;Node2</title>
<path fill="none" stroke="#191970" d="M683.2887,-398.1543C751.733,-384.839 854.5,-351.6653 854.5,-272.5 854.5,-272.5 854.5,-272.5 854.5,-205.5 854.5,-164.555 843.0738,-151.3175 813.5,-123 813.2892,-122.7981 762.4694,-100.271 728.1736,-85.081"/>
<polygon fill="#191970" stroke="#191970" points="729.5551,-81.865 718.9944,-81.0158 726.7206,-88.2654 729.5551,-81.865"/>
</g>
<!-- Node3 -->
<g id="node4" class="node">
<title>Node3</title>
<polygon fill="none" stroke="#bfbfbf" points="339.5,-330 339.5,-349 387.5,-349 387.5,-330 339.5,-330"/>
<text text-anchor="middle" x="363.5" y="-337" font-family="Helvetica,sans-Serif" font-size="10.00" fill="#000000">vector</text>
</g>
<!-- Node1&#45;&gt;Node3 -->
<g id="edge3" class="edge">
<title>Node1&#45;&gt;Node3</title>
<path fill="none" stroke="#191970" d="M563.5799,-396.2963C517.4929,-387.6253 452.5889,-373.6169 397.5,-355 395.6563,-354.3769 393.7777,-353.687 391.8979,-352.9545"/>
<polygon fill="#191970" stroke="#191970" points="393.2167,-349.7122 382.6426,-349.049 390.4952,-356.1615 393.2167,-349.7122"/>
</g>
<!-- Node4 -->
<g id="node5" class="node">
<title>Node4</title>
<g id="a_node5"><a xlink:href="Graphics_2Export_8hpp.html" target="_top" xlink:title="lug/Graphics/Export.hpp">
<polygon fill="none" stroke="#000000" points="378.5,-62 378.5,-81 516.5,-81 516.5,-62 378.5,-62"/>
<text text-anchor="middle" x="447.5" y="-69" font-family="Helvetica,sans-Serif" font-size="10.00" fill="#000000">lug/Graphics/Export.hpp</text>
</a>
</g>
</g>
<!-- Node1&#45;&gt;Node4 -->
<g id="edge4" class="edge">
<title>Node1&#45;&gt;Node4</title>
<path fill="none" stroke="#191970" d="M617.7451,-391.4244C600.8932,-348.0508 549.0099,-219.8601 488.5,-123 481.0069,-111.0055 471.1775,-98.5731 463.0214,-88.9289"/>
<polygon fill="#191970" stroke="#191970" points="465.5731,-86.5287 456.3855,-81.2525 460.2775,-91.1066 465.5731,-86.5287"/>
</g>
<!-- Node6 -->
<g id="node7" class="node">
<title>Node6</title>
<g id="a_node7"><a xlink:href="Resource_8hpp.html" target="_top" xlink:title="lug/Graphics/Resource.hpp">
<polygon fill="none" stroke="#000000" points="22.5,-129 22.5,-148 174.5,-148 174.5,-129 22.5,-129"/>
<text text-anchor="middle" x="98.5" y="-136" font-family="Helvetica,sans-Serif" font-size="10.00" fill="#000000">lug/Graphics/Resource.hpp</text>
</a>
</g>
</g>
<!-- Node1&#45;&gt;Node6 -->
<g id="edge6" class="edge">
<title>Node1&#45;&gt;Node6</title>
<path fill="none" stroke="#191970" d="M563.9954,-400.2024C442.8686,-386.2442 173.4466,-349.0275 106.5,-288 73.1122,-257.5642 71.5576,-234.4748 79.5,-190 81.4932,-178.8388 85.7372,-166.929 89.7095,-157.3769"/>
<polygon fill="#191970" stroke="#191970" points="92.9743,-158.6472 93.794,-148.0842 86.566,-155.8306 92.9743,-158.6472"/>
</g>
<!-- Node10 -->
<g id="node11" class="node">
<title>Node10</title>
<g id="a_node11"><a xlink:href="Render_2Material_8hpp.html" target="_top" xlink:title="lug/Graphics/Render\l/Material.hpp">
<polygon fill="none" stroke="#000000" points="406,-324.5 406,-354.5 525,-354.5 525,-324.5 406,-324.5"/>
<text text-anchor="start" x="414" y="-342.5" font-family="Helvetica,sans-Serif" font-size="10.00" fill="#000000">lug/Graphics/Render</text>
<text text-anchor="middle" x="465.5" y="-331.5" font-family="Helvetica,sans-Serif" font-size="10.00" fill="#000000">/Material.hpp</text>
</a>
</g>
</g>
<!-- Node1&#45;&gt;Node10 -->
<g id="edge12" class="edge">
<title>Node1&#45;&gt;Node10</title>
<path fill="none" stroke="#191970" d="M588.0417,-391.4639C565.1501,-381.7567 535.165,-369.0415 510.586,-358.6188"/>
<polygon fill="#191970" stroke="#191970" points="511.6858,-355.2835 501.1129,-354.6017 508.953,-361.728 511.6858,-355.2835"/>
</g>
<!-- Node17 -->
<g id="node18" class="node">
<title>Node17</title>
<g id="a_node18"><a xlink:href="Vector_8hpp.html" target="_top" xlink:title="lug/Math/Vector.hpp">
<polygon fill="none" stroke="#000000" points="672,-196 672,-215 791,-215 791,-196 672,-196"/>
<text text-anchor="middle" x="731.5" y="-203" font-family="Helvetica,sans-Serif" font-size="10.00" fill="#000000">lug/Math/Vector.hpp</text>
</a>
</g>
</g>
<!-- Node1&#45;&gt;Node17 -->
<g id="edge49" class="edge">
<title>Node1&#45;&gt;Node17</title>
<path fill="none" stroke="#191970" d="M631.6176,-391.3923C651.0636,-355.201 700.2711,-263.6205 721.4989,-224.1131"/>
<polygon fill="#191970" stroke="#191970" points="724.6078,-225.7218 726.2579,-215.2562 718.4415,-222.4085 724.6078,-225.7218"/>
</g>
<!-- Node33 -->
<g id="node34" class="node">
<title>Node33</title>
<g id="a_node34"><a xlink:href="Render_2Mesh_8inl.html" target="_top" xlink:title="lug/Graphics/Render\l/Mesh.inl">
<polygon fill="none" stroke="#000000" points="883,-324.5 883,-354.5 1002,-354.5 1002,-324.5 883,-324.5"/>
<text text-anchor="start" x="891" y="-342.5" font-family="Helvetica,sans-Serif" font-size="10.00" fill="#000000">lug/Graphics/Render</text>
<text text-anchor="middle" x="942.5" y="-331.5" font-family="Helvetica,sans-Serif" font-size="10.00" fill="#000000">/Mesh.inl</text>
</a>
</g>
</g>
<!-- Node1&#45;&gt;Node33 -->
<g id="edge50" class="edge">
<title>Node1&#45;&gt;Node33</title>
<path fill="none" stroke="#191970" d="M683.1272,-393.9764C736.9697,-382.6678 816.2192,-366.0229 872.9335,-354.1111"/>
<polygon fill="#191970" stroke="#191970" points="873.828,-357.4997 882.895,-352.0189 872.3891,-350.6492 873.828,-357.4997"/>
</g>
<!-- Node5 -->
<g id="node6" class="node">
<title>Node5</title>
<g id="a_node6"><a xlink:href="Config_8hpp.html" target="_top" xlink:title="lug/Config.hpp">
<polygon fill="none" stroke="#000000" points="549,-.5 549,-19.5 638,-19.5 638,-.5 549,-.5"/>
<text text-anchor="middle" x="593.5" y="-7.5" font-family="Helvetica,sans-Serif" font-size="10.00" fill="#000000">lug/Config.hpp</text>
</a>
</g>
</g>
<!-- Node4&#45;&gt;Node5 -->
<g id="edge5" class="edge">
<title>Node4&#45;&gt;Node5</title>
<path fill="none" stroke="#191970" d="M470.3125,-61.8906C494.8481,-51.5554 534.0442,-35.0447 561.6211,-23.4284"/>
<polygon fill="#191970" stroke="#191970" points="562.9906,-26.6495 570.8477,-19.5419 560.2732,-20.1984 562.9906,-26.6495"/>
</g>
<!-- Node6&#45;&gt;Node2 -->
<g id="edge7" class="edge">
<title>Node6&#45;&gt;Node2</title>
<path fill="none" stroke="#191970" d="M146.0153,-128.9217C158.1943,-126.7183 171.2998,-124.5654 183.5,-123 395.6928,-95.7729 456.287,-140.1966 663.5,-87 665.6953,-86.4364 667.9246,-85.738 670.1379,-84.952"/>
<polygon fill="#191970" stroke="#191970" points="671.6493,-88.1153 679.582,-81.0923 669.0011,-81.6356 671.6493,-88.1153"/>
</g>
<!-- Node6&#45;&gt;Node4 -->
<g id="edge10" class="edge">
<title>Node6&#45;&gt;Node4</title>
<path fill="none" stroke="#191970" d="M148.1326,-128.9717C211.23,-116.8584 320.0686,-95.9639 387.6815,-82.9838"/>
<polygon fill="#191970" stroke="#191970" points="388.5957,-86.3723 397.7564,-81.0496 387.2759,-79.4978 388.5957,-86.3723"/>
</g>
<!-- Node7 -->
<g id="node8" class="node">
<title>Node7</title>
<polygon fill="none" stroke="#bfbfbf" points="0,-62 0,-81 71,-81 71,-62 0,-62"/>
<text text-anchor="middle" x="35.5" y="-69" font-family="Helvetica,sans-Serif" font-size="10.00" fill="#000000">type_traits</text>
</g>
<!-- Node6&#45;&gt;Node7 -->
<g id="edge8" class="edge">
<title>Node6&#45;&gt;Node7</title>
<path fill="none" stroke="#191970" d="M89.4736,-128.9005C79.5558,-118.353 63.4359,-101.2096 51.3909,-88.3998"/>
<polygon fill="#191970" stroke="#191970" points="53.9097,-85.9693 44.5096,-81.0817 48.8101,-90.7645 53.9097,-85.9693"/>
</g>
<!-- Node8 -->
<g id="node9" class="node">
<title>Node8</title>
<polygon fill="none" stroke="#bfbfbf" points="278,-62 278,-81 323,-81 323,-62 278,-62"/>
<text text-anchor="middle" x="300.5" y="-69" font-family="Helvetica,sans-Serif" font-size="10.00" fill="#000000">string</text>
</g>
<!-- Node6&#45;&gt;Node8 -->
<g id="edge9" class="edge">
<title>Node6&#45;&gt;Node8</title>
<path fill="none" stroke="#191970" d="M127.4417,-128.9005C164.6947,-116.5443 229.2379,-95.1364 268.0968,-82.2476"/>
<polygon fill="#191970" stroke="#191970" points="269.4715,-85.4792 277.8612,-79.0089 267.2677,-78.8351 269.4715,-85.4792"/>
</g>
<!-- Node9 -->
<g id="node10" class="node">
<title>Node9</title>
<g id="a_node10"><a xlink:href="Resource_8inl.html" target="_top" xlink:title="lug/Graphics/Resource.inl">
<polygon fill="none" stroke="#000000" points="89.5,-62 89.5,-81 235.5,-81 235.5,-62 89.5,-62"/>
<text text-anchor="middle" x="162.5" y="-69" font-family="Helvetica,sans-Serif" font-size="10.00" fill="#000000">lug/Graphics/Resource.inl</text>
</a>
</g>
</g>
<!-- Node6&#45;&gt;Node9 -->
<g id="edge11" class="edge">
<title>Node6&#45;&gt;Node9</title>
<path fill="none" stroke="#191970" d="M107.6696,-128.9005C117.7449,-118.353 134.1207,-101.2096 146.3569,-88.3998"/>
<polygon fill="#191970" stroke="#191970" points="148.9709,-90.7304 153.3474,-81.0817 143.9091,-85.8952 148.9709,-90.7304"/>
</g>
<!-- Node10&#45;&gt;Node4 -->
<g id="edge14" class="edge">
<title>Node10&#45;&gt;Node4</title>
<path fill="none" stroke="#191970" d="M475.0887,-324.4025C480.8064,-314.4813 487.5162,-300.9794 490.5,-288 507.2159,-215.2875 473.6346,-127.9505 456.5925,-90.2908"/>
<polygon fill="#191970" stroke="#191970" points="459.6773,-88.6244 452.2799,-81.0396 453.3328,-91.582 459.6773,-88.6244"/>
</g>
<!-- Node10&#45;&gt;Node6 -->
<g id="edge28" class="edge">
<title>Node10&#45;&gt;Node6</title>
<path fill="none" stroke="#191970" d="M405.7136,-325.8024C402.6017,-325.1731 399.5164,-324.5681 396.5,-324 292.2312,-304.3606 256.1788,-333.8612 160.5,-288 120.7881,-268.9651 105.22,-261.3157 87.5,-221 78.5442,-200.6243 84.3478,-174.9011 90.392,-157.6419"/>
<polygon fill="#191970" stroke="#191970" points="93.7339,-158.7028 94.0567,-148.1129 87.2004,-156.1901 93.7339,-158.7028"/>
</g>
<!-- Node10&#45;&gt;Node8 -->
<g id="edge13" class="edge">
<title>Node10&#45;&gt;Node8</title>
<path fill="none" stroke="#191970" d="M405.7531,-326.0782C385.6488,-318.4052 365.3359,-306.4696 353.5,-288 346.0662,-276.3998 349.636,-270.2249 353.5,-257 358.8248,-238.7753 371.1752,-239.2247 376.5,-221 380.364,-207.7751 380.3755,-203.2215 376.5,-190 364.7865,-150.039 334.9995,-110.7791 316.3856,-88.9884"/>
<polygon fill="#191970" stroke="#191970" points="318.8523,-86.4925 309.6321,-81.2735 313.5853,-91.1032 318.8523,-86.4925"/>
</g>
<!-- Node11 -->
<g id="node12" class="node">
<title>Node11</title>
<g id="a_node12"><a xlink:href="DirtyObject_8hpp.html" target="_top" xlink:title="lug/Graphics/Render\l/DirtyObject.hpp">
<polygon fill="none" stroke="#000000" points="538,-123.5 538,-153.5 657,-153.5 657,-123.5 538,-123.5"/>
<text text-anchor="start" x="546" y="-141.5" font-family="Helvetica,sans-Serif" font-size="10.00" fill="#000000">lug/Graphics/Render</text>
<text text-anchor="middle" x="597.5" y="-130.5" font-family="Helvetica,sans-Serif" font-size="10.00" fill="#000000">/DirtyObject.hpp</text>
</a>
</g>
</g>
<!-- Node10&#45;&gt;Node11 -->
<g id="edge15" class="edge">
<title>Node10&#45;&gt;Node11</title>
<path fill="none" stroke="#191970" d="M486.0992,-324.4649C498.085,-314.9763 512.8756,-301.9133 523.5,-288 553.8189,-248.2956 576.8776,-194.2194 588.6943,-163.1673"/>
<polygon fill="#191970" stroke="#191970" points="592.057,-164.166 592.2649,-153.5732 585.4967,-161.7244 592.057,-164.166"/>
</g>
<!-- Node13 -->
<g id="node14" class="node">
<title>Node13</title>
<g id="a_node14"><a xlink:href="Render_2Texture_8hpp.html" target="_top" xlink:title="lug/Graphics/Render\l/Texture.hpp">
<polygon fill="none" stroke="#000000" points="111,-190.5 111,-220.5 230,-220.5 230,-190.5 111,-190.5"/>
<text text-anchor="start" x="119" y="-208.5" font-family="Helvetica,sans-Serif" font-size="10.00" fill="#000000">lug/Graphics/Render</text>
<text text-anchor="middle" x="170.5" y="-197.5" font-family="Helvetica,sans-Serif" font-size="10.00" fill="#000000">/Texture.hpp</text>
</a>
</g>
</g>
<!-- Node10&#45;&gt;Node13 -->
<g id="edge19" class="edge">
<title>Node10&#45;&gt;Node13</title>
<path fill="none" stroke="#191970" d="M405.706,-325.8422C402.596,-325.2026 399.5133,-324.5845 396.5,-324 347.8673,-314.567 209.9255,-324.5631 176.5,-288 162.6491,-272.849 162.3956,-248.8955 164.873,-230.6937"/>
<polygon fill="#191970" stroke="#191970" points="168.3377,-231.1969 166.5651,-220.7514 161.4369,-230.0224 168.3377,-231.1969"/>
</g>
<!-- Node15 -->
<g id="node16" class="node">
<title>Node15</title>
<g id="a_node16"><a xlink:href="Render_2SkyBox_8hpp.html" target="_top" xlink:title="lug/Graphics/Render\l/SkyBox.hpp">
<polygon fill="none" stroke="#000000" points="186,-257.5 186,-287.5 305,-287.5 305,-257.5 186,-257.5"/>
<text text-anchor="start" x="194" y="-275.5" font-family="Helvetica,sans-Serif" font-size="10.00" fill="#000000">lug/Graphics/Render</text>
<text text-anchor="middle" x="245.5" y="-264.5" font-family="Helvetica,sans-Serif" font-size="10.00" fill="#000000">/SkyBox.hpp</text>
</a>
</g>
</g>
<!-- Node10&#45;&gt;Node15 -->
<g id="edge23" class="edge">
<title>Node10&#45;&gt;Node15</title>
<path fill="none" stroke="#191970" d="M416.1277,-324.4639C383.125,-314.4131 339.5337,-301.1375 304.6727,-290.5208"/>
<polygon fill="#191970" stroke="#191970" points="305.6735,-287.1669 295.0876,-287.6017 303.6342,-293.8633 305.6735,-287.1669"/>
</g>
<!-- Node10&#45;&gt;Node17 -->
<g id="edge29" class="edge">
<title>Node10&#45;&gt;Node17</title>
<path fill="none" stroke="#191970" d="M495.4965,-324.389C547.32,-298.2824 652.9037,-245.0936 703.3895,-219.661"/>
<polygon fill="#191970" stroke="#191970" points="705.0789,-222.729 712.435,-215.1042 701.9295,-216.4774 705.0789,-222.729"/>
</g>
<!-- Node32 -->
<g id="node33" class="node">
<title>Node32</title>
<g id="a_node33"><a xlink:href="Render_2Material_8inl.html" target="_top" xlink:title="lug/Graphics/Render\l/Material.inl">
<polygon fill="none" stroke="#000000" points="362,-257.5 362,-287.5 481,-287.5 481,-257.5 362,-257.5"/>
<text text-anchor="start" x="370" y="-275.5" font-family="Helvetica,sans-Serif" font-size="10.00" fill="#000000">lug/Graphics/Render</text>
<text text-anchor="middle" x="421.5" y="-264.5" font-family="Helvetica,sans-Serif" font-size="10.00" fill="#000000">/Material.inl</text>
</a>
</g>
</g>
<!-- Node10&#45;&gt;Node32 -->
<g id="edge48" class="edge">
<title>Node10&#45;&gt;Node32</title>
<path fill="none" stroke="#191970" d="M455.5157,-324.2967C450.0588,-315.9873 443.1792,-305.5115 437.0371,-296.1587"/>
<polygon fill="#191970" stroke="#191970" points="439.8596,-294.0806 431.4448,-287.6432 434.0086,-297.9231 439.8596,-294.0806"/>
</g>
<!-- Node11&#45;&gt;Node2 -->
<g id="edge16" class="edge">
<title>Node11&#45;&gt;Node2</title>
<path fill="none" stroke="#191970" d="M620.1915,-123.2967C636.5283,-112.351 658.4759,-97.6462 674.8119,-86.701"/>
<polygon fill="#191970" stroke="#191970" points="676.8793,-89.5289 683.2388,-81.055 672.983,-83.7135 676.8793,-89.5289"/>
</g>
<!-- Node11&#45;&gt;Node4 -->
<g id="edge17" class="edge">
<title>Node11&#45;&gt;Node4</title>
<path fill="none" stroke="#191970" d="M563.8371,-123.4639C538.2155,-112.0196 503.2339,-96.3945 478.3373,-85.274"/>
<polygon fill="#191970" stroke="#191970" points="479.5593,-81.9866 469.0013,-81.1039 476.7045,-88.378 479.5593,-81.9866"/>
</g>
<!-- Node12 -->
<g id="node13" class="node">
<title>Node12</title>
<g id="a_node13"><a xlink:href="DirtyObject_8inl.html" target="_top" xlink:title="lug/Graphics/Render\l/DirtyObject.inl">
<polygon fill="none" stroke="#000000" points="535,-56.5 535,-86.5 654,-86.5 654,-56.5 535,-56.5"/>
<text text-anchor="start" x="543" y="-74.5" font-family="Helvetica,sans-Serif" font-size="10.00" fill="#000000">lug/Graphics/Render</text>
<text text-anchor="middle" x="594.5" y="-63.5" font-family="Helvetica,sans-Serif" font-size="10.00" fill="#000000">/DirtyObject.inl</text>
</a>
</g>
</g>
<!-- Node11&#45;&gt;Node12 -->
<g id="edge18" class="edge">
<title>Node11&#45;&gt;Node12</title>
<path fill="none" stroke="#191970" d="M596.8193,-123.2967C596.4702,-115.5013 596.0358,-105.7991 595.6376,-96.9064"/>
<polygon fill="#191970" stroke="#191970" points="599.122,-96.4766 595.1781,-86.6432 592.129,-96.7898 599.122,-96.4766"/>
</g>
<!-- Node13&#45;&gt;Node4 -->
<g id="edge20" class="edge">
<title>Node13&#45;&gt;Node4</title>
<path fill="none" stroke="#191970" d="M225.2762,-190.4542C254.5381,-181.5215 290.7611,-169.0082 321.5,-154 361.0503,-134.6897 403.0653,-105.1049 427.2042,-87.1061"/>
<polygon fill="#191970" stroke="#191970" points="429.373,-89.8543 435.2511,-81.0396 425.159,-84.2648 429.373,-89.8543"/>
</g>
<!-- Node13&#45;&gt;Node6 -->
<g id="edge21" class="edge">
<title>Node13&#45;&gt;Node6</title>
<path fill="none" stroke="#191970" d="M154.1621,-190.2967C142.8352,-179.7564 127.7624,-165.7303 116.1586,-154.9323"/>
<polygon fill="#191970" stroke="#191970" points="118.4731,-152.3051 108.768,-148.055 113.7044,-157.4296 118.4731,-152.3051"/>
</g>
<!-- Node14 -->
<g id="node15" class="node">
<title>Node14</title>
<g id="a_node15"><a xlink:href="Render_2Texture_8inl.html" target="_top" xlink:title="lug/Graphics/Render\l/Texture.inl">
<polygon fill="none" stroke="#000000" points="193,-123.5 193,-153.5 312,-153.5 312,-123.5 193,-123.5"/>
<text text-anchor="start" x="201" y="-141.5" font-family="Helvetica,sans-Serif" font-size="10.00" fill="#000000">lug/Graphics/Render</text>
<text text-anchor="middle" x="252.5" y="-130.5" font-family="Helvetica,sans-Serif" font-size="10.00" fill="#000000">/Texture.inl</text>
</a>
</g>
</g>
<!-- Node13&#45;&gt;Node14 -->
<g id="edge22" class="edge">
<title>Node13&#45;&gt;Node14</title>
<path fill="none" stroke="#191970" d="M189.1071,-190.2967C200.0107,-181.3876 213.9622,-169.9882 225.9997,-160.1527"/>
<polygon fill="#191970" stroke="#191970" points="228.4373,-162.6808 233.9666,-153.6432 224.0082,-157.2601 228.4373,-162.6808"/>
</g>
<!-- Node15&#45;&gt;Node4 -->
<g id="edge24" class="edge">
<title>Node15&#45;&gt;Node4</title>
<path fill="none" stroke="#191970" d="M305.2192,-259.3589C329.6544,-251.5405 356.7602,-239.4261 376.5,-221 415.3932,-184.695 435.1684,-122.6942 443.1339,-91.1638"/>
<polygon fill="#191970" stroke="#191970" points="446.5533,-91.9134 445.4709,-81.374 439.7446,-90.288 446.5533,-91.9134"/>
</g>
<!-- Node15&#45;&gt;Node6 -->
<g id="edge25" class="edge">
<title>Node15&#45;&gt;Node6</title>
<path fill="none" stroke="#191970" d="M185.7174,-258.3396C150.9683,-248.7921 112.0067,-235.3547 101.5,-221 88.2507,-202.8983 90.081,-176.0928 93.5044,-157.9926"/>
<polygon fill="#191970" stroke="#191970" points="96.9715,-158.5241 95.7212,-148.0033 90.1378,-157.0075 96.9715,-158.5241"/>
</g>
<!-- Node15&#45;&gt;Node13 -->
<g id="edge26" class="edge">
<title>Node15&#45;&gt;Node13</title>
<path fill="none" stroke="#191970" d="M228.4813,-257.2967C218.6044,-248.4733 205.9931,-237.2072 195.0562,-227.4368"/>
<polygon fill="#191970" stroke="#191970" points="197.2407,-224.6952 187.4513,-220.6432 192.5772,-229.9155 197.2407,-224.6952"/>
</g>
<!-- Node16 -->
<g id="node17" class="node">
<title>Node16</title>
<g id="a_node17"><a xlink:href="Render_2SkyBox_8inl.html" target="_top" xlink:title="lug/Graphics/Render\l/SkyBox.inl">
<polygon fill="none" stroke="#000000" points="248,-190.5 248,-220.5 367,-220.5 367,-190.5 248,-190.5"/>
<text text-anchor="start" x="256" y="-208.5" font-family="Helvetica,sans-Serif" font-size="10.00" fill="#000000">lug/Graphics/Render</text>
<text text-anchor="middle" x="307.5" y="-197.5" font-family="Helvetica,sans-Serif" font-size="10.00" fill="#000000">/SkyBox.inl</text>
</a>
</g>
</g>
<!-- Node15&#45;&gt;Node16 -->
<g id="edge27" class="edge">
<title>Node15&#45;&gt;Node16</title>
<path fill="none" stroke="#191970" d="M259.5688,-257.2967C267.5751,-248.6446 277.755,-237.6438 286.672,-228.0076"/>
<polygon fill="#191970" stroke="#191970" points="289.2639,-230.36 293.4869,-220.6432 284.1261,-225.6057 289.2639,-230.36"/>
</g>
<!-- Node17&#45;&gt;Node2 -->
<g id="edge30" class="edge">
<title>Node17&#45;&gt;Node2</title>
<path fill="none" stroke="#191970" d="M752.1094,-195.8834C767.7575,-187.3307 788.1284,-173.1997 797.5,-154 803.5436,-141.6185 804.6734,-134.7631 797.5,-123 793.4755,-116.4005 756.1769,-98.2644 728.3026,-85.3866"/>
<polygon fill="#191970" stroke="#191970" points="729.4551,-82.0647 718.9062,-81.0784 726.5376,-88.4278 729.4551,-82.0647"/>
</g>
<!-- Node18 -->
<g id="node19" class="node">
<title>Node18</title>
<g id="a_node19"><a xlink:href="Matrix_8hpp.html" target="_top" xlink:title="lug/Math/Matrix.hpp">
<polygon fill="none" stroke="#000000" points="884.5,-129 884.5,-148 1002.5,-148 1002.5,-129 884.5,-129"/>
<text text-anchor="middle" x="943.5" y="-136" font-family="Helvetica,sans-Serif" font-size="10.00" fill="#000000">lug/Math/Matrix.hpp</text>
</a>
</g>
</g>
<!-- Node17&#45;&gt;Node18 -->
<g id="edge31" class="edge">
<title>Node17&#45;&gt;Node18</title>
<path fill="none" stroke="#191970" d="M761.8744,-195.9005C799.1058,-184.134 862.3099,-164.1591 903.4757,-151.1492"/>
<polygon fill="#191970" stroke="#191970" points="904.7015,-154.4325 913.1819,-148.0817 902.592,-147.7579 904.7015,-154.4325"/>
</g>
<!-- Node31 -->
<g id="node32" class="node">
<title>Node31</title>
<g id="a_node32"><a xlink:href="Vector_8inl.html" target="_top" xlink:title="lug/Math/Vector.inl">
<polygon fill="none" stroke="#000000" points="675,-129 675,-148 788,-148 788,-129 675,-129"/>
<text text-anchor="middle" x="731.5" y="-136" font-family="Helvetica,sans-Serif" font-size="10.00" fill="#000000">lug/Math/Vector.inl</text>
</a>
</g>
</g>
<!-- Node17&#45;&gt;Node31 -->
<g id="edge47" class="edge">
<title>Node17&#45;&gt;Node31</title>
<path fill="none" stroke="#191970" d="M731.5,-195.9005C731.5,-186.149 731.5,-170.7597 731.5,-158.3695"/>
<polygon fill="#191970" stroke="#191970" points="735.0001,-158.0816 731.5,-148.0817 728.0001,-158.0817 735.0001,-158.0816"/>
</g>
<!-- Node18&#45;&gt;Node2 -->
<g id="edge32" class="edge">
<title>Node18&#45;&gt;Node2</title>
<path fill="none" stroke="#191970" d="M900.6262,-128.9826C848.3872,-117.2209 763.2872,-97.4817 732.5,-87 730.6599,-86.3735 728.7833,-85.6879 726.9027,-84.9647"/>
<polygon fill="#191970" stroke="#191970" points="728.1947,-81.7116 717.6154,-81.137 725.5273,-88.1835 728.1947,-81.7116"/>
</g>
<!-- Node19 -->
<g id="node20" class="node">
<title>Node19</title>
<polygon fill="none" stroke="#bfbfbf" points="1307,-62 1307,-81 1366,-81 1366,-62 1307,-62"/>
<text text-anchor="middle" x="1336.5" y="-69" font-family="Helvetica,sans-Serif" font-size="10.00" fill="#000000">valarray</text>
</g>
<!-- Node18&#45;&gt;Node19 -->
<g id="edge33" class="edge">
<title>Node18&#45;&gt;Node19</title>
<path fill="none" stroke="#191970" d="M1002.6052,-134.1514C1073.5882,-127.9602 1195.8071,-114.2029 1297.5,-87 1300.1152,-86.3004 1302.7929,-85.4774 1305.4598,-84.5815"/>
<polygon fill="#191970" stroke="#191970" points="1306.7543,-87.8348 1314.9398,-81.1082 1304.3461,-81.2621 1306.7543,-87.8348"/>
</g>
<!-- Node20 -->
<g id="node21" class="node">
<title>Node20</title>
<g id="a_node21"><a xlink:href="Math_2Export_8hpp.html" target="_top" xlink:title="lug/Math/Export.hpp">
<polygon fill="none" stroke="#000000" points="741,-62 741,-81 860,-81 860,-62 741,-62"/>
<text text-anchor="middle" x="800.5" y="-69" font-family="Helvetica,sans-Serif" font-size="10.00" fill="#000000">lug/Math/Export.hpp</text>
</a>
</g>
</g>
<!-- Node18&#45;&gt;Node20 -->
<g id="edge34" class="edge">
<title>Node18&#45;&gt;Node20</title>
<path fill="none" stroke="#191970" d="M923.0116,-128.9005C898.6944,-117.5072 857.9514,-98.4178 830.1831,-85.4075"/>
<polygon fill="#191970" stroke="#191970" points="831.4907,-82.1551 820.9504,-81.0817 828.5208,-88.4938 831.4907,-82.1551"/>
</g>
<!-- Node21 -->
<g id="node22" class="node">
<title>Node21</title>
<g id="a_node22"><a xlink:href="ValArray_8hpp.html" target="_top" xlink:title="lug/Math/ValArray.hpp">
<polygon fill="none" stroke="#000000" points="878.5,-62 878.5,-81 1008.5,-81 1008.5,-62 878.5,-62"/>
<text text-anchor="middle" x="943.5" y="-69" font-family="Helvetica,sans-Serif" font-size="10.00" fill="#000000">lug/Math/ValArray.hpp</text>
</a>
</g>
</g>
<!-- Node18&#45;&gt;Node21 -->
<g id="edge36" class="edge">
<title>Node18&#45;&gt;Node21</title>
<path fill="none" stroke="#191970" d="M943.5,-128.9005C943.5,-119.149 943.5,-103.7597 943.5,-91.3695"/>
<polygon fill="#191970" stroke="#191970" points="947.0001,-91.0816 943.5,-81.0817 940.0001,-91.0817 947.0001,-91.0816"/>
</g>
<!-- Node27 -->
<g id="node28" class="node">
<title>Node27</title>
<g id="a_node28"><a xlink:href="Debug_8hpp.html" target="_top" xlink:title="lug/System/Debug.hpp">
<polygon fill="none" stroke="#000000" points="1027,-62 1027,-81 1158,-81 1158,-62 1027,-62"/>
<text text-anchor="middle" x="1092.5" y="-69" font-family="Helvetica,sans-Serif" font-size="10.00" fill="#000000">lug/System/Debug.hpp</text>
</a>
</g>
</g>
<!-- Node18&#45;&gt;Node27 -->
<g id="edge42" class="edge">
<title>Node18&#45;&gt;Node27</title>
<path fill="none" stroke="#191970" d="M964.8481,-128.9005C990.2962,-117.4574 1033.0091,-98.2509 1061.9497,-85.2374"/>
<polygon fill="#191970" stroke="#191970" points="1063.5066,-88.3749 1071.1915,-81.0817 1060.6358,-81.9907 1063.5066,-88.3749"/>
</g>
<!-- Node30 -->
<g id="node31" class="node">
<title>Node30</title>
<g id="a_node31"><a xlink:href="Matrix_8inl.html" target="_top" xlink:title="lug/Math/Matrix.inl">
<polygon fill="none" stroke="#000000" points="1176.5,-62 1176.5,-81 1288.5,-81 1288.5,-62 1176.5,-62"/>
<text text-anchor="middle" x="1232.5" y="-69" font-family="Helvetica,sans-Serif" font-size="10.00" fill="#000000">lug/Math/Matrix.inl</text>
</a>
</g>
</g>
<!-- Node18&#45;&gt;Node30 -->
<g id="edge46" class="edge">
<title>Node18&#45;&gt;Node30</title>
<path fill="none" stroke="#191970" d="M985.6341,-128.92C1030.6753,-118.654 1104.1707,-101.8306 1167.5,-87 1172.4559,-85.8394 1177.6223,-84.6214 1182.7816,-83.3996"/>
<polygon fill="#191970" stroke="#191970" points="1183.7159,-86.7752 1192.6369,-81.0598 1182.0988,-79.9645 1183.7159,-86.7752"/>
</g>
<!-- Node20&#45;&gt;Node5 -->
<g id="edge35" class="edge">
<title>Node20&#45;&gt;Node5</title>
<path fill="none" stroke="#191970" d="M768.1563,-61.8906C732.382,-51.2621 674.6253,-34.1025 635.4095,-22.4514"/>
<polygon fill="#191970" stroke="#191970" points="636.1993,-19.0349 625.6166,-19.5419 634.2057,-25.745 636.1993,-19.0349"/>
</g>
<!-- Node22 -->
<g id="node23" class="node">
<title>Node22</title>
<polygon fill="none" stroke="#bfbfbf" points="874,-.5 874,-19.5 939,-19.5 939,-.5 874,-.5"/>
<text text-anchor="middle" x="906.5" y="-7.5" font-family="Helvetica,sans-Serif" font-size="10.00" fill="#000000">algorithm</text>
</g>
<!-- Node21&#45;&gt;Node22 -->
<g id="edge37" class="edge">
<title>Node21&#45;&gt;Node22</title>
<path fill="none" stroke="#191970" d="M937.7188,-61.8906C932.374,-53.0068 924.2841,-39.5601 917.6789,-28.5811"/>
<polygon fill="#191970" stroke="#191970" points="920.5171,-26.5093 912.3628,-19.7449 914.5189,-30.118 920.5171,-26.5093"/>
</g>
<!-- Node23 -->
<g id="node24" class="node">
<title>Node23</title>
<polygon fill="none" stroke="#bfbfbf" points="957.5,-.5 957.5,-19.5 1001.5,-19.5 1001.5,-.5 957.5,-.5"/>
<text text-anchor="middle" x="979.5" y="-7.5" font-family="Helvetica,sans-Serif" font-size="10.00" fill="#000000">array</text>
</g>
<!-- Node21&#45;&gt;Node23 -->
<g id="edge38" class="edge">
<title>Node21&#45;&gt;Node23</title>
<path fill="none" stroke="#191970" d="M949.125,-61.8906C954.3253,-53.0068 962.1966,-39.5601 968.6233,-28.5811"/>
<polygon fill="#191970" stroke="#191970" points="971.7644,-30.1432 973.7957,-19.7449 965.7233,-26.6069 971.7644,-30.1432"/>
</g>
<!-- Node24 -->
<g id="node25" class="node">
<title>Node24</title>
<polygon fill="none" stroke="#bfbfbf" points="1019.5,-.5 1019.5,-19.5 1069.5,-19.5 1069.5,-.5 1019.5,-.5"/>
<text text-anchor="middle" x="1044.5" y="-7.5" font-family="Helvetica,sans-Serif" font-size="10.00" fill="#000000">cstring</text>
</g>
<!-- Node21&#45;&gt;Node24 -->
<g id="edge39" class="edge">
<title>Node21&#45;&gt;Node24</title>
<path fill="none" stroke="#191970" d="M959.2813,-61.8906C975.5875,-51.9616 1001.254,-36.333 1020.1614,-24.8201"/>
<polygon fill="#191970" stroke="#191970" points="1022.1087,-27.7322 1028.8296,-19.5419 1018.4681,-21.7533 1022.1087,-27.7322"/>
</g>
<!-- Node25 -->
<g id="node26" class="node">
<title>Node25</title>
<polygon fill="none" stroke="#bfbfbf" points="656,-.5 656,-19.5 713,-19.5 713,-.5 656,-.5"/>
<text text-anchor="middle" x="684.5" y="-7.5" font-family="Helvetica,sans-Serif" font-size="10.00" fill="#000000">numeric</text>
</g>
<!-- Node21&#45;&gt;Node25 -->
<g id="edge40" class="edge">
<title>Node21&#45;&gt;Node25</title>
<path fill="none" stroke="#191970" d="M901.0472,-61.9832C858.5789,-52.3791 791.1384,-36.9014 723.1446,-20.1089"/>
<polygon fill="#191970" stroke="#191970" points="723.6599,-16.6308 713.1116,-17.6223 721.9759,-23.4252 723.6599,-16.6308"/>
</g>
<!-- Node26 -->
<g id="node27" class="node">
<title>Node26</title>
<g id="a_node27"><a xlink:href="ValArray_8inl.html" target="_top" xlink:title="lug/Math/ValArray.inl">
<polygon fill="none" stroke="#000000" points="731.5,-.5 731.5,-19.5 855.5,-19.5 855.5,-.5 731.5,-.5"/>
<text text-anchor="middle" x="793.5" y="-7.5" font-family="Helvetica,sans-Serif" font-size="10.00" fill="#000000">lug/Math/ValArray.inl</text>
</a>
</g>
</g>
<!-- Node21&#45;&gt;Node26 -->
<g id="edge41" class="edge">
<title>Node21&#45;&gt;Node26</title>
<path fill="none" stroke="#191970" d="M920.0625,-61.8906C894.8547,-51.5554 854.5847,-35.0447 826.2523,-23.4284"/>
<polygon fill="#191970" stroke="#191970" points="827.3532,-20.0971 816.7729,-19.5419 824.6977,-26.5739 827.3532,-20.0971"/>
</g>
<!-- Node27&#45;&gt;Node5 -->
<g id="edge43" class="edge">
<title>Node27&#45;&gt;Node5</title>
<path fill="none" stroke="#191970" d="M1050.2017,-61.9354C1039.5665,-59.7579 1028.1482,-57.6136 1017.5,-56 857.3346,-31.7287 812.8305,-42.6161 648.2225,-19.985"/>
<polygon fill="#191970" stroke="#191970" points="648.6283,-16.5078 638.2405,-18.5921 647.6608,-23.4406 648.6283,-16.5078"/>
</g>
<!-- Node28 -->
<g id="node29" class="node">
<title>Node28</title>
<g id="a_node29"><a xlink:href="Utils_8hpp.html" target="_top" xlink:title="lug/System/Utils.hpp">
<polygon fill="none" stroke="#000000" points="1087.5,-.5 1087.5,-19.5 1209.5,-19.5 1209.5,-.5 1087.5,-.5"/>
<text text-anchor="middle" x="1148.5" y="-7.5" font-family="Helvetica,sans-Serif" font-size="10.00" fill="#000000">lug/System/Utils.hpp</text>
</a>
</g>
</g>
<!-- Node27&#45;&gt;Node28 -->
<g id="edge44" class="edge">
<title>Node27&#45;&gt;Node28</title>
<path fill="none" stroke="#191970" d="M1101.25,-61.8906C1109.6662,-52.6478 1122.5797,-38.466 1132.781,-27.2628"/>
<polygon fill="#191970" stroke="#191970" points="1135.4818,-29.4953 1139.6266,-19.7449 1130.306,-24.7824 1135.4818,-29.4953"/>
</g>
<!-- Node29 -->
<g id="node30" class="node">
<title>Node29</title>
<polygon fill="none" stroke="#bfbfbf" points="1228,-.5 1228,-19.5 1289,-19.5 1289,-.5 1228,-.5"/>
<text text-anchor="middle" x="1258.5" y="-7.5" font-family="Helvetica,sans-Serif" font-size="10.00" fill="#000000">iostream</text>
</g>
<!-- Node27&#45;&gt;Node29 -->
<g id="edge45" class="edge">
<title>Node27&#45;&gt;Node29</title>
<path fill="none" stroke="#191970" d="M1118.4375,-61.8906C1146.5778,-51.4652 1191.6793,-34.7559 1223.0726,-23.1252"/>
<polygon fill="#191970" stroke="#191970" points="1224.5834,-26.298 1232.7446,-19.5419 1222.1515,-19.734 1224.5834,-26.298"/>
</g>
</g>
</svg>
