<?xml version="1.0" encoding="UTF-8" standalone="no"?>
<!DOCTYPE svg PUBLIC "-//W3C//DTD SVG 1.1//EN"
 "http://www.w3.org/Graphics/SVG/1.1/DTD/svg11.dtd">
<!-- Generated by graphviz version 2.40.1 (20161225.0304)
 -->
<!-- Title: include/lug/Graphics/Resource.hpp Pages: 1 -->
<svg width="531pt" height="151pt"
 viewBox="0.00 0.00 531.00 151.00" xmlns="http://www.w3.org/2000/svg" xmlns:xlink="http://www.w3.org/1999/xlink">
<g id="graph0" class="graph" transform="scale(1 1) rotate(0) translate(4 147)">
<title>include/lug/Graphics/Resource.hpp</title>
<!-- Node0 -->
<g id="node1" class="node">
<title>Node0</title>
<polygon fill="#bfbfbf" stroke="#000000" points="120.5,-112.5 120.5,-142.5 239.5,-142.5 239.5,-112.5 120.5,-112.5"/>
<text text-anchor="start" x="128.5" y="-130.5" font-family="Helvetica,sans-Serif" font-size="10.00" fill="#000000">include/lug/Graphics</text>
<text text-anchor="middle" x="180" y="-119.5" font-family="Helvetica,sans-Serif" font-size="10.00" fill="#000000">/Resource.hpp</text>
</g>
<!-- Node1 -->
<g id="node2" class="node">
<title>Node1</title>
<polygon fill="none" stroke="#bfbfbf" points="0,-56.5 0,-75.5 50,-75.5 50,-56.5 0,-56.5"/>
<text text-anchor="middle" x="25" y="-63.5" font-family="Helvetica,sans-Serif" font-size="10.00" fill="#000000">cstdint</text>
</g>
<!-- Node0&#45;&gt;Node1 -->
<g id="edge1" class="edge">
<title>Node0&#45;&gt;Node1</title>
<path fill="none" stroke="#191970" d="M142.0827,-112.4554C116.5609,-102.329 83.2104,-89.0964 58.6344,-79.3453"/>
<polygon fill="#191970" stroke="#191970" points="59.6054,-75.9651 49.0195,-75.5303 57.0237,-82.4717 59.6054,-75.9651"/>
</g>
<!-- Node2 -->
<g id="node3" class="node">
<title>Node2</title>
<polygon fill="none" stroke="#bfbfbf" points="68.5,-56.5 68.5,-75.5 139.5,-75.5 139.5,-56.5 68.5,-56.5"/>
<text text-anchor="middle" x="104" y="-63.5" font-family="Helvetica,sans-Serif" font-size="10.00" fill="#000000">type_traits</text>
</g>
<!-- Node0&#45;&gt;Node2 -->
<g id="edge2" class="edge">
<title>Node0&#45;&gt;Node2</title>
<path fill="none" stroke="#191970" d="M161.2135,-112.2977C149.8947,-103.1384 135.4895,-91.4816 123.9654,-82.1562"/>
<polygon fill="#191970" stroke="#191970" points="126.1439,-79.4167 116.1686,-75.8469 121.7405,-84.8583 126.1439,-79.4167"/>
</g>
<!-- Node3 -->
<g id="node4" class="node">
<title>Node3</title>
<polygon fill="none" stroke="#bfbfbf" points="157.5,-56.5 157.5,-75.5 202.5,-75.5 202.5,-56.5 157.5,-56.5"/>
<text text-anchor="middle" x="180" y="-63.5" font-family="Helvetica,sans-Serif" font-size="10.00" fill="#000000">string</text>
</g>
<!-- Node0&#45;&gt;Node3 -->
<g id="edge3" class="edge">
<title>Node0&#45;&gt;Node3</title>
<path fill="none" stroke="#191970" d="M180,-112.2977C180,-104.3834 180,-94.6043 180,-86.0759"/>
<polygon fill="#191970" stroke="#191970" points="183.5001,-85.8469 180,-75.8469 176.5001,-85.847 183.5001,-85.8469"/>
</g>
<!-- Node4 -->
<g id="node5" class="node">
<title>Node4</title>
<g id="a_node5"><a xlink:href="Graphics_2Export_8hpp.html" target="_top" xlink:title="lug/Graphics/Export.hpp">
<polygon fill="none" stroke="#000000" points="221,-56.5 221,-75.5 359,-75.5 359,-56.5 221,-56.5"/>
<text text-anchor="middle" x="290" y="-63.5" font-family="Helvetica,sans-Serif" font-size="10.00" fill="#000000">lug/Graphics/Export.hpp</text>
</a>
</g>
</g>
<!-- Node0&#45;&gt;Node4 -->
<g id="edge4" class="edge">
<title>Node0&#45;&gt;Node4</title>
<path fill="none" stroke="#191970" d="M206.909,-112.4554C224.2968,-102.734 246.8049,-90.15 264.0084,-80.5317"/>
<polygon fill="#191970" stroke="#191970" points="265.9335,-83.4653 272.9539,-75.5303 262.5174,-77.3554 265.9335,-83.4653"/>
</g>
<!-- Node6 -->
<g id="node7" class="node">
<title>Node6</title>
<g id="a_node7"><a xlink:href="Resource_8inl.html" target="_top" xlink:title="lug/Graphics/Resource.inl">
<polygon fill="none" stroke="#000000" points="377,-56.5 377,-75.5 523,-75.5 523,-56.5 377,-56.5"/>
<text text-anchor="middle" x="450" y="-63.5" font-family="Helvetica,sans-Serif" font-size="10.00" fill="#000000">lug/Graphics/Resource.inl</text>
</a>
</g>
</g>
<!-- Node0&#45;&gt;Node6 -->
<g id="edge6" class="edge">
<title>Node0&#45;&gt;Node6</title>
<path fill="none" stroke="#191970" d="M239.5869,-113.9274C287.0872,-103.1079 352.9273,-88.111 398.2429,-77.7891"/>
<polygon fill="#191970" stroke="#191970" points="399.1826,-81.1648 408.1555,-75.5312 397.6279,-74.3396 399.1826,-81.1648"/>
</g>
<!-- Node5 -->
<g id="node6" class="node">
<title>Node5</title>
<g id="a_node6"><a xlink:href="Config_8hpp.html" target="_top" xlink:title="lug/Config.hpp">
<polygon fill="none" stroke="#000000" points="245.5,-.5 245.5,-19.5 334.5,-19.5 334.5,-.5 245.5,-.5"/>
<text text-anchor="middle" x="290" y="-7.5" font-family="Helvetica,sans-Serif" font-size="10.00" fill="#000000">lug/Config.hpp</text>
</a>
</g>
</g>
<!-- Node4&#45;&gt;Node5 -->
<g id="edge5" class="edge">
<title>Node4&#45;&gt;Node5</title>
<path fill="none" stroke="#191970" d="M290,-56.2455C290,-48.9382 290,-38.6944 290,-29.7046"/>
<polygon fill="#191970" stroke="#191970" points="293.5001,-29.6426 290,-19.6427 286.5001,-29.6427 293.5001,-29.6426"/>
</g>
</g>
</svg>
