<?xml version="1.0" encoding="UTF-8" standalone="no"?>
<!DOCTYPE svg PUBLIC "-//W3C//DTD SVG 1.1//EN"
 "http://www.w3.org/Graphics/SVG/1.1/DTD/svg11.dtd">
<!-- Generated by graphviz version 2.40.1 (20161225.0304)
 -->
<!-- Title: include/lug/Graphics/Scene/Node.inl Pages: 1 -->
<!--zoomable 363 -->
<svg id="main" version="1.1" xmlns="http://www.w3.org/2000/svg" xmlns:xlink="http://www.w3.org/1999/xlink" xml:space="preserve" onload="init(evt)">
<style type="text/css"><![CDATA[
.edge:hover path { stroke: red; }
.edge:hover polygon { stroke: red; fill: red; }
]]></style>
<script type="text/javascript"><![CDATA[
var edges = document.getElementsByTagName('g');
if (edges && edges.length) {
  for (var i=0;i<edges.length;i++) {
    if (edges[i].id.substr(0,4)=='edge') {
      edges[i].setAttribute('class','edge');
    }
  }
}
]]></script>
        <defs>
                <circle id="rim" cx="0" cy="0" r="7"/>
                <circle id="rim2" cx="0" cy="0" r="3.5"/>
                <g id="zoomPlus">
                        <use xlink:href="#rim" fill="#404040">
                                <set attributeName="fill" to="#808080" begin="zoomplus.mouseover" end="zoomplus.mouseout"/>
                        </use>
                        <path d="M-4,0h8M0,-4v8" fill="none" stroke="white" stroke-width="1.5" pointer-events="none"/>
                </g>
                <g id="zoomMin">
                        <use xlink:href="#rim" fill="#404040">
                                <set attributeName="fill" to="#808080" begin="zoomminus.mouseover" end="zoomminus.mouseout"/>
                        </use>
                        <path d="M-4,0h8" fill="none" stroke="white" stroke-width="1.5" pointer-events="none"/>
                </g>
                <g id="dirArrow">
                        <path fill="none" stroke="white" stroke-width="1.5" d="M0,-3.0v7 M-2.5,-0.5L0,-3.0L2.5,-0.5"/>
                </g>
               <g id="resetDef">
                       <use xlink:href="#rim2" fill="#404040">
                               <set attributeName="fill" to="#808080" begin="reset.mouseover" end="reset.mouseout"/>
                       </use>
               </g>
        </defs>

<script type="text/javascript">
var viewWidth = 1430;
var viewHeight = 363;
var sectionId = 'dynsection-0';
</script>
<script xlink:href="svgpan.js"/>
<svg id="graph" class="graph">
<g id="viewport">
<title>include/lug/Graphics/Scene/Node.inl</title>
<!-- Node1 -->
<g id="node1" class="node">
<title>Node1</title>
<polygon fill="#bfbfbf" stroke="#000000" points="712.5,-324.5 712.5,-354.5 831.5,-354.5 831.5,-324.5 712.5,-324.5"/>
<text text-anchor="start" x="720.5" y="-342.5" font-family="Helvetica,sans-Serif" font-size="10.00" fill="#000000">include/lug/Graphics</text>
<text text-anchor="middle" x="772" y="-331.5" font-family="Helvetica,sans-Serif" font-size="10.00" fill="#000000">/Scene/Node.inl</text>
</g>
<!-- Node2 -->
<g id="node2" class="node">
<title>Node2</title>
<g id="a_node2"><a xlink:href="Scene_2Node_8hpp.html" target="_top" xlink:title="include/lug/Graphics\l/Scene/Node.hpp">
<polygon fill="none" stroke="#000000" points="712.5,-257.5 712.5,-287.5 831.5,-287.5 831.5,-257.5 712.5,-257.5"/>
<text text-anchor="start" x="720.5" y="-275.5" font-family="Helvetica,sans-Serif" font-size="10.00" fill="#000000">include/lug/Graphics</text>
<text text-anchor="middle" x="772" y="-264.5" font-family="Helvetica,sans-Serif" font-size="10.00" fill="#000000">/Scene/Node.hpp</text>
</a>
</g>
</g>
<!-- Node1&#45;&gt;Node2 -->
<g id="edge1" class="edge">
<title>Node1&#45;&gt;Node2</title>
<path fill="none" stroke="#191970" d="M772,-314.0249C772,-305.128 772,-295.4287 772,-287.6432"/>
<polygon fill="#191970" stroke="#191970" points="768.5001,-314.2966 772,-324.2967 775.5001,-314.2967 768.5001,-314.2966"/>
</g>
<!-- Node3 -->
<g id="node3" class="node">
<title>Node3</title>
<g id="a_node3"><a xlink:href="FreeMovement_8hpp.html" target="_top" xlink:title="include/lug/Core/FreeMovement.hpp">
<polygon fill="none" stroke="#000000" points="10.5,-196 10.5,-215 209.5,-215 209.5,-196 10.5,-196"/>
<text text-anchor="middle" x="110" y="-203" font-family="Helvetica,sans-Serif" font-size="10.00" fill="#000000">include/lug/Core/FreeMovement.hpp</text>
</a>
</g>
</g>
<!-- Node2&#45;&gt;Node3 -->
<g id="edge2" class="edge">
<title>Node2&#45;&gt;Node3</title>
<path fill="none" stroke="#191970" d="M702.2429,-266.2813C600.3771,-257.0817 404.9782,-238.9877 239,-221 222.0687,-219.1651 203.9039,-217.0643 186.7059,-215.0141"/>
<polygon fill="#191970" stroke="#191970" points="702.1283,-269.785 712.4022,-267.1972 702.7569,-262.8133 702.1283,-269.785"/>
</g>
<!-- Node5 -->
<g id="node5" class="node">
<title>Node5</title>
<g id="a_node5"><a xlink:href="GltfLoader_8hpp.html" target="_top" xlink:title="include/lug/Graphics\l/GltfLoader.hpp">
<polygon fill="none" stroke="#000000" points="248.5,-190.5 248.5,-220.5 367.5,-220.5 367.5,-190.5 248.5,-190.5"/>
<text text-anchor="start" x="256.5" y="-208.5" font-family="Helvetica,sans-Serif" font-size="10.00" fill="#000000">include/lug/Graphics</text>
<text text-anchor="middle" x="308" y="-197.5" font-family="Helvetica,sans-Serif" font-size="10.00" fill="#000000">/GltfLoader.hpp</text>
</a>
</g>
</g>
<!-- Node2&#45;&gt;Node5 -->
<g id="edge4" class="edge">
<title>Node2&#45;&gt;Node5</title>
<path fill="none" stroke="#191970" d="M702.3496,-262.4427C611.393,-249.3089 453.6817,-226.5359 367.8478,-214.1418"/>
<polygon fill="#191970" stroke="#191970" points="701.8924,-265.9129 712.29,-263.8781 702.8929,-258.9848 701.8924,-265.9129"/>
</g>
<!-- Node8 -->
<g id="node8" class="node">
<title>Node8</title>
<g id="a_node8"><a xlink:href="Scene_2Scene_8hpp.html" target="_top" xlink:title="include/lug/Graphics\l/Scene/Scene.hpp">
<polygon fill="none" stroke="#000000" points="575.5,-190.5 575.5,-220.5 694.5,-220.5 694.5,-190.5 575.5,-190.5"/>
<text text-anchor="start" x="583.5" y="-208.5" font-family="Helvetica,sans-Serif" font-size="10.00" fill="#000000">include/lug/Graphics</text>
<text text-anchor="middle" x="635" y="-197.5" font-family="Helvetica,sans-Serif" font-size="10.00" fill="#000000">/Scene/Scene.hpp</text>
</a>
</g>
</g>
<!-- Node2&#45;&gt;Node8 -->
<g id="edge7" class="edge">
<title>Node2&#45;&gt;Node8</title>
<path fill="none" stroke="#191970" d="M732.2328,-253.0518C711.1816,-242.7567 685.7086,-230.2991 666.1169,-220.7177"/>
<polygon fill="#191970" stroke="#191970" points="730.7336,-256.2147 741.2545,-257.4639 733.8089,-249.9264 730.7336,-256.2147"/>
</g>
<!-- Node17 -->
<g id="node17" class="node">
<title>Node17</title>
<g id="a_node17"><a xlink:href="Scene_2Node_8cpp.html" target="_top" xlink:title="src/lug/Graphics/Scene\l/Node.cpp">
<polygon fill="none" stroke="#000000" points="1022,-123.5 1022,-153.5 1156,-153.5 1156,-123.5 1022,-123.5"/>
<text text-anchor="start" x="1030" y="-141.5" font-family="Helvetica,sans-Serif" font-size="10.00" fill="#000000">src/lug/Graphics/Scene</text>
<text text-anchor="middle" x="1089" y="-130.5" font-family="Helvetica,sans-Serif" font-size="10.00" fill="#000000">/Node.cpp</text>
</a>
</g>
</g>
<!-- Node2&#45;&gt;Node17 -->
<g id="edge21" class="edge">
<title>Node2&#45;&gt;Node17</title>
<path fill="none" stroke="#191970" d="M752.0471,-249.1994C739.1732,-231.2492 727.3292,-206.7486 742,-190 782.0294,-144.3014 953.0902,-164.0761 1013,-154 1015.9215,-153.5086 1018.9021,-152.9873 1021.9102,-152.4447"/>
<polygon fill="#191970" stroke="#191970" points="749.4821,-251.6068 758.3381,-257.4224 755.0417,-247.3534 749.4821,-251.6068"/>
</g>
<!-- Node19 -->
<g id="node19" class="node">
<title>Node19</title>
<g id="a_node19"><a xlink:href="Render_2Light_8cpp.html" target="_top" xlink:title="src/lug/Graphics/Render\l/Light.cpp">
<polygon fill="none" stroke="#000000" points="751.5,-190.5 751.5,-220.5 890.5,-220.5 890.5,-190.5 751.5,-190.5"/>
<text text-anchor="start" x="759.5" y="-208.5" font-family="Helvetica,sans-Serif" font-size="10.00" fill="#000000">src/lug/Graphics/Render</text>
<text text-anchor="middle" x="821" y="-197.5" font-family="Helvetica,sans-Serif" font-size="10.00" fill="#000000">/Light.cpp</text>
</a>
</g>
</g>
<!-- Node2&#45;&gt;Node19 -->
<g id="edge20" class="edge">
<title>Node2&#45;&gt;Node19</title>
<path fill="none" stroke="#191970" d="M789.1408,-249.0626C796.0381,-239.6315 803.7932,-229.0276 809.9251,-220.6432"/>
<polygon fill="#191970" stroke="#191970" points="786.197,-247.1588 783.1189,-257.2967 791.8472,-251.2911 786.197,-247.1588"/>
</g>
<!-- Node20 -->
<g id="node20" class="node">
<title>Node20</title>
<g id="a_node20"><a xlink:href="Vulkan_2Render_2BufferPool_2Light_8cpp.html" target="_top" xlink:title="src/lug/Graphics/Vulkan\l/Render/BufferPool/Light.cpp">
<polygon fill="none" stroke="#000000" points="909,-190.5 909,-220.5 1071,-220.5 1071,-190.5 909,-190.5"/>
<text text-anchor="start" x="917" y="-208.5" font-family="Helvetica,sans-Serif" font-size="10.00" fill="#000000">src/lug/Graphics/Vulkan</text>
<text text-anchor="middle" x="990" y="-197.5" font-family="Helvetica,sans-Serif" font-size="10.00" fill="#000000">/Render/BufferPool/Light.cpp</text>
</a>
</g>
</g>
<!-- Node2&#45;&gt;Node20 -->
<g id="edge22" class="edge">
<title>Node2&#45;&gt;Node20</title>
<path fill="none" stroke="#191970" d="M830.8525,-254.4123C865.2851,-243.8298 908.2549,-230.6235 940.8632,-220.6017"/>
<polygon fill="#191970" stroke="#191970" points="829.454,-251.1805 820.9235,-257.4639 831.5104,-257.8716 829.454,-251.1805"/>
</g>
<!-- Node21 -->
<g id="node21" class="node">
<title>Node21</title>
<g id="a_node21"><a xlink:href="Vulkan_2Render_2Queue_8cpp.html" target="_top" xlink:title="src/lug/Graphics/Vulkan\l/Render/Queue.cpp">
<polygon fill="none" stroke="#000000" points="1089.5,-190.5 1089.5,-220.5 1226.5,-220.5 1226.5,-190.5 1089.5,-190.5"/>
<text text-anchor="start" x="1097.5" y="-208.5" font-family="Helvetica,sans-Serif" font-size="10.00" fill="#000000">src/lug/Graphics/Vulkan</text>
<text text-anchor="middle" x="1158" y="-197.5" font-family="Helvetica,sans-Serif" font-size="10.00" fill="#000000">/Render/Queue.cpp</text>
</a>
</g>
</g>
<!-- Node2&#45;&gt;Node21 -->
<g id="edge23" class="edge">
<title>Node2&#45;&gt;Node21</title>
<path fill="none" stroke="#191970" d="M841.8512,-261.443C904.3469,-251.4022 998.4144,-235.9236 1080,-221 1082.9878,-220.4535 1086.0382,-219.8864 1089.1183,-219.3064"/>
<polygon fill="#191970" stroke="#191970" points="841.0346,-258.0292 831.7149,-263.0684 842.1429,-264.9409 841.0346,-258.0292"/>
</g>
<!-- Node22 -->
<g id="node22" class="node">
<title>Node22</title>
<g id="a_node22"><a xlink:href="Forward_8cpp.html" target="_top" xlink:title="src/lug/Graphics/Vulkan\l/Render/Technique/Forward.cpp">
<polygon fill="none" stroke="#000000" points="1244.5,-190.5 1244.5,-220.5 1421.5,-220.5 1421.5,-190.5 1244.5,-190.5"/>
<text text-anchor="start" x="1252.5" y="-208.5" font-family="Helvetica,sans-Serif" font-size="10.00" fill="#000000">src/lug/Graphics/Vulkan</text>
<text text-anchor="middle" x="1333" y="-197.5" font-family="Helvetica,sans-Serif" font-size="10.00" fill="#000000">/Render/Technique/Forward.cpp</text>
</a>
</g>
</g>
<!-- Node2&#45;&gt;Node22 -->
<g id="edge24" class="edge">
<title>Node2&#45;&gt;Node22</title>
<path fill="none" stroke="#191970" d="M841.9939,-265.7861C932.9418,-256.8205 1096.5988,-239.8629 1236,-221 1238.7885,-220.6227 1241.6205,-220.2296 1244.4788,-219.8244"/>
<polygon fill="#191970" stroke="#191970" points="841.418,-262.3257 831.8081,-266.7867 842.1024,-269.2922 841.418,-262.3257"/>
</g>
<!-- Node4 -->
<g id="node4" class="node">
<title>Node4</title>
<g id="a_node4"><a xlink:href="FreeMovement_8cpp.html" target="_top" xlink:title="src/lug/Core/FreeMovement.cpp">
<polygon fill="none" stroke="#000000" points="0,-129 0,-148 178,-148 178,-129 0,-129"/>
<text text-anchor="middle" x="89" y="-136" font-family="Helvetica,sans-Serif" font-size="10.00" fill="#000000">src/lug/Core/FreeMovement.cpp</text>
</a>
</g>
</g>
<!-- Node3&#45;&gt;Node4 -->
<g id="edge3" class="edge">
<title>Node3&#45;&gt;Node4</title>
<path fill="none" stroke="#191970" d="M103.8838,-185.9863C99.9791,-173.5286 95.0887,-157.9258 92.0032,-148.0817"/>
<polygon fill="#191970" stroke="#191970" points="100.6605,-187.4051 106.9912,-195.9005 107.3401,-185.3114 100.6605,-187.4051"/>
</g>
<!-- Node6 -->
<g id="node6" class="node">
<title>Node6</title>
<g id="a_node6"><a xlink:href="GltfLoader_8cpp.html" target="_top" xlink:title="src/lug/Graphics/GltfLoader.cpp">
<polygon fill="none" stroke="#000000" points="193,-62 193,-81 369,-81 369,-62 193,-62"/>
<text text-anchor="middle" x="281" y="-69" font-family="Helvetica,sans-Serif" font-size="10.00" fill="#000000">src/lug/Graphics/GltfLoader.cpp</text>
</a>
</g>
</g>
<!-- Node5&#45;&gt;Node6 -->
<g id="edge5" class="edge">
<title>Node5&#45;&gt;Node6</title>
<path fill="none" stroke="#191970" d="M257.0587,-185.4025C243.961,-177.6425 231.4688,-167.3399 224,-154 217.2692,-141.9782 218.4068,-135.5914 224,-123 232.1753,-104.5956 250.5375,-89.985 264.2249,-81.0958"/>
<polygon fill="#191970" stroke="#191970" points="255.7142,-188.656 266.1687,-190.3747 259.0678,-182.5116 255.7142,-188.656"/>
</g>
<!-- Node7 -->
<g id="node7" class="node">
<title>Node7</title>
<g id="a_node7"><a xlink:href="ResourceManager_8cpp.html" target="_top" xlink:title="src/lug/Graphics/Resource\lManager.cpp">
<polygon fill="none" stroke="#000000" points="233.5,-123.5 233.5,-153.5 382.5,-153.5 382.5,-123.5 233.5,-123.5"/>
<text text-anchor="start" x="241.5" y="-141.5" font-family="Helvetica,sans-Serif" font-size="10.00" fill="#000000">src/lug/Graphics/Resource</text>
<text text-anchor="middle" x="308" y="-130.5" font-family="Helvetica,sans-Serif" font-size="10.00" fill="#000000">Manager.cpp</text>
</a>
</g>
</g>
<!-- Node5&#45;&gt;Node7 -->
<g id="edge6" class="edge">
<title>Node5&#45;&gt;Node7</title>
<path fill="none" stroke="#191970" d="M308,-180.0249C308,-171.128 308,-161.4287 308,-153.6432"/>
<polygon fill="#191970" stroke="#191970" points="304.5001,-180.2966 308,-190.2967 311.5001,-180.2967 304.5001,-180.2966"/>
</g>
<!-- Node8&#45;&gt;Node6 -->
<g id="edge16" class="edge">
<title>Node8&#45;&gt;Node6</title>
<path fill="none" stroke="#191970" d="M565.3575,-195.9248C524.1327,-188.3793 471.7766,-175.4412 429,-154 409.5148,-144.2333 409.4542,-134.5977 391,-123 363.3269,-105.6086 328.8391,-90.3976 305.9334,-81.1022"/>
<polygon fill="#191970" stroke="#191970" points="564.8599,-199.391 575.3161,-197.6831 566.077,-192.4976 564.8599,-199.391"/>
</g>
<!-- Node9 -->
<g id="node9" class="node">
<title>Node9</title>
<g id="a_node9"><a xlink:href="Builder_2Scene_8hpp.html" target="_top" xlink:title="include/lug/Graphics\l/Builder/Scene.hpp">
<polygon fill="none" stroke="#000000" points="438.5,-123.5 438.5,-153.5 557.5,-153.5 557.5,-123.5 438.5,-123.5"/>
<text text-anchor="start" x="446.5" y="-141.5" font-family="Helvetica,sans-Serif" font-size="10.00" fill="#000000">include/lug/Graphics</text>
<text text-anchor="middle" x="498" y="-130.5" font-family="Helvetica,sans-Serif" font-size="10.00" fill="#000000">/Builder/Scene.hpp</text>
</a>
</g>
</g>
<!-- Node8&#45;&gt;Node9 -->
<g id="edge8" class="edge">
<title>Node8&#45;&gt;Node9</title>
<path fill="none" stroke="#191970" d="M595.2328,-186.0518C574.1816,-175.7567 548.7086,-163.2991 529.1169,-153.7177"/>
<polygon fill="#191970" stroke="#191970" points="593.7336,-189.2147 604.2545,-190.4639 596.8089,-182.9264 593.7336,-189.2147"/>
</g>
<!-- Node11 -->
<g id="node11" class="node">
<title>Node11</title>
<g id="a_node11"><a xlink:href="Graphics_8hpp.html" target="_top" xlink:title="include/lug/Graphics\l/Graphics.hpp">
<polygon fill="none" stroke="#000000" points="575.5,-123.5 575.5,-153.5 694.5,-153.5 694.5,-123.5 575.5,-123.5"/>
<text text-anchor="start" x="583.5" y="-141.5" font-family="Helvetica,sans-Serif" font-size="10.00" fill="#000000">include/lug/Graphics</text>
<text text-anchor="middle" x="635" y="-130.5" font-family="Helvetica,sans-Serif" font-size="10.00" fill="#000000">/Graphics.hpp</text>
</a>
</g>
</g>
<!-- Node8&#45;&gt;Node11 -->
<g id="edge11" class="edge">
<title>Node8&#45;&gt;Node11</title>
<path fill="none" stroke="#191970" d="M635,-180.0249C635,-171.128 635,-161.4287 635,-153.6432"/>
<polygon fill="#191970" stroke="#191970" points="631.5001,-180.2966 635,-190.2967 638.5001,-180.2967 631.5001,-180.2966"/>
</g>
<!-- Node16 -->
<g id="node16" class="node">
<title>Node16</title>
<g id="a_node16"><a xlink:href="Render_2Camera_2Camera_8cpp.html" target="_top" xlink:title="src/lug/Graphics/Render\l/Camera/Camera.cpp">
<polygon fill="none" stroke="#000000" points="712.5,-123.5 712.5,-153.5 851.5,-153.5 851.5,-123.5 712.5,-123.5"/>
<text text-anchor="start" x="720.5" y="-141.5" font-family="Helvetica,sans-Serif" font-size="10.00" fill="#000000">src/lug/Graphics/Render</text>
<text text-anchor="middle" x="782" y="-130.5" font-family="Helvetica,sans-Serif" font-size="10.00" fill="#000000">/Camera/Camera.cpp</text>
</a>
</g>
</g>
<!-- Node8&#45;&gt;Node16 -->
<g id="edge17" class="edge">
<title>Node8&#45;&gt;Node16</title>
<path fill="none" stroke="#191970" d="M677.0964,-186.3132C699.8847,-175.9267 727.6333,-163.2794 748.8664,-153.6017"/>
<polygon fill="#191970" stroke="#191970" points="675.6375,-183.1317 667.9897,-190.4639 678.5407,-189.5013 675.6375,-183.1317"/>
</g>
<!-- Node8&#45;&gt;Node17 -->
<g id="edge18" class="edge">
<title>Node8&#45;&gt;Node17</title>
<path fill="none" stroke="#191970" d="M704.5877,-190.741C706.0706,-190.4858 707.5427,-190.2384 709,-190 843.27,-168.0321 878.6724,-175.613 1013,-154 1015.9249,-153.5294 1018.9084,-153.0252 1021.9188,-152.4967"/>
<polygon fill="#191970" stroke="#191970" points="703.9106,-187.3065 694.6894,-192.5238 705.1515,-194.1957 703.9106,-187.3065"/>
</g>
<!-- Node18 -->
<g id="node18" class="node">
<title>Node18</title>
<g id="a_node18"><a xlink:href="Scene_2Scene_8cpp.html" target="_top" xlink:title="src/lug/Graphics/Scene\l/Scene.cpp">
<polygon fill="none" stroke="#000000" points="870,-123.5 870,-153.5 1004,-153.5 1004,-123.5 870,-123.5"/>
<text text-anchor="start" x="878" y="-141.5" font-family="Helvetica,sans-Serif" font-size="10.00" fill="#000000">src/lug/Graphics/Scene</text>
<text text-anchor="middle" x="937" y="-130.5" font-family="Helvetica,sans-Serif" font-size="10.00" fill="#000000">/Scene.cpp</text>
</a>
</g>
</g>
<!-- Node8&#45;&gt;Node18 -->
<g id="edge19" class="edge">
<title>Node8&#45;&gt;Node18</title>
<path fill="none" stroke="#191970" d="M704.6813,-190.0409C754.348,-179.0221 820.7419,-164.2924 869.8314,-153.4016"/>
<polygon fill="#191970" stroke="#191970" points="703.67,-186.6801 694.6655,-192.263 705.1862,-193.5139 703.67,-186.6801"/>
</g>
<!-- Node9&#45;&gt;Node6 -->
<g id="edge10" class="edge">
<title>Node9&#45;&gt;Node6</title>
<path fill="none" stroke="#191970" d="M439.6527,-120.4849C398.4756,-107.7713 344.9427,-91.2427 311.7858,-81.0053"/>
<polygon fill="#191970" stroke="#191970" points="438.7135,-123.8579 449.301,-123.4639 440.7786,-117.1695 438.7135,-123.8579"/>
</g>
<!-- Node10 -->
<g id="node10" class="node">
<title>Node10</title>
<g id="a_node10"><a xlink:href="Builder_2Scene_8cpp.html" target="_top" xlink:title="src/lug/Graphics/Builder\l/Scene.cpp">
<polygon fill="none" stroke="#000000" points="387.5,-56.5 387.5,-86.5 526.5,-86.5 526.5,-56.5 387.5,-56.5"/>
<text text-anchor="start" x="395.5" y="-74.5" font-family="Helvetica,sans-Serif" font-size="10.00" fill="#000000">src/lug/Graphics/Builder</text>
<text text-anchor="middle" x="457" y="-63.5" font-family="Helvetica,sans-Serif" font-size="10.00" fill="#000000">/Scene.cpp</text>
</a>
</g>
</g>
<!-- Node9&#45;&gt;Node10 -->
<g id="edge9" class="edge">
<title>Node9&#45;&gt;Node10</title>
<path fill="none" stroke="#191970" d="M483.3035,-114.4837C477.6222,-105.1996 471.2928,-94.8565 466.2667,-86.6432"/>
<polygon fill="#191970" stroke="#191970" points="480.4914,-116.5939 488.6965,-123.2967 486.4622,-112.9401 480.4914,-116.5939"/>
</g>
<!-- Node12 -->
<g id="node12" class="node">
<title>Node12</title>
<g id="a_node12"><a xlink:href="Application_8hpp.html" target="_top" xlink:title="include/lug/Core/Application.hpp">
<polygon fill="none" stroke="#000000" points="545,-62 545,-81 725,-81 725,-62 545,-62"/>
<text text-anchor="middle" x="635" y="-69" font-family="Helvetica,sans-Serif" font-size="10.00" fill="#000000">include/lug/Core/Application.hpp</text>
</a>
</g>
</g>
<!-- Node11&#45;&gt;Node12 -->
<g id="edge12" class="edge">
<title>Node11&#45;&gt;Node12</title>
<path fill="none" stroke="#191970" d="M635,-113.1199C635,-101.9072 635,-89.4031 635,-81.055"/>
<polygon fill="#191970" stroke="#191970" points="631.5001,-113.2966 635,-123.2967 638.5001,-113.2967 631.5001,-113.2966"/>
</g>
<!-- Node14 -->
<g id="node14" class="node">
<title>Node14</title>
<g id="a_node14"><a xlink:href="Graphics_8cpp.html" target="_top" xlink:title="src/lug/Graphics/Graphics.cpp">
<polygon fill="none" stroke="#000000" points="743,-62 743,-81 911,-81 911,-62 743,-62"/>
<text text-anchor="middle" x="827" y="-69" font-family="Helvetica,sans-Serif" font-size="10.00" fill="#000000">src/lug/Graphics/Graphics.cpp</text>
</a>
</g>
</g>
<!-- Node11&#45;&gt;Node14 -->
<g id="edge14" class="edge">
<title>Node11&#45;&gt;Node14</title>
<path fill="none" stroke="#191970" d="M687.5499,-120.1623C723.8566,-107.4928 770.6715,-91.1563 799.761,-81.0053"/>
<polygon fill="#191970" stroke="#191970" points="686.377,-116.8645 678.0885,-123.4639 688.6834,-123.4737 686.377,-116.8645"/>
</g>
<!-- Node15 -->
<g id="node15" class="node">
<title>Node15</title>
<g id="a_node15"><a xlink:href="Vulkan_2Renderer_8cpp.html" target="_top" xlink:title="src/lug/Graphics/Vulkan\l/Renderer.cpp">
<polygon fill="none" stroke="#000000" points="929.5,-56.5 929.5,-86.5 1066.5,-86.5 1066.5,-56.5 929.5,-56.5"/>
<text text-anchor="start" x="937.5" y="-74.5" font-family="Helvetica,sans-Serif" font-size="10.00" fill="#000000">src/lug/Graphics/Vulkan</text>
<text text-anchor="middle" x="998" y="-63.5" font-family="Helvetica,sans-Serif" font-size="10.00" fill="#000000">/Renderer.cpp</text>
</a>
</g>
</g>
<!-- Node11&#45;&gt;Node15 -->
<g id="edge15" class="edge">
<title>Node11&#45;&gt;Node15</title>
<path fill="none" stroke="#191970" d="M704.499,-122.7651C800.6026,-104.1354 826.9213,-103.9646 920,-87 922.9882,-86.4554 926.0388,-85.8899 929.1191,-85.3111"/>
<polygon fill="#191970" stroke="#191970" points="703.8036,-119.3347 694.6612,-124.6889 705.147,-126.2046 703.8036,-119.3347"/>
</g>
<!-- Node13 -->
<g id="node13" class="node">
<title>Node13</title>
<g id="a_node13"><a xlink:href="Application_8cpp.html" target="_top" xlink:title="src/lug/Core/Application.cpp">
<polygon fill="none" stroke="#000000" points="555.5,-.5 555.5,-19.5 714.5,-19.5 714.5,-.5 555.5,-.5"/>
<text text-anchor="middle" x="635" y="-7.5" font-family="Helvetica,sans-Serif" font-size="10.00" fill="#000000">src/lug/Core/Application.cpp</text>
</a>
</g>
</g>
<!-- Node12&#45;&gt;Node13 -->
<g id="edge13" class="edge">
<title>Node12&#45;&gt;Node13</title>
<path fill="none" stroke="#191970" d="M635,-51.7462C635,-41.0519 635,-28.314 635,-19.7449"/>
<polygon fill="#191970" stroke="#191970" points="631.5001,-51.8906 635,-61.8906 638.5001,-51.8907 631.5001,-51.8906"/>
</g>
</g>
</svg>
        <g id="navigator" transform="translate(0 0)" fill="#404254">
                <rect fill="#f2f5e9" fill-opacity="0.5" stroke="#606060" stroke-width=".5" x="0" y="0" width="60" height="60"/>
                <use id="zoomplus" xlink:href="#zoomPlus" x="17" y="9" onmousedown="handleZoom(evt,'in')"/>
                <use id="zoomminus" xlink:href="#zoomMin" x="42" y="9" onmousedown="handleZoom(evt,'out')"/>
                <use id="reset" xlink:href="#resetDef" x="30" y="36" onmousedown="handleReset()"/>
                <g id="arrowUp" xlink:href="#dirArrow" transform="translate(30 24)" onmousedown="handlePan(0,-1)">
                  <use xlink:href="#rim" fill="#404040">
                        <set attributeName="fill" to="#808080" begin="arrowUp.mouseover" end="arrowUp.mouseout"/>
                  </use>
                  <path fill="none" stroke="white" stroke-width="1.5" d="M0,-3.0v7 M-2.5,-0.5L0,-3.0L2.5,-0.5"/>
                </g>
                <g id="arrowRight" xlink:href="#dirArrow" transform="rotate(90) translate(36 -43)" onmousedown="handlePan(1,0)">
                  <use xlink:href="#rim" fill="#404040">
                        <set attributeName="fill" to="#808080" begin="arrowRight.mouseover" end="arrowRight.mouseout"/>
                  </use>
                  <path fill="none" stroke="white" stroke-width="1.5" d="M0,-3.0v7 M-2.5,-0.5L0,-3.0L2.5,-0.5"/>
                </g>
                <g id="arrowDown" xlink:href="#dirArrow" transform="rotate(180) translate(-30 -48)" onmousedown="handlePan(0,1)">
                  <use xlink:href="#rim" fill="#404040">
                        <set attributeName="fill" to="#808080" begin="arrowDown.mouseover" end="arrowDown.mouseout"/>
                  </use>
                  <path fill="none" stroke="white" stroke-width="1.5" d="M0,-3.0v7 M-2.5,-0.5L0,-3.0L2.5,-0.5"/>
                </g>
                <g id="arrowLeft" xlink:href="#dirArrow" transform="rotate(270) translate(-36 17)" onmousedown="handlePan(-1,0)">
                  <use xlink:href="#rim" fill="#404040">
                        <set attributeName="fill" to="#808080" begin="arrowLeft.mouseover" end="arrowLeft.mouseout"/>
                  </use>
                  <path fill="none" stroke="white" stroke-width="1.5" d="M0,-3.0v7 M-2.5,-0.5L0,-3.0L2.5,-0.5"/>
                </g>
        </g>
        <svg viewBox="0 0 15 15" width="100%" height="30px" preserveAspectRatio="xMaxYMin meet">
         <g id="arrow_out" transform="scale(0.3 0.3)">
          <a xlink:href="Scene_2Node_8inl__dep__incl_org.svg" target="_base">
           <rect id="button" ry="5" rx="5" y="6" x="6" height="38" width="38"
                fill="#f2f5e9" fill-opacity="0.5" stroke="#606060" stroke-width="1.0"/>
           <path id="arrow"
             d="M 11.500037,31.436501 C 11.940474,20.09759 22.043105,11.32322 32.158766,21.979434 L 37.068811,17.246167 C 37.068811,17.246167 37.088388,32 37.088388,32 L 22.160133,31.978069 C 22.160133,31.978069 26.997745,27.140456 26.997745,27.140456 C 18.528582,18.264221 13.291696,25.230495 11.500037,31.436501 z"
             style="fill:#404040;"/>
          </a>
         </g>
        </svg>
</svg>
