<?xml version="1.0" encoding="UTF-8" standalone="no"?>
<!DOCTYPE svg PUBLIC "-//W3C//DTD SVG 1.1//EN"
 "http://www.w3.org/Graphics/SVG/1.1/DTD/svg11.dtd">
<!-- Generated by graphviz version 2.40.1 (20161225.0304)
 -->
<!-- Title: include/lug/Graphics/Scene/Scene.hpp Pages: 1 -->
<!--zoomable 229 -->
<svg id="main" version="1.1" xmlns="http://www.w3.org/2000/svg" xmlns:xlink="http://www.w3.org/1999/xlink" xml:space="preserve" onload="init(evt)">
<style type="text/css"><![CDATA[
.edge:hover path { stroke: red; }
.edge:hover polygon { stroke: red; fill: red; }
]]></style>
<script type="text/javascript"><![CDATA[
var edges = document.getElementsByTagName('g');
if (edges && edges.length) {
  for (var i=0;i<edges.length;i++) {
    if (edges[i].id.substr(0,4)=='edge') {
      edges[i].setAttribute('class','edge');
    }
  }
}
]]></script>
        <defs>
                <circle id="rim" cx="0" cy="0" r="7"/>
                <circle id="rim2" cx="0" cy="0" r="3.5"/>
                <g id="zoomPlus">
                        <use xlink:href="#rim" fill="#404040">
                                <set attributeName="fill" to="#808080" begin="zoomplus.mouseover" end="zoomplus.mouseout"/>
                        </use>
                        <path d="M-4,0h8M0,-4v8" fill="none" stroke="white" stroke-width="1.5" pointer-events="none"/>
                </g>
                <g id="zoomMin">
                        <use xlink:href="#rim" fill="#404040">
                                <set attributeName="fill" to="#808080" begin="zoomminus.mouseover" end="zoomminus.mouseout"/>
                        </use>
                        <path d="M-4,0h8" fill="none" stroke="white" stroke-width="1.5" pointer-events="none"/>
                </g>
                <g id="dirArrow">
                        <path fill="none" stroke="white" stroke-width="1.5" d="M0,-3.0v7 M-2.5,-0.5L0,-3.0L2.5,-0.5"/>
                </g>
               <g id="resetDef">
                       <use xlink:href="#rim2" fill="#404040">
                               <set attributeName="fill" to="#808080" begin="reset.mouseover" end="reset.mouseout"/>
                       </use>
               </g>
        </defs>

<script type="text/javascript">
var viewWidth = 810;
var viewHeight = 229;
var sectionId = 'dynsection-1';
</script>
<script xlink:href="svgpan.js"/>
<svg id="graph" class="graph">
<g id="viewport">
<title>include/lug/Graphics/Scene/Scene.hpp</title>
<!-- Node44 -->
<g id="node1" class="node">
<title>Node44</title>
<polygon fill="#bfbfbf" stroke="#000000" points="443.5,-190.5 443.5,-220.5 562.5,-220.5 562.5,-190.5 443.5,-190.5"/>
<text text-anchor="start" x="451.5" y="-208.5" font-family="Helvetica,sans-Serif" font-size="10.00" fill="#000000">include/lug/Graphics</text>
<text text-anchor="middle" x="503" y="-197.5" font-family="Helvetica,sans-Serif" font-size="10.00" fill="#000000">/Scene/Scene.hpp</text>
</g>
<!-- Node45 -->
<g id="node2" class="node">
<title>Node45</title>
<g id="a_node2"><a xlink:href="Graphics_8hpp.html" target="_top" xlink:title="include/lug/Graphics\l/Graphics.hpp">
<polygon fill="none" stroke="#000000" points="222.5,-123.5 222.5,-153.5 341.5,-153.5 341.5,-123.5 222.5,-123.5"/>
<text text-anchor="start" x="230.5" y="-141.5" font-family="Helvetica,sans-Serif" font-size="10.00" fill="#000000">include/lug/Graphics</text>
<text text-anchor="middle" x="282" y="-130.5" font-family="Helvetica,sans-Serif" font-size="10.00" fill="#000000">/Graphics.hpp</text>
</a>
</g>
</g>
<!-- Node44&#45;&gt;Node45 -->
<g id="edge1" class="edge">
<title>Node44&#45;&gt;Node45</title>
<path fill="none" stroke="#191970" d="M443.7866,-187.5484C408.8053,-176.9432 365.0119,-163.6665 331.813,-153.6017"/>
<polygon fill="#191970" stroke="#191970" points="442.8179,-190.912 453.4033,-190.4639 444.8489,-184.2131 442.8179,-190.912"/>
</g>
<!-- Node50 -->
<g id="node7" class="node">
<title>Node50</title>
<g id="a_node7"><a xlink:href="Scene_2Node_8cpp.html" target="_top" xlink:title="src/lug/Graphics/Scene\l/Node.cpp">
<polygon fill="none" stroke="#000000" points="360,-123.5 360,-153.5 494,-153.5 494,-123.5 360,-123.5"/>
<text text-anchor="start" x="368" y="-141.5" font-family="Helvetica,sans-Serif" font-size="10.00" fill="#000000">src/lug/Graphics/Scene</text>
<text text-anchor="middle" x="427" y="-130.5" font-family="Helvetica,sans-Serif" font-size="10.00" fill="#000000">/Node.cpp</text>
</a>
</g>
</g>
<!-- Node44&#45;&gt;Node50 -->
<g id="edge6" class="edge">
<title>Node44&#45;&gt;Node50</title>
<path fill="none" stroke="#191970" d="M478.0408,-183.4965C466.9503,-173.7193 454.1733,-162.4554 444.1773,-153.6432"/>
<polygon fill="#191970" stroke="#191970" points="475.9386,-186.3091 485.7544,-190.2967 480.5677,-181.0582 475.9386,-186.3091"/>
</g>
<!-- Node51 -->
<g id="node8" class="node">
<title>Node51</title>
<g id="a_node8"><a xlink:href="Scene_8cpp.html" target="_top" xlink:title="src/lug/Graphics/Scene\l/Scene.cpp">
<polygon fill="none" stroke="#000000" points="512,-123.5 512,-153.5 646,-153.5 646,-123.5 512,-123.5"/>
<text text-anchor="start" x="520" y="-141.5" font-family="Helvetica,sans-Serif" font-size="10.00" fill="#000000">src/lug/Graphics/Scene</text>
<text text-anchor="middle" x="579" y="-130.5" font-family="Helvetica,sans-Serif" font-size="10.00" fill="#000000">/Scene.cpp</text>
</a>
</g>
</g>
<!-- Node44&#45;&gt;Node51 -->
<g id="edge7" class="edge">
<title>Node44&#45;&gt;Node51</title>
<path fill="none" stroke="#191970" d="M527.9592,-183.4965C539.0497,-173.7193 551.8267,-162.4554 561.8227,-153.6432"/>
<polygon fill="#191970" stroke="#191970" points="525.4323,-181.0582 520.2456,-190.2967 530.0614,-186.3091 525.4323,-181.0582"/>
</g>
<!-- Node52 -->
<g id="node9" class="node">
<title>Node52</title>
<g id="a_node9"><a xlink:href="Vulkan_2Render_2Camera_8cpp.html" target="_top" xlink:title="src/lug/Graphics/Vulkan\l/Render/Camera.cpp">
<polygon fill="none" stroke="#000000" points="664.5,-123.5 664.5,-153.5 801.5,-153.5 801.5,-123.5 664.5,-123.5"/>
<text text-anchor="start" x="672.5" y="-141.5" font-family="Helvetica,sans-Serif" font-size="10.00" fill="#000000">src/lug/Graphics/Vulkan</text>
<text text-anchor="middle" x="733" y="-130.5" font-family="Helvetica,sans-Serif" font-size="10.00" fill="#000000">/Render/Camera.cpp</text>
</a>
</g>
</g>
<!-- Node44&#45;&gt;Node52 -->
<g id="edge8" class="edge">
<title>Node44&#45;&gt;Node52</title>
<path fill="none" stroke="#191970" d="M564.6248,-187.5484C601.0307,-176.9432 646.6075,-163.6665 681.1584,-153.6017"/>
<polygon fill="#191970" stroke="#191970" points="563.2385,-184.3067 554.6165,-190.4639 565.1963,-191.0274 563.2385,-184.3067"/>
</g>
<!-- Node46 -->
<g id="node3" class="node">
<title>Node46</title>
<g id="a_node3"><a xlink:href="Application_8hpp.html" target="_top" xlink:title="include/lug/Core/Application.hpp">
<polygon fill="none" stroke="#000000" points="0,-62 0,-81 180,-81 180,-62 0,-62"/>
<text text-anchor="middle" x="90" y="-69" font-family="Helvetica,sans-Serif" font-size="10.00" fill="#000000">include/lug/Core/Application.hpp</text>
</a>
</g>
</g>
<!-- Node45&#45;&gt;Node46 -->
<g id="edge2" class="edge">
<title>Node45&#45;&gt;Node46</title>
<path fill="none" stroke="#191970" d="M229.4501,-120.1623C193.1434,-107.4928 146.3285,-91.1563 117.239,-81.0053"/>
<polygon fill="#191970" stroke="#191970" points="228.3166,-123.4737 238.9115,-123.4639 230.623,-116.8645 228.3166,-123.4737"/>
</g>
<!-- Node48 -->
<g id="node5" class="node">
<title>Node48</title>
<g id="a_node5"><a xlink:href="Graphics_8cpp.html" target="_top" xlink:title="src/lug/Graphics/Graphics.cpp">
<polygon fill="none" stroke="#000000" points="198,-62 198,-81 366,-81 366,-62 198,-62"/>
<text text-anchor="middle" x="282" y="-69" font-family="Helvetica,sans-Serif" font-size="10.00" fill="#000000">src/lug/Graphics/Graphics.cpp</text>
</a>
</g>
</g>
<!-- Node45&#45;&gt;Node48 -->
<g id="edge4" class="edge">
<title>Node45&#45;&gt;Node48</title>
<path fill="none" stroke="#191970" d="M282,-113.1199C282,-101.9072 282,-89.4031 282,-81.055"/>
<polygon fill="#191970" stroke="#191970" points="278.5001,-113.2966 282,-123.2967 285.5001,-113.2967 278.5001,-113.2966"/>
</g>
<!-- Node49 -->
<g id="node6" class="node">
<title>Node49</title>
<g id="a_node6"><a xlink:href="Vulkan_2Renderer_8cpp.html" target="_top" xlink:title="src/lug/Graphics/Vulkan\l/Renderer.cpp">
<polygon fill="none" stroke="#000000" points="384.5,-56.5 384.5,-86.5 521.5,-86.5 521.5,-56.5 384.5,-56.5"/>
<text text-anchor="start" x="392.5" y="-74.5" font-family="Helvetica,sans-Serif" font-size="10.00" fill="#000000">src/lug/Graphics/Vulkan</text>
<text text-anchor="middle" x="453" y="-63.5" font-family="Helvetica,sans-Serif" font-size="10.00" fill="#000000">/Renderer.cpp</text>
</a>
</g>
</g>
<!-- Node45&#45;&gt;Node49 -->
<g id="edge5" class="edge">
<title>Node45&#45;&gt;Node49</title>
<path fill="none" stroke="#191970" d="M329.912,-119.7275C356.616,-109.2645 389.4277,-96.4084 414.4569,-86.6017"/>
<polygon fill="#191970" stroke="#191970" points="328.4097,-116.5569 320.3757,-123.4639 330.9634,-123.0745 328.4097,-116.5569"/>
</g>
<!-- Node47 -->
<g id="node4" class="node">
<title>Node47</title>
<g id="a_node4"><a xlink:href="Application_8cpp.html" target="_top" xlink:title="src/lug/Core/Application.cpp">
<polygon fill="none" stroke="#000000" points="10.5,-.5 10.5,-19.5 169.5,-19.5 169.5,-.5 10.5,-.5"/>
<text text-anchor="middle" x="90" y="-7.5" font-family="Helvetica,sans-Serif" font-size="10.00" fill="#000000">src/lug/Core/Application.cpp</text>
</a>
</g>
</g>
<!-- Node46&#45;&gt;Node47 -->
<g id="edge3" class="edge">
<title>Node46&#45;&gt;Node47</title>
<path fill="none" stroke="#191970" d="M90,-51.7462C90,-41.0519 90,-28.314 90,-19.7449"/>
<polygon fill="#191970" stroke="#191970" points="86.5001,-51.8906 90,-61.8906 93.5001,-51.8907 86.5001,-51.8906"/>
</g>
</g>
</svg>
        <g id="navigator" transform="translate(0 0)" fill="#404254">
                <rect fill="#f2f5e9" fill-opacity="0.5" stroke="#606060" stroke-width=".5" x="0" y="0" width="60" height="60"/>
                <use id="zoomplus" xlink:href="#zoomPlus" x="17" y="9" onmousedown="handleZoom(evt,'in')"/>
                <use id="zoomminus" xlink:href="#zoomMin" x="42" y="9" onmousedown="handleZoom(evt,'out')"/>
                <use id="reset" xlink:href="#resetDef" x="30" y="36" onmousedown="handleReset()"/>
                <g id="arrowUp" xlink:href="#dirArrow" transform="translate(30 24)" onmousedown="handlePan(0,-1)">
                  <use xlink:href="#rim" fill="#404040">
                        <set attributeName="fill" to="#808080" begin="arrowUp.mouseover" end="arrowUp.mouseout"/>
                  </use>
                  <path fill="none" stroke="white" stroke-width="1.5" d="M0,-3.0v7 M-2.5,-0.5L0,-3.0L2.5,-0.5"/>
                </g>
                <g id="arrowRight" xlink:href="#dirArrow" transform="rotate(90) translate(36 -43)" onmousedown="handlePan(1,0)">
                  <use xlink:href="#rim" fill="#404040">
                        <set attributeName="fill" to="#808080" begin="arrowRight.mouseover" end="arrowRight.mouseout"/>
                  </use>
                  <path fill="none" stroke="white" stroke-width="1.5" d="M0,-3.0v7 M-2.5,-0.5L0,-3.0L2.5,-0.5"/>
                </g>
                <g id="arrowDown" xlink:href="#dirArrow" transform="rotate(180) translate(-30 -48)" onmousedown="handlePan(0,1)">
                  <use xlink:href="#rim" fill="#404040">
                        <set attributeName="fill" to="#808080" begin="arrowDown.mouseover" end="arrowDown.mouseout"/>
                  </use>
                  <path fill="none" stroke="white" stroke-width="1.5" d="M0,-3.0v7 M-2.5,-0.5L0,-3.0L2.5,-0.5"/>
                </g>
                <g id="arrowLeft" xlink:href="#dirArrow" transform="rotate(270) translate(-36 17)" onmousedown="handlePan(-1,0)">
                  <use xlink:href="#rim" fill="#404040">
                        <set attributeName="fill" to="#808080" begin="arrowLeft.mouseover" end="arrowLeft.mouseout"/>
                  </use>
                  <path fill="none" stroke="white" stroke-width="1.5" d="M0,-3.0v7 M-2.5,-0.5L0,-3.0L2.5,-0.5"/>
                </g>
        </g>
        <svg viewBox="0 0 15 15" width="100%" height="30px" preserveAspectRatio="xMaxYMin meet">
         <g id="arrow_out" transform="scale(0.3 0.3)">
          <a xlink:href="Scene_8hpp__dep__incl_org.svg" target="_base">
           <rect id="button" ry="5" rx="5" y="6" x="6" height="38" width="38"
                fill="#f2f5e9" fill-opacity="0.5" stroke="#606060" stroke-width="1.0"/>
           <path id="arrow"
             d="M 11.500037,31.436501 C 11.940474,20.09759 22.043105,11.32322 32.158766,21.979434 L 37.068811,17.246167 C 37.068811,17.246167 37.088388,32 37.088388,32 L 22.160133,31.978069 C 22.160133,31.978069 26.997745,27.140456 26.997745,27.140456 C 18.528582,18.264221 13.291696,25.230495 11.500037,31.436501 z"
             style="fill:#404040;"/>
          </a>
         </g>
        </svg>
</svg>
