<?xml version="1.0" encoding="UTF-8" standalone="no"?>
<!DOCTYPE svg PUBLIC "-//W3C//DTD SVG 1.1//EN"
 "http://www.w3.org/Graphics/SVG/1.1/DTD/svg11.dtd">
<!-- Generated by graphviz version 2.40.1 (20161225.0304)
 -->
<!-- Title: lug::Graphics::Graphics::InitInfo Pages: 1 -->
<!--zoomable 195 -->
<svg id="main" version="1.1" xmlns="http://www.w3.org/2000/svg" xmlns:xlink="http://www.w3.org/1999/xlink" xml:space="preserve" onload="init(evt)">
<style type="text/css"><![CDATA[
.edge:hover path { stroke: red; }
.edge:hover polygon { stroke: red; fill: red; }
]]></style>
<script type="text/javascript"><![CDATA[
var edges = document.getElementsByTagName('g');
if (edges && edges.length) {
  for (var i=0;i<edges.length;i++) {
    if (edges[i].id.substr(0,4)=='edge') {
      edges[i].setAttribute('class','edge');
    }
  }
}
]]></script>
        <defs>
                <circle id="rim" cx="0" cy="0" r="7"/>
                <circle id="rim2" cx="0" cy="0" r="3.5"/>
                <g id="zoomPlus">
                        <use xlink:href="#rim" fill="#404040">
                                <set attributeName="fill" to="#808080" begin="zoomplus.mouseover" end="zoomplus.mouseout"/>
                        </use>
                        <path d="M-4,0h8M0,-4v8" fill="none" stroke="white" stroke-width="1.5" pointer-events="none"/>
                </g>
                <g id="zoomMin">
                        <use xlink:href="#rim" fill="#404040">
                                <set attributeName="fill" to="#808080" begin="zoomminus.mouseover" end="zoomminus.mouseout"/>
                        </use>
                        <path d="M-4,0h8" fill="none" stroke="white" stroke-width="1.5" pointer-events="none"/>
                </g>
                <g id="dirArrow">
                        <path fill="none" stroke="white" stroke-width="1.5" d="M0,-3.0v7 M-2.5,-0.5L0,-3.0L2.5,-0.5"/>
                </g>
               <g id="resetDef">
                       <use xlink:href="#rim2" fill="#404040">
                               <set attributeName="fill" to="#808080" begin="reset.mouseover" end="reset.mouseout"/>
                       </use>
               </g>
        </defs>

<script type="text/javascript">
var viewWidth = 543;
var viewHeight = 195;
var sectionId = 'dynsection-0';
</script>
<script xlink:href="svgpan.js"/>
<svg id="graph" class="graph">
<g id="viewport">
<title>lug::Graphics::Graphics::InitInfo</title>
<!-- Node1 -->
<g id="node1" class="node">
<title>Node1</title>
<polygon fill="#bfbfbf" stroke="#000000" points="252.5,-.5 252.5,-30.5 389.5,-30.5 389.5,-.5 252.5,-.5"/>
<text text-anchor="start" x="260.5" y="-18.5" font-family="Helvetica,sans-Serif" font-size="10.00" fill="#000000">lug::Graphics::Graphics</text>
<text text-anchor="middle" x="321" y="-7.5" font-family="Helvetica,sans-Serif" font-size="10.00" fill="#000000">::InitInfo</text>
</g>
<!-- Node2 -->
<g id="node2" class="node">
<title>Node2</title>
<g id="a_node2"><a xlink:href="structlug_1_1Graphics_1_1Renderer_1_1InitInfo.html" target="_top" xlink:title="lug::Graphics::Renderer\l::InitInfo">
<polygon fill="none" stroke="#000000" points="102.5,-89.5 102.5,-119.5 241.5,-119.5 241.5,-89.5 102.5,-89.5"/>
<text text-anchor="start" x="110.5" y="-107.5" font-family="Helvetica,sans-Serif" font-size="10.00" fill="#000000">lug::Graphics::Renderer</text>
<text text-anchor="middle" x="172" y="-96.5" font-family="Helvetica,sans-Serif" font-size="10.00" fill="#000000">::InitInfo</text>
</a>
</g>
</g>
<!-- Node2&#45;&gt;Node1 -->
<g id="edge1" class="edge">
<title>Node2&#45;&gt;Node1</title>
<path fill="none" stroke="#9a32cd" stroke-dasharray="5,2" d="M188.862,-81.2912C197.9184,-70.218 209.9036,-57.5524 223,-49 234.6674,-41.3808 248.2521,-35.3046 261.5239,-30.5354"/>
<polygon fill="#9a32cd" stroke="#9a32cd" points="185.9555,-79.3256 182.5374,-89.354 191.4632,-83.646 185.9555,-79.3256"/>
<text text-anchor="middle" x="265" y="-57.5" font-family="Helvetica,sans-Serif" font-size="10.00" fill="#000000"> rendererInitInfo</text>
</g>
<!-- Node3 -->
<g id="node3" class="node">
<title>Node3</title>
<polygon fill="none" stroke="#bfbfbf" points="0,-167.5 0,-186.5 80,-186.5 80,-167.5 0,-167.5"/>
<text text-anchor="middle" x="40" y="-174.5" font-family="Helvetica,sans-Serif" font-size="10.00" fill="#000000">DisplayMode</text>
</g>
<!-- Node3&#45;&gt;Node2 -->
<g id="edge2" class="edge">
<title>Node3&#45;&gt;Node2</title>
<path fill="none" stroke="#9a32cd" stroke-dasharray="5,2" d="M44.7031,-157.6102C47.2855,-150.5779 51.188,-143.114 57,-138 64.5718,-131.3376 82.9162,-124.9144 102.7824,-119.5058"/>
<polygon fill="#9a32cd" stroke="#9a32cd" points="41.3231,-156.6963 41.7956,-167.2806 48.0267,-158.7119 41.3231,-156.6963"/>
<text text-anchor="middle" x="90" y="-141" font-family="Helvetica,sans-Serif" font-size="10.00" fill="#000000"> displayMode</text>
</g>
<!-- Node4 -->
<g id="node4" class="node">
<title>Node4</title>
<polygon fill="none" stroke="#bfbfbf" points="106.5,-167.5 106.5,-186.5 151.5,-186.5 151.5,-167.5 106.5,-167.5"/>
<text text-anchor="middle" x="129" y="-174.5" font-family="Helvetica,sans-Serif" font-size="10.00" fill="#000000">string</text>
</g>
<!-- Node4&#45;&gt;Node2 -->
<g id="edge3" class="edge">
<title>Node4&#45;&gt;Node2</title>
<path fill="none" stroke="#9a32cd" stroke-dasharray="5,2" d="M126.2928,-157.4369C126.2153,-150.9605 127.0628,-143.9051 130,-138 133.5723,-130.8181 139.4844,-124.681 145.761,-119.6971"/>
<polygon fill="#9a32cd" stroke="#9a32cd" points="122.81,-157.7925 127.0909,-167.484 129.788,-157.2382 122.81,-157.7925"/>
<text text-anchor="middle" x="163" y="-141" font-family="Helvetica,sans-Serif" font-size="10.00" fill="#000000"> shadersRoot</text>
</g>
<!-- Node5 -->
<g id="node5" class="node">
<title>Node5</title>
<polygon fill="none" stroke="#bfbfbf" points="248.5,-167.5 248.5,-186.5 289.5,-186.5 289.5,-167.5 248.5,-167.5"/>
<text text-anchor="middle" x="269" y="-174.5" font-family="Helvetica,sans-Serif" font-size="10.00" fill="#000000">Type</text>
</g>
<!-- Node5&#45;&gt;Node1 -->
<g id="edge6" class="edge">
<title>Node5&#45;&gt;Node1</title>
<path fill="none" stroke="#9a32cd" stroke-dasharray="5,2" d="M296.3189,-161.3491C300.506,-157.8042 304.3196,-153.6799 307,-149 328.7741,-110.982 326.1178,-56.8055 323.1703,-30.7067"/>
<polygon fill="#9a32cd" stroke="#9a32cd" points="294,-158.7093 288.0065,-167.446 298.1401,-164.3538 294,-158.7093"/>
<text text-anchor="middle" x="361" y="-102" font-family="Helvetica,sans-Serif" font-size="10.00" fill="#000000"> rendererType</text>
</g>
<!-- Node5&#45;&gt;Node2 -->
<g id="edge4" class="edge">
<title>Node5&#45;&gt;Node2</title>
<path fill="none" stroke="#9a32cd" stroke-dasharray="5,2" d="M240.4642,-162.6211C233.2401,-158.5537 225.649,-153.8917 219,-149 207.0523,-140.2101 194.9299,-128.6536 185.9894,-119.5206"/>
<polygon fill="#9a32cd" stroke="#9a32cd" points="238.8615,-165.7334 249.32,-167.4276 242.2007,-159.5812 238.8615,-165.7334"/>
<text text-anchor="middle" x="263" y="-141" font-family="Helvetica,sans-Serif" font-size="10.00" fill="#000000"> renderTechnique</text>
</g>
<!-- Node6 -->
<g id="node6" class="node">
<title>Node6</title>
<polygon fill="none" stroke="#bfbfbf" points="411,-95 411,-114 535,-114 535,-95 411,-95"/>
<text text-anchor="middle" x="473" y="-102" font-family="Helvetica,sans-Serif" font-size="10.00" fill="#000000">set&lt; Module::Type &gt;</text>
</g>
<!-- Node6&#45;&gt;Node1 -->
<g id="edge5" class="edge">
<title>Node6&#45;&gt;Node1</title>
<path fill="none" stroke="#9a32cd" stroke-dasharray="5,2" d="M447.9545,-89.8352C419.9959,-73.4647 374.9798,-47.1066 346.7417,-30.5725"/>
<polygon fill="#9a32cd" stroke="#9a32cd" points="446.3353,-92.9429 456.7333,-94.9754 449.8723,-86.9022 446.3353,-92.9429"/>
<text text-anchor="middle" x="464.5" y="-63" font-family="Helvetica,sans-Serif" font-size="10.00" fill="#000000"> mandatoryModules</text>
<text text-anchor="middle" x="464.5" y="-52" font-family="Helvetica,sans-Serif" font-size="10.00" fill="#000000">optionalModules</text>
</g>
</g>
</svg>
        <g id="navigator" transform="translate(0 0)" fill="#404254">
                <rect fill="#f2f5e9" fill-opacity="0.5" stroke="#606060" stroke-width=".5" x="0" y="0" width="60" height="60"/>
                <use id="zoomplus" xlink:href="#zoomPlus" x="17" y="9" onmousedown="handleZoom(evt,'in')"/>
                <use id="zoomminus" xlink:href="#zoomMin" x="42" y="9" onmousedown="handleZoom(evt,'out')"/>
                <use id="reset" xlink:href="#resetDef" x="30" y="36" onmousedown="handleReset()"/>
                <g id="arrowUp" xlink:href="#dirArrow" transform="translate(30 24)" onmousedown="handlePan(0,-1)">
                  <use xlink:href="#rim" fill="#404040">
                        <set attributeName="fill" to="#808080" begin="arrowUp.mouseover" end="arrowUp.mouseout"/>
                  </use>
                  <path fill="none" stroke="white" stroke-width="1.5" d="M0,-3.0v7 M-2.5,-0.5L0,-3.0L2.5,-0.5"/>
                </g>
                <g id="arrowRight" xlink:href="#dirArrow" transform="rotate(90) translate(36 -43)" onmousedown="handlePan(1,0)">
                  <use xlink:href="#rim" fill="#404040">
                        <set attributeName="fill" to="#808080" begin="arrowRight.mouseover" end="arrowRight.mouseout"/>
                  </use>
                  <path fill="none" stroke="white" stroke-width="1.5" d="M0,-3.0v7 M-2.5,-0.5L0,-3.0L2.5,-0.5"/>
                </g>
                <g id="arrowDown" xlink:href="#dirArrow" transform="rotate(180) translate(-30 -48)" onmousedown="handlePan(0,1)">
                  <use xlink:href="#rim" fill="#404040">
                        <set attributeName="fill" to="#808080" begin="arrowDown.mouseover" end="arrowDown.mouseout"/>
                  </use>
                  <path fill="none" stroke="white" stroke-width="1.5" d="M0,-3.0v7 M-2.5,-0.5L0,-3.0L2.5,-0.5"/>
                </g>
                <g id="arrowLeft" xlink:href="#dirArrow" transform="rotate(270) translate(-36 17)" onmousedown="handlePan(-1,0)">
                  <use xlink:href="#rim" fill="#404040">
                        <set attributeName="fill" to="#808080" begin="arrowLeft.mouseover" end="arrowLeft.mouseout"/>
                  </use>
                  <path fill="none" stroke="white" stroke-width="1.5" d="M0,-3.0v7 M-2.5,-0.5L0,-3.0L2.5,-0.5"/>
                </g>
        </g>
        <svg viewBox="0 0 15 15" width="100%" height="30px" preserveAspectRatio="xMaxYMin meet">
         <g id="arrow_out" transform="scale(0.3 0.3)">
          <a xlink:href="structlug_1_1Graphics_1_1Graphics_1_1InitInfo__coll__graph_org.svg" target="_base">
           <rect id="button" ry="5" rx="5" y="6" x="6" height="38" width="38"
                fill="#f2f5e9" fill-opacity="0.5" stroke="#606060" stroke-width="1.0"/>
           <path id="arrow"
             d="M 11.500037,31.436501 C 11.940474,20.09759 22.043105,11.32322 32.158766,21.979434 L 37.068811,17.246167 C 37.068811,17.246167 37.088388,32 37.088388,32 L 22.160133,31.978069 C 22.160133,31.978069 26.997745,27.140456 26.997745,27.140456 C 18.528582,18.264221 13.291696,25.230495 11.500037,31.436501 z"
             style="fill:#404040;"/>
          </a>
         </g>
        </svg>
</svg>
