<?xml version="1.0" encoding="UTF-8" standalone="no"?>
<!DOCTYPE svg PUBLIC "-//W3C//DTD SVG 1.1//EN"
 "http://www.w3.org/Graphics/SVG/1.1/DTD/svg11.dtd">
<!-- Generated by graphviz version 2.40.1 (20161225.0304)
 -->
<!-- Title: CmdCopyImage Pages: 1 -->
<svg width="356pt" height="106pt"
 viewBox="0.00 0.00 355.50 106.00" xmlns="http://www.w3.org/2000/svg" xmlns:xlink="http://www.w3.org/1999/xlink">
<g id="graph0" class="graph" transform="scale(1 1) rotate(0) translate(4 102)">
<title>CmdCopyImage</title>
<!-- Node1 -->
<g id="node1" class="node">
<title>Node1</title>
<polygon fill="#bfbfbf" stroke="#000000" points="141,-.5 141,-19.5 236,-19.5 236,-.5 141,-.5"/>
<text text-anchor="middle" x="188.5" y="-7.5" font-family="Helvetica,sans-Serif" font-size="10.00" fill="#000000">CmdCopyImage</text>
</g>
<!-- Node2 -->
<g id="node2" class="node">
<title>Node2</title>
<polygon fill="none" stroke="#bfbfbf" points="0,-78.5 0,-97.5 141,-97.5 141,-78.5 0,-78.5"/>
<text text-anchor="middle" x="70.5" y="-85.5" font-family="Helvetica,sans-Serif" font-size="10.00" fill="#000000">vector&lt; VkImageCopy &gt;</text>
</g>
<!-- Node2&#45;&gt;Node1 -->
<g id="edge1" class="edge">
<title>Node2&#45;&gt;Node1</title>
<path fill="none" stroke="#9a32cd" stroke-dasharray="5,2" d="M92.3772,-72.6455C106.7906,-62.6214 126.1393,-49.3387 143.5,-38 153.0527,-31.7609 163.9091,-24.9965 172.565,-19.6796"/>
<polygon fill="#9a32cd" stroke="#9a32cd" points="90.3005,-69.8266 84.1024,-78.4193 94.3062,-75.5673 90.3005,-69.8266"/>
<text text-anchor="middle" x="164" y="-46.5" font-family="Helvetica,sans-Serif" font-size="10.00" fill="#000000"> regions</text>
</g>
<!-- Node3 -->
<g id="node3" class="node">
<title>Node3</title>
<polygon fill="none" stroke="#bfbfbf" points="159,-78.5 159,-97.5 218,-97.5 218,-78.5 159,-78.5"/>
<text text-anchor="middle" x="188.5" y="-85.5" font-family="Helvetica,sans-Serif" font-size="10.00" fill="#000000">Image &amp;</text>
</g>
<!-- Node3&#45;&gt;Node1 -->
<g id="edge2" class="edge">
<title>Node3&#45;&gt;Node1</title>
<path fill="none" stroke="#9a32cd" stroke-dasharray="5,2" d="M188.5,-68.2866C188.5,-52.7395 188.5,-31.7276 188.5,-19.6426"/>
<polygon fill="#9a32cd" stroke="#9a32cd" points="185.0001,-68.4356 188.5,-78.4357 192.0001,-68.4357 185.0001,-68.4356"/>
<text text-anchor="middle" x="214" y="-52" font-family="Helvetica,sans-Serif" font-size="10.00" fill="#000000"> srcImage</text>
<text text-anchor="middle" x="214" y="-41" font-family="Helvetica,sans-Serif" font-size="10.00" fill="#000000">dstImage</text>
</g>
<!-- Node4 -->
<g id="node4" class="node">
<title>Node4</title>
<polygon fill="none" stroke="#bfbfbf" points="236.5,-78.5 236.5,-97.5 330.5,-97.5 330.5,-78.5 236.5,-78.5"/>
<text text-anchor="middle" x="283.5" y="-85.5" font-family="Helvetica,sans-Serif" font-size="10.00" fill="#000000">VkImageLayout</text>
</g>
<!-- Node4&#45;&gt;Node1 -->
<g id="edge3" class="edge">
<title>Node4&#45;&gt;Node1</title>
<path fill="none" stroke="#9a32cd" stroke-dasharray="5,2" d="M271.841,-69.833C264.5941,-59.5619 254.5667,-47.013 243.5,-38 234.2781,-30.4894 222.7131,-24.2278 212.5707,-19.5441"/>
<polygon fill="#9a32cd" stroke="#9a32cd" points="268.9486,-71.8039 277.45,-78.1266 274.7471,-67.8824 268.9486,-71.8039"/>
<text text-anchor="middle" x="305.5" y="-52" font-family="Helvetica,sans-Serif" font-size="10.00" fill="#000000"> srcImageLayout</text>
<text text-anchor="middle" x="305.5" y="-41" font-family="Helvetica,sans-Serif" font-size="10.00" fill="#000000">dstImageLayout</text>
</g>
</g>
</svg>
