<?xml version="1.0" encoding="UTF-8" standalone="no"?>
<!DOCTYPE svg PUBLIC "-//W3C//DTD SVG 1.1//EN"
 "http://www.w3.org/Graphics/SVG/1.1/DTD/svg11.dtd">
<!-- Generated by graphviz version 2.40.1 (20161225.0304)
 -->
<!-- Title: lug::Graphics::Vulkan::Render::BufferPool::Chunk Pages: 1 -->
<!--zoomable 367 -->
<svg id="main" version="1.1" xmlns="http://www.w3.org/2000/svg" xmlns:xlink="http://www.w3.org/1999/xlink" xml:space="preserve" onload="init(evt)">
<style type="text/css"><![CDATA[
.edge:hover path { stroke: red; }
.edge:hover polygon { stroke: red; fill: red; }
]]></style>
<script type="text/javascript"><![CDATA[
var edges = document.getElementsByTagName('g');
if (edges && edges.length) {
  for (var i=0;i<edges.length;i++) {
    if (edges[i].id.substr(0,4)=='edge') {
      edges[i].setAttribute('class','edge');
    }
  }
}
]]></script>
        <defs>
                <circle id="rim" cx="0" cy="0" r="7"/>
                <circle id="rim2" cx="0" cy="0" r="3.5"/>
                <g id="zoomPlus">
                        <use xlink:href="#rim" fill="#404040">
                                <set attributeName="fill" to="#808080" begin="zoomplus.mouseover" end="zoomplus.mouseout"/>
                        </use>
                        <path d="M-4,0h8M0,-4v8" fill="none" stroke="white" stroke-width="1.5" pointer-events="none"/>
                </g>
                <g id="zoomMin">
                        <use xlink:href="#rim" fill="#404040">
                                <set attributeName="fill" to="#808080" begin="zoomminus.mouseover" end="zoomminus.mouseout"/>
                        </use>
                        <path d="M-4,0h8" fill="none" stroke="white" stroke-width="1.5" pointer-events="none"/>
                </g>
                <g id="dirArrow">
                        <path fill="none" stroke="white" stroke-width="1.5" d="M0,-3.0v7 M-2.5,-0.5L0,-3.0L2.5,-0.5"/>
                </g>
               <g id="resetDef">
                       <use xlink:href="#rim2" fill="#404040">
                               <set attributeName="fill" to="#808080" begin="reset.mouseover" end="reset.mouseout"/>
                       </use>
               </g>
        </defs>

<script type="text/javascript">
var viewWidth = 1558;
var viewHeight = 367;
var sectionId = 'dynsection-0';
</script>
<script xlink:href="svgpan.js"/>
<svg id="graph" class="graph">
<g id="viewport">
<title>lug::Graphics::Vulkan::Render::BufferPool::Chunk</title>
<!-- Node1 -->
<g id="node1" class="node">
<title>Node1</title>
<polygon fill="#bfbfbf" stroke="#000000" points="1423,-110 1423,-151 1550,-151 1550,-110 1423,-110"/>
<text text-anchor="start" x="1431" y="-139" font-family="Helvetica,sans-Serif" font-size="10.00" fill="#000000">lug::Graphics::Vulkan</text>
<text text-anchor="start" x="1431" y="-128" font-family="Helvetica,sans-Serif" font-size="10.00" fill="#000000">::Render::BufferPool</text>
<text text-anchor="middle" x="1486.5" y="-117" font-family="Helvetica,sans-Serif" font-size="10.00" fill="#000000">::Chunk</text>
</g>
<!-- Node2 -->
<g id="node2" class="node">
<title>Node2</title>
<polygon fill="none" stroke="#bfbfbf" points="1136,-247 1136,-288 1300,-288 1300,-247 1136,-247"/>
<text text-anchor="start" x="1144" y="-276" font-family="Helvetica,sans-Serif" font-size="10.00" fill="#000000">vector&lt; lug::Graphics</text>
<text text-anchor="start" x="1144" y="-265" font-family="Helvetica,sans-Serif" font-size="10.00" fill="#000000">::Vulkan::Render::BufferPool</text>
<text text-anchor="middle" x="1218" y="-254" font-family="Helvetica,sans-Serif" font-size="10.00" fill="#000000">::SubBuffer * &gt;</text>
</g>
<!-- Node2&#45;&gt;Node1 -->
<g id="edge1" class="edge">
<title>Node2&#45;&gt;Node1</title>
<path fill="none" stroke="#9a32cd" stroke-dasharray="5,2" d="M1295.068,-243.489C1329.9039,-231.0274 1370.8237,-214.0773 1405,-193.5 1425.6835,-181.0466 1447.2168,-164.2079 1462.9518,-151.0722"/>
<polygon fill="#9a32cd" stroke="#9a32cd" points="1293.6869,-240.2645 1285.4145,-246.8841 1296.0094,-246.8681 1293.6869,-240.2645"/>
<text text-anchor="middle" x="1365.5" y="-232.5" font-family="Helvetica,sans-Serif" font-size="10.00" fill="#000000"> subBuffersFree</text>
</g>
<!-- Node3 -->
<g id="node3" class="node">
<title>Node3</title>
<polygon fill="none" stroke="#bfbfbf" points="1136,-187 1136,-228 1300,-228 1300,-187 1136,-187"/>
<text text-anchor="start" x="1144" y="-216" font-family="Helvetica,sans-Serif" font-size="10.00" fill="#000000">vector&lt; lug::Graphics</text>
<text text-anchor="start" x="1144" y="-205" font-family="Helvetica,sans-Serif" font-size="10.00" fill="#000000">::Vulkan::Render::BufferPool</text>
<text text-anchor="middle" x="1218" y="-194" font-family="Helvetica,sans-Serif" font-size="10.00" fill="#000000">::SubBuffer &gt;</text>
</g>
<!-- Node3&#45;&gt;Node1 -->
<g id="edge2" class="edge">
<title>Node3&#45;&gt;Node1</title>
<path fill="none" stroke="#9a32cd" stroke-dasharray="5,2" d="M1308.6581,-184.4046C1339.3564,-176.2806 1373.7684,-166.8399 1405,-157.5 1411.7119,-155.4928 1418.7064,-153.3125 1425.6534,-151.0904"/>
<polygon fill="#9a32cd" stroke="#9a32cd" points="1307.6085,-181.0617 1298.8304,-186.9943 1309.3922,-187.8306 1307.6085,-181.0617"/>
<text text-anchor="middle" x="1365.5" y="-181.5" font-family="Helvetica,sans-Serif" font-size="10.00" fill="#000000"> subBuffers</text>
</g>
<!-- Node4 -->
<g id="node4" class="node">
<title>Node4</title>
<g id="a_node4"><a xlink:href="classlug_1_1Graphics_1_1Vulkan_1_1API_1_1DescriptorSet.html" target="_top" xlink:title="lug::Graphics::Vulkan\l::API::DescriptorSet">
<polygon fill="none" stroke="#000000" points="1154.5,-137.5 1154.5,-167.5 1281.5,-167.5 1281.5,-137.5 1154.5,-137.5"/>
<text text-anchor="start" x="1162.5" y="-155.5" font-family="Helvetica,sans-Serif" font-size="10.00" fill="#000000">lug::Graphics::Vulkan</text>
<text text-anchor="middle" x="1218" y="-144.5" font-family="Helvetica,sans-Serif" font-size="10.00" fill="#000000">::API::DescriptorSet</text>
</a>
</g>
</g>
<!-- Node4&#45;&gt;Node1 -->
<g id="edge3" class="edge">
<title>Node4&#45;&gt;Node1</title>
<path fill="none" stroke="#9a32cd" stroke-dasharray="5,2" d="M1291.8566,-146.4484C1332.9358,-143.0825 1383.5455,-138.9358 1422.8613,-135.7143"/>
<polygon fill="#9a32cd" stroke="#9a32cd" points="1291.3115,-142.9813 1281.6308,-147.2863 1291.8832,-149.9579 1291.3115,-142.9813"/>
<text text-anchor="middle" x="1365.5" y="-145.5" font-family="Helvetica,sans-Serif" font-size="10.00" fill="#000000"> descriptorSet</text>
</g>
<!-- Node5 -->
<g id="node5" class="node">
<title>Node5</title>
<polygon fill="none" stroke="#bfbfbf" points="902.5,-162 902.5,-181 1000.5,-181 1000.5,-162 902.5,-162"/>
<text text-anchor="middle" x="951.5" y="-169" font-family="Helvetica,sans-Serif" font-size="10.00" fill="#000000">VkDescriptorSet</text>
</g>
<!-- Node5&#45;&gt;Node4 -->
<g id="edge4" class="edge">
<title>Node5&#45;&gt;Node4</title>
<path fill="none" stroke="#9a32cd" stroke-dasharray="5,2" d="M1010.9215,-167.2636C1053.5613,-164.2236 1110.9394,-160.1328 1154.484,-157.0283"/>
<polygon fill="#9a32cd" stroke="#9a32cd" points="1010.4165,-163.7906 1000.6908,-167.993 1010.9144,-170.7729 1010.4165,-163.7906"/>
<text text-anchor="middle" x="1071.5" y="-167.5" font-family="Helvetica,sans-Serif" font-size="10.00" fill="#000000"> _descriptorSet</text>
</g>
<!-- Node6 -->
<g id="node6" class="node">
<title>Node6</title>
<g id="a_node6"><a xlink:href="classlug_1_1Graphics_1_1Vulkan_1_1API_1_1Device.html" target="_top" xlink:title="lug::Graphics::Vulkan\l::API::Device">
<polygon fill="none" stroke="#000000" points="888,-112.5 888,-142.5 1015,-142.5 1015,-112.5 888,-112.5"/>
<text text-anchor="start" x="896" y="-130.5" font-family="Helvetica,sans-Serif" font-size="10.00" fill="#000000">lug::Graphics::Vulkan</text>
<text text-anchor="middle" x="951.5" y="-119.5" font-family="Helvetica,sans-Serif" font-size="10.00" fill="#000000">::API::Device</text>
</a>
</g>
</g>
<!-- Node6&#45;&gt;Node4 -->
<g id="edge5" class="edge">
<title>Node6&#45;&gt;Node4</title>
<path fill="none" stroke="#9a32cd" stroke-dasharray="5,2" d="M1025.4082,-134.4332C1065.8607,-138.228 1115.483,-142.883 1154.2262,-146.5175"/>
<polygon fill="#9a32cd" stroke="#9a32cd" points="1025.6166,-130.9375 1015.3334,-133.4881 1024.9628,-137.9069 1025.6166,-130.9375"/>
<text text-anchor="middle" x="1071.5" y="-144.5" font-family="Helvetica,sans-Serif" font-size="10.00" fill="#000000"> _device</text>
</g>
<!-- Node7 -->
<g id="node7" class="node">
<title>Node7</title>
<g id="a_node7"><a xlink:href="structlug_1_1Graphics_1_1Vulkan_1_1PhysicalDeviceInfo.html" target="_top" xlink:title="lug::Graphics::Vulkan\l::PhysicalDeviceInfo">
<polygon fill="none" stroke="#000000" points="621,-139.5 621,-169.5 748,-169.5 748,-139.5 621,-139.5"/>
<text text-anchor="start" x="629" y="-157.5" font-family="Helvetica,sans-Serif" font-size="10.00" fill="#000000">lug::Graphics::Vulkan</text>
<text text-anchor="middle" x="684.5" y="-146.5" font-family="Helvetica,sans-Serif" font-size="10.00" fill="#000000">::PhysicalDeviceInfo</text>
</a>
</g>
</g>
<!-- Node7&#45;&gt;Node6 -->
<g id="edge6" class="edge">
<title>Node7&#45;&gt;Node6</title>
<path fill="none" stroke="#9a32cd" stroke-dasharray="5,2" d="M758.2452,-147.0426C798.9344,-142.928 848.9548,-137.8697 887.9112,-133.9303"/>
<polygon fill="#9a32cd" stroke="#9a32cd" points="757.711,-143.5787 748.1139,-148.0671 758.4154,-150.5432 757.711,-143.5787"/>
<text text-anchor="middle" x="818" y="-148.5" font-family="Helvetica,sans-Serif" font-size="10.00" fill="#000000"> _physicalDeviceInfo</text>
</g>
<!-- Node8 -->
<g id="node8" class="node">
<title>Node8</title>
<g id="a_node8"><a xlink:href="structlug_1_1Graphics_1_1Vulkan_1_1PhysicalDeviceInfo_1_1Swapchain.html" target="_top" xlink:title="lug::Graphics::Vulkan\l::PhysicalDeviceInfo\l::Swapchain">
<polygon fill="none" stroke="#000000" points="324.5,-290 324.5,-331 451.5,-331 451.5,-290 324.5,-290"/>
<text text-anchor="start" x="332.5" y="-319" font-family="Helvetica,sans-Serif" font-size="10.00" fill="#000000">lug::Graphics::Vulkan</text>
<text text-anchor="start" x="332.5" y="-308" font-family="Helvetica,sans-Serif" font-size="10.00" fill="#000000">::PhysicalDeviceInfo</text>
<text text-anchor="middle" x="388" y="-297" font-family="Helvetica,sans-Serif" font-size="10.00" fill="#000000">::Swapchain</text>
</a>
</g>
</g>
<!-- Node8&#45;&gt;Node7 -->
<g id="edge7" class="edge">
<title>Node8&#45;&gt;Node7</title>
<path fill="none" stroke="#9a32cd" stroke-dasharray="5,2" d="M461.9687,-302.9062C505.7326,-295.6887 560.6959,-281.6687 603,-254.5 637.1095,-232.5941 663.7273,-191.6752 676.3961,-169.5795"/>
<polygon fill="#9a32cd" stroke="#9a32cd" points="461.296,-299.4688 451.9569,-304.472 462.3776,-306.3847 461.296,-299.4688"/>
<text text-anchor="middle" x="554.5" y="-295.5" font-family="Helvetica,sans-Serif" font-size="10.00" fill="#000000"> swapchain</text>
</g>
<!-- Node9 -->
<g id="node9" class="node">
<title>Node9</title>
<polygon fill="none" stroke="#bfbfbf" points="16.5,-339 16.5,-358 162.5,-358 162.5,-339 16.5,-339"/>
<text text-anchor="middle" x="89.5" y="-346" font-family="Helvetica,sans-Serif" font-size="10.00" fill="#000000">VkSurfaceCapabilitiesKHR</text>
</g>
<!-- Node9&#45;&gt;Node8 -->
<g id="edge8" class="edge">
<title>Node9&#45;&gt;Node8</title>
<path fill="none" stroke="#9a32cd" stroke-dasharray="5,2" d="M172.5828,-337.9233C220.5932,-331.8114 280.0566,-324.2415 324.3375,-318.6044"/>
<polygon fill="#9a32cd" stroke="#9a32cd" points="171.9992,-334.4692 162.5213,-339.2042 172.8833,-341.4132 171.9992,-334.4692"/>
<text text-anchor="middle" x="233.5" y="-336.5" font-family="Helvetica,sans-Serif" font-size="10.00" fill="#000000"> capabilities</text>
</g>
<!-- Node10 -->
<g id="node10" class="node">
<title>Node10</title>
<polygon fill="none" stroke="#bfbfbf" points="0,-301 0,-320 179,-320 179,-301 0,-301"/>
<text text-anchor="middle" x="89.5" y="-308" font-family="Helvetica,sans-Serif" font-size="10.00" fill="#000000">vector&lt; VkSurfaceFormatKHR &gt;</text>
</g>
<!-- Node10&#45;&gt;Node8 -->
<g id="edge9" class="edge">
<title>Node10&#45;&gt;Node8</title>
<path fill="none" stroke="#9a32cd" stroke-dasharray="5,2" d="M189.3241,-310.5C233.799,-310.5 284.8747,-310.5 324.1016,-310.5"/>
<polygon fill="#9a32cd" stroke="#9a32cd" points="189.0599,-307.0001 179.0598,-310.5 189.0598,-314.0001 189.0599,-307.0001"/>
<text text-anchor="middle" x="233.5" y="-313.5" font-family="Helvetica,sans-Serif" font-size="10.00" fill="#000000"> formats</text>
</g>
<!-- Node11 -->
<g id="node11" class="node">
<title>Node11</title>
<polygon fill="none" stroke="#bfbfbf" points="4.5,-263 4.5,-282 174.5,-282 174.5,-263 4.5,-263"/>
<text text-anchor="middle" x="89.5" y="-270" font-family="Helvetica,sans-Serif" font-size="10.00" fill="#000000">vector&lt; VkPresentModeKHR &gt;</text>
</g>
<!-- Node11&#45;&gt;Node8 -->
<g id="edge10" class="edge">
<title>Node11&#45;&gt;Node8</title>
<path fill="none" stroke="#9a32cd" stroke-dasharray="5,2" d="M174.4265,-283.3114C222.0428,-289.3731 280.4605,-296.8099 324.1567,-302.3725"/>
<polygon fill="#9a32cd" stroke="#9a32cd" points="174.8008,-279.8309 164.4389,-282.04 173.9168,-286.7749 174.8008,-279.8309"/>
<text text-anchor="middle" x="233.5" y="-297.5" font-family="Helvetica,sans-Serif" font-size="10.00" fill="#000000"> presentModes</text>
</g>
<!-- Node12 -->
<g id="node12" class="node">
<title>Node12</title>
<polygon fill="none" stroke="#bfbfbf" points="308.5,-240.5 308.5,-270.5 467.5,-270.5 467.5,-240.5 308.5,-240.5"/>
<text text-anchor="start" x="316.5" y="-258.5" font-family="Helvetica,sans-Serif" font-size="10.00" fill="#000000">unordered_map&lt; VkFormat,</text>
<text text-anchor="middle" x="388" y="-247.5" font-family="Helvetica,sans-Serif" font-size="10.00" fill="#000000"> VkFormatProperties &gt;</text>
</g>
<!-- Node12&#45;&gt;Node7 -->
<g id="edge11" class="edge">
<title>Node12&#45;&gt;Node7</title>
<path fill="none" stroke="#9a32cd" stroke-dasharray="5,2" d="M477.4236,-246.2005C517.0561,-239.9299 563.5404,-229.5543 603,-212.5 627.5497,-201.8897 652.0561,-183.056 667.6872,-169.7323"/>
<polygon fill="#9a32cd" stroke="#9a32cd" points="476.8643,-242.7452 467.5036,-247.7078 477.9159,-249.6658 476.8643,-242.7452"/>
<text text-anchor="middle" x="554.5" y="-242.5" font-family="Helvetica,sans-Serif" font-size="10.00" fill="#000000"> formatProperties</text>
</g>
<!-- Node13 -->
<g id="node13" class="node">
<title>Node13</title>
<polygon fill="none" stroke="#bfbfbf" points="315,-202 315,-221 461,-221 461,-202 315,-202"/>
<text text-anchor="middle" x="388" y="-209" font-family="Helvetica,sans-Serif" font-size="10.00" fill="#000000">VkPhysicalDeviceFeatures</text>
</g>
<!-- Node13&#45;&gt;Node7 -->
<g id="edge12" class="edge">
<title>Node13&#45;&gt;Node7</title>
<path fill="none" stroke="#9a32cd" stroke-dasharray="5,2" d="M471.2106,-202.7619C511.3296,-197.7222 559.9699,-190.3941 603,-180.5 615.7373,-177.5713 629.348,-173.5838 641.7267,-169.6115"/>
<polygon fill="#9a32cd" stroke="#9a32cd" points="470.7004,-199.2982 461.2031,-203.9941 471.5558,-206.2457 470.7004,-199.2982"/>
<text text-anchor="middle" x="554.5" y="-200.5" font-family="Helvetica,sans-Serif" font-size="10.00" fill="#000000"> features</text>
</g>
<!-- Node14 -->
<g id="node14" class="node">
<title>Node14</title>
<polygon fill="none" stroke="#bfbfbf" points="288,-164 288,-183 488,-183 488,-164 288,-164"/>
<text text-anchor="middle" x="388" y="-171" font-family="Helvetica,sans-Serif" font-size="10.00" fill="#000000">vector&lt; VkQueueFamilyProperties &gt;</text>
</g>
<!-- Node14&#45;&gt;Node7 -->
<g id="edge13" class="edge">
<title>Node14&#45;&gt;Node7</title>
<path fill="none" stroke="#9a32cd" stroke-dasharray="5,2" d="M498.5025,-166.4189C539.7965,-163.7727 585.2765,-160.8583 620.9274,-158.5738"/>
<polygon fill="#9a32cd" stroke="#9a32cd" points="498.137,-162.935 488.3814,-167.0675 498.5848,-169.9207 498.137,-162.935"/>
<text text-anchor="middle" x="554.5" y="-168.5" font-family="Helvetica,sans-Serif" font-size="10.00" fill="#000000"> queueFamilies</text>
</g>
<!-- Node15 -->
<g id="node15" class="node">
<title>Node15</title>
<polygon fill="none" stroke="#bfbfbf" points="290.5,-126 290.5,-145 485.5,-145 485.5,-126 290.5,-126"/>
<text text-anchor="middle" x="388" y="-133" font-family="Helvetica,sans-Serif" font-size="10.00" fill="#000000">VkPhysicalDeviceMemoryProperties</text>
</g>
<!-- Node15&#45;&gt;Node7 -->
<g id="edge14" class="edge">
<title>Node15&#45;&gt;Node7</title>
<path fill="none" stroke="#9a32cd" stroke-dasharray="5,2" d="M495.8071,-138.3176C530.1079,-139.668 568.1796,-141.6396 603,-144.5 608.8251,-144.9785 614.8748,-145.5603 620.9278,-146.1999"/>
<polygon fill="#9a32cd" stroke="#9a32cd" points="495.8922,-134.8184 485.7664,-137.9356 495.626,-141.8133 495.8922,-134.8184"/>
<text text-anchor="middle" x="554.5" y="-147.5" font-family="Helvetica,sans-Serif" font-size="10.00" fill="#000000"> memoryProperties</text>
</g>
<!-- Node16 -->
<g id="node16" class="node">
<title>Node16</title>
<polygon fill="none" stroke="#bfbfbf" points="336,-88 336,-107 440,-107 440,-88 336,-88"/>
<text text-anchor="middle" x="388" y="-95" font-family="Helvetica,sans-Serif" font-size="10.00" fill="#000000">VkPhysicalDevice</text>
</g>
<!-- Node16&#45;&gt;Node7 -->
<g id="edge15" class="edge">
<title>Node16&#45;&gt;Node7</title>
<path fill="none" stroke="#9a32cd" stroke-dasharray="5,2" d="M450.4396,-101.0272C493.741,-104.4478 552.4775,-111.0341 603,-123.5 607.593,-124.6333 627.1317,-132.0508 645.9257,-139.3454"/>
<polygon fill="#9a32cd" stroke="#9a32cd" points="450.5703,-97.5272 440.3352,-100.2642 450.0432,-104.5073 450.5703,-97.5272"/>
<text text-anchor="middle" x="554.5" y="-126.5" font-family="Helvetica,sans-Serif" font-size="10.00" fill="#000000"> handle</text>
</g>
<!-- Node17 -->
<g id="node17" class="node">
<title>Node17</title>
<polygon fill="none" stroke="#bfbfbf" points="310.5,-50 310.5,-69 465.5,-69 465.5,-50 310.5,-50"/>
<text text-anchor="middle" x="388" y="-57" font-family="Helvetica,sans-Serif" font-size="10.00" fill="#000000">VkPhysicalDeviceProperties</text>
</g>
<!-- Node17&#45;&gt;Node7 -->
<g id="edge16" class="edge">
<title>Node17&#45;&gt;Node7</title>
<path fill="none" stroke="#9a32cd" stroke-dasharray="5,2" d="M475.8881,-54.2045C517.9821,-55.9633 566.9458,-64.7631 603,-91.5 618.0107,-102.6316 607.3486,-116.7378 621,-129.5 625.1544,-133.3837 629.9832,-136.69 635.0877,-139.4987"/>
<polygon fill="#9a32cd" stroke="#9a32cd" points="475.7243,-50.6984 465.627,-53.9069 475.5213,-57.6954 475.7243,-50.6984"/>
<text text-anchor="middle" x="554.5" y="-94.5" font-family="Helvetica,sans-Serif" font-size="10.00" fill="#000000"> properties</text>
</g>
<!-- Node18 -->
<g id="node18" class="node">
<title>Node18</title>
<polygon fill="none" stroke="#bfbfbf" points="296,-12 296,-31 480,-31 480,-12 296,-12"/>
<text text-anchor="middle" x="388" y="-19" font-family="Helvetica,sans-Serif" font-size="10.00" fill="#000000">vector&lt; VkExtensionProperties &gt;</text>
</g>
<!-- Node18&#45;&gt;Node7 -->
<g id="edge17" class="edge">
<title>Node18&#45;&gt;Node7</title>
<path fill="none" stroke="#9a32cd" stroke-dasharray="5,2" d="M440.507,-10.4505C488.8042,-3.5805 559.3515,-2.3678 603,-41.5 632.7242,-68.1487 595.3205,-98.9346 621,-129.5 624.2772,-133.4007 628.2449,-136.6963 632.5789,-139.4801"/>
<polygon fill="#9a32cd" stroke="#9a32cd" points="439.9036,-7.0022 430.5563,-11.9899 440.9739,-13.9199 439.9036,-7.0022"/>
<text text-anchor="middle" x="554.5" y="-44.5" font-family="Helvetica,sans-Serif" font-size="10.00" fill="#000000"> extensions</text>
</g>
<!-- Node19 -->
<g id="node19" class="node">
<title>Node19</title>
<polygon fill="none" stroke="#bfbfbf" points="653,-101 653,-120 716,-120 716,-101 653,-101"/>
<text text-anchor="middle" x="684.5" y="-108" font-family="Helvetica,sans-Serif" font-size="10.00" fill="#000000">VkDevice</text>
</g>
<!-- Node19&#45;&gt;Node6 -->
<g id="edge18" class="edge">
<title>Node19&#45;&gt;Node6</title>
<path fill="none" stroke="#9a32cd" stroke-dasharray="5,2" d="M726.1494,-110.637C763.7909,-111.0484 820.6909,-112.3857 870,-116.5 875.8335,-116.9867 881.889,-117.5997 887.9457,-118.286"/>
<polygon fill="#9a32cd" stroke="#9a32cd" points="726.0975,-107.1364 716.0656,-110.5439 726.0329,-114.1361 726.0975,-107.1364"/>
<text text-anchor="middle" x="818" y="-119.5" font-family="Helvetica,sans-Serif" font-size="10.00" fill="#000000"> _device</text>
</g>
<!-- Node20 -->
<g id="node20" class="node">
<title>Node20</title>
<polygon fill="none" stroke="#bfbfbf" points="1189.5,-99 1189.5,-118 1246.5,-118 1246.5,-99 1189.5,-99"/>
<text text-anchor="middle" x="1218" y="-106" font-family="Helvetica,sans-Serif" font-size="10.00" fill="#000000">uint32_t</text>
</g>
<!-- Node20&#45;&gt;Node1 -->
<g id="edge19" class="edge">
<title>Node20&#45;&gt;Node1</title>
<path fill="none" stroke="#9a32cd" stroke-dasharray="5,2" d="M1256.6053,-111.1286C1294.4321,-113.7659 1353.7096,-118.0633 1405,-122.5 1410.8074,-123.0023 1416.8451,-123.549 1422.8904,-124.1128"/>
<polygon fill="#9a32cd" stroke="#9a32cd" points="1256.7476,-107.6301 1246.5294,-110.43 1256.2634,-114.6134 1256.7476,-107.6301"/>
<text text-anchor="middle" x="1365.5" y="-125.5" font-family="Helvetica,sans-Serif" font-size="10.00" fill="#000000"> size</text>
</g>
<!-- Node21 -->
<g id="node21" class="node">
<title>Node21</title>
<polygon fill="none" stroke="#bfbfbf" points="1128,-49.5 1128,-79.5 1308,-79.5 1308,-49.5 1128,-49.5"/>
<text text-anchor="start" x="1136" y="-67.5" font-family="Helvetica,sans-Serif" font-size="10.00" fill="#000000">unique_ptr&lt; lug::Graphics</text>
<text text-anchor="middle" x="1218" y="-56.5" font-family="Helvetica,sans-Serif" font-size="10.00" fill="#000000">::Vulkan::API::DeviceMemory &gt;</text>
</g>
<!-- Node21&#45;&gt;Node1 -->
<g id="edge20" class="edge">
<title>Node21&#45;&gt;Node1</title>
<path fill="none" stroke="#9a32cd" stroke-dasharray="5,2" d="M1318.0142,-80.6464C1346.3511,-86.0586 1377.0783,-92.7289 1405,-100.5 1414.5867,-103.1681 1424.6474,-106.4545 1434.3004,-109.8631"/>
<polygon fill="#9a32cd" stroke="#9a32cd" points="1318.5734,-77.1903 1308.0993,-78.7847 1317.2816,-84.0701 1318.5734,-77.1903"/>
<text text-anchor="middle" x="1365.5" y="-103.5" font-family="Helvetica,sans-Serif" font-size="10.00" fill="#000000"> bufferMemory</text>
</g>
<!-- Node22 -->
<g id="node22" class="node">
<title>Node22</title>
<polygon fill="none" stroke="#bfbfbf" points="1143.5,-.5 1143.5,-30.5 1292.5,-30.5 1292.5,-.5 1143.5,-.5"/>
<text text-anchor="start" x="1151.5" y="-18.5" font-family="Helvetica,sans-Serif" font-size="10.00" fill="#000000">unique_ptr&lt; lug::Graphics</text>
<text text-anchor="middle" x="1218" y="-7.5" font-family="Helvetica,sans-Serif" font-size="10.00" fill="#000000">::Vulkan::API::Buffer &gt;</text>
</g>
<!-- Node22&#45;&gt;Node1 -->
<g id="edge21" class="edge">
<title>Node22&#45;&gt;Node1</title>
<path fill="none" stroke="#9a32cd" stroke-dasharray="5,2" d="M1302.8759,-31.7452C1335.8201,-39.9161 1373.1971,-51.5539 1405,-67.5 1427.0618,-78.5619 1449.0212,-96.0047 1464.5776,-109.7346"/>
<polygon fill="#9a32cd" stroke="#9a32cd" points="1303.3468,-28.2586 1292.8052,-29.3198 1301.7077,-35.0641 1303.3468,-28.2586"/>
<text text-anchor="middle" x="1365.5" y="-70.5" font-family="Helvetica,sans-Serif" font-size="10.00" fill="#000000"> buffer</text>
</g>
</g>
</svg>
        <g id="navigator" transform="translate(0 0)" fill="#404254">
                <rect fill="#f2f5e9" fill-opacity="0.5" stroke="#606060" stroke-width=".5" x="0" y="0" width="60" height="60"/>
                <use id="zoomplus" xlink:href="#zoomPlus" x="17" y="9" onmousedown="handleZoom(evt,'in')"/>
                <use id="zoomminus" xlink:href="#zoomMin" x="42" y="9" onmousedown="handleZoom(evt,'out')"/>
                <use id="reset" xlink:href="#resetDef" x="30" y="36" onmousedown="handleReset()"/>
                <g id="arrowUp" xlink:href="#dirArrow" transform="translate(30 24)" onmousedown="handlePan(0,-1)">
                  <use xlink:href="#rim" fill="#404040">
                        <set attributeName="fill" to="#808080" begin="arrowUp.mouseover" end="arrowUp.mouseout"/>
                  </use>
                  <path fill="none" stroke="white" stroke-width="1.5" d="M0,-3.0v7 M-2.5,-0.5L0,-3.0L2.5,-0.5"/>
                </g>
                <g id="arrowRight" xlink:href="#dirArrow" transform="rotate(90) translate(36 -43)" onmousedown="handlePan(1,0)">
                  <use xlink:href="#rim" fill="#404040">
                        <set attributeName="fill" to="#808080" begin="arrowRight.mouseover" end="arrowRight.mouseout"/>
                  </use>
                  <path fill="none" stroke="white" stroke-width="1.5" d="M0,-3.0v7 M-2.5,-0.5L0,-3.0L2.5,-0.5"/>
                </g>
                <g id="arrowDown" xlink:href="#dirArrow" transform="rotate(180) translate(-30 -48)" onmousedown="handlePan(0,1)">
                  <use xlink:href="#rim" fill="#404040">
                        <set attributeName="fill" to="#808080" begin="arrowDown.mouseover" end="arrowDown.mouseout"/>
                  </use>
                  <path fill="none" stroke="white" stroke-width="1.5" d="M0,-3.0v7 M-2.5,-0.5L0,-3.0L2.5,-0.5"/>
                </g>
                <g id="arrowLeft" xlink:href="#dirArrow" transform="rotate(270) translate(-36 17)" onmousedown="handlePan(-1,0)">
                  <use xlink:href="#rim" fill="#404040">
                        <set attributeName="fill" to="#808080" begin="arrowLeft.mouseover" end="arrowLeft.mouseout"/>
                  </use>
                  <path fill="none" stroke="white" stroke-width="1.5" d="M0,-3.0v7 M-2.5,-0.5L0,-3.0L2.5,-0.5"/>
                </g>
        </g>
        <svg viewBox="0 0 15 15" width="100%" height="30px" preserveAspectRatio="xMaxYMin meet">
         <g id="arrow_out" transform="scale(0.3 0.3)">
          <a xlink:href="structlug_1_1Graphics_1_1Vulkan_1_1Render_1_1BufferPool_1_1Chunk__coll__graph_org.svg" target="_base">
           <rect id="button" ry="5" rx="5" y="6" x="6" height="38" width="38"
                fill="#f2f5e9" fill-opacity="0.5" stroke="#606060" stroke-width="1.0"/>
           <path id="arrow"
             d="M 11.500037,31.436501 C 11.940474,20.09759 22.043105,11.32322 32.158766,21.979434 L 37.068811,17.246167 C 37.068811,17.246167 37.088388,32 37.088388,32 L 22.160133,31.978069 C 22.160133,31.978069 26.997745,27.140456 26.997745,27.140456 C 18.528582,18.264221 13.291696,25.230495 11.500037,31.436501 z"
             style="fill:#404040;"/>
          </a>
         </g>
        </svg>
</svg>
