<?xml version="1.0" encoding="UTF-8" standalone="no"?>
<!DOCTYPE svg PUBLIC "-//W3C//DTD SVG 1.1//EN"
 "http://www.w3.org/Graphics/SVG/1.1/DTD/svg11.dtd">
<!-- Generated by graphviz version 2.40.1 (20161225.0304)
 -->
<!-- Title: lug::Graphics::Resource::Handle Pages: 1 -->
<svg width="178pt" height="128pt"
 viewBox="0.00 0.00 177.50 128.00" xmlns="http://www.w3.org/2000/svg" xmlns:xlink="http://www.w3.org/1999/xlink">
<g id="graph0" class="graph" transform="scale(1 1) rotate(0) translate(4 124)">
<title>lug::Graphics::Resource::Handle</title>
<!-- Node1 -->
<g id="node1" class="node">
<title>Node1</title>
<polygon fill="#bfbfbf" stroke="#000000" points="6,-.5 6,-30.5 145,-30.5 145,-.5 6,-.5"/>
<text text-anchor="start" x="14" y="-18.5" font-family="Helvetica,sans-Serif" font-size="10.00" fill="#000000">lug::Graphics::Resource</text>
<text text-anchor="middle" x="75.5" y="-7.5" font-family="Helvetica,sans-Serif" font-size="10.00" fill="#000000">::Handle</text>
</g>
<!-- Node2 -->
<g id="node2" class="node">
<title>Node2</title>
<polygon fill="none" stroke="#bfbfbf" points="0,-100.5 0,-119.5 57,-119.5 57,-100.5 0,-100.5"/>
<text text-anchor="middle" x="28.5" y="-107.5" font-family="Helvetica,sans-Serif" font-size="10.00" fill="#000000">uint32_t</text>
</g>
<!-- Node2&#45;&gt;Node1 -->
<g id="edge1" class="edge">
<title>Node2&#45;&gt;Node1</title>
<path fill="none" stroke="#9a32cd" stroke-dasharray="5,2" d="M37.8855,-91.1291C46.7267,-73.3527 59.8019,-47.0632 67.9771,-30.6257"/>
<polygon fill="#9a32cd" stroke="#9a32cd" points="34.6722,-89.7304 33.3528,-100.2428 40.9398,-92.8477 34.6722,-89.7304"/>
<text text-anchor="middle" x="74" y="-74" font-family="Helvetica,sans-Serif" font-size="10.00" fill="#000000"> value</text>
<text text-anchor="middle" x="74" y="-63" font-family="Helvetica,sans-Serif" font-size="10.00" fill="#000000">type</text>
<text text-anchor="middle" x="74" y="-52" font-family="Helvetica,sans-Serif" font-size="10.00" fill="#000000">index</text>
</g>
<!-- Node3 -->
<g id="node3" class="node">
<title>Node3</title>
<polygon fill="none" stroke="#bfbfbf" points="75.5,-100.5 75.5,-119.5 169.5,-119.5 169.5,-100.5 75.5,-100.5"/>
<text text-anchor="middle" x="122.5" y="-107.5" font-family="Helvetica,sans-Serif" font-size="10.00" fill="#000000">anonymous:@5</text>
</g>
<!-- Node3&#45;&gt;Node1 -->
<g id="edge2" class="edge">
<title>Node3&#45;&gt;Node1</title>
<path fill="none" stroke="#9a32cd" stroke-dasharray="5,2" d="M113.8995,-91.2973C108.2497,-79.1664 100.6139,-63.0597 93.5,-49 90.4596,-42.991 86.9845,-36.4522 83.9037,-30.7598"/>
<polygon fill="#9a32cd" stroke="#9a32cd" points="110.7456,-92.8159 118.1232,-100.4199 117.0979,-89.8748 110.7456,-92.8159"/>
<text text-anchor="middle" x="118.5" y="-63" font-family="Helvetica,sans-Serif" font-size="10.00" fill="#000000"> @5</text>
</g>
</g>
</svg>
