<?xml version="1.0" encoding="UTF-8" standalone="no"?>
<!DOCTYPE svg PUBLIC "-//W3C//DTD SVG 1.1//EN"
 "http://www.w3.org/Graphics/SVG/1.1/DTD/svg11.dtd">
<!-- Generated by graphviz version 2.40.1 (20161225.0304)
 -->
<!-- Title: CmdBindDescriptors Pages: 1 -->
<svg width="368pt" height="192pt"
 viewBox="0.00 0.00 368.00 191.50" xmlns="http://www.w3.org/2000/svg" xmlns:xlink="http://www.w3.org/1999/xlink">
<g id="graph0" class="graph" transform="scale(1 1) rotate(0) translate(4 187.5)">
<title>CmdBindDescriptors</title>
<!-- Node1 -->
<g id="node1" class="node">
<title>Node1</title>
<polygon fill="#bfbfbf" stroke="#000000" points="242,-88 242,-107 360,-107 360,-88 242,-88"/>
<text text-anchor="middle" x="301" y="-95" font-family="Helvetica,sans-Serif" font-size="10.00" fill="#000000">CmdBindDescriptors</text>
</g>
<!-- Node2 -->
<g id="node2" class="node">
<title>Node2</title>
<polygon fill="none" stroke="#bfbfbf" points=".5,-164 .5,-183 115.5,-183 115.5,-164 .5,-164"/>
<text text-anchor="middle" x="58" y="-171" font-family="Helvetica,sans-Serif" font-size="10.00" fill="#000000">VkPipelineBindPoint</text>
</g>
<!-- Node2&#45;&gt;Node1 -->
<g id="edge1" class="edge">
<title>Node2&#45;&gt;Node1</title>
<path fill="none" stroke="#9a32cd" stroke-dasharray="5,2" d="M125.7724,-164.3076C156.3635,-158.9747 192.6009,-150.986 224,-139.5 247.024,-131.0777 271.5434,-116.6371 286.5707,-107.0793"/>
<polygon fill="#9a32cd" stroke="#9a32cd" points="124.9096,-160.9035 115.6296,-166.0155 126.072,-167.8063 124.9096,-160.9035"/>
<text text-anchor="middle" x="179" y="-165.5" font-family="Helvetica,sans-Serif" font-size="10.00" fill="#000000"> pipelineBindPoint</text>
</g>
<!-- Node3 -->
<g id="node3" class="node">
<title>Node3</title>
<polygon fill="none" stroke="#bfbfbf" points="8.5,-126 8.5,-145 107.5,-145 107.5,-126 8.5,-126"/>
<text text-anchor="middle" x="58" y="-133" font-family="Helvetica,sans-Serif" font-size="10.00" fill="#000000">PipelineLayout &amp;</text>
</g>
<!-- Node3&#45;&gt;Node1 -->
<g id="edge2" class="edge">
<title>Node3&#45;&gt;Node1</title>
<path fill="none" stroke="#9a32cd" stroke-dasharray="5,2" d="M117.4945,-128.0586C149.1812,-123.8932 188.7804,-118.3659 224,-112.5 233.807,-110.8666 244.2822,-108.9451 254.2469,-107.0325"/>
<polygon fill="#9a32cd" stroke="#9a32cd" points="116.9637,-124.5981 107.5003,-129.3619 117.8689,-131.5393 116.9637,-124.5981"/>
<text text-anchor="middle" x="179" y="-127.5" font-family="Helvetica,sans-Serif" font-size="10.00" fill="#000000"> pipelineLayout</text>
</g>
<!-- Node4 -->
<g id="node4" class="node">
<title>Node4</title>
<polygon fill="none" stroke="#bfbfbf" points="29.5,-88 29.5,-107 86.5,-107 86.5,-88 29.5,-88"/>
<text text-anchor="middle" x="58" y="-95" font-family="Helvetica,sans-Serif" font-size="10.00" fill="#000000">uint32_t</text>
</g>
<!-- Node4&#45;&gt;Node1 -->
<g id="edge3" class="edge">
<title>Node4&#45;&gt;Node1</title>
<path fill="none" stroke="#9a32cd" stroke-dasharray="5,2" d="M97.2459,-97.5C136.2941,-97.5 196.7108,-97.5 241.6284,-97.5"/>
<polygon fill="#9a32cd" stroke="#9a32cd" points="96.8296,-94.0001 86.8295,-97.5 96.8295,-101.0001 96.8296,-94.0001"/>
<text text-anchor="middle" x="179" y="-100.5" font-family="Helvetica,sans-Serif" font-size="10.00" fill="#000000"> firstSet</text>
</g>
<!-- Node5 -->
<g id="node5" class="node">
<title>Node5</title>
<polygon fill="none" stroke="#bfbfbf" points="1.5,-50 1.5,-69 114.5,-69 114.5,-50 1.5,-50"/>
<text text-anchor="middle" x="58" y="-57" font-family="Helvetica,sans-Serif" font-size="10.00" fill="#000000">vector&lt; uint32_t &gt;</text>
</g>
<!-- Node5&#45;&gt;Node1 -->
<g id="edge4" class="edge">
<title>Node5&#45;&gt;Node1</title>
<path fill="none" stroke="#9a32cd" stroke-dasharray="5,2" d="M124.6421,-67.8865C155.0084,-71.9254 191.3824,-77.0675 224,-82.5 233.807,-84.1334 244.2822,-86.0549 254.2469,-87.9675"/>
<polygon fill="#9a32cd" stroke="#9a32cd" points="124.9603,-64.3982 114.5884,-66.5603 124.0448,-71.3381 124.9603,-64.3982"/>
<text text-anchor="middle" x="179" y="-85.5" font-family="Helvetica,sans-Serif" font-size="10.00" fill="#000000"> dynamicOffsets</text>
</g>
<!-- Node6 -->
<g id="node6" class="node">
<title>Node6</title>
<polygon fill="none" stroke="#bfbfbf" points="0,-.5 0,-30.5 116,-30.5 116,-.5 0,-.5"/>
<text text-anchor="start" x="8" y="-18.5" font-family="Helvetica,sans-Serif" font-size="10.00" fill="#000000">vector&lt; const API::</text>
<text text-anchor="middle" x="58" y="-7.5" font-family="Helvetica,sans-Serif" font-size="10.00" fill="#000000">DescriptorSet * &gt;</text>
</g>
<!-- Node6&#45;&gt;Node1 -->
<g id="edge5" class="edge">
<title>Node6&#45;&gt;Node1</title>
<path fill="none" stroke="#9a32cd" stroke-dasharray="5,2" d="M126.1638,-27.0535C156.6838,-33.3533 192.7554,-42.3804 224,-54.5 247.1255,-63.4703 271.8175,-78.307 286.8328,-87.9932"/>
<polygon fill="#9a32cd" stroke="#9a32cd" points="126.5346,-23.5582 116.0413,-25.0211 125.1566,-30.4212 126.5346,-23.5582"/>
<text text-anchor="middle" x="179" y="-57.5" font-family="Helvetica,sans-Serif" font-size="10.00" fill="#000000"> descriptorSets</text>
</g>
</g>
</svg>
