<?xml version="1.0" encoding="UTF-8" standalone="no"?>
<!DOCTYPE svg PUBLIC "-//W3C//DTD SVG 1.1//EN"
 "http://www.w3.org/Graphics/SVG/1.1/DTD/svg11.dtd">
<!-- Generated by graphviz version 2.40.1 (20161225.0304)
 -->
<!-- Title: CmdPipelineBarrier::ImageMemoryBarrier::ImageSubresourceRange Pages: 1 -->
<svg width="246pt" height="150pt"
 viewBox="0.00 0.00 245.50 150.00" xmlns="http://www.w3.org/2000/svg" xmlns:xlink="http://www.w3.org/1999/xlink">
<g id="graph0" class="graph" transform="scale(1 1) rotate(0) translate(4 146)">
<title>CmdPipelineBarrier::ImageMemoryBarrier::ImageSubresourceRange</title>
<!-- Node1 -->
<g id="node1" class="node">
<title>Node1</title>
<polygon fill="#bfbfbf" stroke="#000000" points="37.5,-.5 37.5,-41.5 187.5,-41.5 187.5,-.5 37.5,-.5"/>
<text text-anchor="start" x="45.5" y="-29.5" font-family="Helvetica,sans-Serif" font-size="10.00" fill="#000000">CmdPipelineBarrier</text>
<text text-anchor="start" x="45.5" y="-18.5" font-family="Helvetica,sans-Serif" font-size="10.00" fill="#000000">::ImageMemoryBarrier</text>
<text text-anchor="middle" x="112.5" y="-7.5" font-family="Helvetica,sans-Serif" font-size="10.00" fill="#000000">::ImageSubresourceRange</text>
</g>
<!-- Node2 -->
<g id="node2" class="node">
<title>Node2</title>
<polygon fill="none" stroke="#bfbfbf" points="0,-122.5 0,-141.5 119,-141.5 119,-122.5 0,-122.5"/>
<text text-anchor="middle" x="59.5" y="-129.5" font-family="Helvetica,sans-Serif" font-size="10.00" fill="#000000">VkImageAspectFlags</text>
</g>
<!-- Node2&#45;&gt;Node1 -->
<g id="edge1" class="edge">
<title>Node2&#45;&gt;Node1</title>
<path fill="none" stroke="#9a32cd" stroke-dasharray="5,2" d="M63.4591,-112.1056C66.9205,-97.1963 72.7749,-76.594 81.5,-60 84.8007,-53.7225 89.1675,-47.4651 93.5788,-41.859"/>
<polygon fill="#9a32cd" stroke="#9a32cd" points="59.9611,-111.723 61.2706,-122.2366 66.8032,-113.201 59.9611,-111.723"/>
<text text-anchor="middle" x="112.5" y="-79.5" font-family="Helvetica,sans-Serif" font-size="10.00" fill="#000000"> aspectMask</text>
</g>
<!-- Node3 -->
<g id="node3" class="node">
<title>Node3</title>
<polygon fill="none" stroke="#bfbfbf" points="137,-122.5 137,-141.5 194,-141.5 194,-122.5 137,-122.5"/>
<text text-anchor="middle" x="165.5" y="-129.5" font-family="Helvetica,sans-Serif" font-size="10.00" fill="#000000">uint32_t</text>
</g>
<!-- Node3&#45;&gt;Node1 -->
<g id="edge2" class="edge">
<title>Node3&#45;&gt;Node1</title>
<path fill="none" stroke="#9a32cd" stroke-dasharray="5,2" d="M161.5409,-112.1056C158.0795,-97.1963 152.2251,-76.594 143.5,-60 140.1993,-53.7225 135.8325,-47.4651 131.4212,-41.859"/>
<polygon fill="#9a32cd" stroke="#9a32cd" points="158.1968,-113.201 163.7294,-122.2366 165.0389,-111.723 158.1968,-113.201"/>
<text text-anchor="middle" x="198" y="-96" font-family="Helvetica,sans-Serif" font-size="10.00" fill="#000000"> baseMipLevel</text>
<text text-anchor="middle" x="198" y="-85" font-family="Helvetica,sans-Serif" font-size="10.00" fill="#000000">levelCount</text>
<text text-anchor="middle" x="198" y="-74" font-family="Helvetica,sans-Serif" font-size="10.00" fill="#000000">baseArrayLayer</text>
<text text-anchor="middle" x="198" y="-63" font-family="Helvetica,sans-Serif" font-size="10.00" fill="#000000">layerCount</text>
</g>
</g>
</svg>
