<?xml version="1.0" encoding="UTF-8" standalone="no"?>
<!DOCTYPE svg PUBLIC "-//W3C//DTD SVG 1.1//EN"
 "http://www.w3.org/Graphics/SVG/1.1/DTD/svg11.dtd">
<!-- Generated by graphviz version 2.40.1 (20161225.0304)
 -->
<!-- Title: lug::Graphics::Vulkan::Renderer::Requirements Pages: 1 -->
<svg width="573pt" height="161pt"
 viewBox="0.00 0.00 573.00 161.00" xmlns="http://www.w3.org/2000/svg" xmlns:xlink="http://www.w3.org/1999/xlink">
<g id="graph0" class="graph" transform="scale(1 1) rotate(0) translate(4 157)">
<title>lug::Graphics::Vulkan::Renderer::Requirements</title>
<!-- Node1 -->
<g id="node1" class="node">
<title>Node1</title>
<polygon fill="#bfbfbf" stroke="#000000" points="190.5,-.5 190.5,-30.5 339.5,-30.5 339.5,-.5 190.5,-.5"/>
<text text-anchor="start" x="198.5" y="-18.5" font-family="Helvetica,sans-Serif" font-size="10.00" fill="#000000">lug::Graphics::Vulkan</text>
<text text-anchor="middle" x="265" y="-7.5" font-family="Helvetica,sans-Serif" font-size="10.00" fill="#000000">::Renderer::Requirements</text>
</g>
<!-- Node2 -->
<g id="node2" class="node">
<title>Node2</title>
<polygon fill="none" stroke="#bfbfbf" points="0,-133.5 0,-152.5 176,-152.5 176,-133.5 0,-133.5"/>
<text text-anchor="middle" x="88" y="-140.5" font-family="Helvetica,sans-Serif" font-size="10.00" fill="#000000">const VkPhysicalDeviceFeatures</text>
</g>
<!-- Node2&#45;&gt;Node1 -->
<g id="edge1" class="edge">
<title>Node2&#45;&gt;Node1</title>
<path fill="none" stroke="#9a32cd" stroke-dasharray="5,2" d="M97.5888,-124.486C109.4826,-103.281 131.6957,-68.9091 160,-49 171.0337,-41.239 183.9534,-35.212 196.8836,-30.5525"/>
<polygon fill="#9a32cd" stroke="#9a32cd" points="94.4134,-122.9999 92.7311,-133.4603 100.5694,-126.3321 94.4134,-122.9999"/>
<text text-anchor="middle" x="210.5" y="-85" font-family="Helvetica,sans-Serif" font-size="10.00" fill="#000000"> mandatoryFeatures</text>
<text text-anchor="middle" x="210.5" y="-74" font-family="Helvetica,sans-Serif" font-size="10.00" fill="#000000">optionalFeatures</text>
</g>
<!-- Node3 -->
<g id="node3" class="node">
<title>Node3</title>
<polygon fill="none" stroke="#bfbfbf" points="194,-133.5 194,-152.5 336,-152.5 336,-133.5 194,-133.5"/>
<text text-anchor="middle" x="265" y="-140.5" font-family="Helvetica,sans-Serif" font-size="10.00" fill="#000000">vector&lt; VkQueueFlags &gt;</text>
</g>
<!-- Node3&#45;&gt;Node1 -->
<g id="edge2" class="edge">
<title>Node3&#45;&gt;Node1</title>
<path fill="none" stroke="#9a32cd" stroke-dasharray="5,2" d="M265,-123.0805C265,-97.4776 265,-53.592 265,-30.5833"/>
<polygon fill="#9a32cd" stroke="#9a32cd" points="261.5001,-123.4167 265,-133.4168 268.5001,-123.4168 261.5001,-123.4167"/>
<text text-anchor="middle" x="321" y="-85" font-family="Helvetica,sans-Serif" font-size="10.00" fill="#000000"> optionalQueueFlags</text>
<text text-anchor="middle" x="321" y="-74" font-family="Helvetica,sans-Serif" font-size="10.00" fill="#000000">mandatoryQueueFlags</text>
</g>
<!-- Node4 -->
<g id="node4" class="node">
<title>Node4</title>
<polygon fill="none" stroke="#bfbfbf" points="354,-133.5 354,-152.5 488,-152.5 488,-133.5 354,-133.5"/>
<text text-anchor="middle" x="421" y="-140.5" font-family="Helvetica,sans-Serif" font-size="10.00" fill="#000000">vector&lt; const char * &gt;</text>
</g>
<!-- Node4&#45;&gt;Node1 -->
<g id="edge3" class="edge">
<title>Node4&#45;&gt;Node1</title>
<path fill="none" stroke="#9a32cd" stroke-dasharray="5,2" d="M417.8213,-123.5733C413.3227,-102.2709 403.0476,-68.5256 381,-49 373.4676,-42.3292 355.2719,-35.9505 335.4698,-30.583"/>
<polygon fill="#9a32cd" stroke="#9a32cd" points="414.3887,-124.2582 419.679,-133.4377 421.2678,-122.9627 414.3887,-124.2582"/>
<text text-anchor="middle" x="490" y="-107" font-family="Helvetica,sans-Serif" font-size="10.00" fill="#000000"> optionalDeviceExtensions</text>
<text text-anchor="middle" x="490" y="-96" font-family="Helvetica,sans-Serif" font-size="10.00" fill="#000000">mandatoryInstanceExtensions</text>
<text text-anchor="middle" x="490" y="-85" font-family="Helvetica,sans-Serif" font-size="10.00" fill="#000000">optionalInstanceLayers</text>
<text text-anchor="middle" x="490" y="-74" font-family="Helvetica,sans-Serif" font-size="10.00" fill="#000000">optionalInstanceExtensions</text>
<text text-anchor="middle" x="490" y="-63" font-family="Helvetica,sans-Serif" font-size="10.00" fill="#000000">mandatoryInstanceLayers</text>
<text text-anchor="middle" x="490" y="-52" font-family="Helvetica,sans-Serif" font-size="10.00" fill="#000000">mandatoryDeviceExtensions</text>
</g>
</g>
</svg>
