<?xml version="1.0" encoding="UTF-8" standalone="no"?>
<!DOCTYPE svg PUBLIC "-//W3C//DTD SVG 1.1//EN"
 "http://www.w3.org/Graphics/SVG/1.1/DTD/svg11.dtd">
<!-- Generated by graphviz version 2.40.1 (20161225.0304)
 -->
<!-- Title: lug::Window::MouseEvent Pages: 1 -->
<!--zoomable 161 -->
<svg id="main" version="1.1" xmlns="http://www.w3.org/2000/svg" xmlns:xlink="http://www.w3.org/1999/xlink" xml:space="preserve" onload="init(evt)">
<style type="text/css"><![CDATA[
.edge:hover path { stroke: red; }
.edge:hover polygon { stroke: red; fill: red; }
]]></style>
<script type="text/javascript"><![CDATA[
var edges = document.getElementsByTagName('g');
if (edges && edges.length) {
  for (var i=0;i<edges.length;i++) {
    if (edges[i].id.substr(0,4)=='edge') {
      edges[i].setAttribute('class','edge');
    }
  }
}
]]></script>
        <defs>
                <circle id="rim" cx="0" cy="0" r="7"/>
                <circle id="rim2" cx="0" cy="0" r="3.5"/>
                <g id="zoomPlus">
                        <use xlink:href="#rim" fill="#404040">
                                <set attributeName="fill" to="#808080" begin="zoomplus.mouseover" end="zoomplus.mouseout"/>
                        </use>
                        <path d="M-4,0h8M0,-4v8" fill="none" stroke="white" stroke-width="1.5" pointer-events="none"/>
                </g>
                <g id="zoomMin">
                        <use xlink:href="#rim" fill="#404040">
                                <set attributeName="fill" to="#808080" begin="zoomminus.mouseover" end="zoomminus.mouseout"/>
                        </use>
                        <path d="M-4,0h8" fill="none" stroke="white" stroke-width="1.5" pointer-events="none"/>
                </g>
                <g id="dirArrow">
                        <path fill="none" stroke="white" stroke-width="1.5" d="M0,-3.0v7 M-2.5,-0.5L0,-3.0L2.5,-0.5"/>
                </g>
               <g id="resetDef">
                       <use xlink:href="#rim2" fill="#404040">
                               <set attributeName="fill" to="#808080" begin="reset.mouseover" end="reset.mouseout"/>
                       </use>
               </g>
        </defs>

<script type="text/javascript">
var viewWidth = 641;
var viewHeight = 161;
var sectionId = 'dynsection-0';
</script>
<script xlink:href="svgpan.js"/>
<svg id="graph" class="graph">
<g id="viewport">
<title>lug::Window::MouseEvent</title>
<!-- Node1 -->
<g id="node1" class="node">
<title>Node1</title>
<polygon fill="#bfbfbf" stroke="#000000" points="173,-.5 173,-19.5 321,-19.5 321,-.5 173,-.5"/>
<text text-anchor="middle" x="247" y="-7.5" font-family="Helvetica,sans-Serif" font-size="10.00" fill="#000000">lug::Window::MouseEvent</text>
</g>
<!-- Node2 -->
<g id="node2" class="node">
<title>Node2</title>
<polygon fill="none" stroke="#bfbfbf" points="0,-133.5 0,-152.5 50,-152.5 50,-133.5 0,-133.5"/>
<text text-anchor="middle" x="25" y="-140.5" font-family="Helvetica,sans-Serif" font-size="10.00" fill="#000000">double</text>
</g>
<!-- Node2&#45;&gt;Node1 -->
<g id="edge1" class="edge">
<title>Node2&#45;&gt;Node1</title>
<path fill="none" stroke="#9a32cd" stroke-dasharray="5,2" d="M25.6662,-123.2849C27.6125,-99.2555 34.7275,-59.2365 60,-38 76.9642,-23.7449 128.0396,-16.7379 172.5319,-13.2988"/>
<polygon fill="#9a32cd" stroke="#9a32cd" points="22.1668,-123.1736 25.0788,-133.3603 29.155,-123.581 22.1668,-123.1736"/>
<text text-anchor="middle" x="80" y="-79.5" font-family="Helvetica,sans-Serif" font-size="10.00" fill="#000000"> xOffset</text>
<text text-anchor="middle" x="80" y="-68.5" font-family="Helvetica,sans-Serif" font-size="10.00" fill="#000000">yOffset</text>
</g>
<!-- Node3 -->
<g id="node3" class="node">
<title>Node3</title>
<polygon fill="none" stroke="#bfbfbf" points="68.5,-133.5 68.5,-152.5 119.5,-152.5 119.5,-133.5 68.5,-133.5"/>
<text text-anchor="middle" x="94" y="-140.5" font-family="Helvetica,sans-Serif" font-size="10.00" fill="#000000">int32_t</text>
</g>
<!-- Node3&#45;&gt;Node1 -->
<g id="edge2" class="edge">
<title>Node3&#45;&gt;Node1</title>
<path fill="none" stroke="#9a32cd" stroke-dasharray="5,2" d="M100.0561,-123.6436C108.4297,-100.0163 125.7892,-60.4442 154,-38 164.5561,-29.6017 177.5967,-23.7179 190.5381,-19.5973"/>
<polygon fill="#9a32cd" stroke="#9a32cd" points="96.6929,-122.6648 96.8344,-133.2586 103.3302,-124.8888 96.6929,-122.6648"/>
<text text-anchor="middle" x="159" y="-79.5" font-family="Helvetica,sans-Serif" font-size="10.00" fill="#000000"> x</text>
<text text-anchor="middle" x="159" y="-68.5" font-family="Helvetica,sans-Serif" font-size="10.00" fill="#000000">y</text>
</g>
<!-- Node4 -->
<g id="node4" class="node">
<title>Node4</title>
<polygon fill="none" stroke="#bfbfbf" points="138,-133.5 138,-152.5 176,-152.5 176,-133.5 138,-133.5"/>
<text text-anchor="middle" x="157" y="-140.5" font-family="Helvetica,sans-Serif" font-size="10.00" fill="#000000">bool</text>
</g>
<!-- Node4&#45;&gt;Node1 -->
<g id="edge3" class="edge">
<title>Node4&#45;&gt;Node1</title>
<path fill="none" stroke="#9a32cd" stroke-dasharray="5,2" d="M163.3621,-123.7657C171.4282,-101.4161 186.9843,-64.2549 209,-38 215.0026,-30.8416 223.1946,-24.5062 230.4358,-19.6803"/>
<polygon fill="#9a32cd" stroke="#9a32cd" points="159.9787,-122.8401 160.0086,-133.4349 166.5922,-125.1339 159.9787,-122.8401"/>
<text text-anchor="middle" x="226" y="-107" font-family="Helvetica,sans-Serif" font-size="10.00" fill="#000000"> right</text>
<text text-anchor="middle" x="226" y="-96" font-family="Helvetica,sans-Serif" font-size="10.00" fill="#000000">middle</text>
<text text-anchor="middle" x="226" y="-85" font-family="Helvetica,sans-Serif" font-size="10.00" fill="#000000">left</text>
<text text-anchor="middle" x="226" y="-74" font-family="Helvetica,sans-Serif" font-size="10.00" fill="#000000">shift</text>
<text text-anchor="middle" x="226" y="-63" font-family="Helvetica,sans-Serif" font-size="10.00" fill="#000000">ctrl</text>
<text text-anchor="middle" x="226" y="-52" font-family="Helvetica,sans-Serif" font-size="10.00" fill="#000000">x1</text>
<text text-anchor="middle" x="226" y="-41" font-family="Helvetica,sans-Serif" font-size="10.00" fill="#000000">x2</text>
</g>
<!-- Node5 -->
<g id="node5" class="node">
<title>Node5</title>
<polygon fill="none" stroke="#bfbfbf" points="194,-133.5 194,-152.5 300,-152.5 300,-133.5 194,-133.5"/>
<text text-anchor="middle" x="247" y="-140.5" font-family="Helvetica,sans-Serif" font-size="10.00" fill="#000000">anonymous:coord</text>
</g>
<!-- Node5&#45;&gt;Node1 -->
<g id="edge4" class="edge">
<title>Node5&#45;&gt;Node1</title>
<path fill="none" stroke="#9a32cd" stroke-dasharray="5,2" d="M247,-123.3284C247,-94.4521 247,-41.6559 247,-19.8372"/>
<polygon fill="#9a32cd" stroke="#9a32cd" points="243.5001,-123.4349 247,-133.435 250.5001,-123.435 243.5001,-123.4349"/>
<text text-anchor="middle" x="263" y="-74" font-family="Helvetica,sans-Serif" font-size="10.00" fill="#000000"> coord</text>
</g>
<!-- Node6 -->
<g id="node6" class="node">
<title>Node6</title>
<polygon fill="none" stroke="#bfbfbf" points="318,-133.5 318,-152.5 412,-152.5 412,-133.5 318,-133.5"/>
<text text-anchor="middle" x="365" y="-140.5" font-family="Helvetica,sans-Serif" font-size="10.00" fill="#000000">anonymous:@5</text>
</g>
<!-- Node6&#45;&gt;Node1 -->
<g id="edge5" class="edge">
<title>Node6&#45;&gt;Node1</title>
<path fill="none" stroke="#9a32cd" stroke-dasharray="5,2" d="M353.0431,-125.0568C338.0579,-103.2383 310.9332,-65.8781 283,-38 276.2748,-31.2881 267.9443,-24.7163 260.9912,-19.628"/>
<polygon fill="#9a32cd" stroke="#9a32cd" points="350.1799,-127.0707 358.6891,-133.383 355.9735,-123.1421 350.1799,-127.0707"/>
<text text-anchor="middle" x="354" y="-74" font-family="Helvetica,sans-Serif" font-size="10.00" fill="#000000"> @5</text>
</g>
<!-- Node7 -->
<g id="node7" class="node">
<title>Node7</title>
<polygon fill="none" stroke="#bfbfbf" points="430.5,-133.5 430.5,-152.5 565.5,-152.5 565.5,-133.5 430.5,-133.5"/>
<text text-anchor="middle" x="498" y="-140.5" font-family="Helvetica,sans-Serif" font-size="10.00" fill="#000000">anonymous:scrollOffset</text>
</g>
<!-- Node7&#45;&gt;Node1 -->
<g id="edge6" class="edge">
<title>Node7&#45;&gt;Node1</title>
<path fill="none" stroke="#9a32cd" stroke-dasharray="5,2" d="M482.0823,-126.0016C459.1447,-102.5531 414.4262,-60.6219 368,-38 350.8457,-29.6413 331.0912,-23.7156 312.5844,-19.5396"/>
<polygon fill="#9a32cd" stroke="#9a32cd" points="479.8011,-128.6789 489.2544,-133.4629 484.8477,-123.8279 479.8011,-128.6789"/>
<text text-anchor="middle" x="498.5" y="-74" font-family="Helvetica,sans-Serif" font-size="10.00" fill="#000000"> scrollOffset</text>
</g>
<!-- Node8 -->
<g id="node8" class="node">
<title>Node8</title>
<polygon fill="none" stroke="#bfbfbf" points="583.5,-133.5 583.5,-152.5 632.5,-152.5 632.5,-133.5 583.5,-133.5"/>
<text text-anchor="middle" x="608" y="-140.5" font-family="Helvetica,sans-Serif" font-size="10.00" fill="#000000">Button</text>
</g>
<!-- Node8&#45;&gt;Node1 -->
<g id="edge7" class="edge">
<title>Node8&#45;&gt;Node1</title>
<path fill="none" stroke="#9a32cd" stroke-dasharray="5,2" d="M600.4201,-124.0084C589.5264,-99.4808 566.9418,-57.6176 533,-38 515.0473,-27.6238 399.7948,-18.9158 321.1896,-14.0854"/>
<polygon fill="#9a32cd" stroke="#9a32cd" points="597.2504,-125.4992 604.3721,-133.3435 603.6966,-122.7702 597.2504,-125.4992"/>
<text text-anchor="middle" x="609" y="-74" font-family="Helvetica,sans-Serif" font-size="10.00" fill="#000000"> code</text>
</g>
</g>
</svg>
        <g id="navigator" transform="translate(0 0)" fill="#404254">
                <rect fill="#f2f5e9" fill-opacity="0.5" stroke="#606060" stroke-width=".5" x="0" y="0" width="60" height="60"/>
                <use id="zoomplus" xlink:href="#zoomPlus" x="17" y="9" onmousedown="handleZoom(evt,'in')"/>
                <use id="zoomminus" xlink:href="#zoomMin" x="42" y="9" onmousedown="handleZoom(evt,'out')"/>
                <use id="reset" xlink:href="#resetDef" x="30" y="36" onmousedown="handleReset()"/>
                <g id="arrowUp" xlink:href="#dirArrow" transform="translate(30 24)" onmousedown="handlePan(0,-1)">
                  <use xlink:href="#rim" fill="#404040">
                        <set attributeName="fill" to="#808080" begin="arrowUp.mouseover" end="arrowUp.mouseout"/>
                  </use>
                  <path fill="none" stroke="white" stroke-width="1.5" d="M0,-3.0v7 M-2.5,-0.5L0,-3.0L2.5,-0.5"/>
                </g>
                <g id="arrowRight" xlink:href="#dirArrow" transform="rotate(90) translate(36 -43)" onmousedown="handlePan(1,0)">
                  <use xlink:href="#rim" fill="#404040">
                        <set attributeName="fill" to="#808080" begin="arrowRight.mouseover" end="arrowRight.mouseout"/>
                  </use>
                  <path fill="none" stroke="white" stroke-width="1.5" d="M0,-3.0v7 M-2.5,-0.5L0,-3.0L2.5,-0.5"/>
                </g>
                <g id="arrowDown" xlink:href="#dirArrow" transform="rotate(180) translate(-30 -48)" onmousedown="handlePan(0,1)">
                  <use xlink:href="#rim" fill="#404040">
                        <set attributeName="fill" to="#808080" begin="arrowDown.mouseover" end="arrowDown.mouseout"/>
                  </use>
                  <path fill="none" stroke="white" stroke-width="1.5" d="M0,-3.0v7 M-2.5,-0.5L0,-3.0L2.5,-0.5"/>
                </g>
                <g id="arrowLeft" xlink:href="#dirArrow" transform="rotate(270) translate(-36 17)" onmousedown="handlePan(-1,0)">
                  <use xlink:href="#rim" fill="#404040">
                        <set attributeName="fill" to="#808080" begin="arrowLeft.mouseover" end="arrowLeft.mouseout"/>
                  </use>
                  <path fill="none" stroke="white" stroke-width="1.5" d="M0,-3.0v7 M-2.5,-0.5L0,-3.0L2.5,-0.5"/>
                </g>
        </g>
        <svg viewBox="0 0 15 15" width="100%" height="30px" preserveAspectRatio="xMaxYMin meet">
         <g id="arrow_out" transform="scale(0.3 0.3)">
          <a xlink:href="structlug_1_1Window_1_1MouseEvent__coll__graph_org.svg" target="_base">
           <rect id="button" ry="5" rx="5" y="6" x="6" height="38" width="38"
                fill="#f2f5e9" fill-opacity="0.5" stroke="#606060" stroke-width="1.0"/>
           <path id="arrow"
             d="M 11.500037,31.436501 C 11.940474,20.09759 22.043105,11.32322 32.158766,21.979434 L 37.068811,17.246167 C 37.068811,17.246167 37.088388,32 37.088388,32 L 22.160133,31.978069 C 22.160133,31.978069 26.997745,27.140456 26.997745,27.140456 C 18.528582,18.264221 13.291696,25.230495 11.500037,31.436501 z"
             style="fill:#404040;"/>
          </a>
         </g>
        </svg>
</svg>
