<?xml version="1.0" encoding="UTF-8" standalone="no"?>
<!DOCTYPE svg PUBLIC "-//W3C//DTD SVG 1.1//EN"
 "http://www.w3.org/Graphics/SVG/1.1/DTD/svg11.dtd">
<!-- Generated by graphviz version 2.40.1 (20161225.0304)
 -->
<!-- Title: lug::Graphics::Vulkan::API::Builder::RenderPass::SubpassDescription Pages: 1 -->
<!--zoomable 189 -->
<svg id="main" version="1.1" xmlns="http://www.w3.org/2000/svg" xmlns:xlink="http://www.w3.org/1999/xlink" xml:space="preserve" onload="init(evt)">
<style type="text/css"><![CDATA[
.edge:hover path { stroke: red; }
.edge:hover polygon { stroke: red; fill: red; }
]]></style>
<script type="text/javascript"><![CDATA[
var edges = document.getElementsByTagName('g');
if (edges && edges.length) {
  for (var i=0;i<edges.length;i++) {
    if (edges[i].id.substr(0,4)=='edge') {
      edges[i].setAttribute('class','edge');
    }
  }
}
]]></script>
        <defs>
                <circle id="rim" cx="0" cy="0" r="7"/>
                <circle id="rim2" cx="0" cy="0" r="3.5"/>
                <g id="zoomPlus">
                        <use xlink:href="#rim" fill="#404040">
                                <set attributeName="fill" to="#808080" begin="zoomplus.mouseover" end="zoomplus.mouseout"/>
                        </use>
                        <path d="M-4,0h8M0,-4v8" fill="none" stroke="white" stroke-width="1.5" pointer-events="none"/>
                </g>
                <g id="zoomMin">
                        <use xlink:href="#rim" fill="#404040">
                                <set attributeName="fill" to="#808080" begin="zoomminus.mouseover" end="zoomminus.mouseout"/>
                        </use>
                        <path d="M-4,0h8" fill="none" stroke="white" stroke-width="1.5" pointer-events="none"/>
                </g>
                <g id="dirArrow">
                        <path fill="none" stroke="white" stroke-width="1.5" d="M0,-3.0v7 M-2.5,-0.5L0,-3.0L2.5,-0.5"/>
                </g>
               <g id="resetDef">
                       <use xlink:href="#rim2" fill="#404040">
                               <set attributeName="fill" to="#808080" begin="reset.mouseover" end="reset.mouseout"/>
                       </use>
               </g>
        </defs>

<script type="text/javascript">
var viewWidth = 811;
var viewHeight = 189;
var sectionId = 'dynsection-0';
</script>
<script xlink:href="svgpan.js"/>
<svg id="graph" class="graph">
<g id="viewport">
<title>lug::Graphics::Vulkan::API::Builder::RenderPass::SubpassDescription</title>
<!-- Node1 -->
<g id="node1" class="node">
<title>Node1</title>
<polygon fill="#bfbfbf" stroke="#000000" points="650,-77.5 650,-118.5 803,-118.5 803,-77.5 650,-77.5"/>
<text text-anchor="start" x="658" y="-106.5" font-family="Helvetica,sans-Serif" font-size="10.00" fill="#000000">lug::Graphics::Vulkan</text>
<text text-anchor="start" x="658" y="-95.5" font-family="Helvetica,sans-Serif" font-size="10.00" fill="#000000">::API::Builder::RenderPass</text>
<text text-anchor="middle" x="726.5" y="-84.5" font-family="Helvetica,sans-Serif" font-size="10.00" fill="#000000">::SubpassDescription</text>
</g>
<!-- Node2 -->
<g id="node2" class="node">
<title>Node2</title>
<polygon fill="none" stroke="#bfbfbf" points="327.5,-161.5 327.5,-180.5 442.5,-180.5 442.5,-161.5 327.5,-161.5"/>
<text text-anchor="middle" x="385" y="-168.5" font-family="Helvetica,sans-Serif" font-size="10.00" fill="#000000">VkPipelineBindPoint</text>
</g>
<!-- Node2&#45;&gt;Node1 -->
<g id="edge1" class="edge">
<title>Node2&#45;&gt;Node1</title>
<path fill="none" stroke="#9a32cd" stroke-dasharray="5,2" d="M452.7058,-171.3052C503.0961,-169.8917 573.0566,-164.436 632,-147 653.7975,-140.5521 676.4643,-128.9886 694.1331,-118.7137"/>
<polygon fill="#9a32cd" stroke="#9a32cd" points="452.495,-167.809 442.5798,-171.5423 452.659,-174.8071 452.495,-167.809"/>
<text text-anchor="middle" x="570.5" y="-170" font-family="Helvetica,sans-Serif" font-size="10.00" fill="#000000"> pipelineBindPoint</text>
</g>
<!-- Node3 -->
<g id="node3" class="node">
<title>Node3</title>
<polygon fill="none" stroke="#bfbfbf" points="279,-98.5 279,-139.5 491,-139.5 491,-98.5 279,-98.5"/>
<text text-anchor="start" x="287" y="-127.5" font-family="Helvetica,sans-Serif" font-size="10.00" fill="#000000">vector&lt; lug::Graphics</text>
<text text-anchor="start" x="287" y="-116.5" font-family="Helvetica,sans-Serif" font-size="10.00" fill="#000000">::Vulkan::API::Builder</text>
<text text-anchor="middle" x="385" y="-105.5" font-family="Helvetica,sans-Serif" font-size="10.00" fill="#000000">::RenderPass::AttachmentReference &gt;</text>
</g>
<!-- Node3&#45;&gt;Node1 -->
<g id="edge2" class="edge">
<title>Node3&#45;&gt;Node1</title>
<path fill="none" stroke="#9a32cd" stroke-dasharray="5,2" d="M501.2268,-111.8528C550.3257,-108.8336 606.1446,-105.4011 649.9355,-102.7082"/>
<polygon fill="#9a32cd" stroke="#9a32cd" points="500.9471,-108.3633 491.1808,-112.4706 501.3768,-115.3501 500.9471,-108.3633"/>
<text text-anchor="middle" x="570.5" y="-135" font-family="Helvetica,sans-Serif" font-size="10.00" fill="#000000"> colorAttachments</text>
<text text-anchor="middle" x="570.5" y="-124" font-family="Helvetica,sans-Serif" font-size="10.00" fill="#000000">inputAttachments</text>
<text text-anchor="middle" x="570.5" y="-113" font-family="Helvetica,sans-Serif" font-size="10.00" fill="#000000">resolveAttachments</text>
</g>
<!-- Node4 -->
<g id="node4" class="node">
<title>Node4</title>
<g id="a_node4"><a xlink:href="structlug_1_1Graphics_1_1Vulkan_1_1API_1_1Builder_1_1RenderPass_1_1AttachmentReference.html" target="_top" xlink:title="lug::Graphics::Vulkan\l::API::Builder::RenderPass\l::AttachmentReference">
<polygon fill="none" stroke="#000000" points="308.5,-38.5 308.5,-79.5 461.5,-79.5 461.5,-38.5 308.5,-38.5"/>
<text text-anchor="start" x="316.5" y="-67.5" font-family="Helvetica,sans-Serif" font-size="10.00" fill="#000000">lug::Graphics::Vulkan</text>
<text text-anchor="start" x="316.5" y="-56.5" font-family="Helvetica,sans-Serif" font-size="10.00" fill="#000000">::API::Builder::RenderPass</text>
<text text-anchor="middle" x="385" y="-45.5" font-family="Helvetica,sans-Serif" font-size="10.00" fill="#000000">::AttachmentReference</text>
</a>
</g>
</g>
<!-- Node4&#45;&gt;Node1 -->
<g id="edge3" class="edge">
<title>Node4&#45;&gt;Node1</title>
<path fill="none" stroke="#9a32cd" stroke-dasharray="5,2" d="M471.7037,-68.9017C526.6083,-75.172 596.9588,-83.2061 649.8217,-89.2432"/>
<polygon fill="#9a32cd" stroke="#9a32cd" points="471.9718,-65.4097 461.6393,-67.7524 471.1775,-72.3645 471.9718,-65.4097"/>
<text text-anchor="middle" x="570.5" y="-89" font-family="Helvetica,sans-Serif" font-size="10.00" fill="#000000"> depthStencilAttachment</text>
</g>
<!-- Node5 -->
<g id="node5" class="node">
<title>Node5</title>
<polygon fill="none" stroke="#bfbfbf" points="0,-68.5 0,-87.5 182,-87.5 182,-68.5 0,-68.5"/>
<text text-anchor="middle" x="91" y="-75.5" font-family="Helvetica,sans-Serif" font-size="10.00" fill="#000000">const VkAttachmentDescription *</text>
</g>
<!-- Node5&#45;&gt;Node4 -->
<g id="edge4" class="edge">
<title>Node5&#45;&gt;Node4</title>
<path fill="none" stroke="#9a32cd" stroke-dasharray="5,2" d="M192.0965,-71.4666C230.1597,-69.0067 272.787,-66.2519 308.2709,-63.9587"/>
<polygon fill="#9a32cd" stroke="#9a32cd" points="191.7635,-67.9807 182.01,-72.1184 192.215,-74.9661 191.7635,-67.9807"/>
<text text-anchor="middle" x="230.5" y="-73" font-family="Helvetica,sans-Serif" font-size="10.00" fill="#000000"> attachment</text>
</g>
<!-- Node6 -->
<g id="node6" class="node">
<title>Node6</title>
<polygon fill="none" stroke="#bfbfbf" points="44,-30.5 44,-49.5 138,-49.5 138,-30.5 44,-30.5"/>
<text text-anchor="middle" x="91" y="-37.5" font-family="Helvetica,sans-Serif" font-size="10.00" fill="#000000">VkImageLayout</text>
</g>
<!-- Node6&#45;&gt;Node4 -->
<g id="edge5" class="edge">
<title>Node6&#45;&gt;Node4</title>
<path fill="none" stroke="#9a32cd" stroke-dasharray="5,2" d="M148.2582,-43.7004C193.9064,-46.6504 258.2567,-50.8091 308.3473,-54.0463"/>
<polygon fill="#9a32cd" stroke="#9a32cd" points="148.4411,-40.205 138.2362,-43.0527 147.9896,-47.1904 148.4411,-40.205"/>
<text text-anchor="middle" x="230.5" y="-53" font-family="Helvetica,sans-Serif" font-size="10.00" fill="#000000"> layout</text>
</g>
<!-- Node7 -->
<g id="node7" class="node">
<title>Node7</title>
<polygon fill="none" stroke="#bfbfbf" points="306.5,-.5 306.5,-19.5 463.5,-19.5 463.5,-.5 306.5,-.5"/>
<text text-anchor="middle" x="385" y="-7.5" font-family="Helvetica,sans-Serif" font-size="10.00" fill="#000000">vector&lt; AttachmentIndex &gt;</text>
</g>
<!-- Node7&#45;&gt;Node1 -->
<g id="edge6" class="edge">
<title>Node7&#45;&gt;Node1</title>
<path fill="none" stroke="#9a32cd" stroke-dasharray="5,2" d="M465.9319,-21.1341C514.6984,-28.9709 577.6758,-41.0985 632,-58 649.0112,-63.2925 667.1519,-70.5538 682.944,-77.4381"/>
<polygon fill="#9a32cd" stroke="#9a32cd" points="466.173,-17.6289 455.7496,-19.5267 465.0815,-24.5433 466.173,-17.6289"/>
<text text-anchor="middle" x="570.5" y="-61" font-family="Helvetica,sans-Serif" font-size="10.00" fill="#000000"> preserveAttachments</text>
</g>
</g>
</svg>
        <g id="navigator" transform="translate(0 0)" fill="#404254">
                <rect fill="#f2f5e9" fill-opacity="0.5" stroke="#606060" stroke-width=".5" x="0" y="0" width="60" height="60"/>
                <use id="zoomplus" xlink:href="#zoomPlus" x="17" y="9" onmousedown="handleZoom(evt,'in')"/>
                <use id="zoomminus" xlink:href="#zoomMin" x="42" y="9" onmousedown="handleZoom(evt,'out')"/>
                <use id="reset" xlink:href="#resetDef" x="30" y="36" onmousedown="handleReset()"/>
                <g id="arrowUp" xlink:href="#dirArrow" transform="translate(30 24)" onmousedown="handlePan(0,-1)">
                  <use xlink:href="#rim" fill="#404040">
                        <set attributeName="fill" to="#808080" begin="arrowUp.mouseover" end="arrowUp.mouseout"/>
                  </use>
                  <path fill="none" stroke="white" stroke-width="1.5" d="M0,-3.0v7 M-2.5,-0.5L0,-3.0L2.5,-0.5"/>
                </g>
                <g id="arrowRight" xlink:href="#dirArrow" transform="rotate(90) translate(36 -43)" onmousedown="handlePan(1,0)">
                  <use xlink:href="#rim" fill="#404040">
                        <set attributeName="fill" to="#808080" begin="arrowRight.mouseover" end="arrowRight.mouseout"/>
                  </use>
                  <path fill="none" stroke="white" stroke-width="1.5" d="M0,-3.0v7 M-2.5,-0.5L0,-3.0L2.5,-0.5"/>
                </g>
                <g id="arrowDown" xlink:href="#dirArrow" transform="rotate(180) translate(-30 -48)" onmousedown="handlePan(0,1)">
                  <use xlink:href="#rim" fill="#404040">
                        <set attributeName="fill" to="#808080" begin="arrowDown.mouseover" end="arrowDown.mouseout"/>
                  </use>
                  <path fill="none" stroke="white" stroke-width="1.5" d="M0,-3.0v7 M-2.5,-0.5L0,-3.0L2.5,-0.5"/>
                </g>
                <g id="arrowLeft" xlink:href="#dirArrow" transform="rotate(270) translate(-36 17)" onmousedown="handlePan(-1,0)">
                  <use xlink:href="#rim" fill="#404040">
                        <set attributeName="fill" to="#808080" begin="arrowLeft.mouseover" end="arrowLeft.mouseout"/>
                  </use>
                  <path fill="none" stroke="white" stroke-width="1.5" d="M0,-3.0v7 M-2.5,-0.5L0,-3.0L2.5,-0.5"/>
                </g>
        </g>
        <svg viewBox="0 0 15 15" width="100%" height="30px" preserveAspectRatio="xMaxYMin meet">
         <g id="arrow_out" transform="scale(0.3 0.3)">
          <a xlink:href="structlug_1_1Graphics_1_1Vulkan_1_1API_1_1Builder_1_1RenderPass_1_1SubpassDescription__coll__graph_org.svg" target="_base">
           <rect id="button" ry="5" rx="5" y="6" x="6" height="38" width="38"
                fill="#f2f5e9" fill-opacity="0.5" stroke="#606060" stroke-width="1.0"/>
           <path id="arrow"
             d="M 11.500037,31.436501 C 11.940474,20.09759 22.043105,11.32322 32.158766,21.979434 L 37.068811,17.246167 C 37.068811,17.246167 37.088388,32 37.088388,32 L 22.160133,31.978069 C 22.160133,31.978069 26.997745,27.140456 26.997745,27.140456 C 18.528582,18.264221 13.291696,25.230495 11.500037,31.436501 z"
             style="fill:#404040;"/>
          </a>
         </g>
        </svg>
</svg>
