<?xml version="1.0" encoding="UTF-8" standalone="no"?>
<!DOCTYPE svg PUBLIC "-//W3C//DTD SVG 1.1//EN"
 "http://www.w3.org/Graphics/SVG/1.1/DTD/svg11.dtd">
<!-- Generated by graphviz version 2.40.1 (20161225.0304)
 -->
<!-- Title: lug::Graphics::Scene::Node::MeshInstance Pages: 1 -->
<!--zoomable 234 -->
<svg id="main" version="1.1" xmlns="http://www.w3.org/2000/svg" xmlns:xlink="http://www.w3.org/1999/xlink" xml:space="preserve" onload="init(evt)">
<style type="text/css"><![CDATA[
.edge:hover path { stroke: red; }
.edge:hover polygon { stroke: red; fill: red; }
]]></style>
<script type="text/javascript"><![CDATA[
var edges = document.getElementsByTagName('g');
if (edges && edges.length) {
  for (var i=0;i<edges.length;i++) {
    if (edges[i].id.substr(0,4)=='edge') {
      edges[i].setAttribute('class','edge');
    }
  }
}
]]></script>
        <defs>
                <circle id="rim" cx="0" cy="0" r="7"/>
                <circle id="rim2" cx="0" cy="0" r="3.5"/>
                <g id="zoomPlus">
                        <use xlink:href="#rim" fill="#404040">
                                <set attributeName="fill" to="#808080" begin="zoomplus.mouseover" end="zoomplus.mouseout"/>
                        </use>
                        <path d="M-4,0h8M0,-4v8" fill="none" stroke="white" stroke-width="1.5" pointer-events="none"/>
                </g>
                <g id="zoomMin">
                        <use xlink:href="#rim" fill="#404040">
                                <set attributeName="fill" to="#808080" begin="zoomminus.mouseover" end="zoomminus.mouseout"/>
                        </use>
                        <path d="M-4,0h8" fill="none" stroke="white" stroke-width="1.5" pointer-events="none"/>
                </g>
                <g id="dirArrow">
                        <path fill="none" stroke="white" stroke-width="1.5" d="M0,-3.0v7 M-2.5,-0.5L0,-3.0L2.5,-0.5"/>
                </g>
               <g id="resetDef">
                       <use xlink:href="#rim2" fill="#404040">
                               <set attributeName="fill" to="#808080" begin="reset.mouseover" end="reset.mouseout"/>
                       </use>
               </g>
        </defs>

<script type="text/javascript">
var viewWidth = 1352;
var viewHeight = 234;
var sectionId = 'dynsection-0';
</script>
<script xlink:href="svgpan.js"/>
<svg id="graph" class="graph">
<g id="viewport">
<title>lug::Graphics::Scene::Node::MeshInstance</title>
<!-- Node1 -->
<g id="node1" class="node">
<title>Node1</title>
<polygon fill="#bfbfbf" stroke="#000000" points="1216,-28.5 1216,-58.5 1344,-58.5 1344,-28.5 1216,-28.5"/>
<text text-anchor="start" x="1224" y="-46.5" font-family="Helvetica,sans-Serif" font-size="10.00" fill="#000000">lug::Graphics::Scene</text>
<text text-anchor="middle" x="1280" y="-35.5" font-family="Helvetica,sans-Serif" font-size="10.00" fill="#000000">::Node::MeshInstance</text>
</g>
<!-- Node2 -->
<g id="node2" class="node">
<title>Node2</title>
<g id="a_node2"><a xlink:href="classlug_1_1Graphics_1_1Resource_1_1SharedPtr.html" target="_top" xlink:title="lug::Graphics::Resource\l::SharedPtr\&lt; lug::Graphics\l::Render::Mesh \&gt;">
<polygon fill="none" stroke="#000000" points="973,-72 973,-113 1128,-113 1128,-72 973,-72"/>
<text text-anchor="start" x="981" y="-101" font-family="Helvetica,sans-Serif" font-size="10.00" fill="#000000">lug::Graphics::Resource</text>
<text text-anchor="start" x="981" y="-90" font-family="Helvetica,sans-Serif" font-size="10.00" fill="#000000">::SharedPtr&lt; lug::Graphics</text>
<text text-anchor="middle" x="1050.5" y="-79" font-family="Helvetica,sans-Serif" font-size="10.00" fill="#000000">::Render::Mesh &gt;</text>
</a>
</g>
</g>
<!-- Node2&#45;&gt;Node1 -->
<g id="edge1" class="edge">
<title>Node2&#45;&gt;Node1</title>
<path fill="none" stroke="#9a32cd" stroke-dasharray="5,2" d="M1137.9959,-73.8189C1163.841,-68.3008 1191.6439,-62.3647 1215.7377,-57.2205"/>
<polygon fill="#9a32cd" stroke="#9a32cd" points="1137.247,-70.3999 1128.1982,-75.9108 1138.7086,-77.2456 1137.247,-70.3999"/>
<text text-anchor="middle" x="1172" y="-73.5" font-family="Helvetica,sans-Serif" font-size="10.00" fill="#000000"> mesh</text>
</g>
<!-- Node3 -->
<g id="node3" class="node">
<title>Node3</title>
<g id="a_node3"><a xlink:href="classlug_1_1Graphics_1_1Render_1_1Mesh.html" target="_top" xlink:title="A Mesh, which itsef is a Resource. A mesh is composed of a vector of PrimitiveSet. ">
<polygon fill="none" stroke="#000000" points="675.5,-101.5 675.5,-131.5 803.5,-131.5 803.5,-101.5 675.5,-101.5"/>
<text text-anchor="start" x="683.5" y="-119.5" font-family="Helvetica,sans-Serif" font-size="10.00" fill="#000000">lug::Graphics::Render</text>
<text text-anchor="middle" x="739.5" y="-108.5" font-family="Helvetica,sans-Serif" font-size="10.00" fill="#000000">::Mesh</text>
</a>
</g>
</g>
<!-- Node3&#45;&gt;Node2 -->
<g id="edge2" class="edge">
<title>Node3&#45;&gt;Node2</title>
<path fill="none" stroke="#9a32cd" stroke-dasharray="5,2" d="M813.5785,-110.7833C861.5908,-107.0782 924.028,-102.2599 972.7518,-98.4999"/>
<polygon fill="#9a32cd" stroke="#9a32cd" points="813.2633,-107.2972 803.5623,-111.5563 813.802,-114.2764 813.2633,-107.2972"/>
<text text-anchor="middle" x="891" y="-111.5" font-family="Helvetica,sans-Serif" font-size="10.00" fill="#000000"> _resource</text>
</g>
<!-- Node4 -->
<g id="node4" class="node">
<title>Node4</title>
<g id="a_node4"><a xlink:href="classlug_1_1Graphics_1_1Resource.html" target="_top" xlink:title="Class for resource. ">
<polygon fill="none" stroke="#000000" points="398.5,-148 398.5,-167 537.5,-167 537.5,-148 398.5,-148"/>
<text text-anchor="middle" x="468" y="-155" font-family="Helvetica,sans-Serif" font-size="10.00" fill="#000000">lug::Graphics::Resource</text>
</a>
</g>
</g>
<!-- Node4&#45;&gt;Node3 -->
<g id="edge3" class="edge">
<title>Node4&#45;&gt;Node3</title>
<path fill="none" stroke="#191970" d="M544.519,-146.498C577.5884,-141.6846 616.7157,-135.9113 652,-130.5 659.6032,-129.334 667.5743,-128.0893 675.4794,-126.8413"/>
<polygon fill="#191970" stroke="#191970" points="543.8542,-143.0577 534.4615,-147.9595 544.8609,-149.985 543.8542,-143.0577"/>
</g>
<!-- Node5 -->
<g id="node5" class="node">
<title>Node5</title>
<g id="a_node5"><a xlink:href="structlug_1_1Graphics_1_1Resource_1_1Handle.html" target="_top" xlink:title="Handle of the resource. It contains informations such as the type and the index in the ResourceManage...">
<polygon fill="none" stroke="#000000" points="161,-166.5 161,-196.5 300,-196.5 300,-166.5 161,-166.5"/>
<text text-anchor="start" x="169" y="-184.5" font-family="Helvetica,sans-Serif" font-size="10.00" fill="#000000">lug::Graphics::Resource</text>
<text text-anchor="middle" x="230.5" y="-173.5" font-family="Helvetica,sans-Serif" font-size="10.00" fill="#000000">::Handle</text>
</a>
</g>
</g>
<!-- Node5&#45;&gt;Node4 -->
<g id="edge4" class="edge">
<title>Node5&#45;&gt;Node4</title>
<path fill="none" stroke="#9a32cd" stroke-dasharray="5,2" d="M310.108,-173.4554C338.6896,-170.5672 370.6773,-167.3347 398.3482,-164.5385"/>
<polygon fill="#9a32cd" stroke="#9a32cd" points="309.7505,-169.9736 300.1531,-174.4614 310.4543,-176.9381 309.7505,-169.9736"/>
<text text-anchor="middle" x="339.5" y="-174.5" font-family="Helvetica,sans-Serif" font-size="10.00" fill="#000000"> _handle</text>
</g>
<!-- Node6 -->
<g id="node6" class="node">
<title>Node6</title>
<polygon fill="none" stroke="#bfbfbf" points="18.5,-191 18.5,-210 75.5,-210 75.5,-191 18.5,-191"/>
<text text-anchor="middle" x="47" y="-198" font-family="Helvetica,sans-Serif" font-size="10.00" fill="#000000">uint32_t</text>
</g>
<!-- Node6&#45;&gt;Node5 -->
<g id="edge5" class="edge">
<title>Node6&#45;&gt;Node5</title>
<path fill="none" stroke="#9a32cd" stroke-dasharray="5,2" d="M85.842,-196.4782C107.6233,-194.2229 135.448,-191.3419 160.8649,-188.7102"/>
<polygon fill="#9a32cd" stroke="#9a32cd" points="85.2582,-193.0199 75.6719,-197.5313 85.9792,-199.9826 85.2582,-193.0199"/>
<text text-anchor="middle" x="127.5" y="-217.5" font-family="Helvetica,sans-Serif" font-size="10.00" fill="#000000"> value</text>
<text text-anchor="middle" x="127.5" y="-206.5" font-family="Helvetica,sans-Serif" font-size="10.00" fill="#000000">type</text>
<text text-anchor="middle" x="127.5" y="-195.5" font-family="Helvetica,sans-Serif" font-size="10.00" fill="#000000">index</text>
</g>
<!-- Node7 -->
<g id="node7" class="node">
<title>Node7</title>
<polygon fill="none" stroke="#bfbfbf" points="0,-153 0,-172 94,-172 94,-153 0,-153"/>
<text text-anchor="middle" x="47" y="-160" font-family="Helvetica,sans-Serif" font-size="10.00" fill="#000000">anonymous:@5</text>
</g>
<!-- Node7&#45;&gt;Node5 -->
<g id="edge6" class="edge">
<title>Node7&#45;&gt;Node5</title>
<path fill="none" stroke="#9a32cd" stroke-dasharray="5,2" d="M104.2721,-168.4301C122.2136,-170.2878 142.2134,-172.3586 160.9078,-174.2943"/>
<polygon fill="#9a32cd" stroke="#9a32cd" points="104.5631,-164.9416 94.2558,-167.393 103.8421,-171.9044 104.5631,-164.9416"/>
<text text-anchor="middle" x="127.5" y="-174.5" font-family="Helvetica,sans-Serif" font-size="10.00" fill="#000000"> @5</text>
</g>
<!-- Node8 -->
<g id="node8" class="node">
<title>Node8</title>
<polygon fill="none" stroke="#bfbfbf" points="208,-128 208,-147 253,-147 253,-128 208,-128"/>
<text text-anchor="middle" x="230.5" y="-135" font-family="Helvetica,sans-Serif" font-size="10.00" fill="#000000">string</text>
</g>
<!-- Node8&#45;&gt;Node4 -->
<g id="edge7" class="edge">
<title>Node8&#45;&gt;Node4</title>
<path fill="none" stroke="#9a32cd" stroke-dasharray="5,2" d="M263.3862,-138.2465C289.8049,-139.0305 327.8395,-140.5735 361,-143.5 374.2502,-144.6693 388.381,-146.2669 401.8848,-147.9653"/>
<polygon fill="#9a32cd" stroke="#9a32cd" points="263.2641,-134.7419 253.1711,-137.964 263.0705,-141.7392 263.2641,-134.7419"/>
<text text-anchor="middle" x="339.5" y="-146.5" font-family="Helvetica,sans-Serif" font-size="10.00" fill="#000000"> _name</text>
</g>
<!-- Node9 -->
<g id="node9" class="node">
<title>Node9</title>
<polygon fill="none" stroke="#bfbfbf" points="379,-98.5 379,-128.5 557,-128.5 557,-98.5 379,-98.5"/>
<text text-anchor="start" x="387" y="-116.5" font-family="Helvetica,sans-Serif" font-size="10.00" fill="#000000">vector&lt; lug::Graphics</text>
<text text-anchor="middle" x="468" y="-105.5" font-family="Helvetica,sans-Serif" font-size="10.00" fill="#000000">::Render::Mesh::PrimitiveSet &gt;</text>
</g>
<!-- Node9&#45;&gt;Node3 -->
<g id="edge8" class="edge">
<title>Node9&#45;&gt;Node3</title>
<path fill="none" stroke="#9a32cd" stroke-dasharray="5,2" d="M567.3132,-114.5974C603.2817,-114.9948 642.9359,-115.433 675.1146,-115.7886"/>
<polygon fill="#9a32cd" stroke="#9a32cd" points="567.3134,-111.0973 557.2753,-114.4865 567.236,-118.0968 567.3134,-111.0973"/>
<text text-anchor="middle" x="613.5" y="-118.5" font-family="Helvetica,sans-Serif" font-size="10.00" fill="#000000"> _primitiveSets</text>
</g>
<!-- Node10 -->
<g id="node10" class="node">
<title>Node10</title>
<g id="a_node10"><a xlink:href="classlug_1_1Graphics_1_1Resource_1_1SharedPtr.html" target="_top" xlink:title="Dummy class for a shared pointer. ">
<polygon fill="none" stroke="#000000" points="670,-52.5 670,-82.5 809,-82.5 809,-52.5 670,-52.5"/>
<text text-anchor="start" x="678" y="-70.5" font-family="Helvetica,sans-Serif" font-size="10.00" fill="#000000">lug::Graphics::Resource</text>
<text text-anchor="middle" x="739.5" y="-59.5" font-family="Helvetica,sans-Serif" font-size="10.00" fill="#000000">::SharedPtr&lt; T &gt;</text>
</a>
</g>
</g>
<!-- Node10&#45;&gt;Node2 -->
<g id="edge9" class="edge">
<title>Node10&#45;&gt;Node2</title>
<path fill="none" stroke="#ffa500" stroke-dasharray="5,2" d="M819.2404,-66.5241C859.9735,-66.8346 910.2554,-68.4625 955,-73.5 960.7955,-74.1525 966.7635,-74.9742 972.752,-75.9076"/>
<polygon fill="#ffa500" stroke="#ffa500" points="819.1172,-63.0236 809.0994,-66.4723 819.0813,-70.0235 819.1172,-63.0236"/>
<text text-anchor="start" x="827" y="-87.5" font-family="Helvetica,sans-Serif" font-size="10.00" fill="#000000"> &lt; lug::Graphics::Render</text>
<text text-anchor="middle" x="891" y="-76.5" font-family="Helvetica,sans-Serif" font-size="10.00" fill="#000000">::Mesh &gt;</text>
</g>
<!-- Node11 -->
<g id="node11" class="node">
<title>Node11</title>
<polygon fill="none" stroke="#bfbfbf" points="453.5,-58 453.5,-77 482.5,-77 482.5,-58 453.5,-58"/>
<text text-anchor="middle" x="468" y="-65" font-family="Helvetica,sans-Serif" font-size="10.00" fill="#000000">T</text>
</g>
<!-- Node11&#45;&gt;Node10 -->
<g id="edge10" class="edge">
<title>Node11&#45;&gt;Node10</title>
<path fill="none" stroke="#9a32cd" stroke-dasharray="5,2" d="M492.6817,-67.5C532.3486,-67.5 611.7128,-67.5 669.7749,-67.5"/>
<polygon fill="#9a32cd" stroke="#9a32cd" points="492.5971,-64.0001 482.597,-67.5 492.597,-71.0001 492.5971,-64.0001"/>
<text text-anchor="middle" x="613.5" y="-70.5" font-family="Helvetica,sans-Serif" font-size="10.00" fill="#000000"> _resource</text>
</g>
<!-- Node12 -->
<g id="node12" class="node">
<title>Node12</title>
<polygon fill="none" stroke="#bfbfbf" points="980.5,-.5 980.5,-52.5 1120.5,-52.5 1120.5,-.5 980.5,-.5"/>
<text text-anchor="start" x="988.5" y="-40.5" font-family="Helvetica,sans-Serif" font-size="10.00" fill="#000000">vector&lt; lug::Graphics</text>
<text text-anchor="start" x="988.5" y="-29.5" font-family="Helvetica,sans-Serif" font-size="10.00" fill="#000000">::Resource::SharedPtr</text>
<text text-anchor="start" x="988.5" y="-18.5" font-family="Helvetica,sans-Serif" font-size="10.00" fill="#000000">&lt; lug::Graphics::Render</text>
<text text-anchor="middle" x="1050.5" y="-7.5" font-family="Helvetica,sans-Serif" font-size="10.00" fill="#000000">::Material &gt; &gt;</text>
</g>
<!-- Node12&#45;&gt;Node1 -->
<g id="edge11" class="edge">
<title>Node12&#45;&gt;Node1</title>
<path fill="none" stroke="#9a32cd" stroke-dasharray="5,2" d="M1130.7159,-32.4419C1158.5658,-34.5049 1189.4084,-36.7895 1215.7949,-38.7441"/>
<polygon fill="#9a32cd" stroke="#9a32cd" points="1130.8359,-28.9413 1120.6046,-31.6929 1130.3187,-35.9222 1130.8359,-28.9413"/>
<text text-anchor="middle" x="1172" y="-40.5" font-family="Helvetica,sans-Serif" font-size="10.00" fill="#000000"> materials</text>
</g>
</g>
</svg>
        <g id="navigator" transform="translate(0 0)" fill="#404254">
                <rect fill="#f2f5e9" fill-opacity="0.5" stroke="#606060" stroke-width=".5" x="0" y="0" width="60" height="60"/>
                <use id="zoomplus" xlink:href="#zoomPlus" x="17" y="9" onmousedown="handleZoom(evt,'in')"/>
                <use id="zoomminus" xlink:href="#zoomMin" x="42" y="9" onmousedown="handleZoom(evt,'out')"/>
                <use id="reset" xlink:href="#resetDef" x="30" y="36" onmousedown="handleReset()"/>
                <g id="arrowUp" xlink:href="#dirArrow" transform="translate(30 24)" onmousedown="handlePan(0,-1)">
                  <use xlink:href="#rim" fill="#404040">
                        <set attributeName="fill" to="#808080" begin="arrowUp.mouseover" end="arrowUp.mouseout"/>
                  </use>
                  <path fill="none" stroke="white" stroke-width="1.5" d="M0,-3.0v7 M-2.5,-0.5L0,-3.0L2.5,-0.5"/>
                </g>
                <g id="arrowRight" xlink:href="#dirArrow" transform="rotate(90) translate(36 -43)" onmousedown="handlePan(1,0)">
                  <use xlink:href="#rim" fill="#404040">
                        <set attributeName="fill" to="#808080" begin="arrowRight.mouseover" end="arrowRight.mouseout"/>
                  </use>
                  <path fill="none" stroke="white" stroke-width="1.5" d="M0,-3.0v7 M-2.5,-0.5L0,-3.0L2.5,-0.5"/>
                </g>
                <g id="arrowDown" xlink:href="#dirArrow" transform="rotate(180) translate(-30 -48)" onmousedown="handlePan(0,1)">
                  <use xlink:href="#rim" fill="#404040">
                        <set attributeName="fill" to="#808080" begin="arrowDown.mouseover" end="arrowDown.mouseout"/>
                  </use>
                  <path fill="none" stroke="white" stroke-width="1.5" d="M0,-3.0v7 M-2.5,-0.5L0,-3.0L2.5,-0.5"/>
                </g>
                <g id="arrowLeft" xlink:href="#dirArrow" transform="rotate(270) translate(-36 17)" onmousedown="handlePan(-1,0)">
                  <use xlink:href="#rim" fill="#404040">
                        <set attributeName="fill" to="#808080" begin="arrowLeft.mouseover" end="arrowLeft.mouseout"/>
                  </use>
                  <path fill="none" stroke="white" stroke-width="1.5" d="M0,-3.0v7 M-2.5,-0.5L0,-3.0L2.5,-0.5"/>
                </g>
        </g>
        <svg viewBox="0 0 15 15" width="100%" height="30px" preserveAspectRatio="xMaxYMin meet">
         <g id="arrow_out" transform="scale(0.3 0.3)">
          <a xlink:href="structlug_1_1Graphics_1_1Scene_1_1Node_1_1MeshInstance__coll__graph_org.svg" target="_base">
           <rect id="button" ry="5" rx="5" y="6" x="6" height="38" width="38"
                fill="#f2f5e9" fill-opacity="0.5" stroke="#606060" stroke-width="1.0"/>
           <path id="arrow"
             d="M 11.500037,31.436501 C 11.940474,20.09759 22.043105,11.32322 32.158766,21.979434 L 37.068811,17.246167 C 37.068811,17.246167 37.088388,32 37.088388,32 L 22.160133,31.978069 C 22.160133,31.978069 26.997745,27.140456 26.997745,27.140456 C 18.528582,18.264221 13.291696,25.230495 11.500037,31.436501 z"
             style="fill:#404040;"/>
          </a>
         </g>
        </svg>
</svg>
