<?xml version="1.0" encoding="UTF-8" standalone="no"?>
<!DOCTYPE svg PUBLIC "-//W3C//DTD SVG 1.1//EN"
 "http://www.w3.org/Graphics/SVG/1.1/DTD/svg11.dtd">
<!-- Generated by graphviz version 2.40.1 (20161225.0304)
 -->
<!-- Title: lug::Window::Event Pages: 1 -->
<svg width="592pt" height="467pt"
 viewBox="0.00 0.00 592.00 467.00" xmlns="http://www.w3.org/2000/svg" xmlns:xlink="http://www.w3.org/1999/xlink">
<g id="graph0" class="graph" transform="scale(1 1) rotate(0) translate(4 463)">
<title>lug::Window::Event</title>
<!-- Node1 -->
<g id="node1" class="node">
<title>Node1</title>
<polygon fill="#bfbfbf" stroke="#000000" points="468,-110.5 468,-129.5 584,-129.5 584,-110.5 468,-110.5"/>
<text text-anchor="middle" x="526" y="-117.5" font-family="Helvetica,sans-Serif" font-size="10.00" fill="#000000">lug::Window::Event</text>
</g>
<!-- Node2 -->
<g id="node2" class="node">
<title>Node2</title>
<g id="a_node2"><a xlink:href="structlug_1_1Window_1_1MouseEvent.html" target="_top" xlink:title="Represents a mouse event. ">
<polygon fill="none" stroke="#000000" points="232,-148.5 232,-167.5 380,-167.5 380,-148.5 232,-148.5"/>
<text text-anchor="middle" x="306" y="-155.5" font-family="Helvetica,sans-Serif" font-size="10.00" fill="#000000">lug::Window::MouseEvent</text>
</a>
</g>
</g>
<!-- Node2&#45;&gt;Node1 -->
<g id="edge1" class="edge">
<title>Node2&#45;&gt;Node1</title>
<path fill="none" stroke="#9a32cd" stroke-dasharray="5,2" d="M374.5734,-146.8157C398.4596,-142.855 425.4264,-138.3108 450,-134 458.0609,-132.5859 466.5955,-131.0508 474.9202,-129.5327"/>
<polygon fill="#9a32cd" stroke="#9a32cd" points="373.8359,-143.3901 364.5411,-148.475 374.9782,-150.2962 373.8359,-143.3901"/>
<text text-anchor="middle" x="424" y="-145" font-family="Helvetica,sans-Serif" font-size="10.00" fill="#000000"> mouse</text>
</g>
<!-- Node3 -->
<g id="node3" class="node">
<title>Node3</title>
<polygon fill="none" stroke="#bfbfbf" points="42.5,-193.5 42.5,-212.5 92.5,-212.5 92.5,-193.5 42.5,-193.5"/>
<text text-anchor="middle" x="67.5" y="-200.5" font-family="Helvetica,sans-Serif" font-size="10.00" fill="#000000">double</text>
</g>
<!-- Node3&#45;&gt;Node2 -->
<g id="edge2" class="edge">
<title>Node3&#45;&gt;Node2</title>
<path fill="none" stroke="#9a32cd" stroke-dasharray="5,2" d="M102.8159,-198.663C132.5921,-194.7755 176.2621,-188.5328 214,-181 233.0514,-177.1972 254.0865,-172.0134 271.2287,-167.5298"/>
<polygon fill="#9a32cd" stroke="#9a32cd" points="101.9836,-195.241 92.5111,-199.9866 102.8755,-202.184 101.9836,-195.241"/>
<text text-anchor="middle" x="183.5" y="-205" font-family="Helvetica,sans-Serif" font-size="10.00" fill="#000000"> xOffset</text>
<text text-anchor="middle" x="183.5" y="-194" font-family="Helvetica,sans-Serif" font-size="10.00" fill="#000000">yOffset</text>
</g>
<!-- Node4 -->
<g id="node4" class="node">
<title>Node4</title>
<polygon fill="none" stroke="#bfbfbf" points="42,-152.5 42,-171.5 93,-171.5 93,-152.5 42,-152.5"/>
<text text-anchor="middle" x="67.5" y="-159.5" font-family="Helvetica,sans-Serif" font-size="10.00" fill="#000000">int32_t</text>
</g>
<!-- Node4&#45;&gt;Node2 -->
<g id="edge3" class="edge">
<title>Node4&#45;&gt;Node2</title>
<path fill="none" stroke="#9a32cd" stroke-dasharray="5,2" d="M103.3999,-160.5124C118.6851,-159.9382 136.7118,-159.3389 153,-159 178.6278,-158.4667 206.675,-158.1934 231.676,-158.0598"/>
<polygon fill="#9a32cd" stroke="#9a32cd" points="103.1682,-157.0187 93.3109,-160.9025 103.4387,-164.0134 103.1682,-157.0187"/>
<text text-anchor="middle" x="183.5" y="-173" font-family="Helvetica,sans-Serif" font-size="10.00" fill="#000000"> x</text>
<text text-anchor="middle" x="183.5" y="-162" font-family="Helvetica,sans-Serif" font-size="10.00" fill="#000000">y</text>
</g>
<!-- Node5 -->
<g id="node5" class="node">
<title>Node5</title>
<polygon fill="none" stroke="#bfbfbf" points="48.5,-324.5 48.5,-343.5 86.5,-343.5 86.5,-324.5 48.5,-324.5"/>
<text text-anchor="middle" x="67.5" y="-331.5" font-family="Helvetica,sans-Serif" font-size="10.00" fill="#000000">bool</text>
</g>
<!-- Node5&#45;&gt;Node2 -->
<g id="edge4" class="edge">
<title>Node5&#45;&gt;Node2</title>
<path fill="none" stroke="#9a32cd" stroke-dasharray="5,2" d="M90.0709,-318.4721C107.0602,-307.034 131.0889,-291.3816 153,-279 179.3033,-264.1364 189.3845,-266.5176 214,-249 249.1435,-223.9902 283.3217,-185.3076 298.2144,-167.5294"/>
<polygon fill="#9a32cd" stroke="#9a32cd" points="87.7246,-315.8344 81.4148,-324.3454 91.6549,-321.6269 87.7246,-315.8344"/>
<text text-anchor="middle" x="183.5" y="-348" font-family="Helvetica,sans-Serif" font-size="10.00" fill="#000000"> right</text>
<text text-anchor="middle" x="183.5" y="-337" font-family="Helvetica,sans-Serif" font-size="10.00" fill="#000000">middle</text>
<text text-anchor="middle" x="183.5" y="-326" font-family="Helvetica,sans-Serif" font-size="10.00" fill="#000000">left</text>
<text text-anchor="middle" x="183.5" y="-315" font-family="Helvetica,sans-Serif" font-size="10.00" fill="#000000">shift</text>
<text text-anchor="middle" x="183.5" y="-304" font-family="Helvetica,sans-Serif" font-size="10.00" fill="#000000">ctrl</text>
<text text-anchor="middle" x="183.5" y="-293" font-family="Helvetica,sans-Serif" font-size="10.00" fill="#000000">x1</text>
<text text-anchor="middle" x="183.5" y="-282" font-family="Helvetica,sans-Serif" font-size="10.00" fill="#000000">x2</text>
</g>
<!-- Node14 -->
<g id="node14" class="node">
<title>Node14</title>
<g id="a_node14"><a xlink:href="structlug_1_1Window_1_1KeyEvent.html" target="_top" xlink:title="Represents a keyboard event. ">
<polygon fill="none" stroke="#000000" points="238.5,-372.5 238.5,-391.5 373.5,-391.5 373.5,-372.5 238.5,-372.5"/>
<text text-anchor="middle" x="306" y="-379.5" font-family="Helvetica,sans-Serif" font-size="10.00" fill="#000000">lug::Window::KeyEvent</text>
</a>
</g>
</g>
<!-- Node5&#45;&gt;Node14 -->
<g id="edge15" class="edge">
<title>Node5&#45;&gt;Node14</title>
<path fill="none" stroke="#9a32cd" stroke-dasharray="5,2" d="M96.2154,-343.9291C112.6732,-349.3168 133.8117,-355.7291 153,-360 180.6354,-366.1511 211.4778,-370.9687 238.1905,-374.5072"/>
<polygon fill="#9a32cd" stroke="#9a32cd" points="97.2258,-340.5767 86.6322,-340.7352 95.0125,-347.2176 97.2258,-340.5767"/>
<text text-anchor="middle" x="183.5" y="-406" font-family="Helvetica,sans-Serif" font-size="10.00" fill="#000000"> alt</text>
<text text-anchor="middle" x="183.5" y="-395" font-family="Helvetica,sans-Serif" font-size="10.00" fill="#000000">shift</text>
<text text-anchor="middle" x="183.5" y="-384" font-family="Helvetica,sans-Serif" font-size="10.00" fill="#000000">ctrl</text>
<text text-anchor="middle" x="183.5" y="-373" font-family="Helvetica,sans-Serif" font-size="10.00" fill="#000000">system</text>
</g>
<!-- Node6 -->
<g id="node6" class="node">
<title>Node6</title>
<polygon fill="none" stroke="#bfbfbf" points="14.5,-38.5 14.5,-57.5 120.5,-57.5 120.5,-38.5 14.5,-38.5"/>
<text text-anchor="middle" x="67.5" y="-45.5" font-family="Helvetica,sans-Serif" font-size="10.00" fill="#000000">anonymous:coord</text>
</g>
<!-- Node6&#45;&gt;Node2 -->
<g id="edge5" class="edge">
<title>Node6&#45;&gt;Node2</title>
<path fill="none" stroke="#9a32cd" stroke-dasharray="5,2" d="M130.5448,-48.3393C159.2124,-51.671 191.6426,-60.3501 214,-81 233.8274,-99.3131 212.4474,-120.3938 232,-139 236.0356,-142.8403 240.7389,-145.9319 245.7821,-148.4172"/>
<polygon fill="#9a32cd" stroke="#9a32cd" points="130.8756,-44.855 120.5843,-47.3729 130.1996,-51.8223 130.8756,-44.855"/>
<text text-anchor="middle" x="183.5" y="-84" font-family="Helvetica,sans-Serif" font-size="10.00" fill="#000000"> coord</text>
</g>
<!-- Node7 -->
<g id="node7" class="node">
<title>Node7</title>
<polygon fill="none" stroke="#bfbfbf" points="20.5,-238.5 20.5,-257.5 114.5,-257.5 114.5,-238.5 20.5,-238.5"/>
<text text-anchor="middle" x="67.5" y="-245.5" font-family="Helvetica,sans-Serif" font-size="10.00" fill="#000000">anonymous:@5</text>
</g>
<!-- Node7&#45;&gt;Node2 -->
<g id="edge6" class="edge">
<title>Node7&#45;&gt;Node2</title>
<path fill="none" stroke="#9a32cd" stroke-dasharray="5,2" d="M124.57,-240.8403C152.2721,-236.1426 185.6178,-228.6462 214,-217 245.2464,-204.1786 277.519,-180.6628 294.2844,-167.5232"/>
<polygon fill="#9a32cd" stroke="#9a32cd" points="123.9516,-237.3947 114.639,-242.4469 125.0696,-244.3049 123.9516,-237.3947"/>
<text text-anchor="middle" x="183.5" y="-237" font-family="Helvetica,sans-Serif" font-size="10.00" fill="#000000"> @5</text>
</g>
<!-- Node8 -->
<g id="node8" class="node">
<title>Node8</title>
<polygon fill="none" stroke="#bfbfbf" points="0,-114.5 0,-133.5 135,-133.5 135,-114.5 0,-114.5"/>
<text text-anchor="middle" x="67.5" y="-121.5" font-family="Helvetica,sans-Serif" font-size="10.00" fill="#000000">anonymous:scrollOffset</text>
</g>
<!-- Node8&#45;&gt;Node2 -->
<g id="edge7" class="edge">
<title>Node8&#45;&gt;Node2</title>
<path fill="none" stroke="#9a32cd" stroke-dasharray="5,2" d="M145.1012,-133.5844C167.368,-136.4645 191.6635,-139.7315 214,-143 225.3689,-144.6636 237.5083,-146.5582 249.1162,-148.4277"/>
<polygon fill="#9a32cd" stroke="#9a32cd" points="145.3922,-130.093 135.0276,-132.2896 144.4998,-137.0359 145.3922,-130.093"/>
<text text-anchor="middle" x="183.5" y="-146" font-family="Helvetica,sans-Serif" font-size="10.00" fill="#000000"> scrollOffset</text>
</g>
<!-- Node9 -->
<g id="node9" class="node">
<title>Node9</title>
<polygon fill="none" stroke="#bfbfbf" points="43,-76.5 43,-95.5 92,-95.5 92,-76.5 43,-76.5"/>
<text text-anchor="middle" x="67.5" y="-83.5" font-family="Helvetica,sans-Serif" font-size="10.00" fill="#000000">Button</text>
</g>
<!-- Node9&#45;&gt;Node2 -->
<g id="edge8" class="edge">
<title>Node9&#45;&gt;Node2</title>
<path fill="none" stroke="#9a32cd" stroke-dasharray="5,2" d="M102.5953,-87.9137C133.7271,-90.9501 179.486,-98.7884 214,-119 224.3195,-125.0432 221.7716,-132.8039 232,-139 238.353,-142.8485 245.4677,-145.9225 252.7066,-148.3766"/>
<polygon fill="#9a32cd" stroke="#9a32cd" points="102.498,-84.3926 92.2361,-87.0275 101.9013,-91.3672 102.498,-84.3926"/>
<text text-anchor="middle" x="183.5" y="-122" font-family="Helvetica,sans-Serif" font-size="10.00" fill="#000000"> code</text>
</g>
<!-- Node10 -->
<g id="node10" class="node">
<title>Node10</title>
<g id="a_node10"><a xlink:href="structlug_1_1Window_1_1CharEvent.html" target="_top" xlink:title="Represents a char event. ">
<polygon fill="none" stroke="#000000" points="236,-110.5 236,-129.5 376,-129.5 376,-110.5 236,-110.5"/>
<text text-anchor="middle" x="306" y="-117.5" font-family="Helvetica,sans-Serif" font-size="10.00" fill="#000000">lug::Window::CharEvent</text>
</a>
</g>
</g>
<!-- Node10&#45;&gt;Node1 -->
<g id="edge9" class="edge">
<title>Node10&#45;&gt;Node1</title>
<path fill="none" stroke="#9a32cd" stroke-dasharray="5,2" d="M386.4126,-120C413.3889,-120 442.9298,-120 467.8614,-120"/>
<polygon fill="#9a32cd" stroke="#9a32cd" points="386.2143,-116.5001 376.2142,-120 386.2142,-123.5001 386.2143,-116.5001"/>
<text text-anchor="middle" x="424" y="-123" font-family="Helvetica,sans-Serif" font-size="10.00" fill="#000000"> character</text>
</g>
<!-- Node11 -->
<g id="node11" class="node">
<title>Node11</title>
<polygon fill="none" stroke="#bfbfbf" points="39.5,-.5 39.5,-19.5 95.5,-19.5 95.5,-.5 39.5,-.5"/>
<text text-anchor="middle" x="67.5" y="-7.5" font-family="Helvetica,sans-Serif" font-size="10.00" fill="#000000">wchar_t</text>
</g>
<!-- Node11&#45;&gt;Node10 -->
<g id="edge10" class="edge">
<title>Node11&#45;&gt;Node10</title>
<path fill="none" stroke="#9a32cd" stroke-dasharray="5,2" d="M105.6876,-6.9629C138.4499,-6.5179 184.8573,-11.3541 214,-38 235.4913,-57.65 211.1329,-80.6883 232,-101 235.8969,-104.7932 240.4437,-107.8587 245.3322,-110.3324"/>
<polygon fill="#9a32cd" stroke="#9a32cd" points="105.4575,-3.4682 95.5691,-7.272 105.6714,-10.4649 105.4575,-3.4682"/>
<text text-anchor="middle" x="183.5" y="-41" font-family="Helvetica,sans-Serif" font-size="10.00" fill="#000000"> val</text>
</g>
<!-- Node12 -->
<g id="node12" class="node">
<title>Node12</title>
<polygon fill="none" stroke="#bfbfbf" points="285.5,-72.5 285.5,-91.5 326.5,-91.5 326.5,-72.5 285.5,-72.5"/>
<text text-anchor="middle" x="306" y="-79.5" font-family="Helvetica,sans-Serif" font-size="10.00" fill="#000000">Type</text>
</g>
<!-- Node12&#45;&gt;Node1 -->
<g id="edge11" class="edge">
<title>Node12&#45;&gt;Node1</title>
<path fill="none" stroke="#9a32cd" stroke-dasharray="5,2" d="M336.534,-86.5464C365.7199,-90.9703 410.9332,-98.0272 450,-105 459.4002,-106.6778 469.4321,-108.5787 479.0223,-110.45"/>
<polygon fill="#9a32cd" stroke="#9a32cd" points="336.9576,-83.0708 326.5475,-85.0408 335.9139,-89.9926 336.9576,-83.0708"/>
<text text-anchor="middle" x="424" y="-108" font-family="Helvetica,sans-Serif" font-size="10.00" fill="#000000"> type</text>
</g>
<!-- Node13 -->
<g id="node13" class="node">
<title>Node13</title>
<polygon fill="none" stroke="#bfbfbf" points="259,-34.5 259,-53.5 353,-53.5 353,-34.5 259,-34.5"/>
<text text-anchor="middle" x="306" y="-41.5" font-family="Helvetica,sans-Serif" font-size="10.00" fill="#000000">anonymous:@9</text>
</g>
<!-- Node13&#45;&gt;Node1 -->
<g id="edge12" class="edge">
<title>Node13&#45;&gt;Node1</title>
<path fill="none" stroke="#9a32cd" stroke-dasharray="5,2" d="M353.1466,-56.1025C362.066,-58.3928 371.3195,-60.7695 380,-63 411.1126,-70.9944 419.969,-69.5966 450,-81 471.4898,-89.1602 494.8178,-101.736 509.8801,-110.3889"/>
<polygon fill="#9a32cd" stroke="#9a32cd" points="353.8231,-52.6627 343.2668,-53.5657 352.0821,-59.4428 353.8231,-52.6627"/>
<text text-anchor="middle" x="424" y="-84" font-family="Helvetica,sans-Serif" font-size="10.00" fill="#000000"> @9</text>
</g>
<!-- Node14&#45;&gt;Node1 -->
<g id="edge13" class="edge">
<title>Node14&#45;&gt;Node1</title>
<path fill="none" stroke="#9a32cd" stroke-dasharray="5,2" d="M320.616,-364.5937C363.0117,-314.1043 485.091,-168.7189 517.8356,-129.7231"/>
<polygon fill="#9a32cd" stroke="#9a32cd" points="317.841,-362.4556 314.0908,-372.3646 323.2018,-366.957 317.841,-362.4556"/>
<text text-anchor="middle" x="424" y="-269" font-family="Helvetica,sans-Serif" font-size="10.00" fill="#000000"> key</text>
</g>
<!-- Node15 -->
<g id="node15" class="node">
<title>Node15</title>
<polygon fill="none" stroke="#bfbfbf" points="50,-439.5 50,-458.5 85,-458.5 85,-439.5 50,-439.5"/>
<text text-anchor="middle" x="67.5" y="-446.5" font-family="Helvetica,sans-Serif" font-size="10.00" fill="#000000">Key</text>
</g>
<!-- Node15&#45;&gt;Node14 -->
<g id="edge14" class="edge">
<title>Node15&#45;&gt;Node14</title>
<path fill="none" stroke="#9a32cd" stroke-dasharray="5,2" d="M95.3903,-444.5072C125.1204,-439.3923 173.4071,-430.147 214,-418 238.6474,-410.6245 265.9968,-399.5326 284.4198,-391.6116"/>
<polygon fill="#9a32cd" stroke="#9a32cd" points="94.605,-441.0901 85.3253,-446.2025 95.7677,-447.9928 94.605,-441.0901"/>
<text text-anchor="middle" x="183.5" y="-436" font-family="Helvetica,sans-Serif" font-size="10.00" fill="#000000"> code</text>
</g>
</g>
</svg>
