<?xml version="1.0" encoding="UTF-8" standalone="no"?>
<!DOCTYPE svg PUBLIC "-//W3C//DTD SVG 1.1//EN"
 "http://www.w3.org/Graphics/SVG/1.1/DTD/svg11.dtd">
<!-- Generated by graphviz version 2.40.1 (20161225.0304)
 -->
<!-- Title: lug::Graphics::Render::Mesh::PrimitiveSet Pages: 1 -->
<svg width="2537pt" height="631pt"
 viewBox="0.00 0.00 2537.00 631.00" xmlns="http://www.w3.org/2000/svg" xmlns:xlink="http://www.w3.org/1999/xlink">
<g id="graph0" class="graph" transform="scale(1 1) rotate(0) translate(4 627)">
<title>lug::Graphics::Render::Mesh::PrimitiveSet</title>
<!-- Node1 -->
<g id="node1" class="node">
<title>Node1</title>
<polygon fill="#bfbfbf" stroke="#000000" points="2401,-139 2401,-169 2529,-169 2529,-139 2401,-139"/>
<text text-anchor="start" x="2409" y="-157" font-family="Helvetica,sans-Serif" font-size="10.00" fill="#000000">lug::Graphics::Render</text>
<text text-anchor="middle" x="2465" y="-146" font-family="Helvetica,sans-Serif" font-size="10.00" fill="#000000">::Mesh::PrimitiveSet</text>
</g>
<!-- Node2 -->
<g id="node2" class="node">
<title>Node2</title>
<g id="a_node2"><a xlink:href="classlug_1_1Graphics_1_1Resource_1_1SharedPtr.html" target="_top" xlink:title="lug::Graphics::Resource\l::SharedPtr\&lt; lug::Graphics\l::Render::Material \&gt;">
<polygon fill="none" stroke="#000000" points="2149.5,-266.5 2149.5,-307.5 2304.5,-307.5 2304.5,-266.5 2149.5,-266.5"/>
<text text-anchor="start" x="2157.5" y="-295.5" font-family="Helvetica,sans-Serif" font-size="10.00" fill="#000000">lug::Graphics::Resource</text>
<text text-anchor="start" x="2157.5" y="-284.5" font-family="Helvetica,sans-Serif" font-size="10.00" fill="#000000">::SharedPtr&lt; lug::Graphics</text>
<text text-anchor="middle" x="2227" y="-273.5" font-family="Helvetica,sans-Serif" font-size="10.00" fill="#000000">::Render::Material &gt;</text>
</a>
</g>
</g>
<!-- Node2&#45;&gt;Node1 -->
<g id="edge1" class="edge">
<title>Node2&#45;&gt;Node1</title>
<path fill="none" stroke="#9a32cd" stroke-dasharray="5,2" d="M2314.6978,-273.4622C2338.0192,-267.3807 2362.423,-258.6132 2383,-246 2415.2874,-226.2086 2442.1269,-189.8051 2455.6171,-169.222"/>
<polygon fill="#9a32cd" stroke="#9a32cd" points="2313.6543,-270.1146 2304.7834,-275.9075 2315.3306,-276.9109 2313.6543,-270.1146"/>
<text text-anchor="middle" x="2355.5" y="-271" font-family="Helvetica,sans-Serif" font-size="10.00" fill="#000000"> material</text>
</g>
<!-- Node3 -->
<g id="node3" class="node">
<title>Node3</title>
<g id="a_node3"><a xlink:href="classlug_1_1Graphics_1_1Render_1_1Material.html" target="_top" xlink:title="Class for Material. Is a Resource. ">
<polygon fill="none" stroke="#000000" points="1926,-421 1926,-451 2054,-451 2054,-421 1926,-421"/>
<text text-anchor="start" x="1934" y="-439" font-family="Helvetica,sans-Serif" font-size="10.00" fill="#000000">lug::Graphics::Render</text>
<text text-anchor="middle" x="1990" y="-428" font-family="Helvetica,sans-Serif" font-size="10.00" fill="#000000">::Material</text>
</a>
</g>
</g>
<!-- Node3&#45;&gt;Node2 -->
<g id="edge2" class="edge">
<title>Node3&#45;&gt;Node2</title>
<path fill="none" stroke="#9a32cd" stroke-dasharray="5,2" d="M2022.562,-415.5285C2067.7369,-387.1275 2148.9626,-336.0615 2194.2416,-307.5949"/>
<polygon fill="#9a32cd" stroke="#9a32cd" points="2020.6321,-412.6075 2014.0291,-420.8931 2024.3579,-418.5337 2020.6321,-412.6075"/>
<text text-anchor="middle" x="2099" y="-386" font-family="Helvetica,sans-Serif" font-size="10.00" fill="#000000"> _resource</text>
</g>
<!-- Node4 -->
<g id="node4" class="node">
<title>Node4</title>
<g id="a_node4"><a xlink:href="classlug_1_1Graphics_1_1Resource.html" target="_top" xlink:title="Class for resource. ">
<polygon fill="none" stroke="#000000" points="487,-562.5 487,-581.5 626,-581.5 626,-562.5 487,-562.5"/>
<text text-anchor="middle" x="556.5" y="-569.5" font-family="Helvetica,sans-Serif" font-size="10.00" fill="#000000">lug::Graphics::Resource</text>
</a>
</g>
</g>
<!-- Node4&#45;&gt;Node3 -->
<g id="edge3" class="edge">
<title>Node4&#45;&gt;Node3</title>
<path fill="none" stroke="#191970" d="M604.3224,-583.833C653.6476,-594.9862 732.9612,-610 802.5,-610 802.5,-610 802.5,-610 1729.5,-610 1816.0769,-610 1839.2755,-584.6546 1908,-532 1938.7967,-508.4045 1966.2068,-471.5451 1980.1913,-451.0429"/>
<polygon fill="#191970" stroke="#191970" points="605.098,-580.4201 594.5679,-581.589 603.5286,-587.2419 605.098,-580.4201"/>
</g>
<!-- Node15 -->
<g id="node15" class="node">
<title>Node15</title>
<g id="a_node15"><a xlink:href="classlug_1_1Graphics_1_1Render_1_1SkyBox.html" target="_top" xlink:title="lug::Graphics::Render\l::SkyBox">
<polygon fill="none" stroke="#000000" points="1357.5,-535 1357.5,-565 1485.5,-565 1485.5,-535 1357.5,-535"/>
<text text-anchor="start" x="1365.5" y="-553" font-family="Helvetica,sans-Serif" font-size="10.00" fill="#000000">lug::Graphics::Render</text>
<text text-anchor="middle" x="1421.5" y="-542" font-family="Helvetica,sans-Serif" font-size="10.00" fill="#000000">::SkyBox</text>
</a>
</g>
</g>
<!-- Node4&#45;&gt;Node15 -->
<g id="edge16" class="edge">
<title>Node4&#45;&gt;Node15</title>
<path fill="none" stroke="#191970" d="M636.305,-572.5795C777.6545,-573.1572 1081.2344,-572.38 1337,-558 1343.6206,-557.6278 1350.5247,-557.1392 1357.4079,-556.5867"/>
<polygon fill="#191970" stroke="#191970" points="636.0167,-569.0783 626.0013,-572.5338 635.9856,-576.0783 636.0167,-569.0783"/>
</g>
<!-- Node17 -->
<g id="node17" class="node">
<title>Node17</title>
<g id="a_node17"><a xlink:href="classlug_1_1Graphics_1_1Render_1_1Texture.html" target="_top" xlink:title="lug::Graphics::Render\l::Texture">
<polygon fill="none" stroke="#000000" points="738.5,-505 738.5,-535 866.5,-535 866.5,-505 738.5,-505"/>
<text text-anchor="start" x="746.5" y="-523" font-family="Helvetica,sans-Serif" font-size="10.00" fill="#000000">lug::Graphics::Render</text>
<text text-anchor="middle" x="802.5" y="-512" font-family="Helvetica,sans-Serif" font-size="10.00" fill="#000000">::Texture</text>
</a>
</g>
</g>
<!-- Node4&#45;&gt;Node17 -->
<g id="edge19" class="edge">
<title>Node4&#45;&gt;Node17</title>
<path fill="none" stroke="#191970" d="M611.8502,-560.3C649.3302,-552.3773 698.9745,-541.8834 738.2078,-533.5902"/>
<polygon fill="#191970" stroke="#191970" points="610.6801,-556.9699 601.6202,-562.4624 612.1279,-563.8185 610.6801,-556.9699"/>
</g>
<!-- Node5 -->
<g id="node5" class="node">
<title>Node5</title>
<g id="a_node5"><a xlink:href="structlug_1_1Graphics_1_1Resource_1_1Handle.html" target="_top" xlink:title="Handle of the resource. It contains informations such as the type and the index in the ResourceManage...">
<polygon fill="none" stroke="#000000" points="184,-554 184,-584 323,-584 323,-554 184,-554"/>
<text text-anchor="start" x="192" y="-572" font-family="Helvetica,sans-Serif" font-size="10.00" fill="#000000">lug::Graphics::Resource</text>
<text text-anchor="middle" x="253.5" y="-561" font-family="Helvetica,sans-Serif" font-size="10.00" fill="#000000">::Handle</text>
</a>
</g>
</g>
<!-- Node5&#45;&gt;Node4 -->
<g id="edge4" class="edge">
<title>Node5&#45;&gt;Node4</title>
<path fill="none" stroke="#9a32cd" stroke-dasharray="5,2" d="M333.3028,-569.7901C380.9934,-570.2623 441.0037,-570.8565 486.7851,-571.3098"/>
<polygon fill="#9a32cd" stroke="#9a32cd" points="333.0485,-566.2875 323.0143,-569.6883 332.9791,-573.2872 333.0485,-566.2875"/>
<text text-anchor="middle" x="405" y="-574" font-family="Helvetica,sans-Serif" font-size="10.00" fill="#000000"> _handle</text>
</g>
<!-- Node6 -->
<g id="node6" class="node">
<title>Node6</title>
<polygon fill="none" stroke="#bfbfbf" points="18.5,-299.5 18.5,-318.5 75.5,-318.5 75.5,-299.5 18.5,-299.5"/>
<text text-anchor="middle" x="47" y="-306.5" font-family="Helvetica,sans-Serif" font-size="10.00" fill="#000000">uint32_t</text>
</g>
<!-- Node6&#45;&gt;Node5 -->
<g id="edge5" class="edge">
<title>Node6&#45;&gt;Node5</title>
<path fill="none" stroke="#9a32cd" stroke-dasharray="5,2" d="M50.1557,-328.6714C58.4253,-377.8264 82.1625,-504.1397 112,-533 117.6482,-538.4632 151.0233,-547.0802 183.9397,-554.514"/>
<polygon fill="#9a32cd" stroke="#9a32cd" points="53.5875,-327.9702 48.5092,-318.6717 46.6805,-329.1075 53.5875,-327.9702"/>
<text text-anchor="middle" x="139" y="-574" font-family="Helvetica,sans-Serif" font-size="10.00" fill="#000000"> value</text>
<text text-anchor="middle" x="139" y="-563" font-family="Helvetica,sans-Serif" font-size="10.00" fill="#000000">type</text>
<text text-anchor="middle" x="139" y="-552" font-family="Helvetica,sans-Serif" font-size="10.00" fill="#000000">index</text>
</g>
<!-- Node9 -->
<g id="node9" class="node">
<title>Node9</title>
<g id="a_node9"><a xlink:href="classlug_1_1Graphics_1_1Render_1_1DirtyObject.html" target="_top" xlink:title="lug::Graphics::Render\l::DirtyObject">
<polygon fill="none" stroke="#000000" points="341,-238 341,-268 469,-268 469,-238 341,-238"/>
<text text-anchor="start" x="349" y="-256" font-family="Helvetica,sans-Serif" font-size="10.00" fill="#000000">lug::Graphics::Render</text>
<text text-anchor="middle" x="405" y="-245" font-family="Helvetica,sans-Serif" font-size="10.00" fill="#000000">::DirtyObject</text>
</a>
</g>
</g>
<!-- Node6&#45;&gt;Node9 -->
<g id="edge9" class="edge">
<title>Node6&#45;&gt;Node9</title>
<path fill="none" stroke="#9a32cd" stroke-dasharray="5,2" d="M77.0519,-295.5558C87.8729,-291.2227 100.3005,-286.8171 112,-284 189.3311,-265.3794 280.8227,-257.9422 340.7398,-254.9725"/>
<polygon fill="#9a32cd" stroke="#9a32cd" points="75.526,-292.3995 67.6329,-299.467 78.2106,-298.8643 75.526,-292.3995"/>
<text text-anchor="middle" x="139" y="-287" font-family="Helvetica,sans-Serif" font-size="10.00" fill="#000000"> _dirtyFlag</text>
</g>
<!-- Node6&#45;&gt;Node17 -->
<g id="edge21" class="edge">
<title>Node6&#45;&gt;Node17</title>
<path fill="none" stroke="#9a32cd" stroke-dasharray="5,2" d="M71.7737,-323.806C136.973,-361.8909 319.8326,-463.0558 487,-503 572.2295,-523.3654 673.946,-524.9337 738.3841,-523.2342"/>
<polygon fill="#9a32cd" stroke="#9a32cd" points="73.4178,-320.7125 63.0238,-318.6594 69.8688,-326.7462 73.4178,-320.7125"/>
<text text-anchor="middle" x="405" y="-512" font-family="Helvetica,sans-Serif" font-size="10.00" fill="#000000"> _width</text>
<text text-anchor="middle" x="405" y="-501" font-family="Helvetica,sans-Serif" font-size="10.00" fill="#000000">_height</text>
</g>
<!-- Node23 -->
<g id="node23" class="node">
<title>Node23</title>
<g id="a_node23"><a xlink:href="structlug_1_1Graphics_1_1Render_1_1Material_1_1TextureInfo.html" target="_top" xlink:title="lug::Graphics::Render\l::Material::TextureInfo">
<polygon fill="none" stroke="#000000" points="1355,-441 1355,-471 1488,-471 1488,-441 1355,-441"/>
<text text-anchor="start" x="1363" y="-459" font-family="Helvetica,sans-Serif" font-size="10.00" fill="#000000">lug::Graphics::Render</text>
<text text-anchor="middle" x="1421.5" y="-448" font-family="Helvetica,sans-Serif" font-size="10.00" fill="#000000">::Material::TextureInfo</text>
</a>
</g>
</g>
<!-- Node6&#45;&gt;Node23 -->
<g id="edge29" class="edge">
<title>Node6&#45;&gt;Node23</title>
<path fill="none" stroke="#9a32cd" stroke-dasharray="5,2" d="M85.9535,-309C127.4693,-309 195.1257,-309 253.5,-309 253.5,-309 253.5,-309 1113.5,-309 1233.7518,-309 1244.8921,-382.6602 1355,-431 1362.7926,-434.4211 1371.2155,-437.8142 1379.3629,-440.9459"/>
<polygon fill="#9a32cd" stroke="#9a32cd" points="85.7294,-305.5001 75.7294,-309 85.7293,-312.5001 85.7294,-305.5001"/>
<text text-anchor="middle" x="679.5" y="-312" font-family="Helvetica,sans-Serif" font-size="10.00" fill="#000000"> texCoord</text>
</g>
<!-- Node27 -->
<g id="node27" class="node">
<title>Node27</title>
<g id="a_node27"><a xlink:href="structlug_1_1Graphics_1_1Render_1_1Mesh_1_1PrimitiveSet_1_1Attribute_1_1Buffer.html" target="_top" xlink:title="Access to the data of the attribute. ">
<polygon fill="none" stroke="#000000" points="1926,-171.5 1926,-212.5 2054,-212.5 2054,-171.5 1926,-171.5"/>
<text text-anchor="start" x="1934" y="-200.5" font-family="Helvetica,sans-Serif" font-size="10.00" fill="#000000">lug::Graphics::Render</text>
<text text-anchor="start" x="1934" y="-189.5" font-family="Helvetica,sans-Serif" font-size="10.00" fill="#000000">::Mesh::PrimitiveSet</text>
<text text-anchor="middle" x="1990" y="-178.5" font-family="Helvetica,sans-Serif" font-size="10.00" fill="#000000">::Attribute::Buffer</text>
</a>
</g>
</g>
<!-- Node6&#45;&gt;Node27 -->
<g id="edge36" class="edge">
<title>Node6&#45;&gt;Node27</title>
<path fill="none" stroke="#9a32cd" stroke-dasharray="5,2" d="M60.3434,-291.4198C90.3895,-254.0289 167.4816,-170 253.5,-170 253.5,-170 253.5,-170 1729.5,-170 1796.6723,-170 1873.2432,-177.353 1925.8946,-183.5571"/>
<polygon fill="#9a32cd" stroke="#9a32cd" points="57.4647,-289.4186 54.0438,-299.446 62.9712,-293.7405 57.4647,-289.4186"/>
<text text-anchor="middle" x="954" y="-184" font-family="Helvetica,sans-Serif" font-size="10.00" fill="#000000"> size</text>
<text text-anchor="middle" x="954" y="-173" font-family="Helvetica,sans-Serif" font-size="10.00" fill="#000000">elementsCount</text>
</g>
<!-- Node7 -->
<g id="node7" class="node">
<title>Node7</title>
<polygon fill="none" stroke="#bfbfbf" points="0,-601.5 0,-620.5 94,-620.5 94,-601.5 0,-601.5"/>
<text text-anchor="middle" x="47" y="-608.5" font-family="Helvetica,sans-Serif" font-size="10.00" fill="#000000">anonymous:@5</text>
</g>
<!-- Node7&#45;&gt;Node5 -->
<g id="edge6" class="edge">
<title>Node7&#45;&gt;Node5</title>
<path fill="none" stroke="#9a32cd" stroke-dasharray="5,2" d="M104.2917,-600.9101C123.8959,-597.3243 145.9384,-593.1453 166,-589 173.4776,-587.4549 181.2983,-585.7686 189.0569,-584.0517"/>
<polygon fill="#9a32cd" stroke="#9a32cd" points="103.499,-597.4967 94.2857,-602.7278 104.7502,-604.384 103.499,-597.4967"/>
<text text-anchor="middle" x="139" y="-602" font-family="Helvetica,sans-Serif" font-size="10.00" fill="#000000"> @5</text>
</g>
<!-- Node8 -->
<g id="node8" class="node">
<title>Node8</title>
<polygon fill="none" stroke="#bfbfbf" points="231,-603.5 231,-622.5 276,-622.5 276,-603.5 231,-603.5"/>
<text text-anchor="middle" x="253.5" y="-610.5" font-family="Helvetica,sans-Serif" font-size="10.00" fill="#000000">string</text>
</g>
<!-- Node8&#45;&gt;Node4 -->
<g id="edge7" class="edge">
<title>Node8&#45;&gt;Node4</title>
<path fill="none" stroke="#9a32cd" stroke-dasharray="5,2" d="M286.176,-609.2566C328.4373,-604.3346 404.3058,-595.2256 469,-586 478.595,-584.6317 488.7666,-583.089 498.65,-581.5406"/>
<polygon fill="#9a32cd" stroke="#9a32cd" points="285.7132,-605.7867 276.1829,-610.4152 286.5195,-612.7401 285.7132,-605.7867"/>
<text text-anchor="middle" x="405" y="-605" font-family="Helvetica,sans-Serif" font-size="10.00" fill="#000000"> _name</text>
</g>
<!-- Node9&#45;&gt;Node3 -->
<g id="edge8" class="edge">
<title>Node9&#45;&gt;Node3</title>
<path fill="none" stroke="#191970" d="M479.0988,-250.0876C534.3316,-248.1655 611.6213,-246 679.5,-246 679.5,-246 679.5,-246 1570,-246 1739.2651,-246 1915.5212,-375.6864 1971.6833,-420.7727"/>
<polygon fill="#191970" stroke="#191970" points="478.9195,-246.5917 469.0496,-250.4431 479.1671,-253.5873 478.9195,-246.5917"/>
</g>
<!-- Node10 -->
<g id="node10" class="node">
<title>Node10</title>
<g id="a_node10"><a xlink:href="structlug_1_1Graphics_1_1Render_1_1Material_1_1Constants.html" target="_top" xlink:title="lug::Graphics::Render\l::Material::Constants">
<polygon fill="none" stroke="#000000" points="1665.5,-385 1665.5,-415 1793.5,-415 1793.5,-385 1665.5,-385"/>
<text text-anchor="start" x="1673.5" y="-403" font-family="Helvetica,sans-Serif" font-size="10.00" fill="#000000">lug::Graphics::Render</text>
<text text-anchor="middle" x="1729.5" y="-392" font-family="Helvetica,sans-Serif" font-size="10.00" fill="#000000">::Material::Constants</text>
</a>
</g>
</g>
<!-- Node10&#45;&gt;Node3 -->
<g id="edge10" class="edge">
<title>Node10&#45;&gt;Node3</title>
<path fill="none" stroke="#9a32cd" stroke-dasharray="5,2" d="M1803.6766,-410.2509C1842.186,-415.5727 1888.7777,-422.0115 1925.7367,-427.1191"/>
<polygon fill="#9a32cd" stroke="#9a32cd" points="1803.9441,-406.7547 1793.5591,-408.8527 1802.9858,-413.6888 1803.9441,-406.7547"/>
<text text-anchor="middle" x="1866.5" y="-427" font-family="Helvetica,sans-Serif" font-size="10.00" fill="#000000"> _constants</text>
</g>
<!-- Node11 -->
<g id="node11" class="node">
<title>Node11</title>
<polygon fill="none" stroke="#bfbfbf" points="1402,-319.5 1402,-338.5 1441,-338.5 1441,-319.5 1402,-319.5"/>
<text text-anchor="middle" x="1421.5" y="-326.5" font-family="Helvetica,sans-Serif" font-size="10.00" fill="#000000">float</text>
</g>
<!-- Node11&#45;&gt;Node10 -->
<g id="edge11" class="edge">
<title>Node11&#45;&gt;Node10</title>
<path fill="none" stroke="#9a32cd" stroke-dasharray="5,2" d="M1451.2668,-324.2158C1493.2098,-318.655 1571.5561,-312.6319 1634,-333 1665.963,-343.4257 1696.629,-368.5022 1714.2405,-384.8455"/>
<polygon fill="#9a32cd" stroke="#9a32cd" points="1450.5884,-320.7767 1441.1756,-325.6397 1451.5665,-327.7081 1450.5884,-320.7767"/>
<text text-anchor="middle" x="1570" y="-369" font-family="Helvetica,sans-Serif" font-size="10.00" fill="#000000"> metallic</text>
<text text-anchor="middle" x="1570" y="-358" font-family="Helvetica,sans-Serif" font-size="10.00" fill="#000000">roughness</text>
<text text-anchor="middle" x="1570" y="-347" font-family="Helvetica,sans-Serif" font-size="10.00" fill="#000000">occlusionTextureStrength</text>
<text text-anchor="middle" x="1570" y="-336" font-family="Helvetica,sans-Serif" font-size="10.00" fill="#000000">normalTextureScale</text>
</g>
<!-- Node12 -->
<g id="node12" class="node">
<title>Node12</title>
<polygon fill="none" stroke="#bfbfbf" points="1399.5,-402.5 1399.5,-421.5 1443.5,-421.5 1443.5,-402.5 1399.5,-402.5"/>
<text text-anchor="middle" x="1421.5" y="-409.5" font-family="Helvetica,sans-Serif" font-size="10.00" fill="#000000">Vec3f</text>
</g>
<!-- Node12&#45;&gt;Node10 -->
<g id="edge12" class="edge">
<title>Node12&#45;&gt;Node10</title>
<path fill="none" stroke="#9a32cd" stroke-dasharray="5,2" d="M1453.6314,-412.0421C1495.2669,-411.9482 1570.0992,-411.2744 1634,-408 1644.1358,-407.4806 1654.8636,-406.7545 1665.3257,-405.9497"/>
<polygon fill="#9a32cd" stroke="#9a32cd" points="1453.5378,-408.5421 1443.5422,-412.0548 1453.5466,-415.5421 1453.5378,-408.5421"/>
<text text-anchor="middle" x="1570" y="-414" font-family="Helvetica,sans-Serif" font-size="10.00" fill="#000000"> emissive</text>
</g>
<!-- Node13 -->
<g id="node13" class="node">
<title>Node13</title>
<polygon fill="none" stroke="#bfbfbf" points="1399.5,-364.5 1399.5,-383.5 1443.5,-383.5 1443.5,-364.5 1399.5,-364.5"/>
<text text-anchor="middle" x="1421.5" y="-371.5" font-family="Helvetica,sans-Serif" font-size="10.00" fill="#000000">Vec4f</text>
</g>
<!-- Node13&#45;&gt;Node10 -->
<g id="edge13" class="edge">
<title>Node13&#45;&gt;Node10</title>
<path fill="none" stroke="#9a32cd" stroke-dasharray="5,2" d="M1453.8629,-376.7319C1503.8437,-380.9511 1600.7774,-389.1338 1665.3314,-394.5832"/>
<polygon fill="#9a32cd" stroke="#9a32cd" points="1453.9096,-373.2235 1443.6506,-375.8699 1453.3207,-380.1987 1453.9096,-373.2235"/>
<text text-anchor="middle" x="1570" y="-394" font-family="Helvetica,sans-Serif" font-size="10.00" fill="#000000"> baseColor</text>
</g>
<!-- Node14 -->
<g id="node14" class="node">
<title>Node14</title>
<g id="a_node14"><a xlink:href="classlug_1_1Graphics_1_1Resource_1_1SharedPtr.html" target="_top" xlink:title="lug::Graphics::Resource\l::SharedPtr\&lt; lug::Graphics\l::Render::SkyBox \&gt;">
<polygon fill="none" stroke="#000000" points="1652,-529.5 1652,-570.5 1807,-570.5 1807,-529.5 1652,-529.5"/>
<text text-anchor="start" x="1660" y="-558.5" font-family="Helvetica,sans-Serif" font-size="10.00" fill="#000000">lug::Graphics::Resource</text>
<text text-anchor="start" x="1660" y="-547.5" font-family="Helvetica,sans-Serif" font-size="10.00" fill="#000000">::SharedPtr&lt; lug::Graphics</text>
<text text-anchor="middle" x="1729.5" y="-536.5" font-family="Helvetica,sans-Serif" font-size="10.00" fill="#000000">::Render::SkyBox &gt;</text>
</a>
</g>
</g>
<!-- Node14&#45;&gt;Node3 -->
<g id="edge14" class="edge">
<title>Node14&#45;&gt;Node3</title>
<path fill="none" stroke="#9a32cd" stroke-dasharray="5,2" d="M1785.7332,-525.3912C1837.3796,-502.7897 1912.2661,-470.0179 1955.5588,-451.0721"/>
<polygon fill="#9a32cd" stroke="#9a32cd" points="1784.131,-522.2718 1776.373,-529.4874 1786.9374,-528.6847 1784.131,-522.2718"/>
<text text-anchor="middle" x="1866.5" y="-520" font-family="Helvetica,sans-Serif" font-size="10.00" fill="#000000"> _prefilteredMap</text>
<text text-anchor="middle" x="1866.5" y="-509" font-family="Helvetica,sans-Serif" font-size="10.00" fill="#000000">_irradianceMap</text>
</g>
<!-- Node15&#45;&gt;Node14 -->
<g id="edge15" class="edge">
<title>Node15&#45;&gt;Node14</title>
<path fill="none" stroke="#9a32cd" stroke-dasharray="5,2" d="M1495.842,-550C1543.0097,-550 1603.9347,-550 1651.746,-550"/>
<polygon fill="#9a32cd" stroke="#9a32cd" points="1495.692,-546.5001 1485.692,-550 1495.6919,-553.5001 1495.692,-546.5001"/>
<text text-anchor="middle" x="1570" y="-553" font-family="Helvetica,sans-Serif" font-size="10.00" fill="#000000"> _resource</text>
</g>
<!-- Node16 -->
<g id="node16" class="node">
<title>Node16</title>
<g id="a_node16"><a xlink:href="classlug_1_1Graphics_1_1Resource_1_1SharedPtr.html" target="_top" xlink:title="lug::Graphics::Resource\l::SharedPtr\&lt; lug::Graphics\l::Render::Texture \&gt;">
<polygon fill="none" stroke="#000000" points="1036,-501.5 1036,-542.5 1191,-542.5 1191,-501.5 1036,-501.5"/>
<text text-anchor="start" x="1044" y="-530.5" font-family="Helvetica,sans-Serif" font-size="10.00" fill="#000000">lug::Graphics::Resource</text>
<text text-anchor="start" x="1044" y="-519.5" font-family="Helvetica,sans-Serif" font-size="10.00" fill="#000000">::SharedPtr&lt; lug::Graphics</text>
<text text-anchor="middle" x="1113.5" y="-508.5" font-family="Helvetica,sans-Serif" font-size="10.00" fill="#000000">::Render::Texture &gt;</text>
</a>
</g>
</g>
<!-- Node16&#45;&gt;Node15 -->
<g id="edge17" class="edge">
<title>Node16&#45;&gt;Node15</title>
<path fill="none" stroke="#9a32cd" stroke-dasharray="5,2" d="M1201.274,-525.4328C1242.5508,-527.5753 1292.3923,-530.9209 1337,-536 1343.6486,-536.757 1350.5708,-537.6805 1357.4649,-538.6885"/>
<polygon fill="#9a32cd" stroke="#9a32cd" points="1201.4099,-521.9353 1191.2463,-524.9271 1201.0573,-528.9264 1201.4099,-521.9353"/>
<text text-anchor="middle" x="1273" y="-550" font-family="Helvetica,sans-Serif" font-size="10.00" fill="#000000"> _backgroundTexture</text>
<text text-anchor="middle" x="1273" y="-539" font-family="Helvetica,sans-Serif" font-size="10.00" fill="#000000">_environnementTexture</text>
</g>
<!-- Node16&#45;&gt;Node23 -->
<g id="edge28" class="edge">
<title>Node16&#45;&gt;Node23</title>
<path fill="none" stroke="#9a32cd" stroke-dasharray="5,2" d="M1143.0809,-495.035C1160.8042,-480.732 1184.5841,-464.5836 1209,-457 1256.2114,-442.336 1312.2206,-442.7494 1354.882,-446.4738"/>
<polygon fill="#9a32cd" stroke="#9a32cd" points="1140.8322,-492.3529 1135.3835,-501.4394 1145.3093,-497.734 1140.8322,-492.3529"/>
<text text-anchor="middle" x="1273" y="-460" font-family="Helvetica,sans-Serif" font-size="10.00" fill="#000000"> texture</text>
</g>
<!-- Node17&#45;&gt;Node16 -->
<g id="edge18" class="edge">
<title>Node17&#45;&gt;Node16</title>
<path fill="none" stroke="#9a32cd" stroke-dasharray="5,2" d="M876.5306,-523.6215C881.0877,-523.7709 885.6054,-523.8996 890,-524 938.4919,-525.1078 992.915,-524.6569 1035.9157,-523.9054"/>
<polygon fill="#9a32cd" stroke="#9a32cd" points="876.6424,-520.1234 866.524,-523.2645 876.3928,-527.1189 876.6424,-520.1234"/>
<text text-anchor="middle" x="954" y="-527" font-family="Helvetica,sans-Serif" font-size="10.00" fill="#000000"> _resource</text>
</g>
<!-- Node18 -->
<g id="node18" class="node">
<title>Node18</title>
<polygon fill="none" stroke="#bfbfbf" points="530.5,-474.5 530.5,-493.5 582.5,-493.5 582.5,-474.5 530.5,-474.5"/>
<text text-anchor="middle" x="556.5" y="-481.5" font-family="Helvetica,sans-Serif" font-size="10.00" fill="#000000">Format</text>
</g>
<!-- Node18&#45;&gt;Node17 -->
<g id="edge20" class="edge">
<title>Node18&#45;&gt;Node17</title>
<path fill="none" stroke="#9a32cd" stroke-dasharray="5,2" d="M593.0597,-485.1811C625.3322,-486.6549 673.5565,-489.9099 715,-497 726.9212,-499.0395 739.5871,-501.9329 751.4713,-504.982"/>
<polygon fill="#9a32cd" stroke="#9a32cd" points="592.8982,-481.6713 582.7595,-484.7467 592.6031,-488.6651 592.8982,-481.6713"/>
<text text-anchor="middle" x="679.5" y="-500" font-family="Helvetica,sans-Serif" font-size="10.00" fill="#000000"> _format</text>
</g>
<!-- Node19 -->
<g id="node19" class="node">
<title>Node19</title>
<polygon fill="none" stroke="#bfbfbf" points="535.5,-430.5 535.5,-449.5 577.5,-449.5 577.5,-430.5 535.5,-430.5"/>
<text text-anchor="middle" x="556.5" y="-437.5" font-family="Helvetica,sans-Serif" font-size="10.00" fill="#000000">Filter</text>
</g>
<!-- Node19&#45;&gt;Node17 -->
<g id="edge22" class="edge">
<title>Node19&#45;&gt;Node17</title>
<path fill="none" stroke="#9a32cd" stroke-dasharray="5,2" d="M587.9534,-436.8557C620.807,-434.7736 673.2714,-434.8864 715,-451 745.1388,-462.6381 773.1917,-488.4553 789.0545,-504.9996"/>
<polygon fill="#9a32cd" stroke="#9a32cd" points="587.3199,-433.3931 577.6074,-437.626 587.8397,-440.3738 587.3199,-433.3931"/>
<text text-anchor="middle" x="679.5" y="-476" font-family="Helvetica,sans-Serif" font-size="10.00" fill="#000000"> _magFilter</text>
<text text-anchor="middle" x="679.5" y="-465" font-family="Helvetica,sans-Serif" font-size="10.00" fill="#000000">_mipMapFilter</text>
<text text-anchor="middle" x="679.5" y="-454" font-family="Helvetica,sans-Serif" font-size="10.00" fill="#000000">_minFilter</text>
</g>
<!-- Node20 -->
<g id="node20" class="node">
<title>Node20</title>
<polygon fill="none" stroke="#bfbfbf" points="511.5,-385.5 511.5,-404.5 601.5,-404.5 601.5,-385.5 511.5,-385.5"/>
<text text-anchor="middle" x="556.5" y="-392.5" font-family="Helvetica,sans-Serif" font-size="10.00" fill="#000000">WrappingMode</text>
</g>
<!-- Node20&#45;&gt;Node17 -->
<g id="edge23" class="edge">
<title>Node20&#45;&gt;Node17</title>
<path fill="none" stroke="#9a32cd" stroke-dasharray="5,2" d="M611.8872,-389.332C644.1205,-388.6564 684.3148,-392.5354 715,-411 727.3574,-418.436 724.3232,-426.4799 733,-438 751.1883,-462.1484 774.1884,-488.571 788.6269,-504.7193"/>
<polygon fill="#9a32cd" stroke="#9a32cd" points="611.5909,-385.8403 601.7237,-389.6986 611.8434,-392.8357 611.5909,-385.8403"/>
<text text-anchor="middle" x="679.5" y="-425" font-family="Helvetica,sans-Serif" font-size="10.00" fill="#000000"> _wrapS</text>
<text text-anchor="middle" x="679.5" y="-414" font-family="Helvetica,sans-Serif" font-size="10.00" fill="#000000">_wrapT</text>
</g>
<!-- Node21 -->
<g id="node21" class="node">
<title>Node21</title>
<g id="a_node21"><a xlink:href="classlug_1_1Graphics_1_1Resource_1_1SharedPtr.html" target="_top" xlink:title="Dummy class for a shared pointer. ">
<polygon fill="none" stroke="#000000" points="733,-398 733,-428 872,-428 872,-398 733,-398"/>
<text text-anchor="start" x="741" y="-416" font-family="Helvetica,sans-Serif" font-size="10.00" fill="#000000">lug::Graphics::Resource</text>
<text text-anchor="middle" x="802.5" y="-405" font-family="Helvetica,sans-Serif" font-size="10.00" fill="#000000">::SharedPtr&lt; T &gt;</text>
</a>
</g>
</g>
<!-- Node21&#45;&gt;Node2 -->
<g id="edge30" class="edge">
<title>Node21&#45;&gt;Node2</title>
<path fill="none" stroke="#ffa500" stroke-dasharray="5,2" d="M854.3965,-394.6288C959.819,-359.0038 1207.2175,-284 1421.5,-284 1421.5,-284 1421.5,-284 1990,-284 2043.1853,-284 2103.0787,-284.7647 2149.3494,-285.522"/>
<polygon fill="#ffa500" stroke="#ffa500" points="852.9816,-391.4131 844.6434,-397.9496 855.2378,-398.0396 852.9816,-391.4131"/>
<text text-anchor="start" x="1506" y="-298" font-family="Helvetica,sans-Serif" font-size="10.00" fill="#000000"> &lt; lug::Graphics::Render</text>
<text text-anchor="middle" x="1570" y="-287" font-family="Helvetica,sans-Serif" font-size="10.00" fill="#000000">::Material &gt;</text>
</g>
<!-- Node21&#45;&gt;Node14 -->
<g id="edge26" class="edge">
<title>Node21&#45;&gt;Node14</title>
<path fill="none" stroke="#ffa500" stroke-dasharray="5,2" d="M882.1407,-424.77C1058.0463,-450.7668 1477.8758,-512.8128 1651.8883,-538.5299"/>
<polygon fill="#ffa500" stroke="#ffa500" points="882.5799,-421.297 872.1757,-423.2973 881.5565,-428.2217 882.5799,-421.297"/>
<text text-anchor="start" x="1209" y="-504" font-family="Helvetica,sans-Serif" font-size="10.00" fill="#000000"> &lt; lug::Graphics::Render</text>
<text text-anchor="middle" x="1273" y="-493" font-family="Helvetica,sans-Serif" font-size="10.00" fill="#000000">::SkyBox &gt;</text>
</g>
<!-- Node21&#45;&gt;Node16 -->
<g id="edge24" class="edge">
<title>Node21&#45;&gt;Node16</title>
<path fill="none" stroke="#ffa500" stroke-dasharray="5,2" d="M824.9541,-435.0066C841.5387,-449.9103 865.4171,-468.6991 890,-479 943.0437,-501.2267 961.5978,-486.7553 1018,-498 1023.8679,-499.1699 1029.9164,-500.4684 1035.9864,-501.8387"/>
<polygon fill="#ffa500" stroke="#ffa500" points="827.1487,-432.2691 817.4274,-428.0565 822.3999,-437.412 827.1487,-432.2691"/>
<text text-anchor="start" x="890" y="-512" font-family="Helvetica,sans-Serif" font-size="10.00" fill="#000000"> &lt; lug::Graphics::Render</text>
<text text-anchor="middle" x="954" y="-501" font-family="Helvetica,sans-Serif" font-size="10.00" fill="#000000">::Texture &gt;</text>
</g>
<!-- Node22 -->
<g id="node22" class="node">
<title>Node22</title>
<polygon fill="none" stroke="#bfbfbf" points="542,-347.5 542,-366.5 571,-366.5 571,-347.5 542,-347.5"/>
<text text-anchor="middle" x="556.5" y="-354.5" font-family="Helvetica,sans-Serif" font-size="10.00" fill="#000000">T</text>
</g>
<!-- Node22&#45;&gt;Node21 -->
<g id="edge25" class="edge">
<title>Node22&#45;&gt;Node21</title>
<path fill="none" stroke="#9a32cd" stroke-dasharray="5,2" d="M581.4389,-354.0727C613.1628,-351.1831 669.3153,-348.8816 715,-362 740.5191,-369.3278 766.3762,-385.7548 783.2942,-397.9973"/>
<polygon fill="#9a32cd" stroke="#9a32cd" points="580.8925,-350.6099 571.2938,-355.0949 581.5944,-357.5746 580.8925,-350.6099"/>
<text text-anchor="middle" x="679.5" y="-365" font-family="Helvetica,sans-Serif" font-size="10.00" fill="#000000"> _resource</text>
</g>
<!-- Node23&#45;&gt;Node3 -->
<g id="edge27" class="edge">
<title>Node23&#45;&gt;Node3</title>
<path fill="none" stroke="#9a32cd" stroke-dasharray="5,2" d="M1498.5824,-453.3455C1594.5126,-450.0329 1763.3551,-444.1731 1908,-439 1913.837,-438.7912 1919.9076,-438.5724 1925.9873,-438.3521"/>
<polygon fill="#9a32cd" stroke="#9a32cd" points="1498.2644,-449.8543 1488.3912,-453.6973 1498.506,-456.8501 1498.2644,-449.8543"/>
<text text-anchor="middle" x="1729.5" y="-494" font-family="Helvetica,sans-Serif" font-size="10.00" fill="#000000"> _baseColorTexture</text>
<text text-anchor="middle" x="1729.5" y="-483" font-family="Helvetica,sans-Serif" font-size="10.00" fill="#000000">_normalTexture</text>
<text text-anchor="middle" x="1729.5" y="-472" font-family="Helvetica,sans-Serif" font-size="10.00" fill="#000000">_occlusionTexture</text>
<text text-anchor="middle" x="1729.5" y="-461" font-family="Helvetica,sans-Serif" font-size="10.00" fill="#000000">_emissiveTexture</text>
<text text-anchor="middle" x="1729.5" y="-450" font-family="Helvetica,sans-Serif" font-size="10.00" fill="#000000">_metallicRoughnessTexture</text>
</g>
<!-- Node24 -->
<g id="node24" class="node">
<title>Node24</title>
<polygon fill="none" stroke="#bfbfbf" points="2205.5,-228.5 2205.5,-247.5 2248.5,-247.5 2248.5,-228.5 2205.5,-228.5"/>
<text text-anchor="middle" x="2227" y="-235.5" font-family="Helvetica,sans-Serif" font-size="10.00" fill="#000000">Mode</text>
</g>
<!-- Node24&#45;&gt;Node1 -->
<g id="edge31" class="edge">
<title>Node24&#45;&gt;Node1</title>
<path fill="none" stroke="#9a32cd" stroke-dasharray="5,2" d="M2258.8124,-238.1362C2291.231,-237.2306 2342.3794,-232.8755 2383,-216 2409.2058,-205.113 2434.4912,-183.8327 2449.8904,-169.2693"/>
<polygon fill="#9a32cd" stroke="#9a32cd" points="2258.5126,-234.641 2248.5787,-238.3242 2258.6413,-241.6399 2258.5126,-234.641"/>
<text text-anchor="middle" x="2355.5" y="-234" font-family="Helvetica,sans-Serif" font-size="10.00" fill="#000000"> Triangles</text>
</g>
<!-- Node25 -->
<g id="node25" class="node">
<title>Node25</title>
<g id="a_node25"><a xlink:href="structlug_1_1Graphics_1_1Render_1_1Mesh_1_1PrimitiveSet_1_1Attribute.html" target="_top" xlink:title="lug::Graphics::Render\l::Mesh::PrimitiveSet\l::Attribute">
<polygon fill="none" stroke="#000000" points="2163,-168.5 2163,-209.5 2291,-209.5 2291,-168.5 2163,-168.5"/>
<text text-anchor="start" x="2171" y="-197.5" font-family="Helvetica,sans-Serif" font-size="10.00" fill="#000000">lug::Graphics::Render</text>
<text text-anchor="start" x="2171" y="-186.5" font-family="Helvetica,sans-Serif" font-size="10.00" fill="#000000">::Mesh::PrimitiveSet</text>
<text text-anchor="middle" x="2227" y="-175.5" font-family="Helvetica,sans-Serif" font-size="10.00" fill="#000000">::Attribute</text>
</a>
</g>
</g>
<!-- Node25&#45;&gt;Node1 -->
<g id="edge32" class="edge">
<title>Node25&#45;&gt;Node1</title>
<path fill="none" stroke="#9a32cd" stroke-dasharray="5,2" d="M2301.1916,-176.198C2310.2153,-174.7338 2319.3118,-173.3015 2328,-172 2351.7244,-168.446 2377.8187,-164.922 2400.8113,-161.9469"/>
<polygon fill="#9a32cd" stroke="#9a32cd" points="2300.362,-172.7872 2291.0602,-177.8594 2301.4948,-179.695 2300.362,-172.7872"/>
<text text-anchor="middle" x="2355.5" y="-208" font-family="Helvetica,sans-Serif" font-size="10.00" fill="#000000"> tangent</text>
<text text-anchor="middle" x="2355.5" y="-197" font-family="Helvetica,sans-Serif" font-size="10.00" fill="#000000">normal</text>
<text text-anchor="middle" x="2355.5" y="-186" font-family="Helvetica,sans-Serif" font-size="10.00" fill="#000000">position</text>
<text text-anchor="middle" x="2355.5" y="-175" font-family="Helvetica,sans-Serif" font-size="10.00" fill="#000000">indices</text>
</g>
<!-- Node26 -->
<g id="node26" class="node">
<title>Node26</title>
<polygon fill="none" stroke="#bfbfbf" points="1969.5,-231.5 1969.5,-250.5 2010.5,-250.5 2010.5,-231.5 1969.5,-231.5"/>
<text text-anchor="middle" x="1990" y="-238.5" font-family="Helvetica,sans-Serif" font-size="10.00" fill="#000000">Type</text>
</g>
<!-- Node26&#45;&gt;Node25 -->
<g id="edge33" class="edge">
<title>Node26&#45;&gt;Node25</title>
<path fill="none" stroke="#9a32cd" stroke-dasharray="5,2" d="M2020.455,-234.3179C2056.2228,-226.4701 2116.5387,-213.2362 2162.7838,-203.0896"/>
<polygon fill="#9a32cd" stroke="#9a32cd" points="2019.6351,-230.9144 2010.6176,-236.4763 2021.1354,-237.7518 2019.6351,-230.9144"/>
<text text-anchor="middle" x="2099" y="-225" font-family="Helvetica,sans-Serif" font-size="10.00" fill="#000000"> type</text>
</g>
<!-- Node27&#45;&gt;Node25 -->
<g id="edge34" class="edge">
<title>Node27&#45;&gt;Node25</title>
<path fill="none" stroke="#9a32cd" stroke-dasharray="5,2" d="M2064.2161,-191.0606C2095.839,-190.6603 2132.3762,-190.1978 2162.8131,-189.8125"/>
<polygon fill="#9a32cd" stroke="#9a32cd" points="2064.0905,-187.5618 2054.1356,-191.1882 2064.1791,-194.5612 2064.0905,-187.5618"/>
<text text-anchor="middle" x="2099" y="-193" font-family="Helvetica,sans-Serif" font-size="10.00" fill="#000000"> buffer</text>
</g>
<!-- Node28 -->
<g id="node28" class="node">
<title>Node28</title>
<polygon fill="none" stroke="#bfbfbf" points="1710.5,-198.5 1710.5,-217.5 1748.5,-217.5 1748.5,-198.5 1710.5,-198.5"/>
<text text-anchor="middle" x="1729.5" y="-205.5" font-family="Helvetica,sans-Serif" font-size="10.00" fill="#000000">char</text>
</g>
<!-- Node28&#45;&gt;Node27 -->
<g id="edge35" class="edge">
<title>Node28&#45;&gt;Node27</title>
<path fill="none" stroke="#9a32cd" stroke-dasharray="5,2" d="M1758.8551,-206.197C1799.1305,-203.7233 1872.5902,-199.2113 1925.9102,-195.9364"/>
<polygon fill="#9a32cd" stroke="#9a32cd" points="1758.4218,-202.7169 1748.6552,-206.8235 1758.851,-209.7038 1758.4218,-202.7169"/>
<text text-anchor="middle" x="1866.5" y="-204" font-family="Helvetica,sans-Serif" font-size="10.00" fill="#000000"> data</text>
</g>
<!-- Node29 -->
<g id="node29" class="node">
<title>Node29</title>
<polygon fill="none" stroke="#bfbfbf" points="1966.5,-129.5 1966.5,-148.5 2013.5,-148.5 2013.5,-129.5 1966.5,-129.5"/>
<text text-anchor="middle" x="1990" y="-136.5" font-family="Helvetica,sans-Serif" font-size="10.00" fill="#000000">void *</text>
</g>
<!-- Node29&#45;&gt;Node1 -->
<g id="edge40" class="edge">
<title>Node29&#45;&gt;Node1</title>
<path fill="none" stroke="#9a32cd" stroke-dasharray="5,2" d="M2023.8121,-139.8335C2082.1939,-141.2989 2205.6778,-144.5139 2310,-148 2339.8755,-148.9983 2372.9839,-150.2589 2400.9049,-151.3667"/>
<polygon fill="#9a32cd" stroke="#9a32cd" points="2023.7721,-136.3315 2013.6878,-139.5805 2023.5972,-143.3293 2023.7721,-136.3315"/>
<text text-anchor="middle" x="2227" y="-151" font-family="Helvetica,sans-Serif" font-size="10.00" fill="#000000"> _data</text>
</g>
<!-- Node29&#45;&gt;Node25 -->
<g id="edge37" class="edge">
<title>Node29&#45;&gt;Node25</title>
<path fill="none" stroke="#9a32cd" stroke-dasharray="5,2" d="M2023.5997,-146.0886C2059.6974,-153.7041 2117.9272,-165.9889 2162.8522,-175.4667"/>
<polygon fill="#9a32cd" stroke="#9a32cd" points="2024.0981,-142.6167 2013.5909,-143.977 2022.653,-149.4659 2024.0981,-142.6167"/>
<text text-anchor="middle" x="2099" y="-169" font-family="Helvetica,sans-Serif" font-size="10.00" fill="#000000"> _data</text>
</g>
<!-- Node30 -->
<g id="node30" class="node">
<title>Node30</title>
<polygon fill="none" stroke="#bfbfbf" points="2144,-60.5 2144,-101.5 2310,-101.5 2310,-60.5 2144,-60.5"/>
<text text-anchor="start" x="2152" y="-89.5" font-family="Helvetica,sans-Serif" font-size="10.00" fill="#000000">vector&lt; lug::Graphics</text>
<text text-anchor="start" x="2152" y="-78.5" font-family="Helvetica,sans-Serif" font-size="10.00" fill="#000000">::Render::Mesh::PrimitiveSet</text>
<text text-anchor="middle" x="2227" y="-67.5" font-family="Helvetica,sans-Serif" font-size="10.00" fill="#000000">::Attribute &gt;</text>
</g>
<!-- Node30&#45;&gt;Node1 -->
<g id="edge38" class="edge">
<title>Node30&#45;&gt;Node1</title>
<path fill="none" stroke="#9a32cd" stroke-dasharray="5,2" d="M2320.1347,-95.9563C2341.0961,-100.4624 2363.0376,-106.0958 2383,-113 2402.5548,-119.7633 2423.3949,-130.2304 2439.1722,-138.8956"/>
<polygon fill="#9a32cd" stroke="#9a32cd" points="2320.7647,-92.5125 2310.2611,-93.8996 2319.3372,-99.3654 2320.7647,-92.5125"/>
<text text-anchor="middle" x="2355.5" y="-116" font-family="Helvetica,sans-Serif" font-size="10.00" fill="#000000"> attributes</text>
</g>
<!-- Node31 -->
<g id="node31" class="node">
<title>Node31</title>
<polygon fill="none" stroke="#bfbfbf" points="2144,-.5 2144,-41.5 2310,-41.5 2310,-.5 2144,-.5"/>
<text text-anchor="start" x="2152" y="-29.5" font-family="Helvetica,sans-Serif" font-size="10.00" fill="#000000">vector&lt; lug::Graphics</text>
<text text-anchor="start" x="2152" y="-18.5" font-family="Helvetica,sans-Serif" font-size="10.00" fill="#000000">::Render::Mesh::PrimitiveSet</text>
<text text-anchor="middle" x="2227" y="-7.5" font-family="Helvetica,sans-Serif" font-size="10.00" fill="#000000">::Attribute * &gt;</text>
</g>
<!-- Node31&#45;&gt;Node1 -->
<g id="edge39" class="edge">
<title>Node31&#45;&gt;Node1</title>
<path fill="none" stroke="#9a32cd" stroke-dasharray="5,2" d="M2319.9246,-42.7164C2341.5189,-49.9144 2363.7898,-59.2006 2383,-71 2412.6875,-89.2348 2439.4985,-120.4341 2453.8969,-138.9454"/>
<polygon fill="#9a32cd" stroke="#9a32cd" points="2320.9858,-39.3812 2310.3945,-39.6567 2318.8459,-46.0461 2320.9858,-39.3812"/>
<text text-anchor="middle" x="2355.5" y="-85" font-family="Helvetica,sans-Serif" font-size="10.00" fill="#000000"> texCoords</text>
<text text-anchor="middle" x="2355.5" y="-74" font-family="Helvetica,sans-Serif" font-size="10.00" fill="#000000">colors</text>
</g>
</g>
</svg>
