<?xml version="1.0" encoding="UTF-8" standalone="no"?>
<!DOCTYPE svg PUBLIC "-//W3C//DTD SVG 1.1//EN"
 "http://www.w3.org/Graphics/SVG/1.1/DTD/svg11.dtd">
<!-- Generated by graphviz version 2.40.1 (20161225.0304)
 -->
<!-- Title: lug::Core::Application::Info Pages: 1 -->
<svg width="198pt" height="206pt"
 viewBox="0.00 0.00 198.00 206.00" xmlns="http://www.w3.org/2000/svg" xmlns:xlink="http://www.w3.org/1999/xlink">
<g id="graph0" class="graph" transform="scale(1 1) rotate(0) translate(4 202)">
<title>lug::Core::Application::Info</title>
<!-- Node1 -->
<g id="node1" class="node">
<title>Node1</title>
<polygon fill="#bfbfbf" stroke="#000000" points="0,-.5 0,-30.5 128,-30.5 128,-.5 0,-.5"/>
<text text-anchor="start" x="8" y="-18.5" font-family="Helvetica,sans-Serif" font-size="10.00" fill="#000000">lug::Core::Application</text>
<text text-anchor="middle" x="64" y="-7.5" font-family="Helvetica,sans-Serif" font-size="10.00" fill="#000000">::Info</text>
</g>
<!-- Node2 -->
<g id="node2" class="node">
<title>Node2</title>
<polygon fill="none" stroke="#bfbfbf" points="6,-84 6,-103 44,-103 44,-84 6,-84"/>
<text text-anchor="middle" x="25" y="-91" font-family="Helvetica,sans-Serif" font-size="10.00" fill="#000000">char</text>
</g>
<!-- Node2&#45;&gt;Node1 -->
<g id="edge1" class="edge">
<title>Node2&#45;&gt;Node1</title>
<path fill="none" stroke="#9a32cd" stroke-dasharray="5,2" d="M34.4143,-74.6714C41.1399,-61.2202 50.0742,-43.3517 56.3588,-30.7824"/>
<polygon fill="#9a32cd" stroke="#9a32cd" points="31.1239,-73.4261 29.7822,-83.9357 37.3849,-76.5567 31.1239,-73.4261"/>
<text text-anchor="middle" x="62" y="-52" font-family="Helvetica,sans-Serif" font-size="10.00" fill="#000000"> name</text>
</g>
<!-- Node3 -->
<g id="node3" class="node">
<title>Node3</title>
<g id="a_node3"><a xlink:href="structlug_1_1Core_1_1Application_1_1Version.html" target="_top" xlink:title="Stores the version of the Application. ">
<polygon fill="none" stroke="#000000" points="62,-78.5 62,-108.5 190,-108.5 190,-78.5 62,-78.5"/>
<text text-anchor="start" x="70" y="-96.5" font-family="Helvetica,sans-Serif" font-size="10.00" fill="#000000">lug::Core::Application</text>
<text text-anchor="middle" x="126" y="-85.5" font-family="Helvetica,sans-Serif" font-size="10.00" fill="#000000">::Version</text>
</a>
</g>
</g>
<!-- Node3&#45;&gt;Node1 -->
<g id="edge2" class="edge">
<title>Node3&#45;&gt;Node1</title>
<path fill="none" stroke="#9a32cd" stroke-dasharray="5,2" d="M107.7272,-70.5116C97.5351,-57.6894 85.1221,-42.0729 76.1291,-30.7592"/>
<polygon fill="#9a32cd" stroke="#9a32cd" points="105.0834,-72.8104 114.0458,-78.4608 110.5632,-68.4547 105.0834,-72.8104"/>
<text text-anchor="middle" x="118.5" y="-52" font-family="Helvetica,sans-Serif" font-size="10.00" fill="#000000"> version</text>
</g>
<!-- Node4 -->
<g id="node4" class="node">
<title>Node4</title>
<polygon fill="none" stroke="#bfbfbf" points="97.5,-178.5 97.5,-197.5 154.5,-197.5 154.5,-178.5 97.5,-178.5"/>
<text text-anchor="middle" x="126" y="-185.5" font-family="Helvetica,sans-Serif" font-size="10.00" fill="#000000">uint32_t</text>
</g>
<!-- Node4&#45;&gt;Node3 -->
<g id="edge3" class="edge">
<title>Node4&#45;&gt;Node3</title>
<path fill="none" stroke="#9a32cd" stroke-dasharray="5,2" d="M126,-168.1282C126,-150.3779 126,-124.7574 126,-108.6257"/>
<polygon fill="#9a32cd" stroke="#9a32cd" points="122.5001,-168.2427 126,-178.2428 129.5001,-168.2428 122.5001,-168.2427"/>
<text text-anchor="middle" x="141.5" y="-152" font-family="Helvetica,sans-Serif" font-size="10.00" fill="#000000"> patch</text>
<text text-anchor="middle" x="141.5" y="-141" font-family="Helvetica,sans-Serif" font-size="10.00" fill="#000000">major</text>
<text text-anchor="middle" x="141.5" y="-130" font-family="Helvetica,sans-Serif" font-size="10.00" fill="#000000">minor</text>
</g>
</g>
</svg>
