<?xml version="1.0" encoding="UTF-8" standalone="no"?>
<!DOCTYPE svg PUBLIC "-//W3C//DTD SVG 1.1//EN"
 "http://www.w3.org/Graphics/SVG/1.1/DTD/svg11.dtd">
<!-- Generated by graphviz version 2.40.1 (20161225.0304)
 -->
<!-- Title: lug::Window::MouseEvent Pages: 1 -->
<!--zoomable 161 -->
<svg id="main" version="1.1" xmlns="http://www.w3.org/2000/svg" xmlns:xlink="http://www.w3.org/1999/xlink" xml:space="preserve" onload="init(evt)">
<style type="text/css"><![CDATA[
.edge:hover path { stroke: red; }
.edge:hover polygon { stroke: red; fill: red; }
]]></style>
<script type="text/javascript"><![CDATA[
var edges = document.getElementsByTagName('g');
if (edges && edges.length) {
  for (var i=0;i<edges.length;i++) {
    if (edges[i].id.substr(0,4)=='edge') {
      edges[i].setAttribute('class','edge');
    }
  }
}
]]></script>
        <defs>
                <circle id="rim" cx="0" cy="0" r="7"/>
                <circle id="rim2" cx="0" cy="0" r="3.5"/>
                <g id="zoomPlus">
                        <use xlink:href="#rim" fill="#404040">
                                <set attributeName="fill" to="#808080" begin="zoomplus.mouseover" end="zoomplus.mouseout"/>
                        </use>
                        <path d="M-4,0h8M0,-4v8" fill="none" stroke="white" stroke-width="1.5" pointer-events="none"/>
                </g>
                <g id="zoomMin">
                        <use xlink:href="#rim" fill="#404040">
                                <set attributeName="fill" to="#808080" begin="zoomminus.mouseover" end="zoomminus.mouseout"/>
                        </use>
                        <path d="M-4,0h8" fill="none" stroke="white" stroke-width="1.5" pointer-events="none"/>
                </g>
                <g id="dirArrow">
                        <path fill="none" stroke="white" stroke-width="1.5" d="M0,-3.0v7 M-2.5,-0.5L0,-3.0L2.5,-0.5"/>
                </g>
               <g id="resetDef">
                       <use xlink:href="#rim2" fill="#404040">
                               <set attributeName="fill" to="#808080" begin="reset.mouseover" end="reset.mouseout"/>
                       </use>
               </g>
        </defs>

<script type="text/javascript">
var viewWidth = 647;
var viewHeight = 161;
var sectionId = 'dynsection-0';
</script>
<script xlink:href="svgpan.js"/>
<svg id="graph" class="graph">
<g id="viewport">
<title>lug::Window::MouseEvent</title>
<!-- Node1 -->
<g id="node1" class="node">
<title>Node1</title>
<polygon fill="#bfbfbf" stroke="#000000" points="249,-.5 249,-19.5 397,-19.5 397,-.5 249,-.5"/>
<text text-anchor="middle" x="323" y="-7.5" font-family="Helvetica,sans-Serif" font-size="10.00" fill="#000000">lug::Window::MouseEvent</text>
</g>
<!-- Node2 -->
<g id="node2" class="node">
<title>Node2</title>
<polygon fill="none" stroke="#bfbfbf" points="0,-133.5 0,-152.5 100,-152.5 100,-133.5 0,-133.5"/>
<text text-anchor="middle" x="50" y="-140.5" font-family="Helvetica,sans-Serif" font-size="10.00" fill="#000000">anonymous:@26</text>
</g>
<!-- Node2&#45;&gt;Node1 -->
<g id="edge1" class="edge">
<title>Node2&#45;&gt;Node1</title>
<path fill="none" stroke="#9a32cd" stroke-dasharray="5,2" d="M56.9656,-123.9062C66.9176,-99.5819 87.6596,-58.2726 120,-38 141.1384,-24.7494 200.0441,-17.6135 248.9908,-13.8696"/>
<polygon fill="#9a32cd" stroke="#9a32cd" points="53.6107,-122.877 53.2537,-133.4658 60.1361,-125.4108 53.6107,-122.877"/>
<text text-anchor="middle" x="133" y="-74" font-family="Helvetica,sans-Serif" font-size="10.00" fill="#000000"> @26</text>
</g>
<!-- Node3 -->
<g id="node3" class="node">
<title>Node3</title>
<polygon fill="none" stroke="#bfbfbf" points="118,-133.5 118,-152.5 168,-152.5 168,-133.5 118,-133.5"/>
<text text-anchor="middle" x="143" y="-140.5" font-family="Helvetica,sans-Serif" font-size="10.00" fill="#000000">double</text>
</g>
<!-- Node3&#45;&gt;Node1 -->
<g id="edge2" class="edge">
<title>Node3&#45;&gt;Node1</title>
<path fill="none" stroke="#9a32cd" stroke-dasharray="5,2" d="M146.6413,-123.3784C152.1472,-99.445 164.9632,-59.5246 192,-38 201.7343,-30.2504 226.2167,-24.0874 251.4182,-19.5386"/>
<polygon fill="#9a32cd" stroke="#9a32cd" points="143.1646,-122.9058 144.5479,-133.41 150.017,-124.3358 143.1646,-122.9058"/>
<text text-anchor="middle" x="212" y="-79.5" font-family="Helvetica,sans-Serif" font-size="10.00" fill="#000000"> xOffset</text>
<text text-anchor="middle" x="212" y="-68.5" font-family="Helvetica,sans-Serif" font-size="10.00" fill="#000000">yOffset</text>
</g>
<!-- Node4 -->
<g id="node4" class="node">
<title>Node4</title>
<polygon fill="none" stroke="#bfbfbf" points="186.5,-133.5 186.5,-152.5 237.5,-152.5 237.5,-133.5 186.5,-133.5"/>
<text text-anchor="middle" x="212" y="-140.5" font-family="Helvetica,sans-Serif" font-size="10.00" fill="#000000">int32_t</text>
</g>
<!-- Node4&#45;&gt;Node1 -->
<g id="edge3" class="edge">
<title>Node4&#45;&gt;Node1</title>
<path fill="none" stroke="#9a32cd" stroke-dasharray="5,2" d="M226.5413,-125.5767C250.1596,-97.2772 296.0969,-42.2352 314.79,-19.8372"/>
<polygon fill="#9a32cd" stroke="#9a32cd" points="223.7033,-123.5148 219.9828,-133.435 229.0775,-128.0001 223.7033,-123.5148"/>
<text text-anchor="middle" x="304" y="-79.5" font-family="Helvetica,sans-Serif" font-size="10.00" fill="#000000"> x</text>
<text text-anchor="middle" x="304" y="-68.5" font-family="Helvetica,sans-Serif" font-size="10.00" fill="#000000">y</text>
</g>
<!-- Node5 -->
<g id="node5" class="node">
<title>Node5</title>
<polygon fill="none" stroke="#bfbfbf" points="255.5,-133.5 255.5,-152.5 390.5,-152.5 390.5,-133.5 255.5,-133.5"/>
<text text-anchor="middle" x="323" y="-140.5" font-family="Helvetica,sans-Serif" font-size="10.00" fill="#000000">anonymous:scrollOffset</text>
</g>
<!-- Node5&#45;&gt;Node1 -->
<g id="edge4" class="edge">
<title>Node5&#45;&gt;Node1</title>
<path fill="none" stroke="#9a32cd" stroke-dasharray="5,2" d="M323,-123.3284C323,-94.4521 323,-41.6559 323,-19.8372"/>
<polygon fill="#9a32cd" stroke="#9a32cd" points="319.5001,-123.4349 323,-133.435 326.5001,-123.435 319.5001,-123.4349"/>
<text text-anchor="middle" x="353.5" y="-74" font-family="Helvetica,sans-Serif" font-size="10.00" fill="#000000"> scrollOffset</text>
</g>
<!-- Node6 -->
<g id="node6" class="node">
<title>Node6</title>
<polygon fill="none" stroke="#bfbfbf" points="409,-133.5 409,-152.5 447,-152.5 447,-133.5 409,-133.5"/>
<text text-anchor="middle" x="428" y="-140.5" font-family="Helvetica,sans-Serif" font-size="10.00" fill="#000000">bool</text>
</g>
<!-- Node6&#45;&gt;Node1 -->
<g id="edge5" class="edge">
<title>Node6&#45;&gt;Node1</title>
<path fill="none" stroke="#9a32cd" stroke-dasharray="5,2" d="M425.2054,-123.2317C420.9697,-100.0732 410.8475,-61.8462 388,-38 380.0944,-29.7489 369.3545,-23.7975 358.8829,-19.5638"/>
<polygon fill="#9a32cd" stroke="#9a32cd" points="421.7771,-123.955 426.8419,-133.2608 428.6857,-122.8277 421.7771,-123.955"/>
<text text-anchor="middle" x="440" y="-107" font-family="Helvetica,sans-Serif" font-size="10.00" fill="#000000"> right</text>
<text text-anchor="middle" x="440" y="-96" font-family="Helvetica,sans-Serif" font-size="10.00" fill="#000000">middle</text>
<text text-anchor="middle" x="440" y="-85" font-family="Helvetica,sans-Serif" font-size="10.00" fill="#000000">left</text>
<text text-anchor="middle" x="440" y="-74" font-family="Helvetica,sans-Serif" font-size="10.00" fill="#000000">shift</text>
<text text-anchor="middle" x="440" y="-63" font-family="Helvetica,sans-Serif" font-size="10.00" fill="#000000">ctrl</text>
<text text-anchor="middle" x="440" y="-52" font-family="Helvetica,sans-Serif" font-size="10.00" fill="#000000">x1</text>
<text text-anchor="middle" x="440" y="-41" font-family="Helvetica,sans-Serif" font-size="10.00" fill="#000000">x2</text>
</g>
<!-- Node7 -->
<g id="node7" class="node">
<title>Node7</title>
<polygon fill="none" stroke="#bfbfbf" points="465,-133.5 465,-152.5 571,-152.5 571,-133.5 465,-133.5"/>
<text text-anchor="middle" x="518" y="-140.5" font-family="Helvetica,sans-Serif" font-size="10.00" fill="#000000">anonymous:coord</text>
</g>
<!-- Node7&#45;&gt;Node1 -->
<g id="edge6" class="edge">
<title>Node7&#45;&gt;Node1</title>
<path fill="none" stroke="#9a32cd" stroke-dasharray="5,2" d="M512.9538,-123.5949C505.6593,-99.5869 489.7785,-59.2848 461,-38 450.3373,-30.1137 423.9239,-23.8827 397.0263,-19.3204"/>
<polygon fill="#9a32cd" stroke="#9a32cd" points="509.6245,-124.684 515.7166,-133.3521 516.3597,-122.7768 509.6245,-124.684"/>
<text text-anchor="middle" x="525" y="-74" font-family="Helvetica,sans-Serif" font-size="10.00" fill="#000000"> coord</text>
</g>
<!-- Node8 -->
<g id="node8" class="node">
<title>Node8</title>
<polygon fill="none" stroke="#bfbfbf" points="589.5,-133.5 589.5,-152.5 638.5,-152.5 638.5,-133.5 589.5,-133.5"/>
<text text-anchor="middle" x="614" y="-140.5" font-family="Helvetica,sans-Serif" font-size="10.00" fill="#000000">Button</text>
</g>
<!-- Node8&#45;&gt;Node1 -->
<g id="edge7" class="edge">
<title>Node8&#45;&gt;Node1</title>
<path fill="none" stroke="#9a32cd" stroke-dasharray="5,2" d="M607.2474,-123.8545C597.561,-99.474 577.2491,-58.1037 545,-38 520.8936,-22.9723 451.8762,-15.9765 397.1298,-12.7402"/>
<polygon fill="#9a32cd" stroke="#9a32cd" points="604.056,-125.3115 610.8538,-133.438 610.6074,-122.846 604.056,-125.3115"/>
<text text-anchor="middle" x="617" y="-74" font-family="Helvetica,sans-Serif" font-size="10.00" fill="#000000"> code</text>
</g>
</g>
</svg>
        <g id="navigator" transform="translate(0 0)" fill="#404254">
                <rect fill="#f2f5e9" fill-opacity="0.5" stroke="#606060" stroke-width=".5" x="0" y="0" width="60" height="60"/>
                <use id="zoomplus" xlink:href="#zoomPlus" x="17" y="9" onmousedown="handleZoom(evt,'in')"/>
                <use id="zoomminus" xlink:href="#zoomMin" x="42" y="9" onmousedown="handleZoom(evt,'out')"/>
                <use id="reset" xlink:href="#resetDef" x="30" y="36" onmousedown="handleReset()"/>
                <g id="arrowUp" xlink:href="#dirArrow" transform="translate(30 24)" onmousedown="handlePan(0,-1)">
                  <use xlink:href="#rim" fill="#404040">
                        <set attributeName="fill" to="#808080" begin="arrowUp.mouseover" end="arrowUp.mouseout"/>
                  </use>
                  <path fill="none" stroke="white" stroke-width="1.5" d="M0,-3.0v7 M-2.5,-0.5L0,-3.0L2.5,-0.5"/>
                </g>
                <g id="arrowRight" xlink:href="#dirArrow" transform="rotate(90) translate(36 -43)" onmousedown="handlePan(1,0)">
                  <use xlink:href="#rim" fill="#404040">
                        <set attributeName="fill" to="#808080" begin="arrowRight.mouseover" end="arrowRight.mouseout"/>
                  </use>
                  <path fill="none" stroke="white" stroke-width="1.5" d="M0,-3.0v7 M-2.5,-0.5L0,-3.0L2.5,-0.5"/>
                </g>
                <g id="arrowDown" xlink:href="#dirArrow" transform="rotate(180) translate(-30 -48)" onmousedown="handlePan(0,1)">
                  <use xlink:href="#rim" fill="#404040">
                        <set attributeName="fill" to="#808080" begin="arrowDown.mouseover" end="arrowDown.mouseout"/>
                  </use>
                  <path fill="none" stroke="white" stroke-width="1.5" d="M0,-3.0v7 M-2.5,-0.5L0,-3.0L2.5,-0.5"/>
                </g>
                <g id="arrowLeft" xlink:href="#dirArrow" transform="rotate(270) translate(-36 17)" onmousedown="handlePan(-1,0)">
                  <use xlink:href="#rim" fill="#404040">
                        <set attributeName="fill" to="#808080" begin="arrowLeft.mouseover" end="arrowLeft.mouseout"/>
                  </use>
                  <path fill="none" stroke="white" stroke-width="1.5" d="M0,-3.0v7 M-2.5,-0.5L0,-3.0L2.5,-0.5"/>
                </g>
        </g>
        <svg viewBox="0 0 15 15" width="100%" height="30px" preserveAspectRatio="xMaxYMin meet">
         <g id="arrow_out" transform="scale(0.3 0.3)">
          <a xlink:href="structlug_1_1Window_1_1MouseEvent__coll__graph_org.svg" target="_base">
           <rect id="button" ry="5" rx="5" y="6" x="6" height="38" width="38"
                fill="#f2f5e9" fill-opacity="0.5" stroke="#606060" stroke-width="1.0"/>
           <path id="arrow"
             d="M 11.500037,31.436501 C 11.940474,20.09759 22.043105,11.32322 32.158766,21.979434 L 37.068811,17.246167 C 37.068811,17.246167 37.088388,32 37.088388,32 L 22.160133,31.978069 C 22.160133,31.978069 26.997745,27.140456 26.997745,27.140456 C 18.528582,18.264221 13.291696,25.230495 11.500037,31.436501 z"
             style="fill:#404040;"/>
          </a>
         </g>
        </svg>
</svg>
