<?xml version="1.0" encoding="UTF-8" standalone="no"?>
<!DOCTYPE svg PUBLIC "-//W3C//DTD SVG 1.1//EN"
 "http://www.w3.org/Graphics/SVG/1.1/DTD/svg11.dtd">
<!-- Generated by graphviz version 2.40.1 (20161225.0304)
 -->
<!-- Title: lug::Graphics::Render::Mesh::PrimitiveSet::Attribute Pages: 1 -->
<svg width="261pt" height="217pt"
 viewBox="0.00 0.00 261.00 217.00" xmlns="http://www.w3.org/2000/svg" xmlns:xlink="http://www.w3.org/1999/xlink">
<g id="graph0" class="graph" transform="scale(1 1) rotate(0) translate(4 213)">
<title>lug::Graphics::Render::Mesh::PrimitiveSet::Attribute</title>
<!-- Node1 -->
<g id="node1" class="node">
<title>Node1</title>
<polygon fill="#bfbfbf" stroke="#000000" points="59.5,-.5 59.5,-41.5 187.5,-41.5 187.5,-.5 59.5,-.5"/>
<text text-anchor="start" x="67.5" y="-29.5" font-family="Helvetica,sans-Serif" font-size="10.00" fill="#000000">lug::Graphics::Render</text>
<text text-anchor="start" x="67.5" y="-18.5" font-family="Helvetica,sans-Serif" font-size="10.00" fill="#000000">::Mesh::PrimitiveSet</text>
<text text-anchor="middle" x="123.5" y="-7.5" font-family="Helvetica,sans-Serif" font-size="10.00" fill="#000000">::Attribute</text>
</g>
<!-- Node2 -->
<g id="node2" class="node">
<title>Node2</title>
<polygon fill="none" stroke="#bfbfbf" points="0,-100.5 0,-119.5 41,-119.5 41,-100.5 0,-100.5"/>
<text text-anchor="middle" x="20.5" y="-107.5" font-family="Helvetica,sans-Serif" font-size="10.00" fill="#000000">Type</text>
</g>
<!-- Node2&#45;&gt;Node1 -->
<g id="edge1" class="edge">
<title>Node2&#45;&gt;Node1</title>
<path fill="none" stroke="#9a32cd" stroke-dasharray="5,2" d="M39.1437,-93.8904C56.1431,-79.2016 81.343,-57.4269 99.7727,-41.5022"/>
<polygon fill="#9a32cd" stroke="#9a32cd" points="36.8011,-91.289 31.5228,-100.4754 41.3778,-96.5856 36.8011,-91.289"/>
<text text-anchor="middle" x="91.5" y="-63" font-family="Helvetica,sans-Serif" font-size="10.00" fill="#000000"> type</text>
</g>
<!-- Node3 -->
<g id="node3" class="node">
<title>Node3</title>
<g id="a_node3"><a xlink:href="structlug_1_1Graphics_1_1Render_1_1Mesh_1_1PrimitiveSet_1_1Attribute_1_1Buffer.html" target="_top" xlink:title="Access to the data of the attribute. ">
<polygon fill="none" stroke="#000000" points="59.5,-89.5 59.5,-130.5 187.5,-130.5 187.5,-89.5 59.5,-89.5"/>
<text text-anchor="start" x="67.5" y="-118.5" font-family="Helvetica,sans-Serif" font-size="10.00" fill="#000000">lug::Graphics::Render</text>
<text text-anchor="start" x="67.5" y="-107.5" font-family="Helvetica,sans-Serif" font-size="10.00" fill="#000000">::Mesh::PrimitiveSet</text>
<text text-anchor="middle" x="123.5" y="-96.5" font-family="Helvetica,sans-Serif" font-size="10.00" fill="#000000">::Attribute::Buffer</text>
</a>
</g>
</g>
<!-- Node3&#45;&gt;Node1 -->
<g id="edge2" class="edge">
<title>Node3&#45;&gt;Node1</title>
<path fill="none" stroke="#9a32cd" stroke-dasharray="5,2" d="M123.5,-79.344C123.5,-66.8522 123.5,-52.7439 123.5,-41.5301"/>
<polygon fill="#9a32cd" stroke="#9a32cd" points="120.0001,-79.3579 123.5,-89.3579 127.0001,-79.3579 120.0001,-79.3579"/>
<text text-anchor="middle" x="140.5" y="-63" font-family="Helvetica,sans-Serif" font-size="10.00" fill="#000000"> buffer</text>
</g>
<!-- Node4 -->
<g id="node4" class="node">
<title>Node4</title>
<polygon fill="none" stroke="#bfbfbf" points="71.5,-189.5 71.5,-208.5 109.5,-208.5 109.5,-189.5 71.5,-189.5"/>
<text text-anchor="middle" x="90.5" y="-196.5" font-family="Helvetica,sans-Serif" font-size="10.00" fill="#000000">char</text>
</g>
<!-- Node4&#45;&gt;Node3 -->
<g id="edge3" class="edge">
<title>Node4&#45;&gt;Node3</title>
<path fill="none" stroke="#9a32cd" stroke-dasharray="5,2" d="M97.2668,-179.9C100.6017,-170.5654 104.7116,-159.1769 108.5,-149 110.7271,-143.0172 113.1956,-136.5392 115.4763,-130.6134"/>
<polygon fill="#9a32cd" stroke="#9a32cd" points="93.9442,-178.7975 93.8894,-189.3922 100.5391,-181.1441 93.9442,-178.7975"/>
<text text-anchor="middle" x="121.5" y="-157.5" font-family="Helvetica,sans-Serif" font-size="10.00" fill="#000000"> data</text>
</g>
<!-- Node5 -->
<g id="node5" class="node">
<title>Node5</title>
<polygon fill="none" stroke="#bfbfbf" points="128,-189.5 128,-208.5 185,-208.5 185,-189.5 128,-189.5"/>
<text text-anchor="middle" x="156.5" y="-196.5" font-family="Helvetica,sans-Serif" font-size="10.00" fill="#000000">uint32_t</text>
</g>
<!-- Node5&#45;&gt;Node3 -->
<g id="edge4" class="edge">
<title>Node5&#45;&gt;Node3</title>
<path fill="none" stroke="#9a32cd" stroke-dasharray="5,2" d="M149.4563,-180.0034C144.0616,-165.4539 136.6308,-145.4135 131.1019,-130.5022"/>
<polygon fill="#9a32cd" stroke="#9a32cd" points="146.2101,-181.316 152.9684,-189.4754 152.7735,-178.8824 146.2101,-181.316"/>
<text text-anchor="middle" x="183" y="-163" font-family="Helvetica,sans-Serif" font-size="10.00" fill="#000000"> size</text>
<text text-anchor="middle" x="183" y="-152" font-family="Helvetica,sans-Serif" font-size="10.00" fill="#000000">elementsCount</text>
</g>
<!-- Node6 -->
<g id="node6" class="node">
<title>Node6</title>
<polygon fill="none" stroke="#bfbfbf" points="206,-100.5 206,-119.5 253,-119.5 253,-100.5 206,-100.5"/>
<text text-anchor="middle" x="229.5" y="-107.5" font-family="Helvetica,sans-Serif" font-size="10.00" fill="#000000">void *</text>
</g>
<!-- Node6&#45;&gt;Node1 -->
<g id="edge5" class="edge">
<title>Node6&#45;&gt;Node1</title>
<path fill="none" stroke="#9a32cd" stroke-dasharray="5,2" d="M210.3133,-93.8904C192.8187,-79.2016 166.8848,-57.4269 147.9183,-41.5022"/>
<polygon fill="#9a32cd" stroke="#9a32cd" points="208.2471,-96.7257 218.1561,-100.4754 212.7482,-91.3647 208.2471,-96.7257"/>
<text text-anchor="middle" x="198.5" y="-63" font-family="Helvetica,sans-Serif" font-size="10.00" fill="#000000"> _data</text>
</g>
</g>
</svg>
