<?xml version="1.0" encoding="UTF-8" standalone="no"?>
<!DOCTYPE svg PUBLIC "-//W3C//DTD SVG 1.1//EN"
 "http://www.w3.org/Graphics/SVG/1.1/DTD/svg11.dtd">
<!-- Generated by graphviz version 2.40.1 (20161225.0304)
 -->
<!-- Title: CmdPipelineBarrier Pages: 1 -->
<svg width="430pt" height="137pt"
 viewBox="0.00 0.00 430.00 137.00" xmlns="http://www.w3.org/2000/svg" xmlns:xlink="http://www.w3.org/1999/xlink">
<g id="graph0" class="graph" transform="scale(1 1) rotate(0) translate(4 133)">
<title>CmdPipelineBarrier</title>
<!-- Node1 -->
<g id="node1" class="node">
<title>Node1</title>
<polygon fill="#bfbfbf" stroke="#000000" points="309,-55 309,-74 422,-74 422,-55 309,-55"/>
<text text-anchor="middle" x="365.5" y="-62" font-family="Helvetica,sans-Serif" font-size="10.00" fill="#000000">CmdPipelineBarrier</text>
</g>
<!-- Node2 -->
<g id="node2" class="node">
<title>Node2</title>
<polygon fill="none" stroke="#bfbfbf" points="0,-98.5 0,-128.5 157,-128.5 157,-98.5 0,-98.5"/>
<text text-anchor="start" x="8" y="-116.5" font-family="Helvetica,sans-Serif" font-size="10.00" fill="#000000">vector&lt; CmdPipelineBarrier</text>
<text text-anchor="middle" x="78.5" y="-105.5" font-family="Helvetica,sans-Serif" font-size="10.00" fill="#000000">::BufferMemoryBarrier &gt;</text>
</g>
<!-- Node2&#45;&gt;Node1 -->
<g id="edge1" class="edge">
<title>Node2&#45;&gt;Node1</title>
<path fill="none" stroke="#9a32cd" stroke-dasharray="5,2" d="M167.3886,-100.09C205.5073,-94.1293 250.499,-86.8143 291,-79.5 300.2183,-77.8352 310.0539,-75.9401 319.4552,-74.0704"/>
<polygon fill="#9a32cd" stroke="#9a32cd" points="166.6846,-96.6574 157.3423,-101.6546 167.7618,-103.574 166.6846,-96.6574"/>
<text text-anchor="middle" x="233" y="-101.5" font-family="Helvetica,sans-Serif" font-size="10.00" fill="#000000"> bufferMemoryBarriers</text>
</g>
<!-- Node3 -->
<g id="node3" class="node">
<title>Node3</title>
<polygon fill="none" stroke="#bfbfbf" points="0,-49.5 0,-79.5 157,-79.5 157,-49.5 0,-49.5"/>
<text text-anchor="start" x="8" y="-67.5" font-family="Helvetica,sans-Serif" font-size="10.00" fill="#000000">vector&lt; CmdPipelineBarrier</text>
<text text-anchor="middle" x="78.5" y="-56.5" font-family="Helvetica,sans-Serif" font-size="10.00" fill="#000000">::ImageMemoryBarrier &gt;</text>
</g>
<!-- Node3&#45;&gt;Node1 -->
<g id="edge2" class="edge">
<title>Node3&#45;&gt;Node1</title>
<path fill="none" stroke="#9a32cd" stroke-dasharray="5,2" d="M167.5905,-64.5C213.6369,-64.5 268.4568,-64.5 308.7116,-64.5"/>
<polygon fill="#9a32cd" stroke="#9a32cd" points="167.3037,-61.0001 157.3036,-64.5 167.3036,-68.0001 167.3037,-61.0001"/>
<text text-anchor="middle" x="233" y="-67.5" font-family="Helvetica,sans-Serif" font-size="10.00" fill="#000000"> imageMemoryBarriers</text>
</g>
<!-- Node4 -->
<g id="node4" class="node">
<title>Node4</title>
<polygon fill="none" stroke="#bfbfbf" points="0,-.5 0,-30.5 157,-30.5 157,-.5 0,-.5"/>
<text text-anchor="start" x="8" y="-18.5" font-family="Helvetica,sans-Serif" font-size="10.00" fill="#000000">vector&lt; CmdPipelineBarrier</text>
<text text-anchor="middle" x="78.5" y="-7.5" font-family="Helvetica,sans-Serif" font-size="10.00" fill="#000000">::MemoryBarrier &gt;</text>
</g>
<!-- Node4&#45;&gt;Node1 -->
<g id="edge3" class="edge">
<title>Node4&#45;&gt;Node1</title>
<path fill="none" stroke="#9a32cd" stroke-dasharray="5,2" d="M167.3886,-28.91C205.5073,-34.8707 250.499,-42.1857 291,-49.5 300.2183,-51.1648 310.0539,-53.0599 319.4552,-54.9296"/>
<polygon fill="#9a32cd" stroke="#9a32cd" points="167.7618,-25.426 157.3423,-27.3454 166.6846,-32.3426 167.7618,-25.426"/>
<text text-anchor="middle" x="233" y="-52.5" font-family="Helvetica,sans-Serif" font-size="10.00" fill="#000000"> memoryBarriers</text>
</g>
</g>
</svg>
