<?xml version="1.0" encoding="UTF-8" standalone="no"?>
<!DOCTYPE svg PUBLIC "-//W3C//DTD SVG 1.1//EN"
 "http://www.w3.org/Graphics/SVG/1.1/DTD/svg11.dtd">
<!-- Generated by graphviz version 2.40.1 (20161225.0304)
 -->
<!-- Title: lug::Graphics::Vulkan::Render::Technique::Forward::DepthBuffer Pages: 1 -->
<svg width="2033pt" height="459pt"
 viewBox="0.00 0.00 2033.00 459.18" xmlns="http://www.w3.org/2000/svg" xmlns:xlink="http://www.w3.org/1999/xlink">
<g id="graph0" class="graph" transform="scale(1 1) rotate(0) translate(4 455.1838)">
<title>lug::Graphics::Vulkan::Render::Technique::Forward::DepthBuffer</title>
<!-- Node1 -->
<g id="node1" class="node">
<title>Node1</title>
<polygon fill="#bfbfbf" stroke="#000000" points="1896,-196.6838 1896,-237.6838 2025,-237.6838 2025,-196.6838 1896,-196.6838"/>
<text text-anchor="start" x="1904" y="-225.6838" font-family="Helvetica,sans-Serif" font-size="10.00" fill="#000000">lug::Graphics::Vulkan</text>
<text text-anchor="start" x="1904" y="-214.6838" font-family="Helvetica,sans-Serif" font-size="10.00" fill="#000000">::Render::Technique::</text>
<text text-anchor="middle" x="1960.5" y="-203.6838" font-family="Helvetica,sans-Serif" font-size="10.00" fill="#000000">Forward::DepthBuffer</text>
</g>
<!-- Node2 -->
<g id="node2" class="node">
<title>Node2</title>
<g id="a_node2"><a xlink:href="classlug_1_1Graphics_1_1Vulkan_1_1API_1_1ImageView.html" target="_top" xlink:title="lug::Graphics::Vulkan\l::API::ImageView">
<polygon fill="none" stroke="#000000" points="1674,-172.1838 1674,-202.1838 1801,-202.1838 1801,-172.1838 1674,-172.1838"/>
<text text-anchor="start" x="1682" y="-190.1838" font-family="Helvetica,sans-Serif" font-size="10.00" fill="#000000">lug::Graphics::Vulkan</text>
<text text-anchor="middle" x="1737.5" y="-179.1838" font-family="Helvetica,sans-Serif" font-size="10.00" fill="#000000">::API::ImageView</text>
</a>
</g>
</g>
<!-- Node2&#45;&gt;Node1 -->
<g id="edge1" class="edge">
<title>Node2&#45;&gt;Node1</title>
<path fill="none" stroke="#9a32cd" stroke-dasharray="5,2" d="M1811.3652,-197.1208C1838.6131,-200.7865 1869.258,-204.9091 1895.6493,-208.4595"/>
<polygon fill="#9a32cd" stroke="#9a32cd" points="1811.4818,-193.6051 1801.1044,-195.7405 1810.5485,-200.5426 1811.4818,-193.6051"/>
<text text-anchor="middle" x="1848.5" y="-208.1838" font-family="Helvetica,sans-Serif" font-size="10.00" fill="#000000"> imageView</text>
</g>
<!-- Node3 -->
<g id="node3" class="node">
<title>Node3</title>
<polygon fill="none" stroke="#bfbfbf" points="1467,-173.6838 1467,-192.6838 1552,-192.6838 1552,-173.6838 1467,-173.6838"/>
<text text-anchor="middle" x="1509.5" y="-180.6838" font-family="Helvetica,sans-Serif" font-size="10.00" fill="#000000">VkImageView</text>
</g>
<!-- Node3&#45;&gt;Node2 -->
<g id="edge2" class="edge">
<title>Node3&#45;&gt;Node2</title>
<path fill="none" stroke="#9a32cd" stroke-dasharray="5,2" d="M1562.4492,-183.1629C1590.2944,-183.2486 1624.9965,-183.5075 1656,-184.1838 1661.8038,-184.3104 1667.839,-184.4734 1673.8827,-184.6579"/>
<polygon fill="#9a32cd" stroke="#9a32cd" points="1562.1435,-179.6622 1552.135,-183.138 1562.1265,-186.6622 1562.1435,-179.6622"/>
<text text-anchor="middle" x="1623.5" y="-187.1838" font-family="Helvetica,sans-Serif" font-size="10.00" fill="#000000"> _imageView</text>
</g>
<!-- Node4 -->
<g id="node4" class="node">
<title>Node4</title>
<g id="a_node4"><a xlink:href="classlug_1_1Graphics_1_1Vulkan_1_1API_1_1Device.html" target="_top" xlink:title="lug::Graphics::Vulkan\l::API::Device">
<polygon fill="none" stroke="#000000" points="931,-82.1838 931,-112.1838 1058,-112.1838 1058,-82.1838 931,-82.1838"/>
<text text-anchor="start" x="939" y="-100.1838" font-family="Helvetica,sans-Serif" font-size="10.00" fill="#000000">lug::Graphics::Vulkan</text>
<text text-anchor="middle" x="994.5" y="-89.1838" font-family="Helvetica,sans-Serif" font-size="10.00" fill="#000000">::API::Device</text>
</a>
</g>
</g>
<!-- Node4&#45;&gt;Node2 -->
<g id="edge3" class="edge">
<title>Node4&#45;&gt;Node2</title>
<path fill="none" stroke="#9a32cd" stroke-dasharray="5,2" d="M1068.174,-87.6709C1154.8739,-78.3123 1302.8867,-68.0885 1428,-88.1838 1530.4893,-104.6454 1645.5384,-148.587 1702.1465,-172.002"/>
<polygon fill="#9a32cd" stroke="#9a32cd" points="1067.7243,-84.1992 1058.1693,-88.7766 1068.4932,-91.1569 1067.7243,-84.1992"/>
<text text-anchor="middle" x="1381" y="-91.1838" font-family="Helvetica,sans-Serif" font-size="10.00" fill="#000000"> _device</text>
</g>
<!-- Node19 -->
<g id="node19" class="node">
<title>Node19</title>
<g id="a_node19"><a xlink:href="classlug_1_1Graphics_1_1Vulkan_1_1API_1_1Image.html" target="_top" xlink:title="lug::Graphics::Vulkan\l::API::Image">
<polygon fill="none" stroke="#000000" points="1446,-228.1838 1446,-258.1838 1573,-258.1838 1573,-228.1838 1446,-228.1838"/>
<text text-anchor="start" x="1454" y="-246.1838" font-family="Helvetica,sans-Serif" font-size="10.00" fill="#000000">lug::Graphics::Vulkan</text>
<text text-anchor="middle" x="1509.5" y="-235.1838" font-family="Helvetica,sans-Serif" font-size="10.00" fill="#000000">::API::Image</text>
</a>
</g>
</g>
<!-- Node4&#45;&gt;Node19 -->
<g id="edge25" class="edge">
<title>Node4&#45;&gt;Node19</title>
<path fill="none" stroke="#9a32cd" stroke-dasharray="5,2" d="M1068.1739,-93.3304C1178.5653,-89.2807 1379.1806,-89.1623 1428,-138.1838 1448.8504,-159.1206 1428.4533,-178.4099 1446,-202.1838 1453.8706,-212.8476 1465.4149,-221.4789 1476.509,-228.0215"/>
<polygon fill="#9a32cd" stroke="#9a32cd" points="1067.9635,-89.8358 1058.1063,-93.7198 1068.2341,-96.8306 1067.9635,-89.8358"/>
<text text-anchor="middle" x="1246.5" y="-102.1838" font-family="Helvetica,sans-Serif" font-size="10.00" fill="#000000"> _device</text>
</g>
<!-- Node28 -->
<g id="node28" class="node">
<title>Node28</title>
<g id="a_node28"><a xlink:href="classlug_1_1Graphics_1_1Vulkan_1_1API_1_1DeviceMemory.html" target="_top" xlink:title="lug::Graphics::Vulkan\l::API::DeviceMemory">
<polygon fill="none" stroke="#000000" points="1183,-165.1838 1183,-195.1838 1310,-195.1838 1310,-165.1838 1183,-165.1838"/>
<text text-anchor="start" x="1191" y="-183.1838" font-family="Helvetica,sans-Serif" font-size="10.00" fill="#000000">lug::Graphics::Vulkan</text>
<text text-anchor="middle" x="1246.5" y="-172.1838" font-family="Helvetica,sans-Serif" font-size="10.00" fill="#000000">::API::DeviceMemory</text>
</a>
</g>
</g>
<!-- Node4&#45;&gt;Node28 -->
<g id="edge29" class="edge">
<title>Node4&#45;&gt;Node28</title>
<path fill="none" stroke="#9a32cd" stroke-dasharray="5,2" d="M1049.7938,-115.3957C1095.0617,-130.3053 1158.3344,-151.1452 1200.7791,-165.125"/>
<polygon fill="#9a32cd" stroke="#9a32cd" points="1050.7283,-112.0186 1040.1353,-112.2145 1048.5384,-118.6672 1050.7283,-112.0186"/>
<text text-anchor="middle" x="1117.5" y="-153.1838" font-family="Helvetica,sans-Serif" font-size="10.00" fill="#000000"> _device</text>
</g>
<!-- Node5 -->
<g id="node5" class="node">
<title>Node5</title>
<g id="a_node5"><a xlink:href="structlug_1_1Graphics_1_1Vulkan_1_1PhysicalDeviceInfo.html" target="_top" xlink:title="lug::Graphics::Vulkan\l::PhysicalDeviceInfo">
<polygon fill="none" stroke="#000000" points="642.5,-131.1838 642.5,-161.1838 769.5,-161.1838 769.5,-131.1838 642.5,-131.1838"/>
<text text-anchor="start" x="650.5" y="-149.1838" font-family="Helvetica,sans-Serif" font-size="10.00" fill="#000000">lug::Graphics::Vulkan</text>
<text text-anchor="middle" x="706" y="-138.1838" font-family="Helvetica,sans-Serif" font-size="10.00" fill="#000000">::PhysicalDeviceInfo</text>
</a>
</g>
</g>
<!-- Node5&#45;&gt;Node4 -->
<g id="edge4" class="edge">
<title>Node5&#45;&gt;Node4</title>
<path fill="none" stroke="#9a32cd" stroke-dasharray="5,2" d="M780.0102,-134.3812C819.5121,-127.9924 868.937,-119.8567 913,-112.1838 918.8112,-111.1719 924.8515,-110.0993 930.8984,-109.0116"/>
<polygon fill="#9a32cd" stroke="#9a32cd" points="779.2445,-130.9594 769.9301,-136.0084 780.3601,-137.8699 779.2445,-130.9594"/>
<text text-anchor="middle" x="861" y="-132.1838" font-family="Helvetica,sans-Serif" font-size="10.00" fill="#000000"> _physicalDeviceInfo</text>
</g>
<!-- Node6 -->
<g id="node6" class="node">
<title>Node6</title>
<g id="a_node6"><a xlink:href="structlug_1_1Graphics_1_1Vulkan_1_1PhysicalDeviceInfo_1_1Swapchain.html" target="_top" xlink:title="lug::Graphics::Vulkan\l::PhysicalDeviceInfo\l::Swapchain">
<polygon fill="none" stroke="#000000" points="324.5,-281.6838 324.5,-322.6838 451.5,-322.6838 451.5,-281.6838 324.5,-281.6838"/>
<text text-anchor="start" x="332.5" y="-310.6838" font-family="Helvetica,sans-Serif" font-size="10.00" fill="#000000">lug::Graphics::Vulkan</text>
<text text-anchor="start" x="332.5" y="-299.6838" font-family="Helvetica,sans-Serif" font-size="10.00" fill="#000000">::PhysicalDeviceInfo</text>
<text text-anchor="middle" x="388" y="-288.6838" font-family="Helvetica,sans-Serif" font-size="10.00" fill="#000000">::Swapchain</text>
</a>
</g>
</g>
<!-- Node6&#45;&gt;Node5 -->
<g id="edge5" class="edge">
<title>Node6&#45;&gt;Node5</title>
<path fill="none" stroke="#9a32cd" stroke-dasharray="5,2" d="M461.6295,-290.6788C504.7948,-281.782 559.2582,-266.7196 603,-242.1838 641.1623,-220.7777 676.3144,-182.3716 694.0081,-161.2046"/>
<polygon fill="#9a32cd" stroke="#9a32cd" points="460.881,-287.259 451.7585,-292.6471 462.2499,-294.1239 460.881,-287.259"/>
<text text-anchor="middle" x="554.5" y="-282.1838" font-family="Helvetica,sans-Serif" font-size="10.00" fill="#000000"> swapchain</text>
</g>
<!-- Node7 -->
<g id="node7" class="node">
<title>Node7</title>
<polygon fill="none" stroke="#bfbfbf" points="16.5,-330.6838 16.5,-349.6838 162.5,-349.6838 162.5,-330.6838 16.5,-330.6838"/>
<text text-anchor="middle" x="89.5" y="-337.6838" font-family="Helvetica,sans-Serif" font-size="10.00" fill="#000000">VkSurfaceCapabilitiesKHR</text>
</g>
<!-- Node7&#45;&gt;Node6 -->
<g id="edge6" class="edge">
<title>Node7&#45;&gt;Node6</title>
<path fill="none" stroke="#9a32cd" stroke-dasharray="5,2" d="M172.5828,-329.6071C220.5932,-323.4952 280.0566,-315.9254 324.3375,-310.2882"/>
<polygon fill="#9a32cd" stroke="#9a32cd" points="171.9992,-326.1531 162.5213,-330.888 172.8833,-333.097 171.9992,-326.1531"/>
<text text-anchor="middle" x="233.5" y="-328.1838" font-family="Helvetica,sans-Serif" font-size="10.00" fill="#000000"> capabilities</text>
</g>
<!-- Node8 -->
<g id="node8" class="node">
<title>Node8</title>
<polygon fill="none" stroke="#bfbfbf" points="0,-292.6838 0,-311.6838 179,-311.6838 179,-292.6838 0,-292.6838"/>
<text text-anchor="middle" x="89.5" y="-299.6838" font-family="Helvetica,sans-Serif" font-size="10.00" fill="#000000">vector&lt; VkSurfaceFormatKHR &gt;</text>
</g>
<!-- Node8&#45;&gt;Node6 -->
<g id="edge7" class="edge">
<title>Node8&#45;&gt;Node6</title>
<path fill="none" stroke="#9a32cd" stroke-dasharray="5,2" d="M189.3241,-302.1838C233.799,-302.1838 284.8747,-302.1838 324.1016,-302.1838"/>
<polygon fill="#9a32cd" stroke="#9a32cd" points="189.0599,-298.6839 179.0598,-302.1838 189.0598,-305.6839 189.0599,-298.6839"/>
<text text-anchor="middle" x="233.5" y="-305.1838" font-family="Helvetica,sans-Serif" font-size="10.00" fill="#000000"> formats</text>
</g>
<!-- Node9 -->
<g id="node9" class="node">
<title>Node9</title>
<polygon fill="none" stroke="#bfbfbf" points="4.5,-254.6838 4.5,-273.6838 174.5,-273.6838 174.5,-254.6838 4.5,-254.6838"/>
<text text-anchor="middle" x="89.5" y="-261.6838" font-family="Helvetica,sans-Serif" font-size="10.00" fill="#000000">vector&lt; VkPresentModeKHR &gt;</text>
</g>
<!-- Node9&#45;&gt;Node6 -->
<g id="edge8" class="edge">
<title>Node9&#45;&gt;Node6</title>
<path fill="none" stroke="#9a32cd" stroke-dasharray="5,2" d="M174.4265,-274.9952C222.0428,-281.0569 280.4605,-288.4937 324.1567,-294.0564"/>
<polygon fill="#9a32cd" stroke="#9a32cd" points="174.8008,-271.5147 164.4389,-273.7238 173.9168,-278.4587 174.8008,-271.5147"/>
<text text-anchor="middle" x="233.5" y="-289.1838" font-family="Helvetica,sans-Serif" font-size="10.00" fill="#000000"> presentModes</text>
</g>
<!-- Node10 -->
<g id="node10" class="node">
<title>Node10</title>
<polygon fill="none" stroke="#bfbfbf" points="308.5,-232.1838 308.5,-262.1838 467.5,-262.1838 467.5,-232.1838 308.5,-232.1838"/>
<text text-anchor="start" x="316.5" y="-250.1838" font-family="Helvetica,sans-Serif" font-size="10.00" fill="#000000">unordered_map&lt; VkFormat,</text>
<text text-anchor="middle" x="388" y="-239.1838" font-family="Helvetica,sans-Serif" font-size="10.00" fill="#000000"> VkFormatProperties &gt;</text>
</g>
<!-- Node10&#45;&gt;Node5 -->
<g id="edge9" class="edge">
<title>Node10&#45;&gt;Node5</title>
<path fill="none" stroke="#9a32cd" stroke-dasharray="5,2" d="M477.7382,-234.4273C516.9352,-227.3278 562.9918,-216.8857 603,-202.1838 631.8484,-191.5828 662.5,-174.0044 682.7908,-161.368"/>
<polygon fill="#9a32cd" stroke="#9a32cd" points="476.9054,-231.0201 467.6664,-236.2059 478.1227,-237.9135 476.9054,-231.0201"/>
<text text-anchor="middle" x="554.5" y="-230.1838" font-family="Helvetica,sans-Serif" font-size="10.00" fill="#000000"> formatProperties</text>
</g>
<!-- Node11 -->
<g id="node11" class="node">
<title>Node11</title>
<polygon fill="none" stroke="#bfbfbf" points="315,-193.6838 315,-212.6838 461,-212.6838 461,-193.6838 315,-193.6838"/>
<text text-anchor="middle" x="388" y="-200.6838" font-family="Helvetica,sans-Serif" font-size="10.00" fill="#000000">VkPhysicalDeviceFeatures</text>
</g>
<!-- Node11&#45;&gt;Node5 -->
<g id="edge10" class="edge">
<title>Node11&#45;&gt;Node5</title>
<path fill="none" stroke="#9a32cd" stroke-dasharray="5,2" d="M471.4332,-193.2091C511.4044,-187.907 559.8563,-180.7154 603,-172.1838 618.65,-169.089 635.4836,-165.1172 650.9141,-161.2144"/>
<polygon fill="#9a32cd" stroke="#9a32cd" points="470.9225,-189.746 461.4622,-194.516 471.8322,-196.6866 470.9225,-189.746"/>
<text text-anchor="middle" x="554.5" y="-190.1838" font-family="Helvetica,sans-Serif" font-size="10.00" fill="#000000"> features</text>
</g>
<!-- Node12 -->
<g id="node12" class="node">
<title>Node12</title>
<polygon fill="none" stroke="#bfbfbf" points="288,-155.6838 288,-174.6838 488,-174.6838 488,-155.6838 288,-155.6838"/>
<text text-anchor="middle" x="388" y="-162.6838" font-family="Helvetica,sans-Serif" font-size="10.00" fill="#000000">vector&lt; VkQueueFamilyProperties &gt;</text>
</g>
<!-- Node12&#45;&gt;Node5 -->
<g id="edge11" class="edge">
<title>Node12&#45;&gt;Node5</title>
<path fill="none" stroke="#9a32cd" stroke-dasharray="5,2" d="M498.3415,-158.5911C546.4596,-155.7161 601.1572,-152.448 642.3325,-149.9878"/>
<polygon fill="#9a32cd" stroke="#9a32cd" points="497.9541,-155.1079 488.1807,-159.1982 498.3717,-162.0954 497.9541,-155.1079"/>
<text text-anchor="middle" x="554.5" y="-160.1838" font-family="Helvetica,sans-Serif" font-size="10.00" fill="#000000"> queueFamilies</text>
</g>
<!-- Node13 -->
<g id="node13" class="node">
<title>Node13</title>
<polygon fill="none" stroke="#bfbfbf" points="290.5,-117.6838 290.5,-136.6838 485.5,-136.6838 485.5,-117.6838 290.5,-117.6838"/>
<text text-anchor="middle" x="388" y="-124.6838" font-family="Helvetica,sans-Serif" font-size="10.00" fill="#000000">VkPhysicalDeviceMemoryProperties</text>
</g>
<!-- Node13&#45;&gt;Node5 -->
<g id="edge12" class="edge">
<title>Node13&#45;&gt;Node5</title>
<path fill="none" stroke="#9a32cd" stroke-dasharray="5,2" d="M495.751,-131.3357C530.0489,-132.8876 568.1331,-134.8506 603,-137.1838 615.7161,-138.0347 629.3015,-139.1059 642.2958,-140.2098"/>
<polygon fill="#9a32cd" stroke="#9a32cd" points="495.8574,-127.837 485.7115,-130.8881 495.5457,-134.8301 495.8574,-127.837"/>
<text text-anchor="middle" x="554.5" y="-140.1838" font-family="Helvetica,sans-Serif" font-size="10.00" fill="#000000"> memoryProperties</text>
</g>
<!-- Node14 -->
<g id="node14" class="node">
<title>Node14</title>
<polygon fill="none" stroke="#bfbfbf" points="336,-79.6838 336,-98.6838 440,-98.6838 440,-79.6838 336,-79.6838"/>
<text text-anchor="middle" x="388" y="-86.6838" font-family="Helvetica,sans-Serif" font-size="10.00" fill="#000000">VkPhysicalDevice</text>
</g>
<!-- Node14&#45;&gt;Node5 -->
<g id="edge13" class="edge">
<title>Node14&#45;&gt;Node5</title>
<path fill="none" stroke="#9a32cd" stroke-dasharray="5,2" d="M450.2805,-93.7412C493.51,-97.6971 552.2261,-104.6516 603,-116.1838 611.2233,-118.0516 612.9401,-119.7041 621,-122.1838 630.6729,-125.1598 641.008,-128.1965 651.0208,-131.0648"/>
<polygon fill="#9a32cd" stroke="#9a32cd" points="450.4643,-90.2439 440.1942,-92.8468 449.8459,-97.2165 450.4643,-90.2439"/>
<text text-anchor="middle" x="554.5" y="-119.1838" font-family="Helvetica,sans-Serif" font-size="10.00" fill="#000000"> handle</text>
</g>
<!-- Node15 -->
<g id="node15" class="node">
<title>Node15</title>
<polygon fill="none" stroke="#bfbfbf" points="310.5,-41.6838 310.5,-60.6838 465.5,-60.6838 465.5,-41.6838 310.5,-41.6838"/>
<text text-anchor="middle" x="388" y="-48.6838" font-family="Helvetica,sans-Serif" font-size="10.00" fill="#000000">VkPhysicalDeviceProperties</text>
</g>
<!-- Node15&#45;&gt;Node5 -->
<g id="edge14" class="edge">
<title>Node15&#45;&gt;Node5</title>
<path fill="none" stroke="#9a32cd" stroke-dasharray="5,2" d="M475.8296,-46.9826C517.9094,-49.2009 566.8779,-58.4334 603,-85.1838 617.6961,-96.0671 606.9733,-110.4505 621,-122.1838 627.2336,-127.3982 634.5294,-131.4822 642.1803,-134.6804"/>
<polygon fill="#9a32cd" stroke="#9a32cd" points="475.7048,-43.4749 465.5725,-46.5711 475.4241,-50.4693 475.7048,-43.4749"/>
<text text-anchor="middle" x="554.5" y="-88.1838" font-family="Helvetica,sans-Serif" font-size="10.00" fill="#000000"> properties</text>
</g>
<!-- Node16 -->
<g id="node16" class="node">
<title>Node16</title>
<polygon fill="none" stroke="#bfbfbf" points="296,-3.6838 296,-22.6838 480,-22.6838 480,-3.6838 296,-3.6838"/>
<text text-anchor="middle" x="388" y="-10.6838" font-family="Helvetica,sans-Serif" font-size="10.00" fill="#000000">vector&lt; VkExtensionProperties &gt;</text>
</g>
<!-- Node16&#45;&gt;Node5 -->
<g id="edge15" class="edge">
<title>Node16&#45;&gt;Node5</title>
<path fill="none" stroke="#9a32cd" stroke-dasharray="5,2" d="M445.8399,-2.3983C493.9201,3.0143 561.0321,1.7934 603,-36.1838 631.9552,-62.3857 594.3541,-93.6367 621,-122.1838 626.8593,-128.4612 634.2225,-133.1406 642.1513,-136.6209"/>
<polygon fill="#9a32cd" stroke="#9a32cd" points="445.3733,1.0707 435.8849,-3.6431 446.2419,-5.8752 445.3733,1.0707"/>
<text text-anchor="middle" x="554.5" y="-39.1838" font-family="Helvetica,sans-Serif" font-size="10.00" fill="#000000"> extensions</text>
</g>
<!-- Node17 -->
<g id="node17" class="node">
<title>Node17</title>
<polygon fill="none" stroke="#bfbfbf" points="621,-82.1838 621,-112.1838 791,-112.1838 791,-82.1838 621,-82.1838"/>
<text text-anchor="start" x="629" y="-100.1838" font-family="Helvetica,sans-Serif" font-size="10.00" fill="#000000">vector&lt; lug::Graphics</text>
<text text-anchor="middle" x="706" y="-89.1838" font-family="Helvetica,sans-Serif" font-size="10.00" fill="#000000">::Vulkan::API::QueueFamily &gt;</text>
</g>
<!-- Node17&#45;&gt;Node4 -->
<g id="edge16" class="edge">
<title>Node17&#45;&gt;Node4</title>
<path fill="none" stroke="#9a32cd" stroke-dasharray="5,2" d="M801.4818,-97.1838C843.9993,-97.1838 892.9233,-97.1838 930.8771,-97.1838"/>
<polygon fill="#9a32cd" stroke="#9a32cd" points="801.3886,-93.6839 791.3885,-97.1838 801.3885,-100.6839 801.3886,-93.6839"/>
<text text-anchor="middle" x="861" y="-100.1838" font-family="Helvetica,sans-Serif" font-size="10.00" fill="#000000"> _queueFamilies</text>
</g>
<!-- Node18 -->
<g id="node18" class="node">
<title>Node18</title>
<polygon fill="none" stroke="#bfbfbf" points="674.5,-43.6838 674.5,-62.6838 737.5,-62.6838 737.5,-43.6838 674.5,-43.6838"/>
<text text-anchor="middle" x="706" y="-50.6838" font-family="Helvetica,sans-Serif" font-size="10.00" fill="#000000">VkDevice</text>
</g>
<!-- Node18&#45;&gt;Node4 -->
<g id="edge17" class="edge">
<title>Node18&#45;&gt;Node4</title>
<path fill="none" stroke="#9a32cd" stroke-dasharray="5,2" d="M747.7219,-58.4954C789.5836,-63.9502 855.8703,-72.929 913,-82.1838 918.8227,-83.1271 924.8709,-84.153 930.9228,-85.2108"/>
<polygon fill="#9a32cd" stroke="#9a32cd" points="747.9928,-55.0013 737.6257,-57.1865 747.0927,-61.9432 747.9928,-55.0013"/>
<text text-anchor="middle" x="861" y="-85.1838" font-family="Helvetica,sans-Serif" font-size="10.00" fill="#000000"> _device</text>
</g>
<!-- Node19&#45;&gt;Node1 -->
<g id="edge32" class="edge">
<title>Node19&#45;&gt;Node1</title>
<path fill="none" stroke="#9a32cd" stroke-dasharray="5,2" d="M1583.2043,-238.9348C1670.0395,-233.9288 1812.9343,-225.6909 1895.7027,-220.9194"/>
<polygon fill="#9a32cd" stroke="#9a32cd" points="1582.9427,-235.444 1573.1607,-239.5138 1583.3456,-242.4324 1582.9427,-235.444"/>
<text text-anchor="middle" x="1737.5" y="-236.1838" font-family="Helvetica,sans-Serif" font-size="10.00" fill="#000000"> image</text>
</g>
<!-- Node19&#45;&gt;Node2 -->
<g id="edge18" class="edge">
<title>Node19&#45;&gt;Node2</title>
<path fill="none" stroke="#9a32cd" stroke-dasharray="5,2" d="M1565.969,-225.1508C1574.3278,-222.6887 1582.8641,-220.288 1591,-218.1838 1617.9309,-211.2187 1647.9425,-204.6604 1673.7547,-199.3856"/>
<polygon fill="#9a32cd" stroke="#9a32cd" points="1564.8478,-221.8329 1556.2727,-228.0552 1566.8565,-228.5385 1564.8478,-221.8329"/>
<text text-anchor="middle" x="1623.5" y="-221.1838" font-family="Helvetica,sans-Serif" font-size="10.00" fill="#000000"> _image</text>
</g>
<!-- Node20 -->
<g id="node20" class="node">
<title>Node20</title>
<polygon fill="none" stroke="#bfbfbf" points="1177,-375.6838 1177,-394.6838 1316,-394.6838 1316,-375.6838 1177,-375.6838"/>
<text text-anchor="middle" x="1246.5" y="-382.6838" font-family="Helvetica,sans-Serif" font-size="10.00" fill="#000000">VkMemoryRequirements</text>
</g>
<!-- Node20&#45;&gt;Node19 -->
<g id="edge19" class="edge">
<title>Node20&#45;&gt;Node19</title>
<path fill="none" stroke="#9a32cd" stroke-dasharray="5,2" d="M1326.6432,-387.9327C1360.0723,-385.7199 1398.0118,-378.5542 1428,-360.1838 1467.6848,-335.8734 1493.036,-284.17 1503.7039,-258.4179"/>
<polygon fill="#9a32cd" stroke="#9a32cd" points="1326.2306,-384.4494 1316.4272,-388.4673 1326.5965,-391.4399 1326.2306,-384.4494"/>
<text text-anchor="middle" x="1381" y="-390.1838" font-family="Helvetica,sans-Serif" font-size="10.00" fill="#000000"> _requirements</text>
</g>
<!-- Node21 -->
<g id="node21" class="node">
<title>Node21</title>
<polygon fill="none" stroke="#bfbfbf" points="1214,-337.6838 1214,-356.6838 1279,-356.6838 1279,-337.6838 1214,-337.6838"/>
<text text-anchor="middle" x="1246.5" y="-344.6838" font-family="Helvetica,sans-Serif" font-size="10.00" fill="#000000">VkFormat</text>
</g>
<!-- Node21&#45;&gt;Node19 -->
<g id="edge20" class="edge">
<title>Node21&#45;&gt;Node19</title>
<path fill="none" stroke="#9a32cd" stroke-dasharray="5,2" d="M1289.3336,-348.6548C1327.5503,-348.3002 1384.0891,-343.577 1428,-322.1838 1458.4699,-307.339 1484.7863,-276.7801 1498.7758,-258.324"/>
<polygon fill="#9a32cd" stroke="#9a32cd" points="1289.0681,-345.1548 1279.0661,-348.6492 1289.0642,-352.1547 1289.0681,-345.1548"/>
<text text-anchor="middle" x="1381" y="-348.1838" font-family="Helvetica,sans-Serif" font-size="10.00" fill="#000000"> _format</text>
</g>
<!-- Node22 -->
<g id="node22" class="node">
<title>Node22</title>
<g id="a_node22"><a xlink:href="structlug_1_1Graphics_1_1Vulkan_1_1API_1_1Image_1_1Extent.html" target="_top" xlink:title="lug::Graphics::Vulkan\l::API::Image::Extent">
<polygon fill="none" stroke="#000000" points="1183,-414.1838 1183,-444.1838 1310,-444.1838 1310,-414.1838 1183,-414.1838"/>
<text text-anchor="start" x="1191" y="-432.1838" font-family="Helvetica,sans-Serif" font-size="10.00" fill="#000000">lug::Graphics::Vulkan</text>
<text text-anchor="middle" x="1246.5" y="-421.1838" font-family="Helvetica,sans-Serif" font-size="10.00" fill="#000000">::API::Image::Extent</text>
</a>
</g>
</g>
<!-- Node22&#45;&gt;Node19 -->
<g id="edge21" class="edge">
<title>Node22&#45;&gt;Node19</title>
<path fill="none" stroke="#9a32cd" stroke-dasharray="5,2" d="M1320.5429,-433.2422C1355.971,-431.6453 1397.2571,-424.2434 1428,-402.1838 1477.9008,-366.3775 1499.3651,-290.8444 1506.5296,-258.4564"/>
<polygon fill="#9a32cd" stroke="#9a32cd" points="1320.1279,-429.7531 1310.2383,-433.554 1320.3396,-436.7499 1320.1279,-429.7531"/>
<text text-anchor="middle" x="1381" y="-435.1838" font-family="Helvetica,sans-Serif" font-size="10.00" fill="#000000"> _extent</text>
</g>
<!-- Node23 -->
<g id="node23" class="node">
<title>Node23</title>
<polygon fill="none" stroke="#bfbfbf" points="966,-419.6838 966,-438.6838 1023,-438.6838 1023,-419.6838 966,-419.6838"/>
<text text-anchor="middle" x="994.5" y="-426.6838" font-family="Helvetica,sans-Serif" font-size="10.00" fill="#000000">uint32_t</text>
</g>
<!-- Node23&#45;&gt;Node22 -->
<g id="edge22" class="edge">
<title>Node23&#45;&gt;Node22</title>
<path fill="none" stroke="#9a32cd" stroke-dasharray="5,2" d="M1033.5177,-429.1838C1073.3563,-429.1838 1135.8538,-429.1838 1182.864,-429.1838"/>
<polygon fill="#9a32cd" stroke="#9a32cd" points="1033.4076,-425.6839 1023.4076,-429.1838 1033.4076,-432.6839 1033.4076,-425.6839"/>
<text text-anchor="middle" x="1117.5" y="-443.1838" font-family="Helvetica,sans-Serif" font-size="10.00" fill="#000000"> width</text>
<text text-anchor="middle" x="1117.5" y="-432.1838" font-family="Helvetica,sans-Serif" font-size="10.00" fill="#000000">height</text>
</g>
<!-- Node24 -->
<g id="node24" class="node">
<title>Node24</title>
<polygon fill="none" stroke="#bfbfbf" points="1187,-252.6838 1187,-271.6838 1306,-271.6838 1306,-252.6838 1187,-252.6838"/>
<text text-anchor="middle" x="1246.5" y="-259.6838" font-family="Helvetica,sans-Serif" font-size="10.00" fill="#000000">VkImageAspectFlags</text>
</g>
<!-- Node24&#45;&gt;Node19 -->
<g id="edge23" class="edge">
<title>Node24&#45;&gt;Node19</title>
<path fill="none" stroke="#9a32cd" stroke-dasharray="5,2" d="M1316.1883,-257.1493C1356.4582,-254.2401 1406.7395,-250.6076 1445.9268,-247.7766"/>
<polygon fill="#9a32cd" stroke="#9a32cd" points="1315.9006,-253.6609 1306.1788,-257.8724 1316.405,-260.6427 1315.9006,-253.6609"/>
<text text-anchor="middle" x="1381" y="-258.1838" font-family="Helvetica,sans-Serif" font-size="10.00" fill="#000000"> _aspect</text>
</g>
<!-- Node25 -->
<g id="node25" class="node">
<title>Node25</title>
<polygon fill="none" stroke="#bfbfbf" points="1227.5,-214.6838 1227.5,-233.6838 1265.5,-233.6838 1265.5,-214.6838 1227.5,-214.6838"/>
<text text-anchor="middle" x="1246.5" y="-221.6838" font-family="Helvetica,sans-Serif" font-size="10.00" fill="#000000">bool</text>
</g>
<!-- Node25&#45;&gt;Node19 -->
<g id="edge24" class="edge">
<title>Node25&#45;&gt;Node19</title>
<path fill="none" stroke="#9a32cd" stroke-dasharray="5,2" d="M1275.8477,-225.3044C1311.7638,-226.7902 1374.4156,-229.7524 1428,-234.1838 1433.8166,-234.6649 1439.8606,-235.2227 1445.9099,-235.8203"/>
<polygon fill="#9a32cd" stroke="#9a32cd" points="1275.7324,-221.7969 1265.5994,-224.8906 1275.45,-228.7912 1275.7324,-221.7969"/>
<text text-anchor="middle" x="1381" y="-237.1838" font-family="Helvetica,sans-Serif" font-size="10.00" fill="#000000"> _swapchainImage</text>
</g>
<!-- Node26 -->
<g id="node26" class="node">
<title>Node26</title>
<polygon fill="none" stroke="#bfbfbf" points="952.5,-268.6838 952.5,-287.6838 1036.5,-287.6838 1036.5,-268.6838 952.5,-268.6838"/>
<text text-anchor="middle" x="994.5" y="-275.6838" font-family="Helvetica,sans-Serif" font-size="10.00" fill="#000000">VkDeviceSize</text>
</g>
<!-- Node26&#45;&gt;Node19 -->
<g id="edge26" class="edge">
<title>Node26&#45;&gt;Node19</title>
<path fill="none" stroke="#9a32cd" stroke-dasharray="5,2" d="M1046.7266,-283.5257C1128.9026,-290.5279 1292.9461,-298.8149 1428,-270.1838 1441.8524,-267.2471 1456.6471,-262.7718 1469.7772,-258.3043"/>
<polygon fill="#9a32cd" stroke="#9a32cd" points="1046.9091,-280.0283 1036.6405,-282.6373 1046.2948,-287.0013 1046.9091,-280.0283"/>
<text text-anchor="middle" x="1246.5" y="-293.1838" font-family="Helvetica,sans-Serif" font-size="10.00" fill="#000000"> _deviceMemoryOffset</text>
</g>
<!-- Node26&#45;&gt;Node28 -->
<g id="edge30" class="edge">
<title>Node26&#45;&gt;Node28</title>
<path fill="none" stroke="#9a32cd" stroke-dasharray="5,2" d="M1027.3404,-264.6429C1063.7716,-249.7163 1124.3651,-225.1704 1177,-205.1838 1185.6311,-201.9064 1194.9048,-198.495 1203.7769,-195.2842"/>
<polygon fill="#9a32cd" stroke="#9a32cd" points="1025.6546,-261.5514 1017.7323,-268.5862 1028.3124,-268.0273 1025.6546,-261.5514"/>
<text text-anchor="middle" x="1117.5" y="-247.1838" font-family="Helvetica,sans-Serif" font-size="10.00" fill="#000000"> _size</text>
</g>
<!-- Node27 -->
<g id="node27" class="node">
<title>Node27</title>
<polygon fill="none" stroke="#bfbfbf" points="1216,-126.6838 1216,-145.6838 1277,-145.6838 1277,-126.6838 1216,-126.6838"/>
<text text-anchor="middle" x="1246.5" y="-133.6838" font-family="Helvetica,sans-Serif" font-size="10.00" fill="#000000">VkImage</text>
</g>
<!-- Node27&#45;&gt;Node19 -->
<g id="edge27" class="edge">
<title>Node27&#45;&gt;Node19</title>
<path fill="none" stroke="#9a32cd" stroke-dasharray="5,2" d="M1287.7961,-137.2693C1326.8562,-140.094 1385.6421,-149.1609 1428,-177.1838 1439.4188,-184.7382 1436.0764,-192.751 1446,-202.1838 1456.4624,-212.1288 1469.6578,-221.0972 1481.3058,-228.0921"/>
<polygon fill="#9a32cd" stroke="#9a32cd" points="1287.5278,-133.7463 1277.3323,-136.6275 1287.0993,-140.7332 1287.5278,-133.7463"/>
<text text-anchor="middle" x="1381" y="-180.1838" font-family="Helvetica,sans-Serif" font-size="10.00" fill="#000000"> _image</text>
</g>
<!-- Node28&#45;&gt;Node19 -->
<g id="edge28" class="edge">
<title>Node28&#45;&gt;Node19</title>
<path fill="none" stroke="#9a32cd" stroke-dasharray="5,2" d="M1320.2536,-189.9499C1353.4998,-195.1775 1393.0575,-202.5511 1428,-212.1838 1443.4696,-216.4484 1460.1014,-222.4962 1474.2807,-228.1194"/>
<polygon fill="#9a32cd" stroke="#9a32cd" points="1320.5663,-186.4569 1310.1505,-188.3963 1319.5023,-193.3756 1320.5663,-186.4569"/>
<text text-anchor="middle" x="1381" y="-215.1838" font-family="Helvetica,sans-Serif" font-size="10.00" fill="#000000"> _deviceMemory</text>
</g>
<!-- Node29 -->
<g id="node29" class="node">
<title>Node29</title>
<polygon fill="none" stroke="#bfbfbf" points="942.5,-170.6838 942.5,-189.6838 1046.5,-189.6838 1046.5,-170.6838 942.5,-170.6838"/>
<text text-anchor="middle" x="994.5" y="-177.6838" font-family="Helvetica,sans-Serif" font-size="10.00" fill="#000000">VkDeviceMemory</text>
</g>
<!-- Node29&#45;&gt;Node28 -->
<g id="edge31" class="edge">
<title>Node29&#45;&gt;Node28</title>
<path fill="none" stroke="#9a32cd" stroke-dasharray="5,2" d="M1056.722,-180.1838C1095.064,-180.1838 1144.1069,-180.1838 1182.7317,-180.1838"/>
<polygon fill="#9a32cd" stroke="#9a32cd" points="1056.7146,-176.6839 1046.7146,-180.1838 1056.7145,-183.6839 1056.7146,-176.6839"/>
<text text-anchor="middle" x="1117.5" y="-183.1838" font-family="Helvetica,sans-Serif" font-size="10.00" fill="#000000"> _deviceMemory</text>
</g>
</g>
</svg>
