<?xml version="1.0" encoding="UTF-8" standalone="no"?>
<!DOCTYPE svg PUBLIC "-//W3C//DTD SVG 1.1//EN"
 "http://www.w3.org/Graphics/SVG/1.1/DTD/svg11.dtd">
<!-- Generated by graphviz version 2.40.1 (20161225.0304)
 -->
<!-- Title: lug::Window::TouchScreenEvent Pages: 1 -->
<svg width="228pt" height="128pt"
 viewBox="0.00 0.00 228.00 128.00" xmlns="http://www.w3.org/2000/svg" xmlns:xlink="http://www.w3.org/1999/xlink">
<g id="graph0" class="graph" transform="scale(1 1) rotate(0) translate(4 124)">
<title>lug::Window::TouchScreenEvent</title>
<!-- Node1 -->
<g id="node1" class="node">
<title>Node1</title>
<polygon fill="#bfbfbf" stroke="#000000" points="18,-.5 18,-30.5 170,-30.5 170,-.5 18,-.5"/>
<text text-anchor="start" x="26" y="-18.5" font-family="Helvetica,sans-Serif" font-size="10.00" fill="#000000">lug::Window::TouchScreen</text>
<text text-anchor="middle" x="94" y="-7.5" font-family="Helvetica,sans-Serif" font-size="10.00" fill="#000000">Event</text>
</g>
<!-- Node2 -->
<g id="node2" class="node">
<title>Node2</title>
<polygon fill="none" stroke="#bfbfbf" points="0,-100.5 0,-119.5 38,-119.5 38,-100.5 0,-100.5"/>
<text text-anchor="middle" x="19" y="-107.5" font-family="Helvetica,sans-Serif" font-size="10.00" fill="#000000">bool</text>
</g>
<!-- Node2&#45;&gt;Node1 -->
<g id="edge1" class="edge">
<title>Node2&#45;&gt;Node1</title>
<path fill="none" stroke="#9a32cd" stroke-dasharray="5,2" d="M21.4536,-90.2049C23.8819,-77.3591 28.6613,-60.8648 38,-49 43.8157,-41.6111 51.7469,-35.492 59.8105,-30.596"/>
<polygon fill="#9a32cd" stroke="#9a32cd" points="17.9548,-89.9259 19.8694,-100.3463 24.871,-91.0064 17.9548,-89.9259"/>
<text text-anchor="middle" x="64" y="-74" font-family="Helvetica,sans-Serif" font-size="10.00" fill="#000000"> pinch</text>
<text text-anchor="middle" x="64" y="-63" font-family="Helvetica,sans-Serif" font-size="10.00" fill="#000000">drag</text>
<text text-anchor="middle" x="64" y="-52" font-family="Helvetica,sans-Serif" font-size="10.00" fill="#000000">doubleTap</text>
</g>
<!-- Node3 -->
<g id="node3" class="node">
<title>Node3</title>
<polygon fill="none" stroke="#bfbfbf" points="72,-100.5 72,-119.5 116,-119.5 116,-100.5 72,-100.5"/>
<text text-anchor="middle" x="94" y="-107.5" font-family="Helvetica,sans-Serif" font-size="10.00" fill="#000000">Vec2f</text>
</g>
<!-- Node3&#45;&gt;Node1 -->
<g id="edge2" class="edge">
<title>Node3&#45;&gt;Node1</title>
<path fill="none" stroke="#9a32cd" stroke-dasharray="5,2" d="M94,-90.1282C94,-72.3779 94,-46.7574 94,-30.6257"/>
<polygon fill="#9a32cd" stroke="#9a32cd" points="90.5001,-90.2427 94,-100.2428 97.5001,-90.2428 90.5001,-90.2427"/>
<text text-anchor="middle" x="125" y="-63" font-family="Helvetica,sans-Serif" font-size="10.00" fill="#000000"> coordinates</text>
</g>
<!-- Node4 -->
<g id="node4" class="node">
<title>Node4</title>
<polygon fill="none" stroke="#bfbfbf" points="138,-100.5 138,-119.5 220,-119.5 220,-100.5 138,-100.5"/>
<text text-anchor="middle" x="179" y="-107.5" font-family="Helvetica,sans-Serif" font-size="10.00" fill="#000000">GestureState</text>
</g>
<!-- Node4&#45;&gt;Node1 -->
<g id="edge3" class="edge">
<title>Node4&#45;&gt;Node1</title>
<path fill="none" stroke="#9a32cd" stroke-dasharray="5,2" d="M175.7393,-90.4086C172.7326,-77.4272 167.1383,-60.6977 157,-49 150.5094,-41.5111 141.9231,-35.4313 133.1848,-30.6112"/>
<polygon fill="#9a32cd" stroke="#9a32cd" points="172.3114,-91.1162 177.6993,-100.2387 179.1763,-89.7473 172.3114,-91.1162"/>
<text text-anchor="middle" x="187.5" y="-63" font-family="Helvetica,sans-Serif" font-size="10.00" fill="#000000"> state</text>
</g>
</g>
</svg>
