<?xml version="1.0" encoding="UTF-8" standalone="no"?>
<!DOCTYPE svg PUBLIC "-//W3C//DTD SVG 1.1//EN"
 "http://www.w3.org/Graphics/SVG/1.1/DTD/svg11.dtd">
<!-- Generated by graphviz version 2.40.1 (20161225.0304)
 -->
<!-- Title: lug::Window::VideoMode Pages: 1 -->
<svg width="164pt" height="117pt"
 viewBox="0.00 0.00 163.50 117.00" xmlns="http://www.w3.org/2000/svg" xmlns:xlink="http://www.w3.org/1999/xlink">
<g id="graph0" class="graph" transform="scale(1 1) rotate(0) translate(4 113)">
<title>lug::Window::VideoMode</title>
<!-- Node1 -->
<g id="node1" class="node">
<title>Node1</title>
<polygon fill="#bfbfbf" stroke="#000000" points="0,-.5 0,-19.5 143,-19.5 143,-.5 0,-.5"/>
<text text-anchor="middle" x="71.5" y="-7.5" font-family="Helvetica,sans-Serif" font-size="10.00" fill="#000000">lug::Window::VideoMode</text>
</g>
<!-- Node2 -->
<g id="node2" class="node">
<title>Node2</title>
<polygon fill="none" stroke="#bfbfbf" points="2,-89.5 2,-108.5 59,-108.5 59,-89.5 2,-89.5"/>
<text text-anchor="middle" x="30.5" y="-96.5" font-family="Helvetica,sans-Serif" font-size="10.00" fill="#000000">uint16_t</text>
</g>
<!-- Node2&#45;&gt;Node1 -->
<g id="edge1" class="edge">
<title>Node2&#45;&gt;Node1</title>
<path fill="none" stroke="#9a32cd" stroke-dasharray="5,2" d="M26.4491,-79.3451C24.8812,-66.7995 24.8139,-50.5887 31.5,-38 35.6352,-30.2142 43.0121,-24.1332 50.3144,-19.6569"/>
<polygon fill="#9a32cd" stroke="#9a32cd" points="23.0008,-79.9462 28.0812,-89.2435 29.9076,-78.8072 23.0008,-79.9462"/>
<text text-anchor="middle" x="61" y="-63" font-family="Helvetica,sans-Serif" font-size="10.00" fill="#000000"> width</text>
<text text-anchor="middle" x="61" y="-52" font-family="Helvetica,sans-Serif" font-size="10.00" fill="#000000">height</text>
<text text-anchor="middle" x="61" y="-41" font-family="Helvetica,sans-Serif" font-size="10.00" fill="#000000">refreshRate</text>
</g>
<!-- Node3 -->
<g id="node3" class="node">
<title>Node3</title>
<polygon fill="none" stroke="#bfbfbf" points="87,-89.5 87,-108.5 138,-108.5 138,-89.5 87,-89.5"/>
<text text-anchor="middle" x="112.5" y="-96.5" font-family="Helvetica,sans-Serif" font-size="10.00" fill="#000000">uint8_t</text>
</g>
<!-- Node3&#45;&gt;Node1 -->
<g id="edge2" class="edge">
<title>Node3&#45;&gt;Node1</title>
<path fill="none" stroke="#9a32cd" stroke-dasharray="5,2" d="M106.854,-79.5346C102.9719,-67.2926 97.2983,-51.3448 90.5,-38 87.2467,-31.6139 82.7791,-24.9554 78.9934,-19.7345"/>
<polygon fill="#9a32cd" stroke="#9a32cd" points="103.5292,-80.6312 109.7875,-89.1801 110.2263,-78.5943 103.5292,-80.6312"/>
<text text-anchor="middle" x="129.5" y="-63" font-family="Helvetica,sans-Serif" font-size="10.00" fill="#000000"> greenBits</text>
<text text-anchor="middle" x="129.5" y="-52" font-family="Helvetica,sans-Serif" font-size="10.00" fill="#000000">redBits</text>
<text text-anchor="middle" x="129.5" y="-41" font-family="Helvetica,sans-Serif" font-size="10.00" fill="#000000">blueBits</text>
</g>
</g>
</svg>
