<?xml version="1.0" encoding="UTF-8" standalone="no"?>
<!DOCTYPE svg PUBLIC "-//W3C//DTD SVG 1.1//EN"
 "http://www.w3.org/Graphics/SVG/1.1/DTD/svg11.dtd">
<!-- Generated by graphviz version 2.40.1 (20161225.0304)
 -->
<!-- Title: lug::Graphics::Render::Material::TextureInfo Pages: 1 -->
<!--zoomable 484 -->
<svg id="main" version="1.1" xmlns="http://www.w3.org/2000/svg" xmlns:xlink="http://www.w3.org/1999/xlink" xml:space="preserve" onload="init(evt)">
<style type="text/css"><![CDATA[
.edge:hover path { stroke: red; }
.edge:hover polygon { stroke: red; fill: red; }
]]></style>
<script type="text/javascript"><![CDATA[
var edges = document.getElementsByTagName('g');
if (edges && edges.length) {
  for (var i=0;i<edges.length;i++) {
    if (edges[i].id.substr(0,4)=='edge') {
      edges[i].setAttribute('class','edge');
    }
  }
}
]]></script>
        <defs>
                <circle id="rim" cx="0" cy="0" r="7"/>
                <circle id="rim2" cx="0" cy="0" r="3.5"/>
                <g id="zoomPlus">
                        <use xlink:href="#rim" fill="#404040">
                                <set attributeName="fill" to="#808080" begin="zoomplus.mouseover" end="zoomplus.mouseout"/>
                        </use>
                        <path d="M-4,0h8M0,-4v8" fill="none" stroke="white" stroke-width="1.5" pointer-events="none"/>
                </g>
                <g id="zoomMin">
                        <use xlink:href="#rim" fill="#404040">
                                <set attributeName="fill" to="#808080" begin="zoomminus.mouseover" end="zoomminus.mouseout"/>
                        </use>
                        <path d="M-4,0h8" fill="none" stroke="white" stroke-width="1.5" pointer-events="none"/>
                </g>
                <g id="dirArrow">
                        <path fill="none" stroke="white" stroke-width="1.5" d="M0,-3.0v7 M-2.5,-0.5L0,-3.0L2.5,-0.5"/>
                </g>
               <g id="resetDef">
                       <use xlink:href="#rim2" fill="#404040">
                               <set attributeName="fill" to="#808080" begin="reset.mouseover" end="reset.mouseout"/>
                       </use>
               </g>
        </defs>

<script type="text/javascript">
var viewWidth = 560;
var viewHeight = 484;
var sectionId = 'dynsection-0';
</script>
<script xlink:href="svgpan.js"/>
<svg id="graph" class="graph">
<g id="viewport">
<title>lug::Graphics::Render::Material::TextureInfo</title>
<!-- Node1 -->
<g id="node1" class="node">
<title>Node1</title>
<polygon fill="#bfbfbf" stroke="#000000" points="9.5,-.5 9.5,-30.5 142.5,-30.5 142.5,-.5 9.5,-.5"/>
<text text-anchor="start" x="17.5" y="-18.5" font-family="Helvetica,sans-Serif" font-size="10.00" fill="#000000">lug::Graphics::Render</text>
<text text-anchor="middle" x="76" y="-7.5" font-family="Helvetica,sans-Serif" font-size="10.00" fill="#000000">::Material::TextureInfo</text>
</g>
<!-- Node2 -->
<g id="node2" class="node">
<title>Node2</title>
<g id="a_node2"><a xlink:href="classlug_1_1Graphics_1_1Resource_1_1SharedPtr.html" target="_top" xlink:title="lug::Graphics::Resource\l::SharedPtr\&lt; lug::Graphics\l::Render::Texture \&gt;">
<polygon fill="none" stroke="#000000" points="196.5,-78.5 196.5,-119.5 351.5,-119.5 351.5,-78.5 196.5,-78.5"/>
<text text-anchor="start" x="204.5" y="-107.5" font-family="Helvetica,sans-Serif" font-size="10.00" fill="#000000">lug::Graphics::Resource</text>
<text text-anchor="start" x="204.5" y="-96.5" font-family="Helvetica,sans-Serif" font-size="10.00" fill="#000000">::SharedPtr&lt; lug::Graphics</text>
<text text-anchor="middle" x="274" y="-85.5" font-family="Helvetica,sans-Serif" font-size="10.00" fill="#000000">::Render::Texture &gt;</text>
</a>
</g>
</g>
<!-- Node2&#45;&gt;Node1 -->
<g id="edge1" class="edge">
<title>Node2&#45;&gt;Node1</title>
<path fill="none" stroke="#9a32cd" stroke-dasharray="5,2" d="M216.0088,-74.5441C182.2449,-60.3053 140.7509,-42.8066 111.7349,-30.57"/>
<polygon fill="#9a32cd" stroke="#9a32cd" points="214.7359,-77.8058 225.3102,-78.4667 217.456,-71.3559 214.7359,-77.8058"/>
<text text-anchor="middle" x="201" y="-52" font-family="Helvetica,sans-Serif" font-size="10.00" fill="#000000"> texture</text>
</g>
<!-- Node3 -->
<g id="node3" class="node">
<title>Node3</title>
<g id="a_node3"><a xlink:href="classlug_1_1Graphics_1_1Render_1_1Texture.html" target="_top" xlink:title="lug::Graphics::Render\l::Texture">
<polygon fill="none" stroke="#000000" points="210,-178.5 210,-208.5 338,-208.5 338,-178.5 210,-178.5"/>
<text text-anchor="start" x="218" y="-196.5" font-family="Helvetica,sans-Serif" font-size="10.00" fill="#000000">lug::Graphics::Render</text>
<text text-anchor="middle" x="274" y="-185.5" font-family="Helvetica,sans-Serif" font-size="10.00" fill="#000000">::Texture</text>
</a>
</g>
</g>
<!-- Node3&#45;&gt;Node2 -->
<g id="edge2" class="edge">
<title>Node3&#45;&gt;Node2</title>
<path fill="none" stroke="#9a32cd" stroke-dasharray="5,2" d="M274,-168.1013C274,-152.9736 274,-134.0135 274,-119.7823"/>
<polygon fill="#9a32cd" stroke="#9a32cd" points="270.5001,-168.3169 274,-178.3169 277.5001,-168.317 270.5001,-168.3169"/>
<text text-anchor="middle" x="301" y="-146.5" font-family="Helvetica,sans-Serif" font-size="10.00" fill="#000000"> _resource</text>
</g>
<!-- Node4 -->
<g id="node4" class="node">
<title>Node4</title>
<g id="a_node4"><a xlink:href="classlug_1_1Graphics_1_1Resource.html" target="_top" xlink:title="Class for resource. ">
<polygon fill="none" stroke="#000000" points="92.5,-278.5 92.5,-297.5 231.5,-297.5 231.5,-278.5 92.5,-278.5"/>
<text text-anchor="middle" x="162" y="-285.5" font-family="Helvetica,sans-Serif" font-size="10.00" fill="#000000">lug::Graphics::Resource</text>
</a>
</g>
</g>
<!-- Node4&#45;&gt;Node3 -->
<g id="edge3" class="edge">
<title>Node4&#45;&gt;Node3</title>
<path fill="none" stroke="#191970" d="M181.2139,-271.7883C202.215,-254.0686 235.595,-225.9042 256.0732,-208.6257"/>
<polygon fill="#191970" stroke="#191970" points="178.95,-269.119 173.5641,-278.2428 183.4641,-274.4691 178.95,-269.119"/>
</g>
<!-- Node5 -->
<g id="node5" class="node">
<title>Node5</title>
<g id="a_node5"><a xlink:href="structlug_1_1Graphics_1_1Resource_1_1Handle.html" target="_top" xlink:title="Handle of the resource. It contains informations such as the type and the index in the ResourceManage...">
<polygon fill="none" stroke="#000000" points="92.5,-356.5 92.5,-386.5 231.5,-386.5 231.5,-356.5 92.5,-356.5"/>
<text text-anchor="start" x="100.5" y="-374.5" font-family="Helvetica,sans-Serif" font-size="10.00" fill="#000000">lug::Graphics::Resource</text>
<text text-anchor="middle" x="162" y="-363.5" font-family="Helvetica,sans-Serif" font-size="10.00" fill="#000000">::Handle</text>
</a>
</g>
</g>
<!-- Node5&#45;&gt;Node4 -->
<g id="edge4" class="edge">
<title>Node5&#45;&gt;Node4</title>
<path fill="none" stroke="#9a32cd" stroke-dasharray="5,2" d="M162,-346.1022C162,-329.6775 162,-309.2426 162,-297.5023"/>
<polygon fill="#9a32cd" stroke="#9a32cd" points="158.5001,-346.1848 162,-356.1848 165.5001,-346.1848 158.5001,-346.1848"/>
<text text-anchor="middle" x="183.5" y="-324.5" font-family="Helvetica,sans-Serif" font-size="10.00" fill="#000000"> _handle</text>
</g>
<!-- Node6 -->
<g id="node6" class="node">
<title>Node6</title>
<polygon fill="none" stroke="#bfbfbf" points="35.5,-456.5 35.5,-475.5 92.5,-475.5 92.5,-456.5 35.5,-456.5"/>
<text text-anchor="middle" x="64" y="-463.5" font-family="Helvetica,sans-Serif" font-size="10.00" fill="#000000">uint32_t</text>
</g>
<!-- Node6&#45;&gt;Node1 -->
<g id="edge14" class="edge">
<title>Node6&#45;&gt;Node1</title>
<path fill="none" stroke="#9a32cd" stroke-dasharray="5,2" d="M44.1008,-449.7972C25.3135,-432.5539 0,-403.4016 0,-371.5 0,-371.5 0,-371.5 0,-99 0,-69.0088 27.1467,-45.0408 48.9913,-30.6091"/>
<polygon fill="#9a32cd" stroke="#9a32cd" points="41.8354,-452.4658 51.6602,-456.4313 46.4528,-447.2045 41.8354,-452.4658"/>
<text text-anchor="middle" x="24.5" y="-241" font-family="Helvetica,sans-Serif" font-size="10.00" fill="#000000"> texCoord</text>
</g>
<!-- Node6&#45;&gt;Node3 -->
<g id="edge9" class="edge">
<title>Node6&#45;&gt;Node3</title>
<path fill="none" stroke="#9a32cd" stroke-dasharray="5,2" d="M60.0985,-446.2943C53.97,-409.4472 46.2711,-329.2189 83,-278 112.477,-236.894 166.5442,-215.4957 209.6492,-204.5328"/>
<polygon fill="#9a32cd" stroke="#9a32cd" points="56.6763,-447.0387 61.8991,-456.2567 63.5647,-445.7936 56.6763,-447.0387"/>
<text text-anchor="middle" x="83.5" y="-330" font-family="Helvetica,sans-Serif" font-size="10.00" fill="#000000"> _width</text>
<text text-anchor="middle" x="83.5" y="-319" font-family="Helvetica,sans-Serif" font-size="10.00" fill="#000000">_height</text>
</g>
<!-- Node6&#45;&gt;Node5 -->
<g id="edge5" class="edge">
<title>Node6&#45;&gt;Node5</title>
<path fill="none" stroke="#9a32cd" stroke-dasharray="5,2" d="M81.3302,-449.1679C93.9708,-436.9033 111.5249,-419.8977 127,-405 133.1808,-399.0499 139.9926,-392.523 145.9514,-386.8237"/>
<polygon fill="#9a32cd" stroke="#9a32cd" points="78.542,-446.9966 73.8042,-456.4731 83.4175,-452.0194 78.542,-446.9966"/>
<text text-anchor="middle" x="142.5" y="-430" font-family="Helvetica,sans-Serif" font-size="10.00" fill="#000000"> value</text>
<text text-anchor="middle" x="142.5" y="-419" font-family="Helvetica,sans-Serif" font-size="10.00" fill="#000000">type</text>
<text text-anchor="middle" x="142.5" y="-408" font-family="Helvetica,sans-Serif" font-size="10.00" fill="#000000">index</text>
</g>
<!-- Node7 -->
<g id="node7" class="node">
<title>Node7</title>
<polygon fill="none" stroke="#bfbfbf" points="115,-456.5 115,-475.5 209,-475.5 209,-456.5 115,-456.5"/>
<text text-anchor="middle" x="162" y="-463.5" font-family="Helvetica,sans-Serif" font-size="10.00" fill="#000000">anonymous:@5</text>
</g>
<!-- Node7&#45;&gt;Node5 -->
<g id="edge6" class="edge">
<title>Node7&#45;&gt;Node5</title>
<path fill="none" stroke="#9a32cd" stroke-dasharray="5,2" d="M162,-446.1282C162,-428.3779 162,-402.7574 162,-386.6257"/>
<polygon fill="#9a32cd" stroke="#9a32cd" points="158.5001,-446.2427 162,-456.2428 165.5001,-446.2428 158.5001,-446.2427"/>
<text text-anchor="middle" x="172" y="-419" font-family="Helvetica,sans-Serif" font-size="10.00" fill="#000000"> @5</text>
</g>
<!-- Node8 -->
<g id="node8" class="node">
<title>Node8</title>
<polygon fill="none" stroke="#bfbfbf" points="249.5,-362 249.5,-381 294.5,-381 294.5,-362 249.5,-362"/>
<text text-anchor="middle" x="272" y="-369" font-family="Helvetica,sans-Serif" font-size="10.00" fill="#000000">string</text>
</g>
<!-- Node8&#45;&gt;Node4 -->
<g id="edge7" class="edge">
<title>Node8&#45;&gt;Node4</title>
<path fill="none" stroke="#9a32cd" stroke-dasharray="5,2" d="M254.9313,-354.9082C242.6528,-343.3693 225.4281,-327.9714 209,-316 199.7887,-309.2876 188.8858,-302.7157 179.9012,-297.6275"/>
<polygon fill="#9a32cd" stroke="#9a32cd" points="252.5731,-357.4956 262.2277,-361.8589 257.4013,-352.4272 252.5731,-357.4956"/>
<text text-anchor="middle" x="255" y="-324.5" font-family="Helvetica,sans-Serif" font-size="10.00" fill="#000000"> _name</text>
</g>
<!-- Node9 -->
<g id="node9" class="node">
<title>Node9</title>
<polygon fill="none" stroke="#bfbfbf" points="250,-278.5 250,-297.5 302,-297.5 302,-278.5 250,-278.5"/>
<text text-anchor="middle" x="276" y="-285.5" font-family="Helvetica,sans-Serif" font-size="10.00" fill="#000000">Format</text>
</g>
<!-- Node9&#45;&gt;Node3 -->
<g id="edge8" class="edge">
<title>Node9&#45;&gt;Node3</title>
<path fill="none" stroke="#9a32cd" stroke-dasharray="5,2" d="M275.2448,-268.287C275.1531,-265.505 275.068,-262.6805 275,-260 274.5519,-242.3396 274.2822,-222.0356 274.1378,-208.556"/>
<polygon fill="#9a32cd" stroke="#9a32cd" points="271.7516,-268.544 275.6085,-278.4118 278.7471,-268.2926 271.7516,-268.544"/>
<text text-anchor="middle" x="297" y="-241" font-family="Helvetica,sans-Serif" font-size="10.00" fill="#000000"> _format</text>
</g>
<!-- Node10 -->
<g id="node10" class="node">
<title>Node10</title>
<polygon fill="none" stroke="#bfbfbf" points="320,-278.5 320,-297.5 362,-297.5 362,-278.5 320,-278.5"/>
<text text-anchor="middle" x="341" y="-285.5" font-family="Helvetica,sans-Serif" font-size="10.00" fill="#000000">Filter</text>
</g>
<!-- Node10&#45;&gt;Node3 -->
<g id="edge10" class="edge">
<title>Node10&#45;&gt;Node3</title>
<path fill="none" stroke="#9a32cd" stroke-dasharray="5,2" d="M336.9413,-268.0598C333.6455,-255.3984 328.0297,-239.166 319,-227 313.7757,-219.9612 306.663,-213.7311 299.6352,-208.6111"/>
<polygon fill="#9a32cd" stroke="#9a32cd" points="333.5958,-269.1266 339.2679,-278.0752 340.4143,-267.5426 333.5958,-269.1266"/>
<text text-anchor="middle" x="370.5" y="-252" font-family="Helvetica,sans-Serif" font-size="10.00" fill="#000000"> _magFilter</text>
<text text-anchor="middle" x="370.5" y="-241" font-family="Helvetica,sans-Serif" font-size="10.00" fill="#000000">_mipMapFilter</text>
<text text-anchor="middle" x="370.5" y="-230" font-family="Helvetica,sans-Serif" font-size="10.00" fill="#000000">_minFilter</text>
</g>
<!-- Node11 -->
<g id="node11" class="node">
<title>Node11</title>
<polygon fill="none" stroke="#bfbfbf" points="390,-278.5 390,-297.5 480,-297.5 480,-278.5 390,-278.5"/>
<text text-anchor="middle" x="435" y="-285.5" font-family="Helvetica,sans-Serif" font-size="10.00" fill="#000000">WrappingMode</text>
</g>
<!-- Node11&#45;&gt;Node3 -->
<g id="edge11" class="edge">
<title>Node11&#45;&gt;Node3</title>
<path fill="none" stroke="#9a32cd" stroke-dasharray="5,2" d="M431.7582,-268.3534C428.5141,-254.839 422.1732,-237.4987 410,-227 398.8593,-217.3917 367.8671,-209.3822 338.2782,-203.6067"/>
<polygon fill="#9a32cd" stroke="#9a32cd" points="428.3307,-269.0627 433.7483,-278.1677 435.1911,-267.6716 428.3307,-269.0627"/>
<text text-anchor="middle" x="450" y="-246.5" font-family="Helvetica,sans-Serif" font-size="10.00" fill="#000000"> _wrapS</text>
<text text-anchor="middle" x="450" y="-235.5" font-family="Helvetica,sans-Serif" font-size="10.00" fill="#000000">_wrapT</text>
</g>
<!-- Node12 -->
<g id="node12" class="node">
<title>Node12</title>
<g id="a_node12"><a xlink:href="classlug_1_1Graphics_1_1Resource_1_1SharedPtr.html" target="_top" xlink:title="Dummy class for a shared pointer. ">
<polygon fill="none" stroke="#000000" points="399.5,-178.5 399.5,-208.5 538.5,-208.5 538.5,-178.5 399.5,-178.5"/>
<text text-anchor="start" x="407.5" y="-196.5" font-family="Helvetica,sans-Serif" font-size="10.00" fill="#000000">lug::Graphics::Resource</text>
<text text-anchor="middle" x="469" y="-185.5" font-family="Helvetica,sans-Serif" font-size="10.00" fill="#000000">::SharedPtr&lt; T &gt;</text>
</a>
</g>
</g>
<!-- Node12&#45;&gt;Node2 -->
<g id="edge12" class="edge">
<title>Node12&#45;&gt;Node2</title>
<path fill="none" stroke="#ffa500" stroke-dasharray="5,2" d="M428.3852,-173.8174C395.6499,-157.9534 349.7578,-135.7134 316.5244,-119.608"/>
<polygon fill="#ffa500" stroke="#ffa500" points="427.1445,-177.1055 437.6699,-178.3169 430.1973,-170.8062 427.1445,-177.1055"/>
<text text-anchor="start" x="395" y="-152" font-family="Helvetica,sans-Serif" font-size="10.00" fill="#000000"> &lt; lug::Graphics::Render</text>
<text text-anchor="middle" x="459" y="-141" font-family="Helvetica,sans-Serif" font-size="10.00" fill="#000000">::Texture &gt;</text>
</g>
<!-- Node13 -->
<g id="node13" class="node">
<title>Node13</title>
<polygon fill="none" stroke="#bfbfbf" points="498.5,-278.5 498.5,-297.5 527.5,-297.5 527.5,-278.5 498.5,-278.5"/>
<text text-anchor="middle" x="513" y="-285.5" font-family="Helvetica,sans-Serif" font-size="10.00" fill="#000000">T</text>
</g>
<!-- Node13&#45;&gt;Node12 -->
<g id="edge13" class="edge">
<title>Node13&#45;&gt;Node12</title>
<path fill="none" stroke="#9a32cd" stroke-dasharray="5,2" d="M504.2136,-269.1291C495.9367,-251.3527 483.6961,-225.0632 476.0427,-208.6257"/>
<polygon fill="#9a32cd" stroke="#9a32cd" points="501.063,-270.6546 508.457,-278.2428 507.4088,-267.6999 501.063,-270.6546"/>
<text text-anchor="middle" x="525" y="-241" font-family="Helvetica,sans-Serif" font-size="10.00" fill="#000000"> _resource</text>
</g>
</g>
</svg>
        <g id="navigator" transform="translate(0 0)" fill="#404254">
                <rect fill="#f2f5e9" fill-opacity="0.5" stroke="#606060" stroke-width=".5" x="0" y="0" width="60" height="60"/>
                <use id="zoomplus" xlink:href="#zoomPlus" x="17" y="9" onmousedown="handleZoom(evt,'in')"/>
                <use id="zoomminus" xlink:href="#zoomMin" x="42" y="9" onmousedown="handleZoom(evt,'out')"/>
                <use id="reset" xlink:href="#resetDef" x="30" y="36" onmousedown="handleReset()"/>
                <g id="arrowUp" xlink:href="#dirArrow" transform="translate(30 24)" onmousedown="handlePan(0,-1)">
                  <use xlink:href="#rim" fill="#404040">
                        <set attributeName="fill" to="#808080" begin="arrowUp.mouseover" end="arrowUp.mouseout"/>
                  </use>
                  <path fill="none" stroke="white" stroke-width="1.5" d="M0,-3.0v7 M-2.5,-0.5L0,-3.0L2.5,-0.5"/>
                </g>
                <g id="arrowRight" xlink:href="#dirArrow" transform="rotate(90) translate(36 -43)" onmousedown="handlePan(1,0)">
                  <use xlink:href="#rim" fill="#404040">
                        <set attributeName="fill" to="#808080" begin="arrowRight.mouseover" end="arrowRight.mouseout"/>
                  </use>
                  <path fill="none" stroke="white" stroke-width="1.5" d="M0,-3.0v7 M-2.5,-0.5L0,-3.0L2.5,-0.5"/>
                </g>
                <g id="arrowDown" xlink:href="#dirArrow" transform="rotate(180) translate(-30 -48)" onmousedown="handlePan(0,1)">
                  <use xlink:href="#rim" fill="#404040">
                        <set attributeName="fill" to="#808080" begin="arrowDown.mouseover" end="arrowDown.mouseout"/>
                  </use>
                  <path fill="none" stroke="white" stroke-width="1.5" d="M0,-3.0v7 M-2.5,-0.5L0,-3.0L2.5,-0.5"/>
                </g>
                <g id="arrowLeft" xlink:href="#dirArrow" transform="rotate(270) translate(-36 17)" onmousedown="handlePan(-1,0)">
                  <use xlink:href="#rim" fill="#404040">
                        <set attributeName="fill" to="#808080" begin="arrowLeft.mouseover" end="arrowLeft.mouseout"/>
                  </use>
                  <path fill="none" stroke="white" stroke-width="1.5" d="M0,-3.0v7 M-2.5,-0.5L0,-3.0L2.5,-0.5"/>
                </g>
        </g>
        <svg viewBox="0 0 15 15" width="100%" height="30px" preserveAspectRatio="xMaxYMin meet">
         <g id="arrow_out" transform="scale(0.3 0.3)">
          <a xlink:href="structlug_1_1Graphics_1_1Render_1_1Material_1_1TextureInfo__coll__graph_org.svg" target="_base">
           <rect id="button" ry="5" rx="5" y="6" x="6" height="38" width="38"
                fill="#f2f5e9" fill-opacity="0.5" stroke="#606060" stroke-width="1.0"/>
           <path id="arrow"
             d="M 11.500037,31.436501 C 11.940474,20.09759 22.043105,11.32322 32.158766,21.979434 L 37.068811,17.246167 C 37.068811,17.246167 37.088388,32 37.088388,32 L 22.160133,31.978069 C 22.160133,31.978069 26.997745,27.140456 26.997745,27.140456 C 18.528582,18.264221 13.291696,25.230495 11.500037,31.436501 z"
             style="fill:#404040;"/>
          </a>
         </g>
        </svg>
</svg>
