<?xml version="1.0" encoding="UTF-8" standalone="no"?>
<!DOCTYPE svg PUBLIC "-//W3C//DTD SVG 1.1//EN"
 "http://www.w3.org/Graphics/SVG/1.1/DTD/svg11.dtd">
<!-- Generated by graphviz version 2.40.1 (20161225.0304)
 -->
<!-- Title: lug::Graphics::Vulkan::Render::Pipeline::Id::MaterialPart Pages: 1 -->
<svg width="258pt" height="172pt"
 viewBox="0.00 0.00 258.00 172.00" xmlns="http://www.w3.org/2000/svg" xmlns:xlink="http://www.w3.org/1999/xlink">
<g id="graph0" class="graph" transform="scale(1 1) rotate(0) translate(4 168)">
<title>lug::Graphics::Vulkan::Render::Pipeline::Id::MaterialPart</title>
<!-- Node1 -->
<g id="node1" class="node">
<title>Node1</title>
<polygon fill="#bfbfbf" stroke="#000000" points="34,-.5 34,-41.5 162,-41.5 162,-.5 34,-.5"/>
<text text-anchor="start" x="42" y="-29.5" font-family="Helvetica,sans-Serif" font-size="10.00" fill="#000000">lug::Graphics::Vulkan</text>
<text text-anchor="start" x="42" y="-18.5" font-family="Helvetica,sans-Serif" font-size="10.00" fill="#000000">::Render::Pipeline::Id</text>
<text text-anchor="middle" x="98" y="-7.5" font-family="Helvetica,sans-Serif" font-size="10.00" fill="#000000">::MaterialPart</text>
</g>
<!-- Node2 -->
<g id="node2" class="node">
<title>Node2</title>
<polygon fill="none" stroke="#bfbfbf" points="0,-144.5 0,-163.5 100,-163.5 100,-144.5 0,-144.5"/>
<text text-anchor="middle" x="50" y="-151.5" font-family="Helvetica,sans-Serif" font-size="10.00" fill="#000000">anonymous:@15</text>
</g>
<!-- Node2&#45;&gt;Node1 -->
<g id="edge1" class="edge">
<title>Node2&#45;&gt;Node1</title>
<path fill="none" stroke="#9a32cd" stroke-dasharray="5,2" d="M56.9583,-134.7196C65.9193,-109.8902 81.4278,-66.9189 90.5986,-41.5079"/>
<polygon fill="#9a32cd" stroke="#9a32cd" points="53.5547,-133.8406 53.452,-144.435 60.139,-136.217 53.5547,-133.8406"/>
<text text-anchor="middle" x="97" y="-90.5" font-family="Helvetica,sans-Serif" font-size="10.00" fill="#000000"> @15</text>
</g>
<!-- Node3 -->
<g id="node3" class="node">
<title>Node3</title>
<polygon fill="none" stroke="#bfbfbf" points="118.5,-144.5 118.5,-163.5 175.5,-163.5 175.5,-144.5 118.5,-144.5"/>
<text text-anchor="middle" x="147" y="-151.5" font-family="Helvetica,sans-Serif" font-size="10.00" fill="#000000">uint32_t</text>
</g>
<!-- Node3&#45;&gt;Node1 -->
<g id="edge2" class="edge">
<title>Node3&#45;&gt;Node1</title>
<path fill="none" stroke="#9a32cd" stroke-dasharray="5,2" d="M140.5551,-134.7142C134.104,-115.6381 123.7604,-85.6603 114,-60 111.7104,-53.9805 109.1042,-47.491 106.6697,-41.5659"/>
<polygon fill="#9a32cd" stroke="#9a32cd" points="137.2848,-135.9701 143.7901,-144.3326 143.9196,-133.7386 137.2848,-135.9701"/>
<text text-anchor="middle" x="193.5" y="-118" font-family="Helvetica,sans-Serif" font-size="10.00" fill="#000000"> normalInfo</text>
<text text-anchor="middle" x="193.5" y="-107" font-family="Helvetica,sans-Serif" font-size="10.00" fill="#000000">emissiveInfo</text>
<text text-anchor="middle" x="193.5" y="-96" font-family="Helvetica,sans-Serif" font-size="10.00" fill="#000000">baseColorInfo</text>
<text text-anchor="middle" x="193.5" y="-85" font-family="Helvetica,sans-Serif" font-size="10.00" fill="#000000">value</text>
<text text-anchor="middle" x="193.5" y="-74" font-family="Helvetica,sans-Serif" font-size="10.00" fill="#000000">metallicRoughnessInfo</text>
<text text-anchor="middle" x="193.5" y="-63" font-family="Helvetica,sans-Serif" font-size="10.00" fill="#000000">occlusionInfo</text>
</g>
</g>
</svg>
