<?xml version="1.0" encoding="UTF-8" standalone="no"?>
<!DOCTYPE svg PUBLIC "-//W3C//DTD SVG 1.1//EN"
 "http://www.w3.org/Graphics/SVG/1.1/DTD/svg11.dtd">
<!-- Generated by graphviz version 2.40.1 (20161225.0304)
 -->
<!-- Title: lug::Graphics::Vulkan::Render::Technique::Forward::DepthBuffer Pages: 1 -->
<svg width="393pt" height="88pt"
 viewBox="0.00 0.00 393.00 88.00" xmlns="http://www.w3.org/2000/svg" xmlns:xlink="http://www.w3.org/1999/xlink">
<g id="graph0" class="graph" transform="scale(1 1) rotate(0) translate(4 84)">
<title>lug::Graphics::Vulkan::Render::Technique::Forward::DepthBuffer</title>
<!-- Node1 -->
<g id="node1" class="node">
<title>Node1</title>
<polygon fill="#bfbfbf" stroke="#000000" points="256,-19 256,-60 385,-60 385,-19 256,-19"/>
<text text-anchor="start" x="264" y="-48" font-family="Helvetica,sans-Serif" font-size="10.00" fill="#000000">lug::Graphics::Vulkan</text>
<text text-anchor="start" x="264" y="-37" font-family="Helvetica,sans-Serif" font-size="10.00" fill="#000000">::Render::Technique::</text>
<text text-anchor="middle" x="320.5" y="-26" font-family="Helvetica,sans-Serif" font-size="10.00" fill="#000000">Forward::DepthBuffer</text>
</g>
<!-- Node2 -->
<g id="node2" class="node">
<title>Node2</title>
<polygon fill="none" stroke="#bfbfbf" points="0,-49.5 0,-79.5 161,-79.5 161,-49.5 0,-49.5"/>
<text text-anchor="start" x="8" y="-67.5" font-family="Helvetica,sans-Serif" font-size="10.00" fill="#000000">unique_ptr&lt; lug::Graphics</text>
<text text-anchor="middle" x="80.5" y="-56.5" font-family="Helvetica,sans-Serif" font-size="10.00" fill="#000000">::Vulkan::API::ImageView &gt;</text>
</g>
<!-- Node2&#45;&gt;Node1 -->
<g id="edge1" class="edge">
<title>Node2&#45;&gt;Node1</title>
<path fill="none" stroke="#9a32cd" stroke-dasharray="5,2" d="M171.3098,-55.0406C199.3773,-52.117 229.7129,-48.957 255.6539,-46.2548"/>
<polygon fill="#9a32cd" stroke="#9a32cd" points="170.6677,-51.5885 161.0842,-56.1058 171.393,-58.5508 170.6677,-51.5885"/>
<text text-anchor="middle" x="208.5" y="-56.5" font-family="Helvetica,sans-Serif" font-size="10.00" fill="#000000"> imageView</text>
</g>
<!-- Node3 -->
<g id="node3" class="node">
<title>Node3</title>
<polygon fill="none" stroke="#bfbfbf" points="6,-.5 6,-30.5 155,-30.5 155,-.5 6,-.5"/>
<text text-anchor="start" x="14" y="-18.5" font-family="Helvetica,sans-Serif" font-size="10.00" fill="#000000">unique_ptr&lt; lug::Graphics</text>
<text text-anchor="middle" x="80.5" y="-7.5" font-family="Helvetica,sans-Serif" font-size="10.00" fill="#000000">::Vulkan::API::Image &gt;</text>
</g>
<!-- Node3&#45;&gt;Node1 -->
<g id="edge2" class="edge">
<title>Node3&#45;&gt;Node1</title>
<path fill="none" stroke="#9a32cd" stroke-dasharray="5,2" d="M165.0788,-23.9579C194.8349,-26.9335 227.7827,-30.2283 255.6563,-33.0156"/>
<polygon fill="#9a32cd" stroke="#9a32cd" points="165.4206,-20.4747 155.1219,-22.9622 164.724,-27.4399 165.4206,-20.4747"/>
<text text-anchor="middle" x="208.5" y="-33.5" font-family="Helvetica,sans-Serif" font-size="10.00" fill="#000000"> image</text>
</g>
</g>
</svg>
