<?xml version="1.0" encoding="UTF-8" standalone="no"?>
<!DOCTYPE svg PUBLIC "-//W3C//DTD SVG 1.1//EN"
 "http://www.w3.org/Graphics/SVG/1.1/DTD/svg11.dtd">
<!-- Generated by graphviz version 2.40.1 (20161225.0304)
 -->
<!-- Title: lug::System::Memory::Allocator::Stack::Mark Pages: 1 -->
<svg width="271pt" height="195pt"
 viewBox="0.00 0.00 271.00 195.00" xmlns="http://www.w3.org/2000/svg" xmlns:xlink="http://www.w3.org/1999/xlink">
<g id="graph0" class="graph" transform="scale(1 1) rotate(0) translate(4 191)">
<title>lug::System::Memory::Allocator::Stack::Mark</title>
<!-- Node1 -->
<g id="node1" class="node">
<title>Node1</title>
<polygon fill="#bfbfbf" stroke="#000000" points="0,-.5 0,-30.5 140,-30.5 140,-.5 0,-.5"/>
<text text-anchor="start" x="8" y="-18.5" font-family="Helvetica,sans-Serif" font-size="10.00" fill="#000000">lug::System::Memory</text>
<text text-anchor="middle" x="70" y="-7.5" font-family="Helvetica,sans-Serif" font-size="10.00" fill="#000000">::Allocator::Stack::Mark</text>
</g>
<!-- Node2 -->
<g id="node2" class="node">
<title>Node2</title>
<g id="a_node2"><a xlink:href="structlug_1_1System_1_1Memory_1_1Area_1_1Page.html" target="_top" xlink:title="lug::System::Memory\l::Area::Page">
<polygon fill="none" stroke="#000000" points="90,-78.5 90,-108.5 218,-108.5 218,-78.5 90,-78.5"/>
<text text-anchor="start" x="98" y="-96.5" font-family="Helvetica,sans-Serif" font-size="10.00" fill="#000000">lug::System::Memory</text>
<text text-anchor="middle" x="154" y="-85.5" font-family="Helvetica,sans-Serif" font-size="10.00" fill="#000000">::Area::Page</text>
</a>
</g>
</g>
<!-- Node2&#45;&gt;Node1 -->
<g id="edge1" class="edge">
<title>Node2&#45;&gt;Node1</title>
<path fill="none" stroke="#9a32cd" stroke-dasharray="5,2" d="M130.4193,-71.6036C116.3995,-58.5853 98.9651,-42.3962 86.4329,-30.7592"/>
<polygon fill="#9a32cd" stroke="#9a32cd" points="128.0944,-74.2211 137.804,-78.4608 132.8576,-69.0915 128.0944,-74.2211"/>
<text text-anchor="middle" x="149" y="-52" font-family="Helvetica,sans-Serif" font-size="10.00" fill="#000000"> currentPage</text>
</g>
<!-- Node2&#45;&gt;Node2 -->
<g id="edge2" class="edge">
<title>Node2&#45;&gt;Node2</title>
<path fill="none" stroke="#9a32cd" stroke-dasharray="5,2" d="M228.5053,-98.5017C233.1818,-97.3242 236,-95.657 236,-93.5 236,-90.0488 228.7855,-87.8514 218.2877,-86.9077"/>
<polygon fill="#9a32cd" stroke="#9a32cd" points="227.6303,-95.0957 218.2877,-100.0923 228.7071,-102.0124 227.6303,-95.0957"/>
<text text-anchor="middle" x="249.5" y="-96.5" font-family="Helvetica,sans-Serif" font-size="10.00" fill="#000000"> prev</text>
<text text-anchor="middle" x="249.5" y="-85.5" font-family="Helvetica,sans-Serif" font-size="10.00" fill="#000000">next</text>
</g>
<!-- Node3 -->
<g id="node3" class="node">
<title>Node3</title>
<polygon fill="none" stroke="#bfbfbf" points="24.5,-167.5 24.5,-186.5 71.5,-186.5 71.5,-167.5 24.5,-167.5"/>
<text text-anchor="middle" x="48" y="-174.5" font-family="Helvetica,sans-Serif" font-size="10.00" fill="#000000">void *</text>
</g>
<!-- Node3&#45;&gt;Node1 -->
<g id="edge4" class="edge">
<title>Node3&#45;&gt;Node1</title>
<path fill="none" stroke="#9a32cd" stroke-dasharray="5,2" d="M43.3653,-157.4684C39.3398,-137.3244 35.0156,-105.1154 41,-78 44.7896,-60.8293 53.7891,-42.7701 60.7658,-30.5045"/>
<polygon fill="#9a32cd" stroke="#9a32cd" points="39.96,-158.2805 45.5036,-167.3093 46.8004,-156.7942 39.96,-158.2805"/>
<text text-anchor="middle" x="61" y="-91" font-family="Helvetica,sans-Serif" font-size="10.00" fill="#000000"> current</text>
</g>
<!-- Node3&#45;&gt;Node2 -->
<g id="edge3" class="edge">
<title>Node3&#45;&gt;Node2</title>
<path fill="none" stroke="#9a32cd" stroke-dasharray="5,2" d="M68.2403,-161.056C87.4202,-145.9473 116.0171,-123.4205 134.8349,-108.597"/>
<polygon fill="#9a32cd" stroke="#9a32cd" points="65.8492,-158.484 60.1595,-167.4215 70.1809,-163.9828 65.8492,-158.484"/>
<text text-anchor="middle" x="122" y="-141" font-family="Helvetica,sans-Serif" font-size="10.00" fill="#000000"> end</text>
<text text-anchor="middle" x="122" y="-130" font-family="Helvetica,sans-Serif" font-size="10.00" fill="#000000">start</text>
</g>
</g>
</svg>
