<?xml version="1.0" encoding="UTF-8" standalone="no"?>
<!DOCTYPE svg PUBLIC "-//W3C//DTD SVG 1.1//EN"
 "http://www.w3.org/Graphics/SVG/1.1/DTD/svg11.dtd">
<!-- Generated by graphviz version 2.40.1 (20161225.0304)
 -->
<!-- Title: lug::Graphics::Vulkan::API::Builder::Device::Queue Pages: 1 -->
<svg width="238pt" height="117pt"
 viewBox="0.00 0.00 237.50 117.00" xmlns="http://www.w3.org/2000/svg" xmlns:xlink="http://www.w3.org/1999/xlink">
<g id="graph0" class="graph" transform="scale(1 1) rotate(0) translate(4 113)">
<title>lug::Graphics::Vulkan::API::Builder::Device::Queue</title>
<!-- Node1 -->
<g id="node1" class="node">
<title>Node1</title>
<polygon fill="#bfbfbf" stroke="#000000" points="60,-.5 60,-41.5 189,-41.5 189,-.5 60,-.5"/>
<text text-anchor="start" x="68" y="-29.5" font-family="Helvetica,sans-Serif" font-size="10.00" fill="#000000">lug::Graphics::Vulkan</text>
<text text-anchor="start" x="68" y="-18.5" font-family="Helvetica,sans-Serif" font-size="10.00" fill="#000000">::API::Builder::Device</text>
<text text-anchor="middle" x="124.5" y="-7.5" font-family="Helvetica,sans-Serif" font-size="10.00" fill="#000000">::Queue</text>
</g>
<!-- Node2 -->
<g id="node2" class="node">
<title>Node2</title>
<polygon fill="none" stroke="#bfbfbf" points="0,-89.5 0,-108.5 125,-108.5 125,-89.5 0,-89.5"/>
<text text-anchor="middle" x="62.5" y="-96.5" font-family="Helvetica,sans-Serif" font-size="10.00" fill="#000000">vector&lt; std::string &gt;</text>
</g>
<!-- Node2&#45;&gt;Node1 -->
<g id="edge1" class="edge">
<title>Node2&#45;&gt;Node1</title>
<path fill="none" stroke="#9a32cd" stroke-dasharray="5,2" d="M76.5719,-81.2966C85.9019,-69.5589 98.1825,-54.1091 107.9768,-41.7873"/>
<polygon fill="#9a32cd" stroke="#9a32cd" points="73.585,-79.4295 70.1024,-89.4357 79.0648,-83.7853 73.585,-79.4295"/>
<text text-anchor="middle" x="112" y="-63" font-family="Helvetica,sans-Serif" font-size="10.00" fill="#000000"> names</text>
</g>
<!-- Node3 -->
<g id="node3" class="node">
<title>Node3</title>
<polygon fill="none" stroke="#bfbfbf" points="143.5,-89.5 143.5,-108.5 229.5,-108.5 229.5,-89.5 143.5,-89.5"/>
<text text-anchor="middle" x="186.5" y="-96.5" font-family="Helvetica,sans-Serif" font-size="10.00" fill="#000000">VkQueueFlags</text>
</g>
<!-- Node3&#45;&gt;Node1 -->
<g id="edge2" class="edge">
<title>Node3&#45;&gt;Node1</title>
<path fill="none" stroke="#9a32cd" stroke-dasharray="5,2" d="M172.4281,-81.2966C163.0981,-69.5589 150.8175,-54.1091 141.0232,-41.7873"/>
<polygon fill="#9a32cd" stroke="#9a32cd" points="169.9352,-83.7853 178.8976,-89.4357 175.415,-79.4295 169.9352,-83.7853"/>
<text text-anchor="middle" x="189" y="-63" font-family="Helvetica,sans-Serif" font-size="10.00" fill="#000000"> flagsUsed</text>
</g>
</g>
</svg>
