<?xml version="1.0" encoding="UTF-8" standalone="no"?>
<!DOCTYPE svg PUBLIC "-//W3C//DTD SVG 1.1//EN"
 "http://www.w3.org/Graphics/SVG/1.1/DTD/svg11.dtd">
<!-- Generated by graphviz version 2.40.1 (20161225.0304)
 -->
<!-- Title: lug::Graphics::Render::View::InitInfo Pages: 1 -->
<!--zoomable 265 -->
<svg id="main" version="1.1" xmlns="http://www.w3.org/2000/svg" xmlns:xlink="http://www.w3.org/1999/xlink" xml:space="preserve" onload="init(evt)">
<style type="text/css"><![CDATA[
.edge:hover path { stroke: red; }
.edge:hover polygon { stroke: red; fill: red; }
]]></style>
<script type="text/javascript"><![CDATA[
var edges = document.getElementsByTagName('g');
if (edges && edges.length) {
  for (var i=0;i<edges.length;i++) {
    if (edges[i].id.substr(0,4)=='edge') {
      edges[i].setAttribute('class','edge');
    }
  }
}
]]></script>
        <defs>
                <circle id="rim" cx="0" cy="0" r="7"/>
                <circle id="rim2" cx="0" cy="0" r="3.5"/>
                <g id="zoomPlus">
                        <use xlink:href="#rim" fill="#404040">
                                <set attributeName="fill" to="#808080" begin="zoomplus.mouseover" end="zoomplus.mouseout"/>
                        </use>
                        <path d="M-4,0h8M0,-4v8" fill="none" stroke="white" stroke-width="1.5" pointer-events="none"/>
                </g>
                <g id="zoomMin">
                        <use xlink:href="#rim" fill="#404040">
                                <set attributeName="fill" to="#808080" begin="zoomminus.mouseover" end="zoomminus.mouseout"/>
                        </use>
                        <path d="M-4,0h8" fill="none" stroke="white" stroke-width="1.5" pointer-events="none"/>
                </g>
                <g id="dirArrow">
                        <path fill="none" stroke="white" stroke-width="1.5" d="M0,-3.0v7 M-2.5,-0.5L0,-3.0L2.5,-0.5"/>
                </g>
               <g id="resetDef">
                       <use xlink:href="#rim2" fill="#404040">
                               <set attributeName="fill" to="#808080" begin="reset.mouseover" end="reset.mouseout"/>
                       </use>
               </g>
        </defs>

<script type="text/javascript">
var viewWidth = 631;
var viewHeight = 265;
var sectionId = 'dynsection-0';
</script>
<script xlink:href="svgpan.js"/>
<svg id="graph" class="graph">
<g id="viewport">
<title>lug::Graphics::Render::View::InitInfo</title>
<!-- Node1 -->
<g id="node1" class="node">
<title>Node1</title>
<polygon fill="#bfbfbf" stroke="#000000" points="495,-115.3789 495,-145.3789 623,-145.3789 623,-115.3789 495,-115.3789"/>
<text text-anchor="start" x="503" y="-133.3789" font-family="Helvetica,sans-Serif" font-size="10.00" fill="#000000">lug::Graphics::Render</text>
<text text-anchor="middle" x="559" y="-122.3789" font-family="Helvetica,sans-Serif" font-size="10.00" fill="#000000">::View::InitInfo</text>
</g>
<!-- Node2 -->
<g id="node2" class="node">
<title>Node2</title>
<g id="a_node2"><a xlink:href="structlug_1_1Graphics_1_1Render_1_1View_1_1Scissor.html" target="_top" xlink:title="lug::Graphics::Render\l::View::Scissor">
<polygon fill="none" stroke="#000000" points="208.5,-49.3789 208.5,-79.3789 336.5,-79.3789 336.5,-49.3789 208.5,-49.3789"/>
<text text-anchor="start" x="216.5" y="-67.3789" font-family="Helvetica,sans-Serif" font-size="10.00" fill="#000000">lug::Graphics::Render</text>
<text text-anchor="middle" x="272.5" y="-56.3789" font-family="Helvetica,sans-Serif" font-size="10.00" fill="#000000">::View::Scissor</text>
</a>
</g>
</g>
<!-- Node2&#45;&gt;Node1 -->
<g id="edge1" class="edge">
<title>Node2&#45;&gt;Node1</title>
<path fill="none" stroke="#9a32cd" stroke-dasharray="5,2" d="M347.0488,-72.9899C386.1632,-78.4545 434.6322,-86.7257 477,-98.3789 493.208,-102.8368 510.627,-109.3719 525.2238,-115.376"/>
<polygon fill="#9a32cd" stroke="#9a32cd" points="347.1793,-69.4753 336.798,-71.5917 346.2332,-76.4111 347.1793,-69.4753"/>
<text text-anchor="middle" x="421" y="-101.3789" font-family="Helvetica,sans-Serif" font-size="10.00" fill="#000000"> scissor</text>
</g>
<!-- Node3 -->
<g id="node3" class="node">
<title>Node3</title>
<polygon fill="none" stroke="#bfbfbf" points="1.5,-104.8789 1.5,-123.8789 108.5,-123.8789 108.5,-104.8789 1.5,-104.8789"/>
<text text-anchor="middle" x="55" y="-111.8789" font-family="Helvetica,sans-Serif" font-size="10.00" fill="#000000">anonymous:offset</text>
</g>
<!-- Node3&#45;&gt;Node2 -->
<g id="edge2" class="edge">
<title>Node3&#45;&gt;Node2</title>
<path fill="none" stroke="#9a32cd" stroke-dasharray="5,2" d="M79.3985,-99.5908C98.5167,-88.131 122.7365,-73.9421 128,-72.3789 153.651,-64.7606 182.968,-62.0964 208.4614,-61.5828"/>
<polygon fill="#9a32cd" stroke="#9a32cd" points="77.5576,-96.6137 70.7946,-104.7692 81.1673,-102.6112 77.5576,-96.6137"/>
<text text-anchor="middle" x="154" y="-75.3789" font-family="Helvetica,sans-Serif" font-size="10.00" fill="#000000"> offset</text>
</g>
<!-- Node8 -->
<g id="node8" class="node">
<title>Node8</title>
<g id="a_node8"><a xlink:href="classlug_1_1Graphics_1_1Render_1_1View_1_1Viewport.html" target="_top" xlink:title="lug::Graphics::Render\l::View::Viewport">
<polygon fill="none" stroke="#000000" points="208.5,-186.3789 208.5,-216.3789 336.5,-216.3789 336.5,-186.3789 208.5,-186.3789"/>
<text text-anchor="start" x="216.5" y="-204.3789" font-family="Helvetica,sans-Serif" font-size="10.00" fill="#000000">lug::Graphics::Render</text>
<text text-anchor="middle" x="272.5" y="-193.3789" font-family="Helvetica,sans-Serif" font-size="10.00" fill="#000000">::View::Viewport</text>
</a>
</g>
</g>
<!-- Node3&#45;&gt;Node8 -->
<g id="edge9" class="edge">
<title>Node3&#45;&gt;Node8</title>
<path fill="none" stroke="#9a32cd" stroke-dasharray="5,2" d="M71.6599,-131.4852C85.5165,-144.6908 106.4002,-162.3489 128,-172.3789 152.9476,-183.9634 182.4234,-190.9324 208.2254,-195.1195"/>
<polygon fill="#9a32cd" stroke="#9a32cd" points="73.9478,-128.8265 64.3611,-124.3158 69.0425,-133.8203 73.9478,-128.8265"/>
<text text-anchor="middle" x="154" y="-191.3789" font-family="Helvetica,sans-Serif" font-size="10.00" fill="#000000"> offset</text>
</g>
<!-- Node4 -->
<g id="node4" class="node">
<title>Node4</title>
<polygon fill="none" stroke="#bfbfbf" points="0,-235.8789 0,-254.8789 110,-254.8789 110,-235.8789 0,-235.8789"/>
<text text-anchor="middle" x="55" y="-242.8789" font-family="Helvetica,sans-Serif" font-size="10.00" fill="#000000">anonymous:extent</text>
</g>
<!-- Node4&#45;&gt;Node2 -->
<g id="edge3" class="edge">
<title>Node4&#45;&gt;Node2</title>
<path fill="none" stroke="#9a32cd" stroke-dasharray="5,2" d="M98.8841,-233.057C132.6519,-223.1792 174.469,-209.9239 180,-203.3789 213.1084,-164.2005 164.884,-128.5508 198,-89.3789 201.2589,-85.524 205.1321,-82.2611 209.3738,-79.4998"/>
<polygon fill="#9a32cd" stroke="#9a32cd" points="97.7931,-229.7291 89.1622,-235.8738 99.7412,-236.4526 97.7931,-229.7291"/>
<text text-anchor="middle" x="154" y="-226.3789" font-family="Helvetica,sans-Serif" font-size="10.00" fill="#000000"> extent</text>
</g>
<!-- Node4&#45;&gt;Node8 -->
<g id="edge10" class="edge">
<title>Node4&#45;&gt;Node8</title>
<path fill="none" stroke="#9a32cd" stroke-dasharray="5,2" d="M120.0034,-247.1816C139.4843,-246.5451 160.7755,-244.6676 180,-240.3789 202.4531,-235.3699 226.3443,-225.1575 244.221,-216.4395"/>
<polygon fill="#9a32cd" stroke="#9a32cd" points="119.92,-243.6825 110.0017,-247.4076 120.0782,-250.6808 119.92,-243.6825"/>
<text text-anchor="middle" x="154" y="-249.3789" font-family="Helvetica,sans-Serif" font-size="10.00" fill="#000000"> extent</text>
</g>
<!-- Node5 -->
<g id="node5" class="node">
<title>Node5</title>
<polygon fill="none" stroke="#bfbfbf" points="35.5,-52.8789 35.5,-71.8789 74.5,-71.8789 74.5,-52.8789 35.5,-52.8789"/>
<text text-anchor="middle" x="55" y="-59.8789" font-family="Helvetica,sans-Serif" font-size="10.00" fill="#000000">float</text>
</g>
<!-- Node5&#45;&gt;Node2 -->
<g id="edge4" class="edge">
<title>Node5&#45;&gt;Node2</title>
<path fill="none" stroke="#9a32cd" stroke-dasharray="5,2" d="M70.325,-45.32C83.9189,-31.5623 105.1225,-13.2525 128,-5.3789 149.8531,2.1422 157.8139,1.0944 180,-5.3789 209.2564,-13.915 238.0751,-34.8278 255.575,-49.3121"/>
<polygon fill="#9a32cd" stroke="#9a32cd" points="67.5897,-43.1178 63.2453,-52.781 72.6675,-47.9361 67.5897,-43.1178"/>
<text text-anchor="middle" x="154" y="-41.3789" font-family="Helvetica,sans-Serif" font-size="10.00" fill="#000000"> width</text>
<text text-anchor="middle" x="154" y="-30.3789" font-family="Helvetica,sans-Serif" font-size="10.00" fill="#000000">x</text>
<text text-anchor="middle" x="154" y="-19.3789" font-family="Helvetica,sans-Serif" font-size="10.00" fill="#000000">y</text>
<text text-anchor="middle" x="154" y="-8.3789" font-family="Helvetica,sans-Serif" font-size="10.00" fill="#000000">height</text>
</g>
<!-- Node5&#45;&gt;Node8 -->
<g id="edge8" class="edge">
<title>Node5&#45;&gt;Node8</title>
<path fill="none" stroke="#9a32cd" stroke-dasharray="5,2" d="M84.6024,-71.0569C120.4921,-81.6945 176.6399,-98.7599 180,-102.3789 203.3243,-127.5003 174.7002,-152.2347 198,-177.3789 201.1403,-180.7677 204.7605,-183.6797 208.6779,-186.1818"/>
<polygon fill="#9a32cd" stroke="#9a32cd" points="85.2184,-67.5894 74.6366,-68.1137 83.2357,-74.3028 85.2184,-67.5894"/>
<text text-anchor="middle" x="154" y="-160.3789" font-family="Helvetica,sans-Serif" font-size="10.00" fill="#000000"> width</text>
<text text-anchor="middle" x="154" y="-149.3789" font-family="Helvetica,sans-Serif" font-size="10.00" fill="#000000">x</text>
<text text-anchor="middle" x="154" y="-138.3789" font-family="Helvetica,sans-Serif" font-size="10.00" fill="#000000">y</text>
<text text-anchor="middle" x="154" y="-127.3789" font-family="Helvetica,sans-Serif" font-size="10.00" fill="#000000">minDepth</text>
<text text-anchor="middle" x="154" y="-116.3789" font-family="Helvetica,sans-Serif" font-size="10.00" fill="#000000">height</text>
<text text-anchor="middle" x="154" y="-105.3789" font-family="Helvetica,sans-Serif" font-size="10.00" fill="#000000">maxDepth</text>
</g>
<!-- Node6 -->
<g id="node6" class="node">
<title>Node6</title>
<polygon fill="none" stroke="#bfbfbf" points="198,-137.3789 198,-167.3789 347,-167.3789 347,-137.3789 198,-137.3789"/>
<text text-anchor="start" x="206" y="-155.3789" font-family="Helvetica,sans-Serif" font-size="10.00" fill="#000000">unique_ptr&lt; lug::Graphics</text>
<text text-anchor="middle" x="272.5" y="-144.3789" font-family="Helvetica,sans-Serif" font-size="10.00" fill="#000000">::Render::Camera &gt;</text>
</g>
<!-- Node6&#45;&gt;Node1 -->
<g id="edge5" class="edge">
<title>Node6&#45;&gt;Node1</title>
<path fill="none" stroke="#9a32cd" stroke-dasharray="5,2" d="M357.1294,-145.8803C401.0984,-142.5039 453.9717,-138.4439 494.5755,-135.3259"/>
<polygon fill="#9a32cd" stroke="#9a32cd" points="356.7292,-142.4006 347.0266,-146.656 357.2652,-149.38 356.7292,-142.4006"/>
<text text-anchor="middle" x="421" y="-147.3789" font-family="Helvetica,sans-Serif" font-size="10.00" fill="#000000"> camera</text>
</g>
<!-- Node7 -->
<g id="node7" class="node">
<title>Node7</title>
<polygon fill="none" stroke="#bfbfbf" points="252,-98.8789 252,-117.8789 293,-117.8789 293,-98.8789 252,-98.8789"/>
<text text-anchor="middle" x="272.5" y="-105.8789" font-family="Helvetica,sans-Serif" font-size="10.00" fill="#000000">Type</text>
</g>
<!-- Node7&#45;&gt;Node1 -->
<g id="edge6" class="edge">
<title>Node7&#45;&gt;Node1</title>
<path fill="none" stroke="#9a32cd" stroke-dasharray="5,2" d="M303.3085,-109.8965C343.3638,-111.9707 415.4773,-116.0499 477,-121.3789 482.7073,-121.8732 488.633,-122.4328 494.5695,-123.0252"/>
<polygon fill="#9a32cd" stroke="#9a32cd" points="303.2979,-106.3915 293.1325,-109.3771 302.9411,-113.3824 303.2979,-106.3915"/>
<text text-anchor="middle" x="421" y="-124.3789" font-family="Helvetica,sans-Serif" font-size="10.00" fill="#000000"> renderTechniqueType</text>
</g>
<!-- Node8&#45;&gt;Node1 -->
<g id="edge7" class="edge">
<title>Node8&#45;&gt;Node1</title>
<path fill="none" stroke="#9a32cd" stroke-dasharray="5,2" d="M346.8311,-188.6577C385.8857,-181.3353 434.367,-171.2351 477,-159.3789 491.1116,-155.4544 506.302,-150.3404 519.7277,-145.5018"/>
<polygon fill="#9a32cd" stroke="#9a32cd" points="345.793,-185.2904 336.5979,-190.5535 347.0682,-192.1733 345.793,-185.2904"/>
<text text-anchor="middle" x="421" y="-187.3789" font-family="Helvetica,sans-Serif" font-size="10.00" fill="#000000"> viewport</text>
</g>
</g>
</svg>
        <g id="navigator" transform="translate(0 0)" fill="#404254">
                <rect fill="#f2f5e9" fill-opacity="0.5" stroke="#606060" stroke-width=".5" x="0" y="0" width="60" height="60"/>
                <use id="zoomplus" xlink:href="#zoomPlus" x="17" y="9" onmousedown="handleZoom(evt,'in')"/>
                <use id="zoomminus" xlink:href="#zoomMin" x="42" y="9" onmousedown="handleZoom(evt,'out')"/>
                <use id="reset" xlink:href="#resetDef" x="30" y="36" onmousedown="handleReset()"/>
                <g id="arrowUp" xlink:href="#dirArrow" transform="translate(30 24)" onmousedown="handlePan(0,-1)">
                  <use xlink:href="#rim" fill="#404040">
                        <set attributeName="fill" to="#808080" begin="arrowUp.mouseover" end="arrowUp.mouseout"/>
                  </use>
                  <path fill="none" stroke="white" stroke-width="1.5" d="M0,-3.0v7 M-2.5,-0.5L0,-3.0L2.5,-0.5"/>
                </g>
                <g id="arrowRight" xlink:href="#dirArrow" transform="rotate(90) translate(36 -43)" onmousedown="handlePan(1,0)">
                  <use xlink:href="#rim" fill="#404040">
                        <set attributeName="fill" to="#808080" begin="arrowRight.mouseover" end="arrowRight.mouseout"/>
                  </use>
                  <path fill="none" stroke="white" stroke-width="1.5" d="M0,-3.0v7 M-2.5,-0.5L0,-3.0L2.5,-0.5"/>
                </g>
                <g id="arrowDown" xlink:href="#dirArrow" transform="rotate(180) translate(-30 -48)" onmousedown="handlePan(0,1)">
                  <use xlink:href="#rim" fill="#404040">
                        <set attributeName="fill" to="#808080" begin="arrowDown.mouseover" end="arrowDown.mouseout"/>
                  </use>
                  <path fill="none" stroke="white" stroke-width="1.5" d="M0,-3.0v7 M-2.5,-0.5L0,-3.0L2.5,-0.5"/>
                </g>
                <g id="arrowLeft" xlink:href="#dirArrow" transform="rotate(270) translate(-36 17)" onmousedown="handlePan(-1,0)">
                  <use xlink:href="#rim" fill="#404040">
                        <set attributeName="fill" to="#808080" begin="arrowLeft.mouseover" end="arrowLeft.mouseout"/>
                  </use>
                  <path fill="none" stroke="white" stroke-width="1.5" d="M0,-3.0v7 M-2.5,-0.5L0,-3.0L2.5,-0.5"/>
                </g>
        </g>
        <svg viewBox="0 0 15 15" width="100%" height="30px" preserveAspectRatio="xMaxYMin meet">
         <g id="arrow_out" transform="scale(0.3 0.3)">
          <a xlink:href="structlug_1_1Graphics_1_1Render_1_1View_1_1InitInfo__coll__graph_org.svg" target="_base">
           <rect id="button" ry="5" rx="5" y="6" x="6" height="38" width="38"
                fill="#f2f5e9" fill-opacity="0.5" stroke="#606060" stroke-width="1.0"/>
           <path id="arrow"
             d="M 11.500037,31.436501 C 11.940474,20.09759 22.043105,11.32322 32.158766,21.979434 L 37.068811,17.246167 C 37.068811,17.246167 37.088388,32 37.088388,32 L 22.160133,31.978069 C 22.160133,31.978069 26.997745,27.140456 26.997745,27.140456 C 18.528582,18.264221 13.291696,25.230495 11.500037,31.436501 z"
             style="fill:#404040;"/>
          </a>
         </g>
        </svg>
</svg>
