<?xml version="1.0" encoding="UTF-8" standalone="no"?>
<!DOCTYPE svg PUBLIC "-//W3C//DTD SVG 1.1//EN"
 "http://www.w3.org/Graphics/SVG/1.1/DTD/svg11.dtd">
<!-- Generated by graphviz version 2.40.1 (20161225.0304)
 -->
<!-- Title: src/lug/Graphics/Vulkan/API/Surface.cpp Pages: 1 -->
<svg width="518pt" height="285pt"
 viewBox="0.00 0.00 517.50 285.00" xmlns="http://www.w3.org/2000/svg" xmlns:xlink="http://www.w3.org/1999/xlink">
<g id="graph0" class="graph" transform="scale(1 1) rotate(0) translate(4 281)">
<title>src/lug/Graphics/Vulkan/API/Surface.cpp</title>
<!-- Node0 -->
<g id="node1" class="node">
<title>Node0</title>
<polygon fill="#bfbfbf" stroke="#000000" points="68.5,-246.5 68.5,-276.5 205.5,-276.5 205.5,-246.5 68.5,-246.5"/>
<text text-anchor="start" x="76.5" y="-264.5" font-family="Helvetica,sans-Serif" font-size="10.00" fill="#000000">src/lug/Graphics/Vulkan</text>
<text text-anchor="middle" x="137" y="-253.5" font-family="Helvetica,sans-Serif" font-size="10.00" fill="#000000">/API/Surface.cpp</text>
</g>
<!-- Node1 -->
<g id="node2" class="node">
<title>Node1</title>
<g id="a_node2"><a xlink:href="Surface_8hpp.html" target="_top" xlink:title="lug/Graphics/Vulkan\l/API/Surface.hpp">
<polygon fill="none" stroke="#000000" points="10,-179.5 10,-209.5 128,-209.5 128,-179.5 10,-179.5"/>
<text text-anchor="start" x="18" y="-197.5" font-family="Helvetica,sans-Serif" font-size="10.00" fill="#000000">lug/Graphics/Vulkan</text>
<text text-anchor="middle" x="69" y="-186.5" font-family="Helvetica,sans-Serif" font-size="10.00" fill="#000000">/API/Surface.hpp</text>
</a>
</g>
</g>
<!-- Node0&#45;&gt;Node1 -->
<g id="edge1" class="edge">
<title>Node0&#45;&gt;Node1</title>
<path fill="none" stroke="#191970" d="M121.5697,-246.2967C112.7016,-237.559 101.4022,-226.4257 91.5535,-216.7218"/>
<polygon fill="#191970" stroke="#191970" points="93.949,-214.1685 84.3692,-209.6432 89.036,-219.1548 93.949,-214.1685"/>
</g>
<!-- Node9 -->
<g id="node10" class="node">
<title>Node9</title>
<g id="a_node10"><a xlink:href="Instance_8hpp.html" target="_top" xlink:title="lug/Graphics/Vulkan\l/API/Instance.hpp">
<polygon fill="none" stroke="#000000" points="146,-179.5 146,-209.5 264,-209.5 264,-179.5 146,-179.5"/>
<text text-anchor="start" x="154" y="-197.5" font-family="Helvetica,sans-Serif" font-size="10.00" fill="#000000">lug/Graphics/Vulkan</text>
<text text-anchor="middle" x="205" y="-186.5" font-family="Helvetica,sans-Serif" font-size="10.00" fill="#000000">/API/Instance.hpp</text>
</a>
</g>
</g>
<!-- Node0&#45;&gt;Node9 -->
<g id="edge10" class="edge">
<title>Node0&#45;&gt;Node9</title>
<path fill="none" stroke="#191970" d="M152.4303,-246.2967C161.2984,-237.559 172.5978,-226.4257 182.4465,-216.7218"/>
<polygon fill="#191970" stroke="#191970" points="184.964,-219.1548 189.6308,-209.6432 180.051,-214.1685 184.964,-219.1548"/>
</g>
<!-- Node2 -->
<g id="node3" class="node">
<title>Node2</title>
<g id="a_node3"><a xlink:href="Graphics_2Export_8hpp.html" target="_top" xlink:title="lug/Graphics/Export.hpp">
<polygon fill="none" stroke="#000000" points="0,-56.5 0,-75.5 138,-75.5 138,-56.5 0,-56.5"/>
<text text-anchor="middle" x="69" y="-63.5" font-family="Helvetica,sans-Serif" font-size="10.00" fill="#000000">lug/Graphics/Export.hpp</text>
</a>
</g>
</g>
<!-- Node1&#45;&gt;Node2 -->
<g id="edge2" class="edge">
<title>Node1&#45;&gt;Node2</title>
<path fill="none" stroke="#191970" d="M69,-179.2548C69,-155.9744 69,-111.5607 69,-85.8117"/>
<polygon fill="#191970" stroke="#191970" points="72.5001,-85.7358 69,-75.7358 65.5001,-85.7358 72.5001,-85.7358"/>
</g>
<!-- Node4 -->
<g id="node5" class="node">
<title>Node4</title>
<g id="a_node5"><a xlink:href="Vulkan_8hpp.html" target="_top" xlink:title="lug/Graphics/Vulkan\l/Vulkan.hpp">
<polygon fill="none" stroke="#000000" points="145,-112.5 145,-142.5 263,-142.5 263,-112.5 145,-112.5"/>
<text text-anchor="start" x="153" y="-130.5" font-family="Helvetica,sans-Serif" font-size="10.00" fill="#000000">lug/Graphics/Vulkan</text>
<text text-anchor="middle" x="204" y="-119.5" font-family="Helvetica,sans-Serif" font-size="10.00" fill="#000000">/Vulkan.hpp</text>
</a>
</g>
</g>
<!-- Node1&#45;&gt;Node4 -->
<g id="edge4" class="edge">
<title>Node1&#45;&gt;Node4</title>
<path fill="none" stroke="#191970" d="M99.2966,-179.4639C118.4424,-169.9619 143.3953,-157.5779 164.1388,-147.283"/>
<polygon fill="#191970" stroke="#191970" points="165.9359,-150.2985 173.3374,-142.7177 162.8239,-144.0282 165.9359,-150.2985"/>
</g>
<!-- Node3 -->
<g id="node4" class="node">
<title>Node3</title>
<g id="a_node4"><a xlink:href="Config_8hpp.html" target="_top" xlink:title="lug/Config.hpp">
<polygon fill="none" stroke="#000000" points="24.5,-.5 24.5,-19.5 113.5,-19.5 113.5,-.5 24.5,-.5"/>
<text text-anchor="middle" x="69" y="-7.5" font-family="Helvetica,sans-Serif" font-size="10.00" fill="#000000">lug/Config.hpp</text>
</a>
</g>
</g>
<!-- Node2&#45;&gt;Node3 -->
<g id="edge3" class="edge">
<title>Node2&#45;&gt;Node3</title>
<path fill="none" stroke="#191970" d="M69,-56.2455C69,-48.9382 69,-38.6944 69,-29.7046"/>
<polygon fill="#191970" stroke="#191970" points="72.5001,-29.6426 69,-19.6427 65.5001,-29.6427 72.5001,-29.6426"/>
</g>
<!-- Node4&#45;&gt;Node2 -->
<g id="edge8" class="edge">
<title>Node4&#45;&gt;Node2</title>
<path fill="none" stroke="#191970" d="M170.9753,-112.4554C149.043,-102.464 120.4727,-89.4487 99.1547,-79.7372"/>
<polygon fill="#191970" stroke="#191970" points="100.4714,-76.4909 89.9202,-75.5303 97.5694,-82.8611 100.4714,-76.4909"/>
</g>
<!-- Node5 -->
<g id="node6" class="node">
<title>Node5</title>
<polygon fill="none" stroke="#bfbfbf" points="156.5,-56.5 156.5,-75.5 251.5,-75.5 251.5,-56.5 156.5,-56.5"/>
<text text-anchor="middle" x="204" y="-63.5" font-family="Helvetica,sans-Serif" font-size="10.00" fill="#000000">unordered_map</text>
</g>
<!-- Node4&#45;&gt;Node5 -->
<g id="edge5" class="edge">
<title>Node4&#45;&gt;Node5</title>
<path fill="none" stroke="#191970" d="M204,-112.2977C204,-104.3834 204,-94.6043 204,-86.0759"/>
<polygon fill="#191970" stroke="#191970" points="207.5001,-85.8469 204,-75.8469 200.5001,-85.847 207.5001,-85.8469"/>
</g>
<!-- Node6 -->
<g id="node7" class="node">
<title>Node6</title>
<polygon fill="none" stroke="#bfbfbf" points="270,-56.5 270,-75.5 318,-75.5 318,-56.5 270,-56.5"/>
<text text-anchor="middle" x="294" y="-63.5" font-family="Helvetica,sans-Serif" font-size="10.00" fill="#000000">vector</text>
</g>
<!-- Node4&#45;&gt;Node6 -->
<g id="edge6" class="edge">
<title>Node4&#45;&gt;Node6</title>
<path fill="none" stroke="#191970" d="M226.2472,-112.2977C239.9967,-102.9022 257.5921,-90.8787 271.4057,-81.4395"/>
<polygon fill="#191970" stroke="#191970" points="273.5768,-84.195 279.8586,-75.6633 269.6275,-78.4155 273.5768,-84.195"/>
</g>
<!-- Node7 -->
<g id="node8" class="node">
<title>Node7</title>
<polygon fill="none" stroke="#bfbfbf" points="336,-56.5 336,-75.5 394,-75.5 394,-56.5 336,-56.5"/>
<text text-anchor="middle" x="365" y="-63.5" font-family="Helvetica,sans-Serif" font-size="10.00" fill="#000000">ostream</text>
</g>
<!-- Node4&#45;&gt;Node7 -->
<g id="edge7" class="edge">
<title>Node4&#45;&gt;Node7</title>
<path fill="none" stroke="#191970" d="M243.385,-112.4554C270.0127,-102.284 304.8444,-88.9787 330.4034,-79.2155"/>
<polygon fill="#191970" stroke="#191970" points="331.958,-82.3684 340.0507,-75.5303 329.4601,-75.8292 331.958,-82.3684"/>
</g>
<!-- Node8 -->
<g id="node9" class="node">
<title>Node8</title>
<polygon fill="none" stroke="#bfbfbf" points="412.5,-56.5 412.5,-75.5 509.5,-75.5 509.5,-56.5 412.5,-56.5"/>
<text text-anchor="middle" x="461" y="-63.5" font-family="Helvetica,sans-Serif" font-size="10.00" fill="#000000">vulkan/vulkan.h</text>
</g>
<!-- Node4&#45;&gt;Node8 -->
<g id="edge9" class="edge">
<title>Node4&#45;&gt;Node8</title>
<path fill="none" stroke="#191970" d="M263.2837,-113.3134C308.1601,-102.5745 369.0901,-87.994 411.4008,-77.8691"/>
<polygon fill="#191970" stroke="#191970" points="412.2891,-81.2554 421.2,-75.5241 410.66,-74.4476 412.2891,-81.2554"/>
</g>
<!-- Node9&#45;&gt;Node2 -->
<g id="edge11" class="edge">
<title>Node9&#45;&gt;Node2</title>
<path fill="none" stroke="#191970" d="M182.2977,-179.4025C168.3576,-169.6929 150.4647,-156.4201 136,-143 115.8324,-124.2889 95.4849,-99.9535 82.5929,-83.6971"/>
<polygon fill="#191970" stroke="#191970" points="85.1644,-81.3037 76.2461,-75.5839 79.6509,-85.6167 85.1644,-81.3037"/>
</g>
<!-- Node9&#45;&gt;Node4 -->
<g id="edge12" class="edge">
<title>Node9&#45;&gt;Node4</title>
<path fill="none" stroke="#191970" d="M204.7731,-179.2967C204.6567,-171.5013 204.5119,-161.7991 204.3792,-152.9064"/>
<polygon fill="#191970" stroke="#191970" points="207.875,-152.5898 204.226,-142.6432 200.8757,-152.6943 207.875,-152.5898"/>
</g>
<!-- Node10 -->
<g id="node11" class="node">
<title>Node10</title>
<g id="a_node11"><a xlink:href="Instance_8inl.html" target="_top" xlink:title="lug/Graphics/Vulkan\l/API/Instance.inl">
<polygon fill="none" stroke="#000000" points="281,-112.5 281,-142.5 399,-142.5 399,-112.5 281,-112.5"/>
<text text-anchor="start" x="289" y="-130.5" font-family="Helvetica,sans-Serif" font-size="10.00" fill="#000000">lug/Graphics/Vulkan</text>
<text text-anchor="middle" x="340" y="-119.5" font-family="Helvetica,sans-Serif" font-size="10.00" fill="#000000">/API/Instance.inl</text>
</a>
</g>
</g>
<!-- Node9&#45;&gt;Node10 -->
<g id="edge13" class="edge">
<title>Node9&#45;&gt;Node10</title>
<path fill="none" stroke="#191970" d="M235.2966,-179.4639C254.4424,-169.9619 279.3953,-157.5779 300.1388,-147.283"/>
<polygon fill="#191970" stroke="#191970" points="301.9359,-150.2985 309.3374,-142.7177 298.8239,-144.0282 301.9359,-150.2985"/>
</g>
</g>
</svg>
