<?xml version="1.0" encoding="UTF-8" standalone="no"?>
<!DOCTYPE svg PUBLIC "-//W3C//DTD SVG 1.1//EN"
 "http://www.w3.org/Graphics/SVG/1.1/DTD/svg11.dtd">
<!-- Generated by graphviz version 2.40.1 (20161225.0304)
 -->
<!-- Title: src/lug/Graphics/Vulkan/API/Swapchain.cpp Pages: 1 -->
<svg width="1984pt" height="419pt"
 viewBox="0.00 0.00 1983.99 419.00" xmlns="http://www.w3.org/2000/svg" xmlns:xlink="http://www.w3.org/1999/xlink">
<g id="graph0" class="graph" transform="scale(1 1) rotate(0) translate(4 415)">
<title>src/lug/Graphics/Vulkan/API/Swapchain.cpp</title>
<!-- Node0 -->
<g id="node1" class="node">
<title>Node0</title>
<polygon fill="#bfbfbf" stroke="#000000" points="672.4947,-380.5 672.4947,-410.5 809.4947,-410.5 809.4947,-380.5 672.4947,-380.5"/>
<text text-anchor="start" x="680.4947" y="-398.5" font-family="Helvetica,sans-Serif" font-size="10.00" fill="#000000">src/lug/Graphics/Vulkan</text>
<text text-anchor="middle" x="740.9947" y="-387.5" font-family="Helvetica,sans-Serif" font-size="10.00" fill="#000000">/API/Swapchain.cpp</text>
</g>
<!-- Node1 -->
<g id="node2" class="node">
<title>Node1</title>
<g id="a_node2"><a xlink:href="Swapchain_8hpp.html" target="_top" xlink:title="lug/Graphics/Vulkan\l/API/Swapchain.hpp">
<polygon fill="none" stroke="#000000" points="97.9947,-246.5 97.9947,-276.5 215.9947,-276.5 215.9947,-246.5 97.9947,-246.5"/>
<text text-anchor="start" x="105.9947" y="-264.5" font-family="Helvetica,sans-Serif" font-size="10.00" fill="#000000">lug/Graphics/Vulkan</text>
<text text-anchor="middle" x="156.9947" y="-253.5" font-family="Helvetica,sans-Serif" font-size="10.00" fill="#000000">/API/Swapchain.hpp</text>
</a>
</g>
</g>
<!-- Node0&#45;&gt;Node1 -->
<g id="edge1" class="edge">
<title>Node0&#45;&gt;Node1</title>
<path fill="none" stroke="#191970" d="M675.4203,-380.4538C564.2062,-354.9355 339.6428,-303.409 226.0875,-277.3535"/>
<polygon fill="#191970" stroke="#191970" points="226.6449,-273.8905 216.1154,-275.0654 225.0793,-280.7132 226.6449,-273.8905"/>
</g>
<!-- Node16 -->
<g id="node17" class="node">
<title>Node16</title>
<g id="a_node17"><a xlink:href="Builder_2ImageView_8hpp.html" target="_top" xlink:title="lug/Graphics/Vulkan\l/API/Builder/ImageView.hpp">
<polygon fill="none" stroke="#000000" points="524.4947,-246.5 524.4947,-276.5 683.4947,-276.5 683.4947,-246.5 524.4947,-246.5"/>
<text text-anchor="start" x="532.4947" y="-264.5" font-family="Helvetica,sans-Serif" font-size="10.00" fill="#000000">lug/Graphics/Vulkan</text>
<text text-anchor="middle" x="603.9947" y="-253.5" font-family="Helvetica,sans-Serif" font-size="10.00" fill="#000000">/API/Builder/ImageView.hpp</text>
</a>
</g>
</g>
<!-- Node0&#45;&gt;Node16 -->
<g id="edge22" class="edge">
<title>Node0&#45;&gt;Node16</title>
<path fill="none" stroke="#191970" d="M725.5454,-380.389C701.4946,-356.8649 654.9624,-311.3517 626.968,-283.9702"/>
<polygon fill="#191970" stroke="#191970" points="629.194,-281.2517 619.5978,-276.7614 624.2994,-286.2559 629.194,-281.2517"/>
</g>
<!-- Node19 -->
<g id="node20" class="node">
<title>Node19</title>
<g id="a_node20"><a xlink:href="Device_8hpp.html" target="_top" xlink:title="lug/Graphics/Vulkan\l/API/Device.hpp">
<polygon fill="none" stroke="#000000" points="993.9947,-313.5 993.9947,-343.5 1111.9947,-343.5 1111.9947,-313.5 993.9947,-313.5"/>
<text text-anchor="start" x="1001.9947" y="-331.5" font-family="Helvetica,sans-Serif" font-size="10.00" fill="#000000">lug/Graphics/Vulkan</text>
<text text-anchor="middle" x="1052.9947" y="-320.5" font-family="Helvetica,sans-Serif" font-size="10.00" fill="#000000">/API/Device.hpp</text>
</a>
</g>
</g>
<!-- Node0&#45;&gt;Node19 -->
<g id="edge27" class="edge">
<title>Node0&#45;&gt;Node19</title>
<path fill="none" stroke="#191970" d="M809.8507,-380.7136C861.4999,-369.6223 931.9137,-354.5014 983.6749,-343.386"/>
<polygon fill="#191970" stroke="#191970" points="984.7251,-346.7403 993.7673,-341.2187 983.2553,-339.8964 984.7251,-346.7403"/>
</g>
<!-- Node21 -->
<g id="node22" class="node">
<title>Node21</title>
<g id="a_node22"><a xlink:href="Vulkan_2API_2Queue_8hpp.html" target="_top" xlink:title="lug/Graphics/Vulkan\l/API/Queue.hpp">
<polygon fill="none" stroke="#000000" points="681.9947,-179.5 681.9947,-209.5 799.9947,-209.5 799.9947,-179.5 681.9947,-179.5"/>
<text text-anchor="start" x="689.9947" y="-197.5" font-family="Helvetica,sans-Serif" font-size="10.00" fill="#000000">lug/Graphics/Vulkan</text>
<text text-anchor="middle" x="740.9947" y="-186.5" font-family="Helvetica,sans-Serif" font-size="10.00" fill="#000000">/API/Queue.hpp</text>
</a>
</g>
</g>
<!-- Node0&#45;&gt;Node21 -->
<g id="edge40" class="edge">
<title>Node0&#45;&gt;Node21</title>
<path fill="none" stroke="#191970" d="M740.9947,-380.3923C740.9947,-346.0414 740.9947,-261.7914 740.9947,-219.5301"/>
<polygon fill="#191970" stroke="#191970" points="744.4948,-219.5088 740.9947,-209.5088 737.4948,-219.5088 744.4948,-219.5088"/>
</g>
<!-- Node25 -->
<g id="node26" class="node">
<title>Node25</title>
<g id="a_node26"><a xlink:href="Logger_8hpp.html" target="_top" xlink:title="lug/System/Logger/Logger.hpp">
<polygon fill="none" stroke="#000000" points="1457.9947,-252 1457.9947,-271 1629.9947,-271 1629.9947,-252 1457.9947,-252"/>
<text text-anchor="middle" x="1543.9947" y="-259" font-family="Helvetica,sans-Serif" font-size="10.00" fill="#000000">lug/System/Logger/Logger.hpp</text>
</a>
</g>
</g>
<!-- Node0&#45;&gt;Node25 -->
<g id="edge41" class="edge">
<title>Node0&#45;&gt;Node25</title>
<path fill="none" stroke="#191970" d="M809.8219,-387.3887C886.0825,-378.1185 1012.6133,-361.898 1120.9947,-344 1254.0866,-322.0214 1409.5144,-290.082 1489.8077,-273.1125"/>
<polygon fill="#191970" stroke="#191970" points="1490.6325,-276.5155 1499.6902,-271.0192 1489.1819,-269.6674 1490.6325,-276.5155"/>
</g>
<!-- Node2 -->
<g id="node3" class="node">
<title>Node2</title>
<polygon fill="none" stroke="#bfbfbf" points="317.9947,-56.5 317.9947,-75.5 365.9947,-75.5 365.9947,-56.5 317.9947,-56.5"/>
<text text-anchor="middle" x="341.9947" y="-63.5" font-family="Helvetica,sans-Serif" font-size="10.00" fill="#000000">vector</text>
</g>
<!-- Node1&#45;&gt;Node2 -->
<g id="edge2" class="edge">
<title>Node1&#45;&gt;Node2</title>
<path fill="none" stroke="#191970" d="M97.8328,-251.6921C44.7867,-240.1966 -20.741,-217.6267 6.9947,-179 43.0243,-128.8226 229.4955,-87.693 307.562,-72.4033"/>
<polygon fill="#191970" stroke="#191970" points="308.6767,-75.7527 317.8311,-70.4191 307.3487,-68.8798 308.6767,-75.7527"/>
</g>
<!-- Node3 -->
<g id="node4" class="node">
<title>Node3</title>
<g id="a_node4"><a xlink:href="Graphics_2Export_8hpp.html" target="_top" xlink:title="lug/Graphics/Export.hpp">
<polygon fill="none" stroke="#000000" points="822.9947,-56.5 822.9947,-75.5 960.9947,-75.5 960.9947,-56.5 822.9947,-56.5"/>
<text text-anchor="middle" x="891.9947" y="-63.5" font-family="Helvetica,sans-Serif" font-size="10.00" fill="#000000">lug/Graphics/Export.hpp</text>
</a>
</g>
</g>
<!-- Node1&#45;&gt;Node3 -->
<g id="edge3" class="edge">
<title>Node1&#45;&gt;Node3</title>
<path fill="none" stroke="#191970" d="M158.0852,-246.2306C160.2131,-227.8097 166.4897,-197.0701 184.9947,-179 256.3004,-109.37 301.2827,-131.6269 398.9947,-112 475.9731,-96.5378 694.1233,-79.7197 812.7745,-71.354"/>
<polygon fill="#191970" stroke="#191970" points="813.1591,-74.8357 822.8896,-70.6443 812.6691,-67.8529 813.1591,-74.8357"/>
</g>
<!-- Node5 -->
<g id="node6" class="node">
<title>Node5</title>
<g id="a_node6"><a xlink:href="Image_8hpp.html" target="_top" xlink:title="lug/Graphics/Vulkan\l/API/Image.hpp">
<polygon fill="none" stroke="#000000" points="817.9947,-179.5 817.9947,-209.5 935.9947,-209.5 935.9947,-179.5 817.9947,-179.5"/>
<text text-anchor="start" x="825.9947" y="-197.5" font-family="Helvetica,sans-Serif" font-size="10.00" fill="#000000">lug/Graphics/Vulkan</text>
<text text-anchor="middle" x="876.9947" y="-186.5" font-family="Helvetica,sans-Serif" font-size="10.00" fill="#000000">/API/Image.hpp</text>
</a>
</g>
</g>
<!-- Node1&#45;&gt;Node5 -->
<g id="edge5" class="edge">
<title>Node1&#45;&gt;Node5</title>
<path fill="none" stroke="#191970" d="M216.2129,-259.7021C329.4303,-255.6391 584.4633,-243.4732 807.8141,-210.0416"/>
<polygon fill="#191970" stroke="#191970" points="808.3904,-213.4943 817.7536,-208.5365 807.3423,-206.5732 808.3904,-213.4943"/>
</g>
<!-- Node8 -->
<g id="node9" class="node">
<title>Node8</title>
<g id="a_node9"><a xlink:href="Vulkan_8hpp.html" target="_top" xlink:title="lug/Graphics/Vulkan\l/Vulkan.hpp">
<polygon fill="none" stroke="#000000" points="543.9947,-112.5 543.9947,-142.5 661.9947,-142.5 661.9947,-112.5 543.9947,-112.5"/>
<text text-anchor="start" x="551.9947" y="-130.5" font-family="Helvetica,sans-Serif" font-size="10.00" fill="#000000">lug/Graphics/Vulkan</text>
<text text-anchor="middle" x="602.9947" y="-119.5" font-family="Helvetica,sans-Serif" font-size="10.00" fill="#000000">/Vulkan.hpp</text>
</a>
</g>
</g>
<!-- Node1&#45;&gt;Node8 -->
<g id="edge20" class="edge">
<title>Node1&#45;&gt;Node8</title>
<path fill="none" stroke="#191970" d="M164.5507,-246.2838C175.0123,-227.0091 195.8502,-194.4477 223.9947,-179 343.1152,-113.6183 395.3776,-164.0111 533.6281,-143.0434"/>
<polygon fill="#191970" stroke="#191970" points="534.4205,-146.4607 543.7328,-141.4078 533.302,-139.5507 534.4205,-146.4607"/>
</g>
<!-- Node13 -->
<g id="node14" class="node">
<title>Node13</title>
<g id="a_node14"><a xlink:href="ImageView_8hpp.html" target="_top" xlink:title="lug/Graphics/Vulkan\l/API/ImageView.hpp">
<polygon fill="none" stroke="#000000" points="544.4947,-179.5 544.4947,-209.5 663.4947,-209.5 663.4947,-179.5 544.4947,-179.5"/>
<text text-anchor="start" x="552.4947" y="-197.5" font-family="Helvetica,sans-Serif" font-size="10.00" fill="#000000">lug/Graphics/Vulkan</text>
<text text-anchor="middle" x="603.9947" y="-186.5" font-family="Helvetica,sans-Serif" font-size="10.00" fill="#000000">/API/ImageView.hpp</text>
</a>
</g>
</g>
<!-- Node1&#45;&gt;Node13 -->
<g id="edge16" class="edge">
<title>Node1&#45;&gt;Node13</title>
<path fill="none" stroke="#191970" d="M216.3528,-252.6029C298.5916,-240.2763 446.911,-218.045 534.3047,-204.9457"/>
<polygon fill="#191970" stroke="#191970" points="535.0204,-208.3776 544.3911,-203.4339 533.9827,-201.455 535.0204,-208.3776"/>
</g>
<!-- Node15 -->
<g id="node16" class="node">
<title>Node15</title>
<g id="a_node16"><a xlink:href="Swapchain_8inl.html" target="_top" xlink:title="lug/Graphics/Vulkan\l/API/Swapchain.inl">
<polygon fill="none" stroke="#000000" points="15.9947,-179.5 15.9947,-209.5 133.9947,-209.5 133.9947,-179.5 15.9947,-179.5"/>
<text text-anchor="start" x="23.9947" y="-197.5" font-family="Helvetica,sans-Serif" font-size="10.00" fill="#000000">lug/Graphics/Vulkan</text>
<text text-anchor="middle" x="74.9947" y="-186.5" font-family="Helvetica,sans-Serif" font-size="10.00" fill="#000000">/API/Swapchain.inl</text>
</a>
</g>
</g>
<!-- Node1&#45;&gt;Node15 -->
<g id="edge21" class="edge">
<title>Node1&#45;&gt;Node15</title>
<path fill="none" stroke="#191970" d="M138.3876,-246.2967C127.484,-237.3876 113.5325,-225.9882 101.495,-216.1527"/>
<polygon fill="#191970" stroke="#191970" points="103.4865,-213.2601 93.5281,-209.6432 99.0574,-218.6808 103.4865,-213.2601"/>
</g>
<!-- Node4 -->
<g id="node5" class="node">
<title>Node4</title>
<g id="a_node5"><a xlink:href="Config_8hpp.html" target="_top" xlink:title="lug/Config.hpp">
<polygon fill="none" stroke="#000000" points="1101.4947,-.5 1101.4947,-19.5 1190.4947,-19.5 1190.4947,-.5 1101.4947,-.5"/>
<text text-anchor="middle" x="1145.9947" y="-7.5" font-family="Helvetica,sans-Serif" font-size="10.00" fill="#000000">lug/Config.hpp</text>
</a>
</g>
</g>
<!-- Node3&#45;&gt;Node4 -->
<g id="edge4" class="edge">
<title>Node3&#45;&gt;Node4</title>
<path fill="none" stroke="#191970" d="M935.3702,-56.4369C978.9317,-46.8328 1046.1224,-32.0191 1092.8581,-21.7152"/>
<polygon fill="#191970" stroke="#191970" points="1093.7862,-25.0947 1102.798,-19.5237 1092.279,-18.2588 1093.7862,-25.0947"/>
</g>
<!-- Node5&#45;&gt;Node3 -->
<g id="edge8" class="edge">
<title>Node5&#45;&gt;Node3</title>
<path fill="none" stroke="#191970" d="M910.728,-179.3642C925.2949,-170.9147 940.8424,-158.8543 948.9947,-143 955.2951,-130.7472 954.9366,-124.4307 948.9947,-112 942.8499,-99.1449 931.1648,-88.7306 919.9662,-81.0832"/>
<polygon fill="#191970" stroke="#191970" points="921.5286,-77.9304 911.2047,-75.5495 917.7906,-83.8488 921.5286,-77.9304"/>
</g>
<!-- Node6 -->
<g id="node7" class="node">
<title>Node6</title>
<polygon fill="none" stroke="#bfbfbf" points="1109.4947,-118 1109.4947,-137 1168.4947,-137 1168.4947,-118 1109.4947,-118"/>
<text text-anchor="middle" x="1138.9947" y="-125" font-family="Helvetica,sans-Serif" font-size="10.00" fill="#000000">memory</text>
</g>
<!-- Node5&#45;&gt;Node6 -->
<g id="edge6" class="edge">
<title>Node5&#45;&gt;Node6</title>
<path fill="none" stroke="#191970" d="M935.7926,-179.4639C985.6563,-166.7125 1055.8167,-148.7707 1099.2925,-137.6529"/>
<polygon fill="#191970" stroke="#191970" points="1100.3889,-140.9852 1109.21,-135.1167 1098.6546,-134.2034 1100.3889,-140.9852"/>
</g>
<!-- Node7 -->
<g id="node8" class="node">
<title>Node7</title>
<polygon fill="none" stroke="#bfbfbf" points="1016.9947,-118 1016.9947,-137 1048.9947,-137 1048.9947,-118 1016.9947,-118"/>
<text text-anchor="middle" x="1032.9947" y="-125" font-family="Helvetica,sans-Serif" font-size="10.00" fill="#000000">set</text>
</g>
<!-- Node5&#45;&gt;Node7 -->
<g id="edge7" class="edge">
<title>Node5&#45;&gt;Node7</title>
<path fill="none" stroke="#191970" d="M912.0041,-179.4639C940.9988,-167.011 981.5193,-149.608 1007.5112,-138.4448"/>
<polygon fill="#191970" stroke="#191970" points="1008.8999,-141.6576 1016.7071,-134.4953 1006.1375,-135.2257 1008.8999,-141.6576"/>
</g>
<!-- Node5&#45;&gt;Node8 -->
<g id="edge9" class="edge">
<title>Node5&#45;&gt;Node8</title>
<path fill="none" stroke="#191970" d="M817.8781,-180.0445C775.024,-169.5656 716.9455,-155.3639 671.9722,-144.3668"/>
<polygon fill="#191970" stroke="#191970" points="672.5505,-140.9051 662.0053,-141.9296 670.8878,-147.7048 672.5505,-140.9051"/>
</g>
<!-- Node12 -->
<g id="node13" class="node">
<title>Node12</title>
<g id="a_node13"><a xlink:href="Image_8inl.html" target="_top" xlink:title="lug/Graphics/Vulkan\l/API/Image.inl">
<polygon fill="none" stroke="#000000" points="821.9947,-112.5 821.9947,-142.5 939.9947,-142.5 939.9947,-112.5 821.9947,-112.5"/>
<text text-anchor="start" x="829.9947" y="-130.5" font-family="Helvetica,sans-Serif" font-size="10.00" fill="#000000">lug/Graphics/Vulkan</text>
<text text-anchor="middle" x="880.9947" y="-119.5" font-family="Helvetica,sans-Serif" font-size="10.00" fill="#000000">/API/Image.inl</text>
</a>
</g>
</g>
<!-- Node5&#45;&gt;Node12 -->
<g id="edge15" class="edge">
<title>Node5&#45;&gt;Node12</title>
<path fill="none" stroke="#191970" d="M877.9024,-179.2967C878.3678,-171.5013 878.947,-161.7991 879.4779,-152.9064"/>
<polygon fill="#191970" stroke="#191970" points="882.9884,-152.834 880.0906,-142.6432 876.0008,-152.4168 882.9884,-152.834"/>
</g>
<!-- Node8&#45;&gt;Node2 -->
<g id="edge11" class="edge">
<title>Node8&#45;&gt;Node2</title>
<path fill="none" stroke="#191970" d="M543.7698,-113.5447C491.943,-101.3326 418.4814,-84.0227 375.9819,-74.0085"/>
<polygon fill="#191970" stroke="#191970" points="376.6665,-70.574 366.1303,-71.6871 375.061,-77.3874 376.6665,-70.574"/>
</g>
<!-- Node8&#45;&gt;Node3 -->
<g id="edge13" class="edge">
<title>Node8&#45;&gt;Node3</title>
<path fill="none" stroke="#191970" d="M662.1755,-114.9062C713.4677,-103.991 787.105,-88.3208 837.1,-77.6817"/>
<polygon fill="#191970" stroke="#191970" points="838.0288,-81.0625 847.0813,-75.5577 836.5718,-74.2158 838.0288,-81.0625"/>
</g>
<!-- Node9 -->
<g id="node10" class="node">
<title>Node9</title>
<polygon fill="none" stroke="#bfbfbf" points="1208.4947,-56.5 1208.4947,-75.5 1303.4947,-75.5 1303.4947,-56.5 1208.4947,-56.5"/>
<text text-anchor="middle" x="1255.9947" y="-63.5" font-family="Helvetica,sans-Serif" font-size="10.00" fill="#000000">unordered_map</text>
</g>
<!-- Node8&#45;&gt;Node9 -->
<g id="edge10" class="edge">
<title>Node8&#45;&gt;Node9</title>
<path fill="none" stroke="#191970" d="M662.0595,-118.2083C677.3244,-115.9869 693.7515,-113.7537 708.9947,-112 886.8454,-91.5381 1098.2201,-76.3369 1198.1539,-69.6937"/>
<polygon fill="#191970" stroke="#191970" points="1198.5912,-73.1725 1208.3386,-69.0207 1198.1295,-66.1878 1198.5912,-73.1725"/>
</g>
<!-- Node10 -->
<g id="node11" class="node">
<title>Node10</title>
<polygon fill="none" stroke="#bfbfbf" points="621.9947,-56.5 621.9947,-75.5 679.9947,-75.5 679.9947,-56.5 621.9947,-56.5"/>
<text text-anchor="middle" x="650.9947" y="-63.5" font-family="Helvetica,sans-Serif" font-size="10.00" fill="#000000">ostream</text>
</g>
<!-- Node8&#45;&gt;Node10 -->
<g id="edge12" class="edge">
<title>Node8&#45;&gt;Node10</title>
<path fill="none" stroke="#191970" d="M614.8599,-112.2977C621.5922,-103.672 630.0532,-92.8312 637.0952,-83.8087"/>
<polygon fill="#191970" stroke="#191970" points="639.9157,-85.8836 643.3093,-75.8469 634.3974,-81.5766 639.9157,-85.8836"/>
</g>
<!-- Node11 -->
<g id="node12" class="node">
<title>Node11</title>
<polygon fill="none" stroke="#bfbfbf" points="506.4947,-56.5 506.4947,-75.5 603.4947,-75.5 603.4947,-56.5 506.4947,-56.5"/>
<text text-anchor="middle" x="554.9947" y="-63.5" font-family="Helvetica,sans-Serif" font-size="10.00" fill="#000000">vulkan/vulkan.h</text>
</g>
<!-- Node8&#45;&gt;Node11 -->
<g id="edge14" class="edge">
<title>Node8&#45;&gt;Node11</title>
<path fill="none" stroke="#191970" d="M591.1295,-112.2977C584.3972,-103.672 575.9361,-92.8312 568.8941,-83.8087"/>
<polygon fill="#191970" stroke="#191970" points="571.592,-81.5766 562.6801,-75.8469 566.0737,-85.8836 571.592,-81.5766"/>
</g>
<!-- Node13&#45;&gt;Node3 -->
<g id="edge17" class="edge">
<title>Node13&#45;&gt;Node3</title>
<path fill="none" stroke="#191970" d="M624.0475,-179.3265C637.4214,-169.148 655.353,-155.3875 670.9947,-143 688.0813,-129.4682 689.5158,-121.7792 708.9947,-112 742.0363,-95.4118 781.5116,-84.5093 815.3261,-77.5034"/>
<polygon fill="#191970" stroke="#191970" points="816.0408,-80.9298 825.1627,-75.5408 814.6712,-74.0651 816.0408,-80.9298"/>
</g>
<!-- Node13&#45;&gt;Node8 -->
<g id="edge18" class="edge">
<title>Node13&#45;&gt;Node8</title>
<path fill="none" stroke="#191970" d="M603.7678,-179.2967C603.6514,-171.5013 603.5066,-161.7991 603.3739,-152.9064"/>
<polygon fill="#191970" stroke="#191970" points="606.8697,-152.5898 603.2207,-142.6432 599.8704,-152.6943 606.8697,-152.5898"/>
</g>
<!-- Node14 -->
<g id="node15" class="node">
<title>Node14</title>
<g id="a_node15"><a xlink:href="ImageView_8inl.html" target="_top" xlink:title="lug/Graphics/Vulkan\l/API/ImageView.inl">
<polygon fill="none" stroke="#000000" points="407.9947,-112.5 407.9947,-142.5 525.9947,-142.5 525.9947,-112.5 407.9947,-112.5"/>
<text text-anchor="start" x="415.9947" y="-130.5" font-family="Helvetica,sans-Serif" font-size="10.00" fill="#000000">lug/Graphics/Vulkan</text>
<text text-anchor="middle" x="466.9947" y="-119.5" font-family="Helvetica,sans-Serif" font-size="10.00" fill="#000000">/API/ImageView.inl</text>
</a>
</g>
</g>
<!-- Node13&#45;&gt;Node14 -->
<g id="edge19" class="edge">
<title>Node13&#45;&gt;Node14</title>
<path fill="none" stroke="#191970" d="M573.2492,-179.4639C553.7323,-169.9191 528.269,-157.4663 507.1622,-147.144"/>
<polygon fill="#191970" stroke="#191970" points="508.6325,-143.9669 498.1116,-142.7177 505.5572,-150.2552 508.6325,-143.9669"/>
</g>
<!-- Node16&#45;&gt;Node6 -->
<g id="edge24" class="edge">
<title>Node16&#45;&gt;Node6</title>
<path fill="none" stroke="#191970" d="M683.5661,-254.383C769.2768,-245.8564 899.4922,-230.1618 944.9947,-210 964.922,-201.1704 963.8835,-189.4797 982.9947,-179 1020.1153,-158.6447 1066.6359,-144.5803 1099.1758,-136.3549"/>
<polygon fill="#191970" stroke="#191970" points="1100.3428,-139.6724 1109.2199,-133.8889 1098.6737,-132.8743 1100.3428,-139.6724"/>
</g>
<!-- Node16&#45;&gt;Node13 -->
<g id="edge25" class="edge">
<title>Node16&#45;&gt;Node13</title>
<path fill="none" stroke="#191970" d="M603.9947,-246.2967C603.9947,-238.5013 603.9947,-228.7991 603.9947,-219.9064"/>
<polygon fill="#191970" stroke="#191970" points="607.4948,-219.6431 603.9947,-209.6432 600.4948,-219.6432 607.4948,-219.6431"/>
</g>
<!-- Node17 -->
<g id="node18" class="node">
<title>Node17</title>
<polygon fill="none" stroke="#bfbfbf" points="265.9947,-185 265.9947,-204 315.9947,-204 315.9947,-185 265.9947,-185"/>
<text text-anchor="middle" x="290.9947" y="-192" font-family="Helvetica,sans-Serif" font-size="10.00" fill="#000000">cstdint</text>
</g>
<!-- Node16&#45;&gt;Node17 -->
<g id="edge23" class="edge">
<title>Node16&#45;&gt;Node17</title>
<path fill="none" stroke="#191970" d="M524.3181,-251.7844C468.0815,-243.7119 391.4094,-230.2378 325.9947,-210 323.8798,-209.3457 321.7226,-208.5992 319.57,-207.7956"/>
<polygon fill="#191970" stroke="#191970" points="320.8883,-204.5534 310.3071,-204.0157 318.2435,-211.0346 320.8883,-204.5534"/>
</g>
<!-- Node18 -->
<g id="node19" class="node">
<title>Node18</title>
<g id="a_node19"><a xlink:href="Builder_2ImageView_8inl.html" target="_top" xlink:title="lug/Graphics/Vulkan\l/API/Builder/ImageView.inl">
<polygon fill="none" stroke="#000000" points="334.4947,-179.5 334.4947,-209.5 487.4947,-209.5 487.4947,-179.5 334.4947,-179.5"/>
<text text-anchor="start" x="342.4947" y="-197.5" font-family="Helvetica,sans-Serif" font-size="10.00" fill="#000000">lug/Graphics/Vulkan</text>
<text text-anchor="middle" x="410.9947" y="-186.5" font-family="Helvetica,sans-Serif" font-size="10.00" fill="#000000">/API/Builder/ImageView.inl</text>
</a>
</g>
</g>
<!-- Node16&#45;&gt;Node18 -->
<g id="edge26" class="edge">
<title>Node16&#45;&gt;Node18</title>
<path fill="none" stroke="#191970" d="M560.6817,-246.4639C532.1005,-236.5419 494.4669,-223.4774 464.0853,-212.9304"/>
<polygon fill="#191970" stroke="#191970" points="465.0914,-209.5748 454.4966,-209.6017 462.7957,-216.1877 465.0914,-209.5748"/>
</g>
<!-- Node19&#45;&gt;Node3 -->
<g id="edge28" class="edge">
<title>Node19&#45;&gt;Node3</title>
<path fill="none" stroke="#191970" d="M1076.6411,-313.4353C1131.1964,-276.8964 1256.7655,-181.4614 1196.9947,-112 1182.3944,-95.0326 1056.7567,-80.6062 971.3552,-72.6397"/>
<polygon fill="#191970" stroke="#191970" points="971.4287,-69.1317 961.15,-71.7004 970.7871,-76.1023 971.4287,-69.1317"/>
</g>
<!-- Node19&#45;&gt;Node8 -->
<g id="edge38" class="edge">
<title>Node19&#45;&gt;Node8</title>
<path fill="none" stroke="#191970" d="M993.7839,-325.8743C894.4016,-320.7869 688.016,-307.3039 515.9947,-277 398.8975,-256.3717 329.7845,-304.0156 256.9947,-210 200.4359,-136.9483 210.2116,-199.5596 533.573,-143.1518"/>
<polygon fill="#191970" stroke="#191970" points="534.4851,-146.545 543.7245,-141.36 533.2683,-139.6516 534.4851,-146.545"/>
</g>
<!-- Node20 -->
<g id="node21" class="node">
<title>Node20</title>
<g id="a_node21"><a xlink:href="QueueFamily_8hpp.html" target="_top" xlink:title="lug/Graphics/Vulkan\l/API/QueueFamily.hpp">
<polygon fill="none" stroke="#000000" points="988.9947,-246.5 988.9947,-276.5 1116.9947,-276.5 1116.9947,-246.5 988.9947,-246.5"/>
<text text-anchor="start" x="996.9947" y="-264.5" font-family="Helvetica,sans-Serif" font-size="10.00" fill="#000000">lug/Graphics/Vulkan</text>
<text text-anchor="middle" x="1052.9947" y="-253.5" font-family="Helvetica,sans-Serif" font-size="10.00" fill="#000000">/API/QueueFamily.hpp</text>
</a>
</g>
</g>
<!-- Node19&#45;&gt;Node20 -->
<g id="edge29" class="edge">
<title>Node19&#45;&gt;Node20</title>
<path fill="none" stroke="#191970" d="M1052.9947,-313.2967C1052.9947,-305.5013 1052.9947,-295.7991 1052.9947,-286.9064"/>
<polygon fill="#191970" stroke="#191970" points="1056.4948,-286.6431 1052.9947,-276.6432 1049.4948,-286.6432 1056.4948,-286.6431"/>
</g>
<!-- Node24 -->
<g id="node25" class="node">
<title>Node24</title>
<g id="a_node25"><a xlink:href="Device_8inl.html" target="_top" xlink:title="lug/Graphics/Vulkan\l/API/Device.inl">
<polygon fill="none" stroke="#000000" points="1321.9947,-246.5 1321.9947,-276.5 1439.9947,-276.5 1439.9947,-246.5 1321.9947,-246.5"/>
<text text-anchor="start" x="1329.9947" y="-264.5" font-family="Helvetica,sans-Serif" font-size="10.00" fill="#000000">lug/Graphics/Vulkan</text>
<text text-anchor="middle" x="1380.9947" y="-253.5" font-family="Helvetica,sans-Serif" font-size="10.00" fill="#000000">/API/Device.inl</text>
</a>
</g>
</g>
<!-- Node19&#45;&gt;Node24 -->
<g id="edge39" class="edge">
<title>Node19&#45;&gt;Node24</title>
<path fill="none" stroke="#191970" d="M1112.0275,-316.7506C1163.7325,-306.4184 1240.882,-290.9017 1307.9947,-277 1309.2436,-276.7413 1310.5043,-276.4796 1311.7742,-276.2155"/>
<polygon fill="#191970" stroke="#191970" points="1312.57,-279.6249 1321.6428,-274.1536 1311.1383,-272.7728 1312.57,-279.6249"/>
</g>
<!-- Node20&#45;&gt;Node2 -->
<g id="edge31" class="edge">
<title>Node20&#45;&gt;Node2</title>
<path fill="none" stroke="#191970" d="M988.6626,-259.6076C868.8883,-255.3459 616.548,-242.6838 535.9947,-210 515.4772,-201.6752 516.2993,-189.8445 496.9947,-179 456.5396,-156.274 436.1353,-170.8148 398.9947,-143 378.1841,-127.4148 361.5352,-102.1525 351.7251,-84.8425"/>
<polygon fill="#191970" stroke="#191970" points="354.6089,-82.8188 346.7595,-75.7028 348.458,-86.1606 354.6089,-82.8188"/>
</g>
<!-- Node20&#45;&gt;Node3 -->
<g id="edge32" class="edge">
<title>Node20&#45;&gt;Node3</title>
<path fill="none" stroke="#191970" d="M1082.3339,-246.356C1131.1028,-219.2716 1219.5735,-160.8007 1177.9947,-112 1164.6234,-96.3063 1051.0277,-81.8432 971.0961,-73.4738"/>
<polygon fill="#191970" stroke="#191970" points="971.3423,-69.9806 961.0353,-72.4337 970.6224,-76.9435 971.3423,-69.9806"/>
</g>
<!-- Node20&#45;&gt;Node9 -->
<g id="edge30" class="edge">
<title>Node20&#45;&gt;Node9</title>
<path fill="none" stroke="#191970" d="M1104.2415,-246.4386C1125.9661,-238.2178 1150.4831,-226.3203 1168.9947,-210 1209.3681,-174.4057 1236.6965,-115.4423 1248.841,-85.1956"/>
<polygon fill="#191970" stroke="#191970" points="1252.14,-86.3687 1252.4999,-75.78 1245.6154,-83.8332 1252.14,-86.3687"/>
</g>
<!-- Node20&#45;&gt;Node21 -->
<g id="edge33" class="edge">
<title>Node20&#45;&gt;Node21</title>
<path fill="none" stroke="#191970" d="M988.9735,-248.281C942.0307,-238.5206 876.4867,-224.7527 810.1165,-210.2297"/>
<polygon fill="#191970" stroke="#191970" points="810.8378,-206.8048 800.3202,-208.0819 809.3386,-213.6424 810.8378,-206.8048"/>
</g>
<!-- Node23 -->
<g id="node24" class="node">
<title>Node23</title>
<g id="a_node24"><a xlink:href="QueueFamily_8inl.html" target="_top" xlink:title="lug/Graphics/Vulkan\l/API/QueueFamily.inl">
<polygon fill="none" stroke="#000000" points="991.9947,-179.5 991.9947,-209.5 1113.9947,-209.5 1113.9947,-179.5 991.9947,-179.5"/>
<text text-anchor="start" x="999.9947" y="-197.5" font-family="Helvetica,sans-Serif" font-size="10.00" fill="#000000">lug/Graphics/Vulkan</text>
<text text-anchor="middle" x="1052.9947" y="-186.5" font-family="Helvetica,sans-Serif" font-size="10.00" fill="#000000">/API/QueueFamily.inl</text>
</a>
</g>
</g>
<!-- Node20&#45;&gt;Node23 -->
<g id="edge37" class="edge">
<title>Node20&#45;&gt;Node23</title>
<path fill="none" stroke="#191970" d="M1052.9947,-246.2967C1052.9947,-238.5013 1052.9947,-228.7991 1052.9947,-219.9064"/>
<polygon fill="#191970" stroke="#191970" points="1056.4948,-219.6431 1052.9947,-209.6432 1049.4948,-219.6432 1056.4948,-219.6431"/>
</g>
<!-- Node21&#45;&gt;Node3 -->
<g id="edge34" class="edge">
<title>Node21&#45;&gt;Node3</title>
<path fill="none" stroke="#191970" d="M751.7061,-179.4795C764.7789,-161.8585 788.222,-132.4571 812.9947,-112 827.9935,-99.6141 846.7383,-88.5443 862.2044,-80.3693"/>
<polygon fill="#191970" stroke="#191970" points="864.0552,-83.3532 871.3477,-75.6674 860.854,-77.1281 864.0552,-83.3532"/>
</g>
<!-- Node21&#45;&gt;Node8 -->
<g id="edge35" class="edge">
<title>Node21&#45;&gt;Node8</title>
<path fill="none" stroke="#191970" d="M710.0248,-179.4639C690.3655,-169.9191 664.7163,-157.4663 643.4554,-147.144"/>
<polygon fill="#191970" stroke="#191970" points="644.8632,-143.9368 634.3387,-142.7177 641.8059,-150.2339 644.8632,-143.9368"/>
</g>
<!-- Node22 -->
<g id="node23" class="node">
<title>Node22</title>
<polygon fill="none" stroke="#bfbfbf" points="717.9947,-118 717.9947,-137 765.9947,-137 765.9947,-118 717.9947,-118"/>
<text text-anchor="middle" x="741.9947" y="-125" font-family="Helvetica,sans-Serif" font-size="10.00" fill="#000000">mutex</text>
</g>
<!-- Node21&#45;&gt;Node22 -->
<g id="edge36" class="edge">
<title>Node21&#45;&gt;Node22</title>
<path fill="none" stroke="#191970" d="M741.2216,-179.2967C741.3638,-169.7699 741.5485,-157.3954 741.7017,-147.1306"/>
<polygon fill="#191970" stroke="#191970" points="745.2024,-147.1061 741.8521,-137.055 738.2031,-147.0016 745.2024,-147.1061"/>
</g>
<!-- Node25&#45;&gt;Node6 -->
<g id="edge42" class="edge">
<title>Node25&#45;&gt;Node6</title>
<path fill="none" stroke="#191970" d="M1484.876,-251.9682C1437.8257,-243.503 1370.699,-229.4483 1313.9947,-210 1259.3406,-191.2549 1199.1205,-160.4511 1165.492,-142.2581"/>
<polygon fill="#191970" stroke="#191970" points="1166.7959,-138.9824 1156.3416,-137.2628 1163.4418,-145.1265 1166.7959,-138.9824"/>
</g>
<!-- Node25&#45;&gt;Node7 -->
<g id="edge43" class="edge">
<title>Node25&#45;&gt;Node7</title>
<path fill="none" stroke="#191970" d="M1486.0328,-251.9732C1398.4824,-237.5601 1241.9937,-211.6981 1235.9947,-210 1169.9678,-191.3104 1096.2024,-157.9991 1058.3848,-139.9504"/>
<polygon fill="#191970" stroke="#191970" points="1059.6672,-136.6834 1049.1388,-135.4988 1056.6306,-142.9904 1059.6672,-136.6834"/>
</g>
<!-- Node26 -->
<g id="node27" class="node">
<title>Node26</title>
<polygon fill="none" stroke="#bfbfbf" points="1449.4947,-118 1449.4947,-137 1494.4947,-137 1494.4947,-118 1449.4947,-118"/>
<text text-anchor="middle" x="1471.9947" y="-125" font-family="Helvetica,sans-Serif" font-size="10.00" fill="#000000">string</text>
</g>
<!-- Node25&#45;&gt;Node26 -->
<g id="edge44" class="edge">
<title>Node25&#45;&gt;Node26</title>
<path fill="none" stroke="#191970" d="M1538.8166,-251.8631C1526.9332,-229.7466 1497.5346,-175.0326 1481.9936,-146.109"/>
<polygon fill="#191970" stroke="#191970" points="1484.9422,-144.2019 1477.1258,-137.0496 1478.7759,-147.5152 1484.9422,-144.2019"/>
</g>
<!-- Node27 -->
<g id="node28" class="node">
<title>Node27</title>
<g id="a_node28"><a xlink:href="System_2Export_8hpp.html" target="_top" xlink:title="lug/System/Export.hpp">
<polygon fill="none" stroke="#000000" points="1353.9947,-56.5 1353.9947,-75.5 1485.9947,-75.5 1485.9947,-56.5 1353.9947,-56.5"/>
<text text-anchor="middle" x="1419.9947" y="-63.5" font-family="Helvetica,sans-Serif" font-size="10.00" fill="#000000">lug/System/Export.hpp</text>
</a>
</g>
</g>
<!-- Node25&#45;&gt;Node27 -->
<g id="edge45" class="edge">
<title>Node25&#45;&gt;Node27</title>
<path fill="none" stroke="#191970" d="M1543.9366,-251.9713C1543.304,-226.4859 1538.3624,-155.727 1503.9947,-112 1492.6784,-97.602 1475.5508,-87.0783 1459.707,-79.7603"/>
<polygon fill="#191970" stroke="#191970" points="1460.6403,-76.3516 1450.0713,-75.6121 1457.8724,-82.7811 1460.6403,-76.3516"/>
</g>
<!-- Node28 -->
<g id="node29" class="node">
<title>Node28</title>
<g id="a_node29"><a xlink:href="Common_8hpp.html" target="_top" xlink:title="lug/System/Logger/Common.hpp">
<polygon fill="none" stroke="#000000" points="1571.9947,-118 1571.9947,-137 1753.9947,-137 1753.9947,-118 1571.9947,-118"/>
<text text-anchor="middle" x="1662.9947" y="-125" font-family="Helvetica,sans-Serif" font-size="10.00" fill="#000000">lug/System/Logger/Common.hpp</text>
</a>
</g>
</g>
<!-- Node25&#45;&gt;Node28 -->
<g id="edge47" class="edge">
<title>Node25&#45;&gt;Node28</title>
<path fill="none" stroke="#191970" d="M1549.7009,-251.7565C1559.3526,-235.6883 1580.0074,-203.0222 1601.9947,-179 1614.0078,-165.8752 1629.3121,-152.9631 1641.5858,-143.3508"/>
<polygon fill="#191970" stroke="#191970" points="1643.7186,-146.1259 1649.5212,-137.2613 1639.4571,-140.5726 1643.7186,-146.1259"/>
</g>
<!-- Node31 -->
<g id="node32" class="node">
<title>Node31</title>
<g id="a_node32"><a xlink:href="LoggingFacility_8hpp.html" target="_top" xlink:title="lug/System/Logger/Logging\lFacility.hpp">
<polygon fill="none" stroke="#000000" points="1322.4947,-179.5 1322.4947,-209.5 1477.4947,-209.5 1477.4947,-179.5 1322.4947,-179.5"/>
<text text-anchor="start" x="1330.4947" y="-197.5" font-family="Helvetica,sans-Serif" font-size="10.00" fill="#000000">lug/System/Logger/Logging</text>
<text text-anchor="middle" x="1399.9947" y="-186.5" font-family="Helvetica,sans-Serif" font-size="10.00" fill="#000000">Facility.hpp</text>
</a>
</g>
</g>
<!-- Node25&#45;&gt;Node31 -->
<g id="edge51" class="edge">
<title>Node25&#45;&gt;Node31</title>
<path fill="none" stroke="#191970" d="M1523.363,-251.9005C1502.0758,-241.9961 1468.2886,-226.2756 1441.4512,-213.7888"/>
<polygon fill="#191970" stroke="#191970" points="1442.8234,-210.567 1432.2803,-209.5218 1439.8704,-216.9137 1442.8234,-210.567"/>
</g>
<!-- Node32 -->
<g id="node33" class="node">
<title>Node32</title>
<g id="a_node33"><a xlink:href="Message_8hpp.html" target="_top" xlink:title="lug/System/Logger/Message.hpp">
<polygon fill="none" stroke="#000000" points="1610.4947,-185 1610.4947,-204 1791.4947,-204 1791.4947,-185 1610.4947,-185"/>
<text text-anchor="middle" x="1700.9947" y="-192" font-family="Helvetica,sans-Serif" font-size="10.00" fill="#000000">lug/System/Logger/Message.hpp</text>
</a>
</g>
</g>
<!-- Node25&#45;&gt;Node32 -->
<g id="edge56" class="edge">
<title>Node25&#45;&gt;Node32</title>
<path fill="none" stroke="#191970" d="M1566.489,-251.9005C1593.42,-240.4077 1638.7014,-221.0838 1669.2011,-208.068"/>
<polygon fill="#191970" stroke="#191970" points="1670.7184,-211.2259 1678.5422,-204.0817 1667.9709,-204.7876 1670.7184,-211.2259"/>
</g>
<!-- Node33 -->
<g id="node34" class="node">
<title>Node33</title>
<g id="a_node34"><a xlink:href="Logger_8inl.html" target="_top" xlink:title="lug/System/Logger/Logger.inl">
<polygon fill="none" stroke="#000000" points="1809.9947,-185 1809.9947,-204 1975.9947,-204 1975.9947,-185 1809.9947,-185"/>
<text text-anchor="middle" x="1892.9947" y="-192" font-family="Helvetica,sans-Serif" font-size="10.00" fill="#000000">lug/System/Logger/Logger.inl</text>
</a>
</g>
</g>
<!-- Node25&#45;&gt;Node33 -->
<g id="edge58" class="edge">
<title>Node25&#45;&gt;Node33</title>
<path fill="none" stroke="#191970" d="M1593.6273,-251.9717C1656.7247,-239.8584 1765.5633,-218.9639 1833.1762,-205.9838"/>
<polygon fill="#191970" stroke="#191970" points="1834.0904,-209.3723 1843.2511,-204.0496 1832.7706,-202.4978 1834.0904,-209.3723"/>
</g>
<!-- Node27&#45;&gt;Node4 -->
<g id="edge46" class="edge">
<title>Node27&#45;&gt;Node4</title>
<path fill="none" stroke="#191970" d="M1373.2037,-56.4369C1325.4432,-46.6756 1251.3519,-31.5329 1200.8581,-21.213"/>
<polygon fill="#191970" stroke="#191970" points="1201.2726,-17.7254 1190.7743,-19.152 1199.8709,-24.5836 1201.2726,-17.7254"/>
</g>
<!-- Node28&#45;&gt;Node27 -->
<g id="edge48" class="edge">
<title>Node28&#45;&gt;Node27</title>
<path fill="none" stroke="#191970" d="M1625.2926,-117.9581C1582.8175,-107.2082 1513.7027,-89.7162 1467.5534,-78.0365"/>
<polygon fill="#191970" stroke="#191970" points="1468.3384,-74.6248 1457.7853,-75.5643 1466.6209,-81.4109 1468.3384,-74.6248"/>
</g>
<!-- Node29 -->
<g id="node30" class="node">
<title>Node29</title>
<polygon fill="none" stroke="#bfbfbf" points="1673.9947,-56.5 1673.9947,-75.5 1755.9947,-75.5 1755.9947,-56.5 1673.9947,-56.5"/>
<text text-anchor="middle" x="1714.9947" y="-63.5" font-family="Helvetica,sans-Serif" font-size="10.00" fill="#000000">fmt/format.h</text>
</g>
<!-- Node28&#45;&gt;Node29 -->
<g id="edge49" class="edge">
<title>Node28&#45;&gt;Node29</title>
<path fill="none" stroke="#191970" d="M1671.1197,-117.8906C1678.8589,-108.7376 1690.6934,-94.7409 1700.1219,-83.59"/>
<polygon fill="#191970" stroke="#191970" points="1702.9712,-85.6409 1706.7551,-75.7449 1697.6258,-81.1213 1702.9712,-85.6409"/>
</g>
<!-- Node30 -->
<g id="node31" class="node">
<title>Node30</title>
<polygon fill="none" stroke="#bfbfbf" points="1566.4947,-56.5 1566.4947,-75.5 1655.4947,-75.5 1655.4947,-56.5 1566.4947,-56.5"/>
<text text-anchor="middle" x="1610.9947" y="-63.5" font-family="Helvetica,sans-Serif" font-size="10.00" fill="#000000">fmt/ostream.h</text>
</g>
<!-- Node28&#45;&gt;Node30 -->
<g id="edge50" class="edge">
<title>Node28&#45;&gt;Node30</title>
<path fill="none" stroke="#191970" d="M1654.8697,-117.8906C1647.1305,-108.7376 1635.296,-94.7409 1625.8675,-83.59"/>
<polygon fill="#191970" stroke="#191970" points="1628.3636,-81.1213 1619.2343,-75.7449 1623.0182,-85.6409 1628.3636,-81.1213"/>
</g>
<!-- Node31&#45;&gt;Node6 -->
<g id="edge53" class="edge">
<title>Node31&#45;&gt;Node6</title>
<path fill="none" stroke="#191970" d="M1341.4212,-179.4639C1291.7478,-166.7125 1221.8552,-148.7707 1178.5454,-137.6529"/>
<polygon fill="#191970" stroke="#191970" points="1179.222,-134.2131 1168.6657,-135.1167 1177.4814,-140.9933 1179.222,-134.2131"/>
</g>
<!-- Node31&#45;&gt;Node9 -->
<g id="edge54" class="edge">
<title>Node31&#45;&gt;Node9</title>
<path fill="none" stroke="#191970" d="M1383.069,-179.2602C1364.6358,-162.6774 1334.2684,-135.4009 1307.9947,-112 1297.0251,-102.2298 1284.7145,-91.3365 1274.826,-82.6039"/>
<polygon fill="#191970" stroke="#191970" points="1276.9856,-79.8417 1267.172,-75.8488 1272.3537,-85.0901 1276.9856,-79.8417"/>
</g>
<!-- Node31&#45;&gt;Node26 -->
<g id="edge52" class="edge">
<title>Node31&#45;&gt;Node26</title>
<path fill="none" stroke="#191970" d="M1416.3326,-179.2967C1427.6595,-168.7564 1442.7323,-154.7303 1454.3361,-143.9323"/>
<polygon fill="#191970" stroke="#191970" points="1456.7903,-146.4296 1461.7267,-137.055 1452.0216,-141.3051 1456.7903,-146.4296"/>
</g>
<!-- Node31&#45;&gt;Node27 -->
<g id="edge55" class="edge">
<title>Node31&#45;&gt;Node27</title>
<path fill="none" stroke="#191970" d="M1402.3675,-179.2548C1405.9909,-155.9744 1412.9035,-111.5607 1416.9112,-85.8117"/>
<polygon fill="#191970" stroke="#191970" points="1420.3998,-86.1551 1418.4794,-75.7358 1413.483,-85.0785 1420.3998,-86.1551"/>
</g>
<!-- Node32&#45;&gt;Node28 -->
<g id="edge57" class="edge">
<title>Node32&#45;&gt;Node28</title>
<path fill="none" stroke="#191970" d="M1695.5502,-184.9005C1689.7938,-174.751 1680.5734,-158.4941 1673.4123,-145.8679"/>
<polygon fill="#191970" stroke="#191970" points="1676.407,-144.0533 1668.4291,-137.0817 1670.3181,-147.5067 1676.407,-144.0533"/>
</g>
</g>
</svg>
