<?xml version="1.0" encoding="UTF-8" standalone="no"?>
<!DOCTYPE svg PUBLIC "-//W3C//DTD SVG 1.1//EN"
 "http://www.w3.org/Graphics/SVG/1.1/DTD/svg11.dtd">
<!-- Generated by graphviz version 2.40.1 (20161225.0304)
 -->
<!-- Title: include/lug/System/Memory/Allocator/Chunk.inl Pages: 1 -->
<svg width="175pt" height="173pt"
 viewBox="0.00 0.00 175.00 173.00" xmlns="http://www.w3.org/2000/svg" xmlns:xlink="http://www.w3.org/1999/xlink">
<g id="graph0" class="graph" transform="scale(1 1) rotate(0) translate(4 169)">
<title>include/lug/System/Memory/Allocator/Chunk.inl</title>
<!-- Node1 -->
<g id="node1" class="node">
<title>Node1</title>
<polygon fill="#bfbfbf" stroke="#000000" points="3,-134.5 3,-164.5 164,-164.5 164,-134.5 3,-134.5"/>
<text text-anchor="start" x="11" y="-152.5" font-family="Helvetica,sans-Serif" font-size="10.00" fill="#000000">include/lug/System</text>
<text text-anchor="middle" x="83.5" y="-141.5" font-family="Helvetica,sans-Serif" font-size="10.00" fill="#000000">/Memory/Allocator/Chunk.inl</text>
</g>
<!-- Node2 -->
<g id="node2" class="node">
<title>Node2</title>
<g id="a_node2"><a xlink:href="System_2Memory_2Allocator_2Chunk_8hpp.html" target="_top" xlink:title="include/lug/System\l/Memory/Allocator/Chunk.hpp">
<polygon fill="none" stroke="#000000" points="0,-67.5 0,-97.5 167,-97.5 167,-67.5 0,-67.5"/>
<text text-anchor="start" x="8" y="-85.5" font-family="Helvetica,sans-Serif" font-size="10.00" fill="#000000">include/lug/System</text>
<text text-anchor="middle" x="83.5" y="-74.5" font-family="Helvetica,sans-Serif" font-size="10.00" fill="#000000">/Memory/Allocator/Chunk.hpp</text>
</a>
</g>
</g>
<!-- Node1&#45;&gt;Node2 -->
<g id="edge1" class="edge">
<title>Node1&#45;&gt;Node2</title>
<path fill="none" stroke="#191970" d="M83.5,-124.0249C83.5,-115.128 83.5,-105.4287 83.5,-97.6432"/>
<polygon fill="#191970" stroke="#191970" points="80.0001,-124.2966 83.5,-134.2967 87.0001,-124.2967 80.0001,-124.2966"/>
</g>
<!-- Node3 -->
<g id="node3" class="node">
<title>Node3</title>
<g id="a_node3"><a xlink:href="Pool_8hpp.html" target="_top" xlink:title="include/lug/System\l/Memory/Allocator/Pool.hpp">
<polygon fill="none" stroke="#000000" points="4.5,-.5 4.5,-30.5 162.5,-30.5 162.5,-.5 4.5,-.5"/>
<text text-anchor="start" x="12.5" y="-18.5" font-family="Helvetica,sans-Serif" font-size="10.00" fill="#000000">include/lug/System</text>
<text text-anchor="middle" x="83.5" y="-7.5" font-family="Helvetica,sans-Serif" font-size="10.00" fill="#000000">/Memory/Allocator/Pool.hpp</text>
</a>
</g>
</g>
<!-- Node2&#45;&gt;Node3 -->
<g id="edge2" class="edge">
<title>Node2&#45;&gt;Node3</title>
<path fill="none" stroke="#191970" d="M83.5,-57.0249C83.5,-48.128 83.5,-38.4287 83.5,-30.6432"/>
<polygon fill="#191970" stroke="#191970" points="80.0001,-57.2966 83.5,-67.2967 87.0001,-57.2967 80.0001,-57.2966"/>
</g>
</g>
</svg>
