<?xml version="1.0" encoding="UTF-8" standalone="no"?>
<!DOCTYPE svg PUBLIC "-//W3C//DTD SVG 1.1//EN"
 "http://www.w3.org/Graphics/SVG/1.1/DTD/svg11.dtd">
<!-- Generated by graphviz version 2.40.1 (20161225.0304)
 -->
<!-- Title: include/lug/Graphics/Render/Target.inl Pages: 1 -->
<!--zoomable 430 -->
<svg id="main" version="1.1" xmlns="http://www.w3.org/2000/svg" xmlns:xlink="http://www.w3.org/1999/xlink" xml:space="preserve" onload="init(evt)">
<style type="text/css"><![CDATA[
.edge:hover path { stroke: red; }
.edge:hover polygon { stroke: red; fill: red; }
]]></style>
<script type="text/javascript"><![CDATA[
var edges = document.getElementsByTagName('g');
if (edges && edges.length) {
  for (var i=0;i<edges.length;i++) {
    if (edges[i].id.substr(0,4)=='edge') {
      edges[i].setAttribute('class','edge');
    }
  }
}
]]></script>
        <defs>
                <circle id="rim" cx="0" cy="0" r="7"/>
                <circle id="rim2" cx="0" cy="0" r="3.5"/>
                <g id="zoomPlus">
                        <use xlink:href="#rim" fill="#404040">
                                <set attributeName="fill" to="#808080" begin="zoomplus.mouseover" end="zoomplus.mouseout"/>
                        </use>
                        <path d="M-4,0h8M0,-4v8" fill="none" stroke="white" stroke-width="1.5" pointer-events="none"/>
                </g>
                <g id="zoomMin">
                        <use xlink:href="#rim" fill="#404040">
                                <set attributeName="fill" to="#808080" begin="zoomminus.mouseover" end="zoomminus.mouseout"/>
                        </use>
                        <path d="M-4,0h8" fill="none" stroke="white" stroke-width="1.5" pointer-events="none"/>
                </g>
                <g id="dirArrow">
                        <path fill="none" stroke="white" stroke-width="1.5" d="M0,-3.0v7 M-2.5,-0.5L0,-3.0L2.5,-0.5"/>
                </g>
               <g id="resetDef">
                       <use xlink:href="#rim2" fill="#404040">
                               <set attributeName="fill" to="#808080" begin="reset.mouseover" end="reset.mouseout"/>
                       </use>
               </g>
        </defs>

<script type="text/javascript">
var viewWidth = 880;
var viewHeight = 430;
var sectionId = 'dynsection-0';
</script>
<script xlink:href="svgpan.js"/>
<svg id="graph" class="graph">
<g id="viewport">
<title>include/lug/Graphics/Render/Target.inl</title>
<!-- Node1 -->
<g id="node1" class="node">
<title>Node1</title>
<polygon fill="#bfbfbf" stroke="#000000" points="380.5,-391.5 380.5,-421.5 499.5,-421.5 499.5,-391.5 380.5,-391.5"/>
<text text-anchor="start" x="388.5" y="-409.5" font-family="Helvetica,sans-Serif" font-size="10.00" fill="#000000">include/lug/Graphics</text>
<text text-anchor="middle" x="440" y="-398.5" font-family="Helvetica,sans-Serif" font-size="10.00" fill="#000000">/Render/Target.inl</text>
</g>
<!-- Node2 -->
<g id="node2" class="node">
<title>Node2</title>
<g id="a_node2"><a xlink:href="Target_8hpp.html" target="_top" xlink:title="include/lug/Graphics\l/Render/Target.hpp">
<polygon fill="none" stroke="#000000" points="380.5,-324.5 380.5,-354.5 499.5,-354.5 499.5,-324.5 380.5,-324.5"/>
<text text-anchor="start" x="388.5" y="-342.5" font-family="Helvetica,sans-Serif" font-size="10.00" fill="#000000">include/lug/Graphics</text>
<text text-anchor="middle" x="440" y="-331.5" font-family="Helvetica,sans-Serif" font-size="10.00" fill="#000000">/Render/Target.hpp</text>
</a>
</g>
</g>
<!-- Node1&#45;&gt;Node2 -->
<g id="edge1" class="edge">
<title>Node1&#45;&gt;Node2</title>
<path fill="none" stroke="#191970" d="M440,-381.0249C440,-372.128 440,-362.4287 440,-354.6432"/>
<polygon fill="#191970" stroke="#191970" points="436.5001,-381.2966 440,-391.2967 443.5001,-381.2967 436.5001,-381.2966"/>
</g>
<!-- Node3 -->
<g id="node3" class="node">
<title>Node3</title>
<g id="a_node3"><a xlink:href="Graphics_2Render_2Window_8hpp.html" target="_top" xlink:title="include/lug/Graphics\l/Render/Window.hpp">
<polygon fill="none" stroke="#000000" points="305,-257.5 305,-287.5 427,-287.5 427,-257.5 305,-257.5"/>
<text text-anchor="start" x="313" y="-275.5" font-family="Helvetica,sans-Serif" font-size="10.00" fill="#000000">include/lug/Graphics</text>
<text text-anchor="middle" x="366" y="-264.5" font-family="Helvetica,sans-Serif" font-size="10.00" fill="#000000">/Render/Window.hpp</text>
</a>
</g>
</g>
<!-- Node2&#45;&gt;Node3 -->
<g id="edge2" class="edge">
<title>Node2&#45;&gt;Node3</title>
<path fill="none" stroke="#191970" d="M415.6976,-317.4965C404.899,-307.7193 392.4582,-296.4554 382.7253,-287.6432"/>
<polygon fill="#191970" stroke="#191970" points="413.4461,-320.1794 423.2083,-324.2967 418.1444,-314.9903 413.4461,-320.1794"/>
</g>
<!-- Node16 -->
<g id="node16" class="node">
<title>Node16</title>
<g id="a_node16"><a xlink:href="Render_2View_8cpp.html" target="_top" xlink:title="src/lug/Graphics/Render\l/View.cpp">
<polygon fill="none" stroke="#000000" points="445.5,-257.5 445.5,-287.5 584.5,-287.5 584.5,-257.5 445.5,-257.5"/>
<text text-anchor="start" x="453.5" y="-275.5" font-family="Helvetica,sans-Serif" font-size="10.00" fill="#000000">src/lug/Graphics/Render</text>
<text text-anchor="middle" x="515" y="-264.5" font-family="Helvetica,sans-Serif" font-size="10.00" fill="#000000">/View.cpp</text>
</a>
</g>
</g>
<!-- Node2&#45;&gt;Node16 -->
<g id="edge21" class="edge">
<title>Node2&#45;&gt;Node16</title>
<path fill="none" stroke="#191970" d="M464.6308,-317.4965C475.5754,-307.7193 488.1843,-296.4554 498.0487,-287.6432"/>
<polygon fill="#191970" stroke="#191970" points="462.1445,-315.0243 457.0187,-324.2967 466.8081,-320.2447 462.1445,-315.0243"/>
</g>
<!-- Node4 -->
<g id="node4" class="node">
<title>Node4</title>
<g id="a_node4"><a xlink:href="Application_8hpp.html" target="_top" xlink:title="include/lug/Core/Application.hpp">
<polygon fill="none" stroke="#000000" points="0,-62 0,-81 180,-81 180,-62 0,-62"/>
<text text-anchor="middle" x="90" y="-69" font-family="Helvetica,sans-Serif" font-size="10.00" fill="#000000">include/lug/Core/Application.hpp</text>
</a>
</g>
</g>
<!-- Node3&#45;&gt;Node4 -->
<g id="edge3" class="edge">
<title>Node3&#45;&gt;Node4</title>
<path fill="none" stroke="#191970" d="M294.8453,-257.9588C236.3109,-242.2644 155.6555,-211.3939 109,-154 91.4776,-132.4446 89.472,-97.7497 89.6224,-81.0656"/>
<polygon fill="#191970" stroke="#191970" points="294.2128,-261.4105 304.7712,-260.5325 295.9698,-254.6346 294.2128,-261.4105"/>
</g>
<!-- Node6 -->
<g id="node6" class="node">
<title>Node6</title>
<g id="a_node6"><a xlink:href="Renderer_8hpp.html" target="_top" xlink:title="include/lug/Graphics\l/Renderer.hpp">
<polygon fill="none" stroke="#000000" points="306.5,-190.5 306.5,-220.5 425.5,-220.5 425.5,-190.5 306.5,-190.5"/>
<text text-anchor="start" x="314.5" y="-208.5" font-family="Helvetica,sans-Serif" font-size="10.00" fill="#000000">include/lug/Graphics</text>
<text text-anchor="middle" x="366" y="-197.5" font-family="Helvetica,sans-Serif" font-size="10.00" fill="#000000">/Renderer.hpp</text>
</a>
</g>
</g>
<!-- Node3&#45;&gt;Node6 -->
<g id="edge5" class="edge">
<title>Node3&#45;&gt;Node6</title>
<path fill="none" stroke="#191970" d="M366,-247.0249C366,-238.128 366,-228.4287 366,-220.6432"/>
<polygon fill="#191970" stroke="#191970" points="362.5001,-247.2966 366,-257.2967 369.5001,-247.2967 362.5001,-247.2966"/>
</g>
<!-- Node14 -->
<g id="node14" class="node">
<title>Node14</title>
<g id="a_node14"><a xlink:href="Graphics_2Vulkan_2Render_2Window_8hpp.html" target="_top" xlink:title="include/lug/Graphics\l/Vulkan/Render/Window.hpp">
<polygon fill="none" stroke="#000000" points="466,-190.5 466,-220.5 626,-220.5 626,-190.5 466,-190.5"/>
<text text-anchor="start" x="474" y="-208.5" font-family="Helvetica,sans-Serif" font-size="10.00" fill="#000000">include/lug/Graphics</text>
<text text-anchor="middle" x="546" y="-197.5" font-family="Helvetica,sans-Serif" font-size="10.00" fill="#000000">/Vulkan/Render/Window.hpp</text>
</a>
</g>
</g>
<!-- Node3&#45;&gt;Node14 -->
<g id="edge16" class="edge">
<title>Node3&#45;&gt;Node14</title>
<path fill="none" stroke="#191970" d="M416.0642,-253.865C444.24,-243.3773 478.9663,-230.4515 505.4283,-220.6017"/>
<polygon fill="#191970" stroke="#191970" points="414.5464,-250.6953 406.3955,-257.4639 416.9883,-257.2556 414.5464,-250.6953"/>
</g>
<!-- Node5 -->
<g id="node5" class="node">
<title>Node5</title>
<g id="a_node5"><a xlink:href="Application_8cpp.html" target="_top" xlink:title="src/lug/Core/Application.cpp">
<polygon fill="none" stroke="#000000" points="10.5,-.5 10.5,-19.5 169.5,-19.5 169.5,-.5 10.5,-.5"/>
<text text-anchor="middle" x="90" y="-7.5" font-family="Helvetica,sans-Serif" font-size="10.00" fill="#000000">src/lug/Core/Application.cpp</text>
</a>
</g>
</g>
<!-- Node4&#45;&gt;Node5 -->
<g id="edge4" class="edge">
<title>Node4&#45;&gt;Node5</title>
<path fill="none" stroke="#191970" d="M90,-51.7462C90,-41.0519 90,-28.314 90,-19.7449"/>
<polygon fill="#191970" stroke="#191970" points="86.5001,-51.8906 90,-61.8906 93.5001,-51.8907 86.5001,-51.8906"/>
</g>
<!-- Node7 -->
<g id="node7" class="node">
<title>Node7</title>
<g id="a_node7"><a xlink:href="Graphics_8hpp.html" target="_top" xlink:title="include/lug/Graphics\l/Graphics.hpp">
<polygon fill="none" stroke="#000000" points="306.5,-123.5 306.5,-153.5 425.5,-153.5 425.5,-123.5 306.5,-123.5"/>
<text text-anchor="start" x="314.5" y="-141.5" font-family="Helvetica,sans-Serif" font-size="10.00" fill="#000000">include/lug/Graphics</text>
<text text-anchor="middle" x="366" y="-130.5" font-family="Helvetica,sans-Serif" font-size="10.00" fill="#000000">/Graphics.hpp</text>
</a>
</g>
</g>
<!-- Node6&#45;&gt;Node7 -->
<g id="edge6" class="edge">
<title>Node6&#45;&gt;Node7</title>
<path fill="none" stroke="#191970" d="M366,-180.0249C366,-171.128 366,-161.4287 366,-153.6432"/>
<polygon fill="#191970" stroke="#191970" points="362.5001,-180.2966 366,-190.2967 369.5001,-180.2967 362.5001,-180.2966"/>
</g>
<!-- Node10 -->
<g id="node10" class="node">
<title>Node10</title>
<g id="a_node10"><a xlink:href="Vulkan_2Renderer_8hpp.html" target="_top" xlink:title="include/lug/Graphics\l/Vulkan/Renderer.hpp">
<polygon fill="none" stroke="#000000" points="482.5,-123.5 482.5,-153.5 609.5,-153.5 609.5,-123.5 482.5,-123.5"/>
<text text-anchor="start" x="490.5" y="-141.5" font-family="Helvetica,sans-Serif" font-size="10.00" fill="#000000">include/lug/Graphics</text>
<text text-anchor="middle" x="546" y="-130.5" font-family="Helvetica,sans-Serif" font-size="10.00" fill="#000000">/Vulkan/Renderer.hpp</text>
</a>
</g>
</g>
<!-- Node6&#45;&gt;Node10 -->
<g id="edge10" class="edge">
<title>Node6&#45;&gt;Node10</title>
<path fill="none" stroke="#191970" d="M416.0642,-186.865C444.24,-176.3773 478.9663,-163.4515 505.4283,-153.6017"/>
<polygon fill="#191970" stroke="#191970" points="414.5464,-183.6953 406.3955,-190.4639 416.9883,-190.2556 414.5464,-183.6953"/>
</g>
<!-- Node13 -->
<g id="node13" class="node">
<title>Node13</title>
<g id="a_node13"><a xlink:href="Renderer_8cpp.html" target="_top" xlink:title="src/lug/Graphics/Renderer.cpp">
<polygon fill="none" stroke="#000000" points="118,-129 118,-148 288,-148 288,-129 118,-129"/>
<text text-anchor="middle" x="203" y="-136" font-family="Helvetica,sans-Serif" font-size="10.00" fill="#000000">src/lug/Graphics/Renderer.cpp</text>
</a>
</g>
</g>
<!-- Node6&#45;&gt;Node13 -->
<g id="edge15" class="edge">
<title>Node6&#45;&gt;Node13</title>
<path fill="none" stroke="#191970" d="M319.8352,-186.5243C289.3414,-173.99 250.6632,-158.0916 226.3648,-148.1039"/>
<polygon fill="#191970" stroke="#191970" points="318.8398,-189.8992 329.4196,-190.4639 321.5011,-183.4248 318.8398,-189.8992"/>
</g>
<!-- Node7&#45;&gt;Node4 -->
<g id="edge7" class="edge">
<title>Node7&#45;&gt;Node4</title>
<path fill="none" stroke="#191970" d="M296.4752,-121.6226C243.6572,-108.8008 172.9135,-91.6276 129.4467,-81.0758"/>
<polygon fill="#191970" stroke="#191970" points="295.9085,-125.0866 306.4519,-124.0445 297.5598,-118.2842 295.9085,-125.0866"/>
</g>
<!-- Node8 -->
<g id="node8" class="node">
<title>Node8</title>
<g id="a_node8"><a xlink:href="Graphics_8cpp.html" target="_top" xlink:title="src/lug/Graphics/Graphics.cpp">
<polygon fill="none" stroke="#000000" points="198,-62 198,-81 366,-81 366,-62 198,-62"/>
<text text-anchor="middle" x="282" y="-69" font-family="Helvetica,sans-Serif" font-size="10.00" fill="#000000">src/lug/Graphics/Graphics.cpp</text>
</a>
</g>
</g>
<!-- Node7&#45;&gt;Node8 -->
<g id="edge8" class="edge">
<title>Node7&#45;&gt;Node8</title>
<path fill="none" stroke="#191970" d="M338.8903,-116.8767C323.7451,-104.7967 305.6325,-90.3498 293.9794,-81.055"/>
<polygon fill="#191970" stroke="#191970" points="336.9388,-119.7973 346.9391,-123.2967 341.3038,-114.3248 336.9388,-119.7973"/>
</g>
<!-- Node9 -->
<g id="node9" class="node">
<title>Node9</title>
<g id="a_node9"><a xlink:href="Vulkan_2Renderer_8cpp.html" target="_top" xlink:title="src/lug/Graphics/Vulkan\l/Renderer.cpp">
<polygon fill="none" stroke="#000000" points="384.5,-56.5 384.5,-86.5 521.5,-86.5 521.5,-56.5 384.5,-56.5"/>
<text text-anchor="start" x="392.5" y="-74.5" font-family="Helvetica,sans-Serif" font-size="10.00" fill="#000000">src/lug/Graphics/Vulkan</text>
<text text-anchor="middle" x="453" y="-63.5" font-family="Helvetica,sans-Serif" font-size="10.00" fill="#000000">/Renderer.cpp</text>
</a>
</g>
</g>
<!-- Node7&#45;&gt;Node9 -->
<g id="edge9" class="edge">
<title>Node7&#45;&gt;Node9</title>
<path fill="none" stroke="#191970" d="M393.8344,-117.0643C406.6982,-107.1577 421.6715,-95.6265 433.3365,-86.6432"/>
<polygon fill="#191970" stroke="#191970" points="391.529,-114.4221 385.7416,-123.2967 395.8001,-119.9681 391.529,-114.4221"/>
</g>
<!-- Node10&#45;&gt;Node8 -->
<g id="edge11" class="edge">
<title>Node10&#45;&gt;Node8</title>
<path fill="none" stroke="#191970" d="M476.9103,-120.9659C426.5724,-108.1907 360.3027,-91.3723 319.4537,-81.0053"/>
<polygon fill="#191970" stroke="#191970" points="476.1995,-124.3964 486.7532,-123.4639 477.9215,-117.6115 476.1995,-124.3964"/>
</g>
<!-- Node10&#45;&gt;Node9 -->
<g id="edge14" class="edge">
<title>Node10&#45;&gt;Node9</title>
<path fill="none" stroke="#191970" d="M516.6382,-117.3469C502.8002,-107.3776 486.6078,-95.7121 474.0196,-86.6432"/>
<polygon fill="#191970" stroke="#191970" points="514.7373,-120.2911 524.8969,-123.2967 518.829,-114.6115 514.7373,-120.2911"/>
</g>
<!-- Node11 -->
<g id="node11" class="node">
<title>Node11</title>
<g id="a_node11"><a xlink:href="Forward_8cpp.html" target="_top" xlink:title="src/lug/Graphics/Vulkan\l/Render/Technique/Forward.cpp">
<polygon fill="none" stroke="#000000" points="539.5,-56.5 539.5,-86.5 716.5,-86.5 716.5,-56.5 539.5,-56.5"/>
<text text-anchor="start" x="547.5" y="-74.5" font-family="Helvetica,sans-Serif" font-size="10.00" fill="#000000">src/lug/Graphics/Vulkan</text>
<text text-anchor="middle" x="628" y="-63.5" font-family="Helvetica,sans-Serif" font-size="10.00" fill="#000000">/Render/Technique/Forward.cpp</text>
</a>
</g>
</g>
<!-- Node10&#45;&gt;Node11 -->
<g id="edge12" class="edge">
<title>Node10&#45;&gt;Node11</title>
<path fill="none" stroke="#191970" d="M572.5817,-116.7808C584.6278,-106.9383 598.5767,-95.541 609.4666,-86.6432"/>
<polygon fill="#191970" stroke="#191970" points="570.1363,-114.2591 564.6071,-123.2967 574.5654,-119.6797 570.1363,-114.2591"/>
</g>
<!-- Node12 -->
<g id="node12" class="node">
<title>Node12</title>
<g id="a_node12"><a xlink:href="Graphics_2Vulkan_2Render_2Window_8cpp.html" target="_top" xlink:title="src/lug/Graphics/Vulkan\l/Render/Window.cpp">
<polygon fill="none" stroke="#000000" points="734.5,-56.5 734.5,-86.5 871.5,-86.5 871.5,-56.5 734.5,-56.5"/>
<text text-anchor="start" x="742.5" y="-74.5" font-family="Helvetica,sans-Serif" font-size="10.00" fill="#000000">src/lug/Graphics/Vulkan</text>
<text text-anchor="middle" x="803" y="-63.5" font-family="Helvetica,sans-Serif" font-size="10.00" fill="#000000">/Render/Window.cpp</text>
</a>
</g>
</g>
<!-- Node10&#45;&gt;Node12 -->
<g id="edge13" class="edge">
<title>Node10&#45;&gt;Node12</title>
<path fill="none" stroke="#191970" d="M613.5588,-120.8874C654.449,-110.2273 706.0533,-96.774 745.0726,-86.6017"/>
<polygon fill="#191970" stroke="#191970" points="612.4694,-117.5543 603.6758,-123.4639 614.2354,-124.3279 612.4694,-117.5543"/>
</g>
<!-- Node14&#45;&gt;Node9 -->
<g id="edge20" class="edge">
<title>Node14&#45;&gt;Node9</title>
<path fill="none" stroke="#191970" d="M507.0504,-184.9136C494.8802,-176.7603 482.4439,-166.3538 474,-154 459.9888,-133.5011 455.3234,-104.3772 453.7715,-86.7768"/>
<polygon fill="#191970" stroke="#191970" points="505.4814,-188.0625 515.8042,-190.4479 509.2221,-182.1457 505.4814,-188.0625"/>
</g>
<!-- Node14&#45;&gt;Node10 -->
<g id="edge17" class="edge">
<title>Node14&#45;&gt;Node10</title>
<path fill="none" stroke="#191970" d="M546,-180.0249C546,-171.128 546,-161.4287 546,-153.6432"/>
<polygon fill="#191970" stroke="#191970" points="542.5001,-180.2966 546,-190.2967 549.5001,-180.2967 542.5001,-180.2966"/>
</g>
<!-- Node14&#45;&gt;Node12 -->
<g id="edge19" class="edge">
<title>Node14&#45;&gt;Node12</title>
<path fill="none" stroke="#191970" d="M636.2681,-194.1744C690.7361,-185.6515 753.4567,-172.2908 774,-154 793.503,-136.6354 799.8899,-105.3627 801.9815,-86.7095"/>
<polygon fill="#191970" stroke="#191970" points="635.5635,-190.7413 626.2058,-195.7096 636.6193,-197.6612 635.5635,-190.7413"/>
</g>
<!-- Node15 -->
<g id="node15" class="node">
<title>Node15</title>
<g id="a_node15"><a xlink:href="Vulkan_2Render_2View_8cpp.html" target="_top" xlink:title="src/lug/Graphics/Vulkan\l/Render/View.cpp">
<polygon fill="none" stroke="#000000" points="627.5,-123.5 627.5,-153.5 764.5,-153.5 764.5,-123.5 627.5,-123.5"/>
<text text-anchor="start" x="635.5" y="-141.5" font-family="Helvetica,sans-Serif" font-size="10.00" fill="#000000">src/lug/Graphics/Vulkan</text>
<text text-anchor="middle" x="696" y="-130.5" font-family="Helvetica,sans-Serif" font-size="10.00" fill="#000000">/Render/View.cpp</text>
</a>
</g>
</g>
<!-- Node14&#45;&gt;Node15 -->
<g id="edge18" class="edge">
<title>Node14&#45;&gt;Node15</title>
<path fill="none" stroke="#191970" d="M588.9555,-186.3132C612.2089,-175.9267 640.5237,-163.2794 662.1903,-153.6017"/>
<polygon fill="#191970" stroke="#191970" points="587.3661,-183.1898 579.6629,-190.4639 590.2209,-189.5812 587.3661,-183.1898"/>
</g>
</g>
</svg>
        <g id="navigator" transform="translate(0 0)" fill="#404254">
                <rect fill="#f2f5e9" fill-opacity="0.5" stroke="#606060" stroke-width=".5" x="0" y="0" width="60" height="60"/>
                <use id="zoomplus" xlink:href="#zoomPlus" x="17" y="9" onmousedown="handleZoom(evt,'in')"/>
                <use id="zoomminus" xlink:href="#zoomMin" x="42" y="9" onmousedown="handleZoom(evt,'out')"/>
                <use id="reset" xlink:href="#resetDef" x="30" y="36" onmousedown="handleReset()"/>
                <g id="arrowUp" xlink:href="#dirArrow" transform="translate(30 24)" onmousedown="handlePan(0,-1)">
                  <use xlink:href="#rim" fill="#404040">
                        <set attributeName="fill" to="#808080" begin="arrowUp.mouseover" end="arrowUp.mouseout"/>
                  </use>
                  <path fill="none" stroke="white" stroke-width="1.5" d="M0,-3.0v7 M-2.5,-0.5L0,-3.0L2.5,-0.5"/>
                </g>
                <g id="arrowRight" xlink:href="#dirArrow" transform="rotate(90) translate(36 -43)" onmousedown="handlePan(1,0)">
                  <use xlink:href="#rim" fill="#404040">
                        <set attributeName="fill" to="#808080" begin="arrowRight.mouseover" end="arrowRight.mouseout"/>
                  </use>
                  <path fill="none" stroke="white" stroke-width="1.5" d="M0,-3.0v7 M-2.5,-0.5L0,-3.0L2.5,-0.5"/>
                </g>
                <g id="arrowDown" xlink:href="#dirArrow" transform="rotate(180) translate(-30 -48)" onmousedown="handlePan(0,1)">
                  <use xlink:href="#rim" fill="#404040">
                        <set attributeName="fill" to="#808080" begin="arrowDown.mouseover" end="arrowDown.mouseout"/>
                  </use>
                  <path fill="none" stroke="white" stroke-width="1.5" d="M0,-3.0v7 M-2.5,-0.5L0,-3.0L2.5,-0.5"/>
                </g>
                <g id="arrowLeft" xlink:href="#dirArrow" transform="rotate(270) translate(-36 17)" onmousedown="handlePan(-1,0)">
                  <use xlink:href="#rim" fill="#404040">
                        <set attributeName="fill" to="#808080" begin="arrowLeft.mouseover" end="arrowLeft.mouseout"/>
                  </use>
                  <path fill="none" stroke="white" stroke-width="1.5" d="M0,-3.0v7 M-2.5,-0.5L0,-3.0L2.5,-0.5"/>
                </g>
        </g>
        <svg viewBox="0 0 15 15" width="100%" height="30px" preserveAspectRatio="xMaxYMin meet">
         <g id="arrow_out" transform="scale(0.3 0.3)">
          <a xlink:href="Target_8inl__dep__incl_org.svg" target="_base">
           <rect id="button" ry="5" rx="5" y="6" x="6" height="38" width="38"
                fill="#f2f5e9" fill-opacity="0.5" stroke="#606060" stroke-width="1.0"/>
           <path id="arrow"
             d="M 11.500037,31.436501 C 11.940474,20.09759 22.043105,11.32322 32.158766,21.979434 L 37.068811,17.246167 C 37.068811,17.246167 37.088388,32 37.088388,32 L 22.160133,31.978069 C 22.160133,31.978069 26.997745,27.140456 26.997745,27.140456 C 18.528582,18.264221 13.291696,25.230495 11.500037,31.436501 z"
             style="fill:#404040;"/>
          </a>
         </g>
        </svg>
</svg>
