<?xml version="1.0" encoding="UTF-8" standalone="no"?>
<!DOCTYPE svg PUBLIC "-//W3C//DTD SVG 1.1//EN"
 "http://www.w3.org/Graphics/SVG/1.1/DTD/svg11.dtd">
<!-- Generated by graphviz version 2.40.1 (20161225.0304)
 -->
<!-- Title: include/lug/Graphics/Vulkan/Render/Technique/Technique.hpp Pages: 1 -->
<svg width="529pt" height="195pt"
 viewBox="0.00 0.00 529.00 195.00" xmlns="http://www.w3.org/2000/svg" xmlns:xlink="http://www.w3.org/1999/xlink">
<g id="graph0" class="graph" transform="scale(1 1) rotate(0) translate(4 191)">
<title>include/lug/Graphics/Vulkan/Render/Technique/Technique.hpp</title>
<!-- Node44 -->
<g id="node1" class="node">
<title>Node44</title>
<polygon fill="#bfbfbf" stroke="#000000" points="169,-145.5 169,-186.5 318,-186.5 318,-145.5 169,-145.5"/>
<text text-anchor="start" x="177" y="-174.5" font-family="Helvetica,sans-Serif" font-size="10.00" fill="#000000">include/lug/Graphics</text>
<text text-anchor="start" x="177" y="-163.5" font-family="Helvetica,sans-Serif" font-size="10.00" fill="#000000">/Vulkan/Render/Technique</text>
<text text-anchor="middle" x="243.5" y="-152.5" font-family="Helvetica,sans-Serif" font-size="10.00" fill="#000000">/Technique.hpp</text>
</g>
<!-- Node45 -->
<g id="node2" class="node">
<title>Node45</title>
<g id="a_node2"><a xlink:href="Forward_8hpp.html" target="_top" xlink:title="include/lug/Graphics\l/Vulkan/Render/Technique\l/Forward.hpp">
<polygon fill="none" stroke="#000000" points="4,-67.5 4,-108.5 153,-108.5 153,-67.5 4,-67.5"/>
<text text-anchor="start" x="12" y="-96.5" font-family="Helvetica,sans-Serif" font-size="10.00" fill="#000000">include/lug/Graphics</text>
<text text-anchor="start" x="12" y="-85.5" font-family="Helvetica,sans-Serif" font-size="10.00" fill="#000000">/Vulkan/Render/Technique</text>
<text text-anchor="middle" x="78.5" y="-74.5" font-family="Helvetica,sans-Serif" font-size="10.00" fill="#000000">/Forward.hpp</text>
</a>
</g>
</g>
<!-- Node44&#45;&gt;Node45 -->
<g id="edge1" class="edge">
<title>Node44&#45;&gt;Node45</title>
<path fill="none" stroke="#191970" d="M190.45,-140.9218C168.3117,-130.4564 142.9166,-118.4515 121.9159,-108.5239"/>
<polygon fill="#191970" stroke="#191970" points="189.1796,-144.1926 199.7162,-145.3022 192.1713,-137.8641 189.1796,-144.1926"/>
</g>
<!-- Node48 -->
<g id="node5" class="node">
<title>Node48</title>
<g id="a_node5"><a xlink:href="Vulkan_2Render_2View_8hpp.html" target="_top" xlink:title="include/lug/Graphics\l/Vulkan/Render/View.hpp">
<polygon fill="none" stroke="#000000" points="171,-73 171,-103 316,-103 316,-73 171,-73"/>
<text text-anchor="start" x="179" y="-91" font-family="Helvetica,sans-Serif" font-size="10.00" fill="#000000">include/lug/Graphics</text>
<text text-anchor="middle" x="243.5" y="-80" font-family="Helvetica,sans-Serif" font-size="10.00" fill="#000000">/Vulkan/Render/View.hpp</text>
</a>
</g>
</g>
<!-- Node44&#45;&gt;Node48 -->
<g id="edge4" class="edge">
<title>Node44&#45;&gt;Node48</title>
<path fill="none" stroke="#191970" d="M243.5,-135.0187C243.5,-124.1033 243.5,-112.3119 243.5,-103.2679"/>
<polygon fill="#191970" stroke="#191970" points="240.0001,-135.0974 243.5,-145.0974 247.0001,-135.0975 240.0001,-135.0974"/>
</g>
<!-- Node50 -->
<g id="node7" class="node">
<title>Node50</title>
<g id="a_node7"><a xlink:href="Technique_8cpp.html" target="_top" xlink:title="src/lug/Graphics/Vulkan\l/Render/Technique/Technique.cpp">
<polygon fill="none" stroke="#000000" points="334,-73 334,-103 521,-103 521,-73 334,-73"/>
<text text-anchor="start" x="342" y="-91" font-family="Helvetica,sans-Serif" font-size="10.00" fill="#000000">src/lug/Graphics/Vulkan</text>
<text text-anchor="middle" x="427.5" y="-80" font-family="Helvetica,sans-Serif" font-size="10.00" fill="#000000">/Render/Technique/Technique.cpp</text>
</a>
</g>
</g>
<!-- Node44&#45;&gt;Node50 -->
<g id="edge8" class="edge">
<title>Node44&#45;&gt;Node50</title>
<path fill="none" stroke="#191970" d="M301.7237,-141.3182C331.3138,-128.7746 366.3171,-113.9362 391.8747,-103.102"/>
<polygon fill="#191970" stroke="#191970" points="300.1664,-138.1768 292.3255,-145.3022 302.8985,-144.6216 300.1664,-138.1768"/>
</g>
<!-- Node46 -->
<g id="node3" class="node">
<title>Node46</title>
<g id="a_node3"><a xlink:href="Forward_8cpp.html" target="_top" xlink:title="src/lug/Graphics/Vulkan\l/Render/Technique/Forward.cpp">
<polygon fill="none" stroke="#000000" points="155,-.5 155,-30.5 332,-30.5 332,-.5 155,-.5"/>
<text text-anchor="start" x="163" y="-18.5" font-family="Helvetica,sans-Serif" font-size="10.00" fill="#000000">src/lug/Graphics/Vulkan</text>
<text text-anchor="middle" x="243.5" y="-7.5" font-family="Helvetica,sans-Serif" font-size="10.00" fill="#000000">/Render/Technique/Forward.cpp</text>
</a>
</g>
</g>
<!-- Node45&#45;&gt;Node46 -->
<g id="edge2" class="edge">
<title>Node45&#45;&gt;Node46</title>
<path fill="none" stroke="#191970" d="M134.6229,-63.34C159.3481,-52.4758 187.6059,-40.0595 209.1365,-30.5991"/>
<polygon fill="#191970" stroke="#191970" points="133.0882,-60.1912 125.341,-67.4183 135.9042,-66.5999 133.0882,-60.1912"/>
</g>
<!-- Node47 -->
<g id="node4" class="node">
<title>Node47</title>
<g id="a_node4"><a xlink:href="Vulkan_2Render_2View_8cpp.html" target="_top" xlink:title="src/lug/Graphics/Vulkan\l/Render/View.cpp">
<polygon fill="none" stroke="#000000" points="0,-.5 0,-30.5 137,-30.5 137,-.5 0,-.5"/>
<text text-anchor="start" x="8" y="-18.5" font-family="Helvetica,sans-Serif" font-size="10.00" fill="#000000">src/lug/Graphics/Vulkan</text>
<text text-anchor="middle" x="68.5" y="-7.5" font-family="Helvetica,sans-Serif" font-size="10.00" fill="#000000">/Render/View.cpp</text>
</a>
</g>
</g>
<!-- Node45&#45;&gt;Node47 -->
<g id="edge3" class="edge">
<title>Node45&#45;&gt;Node47</title>
<path fill="none" stroke="#191970" d="M74.2694,-57.3279C72.9948,-48.0871 71.6518,-38.3508 70.5826,-30.5991"/>
<polygon fill="#191970" stroke="#191970" points="70.8275,-57.9904 75.6611,-67.4183 77.7619,-57.0339 70.8275,-57.9904"/>
</g>
<!-- Node48&#45;&gt;Node46 -->
<g id="edge5" class="edge">
<title>Node48&#45;&gt;Node46</title>
<path fill="none" stroke="#191970" d="M243.5,-62.8409C243.5,-52.0601 243.5,-39.8309 243.5,-30.5028"/>
<polygon fill="#191970" stroke="#191970" points="240.0001,-62.9779 243.5,-72.978 247.0001,-62.978 240.0001,-62.9779"/>
</g>
<!-- Node48&#45;&gt;Node47 -->
<g id="edge6" class="edge">
<title>Node48&#45;&gt;Node47</title>
<path fill="none" stroke="#191970" d="M197.73,-69.0382C168.7072,-57.0144 131.6861,-41.6771 104.7137,-30.5028"/>
<polygon fill="#191970" stroke="#191970" points="196.6617,-72.384 207.2399,-72.978 199.3409,-65.917 196.6617,-72.384"/>
</g>
<!-- Node49 -->
<g id="node6" class="node">
<title>Node49</title>
<g id="a_node6"><a xlink:href="Graphics_2Vulkan_2Render_2Window_8cpp.html" target="_top" xlink:title="src/lug/Graphics/Vulkan\l/Render/Window.cpp">
<polygon fill="none" stroke="#000000" points="350,-.5 350,-30.5 487,-30.5 487,-.5 350,-.5"/>
<text text-anchor="start" x="358" y="-18.5" font-family="Helvetica,sans-Serif" font-size="10.00" fill="#000000">src/lug/Graphics/Vulkan</text>
<text text-anchor="middle" x="418.5" y="-7.5" font-family="Helvetica,sans-Serif" font-size="10.00" fill="#000000">/Render/Window.cpp</text>
</a>
</g>
</g>
<!-- Node48&#45;&gt;Node49 -->
<g id="edge7" class="edge">
<title>Node48&#45;&gt;Node49</title>
<path fill="none" stroke="#191970" d="M289.27,-69.0382C318.2928,-57.0144 355.3139,-41.6771 382.2863,-30.5028"/>
<polygon fill="#191970" stroke="#191970" points="287.6591,-65.917 279.7601,-72.978 290.3383,-72.384 287.6591,-65.917"/>
</g>
</g>
</svg>
