<?xml version="1.0" encoding="UTF-8" standalone="no"?>
<!DOCTYPE svg PUBLIC "-//W3C//DTD SVG 1.1//EN"
 "http://www.w3.org/Graphics/SVG/1.1/DTD/svg11.dtd">
<!-- Generated by graphviz version 2.40.1 (20161225.0304)
 -->
<!-- Title: src/lug/System/Time.cpp Pages: 1 -->
<svg width="356pt" height="252pt"
 viewBox="0.00 0.00 355.50 252.00" xmlns="http://www.w3.org/2000/svg" xmlns:xlink="http://www.w3.org/1999/xlink">
<g id="graph0" class="graph" transform="scale(1 1) rotate(0) translate(4 248)">
<title>src/lug/System/Time.cpp</title>
<!-- Node0 -->
<g id="node1" class="node">
<title>Node0</title>
<polygon fill="#bfbfbf" stroke="#000000" points="6.5,-224.5 6.5,-243.5 149.5,-243.5 149.5,-224.5 6.5,-224.5"/>
<text text-anchor="middle" x="78" y="-231.5" font-family="Helvetica,sans-Serif" font-size="10.00" fill="#000000">src/lug/System/Time.cpp</text>
</g>
<!-- Node1 -->
<g id="node2" class="node">
<title>Node1</title>
<polygon fill="none" stroke="#bfbfbf" points="0,-168.5 0,-187.5 50,-187.5 50,-168.5 0,-168.5"/>
<text text-anchor="middle" x="25" y="-175.5" font-family="Helvetica,sans-Serif" font-size="10.00" fill="#000000">chrono</text>
</g>
<!-- Node0&#45;&gt;Node1 -->
<g id="edge1" class="edge">
<title>Node0&#45;&gt;Node1</title>
<path fill="none" stroke="#191970" d="M68.7681,-224.2455C61.1683,-216.2155 50.2123,-204.6394 41.1632,-195.0781"/>
<polygon fill="#191970" stroke="#191970" points="43.542,-192.4998 34.1261,-187.6427 38.4579,-197.3115 43.542,-192.4998"/>
</g>
<!-- Node2 -->
<g id="node3" class="node">
<title>Node2</title>
<g id="a_node3"><a xlink:href="Clock_8hpp.html" target="_top" xlink:title="lug/System/Clock.hpp">
<polygon fill="none" stroke="#000000" points="68.5,-168.5 68.5,-187.5 195.5,-187.5 195.5,-168.5 68.5,-168.5"/>
<text text-anchor="middle" x="132" y="-175.5" font-family="Helvetica,sans-Serif" font-size="10.00" fill="#000000">lug/System/Clock.hpp</text>
</a>
</g>
</g>
<!-- Node0&#45;&gt;Node2 -->
<g id="edge2" class="edge">
<title>Node0&#45;&gt;Node2</title>
<path fill="none" stroke="#191970" d="M87.4061,-224.2455C95.1493,-216.2155 106.312,-204.6394 115.5318,-195.0781"/>
<polygon fill="#191970" stroke="#191970" points="118.2798,-197.2706 122.7017,-187.6427 113.2409,-192.4117 118.2798,-197.2706"/>
</g>
<!-- Node3 -->
<g id="node4" class="node">
<title>Node3</title>
<g id="a_node4"><a xlink:href="System_2Export_8hpp.html" target="_top" xlink:title="lug/System/Export.hpp">
<polygon fill="none" stroke="#000000" points="10,-56.5 10,-75.5 142,-75.5 142,-56.5 10,-56.5"/>
<text text-anchor="middle" x="76" y="-63.5" font-family="Helvetica,sans-Serif" font-size="10.00" fill="#000000">lug/System/Export.hpp</text>
</a>
</g>
</g>
<!-- Node2&#45;&gt;Node3 -->
<g id="edge3" class="edge">
<title>Node2&#45;&gt;Node3</title>
<path fill="none" stroke="#191970" d="M126.7659,-168.1726C121.8464,-158.8883 114.316,-144.5526 108,-132 100.0639,-116.2274 91.3371,-98.1788 85.0043,-84.9468"/>
<polygon fill="#191970" stroke="#191970" points="88.1457,-83.4029 80.6809,-75.8844 81.8279,-86.417 88.1457,-83.4029"/>
</g>
<!-- Node5 -->
<g id="node6" class="node">
<title>Node5</title>
<g id="a_node6"><a xlink:href="Time_8hpp.html" target="_top" xlink:title="lug/System/Time.hpp">
<polygon fill="none" stroke="#000000" points="117.5,-112.5 117.5,-131.5 242.5,-131.5 242.5,-112.5 117.5,-112.5"/>
<text text-anchor="middle" x="180" y="-119.5" font-family="Helvetica,sans-Serif" font-size="10.00" fill="#000000">lug/System/Time.hpp</text>
</a>
</g>
</g>
<!-- Node2&#45;&gt;Node5 -->
<g id="edge5" class="edge">
<title>Node2&#45;&gt;Node5</title>
<path fill="none" stroke="#191970" d="M140.361,-168.2455C147.175,-160.2958 156.9681,-148.8706 165.1152,-139.3656"/>
<polygon fill="#191970" stroke="#191970" points="167.8843,-141.513 171.7349,-131.6427 162.5695,-136.9575 167.8843,-141.513"/>
</g>
<!-- Node4 -->
<g id="node5" class="node">
<title>Node4</title>
<g id="a_node5"><a xlink:href="Config_8hpp.html" target="_top" xlink:title="lug/Config.hpp">
<polygon fill="none" stroke="#000000" points="31.5,-.5 31.5,-19.5 120.5,-19.5 120.5,-.5 31.5,-.5"/>
<text text-anchor="middle" x="76" y="-7.5" font-family="Helvetica,sans-Serif" font-size="10.00" fill="#000000">lug/Config.hpp</text>
</a>
</g>
</g>
<!-- Node3&#45;&gt;Node4 -->
<g id="edge4" class="edge">
<title>Node3&#45;&gt;Node4</title>
<path fill="none" stroke="#191970" d="M76,-56.2455C76,-48.9382 76,-38.6944 76,-29.7046"/>
<polygon fill="#191970" stroke="#191970" points="79.5001,-29.6426 76,-19.6427 72.5001,-29.6427 79.5001,-29.6426"/>
</g>
<!-- Node5&#45;&gt;Node3 -->
<g id="edge7" class="edge">
<title>Node5&#45;&gt;Node3</title>
<path fill="none" stroke="#191970" d="M161.8846,-112.2455C145.555,-103.4527 121.329,-90.4079 102.7661,-80.4125"/>
<polygon fill="#191970" stroke="#191970" points="104.3719,-77.3021 93.9078,-75.6427 101.0532,-83.4654 104.3719,-77.3021"/>
</g>
<!-- Node6 -->
<g id="node7" class="node">
<title>Node6</title>
<polygon fill="none" stroke="#bfbfbf" points="160,-56.5 160,-75.5 210,-75.5 210,-56.5 160,-56.5"/>
<text text-anchor="middle" x="185" y="-63.5" font-family="Helvetica,sans-Serif" font-size="10.00" fill="#000000">cstdint</text>
</g>
<!-- Node5&#45;&gt;Node6 -->
<g id="edge6" class="edge">
<title>Node5&#45;&gt;Node6</title>
<path fill="none" stroke="#191970" d="M180.8709,-112.2455C181.5234,-104.9382 182.438,-94.6944 183.2407,-85.7046"/>
<polygon fill="#191970" stroke="#191970" points="186.7358,-85.9143 184.139,-75.6427 179.7635,-85.2918 186.7358,-85.9143"/>
</g>
<!-- Node7 -->
<g id="node8" class="node">
<title>Node7</title>
<g id="a_node8"><a xlink:href="Time_8inl.html" target="_top" xlink:title="lug/System/Time.inl">
<polygon fill="none" stroke="#000000" points="228.5,-56.5 228.5,-75.5 347.5,-75.5 347.5,-56.5 228.5,-56.5"/>
<text text-anchor="middle" x="288" y="-63.5" font-family="Helvetica,sans-Serif" font-size="10.00" fill="#000000">lug/System/Time.inl</text>
</a>
</g>
</g>
<!-- Node5&#45;&gt;Node7 -->
<g id="edge8" class="edge">
<title>Node5&#45;&gt;Node7</title>
<path fill="none" stroke="#191970" d="M198.8122,-112.2455C215.8473,-103.4125 241.1575,-90.2887 260.4681,-80.2758"/>
<polygon fill="#191970" stroke="#191970" points="262.137,-83.353 269.4034,-75.6427 258.9147,-77.1388 262.137,-83.353"/>
</g>
</g>
</svg>
