<?xml version="1.0" encoding="UTF-8" standalone="no"?>
<!DOCTYPE svg PUBLIC "-//W3C//DTD SVG 1.1//EN"
 "http://www.w3.org/Graphics/SVG/1.1/DTD/svg11.dtd">
<!-- Generated by graphviz version 2.40.1 (20161225.0304)
 -->
<!-- Title: include/lug/Math/Geometry/Transform.inl Pages: 1 -->
<svg width="993pt" height="173pt"
 viewBox="0.00 0.00 992.50 173.00" xmlns="http://www.w3.org/2000/svg" xmlns:xlink="http://www.w3.org/1999/xlink">
<g id="graph0" class="graph" transform="scale(1 1) rotate(0) translate(4 169)">
<title>include/lug/Math/Geometry/Transform.inl</title>
<!-- Node1 -->
<g id="node1" class="node">
<title>Node1</title>
<polygon fill="#bfbfbf" stroke="#000000" points="410,-134.5 410,-164.5 564,-164.5 564,-134.5 410,-134.5"/>
<text text-anchor="start" x="418" y="-152.5" font-family="Helvetica,sans-Serif" font-size="10.00" fill="#000000">include/lug/Math/Geometry</text>
<text text-anchor="middle" x="487" y="-141.5" font-family="Helvetica,sans-Serif" font-size="10.00" fill="#000000">/Transform.inl</text>
</g>
<!-- Node2 -->
<g id="node2" class="node">
<title>Node2</title>
<g id="a_node2"><a xlink:href="Transform_8hpp.html" target="_top" xlink:title="include/lug/Math/Geometry\l/Transform.hpp">
<polygon fill="none" stroke="#000000" points="410,-67.5 410,-97.5 564,-97.5 564,-67.5 410,-67.5"/>
<text text-anchor="start" x="418" y="-85.5" font-family="Helvetica,sans-Serif" font-size="10.00" fill="#000000">include/lug/Math/Geometry</text>
<text text-anchor="middle" x="487" y="-74.5" font-family="Helvetica,sans-Serif" font-size="10.00" fill="#000000">/Transform.hpp</text>
</a>
</g>
</g>
<!-- Node1&#45;&gt;Node2 -->
<g id="edge1" class="edge">
<title>Node1&#45;&gt;Node2</title>
<path fill="none" stroke="#191970" d="M487,-124.0249C487,-115.128 487,-105.4287 487,-97.6432"/>
<polygon fill="#191970" stroke="#191970" points="483.5001,-124.2966 487,-134.2967 490.5001,-124.2967 483.5001,-124.2966"/>
</g>
<!-- Node3 -->
<g id="node3" class="node">
<title>Node3</title>
<g id="a_node3"><a xlink:href="Node_8cpp.html" target="_top" xlink:title="src/lug/Graphics/Node.cpp">
<polygon fill="none" stroke="#000000" points="0,-6 0,-25 150,-25 150,-6 0,-6"/>
<text text-anchor="middle" x="75" y="-13" font-family="Helvetica,sans-Serif" font-size="10.00" fill="#000000">src/lug/Graphics/Node.cpp</text>
</a>
</g>
</g>
<!-- Node2&#45;&gt;Node3 -->
<g id="edge2" class="edge">
<title>Node2&#45;&gt;Node3</title>
<path fill="none" stroke="#191970" d="M399.7289,-69.4465C333.5808,-59.3951 240.4735,-44.9105 159,-31 148.1827,-29.1531 136.6003,-27.0788 125.5991,-25.0629"/>
<polygon fill="#191970" stroke="#191970" points="399.2857,-72.9192 409.6976,-70.9587 400.3357,-65.9984 399.2857,-72.9192"/>
</g>
<!-- Node4 -->
<g id="node4" class="node">
<title>Node4</title>
<g id="a_node4"><a xlink:href="Orthographic_8cpp.html" target="_top" xlink:title="src/lug/Graphics/Render\l/Camera/Orthographic.cpp">
<polygon fill="none" stroke="#000000" points="168,-.5 168,-30.5 318,-30.5 318,-.5 168,-.5"/>
<text text-anchor="start" x="176" y="-18.5" font-family="Helvetica,sans-Serif" font-size="10.00" fill="#000000">src/lug/Graphics/Render</text>
<text text-anchor="middle" x="243" y="-7.5" font-family="Helvetica,sans-Serif" font-size="10.00" fill="#000000">/Camera/Orthographic.cpp</text>
</a>
</g>
</g>
<!-- Node2&#45;&gt;Node4 -->
<g id="edge3" class="edge">
<title>Node2&#45;&gt;Node4</title>
<path fill="none" stroke="#191970" d="M422.1187,-64.6842C383.4157,-54.0568 334.8078,-40.7095 297.9972,-30.6017"/>
<polygon fill="#191970" stroke="#191970" points="421.6718,-68.191 432.2416,-67.4639 423.5254,-61.4409 421.6718,-68.191"/>
</g>
<!-- Node5 -->
<g id="node5" class="node">
<title>Node5</title>
<g id="a_node5"><a xlink:href="Perspective_8cpp.html" target="_top" xlink:title="src/lug/Graphics/Render\l/Camera/Perspective.cpp">
<polygon fill="none" stroke="#000000" points="336.5,-.5 336.5,-30.5 479.5,-30.5 479.5,-.5 336.5,-.5"/>
<text text-anchor="start" x="344.5" y="-18.5" font-family="Helvetica,sans-Serif" font-size="10.00" fill="#000000">src/lug/Graphics/Render</text>
<text text-anchor="middle" x="408" y="-7.5" font-family="Helvetica,sans-Serif" font-size="10.00" fill="#000000">/Camera/Perspective.cpp</text>
</a>
</g>
</g>
<!-- Node2&#45;&gt;Node5 -->
<g id="edge4" class="edge">
<title>Node2&#45;&gt;Node5</title>
<path fill="none" stroke="#191970" d="M461.3908,-60.7808C449.7854,-50.9383 436.3468,-39.541 425.8554,-30.6432"/>
<polygon fill="#191970" stroke="#191970" points="459.1833,-63.4978 469.0737,-67.2967 463.711,-58.1593 459.1833,-63.4978"/>
</g>
<!-- Node6 -->
<g id="node6" class="node">
<title>Node6</title>
<g id="a_node6"><a xlink:href="Vulkan_2Render_2SkyBox_8cpp.html" target="_top" xlink:title="src/lug/Graphics/Vulkan\l/Render/SkyBox.cpp">
<polygon fill="none" stroke="#000000" points="497.5,-.5 497.5,-30.5 634.5,-30.5 634.5,-.5 497.5,-.5"/>
<text text-anchor="start" x="505.5" y="-18.5" font-family="Helvetica,sans-Serif" font-size="10.00" fill="#000000">src/lug/Graphics/Vulkan</text>
<text text-anchor="middle" x="566" y="-7.5" font-family="Helvetica,sans-Serif" font-size="10.00" fill="#000000">/Render/SkyBox.cpp</text>
</a>
</g>
</g>
<!-- Node2&#45;&gt;Node6 -->
<g id="edge5" class="edge">
<title>Node2&#45;&gt;Node6</title>
<path fill="none" stroke="#191970" d="M512.6092,-60.7808C524.2146,-50.9383 537.6532,-39.541 548.1446,-30.6432"/>
<polygon fill="#191970" stroke="#191970" points="510.289,-58.1593 504.9263,-67.2967 514.8167,-63.4978 510.289,-58.1593"/>
</g>
<!-- Node7 -->
<g id="node7" class="node">
<title>Node7</title>
<g id="a_node7"><a xlink:href="Forward_8cpp.html" target="_top" xlink:title="src/lug/Graphics/Vulkan\l/Render/Technique/Forward.cpp">
<polygon fill="none" stroke="#000000" points="652.5,-.5 652.5,-30.5 829.5,-30.5 829.5,-.5 652.5,-.5"/>
<text text-anchor="start" x="660.5" y="-18.5" font-family="Helvetica,sans-Serif" font-size="10.00" fill="#000000">src/lug/Graphics/Vulkan</text>
<text text-anchor="middle" x="741" y="-7.5" font-family="Helvetica,sans-Serif" font-size="10.00" fill="#000000">/Render/Technique/Forward.cpp</text>
</a>
</g>
</g>
<!-- Node2&#45;&gt;Node7 -->
<g id="edge6" class="edge">
<title>Node2&#45;&gt;Node7</title>
<path fill="none" stroke="#191970" d="M553.7701,-64.8874C594.1831,-54.2273 645.185,-40.774 683.7488,-30.6017"/>
<polygon fill="#191970" stroke="#191970" points="552.7791,-61.529 544.0026,-67.4639 554.5645,-68.2975 552.7791,-61.529"/>
</g>
<!-- Node8 -->
<g id="node8" class="node">
<title>Node8</title>
<g id="a_node8"><a xlink:href="Vulkan_2Renderer_8cpp.html" target="_top" xlink:title="src/lug/Graphics/Vulkan\l/Renderer.cpp">
<polygon fill="none" stroke="#000000" points="847.5,-.5 847.5,-30.5 984.5,-30.5 984.5,-.5 847.5,-.5"/>
<text text-anchor="start" x="855.5" y="-18.5" font-family="Helvetica,sans-Serif" font-size="10.00" fill="#000000">src/lug/Graphics/Vulkan</text>
<text text-anchor="middle" x="916" y="-7.5" font-family="Helvetica,sans-Serif" font-size="10.00" fill="#000000">/Renderer.cpp</text>
</a>
</g>
</g>
<!-- Node2&#45;&gt;Node8 -->
<g id="edge7" class="edge">
<title>Node2&#45;&gt;Node8</title>
<path fill="none" stroke="#191970" d="M574.3844,-71.0352C645.7359,-61.3569 749.1024,-46.613 839,-31 841.687,-30.5333 844.4242,-30.045 847.1872,-29.5412"/>
<polygon fill="#191970" stroke="#191970" points="573.536,-67.618 564.0949,-72.4259 574.4736,-74.5549 573.536,-67.618"/>
</g>
</g>
</svg>
