<?xml version="1.0" encoding="UTF-8" standalone="no"?>
<!DOCTYPE svg PUBLIC "-//W3C//DTD SVG 1.1//EN"
 "http://www.w3.org/Graphics/SVG/1.1/DTD/svg11.dtd">
<!-- Generated by graphviz version 2.40.1 (20161225.0304)
 -->
<!-- Title: include/lug/Math/Geometry/Trigonometry.inl Pages: 1 -->
<svg width="1266pt" height="698pt"
 viewBox="0.00 0.00 1266.00 698.00" xmlns="http://www.w3.org/2000/svg" xmlns:xlink="http://www.w3.org/1999/xlink">
<g id="graph0" class="graph" transform="scale(1 1) rotate(0) translate(4 694)">
<title>include/lug/Math/Geometry/Trigonometry.inl</title>
<!-- Node1 -->
<g id="node1" class="node">
<title>Node1</title>
<polygon fill="#bfbfbf" stroke="#000000" points="984,-659.5 984,-689.5 1138,-689.5 1138,-659.5 984,-659.5"/>
<text text-anchor="start" x="992" y="-677.5" font-family="Helvetica,sans-Serif" font-size="10.00" fill="#000000">include/lug/Math/Geometry</text>
<text text-anchor="middle" x="1061" y="-666.5" font-family="Helvetica,sans-Serif" font-size="10.00" fill="#000000">/Trigonometry.inl</text>
</g>
<!-- Node2 -->
<g id="node2" class="node">
<title>Node2</title>
<g id="a_node2"><a xlink:href="Trigonometry_8hpp.html" target="_top" xlink:title="include/lug/Math/Geometry\l/Trigonometry.hpp">
<polygon fill="none" stroke="#000000" points="984,-592.5 984,-622.5 1138,-622.5 1138,-592.5 984,-592.5"/>
<text text-anchor="start" x="992" y="-610.5" font-family="Helvetica,sans-Serif" font-size="10.00" fill="#000000">include/lug/Math/Geometry</text>
<text text-anchor="middle" x="1061" y="-599.5" font-family="Helvetica,sans-Serif" font-size="10.00" fill="#000000">/Trigonometry.hpp</text>
</a>
</g>
</g>
<!-- Node1&#45;&gt;Node2 -->
<g id="edge1" class="edge">
<title>Node1&#45;&gt;Node2</title>
<path fill="none" stroke="#191970" d="M1061,-649.0249C1061,-640.128 1061,-630.4287 1061,-622.6432"/>
<polygon fill="#191970" stroke="#191970" points="1057.5001,-649.2966 1061,-659.2967 1064.5001,-649.2967 1057.5001,-649.2966"/>
</g>
<!-- Node3 -->
<g id="node3" class="node">
<title>Node3</title>
<g id="a_node3"><a xlink:href="Transform_8hpp.html" target="_top" xlink:title="include/lug/Math/Geometry\l/Transform.hpp">
<polygon fill="none" stroke="#000000" points="984,-525.5 984,-555.5 1138,-555.5 1138,-525.5 984,-525.5"/>
<text text-anchor="start" x="992" y="-543.5" font-family="Helvetica,sans-Serif" font-size="10.00" fill="#000000">include/lug/Math/Geometry</text>
<text text-anchor="middle" x="1061" y="-532.5" font-family="Helvetica,sans-Serif" font-size="10.00" fill="#000000">/Transform.hpp</text>
</a>
</g>
</g>
<!-- Node2&#45;&gt;Node3 -->
<g id="edge2" class="edge">
<title>Node2&#45;&gt;Node3</title>
<path fill="none" stroke="#191970" d="M1061,-582.0249C1061,-573.128 1061,-563.4287 1061,-555.6432"/>
<polygon fill="#191970" stroke="#191970" points="1057.5001,-582.2966 1061,-592.2967 1064.5001,-582.2967 1057.5001,-582.2966"/>
</g>
<!-- Node4 -->
<g id="node4" class="node">
<title>Node4</title>
<g id="a_node4"><a xlink:href="Render_2Camera_8hpp.html" target="_top" xlink:title="include/lug/Graphics\l/Render/Camera.hpp">
<polygon fill="none" stroke="#000000" points="772,-458.5 772,-488.5 894,-488.5 894,-458.5 772,-458.5"/>
<text text-anchor="start" x="780" y="-476.5" font-family="Helvetica,sans-Serif" font-size="10.00" fill="#000000">include/lug/Graphics</text>
<text text-anchor="middle" x="833" y="-465.5" font-family="Helvetica,sans-Serif" font-size="10.00" fill="#000000">/Render/Camera.hpp</text>
</a>
</g>
</g>
<!-- Node3&#45;&gt;Node4 -->
<g id="edge3" class="edge">
<title>Node3&#45;&gt;Node4</title>
<path fill="none" stroke="#191970" d="M999.911,-522.5484C963.8218,-511.9432 918.6413,-498.6665 884.3908,-488.6017"/>
<polygon fill="#191970" stroke="#191970" points="999.2512,-526.0025 1009.8323,-525.4639 1001.2248,-519.2864 999.2512,-526.0025"/>
</g>
<!-- Node9 -->
<g id="node9" class="node">
<title>Node9</title>
<g id="a_node9"><a xlink:href="Vulkan_2Renderer_8cpp.html" target="_top" xlink:title="src/lug/Graphics/Vulkan\l/Renderer.cpp">
<polygon fill="none" stroke="#000000" points="411.5,-56.5 411.5,-86.5 548.5,-86.5 548.5,-56.5 411.5,-56.5"/>
<text text-anchor="start" x="419.5" y="-74.5" font-family="Helvetica,sans-Serif" font-size="10.00" fill="#000000">src/lug/Graphics/Vulkan</text>
<text text-anchor="middle" x="480" y="-63.5" font-family="Helvetica,sans-Serif" font-size="10.00" fill="#000000">/Renderer.cpp</text>
</a>
</g>
</g>
<!-- Node3&#45;&gt;Node9 -->
<g id="edge42" class="edge">
<title>Node3&#45;&gt;Node9</title>
<path fill="none" stroke="#191970" d="M1055.2579,-515.2603C1049.6648,-488.4355 1042,-444.7049 1042,-406.5 1042,-406.5 1042,-406.5 1042,-205.5 1042,-167.8735 1051.5156,-147.5482 1023,-123 983.6428,-89.1186 608.4393,-94.1373 557,-87 554.2986,-86.6252 551.5494,-86.2143 548.7762,-85.7753"/>
<polygon fill="#191970" stroke="#191970" points="1051.8988,-516.2877 1057.4262,-525.3264 1058.7419,-514.8136 1051.8988,-516.2877"/>
</g>
<!-- Node15 -->
<g id="node15" class="node">
<title>Node15</title>
<g id="a_node15"><a xlink:href="Forward_8cpp.html" target="_top" xlink:title="src/lug/Graphics/Vulkan\l/Render/Technique/Forward.cpp">
<polygon fill="none" stroke="#000000" points="737.5,-56.5 737.5,-86.5 914.5,-86.5 914.5,-56.5 737.5,-56.5"/>
<text text-anchor="start" x="745.5" y="-74.5" font-family="Helvetica,sans-Serif" font-size="10.00" fill="#000000">src/lug/Graphics/Vulkan</text>
<text text-anchor="middle" x="826" y="-63.5" font-family="Helvetica,sans-Serif" font-size="10.00" fill="#000000">/Render/Technique/Forward.cpp</text>
</a>
</g>
</g>
<!-- Node3&#45;&gt;Node15 -->
<g id="edge41" class="edge">
<title>Node3&#45;&gt;Node15</title>
<path fill="none" stroke="#191970" d="M1066.7421,-515.2603C1072.3352,-488.4355 1080,-444.7049 1080,-406.5 1080,-406.5 1080,-406.5 1080,-205.5 1080,-167.3133 1083.8367,-149.1408 1056,-123 1045.2244,-112.8809 973.3337,-97.777 912.7544,-86.5397"/>
<polygon fill="#191970" stroke="#191970" points="1063.2581,-514.8136 1064.5738,-525.3264 1070.1012,-516.2877 1063.2581,-514.8136"/>
</g>
<!-- Node26 -->
<g id="node26" class="node">
<title>Node26</title>
<g id="a_node26"><a xlink:href="Node_8cpp.html" target="_top" xlink:title="src/lug/Graphics/Node.cpp">
<polygon fill="none" stroke="#000000" points="1108,-464 1108,-483 1258,-483 1258,-464 1108,-464"/>
<text text-anchor="middle" x="1183" y="-471" font-family="Helvetica,sans-Serif" font-size="10.00" fill="#000000">src/lug/Graphics/Node.cpp</text>
</a>
</g>
</g>
<!-- Node3&#45;&gt;Node26 -->
<g id="edge40" class="edge">
<title>Node3&#45;&gt;Node26</title>
<path fill="none" stroke="#191970" d="M1097.3434,-520.5409C1119.873,-508.1681 1147.7981,-492.8322 1165.5123,-483.1039"/>
<polygon fill="#191970" stroke="#191970" points="1095.4596,-517.5823 1088.3792,-525.4639 1098.8292,-523.718 1095.4596,-517.5823"/>
</g>
<!-- Node5 -->
<g id="node5" class="node">
<title>Node5</title>
<g id="a_node5"><a xlink:href="Graphics_8hpp.html" target="_top" xlink:title="include/lug/Graphics\l/Graphics.hpp">
<polygon fill="none" stroke="#000000" points="74.5,-123.5 74.5,-153.5 193.5,-153.5 193.5,-123.5 74.5,-123.5"/>
<text text-anchor="start" x="82.5" y="-141.5" font-family="Helvetica,sans-Serif" font-size="10.00" fill="#000000">include/lug/Graphics</text>
<text text-anchor="middle" x="134" y="-130.5" font-family="Helvetica,sans-Serif" font-size="10.00" fill="#000000">/Graphics.hpp</text>
</a>
</g>
</g>
<!-- Node4&#45;&gt;Node5 -->
<g id="edge4" class="edge">
<title>Node4&#45;&gt;Node5</title>
<path fill="none" stroke="#191970" d="M761.5331,-469.3841C561.0695,-456.8922 8,-415.5377 8,-339.5 8,-339.5 8,-339.5 8,-272.5 8,-216.7767 66.5439,-174.759 103.8199,-153.6532"/>
<polygon fill="#191970" stroke="#191970" points="761.4682,-472.8867 771.6649,-470.0095 761.8996,-465.9 761.4682,-472.8867"/>
</g>
<!-- Node10 -->
<g id="node10" class="node">
<title>Node10</title>
<g id="a_node10"><a xlink:href="Render_2View_8hpp.html" target="_top" xlink:title="include/lug/Graphics\l/Render/View.hpp">
<polygon fill="none" stroke="#000000" points="577.5,-391.5 577.5,-421.5 696.5,-421.5 696.5,-391.5 577.5,-391.5"/>
<text text-anchor="start" x="585.5" y="-409.5" font-family="Helvetica,sans-Serif" font-size="10.00" fill="#000000">include/lug/Graphics</text>
<text text-anchor="middle" x="637" y="-398.5" font-family="Helvetica,sans-Serif" font-size="10.00" fill="#000000">/Render/View.hpp</text>
</a>
</g>
</g>
<!-- Node4&#45;&gt;Node10 -->
<g id="edge9" class="edge">
<title>Node4&#45;&gt;Node10</title>
<path fill="none" stroke="#191970" d="M779.2879,-455.1392C748.4665,-444.6033 710.244,-431.5375 681.1781,-421.6017"/>
<polygon fill="#191970" stroke="#191970" points="778.4192,-458.5411 789.0138,-458.4639 780.6835,-451.9174 778.4192,-458.5411"/>
</g>
<!-- Node22 -->
<g id="node22" class="node">
<title>Node22</title>
<g id="a_node22"><a xlink:href="Render_2Camera_8cpp.html" target="_top" xlink:title="src/lug/Graphics/Render\l/Camera.cpp">
<polygon fill="none" stroke="#000000" points="684.5,-324.5 684.5,-354.5 823.5,-354.5 823.5,-324.5 684.5,-324.5"/>
<text text-anchor="start" x="692.5" y="-342.5" font-family="Helvetica,sans-Serif" font-size="10.00" fill="#000000">src/lug/Graphics/Render</text>
<text text-anchor="middle" x="754" y="-331.5" font-family="Helvetica,sans-Serif" font-size="10.00" fill="#000000">/Camera.cpp</text>
</a>
</g>
</g>
<!-- Node4&#45;&gt;Node22 -->
<g id="edge38" class="edge">
<title>Node4&#45;&gt;Node22</title>
<path fill="none" stroke="#191970" d="M818.8091,-449.4294C802.6173,-421.9647 776.6236,-377.8742 762.9974,-354.7614"/>
<polygon fill="#191970" stroke="#191970" points="815.9975,-451.5521 824.0913,-458.389 822.0276,-447.997 815.9975,-451.5521"/>
</g>
<!-- Node23 -->
<g id="node23" class="node">
<title>Node23</title>
<g id="a_node23"><a xlink:href="Vulkan_2Render_2Camera_8hpp.html" target="_top" xlink:title="include/lug/Graphics\l/Vulkan/Render/Camera.hpp">
<polygon fill="none" stroke="#000000" points="854,-123.5 854,-153.5 1014,-153.5 1014,-123.5 854,-123.5"/>
<text text-anchor="start" x="862" y="-141.5" font-family="Helvetica,sans-Serif" font-size="10.00" fill="#000000">include/lug/Graphics</text>
<text text-anchor="middle" x="934" y="-130.5" font-family="Helvetica,sans-Serif" font-size="10.00" fill="#000000">/Vulkan/Render/Camera.hpp</text>
</a>
</g>
</g>
<!-- Node4&#45;&gt;Node23 -->
<g id="edge34" class="edge">
<title>Node4&#45;&gt;Node23</title>
<path fill="none" stroke="#191970" d="M838.7421,-448.2603C844.3352,-421.4355 852,-377.7049 852,-339.5 852,-339.5 852,-339.5 852,-272.5 852,-223.1339 892.9912,-176.5889 917.0095,-153.5535"/>
<polygon fill="#191970" stroke="#191970" points="835.2581,-447.8136 836.5738,-458.3264 842.1012,-449.2877 835.2581,-447.8136"/>
</g>
<!-- Node25 -->
<g id="node25" class="node">
<title>Node25</title>
<g id="a_node25"><a xlink:href="MovableCamera_8cpp.html" target="_top" xlink:title="src/lug/Graphics/Scene\l/MovableCamera.cpp">
<polygon fill="none" stroke="#000000" points="880,-391.5 880,-421.5 1014,-421.5 1014,-391.5 880,-391.5"/>
<text text-anchor="start" x="888" y="-409.5" font-family="Helvetica,sans-Serif" font-size="10.00" fill="#000000">src/lug/Graphics/Scene</text>
<text text-anchor="middle" x="947" y="-398.5" font-family="Helvetica,sans-Serif" font-size="10.00" fill="#000000">/MovableCamera.cpp</text>
</a>
</g>
</g>
<!-- Node4&#45;&gt;Node25 -->
<g id="edge39" class="edge">
<title>Node4&#45;&gt;Node25</title>
<path fill="none" stroke="#191970" d="M867.2747,-453.3561C884.5561,-443.1995 905.17,-431.0843 921.1071,-421.7177"/>
<polygon fill="#191970" stroke="#191970" points="865.4317,-450.3795 858.5838,-458.4639 868.9786,-456.4144 865.4317,-450.3795"/>
</g>
<!-- Node6 -->
<g id="node6" class="node">
<title>Node6</title>
<g id="a_node6"><a xlink:href="Application_8hpp.html" target="_top" xlink:title="include/lug/Core/Application.hpp">
<polygon fill="none" stroke="#000000" points="0,-62 0,-81 180,-81 180,-62 0,-62"/>
<text text-anchor="middle" x="90" y="-69" font-family="Helvetica,sans-Serif" font-size="10.00" fill="#000000">include/lug/Core/Application.hpp</text>
</a>
</g>
</g>
<!-- Node5&#45;&gt;Node6 -->
<g id="edge5" class="edge">
<title>Node5&#45;&gt;Node6</title>
<path fill="none" stroke="#191970" d="M118.4639,-114.8428C110.8227,-103.2073 102.0398,-89.8334 96.2749,-81.055"/>
<polygon fill="#191970" stroke="#191970" points="115.6008,-116.8592 124.0157,-123.2967 121.4519,-113.0167 115.6008,-116.8592"/>
</g>
<!-- Node8 -->
<g id="node8" class="node">
<title>Node8</title>
<g id="a_node8"><a xlink:href="Graphics_8cpp.html" target="_top" xlink:title="src/lug/Graphics/Graphics.cpp">
<polygon fill="none" stroke="#000000" points="225,-62 225,-81 393,-81 393,-62 225,-62"/>
<text text-anchor="middle" x="309" y="-69" font-family="Helvetica,sans-Serif" font-size="10.00" fill="#000000">src/lug/Graphics/Graphics.cpp</text>
</a>
</g>
</g>
<!-- Node5&#45;&gt;Node8 -->
<g id="edge7" class="edge">
<title>Node5&#45;&gt;Node8</title>
<path fill="none" stroke="#191970" d="M182.744,-119.838C215.7142,-107.2151 257.8846,-91.0699 284.1728,-81.0053"/>
<polygon fill="#191970" stroke="#191970" points="181.3609,-116.6197 173.2734,-123.4639 183.8638,-123.157 181.3609,-116.6197"/>
</g>
<!-- Node5&#45;&gt;Node9 -->
<g id="edge8" class="edge">
<title>Node5&#45;&gt;Node9</title>
<path fill="none" stroke="#191970" d="M203.7957,-122.8867C292.7597,-105.0298 316.8008,-103.1705 402,-87 404.9841,-86.4336 408.0314,-85.8501 411.109,-85.2566"/>
<polygon fill="#191970" stroke="#191970" points="202.9156,-119.4937 193.8062,-124.9039 204.3012,-126.3553 202.9156,-119.4937"/>
</g>
<!-- Node7 -->
<g id="node7" class="node">
<title>Node7</title>
<g id="a_node7"><a xlink:href="Application_8cpp.html" target="_top" xlink:title="src/lug/Core/Application.cpp">
<polygon fill="none" stroke="#000000" points="10.5,-.5 10.5,-19.5 169.5,-19.5 169.5,-.5 10.5,-.5"/>
<text text-anchor="middle" x="90" y="-7.5" font-family="Helvetica,sans-Serif" font-size="10.00" fill="#000000">src/lug/Core/Application.cpp</text>
</a>
</g>
</g>
<!-- Node6&#45;&gt;Node7 -->
<g id="edge6" class="edge">
<title>Node6&#45;&gt;Node7</title>
<path fill="none" stroke="#191970" d="M90,-51.7462C90,-41.0519 90,-28.314 90,-19.7449"/>
<polygon fill="#191970" stroke="#191970" points="86.5001,-51.8906 90,-61.8906 93.5001,-51.8907 86.5001,-51.8906"/>
</g>
<!-- Node11 -->
<g id="node11" class="node">
<title>Node11</title>
<g id="a_node11"><a xlink:href="Target_8hpp.html" target="_top" xlink:title="include/lug/Graphics\l/Render/Target.hpp">
<polygon fill="none" stroke="#000000" points="470.5,-324.5 470.5,-354.5 589.5,-354.5 589.5,-324.5 470.5,-324.5"/>
<text text-anchor="start" x="478.5" y="-342.5" font-family="Helvetica,sans-Serif" font-size="10.00" fill="#000000">include/lug/Graphics</text>
<text text-anchor="middle" x="530" y="-331.5" font-family="Helvetica,sans-Serif" font-size="10.00" fill="#000000">/Render/Target.hpp</text>
</a>
</g>
</g>
<!-- Node10&#45;&gt;Node11 -->
<g id="edge10" class="edge">
<title>Node10&#45;&gt;Node11</title>
<path fill="none" stroke="#191970" d="M604.3827,-386.0761C588.255,-375.9774 569.1242,-363.9983 554.303,-354.7177"/>
<polygon fill="#191970" stroke="#191970" points="602.6541,-389.1232 612.9871,-391.4639 606.3691,-383.1903 602.6541,-389.1232"/>
</g>
<!-- Node12 -->
<g id="node12" class="node">
<title>Node12</title>
<g id="a_node12"><a xlink:href="Graphics_2Render_2Window_8hpp.html" target="_top" xlink:title="include/lug/Graphics\l/Render/Window.hpp">
<polygon fill="none" stroke="#000000" points="348,-257.5 348,-287.5 470,-287.5 470,-257.5 348,-257.5"/>
<text text-anchor="start" x="356" y="-275.5" font-family="Helvetica,sans-Serif" font-size="10.00" fill="#000000">include/lug/Graphics</text>
<text text-anchor="middle" x="409" y="-264.5" font-family="Helvetica,sans-Serif" font-size="10.00" fill="#000000">/Render/Window.hpp</text>
</a>
</g>
</g>
<!-- Node10&#45;&gt;Node12 -->
<g id="edge27" class="edge">
<title>Node10&#45;&gt;Node12</title>
<path fill="none" stroke="#191970" d="M567.0927,-397.93C532.4746,-390.8957 491.6452,-378.1292 461,-355 437.7565,-337.4571 422.2728,-306.2457 414.6142,-287.6519"/>
<polygon fill="#191970" stroke="#191970" points="566.668,-401.4121 577.147,-399.8501 567.981,-394.5364 566.668,-401.4121"/>
</g>
<!-- Node20 -->
<g id="node20" class="node">
<title>Node20</title>
<g id="a_node20"><a xlink:href="Render_2View_8cpp.html" target="_top" xlink:title="src/lug/Graphics/Render\l/View.cpp">
<polygon fill="none" stroke="#000000" points="488.5,-257.5 488.5,-287.5 627.5,-287.5 627.5,-257.5 488.5,-257.5"/>
<text text-anchor="start" x="496.5" y="-275.5" font-family="Helvetica,sans-Serif" font-size="10.00" fill="#000000">src/lug/Graphics/Render</text>
<text text-anchor="middle" x="558" y="-264.5" font-family="Helvetica,sans-Serif" font-size="10.00" fill="#000000">/View.cpp</text>
</a>
</g>
</g>
<!-- Node10&#45;&gt;Node20 -->
<g id="edge33" class="edge">
<title>Node10&#45;&gt;Node20</title>
<path fill="none" stroke="#191970" d="M626.9927,-381.7528C619.8041,-364.9724 609.4017,-342.5557 598,-324 590.058,-311.0748 579.4708,-297.5704 571.1836,-287.6344"/>
<polygon fill="#191970" stroke="#191970" points="623.9383,-383.5195 631.0335,-391.3877 630.3935,-380.8122 623.9383,-383.5195"/>
</g>
<!-- Node21 -->
<g id="node21" class="node">
<title>Node21</title>
<g id="a_node21"><a xlink:href="Vulkan_2Render_2View_8hpp.html" target="_top" xlink:title="include/lug/Graphics\l/Vulkan/Render/View.hpp">
<polygon fill="none" stroke="#000000" points="666.5,-190.5 666.5,-220.5 811.5,-220.5 811.5,-190.5 666.5,-190.5"/>
<text text-anchor="start" x="674.5" y="-208.5" font-family="Helvetica,sans-Serif" font-size="10.00" fill="#000000">include/lug/Graphics</text>
<text text-anchor="middle" x="739" y="-197.5" font-family="Helvetica,sans-Serif" font-size="10.00" fill="#000000">/Vulkan/Render/View.hpp</text>
</a>
</g>
</g>
<!-- Node10&#45;&gt;Node21 -->
<g id="edge28" class="edge">
<title>Node10&#45;&gt;Node21</title>
<path fill="none" stroke="#191970" d="M647.7976,-381.9907C655.1925,-365.477 665.3682,-343.2746 675,-324 693.8133,-286.352 717.811,-243.0619 730.4016,-220.6765"/>
<polygon fill="#191970" stroke="#191970" points="644.4514,-380.9014 643.5822,-391.4605 650.8464,-383.7481 644.4514,-380.9014"/>
</g>
<!-- Node10&#45;&gt;Node22 -->
<g id="edge32" class="edge">
<title>Node10&#45;&gt;Node22</title>
<path fill="none" stroke="#191970" d="M672.1766,-386.3561C689.9128,-376.1995 711.0692,-364.0843 727.4257,-354.7177"/>
<polygon fill="#191970" stroke="#191970" points="670.1957,-383.4572 663.2571,-391.4639 673.6743,-389.5317 670.1957,-383.4572"/>
</g>
<!-- Node11&#45;&gt;Node12 -->
<g id="edge11" class="edge">
<title>Node11&#45;&gt;Node12</title>
<path fill="none" stroke="#191970" d="M493.8729,-319.4958C475.4791,-309.3107 453.4761,-297.1272 436.4828,-287.7177"/>
<polygon fill="#191970" stroke="#191970" points="492.4014,-322.6816 502.8452,-324.4639 495.7923,-316.5578 492.4014,-322.6816"/>
</g>
<!-- Node11&#45;&gt;Node20 -->
<g id="edge26" class="edge">
<title>Node11&#45;&gt;Node20</title>
<path fill="none" stroke="#191970" d="M540.2797,-314.9021C544.0963,-305.7696 548.3106,-295.6854 551.6715,-287.6432"/>
<polygon fill="#191970" stroke="#191970" points="536.9803,-313.7204 536.3536,-324.2967 543.439,-316.4196 536.9803,-313.7204"/>
</g>
<!-- Node12&#45;&gt;Node6 -->
<g id="edge12" class="edge">
<title>Node12&#45;&gt;Node6</title>
<path fill="none" stroke="#191970" d="M337.7761,-258.0776C246.7823,-238.039 97.1705,-199.1077 65,-154 48.6627,-131.0927 69.8035,-97.3377 82.1872,-81.0216"/>
<polygon fill="#191970" stroke="#191970" points="337.2372,-261.5422 347.753,-260.2509 338.7271,-254.7026 337.2372,-261.5422"/>
</g>
<!-- Node13 -->
<g id="node13" class="node">
<title>Node13</title>
<g id="a_node13"><a xlink:href="Renderer_8hpp.html" target="_top" xlink:title="include/lug/Graphics\l/Renderer.hpp">
<polygon fill="none" stroke="#000000" points="287.5,-190.5 287.5,-220.5 406.5,-220.5 406.5,-190.5 287.5,-190.5"/>
<text text-anchor="start" x="295.5" y="-208.5" font-family="Helvetica,sans-Serif" font-size="10.00" fill="#000000">include/lug/Graphics</text>
<text text-anchor="middle" x="347" y="-197.5" font-family="Helvetica,sans-Serif" font-size="10.00" fill="#000000">/Renderer.hpp</text>
</a>
</g>
</g>
<!-- Node12&#45;&gt;Node13 -->
<g id="edge13" class="edge">
<title>Node12&#45;&gt;Node13</title>
<path fill="none" stroke="#191970" d="M388.11,-249.9253C379.1871,-240.2828 369.0093,-229.2843 361.0131,-220.6432"/>
<polygon fill="#191970" stroke="#191970" points="385.5704,-252.3342 394.9312,-257.2967 390.7082,-247.5798 385.5704,-252.3342"/>
</g>
<!-- Node18 -->
<g id="node18" class="node">
<title>Node18</title>
<g id="a_node18"><a xlink:href="Graphics_2Vulkan_2Render_2Window_8hpp.html" target="_top" xlink:title="include/lug/Graphics\l/Vulkan/Render/Window.hpp">
<polygon fill="none" stroke="#000000" points="476,-190.5 476,-220.5 636,-220.5 636,-190.5 476,-190.5"/>
<text text-anchor="start" x="484" y="-208.5" font-family="Helvetica,sans-Serif" font-size="10.00" fill="#000000">include/lug/Graphics</text>
<text text-anchor="middle" x="556" y="-197.5" font-family="Helvetica,sans-Serif" font-size="10.00" fill="#000000">/Vulkan/Render/Window.hpp</text>
</a>
</g>
</g>
<!-- Node12&#45;&gt;Node18 -->
<g id="edge21" class="edge">
<title>Node12&#45;&gt;Node18</title>
<path fill="none" stroke="#191970" d="M451.0964,-253.3132C473.8847,-242.9267 501.6333,-230.2794 522.8664,-220.6017"/>
<polygon fill="#191970" stroke="#191970" points="449.6375,-250.1317 441.9897,-257.4639 452.5407,-256.5013 449.6375,-250.1317"/>
</g>
<!-- Node13&#45;&gt;Node5 -->
<g id="edge14" class="edge">
<title>Node13&#45;&gt;Node5</title>
<path fill="none" stroke="#191970" d="M289.4973,-187.4123C255.8545,-176.8298 213.8702,-163.6235 182.0098,-153.6017"/>
<polygon fill="#191970" stroke="#191970" points="288.6092,-190.802 299.1986,-190.4639 290.7097,-184.1245 288.6092,-190.802"/>
</g>
<!-- Node14 -->
<g id="node14" class="node">
<title>Node14</title>
<g id="a_node14"><a xlink:href="Vulkan_2Renderer_8hpp.html" target="_top" xlink:title="include/lug/Graphics\l/Vulkan/Renderer.hpp">
<polygon fill="none" stroke="#000000" points="400.5,-123.5 400.5,-153.5 527.5,-153.5 527.5,-123.5 400.5,-123.5"/>
<text text-anchor="start" x="408.5" y="-141.5" font-family="Helvetica,sans-Serif" font-size="10.00" fill="#000000">include/lug/Graphics</text>
<text text-anchor="middle" x="464" y="-130.5" font-family="Helvetica,sans-Serif" font-size="10.00" fill="#000000">/Vulkan/Renderer.hpp</text>
</a>
</g>
</g>
<!-- Node13&#45;&gt;Node14 -->
<g id="edge15" class="edge">
<title>Node13&#45;&gt;Node14</title>
<path fill="none" stroke="#191970" d="M382.1766,-185.3561C399.9128,-175.1995 421.0692,-163.0843 437.4257,-153.7177"/>
<polygon fill="#191970" stroke="#191970" points="380.1957,-182.4572 373.2571,-190.4639 383.6743,-188.5317 380.1957,-182.4572"/>
</g>
<!-- Node17 -->
<g id="node17" class="node">
<title>Node17</title>
<g id="a_node17"><a xlink:href="Renderer_8cpp.html" target="_top" xlink:title="src/lug/Graphics/Renderer.cpp">
<polygon fill="none" stroke="#000000" points="212,-129 212,-148 382,-148 382,-129 212,-129"/>
<text text-anchor="middle" x="297" y="-136" font-family="Helvetica,sans-Serif" font-size="10.00" fill="#000000">src/lug/Graphics/Renderer.cpp</text>
</a>
</g>
</g>
<!-- Node13&#45;&gt;Node17 -->
<g id="edge20" class="edge">
<title>Node13&#45;&gt;Node17</title>
<path fill="none" stroke="#191970" d="M329.6004,-182.1845C320.8582,-170.47 310.7459,-156.9195 304.1306,-148.055"/>
<polygon fill="#191970" stroke="#191970" points="326.8683,-184.3756 335.6542,-190.2967 332.4784,-180.189 326.8683,-184.3756"/>
</g>
<!-- Node14&#45;&gt;Node8 -->
<g id="edge16" class="edge">
<title>Node14&#45;&gt;Node8</title>
<path fill="none" stroke="#191970" d="M419.7239,-119.3613C390.7856,-106.8525 354.2239,-91.0484 331.218,-81.1039"/>
<polygon fill="#191970" stroke="#191970" points="418.6471,-122.7088 429.215,-123.4639 421.4246,-116.2834 418.6471,-122.7088"/>
</g>
<!-- Node14&#45;&gt;Node9 -->
<g id="edge19" class="edge">
<title>Node14&#45;&gt;Node9</title>
<path fill="none" stroke="#191970" d="M470.0136,-113.3179C472.1573,-104.3414 474.5041,-94.5143 476.3837,-86.6432"/>
<polygon fill="#191970" stroke="#191970" points="466.5492,-112.7572 467.6306,-123.2967 473.3577,-114.3831 466.5492,-112.7572"/>
</g>
<!-- Node14&#45;&gt;Node15 -->
<g id="edge17" class="edge">
<title>Node14&#45;&gt;Node15</title>
<path fill="none" stroke="#191970" d="M538.0563,-124.7935C598.1323,-113.6744 682.7158,-98.0194 744.6659,-86.5536"/>
<polygon fill="#191970" stroke="#191970" points="537.081,-121.4144 527.885,-126.676 538.355,-128.2975 537.081,-121.4144"/>
</g>
<!-- Node16 -->
<g id="node16" class="node">
<title>Node16</title>
<g id="a_node16"><a xlink:href="Graphics_2Vulkan_2Render_2Window_8cpp.html" target="_top" xlink:title="src/lug/Graphics/Vulkan\l/Render/Window.cpp">
<polygon fill="none" stroke="#000000" points="566.5,-56.5 566.5,-86.5 703.5,-86.5 703.5,-56.5 566.5,-56.5"/>
<text text-anchor="start" x="574.5" y="-74.5" font-family="Helvetica,sans-Serif" font-size="10.00" fill="#000000">src/lug/Graphics/Vulkan</text>
<text text-anchor="middle" x="635" y="-63.5" font-family="Helvetica,sans-Serif" font-size="10.00" fill="#000000">/Render/Window.cpp</text>
</a>
</g>
</g>
<!-- Node14&#45;&gt;Node16 -->
<g id="edge18" class="edge">
<title>Node14&#45;&gt;Node16</title>
<path fill="none" stroke="#191970" d="M511.912,-119.7275C538.616,-109.2645 571.4277,-96.4084 596.4569,-86.6017"/>
<polygon fill="#191970" stroke="#191970" points="510.4097,-116.5569 502.3757,-123.4639 512.9634,-123.0745 510.4097,-116.5569"/>
</g>
<!-- Node18&#45;&gt;Node9 -->
<g id="edge25" class="edge">
<title>Node18&#45;&gt;Node9</title>
<path fill="none" stroke="#191970" d="M553.6978,-179.8665C551.2577,-162.7965 546.2506,-140.3938 536,-123 527.4832,-108.5482 513.6345,-95.7607 501.8403,-86.5429"/>
<polygon fill="#191970" stroke="#191970" points="550.2741,-180.7053 554.9599,-190.2076 557.2225,-179.8572 550.2741,-180.7053"/>
</g>
<!-- Node18&#45;&gt;Node14 -->
<g id="edge22" class="edge">
<title>Node18&#45;&gt;Node14</title>
<path fill="none" stroke="#191970" d="M526.954,-184.3469C513.2647,-174.3776 497.2464,-162.7121 484.7936,-153.6432"/>
<polygon fill="#191970" stroke="#191970" points="524.9798,-187.2389 535.1238,-190.2967 529.1006,-181.5804 524.9798,-187.2389"/>
</g>
<!-- Node18&#45;&gt;Node16 -->
<g id="edge24" class="edge">
<title>Node18&#45;&gt;Node16</title>
<path fill="none" stroke="#191970" d="M570.1909,-181.4294C586.3827,-153.9647 612.3764,-109.8742 626.0026,-86.7614"/>
<polygon fill="#191970" stroke="#191970" points="566.9724,-179.997 564.9087,-190.389 573.0025,-183.5521 566.9724,-179.997"/>
</g>
<!-- Node19 -->
<g id="node19" class="node">
<title>Node19</title>
<g id="a_node19"><a xlink:href="Vulkan_2Render_2View_8cpp.html" target="_top" xlink:title="src/lug/Graphics/Vulkan\l/Render/View.cpp">
<polygon fill="none" stroke="#000000" points="622.5,-123.5 622.5,-153.5 759.5,-153.5 759.5,-123.5 622.5,-123.5"/>
<text text-anchor="start" x="630.5" y="-141.5" font-family="Helvetica,sans-Serif" font-size="10.00" fill="#000000">src/lug/Graphics/Vulkan</text>
<text text-anchor="middle" x="691" y="-130.5" font-family="Helvetica,sans-Serif" font-size="10.00" fill="#000000">/Render/View.cpp</text>
</a>
</g>
</g>
<!-- Node18&#45;&gt;Node19 -->
<g id="edge23" class="edge">
<title>Node18&#45;&gt;Node19</title>
<path fill="none" stroke="#191970" d="M595.466,-185.9132C616.1555,-175.645 641.1182,-163.2561 660.3374,-153.7177"/>
<polygon fill="#191970" stroke="#191970" points="593.6982,-182.8831 586.2966,-190.4639 596.8101,-189.1534 593.6982,-182.8831"/>
</g>
<!-- Node21&#45;&gt;Node15 -->
<g id="edge29" class="edge">
<title>Node21&#45;&gt;Node15</title>
<path fill="none" stroke="#191970" d="M772.1178,-184.4644C782.9781,-176.1376 794.2378,-165.7372 802,-154 815.8234,-133.0975 821.8396,-104.0997 824.3422,-86.6337"/>
<polygon fill="#191970" stroke="#191970" points="769.9736,-181.6961 763.9552,-190.4156 774.0976,-187.3524 769.9736,-181.6961"/>
</g>
<!-- Node21&#45;&gt;Node16 -->
<g id="edge31" class="edge">
<title>Node21&#45;&gt;Node16</title>
<path fill="none" stroke="#191970" d="M758.12,-181.9593C769.7748,-164.574 780.2761,-140.9178 768,-123 758.7634,-109.5185 723.6914,-96.2475 691.8825,-86.5543"/>
<polygon fill="#191970" stroke="#191970" points="755.035,-180.2542 752.0347,-190.4154 760.7167,-184.343 755.035,-180.2542"/>
</g>
<!-- Node21&#45;&gt;Node19 -->
<g id="edge30" class="edge">
<title>Node21&#45;&gt;Node19</title>
<path fill="none" stroke="#191970" d="M722.209,-182.0626C715.4524,-172.6315 707.8556,-162.0276 701.8488,-153.6432"/>
<polygon fill="#191970" stroke="#191970" points="719.439,-184.2059 728.1081,-190.2967 725.1294,-180.1292 719.439,-184.2059"/>
</g>
<!-- Node23&#45;&gt;Node8 -->
<g id="edge35" class="edge">
<title>Node23&#45;&gt;Node8</title>
<path fill="none" stroke="#191970" d="M843.6034,-129.9121C697.4939,-116.0082 423.5063,-89.8298 402,-87 389.1794,-85.3131 375.415,-83.1913 362.5104,-81.0636"/>
<polygon fill="#191970" stroke="#191970" points="843.6104,-133.4285 853.897,-130.8915 844.2735,-126.46 843.6104,-133.4285"/>
</g>
<!-- Node23&#45;&gt;Node15 -->
<g id="edge37" class="edge">
<title>Node23&#45;&gt;Node15</title>
<path fill="none" stroke="#191970" d="M901.0779,-118.0761C884.7995,-107.9774 865.4899,-95.9983 850.5301,-86.7177"/>
<polygon fill="#191970" stroke="#191970" points="899.42,-121.1663 909.7627,-123.4639 903.1102,-115.218 899.42,-121.1663"/>
</g>
<!-- Node24 -->
<g id="node24" class="node">
<title>Node24</title>
<g id="a_node24"><a xlink:href="Vulkan_2Render_2Camera_8cpp.html" target="_top" xlink:title="src/lug/Graphics/Vulkan\l/Render/Camera.cpp">
<polygon fill="none" stroke="#000000" points="932.5,-56.5 932.5,-86.5 1069.5,-86.5 1069.5,-56.5 932.5,-56.5"/>
<text text-anchor="start" x="940.5" y="-74.5" font-family="Helvetica,sans-Serif" font-size="10.00" fill="#000000">src/lug/Graphics/Vulkan</text>
<text text-anchor="middle" x="1001" y="-63.5" font-family="Helvetica,sans-Serif" font-size="10.00" fill="#000000">/Render/Camera.cpp</text>
</a>
</g>
</g>
<!-- Node23&#45;&gt;Node24 -->
<g id="edge36" class="edge">
<title>Node23&#45;&gt;Node24</title>
<path fill="none" stroke="#191970" d="M956.2887,-116.2113C965.9991,-106.5009 977.1302,-95.3698 985.8568,-86.6432"/>
<polygon fill="#191970" stroke="#191970" points="953.7996,-113.7507 949.2033,-123.2967 958.7493,-118.7004 953.7996,-113.7507"/>
</g>
</g>
</svg>
