<?xml version="1.0" encoding="UTF-8" standalone="no"?>
<!DOCTYPE svg PUBLIC "-//W3C//DTD SVG 1.1//EN"
 "http://www.w3.org/Graphics/SVG/1.1/DTD/svg11.dtd">
<!-- Generated by graphviz version 2.40.1 (20161225.0304)
 -->
<!-- Title: include/lug/Math/ValArray.hpp Pages: 1 -->
<svg width="422pt" height="84pt"
 viewBox="0.00 0.00 421.50 84.00" xmlns="http://www.w3.org/2000/svg" xmlns:xlink="http://www.w3.org/1999/xlink">
<g id="graph0" class="graph" transform="scale(1 1) rotate(0) translate(4 80)">
<title>include/lug/Math/ValArray.hpp</title>
<!-- Node0 -->
<g id="node1" class="node">
<title>Node0</title>
<polygon fill="#bfbfbf" stroke="#000000" points="85.5,-56.5 85.5,-75.5 255.5,-75.5 255.5,-56.5 85.5,-56.5"/>
<text text-anchor="middle" x="170.5" y="-63.5" font-family="Helvetica,sans-Serif" font-size="10.00" fill="#000000">include/lug/Math/ValArray.hpp</text>
</g>
<!-- Node1 -->
<g id="node2" class="node">
<title>Node1</title>
<polygon fill="none" stroke="#bfbfbf" points="0,-.5 0,-19.5 65,-19.5 65,-.5 0,-.5"/>
<text text-anchor="middle" x="32.5" y="-7.5" font-family="Helvetica,sans-Serif" font-size="10.00" fill="#000000">algorithm</text>
</g>
<!-- Node0&#45;&gt;Node1 -->
<g id="edge1" class="edge">
<title>Node0&#45;&gt;Node1</title>
<path fill="none" stroke="#191970" d="M146.777,-56.3733C124.3263,-47.2629 90.4261,-33.5062 65.3745,-23.3404"/>
<polygon fill="#191970" stroke="#191970" points="66.4957,-20.0182 55.9135,-19.5011 63.8635,-26.5045 66.4957,-20.0182"/>
</g>
<!-- Node2 -->
<g id="node3" class="node">
<title>Node2</title>
<polygon fill="none" stroke="#bfbfbf" points="83.5,-.5 83.5,-19.5 127.5,-19.5 127.5,-.5 83.5,-.5"/>
<text text-anchor="middle" x="105.5" y="-7.5" font-family="Helvetica,sans-Serif" font-size="10.00" fill="#000000">array</text>
</g>
<!-- Node0&#45;&gt;Node2 -->
<g id="edge2" class="edge">
<title>Node0&#45;&gt;Node2</title>
<path fill="none" stroke="#191970" d="M159.1779,-56.2455C149.5777,-47.9746 135.6108,-35.9416 124.3305,-26.2232"/>
<polygon fill="#191970" stroke="#191970" points="126.553,-23.5182 116.6924,-19.6427 121.984,-28.8214 126.553,-23.5182"/>
</g>
<!-- Node3 -->
<g id="node4" class="node">
<title>Node3</title>
<polygon fill="none" stroke="#bfbfbf" points="145.5,-.5 145.5,-19.5 195.5,-19.5 195.5,-.5 145.5,-.5"/>
<text text-anchor="middle" x="170.5" y="-7.5" font-family="Helvetica,sans-Serif" font-size="10.00" fill="#000000">cstring</text>
</g>
<!-- Node0&#45;&gt;Node3 -->
<g id="edge3" class="edge">
<title>Node0&#45;&gt;Node3</title>
<path fill="none" stroke="#191970" d="M170.5,-56.2455C170.5,-48.9382 170.5,-38.6944 170.5,-29.7046"/>
<polygon fill="#191970" stroke="#191970" points="174.0001,-29.6426 170.5,-19.6427 167.0001,-29.6427 174.0001,-29.6426"/>
</g>
<!-- Node4 -->
<g id="node5" class="node">
<title>Node4</title>
<polygon fill="none" stroke="#bfbfbf" points="214,-.5 214,-19.5 271,-19.5 271,-.5 214,-.5"/>
<text text-anchor="middle" x="242.5" y="-7.5" font-family="Helvetica,sans-Serif" font-size="10.00" fill="#000000">numeric</text>
</g>
<!-- Node0&#45;&gt;Node4 -->
<g id="edge4" class="edge">
<title>Node0&#45;&gt;Node4</title>
<path fill="none" stroke="#191970" d="M183.0414,-56.2455C193.7787,-47.8943 209.4473,-35.7076 222.0047,-25.9408"/>
<polygon fill="#191970" stroke="#191970" points="224.3575,-28.5449 230.1023,-19.6427 220.0599,-23.0194 224.3575,-28.5449"/>
</g>
<!-- Node5 -->
<g id="node6" class="node">
<title>Node5</title>
<g id="a_node6"><a xlink:href="ValArray_8inl.html" target="_top" xlink:title="lug/Math/ValArray.inl">
<polygon fill="none" stroke="#000000" points="289.5,-.5 289.5,-19.5 413.5,-19.5 413.5,-.5 289.5,-.5"/>
<text text-anchor="middle" x="351.5" y="-7.5" font-family="Helvetica,sans-Serif" font-size="10.00" fill="#000000">lug/Math/ValArray.inl</text>
</a>
</g>
</g>
<!-- Node0&#45;&gt;Node5 -->
<g id="edge5" class="edge">
<title>Node0&#45;&gt;Node5</title>
<path fill="none" stroke="#191970" d="M201.615,-56.3733C231.8429,-47.021 277.896,-32.7725 310.9739,-22.5385"/>
<polygon fill="#191970" stroke="#191970" points="312.2723,-25.8005 320.791,-19.5011 310.2033,-19.1133 312.2723,-25.8005"/>
</g>
</g>
</svg>
