<?xml version="1.0" encoding="UTF-8" standalone="no"?>
<!DOCTYPE svg PUBLIC "-//W3C//DTD SVG 1.1//EN"
 "http://www.w3.org/Graphics/SVG/1.1/DTD/svg11.dtd">
<!-- Generated by graphviz version 2.40.1 (20161225.0304)
 -->
<!-- Title: include/lug/Graphics/Vulkan/Render/Model.hpp Pages: 1 -->
<svg width="527pt" height="106pt"
 viewBox="0.00 0.00 526.50 106.00" xmlns="http://www.w3.org/2000/svg" xmlns:xlink="http://www.w3.org/1999/xlink">
<g id="graph0" class="graph" transform="scale(1 1) rotate(0) translate(4 102)">
<title>include/lug/Graphics/Vulkan/Render/Model.hpp</title>
<!-- Node34 -->
<g id="node1" class="node">
<title>Node34</title>
<polygon fill="#bfbfbf" stroke="#000000" points="180,-67.5 180,-97.5 330,-97.5 330,-67.5 180,-67.5"/>
<text text-anchor="start" x="188" y="-85.5" font-family="Helvetica,sans-Serif" font-size="10.00" fill="#000000">include/lug/Graphics</text>
<text text-anchor="middle" x="255" y="-74.5" font-family="Helvetica,sans-Serif" font-size="10.00" fill="#000000">/Vulkan/Render/Model.hpp</text>
</g>
<!-- Node35 -->
<g id="node2" class="node">
<title>Node35</title>
<g id="a_node2"><a xlink:href="Graphics_8cpp.html" target="_top" xlink:title="src/lug/Graphics/Graphics.cpp">
<polygon fill="none" stroke="#000000" points="0,-6 0,-25 168,-25 168,-6 0,-6"/>
<text text-anchor="middle" x="84" y="-13" font-family="Helvetica,sans-Serif" font-size="10.00" fill="#000000">src/lug/Graphics/Graphics.cpp</text>
</a>
</g>
</g>
<!-- Node34&#45;&gt;Node35 -->
<g id="edge1" class="edge">
<title>Node34&#45;&gt;Node35</title>
<path fill="none" stroke="#191970" d="M206.9844,-63.6869C174.9306,-51.1278 134.1128,-35.1349 108.5115,-25.1039"/>
<polygon fill="#191970" stroke="#191970" points="206.0366,-67.0745 216.6243,-67.4639 208.5903,-60.5569 206.0366,-67.0745"/>
</g>
<!-- Node36 -->
<g id="node3" class="node">
<title>Node36</title>
<g id="a_node3"><a xlink:href="Vulkan_2Render_2Model_8cpp.html" target="_top" xlink:title="src/lug/Graphics/Vulkan\l/Render/Model.cpp">
<polygon fill="none" stroke="#000000" points="186.5,-.5 186.5,-30.5 323.5,-30.5 323.5,-.5 186.5,-.5"/>
<text text-anchor="start" x="194.5" y="-18.5" font-family="Helvetica,sans-Serif" font-size="10.00" fill="#000000">src/lug/Graphics/Vulkan</text>
<text text-anchor="middle" x="255" y="-7.5" font-family="Helvetica,sans-Serif" font-size="10.00" fill="#000000">/Render/Model.cpp</text>
</a>
</g>
</g>
<!-- Node34&#45;&gt;Node36 -->
<g id="edge2" class="edge">
<title>Node34&#45;&gt;Node36</title>
<path fill="none" stroke="#191970" d="M255,-57.0249C255,-48.128 255,-38.4287 255,-30.6432"/>
<polygon fill="#191970" stroke="#191970" points="251.5001,-57.2966 255,-67.2967 258.5001,-57.2967 251.5001,-57.2966"/>
</g>
<!-- Node37 -->
<g id="node4" class="node">
<title>Node37</title>
<g id="a_node4"><a xlink:href="Forward_8cpp.html" target="_top" xlink:title="src/lug/Graphics/Vulkan\l/Render/Technique/Forward.cpp">
<polygon fill="none" stroke="#000000" points="341.5,-.5 341.5,-30.5 518.5,-30.5 518.5,-.5 341.5,-.5"/>
<text text-anchor="start" x="349.5" y="-18.5" font-family="Helvetica,sans-Serif" font-size="10.00" fill="#000000">src/lug/Graphics/Vulkan</text>
<text text-anchor="middle" x="430" y="-7.5" font-family="Helvetica,sans-Serif" font-size="10.00" fill="#000000">/Render/Technique/Forward.cpp</text>
</a>
</g>
</g>
<!-- Node34&#45;&gt;Node37 -->
<g id="edge3" class="edge">
<title>Node34&#45;&gt;Node37</title>
<path fill="none" stroke="#191970" d="M303.6735,-63.865C331.0667,-53.3773 364.8283,-40.4515 390.5553,-30.6017"/>
<polygon fill="#191970" stroke="#191970" points="302.3609,-60.6197 294.2734,-67.4639 304.8638,-67.157 302.3609,-60.6197"/>
</g>
</g>
</svg>
