<?xml version="1.0" encoding="UTF-8" standalone="no"?>
<!DOCTYPE svg PUBLIC "-//W3C//DTD SVG 1.1//EN"
 "http://www.w3.org/Graphics/SVG/1.1/DTD/svg11.dtd">
<!-- Generated by graphviz version 2.40.1 (20161225.0304)
 -->
<!-- Title: include/lug/Graphics/Vulkan/Builder/Texture.hpp Pages: 1 -->
<svg width="1699pt" height="329pt"
 viewBox="0.00 0.00 1699.00 329.00" xmlns="http://www.w3.org/2000/svg" xmlns:xlink="http://www.w3.org/1999/xlink">
<g id="graph0" class="graph" transform="scale(1 1) rotate(0) translate(4 325)">
<title>include/lug/Graphics/Vulkan/Builder/Texture.hpp</title>
<!-- Node10 -->
<g id="node1" class="node">
<title>Node10</title>
<polygon fill="#bfbfbf" stroke="#000000" points="720,-290.5 720,-320.5 879,-320.5 879,-290.5 720,-290.5"/>
<text text-anchor="start" x="728" y="-308.5" font-family="Helvetica,sans-Serif" font-size="10.00" fill="#000000">include/lug/Graphics</text>
<text text-anchor="middle" x="799.5" y="-297.5" font-family="Helvetica,sans-Serif" font-size="10.00" fill="#000000">/Vulkan/Builder/Texture.hpp</text>
</g>
<!-- Node11 -->
<g id="node2" class="node">
<title>Node11</title>
<g id="a_node2"><a xlink:href="Builder_2Texture_8hpp.html" target="_top" xlink:title="include/lug/Graphics\l/Builder/Texture.hpp">
<polygon fill="none" stroke="#000000" points="468,-223.5 468,-253.5 589,-253.5 589,-223.5 468,-223.5"/>
<text text-anchor="start" x="476" y="-241.5" font-family="Helvetica,sans-Serif" font-size="10.00" fill="#000000">include/lug/Graphics</text>
<text text-anchor="middle" x="528.5" y="-230.5" font-family="Helvetica,sans-Serif" font-size="10.00" fill="#000000">/Builder/Texture.hpp</text>
</a>
</g>
</g>
<!-- Node10&#45;&gt;Node11 -->
<g id="edge1" class="edge">
<title>Node10&#45;&gt;Node11</title>
<path fill="none" stroke="#191970" d="M728.7719,-288.0137C685.4103,-277.2933 630.4766,-263.7119 589.1147,-253.4859"/>
<polygon fill="#191970" stroke="#191970" points="728.1345,-291.4615 738.6823,-290.4639 729.8146,-284.6661 728.1345,-291.4615"/>
</g>
<!-- Node17 -->
<g id="node8" class="node">
<title>Node17</title>
<g id="a_node8"><a xlink:href="Vulkan_2Builder_2Texture_8cpp.html" target="_top" xlink:title="src/lug/Graphics/Vulkan\l/Builder/Texture.cpp">
<polygon fill="none" stroke="#000000" points="731,-151 731,-181 868,-181 868,-151 731,-151"/>
<text text-anchor="start" x="739" y="-169" font-family="Helvetica,sans-Serif" font-size="10.00" fill="#000000">src/lug/Graphics/Vulkan</text>
<text text-anchor="middle" x="799.5" y="-158" font-family="Helvetica,sans-Serif" font-size="10.00" fill="#000000">/Builder/Texture.cpp</text>
</a>
</g>
</g>
<!-- Node10&#45;&gt;Node17 -->
<g id="edge29" class="edge">
<title>Node10&#45;&gt;Node17</title>
<path fill="none" stroke="#191970" d="M799.5,-280.1668C799.5,-251.2706 799.5,-204.9582 799.5,-181.1758"/>
<polygon fill="#191970" stroke="#191970" points="796.0001,-280.3055 799.5,-290.3055 803.0001,-280.3055 796.0001,-280.3055"/>
</g>
<!-- Node20 -->
<g id="node11" class="node">
<title>Node20</title>
<g id="a_node11"><a xlink:href="Vulkan_2Render_2Texture_8hpp.html" target="_top" xlink:title="include/lug/Graphics\l/Vulkan/Render/Texture.hpp">
<polygon fill="none" stroke="#000000" points="910,-223.5 910,-253.5 1069,-253.5 1069,-223.5 910,-223.5"/>
<text text-anchor="start" x="918" y="-241.5" font-family="Helvetica,sans-Serif" font-size="10.00" fill="#000000">include/lug/Graphics</text>
<text text-anchor="middle" x="989.5" y="-230.5" font-family="Helvetica,sans-Serif" font-size="10.00" fill="#000000">/Vulkan/Render/Texture.hpp</text>
</a>
</g>
</g>
<!-- Node10&#45;&gt;Node20 -->
<g id="edge11" class="edge">
<title>Node10&#45;&gt;Node20</title>
<path fill="none" stroke="#191970" d="M851.9563,-287.0023C881.7664,-276.4903 918.6202,-263.4945 946.6743,-253.6017"/>
<polygon fill="#191970" stroke="#191970" points="850.4065,-283.8374 842.1397,-290.4639 852.7345,-290.439 850.4065,-283.8374"/>
</g>
<!-- Node12 -->
<g id="node3" class="node">
<title>Node12</title>
<g id="a_node3"><a xlink:href="Builder_2SkyBox_8hpp.html" target="_top" xlink:title="include/lug/Graphics\l/Builder/SkyBox.hpp">
<polygon fill="none" stroke="#000000" points="9.5,-151 9.5,-181 129.5,-181 129.5,-151 9.5,-151"/>
<text text-anchor="start" x="17.5" y="-169" font-family="Helvetica,sans-Serif" font-size="10.00" fill="#000000">include/lug/Graphics</text>
<text text-anchor="middle" x="69.5" y="-158" font-family="Helvetica,sans-Serif" font-size="10.00" fill="#000000">/Builder/SkyBox.hpp</text>
</a>
</g>
</g>
<!-- Node11&#45;&gt;Node12 -->
<g id="edge2" class="edge">
<title>Node11&#45;&gt;Node12</title>
<path fill="none" stroke="#191970" d="M457.5701,-232.6611C378.9505,-225.3739 248.6919,-210.8746 138.5,-187 130.9126,-185.3561 122.9532,-183.2767 115.2469,-181.0692"/>
<polygon fill="#191970" stroke="#191970" points="457.564,-236.1751 467.8409,-233.5993 458.2008,-229.2041 457.564,-236.1751"/>
</g>
<!-- Node14 -->
<g id="node5" class="node">
<title>Node14</title>
<g id="a_node5"><a xlink:href="Vulkan_2Builder_2SkyBox_8cpp.html" target="_top" xlink:title="src/lug/Graphics/Vulkan\l/Builder/SkyBox.cpp">
<polygon fill="none" stroke="#000000" points="441,-73 441,-103 578,-103 578,-73 441,-73"/>
<text text-anchor="start" x="449" y="-91" font-family="Helvetica,sans-Serif" font-size="10.00" fill="#000000">src/lug/Graphics/Vulkan</text>
<text text-anchor="middle" x="509.5" y="-80" font-family="Helvetica,sans-Serif" font-size="10.00" fill="#000000">/Builder/SkyBox.cpp</text>
</a>
</g>
</g>
<!-- Node11&#45;&gt;Node14 -->
<g id="edge7" class="edge">
<title>Node11&#45;&gt;Node14</title>
<path fill="none" stroke="#191970" d="M525.2907,-213.0787C521.3219,-181.642 514.6925,-129.1304 511.4315,-103.2994"/>
<polygon fill="#191970" stroke="#191970" points="521.8486,-213.7582 526.5736,-223.241 528.7935,-212.8814 521.8486,-213.7582"/>
</g>
<!-- Node15 -->
<g id="node6" class="node">
<title>Node15</title>
<g id="a_node6"><a xlink:href="Builder_2Texture_8cpp.html" target="_top" xlink:title="src/lug/Graphics/Builder\l/Texture.cpp">
<polygon fill="none" stroke="#000000" points="148,-151 148,-181 287,-181 287,-151 148,-151"/>
<text text-anchor="start" x="156" y="-169" font-family="Helvetica,sans-Serif" font-size="10.00" fill="#000000">src/lug/Graphics/Builder</text>
<text text-anchor="middle" x="217.5" y="-158" font-family="Helvetica,sans-Serif" font-size="10.00" fill="#000000">/Texture.cpp</text>
</a>
</g>
</g>
<!-- Node11&#45;&gt;Node15 -->
<g id="edge5" class="edge">
<title>Node11&#45;&gt;Node15</title>
<path fill="none" stroke="#191970" d="M457.8862,-223.6187C411.827,-213.7166 350.4622,-200.1556 296.5,-187 288.9167,-185.1513 280.9454,-183.1276 273.1029,-181.0895"/>
<polygon fill="#191970" stroke="#191970" points="457.2573,-227.0633 467.7689,-225.7377 458.7249,-220.2188 457.2573,-227.0633"/>
</g>
<!-- Node16 -->
<g id="node7" class="node">
<title>Node16</title>
<g id="a_node7"><a xlink:href="GltfLoader_8cpp.html" target="_top" xlink:title="src/lug/Graphics/GltfLoader.cpp">
<polygon fill="none" stroke="#000000" points="305.5,-156.5 305.5,-175.5 481.5,-175.5 481.5,-156.5 305.5,-156.5"/>
<text text-anchor="middle" x="393.5" y="-163.5" font-family="Helvetica,sans-Serif" font-size="10.00" fill="#000000">src/lug/Graphics/GltfLoader.cpp</text>
</a>
</g>
</g>
<!-- Node11&#45;&gt;Node16 -->
<g id="edge6" class="edge">
<title>Node11&#45;&gt;Node16</title>
<path fill="none" stroke="#191970" d="M491.6816,-218.7272C465.6631,-204.7543 431.9189,-186.6324 411.5295,-175.6825"/>
<polygon fill="#191970" stroke="#191970" points="490.062,-221.8301 500.5279,-223.478 493.3739,-215.6631 490.062,-221.8301"/>
</g>
<!-- Node11&#45;&gt;Node17 -->
<g id="edge8" class="edge">
<title>Node11&#45;&gt;Node17</title>
<path fill="none" stroke="#191970" d="M594.8215,-220.8419C632.0597,-210.9174 679.3737,-198.2913 721.5,-187 728.6792,-185.0757 736.229,-183.0481 743.6883,-181.0424"/>
<polygon fill="#191970" stroke="#191970" points="593.8524,-217.4779 585.0908,-223.4349 595.6549,-224.2419 593.8524,-217.4779"/>
</g>
<!-- Node18 -->
<g id="node9" class="node">
<title>Node18</title>
<g id="a_node9"><a xlink:href="Gui_8cpp.html" target="_top" xlink:title="src/lug/Graphics/Vulkan\l/Gui.cpp">
<polygon fill="none" stroke="#000000" points="866,-73 866,-103 1003,-103 1003,-73 866,-73"/>
<text text-anchor="start" x="874" y="-91" font-family="Helvetica,sans-Serif" font-size="10.00" fill="#000000">src/lug/Graphics/Vulkan</text>
<text text-anchor="middle" x="934.5" y="-80" font-family="Helvetica,sans-Serif" font-size="10.00" fill="#000000">/Gui.cpp</text>
</a>
</g>
</g>
<!-- Node11&#45;&gt;Node18 -->
<g id="edge9" class="edge">
<title>Node11&#45;&gt;Node18</title>
<path fill="none" stroke="#191970" d="M531.7825,-213.4036C535.9912,-191.8315 545.4561,-161.6455 566.5,-145 611.6917,-109.254 772.3636,-95.6525 865.7908,-90.6878"/>
<polygon fill="#191970" stroke="#191970" points="528.2929,-213.048 530.069,-223.4929 535.194,-214.2201 528.2929,-213.048"/>
</g>
<!-- Node19 -->
<g id="node10" class="node">
<title>Node19</title>
<g id="a_node10"><a xlink:href="Vulkan_2Render_2SkyBox_8cpp.html" target="_top" xlink:title="src/lug/Graphics/Vulkan\l/Render/SkyBox.cpp">
<polygon fill="none" stroke="#000000" points="576,-151 576,-181 713,-181 713,-151 576,-151"/>
<text text-anchor="start" x="584" y="-169" font-family="Helvetica,sans-Serif" font-size="10.00" fill="#000000">src/lug/Graphics/Vulkan</text>
<text text-anchor="middle" x="644.5" y="-158" font-family="Helvetica,sans-Serif" font-size="10.00" fill="#000000">/Render/SkyBox.cpp</text>
</a>
</g>
</g>
<!-- Node11&#45;&gt;Node19 -->
<g id="edge10" class="edge">
<title>Node11&#45;&gt;Node19</title>
<path fill="none" stroke="#191970" d="M561.121,-218.1119C579.9873,-206.3205 603.3163,-191.7398 620.4955,-181.0028"/>
<polygon fill="#191970" stroke="#191970" points="559.1603,-215.2099 552.5353,-223.478 562.8703,-221.1459 559.1603,-215.2099"/>
</g>
<!-- Node13 -->
<g id="node4" class="node">
<title>Node13</title>
<g id="a_node4"><a xlink:href="Builder_2SkyBox_8cpp.html" target="_top" xlink:title="src/lug/Graphics/Builder\l/SkyBox.cpp">
<polygon fill="none" stroke="#000000" points="0,-73 0,-103 139,-103 139,-73 0,-73"/>
<text text-anchor="start" x="8" y="-91" font-family="Helvetica,sans-Serif" font-size="10.00" fill="#000000">src/lug/Graphics/Builder</text>
<text text-anchor="middle" x="69.5" y="-80" font-family="Helvetica,sans-Serif" font-size="10.00" fill="#000000">/SkyBox.cpp</text>
</a>
</g>
</g>
<!-- Node12&#45;&gt;Node13 -->
<g id="edge3" class="edge">
<title>Node12&#45;&gt;Node13</title>
<path fill="none" stroke="#191970" d="M69.5,-140.7875C69.5,-128.4187 69.5,-113.9264 69.5,-103.2592"/>
<polygon fill="#191970" stroke="#191970" points="66.0001,-140.9608 69.5,-150.9608 73.0001,-140.9608 66.0001,-140.9608"/>
</g>
<!-- Node12&#45;&gt;Node14 -->
<g id="edge4" class="edge">
<title>Node12&#45;&gt;Node14</title>
<path fill="none" stroke="#191970" d="M125.3294,-148.273C129.7657,-147.0896 134.1944,-145.9807 138.5,-145 242.8616,-121.2302 366.0291,-104.4977 440.9101,-95.5571"/>
<polygon fill="#191970" stroke="#191970" points="124.349,-144.9127 115.6505,-150.9614 126.2225,-151.6574 124.349,-144.9127"/>
</g>
<!-- Node20&#45;&gt;Node14 -->
<g id="edge23" class="edge">
<title>Node20&#45;&gt;Node14</title>
<path fill="none" stroke="#191970" d="M965.7194,-216.2282C938.768,-191.4683 896.0507,-153.7934 876.5,-145 824.5311,-121.6258 669.3776,-103.3566 578.2961,-94.2854"/>
<polygon fill="#191970" stroke="#191970" points="963.4825,-218.9267 973.2024,-223.1428 968.2332,-213.7856 963.4825,-218.9267"/>
</g>
<!-- Node20&#45;&gt;Node17 -->
<g id="edge24" class="edge">
<title>Node20&#45;&gt;Node17</title>
<path fill="none" stroke="#191970" d="M940.6269,-219.8511C908.9962,-207.7814 868.3567,-192.2743 838.8177,-181.0028"/>
<polygon fill="#191970" stroke="#191970" points="939.5411,-223.1829 950.1319,-223.478 942.0367,-216.6428 939.5411,-223.1829"/>
</g>
<!-- Node20&#45;&gt;Node18 -->
<g id="edge25" class="edge">
<title>Node20&#45;&gt;Node18</title>
<path fill="none" stroke="#191970" d="M969.6257,-215.4691C963.2569,-207.0077 956.7586,-197.0327 952.5,-187 940.5548,-158.859 936.5295,-122.9293 935.1782,-103.0098"/>
<polygon fill="#191970" stroke="#191970" points="966.9206,-217.6911 975.8635,-223.3721 972.4152,-213.3541 966.9206,-217.6911"/>
</g>
<!-- Node20&#45;&gt;Node19 -->
<g id="edge27" class="edge">
<title>Node20&#45;&gt;Node19</title>
<path fill="none" stroke="#191970" d="M899.8069,-223.0331C847.5755,-213.5857 780.5752,-200.7107 721.5,-187 713.8064,-185.2144 705.7215,-183.1829 697.801,-181.1034"/>
<polygon fill="#191970" stroke="#191970" points="899.2537,-226.4897 909.7155,-224.8163 900.4936,-219.6004 899.2537,-226.4897"/>
</g>
<!-- Node21 -->
<g id="node12" class="node">
<title>Node21</title>
<g id="a_node12"><a xlink:href="GuiTexture_8hpp.html" target="_top" xlink:title="include/lug/Graphics\l/Vulkan/Render/DescriptorSet\lPool/GuiTexture.hpp">
<polygon fill="none" stroke="#000000" points="962,-145.5 962,-186.5 1129,-186.5 1129,-145.5 962,-145.5"/>
<text text-anchor="start" x="970" y="-174.5" font-family="Helvetica,sans-Serif" font-size="10.00" fill="#000000">include/lug/Graphics</text>
<text text-anchor="start" x="970" y="-163.5" font-family="Helvetica,sans-Serif" font-size="10.00" fill="#000000">/Vulkan/Render/DescriptorSet</text>
<text text-anchor="middle" x="1045.5" y="-152.5" font-family="Helvetica,sans-Serif" font-size="10.00" fill="#000000">Pool/GuiTexture.hpp</text>
</a>
</g>
</g>
<!-- Node20&#45;&gt;Node21 -->
<g id="edge12" class="edge">
<title>Node20&#45;&gt;Node21</title>
<path fill="none" stroke="#191970" d="M1007.3347,-215.4104C1014.5062,-206.1259 1022.7072,-195.5086 1029.6644,-186.5015"/>
<polygon fill="#191970" stroke="#191970" points="1004.4463,-213.4243 1001.1032,-223.478 1009.9861,-217.7034 1004.4463,-213.4243"/>
</g>
<!-- Node22 -->
<g id="node13" class="node">
<title>Node22</title>
<g id="a_node13"><a xlink:href="GuiTexture_8cpp.html" target="_top" xlink:title="src/lug/Graphics/Vulkan\l/Render/DescriptorSetPool\l/GuiTexture.cpp">
<polygon fill="none" stroke="#000000" points="1022.5,-67.5 1022.5,-108.5 1172.5,-108.5 1172.5,-67.5 1022.5,-67.5"/>
<text text-anchor="start" x="1030.5" y="-96.5" font-family="Helvetica,sans-Serif" font-size="10.00" fill="#000000">src/lug/Graphics/Vulkan</text>
<text text-anchor="start" x="1030.5" y="-85.5" font-family="Helvetica,sans-Serif" font-size="10.00" fill="#000000">/Render/DescriptorSetPool</text>
<text text-anchor="middle" x="1097.5" y="-74.5" font-family="Helvetica,sans-Serif" font-size="10.00" fill="#000000">/GuiTexture.cpp</text>
</a>
</g>
</g>
<!-- Node20&#45;&gt;Node22 -->
<g id="edge26" class="edge">
<title>Node20&#45;&gt;Node22</title>
<path fill="none" stroke="#191970" d="M1065.6733,-220.6787C1097.1131,-211.6409 1128.3579,-199.861 1137.5,-187 1154.7916,-162.6744 1134.5127,-129.789 1117.0807,-108.7318"/>
<polygon fill="#191970" stroke="#191970" points="1064.6269,-217.3368 1055.9341,-223.3936 1066.5067,-224.0797 1064.6269,-217.3368"/>
</g>
<!-- Node23 -->
<g id="node14" class="node">
<title>Node23</title>
<g id="a_node14"><a xlink:href="MaterialTextures_8hpp.html" target="_top" xlink:title="include/lug/Graphics\l/Vulkan/Render/DescriptorSet\lPool/MaterialTextures.hpp">
<polygon fill="none" stroke="#000000" points="1369,-145.5 1369,-186.5 1536,-186.5 1536,-145.5 1369,-145.5"/>
<text text-anchor="start" x="1377" y="-174.5" font-family="Helvetica,sans-Serif" font-size="10.00" fill="#000000">include/lug/Graphics</text>
<text text-anchor="start" x="1377" y="-163.5" font-family="Helvetica,sans-Serif" font-size="10.00" fill="#000000">/Vulkan/Render/DescriptorSet</text>
<text text-anchor="middle" x="1452.5" y="-152.5" font-family="Helvetica,sans-Serif" font-size="10.00" fill="#000000">Pool/MaterialTextures.hpp</text>
</a>
</g>
</g>
<!-- Node20&#45;&gt;Node23 -->
<g id="edge15" class="edge">
<title>Node20&#45;&gt;Node23</title>
<path fill="none" stroke="#191970" d="M1079.5674,-228.1052C1154.6976,-218.9219 1264.4351,-204.3177 1359.5,-187 1362.594,-186.4364 1365.7411,-185.8407 1368.9162,-185.2209"/>
<polygon fill="#191970" stroke="#191970" points="1078.7058,-224.684 1069.201,-229.3647 1079.5502,-231.6329 1078.7058,-224.684"/>
</g>
<!-- Node28 -->
<g id="node19" class="node">
<title>Node28</title>
<g id="a_node19"><a xlink:href="Vulkan_2Render_2DescriptorSetPool_2SkyBox_8hpp.html" target="_top" xlink:title="include/lug/Graphics\l/Vulkan/Render/DescriptorSet\lPool/SkyBox.hpp">
<polygon fill="none" stroke="#000000" points="1184,-145.5 1184,-186.5 1351,-186.5 1351,-145.5 1184,-145.5"/>
<text text-anchor="start" x="1192" y="-174.5" font-family="Helvetica,sans-Serif" font-size="10.00" fill="#000000">include/lug/Graphics</text>
<text text-anchor="start" x="1192" y="-163.5" font-family="Helvetica,sans-Serif" font-size="10.00" fill="#000000">/Vulkan/Render/DescriptorSet</text>
<text text-anchor="middle" x="1267.5" y="-152.5" font-family="Helvetica,sans-Serif" font-size="10.00" fill="#000000">Pool/SkyBox.hpp</text>
</a>
</g>
</g>
<!-- Node20&#45;&gt;Node28 -->
<g id="edge20" class="edge">
<title>Node20&#45;&gt;Node28</title>
<path fill="none" stroke="#191970" d="M1056.9742,-220.9033C1096.7638,-210.5265 1147.3013,-197.3468 1188.8873,-186.5015"/>
<polygon fill="#191970" stroke="#191970" points="1055.8949,-217.5676 1047.1018,-223.478 1057.6614,-224.3411 1055.8949,-217.5676"/>
</g>
<!-- Node30 -->
<g id="node21" class="node">
<title>Node30</title>
<g id="a_node21"><a xlink:href="Vulkan_2Render_2Texture_8cpp.html" target="_top" xlink:title="src/lug/Graphics/Vulkan\l/Render/Texture.cpp">
<polygon fill="none" stroke="#000000" points="1554,-151 1554,-181 1691,-181 1691,-151 1554,-151"/>
<text text-anchor="start" x="1562" y="-169" font-family="Helvetica,sans-Serif" font-size="10.00" fill="#000000">src/lug/Graphics/Vulkan</text>
<text text-anchor="middle" x="1622.5" y="-158" font-family="Helvetica,sans-Serif" font-size="10.00" fill="#000000">/Render/Texture.cpp</text>
</a>
</g>
</g>
<!-- Node20&#45;&gt;Node30 -->
<g id="edge28" class="edge">
<title>Node20&#45;&gt;Node30</title>
<path fill="none" stroke="#191970" d="M1079.196,-234.883C1189.4559,-229.3584 1381.9466,-216.204 1544.5,-187 1553.3338,-185.4129 1562.6258,-183.3069 1571.5946,-181.0406"/>
<polygon fill="#191970" stroke="#191970" points="1078.9295,-231.3918 1069.1134,-235.3784 1079.2731,-238.3834 1078.9295,-231.3918"/>
</g>
<!-- Node21&#45;&gt;Node18 -->
<g id="edge13" class="edge">
<title>Node21&#45;&gt;Node18</title>
<path fill="none" stroke="#191970" d="M1007.8046,-139.5113C990.5272,-127.3705 970.675,-113.4203 955.9913,-103.102"/>
<polygon fill="#191970" stroke="#191970" points="1005.8512,-142.4164 1016.0455,-145.3022 1009.8758,-136.689 1005.8512,-142.4164"/>
</g>
<!-- Node21&#45;&gt;Node22 -->
<g id="edge14" class="edge">
<title>Node21&#45;&gt;Node22</title>
<path fill="none" stroke="#191970" d="M1065.1546,-136.5181C1071.3345,-127.2482 1078.0239,-117.2141 1083.7068,-108.6898"/>
<polygon fill="#191970" stroke="#191970" points="1062.0699,-134.8354 1059.435,-145.0974 1067.8943,-138.7184 1062.0699,-134.8354"/>
</g>
<!-- Node24 -->
<g id="node15" class="node">
<title>Node24</title>
<g id="a_node15"><a xlink:href="Forward_8hpp.html" target="_top" xlink:title="include/lug/Graphics\l/Vulkan/Render/Technique\l/Forward.hpp">
<polygon fill="none" stroke="#000000" points="1359,-67.5 1359,-108.5 1508,-108.5 1508,-67.5 1359,-67.5"/>
<text text-anchor="start" x="1367" y="-96.5" font-family="Helvetica,sans-Serif" font-size="10.00" fill="#000000">include/lug/Graphics</text>
<text text-anchor="start" x="1367" y="-85.5" font-family="Helvetica,sans-Serif" font-size="10.00" fill="#000000">/Vulkan/Render/Technique</text>
<text text-anchor="middle" x="1433.5" y="-74.5" font-family="Helvetica,sans-Serif" font-size="10.00" fill="#000000">/Forward.hpp</text>
</a>
</g>
</g>
<!-- Node23&#45;&gt;Node24 -->
<g id="edge16" class="edge">
<title>Node23&#45;&gt;Node24</title>
<path fill="none" stroke="#191970" d="M1445.0383,-135.3676C1442.8595,-126.4232 1440.5306,-116.8626 1438.5398,-108.6898"/>
<polygon fill="#191970" stroke="#191970" points="1441.641,-136.2099 1447.4083,-145.0974 1448.4421,-134.5532 1441.641,-136.2099"/>
</g>
<!-- Node27 -->
<g id="node18" class="node">
<title>Node27</title>
<g id="a_node18"><a xlink:href="MaterialTextures_8cpp.html" target="_top" xlink:title="src/lug/Graphics/Vulkan\l/Render/DescriptorSetPool\l/MaterialTextures.cpp">
<polygon fill="none" stroke="#000000" points="1525.5,-67.5 1525.5,-108.5 1675.5,-108.5 1675.5,-67.5 1525.5,-67.5"/>
<text text-anchor="start" x="1533.5" y="-96.5" font-family="Helvetica,sans-Serif" font-size="10.00" fill="#000000">src/lug/Graphics/Vulkan</text>
<text text-anchor="start" x="1533.5" y="-85.5" font-family="Helvetica,sans-Serif" font-size="10.00" fill="#000000">/Render/DescriptorSetPool</text>
<text text-anchor="middle" x="1600.5" y="-74.5" font-family="Helvetica,sans-Serif" font-size="10.00" fill="#000000">/MaterialTextures.cpp</text>
</a>
</g>
</g>
<!-- Node23&#45;&gt;Node27 -->
<g id="edge19" class="edge">
<title>Node23&#45;&gt;Node27</title>
<path fill="none" stroke="#191970" d="M1500.8836,-140.5005C1520.5511,-130.1352 1542.9725,-118.3185 1561.5573,-108.5239"/>
<polygon fill="#191970" stroke="#191970" points="1498.9875,-137.5435 1491.7727,-145.3022 1502.2512,-143.7361 1498.9875,-137.5435"/>
</g>
<!-- Node25 -->
<g id="node16" class="node">
<title>Node25</title>
<g id="a_node16"><a xlink:href="Forward_8cpp.html" target="_top" xlink:title="src/lug/Graphics/Vulkan\l/Render/Technique/Forward.cpp">
<polygon fill="none" stroke="#000000" points="1258,-.5 1258,-30.5 1435,-30.5 1435,-.5 1258,-.5"/>
<text text-anchor="start" x="1266" y="-18.5" font-family="Helvetica,sans-Serif" font-size="10.00" fill="#000000">src/lug/Graphics/Vulkan</text>
<text text-anchor="middle" x="1346.5" y="-7.5" font-family="Helvetica,sans-Serif" font-size="10.00" fill="#000000">/Render/Technique/Forward.cpp</text>
</a>
</g>
</g>
<!-- Node24&#45;&gt;Node25 -->
<g id="edge17" class="edge">
<title>Node24&#45;&gt;Node25</title>
<path fill="none" stroke="#191970" d="M1400.9499,-60.8749C1388.6592,-50.6327 1375.1212,-39.351 1364.6189,-30.5991"/>
<polygon fill="#191970" stroke="#191970" points="1398.8791,-63.7052 1408.802,-67.4183 1403.3604,-58.3277 1398.8791,-63.7052"/>
</g>
<!-- Node26 -->
<g id="node17" class="node">
<title>Node26</title>
<g id="a_node17"><a xlink:href="Vulkan_2Render_2View_8cpp.html" target="_top" xlink:title="src/lug/Graphics/Vulkan\l/Render/View.cpp">
<polygon fill="none" stroke="#000000" points="1453,-.5 1453,-30.5 1590,-30.5 1590,-.5 1453,-.5"/>
<text text-anchor="start" x="1461" y="-18.5" font-family="Helvetica,sans-Serif" font-size="10.00" fill="#000000">src/lug/Graphics/Vulkan</text>
<text text-anchor="middle" x="1521.5" y="-7.5" font-family="Helvetica,sans-Serif" font-size="10.00" fill="#000000">/Render/View.cpp</text>
</a>
</g>
</g>
<!-- Node24&#45;&gt;Node26 -->
<g id="edge18" class="edge">
<title>Node24&#45;&gt;Node26</title>
<path fill="none" stroke="#191970" d="M1466.4243,-60.8749C1478.8562,-50.6327 1492.5498,-39.351 1503.1728,-30.5991"/>
<polygon fill="#191970" stroke="#191970" points="1463.9744,-58.3584 1458.4819,-67.4183 1468.4255,-63.761 1463.9744,-58.3584"/>
</g>
<!-- Node28&#45;&gt;Node24 -->
<g id="edge21" class="edge">
<title>Node28&#45;&gt;Node24</title>
<path fill="none" stroke="#191970" d="M1320.8715,-140.9218C1343.144,-130.4564 1368.693,-118.4515 1389.821,-108.5239"/>
<polygon fill="#191970" stroke="#191970" points="1319.1113,-137.8817 1311.5491,-145.3022 1322.0883,-144.2172 1319.1113,-137.8817"/>
</g>
<!-- Node29 -->
<g id="node20" class="node">
<title>Node29</title>
<g id="a_node20"><a xlink:href="Vulkan_2Render_2DescriptorSetPool_2SkyBox_8cpp.html" target="_top" xlink:title="src/lug/Graphics/Vulkan\l/Render/DescriptorSetPool\l/SkyBox.cpp">
<polygon fill="none" stroke="#000000" points="1191.5,-67.5 1191.5,-108.5 1341.5,-108.5 1341.5,-67.5 1191.5,-67.5"/>
<text text-anchor="start" x="1199.5" y="-96.5" font-family="Helvetica,sans-Serif" font-size="10.00" fill="#000000">src/lug/Graphics/Vulkan</text>
<text text-anchor="start" x="1199.5" y="-85.5" font-family="Helvetica,sans-Serif" font-size="10.00" fill="#000000">/Render/DescriptorSetPool</text>
<text text-anchor="middle" x="1266.5" y="-74.5" font-family="Helvetica,sans-Serif" font-size="10.00" fill="#000000">/SkyBox.cpp</text>
</a>
</g>
</g>
<!-- Node28&#45;&gt;Node29 -->
<g id="edge22" class="edge">
<title>Node28&#45;&gt;Node29</title>
<path fill="none" stroke="#191970" d="M1267.1036,-135.0789C1266.99,-126.2178 1266.8689,-116.7747 1266.7653,-108.6898"/>
<polygon fill="#191970" stroke="#191970" points="1263.604,-135.1432 1267.232,-145.0974 1270.6034,-135.0534 1263.604,-135.1432"/>
</g>
</g>
</svg>
