<?xml version="1.0" encoding="UTF-8" standalone="no"?>
<!DOCTYPE svg PUBLIC "-//W3C//DTD SVG 1.1//EN"
 "http://www.w3.org/Graphics/SVG/1.1/DTD/svg11.dtd">
<!-- Generated by graphviz version 2.40.1 (20161225.0304)
 -->
<!-- Title: include/lug/Graphics/Vulkan/Render/Mesh.hpp Pages: 1 -->
<svg width="964pt" height="341pt"
 viewBox="0.00 0.00 964.19 341.00" xmlns="http://www.w3.org/2000/svg" xmlns:xlink="http://www.w3.org/1999/xlink">
<g id="graph0" class="graph" transform="scale(1 1) rotate(0) translate(4 337)">
<title>include/lug/Graphics/Vulkan/Render/Mesh.hpp</title>
<!-- Node0 -->
<g id="node1" class="node">
<title>Node0</title>
<polygon fill="#bfbfbf" stroke="#000000" points="238.1855,-302.5 238.1855,-332.5 384.1855,-332.5 384.1855,-302.5 238.1855,-302.5"/>
<text text-anchor="start" x="246.1855" y="-320.5" font-family="Helvetica,sans-Serif" font-size="10.00" fill="#000000">include/lug/Graphics</text>
<text text-anchor="middle" x="311.1855" y="-309.5" font-family="Helvetica,sans-Serif" font-size="10.00" fill="#000000">/Vulkan/Render/Mesh.hpp</text>
</g>
<!-- Node1 -->
<g id="node2" class="node">
<title>Node1</title>
<polygon fill="none" stroke="#bfbfbf" points="107.6855,-174 107.6855,-193 166.6855,-193 166.6855,-174 107.6855,-174"/>
<text text-anchor="middle" x="137.1855" y="-181" font-family="Helvetica,sans-Serif" font-size="10.00" fill="#000000">memory</text>
</g>
<!-- Node0&#45;&gt;Node1 -->
<g id="edge1" class="edge">
<title>Node0&#45;&gt;Node1</title>
<path fill="none" stroke="#191970" d="M252.5286,-302.448C229.6402,-294.4247 204.3524,-282.6732 185.1855,-266 165.2355,-248.6456 151.5066,-220.8722 143.9945,-202.4113"/>
<polygon fill="#191970" stroke="#191970" points="147.2322,-201.0793 140.375,-193.0028 140.6989,-203.5927 147.2322,-201.0793"/>
</g>
<!-- Node2 -->
<g id="node3" class="node">
<title>Node2</title>
<g id="a_node3"><a xlink:href="Graphics_2Export_8hpp.html" target="_top" xlink:title="lug/Graphics/Export.hpp">
<polygon fill="none" stroke="#000000" points="87.1855,-112.5 87.1855,-131.5 225.1855,-131.5 225.1855,-112.5 87.1855,-112.5"/>
<text text-anchor="middle" x="156.1855" y="-119.5" font-family="Helvetica,sans-Serif" font-size="10.00" fill="#000000">lug/Graphics/Export.hpp</text>
</a>
</g>
</g>
<!-- Node0&#45;&gt;Node2 -->
<g id="edge2" class="edge">
<title>Node0&#45;&gt;Node2</title>
<path fill="none" stroke="#191970" d="M238.0054,-309.8667C153.9561,-300.3483 25.7034,-283.2226 11.1855,-266 -32.1727,-214.5644 68.2475,-160.3235 123.2442,-135.6513"/>
<polygon fill="#191970" stroke="#191970" points="124.87,-138.76 132.6182,-131.5341 122.0549,-132.351 124.87,-138.76"/>
</g>
<!-- Node4 -->
<g id="node5" class="node">
<title>Node4</title>
<g id="a_node5"><a xlink:href="Render_2Mesh_8hpp.html" target="_top" xlink:title="lug/Graphics/Render\l/Mesh.hpp">
<polygon fill="none" stroke="#000000" points="524.6855,-235.5 524.6855,-265.5 643.6855,-265.5 643.6855,-235.5 524.6855,-235.5"/>
<text text-anchor="start" x="532.6855" y="-253.5" font-family="Helvetica,sans-Serif" font-size="10.00" fill="#000000">lug/Graphics/Render</text>
<text text-anchor="middle" x="584.1855" y="-242.5" font-family="Helvetica,sans-Serif" font-size="10.00" fill="#000000">/Mesh.hpp</text>
</a>
</g>
</g>
<!-- Node0&#45;&gt;Node4 -->
<g id="edge4" class="edge">
<title>Node0&#45;&gt;Node4</title>
<path fill="none" stroke="#191970" d="M372.452,-302.4639C414.6901,-292.0978 470.9048,-278.3015 514.7959,-267.5297"/>
<polygon fill="#191970" stroke="#191970" points="515.6539,-270.923 524.5315,-265.1404 513.9855,-264.1248 515.6539,-270.923"/>
</g>
<!-- Node23 -->
<g id="node24" class="node">
<title>Node23</title>
<g id="a_node24"><a xlink:href="Buffer_8hpp.html" target="_top" xlink:title="lug/Graphics/Vulkan\l/API/Buffer.hpp">
<polygon fill="none" stroke="#000000" points="20.1855,-235.5 20.1855,-265.5 138.1855,-265.5 138.1855,-235.5 20.1855,-235.5"/>
<text text-anchor="start" x="28.1855" y="-253.5" font-family="Helvetica,sans-Serif" font-size="10.00" fill="#000000">lug/Graphics/Vulkan</text>
<text text-anchor="middle" x="79.1855" y="-242.5" font-family="Helvetica,sans-Serif" font-size="10.00" fill="#000000">/API/Buffer.hpp</text>
</a>
</g>
</g>
<!-- Node0&#45;&gt;Node23 -->
<g id="edge28" class="edge">
<title>Node0&#45;&gt;Node23</title>
<path fill="none" stroke="#191970" d="M259.1202,-302.4639C224.1685,-292.3701 177.9552,-279.024 141.115,-268.3848"/>
<polygon fill="#191970" stroke="#191970" points="142.0564,-265.0137 131.4779,-265.6017 140.1142,-271.7389 142.0564,-265.0137"/>
</g>
<!-- Node24 -->
<g id="node25" class="node">
<title>Node24</title>
<g id="a_node25"><a xlink:href="Vulkan_8hpp.html" target="_top" xlink:title="lug/Graphics/Vulkan\l/Vulkan.hpp">
<polygon fill="none" stroke="#000000" points="261.1855,-168.5 261.1855,-198.5 379.1855,-198.5 379.1855,-168.5 261.1855,-168.5"/>
<text text-anchor="start" x="269.1855" y="-186.5" font-family="Helvetica,sans-Serif" font-size="10.00" fill="#000000">lug/Graphics/Vulkan</text>
<text text-anchor="middle" x="320.1855" y="-175.5" font-family="Helvetica,sans-Serif" font-size="10.00" fill="#000000">/Vulkan.hpp</text>
</a>
</g>
</g>
<!-- Node0&#45;&gt;Node24 -->
<g id="edge45" class="edge">
<title>Node0&#45;&gt;Node24</title>
<path fill="none" stroke="#191970" d="M322.9764,-302.2379C329.7601,-292.4664 337.6249,-279.1862 341.1855,-266 346.4182,-246.6214 340.1884,-224.5847 333.1855,-208.1642"/>
<polygon fill="#191970" stroke="#191970" points="336.1993,-206.3432 328.8208,-198.7399 329.8474,-209.2849 336.1993,-206.3432"/>
</g>
<!-- Node28 -->
<g id="node29" class="node">
<title>Node28</title>
<g id="a_node29"><a xlink:href="Device_8hpp.html" target="_top" xlink:title="lug/Graphics/Vulkan\l/API/Device.hpp">
<polygon fill="none" stroke="#000000" points="388.1855,-235.5 388.1855,-265.5 506.1855,-265.5 506.1855,-235.5 388.1855,-235.5"/>
<text text-anchor="start" x="396.1855" y="-253.5" font-family="Helvetica,sans-Serif" font-size="10.00" fill="#000000">lug/Graphics/Vulkan</text>
<text text-anchor="middle" x="447.1855" y="-242.5" font-family="Helvetica,sans-Serif" font-size="10.00" fill="#000000">/API/Device.hpp</text>
</a>
</g>
</g>
<!-- Node0&#45;&gt;Node28 -->
<g id="edge37" class="edge">
<title>Node0&#45;&gt;Node28</title>
<path fill="none" stroke="#191970" d="M341.7065,-302.4639C361.081,-292.9191 386.3584,-280.4663 407.3112,-270.144"/>
<polygon fill="#191970" stroke="#191970" points="408.872,-273.2768 416.2958,-265.7177 405.7785,-266.9974 408.872,-273.2768"/>
</g>
<!-- Node30 -->
<g id="node31" class="node">
<title>Node30</title>
<g id="a_node31"><a xlink:href="DeviceMemory_8hpp.html" target="_top" xlink:title="lug/Graphics/Vulkan\l/API/DeviceMemory.hpp">
<polygon fill="none" stroke="#000000" points="194.1855,-235.5 194.1855,-265.5 332.1855,-265.5 332.1855,-235.5 194.1855,-235.5"/>
<text text-anchor="start" x="202.1855" y="-253.5" font-family="Helvetica,sans-Serif" font-size="10.00" fill="#000000">lug/Graphics/Vulkan</text>
<text text-anchor="middle" x="263.1855" y="-242.5" font-family="Helvetica,sans-Serif" font-size="10.00" fill="#000000">/API/DeviceMemory.hpp</text>
</a>
</g>
</g>
<!-- Node0&#45;&gt;Node30 -->
<g id="edge41" class="edge">
<title>Node0&#45;&gt;Node30</title>
<path fill="none" stroke="#191970" d="M300.2935,-302.2967C294.2792,-293.9016 286.6806,-283.2952 279.9281,-273.8698"/>
<polygon fill="#191970" stroke="#191970" points="282.7034,-271.734 274.0343,-265.6432 277.013,-275.8107 282.7034,-271.734"/>
</g>
<!-- Node31 -->
<g id="node32" class="node">
<title>Node31</title>
<g id="a_node32"><a xlink:href="Vulkan_2Render_2Mesh_8inl.html" target="_top" xlink:title="lug/Graphics/Vulkan\l/Render/Mesh.inl">
<polygon fill="none" stroke="#000000" points="662.1855,-235.5 662.1855,-265.5 780.1855,-265.5 780.1855,-235.5 662.1855,-235.5"/>
<text text-anchor="start" x="670.1855" y="-253.5" font-family="Helvetica,sans-Serif" font-size="10.00" fill="#000000">lug/Graphics/Vulkan</text>
<text text-anchor="middle" x="721.1855" y="-242.5" font-family="Helvetica,sans-Serif" font-size="10.00" fill="#000000">/Render/Mesh.inl</text>
</a>
</g>
</g>
<!-- Node0&#45;&gt;Node31 -->
<g id="edge46" class="edge">
<title>Node0&#45;&gt;Node31</title>
<path fill="none" stroke="#191970" d="M384.5049,-308.0718C451.6337,-299.0717 553.9301,-284.4345 651.8321,-266.1806"/>
<polygon fill="#191970" stroke="#191970" points="652.7209,-269.5749 661.9019,-264.2872 651.4273,-262.6955 652.7209,-269.5749"/>
</g>
<!-- Node3 -->
<g id="node4" class="node">
<title>Node3</title>
<g id="a_node4"><a xlink:href="Config_8hpp.html" target="_top" xlink:title="lug/Config.hpp">
<polygon fill="none" stroke="#000000" points="162.6855,-.5 162.6855,-19.5 251.6855,-19.5 251.6855,-.5 162.6855,-.5"/>
<text text-anchor="middle" x="207.1855" y="-7.5" font-family="Helvetica,sans-Serif" font-size="10.00" fill="#000000">lug/Config.hpp</text>
</a>
</g>
</g>
<!-- Node2&#45;&gt;Node3 -->
<g id="edge3" class="edge">
<title>Node2&#45;&gt;Node3</title>
<path fill="none" stroke="#191970" d="M160.5337,-112.4509C168.9646,-93.936 187.6693,-52.8591 198.6618,-28.7187"/>
<polygon fill="#191970" stroke="#191970" points="201.8894,-30.0762 202.8483,-19.5249 195.5187,-27.1753 201.8894,-30.0762"/>
</g>
<!-- Node4&#45;&gt;Node2 -->
<g id="edge7" class="edge">
<title>Node4&#45;&gt;Node2</title>
<path fill="none" stroke="#191970" d="M577.8307,-235.3483C568.9073,-216.1433 550.7273,-183.6572 524.1855,-168 470.8383,-136.5301 313.7177,-139.7084 235.5774,-131.9089"/>
<polygon fill="#191970" stroke="#191970" points="235.8735,-128.4202 225.5466,-130.7878 235.0959,-135.3769 235.8735,-128.4202"/>
</g>
<!-- Node5 -->
<g id="node6" class="node">
<title>Node5</title>
<polygon fill="none" stroke="#bfbfbf" points="906.1855,-56.5 906.1855,-75.5 956.1855,-75.5 956.1855,-56.5 906.1855,-56.5"/>
<text text-anchor="middle" x="931.1855" y="-63.5" font-family="Helvetica,sans-Serif" font-size="10.00" fill="#000000">cstdint</text>
</g>
<!-- Node4&#45;&gt;Node5 -->
<g id="edge5" class="edge">
<title>Node4&#45;&gt;Node5</title>
<path fill="none" stroke="#191970" d="M643.9785,-236.837C647.0887,-236.1987 650.1718,-235.5823 653.1855,-235 751.3259,-216.0375 796.6225,-260.7978 875.1855,-199 911.155,-170.7063 924.3049,-115.0756 928.8871,-85.5246"/>
<polygon fill="#191970" stroke="#191970" points="932.3586,-85.9708 930.2535,-75.5872 925.4239,-85.0172 932.3586,-85.9708"/>
</g>
<!-- Node6 -->
<g id="node7" class="node">
<title>Node6</title>
<polygon fill="none" stroke="#bfbfbf" points="549.1855,-112.5 549.1855,-131.5 597.1855,-131.5 597.1855,-112.5 549.1855,-112.5"/>
<text text-anchor="middle" x="573.1855" y="-119.5" font-family="Helvetica,sans-Serif" font-size="10.00" fill="#000000">vector</text>
</g>
<!-- Node4&#45;&gt;Node6 -->
<g id="edge6" class="edge">
<title>Node4&#45;&gt;Node6</title>
<path fill="none" stroke="#191970" d="M582.8805,-235.2548C580.8876,-211.9744 577.0856,-167.5607 574.8814,-141.8117"/>
<polygon fill="#191970" stroke="#191970" points="578.3592,-141.4008 574.0189,-131.7358 571.3847,-141.9979 578.3592,-141.4008"/>
</g>
<!-- Node7 -->
<g id="node8" class="node">
<title>Node7</title>
<g id="a_node8"><a xlink:href="Vector_8hpp.html" target="_top" xlink:title="lug/Math/Vector.hpp">
<polygon fill="none" stroke="#000000" points="746.6855,-174 746.6855,-193 865.6855,-193 865.6855,-174 746.6855,-174"/>
<text text-anchor="middle" x="806.1855" y="-181" font-family="Helvetica,sans-Serif" font-size="10.00" fill="#000000">lug/Math/Vector.hpp</text>
</a>
</g>
</g>
<!-- Node4&#45;&gt;Node7 -->
<g id="edge8" class="edge">
<title>Node4&#45;&gt;Node7</title>
<path fill="none" stroke="#191970" d="M634.0066,-235.4639C673.3857,-223.5792 727.7043,-207.1858 764.732,-196.0108"/>
<polygon fill="#191970" stroke="#191970" points="766.1281,-199.2454 774.6904,-193.0053 764.1056,-192.5439 766.1281,-199.2454"/>
</g>
<!-- Node22 -->
<g id="node23" class="node">
<title>Node22</title>
<g id="a_node23"><a xlink:href="Render_2Mesh_8inl.html" target="_top" xlink:title="lug/Graphics/Render\l/Mesh.inl">
<polygon fill="none" stroke="#000000" points="609.6855,-168.5 609.6855,-198.5 728.6855,-198.5 728.6855,-168.5 609.6855,-168.5"/>
<text text-anchor="start" x="617.6855" y="-186.5" font-family="Helvetica,sans-Serif" font-size="10.00" fill="#000000">lug/Graphics/Render</text>
<text text-anchor="middle" x="669.1855" y="-175.5" font-family="Helvetica,sans-Serif" font-size="10.00" fill="#000000">/Mesh.inl</text>
</a>
</g>
</g>
<!-- Node4&#45;&gt;Node22 -->
<g id="edge27" class="edge">
<title>Node4&#45;&gt;Node22</title>
<path fill="none" stroke="#191970" d="M603.4733,-235.2967C614.8845,-226.302 629.5162,-214.7687 642.075,-204.8694"/>
<polygon fill="#191970" stroke="#191970" points="644.2871,-207.5824 649.974,-198.6432 639.9538,-202.0849 644.2871,-207.5824"/>
</g>
<!-- Node7&#45;&gt;Node5 -->
<g id="edge9" class="edge">
<title>Node7&#45;&gt;Node5</title>
<path fill="none" stroke="#191970" d="M820.6778,-173.8592C834.9382,-164.0728 857.01,-148.1073 874.1855,-132 890.3108,-116.8776 906.5848,-97.5345 917.5919,-83.7052"/>
<polygon fill="#191970" stroke="#191970" points="920.5977,-85.5437 924.01,-75.5133 915.0875,-81.2265 920.5977,-85.5437"/>
</g>
<!-- Node8 -->
<g id="node9" class="node">
<title>Node8</title>
<g id="a_node9"><a xlink:href="Matrix_8hpp.html" target="_top" xlink:title="lug/Math/Matrix.hpp">
<polygon fill="none" stroke="#000000" points="747.1855,-112.5 747.1855,-131.5 865.1855,-131.5 865.1855,-112.5 747.1855,-112.5"/>
<text text-anchor="middle" x="806.1855" y="-119.5" font-family="Helvetica,sans-Serif" font-size="10.00" fill="#000000">lug/Math/Matrix.hpp</text>
</a>
</g>
</g>
<!-- Node7&#45;&gt;Node8 -->
<g id="edge10" class="edge">
<title>Node7&#45;&gt;Node8</title>
<path fill="none" stroke="#191970" d="M806.1855,-173.8906C806.1855,-165.3657 806.1855,-152.6392 806.1855,-141.9235"/>
<polygon fill="#191970" stroke="#191970" points="809.6856,-141.7448 806.1855,-131.7449 802.6856,-141.7449 809.6856,-141.7448"/>
</g>
<!-- Node21 -->
<g id="node22" class="node">
<title>Node21</title>
<g id="a_node22"><a xlink:href="Vector_8inl.html" target="_top" xlink:title="lug/Math/Vector.inl">
<polygon fill="none" stroke="#000000" points="615.6855,-112.5 615.6855,-131.5 728.6855,-131.5 728.6855,-112.5 615.6855,-112.5"/>
<text text-anchor="middle" x="672.1855" y="-119.5" font-family="Helvetica,sans-Serif" font-size="10.00" fill="#000000">lug/Math/Vector.inl</text>
</a>
</g>
</g>
<!-- Node7&#45;&gt;Node21 -->
<g id="edge26" class="edge">
<title>Node7&#45;&gt;Node21</title>
<path fill="none" stroke="#191970" d="M785.248,-173.8906C762.9257,-163.6457 727.3818,-147.3326 702.1098,-135.7339"/>
<polygon fill="#191970" stroke="#191970" points="703.5244,-132.5322 692.976,-131.5419 700.6045,-138.8942 703.5244,-132.5322"/>
</g>
<!-- Node8&#45;&gt;Node5 -->
<g id="edge11" class="edge">
<title>Node8&#45;&gt;Node5</title>
<path fill="none" stroke="#191970" d="M827.6738,-112.3733C847.8295,-103.3435 878.1735,-89.7494 900.8035,-79.6111"/>
<polygon fill="#191970" stroke="#191970" points="902.2826,-82.7838 909.9776,-75.5011 899.4206,-76.3955 902.2826,-82.7838"/>
</g>
<!-- Node9 -->
<g id="node10" class="node">
<title>Node9</title>
<polygon fill="none" stroke="#bfbfbf" points="550.6855,-56.5 550.6855,-75.5 609.6855,-75.5 609.6855,-56.5 550.6855,-56.5"/>
<text text-anchor="middle" x="580.1855" y="-63.5" font-family="Helvetica,sans-Serif" font-size="10.00" fill="#000000">valarray</text>
</g>
<!-- Node8&#45;&gt;Node9 -->
<g id="edge12" class="edge">
<title>Node8&#45;&gt;Node9</title>
<path fill="none" stroke="#191970" d="M766.7575,-112.42C730.964,-103.6965 676.4625,-90.3478 619.8345,-76.1463"/>
<polygon fill="#191970" stroke="#191970" points="620.5397,-72.7148 609.9883,-73.6738 618.8347,-79.504 620.5397,-72.7148"/>
</g>
<!-- Node10 -->
<g id="node11" class="node">
<title>Node10</title>
<g id="a_node11"><a xlink:href="Math_2Export_8hpp.html" target="_top" xlink:title="lug/Math/Export.hpp">
<polygon fill="none" stroke="#000000" points="227.6855,-56.5 227.6855,-75.5 346.6855,-75.5 346.6855,-56.5 227.6855,-56.5"/>
<text text-anchor="middle" x="287.1855" y="-63.5" font-family="Helvetica,sans-Serif" font-size="10.00" fill="#000000">lug/Math/Export.hpp</text>
</a>
</g>
</g>
<!-- Node8&#45;&gt;Node10 -->
<g id="edge13" class="edge">
<title>Node8&#45;&gt;Node10</title>
<path fill="none" stroke="#191970" d="M746.8712,-113.0961C743.9361,-112.7124 741.0285,-112.3446 738.1855,-112 571.0904,-91.7489 528.3961,-95.2741 361.1855,-76 359.8815,-75.8497 358.5649,-75.6956 357.2388,-75.5384"/>
<polygon fill="#191970" stroke="#191970" points="357.2857,-72.0181 346.9348,-74.2783 356.436,-78.9663 357.2857,-72.0181"/>
</g>
<!-- Node11 -->
<g id="node12" class="node">
<title>Node11</title>
<g id="a_node12"><a xlink:href="ValArray_8hpp.html" target="_top" xlink:title="lug/Math/ValArray.hpp">
<polygon fill="none" stroke="#000000" points="628.1855,-56.5 628.1855,-75.5 758.1855,-75.5 758.1855,-56.5 628.1855,-56.5"/>
<text text-anchor="middle" x="693.1855" y="-63.5" font-family="Helvetica,sans-Serif" font-size="10.00" fill="#000000">lug/Math/ValArray.hpp</text>
</a>
</g>
</g>
<!-- Node8&#45;&gt;Node11 -->
<g id="edge15" class="edge">
<title>Node8&#45;&gt;Node11</title>
<path fill="none" stroke="#191970" d="M786.7601,-112.3733C768.7833,-103.4644 741.8414,-90.1127 721.4764,-80.0203"/>
<polygon fill="#191970" stroke="#191970" points="722.8716,-76.8055 712.3574,-75.5011 719.7633,-83.0776 722.8716,-76.8055"/>
</g>
<!-- Node17 -->
<g id="node18" class="node">
<title>Node17</title>
<g id="a_node18"><a xlink:href="Debug_8hpp.html" target="_top" xlink:title="lug/System/Debug.hpp">
<polygon fill="none" stroke="#000000" points="369.6855,-56.5 369.6855,-75.5 500.6855,-75.5 500.6855,-56.5 369.6855,-56.5"/>
<text text-anchor="middle" x="435.1855" y="-63.5" font-family="Helvetica,sans-Serif" font-size="10.00" fill="#000000">lug/System/Debug.hpp</text>
</a>
</g>
</g>
<!-- Node8&#45;&gt;Node17 -->
<g id="edge21" class="edge">
<title>Node8&#45;&gt;Node17</title>
<path fill="none" stroke="#191970" d="M746.9892,-113.0647C682.1559,-103.2786 578.1222,-87.5753 508.2554,-77.0294"/>
<polygon fill="#191970" stroke="#191970" points="508.6143,-73.544 498.2039,-75.5122 507.5695,-80.4656 508.6143,-73.544"/>
</g>
<!-- Node20 -->
<g id="node21" class="node">
<title>Node20</title>
<g id="a_node21"><a xlink:href="Matrix_8inl.html" target="_top" xlink:title="lug/Math/Matrix.inl">
<polygon fill="none" stroke="#000000" points="776.1855,-56.5 776.1855,-75.5 888.1855,-75.5 888.1855,-56.5 776.1855,-56.5"/>
<text text-anchor="middle" x="832.1855" y="-63.5" font-family="Helvetica,sans-Serif" font-size="10.00" fill="#000000">lug/Math/Matrix.inl</text>
</a>
</g>
</g>
<!-- Node8&#45;&gt;Node20 -->
<g id="edge25" class="edge">
<title>Node8&#45;&gt;Node20</title>
<path fill="none" stroke="#191970" d="M810.7143,-112.2455C814.2189,-104.6973 819.1782,-94.0158 823.4478,-84.8197"/>
<polygon fill="#191970" stroke="#191970" points="826.6719,-86.1867 827.7085,-75.6427 820.3228,-83.2389 826.6719,-86.1867"/>
</g>
<!-- Node10&#45;&gt;Node3 -->
<g id="edge14" class="edge">
<title>Node10&#45;&gt;Node3</title>
<path fill="none" stroke="#191970" d="M273.2506,-56.2455C261.0908,-47.7337 243.239,-35.2375 229.157,-25.3801"/>
<polygon fill="#191970" stroke="#191970" points="231.1602,-22.51 220.9607,-19.6427 227.1459,-28.2447 231.1602,-22.51"/>
</g>
<!-- Node12 -->
<g id="node13" class="node">
<title>Node12</title>
<polygon fill="none" stroke="#bfbfbf" points="707.6855,-.5 707.6855,-19.5 772.6855,-19.5 772.6855,-.5 707.6855,-.5"/>
<text text-anchor="middle" x="740.1855" y="-7.5" font-family="Helvetica,sans-Serif" font-size="10.00" fill="#000000">algorithm</text>
</g>
<!-- Node11&#45;&gt;Node12 -->
<g id="edge16" class="edge">
<title>Node11&#45;&gt;Node12</title>
<path fill="none" stroke="#191970" d="M701.3723,-56.2455C708.0444,-48.2958 717.6334,-36.8706 725.6108,-27.3656"/>
<polygon fill="#191970" stroke="#191970" points="728.3447,-29.5525 732.0925,-19.6427 722.9829,-25.0524 728.3447,-29.5525"/>
</g>
<!-- Node13 -->
<g id="node14" class="node">
<title>Node13</title>
<polygon fill="none" stroke="#bfbfbf" points="791.1855,-.5 791.1855,-19.5 835.1855,-19.5 835.1855,-.5 791.1855,-.5"/>
<text text-anchor="middle" x="813.1855" y="-7.5" font-family="Helvetica,sans-Serif" font-size="10.00" fill="#000000">array</text>
</g>
<!-- Node11&#45;&gt;Node13 -->
<g id="edge17" class="edge">
<title>Node11&#45;&gt;Node13</title>
<path fill="none" stroke="#191970" d="M713.8142,-56.3733C733.0774,-47.3838 762.0341,-33.8706 783.7274,-23.7471"/>
<polygon fill="#191970" stroke="#191970" points="785.2442,-26.9017 792.8259,-19.5011 782.284,-20.5584 785.2442,-26.9017"/>
</g>
<!-- Node14 -->
<g id="node15" class="node">
<title>Node14</title>
<polygon fill="none" stroke="#bfbfbf" points="853.1855,-.5 853.1855,-19.5 903.1855,-19.5 903.1855,-.5 853.1855,-.5"/>
<text text-anchor="middle" x="878.1855" y="-7.5" font-family="Helvetica,sans-Serif" font-size="10.00" fill="#000000">cstring</text>
</g>
<!-- Node11&#45;&gt;Node14 -->
<g id="edge18" class="edge">
<title>Node11&#45;&gt;Node14</title>
<path fill="none" stroke="#191970" d="M724.9881,-56.3733C757.8501,-46.4259 809.0112,-30.9393 843.0495,-20.6358"/>
<polygon fill="#191970" stroke="#191970" points="844.4671,-23.8636 853.0242,-17.6164 842.439,-17.1638 844.4671,-23.8636"/>
</g>
<!-- Node15 -->
<g id="node16" class="node">
<title>Node15</title>
<polygon fill="none" stroke="#bfbfbf" points="489.6855,-.5 489.6855,-19.5 546.6855,-19.5 546.6855,-.5 489.6855,-.5"/>
<text text-anchor="middle" x="518.1855" y="-7.5" font-family="Helvetica,sans-Serif" font-size="10.00" fill="#000000">numeric</text>
</g>
<!-- Node11&#45;&gt;Node15 -->
<g id="edge19" class="edge">
<title>Node11&#45;&gt;Node15</title>
<path fill="none" stroke="#191970" d="M663.1019,-56.3733C633.6494,-46.9484 588.6578,-32.5511 556.6261,-22.301"/>
<polygon fill="#191970" stroke="#191970" points="557.3087,-18.8446 546.7177,-19.1303 555.1752,-25.5116 557.3087,-18.8446"/>
</g>
<!-- Node16 -->
<g id="node17" class="node">
<title>Node16</title>
<g id="a_node17"><a xlink:href="ValArray_8inl.html" target="_top" xlink:title="lug/Math/ValArray.inl">
<polygon fill="none" stroke="#000000" points="565.1855,-.5 565.1855,-19.5 689.1855,-19.5 689.1855,-.5 565.1855,-.5"/>
<text text-anchor="middle" x="627.1855" y="-7.5" font-family="Helvetica,sans-Serif" font-size="10.00" fill="#000000">lug/Math/ValArray.inl</text>
</a>
</g>
</g>
<!-- Node11&#45;&gt;Node16 -->
<g id="edge20" class="edge">
<title>Node11&#45;&gt;Node16</title>
<path fill="none" stroke="#191970" d="M681.6892,-56.2455C671.9413,-47.9746 657.7596,-35.9416 646.3057,-26.2232"/>
<polygon fill="#191970" stroke="#191970" points="648.4396,-23.4437 638.5501,-19.6427 643.9108,-28.7813 648.4396,-23.4437"/>
</g>
<!-- Node17&#45;&gt;Node3 -->
<g id="edge22" class="edge">
<title>Node17&#45;&gt;Node3</title>
<path fill="none" stroke="#191970" d="M396.25,-56.4369C357.3935,-46.8932 297.5925,-32.2052 255.6766,-21.9101"/>
<polygon fill="#191970" stroke="#191970" points="256.5067,-18.51 245.9604,-19.5237 254.8369,-25.308 256.5067,-18.51"/>
</g>
<!-- Node18 -->
<g id="node19" class="node">
<title>Node18</title>
<g id="a_node19"><a xlink:href="Utils_8hpp.html" target="_top" xlink:title="lug/System/Utils.hpp">
<polygon fill="none" stroke="#000000" points="270.1855,-.5 270.1855,-19.5 392.1855,-19.5 392.1855,-.5 270.1855,-.5"/>
<text text-anchor="middle" x="331.1855" y="-7.5" font-family="Helvetica,sans-Serif" font-size="10.00" fill="#000000">lug/System/Utils.hpp</text>
</a>
</g>
</g>
<!-- Node17&#45;&gt;Node18 -->
<g id="edge23" class="edge">
<title>Node17&#45;&gt;Node18</title>
<path fill="none" stroke="#191970" d="M417.0701,-56.2455C400.7405,-47.4527 376.5145,-34.4079 357.9516,-24.4125"/>
<polygon fill="#191970" stroke="#191970" points="359.5574,-21.3021 349.0933,-19.6427 356.2387,-27.4654 359.5574,-21.3021"/>
</g>
<!-- Node19 -->
<g id="node20" class="node">
<title>Node19</title>
<polygon fill="none" stroke="#bfbfbf" points="410.6855,-.5 410.6855,-19.5 471.6855,-19.5 471.6855,-.5 410.6855,-.5"/>
<text text-anchor="middle" x="441.1855" y="-7.5" font-family="Helvetica,sans-Serif" font-size="10.00" fill="#000000">iostream</text>
</g>
<!-- Node17&#45;&gt;Node19 -->
<g id="edge24" class="edge">
<title>Node17&#45;&gt;Node19</title>
<path fill="none" stroke="#191970" d="M436.2306,-56.2455C437.0135,-48.9382 438.1111,-38.6944 439.0743,-29.7046"/>
<polygon fill="#191970" stroke="#191970" points="442.567,-29.9587 440.1523,-19.6427 435.6068,-29.2129 442.567,-29.9587"/>
</g>
<!-- Node23&#45;&gt;Node1 -->
<g id="edge29" class="edge">
<title>Node23&#45;&gt;Node1</title>
<path fill="none" stroke="#191970" d="M92.3466,-235.2967C101.2078,-225.0605 112.915,-211.5366 122.1448,-200.8746"/>
<polygon fill="#191970" stroke="#191970" points="125.0152,-202.9064 128.914,-193.055 119.7228,-198.3248 125.0152,-202.9064"/>
</g>
<!-- Node23&#45;&gt;Node2 -->
<g id="edge30" class="edge">
<title>Node23&#45;&gt;Node2</title>
<path fill="none" stroke="#191970" d="M79.7032,-235.3573C80.9378,-217.8828 84.9999,-188.8771 98.1855,-168 106.1153,-155.4445 118.7026,-144.8518 130.1276,-137.0079"/>
<polygon fill="#191970" stroke="#191970" points="132.0507,-139.9323 138.5414,-131.5584 128.2454,-134.057 132.0507,-139.9323"/>
</g>
<!-- Node23&#45;&gt;Node24 -->
<g id="edge31" class="edge">
<title>Node23&#45;&gt;Node24</title>
<path fill="none" stroke="#191970" d="M133.2706,-235.4639C169.5781,-225.3701 217.5842,-212.024 255.8536,-201.3848"/>
<polygon fill="#191970" stroke="#191970" points="257.1674,-204.6524 265.8645,-198.6017 255.2924,-197.9081 257.1674,-204.6524"/>
</g>
<!-- Node24&#45;&gt;Node2 -->
<g id="edge35" class="edge">
<title>Node24&#45;&gt;Node2</title>
<path fill="none" stroke="#191970" d="M280.0666,-168.4554C252.8228,-158.239 217.1478,-144.8609 191.0817,-135.0861"/>
<polygon fill="#191970" stroke="#191970" points="192.1919,-131.7645 181.5997,-131.5303 189.734,-138.3188 192.1919,-131.7645"/>
</g>
<!-- Node24&#45;&gt;Node6 -->
<g id="edge33" class="edge">
<title>Node24&#45;&gt;Node6</title>
<path fill="none" stroke="#191970" d="M379.2577,-169.8782C432.4606,-157.5802 506.243,-140.4429 538.9916,-132.1343"/>
<polygon fill="#191970" stroke="#191970" points="540.2952,-135.4114 549.0863,-129.498 538.5264,-128.6385 540.2952,-135.4114"/>
</g>
<!-- Node25 -->
<g id="node26" class="node">
<title>Node25</title>
<polygon fill="none" stroke="#bfbfbf" points="243.6855,-112.5 243.6855,-131.5 338.6855,-131.5 338.6855,-112.5 243.6855,-112.5"/>
<text text-anchor="middle" x="291.1855" y="-119.5" font-family="Helvetica,sans-Serif" font-size="10.00" fill="#000000">unordered_map</text>
</g>
<!-- Node24&#45;&gt;Node25 -->
<g id="edge32" class="edge">
<title>Node24&#45;&gt;Node25</title>
<path fill="none" stroke="#191970" d="M313.017,-168.2977C309.1172,-160.0277 304.2574,-149.7215 300.1137,-140.9339"/>
<polygon fill="#191970" stroke="#191970" points="303.2596,-139.399 295.8288,-131.8469 296.9282,-142.3846 303.2596,-139.399"/>
</g>
<!-- Node26 -->
<g id="node27" class="node">
<title>Node26</title>
<polygon fill="none" stroke="#bfbfbf" points="357.1855,-112.5 357.1855,-131.5 415.1855,-131.5 415.1855,-112.5 357.1855,-112.5"/>
<text text-anchor="middle" x="386.1855" y="-119.5" font-family="Helvetica,sans-Serif" font-size="10.00" fill="#000000">ostream</text>
</g>
<!-- Node24&#45;&gt;Node26 -->
<g id="edge34" class="edge">
<title>Node24&#45;&gt;Node26</title>
<path fill="none" stroke="#191970" d="M336.5001,-168.2977C346.1387,-159.3163 358.3545,-147.9334 368.2614,-138.702"/>
<polygon fill="#191970" stroke="#191970" points="370.688,-141.2249 375.6181,-131.8469 365.9159,-136.1036 370.688,-141.2249"/>
</g>
<!-- Node27 -->
<g id="node28" class="node">
<title>Node27</title>
<polygon fill="none" stroke="#bfbfbf" points="433.6855,-112.5 433.6855,-131.5 530.6855,-131.5 530.6855,-112.5 433.6855,-112.5"/>
<text text-anchor="middle" x="482.1855" y="-119.5" font-family="Helvetica,sans-Serif" font-size="10.00" fill="#000000">vulkan/vulkan.h</text>
</g>
<!-- Node24&#45;&gt;Node27 -->
<g id="edge36" class="edge">
<title>Node24&#45;&gt;Node27</title>
<path fill="none" stroke="#191970" d="M359.8152,-168.4554C386.7267,-158.239 421.9666,-144.8609 447.7149,-135.0861"/>
<polygon fill="#191970" stroke="#191970" points="448.9745,-138.3517 457.0812,-131.5303 446.49,-131.8074 448.9745,-138.3517"/>
</g>
<!-- Node28&#45;&gt;Node2 -->
<g id="edge38" class="edge">
<title>Node28&#45;&gt;Node2</title>
<path fill="none" stroke="#191970" d="M388.025,-242.6941C347.8098,-235.5629 294.4468,-222.4279 252.1855,-199 234.5858,-189.2435 234.6743,-180.8466 219.1855,-168 206.1841,-157.2165 190.8969,-146.0214 178.6374,-137.3755"/>
<polygon fill="#191970" stroke="#191970" points="180.5254,-134.4251 170.3217,-131.5729 176.5197,-140.1657 180.5254,-134.4251"/>
</g>
<!-- Node28&#45;&gt;Node24 -->
<g id="edge39" class="edge">
<title>Node28&#45;&gt;Node24</title>
<path fill="none" stroke="#191970" d="M418.6842,-235.4639C400.7542,-226.0047 377.4102,-213.6894 357.9485,-203.4222"/>
<polygon fill="#191970" stroke="#191970" points="359.5089,-200.2882 349.0311,-198.7177 356.2426,-206.4795 359.5089,-200.2882"/>
</g>
<!-- Node29 -->
<g id="node30" class="node">
<title>Node29</title>
<g id="a_node30"><a xlink:href="Device_8inl.html" target="_top" xlink:title="lug/Graphics/Vulkan\l/API/Device.inl">
<polygon fill="none" stroke="#000000" points="397.1855,-168.5 397.1855,-198.5 515.1855,-198.5 515.1855,-168.5 397.1855,-168.5"/>
<text text-anchor="start" x="405.1855" y="-186.5" font-family="Helvetica,sans-Serif" font-size="10.00" fill="#000000">lug/Graphics/Vulkan</text>
<text text-anchor="middle" x="456.1855" y="-175.5" font-family="Helvetica,sans-Serif" font-size="10.00" fill="#000000">/API/Device.inl</text>
</a>
</g>
</g>
<!-- Node28&#45;&gt;Node29 -->
<g id="edge40" class="edge">
<title>Node28&#45;&gt;Node29</title>
<path fill="none" stroke="#191970" d="M449.2277,-235.2967C450.2864,-227.4156 451.6068,-217.5857 452.812,-208.6135"/>
<polygon fill="#191970" stroke="#191970" points="456.2888,-209.0201 454.1513,-198.6432 449.3511,-208.0882 456.2888,-209.0201"/>
</g>
<!-- Node30&#45;&gt;Node1 -->
<g id="edge42" class="edge">
<title>Node30&#45;&gt;Node1</title>
<path fill="none" stroke="#191970" d="M234.9086,-235.4639C213.7674,-224.2222 185.0397,-208.9463 164.2071,-197.8686"/>
<polygon fill="#191970" stroke="#191970" points="165.7192,-194.7087 155.2466,-193.1039 162.4327,-200.8892 165.7192,-194.7087"/>
</g>
<!-- Node30&#45;&gt;Node2 -->
<g id="edge43" class="edge">
<title>Node30&#45;&gt;Node2</title>
<path fill="none" stroke="#191970" d="M250.0077,-235.2488C241.2211,-225.0375 229.4443,-211.2696 219.1855,-199 202.172,-178.6517 182.9008,-155.0089 170.2023,-139.3459"/>
<polygon fill="#191970" stroke="#191970" points="172.8926,-137.1065 163.8799,-131.5368 167.4521,-141.5112 172.8926,-137.1065"/>
</g>
<!-- Node30&#45;&gt;Node24 -->
<g id="edge44" class="edge">
<title>Node30&#45;&gt;Node24</title>
<path fill="none" stroke="#191970" d="M276.1197,-235.2967C283.4075,-226.7303 292.6542,-215.8614 300.7934,-206.2943"/>
<polygon fill="#191970" stroke="#191970" points="303.4885,-208.5277 307.3025,-198.6432 298.1569,-203.9918 303.4885,-208.5277"/>
</g>
</g>
</svg>
