<?xml version="1.0" encoding="UTF-8" standalone="no"?>
<!DOCTYPE svg PUBLIC "-//W3C//DTD SVG 1.1//EN"
 "http://www.w3.org/Graphics/SVG/1.1/DTD/svg11.dtd">
<!-- Generated by graphviz version 2.40.1 (20161225.0304)
 -->
<!-- Title: include/lug/Graphics/Vulkan/Builder/Material.hpp Pages: 1 -->
<!--zoomable 430 -->
<svg id="main" version="1.1" xmlns="http://www.w3.org/2000/svg" xmlns:xlink="http://www.w3.org/1999/xlink" xml:space="preserve" onload="init(evt)">
<style type="text/css"><![CDATA[
.edge:hover path { stroke: red; }
.edge:hover polygon { stroke: red; fill: red; }
]]></style>
<script type="text/javascript"><![CDATA[
var edges = document.getElementsByTagName('g');
if (edges && edges.length) {
  for (var i=0;i<edges.length;i++) {
    if (edges[i].id.substr(0,4)=='edge') {
      edges[i].setAttribute('class','edge');
    }
  }
}
]]></script>
        <defs>
                <circle id="rim" cx="0" cy="0" r="7"/>
                <circle id="rim2" cx="0" cy="0" r="3.5"/>
                <g id="zoomPlus">
                        <use xlink:href="#rim" fill="#404040">
                                <set attributeName="fill" to="#808080" begin="zoomplus.mouseover" end="zoomplus.mouseout"/>
                        </use>
                        <path d="M-4,0h8M0,-4v8" fill="none" stroke="white" stroke-width="1.5" pointer-events="none"/>
                </g>
                <g id="zoomMin">
                        <use xlink:href="#rim" fill="#404040">
                                <set attributeName="fill" to="#808080" begin="zoomminus.mouseover" end="zoomminus.mouseout"/>
                        </use>
                        <path d="M-4,0h8" fill="none" stroke="white" stroke-width="1.5" pointer-events="none"/>
                </g>
                <g id="dirArrow">
                        <path fill="none" stroke="white" stroke-width="1.5" d="M0,-3.0v7 M-2.5,-0.5L0,-3.0L2.5,-0.5"/>
                </g>
               <g id="resetDef">
                       <use xlink:href="#rim2" fill="#404040">
                               <set attributeName="fill" to="#808080" begin="reset.mouseover" end="reset.mouseout"/>
                       </use>
               </g>
        </defs>

<script type="text/javascript">
var viewWidth = 1562;
var viewHeight = 430;
var sectionId = 'dynsection-0';
</script>
<script xlink:href="svgpan.js"/>
<svg id="graph" class="graph">
<g id="viewport">
<title>include/lug/Graphics/Vulkan/Builder/Material.hpp</title>
<!-- Node0 -->
<g id="node1" class="node">
<title>Node0</title>
<polygon fill="#bfbfbf" stroke="#000000" points="75,-391.5 75,-421.5 236,-421.5 236,-391.5 75,-391.5"/>
<text text-anchor="start" x="83" y="-409.5" font-family="Helvetica,sans-Serif" font-size="10.00" fill="#000000">include/lug/Graphics</text>
<text text-anchor="middle" x="155.5" y="-398.5" font-family="Helvetica,sans-Serif" font-size="10.00" fill="#000000">/Vulkan/Builder/Material.hpp</text>
</g>
<!-- Node1 -->
<g id="node2" class="node">
<title>Node1</title>
<g id="a_node2"><a xlink:href="Render_2Material_8hpp.html" target="_top" xlink:title="lug/Graphics/Render\l/Material.hpp">
<polygon fill="none" stroke="#000000" points="266,-324.5 266,-354.5 385,-354.5 385,-324.5 266,-324.5"/>
<text text-anchor="start" x="274" y="-342.5" font-family="Helvetica,sans-Serif" font-size="10.00" fill="#000000">lug/Graphics/Render</text>
<text text-anchor="middle" x="325.5" y="-331.5" font-family="Helvetica,sans-Serif" font-size="10.00" fill="#000000">/Material.hpp</text>
</a>
</g>
</g>
<!-- Node0&#45;&gt;Node1 -->
<g id="edge1" class="edge">
<title>Node0&#45;&gt;Node1</title>
<path fill="none" stroke="#191970" d="M193.6513,-391.4639C218.4995,-381.6708 251.1156,-368.8162 277.6905,-358.3426"/>
<polygon fill="#191970" stroke="#191970" points="279.1621,-361.5247 287.1823,-354.6017 276.5954,-355.0122 279.1621,-361.5247"/>
</g>
<!-- Node9 -->
<g id="node10" class="node">
<title>Node9</title>
<g id="a_node10"><a xlink:href="Resource_8hpp.html" target="_top" xlink:title="lug/Graphics/Resource.hpp">
<polygon fill="none" stroke="#000000" points="60.5,-129 60.5,-148 212.5,-148 212.5,-129 60.5,-129"/>
<text text-anchor="middle" x="136.5" y="-136" font-family="Helvetica,sans-Serif" font-size="10.00" fill="#000000">lug/Graphics/Resource.hpp</text>
</a>
</g>
</g>
<!-- Node0&#45;&gt;Node9 -->
<g id="edge44" class="edge">
<title>Node0&#45;&gt;Node9</title>
<path fill="none" stroke="#191970" d="M145.3657,-391.2351C131.5619,-369.4329 107.5333,-327.6192 98.5,-288 95.0514,-272.8746 93.5846,-207.9125 99.5,-190 103.6762,-177.354 112.1673,-165.1599 119.9629,-155.8145"/>
<polygon fill="#191970" stroke="#191970" points="122.7808,-157.9113 126.7829,-148.1014 117.5368,-153.2745 122.7808,-157.9113"/>
</g>
<!-- Node2 -->
<g id="node3" class="node">
<title>Node2</title>
<polygon fill="none" stroke="#bfbfbf" points="0,-62 0,-81 45,-81 45,-62 0,-62"/>
<text text-anchor="middle" x="22.5" y="-69" font-family="Helvetica,sans-Serif" font-size="10.00" fill="#000000">string</text>
</g>
<!-- Node1&#45;&gt;Node2 -->
<g id="edge2" class="edge">
<title>Node1&#45;&gt;Node2</title>
<path fill="none" stroke="#191970" d="M265.7695,-332.5425C207.0846,-324.5747 122.8946,-309.7498 98.5,-288 39.397,-235.3047 26.2566,-133.9138 23.3352,-91.2183"/>
<polygon fill="#191970" stroke="#191970" points="26.8186,-90.825 22.7618,-81.0377 19.8297,-91.2187 26.8186,-90.825"/>
</g>
<!-- Node3 -->
<g id="node4" class="node">
<title>Node3</title>
<g id="a_node4"><a xlink:href="Graphics_2Export_8hpp.html" target="_top" xlink:title="lug/Graphics/Export.hpp">
<polygon fill="none" stroke="#000000" points="317.5,-62 317.5,-81 455.5,-81 455.5,-62 317.5,-62"/>
<text text-anchor="middle" x="386.5" y="-69" font-family="Helvetica,sans-Serif" font-size="10.00" fill="#000000">lug/Graphics/Export.hpp</text>
</a>
</g>
</g>
<!-- Node1&#45;&gt;Node3 -->
<g id="edge3" class="edge">
<title>Node1&#45;&gt;Node3</title>
<path fill="none" stroke="#191970" d="M361.3146,-324.3948C377.9289,-315.8307 396.7704,-303.665 409.5,-288 429.4477,-263.4525 428.0868,-252.1639 433.5,-221 441.9552,-172.3232 414.7669,-117.4809 398.2472,-89.7119"/>
<polygon fill="#191970" stroke="#191970" points="401.1502,-87.7511 392.9248,-81.0732 395.1905,-91.423 401.1502,-87.7511"/>
</g>
<!-- Node5 -->
<g id="node6" class="node">
<title>Node5</title>
<g id="a_node6"><a xlink:href="DirtyObject_8hpp.html" target="_top" xlink:title="lug/Graphics/Render\l/DirtyObject.hpp">
<polygon fill="none" stroke="#000000" points="486,-123.5 486,-153.5 605,-153.5 605,-123.5 486,-123.5"/>
<text text-anchor="start" x="494" y="-141.5" font-family="Helvetica,sans-Serif" font-size="10.00" fill="#000000">lug/Graphics/Render</text>
<text text-anchor="middle" x="545.5" y="-130.5" font-family="Helvetica,sans-Serif" font-size="10.00" fill="#000000">/DirtyObject.hpp</text>
</a>
</g>
</g>
<!-- Node1&#45;&gt;Node5 -->
<g id="edge5" class="edge">
<title>Node1&#45;&gt;Node5</title>
<path fill="none" stroke="#191970" d="M385.2583,-329.3583C414.0523,-321.9392 447.4619,-309.3027 471.5,-288 509.6372,-254.2026 530.308,-196.2377 539.5059,-163.2942"/>
<polygon fill="#191970" stroke="#191970" points="542.9123,-164.1032 542.0967,-153.5398 536.1469,-162.3063 542.9123,-164.1032"/>
</g>
<!-- Node8 -->
<g id="node9" class="node">
<title>Node8</title>
<g id="a_node9"><a xlink:href="Render_2Texture_8hpp.html" target="_top" xlink:title="lug/Graphics/Render\l/Texture.hpp">
<polygon fill="none" stroke="#000000" points="305,-190.5 305,-220.5 424,-220.5 424,-190.5 305,-190.5"/>
<text text-anchor="start" x="313" y="-208.5" font-family="Helvetica,sans-Serif" font-size="10.00" fill="#000000">lug/Graphics/Render</text>
<text text-anchor="middle" x="364.5" y="-197.5" font-family="Helvetica,sans-Serif" font-size="10.00" fill="#000000">/Texture.hpp</text>
</a>
</g>
</g>
<!-- Node1&#45;&gt;Node8 -->
<g id="edge9" class="edge">
<title>Node1&#45;&gt;Node8</title>
<path fill="none" stroke="#191970" d="M357.1421,-324.4839C371.3158,-315.9409 386.5935,-303.7673 394.5,-288 404.1571,-268.7418 394.0019,-245.5968 382.97,-228.7295"/>
<polygon fill="#191970" stroke="#191970" points="385.8297,-226.7115 377.2215,-220.5351 380.0992,-230.7316 385.8297,-226.7115"/>
</g>
<!-- Node1&#45;&gt;Node9 -->
<g id="edge23" class="edge">
<title>Node1&#45;&gt;Node9</title>
<path fill="none" stroke="#191970" d="M265.848,-331.9898C212.4463,-323.9857 139.6908,-309.4831 120.5,-288 91.3613,-255.3807 101.7005,-232.6269 111.5,-190 114.1443,-178.4978 119.7147,-166.5851 124.9276,-157.1178"/>
<polygon fill="#191970" stroke="#191970" points="128.0805,-158.6588 130.0929,-148.2568 122.033,-155.1335 128.0805,-158.6588"/>
</g>
<!-- Node13 -->
<g id="node14" class="node">
<title>Node13</title>
<g id="a_node14"><a xlink:href="Render_2SkyBox_8hpp.html" target="_top" xlink:title="lug/Graphics/Render\l/SkyBox.hpp">
<polygon fill="none" stroke="#000000" points="129,-257.5 129,-287.5 248,-287.5 248,-257.5 129,-257.5"/>
<text text-anchor="start" x="137" y="-275.5" font-family="Helvetica,sans-Serif" font-size="10.00" fill="#000000">lug/Graphics/Render</text>
<text text-anchor="middle" x="188.5" y="-264.5" font-family="Helvetica,sans-Serif" font-size="10.00" fill="#000000">/SkyBox.hpp</text>
</a>
</g>
</g>
<!-- Node1&#45;&gt;Node13 -->
<g id="edge18" class="edge">
<title>Node1&#45;&gt;Node13</title>
<path fill="none" stroke="#191970" d="M294.7545,-324.4639C275.2376,-314.9191 249.7743,-302.4663 228.6675,-292.144"/>
<polygon fill="#191970" stroke="#191970" points="230.1378,-288.9669 219.6169,-287.7177 227.0625,-295.2552 230.1378,-288.9669"/>
</g>
<!-- Node15 -->
<g id="node16" class="node">
<title>Node15</title>
<g id="a_node16"><a xlink:href="Vector_8hpp.html" target="_top" xlink:title="lug/Math/Vector.hpp">
<polygon fill="none" stroke="#000000" points="617,-196 617,-215 736,-215 736,-196 617,-196"/>
<text text-anchor="middle" x="676.5" y="-203" font-family="Helvetica,sans-Serif" font-size="10.00" fill="#000000">lug/Math/Vector.hpp</text>
</a>
</g>
</g>
<!-- Node1&#45;&gt;Node15 -->
<g id="edge24" class="edge">
<title>Node1&#45;&gt;Node15</title>
<path fill="none" stroke="#191970" d="M385.0125,-329.5207C427.6187,-321.2598 485.818,-307.6681 534.5,-288 579.6263,-269.7685 627.7094,-239.1685 654.7414,-220.8012"/>
<polygon fill="#191970" stroke="#191970" points="656.8098,-223.6266 663.067,-215.0768 652.8439,-217.8584 656.8098,-223.6266"/>
</g>
<!-- Node30 -->
<g id="node31" class="node">
<title>Node30</title>
<g id="a_node31"><a xlink:href="Render_2Material_8inl.html" target="_top" xlink:title="lug/Graphics/Render\l/Material.inl">
<polygon fill="none" stroke="#000000" points="266,-257.5 266,-287.5 385,-287.5 385,-257.5 266,-257.5"/>
<text text-anchor="start" x="274" y="-275.5" font-family="Helvetica,sans-Serif" font-size="10.00" fill="#000000">lug/Graphics/Render</text>
<text text-anchor="middle" x="325.5" y="-264.5" font-family="Helvetica,sans-Serif" font-size="10.00" fill="#000000">/Material.inl</text>
</a>
</g>
</g>
<!-- Node1&#45;&gt;Node30 -->
<g id="edge43" class="edge">
<title>Node1&#45;&gt;Node30</title>
<path fill="none" stroke="#191970" d="M325.5,-324.2967C325.5,-316.5013 325.5,-306.7991 325.5,-297.9064"/>
<polygon fill="#191970" stroke="#191970" points="329.0001,-297.6431 325.5,-287.6432 322.0001,-297.6432 329.0001,-297.6431"/>
</g>
<!-- Node4 -->
<g id="node5" class="node">
<title>Node4</title>
<g id="a_node5"><a xlink:href="Config_8hpp.html" target="_top" xlink:title="lug/Config.hpp">
<polygon fill="none" stroke="#000000" points="695,-.5 695,-19.5 784,-19.5 784,-.5 695,-.5"/>
<text text-anchor="middle" x="739.5" y="-7.5" font-family="Helvetica,sans-Serif" font-size="10.00" fill="#000000">lug/Config.hpp</text>
</a>
</g>
</g>
<!-- Node3&#45;&gt;Node4 -->
<g id="edge4" class="edge">
<title>Node3&#45;&gt;Node4</title>
<path fill="none" stroke="#191970" d="M434.0839,-61.9449C444.4305,-59.9285 455.3244,-57.852 465.5,-56 541.4474,-42.177 629.5209,-27.6594 684.8777,-18.718"/>
<polygon fill="#191970" stroke="#191970" points="685.5075,-22.1617 694.823,-17.1147 684.3934,-15.2509 685.5075,-22.1617"/>
</g>
<!-- Node5&#45;&gt;Node3 -->
<g id="edge7" class="edge">
<title>Node5&#45;&gt;Node3</title>
<path fill="none" stroke="#191970" d="M509.8173,-123.4639C482.5383,-111.969 445.2496,-96.2561 418.8378,-85.1266"/>
<polygon fill="#191970" stroke="#191970" points="419.8658,-81.7618 409.2914,-81.1039 417.1475,-88.2125 419.8658,-81.7618"/>
</g>
<!-- Node6 -->
<g id="node7" class="node">
<title>Node6</title>
<polygon fill="none" stroke="#bfbfbf" points="611.5,-62 611.5,-81 661.5,-81 661.5,-62 611.5,-62"/>
<text text-anchor="middle" x="636.5" y="-69" font-family="Helvetica,sans-Serif" font-size="10.00" fill="#000000">cstdint</text>
</g>
<!-- Node5&#45;&gt;Node6 -->
<g id="edge6" class="edge">
<title>Node5&#45;&gt;Node6</title>
<path fill="none" stroke="#191970" d="M566.1493,-123.2967C580.8781,-112.4524 600.6186,-97.9182 615.4396,-87.006"/>
<polygon fill="#191970" stroke="#191970" points="617.5447,-89.8025 623.5224,-81.055 613.3944,-84.1655 617.5447,-89.8025"/>
</g>
<!-- Node7 -->
<g id="node8" class="node">
<title>Node7</title>
<g id="a_node8"><a xlink:href="DirtyObject_8inl.html" target="_top" xlink:title="lug/Graphics/Render\l/DirtyObject.inl">
<polygon fill="none" stroke="#000000" points="474,-56.5 474,-86.5 593,-86.5 593,-56.5 474,-56.5"/>
<text text-anchor="start" x="482" y="-74.5" font-family="Helvetica,sans-Serif" font-size="10.00" fill="#000000">lug/Graphics/Render</text>
<text text-anchor="middle" x="533.5" y="-63.5" font-family="Helvetica,sans-Serif" font-size="10.00" fill="#000000">/DirtyObject.inl</text>
</a>
</g>
</g>
<!-- Node5&#45;&gt;Node7 -->
<g id="edge8" class="edge">
<title>Node5&#45;&gt;Node7</title>
<path fill="none" stroke="#191970" d="M542.777,-123.2967C541.3655,-115.4156 539.6049,-105.5857 537.9979,-96.6135"/>
<polygon fill="#191970" stroke="#191970" points="541.4205,-95.8695 536.2122,-86.6432 534.5301,-97.1036 541.4205,-95.8695"/>
</g>
<!-- Node8&#45;&gt;Node3 -->
<g id="edge10" class="edge">
<title>Node8&#45;&gt;Node3</title>
<path fill="none" stroke="#191970" d="M378.9829,-190.184C387.024,-180.596 396.2409,-167.5269 400.5,-154 407.1482,-132.8854 400.9223,-107.6781 394.7926,-90.7306"/>
<polygon fill="#191970" stroke="#191970" points="398.0227,-89.3806 391.1044,-81.3563 391.5087,-91.9434 398.0227,-89.3806"/>
</g>
<!-- Node8&#45;&gt;Node9 -->
<g id="edge11" class="edge">
<title>Node8&#45;&gt;Node9</title>
<path fill="none" stroke="#191970" d="M313.3323,-190.4639C272.7162,-178.5284 216.6253,-162.0456 178.5873,-150.8678"/>
<polygon fill="#191970" stroke="#191970" points="179.4275,-147.4667 168.8463,-148.0053 177.4539,-154.1828 179.4275,-147.4667"/>
</g>
<!-- Node12 -->
<g id="node13" class="node">
<title>Node12</title>
<g id="a_node13"><a xlink:href="Render_2Texture_8inl.html" target="_top" xlink:title="lug/Graphics/Render\l/Texture.inl">
<polygon fill="none" stroke="#000000" points="272,-123.5 272,-153.5 391,-153.5 391,-123.5 272,-123.5"/>
<text text-anchor="start" x="280" y="-141.5" font-family="Helvetica,sans-Serif" font-size="10.00" fill="#000000">lug/Graphics/Render</text>
<text text-anchor="middle" x="331.5" y="-130.5" font-family="Helvetica,sans-Serif" font-size="10.00" fill="#000000">/Texture.inl</text>
</a>
</g>
</g>
<!-- Node8&#45;&gt;Node12 -->
<g id="edge17" class="edge">
<title>Node8&#45;&gt;Node12</title>
<path fill="none" stroke="#191970" d="M357.0118,-190.2967C353.0035,-182.1586 347.9717,-171.9425 343.4384,-162.7386"/>
<polygon fill="#191970" stroke="#191970" points="346.5169,-161.0676 338.9586,-153.6432 340.2373,-164.1606 346.5169,-161.0676"/>
</g>
<!-- Node9&#45;&gt;Node2 -->
<g id="edge14" class="edge">
<title>Node9&#45;&gt;Node2</title>
<path fill="none" stroke="#191970" d="M120.1666,-128.9005C101.2041,-117.7559 69.7125,-99.2477 47.628,-86.2682"/>
<polygon fill="#191970" stroke="#191970" points="49.1979,-83.1311 38.8031,-81.0817 45.651,-89.1661 49.1979,-83.1311"/>
</g>
<!-- Node9&#45;&gt;Node3 -->
<g id="edge15" class="edge">
<title>Node9&#45;&gt;Node3</title>
<path fill="none" stroke="#191970" d="M172.0534,-128.9717C216.354,-117.0991 292.131,-96.7909 340.728,-83.7669"/>
<polygon fill="#191970" stroke="#191970" points="341.9114,-87.0733 350.6645,-81.1039 340.0993,-80.3119 341.9114,-87.0733"/>
</g>
<!-- Node9&#45;&gt;Node6 -->
<g id="edge12" class="edge">
<title>Node9&#45;&gt;Node6</title>
<path fill="none" stroke="#191970" d="M212.7,-129.0033C229.431,-126.9731 247.0586,-124.8762 263.5,-123 414.0369,-105.8217 456.3455,-126.9411 602.5,-87 604.4712,-86.4613 606.4721,-85.8205 608.4655,-85.1109"/>
<polygon fill="#191970" stroke="#191970" points="610.2594,-88.1593 618.1983,-81.1433 607.6169,-81.6772 610.2594,-88.1593"/>
</g>
<!-- Node10 -->
<g id="node11" class="node">
<title>Node10</title>
<polygon fill="none" stroke="#bfbfbf" points="228,-62 228,-81 299,-81 299,-62 228,-62"/>
<text text-anchor="middle" x="263.5" y="-69" font-family="Helvetica,sans-Serif" font-size="10.00" fill="#000000">type_traits</text>
</g>
<!-- Node9&#45;&gt;Node10 -->
<g id="edge13" class="edge">
<title>Node9&#45;&gt;Node10</title>
<path fill="none" stroke="#191970" d="M154.696,-128.9005C176.1038,-117.6067 211.8458,-98.7506 236.4893,-85.7497"/>
<polygon fill="#191970" stroke="#191970" points="238.1262,-88.8434 245.3378,-81.0817 234.8599,-82.6522 238.1262,-88.8434"/>
</g>
<!-- Node11 -->
<g id="node12" class="node">
<title>Node11</title>
<g id="a_node12"><a xlink:href="Resource_8inl.html" target="_top" xlink:title="lug/Graphics/Resource.inl">
<polygon fill="none" stroke="#000000" points="63.5,-62 63.5,-81 209.5,-81 209.5,-62 63.5,-62"/>
<text text-anchor="middle" x="136.5" y="-69" font-family="Helvetica,sans-Serif" font-size="10.00" fill="#000000">lug/Graphics/Resource.inl</text>
</a>
</g>
</g>
<!-- Node9&#45;&gt;Node11 -->
<g id="edge16" class="edge">
<title>Node9&#45;&gt;Node11</title>
<path fill="none" stroke="#191970" d="M136.5,-128.9005C136.5,-119.149 136.5,-103.7597 136.5,-91.3695"/>
<polygon fill="#191970" stroke="#191970" points="140.0001,-91.0816 136.5,-81.0817 133.0001,-91.0817 140.0001,-91.0816"/>
</g>
<!-- Node13&#45;&gt;Node3 -->
<g id="edge19" class="edge">
<title>Node13&#45;&gt;Node3</title>
<path fill="none" stroke="#191970" d="M219.3676,-257.4845C233.5401,-248.8782 249.0441,-236.6497 257.5,-221 278.2437,-182.6087 238.2267,-158.5732 263.5,-123 277.1652,-103.7657 299.4449,-91.6838 321.314,-84.1079"/>
<polygon fill="#191970" stroke="#191970" points="322.5012,-87.403 330.9664,-81.032 320.3758,-80.7335 322.5012,-87.403"/>
</g>
<!-- Node13&#45;&gt;Node8 -->
<g id="edge21" class="edge">
<title>Node13&#45;&gt;Node8</title>
<path fill="none" stroke="#191970" d="M227.9978,-257.4639C253.8359,-247.6278 287.7866,-234.7034 315.3647,-224.2049"/>
<polygon fill="#191970" stroke="#191970" points="316.7294,-227.4305 324.8299,-220.6017 314.2389,-220.8885 316.7294,-227.4305"/>
</g>
<!-- Node13&#45;&gt;Node9 -->
<g id="edge20" class="edge">
<title>Node13&#45;&gt;Node9</title>
<path fill="none" stroke="#191970" d="M157.3046,-257.3802C143.3335,-248.8126 128.2783,-236.6483 120.5,-221 110.4026,-200.6863 118.4729,-174.6149 126.3671,-157.2733"/>
<polygon fill="#191970" stroke="#191970" points="129.5673,-158.6973 130.856,-148.1811 123.2906,-155.5984 129.5673,-158.6973"/>
</g>
<!-- Node14 -->
<g id="node15" class="node">
<title>Node14</title>
<g id="a_node15"><a xlink:href="Render_2SkyBox_8inl.html" target="_top" xlink:title="lug/Graphics/Render\l/SkyBox.inl">
<polygon fill="none" stroke="#000000" points="129,-190.5 129,-220.5 248,-220.5 248,-190.5 129,-190.5"/>
<text text-anchor="start" x="137" y="-208.5" font-family="Helvetica,sans-Serif" font-size="10.00" fill="#000000">lug/Graphics/Render</text>
<text text-anchor="middle" x="188.5" y="-197.5" font-family="Helvetica,sans-Serif" font-size="10.00" fill="#000000">/SkyBox.inl</text>
</a>
</g>
</g>
<!-- Node13&#45;&gt;Node14 -->
<g id="edge22" class="edge">
<title>Node13&#45;&gt;Node14</title>
<path fill="none" stroke="#191970" d="M188.5,-257.2967C188.5,-249.5013 188.5,-239.7991 188.5,-230.9064"/>
<polygon fill="#191970" stroke="#191970" points="192.0001,-230.6431 188.5,-220.6432 185.0001,-230.6432 192.0001,-230.6431"/>
</g>
<!-- Node15&#45;&gt;Node6 -->
<g id="edge25" class="edge">
<title>Node15&#45;&gt;Node6</title>
<path fill="none" stroke="#191970" d="M671.7188,-195.837C666.8304,-185.6414 659.2939,-169.0034 654.5,-154 647.8295,-133.1233 642.8112,-108.4943 639.7904,-91.6153"/>
<polygon fill="#191970" stroke="#191970" points="643.1629,-90.5736 638.0223,-81.3094 636.2637,-91.7573 643.1629,-90.5736"/>
</g>
<!-- Node16 -->
<g id="node17" class="node">
<title>Node16</title>
<g id="a_node17"><a xlink:href="Matrix_8hpp.html" target="_top" xlink:title="lug/Math/Matrix.hpp">
<polygon fill="none" stroke="#000000" points="794.5,-129 794.5,-148 912.5,-148 912.5,-129 794.5,-129"/>
<text text-anchor="middle" x="853.5" y="-136" font-family="Helvetica,sans-Serif" font-size="10.00" fill="#000000">lug/Math/Matrix.hpp</text>
</a>
</g>
</g>
<!-- Node15&#45;&gt;Node16 -->
<g id="edge26" class="edge">
<title>Node15&#45;&gt;Node16</title>
<path fill="none" stroke="#191970" d="M701.8598,-195.9005C732.4844,-184.3082 784.1568,-164.7486 818.5456,-151.7313"/>
<polygon fill="#191970" stroke="#191970" points="820.0739,-154.8952 828.1873,-148.0817 817.5958,-148.3486 820.0739,-154.8952"/>
</g>
<!-- Node29 -->
<g id="node30" class="node">
<title>Node29</title>
<g id="a_node30"><a xlink:href="Vector_8inl.html" target="_top" xlink:title="lug/Math/Vector.inl">
<polygon fill="none" stroke="#000000" points="663,-129 663,-148 776,-148 776,-129 663,-129"/>
<text text-anchor="middle" x="719.5" y="-136" font-family="Helvetica,sans-Serif" font-size="10.00" fill="#000000">lug/Math/Vector.inl</text>
</a>
</g>
</g>
<!-- Node15&#45;&gt;Node29 -->
<g id="edge42" class="edge">
<title>Node15&#45;&gt;Node29</title>
<path fill="none" stroke="#191970" d="M682.6609,-195.9005C689.2386,-185.6515 699.8133,-169.1747 707.9493,-156.4976"/>
<polygon fill="#191970" stroke="#191970" points="710.8949,-158.388 713.3506,-148.0817 705.0037,-154.6071 710.8949,-158.388"/>
</g>
<!-- Node16&#45;&gt;Node6 -->
<g id="edge27" class="edge">
<title>Node16&#45;&gt;Node6</title>
<path fill="none" stroke="#191970" d="M813.5822,-128.9347C776.3628,-119.6107 719.531,-104.3331 671.5,-87 669.6716,-86.3402 667.8041,-85.6288 665.9303,-84.8862"/>
<polygon fill="#191970" stroke="#191970" points="667.2367,-81.6389 656.6606,-81.0081 664.5349,-88.0965 667.2367,-81.6389"/>
</g>
<!-- Node17 -->
<g id="node18" class="node">
<title>Node17</title>
<polygon fill="none" stroke="#bfbfbf" points="817,-62 817,-81 876,-81 876,-62 817,-62"/>
<text text-anchor="middle" x="846.5" y="-69" font-family="Helvetica,sans-Serif" font-size="10.00" fill="#000000">valarray</text>
</g>
<!-- Node16&#45;&gt;Node17 -->
<g id="edge28" class="edge">
<title>Node16&#45;&gt;Node17</title>
<path fill="none" stroke="#191970" d="M852.4971,-128.9005C851.4783,-119.149 849.8704,-103.7597 848.5759,-91.3695"/>
<polygon fill="#191970" stroke="#191970" points="852.0213,-90.6638 847.5011,-81.0817 845.0592,-91.3912 852.0213,-90.6638"/>
</g>
<!-- Node18 -->
<g id="node19" class="node">
<title>Node18</title>
<g id="a_node19"><a xlink:href="Math_2Export_8hpp.html" target="_top" xlink:title="lug/Math/Export.hpp">
<polygon fill="none" stroke="#000000" points="680,-62 680,-81 799,-81 799,-62 680,-62"/>
<text text-anchor="middle" x="739.5" y="-69" font-family="Helvetica,sans-Serif" font-size="10.00" fill="#000000">lug/Math/Export.hpp</text>
</a>
</g>
</g>
<!-- Node16&#45;&gt;Node18 -->
<g id="edge29" class="edge">
<title>Node16&#45;&gt;Node18</title>
<path fill="none" stroke="#191970" d="M837.1666,-128.9005C818.2041,-117.7559 786.7125,-99.2477 764.628,-86.2682"/>
<polygon fill="#191970" stroke="#191970" points="766.1979,-83.1311 755.8031,-81.0817 762.651,-89.1661 766.1979,-83.1311"/>
</g>
<!-- Node19 -->
<g id="node20" class="node">
<title>Node19</title>
<g id="a_node20"><a xlink:href="ValArray_8hpp.html" target="_top" xlink:title="lug/Math/ValArray.hpp">
<polygon fill="none" stroke="#000000" points="1227.5,-62 1227.5,-81 1357.5,-81 1357.5,-62 1227.5,-62"/>
<text text-anchor="middle" x="1292.5" y="-69" font-family="Helvetica,sans-Serif" font-size="10.00" fill="#000000">lug/Math/ValArray.hpp</text>
</a>
</g>
</g>
<!-- Node16&#45;&gt;Node19 -->
<g id="edge31" class="edge">
<title>Node16&#45;&gt;Node19</title>
<path fill="none" stroke="#191970" d="M912.7055,-129.4641C992.4,-117.3011 1134.0808,-95.6779 1220.0464,-82.5578"/>
<polygon fill="#191970" stroke="#191970" points="1220.6307,-86.0093 1229.9882,-81.0405 1219.5746,-79.0894 1220.6307,-86.0093"/>
</g>
<!-- Node25 -->
<g id="node26" class="node">
<title>Node25</title>
<g id="a_node26"><a xlink:href="Debug_8hpp.html" target="_top" xlink:title="lug/System/Debug.hpp">
<polygon fill="none" stroke="#000000" points="1025,-62 1025,-81 1156,-81 1156,-62 1025,-62"/>
<text text-anchor="middle" x="1090.5" y="-69" font-family="Helvetica,sans-Serif" font-size="10.00" fill="#000000">lug/System/Debug.hpp</text>
</a>
</g>
</g>
<!-- Node16&#45;&gt;Node25 -->
<g id="edge37" class="edge">
<title>Node16&#45;&gt;Node25</title>
<path fill="none" stroke="#191970" d="M887.2046,-128.9717C929.1137,-117.124 1000.7377,-96.8758 1046.8187,-83.8487"/>
<polygon fill="#191970" stroke="#191970" points="1047.8572,-87.1924 1056.5279,-81.1039 1045.9529,-80.4564 1047.8572,-87.1924"/>
</g>
<!-- Node28 -->
<g id="node29" class="node">
<title>Node28</title>
<g id="a_node29"><a xlink:href="Matrix_8inl.html" target="_top" xlink:title="lug/Math/Matrix.inl">
<polygon fill="none" stroke="#000000" points="894.5,-62 894.5,-81 1006.5,-81 1006.5,-62 894.5,-62"/>
<text text-anchor="middle" x="950.5" y="-69" font-family="Helvetica,sans-Serif" font-size="10.00" fill="#000000">lug/Math/Matrix.inl</text>
</a>
</g>
</g>
<!-- Node16&#45;&gt;Node28 -->
<g id="edge41" class="edge">
<title>Node16&#45;&gt;Node28</title>
<path fill="none" stroke="#191970" d="M867.3977,-128.9005C883.3164,-117.9052 909.6121,-99.7422 928.3599,-86.7927"/>
<polygon fill="#191970" stroke="#191970" points="930.3892,-89.6448 936.628,-81.0817 926.4108,-83.8852 930.3892,-89.6448"/>
</g>
<!-- Node18&#45;&gt;Node4 -->
<g id="edge30" class="edge">
<title>Node18&#45;&gt;Node4</title>
<path fill="none" stroke="#191970" d="M739.5,-61.8906C739.5,-53.3657 739.5,-40.6392 739.5,-29.9235"/>
<polygon fill="#191970" stroke="#191970" points="743.0001,-29.7448 739.5,-19.7449 736.0001,-29.7449 743.0001,-29.7448"/>
</g>
<!-- Node20 -->
<g id="node21" class="node">
<title>Node20</title>
<polygon fill="none" stroke="#bfbfbf" points="1426,-.5 1426,-19.5 1491,-19.5 1491,-.5 1426,-.5"/>
<text text-anchor="middle" x="1458.5" y="-7.5" font-family="Helvetica,sans-Serif" font-size="10.00" fill="#000000">algorithm</text>
</g>
<!-- Node19&#45;&gt;Node20 -->
<g id="edge32" class="edge">
<title>Node19&#45;&gt;Node20</title>
<path fill="none" stroke="#191970" d="M1318.4375,-61.8906C1346.5778,-51.4652 1391.6793,-34.7559 1423.0726,-23.1252"/>
<polygon fill="#191970" stroke="#191970" points="1424.5834,-26.298 1432.7446,-19.5419 1422.1515,-19.734 1424.5834,-26.298"/>
</g>
<!-- Node21 -->
<g id="node22" class="node">
<title>Node21</title>
<polygon fill="none" stroke="#bfbfbf" points="1509.5,-.5 1509.5,-19.5 1553.5,-19.5 1553.5,-.5 1509.5,-.5"/>
<text text-anchor="middle" x="1531.5" y="-7.5" font-family="Helvetica,sans-Serif" font-size="10.00" fill="#000000">array</text>
</g>
<!-- Node19&#45;&gt;Node21 -->
<g id="edge33" class="edge">
<title>Node19&#45;&gt;Node21</title>
<path fill="none" stroke="#191970" d="M1334.5572,-61.9899C1374.6734,-52.7174 1436.9765,-37.7953 1499.5669,-20.1366"/>
<polygon fill="#191970" stroke="#191970" points="1500.544,-23.4976 1509.2054,-17.3958 1498.6294,-16.7645 1500.544,-23.4976"/>
</g>
<!-- Node22 -->
<g id="node23" class="node">
<title>Node22</title>
<polygon fill="none" stroke="#bfbfbf" points="1139.5,-.5 1139.5,-19.5 1189.5,-19.5 1189.5,-.5 1139.5,-.5"/>
<text text-anchor="middle" x="1164.5" y="-7.5" font-family="Helvetica,sans-Serif" font-size="10.00" fill="#000000">cstring</text>
</g>
<!-- Node19&#45;&gt;Node22 -->
<g id="edge34" class="edge">
<title>Node19&#45;&gt;Node22</title>
<path fill="none" stroke="#191970" d="M1272.5,-61.8906C1251.2711,-51.6908 1217.5238,-35.4763 1193.404,-23.8875"/>
<polygon fill="#191970" stroke="#191970" points="1194.8889,-20.7179 1184.3596,-19.5419 1191.8574,-27.0275 1194.8889,-20.7179"/>
</g>
<!-- Node23 -->
<g id="node24" class="node">
<title>Node23</title>
<polygon fill="none" stroke="#bfbfbf" points="1208,-.5 1208,-19.5 1265,-19.5 1265,-.5 1208,-.5"/>
<text text-anchor="middle" x="1236.5" y="-7.5" font-family="Helvetica,sans-Serif" font-size="10.00" fill="#000000">numeric</text>
</g>
<!-- Node19&#45;&gt;Node23 -->
<g id="edge35" class="edge">
<title>Node19&#45;&gt;Node23</title>
<path fill="none" stroke="#191970" d="M1283.75,-61.8906C1275.3338,-52.6478 1262.4203,-38.466 1252.219,-27.2628"/>
<polygon fill="#191970" stroke="#191970" points="1254.694,-24.7824 1245.3734,-19.7449 1249.5182,-29.4953 1254.694,-24.7824"/>
</g>
<!-- Node24 -->
<g id="node25" class="node">
<title>Node24</title>
<g id="a_node25"><a xlink:href="ValArray_8inl.html" target="_top" xlink:title="lug/Math/ValArray.inl">
<polygon fill="none" stroke="#000000" points="1283.5,-.5 1283.5,-19.5 1407.5,-19.5 1407.5,-.5 1283.5,-.5"/>
<text text-anchor="middle" x="1345.5" y="-7.5" font-family="Helvetica,sans-Serif" font-size="10.00" fill="#000000">lug/Math/ValArray.inl</text>
</a>
</g>
</g>
<!-- Node19&#45;&gt;Node24 -->
<g id="edge36" class="edge">
<title>Node19&#45;&gt;Node24</title>
<path fill="none" stroke="#191970" d="M1300.7813,-61.8906C1308.6693,-52.7376 1320.7314,-38.7409 1330.3412,-27.59"/>
<polygon fill="#191970" stroke="#191970" points="1333.2251,-29.6049 1337.102,-19.7449 1327.9225,-25.0352 1333.2251,-29.6049"/>
</g>
<!-- Node25&#45;&gt;Node4 -->
<g id="edge38" class="edge">
<title>Node25&#45;&gt;Node4</title>
<path fill="none" stroke="#191970" d="M1045.7411,-61.9547C1035.7991,-59.9169 1025.3028,-57.8291 1015.5,-56 938.8511,-41.6977 849.818,-27.2468 794.0623,-18.4562"/>
<polygon fill="#191970" stroke="#191970" points="794.4716,-14.9776 784.0493,-16.8819 793.3843,-21.8926 794.4716,-14.9776"/>
</g>
<!-- Node26 -->
<g id="node27" class="node">
<title>Node26</title>
<g id="a_node27"><a xlink:href="Utils_8hpp.html" target="_top" xlink:title="lug/System/Utils.hpp">
<polygon fill="none" stroke="#000000" points="919.5,-.5 919.5,-19.5 1041.5,-19.5 1041.5,-.5 919.5,-.5"/>
<text text-anchor="middle" x="980.5" y="-7.5" font-family="Helvetica,sans-Serif" font-size="10.00" fill="#000000">lug/System/Utils.hpp</text>
</a>
</g>
</g>
<!-- Node25&#45;&gt;Node26 -->
<g id="edge39" class="edge">
<title>Node25&#45;&gt;Node26</title>
<path fill="none" stroke="#191970" d="M1073.3125,-61.8906C1055.3918,-51.8713 1027.0905,-36.0483 1006.4477,-24.5071"/>
<polygon fill="#191970" stroke="#191970" points="1008.0033,-21.367 997.5668,-19.5419 1004.5872,-27.4769 1008.0033,-21.367"/>
</g>
<!-- Node27 -->
<g id="node28" class="node">
<title>Node27</title>
<polygon fill="none" stroke="#bfbfbf" points="1060,-.5 1060,-19.5 1121,-19.5 1121,-.5 1060,-.5"/>
<text text-anchor="middle" x="1090.5" y="-7.5" font-family="Helvetica,sans-Serif" font-size="10.00" fill="#000000">iostream</text>
</g>
<!-- Node25&#45;&gt;Node27 -->
<g id="edge40" class="edge">
<title>Node25&#45;&gt;Node27</title>
<path fill="none" stroke="#191970" d="M1090.5,-61.8906C1090.5,-53.3657 1090.5,-40.6392 1090.5,-29.9235"/>
<polygon fill="#191970" stroke="#191970" points="1094.0001,-29.7448 1090.5,-19.7449 1087.0001,-29.7449 1094.0001,-29.7448"/>
</g>
</g>
</svg>
        <g id="navigator" transform="translate(0 0)" fill="#404254">
                <rect fill="#f2f5e9" fill-opacity="0.5" stroke="#606060" stroke-width=".5" x="0" y="0" width="60" height="60"/>
                <use id="zoomplus" xlink:href="#zoomPlus" x="17" y="9" onmousedown="handleZoom(evt,'in')"/>
                <use id="zoomminus" xlink:href="#zoomMin" x="42" y="9" onmousedown="handleZoom(evt,'out')"/>
                <use id="reset" xlink:href="#resetDef" x="30" y="36" onmousedown="handleReset()"/>
                <g id="arrowUp" xlink:href="#dirArrow" transform="translate(30 24)" onmousedown="handlePan(0,-1)">
                  <use xlink:href="#rim" fill="#404040">
                        <set attributeName="fill" to="#808080" begin="arrowUp.mouseover" end="arrowUp.mouseout"/>
                  </use>
                  <path fill="none" stroke="white" stroke-width="1.5" d="M0,-3.0v7 M-2.5,-0.5L0,-3.0L2.5,-0.5"/>
                </g>
                <g id="arrowRight" xlink:href="#dirArrow" transform="rotate(90) translate(36 -43)" onmousedown="handlePan(1,0)">
                  <use xlink:href="#rim" fill="#404040">
                        <set attributeName="fill" to="#808080" begin="arrowRight.mouseover" end="arrowRight.mouseout"/>
                  </use>
                  <path fill="none" stroke="white" stroke-width="1.5" d="M0,-3.0v7 M-2.5,-0.5L0,-3.0L2.5,-0.5"/>
                </g>
                <g id="arrowDown" xlink:href="#dirArrow" transform="rotate(180) translate(-30 -48)" onmousedown="handlePan(0,1)">
                  <use xlink:href="#rim" fill="#404040">
                        <set attributeName="fill" to="#808080" begin="arrowDown.mouseover" end="arrowDown.mouseout"/>
                  </use>
                  <path fill="none" stroke="white" stroke-width="1.5" d="M0,-3.0v7 M-2.5,-0.5L0,-3.0L2.5,-0.5"/>
                </g>
                <g id="arrowLeft" xlink:href="#dirArrow" transform="rotate(270) translate(-36 17)" onmousedown="handlePan(-1,0)">
                  <use xlink:href="#rim" fill="#404040">
                        <set attributeName="fill" to="#808080" begin="arrowLeft.mouseover" end="arrowLeft.mouseout"/>
                  </use>
                  <path fill="none" stroke="white" stroke-width="1.5" d="M0,-3.0v7 M-2.5,-0.5L0,-3.0L2.5,-0.5"/>
                </g>
        </g>
        <svg viewBox="0 0 15 15" width="100%" height="30px" preserveAspectRatio="xMaxYMin meet">
         <g id="arrow_out" transform="scale(0.3 0.3)">
          <a xlink:href="Vulkan_2Builder_2Material_8hpp__incl_org.svg" target="_base">
           <rect id="button" ry="5" rx="5" y="6" x="6" height="38" width="38"
                fill="#f2f5e9" fill-opacity="0.5" stroke="#606060" stroke-width="1.0"/>
           <path id="arrow"
             d="M 11.500037,31.436501 C 11.940474,20.09759 22.043105,11.32322 32.158766,21.979434 L 37.068811,17.246167 C 37.068811,17.246167 37.088388,32 37.088388,32 L 22.160133,31.978069 C 22.160133,31.978069 26.997745,27.140456 26.997745,27.140456 C 18.528582,18.264221 13.291696,25.230495 11.500037,31.436501 z"
             style="fill:#404040;"/>
          </a>
         </g>
        </svg>
</svg>
