<?xml version="1.0" encoding="UTF-8" standalone="no"?>
<!DOCTYPE svg PUBLIC "-//W3C//DTD SVG 1.1//EN"
 "http://www.w3.org/Graphics/SVG/1.1/DTD/svg11.dtd">
<!-- Generated by graphviz version 2.40.1 (20161225.0304)
 -->
<!-- Title: src/lug/Graphics/Vulkan/API/Queue.cpp Pages: 1 -->
<!--zoomable 352 -->
<svg id="main" version="1.1" xmlns="http://www.w3.org/2000/svg" xmlns:xlink="http://www.w3.org/1999/xlink" xml:space="preserve" onload="init(evt)">
<style type="text/css"><![CDATA[
.edge:hover path { stroke: red; }
.edge:hover polygon { stroke: red; fill: red; }
]]></style>
<script type="text/javascript"><![CDATA[
var edges = document.getElementsByTagName('g');
if (edges && edges.length) {
  for (var i=0;i<edges.length;i++) {
    if (edges[i].id.substr(0,4)=='edge') {
      edges[i].setAttribute('class','edge');
    }
  }
}
]]></script>
        <defs>
                <circle id="rim" cx="0" cy="0" r="7"/>
                <circle id="rim2" cx="0" cy="0" r="3.5"/>
                <g id="zoomPlus">
                        <use xlink:href="#rim" fill="#404040">
                                <set attributeName="fill" to="#808080" begin="zoomplus.mouseover" end="zoomplus.mouseout"/>
                        </use>
                        <path d="M-4,0h8M0,-4v8" fill="none" stroke="white" stroke-width="1.5" pointer-events="none"/>
                </g>
                <g id="zoomMin">
                        <use xlink:href="#rim" fill="#404040">
                                <set attributeName="fill" to="#808080" begin="zoomminus.mouseover" end="zoomminus.mouseout"/>
                        </use>
                        <path d="M-4,0h8" fill="none" stroke="white" stroke-width="1.5" pointer-events="none"/>
                </g>
                <g id="dirArrow">
                        <path fill="none" stroke="white" stroke-width="1.5" d="M0,-3.0v7 M-2.5,-0.5L0,-3.0L2.5,-0.5"/>
                </g>
               <g id="resetDef">
                       <use xlink:href="#rim2" fill="#404040">
                               <set attributeName="fill" to="#808080" begin="reset.mouseover" end="reset.mouseout"/>
                       </use>
               </g>
        </defs>

<script type="text/javascript">
var viewWidth = 2425;
var viewHeight = 352;
var sectionId = 'dynsection-0';
</script>
<script xlink:href="svgpan.js"/>
<svg id="graph" class="graph">
<g id="viewport">
<title>src/lug/Graphics/Vulkan/API/Queue.cpp</title>
<!-- Node0 -->
<g id="node1" class="node">
<title>Node0</title>
<polygon fill="#bfbfbf" stroke="#000000" points="1011.5,-313.5 1011.5,-343.5 1148.5,-343.5 1148.5,-313.5 1011.5,-313.5"/>
<text text-anchor="start" x="1019.5" y="-331.5" font-family="Helvetica,sans-Serif" font-size="10.00" fill="#000000">src/lug/Graphics/Vulkan</text>
<text text-anchor="middle" x="1080" y="-320.5" font-family="Helvetica,sans-Serif" font-size="10.00" fill="#000000">/API/Queue.cpp</text>
</g>
<!-- Node1 -->
<g id="node2" class="node">
<title>Node1</title>
<g id="a_node2"><a xlink:href="Vulkan_2API_2Queue_8hpp.html" target="_top" xlink:title="lug/Graphics/Vulkan\l/API/Queue.hpp">
<polygon fill="none" stroke="#000000" points="52,-246.5 52,-276.5 170,-276.5 170,-246.5 52,-246.5"/>
<text text-anchor="start" x="60" y="-264.5" font-family="Helvetica,sans-Serif" font-size="10.00" fill="#000000">lug/Graphics/Vulkan</text>
<text text-anchor="middle" x="111" y="-253.5" font-family="Helvetica,sans-Serif" font-size="10.00" fill="#000000">/API/Queue.hpp</text>
</a>
</g>
</g>
<!-- Node0&#45;&gt;Node1 -->
<g id="edge1" class="edge">
<title>Node0&#45;&gt;Node1</title>
<path fill="none" stroke="#191970" d="M1011.4757,-323.762C833.6618,-311.4673 358.9352,-278.6431 180.2815,-266.2904"/>
<polygon fill="#191970" stroke="#191970" points="180.4338,-262.7926 170.2161,-265.5944 179.9509,-269.776 180.4338,-262.7926"/>
</g>
<!-- Node10 -->
<g id="node11" class="node">
<title>Node10</title>
<g id="a_node11"><a xlink:href="CommandBuffer_8hpp.html" target="_top" xlink:title="lug/Graphics/Vulkan\l/API/CommandBuffer.hpp">
<polygon fill="none" stroke="#000000" points="661.5,-246.5 661.5,-276.5 806.5,-276.5 806.5,-246.5 661.5,-246.5"/>
<text text-anchor="start" x="669.5" y="-264.5" font-family="Helvetica,sans-Serif" font-size="10.00" fill="#000000">lug/Graphics/Vulkan</text>
<text text-anchor="middle" x="734" y="-253.5" font-family="Helvetica,sans-Serif" font-size="10.00" fill="#000000">/API/CommandBuffer.hpp</text>
</a>
</g>
</g>
<!-- Node0&#45;&gt;Node10 -->
<g id="edge11" class="edge">
<title>Node0&#45;&gt;Node10</title>
<path fill="none" stroke="#191970" d="M1011.2279,-315.1828C955.2445,-304.3422 876.0454,-289.0059 816.6244,-277.4995"/>
<polygon fill="#191970" stroke="#191970" points="817.0016,-274.0076 806.5185,-275.5426 815.6707,-280.88 817.0016,-274.0076"/>
</g>
<!-- Node17 -->
<g id="node18" class="node">
<title>Node17</title>
<g id="a_node18"><a xlink:href="Debug_8hpp.html" target="_top" xlink:title="lug/System/Debug.hpp">
<polygon fill="none" stroke="#000000" points="1405.5,-252 1405.5,-271 1536.5,-271 1536.5,-252 1405.5,-252"/>
<text text-anchor="middle" x="1471" y="-259" font-family="Helvetica,sans-Serif" font-size="10.00" fill="#000000">lug/System/Debug.hpp</text>
</a>
</g>
</g>
<!-- Node0&#45;&gt;Node17 -->
<g id="edge20" class="edge">
<title>Node0&#45;&gt;Node17</title>
<path fill="none" stroke="#191970" d="M1148.5544,-316.7528C1220.8868,-304.3583 1334.0653,-284.9645 1405.3002,-272.758"/>
<polygon fill="#191970" stroke="#191970" points="1406.2309,-276.1496 1415.4961,-271.0109 1405.0486,-269.2502 1406.2309,-276.1496"/>
</g>
<!-- Node20 -->
<g id="node21" class="node">
<title>Node20</title>
<g id="a_node21"><a xlink:href="Logger_8hpp.html" target="_top" xlink:title="lug/System/Logger/Logger.hpp">
<polygon fill="none" stroke="#000000" points="1861,-252 1861,-271 2033,-271 2033,-252 1861,-252"/>
<text text-anchor="middle" x="1947" y="-259" font-family="Helvetica,sans-Serif" font-size="10.00" fill="#000000">lug/System/Logger/Logger.hpp</text>
</a>
</g>
</g>
<!-- Node0&#45;&gt;Node20 -->
<g id="edge24" class="edge">
<title>Node0&#45;&gt;Node20</title>
<path fill="none" stroke="#191970" d="M1148.7567,-323.1866C1302.4744,-311.3076 1674.2789,-282.5753 1850.835,-268.9314"/>
<polygon fill="#191970" stroke="#191970" points="1851.1929,-272.4143 1860.8935,-268.1541 1850.6535,-265.4351 1851.1929,-272.4143"/>
</g>
<!-- Node2 -->
<g id="node3" class="node">
<title>Node2</title>
<g id="a_node3"><a xlink:href="Graphics_2Export_8hpp.html" target="_top" xlink:title="lug/Graphics/Export.hpp">
<polygon fill="none" stroke="#000000" points="0,-112.5 0,-131.5 138,-131.5 138,-112.5 0,-112.5"/>
<text text-anchor="middle" x="69" y="-119.5" font-family="Helvetica,sans-Serif" font-size="10.00" fill="#000000">lug/Graphics/Export.hpp</text>
</a>
</g>
</g>
<!-- Node1&#45;&gt;Node2 -->
<g id="edge2" class="edge">
<title>Node1&#45;&gt;Node2</title>
<path fill="none" stroke="#191970" d="M54.851,-246.4979C36.7069,-238.7009 18.5633,-227.0918 8,-210 -1.8136,-194.1212 -.3261,-184.7069 8,-168 14.6003,-154.756 27.0327,-144.3192 38.9605,-136.7581"/>
<polygon fill="#191970" stroke="#191970" points="41.0165,-139.6102 47.8784,-131.5378 37.4801,-133.5691 41.0165,-139.6102"/>
</g>
<!-- Node4 -->
<g id="node5" class="node">
<title>Node4</title>
<g id="a_node5"><a xlink:href="Vulkan_8hpp.html" target="_top" xlink:title="lug/Graphics/Vulkan\l/Vulkan.hpp">
<polygon fill="none" stroke="#000000" points="121,-174 121,-204 239,-204 239,-174 121,-174"/>
<text text-anchor="start" x="129" y="-192" font-family="Helvetica,sans-Serif" font-size="10.00" fill="#000000">lug/Graphics/Vulkan</text>
<text text-anchor="middle" x="180" y="-181" font-family="Helvetica,sans-Serif" font-size="10.00" fill="#000000">/Vulkan.hpp</text>
</a>
</g>
</g>
<!-- Node1&#45;&gt;Node4 -->
<g id="edge4" class="edge">
<title>Node1&#45;&gt;Node4</title>
<path fill="none" stroke="#191970" d="M125.2968,-246.478C134.9186,-236.3682 147.7773,-222.8572 158.6101,-211.4749"/>
<polygon fill="#191970" stroke="#191970" points="161.3627,-213.6595 165.7215,-204.0028 156.2921,-208.8337 161.3627,-213.6595"/>
</g>
<!-- Node9 -->
<g id="node10" class="node">
<title>Node9</title>
<polygon fill="none" stroke="#bfbfbf" points="17,-179.5 17,-198.5 65,-198.5 65,-179.5 17,-179.5"/>
<text text-anchor="middle" x="41" y="-186.5" font-family="Helvetica,sans-Serif" font-size="10.00" fill="#000000">mutex</text>
</g>
<!-- Node1&#45;&gt;Node9 -->
<g id="edge10" class="edge">
<title>Node1&#45;&gt;Node9</title>
<path fill="none" stroke="#191970" d="M96.496,-246.478C85.1955,-234.774 69.4939,-218.5115 57.6751,-206.2706"/>
<polygon fill="#191970" stroke="#191970" points="60.0183,-203.6586 50.5544,-198.8957 54.9825,-208.5208 60.0183,-203.6586"/>
</g>
<!-- Node3 -->
<g id="node4" class="node">
<title>Node3</title>
<g id="a_node4"><a xlink:href="Config_8hpp.html" target="_top" xlink:title="lug/Config.hpp">
<polygon fill="none" stroke="#000000" points="1382.5,-.5 1382.5,-19.5 1471.5,-19.5 1471.5,-.5 1382.5,-.5"/>
<text text-anchor="middle" x="1427" y="-7.5" font-family="Helvetica,sans-Serif" font-size="10.00" fill="#000000">lug/Config.hpp</text>
</a>
</g>
</g>
<!-- Node2&#45;&gt;Node3 -->
<g id="edge3" class="edge">
<title>Node2&#45;&gt;Node3</title>
<path fill="none" stroke="#191970" d="M138.3025,-112.9398C141.2396,-112.6112 144.1483,-112.2962 147,-112 620.666,-62.7928 1195.1055,-24.6841 1372.3191,-13.415"/>
<polygon fill="#191970" stroke="#191970" points="1372.6743,-16.8996 1382.4327,-12.7736 1372.2312,-9.9136 1372.6743,-16.8996"/>
</g>
<!-- Node4&#45;&gt;Node2 -->
<g id="edge8" class="edge">
<title>Node4&#45;&gt;Node2</title>
<path fill="none" stroke="#191970" d="M155.0894,-173.9639C136.7167,-162.8741 111.84,-147.8584 93.5526,-136.82"/>
<polygon fill="#191970" stroke="#191970" points="95.281,-133.7751 84.911,-131.6039 91.6636,-139.768 95.281,-133.7751"/>
</g>
<!-- Node5 -->
<g id="node6" class="node">
<title>Node5</title>
<polygon fill="none" stroke="#bfbfbf" points="858.5,-112.5 858.5,-131.5 953.5,-131.5 953.5,-112.5 858.5,-112.5"/>
<text text-anchor="middle" x="906" y="-119.5" font-family="Helvetica,sans-Serif" font-size="10.00" fill="#000000">unordered_map</text>
</g>
<!-- Node4&#45;&gt;Node5 -->
<g id="edge5" class="edge">
<title>Node4&#45;&gt;Node5</title>
<path fill="none" stroke="#191970" d="M223.5243,-173.9421C231.5813,-171.6184 239.9839,-169.4973 248,-168 362.3498,-146.6404 709.6259,-130.2114 848.0995,-124.3399"/>
<polygon fill="#191970" stroke="#191970" points="848.2524,-127.8366 858.0962,-123.919 847.9578,-120.8428 848.2524,-127.8366"/>
</g>
<!-- Node6 -->
<g id="node7" class="node">
<title>Node6</title>
<polygon fill="none" stroke="#bfbfbf" points="156,-112.5 156,-131.5 204,-131.5 204,-112.5 156,-112.5"/>
<text text-anchor="middle" x="180" y="-119.5" font-family="Helvetica,sans-Serif" font-size="10.00" fill="#000000">vector</text>
</g>
<!-- Node4&#45;&gt;Node6 -->
<g id="edge6" class="edge">
<title>Node4&#45;&gt;Node6</title>
<path fill="none" stroke="#191970" d="M180,-173.7967C180,-164.2699 180,-151.8954 180,-141.6306"/>
<polygon fill="#191970" stroke="#191970" points="183.5001,-141.5549 180,-131.555 176.5001,-141.555 183.5001,-141.5549"/>
</g>
<!-- Node7 -->
<g id="node8" class="node">
<title>Node7</title>
<polygon fill="none" stroke="#bfbfbf" points="222,-112.5 222,-131.5 280,-131.5 280,-112.5 222,-112.5"/>
<text text-anchor="middle" x="251" y="-119.5" font-family="Helvetica,sans-Serif" font-size="10.00" fill="#000000">ostream</text>
</g>
<!-- Node4&#45;&gt;Node7 -->
<g id="edge7" class="edge">
<title>Node4&#45;&gt;Node7</title>
<path fill="none" stroke="#191970" d="M196.111,-173.7967C207.2805,-163.2564 222.144,-149.2303 233.5867,-138.4323"/>
<polygon fill="#191970" stroke="#191970" points="236.0037,-140.9638 240.8746,-131.555 231.1994,-135.8727 236.0037,-140.9638"/>
</g>
<!-- Node8 -->
<g id="node9" class="node">
<title>Node8</title>
<polygon fill="none" stroke="#bfbfbf" points="298.5,-112.5 298.5,-131.5 395.5,-131.5 395.5,-112.5 298.5,-112.5"/>
<text text-anchor="middle" x="347" y="-119.5" font-family="Helvetica,sans-Serif" font-size="10.00" fill="#000000">vulkan/vulkan.h</text>
</g>
<!-- Node4&#45;&gt;Node8 -->
<g id="edge9" class="edge">
<title>Node4&#45;&gt;Node8</title>
<path fill="none" stroke="#191970" d="M217.4781,-173.9639C246.382,-162.3677 285.9854,-146.4789 313.7657,-135.3335"/>
<polygon fill="#191970" stroke="#191970" points="315.0842,-138.5758 323.0619,-131.6039 312.4777,-132.0791 315.0842,-138.5758"/>
</g>
<!-- Node10&#45;&gt;Node2 -->
<g id="edge12" class="edge">
<title>Node10&#45;&gt;Node2</title>
<path fill="none" stroke="#191970" d="M661.2609,-259.4825C506.79,-254.6272 156.4523,-240.3752 112,-210 88.9128,-194.224 77.7432,-162.4042 72.7068,-141.6623"/>
<polygon fill="#191970" stroke="#191970" points="76.0889,-140.7427 70.5521,-131.7098 69.2474,-142.224 76.0889,-140.7427"/>
</g>
<!-- Node10&#45;&gt;Node4 -->
<g id="edge13" class="edge">
<title>Node10&#45;&gt;Node4</title>
<path fill="none" stroke="#191970" d="M661.2779,-258.1979C565.6606,-252.8557 392.8241,-239.7424 248,-210 243.4008,-209.0555 238.6687,-207.9286 233.9445,-206.6944"/>
<polygon fill="#191970" stroke="#191970" points="234.8744,-203.3203 224.3037,-204.0343 233.0125,-210.0681 234.8744,-203.3203"/>
</g>
<!-- Node11 -->
<g id="node12" class="node">
<title>Node11</title>
<g id="a_node12"><a xlink:href="CommandBuffer_2Buffer_8inl.html" target="_top" xlink:title="lug/Graphics/Vulkan\l/API/CommandBuffer/Buffer.inl">
<polygon fill="none" stroke="#000000" points="257,-174 257,-204 431,-204 431,-174 257,-174"/>
<text text-anchor="start" x="265" y="-192" font-family="Helvetica,sans-Serif" font-size="10.00" fill="#000000">lug/Graphics/Vulkan</text>
<text text-anchor="middle" x="344" y="-181" font-family="Helvetica,sans-Serif" font-size="10.00" fill="#000000">/API/CommandBuffer/Buffer.inl</text>
</a>
</g>
</g>
<!-- Node10&#45;&gt;Node11 -->
<g id="edge14" class="edge">
<title>Node10&#45;&gt;Node11</title>
<path fill="none" stroke="#191970" d="M661.3501,-249.6458C601.7533,-239.7121 515.2475,-224.814 440,-210 433.8482,-208.7889 427.4844,-207.4928 421.096,-206.1609"/>
<polygon fill="#191970" stroke="#191970" points="421.571,-202.6842 411.064,-204.0458 420.1268,-209.5336 421.571,-202.6842"/>
</g>
<!-- Node12 -->
<g id="node13" class="node">
<title>Node12</title>
<g id="a_node13"><a xlink:href="API_2CommandBuffer_2DescriptorSet_8inl.html" target="_top" xlink:title="lug/Graphics/Vulkan\l/API/CommandBuffer/Descriptor\lSet.inl">
<polygon fill="none" stroke="#000000" points="449.5,-168.5 449.5,-209.5 628.5,-209.5 628.5,-168.5 449.5,-168.5"/>
<text text-anchor="start" x="457.5" y="-197.5" font-family="Helvetica,sans-Serif" font-size="10.00" fill="#000000">lug/Graphics/Vulkan</text>
<text text-anchor="start" x="457.5" y="-186.5" font-family="Helvetica,sans-Serif" font-size="10.00" fill="#000000">/API/CommandBuffer/Descriptor</text>
<text text-anchor="middle" x="539" y="-175.5" font-family="Helvetica,sans-Serif" font-size="10.00" fill="#000000">Set.inl</text>
</a>
</g>
</g>
<!-- Node10&#45;&gt;Node12 -->
<g id="edge15" class="edge">
<title>Node10&#45;&gt;Node12</title>
<path fill="none" stroke="#191970" d="M693.5959,-246.478C667.6251,-236.8222 633.3094,-224.0638 603.6071,-213.0206"/>
<polygon fill="#191970" stroke="#191970" points="604.7349,-209.7059 594.142,-209.5015 602.2954,-216.2671 604.7349,-209.7059"/>
</g>
<!-- Node13 -->
<g id="node14" class="node">
<title>Node13</title>
<g id="a_node14"><a xlink:href="CommandBuffer_2Image_8inl.html" target="_top" xlink:title="lug/Graphics/Vulkan\l/API/CommandBuffer/Image.inl">
<polygon fill="none" stroke="#000000" points="646.5,-174 646.5,-204 821.5,-204 821.5,-174 646.5,-174"/>
<text text-anchor="start" x="654.5" y="-192" font-family="Helvetica,sans-Serif" font-size="10.00" fill="#000000">lug/Graphics/Vulkan</text>
<text text-anchor="middle" x="734" y="-181" font-family="Helvetica,sans-Serif" font-size="10.00" fill="#000000">/API/CommandBuffer/Image.inl</text>
</a>
</g>
</g>
<!-- Node10&#45;&gt;Node13 -->
<g id="edge16" class="edge">
<title>Node10&#45;&gt;Node13</title>
<path fill="none" stroke="#191970" d="M734,-246.478C734,-237.1459 734,-224.9157 734,-214.1368"/>
<polygon fill="#191970" stroke="#191970" points="737.5001,-214.0028 734,-204.0028 730.5001,-214.0028 737.5001,-214.0028"/>
</g>
<!-- Node14 -->
<g id="node15" class="node">
<title>Node14</title>
<g id="a_node15"><a xlink:href="RenderPass_8inl.html" target="_top" xlink:title="lug/Graphics/Vulkan\l/API/CommandBuffer/RenderPass.inl">
<polygon fill="none" stroke="#000000" points="839.5,-174 839.5,-204 1040.5,-204 1040.5,-174 839.5,-174"/>
<text text-anchor="start" x="847.5" y="-192" font-family="Helvetica,sans-Serif" font-size="10.00" fill="#000000">lug/Graphics/Vulkan</text>
<text text-anchor="middle" x="940" y="-181" font-family="Helvetica,sans-Serif" font-size="10.00" fill="#000000">/API/CommandBuffer/RenderPass.inl</text>
</a>
</g>
</g>
<!-- Node10&#45;&gt;Node14 -->
<g id="edge17" class="edge">
<title>Node10&#45;&gt;Node14</title>
<path fill="none" stroke="#191970" d="M776.6833,-246.478C808.8616,-235.1531 853.1667,-219.5603 887.5126,-207.4725"/>
<polygon fill="#191970" stroke="#191970" points="889.1004,-210.6242 897.3713,-204.0028 886.7765,-204.0212 889.1004,-210.6242"/>
</g>
<!-- Node15 -->
<g id="node16" class="node">
<title>Node15</title>
<g id="a_node16"><a xlink:href="API_2CommandBuffer_2Pipeline_8inl.html" target="_top" xlink:title="lug/Graphics/Vulkan\l/API/CommandBuffer/Pipeline.inl">
<polygon fill="none" stroke="#000000" points="1059,-174 1059,-204 1241,-204 1241,-174 1059,-174"/>
<text text-anchor="start" x="1067" y="-192" font-family="Helvetica,sans-Serif" font-size="10.00" fill="#000000">lug/Graphics/Vulkan</text>
<text text-anchor="middle" x="1150" y="-181" font-family="Helvetica,sans-Serif" font-size="10.00" fill="#000000">/API/CommandBuffer/Pipeline.inl</text>
</a>
</g>
</g>
<!-- Node10&#45;&gt;Node15 -->
<g id="edge18" class="edge">
<title>Node10&#45;&gt;Node15</title>
<path fill="none" stroke="#191970" d="M806.7196,-250.5181C870.6638,-240.6453 966.1859,-225.3718 1049,-210 1055.6845,-208.7592 1062.6074,-207.4247 1069.5511,-206.0514"/>
<polygon fill="#191970" stroke="#191970" points="1070.5948,-209.4121 1079.7138,-204.0182 1069.2215,-202.5481 1070.5948,-209.4121"/>
</g>
<!-- Node16 -->
<g id="node17" class="node">
<title>Node16</title>
<g id="a_node17"><a xlink:href="CommandBuffer_8inl.html" target="_top" xlink:title="lug/Graphics/Vulkan\l/API/CommandBuffer.inl">
<polygon fill="none" stroke="#000000" points="1259.5,-174 1259.5,-204 1398.5,-204 1398.5,-174 1259.5,-174"/>
<text text-anchor="start" x="1267.5" y="-192" font-family="Helvetica,sans-Serif" font-size="10.00" fill="#000000">lug/Graphics/Vulkan</text>
<text text-anchor="middle" x="1329" y="-181" font-family="Helvetica,sans-Serif" font-size="10.00" fill="#000000">/API/CommandBuffer.inl</text>
</a>
</g>
</g>
<!-- Node10&#45;&gt;Node16 -->
<g id="edge19" class="edge">
<title>Node10&#45;&gt;Node16</title>
<path fill="none" stroke="#191970" d="M806.7216,-257.9238C907.0909,-252.1535 1093.4356,-238.4326 1250,-210 1255.6355,-208.9766 1261.4575,-207.7539 1267.2673,-206.4202"/>
<polygon fill="#191970" stroke="#191970" points="1268.0901,-209.8223 1276.9981,-204.0866 1266.4575,-203.0153 1268.0901,-209.8223"/>
</g>
<!-- Node17&#45;&gt;Node3 -->
<g id="edge21" class="edge">
<title>Node17&#45;&gt;Node3</title>
<path fill="none" stroke="#191970" d="M1464.9007,-251.6647C1458.985,-241.601 1450.2925,-225.3117 1446,-210 1428.0747,-146.0582 1426.303,-66.6006 1426.5722,-30.0746"/>
<polygon fill="#191970" stroke="#191970" points="1430.0756,-29.8453 1426.7134,-19.7981 1423.0762,-29.7491 1430.0756,-29.8453"/>
</g>
<!-- Node18 -->
<g id="node19" class="node">
<title>Node18</title>
<g id="a_node19"><a xlink:href="Utils_8hpp.html" target="_top" xlink:title="lug/System/Utils.hpp">
<polygon fill="none" stroke="#000000" points="1455,-179.5 1455,-198.5 1577,-198.5 1577,-179.5 1455,-179.5"/>
<text text-anchor="middle" x="1516" y="-186.5" font-family="Helvetica,sans-Serif" font-size="10.00" fill="#000000">lug/System/Utils.hpp</text>
</a>
</g>
</g>
<!-- Node17&#45;&gt;Node18 -->
<g id="edge22" class="edge">
<title>Node17&#45;&gt;Node18</title>
<path fill="none" stroke="#191970" d="M1477.0689,-251.7223C1484.0861,-240.4169 1495.7916,-221.558 1504.5384,-207.4659"/>
<polygon fill="#191970" stroke="#191970" points="1507.7273,-208.965 1510.0273,-198.6228 1501.7798,-205.2734 1507.7273,-208.965"/>
</g>
<!-- Node19 -->
<g id="node20" class="node">
<title>Node19</title>
<polygon fill="none" stroke="#bfbfbf" points="1595.5,-179.5 1595.5,-198.5 1656.5,-198.5 1656.5,-179.5 1595.5,-179.5"/>
<text text-anchor="middle" x="1626" y="-186.5" font-family="Helvetica,sans-Serif" font-size="10.00" fill="#000000">iostream</text>
</g>
<!-- Node17&#45;&gt;Node19 -->
<g id="edge23" class="edge">
<title>Node17&#45;&gt;Node19</title>
<path fill="none" stroke="#191970" d="M1493.6686,-251.8458C1517.0028,-241.7922 1554.3206,-225.3907 1586,-210 1590.2417,-207.9393 1594.6974,-205.6881 1599.0326,-203.4497"/>
<polygon fill="#191970" stroke="#191970" points="1600.9655,-206.3884 1608.2006,-198.6486 1597.7181,-200.1872 1600.9655,-206.3884"/>
</g>
<!-- Node21 -->
<g id="node22" class="node">
<title>Node21</title>
<polygon fill="none" stroke="#bfbfbf" points="1704.5,-112.5 1704.5,-131.5 1763.5,-131.5 1763.5,-112.5 1704.5,-112.5"/>
<text text-anchor="middle" x="1734" y="-119.5" font-family="Helvetica,sans-Serif" font-size="10.00" fill="#000000">memory</text>
</g>
<!-- Node20&#45;&gt;Node21 -->
<g id="edge25" class="edge">
<title>Node20&#45;&gt;Node21</title>
<path fill="none" stroke="#191970" d="M1860.9829,-254.5865C1799.2872,-247.6334 1723.7171,-234.3337 1704,-210 1687.1689,-189.228 1704.6757,-158.4971 1719.1327,-139.3897"/>
<polygon fill="#191970" stroke="#191970" points="1721.9227,-141.5048 1725.4262,-131.506 1716.452,-137.1376 1721.9227,-141.5048"/>
</g>
<!-- Node22 -->
<g id="node23" class="node">
<title>Node22</title>
<polygon fill="none" stroke="#bfbfbf" points="1713,-179.5 1713,-198.5 1745,-198.5 1745,-179.5 1713,-179.5"/>
<text text-anchor="middle" x="1729" y="-186.5" font-family="Helvetica,sans-Serif" font-size="10.00" fill="#000000">set</text>
</g>
<!-- Node20&#45;&gt;Node22 -->
<g id="edge26" class="edge">
<title>Node20&#45;&gt;Node22</title>
<path fill="none" stroke="#191970" d="M1886.2621,-251.9363C1847.2674,-244.1994 1796.3694,-231.0526 1755,-210 1752.1946,-208.5723 1749.4106,-206.8067 1746.7649,-204.9105"/>
<polygon fill="#191970" stroke="#191970" points="1748.9279,-202.1587 1738.9271,-198.6608 1744.5637,-207.6318 1748.9279,-202.1587"/>
</g>
<!-- Node23 -->
<g id="node24" class="node">
<title>Node23</title>
<polygon fill="none" stroke="#bfbfbf" points="1900.5,-112.5 1900.5,-131.5 1945.5,-131.5 1945.5,-112.5 1900.5,-112.5"/>
<text text-anchor="middle" x="1923" y="-119.5" font-family="Helvetica,sans-Serif" font-size="10.00" fill="#000000">string</text>
</g>
<!-- Node20&#45;&gt;Node23 -->
<g id="edge27" class="edge">
<title>Node20&#45;&gt;Node23</title>
<path fill="none" stroke="#191970" d="M1945.3504,-251.9116C1941.4626,-229.3141 1931.6599,-172.3359 1926.4229,-141.8957"/>
<polygon fill="#191970" stroke="#191970" points="1929.8061,-140.9173 1924.6612,-131.6555 1922.9074,-142.1042 1929.8061,-140.9173"/>
</g>
<!-- Node24 -->
<g id="node25" class="node">
<title>Node24</title>
<g id="a_node25"><a xlink:href="System_2Export_8hpp.html" target="_top" xlink:title="lug/System/Export.hpp">
<polygon fill="none" stroke="#000000" points="1797,-56.5 1797,-75.5 1929,-75.5 1929,-56.5 1797,-56.5"/>
<text text-anchor="middle" x="1863" y="-63.5" font-family="Helvetica,sans-Serif" font-size="10.00" fill="#000000">lug/System/Export.hpp</text>
</a>
</g>
</g>
<!-- Node20&#45;&gt;Node24 -->
<g id="edge28" class="edge">
<title>Node20&#45;&gt;Node24</title>
<path fill="none" stroke="#191970" d="M1951.0178,-251.8312C1960.8157,-226.5963 1983.1495,-157.5468 1955,-112 1945.5039,-96.6351 1929.1495,-86.2306 1912.8388,-79.2655"/>
<polygon fill="#191970" stroke="#191970" points="1913.8811,-75.9155 1903.2925,-75.5505 1911.3424,-82.4389 1913.8811,-75.9155"/>
</g>
<!-- Node25 -->
<g id="node26" class="node">
<title>Node25</title>
<g id="a_node26"><a xlink:href="Common_8hpp.html" target="_top" xlink:title="lug/System/Logger/Common.hpp">
<polygon fill="none" stroke="#000000" points="2013,-112.5 2013,-131.5 2195,-131.5 2195,-112.5 2013,-112.5"/>
<text text-anchor="middle" x="2104" y="-119.5" font-family="Helvetica,sans-Serif" font-size="10.00" fill="#000000">lug/System/Logger/Common.hpp</text>
</a>
</g>
</g>
<!-- Node20&#45;&gt;Node25 -->
<g id="edge30" class="edge">
<title>Node20&#45;&gt;Node25</title>
<path fill="none" stroke="#191970" d="M1956.8222,-251.7956C1979.4669,-229.4427 2034.0836,-175.6509 2043,-168 2055.353,-157.4002 2069.8802,-146.3923 2081.6585,-137.8033"/>
<polygon fill="#191970" stroke="#191970" points="2083.984,-140.4414 2090.048,-131.7535 2079.8897,-134.7636 2083.984,-140.4414"/>
</g>
<!-- Node28 -->
<g id="node29" class="node">
<title>Node28</title>
<g id="a_node29"><a xlink:href="LoggingFacility_8hpp.html" target="_top" xlink:title="lug/System/Logger/Logging\lFacility.hpp">
<polygon fill="none" stroke="#000000" points="1763.5,-174 1763.5,-204 1918.5,-204 1918.5,-174 1763.5,-174"/>
<text text-anchor="start" x="1771.5" y="-192" font-family="Helvetica,sans-Serif" font-size="10.00" fill="#000000">lug/System/Logger/Logging</text>
<text text-anchor="middle" x="1841" y="-181" font-family="Helvetica,sans-Serif" font-size="10.00" fill="#000000">Facility.hpp</text>
</a>
</g>
</g>
<!-- Node20&#45;&gt;Node28 -->
<g id="edge34" class="edge">
<title>Node20&#45;&gt;Node28</title>
<path fill="none" stroke="#191970" d="M1932.7044,-251.7223C1917.0792,-241.0353 1891.5855,-223.5986 1871.4391,-209.8192"/>
<polygon fill="#191970" stroke="#191970" points="1873.4067,-206.9246 1863.1767,-204.168 1869.4548,-212.7024 1873.4067,-206.9246"/>
</g>
<!-- Node29 -->
<g id="node30" class="node">
<title>Node29</title>
<g id="a_node30"><a xlink:href="Message_8hpp.html" target="_top" xlink:title="lug/System/Logger/Message.hpp">
<polygon fill="none" stroke="#000000" points="2051.5,-179.5 2051.5,-198.5 2232.5,-198.5 2232.5,-179.5 2051.5,-179.5"/>
<text text-anchor="middle" x="2142" y="-186.5" font-family="Helvetica,sans-Serif" font-size="10.00" fill="#000000">lug/System/Logger/Message.hpp</text>
</a>
</g>
</g>
<!-- Node20&#45;&gt;Node29 -->
<g id="edge39" class="edge">
<title>Node20&#45;&gt;Node29</title>
<path fill="none" stroke="#191970" d="M1972.8945,-251.8726C2007.2266,-239.1081 2067.958,-216.5284 2106.533,-202.1864"/>
<polygon fill="#191970" stroke="#191970" points="2108.1556,-205.3173 2116.309,-198.5518 2105.7161,-198.7561 2108.1556,-205.3173"/>
</g>
<!-- Node30 -->
<g id="node31" class="node">
<title>Node30</title>
<g id="a_node31"><a xlink:href="Logger_8inl.html" target="_top" xlink:title="lug/System/Logger/Logger.inl">
<polygon fill="none" stroke="#000000" points="2251,-179.5 2251,-198.5 2417,-198.5 2417,-179.5 2251,-179.5"/>
<text text-anchor="middle" x="2334" y="-186.5" font-family="Helvetica,sans-Serif" font-size="10.00" fill="#000000">lug/System/Logger/Logger.inl</text>
</a>
</g>
</g>
<!-- Node20&#45;&gt;Node30 -->
<g id="edge41" class="edge">
<title>Node20&#45;&gt;Node30</title>
<path fill="none" stroke="#191970" d="M2006.7781,-251.9929C2066.4933,-242.2775 2160.834,-226.337 2242,-210 2255.8287,-207.2166 2270.7624,-203.9299 2284.4934,-200.7934"/>
<polygon fill="#191970" stroke="#191970" points="2285.2879,-204.2022 2294.2462,-198.5455 2283.7156,-197.381 2285.2879,-204.2022"/>
</g>
<!-- Node24&#45;&gt;Node3 -->
<g id="edge29" class="edge">
<title>Node24&#45;&gt;Node3</title>
<path fill="none" stroke="#191970" d="M1796.781,-57.4948C1710.7163,-46.4406 1561.9945,-27.3387 1481.8922,-17.0504"/>
<polygon fill="#191970" stroke="#191970" points="1481.8942,-13.522 1471.5298,-15.7194 1481.0024,-20.4649 1481.8942,-13.522"/>
</g>
<!-- Node25&#45;&gt;Node24 -->
<g id="edge31" class="edge">
<title>Node25&#45;&gt;Node24</title>
<path fill="none" stroke="#191970" d="M2062.8445,-112.4369C2021.6858,-102.8731 1958.295,-88.1432 1913.9758,-77.845"/>
<polygon fill="#191970" stroke="#191970" points="1914.5185,-74.3779 1903.9858,-75.5237 1912.9341,-81.1963 1914.5185,-74.3779"/>
</g>
<!-- Node26 -->
<g id="node27" class="node">
<title>Node26</title>
<polygon fill="none" stroke="#bfbfbf" points="2011,-56.5 2011,-75.5 2093,-75.5 2093,-56.5 2011,-56.5"/>
<text text-anchor="middle" x="2052" y="-63.5" font-family="Helvetica,sans-Serif" font-size="10.00" fill="#000000">fmt/format.h</text>
</g>
<!-- Node25&#45;&gt;Node26 -->
<g id="edge32" class="edge">
<title>Node25&#45;&gt;Node26</title>
<path fill="none" stroke="#191970" d="M2094.9423,-112.2455C2087.4858,-104.2155 2076.7366,-92.6394 2067.8583,-83.0781"/>
<polygon fill="#191970" stroke="#191970" points="2070.3232,-80.589 2060.9539,-75.6427 2065.1937,-85.3522 2070.3232,-80.589"/>
</g>
<!-- Node27 -->
<g id="node28" class="node">
<title>Node27</title>
<polygon fill="none" stroke="#bfbfbf" points="2111.5,-56.5 2111.5,-75.5 2200.5,-75.5 2200.5,-56.5 2111.5,-56.5"/>
<text text-anchor="middle" x="2156" y="-63.5" font-family="Helvetica,sans-Serif" font-size="10.00" fill="#000000">fmt/ostream.h</text>
</g>
<!-- Node25&#45;&gt;Node27 -->
<g id="edge33" class="edge">
<title>Node25&#45;&gt;Node27</title>
<path fill="none" stroke="#191970" d="M2113.0577,-112.2455C2120.5142,-104.2155 2131.2634,-92.6394 2140.1417,-83.0781"/>
<polygon fill="#191970" stroke="#191970" points="2142.8063,-85.3522 2147.0461,-75.6427 2137.6768,-80.589 2142.8063,-85.3522"/>
</g>
<!-- Node28&#45;&gt;Node5 -->
<g id="edge37" class="edge">
<title>Node28&#45;&gt;Node5</title>
<path fill="none" stroke="#191970" d="M1785.1339,-173.9251C1774.8441,-171.6032 1764.1467,-169.4871 1754,-168 1600.9939,-145.576 1129.3609,-129.0149 964.0076,-123.7648"/>
<polygon fill="#191970" stroke="#191970" points="963.671,-120.2525 953.5656,-123.4354 963.4502,-127.249 963.671,-120.2525"/>
</g>
<!-- Node28&#45;&gt;Node21 -->
<g id="edge36" class="edge">
<title>Node28&#45;&gt;Node21</title>
<path fill="none" stroke="#191970" d="M1816.9871,-173.9639C1799.3574,-162.9247 1775.5151,-147.9954 1757.9097,-136.9715"/>
<polygon fill="#191970" stroke="#191970" points="1759.6707,-133.9446 1749.3376,-131.6039 1755.9556,-139.8775 1759.6707,-133.9446"/>
</g>
<!-- Node28&#45;&gt;Node23 -->
<g id="edge35" class="edge">
<title>Node28&#45;&gt;Node23</title>
<path fill="none" stroke="#191970" d="M1859.6071,-173.7967C1872.6311,-163.1551 1890.0039,-148.9602 1903.269,-138.1217"/>
<polygon fill="#191970" stroke="#191970" points="1905.7766,-140.5926 1911.3059,-131.555 1901.3475,-135.1719 1905.7766,-140.5926"/>
</g>
<!-- Node28&#45;&gt;Node24 -->
<g id="edge38" class="edge">
<title>Node28&#45;&gt;Node24</title>
<path fill="none" stroke="#191970" d="M1843.6976,-173.9178C1847.6776,-151.6659 1855.1245,-110.0314 1859.5138,-85.4908"/>
<polygon fill="#191970" stroke="#191970" points="1862.9766,-86.0093 1861.292,-75.5493 1856.0859,-84.7768 1862.9766,-86.0093"/>
</g>
<!-- Node29&#45;&gt;Node25 -->
<g id="edge40" class="edge">
<title>Node29&#45;&gt;Node25</title>
<path fill="none" stroke="#191970" d="M2136.5555,-179.4005C2130.7991,-169.251 2121.5787,-152.9941 2114.4176,-140.3679"/>
<polygon fill="#191970" stroke="#191970" points="2117.4123,-138.5533 2109.4344,-131.5817 2111.3234,-142.0067 2117.4123,-138.5533"/>
</g>
</g>
</svg>
        <g id="navigator" transform="translate(0 0)" fill="#404254">
                <rect fill="#f2f5e9" fill-opacity="0.5" stroke="#606060" stroke-width=".5" x="0" y="0" width="60" height="60"/>
                <use id="zoomplus" xlink:href="#zoomPlus" x="17" y="9" onmousedown="handleZoom(evt,'in')"/>
                <use id="zoomminus" xlink:href="#zoomMin" x="42" y="9" onmousedown="handleZoom(evt,'out')"/>
                <use id="reset" xlink:href="#resetDef" x="30" y="36" onmousedown="handleReset()"/>
                <g id="arrowUp" xlink:href="#dirArrow" transform="translate(30 24)" onmousedown="handlePan(0,-1)">
                  <use xlink:href="#rim" fill="#404040">
                        <set attributeName="fill" to="#808080" begin="arrowUp.mouseover" end="arrowUp.mouseout"/>
                  </use>
                  <path fill="none" stroke="white" stroke-width="1.5" d="M0,-3.0v7 M-2.5,-0.5L0,-3.0L2.5,-0.5"/>
                </g>
                <g id="arrowRight" xlink:href="#dirArrow" transform="rotate(90) translate(36 -43)" onmousedown="handlePan(1,0)">
                  <use xlink:href="#rim" fill="#404040">
                        <set attributeName="fill" to="#808080" begin="arrowRight.mouseover" end="arrowRight.mouseout"/>
                  </use>
                  <path fill="none" stroke="white" stroke-width="1.5" d="M0,-3.0v7 M-2.5,-0.5L0,-3.0L2.5,-0.5"/>
                </g>
                <g id="arrowDown" xlink:href="#dirArrow" transform="rotate(180) translate(-30 -48)" onmousedown="handlePan(0,1)">
                  <use xlink:href="#rim" fill="#404040">
                        <set attributeName="fill" to="#808080" begin="arrowDown.mouseover" end="arrowDown.mouseout"/>
                  </use>
                  <path fill="none" stroke="white" stroke-width="1.5" d="M0,-3.0v7 M-2.5,-0.5L0,-3.0L2.5,-0.5"/>
                </g>
                <g id="arrowLeft" xlink:href="#dirArrow" transform="rotate(270) translate(-36 17)" onmousedown="handlePan(-1,0)">
                  <use xlink:href="#rim" fill="#404040">
                        <set attributeName="fill" to="#808080" begin="arrowLeft.mouseover" end="arrowLeft.mouseout"/>
                  </use>
                  <path fill="none" stroke="white" stroke-width="1.5" d="M0,-3.0v7 M-2.5,-0.5L0,-3.0L2.5,-0.5"/>
                </g>
        </g>
        <svg viewBox="0 0 15 15" width="100%" height="30px" preserveAspectRatio="xMaxYMin meet">
         <g id="arrow_out" transform="scale(0.3 0.3)">
          <a xlink:href="Vulkan_2API_2Queue_8cpp__incl_org.svg" target="_base">
           <rect id="button" ry="5" rx="5" y="6" x="6" height="38" width="38"
                fill="#f2f5e9" fill-opacity="0.5" stroke="#606060" stroke-width="1.0"/>
           <path id="arrow"
             d="M 11.500037,31.436501 C 11.940474,20.09759 22.043105,11.32322 32.158766,21.979434 L 37.068811,17.246167 C 37.068811,17.246167 37.088388,32 37.088388,32 L 22.160133,31.978069 C 22.160133,31.978069 26.997745,27.140456 26.997745,27.140456 C 18.528582,18.264221 13.291696,25.230495 11.500037,31.436501 z"
             style="fill:#404040;"/>
          </a>
         </g>
        </svg>
</svg>
