<?xml version="1.0" encoding="UTF-8" standalone="no"?>
<!DOCTYPE svg PUBLIC "-//W3C//DTD SVG 1.1//EN"
 "http://www.w3.org/Graphics/SVG/1.1/DTD/svg11.dtd">
<!-- Generated by graphviz version 2.40.1 (20161225.0304)
 -->
<!-- Title: include/lug/Graphics/Vulkan/Render/Queue.hpp Pages: 1 -->
<svg width="553pt" height="262pt"
 viewBox="0.00 0.00 552.87 262.00" xmlns="http://www.w3.org/2000/svg" xmlns:xlink="http://www.w3.org/1999/xlink">
<g id="graph0" class="graph" transform="scale(1 1) rotate(0) translate(4 258)">
<title>include/lug/Graphics/Vulkan/Render/Queue.hpp</title>
<!-- Node99 -->
<g id="node1" class="node">
<title>Node99</title>
<polygon fill="#bfbfbf" stroke="#000000" points="252.372,-223.5 252.372,-253.5 404.372,-253.5 404.372,-223.5 252.372,-223.5"/>
<text text-anchor="start" x="260.372" y="-241.5" font-family="Helvetica,sans-Serif" font-size="10.00" fill="#000000">include/lug/Graphics</text>
<text text-anchor="middle" x="328.372" y="-230.5" font-family="Helvetica,sans-Serif" font-size="10.00" fill="#000000">/Vulkan/Render/Queue.hpp</text>
</g>
<!-- Node100 -->
<g id="node2" class="node">
<title>Node100</title>
<g id="a_node2"><a xlink:href="Technique_8hpp.html" target="_top" xlink:title="include/lug/Graphics\l/Vulkan/Render/Technique\l/Technique.hpp">
<polygon fill="none" stroke="#000000" points="202.872,-145.5 202.872,-186.5 351.872,-186.5 351.872,-145.5 202.872,-145.5"/>
<text text-anchor="start" x="210.872" y="-174.5" font-family="Helvetica,sans-Serif" font-size="10.00" fill="#000000">include/lug/Graphics</text>
<text text-anchor="start" x="210.872" y="-163.5" font-family="Helvetica,sans-Serif" font-size="10.00" fill="#000000">/Vulkan/Render/Technique</text>
<text text-anchor="middle" x="277.372" y="-152.5" font-family="Helvetica,sans-Serif" font-size="10.00" fill="#000000">/Technique.hpp</text>
</a>
</g>
</g>
<!-- Node99&#45;&gt;Node100 -->
<g id="edge1" class="edge">
<title>Node99&#45;&gt;Node100</title>
<path fill="none" stroke="#191970" d="M311.9295,-215.1258C305.4462,-205.9094 298.0651,-195.4167 291.7938,-186.5015"/>
<polygon fill="#191970" stroke="#191970" points="309.1885,-217.3126 317.8048,-223.478 314.9139,-213.2851 309.1885,-217.3126"/>
</g>
<!-- Node102 -->
<g id="node4" class="node">
<title>Node102</title>
<g id="a_node4"><a xlink:href="Forward_8cpp.html" target="_top" xlink:title="src/lug/Graphics/Vulkan\l/Render/Technique/Forward.cpp">
<polygon fill="none" stroke="#000000" points="2.872,-.5 2.872,-30.5 179.872,-30.5 179.872,-.5 2.872,-.5"/>
<text text-anchor="start" x="10.872" y="-18.5" font-family="Helvetica,sans-Serif" font-size="10.00" fill="#000000">src/lug/Graphics/Vulkan</text>
<text text-anchor="middle" x="91.372" y="-7.5" font-family="Helvetica,sans-Serif" font-size="10.00" fill="#000000">/Render/Technique/Forward.cpp</text>
</a>
</g>
</g>
<!-- Node99&#45;&gt;Node102 -->
<g id="edge12" class="edge">
<title>Node99&#45;&gt;Node102</title>
<path fill="none" stroke="#191970" d="M242.0451,-230.1607C165.8008,-217.6892 58.9637,-186.5797 7.372,-109 -2.9646,-93.4566 -1.7472,-83.2876 7.372,-67 16.5644,-50.5816 33.3662,-38.7643 49.5407,-30.6253"/>
<polygon fill="#191970" stroke="#191970" points="241.7024,-233.6495 252.1219,-231.7304 242.7798,-226.7329 241.7024,-233.6495"/>
</g>
<!-- Node104 -->
<g id="node6" class="node">
<title>Node104</title>
<g id="a_node6"><a xlink:href="Vulkan_2Render_2View_8hpp.html" target="_top" xlink:title="include/lug/Graphics\l/Vulkan/Render/View.hpp">
<polygon fill="none" stroke="#000000" points="388.872,-73 388.872,-103 533.872,-103 533.872,-73 388.872,-73"/>
<text text-anchor="start" x="396.872" y="-91" font-family="Helvetica,sans-Serif" font-size="10.00" fill="#000000">include/lug/Graphics</text>
<text text-anchor="middle" x="461.372" y="-80" font-family="Helvetica,sans-Serif" font-size="10.00" fill="#000000">/Vulkan/Render/View.hpp</text>
</a>
</g>
</g>
<!-- Node99&#45;&gt;Node104 -->
<g id="edge10" class="edge">
<title>Node99&#45;&gt;Node104</title>
<path fill="none" stroke="#191970" d="M344.128,-214.9173C357.6043,-195.4013 378.0001,-167.3558 398.372,-145 412.2806,-129.7369 429.8182,-114.1207 442.856,-103.1024"/>
<polygon fill="#191970" stroke="#191970" points="341.1983,-213.0011 338.4481,-223.2328 346.9786,-216.9494 341.1983,-213.0011"/>
</g>
<!-- Node107 -->
<g id="node9" class="node">
<title>Node107</title>
<g id="a_node9"><a xlink:href="Vulkan_2Render_2Queue_8cpp.html" target="_top" xlink:title="src/lug/Graphics/Vulkan\l/Render/Queue.cpp">
<polygon fill="none" stroke="#000000" points="407.872,-151 407.872,-181 544.872,-181 544.872,-151 407.872,-151"/>
<text text-anchor="start" x="415.872" y="-169" font-family="Helvetica,sans-Serif" font-size="10.00" fill="#000000">src/lug/Graphics/Vulkan</text>
<text text-anchor="middle" x="476.372" y="-158" font-family="Helvetica,sans-Serif" font-size="10.00" fill="#000000">/Render/Queue.cpp</text>
</a>
</g>
</g>
<!-- Node99&#45;&gt;Node107 -->
<g id="edge11" class="edge">
<title>Node99&#45;&gt;Node107</title>
<path fill="none" stroke="#191970" d="M368.0442,-219.066C392.4407,-207.115 423.2322,-192.0313 445.7456,-181.0028"/>
<polygon fill="#191970" stroke="#191970" points="366.4784,-215.9356 359.0377,-223.478 369.5578,-222.2219 366.4784,-215.9356"/>
</g>
<!-- Node101 -->
<g id="node3" class="node">
<title>Node101</title>
<g id="a_node3"><a xlink:href="Forward_8hpp.html" target="_top" xlink:title="include/lug/Graphics\l/Vulkan/Render/Technique\l/Forward.hpp">
<polygon fill="none" stroke="#000000" points="16.872,-67.5 16.872,-108.5 165.872,-108.5 165.872,-67.5 16.872,-67.5"/>
<text text-anchor="start" x="24.872" y="-96.5" font-family="Helvetica,sans-Serif" font-size="10.00" fill="#000000">include/lug/Graphics</text>
<text text-anchor="start" x="24.872" y="-85.5" font-family="Helvetica,sans-Serif" font-size="10.00" fill="#000000">/Vulkan/Render/Technique</text>
<text text-anchor="middle" x="91.372" y="-74.5" font-family="Helvetica,sans-Serif" font-size="10.00" fill="#000000">/Forward.hpp</text>
</a>
</g>
</g>
<!-- Node100&#45;&gt;Node101 -->
<g id="edge2" class="edge">
<title>Node100&#45;&gt;Node101</title>
<path fill="none" stroke="#191970" d="M218.5709,-141.3415C193.3819,-130.7784 164.3041,-118.5844 140.3135,-108.5239"/>
<polygon fill="#191970" stroke="#191970" points="217.4402,-144.6626 228.0158,-145.3022 220.1474,-138.2072 217.4402,-144.6626"/>
</g>
<!-- Node100&#45;&gt;Node104 -->
<g id="edge5" class="edge">
<title>Node100&#45;&gt;Node104</title>
<path fill="none" stroke="#191970" d="M335.5957,-141.3182C365.1859,-128.7746 400.1891,-113.9362 425.7467,-103.102"/>
<polygon fill="#191970" stroke="#191970" points="334.0384,-138.1768 326.1976,-145.3022 336.7705,-144.6216 334.0384,-138.1768"/>
</g>
<!-- Node106 -->
<g id="node8" class="node">
<title>Node106</title>
<g id="a_node8"><a xlink:href="Technique_8cpp.html" target="_top" xlink:title="src/lug/Graphics/Vulkan\l/Render/Technique/Technique.cpp">
<polygon fill="none" stroke="#000000" points="183.872,-73 183.872,-103 370.872,-103 370.872,-73 183.872,-73"/>
<text text-anchor="start" x="191.872" y="-91" font-family="Helvetica,sans-Serif" font-size="10.00" fill="#000000">src/lug/Graphics/Vulkan</text>
<text text-anchor="middle" x="277.372" y="-80" font-family="Helvetica,sans-Serif" font-size="10.00" fill="#000000">/Render/Technique/Technique.cpp</text>
</a>
</g>
</g>
<!-- Node100&#45;&gt;Node106 -->
<g id="edge9" class="edge">
<title>Node100&#45;&gt;Node106</title>
<path fill="none" stroke="#191970" d="M277.372,-135.0187C277.372,-124.1033 277.372,-112.3119 277.372,-103.2679"/>
<polygon fill="#191970" stroke="#191970" points="273.8721,-135.0974 277.372,-145.0974 280.8721,-135.0975 273.8721,-135.0974"/>
</g>
<!-- Node101&#45;&gt;Node102 -->
<g id="edge3" class="edge">
<title>Node101&#45;&gt;Node102</title>
<path fill="none" stroke="#191970" d="M91.372,-57.3279C91.372,-48.0871 91.372,-38.3508 91.372,-30.5991"/>
<polygon fill="#191970" stroke="#191970" points="87.8721,-57.4183 91.372,-67.4183 94.8721,-57.4184 87.8721,-57.4183"/>
</g>
<!-- Node103 -->
<g id="node5" class="node">
<title>Node103</title>
<g id="a_node5"><a xlink:href="Vulkan_2Render_2View_8cpp.html" target="_top" xlink:title="src/lug/Graphics/Vulkan\l/Render/View.cpp">
<polygon fill="none" stroke="#000000" points="217.872,-.5 217.872,-30.5 354.872,-30.5 354.872,-.5 217.872,-.5"/>
<text text-anchor="start" x="225.872" y="-18.5" font-family="Helvetica,sans-Serif" font-size="10.00" fill="#000000">src/lug/Graphics/Vulkan</text>
<text text-anchor="middle" x="286.372" y="-7.5" font-family="Helvetica,sans-Serif" font-size="10.00" fill="#000000">/Render/View.cpp</text>
</a>
</g>
</g>
<!-- Node101&#45;&gt;Node103 -->
<g id="edge4" class="edge">
<title>Node101&#45;&gt;Node103</title>
<path fill="none" stroke="#191970" d="M156.1583,-63.9128C185.7404,-52.9143 219.867,-40.2262 245.7606,-30.5991"/>
<polygon fill="#191970" stroke="#191970" points="154.883,-60.6528 146.7296,-67.4183 157.3225,-67.214 154.883,-60.6528"/>
</g>
<!-- Node104&#45;&gt;Node102 -->
<g id="edge6" class="edge">
<title>Node104&#45;&gt;Node102</title>
<path fill="none" stroke="#191970" d="M394.9422,-70.5469C389.6848,-69.3003 384.4477,-68.1022 379.372,-67 312.8593,-52.5568 237.0689,-39.1235 179.937,-29.6001"/>
<polygon fill="#191970" stroke="#191970" points="394.4972,-74.0402 405.04,-72.9913 396.1442,-67.2367 394.4972,-74.0402"/>
</g>
<!-- Node104&#45;&gt;Node103 -->
<g id="edge7" class="edge">
<title>Node104&#45;&gt;Node103</title>
<path fill="none" stroke="#191970" d="M415.6021,-69.0382C386.5792,-57.0144 349.5581,-41.6771 322.5857,-30.5028"/>
<polygon fill="#191970" stroke="#191970" points="414.5337,-72.384 425.1119,-72.978 417.213,-65.917 414.5337,-72.384"/>
</g>
<!-- Node105 -->
<g id="node7" class="node">
<title>Node105</title>
<g id="a_node7"><a xlink:href="Graphics_2Vulkan_2Render_2Window_8cpp.html" target="_top" xlink:title="src/lug/Graphics/Vulkan\l/Render/Window.cpp">
<polygon fill="none" stroke="#000000" points="392.872,-.5 392.872,-30.5 529.872,-30.5 529.872,-.5 392.872,-.5"/>
<text text-anchor="start" x="400.872" y="-18.5" font-family="Helvetica,sans-Serif" font-size="10.00" fill="#000000">src/lug/Graphics/Vulkan</text>
<text text-anchor="middle" x="461.372" y="-7.5" font-family="Helvetica,sans-Serif" font-size="10.00" fill="#000000">/Render/Window.cpp</text>
</a>
</g>
</g>
<!-- Node104&#45;&gt;Node105 -->
<g id="edge8" class="edge">
<title>Node104&#45;&gt;Node105</title>
<path fill="none" stroke="#191970" d="M461.372,-62.8409C461.372,-52.0601 461.372,-39.8309 461.372,-30.5028"/>
<polygon fill="#191970" stroke="#191970" points="457.8721,-62.9779 461.372,-72.978 464.8721,-62.978 457.8721,-62.9779"/>
</g>
</g>
</svg>
