<?xml version="1.0" encoding="UTF-8" standalone="no"?>
<!DOCTYPE svg PUBLIC "-//W3C//DTD SVG 1.1//EN"
 "http://www.w3.org/Graphics/SVG/1.1/DTD/svg11.dtd">
<!-- Generated by graphviz version 2.40.1 (20161225.0304)
 -->
<!-- Title: src/lug/Graphics/Vulkan/Vulkan.cpp Pages: 1 -->
<svg width="517pt" height="218pt"
 viewBox="0.00 0.00 517.00 218.00" xmlns="http://www.w3.org/2000/svg" xmlns:xlink="http://www.w3.org/1999/xlink">
<g id="graph0" class="graph" transform="scale(1 1) rotate(0) translate(4 214)">
<title>src/lug/Graphics/Vulkan/Vulkan.cpp</title>
<!-- Node0 -->
<g id="node1" class="node">
<title>Node0</title>
<polygon fill="#bfbfbf" stroke="#000000" points="250,-179.5 250,-209.5 387,-209.5 387,-179.5 250,-179.5"/>
<text text-anchor="start" x="258" y="-197.5" font-family="Helvetica,sans-Serif" font-size="10.00" fill="#000000">src/lug/Graphics/Vulkan</text>
<text text-anchor="middle" x="318.5" y="-186.5" font-family="Helvetica,sans-Serif" font-size="10.00" fill="#000000">/Vulkan.cpp</text>
</g>
<!-- Node1 -->
<g id="node2" class="node">
<title>Node1</title>
<g id="a_node2"><a xlink:href="Vulkan_8hpp.html" target="_top" xlink:title="lug/Graphics/Vulkan\l/Vulkan.hpp">
<polygon fill="none" stroke="#000000" points="149.5,-112.5 149.5,-142.5 267.5,-142.5 267.5,-112.5 149.5,-112.5"/>
<text text-anchor="start" x="157.5" y="-130.5" font-family="Helvetica,sans-Serif" font-size="10.00" fill="#000000">lug/Graphics/Vulkan</text>
<text text-anchor="middle" x="208.5" y="-119.5" font-family="Helvetica,sans-Serif" font-size="10.00" fill="#000000">/Vulkan.hpp</text>
</a>
</g>
</g>
<!-- Node0&#45;&gt;Node1 -->
<g id="edge1" class="edge">
<title>Node0&#45;&gt;Node1</title>
<path fill="none" stroke="#191970" d="M293.8139,-179.4639C278.6353,-170.2188 258.9772,-158.2452 242.3573,-148.1222"/>
<polygon fill="#191970" stroke="#191970" points="243.8455,-144.9305 233.4843,-142.7177 240.2041,-150.9089 243.8455,-144.9305"/>
</g>
<!-- Node8 -->
<g id="node9" class="node">
<title>Node8</title>
<polygon fill="none" stroke="#bfbfbf" points="286,-118 286,-137 351,-137 351,-118 286,-118"/>
<text text-anchor="middle" x="318.5" y="-125" font-family="Helvetica,sans-Serif" font-size="10.00" fill="#000000">algorithm</text>
</g>
<!-- Node0&#45;&gt;Node8 -->
<g id="edge8" class="edge">
<title>Node0&#45;&gt;Node8</title>
<path fill="none" stroke="#191970" d="M318.5,-179.2967C318.5,-169.7699 318.5,-157.3954 318.5,-147.1306"/>
<polygon fill="#191970" stroke="#191970" points="322.0001,-147.0549 318.5,-137.055 315.0001,-147.055 322.0001,-147.0549"/>
</g>
<!-- Node9 -->
<g id="node10" class="node">
<title>Node9</title>
<polygon fill="none" stroke="#bfbfbf" points="369.5,-118 369.5,-137 419.5,-137 419.5,-118 369.5,-118"/>
<text text-anchor="middle" x="394.5" y="-125" font-family="Helvetica,sans-Serif" font-size="10.00" fill="#000000">cstring</text>
</g>
<!-- Node0&#45;&gt;Node9 -->
<g id="edge9" class="edge">
<title>Node0&#45;&gt;Node9</title>
<path fill="none" stroke="#191970" d="M335.7456,-179.2967C347.7017,-168.7564 363.6119,-154.7303 375.8604,-143.9323"/>
<polygon fill="#191970" stroke="#191970" points="378.4748,-146.2934 383.6615,-137.055 373.8457,-141.0425 378.4748,-146.2934"/>
</g>
<!-- Node2 -->
<g id="node3" class="node">
<title>Node2</title>
<polygon fill="none" stroke="#bfbfbf" points="0,-56.5 0,-75.5 95,-75.5 95,-56.5 0,-56.5"/>
<text text-anchor="middle" x="47.5" y="-63.5" font-family="Helvetica,sans-Serif" font-size="10.00" fill="#000000">unordered_map</text>
</g>
<!-- Node1&#45;&gt;Node2 -->
<g id="edge2" class="edge">
<title>Node1&#45;&gt;Node2</title>
<path fill="none" stroke="#191970" d="M169.115,-112.4554C142.4873,-102.284 107.6556,-88.9787 82.0966,-79.2155"/>
<polygon fill="#191970" stroke="#191970" points="83.0399,-75.8292 72.4493,-75.5303 80.542,-82.3684 83.0399,-75.8292"/>
</g>
<!-- Node3 -->
<g id="node4" class="node">
<title>Node3</title>
<polygon fill="none" stroke="#bfbfbf" points="113.5,-56.5 113.5,-75.5 161.5,-75.5 161.5,-56.5 113.5,-56.5"/>
<text text-anchor="middle" x="137.5" y="-63.5" font-family="Helvetica,sans-Serif" font-size="10.00" fill="#000000">vector</text>
</g>
<!-- Node1&#45;&gt;Node3 -->
<g id="edge3" class="edge">
<title>Node1&#45;&gt;Node3</title>
<path fill="none" stroke="#191970" d="M190.9494,-112.2977C180.4779,-103.2274 167.1789,-91.7077 156.4662,-82.4285"/>
<polygon fill="#191970" stroke="#191970" points="158.7182,-79.7487 148.868,-75.8469 154.1351,-85.0398 158.7182,-79.7487"/>
</g>
<!-- Node4 -->
<g id="node5" class="node">
<title>Node4</title>
<polygon fill="none" stroke="#bfbfbf" points="179.5,-56.5 179.5,-75.5 237.5,-75.5 237.5,-56.5 179.5,-56.5"/>
<text text-anchor="middle" x="208.5" y="-63.5" font-family="Helvetica,sans-Serif" font-size="10.00" fill="#000000">ostream</text>
</g>
<!-- Node1&#45;&gt;Node4 -->
<g id="edge4" class="edge">
<title>Node1&#45;&gt;Node4</title>
<path fill="none" stroke="#191970" d="M208.5,-112.2977C208.5,-104.3834 208.5,-94.6043 208.5,-86.0759"/>
<polygon fill="#191970" stroke="#191970" points="212.0001,-85.8469 208.5,-75.8469 205.0001,-85.847 212.0001,-85.8469"/>
</g>
<!-- Node5 -->
<g id="node6" class="node">
<title>Node5</title>
<g id="a_node6"><a xlink:href="Graphics_2Export_8hpp.html" target="_top" xlink:title="lug/Graphics/Export.hpp">
<polygon fill="none" stroke="#000000" points="255.5,-56.5 255.5,-75.5 393.5,-75.5 393.5,-56.5 255.5,-56.5"/>
<text text-anchor="middle" x="324.5" y="-63.5" font-family="Helvetica,sans-Serif" font-size="10.00" fill="#000000">lug/Graphics/Export.hpp</text>
</a>
</g>
</g>
<!-- Node1&#45;&gt;Node5 -->
<g id="edge5" class="edge">
<title>Node1&#45;&gt;Node5</title>
<path fill="none" stroke="#191970" d="M236.8768,-112.4554C255.3828,-102.644 279.3888,-89.9167 297.5931,-80.2653"/>
<polygon fill="#191970" stroke="#191970" points="299.3285,-83.3068 306.5241,-75.5303 296.0495,-77.1222 299.3285,-83.3068"/>
</g>
<!-- Node7 -->
<g id="node8" class="node">
<title>Node7</title>
<polygon fill="none" stroke="#bfbfbf" points="412,-56.5 412,-75.5 509,-75.5 509,-56.5 412,-56.5"/>
<text text-anchor="middle" x="460.5" y="-63.5" font-family="Helvetica,sans-Serif" font-size="10.00" fill="#000000">vulkan/vulkan.h</text>
</g>
<!-- Node1&#45;&gt;Node7 -->
<g id="edge7" class="edge">
<title>Node1&#45;&gt;Node7</title>
<path fill="none" stroke="#191970" d="M267.5828,-113.081C311.3955,-102.3886 370.4149,-87.9851 411.592,-77.9359"/>
<polygon fill="#191970" stroke="#191970" points="412.51,-81.3147 421.395,-75.5435 410.8503,-74.5142 412.51,-81.3147"/>
</g>
<!-- Node6 -->
<g id="node7" class="node">
<title>Node6</title>
<g id="a_node7"><a xlink:href="Config_8hpp.html" target="_top" xlink:title="lug/Config.hpp">
<polygon fill="none" stroke="#000000" points="280,-.5 280,-19.5 369,-19.5 369,-.5 280,-.5"/>
<text text-anchor="middle" x="324.5" y="-7.5" font-family="Helvetica,sans-Serif" font-size="10.00" fill="#000000">lug/Config.hpp</text>
</a>
</g>
</g>
<!-- Node5&#45;&gt;Node6 -->
<g id="edge6" class="edge">
<title>Node5&#45;&gt;Node6</title>
<path fill="none" stroke="#191970" d="M324.5,-56.2455C324.5,-48.9382 324.5,-38.6944 324.5,-29.7046"/>
<polygon fill="#191970" stroke="#191970" points="328.0001,-29.6426 324.5,-19.6427 321.0001,-29.6427 328.0001,-29.6426"/>
</g>
</g>
</svg>
