<?xml version="1.0" encoding="UTF-8" standalone="no"?>
<!DOCTYPE svg PUBLIC "-//W3C//DTD SVG 1.1//EN"
 "http://www.w3.org/Graphics/SVG/1.1/DTD/svg11.dtd">
<!-- Generated by graphviz version 2.40.1 (20161225.0304)
 -->
<!-- Title: include/lug/Graphics/Vulkan/Render/Camera.hpp Pages: 1 -->
<svg width="1495pt" height="464pt"
 viewBox="0.00 0.00 1494.51 464.00" xmlns="http://www.w3.org/2000/svg" xmlns:xlink="http://www.w3.org/1999/xlink">
<g id="graph0" class="graph" transform="scale(1 1) rotate(0) translate(4 460)">
<title>include/lug/Graphics/Vulkan/Render/Camera.hpp</title>
<!-- Node0 -->
<g id="node1" class="node">
<title>Node0</title>
<polygon fill="#bfbfbf" stroke="#000000" points="1032.5,-425.5 1032.5,-455.5 1192.5,-455.5 1192.5,-425.5 1032.5,-425.5"/>
<text text-anchor="start" x="1040.5" y="-443.5" font-family="Helvetica,sans-Serif" font-size="10.00" fill="#000000">include/lug/Graphics</text>
<text text-anchor="middle" x="1112.5" y="-432.5" font-family="Helvetica,sans-Serif" font-size="10.00" fill="#000000">/Vulkan/Render/Camera.hpp</text>
</g>
<!-- Node1 -->
<g id="node2" class="node">
<title>Node1</title>
<g id="a_node2"><a xlink:href="Graphics_2Export_8hpp.html" target="_top" xlink:title="lug/Graphics/Export.hpp">
<polygon fill="none" stroke="#000000" points="1200.5,-230 1200.5,-249 1338.5,-249 1338.5,-230 1200.5,-230"/>
<text text-anchor="middle" x="1269.5" y="-237" font-family="Helvetica,sans-Serif" font-size="10.00" fill="#000000">lug/Graphics/Export.hpp</text>
</a>
</g>
</g>
<!-- Node0&#45;&gt;Node1 -->
<g id="edge1" class="edge">
<title>Node0&#45;&gt;Node1</title>
<path fill="none" stroke="#191970" d="M1138.5212,-425.4391C1170.0675,-405.7775 1222.4782,-368.3455 1250.5,-322 1262.1656,-302.7062 1266.6729,-276.9125 1268.412,-259.3361"/>
<polygon fill="#191970" stroke="#191970" points="1271.9202,-259.3637 1269.2025,-249.1234 1264.9411,-258.8234 1271.9202,-259.3637"/>
</g>
<!-- Node3 -->
<g id="node4" class="node">
<title>Node3</title>
<g id="a_node4"><a xlink:href="Render_2Camera_8hpp.html" target="_top" xlink:title="lug/Graphics/Render\l/Camera.hpp">
<polygon fill="none" stroke="#000000" points="897,-358.5 897,-388.5 1016,-388.5 1016,-358.5 897,-358.5"/>
<text text-anchor="start" x="905" y="-376.5" font-family="Helvetica,sans-Serif" font-size="10.00" fill="#000000">lug/Graphics/Render</text>
<text text-anchor="middle" x="956.5" y="-365.5" font-family="Helvetica,sans-Serif" font-size="10.00" fill="#000000">/Camera.hpp</text>
</a>
</g>
</g>
<!-- Node0&#45;&gt;Node3 -->
<g id="edge3" class="edge">
<title>Node0&#45;&gt;Node3</title>
<path fill="none" stroke="#191970" d="M1077.4906,-425.4639C1054.8887,-415.7567 1025.2832,-403.0415 1001.0153,-392.6188"/>
<polygon fill="#191970" stroke="#191970" points="1002.2318,-389.3321 991.6621,-388.6017 999.4693,-395.764 1002.2318,-389.3321"/>
</g>
<!-- Node2 -->
<g id="node3" class="node">
<title>Node2</title>
<g id="a_node3"><a xlink:href="Config_8hpp.html" target="_top" xlink:title="lug/Config.hpp">
<polygon fill="none" stroke="#000000" points="838,-.5 838,-19.5 927,-19.5 927,-.5 838,-.5"/>
<text text-anchor="middle" x="882.5" y="-7.5" font-family="Helvetica,sans-Serif" font-size="10.00" fill="#000000">lug/Config.hpp</text>
</a>
</g>
</g>
<!-- Node1&#45;&gt;Node2 -->
<g id="edge2" class="edge">
<title>Node1&#45;&gt;Node2</title>
<path fill="none" stroke="#191970" d="M1314.4169,-229.9555C1374.5525,-216.9656 1474.3379,-194.5811 1479.5,-188 1502.6671,-158.4649 1460.7165,-125.4747 1439.5,-112 1356.1586,-59.0696 1060.7202,-26.4075 937.3033,-14.7919"/>
<polygon fill="#191970" stroke="#191970" points="937.5923,-11.3037 927.311,-13.8621 936.9437,-18.2736 937.5923,-11.3037"/>
</g>
<!-- Node3&#45;&gt;Node1 -->
<g id="edge4" class="edge">
<title>Node3&#45;&gt;Node1</title>
<path fill="none" stroke="#191970" d="M955.5528,-358.2594C955.2934,-339.5741 957.9426,-308.2683 976.5,-291 1011.9639,-257.9996 1143.8487,-263.7219 1191.5,-255 1198.2522,-253.7641 1205.3238,-252.4236 1212.3359,-251.0658"/>
<polygon fill="#191970" stroke="#191970" points="1213.3803,-254.4279 1222.523,-249.0741 1212.0372,-247.558 1213.3803,-254.4279"/>
</g>
<!-- Node4 -->
<g id="node5" class="node">
<title>Node4</title>
<g id="a_node5"><a xlink:href="Node_8hpp.html" target="_top" xlink:title="lug/Graphics/Node.hpp">
<polygon fill="none" stroke="#000000" points="715,-297 715,-316 846,-316 846,-297 715,-297"/>
<text text-anchor="middle" x="780.5" y="-304" font-family="Helvetica,sans-Serif" font-size="10.00" fill="#000000">lug/Graphics/Node.hpp</text>
</a>
</g>
</g>
<!-- Node3&#45;&gt;Node4 -->
<g id="edge5" class="edge">
<title>Node3&#45;&gt;Node4</title>
<path fill="none" stroke="#191970" d="M917.0022,-358.4639C886.3164,-346.7824 844.1882,-330.7449 814.8814,-319.5884"/>
<polygon fill="#191970" stroke="#191970" points="816.0601,-316.2921 805.4691,-316.0053 813.5696,-322.8341 816.0601,-316.2921"/>
</g>
<!-- Node7 -->
<g id="node8" class="node">
<title>Node7</title>
<g id="a_node8"><a xlink:href="Matrix_8hpp.html" target="_top" xlink:title="lug/Math/Matrix.hpp">
<polygon fill="none" stroke="#000000" points="522.5,-112.5 522.5,-131.5 640.5,-131.5 640.5,-112.5 522.5,-112.5"/>
<text text-anchor="middle" x="581.5" y="-119.5" font-family="Helvetica,sans-Serif" font-size="10.00" fill="#000000">lug/Math/Matrix.hpp</text>
</a>
</g>
</g>
<!-- Node3&#45;&gt;Node7 -->
<g id="edge49" class="edge">
<title>Node3&#45;&gt;Node7</title>
<path fill="none" stroke="#191970" d="M896.675,-367.7551C780.7786,-355.2313 532.6936,-321.1461 483.5,-255 468.1577,-234.3706 500.6045,-169.1075 501.5,-168 512.929,-153.8662 529.9403,-143.2253 545.3413,-135.7573"/>
<polygon fill="#191970" stroke="#191970" points="547.0079,-138.8442 554.6582,-131.5145 544.1069,-132.4736 547.0079,-138.8442"/>
</g>
<!-- Node29 -->
<g id="node30" class="node">
<title>Node29</title>
<g id="a_node30"><a xlink:href="Render_2Queue_8hpp.html" target="_top" xlink:title="lug/Graphics/Render\l/Queue.hpp">
<polygon fill="none" stroke="#000000" points="1122,-291.5 1122,-321.5 1241,-321.5 1241,-291.5 1122,-291.5"/>
<text text-anchor="start" x="1130" y="-309.5" font-family="Helvetica,sans-Serif" font-size="10.00" fill="#000000">lug/Graphics/Render</text>
<text text-anchor="middle" x="1181.5" y="-298.5" font-family="Helvetica,sans-Serif" font-size="10.00" fill="#000000">/Queue.hpp</text>
</a>
</g>
</g>
<!-- Node3&#45;&gt;Node29 -->
<g id="edge38" class="edge">
<title>Node3&#45;&gt;Node29</title>
<path fill="none" stroke="#191970" d="M1006.9944,-358.4639C1040.7472,-348.4131 1085.3292,-335.1375 1120.9825,-324.5208"/>
<polygon fill="#191970" stroke="#191970" points="1122.2002,-327.8101 1130.7854,-321.6017 1120.2024,-321.1013 1122.2002,-327.8101"/>
</g>
<!-- Node31 -->
<g id="node32" class="node">
<title>Node31</title>
<g id="a_node32"><a xlink:href="Transform_8hpp.html" target="_top" xlink:title="lug/Math/Geometry/Transform.hpp">
<polygon fill="none" stroke="#000000" points="924.5,-230 924.5,-249 1116.5,-249 1116.5,-230 924.5,-230"/>
<text text-anchor="middle" x="1020.5" y="-237" font-family="Helvetica,sans-Serif" font-size="10.00" fill="#000000">lug/Math/Geometry/Transform.hpp</text>
</a>
</g>
</g>
<!-- Node3&#45;&gt;Node31 -->
<g id="edge41" class="edge">
<title>Node3&#45;&gt;Node31</title>
<path fill="none" stroke="#191970" d="M948.432,-358.266C940.4648,-340.9634 931.0046,-312.365 942.5,-291 951.5624,-274.1569 968.8147,-261.9063 984.7942,-253.5897"/>
<polygon fill="#191970" stroke="#191970" points="986.5072,-256.6491 993.9841,-249.1427 983.458,-250.3481 986.5072,-256.6491"/>
</g>
<!-- Node36 -->
<g id="node37" class="node">
<title>Node36</title>
<g id="a_node37"><a xlink:href="Camera_8inl.html" target="_top" xlink:title="lug/Graphics/Render\l/Camera.inl">
<polygon fill="none" stroke="#000000" points="985,-291.5 985,-321.5 1104,-321.5 1104,-291.5 985,-291.5"/>
<text text-anchor="start" x="993" y="-309.5" font-family="Helvetica,sans-Serif" font-size="10.00" fill="#000000">lug/Graphics/Render</text>
<text text-anchor="middle" x="1044.5" y="-298.5" font-family="Helvetica,sans-Serif" font-size="10.00" fill="#000000">/Camera.inl</text>
</a>
</g>
</g>
<!-- Node3&#45;&gt;Node36 -->
<g id="edge50" class="edge">
<title>Node3&#45;&gt;Node36</title>
<path fill="none" stroke="#191970" d="M976.4686,-358.2967C988.2825,-349.302 1003.4306,-337.7687 1016.4327,-327.8694"/>
<polygon fill="#191970" stroke="#191970" points="1018.7743,-330.4857 1024.6105,-321.6432 1014.5338,-324.9162 1018.7743,-330.4857"/>
</g>
<!-- Node4&#45;&gt;Node1 -->
<g id="edge8" class="edge">
<title>Node4&#45;&gt;Node1</title>
<path fill="none" stroke="#191970" d="M846.1945,-299.7334C927.5078,-291.0212 1070.1089,-274.6409 1191.5,-255 1198.8917,-253.804 1206.6523,-252.4191 1214.2937,-250.979"/>
<polygon fill="#191970" stroke="#191970" points="1215.0719,-254.3936 1224.2294,-249.0653 1213.7479,-247.5199 1215.0719,-254.3936"/>
</g>
<!-- Node5 -->
<g id="node6" class="node">
<title>Node5</title>
<polygon fill="none" stroke="#bfbfbf" points="506,-230 506,-249 565,-249 565,-230 506,-230"/>
<text text-anchor="middle" x="535.5" y="-237" font-family="Helvetica,sans-Serif" font-size="10.00" fill="#000000">memory</text>
</g>
<!-- Node4&#45;&gt;Node5 -->
<g id="edge6" class="edge">
<title>Node4&#45;&gt;Node5</title>
<path fill="none" stroke="#191970" d="M735.0037,-296.9579C692.9334,-287.704 628.8878,-272.5201 574.5,-255 572.2179,-254.2649 569.8782,-253.4626 567.5332,-252.6227"/>
<polygon fill="#191970" stroke="#191970" points="568.591,-249.2811 557.9991,-249.0327 566.1243,-255.8321 568.591,-249.2811"/>
</g>
<!-- Node6 -->
<g id="node7" class="node">
<title>Node6</title>
<polygon fill="none" stroke="#bfbfbf" points="1134.5,-230 1134.5,-249 1182.5,-249 1182.5,-230 1134.5,-230"/>
<text text-anchor="middle" x="1158.5" y="-237" font-family="Helvetica,sans-Serif" font-size="10.00" fill="#000000">vector</text>
</g>
<!-- Node4&#45;&gt;Node6 -->
<g id="edge7" class="edge">
<title>Node4&#45;&gt;Node6</title>
<path fill="none" stroke="#191970" d="M846.2981,-298.9883C931.3687,-288.8771 1074.6338,-270.3814 1125.5,-255 1127.4085,-254.4229 1129.347,-253.7531 1131.2791,-253.0222"/>
<polygon fill="#191970" stroke="#191970" points="1132.8887,-256.1411 1140.7195,-249.0046 1130.1475,-249.7001 1132.8887,-256.1411"/>
</g>
<!-- Node4&#45;&gt;Node7 -->
<g id="edge9" class="edge">
<title>Node4&#45;&gt;Node7</title>
<path fill="none" stroke="#191970" d="M714.6917,-303.9643C639.8885,-299.5371 524.6159,-287.4958 497.5,-255 464.917,-215.9525 524.1842,-163.3376 558.9157,-137.555"/>
<polygon fill="#191970" stroke="#191970" points="561.0941,-140.299 567.1462,-131.6029 556.9921,-134.6268 561.0941,-140.299"/>
</g>
<!-- Node21 -->
<g id="node22" class="node">
<title>Node21</title>
<g id="a_node22"><a xlink:href="Quaternion_8hpp.html" target="_top" xlink:title="lug/Math/Quaternion.hpp">
<polygon fill="none" stroke="#000000" points="765,-230 765,-249 906,-249 906,-230 765,-230"/>
<text text-anchor="middle" x="835.5" y="-237" font-family="Helvetica,sans-Serif" font-size="10.00" fill="#000000">lug/Math/Quaternion.hpp</text>
</a>
</g>
</g>
<!-- Node4&#45;&gt;Node21 -->
<g id="edge25" class="edge">
<title>Node4&#45;&gt;Node21</title>
<path fill="none" stroke="#191970" d="M788.3802,-296.9005C796.8752,-286.552 810.5824,-269.8542 821.028,-257.1295"/>
<polygon fill="#191970" stroke="#191970" points="823.9947,-259.0317 827.6345,-249.0817 818.5842,-254.5902 823.9947,-259.0317"/>
</g>
<!-- Node22 -->
<g id="node23" class="node">
<title>Node22</title>
<g id="a_node23"><a xlink:href="Vector_8hpp.html" target="_top" xlink:title="lug/Math/Vector.hpp">
<polygon fill="none" stroke="#000000" points="697,-168.5 697,-187.5 816,-187.5 816,-168.5 697,-168.5"/>
<text text-anchor="middle" x="756.5" y="-175.5" font-family="Helvetica,sans-Serif" font-size="10.00" fill="#000000">lug/Math/Vector.hpp</text>
</a>
</g>
</g>
<!-- Node4&#45;&gt;Node22 -->
<g id="edge36" class="edge">
<title>Node4&#45;&gt;Node22</title>
<path fill="none" stroke="#191970" d="M774.3466,-296.7057C768.4356,-286.6739 759.9142,-270.409 756.5,-255 752.2648,-235.8856 752.8754,-213.4408 754.1734,-197.7319"/>
<polygon fill="#191970" stroke="#191970" points="757.6714,-197.9256 755.1807,-187.6277 750.7059,-197.2312 757.6714,-197.9256"/>
</g>
<!-- Node28 -->
<g id="node29" class="node">
<title>Node28</title>
<g id="a_node29"><a xlink:href="Node_8inl.html" target="_top" xlink:title="lug/Graphics/Node.inl">
<polygon fill="none" stroke="#000000" points="583,-230 583,-249 708,-249 708,-230 583,-230"/>
<text text-anchor="middle" x="645.5" y="-237" font-family="Helvetica,sans-Serif" font-size="10.00" fill="#000000">lug/Graphics/Node.inl</text>
</a>
</g>
</g>
<!-- Node4&#45;&gt;Node28 -->
<g id="edge37" class="edge">
<title>Node4&#45;&gt;Node28</title>
<path fill="none" stroke="#191970" d="M761.1578,-296.9005C738.3013,-285.5569 700.073,-266.5844 673.8666,-253.5783"/>
<polygon fill="#191970" stroke="#191970" points="675.3198,-250.3922 664.8063,-249.0817 672.2079,-256.6624 675.3198,-250.3922"/>
</g>
<!-- Node8 -->
<g id="node9" class="node">
<title>Node8</title>
<polygon fill="none" stroke="#bfbfbf" points="754.5,-56.5 754.5,-75.5 804.5,-75.5 804.5,-56.5 754.5,-56.5"/>
<text text-anchor="middle" x="779.5" y="-63.5" font-family="Helvetica,sans-Serif" font-size="10.00" fill="#000000">cstdint</text>
</g>
<!-- Node7&#45;&gt;Node8 -->
<g id="edge10" class="edge">
<title>Node7&#45;&gt;Node8</title>
<path fill="none" stroke="#191970" d="M616.09,-112.4341C647.2942,-103.7743 694.7005,-90.5437 744.5867,-76.2401"/>
<polygon fill="#191970" stroke="#191970" points="745.614,-79.5866 754.2593,-73.4621 743.6817,-72.8586 745.614,-79.5866"/>
</g>
<!-- Node9 -->
<g id="node10" class="node">
<title>Node9</title>
<polygon fill="none" stroke="#bfbfbf" points="677,-56.5 677,-75.5 736,-75.5 736,-56.5 677,-56.5"/>
<text text-anchor="middle" x="706.5" y="-63.5" font-family="Helvetica,sans-Serif" font-size="10.00" fill="#000000">valarray</text>
</g>
<!-- Node7&#45;&gt;Node9 -->
<g id="edge11" class="edge">
<title>Node7&#45;&gt;Node9</title>
<path fill="none" stroke="#191970" d="M602.9883,-112.3733C623.144,-103.3435 653.488,-89.7494 676.118,-79.6111"/>
<polygon fill="#191970" stroke="#191970" points="677.5971,-82.7838 685.2921,-75.5011 674.7351,-76.3955 677.5971,-82.7838"/>
</g>
<!-- Node10 -->
<g id="node11" class="node">
<title>Node10</title>
<g id="a_node11"><a xlink:href="Math_2Export_8hpp.html" target="_top" xlink:title="lug/Math/Export.hpp">
<polygon fill="none" stroke="#000000" points="823,-56.5 823,-75.5 942,-75.5 942,-56.5 823,-56.5"/>
<text text-anchor="middle" x="882.5" y="-63.5" font-family="Helvetica,sans-Serif" font-size="10.00" fill="#000000">lug/Math/Export.hpp</text>
</a>
</g>
</g>
<!-- Node7&#45;&gt;Node10 -->
<g id="edge12" class="edge">
<title>Node7&#45;&gt;Node10</title>
<path fill="none" stroke="#191970" d="M632.9017,-112.4369C685.0649,-102.7321 765.8197,-87.708 821.2646,-77.3926"/>
<polygon fill="#191970" stroke="#191970" points="822.1192,-80.7938 831.3103,-75.5237 820.8388,-73.9119 822.1192,-80.7938"/>
</g>
<!-- Node11 -->
<g id="node12" class="node">
<title>Node11</title>
<g id="a_node12"><a xlink:href="ValArray_8hpp.html" target="_top" xlink:title="lug/Math/ValArray.hpp">
<polygon fill="none" stroke="#000000" points="141.5,-56.5 141.5,-75.5 271.5,-75.5 271.5,-56.5 141.5,-56.5"/>
<text text-anchor="middle" x="206.5" y="-63.5" font-family="Helvetica,sans-Serif" font-size="10.00" fill="#000000">lug/Math/ValArray.hpp</text>
</a>
</g>
</g>
<!-- Node7&#45;&gt;Node11 -->
<g id="edge14" class="edge">
<title>Node7&#45;&gt;Node11</title>
<path fill="none" stroke="#191970" d="M522.4937,-113.1884C457.0287,-103.4123 351.2975,-87.6231 280.3793,-77.0326"/>
<polygon fill="#191970" stroke="#191970" points="280.5848,-73.5246 270.1775,-75.5092 279.5509,-80.4478 280.5848,-73.5246"/>
</g>
<!-- Node17 -->
<g id="node18" class="node">
<title>Node17</title>
<g id="a_node18"><a xlink:href="Debug_8hpp.html" target="_top" xlink:title="lug/System/Debug.hpp">
<polygon fill="none" stroke="#000000" points="397,-56.5 397,-75.5 528,-75.5 528,-56.5 397,-56.5"/>
<text text-anchor="middle" x="462.5" y="-63.5" font-family="Helvetica,sans-Serif" font-size="10.00" fill="#000000">lug/System/Debug.hpp</text>
</a>
</g>
</g>
<!-- Node7&#45;&gt;Node17 -->
<g id="edge20" class="edge">
<title>Node7&#45;&gt;Node17</title>
<path fill="none" stroke="#191970" d="M561.0432,-112.3733C542.0262,-103.4241 513.4825,-89.9917 492.0024,-79.8835"/>
<polygon fill="#191970" stroke="#191970" points="493.2284,-76.5923 482.6899,-75.5011 490.2478,-82.926 493.2284,-76.5923"/>
</g>
<!-- Node20 -->
<g id="node21" class="node">
<title>Node20</title>
<g id="a_node21"><a xlink:href="Matrix_8inl.html" target="_top" xlink:title="lug/Math/Matrix.inl">
<polygon fill="none" stroke="#000000" points="546.5,-56.5 546.5,-75.5 658.5,-75.5 658.5,-56.5 546.5,-56.5"/>
<text text-anchor="middle" x="602.5" y="-63.5" font-family="Helvetica,sans-Serif" font-size="10.00" fill="#000000">lug/Math/Matrix.inl</text>
</a>
</g>
</g>
<!-- Node7&#45;&gt;Node20 -->
<g id="edge24" class="edge">
<title>Node7&#45;&gt;Node20</title>
<path fill="none" stroke="#191970" d="M585.1579,-112.2455C587.9584,-104.7776 591.909,-94.2427 595.3324,-85.1137"/>
<polygon fill="#191970" stroke="#191970" points="598.6499,-86.2349 598.884,-75.6427 592.0955,-83.777 598.6499,-86.2349"/>
</g>
<!-- Node10&#45;&gt;Node2 -->
<g id="edge13" class="edge">
<title>Node10&#45;&gt;Node2</title>
<path fill="none" stroke="#191970" d="M882.5,-56.2455C882.5,-48.9382 882.5,-38.6944 882.5,-29.7046"/>
<polygon fill="#191970" stroke="#191970" points="886.0001,-29.6426 882.5,-19.6427 879.0001,-29.6427 886.0001,-29.6426"/>
</g>
<!-- Node12 -->
<g id="node13" class="node">
<title>Node12</title>
<polygon fill="none" stroke="#bfbfbf" points="0,-.5 0,-19.5 65,-19.5 65,-.5 0,-.5"/>
<text text-anchor="middle" x="32.5" y="-7.5" font-family="Helvetica,sans-Serif" font-size="10.00" fill="#000000">algorithm</text>
</g>
<!-- Node11&#45;&gt;Node12 -->
<g id="edge15" class="edge">
<title>Node11&#45;&gt;Node12</title>
<path fill="none" stroke="#191970" d="M176.5883,-56.3733C147.6548,-47.0613 103.6389,-32.8953 71.8707,-22.671"/>
<polygon fill="#191970" stroke="#191970" points="72.6128,-19.2331 62.0213,-19.5011 70.4682,-25.8965 72.6128,-19.2331"/>
</g>
<!-- Node13 -->
<g id="node14" class="node">
<title>Node13</title>
<polygon fill="none" stroke="#bfbfbf" points="83.5,-.5 83.5,-19.5 127.5,-19.5 127.5,-.5 83.5,-.5"/>
<text text-anchor="middle" x="105.5" y="-7.5" font-family="Helvetica,sans-Serif" font-size="10.00" fill="#000000">array</text>
</g>
<!-- Node11&#45;&gt;Node13 -->
<g id="edge16" class="edge">
<title>Node11&#45;&gt;Node13</title>
<path fill="none" stroke="#191970" d="M188.9071,-56.2455C173.121,-47.4928 149.7361,-34.527 131.7413,-24.5496"/>
<polygon fill="#191970" stroke="#191970" points="133.3341,-21.4308 122.8913,-19.6427 129.9397,-27.5528 133.3341,-21.4308"/>
</g>
<!-- Node14 -->
<g id="node15" class="node">
<title>Node14</title>
<polygon fill="none" stroke="#bfbfbf" points="145.5,-.5 145.5,-19.5 195.5,-19.5 195.5,-.5 145.5,-.5"/>
<text text-anchor="middle" x="170.5" y="-7.5" font-family="Helvetica,sans-Serif" font-size="10.00" fill="#000000">cstring</text>
</g>
<!-- Node11&#45;&gt;Node14 -->
<g id="edge17" class="edge">
<title>Node11&#45;&gt;Node14</title>
<path fill="none" stroke="#191970" d="M200.2293,-56.2455C195.2736,-48.5367 188.217,-37.5598 182.2224,-28.2348"/>
<polygon fill="#191970" stroke="#191970" points="185.0506,-26.1618 176.6989,-19.6427 179.1624,-29.9471 185.0506,-26.1618"/>
</g>
<!-- Node15 -->
<g id="node16" class="node">
<title>Node15</title>
<polygon fill="none" stroke="#bfbfbf" points="214,-.5 214,-19.5 271,-19.5 271,-.5 214,-.5"/>
<text text-anchor="middle" x="242.5" y="-7.5" font-family="Helvetica,sans-Serif" font-size="10.00" fill="#000000">numeric</text>
</g>
<!-- Node11&#45;&gt;Node15 -->
<g id="edge18" class="edge">
<title>Node11&#45;&gt;Node15</title>
<path fill="none" stroke="#191970" d="M212.7707,-56.2455C217.7264,-48.5367 224.783,-37.5598 230.7776,-28.2348"/>
<polygon fill="#191970" stroke="#191970" points="233.8376,-29.9471 236.3011,-19.6427 227.9494,-26.1618 233.8376,-29.9471"/>
</g>
<!-- Node16 -->
<g id="node17" class="node">
<title>Node16</title>
<g id="a_node17"><a xlink:href="ValArray_8inl.html" target="_top" xlink:title="lug/Math/ValArray.inl">
<polygon fill="none" stroke="#000000" points="289.5,-.5 289.5,-19.5 413.5,-19.5 413.5,-.5 289.5,-.5"/>
<text text-anchor="middle" x="351.5" y="-7.5" font-family="Helvetica,sans-Serif" font-size="10.00" fill="#000000">lug/Math/ValArray.inl</text>
</a>
</g>
</g>
<!-- Node11&#45;&gt;Node16 -->
<g id="edge19" class="edge">
<title>Node11&#45;&gt;Node16</title>
<path fill="none" stroke="#191970" d="M231.4264,-56.3733C255.1202,-47.2226 290.9511,-33.3844 317.3068,-23.2057"/>
<polygon fill="#191970" stroke="#191970" points="318.8314,-26.3689 326.8989,-19.5011 316.3094,-19.8389 318.8314,-26.3689"/>
</g>
<!-- Node17&#45;&gt;Node2 -->
<g id="edge21" class="edge">
<title>Node17&#45;&gt;Node2</title>
<path fill="none" stroke="#191970" d="M528.125,-57.25C610.704,-46.2395 751.0124,-27.5317 827.9776,-17.2697"/>
<polygon fill="#191970" stroke="#191970" points="828.5006,-20.731 837.9503,-15.94 827.5754,-13.7924 828.5006,-20.731"/>
</g>
<!-- Node18 -->
<g id="node19" class="node">
<title>Node18</title>
<g id="a_node19"><a xlink:href="Utils_8hpp.html" target="_top" xlink:title="lug/System/Utils.hpp">
<polygon fill="none" stroke="#000000" points="511.5,-.5 511.5,-19.5 633.5,-19.5 633.5,-.5 511.5,-.5"/>
<text text-anchor="middle" x="572.5" y="-7.5" font-family="Helvetica,sans-Serif" font-size="10.00" fill="#000000">lug/System/Utils.hpp</text>
</a>
</g>
</g>
<!-- Node17&#45;&gt;Node18 -->
<g id="edge22" class="edge">
<title>Node17&#45;&gt;Node18</title>
<path fill="none" stroke="#191970" d="M481.6605,-56.2455C499.0111,-47.4125 524.7901,-34.2887 544.4583,-24.2758"/>
<polygon fill="#191970" stroke="#191970" points="546.2353,-27.2986 553.559,-19.6427 543.0595,-21.0605 546.2353,-27.2986"/>
</g>
<!-- Node19 -->
<g id="node20" class="node">
<title>Node19</title>
<polygon fill="none" stroke="#bfbfbf" points="432,-.5 432,-19.5 493,-19.5 493,-.5 432,-.5"/>
<text text-anchor="middle" x="462.5" y="-7.5" font-family="Helvetica,sans-Serif" font-size="10.00" fill="#000000">iostream</text>
</g>
<!-- Node17&#45;&gt;Node19 -->
<g id="edge23" class="edge">
<title>Node17&#45;&gt;Node19</title>
<path fill="none" stroke="#191970" d="M462.5,-56.2455C462.5,-48.9382 462.5,-38.6944 462.5,-29.7046"/>
<polygon fill="#191970" stroke="#191970" points="466.0001,-29.6426 462.5,-19.6427 459.0001,-29.6427 466.0001,-29.6426"/>
</g>
<!-- Node21&#45;&gt;Node7 -->
<g id="edge27" class="edge">
<title>Node21&#45;&gt;Node7</title>
<path fill="none" stroke="#191970" d="M766.6419,-229.9498C680.4049,-217.6591 542.9506,-196.8386 535.5,-188 521.8073,-171.7565 540.6265,-151.5149 558.1562,-137.7612"/>
<polygon fill="#191970" stroke="#191970" points="560.5554,-140.3397 566.5099,-131.5764 556.3902,-134.7138 560.5554,-140.3397"/>
</g>
<!-- Node21&#45;&gt;Node10 -->
<g id="edge26" class="edge">
<title>Node21&#45;&gt;Node10</title>
<path fill="none" stroke="#191970" d="M838.0939,-229.9248C845.5554,-202.3807 867.1816,-122.5477 877.2403,-85.416"/>
<polygon fill="#191970" stroke="#191970" points="880.6197,-86.3268 879.8562,-75.7595 873.8632,-84.4965 880.6197,-86.3268"/>
</g>
<!-- Node21&#45;&gt;Node22 -->
<g id="edge28" class="edge">
<title>Node21&#45;&gt;Node22</title>
<path fill="none" stroke="#191970" d="M823.1563,-229.8906C810.7497,-220.2324 791.4157,-205.1812 776.7587,-193.771"/>
<polygon fill="#191970" stroke="#191970" points="778.7979,-190.923 768.7571,-187.5419 774.4979,-196.4466 778.7979,-190.923"/>
</g>
<!-- Node24 -->
<g id="node25" class="node">
<title>Node24</title>
<g id="a_node25"><a xlink:href="Constant_8hpp.html" target="_top" xlink:title="lug/Math/Constant.hpp">
<polygon fill="none" stroke="#000000" points="910.5,-168.5 910.5,-187.5 1040.5,-187.5 1040.5,-168.5 910.5,-168.5"/>
<text text-anchor="middle" x="975.5" y="-175.5" font-family="Helvetica,sans-Serif" font-size="10.00" fill="#000000">lug/Math/Constant.hpp</text>
</a>
</g>
</g>
<!-- Node21&#45;&gt;Node24 -->
<g id="edge32" class="edge">
<title>Node21&#45;&gt;Node24</title>
<path fill="none" stroke="#191970" d="M857.375,-229.8906C880.7996,-219.6005 918.1596,-203.1888 944.5841,-191.5809"/>
<polygon fill="#191970" stroke="#191970" points="946.0307,-194.7683 953.7786,-187.5419 943.2154,-188.3594 946.0307,-194.7683"/>
</g>
<!-- Node27 -->
<g id="node28" class="node">
<title>Node27</title>
<g id="a_node28"><a xlink:href="Quaternion_8inl.html" target="_top" xlink:title="lug/Math/Quaternion.inl">
<polygon fill="none" stroke="#000000" points="544,-168.5 544,-187.5 679,-187.5 679,-168.5 544,-168.5"/>
<text text-anchor="middle" x="611.5" y="-175.5" font-family="Helvetica,sans-Serif" font-size="10.00" fill="#000000">lug/Math/Quaternion.inl</text>
</a>
</g>
</g>
<!-- Node21&#45;&gt;Node27 -->
<g id="edge35" class="edge">
<title>Node21&#45;&gt;Node27</title>
<path fill="none" stroke="#191970" d="M800.5,-229.8906C761.5412,-219.1944 698.4907,-201.8836 656.0429,-190.2294"/>
<polygon fill="#191970" stroke="#191970" points="656.8241,-186.8144 646.2542,-187.5419 654.9707,-193.5646 656.8241,-186.8144"/>
</g>
<!-- Node22&#45;&gt;Node7 -->
<g id="edge30" class="edge">
<title>Node22&#45;&gt;Node7</title>
<path fill="none" stroke="#191970" d="M726.4164,-168.3733C697.3166,-159.0613 653.0477,-144.8953 621.097,-134.671"/>
<polygon fill="#191970" stroke="#191970" points="621.782,-131.2155 611.191,-131.5011 619.6485,-137.8824 621.782,-131.2155"/>
</g>
<!-- Node22&#45;&gt;Node8 -->
<g id="edge29" class="edge">
<title>Node22&#45;&gt;Node8</title>
<path fill="none" stroke="#191970" d="M763.6015,-168.3724C769.7052,-159.4569 778.0517,-145.5662 781.5,-132 785.3831,-116.7233 784.5179,-98.817 782.8849,-85.513"/>
<polygon fill="#191970" stroke="#191970" points="786.3415,-84.9613 781.42,-75.5789 779.4164,-85.9825 786.3415,-84.9613"/>
</g>
<!-- Node23 -->
<g id="node24" class="node">
<title>Node23</title>
<g id="a_node24"><a xlink:href="Vector_8inl.html" target="_top" xlink:title="lug/Math/Vector.inl">
<polygon fill="none" stroke="#000000" points="659,-112.5 659,-131.5 772,-131.5 772,-112.5 659,-112.5"/>
<text text-anchor="middle" x="715.5" y="-119.5" font-family="Helvetica,sans-Serif" font-size="10.00" fill="#000000">lug/Math/Vector.inl</text>
</a>
</g>
</g>
<!-- Node22&#45;&gt;Node23 -->
<g id="edge31" class="edge">
<title>Node22&#45;&gt;Node23</title>
<path fill="none" stroke="#191970" d="M749.3583,-168.2455C743.6556,-160.4564 735.51,-149.3308 728.6375,-139.9439"/>
<polygon fill="#191970" stroke="#191970" points="731.2913,-137.6437 722.5598,-131.6427 725.6432,-141.7789 731.2913,-137.6437"/>
</g>
<!-- Node25 -->
<g id="node26" class="node">
<title>Node25</title>
<polygon fill="none" stroke="#bfbfbf" points="1098.5,-112.5 1098.5,-131.5 1142.5,-131.5 1142.5,-112.5 1098.5,-112.5"/>
<text text-anchor="middle" x="1120.5" y="-119.5" font-family="Helvetica,sans-Serif" font-size="10.00" fill="#000000">limits</text>
</g>
<!-- Node24&#45;&gt;Node25 -->
<g id="edge33" class="edge">
<title>Node24&#45;&gt;Node25</title>
<path fill="none" stroke="#191970" d="M1000.4264,-168.3733C1024.8382,-158.9453 1062.1338,-144.5414 1088.6761,-134.2906"/>
<polygon fill="#191970" stroke="#191970" points="1090.2053,-137.452 1098.2728,-130.5843 1087.6834,-130.9221 1090.2053,-137.452"/>
</g>
<!-- Node26 -->
<g id="node27" class="node">
<title>Node26</title>
<g id="a_node27"><a xlink:href="Constant_8inl.html" target="_top" xlink:title="lug/Math/Constant.inl">
<polygon fill="none" stroke="#000000" points="913.5,-112.5 913.5,-131.5 1037.5,-131.5 1037.5,-112.5 913.5,-112.5"/>
<text text-anchor="middle" x="975.5" y="-119.5" font-family="Helvetica,sans-Serif" font-size="10.00" fill="#000000">lug/Math/Constant.inl</text>
</a>
</g>
</g>
<!-- Node24&#45;&gt;Node26 -->
<g id="edge34" class="edge">
<title>Node24&#45;&gt;Node26</title>
<path fill="none" stroke="#191970" d="M975.5,-168.2455C975.5,-160.9382 975.5,-150.6944 975.5,-141.7046"/>
<polygon fill="#191970" stroke="#191970" points="979.0001,-141.6426 975.5,-131.6427 972.0001,-141.6427 979.0001,-141.6426"/>
</g>
<!-- Node29&#45;&gt;Node6 -->
<g id="edge39" class="edge">
<title>Node29&#45;&gt;Node6</title>
<path fill="none" stroke="#191970" d="M1176.2809,-291.2967C1172.9758,-281.6685 1168.6721,-269.1318 1165.1267,-258.8038"/>
<polygon fill="#191970" stroke="#191970" points="1168.3374,-257.3768 1161.7801,-249.055 1161.7166,-259.6496 1168.3374,-257.3768"/>
</g>
<!-- Node30 -->
<g id="node31" class="node">
<title>Node30</title>
<g id="a_node31"><a xlink:href="Render_2Queue_8inl.html" target="_top" xlink:title="lug/Graphics/Render\l/Queue.inl">
<polygon fill="none" stroke="#000000" points="1357,-224.5 1357,-254.5 1476,-254.5 1476,-224.5 1357,-224.5"/>
<text text-anchor="start" x="1365" y="-242.5" font-family="Helvetica,sans-Serif" font-size="10.00" fill="#000000">lug/Graphics/Render</text>
<text text-anchor="middle" x="1416.5" y="-231.5" font-family="Helvetica,sans-Serif" font-size="10.00" fill="#000000">/Queue.inl</text>
</a>
</g>
</g>
<!-- Node29&#45;&gt;Node30 -->
<g id="edge40" class="edge">
<title>Node29&#45;&gt;Node30</title>
<path fill="none" stroke="#191970" d="M1234.2386,-291.4639C1269.6422,-281.3701 1316.4531,-268.024 1353.7697,-257.3848"/>
<polygon fill="#191970" stroke="#191970" points="1354.8743,-260.7094 1363.5314,-254.6017 1352.9549,-253.9777 1354.8743,-260.7094"/>
</g>
<!-- Node31&#45;&gt;Node7 -->
<g id="edge46" class="edge">
<title>Node31&#45;&gt;Node7</title>
<path fill="none" stroke="#191970" d="M998.0807,-229.8968C962.2165,-214.8516 889.4629,-185.6259 825.5,-168 792.893,-159.0146 708.5801,-143.7609 648.2021,-133.2996"/>
<polygon fill="#191970" stroke="#191970" points="648.4279,-129.7869 637.9782,-131.5343 647.2368,-136.6848 648.4279,-129.7869"/>
</g>
<!-- Node31&#45;&gt;Node22 -->
<g id="edge47" class="edge">
<title>Node31&#45;&gt;Node22</title>
<path fill="none" stroke="#191970" d="M979.5397,-229.9581C933.2005,-219.1632 857.676,-201.5694 807.5394,-189.8899"/>
<polygon fill="#191970" stroke="#191970" points="808.0898,-186.4244 797.5564,-187.5643 806.5016,-193.2419 808.0898,-186.4244"/>
</g>
<!-- Node32 -->
<g id="node33" class="node">
<title>Node32</title>
<g id="a_node33"><a xlink:href="Trigonometry_8hpp.html" target="_top" xlink:title="lug/Math/Geometry/Trigonometry.hpp">
<polygon fill="none" stroke="#000000" points="1262.5,-168.5 1262.5,-187.5 1470.5,-187.5 1470.5,-168.5 1262.5,-168.5"/>
<text text-anchor="middle" x="1366.5" y="-175.5" font-family="Helvetica,sans-Serif" font-size="10.00" fill="#000000">lug/Math/Geometry/Trigonometry.hpp</text>
</a>
</g>
</g>
<!-- Node31&#45;&gt;Node32 -->
<g id="edge42" class="edge">
<title>Node31&#45;&gt;Node32</title>
<path fill="none" stroke="#191970" d="M1074.1829,-229.9581C1135.8929,-218.9894 1237.0947,-201.0012 1302.7545,-189.3305"/>
<polygon fill="#191970" stroke="#191970" points="1303.7427,-192.7098 1312.9759,-187.5137 1302.5177,-185.8178 1303.7427,-192.7098"/>
</g>
<!-- Node35 -->
<g id="node36" class="node">
<title>Node35</title>
<g id="a_node36"><a xlink:href="Transform_8inl.html" target="_top" xlink:title="lug/Math/Geometry/Transform.inl">
<polygon fill="none" stroke="#000000" points="1058.5,-168.5 1058.5,-187.5 1244.5,-187.5 1244.5,-168.5 1058.5,-168.5"/>
<text text-anchor="middle" x="1151.5" y="-175.5" font-family="Helvetica,sans-Serif" font-size="10.00" fill="#000000">lug/Math/Geometry/Transform.inl</text>
</a>
</g>
</g>
<!-- Node31&#45;&gt;Node35 -->
<g id="edge48" class="edge">
<title>Node31&#45;&gt;Node35</title>
<path fill="none" stroke="#191970" d="M1040.9688,-229.8906C1062.6952,-219.6908 1097.2335,-203.4763 1121.9185,-191.8875"/>
<polygon fill="#191970" stroke="#191970" points="1123.6103,-194.9598 1131.175,-187.5419 1120.6355,-188.6234 1123.6103,-194.9598"/>
</g>
<!-- Node32&#45;&gt;Node25 -->
<g id="edge44" class="edge">
<title>Node32&#45;&gt;Node25</title>
<path fill="none" stroke="#191970" d="M1316.7353,-168.4474C1273.3949,-159.8439 1208.9838,-146.3723 1153.5,-132 1153.174,-131.9156 1152.8464,-131.83 1152.5175,-131.7434"/>
<polygon fill="#191970" stroke="#191970" points="1153.37,-128.3476 1142.7969,-129.0256 1151.4851,-135.0891 1153.37,-128.3476"/>
</g>
<!-- Node33 -->
<g id="node34" class="node">
<title>Node33</title>
<polygon fill="none" stroke="#bfbfbf" points="1383,-112.5 1383,-131.5 1430,-131.5 1430,-112.5 1383,-112.5"/>
<text text-anchor="middle" x="1406.5" y="-119.5" font-family="Helvetica,sans-Serif" font-size="10.00" fill="#000000">cmath</text>
</g>
<!-- Node32&#45;&gt;Node33 -->
<g id="edge43" class="edge">
<title>Node32&#45;&gt;Node33</title>
<path fill="none" stroke="#191970" d="M1373.4675,-168.2455C1379.0311,-160.4564 1386.978,-149.3308 1393.6829,-139.9439"/>
<polygon fill="#191970" stroke="#191970" points="1396.648,-141.8144 1399.6124,-131.6427 1390.9519,-137.7457 1396.648,-141.8144"/>
</g>
<!-- Node34 -->
<g id="node35" class="node">
<title>Node34</title>
<g id="a_node35"><a xlink:href="Trigonometry_8inl.html" target="_top" xlink:title="lug/Math/Geometry/Trigonometry.inl">
<polygon fill="none" stroke="#000000" points="1162.5,-112.5 1162.5,-131.5 1364.5,-131.5 1364.5,-112.5 1162.5,-112.5"/>
<text text-anchor="middle" x="1263.5" y="-119.5" font-family="Helvetica,sans-Serif" font-size="10.00" fill="#000000">lug/Math/Geometry/Trigonometry.inl</text>
</a>
</g>
</g>
<!-- Node32&#45;&gt;Node34 -->
<g id="edge45" class="edge">
<title>Node32&#45;&gt;Node34</title>
<path fill="none" stroke="#191970" d="M1348.5588,-168.2455C1332.46,-159.4928 1308.6121,-146.527 1290.2609,-136.5496"/>
<polygon fill="#191970" stroke="#191970" points="1291.6929,-133.3444 1281.2356,-131.6427 1288.3493,-139.4942 1291.6929,-133.3444"/>
</g>
</g>
</svg>
