<?xml version="1.0" encoding="UTF-8" standalone="no"?>
<!DOCTYPE svg PUBLIC "-//W3C//DTD SVG 1.1//EN"
 "http://www.w3.org/Graphics/SVG/1.1/DTD/svg11.dtd">
<!-- Generated by graphviz version 2.40.1 (20161225.0304)
 -->
<!-- Title: src/lug/Window/Android/WindowImplAndroid.cpp Pages: 1 -->
<!--zoomable 442 -->
<svg id="main" version="1.1" xmlns="http://www.w3.org/2000/svg" xmlns:xlink="http://www.w3.org/1999/xlink" xml:space="preserve" onload="init(evt)">
<style type="text/css"><![CDATA[
.edge:hover path { stroke: red; }
.edge:hover polygon { stroke: red; fill: red; }
]]></style>
<script type="text/javascript"><![CDATA[
var edges = document.getElementsByTagName('g');
if (edges && edges.length) {
  for (var i=0;i<edges.length;i++) {
    if (edges[i].id.substr(0,4)=='edge') {
      edges[i].setAttribute('class','edge');
    }
  }
}
]]></script>
        <defs>
                <circle id="rim" cx="0" cy="0" r="7"/>
                <circle id="rim2" cx="0" cy="0" r="3.5"/>
                <g id="zoomPlus">
                        <use xlink:href="#rim" fill="#404040">
                                <set attributeName="fill" to="#808080" begin="zoomplus.mouseover" end="zoomplus.mouseout"/>
                        </use>
                        <path d="M-4,0h8M0,-4v8" fill="none" stroke="white" stroke-width="1.5" pointer-events="none"/>
                </g>
                <g id="zoomMin">
                        <use xlink:href="#rim" fill="#404040">
                                <set attributeName="fill" to="#808080" begin="zoomminus.mouseover" end="zoomminus.mouseout"/>
                        </use>
                        <path d="M-4,0h8" fill="none" stroke="white" stroke-width="1.5" pointer-events="none"/>
                </g>
                <g id="dirArrow">
                        <path fill="none" stroke="white" stroke-width="1.5" d="M0,-3.0v7 M-2.5,-0.5L0,-3.0L2.5,-0.5"/>
                </g>
               <g id="resetDef">
                       <use xlink:href="#rim2" fill="#404040">
                               <set attributeName="fill" to="#808080" begin="reset.mouseover" end="reset.mouseout"/>
                       </use>
               </g>
        </defs>

<script type="text/javascript">
var viewWidth = 1138;
var viewHeight = 442;
var sectionId = 'dynsection-0';
</script>
<script xlink:href="svgpan.js"/>
<svg id="graph" class="graph">
<g id="viewport">
<title>src/lug/Window/Android/WindowImplAndroid.cpp</title>
<!-- Node0 -->
<g id="node1" class="node">
<title>Node0</title>
<polygon fill="#bfbfbf" stroke="#000000" points="759,-403.5 759,-433.5 901,-433.5 901,-403.5 759,-403.5"/>
<text text-anchor="start" x="767" y="-421.5" font-family="Helvetica,sans-Serif" font-size="10.00" fill="#000000">src/lug/Window/Android</text>
<text text-anchor="middle" x="830" y="-410.5" font-family="Helvetica,sans-Serif" font-size="10.00" fill="#000000">/WindowImplAndroid.cpp</text>
</g>
<!-- Node1 -->
<g id="node2" class="node">
<title>Node1</title>
<g id="a_node2"><a xlink:href="WindowImplAndroid_8hpp.html" target="_top" xlink:title="lug/Window/Android\l/WindowImplAndroid.hpp">
<polygon fill="none" stroke="#000000" points="758.5,-336.5 758.5,-366.5 901.5,-366.5 901.5,-336.5 758.5,-336.5"/>
<text text-anchor="start" x="766.5" y="-354.5" font-family="Helvetica,sans-Serif" font-size="10.00" fill="#000000">lug/Window/Android</text>
<text text-anchor="middle" x="830" y="-343.5" font-family="Helvetica,sans-Serif" font-size="10.00" fill="#000000">/WindowImplAndroid.hpp</text>
</a>
</g>
</g>
<!-- Node0&#45;&gt;Node1 -->
<g id="edge1" class="edge">
<title>Node0&#45;&gt;Node1</title>
<path fill="none" stroke="#191970" d="M830,-403.2967C830,-395.5013 830,-385.7991 830,-376.9064"/>
<polygon fill="#191970" stroke="#191970" points="833.5001,-376.6431 830,-366.6432 826.5001,-376.6432 833.5001,-376.6431"/>
</g>
<!-- Node2 -->
<g id="node3" class="node">
<title>Node2</title>
<g id="a_node3"><a xlink:href="Window_2Window_8hpp.html" target="_top" xlink:title="lug/Window/Window.hpp">
<polygon fill="none" stroke="#000000" points="557,-280.5 557,-299.5 697,-299.5 697,-280.5 557,-280.5"/>
<text text-anchor="middle" x="627" y="-287.5" font-family="Helvetica,sans-Serif" font-size="10.00" fill="#000000">lug/Window/Window.hpp</text>
</a>
</g>
</g>
<!-- Node1&#45;&gt;Node2 -->
<g id="edge2" class="edge">
<title>Node1&#45;&gt;Node2</title>
<path fill="none" stroke="#191970" d="M780.3406,-336.4554C745.8753,-326.0139 700.5091,-312.27 668.0802,-302.4455"/>
<polygon fill="#191970" stroke="#191970" points="669.0431,-299.0802 658.4578,-299.5303 667.0134,-305.7795 669.0431,-299.0802"/>
</g>
<!-- Node30 -->
<g id="node31" class="node">
<title>Node30</title>
<polygon fill="none" stroke="#bfbfbf" points="715.5,-280.5 715.5,-299.5 808.5,-299.5 808.5,-280.5 715.5,-280.5"/>
<text text-anchor="middle" x="762" y="-287.5" font-family="Helvetica,sans-Serif" font-size="10.00" fill="#000000">android/input.h</text>
</g>
<!-- Node1&#45;&gt;Node30 -->
<g id="edge39" class="edge">
<title>Node1&#45;&gt;Node30</title>
<path fill="none" stroke="#191970" d="M813.191,-336.2977C803.2603,-327.3163 790.6743,-315.9334 780.4673,-306.702"/>
<polygon fill="#191970" stroke="#191970" points="782.652,-303.9588 772.8877,-299.8469 777.9566,-309.1505 782.652,-303.9588"/>
</g>
<!-- Node31 -->
<g id="node32" class="node">
<title>Node31</title>
<polygon fill="none" stroke="#bfbfbf" points="826.5,-280.5 826.5,-299.5 969.5,-299.5 969.5,-280.5 826.5,-280.5"/>
<text text-anchor="middle" x="898" y="-287.5" font-family="Helvetica,sans-Serif" font-size="10.00" fill="#000000">android/native_window.h</text>
</g>
<!-- Node1&#45;&gt;Node31 -->
<g id="edge40" class="edge">
<title>Node1&#45;&gt;Node31</title>
<path fill="none" stroke="#191970" d="M846.809,-336.2977C856.7397,-327.3163 869.3257,-315.9334 879.5327,-306.702"/>
<polygon fill="#191970" stroke="#191970" points="882.0434,-309.1505 887.1123,-299.8469 877.348,-303.9588 882.0434,-309.1505"/>
</g>
<!-- Node32 -->
<g id="node33" class="node">
<title>Node32</title>
<polygon fill="none" stroke="#bfbfbf" points="988,-280.5 988,-299.5 1130,-299.5 1130,-280.5 988,-280.5"/>
<text text-anchor="middle" x="1059" y="-287.5" font-family="Helvetica,sans-Serif" font-size="10.00" fill="#000000">android/native_activity.h</text>
</g>
<!-- Node1&#45;&gt;Node32 -->
<g id="edge41" class="edge">
<title>Node1&#45;&gt;Node32</title>
<path fill="none" stroke="#191970" d="M886.0197,-336.4554C925.2345,-325.9239 976.9592,-312.0328 1013.6011,-302.1923"/>
<polygon fill="#191970" stroke="#191970" points="1014.7632,-305.5043 1023.5131,-299.5303 1012.9475,-298.7438 1014.7632,-305.5043"/>
</g>
<!-- Node3 -->
<g id="node4" class="node">
<title>Node3</title>
<polygon fill="none" stroke="#bfbfbf" points="244.5,-224.5 244.5,-243.5 303.5,-243.5 303.5,-224.5 244.5,-224.5"/>
<text text-anchor="middle" x="274" y="-231.5" font-family="Helvetica,sans-Serif" font-size="10.00" fill="#000000">memory</text>
</g>
<!-- Node2&#45;&gt;Node3 -->
<g id="edge3" class="edge">
<title>Node2&#45;&gt;Node3</title>
<path fill="none" stroke="#191970" d="M556.7959,-281.8695C495.2263,-274.2475 403.1334,-261.6603 313.7725,-243.9791"/>
<polygon fill="#191970" stroke="#191970" points="314.2287,-240.5011 303.7361,-241.9692 312.8541,-247.3648 314.2287,-240.5011"/>
</g>
<!-- Node4 -->
<g id="node5" class="node">
<title>Node4</title>
<polygon fill="none" stroke="#bfbfbf" points="321.5,-224.5 321.5,-243.5 368.5,-243.5 368.5,-224.5 321.5,-224.5"/>
<text text-anchor="middle" x="345" y="-231.5" font-family="Helvetica,sans-Serif" font-size="10.00" fill="#000000">queue</text>
</g>
<!-- Node2&#45;&gt;Node4 -->
<g id="edge4" class="edge">
<title>Node2&#45;&gt;Node4</title>
<path fill="none" stroke="#191970" d="M564.6841,-280.4688C516.3436,-272.6225 447.5261,-260.4687 378.4522,-243.8968"/>
<polygon fill="#191970" stroke="#191970" points="379.2496,-240.4888 368.706,-241.5291 377.5971,-247.2909 379.2496,-240.4888"/>
</g>
<!-- Node5 -->
<g id="node6" class="node">
<title>Node5</title>
<polygon fill="none" stroke="#bfbfbf" points="386.5,-224.5 386.5,-243.5 431.5,-243.5 431.5,-224.5 386.5,-224.5"/>
<text text-anchor="middle" x="409" y="-231.5" font-family="Helvetica,sans-Serif" font-size="10.00" fill="#000000">string</text>
</g>
<!-- Node2&#45;&gt;Node5 -->
<g id="edge5" class="edge">
<title>Node2&#45;&gt;Node5</title>
<path fill="none" stroke="#191970" d="M585.4423,-280.4817C549.765,-272.1405 496.7621,-259.3478 441.6263,-244.0534"/>
<polygon fill="#191970" stroke="#191970" points="442.2483,-240.5932 431.6753,-241.2719 440.3639,-247.3347 442.2483,-240.5932"/>
</g>
<!-- Node6 -->
<g id="node7" class="node">
<title>Node6</title>
<polygon fill="none" stroke="#bfbfbf" points="449.5,-224.5 449.5,-243.5 544.5,-243.5 544.5,-224.5 449.5,-224.5"/>
<text text-anchor="middle" x="497" y="-231.5" font-family="Helvetica,sans-Serif" font-size="10.00" fill="#000000">unordered_map</text>
</g>
<!-- Node2&#45;&gt;Node6 -->
<g id="edge6" class="edge">
<title>Node2&#45;&gt;Node6</title>
<path fill="none" stroke="#191970" d="M604.6522,-280.3733C583.5967,-271.3032 551.8505,-257.6279 528.2825,-247.4755"/>
<polygon fill="#191970" stroke="#191970" points="529.625,-244.243 519.0562,-243.5011 526.8556,-250.6719 529.625,-244.243"/>
</g>
<!-- Node7 -->
<g id="node8" class="node">
<title>Node7</title>
<g id="a_node8"><a xlink:href="Event_8hpp.html" target="_top" xlink:title="lug/Window/Event.hpp">
<polygon fill="none" stroke="#000000" points="562.5,-224.5 562.5,-243.5 691.5,-243.5 691.5,-224.5 562.5,-224.5"/>
<text text-anchor="middle" x="627" y="-231.5" font-family="Helvetica,sans-Serif" font-size="10.00" fill="#000000">lug/Window/Event.hpp</text>
</a>
</g>
</g>
<!-- Node2&#45;&gt;Node7 -->
<g id="edge7" class="edge">
<title>Node2&#45;&gt;Node7</title>
<path fill="none" stroke="#191970" d="M627,-280.2455C627,-272.9382 627,-262.6944 627,-253.7046"/>
<polygon fill="#191970" stroke="#191970" points="630.5001,-253.6426 627,-243.6427 623.5001,-253.6427 630.5001,-253.6426"/>
</g>
<!-- Node9 -->
<g id="node10" class="node">
<title>Node9</title>
<g id="a_node10"><a xlink:href="Window_2Export_8hpp.html" target="_top" xlink:title="lug/Window/Export.hpp">
<polygon fill="none" stroke="#000000" points="653,-112.5 653,-131.5 787,-131.5 787,-112.5 653,-112.5"/>
<text text-anchor="middle" x="720" y="-119.5" font-family="Helvetica,sans-Serif" font-size="10.00" fill="#000000">lug/Window/Export.hpp</text>
</a>
</g>
</g>
<!-- Node2&#45;&gt;Node9 -->
<g id="edge34" class="edge">
<title>Node2&#45;&gt;Node9</title>
<path fill="none" stroke="#191970" d="M666.5582,-280.4068C709.6446,-267.5511 776.136,-240.0643 804,-188 816.6426,-164.377 788.2655,-146.3976 761.1392,-135.2152"/>
<polygon fill="#191970" stroke="#191970" points="762.2549,-131.894 751.6658,-131.5452 759.7262,-138.4213 762.2549,-131.894"/>
</g>
<!-- Node11 -->
<g id="node12" class="node">
<title>Node11</title>
<g id="a_node12"><a xlink:href="Keyboard_8hpp.html" target="_top" xlink:title="lug/Window/Keyboard.hpp">
<polygon fill="none" stroke="#000000" points="645.5,-168.5 645.5,-187.5 794.5,-187.5 794.5,-168.5 645.5,-168.5"/>
<text text-anchor="middle" x="720" y="-175.5" font-family="Helvetica,sans-Serif" font-size="10.00" fill="#000000">lug/Window/Keyboard.hpp</text>
</a>
</g>
</g>
<!-- Node2&#45;&gt;Node11 -->
<g id="edge35" class="edge">
<title>Node2&#45;&gt;Node11</title>
<path fill="none" stroke="#191970" d="M651.2949,-280.4669C667.591,-272.8914 688.3174,-260.7712 701,-244 711.1013,-230.6422 715.8378,-212.075 718.0556,-198.0355"/>
<polygon fill="#191970" stroke="#191970" points="721.5507,-198.2963 719.3486,-187.9328 714.6073,-197.4076 721.5507,-198.2963"/>
</g>
<!-- Node28 -->
<g id="node29" class="node">
<title>Node28</title>
<g id="a_node29"><a xlink:href="WindowHandle_8hpp.html" target="_top" xlink:title="lug/Window/WindowHandle.hpp">
<polygon fill="none" stroke="#000000" points="852.5,-168.5 852.5,-187.5 1027.5,-187.5 1027.5,-168.5 852.5,-168.5"/>
<text text-anchor="middle" x="940" y="-175.5" font-family="Helvetica,sans-Serif" font-size="10.00" fill="#000000">lug/Window/WindowHandle.hpp</text>
</a>
</g>
</g>
<!-- Node2&#45;&gt;Node28 -->
<g id="edge36" class="edge">
<title>Node2&#45;&gt;Node28</title>
<path fill="none" stroke="#191970" d="M697.0797,-280.8384C738.5584,-273.8956 791.519,-262.3394 836,-244 867.3433,-231.0772 899.7517,-208.8478 919.8851,-193.7951"/>
<polygon fill="#191970" stroke="#191970" points="922.137,-196.4796 927.9736,-187.6374 917.8968,-190.9099 922.137,-196.4796"/>
</g>
<!-- Node29 -->
<g id="node30" class="node">
<title>Node29</title>
<g id="a_node30"><a xlink:href="Style_8inl.html" target="_top" xlink:title="lug/Window/Style.inl">
<polygon fill="none" stroke="#000000" points="888.5,-224.5 888.5,-243.5 1009.5,-243.5 1009.5,-224.5 888.5,-224.5"/>
<text text-anchor="middle" x="949" y="-231.5" font-family="Helvetica,sans-Serif" font-size="10.00" fill="#000000">lug/Window/Style.inl</text>
</a>
</g>
</g>
<!-- Node2&#45;&gt;Node29 -->
<g id="edge38" class="edge">
<title>Node2&#45;&gt;Node29</title>
<path fill="none" stroke="#191970" d="M681.9879,-280.4369C738.0219,-270.6918 824.8966,-255.5832 884.2293,-245.2645"/>
<polygon fill="#191970" stroke="#191970" points="884.9865,-248.6854 894.2389,-243.5237 883.7871,-241.7889 884.9865,-248.6854"/>
</g>
<!-- Node8 -->
<g id="node9" class="node">
<title>Node8</title>
<polygon fill="none" stroke="#bfbfbf" points="181,-56.5 181,-75.5 231,-75.5 231,-56.5 181,-56.5"/>
<text text-anchor="middle" x="206" y="-63.5" font-family="Helvetica,sans-Serif" font-size="10.00" fill="#000000">cstdint</text>
</g>
<!-- Node7&#45;&gt;Node8 -->
<g id="edge8" class="edge">
<title>Node7&#45;&gt;Node8</title>
<path fill="none" stroke="#191970" d="M562.2476,-225.0014C470.9831,-212.2665 314.8785,-190.2706 309,-188 267.489,-171.9662 252.423,-167.806 226,-132 216.0149,-118.4691 210.9661,-99.9188 208.4427,-85.9298"/>
<polygon fill="#191970" stroke="#191970" points="211.877,-85.2324 206.9144,-75.8717 204.9565,-86.2841 211.877,-85.2324"/>
</g>
<!-- Node7&#45;&gt;Node9 -->
<g id="edge9" class="edge">
<title>Node7&#45;&gt;Node9</title>
<path fill="none" stroke="#191970" d="M578.4958,-224.4978C542.2621,-216.2991 497.1528,-203.3698 486,-188 480.7795,-180.8056 480.3532,-174.8649 486,-168 505.6729,-144.0833 582.2588,-132.4106 642.5247,-126.8391"/>
<polygon fill="#191970" stroke="#191970" points="643.1523,-130.2974 652.8061,-125.9322 642.5372,-123.3245 643.1523,-130.2974"/>
</g>
<!-- Node7&#45;&gt;Node11 -->
<g id="edge11" class="edge">
<title>Node7&#45;&gt;Node11</title>
<path fill="none" stroke="#191970" d="M643.1994,-224.2455C657.6018,-215.5731 678.8732,-202.7645 695.3799,-192.825"/>
<polygon fill="#191970" stroke="#191970" points="697.225,-195.7996 703.9863,-187.6427 693.614,-189.8028 697.225,-195.7996"/>
</g>
<!-- Node12 -->
<g id="node13" class="node">
<title>Node12</title>
<g id="a_node13"><a xlink:href="Mouse_8hpp.html" target="_top" xlink:title="lug/Window/Mouse.hpp">
<polygon fill="none" stroke="#000000" points="494.5,-168.5 494.5,-187.5 627.5,-187.5 627.5,-168.5 494.5,-168.5"/>
<text text-anchor="middle" x="561" y="-175.5" font-family="Helvetica,sans-Serif" font-size="10.00" fill="#000000">lug/Window/Mouse.hpp</text>
</a>
</g>
</g>
<!-- Node7&#45;&gt;Node12 -->
<g id="edge13" class="edge">
<title>Node7&#45;&gt;Node12</title>
<path fill="none" stroke="#191970" d="M615.5037,-224.2455C605.7558,-215.9746 591.5741,-203.9416 580.1202,-194.2232"/>
<polygon fill="#191970" stroke="#191970" points="582.2541,-191.4437 572.3646,-187.6427 577.7253,-196.7813 582.2541,-191.4437"/>
</g>
<!-- Node13 -->
<g id="node14" class="node">
<title>Node13</title>
<g id="a_node14"><a xlink:href="Vector_8hpp.html" target="_top" xlink:title="lug/Math/Vector.hpp">
<polygon fill="none" stroke="#000000" points="317.5,-168.5 317.5,-187.5 436.5,-187.5 436.5,-168.5 317.5,-168.5"/>
<text text-anchor="middle" x="377" y="-175.5" font-family="Helvetica,sans-Serif" font-size="10.00" fill="#000000">lug/Math/Vector.hpp</text>
</a>
</g>
</g>
<!-- Node7&#45;&gt;Node13 -->
<g id="edge15" class="edge">
<title>Node7&#45;&gt;Node13</title>
<path fill="none" stroke="#191970" d="M584.3075,-224.4369C541.4321,-214.8328 475.2995,-200.0191 429.2998,-189.7152"/>
<polygon fill="#191970" stroke="#191970" points="430.0396,-186.2942 419.5164,-187.5237 428.5095,-193.1249 430.0396,-186.2942"/>
</g>
<!-- Node10 -->
<g id="node11" class="node">
<title>Node10</title>
<g id="a_node11"><a xlink:href="Config_8hpp.html" target="_top" xlink:title="lug/Config.hpp">
<polygon fill="none" stroke="#000000" points="813.5,-.5 813.5,-19.5 902.5,-19.5 902.5,-.5 813.5,-.5"/>
<text text-anchor="middle" x="858" y="-7.5" font-family="Helvetica,sans-Serif" font-size="10.00" fill="#000000">lug/Config.hpp</text>
</a>
</g>
</g>
<!-- Node9&#45;&gt;Node10 -->
<g id="edge10" class="edge">
<title>Node9&#45;&gt;Node10</title>
<path fill="none" stroke="#191970" d="M781.5531,-112.4986C822.3127,-104.8051 870.4898,-92.5293 883,-76 893.8999,-61.5984 883.9585,-41.8994 873.5631,-27.7784"/>
<polygon fill="#191970" stroke="#191970" points="876.181,-25.4473 867.214,-19.8042 870.7047,-29.8075 876.181,-25.4473"/>
</g>
<!-- Node11&#45;&gt;Node9 -->
<g id="edge12" class="edge">
<title>Node11&#45;&gt;Node9</title>
<path fill="none" stroke="#191970" d="M720,-168.2455C720,-160.9382 720,-150.6944 720,-141.7046"/>
<polygon fill="#191970" stroke="#191970" points="723.5001,-141.6426 720,-131.6427 716.5001,-141.6427 723.5001,-141.6426"/>
</g>
<!-- Node12&#45;&gt;Node9 -->
<g id="edge14" class="edge">
<title>Node12&#45;&gt;Node9</title>
<path fill="none" stroke="#191970" d="M588.3331,-168.3733C614.5434,-159.1419 654.2984,-145.1402 683.2668,-134.9375"/>
<polygon fill="#191970" stroke="#191970" points="684.7542,-138.1244 693.0236,-131.5011 682.4288,-131.5219 684.7542,-138.1244"/>
</g>
<!-- Node13&#45;&gt;Node8 -->
<g id="edge16" class="edge">
<title>Node13&#45;&gt;Node8</title>
<path fill="none" stroke="#191970" d="M376.7848,-168.0353C375.9292,-153.6842 372.2278,-127.2502 357,-112 355.9362,-110.9346 285.1199,-89.6383 240.8566,-76.4003"/>
<polygon fill="#191970" stroke="#191970" points="241.6254,-72.9772 231.0419,-73.4669 239.6208,-79.684 241.6254,-72.9772"/>
</g>
<!-- Node14 -->
<g id="node15" class="node">
<title>Node14</title>
<g id="a_node15"><a xlink:href="Matrix_8hpp.html" target="_top" xlink:title="lug/Math/Matrix.hpp">
<polygon fill="none" stroke="#000000" points="404,-112.5 404,-131.5 522,-131.5 522,-112.5 404,-112.5"/>
<text text-anchor="middle" x="463" y="-119.5" font-family="Helvetica,sans-Serif" font-size="10.00" fill="#000000">lug/Math/Matrix.hpp</text>
</a>
</g>
</g>
<!-- Node13&#45;&gt;Node14 -->
<g id="edge17" class="edge">
<title>Node13&#45;&gt;Node14</title>
<path fill="none" stroke="#191970" d="M391.9801,-168.2455C405.1751,-159.6534 424.6051,-147.0014 439.8079,-137.1018"/>
<polygon fill="#191970" stroke="#191970" points="441.7215,-140.0325 448.1916,-131.6427 437.9017,-134.1665 441.7215,-140.0325"/>
</g>
<!-- Node27 -->
<g id="node28" class="node">
<title>Node27</title>
<g id="a_node28"><a xlink:href="Vector_8inl.html" target="_top" xlink:title="lug/Math/Vector.inl">
<polygon fill="none" stroke="#000000" points="234.5,-112.5 234.5,-131.5 347.5,-131.5 347.5,-112.5 234.5,-112.5"/>
<text text-anchor="middle" x="291" y="-119.5" font-family="Helvetica,sans-Serif" font-size="10.00" fill="#000000">lug/Math/Vector.inl</text>
</a>
</g>
</g>
<!-- Node13&#45;&gt;Node27 -->
<g id="edge33" class="edge">
<title>Node13&#45;&gt;Node27</title>
<path fill="none" stroke="#191970" d="M362.0199,-168.2455C348.8249,-159.6534 329.3949,-147.0014 314.1921,-137.1018"/>
<polygon fill="#191970" stroke="#191970" points="316.0983,-134.1665 305.8084,-131.6427 312.2785,-140.0325 316.0983,-134.1665"/>
</g>
<!-- Node14&#45;&gt;Node8 -->
<g id="edge18" class="edge">
<title>Node14&#45;&gt;Node8</title>
<path fill="none" stroke="#191970" d="M410.4566,-112.4319C367.3063,-104.2866 304.4206,-91.7608 240.9624,-76.0969"/>
<polygon fill="#191970" stroke="#191970" points="241.7373,-72.683 231.1876,-73.6599 240.0439,-79.4751 241.7373,-72.683"/>
</g>
<!-- Node15 -->
<g id="node16" class="node">
<title>Node15</title>
<polygon fill="none" stroke="#bfbfbf" points="677.5,-56.5 677.5,-75.5 736.5,-75.5 736.5,-56.5 677.5,-56.5"/>
<text text-anchor="middle" x="707" y="-63.5" font-family="Helvetica,sans-Serif" font-size="10.00" fill="#000000">valarray</text>
</g>
<!-- Node14&#45;&gt;Node15 -->
<g id="edge19" class="edge">
<title>Node14&#45;&gt;Node15</title>
<path fill="none" stroke="#191970" d="M507.4779,-112.4263C546.9509,-103.8385 606.4301,-90.676 667.4148,-76.0894"/>
<polygon fill="#191970" stroke="#191970" points="668.3063,-79.475 677.2126,-73.7367 666.6718,-72.6684 668.3063,-79.475"/>
</g>
<!-- Node16 -->
<g id="node17" class="node">
<title>Node16</title>
<g id="a_node17"><a xlink:href="Math_2Export_8hpp.html" target="_top" xlink:title="lug/Math/Export.hpp">
<polygon fill="none" stroke="#000000" points="754.5,-56.5 754.5,-75.5 873.5,-75.5 873.5,-56.5 754.5,-56.5"/>
<text text-anchor="middle" x="814" y="-63.5" font-family="Helvetica,sans-Serif" font-size="10.00" fill="#000000">lug/Math/Export.hpp</text>
</a>
</g>
</g>
<!-- Node14&#45;&gt;Node16 -->
<g id="edge20" class="edge">
<title>Node14&#45;&gt;Node16</title>
<path fill="none" stroke="#191970" d="M522.1455,-112.5637C583.4381,-102.7848 679.1919,-87.5078 744.1648,-77.1418"/>
<polygon fill="#191970" stroke="#191970" points="744.9946,-80.5538 754.3183,-75.5219 743.8917,-73.6412 744.9946,-80.5538"/>
</g>
<!-- Node17 -->
<g id="node18" class="node">
<title>Node17</title>
<g id="a_node18"><a xlink:href="ValArray_8hpp.html" target="_top" xlink:title="lug/Math/ValArray.hpp">
<polygon fill="none" stroke="#000000" points="249,-56.5 249,-75.5 379,-75.5 379,-56.5 249,-56.5"/>
<text text-anchor="middle" x="314" y="-63.5" font-family="Helvetica,sans-Serif" font-size="10.00" fill="#000000">lug/Math/ValArray.hpp</text>
</a>
</g>
</g>
<!-- Node14&#45;&gt;Node17 -->
<g id="edge22" class="edge">
<title>Node14&#45;&gt;Node17</title>
<path fill="none" stroke="#191970" d="M437.386,-112.3733C412.9313,-103.1822 375.8946,-89.2624 348.7791,-79.0713"/>
<polygon fill="#191970" stroke="#191970" points="349.8719,-75.7431 339.2798,-75.5011 347.4091,-82.2956 349.8719,-75.7431"/>
</g>
<!-- Node23 -->
<g id="node24" class="node">
<title>Node23</title>
<g id="a_node24"><a xlink:href="Debug_8hpp.html" target="_top" xlink:title="lug/System/Debug.hpp">
<polygon fill="none" stroke="#000000" points="397.5,-56.5 397.5,-75.5 528.5,-75.5 528.5,-56.5 397.5,-56.5"/>
<text text-anchor="middle" x="463" y="-63.5" font-family="Helvetica,sans-Serif" font-size="10.00" fill="#000000">lug/System/Debug.hpp</text>
</a>
</g>
</g>
<!-- Node14&#45;&gt;Node23 -->
<g id="edge28" class="edge">
<title>Node14&#45;&gt;Node23</title>
<path fill="none" stroke="#191970" d="M463,-112.2455C463,-104.9382 463,-94.6944 463,-85.7046"/>
<polygon fill="#191970" stroke="#191970" points="466.5001,-85.6426 463,-75.6427 459.5001,-85.6427 466.5001,-85.6426"/>
</g>
<!-- Node26 -->
<g id="node27" class="node">
<title>Node26</title>
<g id="a_node27"><a xlink:href="Matrix_8inl.html" target="_top" xlink:title="lug/Math/Matrix.inl">
<polygon fill="none" stroke="#000000" points="547,-56.5 547,-75.5 659,-75.5 659,-56.5 547,-56.5"/>
<text text-anchor="middle" x="603" y="-63.5" font-family="Helvetica,sans-Serif" font-size="10.00" fill="#000000">lug/Math/Matrix.inl</text>
</a>
</g>
</g>
<!-- Node14&#45;&gt;Node26 -->
<g id="edge32" class="edge">
<title>Node14&#45;&gt;Node26</title>
<path fill="none" stroke="#191970" d="M487.0669,-112.3733C509.8428,-103.2629 544.2344,-89.5062 569.649,-79.3404"/>
<polygon fill="#191970" stroke="#191970" points="571.2623,-82.4648 579.2472,-75.5011 568.6625,-75.9654 571.2623,-82.4648"/>
</g>
<!-- Node16&#45;&gt;Node10 -->
<g id="edge21" class="edge">
<title>Node16&#45;&gt;Node10</title>
<path fill="none" stroke="#191970" d="M821.6642,-56.2455C827.8473,-48.3761 836.7063,-37.101 844.1289,-27.6542"/>
<polygon fill="#191970" stroke="#191970" points="846.9975,-29.6683 850.4236,-19.6427 841.4932,-25.3435 846.9975,-29.6683"/>
</g>
<!-- Node18 -->
<g id="node19" class="node">
<title>Node18</title>
<polygon fill="none" stroke="#bfbfbf" points="286.5,-.5 286.5,-19.5 351.5,-19.5 351.5,-.5 286.5,-.5"/>
<text text-anchor="middle" x="319" y="-7.5" font-family="Helvetica,sans-Serif" font-size="10.00" fill="#000000">algorithm</text>
</g>
<!-- Node17&#45;&gt;Node18 -->
<g id="edge23" class="edge">
<title>Node17&#45;&gt;Node18</title>
<path fill="none" stroke="#191970" d="M314.8709,-56.2455C315.5234,-48.9382 316.438,-38.6944 317.2407,-29.7046"/>
<polygon fill="#191970" stroke="#191970" points="320.7358,-29.9143 318.139,-19.6427 313.7635,-29.2918 320.7358,-29.9143"/>
</g>
<!-- Node19 -->
<g id="node20" class="node">
<title>Node19</title>
<polygon fill="none" stroke="#bfbfbf" points="370,-.5 370,-19.5 414,-19.5 414,-.5 370,-.5"/>
<text text-anchor="middle" x="392" y="-7.5" font-family="Helvetica,sans-Serif" font-size="10.00" fill="#000000">array</text>
</g>
<!-- Node17&#45;&gt;Node19 -->
<g id="edge24" class="edge">
<title>Node17&#45;&gt;Node19</title>
<path fill="none" stroke="#191970" d="M327.5866,-56.2455C339.3305,-47.814 356.5199,-35.4729 370.1882,-25.6598"/>
<polygon fill="#191970" stroke="#191970" points="372.4871,-28.3179 378.5691,-19.6427 368.4046,-22.6316 372.4871,-28.3179"/>
</g>
<!-- Node20 -->
<g id="node21" class="node">
<title>Node20</title>
<polygon fill="none" stroke="#bfbfbf" points="0,-.5 0,-19.5 50,-19.5 50,-.5 0,-.5"/>
<text text-anchor="middle" x="25" y="-7.5" font-family="Helvetica,sans-Serif" font-size="10.00" fill="#000000">cstring</text>
</g>
<!-- Node17&#45;&gt;Node20 -->
<g id="edge25" class="edge">
<title>Node17&#45;&gt;Node20</title>
<path fill="none" stroke="#191970" d="M250.4707,-56.4876C200.9699,-48.6306 130.3692,-36.4541 60.0836,-20.0705"/>
<polygon fill="#191970" stroke="#191970" points="60.707,-16.6215 50.1704,-17.7308 59.099,-23.4344 60.707,-16.6215"/>
</g>
<!-- Node21 -->
<g id="node22" class="node">
<title>Node21</title>
<polygon fill="none" stroke="#bfbfbf" points="68.5,-.5 68.5,-19.5 125.5,-19.5 125.5,-.5 68.5,-.5"/>
<text text-anchor="middle" x="97" y="-7.5" font-family="Helvetica,sans-Serif" font-size="10.00" fill="#000000">numeric</text>
</g>
<!-- Node17&#45;&gt;Node21 -->
<g id="edge26" class="edge">
<title>Node17&#45;&gt;Node21</title>
<path fill="none" stroke="#191970" d="M276.6146,-56.4596C242.4424,-47.7242 190.2421,-34.3432 135.5115,-20.1227"/>
<polygon fill="#191970" stroke="#191970" points="136.1882,-16.6823 125.6292,-17.5529 134.4265,-23.457 136.1882,-16.6823"/>
</g>
<!-- Node22 -->
<g id="node23" class="node">
<title>Node22</title>
<g id="a_node23"><a xlink:href="ValArray_8inl.html" target="_top" xlink:title="lug/Math/ValArray.inl">
<polygon fill="none" stroke="#000000" points="144,-.5 144,-19.5 268,-19.5 268,-.5 144,-.5"/>
<text text-anchor="middle" x="206" y="-7.5" font-family="Helvetica,sans-Serif" font-size="10.00" fill="#000000">lug/Math/ValArray.inl</text>
</a>
</g>
</g>
<!-- Node17&#45;&gt;Node22 -->
<g id="edge27" class="edge">
<title>Node17&#45;&gt;Node22</title>
<path fill="none" stroke="#191970" d="M295.1878,-56.2455C278.1527,-47.4125 252.8425,-34.2887 233.5319,-24.2758"/>
<polygon fill="#191970" stroke="#191970" points="235.0853,-21.1388 224.5966,-19.6427 231.863,-27.353 235.0853,-21.1388"/>
</g>
<!-- Node23&#45;&gt;Node10 -->
<g id="edge29" class="edge">
<title>Node23&#45;&gt;Node10</title>
<path fill="none" stroke="#191970" d="M528.6696,-56.6899C605.5108,-45.7959 731.3504,-27.9554 803.182,-17.7717"/>
<polygon fill="#191970" stroke="#191970" points="803.9663,-21.1956 813.3759,-16.3264 802.9836,-14.2649 803.9663,-21.1956"/>
</g>
<!-- Node24 -->
<g id="node25" class="node">
<title>Node24</title>
<g id="a_node25"><a xlink:href="Utils_8hpp.html" target="_top" xlink:title="lug/System/Utils.hpp">
<polygon fill="none" stroke="#000000" points="512,-.5 512,-19.5 634,-19.5 634,-.5 512,-.5"/>
<text text-anchor="middle" x="573" y="-7.5" font-family="Helvetica,sans-Serif" font-size="10.00" fill="#000000">lug/System/Utils.hpp</text>
</a>
</g>
</g>
<!-- Node23&#45;&gt;Node24 -->
<g id="edge30" class="edge">
<title>Node23&#45;&gt;Node24</title>
<path fill="none" stroke="#191970" d="M482.1605,-56.2455C499.5111,-47.4125 525.2901,-34.2887 544.9583,-24.2758"/>
<polygon fill="#191970" stroke="#191970" points="546.7353,-27.2986 554.059,-19.6427 543.5595,-21.0605 546.7353,-27.2986"/>
</g>
<!-- Node25 -->
<g id="node26" class="node">
<title>Node25</title>
<polygon fill="none" stroke="#bfbfbf" points="432.5,-.5 432.5,-19.5 493.5,-19.5 493.5,-.5 432.5,-.5"/>
<text text-anchor="middle" x="463" y="-7.5" font-family="Helvetica,sans-Serif" font-size="10.00" fill="#000000">iostream</text>
</g>
<!-- Node23&#45;&gt;Node25 -->
<g id="edge31" class="edge">
<title>Node23&#45;&gt;Node25</title>
<path fill="none" stroke="#191970" d="M463,-56.2455C463,-48.9382 463,-38.6944 463,-29.7046"/>
<polygon fill="#191970" stroke="#191970" points="466.5001,-29.6426 463,-19.6427 459.5001,-29.6427 466.5001,-29.6426"/>
</g>
<!-- Node28&#45;&gt;Node10 -->
<g id="edge37" class="edge">
<title>Node28&#45;&gt;Node10</title>
<path fill="none" stroke="#191970" d="M938.1283,-168.2676C933.7182,-146.8436 921.3291,-94.4528 899,-56 892.812,-45.3437 883.8919,-34.9641 875.9511,-26.7696"/>
<polygon fill="#191970" stroke="#191970" points="878.3265,-24.196 868.759,-19.6448 873.4001,-29.169 878.3265,-24.196"/>
</g>
</g>
</svg>
        <g id="navigator" transform="translate(0 0)" fill="#404254">
                <rect fill="#f2f5e9" fill-opacity="0.5" stroke="#606060" stroke-width=".5" x="0" y="0" width="60" height="60"/>
                <use id="zoomplus" xlink:href="#zoomPlus" x="17" y="9" onmousedown="handleZoom(evt,'in')"/>
                <use id="zoomminus" xlink:href="#zoomMin" x="42" y="9" onmousedown="handleZoom(evt,'out')"/>
                <use id="reset" xlink:href="#resetDef" x="30" y="36" onmousedown="handleReset()"/>
                <g id="arrowUp" xlink:href="#dirArrow" transform="translate(30 24)" onmousedown="handlePan(0,-1)">
                  <use xlink:href="#rim" fill="#404040">
                        <set attributeName="fill" to="#808080" begin="arrowUp.mouseover" end="arrowUp.mouseout"/>
                  </use>
                  <path fill="none" stroke="white" stroke-width="1.5" d="M0,-3.0v7 M-2.5,-0.5L0,-3.0L2.5,-0.5"/>
                </g>
                <g id="arrowRight" xlink:href="#dirArrow" transform="rotate(90) translate(36 -43)" onmousedown="handlePan(1,0)">
                  <use xlink:href="#rim" fill="#404040">
                        <set attributeName="fill" to="#808080" begin="arrowRight.mouseover" end="arrowRight.mouseout"/>
                  </use>
                  <path fill="none" stroke="white" stroke-width="1.5" d="M0,-3.0v7 M-2.5,-0.5L0,-3.0L2.5,-0.5"/>
                </g>
                <g id="arrowDown" xlink:href="#dirArrow" transform="rotate(180) translate(-30 -48)" onmousedown="handlePan(0,1)">
                  <use xlink:href="#rim" fill="#404040">
                        <set attributeName="fill" to="#808080" begin="arrowDown.mouseover" end="arrowDown.mouseout"/>
                  </use>
                  <path fill="none" stroke="white" stroke-width="1.5" d="M0,-3.0v7 M-2.5,-0.5L0,-3.0L2.5,-0.5"/>
                </g>
                <g id="arrowLeft" xlink:href="#dirArrow" transform="rotate(270) translate(-36 17)" onmousedown="handlePan(-1,0)">
                  <use xlink:href="#rim" fill="#404040">
                        <set attributeName="fill" to="#808080" begin="arrowLeft.mouseover" end="arrowLeft.mouseout"/>
                  </use>
                  <path fill="none" stroke="white" stroke-width="1.5" d="M0,-3.0v7 M-2.5,-0.5L0,-3.0L2.5,-0.5"/>
                </g>
        </g>
        <svg viewBox="0 0 15 15" width="100%" height="30px" preserveAspectRatio="xMaxYMin meet">
         <g id="arrow_out" transform="scale(0.3 0.3)">
          <a xlink:href="WindowImplAndroid_8cpp__incl_org.svg" target="_base">
           <rect id="button" ry="5" rx="5" y="6" x="6" height="38" width="38"
                fill="#f2f5e9" fill-opacity="0.5" stroke="#606060" stroke-width="1.0"/>
           <path id="arrow"
             d="M 11.500037,31.436501 C 11.940474,20.09759 22.043105,11.32322 32.158766,21.979434 L 37.068811,17.246167 C 37.068811,17.246167 37.088388,32 37.088388,32 L 22.160133,31.978069 C 22.160133,31.978069 26.997745,27.140456 26.997745,27.140456 C 18.528582,18.264221 13.291696,25.230495 11.500037,31.436501 z"
             style="fill:#404040;"/>
          </a>
         </g>
        </svg>
</svg>
