<?xml version="1.0" encoding="UTF-8" standalone="no"?>
<!DOCTYPE svg PUBLIC "-//W3C//DTD SVG 1.1//EN"
 "http://www.w3.org/Graphics/SVG/1.1/DTD/svg11.dtd">
<!-- Generated by graphviz version 2.40.1 (20161225.0304)
 -->
<!-- Title: src/lug/Window/Window.cpp Pages: 1 -->
<!--zoomable 364 -->
<svg id="main" version="1.1" xmlns="http://www.w3.org/2000/svg" xmlns:xlink="http://www.w3.org/1999/xlink" xml:space="preserve" onload="init(evt)">
<style type="text/css"><![CDATA[
.edge:hover path { stroke: red; }
.edge:hover polygon { stroke: red; fill: red; }
]]></style>
<script type="text/javascript"><![CDATA[
var edges = document.getElementsByTagName('g');
if (edges && edges.length) {
  for (var i=0;i<edges.length;i++) {
    if (edges[i].id.substr(0,4)=='edge') {
      edges[i].setAttribute('class','edge');
    }
  }
}
]]></script>
        <defs>
                <circle id="rim" cx="0" cy="0" r="7"/>
                <circle id="rim2" cx="0" cy="0" r="3.5"/>
                <g id="zoomPlus">
                        <use xlink:href="#rim" fill="#404040">
                                <set attributeName="fill" to="#808080" begin="zoomplus.mouseover" end="zoomplus.mouseout"/>
                        </use>
                        <path d="M-4,0h8M0,-4v8" fill="none" stroke="white" stroke-width="1.5" pointer-events="none"/>
                </g>
                <g id="zoomMin">
                        <use xlink:href="#rim" fill="#404040">
                                <set attributeName="fill" to="#808080" begin="zoomminus.mouseover" end="zoomminus.mouseout"/>
                        </use>
                        <path d="M-4,0h8" fill="none" stroke="white" stroke-width="1.5" pointer-events="none"/>
                </g>
                <g id="dirArrow">
                        <path fill="none" stroke="white" stroke-width="1.5" d="M0,-3.0v7 M-2.5,-0.5L0,-3.0L2.5,-0.5"/>
                </g>
               <g id="resetDef">
                       <use xlink:href="#rim2" fill="#404040">
                               <set attributeName="fill" to="#808080" begin="reset.mouseover" end="reset.mouseout"/>
                       </use>
               </g>
        </defs>

<script type="text/javascript">
var viewWidth = 1575;
var viewHeight = 364;
var sectionId = 'dynsection-0';
</script>
<script xlink:href="svgpan.js"/>
<svg id="graph" class="graph">
<g id="viewport">
<title>src/lug/Window/Window.cpp</title>
<!-- Node0 -->
<g id="node1" class="node">
<title>Node0</title>
<polygon fill="#bfbfbf" stroke="#000000" points="992,-336.5 992,-355.5 1151,-355.5 1151,-336.5 992,-336.5"/>
<text text-anchor="middle" x="1071.5" y="-343.5" font-family="Helvetica,sans-Serif" font-size="10.00" fill="#000000">src/lug/Window/Window.cpp</text>
</g>
<!-- Node1 -->
<g id="node2" class="node">
<title>Node1</title>
<g id="a_node2"><a xlink:href="Window_2Window_8hpp.html" target="_top" xlink:title="lug/Window/Window.hpp">
<polygon fill="none" stroke="#000000" points="1001.5,-280.5 1001.5,-299.5 1141.5,-299.5 1141.5,-280.5 1001.5,-280.5"/>
<text text-anchor="middle" x="1071.5" y="-287.5" font-family="Helvetica,sans-Serif" font-size="10.00" fill="#000000">lug/Window/Window.hpp</text>
</a>
</g>
</g>
<!-- Node0&#45;&gt;Node1 -->
<g id="edge1" class="edge">
<title>Node0&#45;&gt;Node1</title>
<path fill="none" stroke="#191970" d="M1071.5,-336.2455C1071.5,-328.9382 1071.5,-318.6944 1071.5,-309.7046"/>
<polygon fill="#191970" stroke="#191970" points="1075.0001,-309.6426 1071.5,-299.6427 1068.0001,-309.6427 1075.0001,-309.6426"/>
</g>
<!-- Node2 -->
<g id="node3" class="node">
<title>Node2</title>
<polygon fill="none" stroke="#bfbfbf" points="697,-224.5 697,-243.5 756,-243.5 756,-224.5 697,-224.5"/>
<text text-anchor="middle" x="726.5" y="-231.5" font-family="Helvetica,sans-Serif" font-size="10.00" fill="#000000">memory</text>
</g>
<!-- Node1&#45;&gt;Node2 -->
<g id="edge2" class="edge">
<title>Node1&#45;&gt;Node2</title>
<path fill="none" stroke="#191970" d="M1001.2635,-281.5084C941.3209,-273.7889 852.6671,-261.2577 766.2216,-243.9767"/>
<polygon fill="#191970" stroke="#191970" points="766.7339,-240.5096 756.2385,-241.9576 765.3461,-247.3706 766.7339,-240.5096"/>
</g>
<!-- Node3 -->
<g id="node4" class="node">
<title>Node3</title>
<polygon fill="none" stroke="#bfbfbf" points="774,-224.5 774,-243.5 821,-243.5 821,-224.5 774,-224.5"/>
<text text-anchor="middle" x="797.5" y="-231.5" font-family="Helvetica,sans-Serif" font-size="10.00" fill="#000000">queue</text>
</g>
<!-- Node1&#45;&gt;Node3 -->
<g id="edge3" class="edge">
<title>Node1&#45;&gt;Node3</title>
<path fill="none" stroke="#191970" d="M1012.1922,-280.4782C965.4751,-272.5685 898.5516,-260.3365 831.155,-243.9585"/>
<polygon fill="#191970" stroke="#191970" points="831.7567,-240.5023 821.2101,-241.512 830.0845,-247.2996 831.7567,-240.5023"/>
</g>
<!-- Node4 -->
<g id="node5" class="node">
<title>Node4</title>
<polygon fill="none" stroke="#bfbfbf" points="839,-224.5 839,-243.5 884,-243.5 884,-224.5 839,-224.5"/>
<text text-anchor="middle" x="861.5" y="-231.5" font-family="Helvetica,sans-Serif" font-size="10.00" fill="#000000">string</text>
</g>
<!-- Node1&#45;&gt;Node4 -->
<g id="edge4" class="edge">
<title>Node1&#45;&gt;Node4</title>
<path fill="none" stroke="#191970" d="M1032.1078,-280.4203C997.9856,-271.9882 947.0933,-259.0926 893.8049,-243.9867"/>
<polygon fill="#191970" stroke="#191970" points="894.7601,-240.6196 884.1836,-241.2424 892.84,-247.3511 894.7601,-240.6196"/>
</g>
<!-- Node5 -->
<g id="node6" class="node">
<title>Node5</title>
<polygon fill="none" stroke="#bfbfbf" points="902,-224.5 902,-243.5 997,-243.5 997,-224.5 902,-224.5"/>
<text text-anchor="middle" x="949.5" y="-231.5" font-family="Helvetica,sans-Serif" font-size="10.00" fill="#000000">unordered_map</text>
</g>
<!-- Node1&#45;&gt;Node5 -->
<g id="edge5" class="edge">
<title>Node1&#45;&gt;Node5</title>
<path fill="none" stroke="#191970" d="M1050.5275,-280.3733C1030.9433,-271.3838 1001.5039,-257.8706 979.449,-247.7471"/>
<polygon fill="#191970" stroke="#191970" points="980.7473,-244.4919 970.1989,-243.5011 977.8271,-250.8538 980.7473,-244.4919"/>
</g>
<!-- Node6 -->
<g id="node7" class="node">
<title>Node6</title>
<g id="a_node7"><a xlink:href="Vector_8hpp.html" target="_top" xlink:title="lug/Math/Vector.hpp">
<polygon fill="none" stroke="#000000" points="772,-168.5 772,-187.5 891,-187.5 891,-168.5 772,-168.5"/>
<text text-anchor="middle" x="831.5" y="-175.5" font-family="Helvetica,sans-Serif" font-size="10.00" fill="#000000">lug/Math/Vector.hpp</text>
</a>
</g>
</g>
<!-- Node1&#45;&gt;Node6 -->
<g id="edge6" class="edge">
<title>Node1&#45;&gt;Node6</title>
<path fill="none" stroke="#191970" d="M1064.6951,-280.3216C1053.9954,-265.8404 1031.8272,-238.6713 1006.5,-224 974.4754,-205.4491 934.8635,-194.2304 901.4302,-187.524"/>
<polygon fill="#191970" stroke="#191970" points="901.7469,-184.0214 891.268,-185.5845 900.4345,-190.8973 901.7469,-184.0214"/>
</g>
<!-- Node23 -->
<g id="node24" class="node">
<title>Node23</title>
<g id="a_node24"><a xlink:href="Event_8hpp.html" target="_top" xlink:title="lug/Window/Event.hpp">
<polygon fill="none" stroke="#000000" points="1054,-224.5 1054,-243.5 1183,-243.5 1183,-224.5 1054,-224.5"/>
<text text-anchor="middle" x="1118.5" y="-231.5" font-family="Helvetica,sans-Serif" font-size="10.00" fill="#000000">lug/Window/Event.hpp</text>
</a>
</g>
</g>
<!-- Node1&#45;&gt;Node23 -->
<g id="edge25" class="edge">
<title>Node1&#45;&gt;Node23</title>
<path fill="none" stroke="#191970" d="M1079.6868,-280.2455C1086.3589,-272.2958 1095.9479,-260.8706 1103.9253,-251.3656"/>
<polygon fill="#191970" stroke="#191970" points="1106.6592,-253.5525 1110.407,-243.6427 1101.2974,-249.0524 1106.6592,-253.5525"/>
</g>
<!-- Node25 -->
<g id="node26" class="node">
<title>Node25</title>
<g id="a_node26"><a xlink:href="Window_2Export_8hpp.html" target="_top" xlink:title="lug/Window/Export.hpp">
<polygon fill="none" stroke="#000000" points="1051.5,-112.5 1051.5,-131.5 1185.5,-131.5 1185.5,-112.5 1051.5,-112.5"/>
<text text-anchor="middle" x="1118.5" y="-119.5" font-family="Helvetica,sans-Serif" font-size="10.00" fill="#000000">lug/Window/Export.hpp</text>
</a>
</g>
</g>
<!-- Node1&#45;&gt;Node25 -->
<g id="edge35" class="edge">
<title>Node1&#45;&gt;Node25</title>
<path fill="none" stroke="#191970" d="M1118.7392,-280.4377C1193.5432,-264.2088 1333.6605,-229.0116 1361.5,-188 1366.4924,-180.6455 1367.1708,-174.845 1361.5,-168 1340.677,-142.8654 1258.8794,-131.3607 1195.8763,-126.1617"/>
<polygon fill="#191970" stroke="#191970" points="1195.7858,-122.6439 1185.5426,-125.3508 1195.2381,-129.6225 1195.7858,-122.6439"/>
</g>
<!-- Node26 -->
<g id="node27" class="node">
<title>Node26</title>
<g id="a_node27"><a xlink:href="Keyboard_8hpp.html" target="_top" xlink:title="lug/Window/Keyboard.hpp">
<polygon fill="none" stroke="#000000" points="1203,-168.5 1203,-187.5 1352,-187.5 1352,-168.5 1203,-168.5"/>
<text text-anchor="middle" x="1277.5" y="-175.5" font-family="Helvetica,sans-Serif" font-size="10.00" fill="#000000">lug/Window/Keyboard.hpp</text>
</a>
</g>
</g>
<!-- Node1&#45;&gt;Node26 -->
<g id="edge36" class="edge">
<title>Node1&#45;&gt;Node26</title>
<path fill="none" stroke="#191970" d="M1104.2529,-280.4732C1129.2843,-272.5091 1164.1859,-259.9032 1192.5,-244 1217.4688,-229.9757 1243.0104,-209.0842 1259.4873,-194.5768"/>
<polygon fill="#191970" stroke="#191970" points="1262.1143,-196.9224 1267.2263,-187.6425 1257.443,-191.709 1262.1143,-196.9224"/>
</g>
<!-- Node28 -->
<g id="node29" class="node">
<title>Node28</title>
<g id="a_node29"><a xlink:href="WindowHandle_8hpp.html" target="_top" xlink:title="lug/Window/WindowHandle.hpp">
<polygon fill="none" stroke="#000000" points="1267,-112.5 1267,-131.5 1442,-131.5 1442,-112.5 1267,-112.5"/>
<text text-anchor="middle" x="1354.5" y="-119.5" font-family="Helvetica,sans-Serif" font-size="10.00" fill="#000000">lug/Window/WindowHandle.hpp</text>
</a>
</g>
</g>
<!-- Node1&#45;&gt;Node28 -->
<g id="edge37" class="edge">
<title>Node1&#45;&gt;Node28</title>
<path fill="none" stroke="#191970" d="M1141.6992,-283.2193C1187.479,-277.0048 1247.7423,-265.3759 1297.5,-244 1337.377,-226.8688 1357.4569,-226.4958 1377.5,-188 1385.5133,-172.6093 1377.3976,-153.8191 1368.6717,-140.2296"/>
<polygon fill="#191970" stroke="#191970" points="1371.3345,-137.9312 1362.7239,-131.7581 1365.6055,-141.9535 1371.3345,-137.9312"/>
</g>
<!-- Node29 -->
<g id="node30" class="node">
<title>Node29</title>
<g id="a_node30"><a xlink:href="Style_8inl.html" target="_top" xlink:title="lug/Window/Style.inl">
<polygon fill="none" stroke="#000000" points="1446,-224.5 1446,-243.5 1567,-243.5 1567,-224.5 1446,-224.5"/>
<text text-anchor="middle" x="1506.5" y="-231.5" font-family="Helvetica,sans-Serif" font-size="10.00" fill="#000000">lug/Window/Style.inl</text>
</a>
</g>
</g>
<!-- Node1&#45;&gt;Node29 -->
<g id="edge39" class="edge">
<title>Node1&#45;&gt;Node29</title>
<path fill="none" stroke="#191970" d="M1141.5384,-281.1656C1214.0937,-271.9868 1330.7543,-257.1528 1431.5,-244 1432.9654,-243.8087 1434.4468,-243.6149 1435.94,-243.4192"/>
<polygon fill="#191970" stroke="#191970" points="1436.4636,-246.8805 1445.9216,-242.106 1435.5505,-239.9403 1436.4636,-246.8805"/>
</g>
<!-- Node7 -->
<g id="node8" class="node">
<title>Node7</title>
<polygon fill="none" stroke="#bfbfbf" points="921.5,-56.5 921.5,-75.5 971.5,-75.5 971.5,-56.5 921.5,-56.5"/>
<text text-anchor="middle" x="946.5" y="-63.5" font-family="Helvetica,sans-Serif" font-size="10.00" fill="#000000">cstdint</text>
</g>
<!-- Node6&#45;&gt;Node7 -->
<g id="edge7" class="edge">
<title>Node6&#45;&gt;Node7</title>
<path fill="none" stroke="#191970" d="M810.9014,-168.4501C786.9722,-156.0506 752.7799,-133.4511 769.5,-112 807.9021,-62.732 845.569,-90.3475 911.3653,-75.9768"/>
<polygon fill="#191970" stroke="#191970" points="912.406,-79.3252 921.2805,-73.5377 910.7339,-72.5278 912.406,-79.3252"/>
</g>
<!-- Node8 -->
<g id="node9" class="node">
<title>Node8</title>
<g id="a_node9"><a xlink:href="Matrix_8hpp.html" target="_top" xlink:title="lug/Math/Matrix.hpp">
<polygon fill="none" stroke="#000000" points="603.5,-112.5 603.5,-131.5 721.5,-131.5 721.5,-112.5 603.5,-112.5"/>
<text text-anchor="middle" x="662.5" y="-119.5" font-family="Helvetica,sans-Serif" font-size="10.00" fill="#000000">lug/Math/Matrix.hpp</text>
</a>
</g>
</g>
<!-- Node6&#45;&gt;Node8 -->
<g id="edge8" class="edge">
<title>Node6&#45;&gt;Node8</title>
<path fill="none" stroke="#191970" d="M802.4479,-168.3733C774.3457,-159.0613 731.5946,-144.8953 700.7393,-134.671"/>
<polygon fill="#191970" stroke="#191970" points="701.7664,-131.3243 691.173,-131.5011 699.5645,-137.969 701.7664,-131.3243"/>
</g>
<!-- Node22 -->
<g id="node23" class="node">
<title>Node22</title>
<g id="a_node23"><a xlink:href="Vector_8inl.html" target="_top" xlink:title="lug/Math/Vector.inl">
<polygon fill="none" stroke="#000000" points="778,-112.5 778,-131.5 891,-131.5 891,-112.5 778,-112.5"/>
<text text-anchor="middle" x="834.5" y="-119.5" font-family="Helvetica,sans-Serif" font-size="10.00" fill="#000000">lug/Math/Vector.inl</text>
</a>
</g>
</g>
<!-- Node6&#45;&gt;Node22 -->
<g id="edge24" class="edge">
<title>Node6&#45;&gt;Node22</title>
<path fill="none" stroke="#191970" d="M832.0226,-168.2455C832.414,-160.9382 832.9628,-150.6944 833.4444,-141.7046"/>
<polygon fill="#191970" stroke="#191970" points="836.9434,-141.8156 833.9834,-131.6427 829.9534,-141.4411 836.9434,-141.8156"/>
</g>
<!-- Node8&#45;&gt;Node7 -->
<g id="edge9" class="edge">
<title>Node8&#45;&gt;Node7</title>
<path fill="none" stroke="#191970" d="M721.7094,-112.8899C770.3102,-105.0066 841.0789,-92.6032 911.4087,-76.0797"/>
<polygon fill="#191970" stroke="#191970" points="912.4084,-79.4397 921.3273,-73.7209 910.7888,-72.6296 912.4084,-79.4397"/>
</g>
<!-- Node9 -->
<g id="node10" class="node">
<title>Node9</title>
<polygon fill="none" stroke="#bfbfbf" points="844,-56.5 844,-75.5 903,-75.5 903,-56.5 844,-56.5"/>
<text text-anchor="middle" x="873.5" y="-63.5" font-family="Helvetica,sans-Serif" font-size="10.00" fill="#000000">valarray</text>
</g>
<!-- Node8&#45;&gt;Node9 -->
<g id="edge10" class="edge">
<title>Node8&#45;&gt;Node9</title>
<path fill="none" stroke="#191970" d="M698.7722,-112.3733C736.4128,-102.3833 795.103,-86.8068 833.9226,-76.5039"/>
<polygon fill="#191970" stroke="#191970" points="835.0568,-79.8242 843.8244,-73.876 833.2611,-73.0584 835.0568,-79.8242"/>
</g>
<!-- Node10 -->
<g id="node11" class="node">
<title>Node10</title>
<g id="a_node11"><a xlink:href="Math_2Export_8hpp.html" target="_top" xlink:title="lug/Math/Export.hpp">
<polygon fill="none" stroke="#000000" points="576,-56.5 576,-75.5 695,-75.5 695,-56.5 576,-56.5"/>
<text text-anchor="middle" x="635.5" y="-63.5" font-family="Helvetica,sans-Serif" font-size="10.00" fill="#000000">lug/Math/Export.hpp</text>
</a>
</g>
</g>
<!-- Node8&#45;&gt;Node10 -->
<g id="edge11" class="edge">
<title>Node8&#45;&gt;Node10</title>
<path fill="none" stroke="#191970" d="M657.797,-112.2455C654.1576,-104.6973 649.0076,-94.0158 644.5738,-84.8197"/>
<polygon fill="#191970" stroke="#191970" points="647.6449,-83.1303 640.1491,-75.6427 641.3395,-86.1704 647.6449,-83.1303"/>
</g>
<!-- Node12 -->
<g id="node13" class="node">
<title>Node12</title>
<g id="a_node13"><a xlink:href="ValArray_8hpp.html" target="_top" xlink:title="lug/Math/ValArray.hpp">
<polygon fill="none" stroke="#000000" points="222.5,-56.5 222.5,-75.5 352.5,-75.5 352.5,-56.5 222.5,-56.5"/>
<text text-anchor="middle" x="287.5" y="-63.5" font-family="Helvetica,sans-Serif" font-size="10.00" fill="#000000">lug/Math/ValArray.hpp</text>
</a>
</g>
</g>
<!-- Node8&#45;&gt;Node12 -->
<g id="edge13" class="edge">
<title>Node8&#45;&gt;Node12</title>
<path fill="none" stroke="#191970" d="M603.4937,-113.1884C538.0287,-103.4123 432.2975,-87.6231 361.3793,-77.0326"/>
<polygon fill="#191970" stroke="#191970" points="361.5848,-73.5246 351.1775,-75.5092 360.5509,-80.4478 361.5848,-73.5246"/>
</g>
<!-- Node18 -->
<g id="node19" class="node">
<title>Node18</title>
<g id="a_node19"><a xlink:href="Debug_8hpp.html" target="_top" xlink:title="lug/System/Debug.hpp">
<polygon fill="none" stroke="#000000" points="427,-56.5 427,-75.5 558,-75.5 558,-56.5 427,-56.5"/>
<text text-anchor="middle" x="492.5" y="-63.5" font-family="Helvetica,sans-Serif" font-size="10.00" fill="#000000">lug/System/Debug.hpp</text>
</a>
</g>
</g>
<!-- Node8&#45;&gt;Node18 -->
<g id="edge19" class="edge">
<title>Node8&#45;&gt;Node18</title>
<path fill="none" stroke="#191970" d="M633.276,-112.3733C605.0075,-103.0613 562.0035,-88.8953 530.9656,-78.671"/>
<polygon fill="#191970" stroke="#191970" points="531.9357,-75.3056 521.3427,-75.5011 529.7456,-81.9542 531.9357,-75.3056"/>
</g>
<!-- Node21 -->
<g id="node22" class="node">
<title>Node21</title>
<g id="a_node22"><a xlink:href="Matrix_8inl.html" target="_top" xlink:title="lug/Math/Matrix.inl">
<polygon fill="none" stroke="#000000" points="713.5,-56.5 713.5,-75.5 825.5,-75.5 825.5,-56.5 713.5,-56.5"/>
<text text-anchor="middle" x="769.5" y="-63.5" font-family="Helvetica,sans-Serif" font-size="10.00" fill="#000000">lug/Math/Matrix.inl</text>
</a>
</g>
</g>
<!-- Node8&#45;&gt;Node21 -->
<g id="edge23" class="edge">
<title>Node8&#45;&gt;Node21</title>
<path fill="none" stroke="#191970" d="M681.138,-112.2455C697.9386,-103.4527 722.8634,-90.4079 741.9618,-80.4125"/>
<polygon fill="#191970" stroke="#191970" points="743.8386,-83.3807 751.0756,-75.6427 740.5927,-77.1787 743.8386,-83.3807"/>
</g>
<!-- Node11 -->
<g id="node12" class="node">
<title>Node11</title>
<g id="a_node12"><a xlink:href="Config_8hpp.html" target="_top" xlink:title="lug/Config.hpp">
<polygon fill="none" stroke="#000000" points="804,-.5 804,-19.5 893,-19.5 893,-.5 804,-.5"/>
<text text-anchor="middle" x="848.5" y="-7.5" font-family="Helvetica,sans-Serif" font-size="10.00" fill="#000000">lug/Config.hpp</text>
</a>
</g>
</g>
<!-- Node10&#45;&gt;Node11 -->
<g id="edge12" class="edge">
<title>Node10&#45;&gt;Node11</title>
<path fill="none" stroke="#191970" d="M672.116,-56.3733C708.148,-46.9001 763.2878,-32.4032 802.3114,-22.1435"/>
<polygon fill="#191970" stroke="#191970" points="803.5804,-25.4289 812.3618,-19.5011 801.8005,-18.6589 803.5804,-25.4289"/>
</g>
<!-- Node13 -->
<g id="node14" class="node">
<title>Node13</title>
<polygon fill="none" stroke="#bfbfbf" points="218,-.5 218,-19.5 283,-19.5 283,-.5 218,-.5"/>
<text text-anchor="middle" x="250.5" y="-7.5" font-family="Helvetica,sans-Serif" font-size="10.00" fill="#000000">algorithm</text>
</g>
<!-- Node12&#45;&gt;Node13 -->
<g id="edge14" class="edge">
<title>Node12&#45;&gt;Node13</title>
<path fill="none" stroke="#191970" d="M281.0551,-56.2455C275.9618,-48.5367 268.7092,-37.5598 262.548,-28.2348"/>
<polygon fill="#191970" stroke="#191970" points="265.3038,-26.0566 256.8711,-19.6427 259.4635,-29.9155 265.3038,-26.0566"/>
</g>
<!-- Node14 -->
<g id="node15" class="node">
<title>Node14</title>
<polygon fill="none" stroke="#bfbfbf" points="301.5,-.5 301.5,-19.5 345.5,-19.5 345.5,-.5 301.5,-.5"/>
<text text-anchor="middle" x="323.5" y="-7.5" font-family="Helvetica,sans-Serif" font-size="10.00" fill="#000000">array</text>
</g>
<!-- Node12&#45;&gt;Node14 -->
<g id="edge15" class="edge">
<title>Node12&#45;&gt;Node14</title>
<path fill="none" stroke="#191970" d="M293.7707,-56.2455C298.7264,-48.5367 305.783,-37.5598 311.7776,-28.2348"/>
<polygon fill="#191970" stroke="#191970" points="314.8376,-29.9471 317.3011,-19.6427 308.9494,-26.1618 314.8376,-29.9471"/>
</g>
<!-- Node15 -->
<g id="node16" class="node">
<title>Node15</title>
<polygon fill="none" stroke="#bfbfbf" points="363.5,-.5 363.5,-19.5 413.5,-19.5 413.5,-.5 363.5,-.5"/>
<text text-anchor="middle" x="388.5" y="-7.5" font-family="Helvetica,sans-Serif" font-size="10.00" fill="#000000">cstring</text>
</g>
<!-- Node12&#45;&gt;Node15 -->
<g id="edge16" class="edge">
<title>Node12&#45;&gt;Node15</title>
<path fill="none" stroke="#191970" d="M305.0929,-56.2455C320.879,-47.4928 344.2639,-34.527 362.2587,-24.5496"/>
<polygon fill="#191970" stroke="#191970" points="364.0603,-27.5528 371.1087,-19.6427 360.6659,-21.4308 364.0603,-27.5528"/>
</g>
<!-- Node16 -->
<g id="node17" class="node">
<title>Node16</title>
<polygon fill="none" stroke="#bfbfbf" points="0,-.5 0,-19.5 57,-19.5 57,-.5 0,-.5"/>
<text text-anchor="middle" x="28.5" y="-7.5" font-family="Helvetica,sans-Serif" font-size="10.00" fill="#000000">numeric</text>
</g>
<!-- Node12&#45;&gt;Node16 -->
<g id="edge17" class="edge">
<title>Node12&#45;&gt;Node16</title>
<path fill="none" stroke="#191970" d="M238.1833,-56.4999C195.4805,-48.1013 131.8359,-35.173 67.0737,-20.0426"/>
<polygon fill="#191970" stroke="#191970" points="67.6296,-16.5779 57.0939,-17.6954 66.0269,-23.392 67.6296,-16.5779"/>
</g>
<!-- Node17 -->
<g id="node18" class="node">
<title>Node17</title>
<g id="a_node18"><a xlink:href="ValArray_8inl.html" target="_top" xlink:title="lug/Math/ValArray.inl">
<polygon fill="none" stroke="#000000" points="75.5,-.5 75.5,-19.5 199.5,-19.5 199.5,-.5 75.5,-.5"/>
<text text-anchor="middle" x="137.5" y="-7.5" font-family="Helvetica,sans-Serif" font-size="10.00" fill="#000000">lug/Math/ValArray.inl</text>
</a>
</g>
</g>
<!-- Node12&#45;&gt;Node17 -->
<g id="edge18" class="edge">
<title>Node12&#45;&gt;Node17</title>
<path fill="none" stroke="#191970" d="M261.7141,-56.3733C237.0953,-47.1822 199.81,-33.2624 172.5125,-23.0713"/>
<polygon fill="#191970" stroke="#191970" points="173.542,-19.7198 162.9494,-19.5011 171.0937,-26.2777 173.542,-19.7198"/>
</g>
<!-- Node18&#45;&gt;Node11 -->
<g id="edge20" class="edge">
<title>Node18&#45;&gt;Node11</title>
<path fill="none" stroke="#191970" d="M553.2941,-56.4369C620.7788,-45.8213 728.7248,-28.841 793.6949,-18.621"/>
<polygon fill="#191970" stroke="#191970" points="794.4059,-22.0523 803.7405,-17.0408 793.3181,-15.1373 794.4059,-22.0523"/>
</g>
<!-- Node19 -->
<g id="node20" class="node">
<title>Node19</title>
<g id="a_node20"><a xlink:href="Utils_8hpp.html" target="_top" xlink:title="lug/System/Utils.hpp">
<polygon fill="none" stroke="#000000" points="431.5,-.5 431.5,-19.5 553.5,-19.5 553.5,-.5 431.5,-.5"/>
<text text-anchor="middle" x="492.5" y="-7.5" font-family="Helvetica,sans-Serif" font-size="10.00" fill="#000000">lug/System/Utils.hpp</text>
</a>
</g>
</g>
<!-- Node18&#45;&gt;Node19 -->
<g id="edge21" class="edge">
<title>Node18&#45;&gt;Node19</title>
<path fill="none" stroke="#191970" d="M492.5,-56.2455C492.5,-48.9382 492.5,-38.6944 492.5,-29.7046"/>
<polygon fill="#191970" stroke="#191970" points="496.0001,-29.6426 492.5,-19.6427 489.0001,-29.6427 496.0001,-29.6426"/>
</g>
<!-- Node20 -->
<g id="node21" class="node">
<title>Node20</title>
<polygon fill="none" stroke="#bfbfbf" points="572,-.5 572,-19.5 633,-19.5 633,-.5 572,-.5"/>
<text text-anchor="middle" x="602.5" y="-7.5" font-family="Helvetica,sans-Serif" font-size="10.00" fill="#000000">iostream</text>
</g>
<!-- Node18&#45;&gt;Node20 -->
<g id="edge22" class="edge">
<title>Node18&#45;&gt;Node20</title>
<path fill="none" stroke="#191970" d="M511.6605,-56.2455C529.0111,-47.4125 554.7901,-34.2887 574.4583,-24.2758"/>
<polygon fill="#191970" stroke="#191970" points="576.2353,-27.2986 583.559,-19.6427 573.0595,-21.0605 576.2353,-27.2986"/>
</g>
<!-- Node23&#45;&gt;Node6 -->
<g id="edge34" class="edge">
<title>Node23&#45;&gt;Node6</title>
<path fill="none" stroke="#191970" d="M1069.489,-224.4369C1019.8553,-214.7522 943.0727,-199.7703 890.2166,-189.4569"/>
<polygon fill="#191970" stroke="#191970" points="890.794,-186.0036 880.3088,-187.5237 889.4534,-192.8741 890.794,-186.0036"/>
</g>
<!-- Node23&#45;&gt;Node7 -->
<g id="edge26" class="edge">
<title>Node23&#45;&gt;Node7</title>
<path fill="none" stroke="#191970" d="M1053.9404,-225.8973C1008.3002,-218.6889 952.7934,-206.4055 938.5,-188 915.5005,-158.3838 928.0536,-111.5451 938.0437,-85.3572"/>
<polygon fill="#191970" stroke="#191970" points="941.4021,-86.3898 941.9273,-75.808 934.9178,-83.7527 941.4021,-86.3898"/>
</g>
<!-- Node24 -->
<g id="node25" class="node">
<title>Node24</title>
<polygon fill="none" stroke="#bfbfbf" points="947.5,-168.5 947.5,-187.5 995.5,-187.5 995.5,-168.5 947.5,-168.5"/>
<text text-anchor="middle" x="971.5" y="-175.5" font-family="Helvetica,sans-Serif" font-size="10.00" fill="#000000">vector</text>
</g>
<!-- Node23&#45;&gt;Node24 -->
<g id="edge27" class="edge">
<title>Node23&#45;&gt;Node24</title>
<path fill="none" stroke="#191970" d="M1093.2298,-224.3733C1068.9572,-215.1265 1032.1204,-201.0935 1005.327,-190.8865"/>
<polygon fill="#191970" stroke="#191970" points="1006.5429,-187.6043 995.952,-187.315 1004.0509,-194.1458 1006.5429,-187.6043"/>
</g>
<!-- Node23&#45;&gt;Node25 -->
<g id="edge28" class="edge">
<title>Node23&#45;&gt;Node25</title>
<path fill="none" stroke="#191970" d="M1091.5079,-224.3764C1064.7185,-213.1715 1029.5212,-192.9723 1043.5,-168 1051.5789,-153.5676 1066.2415,-143.1145 1080.4729,-135.8565"/>
<polygon fill="#191970" stroke="#191970" points="1082.1186,-138.9506 1089.6892,-131.5387 1079.1489,-132.6118 1082.1186,-138.9506"/>
</g>
<!-- Node23&#45;&gt;Node26 -->
<g id="edge30" class="edge">
<title>Node23&#45;&gt;Node26</title>
<path fill="none" stroke="#191970" d="M1145.8331,-224.3733C1172.0434,-215.1419 1211.7984,-201.1402 1240.7668,-190.9375"/>
<polygon fill="#191970" stroke="#191970" points="1242.2542,-194.1244 1250.5236,-187.5011 1239.9288,-187.5219 1242.2542,-194.1244"/>
</g>
<!-- Node27 -->
<g id="node28" class="node">
<title>Node27</title>
<g id="a_node28"><a xlink:href="Mouse_8hpp.html" target="_top" xlink:title="lug/Window/Mouse.hpp">
<polygon fill="none" stroke="#000000" points="1052,-168.5 1052,-187.5 1185,-187.5 1185,-168.5 1052,-168.5"/>
<text text-anchor="middle" x="1118.5" y="-175.5" font-family="Helvetica,sans-Serif" font-size="10.00" fill="#000000">lug/Window/Mouse.hpp</text>
</a>
</g>
</g>
<!-- Node23&#45;&gt;Node27 -->
<g id="edge32" class="edge">
<title>Node23&#45;&gt;Node27</title>
<path fill="none" stroke="#191970" d="M1118.5,-224.2455C1118.5,-216.9382 1118.5,-206.6944 1118.5,-197.7046"/>
<polygon fill="#191970" stroke="#191970" points="1122.0001,-197.6426 1118.5,-187.6427 1115.0001,-197.6427 1122.0001,-197.6426"/>
</g>
<!-- Node25&#45;&gt;Node11 -->
<g id="edge29" class="edge">
<title>Node25&#45;&gt;Node11</title>
<path fill="none" stroke="#191970" d="M1100.0466,-112.3665C1073.8529,-98.8793 1024.2096,-74.0036 980.5,-56 950.1564,-43.5018 915.0388,-31.3724 888.657,-22.7094"/>
<polygon fill="#191970" stroke="#191970" points="889.5941,-19.3337 879.0018,-19.5654 887.4266,-25.9897 889.5941,-19.3337"/>
</g>
<!-- Node26&#45;&gt;Node25 -->
<g id="edge31" class="edge">
<title>Node26&#45;&gt;Node25</title>
<path fill="none" stroke="#191970" d="M1250.1669,-168.3733C1223.9566,-159.1419 1184.2016,-145.1402 1155.2332,-134.9375"/>
<polygon fill="#191970" stroke="#191970" points="1156.0712,-131.5219 1145.4764,-131.5011 1153.7458,-138.1244 1156.0712,-131.5219"/>
</g>
<!-- Node27&#45;&gt;Node25 -->
<g id="edge33" class="edge">
<title>Node27&#45;&gt;Node25</title>
<path fill="none" stroke="#191970" d="M1118.5,-168.2455C1118.5,-160.9382 1118.5,-150.6944 1118.5,-141.7046"/>
<polygon fill="#191970" stroke="#191970" points="1122.0001,-141.6426 1118.5,-131.6427 1115.0001,-141.6427 1122.0001,-141.6426"/>
</g>
<!-- Node28&#45;&gt;Node11 -->
<g id="edge38" class="edge">
<title>Node28&#45;&gt;Node11</title>
<path fill="none" stroke="#191970" d="M1311.3587,-112.4509C1218.9352,-91.9936 1002.0707,-43.9919 901.4753,-21.7258"/>
<polygon fill="#191970" stroke="#191970" points="902.0522,-18.2688 891.5321,-19.5249 900.5393,-25.1034 902.0522,-18.2688"/>
</g>
</g>
</svg>
        <g id="navigator" transform="translate(0 0)" fill="#404254">
                <rect fill="#f2f5e9" fill-opacity="0.5" stroke="#606060" stroke-width=".5" x="0" y="0" width="60" height="60"/>
                <use id="zoomplus" xlink:href="#zoomPlus" x="17" y="9" onmousedown="handleZoom(evt,'in')"/>
                <use id="zoomminus" xlink:href="#zoomMin" x="42" y="9" onmousedown="handleZoom(evt,'out')"/>
                <use id="reset" xlink:href="#resetDef" x="30" y="36" onmousedown="handleReset()"/>
                <g id="arrowUp" xlink:href="#dirArrow" transform="translate(30 24)" onmousedown="handlePan(0,-1)">
                  <use xlink:href="#rim" fill="#404040">
                        <set attributeName="fill" to="#808080" begin="arrowUp.mouseover" end="arrowUp.mouseout"/>
                  </use>
                  <path fill="none" stroke="white" stroke-width="1.5" d="M0,-3.0v7 M-2.5,-0.5L0,-3.0L2.5,-0.5"/>
                </g>
                <g id="arrowRight" xlink:href="#dirArrow" transform="rotate(90) translate(36 -43)" onmousedown="handlePan(1,0)">
                  <use xlink:href="#rim" fill="#404040">
                        <set attributeName="fill" to="#808080" begin="arrowRight.mouseover" end="arrowRight.mouseout"/>
                  </use>
                  <path fill="none" stroke="white" stroke-width="1.5" d="M0,-3.0v7 M-2.5,-0.5L0,-3.0L2.5,-0.5"/>
                </g>
                <g id="arrowDown" xlink:href="#dirArrow" transform="rotate(180) translate(-30 -48)" onmousedown="handlePan(0,1)">
                  <use xlink:href="#rim" fill="#404040">
                        <set attributeName="fill" to="#808080" begin="arrowDown.mouseover" end="arrowDown.mouseout"/>
                  </use>
                  <path fill="none" stroke="white" stroke-width="1.5" d="M0,-3.0v7 M-2.5,-0.5L0,-3.0L2.5,-0.5"/>
                </g>
                <g id="arrowLeft" xlink:href="#dirArrow" transform="rotate(270) translate(-36 17)" onmousedown="handlePan(-1,0)">
                  <use xlink:href="#rim" fill="#404040">
                        <set attributeName="fill" to="#808080" begin="arrowLeft.mouseover" end="arrowLeft.mouseout"/>
                  </use>
                  <path fill="none" stroke="white" stroke-width="1.5" d="M0,-3.0v7 M-2.5,-0.5L0,-3.0L2.5,-0.5"/>
                </g>
        </g>
        <svg viewBox="0 0 15 15" width="100%" height="30px" preserveAspectRatio="xMaxYMin meet">
         <g id="arrow_out" transform="scale(0.3 0.3)">
          <a xlink:href="Window_2Window_8cpp__incl_org.svg" target="_base">
           <rect id="button" ry="5" rx="5" y="6" x="6" height="38" width="38"
                fill="#f2f5e9" fill-opacity="0.5" stroke="#606060" stroke-width="1.0"/>
           <path id="arrow"
             d="M 11.500037,31.436501 C 11.940474,20.09759 22.043105,11.32322 32.158766,21.979434 L 37.068811,17.246167 C 37.068811,17.246167 37.088388,32 37.088388,32 L 22.160133,31.978069 C 22.160133,31.978069 26.997745,27.140456 26.997745,27.140456 C 18.528582,18.264221 13.291696,25.230495 11.500037,31.436501 z"
             style="fill:#404040;"/>
          </a>
         </g>
        </svg>
</svg>
