<?xml version="1.0" encoding="UTF-8" standalone="no"?>
<!DOCTYPE svg PUBLIC "-//W3C//DTD SVG 1.1//EN"
 "http://www.w3.org/Graphics/SVG/1.1/DTD/svg11.dtd">
<!-- Generated by graphviz version 2.40.1 (20161225.0304)
 -->
<!-- Title: include/lug/Window/Android/WindowImplAndroid.hpp Pages: 1 -->
<svg width="2461pt" height="386pt"
 viewBox="0.00 0.00 2460.50 386.00" xmlns="http://www.w3.org/2000/svg" xmlns:xlink="http://www.w3.org/1999/xlink">
<g id="graph0" class="graph" transform="scale(1 1) rotate(0) translate(4 382)">
<title>include/lug/Window/Android/WindowImplAndroid.hpp</title>
<!-- Node0 -->
<g id="node1" class="node">
<title>Node0</title>
<polygon fill="#bfbfbf" stroke="#000000" points="802,-347.5 802,-377.5 987,-377.5 987,-347.5 802,-347.5"/>
<text text-anchor="start" x="810" y="-365.5" font-family="Helvetica,sans-Serif" font-size="10.00" fill="#000000">include/lug/Window</text>
<text text-anchor="middle" x="894.5" y="-354.5" font-family="Helvetica,sans-Serif" font-size="10.00" fill="#000000">/Android/WindowImplAndroid.hpp</text>
</g>
<!-- Node1 -->
<g id="node2" class="node">
<title>Node1</title>
<g id="a_node2"><a xlink:href="Vector_8hpp.html" target="_top" xlink:title="lug/Math/Vector.hpp">
<polygon fill="none" stroke="#000000" points="672,-168.5 672,-187.5 791,-187.5 791,-168.5 672,-168.5"/>
<text text-anchor="middle" x="731.5" y="-175.5" font-family="Helvetica,sans-Serif" font-size="10.00" fill="#000000">lug/Math/Vector.hpp</text>
</a>
</g>
</g>
<!-- Node0&#45;&gt;Node1 -->
<g id="edge1" class="edge">
<title>Node0&#45;&gt;Node1</title>
<path fill="none" stroke="#191970" d="M859.4281,-347.3762C842.0049,-338.6067 821.5237,-326.2665 806.5,-311 773.0309,-276.9901 749.5482,-225.0516 738.5557,-197.2119"/>
<polygon fill="#191970" stroke="#191970" points="741.801,-195.8993 734.9594,-187.8096 735.2629,-198.4001 741.801,-195.8993"/>
</g>
<!-- Node18 -->
<g id="node19" class="node">
<title>Node18</title>
<g id="a_node19"><a xlink:href="Window_2Window_8hpp.html" target="_top" xlink:title="lug/Window/Window.hpp">
<polygon fill="none" stroke="#000000" points="549.5,-291.5 549.5,-310.5 689.5,-310.5 689.5,-291.5 549.5,-291.5"/>
<text text-anchor="middle" x="619.5" y="-298.5" font-family="Helvetica,sans-Serif" font-size="10.00" fill="#000000">lug/Window/Window.hpp</text>
</a>
</g>
</g>
<!-- Node0&#45;&gt;Node18 -->
<g id="edge20" class="edge">
<title>Node0&#45;&gt;Node18</title>
<path fill="none" stroke="#191970" d="M827.2274,-347.4554C779.4311,-336.7664 716.1591,-322.6165 672.0561,-312.7535"/>
<polygon fill="#191970" stroke="#191970" points="672.6381,-309.2972 662.1152,-310.5303 671.1103,-316.1285 672.6381,-309.2972"/>
</g>
<!-- Node30 -->
<g id="node31" class="node">
<title>Node30</title>
<polygon fill="none" stroke="#bfbfbf" points="866,-230 866,-249 959,-249 959,-230 866,-230"/>
<text text-anchor="middle" x="912.5" y="-237" font-family="Helvetica,sans-Serif" font-size="10.00" fill="#000000">android/input.h</text>
</g>
<!-- Node0&#45;&gt;Node30 -->
<g id="edge41" class="edge">
<title>Node0&#45;&gt;Node30</title>
<path fill="none" stroke="#191970" d="M855.6397,-347.3983C828.8201,-334.5338 800.3401,-314.4372 814.5,-291 825.5532,-272.7049 845.4975,-260.5862 864.5219,-252.7303"/>
<polygon fill="#191970" stroke="#191970" points="865.9399,-255.9355 874.0384,-249.1043 863.4475,-249.3942 865.9399,-255.9355"/>
</g>
<!-- Node31 -->
<g id="node32" class="node">
<title>Node31</title>
<polygon fill="none" stroke="#bfbfbf" points="823,-291.5 823,-310.5 966,-310.5 966,-291.5 823,-291.5"/>
<text text-anchor="middle" x="894.5" y="-298.5" font-family="Helvetica,sans-Serif" font-size="10.00" fill="#000000">android/native_window.h</text>
</g>
<!-- Node0&#45;&gt;Node31 -->
<g id="edge42" class="edge">
<title>Node0&#45;&gt;Node31</title>
<path fill="none" stroke="#191970" d="M894.5,-347.2977C894.5,-339.3834 894.5,-329.6043 894.5,-321.0759"/>
<polygon fill="#191970" stroke="#191970" points="898.0001,-320.8469 894.5,-310.8469 891.0001,-320.847 898.0001,-320.8469"/>
</g>
<!-- Node32 -->
<g id="node33" class="node">
<title>Node32</title>
<polygon fill="none" stroke="#bfbfbf" points="984.5,-291.5 984.5,-310.5 1126.5,-310.5 1126.5,-291.5 984.5,-291.5"/>
<text text-anchor="middle" x="1055.5" y="-298.5" font-family="Helvetica,sans-Serif" font-size="10.00" fill="#000000">android/native_activity.h</text>
</g>
<!-- Node0&#45;&gt;Node32 -->
<g id="edge43" class="edge">
<title>Node0&#45;&gt;Node32</title>
<path fill="none" stroke="#191970" d="M933.885,-347.4554C960.5127,-337.284 995.3444,-323.9787 1020.9034,-314.2155"/>
<polygon fill="#191970" stroke="#191970" points="1022.458,-317.3684 1030.5507,-310.5303 1019.9601,-310.8292 1022.458,-317.3684"/>
</g>
<!-- Node33 -->
<g id="node34" class="node">
<title>Node33</title>
<g id="a_node34"><a xlink:href="gestureDetector_8hpp.html" target="_top" xlink:title="gestureDetector.hpp">
<polygon fill="none" stroke="#000000" points="1145,-291.5 1145,-310.5 1264,-310.5 1264,-291.5 1145,-291.5"/>
<text text-anchor="middle" x="1204.5" y="-298.5" font-family="Helvetica,sans-Serif" font-size="10.00" fill="#000000">gestureDetector.hpp</text>
</a>
</g>
</g>
<!-- Node0&#45;&gt;Node33 -->
<g id="edge44" class="edge">
<title>Node0&#45;&gt;Node33</title>
<path fill="none" stroke="#191970" d="M970.3345,-347.4554C1024.6677,-336.6764 1096.7413,-322.3779 1146.5063,-312.5052"/>
<polygon fill="#191970" stroke="#191970" points="1147.3333,-315.9094 1156.461,-310.5303 1145.9711,-309.0432 1147.3333,-315.9094"/>
</g>
<!-- Node39 -->
<g id="node40" class="node">
<title>Node39</title>
<g id="a_node40"><a xlink:href="Logger_8hpp.html" target="_top" xlink:title="lug/System/Logger/Logger.hpp">
<polygon fill="none" stroke="#000000" points="1884.5,-291.5 1884.5,-310.5 2056.5,-310.5 2056.5,-291.5 1884.5,-291.5"/>
<text text-anchor="middle" x="1970.5" y="-298.5" font-family="Helvetica,sans-Serif" font-size="10.00" fill="#000000">lug/System/Logger/Logger.hpp</text>
</a>
</g>
</g>
<!-- Node0&#45;&gt;Node39 -->
<g id="edge53" class="edge">
<title>Node0&#45;&gt;Node39</title>
<path fill="none" stroke="#191970" d="M987.1704,-357.2033C1189.4449,-345.6421 1668.8091,-318.2435 1874.2806,-306.4995"/>
<polygon fill="#191970" stroke="#191970" points="1874.666,-309.9833 1884.45,-305.9183 1874.2665,-302.9947 1874.666,-309.9833"/>
</g>
<!-- Node2 -->
<g id="node3" class="node">
<title>Node2</title>
<polygon fill="none" stroke="#bfbfbf" points="790.5,-56.5 790.5,-75.5 840.5,-75.5 840.5,-56.5 790.5,-56.5"/>
<text text-anchor="middle" x="815.5" y="-63.5" font-family="Helvetica,sans-Serif" font-size="10.00" fill="#000000">cstdint</text>
</g>
<!-- Node1&#45;&gt;Node2 -->
<g id="edge2" class="edge">
<title>Node1&#45;&gt;Node2</title>
<path fill="none" stroke="#191970" d="M751.6215,-168.4453C766.1116,-160.5817 785.0518,-148.1172 796.5,-132 806.1981,-118.3466 810.9738,-99.8082 813.3092,-85.8549"/>
<polygon fill="#191970" stroke="#191970" points="816.7926,-86.2159 814.7063,-75.8285 809.8596,-85.2498 816.7926,-86.2159"/>
</g>
<!-- Node3 -->
<g id="node4" class="node">
<title>Node3</title>
<g id="a_node4"><a xlink:href="Matrix_8hpp.html" target="_top" xlink:title="lug/Math/Matrix.hpp">
<polygon fill="none" stroke="#000000" points="497.5,-112.5 497.5,-131.5 615.5,-131.5 615.5,-112.5 497.5,-112.5"/>
<text text-anchor="middle" x="556.5" y="-119.5" font-family="Helvetica,sans-Serif" font-size="10.00" fill="#000000">lug/Math/Matrix.hpp</text>
</a>
</g>
</g>
<!-- Node1&#45;&gt;Node3 -->
<g id="edge3" class="edge">
<title>Node1&#45;&gt;Node3</title>
<path fill="none" stroke="#191970" d="M701.4164,-168.3733C672.3166,-159.0613 628.0477,-144.8953 596.097,-134.671"/>
<polygon fill="#191970" stroke="#191970" points="596.782,-131.2155 586.191,-131.5011 594.6485,-137.8824 596.782,-131.2155"/>
</g>
<!-- Node17 -->
<g id="node18" class="node">
<title>Node17</title>
<g id="a_node18"><a xlink:href="Vector_8inl.html" target="_top" xlink:title="lug/Math/Vector.inl">
<polygon fill="none" stroke="#000000" points="674,-112.5 674,-131.5 787,-131.5 787,-112.5 674,-112.5"/>
<text text-anchor="middle" x="730.5" y="-119.5" font-family="Helvetica,sans-Serif" font-size="10.00" fill="#000000">lug/Math/Vector.inl</text>
</a>
</g>
</g>
<!-- Node1&#45;&gt;Node17 -->
<g id="edge19" class="edge">
<title>Node1&#45;&gt;Node17</title>
<path fill="none" stroke="#191970" d="M731.3258,-168.2455C731.1953,-160.9382 731.0124,-150.6944 730.8519,-141.7046"/>
<polygon fill="#191970" stroke="#191970" points="734.3503,-141.5786 730.6722,-131.6427 727.3514,-141.7036 734.3503,-141.5786"/>
</g>
<!-- Node3&#45;&gt;Node2 -->
<g id="edge4" class="edge">
<title>Node3&#45;&gt;Node2</title>
<path fill="none" stroke="#191970" d="M609.5188,-112.4687C653.0586,-104.3454 716.5098,-91.8325 780.4632,-76.1113"/>
<polygon fill="#191970" stroke="#191970" points="781.4521,-79.4721 790.3136,-73.6649 779.7648,-72.6784 781.4521,-79.4721"/>
</g>
<!-- Node4 -->
<g id="node5" class="node">
<title>Node4</title>
<polygon fill="none" stroke="#bfbfbf" points="565,-56.5 565,-75.5 624,-75.5 624,-56.5 565,-56.5"/>
<text text-anchor="middle" x="594.5" y="-63.5" font-family="Helvetica,sans-Serif" font-size="10.00" fill="#000000">valarray</text>
</g>
<!-- Node3&#45;&gt;Node4 -->
<g id="edge5" class="edge">
<title>Node3&#45;&gt;Node4</title>
<path fill="none" stroke="#191970" d="M563.1191,-112.2455C568.4046,-104.4564 575.9541,-93.3308 582.3238,-83.9439"/>
<polygon fill="#191970" stroke="#191970" points="585.2379,-85.8827 587.9568,-75.6427 579.4455,-81.9522 585.2379,-85.8827"/>
</g>
<!-- Node5 -->
<g id="node6" class="node">
<title>Node5</title>
<g id="a_node6"><a xlink:href="Math_2Export_8hpp.html" target="_top" xlink:title="lug/Math/Export.hpp">
<polygon fill="none" stroke="#000000" points="297,-56.5 297,-75.5 416,-75.5 416,-56.5 297,-56.5"/>
<text text-anchor="middle" x="356.5" y="-63.5" font-family="Helvetica,sans-Serif" font-size="10.00" fill="#000000">lug/Math/Export.hpp</text>
</a>
</g>
</g>
<!-- Node3&#45;&gt;Node5 -->
<g id="edge6" class="edge">
<title>Node3&#45;&gt;Node5</title>
<path fill="none" stroke="#191970" d="M522.1188,-112.3733C488.4299,-102.9404 436.9518,-88.5265 400.3382,-78.2747"/>
<polygon fill="#191970" stroke="#191970" points="401.006,-74.8271 390.4326,-75.5011 399.1185,-81.5679 401.006,-74.8271"/>
</g>
<!-- Node7 -->
<g id="node8" class="node">
<title>Node7</title>
<g id="a_node8"><a xlink:href="ValArray_8hpp.html" target="_top" xlink:title="lug/Math/ValArray.hpp">
<polygon fill="none" stroke="#000000" points="642.5,-56.5 642.5,-75.5 772.5,-75.5 772.5,-56.5 642.5,-56.5"/>
<text text-anchor="middle" x="707.5" y="-63.5" font-family="Helvetica,sans-Serif" font-size="10.00" fill="#000000">lug/Math/ValArray.hpp</text>
</a>
</g>
</g>
<!-- Node3&#45;&gt;Node7 -->
<g id="edge8" class="edge">
<title>Node3&#45;&gt;Node7</title>
<path fill="none" stroke="#191970" d="M582.4578,-112.3733C607.2407,-103.1822 644.7746,-89.2624 672.254,-79.0713"/>
<polygon fill="#191970" stroke="#191970" points="673.7219,-82.26 681.8809,-75.5011 671.2879,-75.6968 673.7219,-82.26"/>
</g>
<!-- Node13 -->
<g id="node14" class="node">
<title>Node13</title>
<g id="a_node14"><a xlink:href="Debug_8hpp.html" target="_top" xlink:title="lug/System/Debug.hpp">
<polygon fill="none" stroke="#000000" points="71,-56.5 71,-75.5 202,-75.5 202,-56.5 71,-56.5"/>
<text text-anchor="middle" x="136.5" y="-63.5" font-family="Helvetica,sans-Serif" font-size="10.00" fill="#000000">lug/System/Debug.hpp</text>
</a>
</g>
</g>
<!-- Node3&#45;&gt;Node13 -->
<g id="edge14" class="edge">
<title>Node3&#45;&gt;Node13</title>
<path fill="none" stroke="#191970" d="M497.2151,-114.0953C422.4358,-104.1248 293.7673,-86.969 212.0229,-76.0697"/>
<polygon fill="#191970" stroke="#191970" points="212.4215,-72.592 202.0466,-74.7395 211.4963,-79.5306 212.4215,-72.592"/>
</g>
<!-- Node16 -->
<g id="node17" class="node">
<title>Node16</title>
<g id="a_node17"><a xlink:href="Matrix_8inl.html" target="_top" xlink:title="lug/Math/Matrix.inl">
<polygon fill="none" stroke="#000000" points="434.5,-56.5 434.5,-75.5 546.5,-75.5 546.5,-56.5 434.5,-56.5"/>
<text text-anchor="middle" x="490.5" y="-63.5" font-family="Helvetica,sans-Serif" font-size="10.00" fill="#000000">lug/Math/Matrix.inl</text>
</a>
</g>
</g>
<!-- Node3&#45;&gt;Node16 -->
<g id="edge18" class="edge">
<title>Node3&#45;&gt;Node16</title>
<path fill="none" stroke="#191970" d="M545.0037,-112.2455C535.2558,-103.9746 521.0741,-91.9416 509.6202,-82.2232"/>
<polygon fill="#191970" stroke="#191970" points="511.7541,-79.4437 501.8646,-75.6427 507.2253,-84.7813 511.7541,-79.4437"/>
</g>
<!-- Node6 -->
<g id="node7" class="node">
<title>Node6</title>
<g id="a_node7"><a xlink:href="Config_8hpp.html" target="_top" xlink:title="lug/Config.hpp">
<polygon fill="none" stroke="#000000" points="224,-.5 224,-19.5 313,-19.5 313,-.5 224,-.5"/>
<text text-anchor="middle" x="268.5" y="-7.5" font-family="Helvetica,sans-Serif" font-size="10.00" fill="#000000">lug/Config.hpp</text>
</a>
</g>
</g>
<!-- Node5&#45;&gt;Node6 -->
<g id="edge7" class="edge">
<title>Node5&#45;&gt;Node6</title>
<path fill="none" stroke="#191970" d="M341.1716,-56.2455C327.6697,-47.6534 307.7878,-35.0014 292.2314,-25.1018"/>
<polygon fill="#191970" stroke="#191970" points="293.9685,-22.0587 283.6528,-19.6427 290.2103,-27.9643 293.9685,-22.0587"/>
</g>
<!-- Node8 -->
<g id="node9" class="node">
<title>Node8</title>
<polygon fill="none" stroke="#bfbfbf" points="675,-.5 675,-19.5 740,-19.5 740,-.5 675,-.5"/>
<text text-anchor="middle" x="707.5" y="-7.5" font-family="Helvetica,sans-Serif" font-size="10.00" fill="#000000">algorithm</text>
</g>
<!-- Node7&#45;&gt;Node8 -->
<g id="edge9" class="edge">
<title>Node7&#45;&gt;Node8</title>
<path fill="none" stroke="#191970" d="M707.5,-56.2455C707.5,-48.9382 707.5,-38.6944 707.5,-29.7046"/>
<polygon fill="#191970" stroke="#191970" points="711.0001,-29.6426 707.5,-19.6427 704.0001,-29.6427 711.0001,-29.6426"/>
</g>
<!-- Node9 -->
<g id="node10" class="node">
<title>Node9</title>
<polygon fill="none" stroke="#bfbfbf" points="758.5,-.5 758.5,-19.5 802.5,-19.5 802.5,-.5 758.5,-.5"/>
<text text-anchor="middle" x="780.5" y="-7.5" font-family="Helvetica,sans-Serif" font-size="10.00" fill="#000000">array</text>
</g>
<!-- Node7&#45;&gt;Node9 -->
<g id="edge10" class="edge">
<title>Node7&#45;&gt;Node9</title>
<path fill="none" stroke="#191970" d="M720.2156,-56.2455C731.102,-47.8943 746.9883,-35.7076 759.72,-25.9408"/>
<polygon fill="#191970" stroke="#191970" points="762.1261,-28.5063 767.9301,-19.6427 757.8654,-22.9523 762.1261,-28.5063"/>
</g>
<!-- Node10 -->
<g id="node11" class="node">
<title>Node10</title>
<polygon fill="none" stroke="#bfbfbf" points="820.5,-.5 820.5,-19.5 870.5,-19.5 870.5,-.5 820.5,-.5"/>
<text text-anchor="middle" x="845.5" y="-7.5" font-family="Helvetica,sans-Serif" font-size="10.00" fill="#000000">cstring</text>
</g>
<!-- Node7&#45;&gt;Node10 -->
<g id="edge11" class="edge">
<title>Node7&#45;&gt;Node10</title>
<path fill="none" stroke="#191970" d="M731.223,-56.3733C753.6737,-47.2629 787.5739,-33.5062 812.6255,-23.3404"/>
<polygon fill="#191970" stroke="#191970" points="814.1365,-26.5045 822.0865,-19.5011 811.5043,-20.0182 814.1365,-26.5045"/>
</g>
<!-- Node11 -->
<g id="node12" class="node">
<title>Node11</title>
<polygon fill="none" stroke="#bfbfbf" points="457,-.5 457,-19.5 514,-19.5 514,-.5 457,-.5"/>
<text text-anchor="middle" x="485.5" y="-7.5" font-family="Helvetica,sans-Serif" font-size="10.00" fill="#000000">numeric</text>
</g>
<!-- Node7&#45;&gt;Node11 -->
<g id="edge12" class="edge">
<title>Node7&#45;&gt;Node11</title>
<path fill="none" stroke="#191970" d="M668.6968,-56.4468C633.4722,-47.7416 579.8413,-34.406 523.8602,-20.0704"/>
<polygon fill="#191970" stroke="#191970" points="524.6801,-16.6675 514.124,-17.5731 522.9408,-23.448 524.6801,-16.6675"/>
</g>
<!-- Node12 -->
<g id="node13" class="node">
<title>Node12</title>
<g id="a_node13"><a xlink:href="ValArray_8inl.html" target="_top" xlink:title="lug/Math/ValArray.inl">
<polygon fill="none" stroke="#000000" points="532.5,-.5 532.5,-19.5 656.5,-19.5 656.5,-.5 532.5,-.5"/>
<text text-anchor="middle" x="594.5" y="-7.5" font-family="Helvetica,sans-Serif" font-size="10.00" fill="#000000">lug/Math/ValArray.inl</text>
</a>
</g>
</g>
<!-- Node7&#45;&gt;Node12 -->
<g id="edge13" class="edge">
<title>Node7&#45;&gt;Node12</title>
<path fill="none" stroke="#191970" d="M688.0746,-56.3733C670.0979,-47.4644 643.1559,-34.1127 622.791,-24.0203"/>
<polygon fill="#191970" stroke="#191970" points="624.1861,-20.8055 613.6719,-19.5011 621.0778,-27.0776 624.1861,-20.8055"/>
</g>
<!-- Node13&#45;&gt;Node6 -->
<g id="edge15" class="edge">
<title>Node13&#45;&gt;Node6</title>
<path fill="none" stroke="#191970" d="M159.1916,-56.3733C180.5711,-47.3032 212.8057,-33.6279 236.7362,-23.4755"/>
<polygon fill="#191970" stroke="#191970" points="238.2656,-26.6287 246.1045,-19.5011 235.5317,-20.1846 238.2656,-26.6287"/>
</g>
<!-- Node14 -->
<g id="node15" class="node">
<title>Node14</title>
<g id="a_node15"><a xlink:href="Utils_8hpp.html" target="_top" xlink:title="lug/System/Utils.hpp">
<polygon fill="none" stroke="#000000" points="79.5,-.5 79.5,-19.5 201.5,-19.5 201.5,-.5 79.5,-.5"/>
<text text-anchor="middle" x="140.5" y="-7.5" font-family="Helvetica,sans-Serif" font-size="10.00" fill="#000000">lug/System/Utils.hpp</text>
</a>
</g>
</g>
<!-- Node13&#45;&gt;Node14 -->
<g id="edge16" class="edge">
<title>Node13&#45;&gt;Node14</title>
<path fill="none" stroke="#191970" d="M137.1967,-56.2455C137.7187,-48.9382 138.4504,-38.6944 139.0925,-29.7046"/>
<polygon fill="#191970" stroke="#191970" points="142.5898,-29.8667 139.8112,-19.6427 135.6076,-29.3679 142.5898,-29.8667"/>
</g>
<!-- Node15 -->
<g id="node16" class="node">
<title>Node15</title>
<polygon fill="none" stroke="#bfbfbf" points="0,-.5 0,-19.5 61,-19.5 61,-.5 0,-.5"/>
<text text-anchor="middle" x="30.5" y="-7.5" font-family="Helvetica,sans-Serif" font-size="10.00" fill="#000000">iostream</text>
</g>
<!-- Node13&#45;&gt;Node15 -->
<g id="edge17" class="edge">
<title>Node13&#45;&gt;Node15</title>
<path fill="none" stroke="#191970" d="M118.0362,-56.2455C101.3926,-47.4527 76.7007,-34.4079 57.7808,-24.4125"/>
<polygon fill="#191970" stroke="#191970" points="59.2291,-21.2193 48.7522,-19.6427 55.9592,-27.4086 59.2291,-21.2193"/>
</g>
<!-- Node18&#45;&gt;Node1 -->
<g id="edge25" class="edge">
<title>Node18&#45;&gt;Node1</title>
<path fill="none" stroke="#191970" d="M619.5422,-291.3553C620.1013,-275.5663 623.3338,-243.9653 639.5,-224 651.7313,-208.8943 670.1927,-198.3182 687.3754,-191.1506"/>
<polygon fill="#191970" stroke="#191970" points="688.688,-194.3956 696.7421,-187.5122 686.1533,-187.8706 688.688,-194.3956"/>
</g>
<!-- Node19 -->
<g id="node20" class="node">
<title>Node19</title>
<polygon fill="none" stroke="#bfbfbf" points="1691,-168.5 1691,-187.5 1750,-187.5 1750,-168.5 1691,-168.5"/>
<text text-anchor="middle" x="1720.5" y="-175.5" font-family="Helvetica,sans-Serif" font-size="10.00" fill="#000000">memory</text>
</g>
<!-- Node18&#45;&gt;Node19 -->
<g id="edge21" class="edge">
<title>Node18&#45;&gt;Node19</title>
<path fill="none" stroke="#191970" d="M655.0086,-291.4588C684.5223,-283.1029 727.3774,-269.9771 763.5,-255 791.2269,-243.5039 794.5248,-231.8343 823.5,-224 906.9056,-201.4489 1518.2263,-183.4667 1680.8543,-179.0452"/>
<polygon fill="#191970" stroke="#191970" points="1681.0052,-182.5425 1690.9071,-178.7736 1680.8162,-175.545 1681.0052,-182.5425"/>
</g>
<!-- Node20 -->
<g id="node21" class="node">
<title>Node20</title>
<polygon fill="none" stroke="#bfbfbf" points="648,-230 648,-249 695,-249 695,-230 648,-230"/>
<text text-anchor="middle" x="671.5" y="-237" font-family="Helvetica,sans-Serif" font-size="10.00" fill="#000000">queue</text>
</g>
<!-- Node18&#45;&gt;Node20 -->
<g id="edge22" class="edge">
<title>Node18&#45;&gt;Node20</title>
<path fill="none" stroke="#191970" d="M627.625,-291.3906C635.3642,-282.2376 647.1987,-268.2409 656.6272,-257.09"/>
<polygon fill="#191970" stroke="#191970" points="659.4765,-259.1409 663.2604,-249.2449 654.1311,-254.6213 659.4765,-259.1409"/>
</g>
<!-- Node21 -->
<g id="node22" class="node">
<title>Node21</title>
<polygon fill="none" stroke="#bfbfbf" points="1804,-168.5 1804,-187.5 1849,-187.5 1849,-168.5 1804,-168.5"/>
<text text-anchor="middle" x="1826.5" y="-175.5" font-family="Helvetica,sans-Serif" font-size="10.00" fill="#000000">string</text>
</g>
<!-- Node18&#45;&gt;Node21 -->
<g id="edge23" class="edge">
<title>Node18&#45;&gt;Node21</title>
<path fill="none" stroke="#191970" d="M678.6091,-291.4914C716.4205,-284.2159 765.984,-272.4295 807.5,-255 831.6084,-244.8787 832.5013,-231.663 857.5,-224 1049.2953,-165.2077 1559.7821,-206.834 1759.5,-188 1770.7688,-186.9373 1783.0342,-185.2603 1793.9541,-183.5811"/>
<polygon fill="#191970" stroke="#191970" points="1794.6106,-187.0207 1803.935,-181.9904 1793.5088,-180.1079 1794.6106,-187.0207"/>
</g>
<!-- Node22 -->
<g id="node23" class="node">
<title>Node22</title>
<polygon fill="none" stroke="#bfbfbf" points="1275,-168.5 1275,-187.5 1370,-187.5 1370,-168.5 1275,-168.5"/>
<text text-anchor="middle" x="1322.5" y="-175.5" font-family="Helvetica,sans-Serif" font-size="10.00" fill="#000000">unordered_map</text>
</g>
<!-- Node18&#45;&gt;Node22 -->
<g id="edge24" class="edge">
<title>Node18&#45;&gt;Node22</title>
<path fill="none" stroke="#191970" d="M637.9032,-291.4682C674.5046,-272.6778 755.4887,-231.9799 785.5,-224 874.6855,-200.2858 1145.2446,-185.8061 1264.728,-180.4091"/>
<polygon fill="#191970" stroke="#191970" points="1264.9481,-183.9029 1274.7821,-179.9604 1264.6359,-176.9098 1264.9481,-183.9029"/>
</g>
<!-- Node23 -->
<g id="node24" class="node">
<title>Node23</title>
<g id="a_node24"><a xlink:href="Event_8hpp.html" target="_top" xlink:title="lug/Window/Event.hpp">
<polygon fill="none" stroke="#000000" points="462,-230 462,-249 591,-249 591,-230 462,-230"/>
<text text-anchor="middle" x="526.5" y="-237" font-family="Helvetica,sans-Serif" font-size="10.00" fill="#000000">lug/Window/Event.hpp</text>
</a>
</g>
</g>
<!-- Node18&#45;&gt;Node23 -->
<g id="edge26" class="edge">
<title>Node18&#45;&gt;Node23</title>
<path fill="none" stroke="#191970" d="M604.9688,-291.3906C590.0906,-281.5519 566.7496,-266.1167 549.3872,-254.6351"/>
<polygon fill="#191970" stroke="#191970" points="551.201,-251.6385 540.9292,-249.0419 547.3398,-257.4773 551.201,-251.6385"/>
</g>
<!-- Node25 -->
<g id="node26" class="node">
<title>Node25</title>
<g id="a_node26"><a xlink:href="Window_2Export_8hpp.html" target="_top" xlink:title="lug/Window/Export.hpp">
<polygon fill="none" stroke="#000000" points="317.5,-112.5 317.5,-131.5 451.5,-131.5 451.5,-112.5 317.5,-112.5"/>
<text text-anchor="middle" x="384.5" y="-119.5" font-family="Helvetica,sans-Serif" font-size="10.00" fill="#000000">lug/Window/Export.hpp</text>
</a>
</g>
</g>
<!-- Node18&#45;&gt;Node25 -->
<g id="edge36" class="edge">
<title>Node18&#45;&gt;Node25</title>
<path fill="none" stroke="#191970" d="M549.4583,-297.9473C468.9867,-293.2191 343.0656,-281.7036 304.5,-255 269.9548,-231.0802 243.8407,-202.7242 267.5,-168 275.9743,-155.5624 309.2728,-143.1757 338.19,-134.3946"/>
<polygon fill="#191970" stroke="#191970" points="339.1876,-137.7495 347.7865,-131.56 337.2046,-131.0362 339.1876,-137.7495"/>
</g>
<!-- Node26 -->
<g id="node27" class="node">
<title>Node26</title>
<g id="a_node27"><a xlink:href="Keyboard_8hpp.html" target="_top" xlink:title="lug/Window/Keyboard.hpp">
<polygon fill="none" stroke="#000000" points="277,-168.5 277,-187.5 426,-187.5 426,-168.5 277,-168.5"/>
<text text-anchor="middle" x="351.5" y="-175.5" font-family="Helvetica,sans-Serif" font-size="10.00" fill="#000000">lug/Window/Keyboard.hpp</text>
</a>
</g>
</g>
<!-- Node18&#45;&gt;Node26 -->
<g id="edge37" class="edge">
<title>Node18&#45;&gt;Node26</title>
<path fill="none" stroke="#191970" d="M549.3807,-295.2491C463.8519,-287.5108 328.703,-272.6592 313.5,-255 298.0371,-237.0388 316.436,-211.6891 332.6019,-195.0552"/>
<polygon fill="#191970" stroke="#191970" points="335.4751,-197.1429 340.2004,-187.6602 330.5929,-192.1265 335.4751,-197.1429"/>
</g>
<!-- Node28 -->
<g id="node29" class="node">
<title>Node28</title>
<g id="a_node29"><a xlink:href="WindowHandle_8hpp.html" target="_top" xlink:title="lug/Window/WindowHandle.hpp">
<polygon fill="none" stroke="#000000" points="124,-112.5 124,-131.5 299,-131.5 299,-112.5 124,-112.5"/>
<text text-anchor="middle" x="211.5" y="-119.5" font-family="Helvetica,sans-Serif" font-size="10.00" fill="#000000">lug/Window/WindowHandle.hpp</text>
</a>
</g>
</g>
<!-- Node18&#45;&gt;Node28 -->
<g id="edge38" class="edge">
<title>Node18&#45;&gt;Node28</title>
<path fill="none" stroke="#191970" d="M549.2653,-295.6194C452.745,-287.6571 288.4785,-271.8518 266.5,-255 230.2797,-227.2284 217.746,-171.3747 213.5375,-141.6531"/>
<polygon fill="#191970" stroke="#191970" points="217.0018,-141.1489 212.3001,-131.6546 210.0548,-142.0087 217.0018,-141.1489"/>
</g>
<!-- Node29 -->
<g id="node30" class="node">
<title>Node29</title>
<g id="a_node30"><a xlink:href="Style_8inl.html" target="_top" xlink:title="lug/Window/Style.inl">
<polygon fill="none" stroke="#000000" points="323,-230 323,-249 444,-249 444,-230 323,-230"/>
<text text-anchor="middle" x="383.5" y="-237" font-family="Helvetica,sans-Serif" font-size="10.00" fill="#000000">lug/Window/Style.inl</text>
</a>
</g>
</g>
<!-- Node18&#45;&gt;Node29 -->
<g id="edge40" class="edge">
<title>Node18&#45;&gt;Node29</title>
<path fill="none" stroke="#191970" d="M582.8839,-291.4581C541.7189,-280.7308 474.7899,-263.2895 429.9709,-251.61"/>
<polygon fill="#191970" stroke="#191970" points="430.7614,-248.1992 420.202,-249.0643 428.9962,-254.973 430.7614,-248.1992"/>
</g>
<!-- Node23&#45;&gt;Node1 -->
<g id="edge35" class="edge">
<title>Node23&#45;&gt;Node1</title>
<path fill="none" stroke="#191970" d="M558.5313,-229.8906C593.8846,-219.2846 650.9157,-202.1753 689.7478,-190.5257"/>
<polygon fill="#191970" stroke="#191970" points="691.1212,-193.7678 699.6937,-187.5419 689.1097,-187.0631 691.1212,-193.7678"/>
</g>
<!-- Node23&#45;&gt;Node2 -->
<g id="edge27" class="edge">
<title>Node23&#45;&gt;Node2</title>
<path fill="none" stroke="#191970" d="M543.4943,-229.8973C559.5853,-220.3786 583.9722,-204.8194 602.5,-188 634.9852,-158.5102 628.9971,-136.3408 665.5,-112 667.977,-110.3483 737.0671,-89.4874 780.6054,-76.4323"/>
<polygon fill="#191970" stroke="#191970" points="781.6962,-79.7593 790.2709,-73.5364 779.6871,-73.0538 781.6962,-79.7593"/>
</g>
<!-- Node24 -->
<g id="node25" class="node">
<title>Node24</title>
<polygon fill="none" stroke="#bfbfbf" points="905.5,-168.5 905.5,-187.5 953.5,-187.5 953.5,-168.5 905.5,-168.5"/>
<text text-anchor="middle" x="929.5" y="-175.5" font-family="Helvetica,sans-Serif" font-size="10.00" fill="#000000">vector</text>
</g>
<!-- Node23&#45;&gt;Node24 -->
<g id="edge28" class="edge">
<title>Node23&#45;&gt;Node24</title>
<path fill="none" stroke="#191970" d="M589.0266,-229.9581C675.0681,-216.8277 827.0242,-193.6384 894.9766,-183.2685"/>
<polygon fill="#191970" stroke="#191970" points="895.7808,-186.6863 905.1383,-181.7177 894.7247,-179.7665 895.7808,-186.6863"/>
</g>
<!-- Node23&#45;&gt;Node25 -->
<g id="edge29" class="edge">
<title>Node23&#45;&gt;Node25</title>
<path fill="none" stroke="#191970" d="M544.8262,-229.9113C568.455,-216.307 604.4898,-190.5471 586.5,-168 570.8127,-148.3387 511.9712,-136.4305 461.8123,-129.6723"/>
<polygon fill="#191970" stroke="#191970" points="461.9527,-126.1614 451.586,-128.348 461.0536,-133.1034 461.9527,-126.1614"/>
</g>
<!-- Node23&#45;&gt;Node26 -->
<g id="edge31" class="edge">
<title>Node23&#45;&gt;Node26</title>
<path fill="none" stroke="#191970" d="M499.1563,-229.8906C469.3618,-219.42 421.5315,-202.6111 388.4192,-190.9745"/>
<polygon fill="#191970" stroke="#191970" points="389.2466,-187.5554 378.6517,-187.5419 386.9257,-194.1595 389.2466,-187.5554"/>
</g>
<!-- Node27 -->
<g id="node28" class="node">
<title>Node27</title>
<g id="a_node28"><a xlink:href="Mouse_8hpp.html" target="_top" xlink:title="lug/Window/Mouse.hpp">
<polygon fill="none" stroke="#000000" points="444,-168.5 444,-187.5 577,-187.5 577,-168.5 444,-168.5"/>
<text text-anchor="middle" x="510.5" y="-175.5" font-family="Helvetica,sans-Serif" font-size="10.00" fill="#000000">lug/Window/Mouse.hpp</text>
</a>
</g>
</g>
<!-- Node23&#45;&gt;Node27 -->
<g id="edge33" class="edge">
<title>Node23&#45;&gt;Node27</title>
<path fill="none" stroke="#191970" d="M524,-229.8906C521.7588,-221.276 518.4014,-208.3708 515.5955,-197.5858"/>
<polygon fill="#191970" stroke="#191970" points="518.9404,-196.5414 513.0352,-187.7449 512.1659,-198.304 518.9404,-196.5414"/>
</g>
<!-- Node25&#45;&gt;Node6 -->
<g id="edge30" class="edge">
<title>Node25&#45;&gt;Node6</title>
<path fill="none" stroke="#191970" d="M347.1046,-112.4732C326.8159,-105.5026 302.8236,-94.0407 287.5,-76 276.5364,-63.0924 271.8898,-44.1916 269.9254,-29.9209"/>
<polygon fill="#191970" stroke="#191970" points="273.3749,-29.2543 268.8557,-19.6717 266.4128,-29.9811 273.3749,-29.2543"/>
</g>
<!-- Node26&#45;&gt;Node25 -->
<g id="edge32" class="edge">
<title>Node26&#45;&gt;Node25</title>
<path fill="none" stroke="#191970" d="M357.2482,-168.2455C361.7435,-160.617 368.1248,-149.7881 373.5825,-140.5267"/>
<polygon fill="#191970" stroke="#191970" points="376.7561,-142.035 378.8177,-131.6427 370.7253,-138.4811 376.7561,-142.035"/>
</g>
<!-- Node27&#45;&gt;Node25 -->
<g id="edge34" class="edge">
<title>Node27&#45;&gt;Node25</title>
<path fill="none" stroke="#191970" d="M488.8398,-168.3733C468.5228,-159.3435 437.936,-145.7494 415.125,-135.6111"/>
<polygon fill="#191970" stroke="#191970" points="416.4372,-132.3642 405.8775,-131.5011 413.5941,-138.7609 416.4372,-132.3642"/>
</g>
<!-- Node28&#45;&gt;Node6 -->
<g id="edge39" class="edge">
<title>Node28&#45;&gt;Node6</title>
<path fill="none" stroke="#191970" d="M216.3598,-112.4509C225.7826,-93.936 246.6878,-52.8591 258.9735,-28.7187"/>
<polygon fill="#191970" stroke="#191970" points="262.2361,-30.0246 263.6525,-19.5249 255.9975,-26.8496 262.2361,-30.0246"/>
</g>
<!-- Node33&#45;&gt;Node1 -->
<g id="edge52" class="edge">
<title>Node33&#45;&gt;Node1</title>
<path fill="none" stroke="#191970" d="M1147.1671,-291.4818C1096.3267,-282.4159 1026.3898,-268.2279 1001.5,-255 983.7305,-245.5562 986.4143,-233.1661 968.5,-224 939.8411,-209.3363 860.2411,-195.7077 801.1536,-187.1518"/>
<polygon fill="#191970" stroke="#191970" points="801.5129,-183.6677 791.1185,-185.7186 800.5232,-190.5974 801.5129,-183.6677"/>
</g>
<!-- Node33&#45;&gt;Node24 -->
<g id="edge45" class="edge">
<title>Node33&#45;&gt;Node24</title>
<path fill="none" stroke="#191970" d="M1156.3761,-291.4692C1124.0298,-284.018 1080.9887,-272.0422 1045.5,-255 1023.9359,-244.6446 1021.3622,-237.3319 1001.5,-224 985.7392,-213.421 967.7441,-201.9241 953.6868,-193.0703"/>
<polygon fill="#191970" stroke="#191970" points="955.4116,-190.0207 945.0808,-187.6701 951.6909,-195.95 955.4116,-190.0207"/>
</g>
<!-- Node33&#45;&gt;Node30 -->
<g id="edge50" class="edge">
<title>Node33&#45;&gt;Node30</title>
<path fill="none" stroke="#191970" d="M1152.5004,-291.4494C1105.5744,-282.6398 1034.7185,-268.8632 973.5,-255 968.7543,-253.9253 963.8139,-252.7555 958.89,-251.5562"/>
<polygon fill="#191970" stroke="#191970" points="959.4225,-248.0823 948.8742,-249.074 957.7386,-254.8768 959.4225,-248.0823"/>
</g>
<!-- Node34 -->
<g id="node35" class="node">
<title>Node34</title>
<polygon fill="none" stroke="#bfbfbf" points="1187,-230 1187,-249 1288,-249 1288,-230 1187,-230"/>
<text text-anchor="middle" x="1237.5" y="-237" font-family="Helvetica,sans-Serif" font-size="10.00" fill="#000000">android/sensor.h</text>
</g>
<!-- Node33&#45;&gt;Node34 -->
<g id="edge46" class="edge">
<title>Node33&#45;&gt;Node34</title>
<path fill="none" stroke="#191970" d="M1209.6563,-291.3906C1214.4232,-282.5068 1221.6385,-269.0601 1227.5297,-258.0811"/>
<polygon fill="#191970" stroke="#191970" points="1230.6269,-259.7114 1232.2711,-249.2449 1224.4588,-256.4016 1230.6269,-259.7114"/>
</g>
<!-- Node35 -->
<g id="node36" class="node">
<title>Node35</title>
<polygon fill="none" stroke="#bfbfbf" points="1306,-230 1306,-249 1389,-249 1389,-230 1306,-230"/>
<text text-anchor="middle" x="1347.5" y="-237" font-family="Helvetica,sans-Serif" font-size="10.00" fill="#000000">android/log.h</text>
</g>
<!-- Node33&#45;&gt;Node35 -->
<g id="edge47" class="edge">
<title>Node33&#45;&gt;Node35</title>
<path fill="none" stroke="#191970" d="M1226.8438,-291.3906C1250.7703,-281.1005 1288.9309,-264.6888 1315.9216,-253.0809"/>
<polygon fill="#191970" stroke="#191970" points="1317.5095,-256.208 1325.3131,-249.0419 1314.7439,-249.7775 1317.5095,-256.208"/>
</g>
<!-- Node36 -->
<g id="node37" class="node">
<title>Node36</title>
<polygon fill="none" stroke="#bfbfbf" points="1407,-224.5 1407,-254.5 1540,-254.5 1540,-224.5 1407,-224.5"/>
<text text-anchor="start" x="1415" y="-242.5" font-family="Helvetica,sans-Serif" font-size="10.00" fill="#000000">android/native_window</text>
<text text-anchor="middle" x="1473.5" y="-231.5" font-family="Helvetica,sans-Serif" font-size="10.00" fill="#000000">_jni.h</text>
</g>
<!-- Node33&#45;&gt;Node36 -->
<g id="edge48" class="edge">
<title>Node33&#45;&gt;Node36</title>
<path fill="none" stroke="#191970" d="M1246.2361,-291.4581C1286.6189,-282.2256 1348.7544,-268.0199 1397.8547,-256.7944"/>
<polygon fill="#191970" stroke="#191970" points="1398.8374,-260.1601 1407.8058,-254.5193 1397.2772,-253.3362 1398.8374,-260.1601"/>
</g>
<!-- Node37 -->
<g id="node38" class="node">
<title>Node37</title>
<polygon fill="none" stroke="#bfbfbf" points="1558.5,-230 1558.5,-249 1692.5,-249 1692.5,-230 1558.5,-230"/>
<text text-anchor="middle" x="1625.5" y="-237" font-family="Helvetica,sans-Serif" font-size="10.00" fill="#000000">android/configuration.h</text>
</g>
<!-- Node33&#45;&gt;Node37 -->
<g id="edge49" class="edge">
<title>Node33&#45;&gt;Node37</title>
<path fill="none" stroke="#191970" d="M1264.2107,-294.2999C1333.1454,-286.2729 1449.8415,-271.7861 1549.5,-255 1556.6209,-253.8006 1564.0933,-252.4235 1571.4575,-250.9959"/>
<polygon fill="#191970" stroke="#191970" points="1572.2594,-254.4052 1581.3893,-249.0297 1570.9,-247.5384 1572.2594,-254.4052"/>
</g>
<!-- Node38 -->
<g id="node39" class="node">
<title>Node38</title>
<polygon fill="none" stroke="#bfbfbf" points="1054,-230 1054,-249 1169,-249 1169,-230 1054,-230"/>
<text text-anchor="middle" x="1111.5" y="-237" font-family="Helvetica,sans-Serif" font-size="10.00" fill="#000000">android/keycodes.h</text>
</g>
<!-- Node33&#45;&gt;Node38 -->
<g id="edge51" class="edge">
<title>Node33&#45;&gt;Node38</title>
<path fill="none" stroke="#191970" d="M1189.9688,-291.3906C1175.0906,-281.5519 1151.7496,-266.1167 1134.3872,-254.6351"/>
<polygon fill="#191970" stroke="#191970" points="1136.201,-251.6385 1125.9292,-249.0419 1132.3398,-257.4773 1136.201,-251.6385"/>
</g>
<!-- Node39&#45;&gt;Node19 -->
<g id="edge54" class="edge">
<title>Node39&#45;&gt;Node19</title>
<path fill="none" stroke="#191970" d="M1884.3871,-293.2832C1828.0637,-286.4983 1761.2196,-274.5763 1740.5,-255 1725.0174,-240.3717 1720.9307,-215.4243 1720.1284,-197.8993"/>
<polygon fill="#191970" stroke="#191970" points="1723.6246,-197.5892 1719.9887,-187.6378 1716.6252,-197.6845 1723.6246,-197.5892"/>
</g>
<!-- Node39&#45;&gt;Node21 -->
<g id="edge56" class="edge">
<title>Node39&#45;&gt;Node21</title>
<path fill="none" stroke="#191970" d="M1965.3078,-291.4C1956.4204,-275.6751 1936.9614,-244.1643 1913.5,-224 1897.2101,-209.9994 1875.9382,-198.6561 1858.506,-190.7367"/>
<polygon fill="#191970" stroke="#191970" points="1859.8368,-187.4987 1849.2726,-186.6942 1857.0293,-193.911 1859.8368,-187.4987"/>
</g>
<!-- Node40 -->
<g id="node41" class="node">
<title>Node40</title>
<polygon fill="none" stroke="#bfbfbf" points="2420.5,-230 2420.5,-249 2452.5,-249 2452.5,-230 2420.5,-230"/>
<text text-anchor="middle" x="2436.5" y="-237" font-family="Helvetica,sans-Serif" font-size="10.00" fill="#000000">set</text>
</g>
<!-- Node39&#45;&gt;Node40 -->
<g id="edge55" class="edge">
<title>Node39&#45;&gt;Node40</title>
<path fill="none" stroke="#191970" d="M2056.518,-295.7127C2164.4405,-288.4223 2343.0644,-273.9993 2406.5,-255 2408.1602,-254.5028 2409.8371,-253.9137 2411.5045,-253.2605"/>
<polygon fill="#191970" stroke="#191970" points="2413.1387,-256.3617 2420.7716,-249.0139 2410.2225,-249.9981 2413.1387,-256.3617"/>
</g>
<!-- Node41 -->
<g id="node42" class="node">
<title>Node41</title>
<g id="a_node42"><a xlink:href="System_2Export_8hpp.html" target="_top" xlink:title="lug/System/Export.hpp">
<polygon fill="none" stroke="#000000" points="1871.5,-112.5 1871.5,-131.5 2003.5,-131.5 2003.5,-112.5 1871.5,-112.5"/>
<text text-anchor="middle" x="1937.5" y="-119.5" font-family="Helvetica,sans-Serif" font-size="10.00" fill="#000000">lug/System/Export.hpp</text>
</a>
</g>
</g>
<!-- Node39&#45;&gt;Node41 -->
<g id="edge57" class="edge">
<title>Node39&#45;&gt;Node41</title>
<path fill="none" stroke="#191970" d="M1968.7258,-291.3762C1963.5107,-263.0883 1948.1556,-179.7987 1941.1091,-141.5767"/>
<polygon fill="#191970" stroke="#191970" points="1944.5381,-140.8711 1939.283,-131.6714 1937.6541,-142.1403 1944.5381,-140.8711"/>
</g>
<!-- Node42 -->
<g id="node43" class="node">
<title>Node42</title>
<g id="a_node43"><a xlink:href="Common_8hpp.html" target="_top" xlink:title="lug/System/Logger/Common.hpp">
<polygon fill="none" stroke="#000000" points="2182.5,-168.5 2182.5,-187.5 2364.5,-187.5 2364.5,-168.5 2182.5,-168.5"/>
<text text-anchor="middle" x="2273.5" y="-175.5" font-family="Helvetica,sans-Serif" font-size="10.00" fill="#000000">lug/System/Logger/Common.hpp</text>
</a>
</g>
</g>
<!-- Node39&#45;&gt;Node42 -->
<g id="edge59" class="edge">
<title>Node39&#45;&gt;Node42</title>
<path fill="none" stroke="#191970" d="M2056.9708,-297.1543C2169.0863,-291.2654 2352.8117,-278.1841 2373.5,-255 2382.6733,-244.72 2380.9329,-235.6008 2373.5,-224 2363.453,-208.3194 2346.5639,-197.9113 2329.4979,-191.0336"/>
<polygon fill="#191970" stroke="#191970" points="2330.6345,-187.7226 2320.0409,-187.5649 2328.224,-194.2945 2330.6345,-187.7226"/>
</g>
<!-- Node45 -->
<g id="node46" class="node">
<title>Node45</title>
<g id="a_node46"><a xlink:href="LoggingFacility_8hpp.html" target="_top" xlink:title="lug/System/Logger/Logging\lFacility.hpp">
<polygon fill="none" stroke="#000000" points="1749,-224.5 1749,-254.5 1904,-254.5 1904,-224.5 1749,-224.5"/>
<text text-anchor="start" x="1757" y="-242.5" font-family="Helvetica,sans-Serif" font-size="10.00" fill="#000000">lug/System/Logger/Logging</text>
<text text-anchor="middle" x="1826.5" y="-231.5" font-family="Helvetica,sans-Serif" font-size="10.00" fill="#000000">Facility.hpp</text>
</a>
</g>
</g>
<!-- Node39&#45;&gt;Node45 -->
<g id="edge63" class="edge">
<title>Node39&#45;&gt;Node45</title>
<path fill="none" stroke="#191970" d="M1948,-291.3906C1927.5189,-282.6435 1896.6803,-269.4728 1871.1978,-258.5897"/>
<polygon fill="#191970" stroke="#191970" points="1872.2975,-255.2535 1861.7264,-254.5446 1869.5481,-261.691 1872.2975,-255.2535"/>
</g>
<!-- Node46 -->
<g id="node47" class="node">
<title>Node46</title>
<g id="a_node47"><a xlink:href="Message_8hpp.html" target="_top" xlink:title="lug/System/Logger/Message.hpp">
<polygon fill="none" stroke="#000000" points="2183,-230 2183,-249 2364,-249 2364,-230 2183,-230"/>
<text text-anchor="middle" x="2273.5" y="-237" font-family="Helvetica,sans-Serif" font-size="10.00" fill="#000000">lug/System/Logger/Message.hpp</text>
</a>
</g>
</g>
<!-- Node39&#45;&gt;Node46 -->
<g id="edge68" class="edge">
<title>Node39&#45;&gt;Node46</title>
<path fill="none" stroke="#191970" d="M2017.5113,-291.4581C2071.1402,-280.573 2158.8276,-262.7751 2216.3562,-251.0985"/>
<polygon fill="#191970" stroke="#191970" points="2217.2745,-254.4836 2226.3784,-249.0643 2215.882,-247.6234 2217.2745,-254.4836"/>
</g>
<!-- Node47 -->
<g id="node48" class="node">
<title>Node47</title>
<g id="a_node48"><a xlink:href="Logger_8inl.html" target="_top" xlink:title="lug/System/Logger/Logger.inl">
<polygon fill="none" stroke="#000000" points="1998.5,-230 1998.5,-249 2164.5,-249 2164.5,-230 1998.5,-230"/>
<text text-anchor="middle" x="2081.5" y="-237" font-family="Helvetica,sans-Serif" font-size="10.00" fill="#000000">lug/System/Logger/Logger.inl</text>
</a>
</g>
</g>
<!-- Node39&#45;&gt;Node47 -->
<g id="edge70" class="edge">
<title>Node39&#45;&gt;Node47</title>
<path fill="none" stroke="#191970" d="M1987.8438,-291.3906C2005.9273,-281.3713 2034.4859,-265.5483 2055.3165,-254.0071"/>
<polygon fill="#191970" stroke="#191970" points="2057.2271,-256.9498 2064.278,-249.0419 2053.8346,-250.8268 2057.2271,-256.9498"/>
</g>
<!-- Node41&#45;&gt;Node6 -->
<g id="edge58" class="edge">
<title>Node41&#45;&gt;Node6</title>
<path fill="none" stroke="#191970" d="M1871.3015,-117.5577C1599.6044,-99.3252 572.6789,-30.4122 323.3104,-13.6781"/>
<polygon fill="#191970" stroke="#191970" points="323.2627,-10.1671 313.0508,-12.9896 322.794,-17.1514 323.2627,-10.1671"/>
</g>
<!-- Node42&#45;&gt;Node41 -->
<g id="edge60" class="edge">
<title>Node42&#45;&gt;Node41</title>
<path fill="none" stroke="#191970" d="M2216.1213,-168.4369C2157.5303,-158.6717 2066.6244,-143.5207 2004.7034,-133.2006"/>
<polygon fill="#191970" stroke="#191970" points="2005.0814,-129.7154 1994.642,-131.5237 2003.9305,-136.6201 2005.0814,-129.7154"/>
</g>
<!-- Node43 -->
<g id="node44" class="node">
<title>Node43</title>
<polygon fill="none" stroke="#bfbfbf" points="2284.5,-112.5 2284.5,-131.5 2366.5,-131.5 2366.5,-112.5 2284.5,-112.5"/>
<text text-anchor="middle" x="2325.5" y="-119.5" font-family="Helvetica,sans-Serif" font-size="10.00" fill="#000000">fmt/format.h</text>
</g>
<!-- Node42&#45;&gt;Node43 -->
<g id="edge61" class="edge">
<title>Node42&#45;&gt;Node43</title>
<path fill="none" stroke="#191970" d="M2282.5577,-168.2455C2290.0142,-160.2155 2300.7634,-148.6394 2309.6417,-139.0781"/>
<polygon fill="#191970" stroke="#191970" points="2312.3063,-141.3522 2316.5461,-131.6427 2307.1768,-136.589 2312.3063,-141.3522"/>
</g>
<!-- Node44 -->
<g id="node45" class="node">
<title>Node44</title>
<polygon fill="none" stroke="#bfbfbf" points="2177,-112.5 2177,-131.5 2266,-131.5 2266,-112.5 2177,-112.5"/>
<text text-anchor="middle" x="2221.5" y="-119.5" font-family="Helvetica,sans-Serif" font-size="10.00" fill="#000000">fmt/ostream.h</text>
</g>
<!-- Node42&#45;&gt;Node44 -->
<g id="edge62" class="edge">
<title>Node42&#45;&gt;Node44</title>
<path fill="none" stroke="#191970" d="M2264.4423,-168.2455C2256.9858,-160.2155 2246.2366,-148.6394 2237.3583,-139.0781"/>
<polygon fill="#191970" stroke="#191970" points="2239.8232,-136.589 2230.4539,-131.6427 2234.6937,-141.3522 2239.8232,-136.589"/>
</g>
<!-- Node45&#45;&gt;Node19 -->
<g id="edge65" class="edge">
<title>Node45&#45;&gt;Node19</title>
<path fill="none" stroke="#191970" d="M1800.5695,-224.4554C1783.9691,-214.8241 1762.5256,-202.3828 1746.0083,-192.7996"/>
<polygon fill="#191970" stroke="#191970" points="1747.3323,-189.5214 1736.9262,-187.5303 1743.8194,-195.5761 1747.3323,-189.5214"/>
</g>
<!-- Node45&#45;&gt;Node21 -->
<g id="edge64" class="edge">
<title>Node45&#45;&gt;Node21</title>
<path fill="none" stroke="#191970" d="M1826.5,-224.2977C1826.5,-216.3834 1826.5,-206.6043 1826.5,-198.0759"/>
<polygon fill="#191970" stroke="#191970" points="1830.0001,-197.8469 1826.5,-187.8469 1823.0001,-197.847 1830.0001,-197.8469"/>
</g>
<!-- Node45&#45;&gt;Node22 -->
<g id="edge66" class="edge">
<title>Node45&#45;&gt;Node22</title>
<path fill="none" stroke="#191970" d="M1748.8218,-229.8362C1733.1558,-227.8962 1716.8019,-225.8773 1701.5,-224 1587.6154,-210.028 1454.4511,-193.9183 1380.1549,-184.9506"/>
<polygon fill="#191970" stroke="#191970" points="1380.4175,-181.457 1370.0702,-183.7336 1379.5788,-188.4066 1380.4175,-181.457"/>
</g>
<!-- Node45&#45;&gt;Node41 -->
<g id="edge67" class="edge">
<title>Node45&#45;&gt;Node41</title>
<path fill="none" stroke="#191970" d="M1841.0113,-224.1389C1861.828,-202.1032 1900.0269,-161.6675 1921.5912,-138.8403"/>
<polygon fill="#191970" stroke="#191970" points="1924.1464,-141.2323 1928.4693,-131.5595 1919.0579,-136.4253 1924.1464,-141.2323"/>
</g>
<!-- Node46&#45;&gt;Node42 -->
<g id="edge69" class="edge">
<title>Node46&#45;&gt;Node42</title>
<path fill="none" stroke="#191970" d="M2273.5,-229.8906C2273.5,-221.3657 2273.5,-208.6392 2273.5,-197.9235"/>
<polygon fill="#191970" stroke="#191970" points="2277.0001,-197.7448 2273.5,-187.7449 2270.0001,-197.7449 2277.0001,-197.7448"/>
</g>
</g>
</svg>
