<svg id="mermaidChart0" width="1200" height="1259.5533498759305" viewBox="-60 -10 1080 1128" style="width: 1192; height: 1259.5533498759305;" version="1.1" xmlns="http://www.w3.org/2000/svg" xmlns:xlink="http://www.w3.org/1999/xlink"><style type="text/css" title="mermaid-svg-internal-css">/* Flowchart variables */
/* Sequence Diagram variables */
/* Gantt chart variables */
.mermaid .label {
  color: #333;
}
.node rect,
.node circle,
.node ellipse,
.node polygon {
  fill: #ECECFF;
  stroke: #CCCCFF;
  stroke-width: 1px;
}
.edgePath .path {
  stroke: #333333;
}
.edgeLabel {
  background-color: #e8e8e8;
}
.cluster rect {
  fill: #ffffde !important;
  rx: 4 !important;
  stroke: #aaaa33 !important;
  stroke-width: 1px !important;
}
.cluster text {
  fill: #333;
}
.actor {
  stroke: #CCCCFF;
  fill: #ECECFF;
}
text.actor {
  fill: black;
  stroke: none;
}
.actor-line {
  stroke: grey;
}
.messageLine0 {
  stroke-width: 1.5;
  stroke-dasharray: "2 2";
  marker-end: "url(#arrowhead)";
  stroke: #333;
}
.messageLine1 {
  stroke-width: 1.5;
  stroke-dasharray: "2 2";
  stroke: #333;
}
#arrowhead {
  fill: #333;
}
#crosshead path {
  fill: #333 !important;
  stroke: #333 !important;
}
.messageText {
  fill: #333;
  stroke: none;
}
.labelBox {
  stroke: #CCCCFF;
  fill: #ECECFF;
}
.labelText {
  fill: black;
  stroke: none;
}
.loopText {
  fill: black;
  stroke: none;
}
.loopLine {
  stroke-width: 2;
  stroke-dasharray: "2 2";
  marker-end: "url(#arrowhead)";
  stroke: #CCCCFF;
}
.note {
  stroke: #aaaa33;
  fill: #fff5ad;
}
.noteText {
  fill: black;
  stroke: none;
  font-family: 'trebuchet ms', verdana, arial;
  font-size: 14px;
}
/** Section styling */
.section {
  stroke: none;
  opacity: 0.2;
}
.section0 {
  fill: rgba(102, 102, 255, 0.49);
}
.section2 {
  fill: #fff400;
}
.section1,
.section3 {
  fill: white;
  opacity: 0.2;
}
.sectionTitle0 {
  fill: #333;
}
.sectionTitle1 {
  fill: #333;
}
.sectionTitle2 {
  fill: #333;
}
.sectionTitle3 {
  fill: #333;
}
.sectionTitle {
  text-anchor: start;
  font-size: 11px;
  text-height: 14px;
}
/* Grid and axis */
.grid .tick {
  stroke: lightgrey;
  opacity: 0.3;
  shape-rendering: crispEdges;
}
.grid path {
  stroke-width: 0;
}
/* Today line */
.today {
  fill: none;
  stroke: red;
  stroke-width: 2px;
}
/* Task styling */
/* Default task */
.task {
  stroke-width: 2;
}
.taskText {
  text-anchor: middle;
  font-size: 11px;
}
.taskTextOutsideRight {
  fill: black;
  text-anchor: start;
  font-size: 11px;
}
.taskTextOutsideLeft {
  fill: black;
  text-anchor: end;
  font-size: 11px;
}
/* Specific task settings for the sections*/
.taskText0,
.taskText1,
.taskText2,
.taskText3 {
  fill: white;
}
.task0,
.task1,
.task2,
.task3 {
  fill: #8a90dd;
  stroke: #534fbc;
}
.taskTextOutside0,
.taskTextOutside2 {
  fill: black;
}
.taskTextOutside1,
.taskTextOutside3 {
  fill: black;
}
/* Active task */
.active0,
.active1,
.active2,
.active3 {
  fill: #bfc7ff;
  stroke: #534fbc;
}
.activeText0,
.activeText1,
.activeText2,
.activeText3 {
  fill: black !important;
}
/* Completed task */
.done0,
.done1,
.done2,
.done3 {
  stroke: grey;
  fill: lightgrey;
  stroke-width: 2;
}
.doneText0,
.doneText1,
.doneText2,
.doneText3 {
  fill: black !important;
}
/* Tasks on the critical line */
.crit0,
.crit1,
.crit2,
.crit3 {
  stroke: #ff8888;
  fill: red;
  stroke-width: 2;
}
.activeCrit0,
.activeCrit1,
.activeCrit2,
.activeCrit3 {
  stroke: #ff8888;
  fill: #bfc7ff;
  stroke-width: 2;
}
.doneCrit0,
.doneCrit1,
.doneCrit2,
.doneCrit3 {
  stroke: #ff8888;
  fill: lightgrey;
  stroke-width: 2;
  cursor: pointer;
  shape-rendering: crispEdges;
}
.doneCritText0,
.doneCritText1,
.doneCritText2,
.doneCritText3 {
  fill: black !important;
}
.activeCritText0,
.activeCritText1,
.activeCritText2,
.activeCritText3 {
  fill: black !important;
}
.titleText {
  text-anchor: middle;
  font-size: 18px;
  fill: black;
}
/*


*/
.node text {
  font-family: 'trebuchet ms', verdana, arial;
  font-size: 14px;
}
div.mermaidTooltip {
  position: absolute;
  text-align: center;
  max-width: 200px;
  padding: 2px;
  font-family: 'trebuchet ms', verdana, arial;
  font-size: 12px;
  background: #ffffde;
  border: 1px solid #aaaa33;
  border-radius: 2px;
  pointer-events: none;
  z-index: 100;
}
</style><g/><g><line id="actor0" x1="75" y1="5" x2="75" y2="1117" class="actor-line" stroke-width="0.5px" stroke="#999"/><rect x="0" y="0" fill="#eaeaea" stroke="#666" width="150" height="65" rx="3" ry="3" class="actor"/><text x="75" y="32.5" dominant-baseline="central" alignment-baseline="central" class="actor" style="text-anchor: middle;"><tspan x="75" dy="0">UserApplication</tspan></text></g><g><line id="actor1" x1="275" y1="5" x2="275" y2="1117" class="actor-line" stroke-width="0.5px" stroke="#999"/><rect x="200" y="0" fill="#eaeaea" stroke="#666" width="150" height="65" rx="3" ry="3" class="actor"/><text x="275" y="32.5" dominant-baseline="central" alignment-baseline="central" class="actor" style="text-anchor: middle;"><tspan x="275" dy="0">Application</tspan></text></g><g><line id="actor2" x1="475" y1="5" x2="475" y2="1117" class="actor-line" stroke-width="0.5px" stroke="#999"/><rect x="400" y="0" fill="#eaeaea" stroke="#666" width="150" height="65" rx="3" ry="3" class="actor"/><text x="475" y="32.5" dominant-baseline="central" alignment-baseline="central" class="actor" style="text-anchor: middle;"><tspan x="475" dy="0">Renderer</tspan></text></g><g><line id="actor3" x1="675" y1="5" x2="675" y2="1117" class="actor-line" stroke-width="0.5px" stroke="#999"/><rect x="600" y="0" fill="#eaeaea" stroke="#666" width="150" height="65" rx="3" ry="3" class="actor"/><text x="675" y="32.5" dominant-baseline="central" alignment-baseline="central" class="actor" style="text-anchor: middle;"><tspan x="675" dy="0">RenderWindow</tspan></text></g><g><line id="actor4" x1="875" y1="5" x2="875" y2="1117" class="actor-line" stroke-width="0.5px" stroke="#999"/><rect x="800" y="0" fill="#eaeaea" stroke="#666" width="150" height="65" rx="3" ry="3" class="actor"/><text x="875" y="32.5" dominant-baseline="central" alignment-baseline="central" class="actor" style="text-anchor: middle;"><tspan x="875" dy="0">RenderTarget</tspan></text></g><defs><marker id="arrowhead" refX="5" refY="2" markerWidth="6" markerHeight="4" orient="auto"><path d="M 0,0 V 4 L6,2 Z"/></marker></defs><defs><marker id="crosshead" markerWidth="15" markerHeight="8" orient="auto" refX="16" refY="4"><path fill="black" stroke="#000000" stroke-width="1px" d="M 9,2 V 6 L16,4 Z" style="stroke-dasharray: 0px, 0px;"/><path fill="none" stroke="#000000" stroke-width="1px" d="M 0,1 L 6,7 M 6,1 L 0,7" style="stroke-dasharray: 0px, 0px;"/></marker></defs><g><text x="175" y="93" class="messageText" style="text-anchor: middle;">run()</text><line x1="75" y1="100" x2="275" y2="100" class="messageLine0" stroke-width="2" stroke="black" marker-end="url(#arrowhead)" style="fill: none;"/></g><g><rect x="270" y="102" fill="#f4f4f4" stroke="#666" width="10" height="930" rx="0" ry="0"/></g><g><text x="477.5" y="178" class="messageText" style="text-anchor: middle;">pollEvent()</text><line x1="280" y1="185" x2="675" y2="185" class="messageLine0" stroke-width="2" stroke="black" marker-end="url(#arrowhead)" style="fill: none;"/></g><g><rect x="670" y="187" fill="#f4f4f4" stroke="#666" width="10" height="33" rx="0" ry="0"/></g><g><text x="475" y="213" class="messageText" style="text-anchor: middle;"/><line x1="670" y1="220" x2="280" y2="220" class="messageLine1" stroke-width="2" stroke="black" marker-end="url(#arrowhead)" style="stroke-dasharray: 3px, 3px; fill: none;"/></g><g><text x="172.5" y="248" class="messageText" style="text-anchor: middle;">onEvent(Event)</text><line x1="270" y1="255" x2="75" y2="255" class="messageLine0" stroke-width="2" stroke="black" marker-end="url(#arrowhead)" style="fill: none;"/></g><g><rect x="70" y="257" fill="#f4f4f4" stroke="#666" width="10" height="33" rx="0" ry="0"/></g><g><text x="175" y="283" class="messageText" style="text-anchor: middle;"/><line x1="80" y1="290" x2="270" y2="290" class="messageLine1" stroke-width="2" stroke="black" marker-end="url(#arrowhead)" style="stroke-dasharray: 3px, 3px; fill: none;"/></g><g><line x1="60" y1="135" x2="690" y2="135" stroke-width="2" stroke="#526e52" class="loopLine"/><line x1="690" y1="135" x2="690" y2="300" stroke-width="2" stroke="#526e52" class="loopLine"/><line x1="60" y1="300" x2="690" y2="300" stroke-width="2" stroke="#526e52" class="loopLine"/><line x1="60" y1="135" x2="60" y2="300" stroke-width="2" stroke="#526e52" class="loopLine"/><rect x="60" y="135" fill="#526e52" stroke="none" width="50" height="20" rx="0" ry="0" class="labelBox"/><text x="67.5" y="150" fill="white" class="labelText"><tspan x="67.5">loop</tspan></text><text x="375" y="150" fill="black" class="loopText" style="text-anchor: middle;"><tspan x="375">[ while there is an event ]</tspan></text></g><g><text x="377.5" y="328" class="messageText" style="text-anchor: middle;">beginFrame()</text><line x1="280" y1="335" x2="475" y2="335" class="messageLine0" stroke-width="2" stroke="black" marker-end="url(#arrowhead)" style="fill: none;"/></g><g><rect x="470" y="337" fill="#f4f4f4" stroke="#666" width="10" height="165" rx="0" ry="0"/></g><g><text x="577.5" y="363" class="messageText" style="text-anchor: middle;">beginFrame()</text><line x1="480" y1="370" x2="675" y2="370" class="messageLine0" stroke-width="2" stroke="black" marker-end="url(#arrowhead)" style="fill: none;"/></g><g><rect x="670" y="372" fill="#f4f4f4" stroke="#666" width="10" height="95" rx="0" ry="0"/></g><g><rect x="700" y="380" fill="#EDF2AE" stroke="#666" width="150" height="52" rx="0" ry="0" class="note"/><text x="716" y="403" fill="black" class="noteText"><tspan x="716">Get the next</tspan><tspan dy="16" x="716">image</tspan></text></g><g><text x="575" y="460" class="messageText" style="text-anchor: middle;"/><line x1="670" y1="467" x2="480" y2="467" class="messageLine1" stroke-width="2" stroke="black" marker-end="url(#arrowhead)" style="stroke-dasharray: 3px, 3px; fill: none;"/></g><g><text x="375" y="495" class="messageText" style="text-anchor: middle;"/><line x1="470" y1="502" x2="280" y2="502" class="messageLine1" stroke-width="2" stroke="black" marker-end="url(#arrowhead)" style="stroke-dasharray: 3px, 3px; fill: none;"/></g><g><text x="172.5" y="530" class="messageText" style="text-anchor: middle;">onFrame()</text><line x1="270" y1="537" x2="75" y2="537" class="messageLine0" stroke-width="2" stroke="black" marker-end="url(#arrowhead)" style="fill: none;"/></g><g><rect x="70" y="539" fill="#f4f4f4" stroke="#666" width="10" height="79" rx="0" ry="0"/></g><g><rect x="0" y="547" fill="#EDF2AE" stroke="#666" width="150" height="36" rx="0" ry="0" class="note"/><text x="16" y="570" fill="black" class="noteText"><tspan x="16">Update the logic</tspan></text></g><g><text x="175" y="611" class="messageText" style="text-anchor: middle;"/><line x1="80" y1="618" x2="270" y2="618" class="messageLine1" stroke-width="2" stroke="black" marker-end="url(#arrowhead)" style="stroke-dasharray: 3px, 3px; fill: none;"/></g><g><text x="377.5" y="646" class="messageText" style="text-anchor: middle;">endFrame()</text><line x1="280" y1="653" x2="475" y2="653" class="messageLine0" stroke-width="2" stroke="black" marker-end="url(#arrowhead)" style="fill: none;"/></g><g><rect x="470" y="655" fill="#f4f4f4" stroke="#666" width="10" height="332" rx="0" ry="0"/></g><g><text x="677.5" y="706" class="messageText" style="text-anchor: middle;">render()</text><line x1="480" y1="713" x2="875" y2="713" class="messageLine0" stroke-width="2" stroke="black" marker-end="url(#arrowhead)" style="fill: none;"/></g><g><rect x="870" y="715" fill="#f4f4f4" stroke="#666" width="10" height="111" rx="0" ry="0"/></g><g><rect x="800" y="723" fill="#EDF2AE" stroke="#666" width="150" height="68" rx="0" ry="0" class="note"/><text x="816" y="746" fill="black" class="noteText"><tspan x="816">Render the target</tspan><tspan dy="16" x="816">(detailed in an</tspan><tspan dy="16" x="816">other diagram)</tspan></text></g><g><text x="675" y="819" class="messageText" style="text-anchor: middle;"/><line x1="870" y1="826" x2="480" y2="826" class="messageLine1" stroke-width="2" stroke="black" marker-end="url(#arrowhead)" style="stroke-dasharray: 3px, 3px; fill: none;"/></g><g><line x1="460" y1="663" x2="960" y2="663" stroke-width="2" stroke="#526e52" class="loopLine"/><line x1="960" y1="663" x2="960" y2="836" stroke-width="2" stroke="#526e52" class="loopLine"/><line x1="460" y1="836" x2="960" y2="836" stroke-width="2" stroke="#526e52" class="loopLine"/><line x1="460" y1="663" x2="460" y2="836" stroke-width="2" stroke="#526e52" class="loopLine"/><rect x="460" y="663" fill="#526e52" stroke="none" width="50" height="20" rx="0" ry="0" class="labelBox"/><text x="467.5" y="678" fill="white" class="labelText"><tspan x="467.5">loop</tspan></text><text x="710" y="678" fill="black" class="loopText" style="text-anchor: middle;"><tspan x="710">[ for all render targets to draw ]</tspan></text></g><g><text x="577.5" y="864" class="messageText" style="text-anchor: middle;">endFrame()</text><line x1="480" y1="871" x2="675" y2="871" class="messageLine0" stroke-width="2" stroke="black" marker-end="url(#arrowhead)" style="fill: none;"/></g><g><rect x="670" y="873" fill="#f4f4f4" stroke="#666" width="10" height="79" rx="0" ry="0"/></g><g><rect x="700" y="881" fill="#EDF2AE" stroke="#666" width="150" height="36" rx="0" ry="0" class="note"/><text x="716" y="904" fill="black" class="noteText"><tspan x="716">Present the image</tspan></text></g><g><text x="575" y="945" class="messageText" style="text-anchor: middle;"/><line x1="670" y1="952" x2="480" y2="952" class="messageLine1" stroke-width="2" stroke="black" marker-end="url(#arrowhead)" style="stroke-dasharray: 3px, 3px; fill: none;"/></g><g><text x="375" y="980" class="messageText" style="text-anchor: middle;"/><line x1="470" y1="987" x2="280" y2="987" class="messageLine1" stroke-width="2" stroke="black" marker-end="url(#arrowhead)" style="stroke-dasharray: 3px, 3px; fill: none;"/></g><g><line x1="-10" y1="110" x2="970" y2="110" stroke-width="2" stroke="#526e52" class="loopLine"/><line x1="970" y1="110" x2="970" y2="997" stroke-width="2" stroke="#526e52" class="loopLine"/><line x1="-10" y1="997" x2="970" y2="997" stroke-width="2" stroke="#526e52" class="loopLine"/><line x1="-10" y1="110" x2="-10" y2="997" stroke-width="2" stroke="#526e52" class="loopLine"/><rect x="-10" y="110" fill="#526e52" stroke="none" width="50" height="20" rx="0" ry="0" class="labelBox"/><text x="-2.5" y="125" fill="white" class="labelText"><tspan x="-2.5">loop</tspan></text><text x="480" y="125" fill="black" class="loopText" style="text-anchor: middle;"><tspan x="480">[ mainLoop ]</tspan></text></g><g><text x="172.5" y="1025" class="messageText" style="text-anchor: middle;"/><line x1="270" y1="1032" x2="75" y2="1032" class="messageLine1" stroke-width="2" stroke="black" marker-end="url(#arrowhead)" style="stroke-dasharray: 3px, 3px; fill: none;"/></g><g><rect x="0" y="1052" fill="#eaeaea" stroke="#666" width="150" height="65" rx="3" ry="3" class="actor"/><text x="75" y="1084.5" dominant-baseline="central" alignment-baseline="central" class="actor" style="text-anchor: middle;"><tspan x="75" dy="0">UserApplication</tspan></text></g><g><rect x="200" y="1052" fill="#eaeaea" stroke="#666" width="150" height="65" rx="3" ry="3" class="actor"/><text x="275" y="1084.5" dominant-baseline="central" alignment-baseline="central" class="actor" style="text-anchor: middle;"><tspan x="275" dy="0">Application</tspan></text></g><g><rect x="400" y="1052" fill="#eaeaea" stroke="#666" width="150" height="65" rx="3" ry="3" class="actor"/><text x="475" y="1084.5" dominant-baseline="central" alignment-baseline="central" class="actor" style="text-anchor: middle;"><tspan x="475" dy="0">Renderer</tspan></text></g><g><rect x="600" y="1052" fill="#eaeaea" stroke="#666" width="150" height="65" rx="3" ry="3" class="actor"/><text x="675" y="1084.5" dominant-baseline="central" alignment-baseline="central" class="actor" style="text-anchor: middle;"><tspan x="675" dy="0">RenderWindow</tspan></text></g><g><rect x="800" y="1052" fill="#eaeaea" stroke="#666" width="150" height="65" rx="3" ry="3" class="actor"/><text x="875" y="1084.5" dominant-baseline="central" alignment-baseline="central" class="actor" style="text-anchor: middle;"><tspan x="875" dy="0">RenderTarget</tspan></text></g></svg>
