<?xml version="1.0" encoding="UTF-8" standalone="no"?>
<svg
   xmlns:dc="http://purl.org/dc/elements/1.1/"
   xmlns:cc="http://creativecommons.org/ns#"
   xmlns:rdf="http://www.w3.org/1999/02/22-rdf-syntax-ns#"
   xmlns:svg="http://www.w3.org/2000/svg"
   xmlns="http://www.w3.org/2000/svg"
   viewBox="0 0 674.66669 580"
   height="580"
   width="674.66669"
   xml:space="preserve"
   id="svg2"
   version="1.1"><metadata
     id="metadata8"><rdf:RDF><cc:Work
         rdf:about=""><dc:format>image/svg+xml</dc:format><dc:type
           rdf:resource="http://purl.org/dc/dcmitype/StillImage" /></cc:Work></rdf:RDF></metadata><defs
     id="defs6" /><g
     transform="matrix(1.3333333,0,0,-1.3333333,0,580)"
     id="g10"><g
       id="g12"><path
         id="path14"
         style="fill:#ffffff;fill-opacity:1;fill-rule:nonzero;stroke:none"
         d="M 36,399 H 470 V 36 H 36 Z" /><path
         id="path16"
         style="fill:#e3f3ff;fill-opacity:1;fill-rule:nonzero;stroke:#000000;stroke-width:1;stroke-linecap:butt;stroke-linejoin:miter;stroke-miterlimit:10;stroke-dasharray:none;stroke-opacity:1"
         d="m 45,246.5 h 120 v -35 H 45 Z" /><text
         id="text20"
         style="font-variant:normal;font-weight:normal;font-size:11.00024414px;font-family:'Open Sans';-inkscape-font-specification:OpenSans;writing-mode:lr-tb;fill:#000000;fill-opacity:1;fill-rule:nonzero;stroke:none"
         transform="matrix(1,0,0,-1,58,226.19922)"><tspan
           id="tspan18"
           y="0"
           x="0 6.7431498 12.749283 19.492432 26.224581 32.230717 36.718815 39.721882 42.724949 49.468098 55.46323 65.957466 71.963593 76.451698 82.457832 85.449898">Render::Camera A</tspan></text>
<path
         id="path22"
         style="fill:#ffbe6c;fill-opacity:1;fill-rule:nonzero;stroke:#000000;stroke-width:1;stroke-linecap:butt;stroke-linejoin:miter;stroke-miterlimit:10;stroke-dasharray:none;stroke-opacity:1"
         d="m 45,211.5 h 120 v -24 H 45 Z" /><text
         id="text26"
         style="font-variant:normal;font-weight:normal;font-size:11.00024414px;font-family:'Open Sans';-inkscape-font-specification:OpenSans;writing-mode:lr-tb;fill:#000000;fill-opacity:1;fill-rule:nonzero;stroke:none"
         transform="matrix(1,0,0,-1,61,196.69922)"><tspan
           id="tspan24"
           y="0"
           x="0 6.7431498 12.749283 19.492432 26.224581 32.230717 36.718815 39.721882 42.724949 51.712147 58.455296 64.461433 71.204582 77.199715 80.19178">Render::Queue A</tspan></text>
<path
         id="path28"
         style="fill:#e3f3ff;fill-opacity:1;fill-rule:nonzero;stroke:#000000;stroke-width:1;stroke-linecap:butt;stroke-linejoin:miter;stroke-miterlimit:10;stroke-dasharray:none;stroke-opacity:1"
         d="m 114,151.5 h 130 v -37 H 114 Z" /><text
         id="text32"
         style="font-variant:normal;font-weight:normal;font-size:11.00024414px;font-family:'Open Sans';-inkscape-font-specification:OpenSans;writing-mode:lr-tb;fill:#000000;fill-opacity:1;fill-rule:nonzero;stroke:none"
         transform="matrix(1,0,0,-1,163.5,130.19922)"><tspan
           id="tspan30"
           y="0"
           x="0 5.9951329 11.231249 17.237383 23.980532">Scene</tspan></text>
<path
         id="path34"
         style="fill:none;stroke:#000000;stroke-width:1;stroke-linecap:butt;stroke-linejoin:miter;stroke-miterlimit:10;stroke-dasharray:none;stroke-opacity:1"
         d="m 142,187.945 c 0,0 0,-30.359 0,-30.359" /><path
         id="path36"
         style="fill:#000000;fill-opacity:1;fill-rule:nonzero;stroke:#000000;stroke-width:1;stroke-linecap:butt;stroke-linejoin:miter;stroke-miterlimit:10;stroke-dasharray:none;stroke-opacity:1"
         d="m 144.102,157.586 -2.102,-6 -2.102,6 z" /><path
         id="path38"
         style="fill:#ffbe6c;fill-opacity:1;fill-rule:nonzero;stroke:#000000;stroke-width:1;stroke-linecap:butt;stroke-linejoin:miter;stroke-miterlimit:10;stroke-dasharray:none;stroke-opacity:1"
         d="m 40,77.5 h 130 v -37 H 40 Z" /><text
         id="text42"
         style="font-variant:normal;font-weight:normal;font-size:11.00024414px;font-family:'Open Sans';-inkscape-font-specification:OpenSans;writing-mode:lr-tb;fill:#000000;fill-opacity:1;fill-rule:nonzero;stroke:none"
         transform="matrix(1,0,0,-1,61,56.199219)"><tspan
           id="tspan40"
           y="0"
           x="0 6.7431498 12.749283 19.492432 26.224581 32.230717 36.718815 39.721882 42.724949 51.712147 58.455296 64.461433 71.204582 77.199715 80.19178">Render::Queue A</tspan></text>
<path
         id="path44"
         style="fill:none;stroke:#000000;stroke-width:1;stroke-linecap:butt;stroke-linejoin:miter;stroke-miterlimit:10;stroke-dasharray:none;stroke-opacity:1"
         d="m 142,114.328 c 0,0 0,-30.66 0,-30.66" /><path
         id="path46"
         style="fill:#000000;fill-opacity:1;fill-rule:nonzero;stroke:#000000;stroke-width:1;stroke-linecap:butt;stroke-linejoin:miter;stroke-miterlimit:10;stroke-dasharray:none;stroke-opacity:1"
         d="m 144.102,83.668 -2.102,-6 -2.102,6 z" /><path
         id="path48"
         style="fill:#ecfbbc;fill-opacity:1;fill-rule:nonzero;stroke:#000000;stroke-width:1;stroke-linecap:butt;stroke-linejoin:miter;stroke-miterlimit:10;stroke-dasharray:none;stroke-opacity:1"
         d="m 188,77.5 h 130 v -37 H 188 Z" /><text
         id="text52"
         style="font-variant:normal;font-weight:normal;font-size:11.00024414px;font-family:'Open Sans';-inkscape-font-specification:OpenSans;writing-mode:lr-tb;fill:#000000;fill-opacity:1;fill-rule:nonzero;stroke:none"
         transform="matrix(1,0,0,-1,209,56.199219)"><tspan
           id="tspan50"
           y="0"
           x="0 6.7431498 12.749283 19.492432 26.224581 32.230717 36.718815 39.721882 42.724949 51.712147 58.455296 64.461433 71.204582 77.199715 80.19178">Render::Queue B</tspan></text>
<path
         id="path54"
         style="fill:none;stroke:#000000;stroke-width:1;stroke-linecap:butt;stroke-linejoin:miter;stroke-miterlimit:10;stroke-dasharray:none;stroke-opacity:1"
         d="m 216,114.328 c 0,0 0,-30.66 0,-30.66" /><path
         id="path56"
         style="fill:#000000;fill-opacity:1;fill-rule:nonzero;stroke:#000000;stroke-width:1;stroke-linecap:butt;stroke-linejoin:miter;stroke-miterlimit:10;stroke-dasharray:none;stroke-opacity:1"
         d="m 218.102,83.668 -2.102,-6 -2.102,6 z" /><path
         id="path58"
         style="fill:#e3f3ff;fill-opacity:1;fill-rule:nonzero;stroke:#000000;stroke-width:1;stroke-linecap:butt;stroke-linejoin:miter;stroke-miterlimit:10;stroke-dasharray:none;stroke-opacity:1"
         d="m 193,246.5 h 120 v -35 H 193 Z" /><text
         id="text62"
         style="font-variant:normal;font-weight:normal;font-size:11.00024414px;font-family:'Open Sans';-inkscape-font-specification:OpenSans;writing-mode:lr-tb;fill:#000000;fill-opacity:1;fill-rule:nonzero;stroke:none"
         transform="matrix(1,0,0,-1,206,226.19922)"><tspan
           id="tspan60"
           y="0"
           x="0 6.7431498 12.749283 19.492432 26.224581 32.230717 36.718815 39.721882 42.724949 49.468098 55.46323 65.957466 71.963593 76.451698 82.457832 85.449898">Render::Camera B</tspan></text>
<path
         id="path64"
         style="fill:#ecfbbc;fill-opacity:1;fill-rule:nonzero;stroke:#000000;stroke-width:1;stroke-linecap:butt;stroke-linejoin:miter;stroke-miterlimit:10;stroke-dasharray:none;stroke-opacity:1"
         d="m 193,211.5 h 120 v -24 H 193 Z" /><text
         id="text68"
         style="font-variant:normal;font-weight:normal;font-size:11.00024414px;font-family:'Open Sans';-inkscape-font-specification:OpenSans;writing-mode:lr-tb;fill:#000000;fill-opacity:1;fill-rule:nonzero;stroke:none"
         transform="matrix(1,0,0,-1,209,196.69922)"><tspan
           id="tspan66"
           y="0"
           x="0 6.7431498 12.749283 19.492432 26.224581 32.230717 36.718815 39.721882 42.724949 51.712147 58.455296 64.461433 71.204582 77.199715 80.19178">Render::Queue B</tspan></text>
<path
         id="path70"
         style="fill:none;stroke:#000000;stroke-width:1;stroke-linecap:butt;stroke-linejoin:miter;stroke-miterlimit:10;stroke-dasharray:none;stroke-opacity:1"
         d="m 216,187.945 c 0,0 0,-30.359 0,-30.359" /><path
         id="path72"
         style="fill:#000000;fill-opacity:1;fill-rule:nonzero;stroke:#000000;stroke-width:1;stroke-linecap:butt;stroke-linejoin:miter;stroke-miterlimit:10;stroke-dasharray:none;stroke-opacity:1"
         d="m 218.102,157.586 -2.102,-6 -2.102,6 z" /><path
         id="path74"
         style="fill:#e3f3ff;fill-opacity:1;fill-rule:nonzero;stroke:#000000;stroke-width:1;stroke-linecap:butt;stroke-linejoin:miter;stroke-miterlimit:10;stroke-dasharray:none;stroke-opacity:1"
         d="m 40,320.5 h 130 v -37 H 40 Z" /><text
         id="text78"
         style="font-variant:normal;font-weight:normal;font-size:11.00024414px;font-family:'Open Sans';-inkscape-font-specification:OpenSans;writing-mode:lr-tb;fill:#000000;fill-opacity:1;fill-rule:nonzero;stroke:none"
         transform="matrix(1,0,0,-1,65.5,299.19922)"><tspan
           id="tspan76"
           y="0"
           x="0 6.7431498 12.749283 19.492432 26.224581 32.230717 36.718815 39.721882 42.724949 49.468098 52.460163 58.466297 67.453499 70.445564">Render::View A</tspan></text>
<path
         id="path80"
         style="fill:none;stroke:#000000;stroke-width:1;stroke-linecap:butt;stroke-linejoin:miter;stroke-miterlimit:10;stroke-dasharray:none;stroke-opacity:1"
         d="m 105,283.246 c 0,0 0,-30.094 0,-30.094" /><path
         id="path82"
         style="fill:#000000;fill-opacity:1;fill-rule:nonzero;stroke:#000000;stroke-width:1;stroke-linecap:butt;stroke-linejoin:miter;stroke-miterlimit:10;stroke-dasharray:none;stroke-opacity:1"
         d="m 107.102,253.152 -2.102,-6 -2.102,6 z" /><path
         id="path84"
         style="fill:#e3f3ff;fill-opacity:1;fill-rule:nonzero;stroke:#000000;stroke-width:1;stroke-linecap:butt;stroke-linejoin:miter;stroke-miterlimit:10;stroke-dasharray:none;stroke-opacity:1"
         d="m 188,320.5 h 130 v -37 H 188 Z" /><text
         id="text88"
         style="font-variant:normal;font-weight:normal;font-size:11.00024414px;font-family:'Open Sans';-inkscape-font-specification:OpenSans;writing-mode:lr-tb;fill:#000000;fill-opacity:1;fill-rule:nonzero;stroke:none"
         transform="matrix(1,0,0,-1,213.5,299.19922)"><tspan
           id="tspan86"
           y="0"
           x="0 6.7431498 12.749283 19.492432 26.224581 32.230717 36.718815 39.721882 42.724949 49.468098 52.460163 58.466297 67.453499 70.445564">Render::View B</tspan></text>
<path
         id="path90"
         style="fill:none;stroke:#000000;stroke-width:1;stroke-linecap:butt;stroke-linejoin:miter;stroke-miterlimit:10;stroke-dasharray:none;stroke-opacity:1"
         d="m 253,283.246 c 0,0 0,-30.094 0,-30.094" /><path
         id="path92"
         style="fill:#000000;fill-opacity:1;fill-rule:nonzero;stroke:#000000;stroke-width:1;stroke-linecap:butt;stroke-linejoin:miter;stroke-miterlimit:10;stroke-dasharray:none;stroke-opacity:1"
         d="m 255.102,253.152 -2.102,-6 -2.102,6 z" /><path
         id="path94"
         style="fill:#eeeeee;fill-opacity:1;fill-rule:nonzero;stroke:#000000;stroke-width:1;stroke-linecap:butt;stroke-linejoin:miter;stroke-miterlimit:10;stroke-dasharray:none;stroke-opacity:1"
         d="m 336,320.5 h 130 v -37 H 336 Z" /><text
         id="text100"
         style="font-variant:normal;font-weight:normal;font-size:11.00024414px;font-family:'Open Sans';-inkscape-font-specification:OpenSans;writing-mode:lr-tb;fill:#000000;fill-opacity:1;fill-rule:nonzero;stroke:none"
         transform="matrix(1,0,0,-1,362,305.19922)"><tspan
           id="tspan96"
           y="0"
           x="0 6.7431498 12.749283 19.492432 26.224581 32.230717 36.718815 39.721882 42.724949 49.468098 52.460163 58.466297 67.453499 70.445564">Render::View C</tspan><tspan
           id="tspan98"
           y="12.000001"
           x="14 16.992065 23.724215 26.716282 31.963398 37.969532 44.701679 47.704746 53.699879 60.43203">(disabled)</tspan></text>
<path
         id="path102"
         style="fill:#e3f3ff;fill-opacity:1;fill-rule:nonzero;stroke:#000000;stroke-width:1;stroke-linecap:butt;stroke-linejoin:miter;stroke-miterlimit:10;stroke-dasharray:none;stroke-opacity:1"
         d="m 188,394.5 h 130 v -37 H 188 Z" /><text
         id="text106"
         style="font-variant:normal;font-weight:normal;font-size:11.00024414px;font-family:'Open Sans';-inkscape-font-specification:OpenSans;writing-mode:lr-tb;fill:#000000;fill-opacity:1;fill-rule:nonzero;stroke:none"
         transform="matrix(1,0,0,-1,215,373.19922)"><tspan
           id="tspan104"
           y="0"
           x="0 6.7431498 12.749283 19.492432 26.224581 32.230717 36.718815 39.721882 42.724949 48.720081 54.726215 59.214314 65.231445 71.204582">Render::Target</tspan></text>
<path
         id="path108"
         style="fill:none;stroke:#000000;stroke-width:1;stroke-linecap:butt;stroke-linejoin:miter;stroke-miterlimit:10;stroke-dasharray:none;stroke-opacity:1"
         d="m 187.652,376 c -39.644,0 -82.652,0 -82.652,0 0,0 0,-49.328 0,-49.328" /><path
         id="path110"
         style="fill:#000000;fill-opacity:1;fill-rule:nonzero;stroke:#000000;stroke-width:1;stroke-linecap:butt;stroke-linejoin:miter;stroke-miterlimit:10;stroke-dasharray:none;stroke-opacity:1"
         d="m 107.102,326.672 -2.102,-6 -2.102,6 z" /><path
         id="path112"
         style="fill:none;stroke:#000000;stroke-width:1;stroke-linecap:butt;stroke-linejoin:miter;stroke-miterlimit:10;stroke-dasharray:none;stroke-opacity:1"
         d="m 253,357.328 c 0,0 0,-30.66 0,-30.66" /><path
         id="path114"
         style="fill:#000000;fill-opacity:1;fill-rule:nonzero;stroke:#000000;stroke-width:1;stroke-linecap:butt;stroke-linejoin:miter;stroke-miterlimit:10;stroke-dasharray:none;stroke-opacity:1"
         d="m 255.102,326.668 -2.102,-6 -2.102,6 z" /><path
         id="path116"
         style="fill:none;stroke:#000000;stroke-width:1;stroke-linecap:butt;stroke-linejoin:miter;stroke-miterlimit:10;stroke-dasharray:none;stroke-opacity:1"
         d="m 318.348,376 c 39.644,0 82.652,0 82.652,0 0,0 0,-49.328 0,-49.328" /><path
         id="path118"
         style="fill:#000000;fill-opacity:1;fill-rule:nonzero;stroke:#000000;stroke-width:1;stroke-linecap:butt;stroke-linejoin:miter;stroke-miterlimit:10;stroke-dasharray:none;stroke-opacity:1"
         d="m 403.102,326.672 -2.102,-6 -2.102,6 z" /></g></g></svg>